<svg xmlns="http://www.w3.org/2000/svg" viewBox="111 38 555 190"><path d="M299.796 38.346H477.19c3.29 0 5.95 2.66 5.95 5.95V221.69c0 3.29-2.66 5.95-5.95 5.95H299.796c-3.29 0-5.95-2.66-5.95-5.95V44.31c0-3.29 2.66-5.95 5.95-5.95Z" fill="#fff"/><path d="M477.204 224.602H299.81c-1.61 0-2.898-1.302-2.912-2.912V44.296c0-1.61 1.302-2.898 2.912-2.912h177.394c1.61 0 2.898 1.302 2.912 2.912V221.69c0 1.61-1.302 2.898-2.912 2.912ZM299.796 42.448a1.87 1.87 0 0 0-1.862 1.862v177.394c0 1.022.826 1.862 1.862 1.862H477.19a1.87 1.87 0 0 0 1.862-1.862V44.296a1.87 1.87 0 0 0-1.862-1.862H299.796Z" fill="#9e9e9f"/><path d="M340.284 133.014c-.294 0-.518-.238-.532-.532V88.27a.532.532 0 1 1 1.064 0v44.212a.52.52 0 0 1-.532.518Z" fill="#9e9e9f"/><path d="M340.284 133.266h-25.438a.784.784 0 0 1-.784-.784V88.27c0-.434.35-.784.784-.784h25.48l.28.014h.084l.266.042s.056 0 .098.028l.266.084s.056.014.07.028l.28.112.084.042.28.154s.056.028.084.056l.266.196s.042.028.056.042l.266.238.056.056.266.294s.028.042.042.056l.266.35s.028.042.042.07l.252.406s.028.042.028.07l.238.476.028.056.21.546s.014.042.028.07l.182.63s0 .042.014.07l.14.714v.056l.098.798v.056l.028.882.07 5.46.042 5.446v10.584l-.042 5.432-.07 5.446-.028.896v.056l-.098.798v.07l-.14.714s0 .042-.014.07l-.182.63s0 .042-.028.07l-.21.546s-.014.042-.028.056l-.238.476s-.028.042-.028.07l-.252.406s-.028.042-.042.07l-.266.35s-.028.042-.056.056l-.266.294-.056.056-.266.238s-.042.028-.07.056l-.266.196s-.042.028-.07.042l-.28.154-.084.042-.28.112s-.056.028-.084.028l-.266.084s-.056.014-.084.028l-.266.042h-.364l-.042.014Zm-24.654-1.568h24.836l.182-.042.182-.056.196-.084.196-.112.21-.14.21-.182.21-.238.21-.28.21-.35.196-.406.182-.49.168-.56.126-.644.084-.742.028-.854.07-5.418.042-5.432v-10.57l-.042-5.432-.07-5.432-.028-.84-.084-.728-.126-.644-.168-.56-.182-.49-.196-.406-.21-.336-.21-.28-.21-.238-.21-.182-.21-.14-.196-.112-.196-.084-.182-.056-.182-.028H315.63v42.63Zm33.586 81.298c-7.686 0-13.916-6.23-13.916-13.916s6.23-13.916 13.916-13.916 13.916 6.23 13.916 13.916-6.23 13.916-13.916 13.916Zm0-26.782c-7.112 0-12.866 5.768-12.866 12.866 0 7.112 5.768 12.866 12.866 12.866 7.112 0 12.866-5.768 12.866-12.866 0-7.112-5.768-12.866-12.866-12.866Zm-23.814 34.818H305.76c-2.912 0-5.278-2.366-5.292-5.292v-33.334a5.288 5.288 0 0 1 5.292-5.292h19.642a5.288 5.288 0 0 1 5.292 5.292v33.334c0 2.912-2.366 5.278-5.292 5.292Zm-19.642-42.868a4.248 4.248 0 0 0-4.242 4.242v33.334c0 2.338 1.904 4.228 4.242 4.242h19.642c2.338 0 4.228-1.89 4.242-4.242v-33.334a4.248 4.248 0 0 0-4.242-4.242H305.76Zm82.74 43.47c-11.466 0-20.748-9.296-20.762-20.762v-3.57c0-11.466 9.296-20.762 20.762-20.762s20.762 9.296 20.762 20.762v3.57c0 11.466-9.296 20.748-20.762 20.762Zm0-44.058c-10.878 0-19.698 8.834-19.712 19.712v3.57c0 10.892 8.82 19.712 19.712 19.712s19.712-8.82 19.712-19.712v-3.57c0-10.878-8.834-19.698-19.712-19.712Zm0-97.37c-10.304 0-18.648-8.344-18.648-18.648S378.196 42.91 388.5 42.91s18.648 8.344 18.648 18.648c0 10.29-8.358 18.634-18.648 18.648Zm0-35.714c-9.422 0-17.066 7.644-17.066 17.066s7.644 17.066 17.066 17.066c9.422 0 17.066-7.644 17.066-17.066 0-9.422-7.644-17.066-17.066-17.066Zm48.216 88.522c-.294 0-.518-.238-.532-.532V88.27a.532.532 0 1 1 1.064 0v44.212a.52.52 0 0 1-.532.518Z" fill="#9e9e9f"/><path d="M462.154 133.266h-25.48l-.266-.014h-.084l-.266-.042s-.056 0-.084-.028l-.266-.084s-.056-.014-.084-.028l-.28-.112-.084-.042-.28-.154s-.042-.028-.07-.042l-.266-.196s-.042-.028-.07-.056l-.266-.238-.056-.056-.266-.294s-.028-.042-.056-.056l-.266-.35s-.028-.042-.042-.07l-.252-.406s-.028-.042-.028-.07l-.238-.476s-.014-.042-.028-.056l-.21-.546s-.014-.042-.028-.07l-.182-.63s0-.042-.014-.07l-.14-.714v-.07l-.098-.798v-.056l-.028-.882-.07-5.46-.042-5.446V105.07l.042-5.446.07-5.446.028-.91v-.056l.098-.798v-.056l.14-.714s0-.042.014-.07l.182-.63s0-.042.028-.07l.21-.546.028-.056.238-.476s.028-.042.028-.07l.252-.406s.028-.042.042-.07l.266-.35s.028-.042.042-.056l.266-.294.056-.056.266-.238s.042-.028.056-.042l.266-.196s.056-.042.084-.056l.28-.154.084-.042.28-.112s.056-.014.07-.028l.266-.084s.056-.014.098-.028l.266-.042h.35l.042-.014h25.438c.434 0 .784.35.784.784v44.212c0 .434-.35.784-.784.784Zm-25.41-1.568h24.626v-42.63h-24.836l-.182.042-.182.056-.196.084-.196.112-.196.14-.21.182-.21.238-.21.28-.21.336-.196.406-.182.49-.168.56-.126.644-.084.728-.028.854-.07 5.418-.042 5.432v10.57l.042 5.432.07 5.432.028.84.084.742.126.644.168.56.182.49.196.406.21.35.21.28.21.238.21.182.196.14.196.112.196.084.182.056.182.028h.21Z" fill="#9e9e9f"/><path d="M323.792 137.284a4.222 4.222 0 0 0-1.372-.238c-.56 0-1.148.196-1.148.826 0 .504.336.756 1.26 1.106 1.12.476 1.778.91 1.778 1.974 0 1.274-1.092 1.806-2.24 1.806a5.576 5.576 0 0 1-1.918-.322l.238-.882a4.325 4.325 0 0 0 1.68.378c.742 0 1.232-.308 1.232-.91 0-.546-.476-.84-1.4-1.204-1.05-.42-1.652-.952-1.652-1.862 0-1.246 1.106-1.764 2.128-1.764.56 0 1.106.07 1.624.252l-.21.84Zm3.486 5.474a2.449 2.449 0 0 0 2.604-2.296 2.449 2.449 0 0 0-2.296-2.604 2.449 2.449 0 0 0-2.604 2.296v.154a2.19 2.19 0 0 0 1.918 2.436c.126.014.252.014.378 0m0-4.13c.868 0 1.274.7 1.274 1.68s-.406 1.694-1.274 1.694-1.274-.7-1.274-1.694.392-1.68 1.274-1.68m3.066-.672v4.732h1.008v-2.632c0-1.036.602-1.428 1.162-1.428.77 0 .966.504.966 1.316v2.744h1.036v-3.136a1.608 1.608 0 0 0-1.484-1.708h-.238a1.573 1.573 0 0 0-1.428.756h-.014v-.658h-.994Zm5.698 0h-1.12l1.876 4.592-.77 1.848h1.064l2.562-6.44h-1.064l-1.274 3.472-1.274-3.472Zm49.616 4.732h3.766v-.882h-2.716v-1.974h2.408v-.854h-2.408v-1.82h2.632v-.854h-3.682v6.384Zm4.578-4.732v4.732h1.008v-2.632c0-1.036.574-1.428 1.162-1.428.77 0 .98.504.98 1.316v2.744h1.008v-3.136a1.722 1.722 0 0 0-3.15-.952v-.658h-.994Zm-46.004 0v4.732h1.036v-2.632c0-1.036.588-1.428 1.148-1.428.784 0 .994.504.994 1.316v2.744h1.022v-3.136a1.587 1.587 0 0 0-1.47-1.708h-.252a1.634 1.634 0 0 0-1.456.756v-.658h-.994Zm50.666.77h.784v2.66c0 .868.196 1.344 1.26 1.344.28 0 .574-.014.784-.028v-.784a2.734 2.734 0 0 1-.476.042c-.49 0-.546-.112-.546-.756v-2.464h1.036v-.77h-1.036v-1.232h-1.008v1.232h-.784v.77Zm7.546 1.876v-.434c0-1.414-.7-2.31-2.058-2.31-1.232 0-2.226.98-2.24 2.212v.252a2.284 2.284 0 0 0 2.156 2.436h.364c.476.014.966-.056 1.414-.21l-.126-.756c-.378.14-.784.21-1.19.21a1.461 1.461 0 0 1-1.61-1.288v-.112h3.29Zm-3.29-.742c0-.686.546-1.26 1.232-1.274.602 0 1.106.476 1.12 1.078v.196h-2.338m6.44-2.002h-.182a1.226 1.226 0 0 0-1.218.728h-.028v-.616h-.994v4.732h1.022v-2.506c0-1.134.504-1.526 1.12-1.526h.21l.056-.798Zm-56.686.868h.77v2.66c0 .868.196 1.344 1.288 1.344.266 0 .56-.014.756-.028v-.784a2.578 2.578 0 0 1-.462.042c-.49 0-.546-.112-.546-.756v-2.464h1.008v-.77h-1.008v-1.232h-1.05v1.232h-.77v.77Zm19.726 0h.798v2.66c0 .868.168 1.344 1.274 1.344.266 0 .546-.014.77-.028v-.784a2.734 2.734 0 0 1-.476.042c-.49 0-.546-.112-.546-.756v-2.464h1.036v-.77h-1.036v-1.232h-1.022v1.232h-.798v.77Zm-12.166 1.876v-.434c0-1.414-.7-2.31-2.044-2.31a2.223 2.223 0 0 0-2.254 2.198v.266a2.29 2.29 0 0 0 2.142 2.436h.364c.476.028.966-.056 1.414-.21l-.14-.756c-.378.14-.784.21-1.19.21a1.47 1.47 0 0 1-1.596-1.316v-.084h3.29Zm-3.29-.742c0-.7.546-1.274 1.246-1.274.602 0 1.092.49 1.092 1.092v.182h-2.324m29.764.742v-.434c0-1.414-.686-2.31-2.03-2.31a2.247 2.247 0 0 0-2.268 2.212v.252a2.304 2.304 0 0 0 2.17 2.436h.364c.476.028.952-.056 1.4-.21l-.14-.756c-.364.14-.77.21-1.162.21a1.479 1.479 0 0 1-1.638-1.302v-.098h3.304Zm-3.304-.742c0-.7.574-1.274 1.274-1.274.616 0 1.106.504 1.106 1.106v.168h-2.366m-19.964-2.002h-.196a1.226 1.226 0 0 0-1.232.728v-.616h-.994v4.732h1.008v-2.506c0-1.134.518-1.526 1.148-1.526h.21l.07-.798Zm46.606.868h.658v2.66c0 .868.21 1.344 1.26 1.344.28 0 .574-.014.798-.028v-.784a2.895 2.895 0 0 1-.49.042c-.462 0-.56-.112-.56-.756v-2.464h1.064v-.77h-1.064v-1.232h-1.022v1.232h-.658v.77Zm6.174.98c-1.61 0-2.968.252-2.968 1.624 0 1.092.826 1.428 1.624 1.428a1.537 1.537 0 0 0 1.428-.728h.028c0 .224.042.448.098.672h.896a9.51 9.51 0 0 1-.056-1.092v-2.002c0-1.134-.686-1.736-2.058-1.736a4.48 4.48 0 0 0-1.484.266l.21.756a3.569 3.569 0 0 1 1.218-.252c.756 0 1.078.35 1.078.966v.112Zm0 .658v.378a1.162 1.162 0 0 1-1.036 1.274h-.182a.693.693 0 0 1-.77-.602v-.14c0-.742.854-.91 1.806-.91h.196Zm-49.518-.658c-1.582 0-2.954.252-2.954 1.624 0 1.092.812 1.428 1.624 1.428a1.551 1.551 0 0 0 1.428-.728h.014c0 .224.042.448.098.672h.896a5.726 5.726 0 0 1-.07-1.092v-2.002c0-1.134-.658-1.736-2.016-1.736a4.48 4.48 0 0 0-1.484.266l.196.756a3.49 3.49 0 0 1 1.204-.252c.756 0 1.078.35 1.078.966v.112Zm0 .658v.378a1.16 1.16 0 0 1-1.022 1.274h-.168a.707.707 0 0 1-.798-.588v-.14c0-.742.868-.91 1.82-.91h.182Zm52.668-4.214h-1.022v.952h1.022v-.952Zm-.014 1.792h-1.008v4.732h1.008v-4.732Zm-42.21-1.792h-1.036v.952h1.036v-.952Zm-.028 1.792h-1.022v4.732h1.022v-4.732Zm43.316 0v4.732h1.008v-2.632c0-1.036.602-1.428 1.162-1.428.77 0 .966.504.966 1.316v2.744h1.022v-3.136a1.583 1.583 0 0 0-1.442-1.708h-.266a1.634 1.634 0 0 0-1.456.756v-.658h-.994Zm5.208 0v4.732h1.022v-2.674c0-.994.504-1.386 1.064-1.386.77 0 .91.476.91 1.26v2.8h1.008v-2.898a1.026 1.026 0 0 1 .882-1.162h.154c.742 0 .896.532.896 1.316v2.744h1.036v-3.136a1.565 1.565 0 0 0-1.386-1.708h-.308a1.6 1.6 0 0 0-1.47.756h-.042a1.365 1.365 0 0 0-1.386-.756 1.47 1.47 0 0 0-1.372.784h-.028v-.672h-.994Zm11.97 2.646v-.434c0-1.414-.686-2.31-2.03-2.31a2.223 2.223 0 0 0-2.254 2.198v.266a2.284 2.284 0 0 0 2.156 2.436h.378c.476.014.952-.056 1.4-.21l-.14-.756c-.378.14-.784.224-1.19.21-.812.07-1.54-.518-1.61-1.33v-.07h3.29Zm-3.29-.742c0-.7.574-1.274 1.274-1.274.616 0 1.106.518 1.092 1.134v.154h-2.352m4.06-1.904v4.732h.994v-2.632c0-1.036.588-1.428 1.162-1.428.798 0 .98.504.98 1.316v2.744h1.022v-3.136a1.745 1.745 0 0 0-1.764-1.708c-.56 0-1.092.294-1.4.756h-.028v-.658h-.966Zm4.648.77h.77v2.66c0 .868.196 1.344 1.26 1.344.28 0 .574-.014.784-.028v-.784a2.578 2.578 0 0 1-.462.042c-.462 0-.546-.112-.546-.756v-2.464h1.008v-.77h-1.008v-1.232h-1.036v1.232h-.77v.77Zm5.222 3.962h1.078v-6.384h-1.078v6.384Zm-102.354 0h1.036v-6.384h-1.036v6.384Zm104.482-4.732v4.732h1.008v-2.632c0-1.036.588-1.428 1.162-1.428.784 0 .98.504.98 1.316v2.744h1.022v-3.136a1.733 1.733 0 0 0-3.164-.952h-.028v-.658h-.98Zm8.442.07a2.85 2.85 0 0 0-1.078-.168 2.308 2.308 0 0 0-2.45 2.17v.294a2.26 2.26 0 0 0 2.072 2.436h.378c.364.014.728-.042 1.078-.196l-.168-.742a1.752 1.752 0 0 1-.84.182 1.688 1.688 0 0 1-1.512-1.862 1.71 1.71 0 0 1 1.484-1.512c.294 0 .574.056.84.168l.196-.756Zm-86.842 0a2.88 2.88 0 0 0-1.092-.168 2.329 2.329 0 0 0-2.464 2.17v.294a2.271 2.271 0 0 0 2.086 2.436h.378c.378.014.742-.042 1.092-.196l-.182-.742c-.266.126-.56.196-.854.182a1.689 1.689 0 0 1-1.498-1.876c.084-.784.7-1.4 1.484-1.498.294 0 .574.056.84.168l.21-.756Zm87.696 4.662h1.162v-1.176h-1.162v1.176Zm-79.142.014 1.778-4.746h-1.092l-1.232 3.822h-.014l-1.246-3.822h-1.134l1.778 4.746h1.162zm52.29-48.51a6.758 6.758 0 0 0-6.664-6.86 6.758 6.758 0 0 0-6.86 6.664 6.758 6.758 0 0 0 6.664 6.86h.098a6.716 6.716 0 0 0 6.748-6.664Zm-.896 0a5.862 5.862 0 0 1-5.978 5.74 5.862 5.862 0 0 1-5.74-5.978 5.866 5.866 0 0 1 5.866-5.74 5.88 5.88 0 0 1 5.852 5.908v.07Zm-59.43 2.996a4.032 4.032 0 0 1-1.204-2.982 4.409 4.409 0 0 1 1.204-3.136 4.971 4.971 0 0 1 6.496 0 4.337 4.337 0 0 1 1.19 3.136 3.947 3.947 0 0 1-1.19 2.982 4.377 4.377 0 0 1-3.248 1.358 4.509 4.509 0 0 1-3.248-1.358Zm9.352.784a5.566 5.566 0 0 0 1.61-3.78 5.149 5.149 0 0 0-1.61-3.878 8.74 8.74 0 0 0-6.104-2.072 9.663 9.663 0 0 0-6.076 2.058 5.145 5.145 0 0 0-1.652 3.878c0 1.428.616 2.8 1.652 3.78a9.28 9.28 0 0 0 6.076 2.072 9.156 9.156 0 0 0 6.104-2.072Zm-23.534-9.702a9.16 9.16 0 0 0-3.948.812 3.045 3.045 0 0 0-2.072 2.758c0 .714.28 1.4.77 1.932.602.616 1.4.994 2.254 1.078 1.078.238 2.17.42 3.276.546 1.302.154 2.618.294 3.15.434.378.112 1.106.28 1.106.98 0 .532-.364 1.008-.868 1.176a5.841 5.841 0 0 1-2.618.518 10.202 10.202 0 0 1-3.108-.602 4.14 4.14 0 0 1-1.82-1.232 1.965 1.965 0 0 1-.378-1.176h-1.428v4.102h1.582v-.602c0-.07.07-.182.35-.182.77.322 1.568.588 2.38.798.798.21 1.61.322 2.422.322a9.563 9.563 0 0 0 3.262-.49 9.619 9.619 0 0 0 1.974-.896 2.88 2.88 0 0 0 1.036-2.17 2.87 2.87 0 0 0-.84-2.128 3.188 3.188 0 0 0-1.05-.77 7.53 7.53 0 0 0-1.288-.476 22.573 22.573 0 0 0-3.598-.546 27.634 27.634 0 0 1-3.22-.364.827.827 0 0 1-.602-.798c0-.378.224-.714.56-.868a7.11 7.11 0 0 1 2.954-.504 9.486 9.486 0 0 1 3.43.56c.294.126.574.308.826.532.392.378.672.854.798 1.386h1.316v-3.612h-1.47v.448c0 .14-.126.336-.406.182a10.324 10.324 0 0 0-4.732-1.12Zm31.808.658 7.07 6.482.028-4.354c-.028-.602-.126-.798-.728-.798h-1.344v-1.316h6.062v1.316H396.2c-.63 0-.672.182-.672.798l.028 8.316h-2.058l-8.148-7.294v5.152c0 .602.028.882.616.882h1.428v1.26h-5.922v-1.26h1.372c.518 0 .504-.532.504-.91v-6.104c0-.434-.056-.84-.84-.84h-1.148v-1.316h5.068Zm17.906 9.17s.308 0 .364-.014a.61.61 0 0 0 .266-.266c.014-.098.028-.196.028-.294v-2.058s0-.07-.084-.196-3.696-4.27-3.85-4.494c-.28-.322-.7-.518-1.134-.518h-1.232v-1.316h7.07v1.316h-.868c-.182 0-.322.154-.14.35 0 0 2.38 2.968 2.408 2.982.014.042.042.042.056 0 .028-.028 2.45-2.954 2.478-2.982.112-.126.028-.35-.21-.35h-.896v-1.316h5.852v1.316h-1.316a1.17 1.17 0 0 0-1.022.42c-.168.196-3.808 4.466-3.92 4.578a.322.322 0 0 0-.056.196v2.058c0 .098 0 .196.028.294a.476.476 0 0 0 .28.266c.126 0 .238.014.364.014h1.33v1.26h-7.056v-1.26h1.246Z" fill="#c8c9ca"/><path d="m424.172 97.902.056-.056a10.603 10.603 0 0 1-.252-1.876c-.112-.686-.322-1.232-1.204-1.232h-2.198l.112.112v2.996l.084.042h-1.26l.07-.056v-7.504l-.07-.056h3.304c.35 0 .686.042 1.022.126a2.188 2.188 0 0 1 1.498 2.688c-.14.504-.462.938-.91 1.232-.196.028-.392.042-.574.028 1.078 0 1.218.63 1.316 1.918.028.532.154 1.05.35 1.554l.14.084h-1.47Zm-1.386-6.594h-2.226l.112.098v2.436l-.112.084h2.198a1.383 1.383 0 0 0 1.526-1.232v-.224c0-.644-.476-1.162-1.498-1.162Z" fill="#c8c9ca"/><path d="M406.952 200.858c-.014 10.192-8.302 18.438-18.494 18.424-10.164-.014-18.396-8.26-18.424-18.424v-3.57c.014-10.192 8.302-18.438 18.494-18.424 10.164.014 18.396 8.26 18.424 18.424v3.57Z" fill="#e5e5e6"/><path d="M388.5 220.108c-10.626 0-19.236-8.624-19.236-19.236v-3.57c0-10.626 8.61-19.236 19.236-19.236s19.236 8.61 19.236 19.236v3.57c0 10.626-8.624 19.222-19.236 19.236Zm0-40.474c-9.758 0-17.654 7.91-17.668 17.668v3.57c0 9.758 7.924 17.654 17.682 17.64 9.744 0 17.64-7.91 17.64-17.64v-3.57c0-9.758-7.91-17.654-17.668-17.668Zm-63.098 39.242H305.76a3.125 3.125 0 0 1-3.122-3.122V182.42c0-1.722 1.4-3.122 3.122-3.122h19.642c1.722 0 3.122 1.4 3.122 3.122v33.334c0 1.722-1.4 3.122-3.122 3.122Zm-19.642-38.01c-.854 0-1.554.7-1.554 1.554v33.334c0 .854.7 1.554 1.554 1.554h19.642c.854 0 1.554-.7 1.554-1.554V182.42c0-.854-.7-1.554-1.554-1.554H305.76Z" fill="#9e9e9f"/><path d="M311.108 189.014h8.932c.952 0 1.736.77 1.736 1.736v1.792c0 .952-.77 1.736-1.736 1.736h-8.932c-.952 0-1.736-.77-1.736-1.736v-1.792c0-.952.77-1.736 1.736-1.736Z" fill="#9e9e9f"/><path d="M320.04 195.048h-8.932a2.527 2.527 0 0 1-2.52-2.52v-1.792a2.527 2.527 0 0 1 2.52-2.52h8.932a2.527 2.527 0 0 1 2.52 2.52v1.792a2.527 2.527 0 0 1-2.52 2.52Zm-8.932-5.25a.941.941 0 0 0-.938.952v1.792c0 .518.42.952.938.952h8.932c.518 0 .952-.42.952-.952v-1.792a.953.953 0 0 0-.952-.952h-8.932Zm0 14.098h8.932c.952 0 1.736.77 1.736 1.736v1.792c0 .952-.77 1.736-1.736 1.736h-8.932c-.952 0-1.736-.77-1.736-1.736v-1.792c0-.952.77-1.736 1.736-1.736Z" fill="#9e9e9f"/><path d="M320.04 209.93h-8.932a2.527 2.527 0 0 1-2.52-2.52v-1.792a2.527 2.527 0 0 1 2.52-2.52h8.932a2.527 2.527 0 0 1 2.52 2.52v1.792a2.527 2.527 0 0 1-2.52 2.52Zm-8.932-5.25a.941.941 0 0 0-.938.952v1.792c0 .518.42.952.938.952h8.932c.518 0 .952-.42.952-.952v-1.792a.953.953 0 0 0-.952-.952h-8.932Z" fill="#9e9e9f"/><path d="M310.436 189.966h10.29v3.332h-10.29z" fill="#ddd583"/><path d="M320.726 194.096h-10.29a.784.784 0 0 1-.784-.784v-3.332c0-.434.35-.784.784-.784h10.304c.434 0 .784.35.784.784v3.332c0 .434-.35.784-.784.784Zm-9.506-1.568h8.722v-1.764h-8.722v1.764Z" fill="#9e9e9f"/><path d="M310.436 204.848h10.29v3.332h-10.29z" fill="#ddd583"/><path d="M320.726 208.964h-10.29a.784.784 0 0 1-.784-.784v-3.332c0-.434.35-.784.784-.784h10.304c.434 0 .784.35.784.784v3.332c0 .434-.35.784-.784.784Zm-9.506-1.568h8.722v-1.764h-8.722v1.764Zm37.996 4.074c-6.846 0-12.39-5.544-12.39-12.39s5.544-12.39 12.39-12.39 12.39 5.544 12.39 12.39-5.558 12.39-12.39 12.39Zm0-23.212c-5.978 0-10.822 4.844-10.822 10.822s4.844 10.822 10.822 10.822a10.822 10.822 0 1 0 0-21.644Z" fill="#9e9e9f"/><path d="M349.216 208.348c-5.124 0-9.282-4.158-9.282-9.282s4.158-9.282 9.282-9.282 9.282 4.158 9.282 9.282-4.158 9.268-9.282 9.282Zm0-16.982c-4.256 0-7.7 3.444-7.7 7.7s3.444 7.7 7.7 7.7 7.7-3.444 7.7-7.7-3.444-7.7-7.7-7.7Z" fill="#9e9e9f"/><path d="M351.106 195.202c2.142 1.05 3.038 3.626 1.988 5.768-1.05 2.142-3.626 3.038-5.768 1.988s-3.038-3.626-1.988-5.768a4.277 4.277 0 0 1 1.988-1.988l-.476-.966a5.383 5.383 0 0 0-2.478 7.21 5.383 5.383 0 0 0 7.21 2.478 5.383 5.383 0 0 0 2.478-7.21 5.381 5.381 0 0 0-2.478-2.478l-.476.966Z" fill="#9e9e9f"/><path d="M348.628 192.192h1.162v6.678h-1.162zm95.536 28.546c-11.956 0-21.658-9.702-21.658-21.658 0-11.956 9.702-21.658 21.658-21.658 11.956 0 21.658 9.702 21.658 21.658-.014 11.956-9.702 21.644-21.658 21.658Zm0-42.266c-11.382 0-20.608 9.226-20.608 20.608s9.226 20.608 20.608 20.608 20.608-9.226 20.608-20.608-9.226-20.594-20.608-20.608Z" fill="#9e9e9f"/><path d="M463.512 199.08c0-10.682-8.666-19.348-19.348-19.348s-19.348 8.666-19.348 19.348 8.666 19.348 19.348 19.348 19.348-8.666 19.348-19.348Z" fill="#3e3a39"/><path d="M444.164 219.212c-11.116 0-20.132-9.016-20.132-20.132s9.016-20.132 20.132-20.132 20.132 9.016 20.132 20.132-9.016 20.118-20.132 20.132Zm0-38.696c-10.248 0-18.564 8.302-18.564 18.564s8.302 18.564 18.564 18.564c10.248 0 18.564-8.302 18.564-18.564 0-10.248-8.316-18.55-18.564-18.564Z" fill="#9e9e9f"/><path d="M444.164 206.822a7.74 7.74 0 0 1-7.742-7.742 7.74 7.74 0 0 1 7.742-7.742 7.74 7.74 0 0 1 7.742 7.742c0 4.27-3.472 7.742-7.742 7.742Zm0-13.916a6.174 6.174 0 1 0 6.174 6.174c0-3.402-2.758-6.16-6.174-6.174Z" fill="#9e9e9f"/><path d="M444.164 201.628c-1.414 0-2.548-1.148-2.548-2.548s1.148-2.548 2.548-2.548 2.548 1.148 2.548 2.548a2.548 2.548 0 0 1-2.548 2.548Zm0-3.528a.974.974 0 0 0-.98.98c0 .546.434.98.98.98s.98-.434.98-.98a.974.974 0 0 0-.98-.98Z" fill="#9e9e9f"/><path d="m304.92 139.566-.294-.448-.252-.504-.224-.56-.196-.616-.14-.658V83.972l.14-.658.196-.602.224-.56.252-.518.294-.448.238-.322v59.024l-.238-.322zm8.82 0 .28-.448.266-.504.224-.56.182-.616.154-.658V83.972l-.154-.658-.182-.602-.224-.56-.266-.518-.28-.448-.252-.322v59.024l.252-.322z" fill="#231815"/><path d="m310.226 141.596.364-.014.378-.056.364-.098.378-.14.35-.168.364-.224.35-.252.336-.308.322-.364.056-.084V80.864l-.056-.084-.322-.35-.336-.308-.35-.266-.364-.21-.35-.182-.378-.126-.364-.098-.378-.056-.364-.028h-1.792l-.378.028-.364.056-.378.098-.364.126-.364.182-.35.21-.35.266-.336.308-.322.35-.07.084v59.024l.07.084.322.364.336.308.35.252.35.224.364.168.364.14.378.098.364.056.378.014h1.792z" fill="#c8c9ca"/><path d="M310.226 142.38h-1.82l-.378-.014h-.084l-.378-.056s-.056 0-.07-.014l-.378-.098s-.056-.014-.07-.028l-.364-.14s-.042-.014-.07-.028l-.364-.182s-.042-.028-.07-.042l-.35-.21s-.042-.028-.056-.042l-.35-.266s-.042-.028-.056-.042l-.336-.308s-.042-.028-.056-.056l-.322-.35s-.028-.028-.042-.056l-.07-.084a.854.854 0 0 1-.168-.476V80.864c0-.168.056-.336.154-.476l.07-.084s.028-.042.042-.056l.322-.35s.028-.042.056-.056l.336-.308s.042-.028.056-.042l.35-.266s.042-.028.056-.042l.35-.224s.042-.028.07-.042l.364-.168s.042-.028.07-.028l.364-.126s.042-.014.07-.028l.378-.098s.056 0 .084-.014l.378-.056h.448l.042-.014h1.834l.378.014h.07l.378.056s.056 0 .084.014l.378.098s.042 0 .07.014l.364.14s.056.014.07.028l.364.168s.042.028.07.042l.364.224s.042.028.07.042l.35.266s.042.028.056.042l.336.308s.042.028.056.056l.322.35s.042.042.056.07l.056.084c.098.14.154.294.154.462v59.024a.838.838 0 0 1-.154.476l-.056.084s-.028.042-.056.056l-.322.35s-.028.042-.056.056l-.336.308s-.042.028-.056.042l-.35.266s-.042.028-.07.042l-.364.21s-.042.028-.07.028l-.364.182s-.042.028-.07.028l-.364.14s-.056.014-.07.028l-.378.098s-.056 0-.07.014l-.378.056h-.462l-.042.014Zm-1.764-1.568h2.058l.294-.056.294-.07.294-.112.294-.14.294-.182.294-.21.28-.252.154-.168v-58.45l-.154-.168-.28-.252-.294-.224-.294-.182-.294-.14-.294-.112-.294-.07-.294-.042h-.308l-1.75-.014h-.308l-.294.056-.294.07-.294.112-.294.14-.294.182-.294.224-.28.252-.154.168v58.45l.154.168.28.252.294.21.294.182.294.14.294.112.294.07.294.042h.308Z" fill="#9e9e9f"/><path d="M310.226 142.38h-1.82l-.378-.014h-.084l-.378-.056s-.056 0-.07-.014l-.378-.098s-.056-.014-.07-.028l-.364-.14s-.042-.014-.07-.028l-.364-.182s-.042-.028-.07-.042l-.35-.21s-.042-.028-.056-.042l-.35-.266s-.042-.028-.056-.042l-.336-.308s-.042-.028-.056-.056l-.322-.35s-.028-.028-.042-.056l-.308-.406s-.028-.042-.042-.056l-.28-.448s-.028-.042-.042-.056l-.252-.504s-.014-.042-.028-.056l-.224-.56s-.014-.042-.028-.056l-.182-.616s0-.042-.014-.056l-.14-.658s-.014-.112-.014-.168V84s0-.112.014-.168l.14-.658s0-.042.014-.056l.182-.616s.014-.042.028-.07l.224-.56s.014-.042.028-.056l.252-.504s.028-.042.042-.056l.28-.462.042-.056.308-.406.042-.056.322-.35s.028-.042.056-.056l.336-.308s.042-.028.056-.042l.35-.266s.042-.028.056-.042l.35-.224s.042-.028.07-.042l.364-.168s.042-.028.07-.028l.364-.126s.042-.014.07-.028l.378-.098s.056 0 .084-.014l.378-.056h.448l.042-.014h1.834l.378.014h.07l.378.056s.056 0 .084.014l.378.098s.042 0 .07.014l.364.14s.056.014.07.028l.364.168s.042.028.07.042l.364.224s.042.028.07.042l.35.266s.042.028.056.042l.336.308s.042.028.056.056l.322.35s.028.042.042.056l.308.406s.028.042.042.056l.28.462s.028.042.028.056l.266.504s.014.042.028.056l.224.56s.014.042.028.07l.182.616s0 .042.014.056l.14.658s.014.112.014.168v52.808s0 .112-.014.168l-.14.658s0 .042-.014.056l-.182.616s-.014.042-.028.056l-.224.56s-.014.042-.028.056l-.266.504s-.028.042-.028.056l-.28.448s-.028.042-.042.056l-.308.406s-.028.042-.042.056l-.322.35s-.028.042-.056.056l-.336.308s-.042.028-.056.042l-.35.266s-.042.028-.07.042l-.364.21s-.042.028-.07.028l-.364.182s-.042.028-.07.028l-.364.14s-.056.014-.07.028l-.378.098s-.056 0-.07.014l-.378.056h-.462l-.042.014Zm-1.764-1.568h2.058l.294-.056.294-.07.294-.112.294-.14.294-.182.294-.21.28-.252.28-.308.266-.35.252-.392.224-.448.196-.49.168-.546.126-.546V84.084l-.126-.546-.168-.546-.196-.49-.224-.448-.252-.392-.266-.35-.28-.294-.28-.252-.294-.224-.294-.182-.294-.14-.294-.112-.294-.07-.294-.042h-.308l-1.75-.014h-.308l-.294.056-.294.07-.294.112-.294.14-.294.182-.294.224-.28.252-.266.294-.266.35-.252.392-.224.448-.196.49-.168.546-.126.546v52.626l.126.546.168.546.196.504.224.448.252.392.266.35.28.308.28.252.294.21.294.182.294.14.294.112.294.07.294.042h.308Z" fill="#9e9e9f"/><path d="m472.08 139.566.28-.448.266-.504.224-.56.182-.616.154-.658V83.972l-.154-.658-.182-.602-.224-.56-.266-.518-.28-.448-.238-.322v59.024l.238-.322zm-8.82 0-.28-.448-.266-.504-.224-.56-.196-.616-.14-.658V83.972l.14-.658.196-.602.224-.56.266-.518.28-.448.238-.322v59.024l-.238-.322z" fill="#231815"/><path d="m466.774 141.596-.378-.014-.364-.056-.364-.098-.378-.14-.364-.168-.35-.224-.35-.252-.336-.308-.322-.364-.07-.084V80.864l.07-.084.322-.35.336-.308.35-.266.35-.21.364-.182.378-.126.364-.098.364-.056.378-.028h1.792l.364.028.378.056.364.098.378.126.35.182.364.21.35.266.336.308.322.35.07.084v59.024l-.07.084-.322.364-.336.308-.35.252-.364.224-.35.168-.378.14-.364.098-.378.056-.364.014h-1.792z" fill="#c8c9ca"/><path d="M468.566 142.38h-1.82l-.378-.014h-.084l-.378-.056s-.056 0-.07-.014l-.364-.098s-.056-.014-.07-.028l-.364-.14s-.056-.014-.07-.028l-.364-.182s-.042-.028-.07-.042l-.35-.21s-.042-.028-.056-.042l-.35-.266s-.042-.028-.056-.056l-.336-.308s-.042-.028-.056-.056l-.322-.35s-.028-.042-.056-.056l-.056-.084a.839.839 0 0 1-.154-.476V80.85c0-.168.056-.336.154-.462l.056-.084s.042-.042.056-.07l.322-.35.056-.056.336-.308s.042-.028.056-.042l.35-.266s.042-.028.056-.042l.35-.224s.042-.028.07-.042l.364-.168s.042-.028.07-.028l.364-.14s.042-.014.07-.014l.364-.098s.056 0 .084-.014l.378-.056h.448l.042-.014h1.834l.378.014h.07l.378.056s.056 0 .084.014l.364.098s.042 0 .07.014l.364.14s.056.014.07.028l.364.168s.042.028.07.042l.35.224s.042.028.056.042l.35.266s.042.028.056.042l.336.308s.042.028.056.056l.322.35s.028.042.056.056l.07.084c.098.14.154.308.154.476v59.024a.76.76 0 0 1-.168.476l-.07.084s-.028.042-.042.056l-.322.35-.056.056-.336.308s-.042.028-.056.056l-.35.266s-.042.028-.056.042l-.35.21s-.042.028-.07.042l-.364.182s-.042.028-.07.028l-.364.14s-.042.014-.07.028l-.364.098s-.056 0-.07.014l-.378.056h-.462l-.042.014Zm-1.764-1.568h2.058l.294-.056.294-.07.294-.112.294-.14.294-.182.294-.21.28-.252.154-.168V81.186l-.154-.168-.28-.252-.294-.224-.294-.182-.294-.14-.294-.112-.294-.07-.294-.042h-.308l-1.75-.014h-.308l-.294.056-.294.07-.294.112-.294.14-.294.182-.294.224-.28.252-.154.168v58.45l.154.168.28.252.294.21.294.182.294.14.294.112.294.07.294.042h.308Z" fill="#9e9e9f"/><path d="M468.566 142.38h-1.82l-.378-.014h-.084l-.378-.056s-.056 0-.07-.014l-.364-.098s-.056-.014-.07-.028l-.364-.14s-.056-.014-.07-.028l-.364-.182s-.042-.028-.07-.042l-.35-.21s-.042-.028-.056-.042l-.35-.266s-.042-.028-.056-.056l-.336-.308s-.042-.028-.056-.056l-.322-.35s-.028-.042-.042-.056l-.308-.406s-.028-.042-.042-.056l-.28-.448s-.028-.042-.028-.056l-.266-.504s-.014-.042-.028-.056l-.224-.56s-.014-.042-.028-.056l-.182-.616s0-.042-.014-.056l-.14-.658s-.014-.112-.014-.168V83.986s0-.112.014-.168l.14-.658s0-.042.014-.056l.182-.616s.014-.042.028-.07l.224-.56s.014-.042.028-.056l.266-.504s.028-.042.028-.056l.28-.448s.028-.042.042-.056l.308-.406s.028-.042.042-.056l.322-.35.056-.056.336-.308s.042-.028.056-.042l.35-.266s.042-.028.056-.042l.35-.224s.042-.028.07-.042l.364-.168s.042-.028.07-.028l.364-.14s.042-.014.07-.014l.364-.098s.056 0 .084-.014l.378-.056h.448l.042-.014h1.834l.378.014h.07l.378.056s.056 0 .084.014l.364.098s.042 0 .07.014l.364.14s.056.014.07.028l.364.168s.042.028.07.042l.35.224s.042.028.056.042l.35.266s.042.028.056.042l.336.308s.042.028.056.056l.322.35s.028.042.042.056l.308.406s.028.042.042.056l.28.448s.028.042.028.056l.266.504s.014.042.028.056l.224.56s.014.042.028.07l.182.616s0 .042.014.056l.14.658s.014.112.014.168v52.808s0 .112-.014.168l-.14.658s0 .042-.014.056l-.182.616s0 .042-.028.056l-.224.56s-.014.042-.028.056l-.266.504-.028.056-.28.448s-.028.042-.042.056l-.308.406s-.028.042-.042.056l-.322.35-.056.056-.336.308s-.042.028-.056.056l-.35.266s-.042.028-.056.042l-.35.21s-.042.028-.07.042l-.364.182s-.042.028-.07.028l-.364.14s-.042.014-.07.028l-.364.098s-.056 0-.07.014l-.378.056h-.462l-.042.014Zm-1.764-1.568h2.058l.294-.056.294-.07.294-.112.294-.14.294-.182.294-.21.28-.252.28-.308.266-.35.252-.392.224-.448.196-.49.168-.546.126-.546V84.084l-.126-.546-.168-.546-.196-.49-.224-.448-.252-.392-.266-.35-.28-.294-.28-.252-.294-.224-.294-.182-.294-.14-.294-.112-.294-.07-.294-.042h-.308l-1.75-.014h-.308l-.294.056-.294.07-.294.112-.294.14-.294.182-.294.224-.28.252-.28.294-.266.35-.252.392-.224.448-.196.49-.168.546-.126.546v52.626l.126.546.168.546.196.49.224.448.252.392.266.35.28.308.28.252.294.21.294.182.294.14.294.112.294.07.294.042h.308Z" fill="#9e9e9f"/><path d="M477.204 228.704H299.81c-3.864 0-7-3.136-7-7V44.296c0-3.864 3.136-7 7-7h177.394c3.864 0 7 3.136 7 7V221.69c0 3.864-3.136 7-7 7ZM299.796 39.396a4.905 4.905 0 0 0-4.9 4.9V221.69c0 2.702 2.198 4.9 4.9 4.9H477.19c2.702 0 4.9-2.198 4.9-4.9V44.296c0-2.702-2.198-4.9-4.9-4.9H299.796Z" fill="#231815"/><path d="M232.274 201.194v10.64h1.778c1.89-.028 3.276-.504 4.172-1.47.882-.952 1.33-2.254 1.316-3.878 0-1.61-.434-2.898-1.316-3.85-.896-.952-2.282-1.442-4.172-1.456h-1.778Zm-3.402-2.604h5.67c2.758.028 4.844.714 6.272 2.1 1.428 1.372 2.142 3.29 2.156 5.768 0 2.478-.728 4.41-2.156 5.824-1.428 1.414-3.514 2.128-6.258 2.156h-5.67V198.59Zm-16.59 0h5.25l5.082 12.642h.042V198.59h3.192v15.848h-5.082l-5.278-12.838h-.042v12.838h-3.164V198.59Zm-8.176-.266c.826 0 1.666.07 2.478.224.826.154 1.582.378 2.282.672l-.938 2.618c-.49-.28-1.064-.49-1.75-.672a9.426 9.426 0 0 0-2.058-.266c-1.722 0-3.08.518-4.088 1.498-1.008.994-1.526 2.38-1.554 4.2 0 1.022.21 1.946.63 2.772a4.822 4.822 0 0 0 1.848 1.974c.812.49 1.792.742 2.968.742.406 0 .77-.028 1.12-.07a3.22 3.22 0 0 0 .896-.238v-3.962h-2.814v-2.576h6.202v8.33c-.868.406-1.792.7-2.758.868s-1.932.252-2.912.252c-1.75 0-3.276-.364-4.55-1.05a7.297 7.297 0 0 1-2.968-2.856c-.7-1.218-1.064-2.632-1.064-4.242 0-1.596.35-3.024 1.036-4.256.686-1.232 1.708-2.198 3.038-2.898 1.344-.7 2.982-1.064 4.942-1.078Zm24.304-41.496h3.724l4.102 12.936h.042l4.102-12.936h3.682l-5.712 16.114h-4.242l-5.712-16.114Zm-10.71 0h9.296v2.646h-6.286l-.266 3.402c.308-.028.574-.056.798-.056h.616c1.078 0 2.058.196 2.954.574.882.378 1.596.938 2.128 1.68s.812 1.652.812 2.73c0 1.204-.308 2.212-.868 3.01a5.31 5.31 0 0 1-2.282 1.806c-.952.392-2.002.602-3.164.602-.868 0-1.75-.084-2.618-.238a12.216 12.216 0 0 1-2.492-.742l.826-2.52c.574.252 1.204.462 1.876.616a9.189 9.189 0 0 0 2.058.238c.882 0 1.638-.182 2.282-.574.644-.392.966-1.064 1.008-2.03 0-.686-.224-1.218-.616-1.596-.392-.378-.91-.644-1.526-.798a7.937 7.937 0 0 0-1.932-.224c-.504 0-1.008.028-1.526.07a36.03 36.03 0 0 0-1.582.168l.504-8.75Z" fill="#666" fill-rule="evenodd"/><path d="M253.974 206.514h56.798" fill="none" stroke="#bfd833" stroke-miterlimit="10" stroke-width="2.8"/><path d="M310.52 211.778c2.912 0 5.264-2.352 5.264-5.264s-2.352-5.264-5.264-5.264-5.264 2.352-5.264 5.264 2.352 5.264 5.264 5.264Z" fill="#bfd833"/><path d="M253.974 165.018h56.462v26.67" fill="none" stroke="#bfd833" stroke-miterlimit="10" stroke-width="2.8"/><path d="M305.172 191.422c0 2.912 2.352 5.264 5.264 5.264s5.264-2.352 5.264-5.264-2.352-5.264-5.264-5.264-5.264 2.352-5.264 5.264Z" fill="#bfd833"/></svg>