<svg xmlns="http://www.w3.org/2000/svg" viewBox="0 0 286.926 147.402">
  <defs>
    <style>
      .cls-1 {
        fill: #fff;
      }

      .cls-2 {
        fill: #e5e5e6;
      }

      .cls-3 {
        fill: #c8c9ca;
      }

      .cls-4 {
        fill: #9e9e9f;
      }

      .cls-5 {
        fill: #231815;
      }

      .cls-6 {
        fill: #666;
      }

      .cls-7 {
        fill: none;
        stroke: #bfd833;
        stroke-linecap: round;
        stroke-miterlimit: 10;
        stroke-width: 0.5px;
      }

      .cls-8 {
        fill: #bfd833;
      }
    </style>
  </defs>
  <g id="レイヤー_2" data-name="レイヤー 2">
    <g>
      <path class="cls-1" d="M242.331,113.532l-3.385,1.61v.083H186.189l-1.41-1.41v-5.573h-1.551a.848.848,0,0,0-.848.848v1.974h-1.975a.845.845,0,0,1-.845-.847V97.805a.846.846,0,0,1,.845-.848l4.374-.114v-11l-4.374-.114a.845.845,0,0,1-.845-.845V55.853a.845.845,0,0,1,.845-.847l4.374-.114v-11l-4.374-.114a.845.845,0,0,1-.845-.847V30.519a.847.847,0,0,1,.845-.848h1.975v1.975a.846.846,0,0,0,.848.847h1.551V26.921l1.41-1.41h52.757V25.6l3.385,1.606v.848L243.7,29.2a5.651,5.651,0,0,1,2.014,4.323v5.985a5.649,5.649,0,0,1-2.014,4.32l-1.371,1.151.005,1.747c.322.3.63.606.928.928a17.63,17.63,0,0,1-.928,24.917l-.005,19.888.205,0a1.424,1.424,0,0,1,.765.241l1.936,1.307a6.207,6.207,0,0,1,2.737,5.144v5.062a6.207,6.207,0,0,1-2.737,5.145l-1.936,1.307a1.415,1.415,0,0,1-.765.24l-.205,0Z"/>
      <path class="cls-2" d="M242.331,92.458l.205,0a1.424,1.424,0,0,1,.765.241l1.936,1.307a6.207,6.207,0,0,1,2.737,5.144v5.062a6.207,6.207,0,0,1-2.737,5.145l-1.936,1.307a1.415,1.415,0,0,1-.765.24l-.205,0Z"/>
      <path class="cls-3" d="M242.336,46.725c.322.3.63.606.928.928a17.63,17.63,0,0,1-.928,24.917Z"/>
      <path class="cls-4" d="M182.628,62.52a.248.248,0,0,1-.248.248h-1.986l-.111-.008h-.021l-.109-.015a.137.137,0,0,1-.025,0l-.107-.026a.093.093,0,0,0-.021,0l-.1-.034-.029-.013-.09-.044a.139.139,0,0,1-.021-.01l-.083-.052a.112.112,0,0,1-.028-.018l-.073-.06-.026-.023-.059-.065a.348.348,0,0,1-.024-.028l-.049-.071a.316.316,0,0,1-.021-.033l-.034-.073-.018-.041-.02-.078a.243.243,0,0,1-.008-.047l-.008-.077a.248.248,0,0,1,.5-.044l0,.054.011.036.018.037.026.036.039.041.046.039.06.034.067.033.073.026.083.022.083.009.095.006h1.968A.248.248,0,0,1,182.628,62.52Zm.848,13.7v9.507a.249.249,0,1,1-.5,0V76.222A.249.249,0,0,1,183.476,76.222Zm0-21.216v9.507a.249.249,0,1,1-.5,0V55.006A.249.249,0,1,1,183.476,55.006Zm1.677-28.085v86.894a.373.373,0,0,1-.746,0V26.921A.373.373,0,0,1,185.153,26.921Zm1.41-1.41v89.714a.373.373,0,0,1-.746,0V25.511A.373.373,0,0,1,186.563,25.511Zm7.617,0v89.714a.373.373,0,0,1-.746,0V25.511A.373.373,0,0,1,194.18,25.511Zm27.082,0v89.714a.373.373,0,0,1-.746,0V25.511A.373.373,0,0,1,221.262,25.511Zm18.058,0v89.714a.374.374,0,0,1-.747,0V25.511A.374.374,0,0,1,239.32,25.511ZM242.7,27.2v86.329a.373.373,0,1,1-.746,0V27.2A.373.373,0,1,1,242.7,27.2Z"/>
      <path class="cls-4" d="M180.654,96.957v14.107a.249.249,0,0,1-.5,0V96.957A.249.249,0,1,1,180.654,96.957Zm4.374-30.871a.249.249,0,0,1-.249.249h-4.385l-.111-.006a.09.09,0,0,0-.023,0l-.109-.015c-.008,0-.016,0-.023-.006l-.107-.026-.018,0-.1-.034a.2.2,0,0,1-.029-.012l-.09-.045a.244.244,0,0,1-.024-.01l-.083-.052-.025-.018-.073-.059-.024-.021-.061-.065a.348.348,0,0,1-.024-.028l-.049-.071a.188.188,0,0,1-.021-.036l-.036-.075a.3.3,0,0,1-.013-.039l-.023-.078a.233.233,0,0,1-.008-.046l-.008-.078a.248.248,0,0,1,.5-.044l0,.055.011.035.018.037.026.039.036.036.049.039.06.039.065.031.075.023.083.021.085.013.093.005h4.367A.249.249,0,0,1,185.028,66.086Z"/>
      <path class="cls-4" d="M180.654,29.671V43.778a.249.249,0,1,1-.5,0V29.671A.249.249,0,1,1,180.654,29.671Zm0,25.335V85.729a.249.249,0,1,1-.5,0V55.006A.249.249,0,1,1,180.654,55.006Z"/>
      <path class="cls-4" d="M185.028,74.652a.249.249,0,0,1-.249.249h-4.374l-.088,0-.083.011-.081.02-.077.026-.065.032-.06.036-.046.039-.039.041-.026.039-.018.036-.011.034,0,.055a.249.249,0,1,1-.5-.048l.008-.075.008-.046.023-.078a.3.3,0,0,1,.013-.039l.036-.075c.008-.01.013-.023.021-.034l.049-.069a.247.247,0,0,1,.024-.029l.059-.065.026-.023.073-.06a.27.27,0,0,1,.025-.018l.083-.052a.158.158,0,0,1,.026-.013l.094-.043.02-.008.1-.037.023-.008.1-.026.023,0,.109-.016a.132.132,0,0,1,.028,0l.112,0h4.379A.248.248,0,0,1,185.028,74.652Zm-2.4,3.566a.248.248,0,0,1-.248.249l-2.063,0-.083.013-.081.018-.077.028-.065.029-.06.036-.049.042-.036.039-.026.038-.018.037-.011.031,0,.057a.249.249,0,0,1-.5-.045l.008-.08a.246.246,0,0,1,.008-.046l.023-.075a.143.143,0,0,1,.015-.039l.034-.075a.173.173,0,0,1,.021-.034l.049-.07c.008-.011.016-.018.024-.028l.059-.065a.308.308,0,0,0,.026-.024l.075-.059.021-.016.083-.052a.081.081,0,0,1,.031-.015l.091-.044.02-.008.1-.034a.174.174,0,0,1,.025-.011l.1-.023.023-.005.109-.015c.008,0,.015,0,.026,0l.108,0h1.986a.248.248,0,0,1,.248.249Z"/>
      <path class="cls-4" d="M185.153,64.513a.374.374,0,0,1-.374.373h-1.551a1.22,1.22,0,0,1-1.221-1.219V55.135a.374.374,0,0,1,.007-.075l.008-.031a.374.374,0,0,1,.062-.14l.018-.026a.331.331,0,0,1,.086-.085l.028-.021a.5.5,0,0,1,.078-.044l.042-.015a.15.15,0,0,1,.052-.016l.051-.013a.084.084,0,0,1,.029,0l.062-.01c.008,0,.018,0,.026-.006l.072-.005h.014l.173-.008h.01l.1,0a.375.375,0,0,1,.375.37v0a.371.371,0,0,1-.371.373l-.173.005v8.283a.474.474,0,0,0,.475.472h1.551A.376.376,0,0,1,185.153,64.513Zm0,11.709a.376.376,0,0,1-.374.374h-1.551a.474.474,0,0,0-.475.474v8.281l.269,0a.373.373,0,1,1,0,.747h-.2l-.01,0-.173,0-.019,0-.07-.007h-.015l-.062-.011a.112.112,0,0,1-.042-.008l-.052-.012a.4.4,0,0,1-.052-.019l-.041-.015c-.021-.011-.042-.021-.062-.034l-.029-.021a.37.37,0,0,1-.1-.093l-.018-.024a.383.383,0,0,1-.062-.142l-.008-.031a.381.381,0,0,1-.007-.075V77.07a1.221,1.221,0,0,1,1.221-1.221h1.551A.374.374,0,0,1,185.153,76.222Z"/>
      <path class="cls-5" d="M241.834,113.218v-2.309a.5.5,0,0,1,.487-.5l.207,0a.917.917,0,0,0,.5-.156l1.936-1.306a5.7,5.7,0,0,0,2.517-4.733V99.152a5.706,5.706,0,0,0-2.517-4.732l-1.936-1.307a.924.924,0,0,0-.5-.155l-.2,0a.5.5,0,0,1-.489-.5l0-19.888a.5.5,0,0,1,.162-.365,17.131,17.131,0,0,0,.9-24.215c-.288-.311-.589-.612-.9-.9a.5.5,0,0,1-.162-.363l0-1.745v0a.5.5,0,0,1,.176-.381l1.371-1.151a5.128,5.128,0,0,0,1.837-3.939V33.522a5.131,5.131,0,0,0-1.837-3.942l-1.369-1.148a.5.5,0,0,1-.178-.381v-.534l-3.1-1.472c-.02-.01-.044-.024-.065-.036H186.394l-1.117,1.117v5.367a.5.5,0,0,1-.5.5h-1.551a1.351,1.351,0,0,1-1.346-1.345V30.168h-1.477a.349.349,0,0,0-.348.351V42.931a.35.35,0,0,0,.348.35h.013l4.375.114a.5.5,0,0,1,.484.5v11a.5.5,0,0,1-.484.5l-4.375.117h-.013a.347.347,0,0,0-.348.347V84.884a.346.346,0,0,0,.348.345l.013,0,4.375.115a.5.5,0,0,1,.484.5v11a.5.5,0,0,1-.484.5l-4.375.115h-.013a.347.347,0,0,0-.348.347v12.415a.352.352,0,0,0,.348.35h1.477V109.09a1.352,1.352,0,0,1,1.346-1.346h1.551a.5.5,0,0,1,.5.5v5.368l1.117,1.117h52.272c.021-.013.045-.026.065-.037Zm6.637-14.066v5.062a6.687,6.687,0,0,1-2.957,5.557l-1.933,1.307a1.966,1.966,0,0,1-.752.3v2.154a.5.5,0,0,1-.285.449l-3.178,1.51a.494.494,0,0,1-.42.231H186.189a.5.5,0,0,1-.352-.145l-1.41-1.41a.5.5,0,0,1-.145-.352v-5.076h-1.054a.353.353,0,0,0-.351.351v1.974a.5.5,0,0,1-.5.5h-1.975a1.347,1.347,0,0,1-1.343-1.345V97.805a1.347,1.347,0,0,1,1.335-1.346l3.885-.1V86.328l-3.885-.1a1.344,1.344,0,0,1-1.335-1.343V55.853a1.345,1.345,0,0,1,1.335-1.345l3.885-.1V44.377l-3.885-.1a1.346,1.346,0,0,1-1.335-1.345V30.519a1.347,1.347,0,0,1,1.343-1.346h1.975a.5.5,0,0,1,.5.5v1.975a.351.351,0,0,0,.351.35h1.054V26.921a.5.5,0,0,1,.145-.353l1.41-1.41a.5.5,0,0,1,.352-.144h52.757a.5.5,0,0,1,.42.23l3.178,1.509a.5.5,0,0,1,.285.45v.615l1.192,1a6.123,6.123,0,0,1,2.193,4.7v5.985a6.123,6.123,0,0,1-2.193,4.7l-1.192,1,0,1.3c.275.262.539.529.8.806a18.13,18.13,0,0,1-.8,25.473l0,19.2a1.973,1.973,0,0,1,.749.3l1.938,1.31A6.69,6.69,0,0,1,248.471,99.152Z"/>
    </g>
    <g>
      <path class="cls-1" d="M33.946,25.508h84.066a2.824,2.824,0,0,1,2.825,2.827V112.4a2.818,2.818,0,0,1-2.825,2.819H33.946a2.822,2.822,0,0,1-2.821-2.819V28.335A2.825,2.825,0,0,1,33.946,25.508Z"/>
      <path class="cls-4" d="M67.872,42.681c.076-.07,1.714-1.709,2.572-2.572a2.4,2.4,0,0,0,.717-1.735v-3.3a2.4,2.4,0,0,0-.717-1.726l-2.579-2.585a2.447,2.447,0,0,0-1.728-.719h-2.7a2.453,2.453,0,0,0-2.445,2.452v8.465a2.451,2.451,0,0,0,2.445,2.446h2.7a2.42,2.42,0,0,0,1.728-.717ZM63.438,29.3h2.7a3.186,3.186,0,0,1,2.255.935l2.579,2.579a3.184,3.184,0,0,1,.939,2.259v3.3a3.177,3.177,0,0,1-.939,2.262L68.8,42.815c-.2.2-.33.323-.413.4h.006a3.136,3.136,0,0,1-2.255.934h-2.7a3.2,3.2,0,0,1-3.194-3.189V32.494A3.2,3.2,0,0,1,63.438,29.3Zm25.08,14.106a2.446,2.446,0,0,0,2.445-2.446V32.494a2.452,2.452,0,0,0-2.445-2.452H85.826a2.456,2.456,0,0,0-1.735.719l-2.579,2.585a2.4,2.4,0,0,0-.717,1.726v3.3a2.426,2.426,0,0,0,.717,1.735l2.572,2.579h.007a2.429,2.429,0,0,0,1.735.717ZM85.819,29.3h2.7a3.193,3.193,0,0,1,3.195,3.2v8.465a3.2,3.2,0,0,1-3.195,3.2H85.826a3.174,3.174,0,0,1-2.262-.94l.007-.006c-.14-.127-.28-.26-.413-.393l-2.172-2.179a3.178,3.178,0,0,1-.94-2.262v-3.3a3.185,3.185,0,0,1,.94-2.259l2.578-2.579A3.165,3.165,0,0,1,85.819,29.3ZM78.267,102.55H73.689a3.229,3.229,0,0,1-2.255-.94l-3.569-3.564a2.42,2.42,0,0,0-1.728-.717h-2.7a2.449,2.449,0,0,0-2.445,2.452v8.459a2.446,2.446,0,0,0,2.445,2.445h2.7a2.4,2.4,0,0,0,1.728-.712l3.569-3.568a3.192,3.192,0,0,1,2.255-.933h4.578a3.163,3.163,0,0,1,2.262.933l3.562,3.568a2.422,2.422,0,0,0,1.735.712h2.692a2.452,2.452,0,0,0,2.452-2.445V99.781a2.459,2.459,0,0,0-2.452-2.452H85.826a2.439,2.439,0,0,0-1.735.717l-3.562,3.564A3.188,3.188,0,0,1,78.267,102.55ZM63.438,96.586h2.7a3.14,3.14,0,0,1,2.255.934l3.569,3.563a2.448,2.448,0,0,0,1.728.717h4.578A2.391,2.391,0,0,0,80,101.083l3.568-3.563a3.143,3.143,0,0,1,2.255-.934h2.7a3.194,3.194,0,0,1,3.195,3.2v8.459a3.193,3.193,0,0,1-3.195,3.2H85.826a3.147,3.147,0,0,1-2.262-.933L80,106.931a2.483,2.483,0,0,0-1.729-.717H73.689a2.483,2.483,0,0,0-1.728.717L68.392,110.5a3.193,3.193,0,0,1-2.255.933h-2.7a3.2,3.2,0,0,1-3.194-3.2V99.781A3.2,3.2,0,0,1,63.438,96.586ZM46.564,85.352a2.448,2.448,0,0,0,2.452-2.445v-2.7A2.423,2.423,0,0,0,48.3,78.48l-3.564-3.569a3.17,3.17,0,0,1-.94-2.255V68.078a3.174,3.174,0,0,1,.94-2.255L48.3,62.254a2.425,2.425,0,0,0,.717-1.734V57.827a2.448,2.448,0,0,0-2.452-2.445H38.1a2.442,2.442,0,0,0-2.445,2.445v2.7a2.4,2.4,0,0,0,.712,1.728l3.569,3.569a3.142,3.142,0,0,1,.933,2.255v4.578a3.139,3.139,0,0,1-.933,2.255L36.372,78.48a2.406,2.406,0,0,0-.712,1.728v2.7A2.442,2.442,0,0,0,38.1,85.352ZM38.1,54.633h8.459a3.193,3.193,0,0,1,3.2,3.194V60.52a3.146,3.146,0,0,1-.933,2.261L45.262,66.35a2.419,2.419,0,0,0-.717,1.728v4.578a2.388,2.388,0,0,0,.717,1.728l3.564,3.569a3.173,3.173,0,0,1,.939,2.255v2.7a3.2,3.2,0,0,1-3.194,3.2H38.1a3.193,3.193,0,0,1-3.195-3.2V80.215a3.194,3.194,0,0,1,.935-2.262l3.569-3.569a2.445,2.445,0,0,0,.717-1.728V68.078a2.448,2.448,0,0,0-.717-1.728l-3.569-3.569a3.19,3.19,0,0,1-.935-2.255v-2.7A3.193,3.193,0,0,1,38.1,54.633Zm75.746,30.719a2.442,2.442,0,0,0,2.446-2.445v-2.7a2.411,2.411,0,0,0-.713-1.728l-3.568-3.569a3.135,3.135,0,0,1-.933-2.255V68.078a3.138,3.138,0,0,1,.933-2.255l3.568-3.569a2.413,2.413,0,0,0,.713-1.734V57.827a2.443,2.443,0,0,0-2.446-2.445h-8.465a2.447,2.447,0,0,0-2.445,2.445v2.7a2.418,2.418,0,0,0,.717,1.728l3.563,3.569a3.17,3.17,0,0,1,.94,2.255v4.578a3.221,3.221,0,0,1-.94,2.255l-3.563,3.569a2.419,2.419,0,0,0-.717,1.728v2.7a2.446,2.446,0,0,0,2.445,2.445Zm-8.465-30.719h8.465a3.193,3.193,0,0,1,3.2,3.194V60.52a3.166,3.166,0,0,1-.933,2.261l-3.57,3.569a2.448,2.448,0,0,0-.717,1.728v4.578a2.445,2.445,0,0,0,.717,1.728l3.57,3.569a3.192,3.192,0,0,1,.933,2.255v2.7a3.193,3.193,0,0,1-3.2,3.2h-8.465a3.2,3.2,0,0,1-3.195-3.2V80.215a3.178,3.178,0,0,1,.94-2.262l3.564-3.569a2.42,2.42,0,0,0,.717-1.728V68.078a2.4,2.4,0,0,0-.717-1.728l-3.564-3.569a3.174,3.174,0,0,1-.94-2.255v-2.7A3.2,3.2,0,0,1,105.386,54.633Z"/>
      <path class="cls-5" d="M118.012,114.724a2.324,2.324,0,0,0,2.323-2.323V28.335a2.325,2.325,0,0,0-2.323-2.325H33.946a2.326,2.326,0,0,0-2.325,2.325V112.4a2.325,2.325,0,0,0,2.325,2.323ZM33.946,25.014h84.066a3.324,3.324,0,0,1,3.321,3.321V112.4a3.328,3.328,0,0,1-3.321,3.321H33.946a3.327,3.327,0,0,1-3.321-3.321V28.335A3.327,3.327,0,0,1,33.946,25.014Z"/>
      <path class="cls-4" d="M118.012,113.562a1.163,1.163,0,0,0,1.161-1.161V28.335a1.162,1.162,0,0,0-1.161-1.162H33.946a1.162,1.162,0,0,0-1.162,1.162V112.4a1.162,1.162,0,0,0,1.162,1.161ZM33.946,26.67h84.066a1.674,1.674,0,0,1,1.663,1.665V112.4a1.674,1.674,0,0,1-1.663,1.663H33.94a1.669,1.669,0,0,1-1.659-1.663V28.335A1.665,1.665,0,0,1,33.94,26.67Z"/>
      <path class="cls-4" d="M67.357,31.275H67.35a1.706,1.706,0,0,0-1.213-.508h-2.7a1.732,1.732,0,0,0-1.726,1.727v8.465a1.727,1.727,0,0,0,1.726,1.722h2.7a1.723,1.723,0,0,0,1.22-.5l.013-.018L69.935,39.6a1.723,1.723,0,0,0,.509-1.226v-3.3a1.724,1.724,0,0,0-.509-1.219c-.863-.87-2.509-2.509-2.578-2.572Zm-3.919-1h2.7a2.246,2.246,0,0,1,1.569.648l-.006.006c.076.063.2.185.406.4L70.285,33.5a2.226,2.226,0,0,1,.653,1.575v3.3a2.227,2.227,0,0,1-.653,1.576l-2.6,2.6a2.212,2.212,0,0,1-1.55.634h-2.7a2.225,2.225,0,0,1-2.222-2.223V32.494A2.225,2.225,0,0,1,63.438,30.271Zm25.08,12.41a1.724,1.724,0,0,0,1.727-1.722V32.494a1.728,1.728,0,0,0-1.727-1.727H85.826a1.737,1.737,0,0,0-1.226.508l-2.579,2.578a1.7,1.7,0,0,0-.5,1.219v3.3a1.725,1.725,0,0,0,.5,1.226l2.572,2.566.007.013a1.722,1.722,0,0,0,1.219.5Zm-2.7-12.41h2.7a2.225,2.225,0,0,1,2.223,2.223v8.465a2.225,2.225,0,0,1-2.223,2.223H85.826a2.278,2.278,0,0,1-1.563-.641L81.672,39.95a2.211,2.211,0,0,1-.654-1.576v-3.3a2.223,2.223,0,0,1,.654-1.575l2.172-2.172c.216-.215.336-.337.413-.4l-.007-.006a2.252,2.252,0,0,1,1.576-.648Zm-7.552,73H73.689a3.92,3.92,0,0,1-2.769-1.149l-3.563-3.569a1.748,1.748,0,0,0-1.22-.5h-2.7a1.729,1.729,0,0,0-1.726,1.728v8.459a1.729,1.729,0,0,0,1.726,1.728h2.7a1.729,1.729,0,0,0,1.22-.508L70.92,105.9a3.971,3.971,0,0,1,2.769-1.149h4.578a3.97,3.97,0,0,1,2.769,1.149L84.6,109.46a1.728,1.728,0,0,0,1.219.508h2.7a1.729,1.729,0,0,0,1.727-1.728V99.781a1.729,1.729,0,0,0-1.727-1.728H85.826a1.735,1.735,0,0,0-1.226.5l-3.564,3.569A3.918,3.918,0,0,1,78.267,103.273ZM63.438,97.552h2.7a2.278,2.278,0,0,1,1.569.654l3.569,3.568a3.386,3.386,0,0,0,2.414,1h4.578a3.39,3.39,0,0,0,2.415-1l3.568-3.568a2.284,2.284,0,0,1,1.576-.654h2.692a2.231,2.231,0,0,1,2.223,2.229v8.459a2.225,2.225,0,0,1-2.223,2.223H85.826a2.246,2.246,0,0,1-1.576-.647l-3.568-3.571a3.448,3.448,0,0,0-2.415-1H73.689a3.446,3.446,0,0,0-2.414,1l-3.569,3.571a2.273,2.273,0,0,1-1.569.653h-2.7a2.228,2.228,0,0,1-2.222-2.222V99.781A2.231,2.231,0,0,1,63.438,97.552ZM46.564,84.634a1.729,1.729,0,0,0,1.728-1.727v-2.7a1.748,1.748,0,0,0-.5-1.219l-3.569-3.564a3.889,3.889,0,0,1-1.143-2.769V68.078a3.889,3.889,0,0,1,1.143-2.769l3.569-3.564a1.686,1.686,0,0,0,.5-1.219v-2.7A1.723,1.723,0,0,0,46.571,56.1H38.1a1.728,1.728,0,0,0-1.727,1.726v2.7a1.72,1.72,0,0,0,.508,1.219l3.563,3.564a3.977,3.977,0,0,1,1.15,2.769v4.578a3.917,3.917,0,0,1-1.15,2.769l-3.563,3.564a1.724,1.724,0,0,0-.508,1.219v2.7A1.728,1.728,0,0,0,38.1,84.634ZM38.1,55.605h8.459a2.229,2.229,0,0,1,2.229,2.222v2.7A2.21,2.21,0,0,1,48.14,62.1l-3.563,3.57a3.346,3.346,0,0,0-1,2.413v4.578a3.354,3.354,0,0,0,1,2.415l3.563,3.568a2.252,2.252,0,0,1,.653,1.576v2.692a2.228,2.228,0,0,1-2.222,2.222H38.1a2.224,2.224,0,0,1-2.222-2.222v-2.7a2.247,2.247,0,0,1,.647-1.569l3.57-3.568a3.386,3.386,0,0,0,1-2.415V68.078a3.417,3.417,0,0,0-1-2.413L36.53,62.1a2.184,2.184,0,0,1-.647-1.575V57.827A2.224,2.224,0,0,1,38.1,55.605Zm75.746,29.029a1.728,1.728,0,0,0,1.727-1.727v-2.7a1.727,1.727,0,0,0-.507-1.219l-3.562-3.564a3.909,3.909,0,0,1-1.15-2.769V68.078a3.884,3.884,0,0,1,1.15-2.769l3.562-3.564a1.724,1.724,0,0,0,.507-1.219v-2.7a1.728,1.728,0,0,0-1.727-1.726h-8.465a1.733,1.733,0,0,0-1.728,1.726v2.7a1.724,1.724,0,0,0,.508,1.219l3.569,3.564a3.881,3.881,0,0,1,1.143,2.769v4.578a3.881,3.881,0,0,1-1.143,2.769l-3.569,3.564a1.754,1.754,0,0,0-.508,1.219v2.7a1.733,1.733,0,0,0,1.728,1.727Zm-8.465-29.029h8.465a2.224,2.224,0,0,1,2.223,2.222v2.7a2.193,2.193,0,0,1-.647,1.569l-3.57,3.57a3.4,3.4,0,0,0-1,2.413v4.578a3.4,3.4,0,0,0,1,2.415l3.57,3.568a2.246,2.246,0,0,1,.647,1.576v2.692a2.224,2.224,0,0,1-2.223,2.222h-8.465a2.224,2.224,0,0,1-2.223-2.222v-2.7a2.207,2.207,0,0,1,.654-1.569l3.564-3.568a3.388,3.388,0,0,0,1-2.415V68.078a3.373,3.373,0,0,0-1-2.413l-3.569-3.57a2.211,2.211,0,0,1-.654-1.575V57.827A2.224,2.224,0,0,1,105.386,55.605Z"/>
    </g>
    <g>
      <path class="cls-6" d="M259.16,127.018h-.629v6.03h.629v.376h-1.128v-6.782h1.128Z"/>
      <path class="cls-6" d="M260.842,128.481v.554h.007a1.167,1.167,0,0,1,1.087-.636,1.067,1.067,0,0,1,1.073.588h.02a1.237,1.237,0,0,1,1.142-.588,1.182,1.182,0,0,1,1.258,1.313v2.379h-.581v-2.16c0-.636-.171-1.074-.813-1.074a.886.886,0,0,0-.882,1.012v2.222h-.581v-2.222c0-.636-.144-1.012-.786-1.012-.479,0-.923.349-.923,1.121v2.113h-.582v-3.61Z"/>
      <path class="cls-6" d="M267.084,128.481v.554h.007a1.167,1.167,0,0,1,1.087-.636,1.067,1.067,0,0,1,1.073.588h.021a1.237,1.237,0,0,1,1.141-.588,1.182,1.182,0,0,1,1.258,1.313v2.379h-.581v-2.16c0-.636-.17-1.074-.813-1.074a.886.886,0,0,0-.882,1.012v2.222h-.581v-2.222c0-.636-.144-1.012-.787-1.012-.478,0-.922.349-.922,1.121v2.113h-.581v-3.61Z"/>
      <path class="cls-6" d="M272.752,133.048h.629v-6.03h-.629v-.376h1.128v6.782h-1.128Z"/>
    </g>
    <g>
      <path class="cls-6" d="M70.724,130.594H67.705v-.518c1.983-1.815,2.393-2.366,2.393-3.045a.871.871,0,0,0-.961-.833,1.73,1.73,0,0,0-1.1.444l-.248-.417a2.049,2.049,0,0,1,1.344-.512c.874,0,1.546.444,1.546,1.305,0,.907-.464,1.431-2.265,3.085h2.306Z"/>
      <path class="cls-6" d="M74.522,126.991a1.038,1.038,0,0,1-.787,1.082v.013a1.232,1.232,0,0,1,.942,1.244c0,.894-.753,1.344-1.681,1.344s-1.681-.45-1.681-1.344a1.231,1.231,0,0,1,.941-1.216V128.1a1.118,1.118,0,0,1-.786-1.109,1.341,1.341,0,0,1,1.512-1.278C73.782,125.713,74.522,126.144,74.522,126.991Zm-2.628,2.292c0,.612.463.908,1.1.908s1.1-.3,1.1-.908a1.117,1.117,0,0,0-2.2,0Zm2.043-2.292c0-.5-.363-.793-.955-.793-.564,0-.927.3-.927.793a.841.841,0,0,0,.934.887A.852.852,0,0,0,73.937,126.991Z"/>
      <path class="cls-6" d="M75.55,129.915h.679v.679H75.55Z"/>
      <path class="cls-6" d="M80.31,126.991a1.037,1.037,0,0,1-.787,1.082v.013a1.231,1.231,0,0,1,.941,1.244c0,.894-.752,1.344-1.68,1.344s-1.681-.45-1.681-1.344a1.231,1.231,0,0,1,.941-1.216V128.1a1.117,1.117,0,0,1-.786-1.109,1.341,1.341,0,0,1,1.512-1.278C79.57,125.713,80.31,126.144,80.31,126.991Zm-2.629,2.292c0,.612.464.908,1.1.908s1.1-.3,1.1-.908a1.118,1.118,0,0,0-2.2,0Zm2.044-2.292c0-.5-.363-.793-.955-.793-.564,0-.927.3-.927.793a.841.841,0,0,0,.934.887A.852.852,0,0,0,79.725,126.991Z"/>
      <path class="cls-6" d="M82.172,128.107a5.2,5.2,0,0,0-.941.087l.1-2.4h2.441v.484H81.843l-.074,1.378a4.658,4.658,0,0,1,.517-.033c.921,0,1.775.47,1.775,1.465a1.573,1.573,0,0,1-1.741,1.586,3.049,3.049,0,0,1-1.311-.255l.168-.477a2.62,2.62,0,0,0,1.136.249,1.036,1.036,0,0,0,1.169-1.069C83.482,128.355,82.831,128.107,82.172,128.107Z"/>
    </g>
    <g>
      <path class="cls-6" d="M17.926,75.616v3.018h-.518c-1.815-1.983-2.366-2.393-3.045-2.393a.872.872,0,0,0-.833.961,1.733,1.733,0,0,0,.444,1.1l-.417.249a2.058,2.058,0,0,1-.511-1.345c0-.873.444-1.546,1.3-1.546.907,0,1.432.464,3.085,2.266V75.616Z"/>
      <path class="cls-6" d="M14.323,71.817a1.037,1.037,0,0,1,1.082.787h.014a1.229,1.229,0,0,1,1.243-.94c.894,0,1.345.752,1.345,1.68s-.451,1.68-1.345,1.68a1.231,1.231,0,0,1-1.216-.941h-.014a1.117,1.117,0,0,1-1.109.787,1.341,1.341,0,0,1-1.277-1.513C13.046,72.557,13.476,71.817,14.323,71.817Zm0,.586c-.5,0-.793.363-.793.954,0,.565.3.928.793.928a.841.841,0,0,0,.887-.935A.851.851,0,0,0,14.323,72.4Zm2.292,2.043c.612,0,.908-.464.908-1.1s-.3-1.1-.908-1.1a1.118,1.118,0,0,0,0,2.2Z"/>
      <path class="cls-6" d="M17.247,70.789v-.678h.679v.678Z"/>
      <path class="cls-6" d="M14.323,66.03a1.037,1.037,0,0,1,1.082.787h.014a1.23,1.23,0,0,1,1.243-.941c.894,0,1.345.753,1.345,1.68s-.451,1.68-1.345,1.68a1.23,1.23,0,0,1-1.216-.94h-.014a1.116,1.116,0,0,1-1.109.786,1.341,1.341,0,0,1-1.277-1.512C13.046,66.77,13.476,66.03,14.323,66.03Zm0,.585c-.5,0-.793.363-.793.955,0,.564.3.927.793.927a.841.841,0,0,0,.887-.934A.852.852,0,0,0,14.323,66.615Zm2.292,2.044c.612,0,.908-.465.908-1.1s-.3-1.1-.908-1.1a1.118,1.118,0,0,0,0,2.205Z"/>
      <path class="cls-6" d="M15.439,64.169a5.187,5.187,0,0,0,.087.94l-2.4-.1v-2.44h.484V64.5l1.378.073a4.46,4.46,0,0,1-.034-.517c0-.92.47-1.774,1.465-1.774a1.572,1.572,0,0,1,1.587,1.74,3.047,3.047,0,0,1-.256,1.311l-.477-.168a2.605,2.605,0,0,0,.249-1.136,1.036,1.036,0,0,0-1.069-1.169C15.688,62.858,15.439,63.51,15.439,64.169Z"/>
    </g>
    <g>
      <path class="cls-6" d="M95.008,11.892h.417c.7,0,1.3-.241,1.3-.894,0-.524-.39-.786-.955-.786a2.122,2.122,0,0,0-1.115.3l-.182-.471A2.9,2.9,0,0,1,95.8,9.728c.8,0,1.506.417,1.506,1.224a1.16,1.16,0,0,1-.968,1.163v.013a1.13,1.13,0,0,1,1.1,1.129,1.487,1.487,0,0,1-1.681,1.432,2.969,2.969,0,0,1-1.4-.316l.175-.47a2.543,2.543,0,0,0,1.223.3c.639,0,1.1-.289,1.1-.934,0-.713-.746-.888-1.431-.888h-.417Z"/>
      <path class="cls-6" d="M98.362,13.93h.679v.679h-.679Z"/>
      <path class="cls-6" d="M101.529,14.609h-.579V10.367l-1.021.7-.262-.4,1.236-.853h.626Z"/>
      <path class="cls-6" d="M103.747,12.121a5.122,5.122,0,0,0-.941.088l.1-2.4h2.44v.484h-1.929l-.074,1.378a4.473,4.473,0,0,1,.517-.034c.921,0,1.775.471,1.775,1.466a1.573,1.573,0,0,1-1.741,1.586,3.049,3.049,0,0,1-1.311-.255l.168-.477a2.618,2.618,0,0,0,1.136.248,1.037,1.037,0,0,0,1.17-1.069C105.058,12.37,104.406,12.121,103.747,12.121Z"/>
    </g>
    <g>
      <path class="cls-6" d="M211.278,14.612V10.306h-.013l-.79.456-.128-.4,1-.559h.455v4.807Z"/>
      <path class="cls-6" d="M213.524,14.285a.388.388,0,0,1,.385-.418.383.383,0,0,1,.379.418.383.383,0,1,1-.764,0Z"/>
      <path class="cls-6" d="M215.751,12.064A1.206,1.206,0,0,1,215,10.98a1.263,1.263,0,0,1,1.361-1.252A1.177,1.177,0,0,1,217.65,10.9a1.255,1.255,0,0,1-.789,1.136v.026a1.37,1.37,0,0,1,.957,1.258,1.407,1.407,0,0,1-1.515,1.373,1.339,1.339,0,0,1-1.482-1.277,1.423,1.423,0,0,1,.93-1.322Zm1.521,1.31c0-.6-.405-.912-1.04-1.117a1.133,1.133,0,0,0-.866,1.072.911.911,0,0,0,.943.962A.9.9,0,0,0,217.272,13.374Zm-1.765-2.446c-.006.514.359.8.892.957a1.027,1.027,0,0,0,.731-.944.756.756,0,0,0-.788-.821A.781.781,0,0,0,215.507,10.928Z"/>
      <path class="cls-6" d="M221.065,9.805v.443h-1.726l-.2,1.36a2.823,2.823,0,0,1,.373-.025,1.48,1.48,0,0,1,1.617,1.476,1.591,1.591,0,0,1-1.655,1.63,2.137,2.137,0,0,1-1.1-.282l.153-.417a1.786,1.786,0,0,0,.951.269,1.091,1.091,0,0,0,1.116-1.136c0-.661-.424-1.123-1.322-1.123a3.809,3.809,0,0,0-.616.045l.3-2.24Z"/>
    </g>
    <g>
      <path class="cls-6" d="M209.866,128.21c0-1.681.655-2.5,1.553-2.5s1.47.861,1.47,2.433c0,1.668-.584,2.528-1.541,2.528C210.475,130.674,209.866,129.814,209.866,128.21Zm2.483-.039c0-1.2-.288-2.027-.962-2.027-.571,0-.976.763-.976,2.027s.353,2.067.957,2.067C212.08,130.238,212.349,129.314,212.349,128.171Z"/>
      <path class="cls-6" d="M213.524,130.27a.387.387,0,0,1,.385-.417.382.382,0,0,1,.379.417.383.383,0,1,1-.764,0Z"/>
      <path class="cls-6" d="M215.751,128.05a1.208,1.208,0,0,1-.751-1.085,1.263,1.263,0,0,1,1.361-1.252,1.177,1.177,0,0,1,1.289,1.169,1.257,1.257,0,0,1-.789,1.136v.025a1.37,1.37,0,0,1,.957,1.258,1.407,1.407,0,0,1-1.515,1.373,1.339,1.339,0,0,1-1.482-1.277,1.423,1.423,0,0,1,.93-1.322Zm1.521,1.309c0-.6-.405-.912-1.04-1.117a1.133,1.133,0,0,0-.866,1.072.911.911,0,0,0,.943.963A.9.9,0,0,0,217.272,129.359Zm-1.765-2.445c-.006.513.359.8.892.956a1.026,1.026,0,0,0,.731-.943.756.756,0,0,0-.788-.822A.781.781,0,0,0,215.507,126.914Z"/>
      <path class="cls-6" d="M221.065,125.791v.442h-1.726l-.2,1.361a2.661,2.661,0,0,1,.373-.025,1.479,1.479,0,0,1,1.617,1.475,1.591,1.591,0,0,1-1.655,1.63,2.137,2.137,0,0,1-1.1-.282l.153-.417a1.786,1.786,0,0,0,.951.269,1.091,1.091,0,0,0,1.116-1.136c0-.661-.424-1.122-1.322-1.122a3.826,3.826,0,0,0-.616.044l.3-2.239Z"/>
    </g>
    <line class="cls-7" x1="178.998" y1="13.677" x2="178.998" y2="110.443"/>
    <line class="cls-7" x1="184.407" y1="13.677" x2="184.407" y2="137.423"/>
    <line class="cls-7" x1="182.871" y1="137.423" x2="182.871" y2="109.242"/>
    <g>
      <line class="cls-7" x1="34.91" y1="137.423" x2="34.91" y2="57.351"/>
      <line class="cls-7" x1="117.046" y1="137.423" x2="117.046" y2="57.351"/>
    </g>
    <g>
      <line class="cls-7" x1="177.649" y1="17.568" x2="168.292" y2="17.568"/>
      <polygon class="cls-8" points="174.694 15.978 174.523 16.448 177.6 17.568 174.523 18.688 174.694 19.158 179.062 17.568 174.694 15.978"/>
    </g>
    <g>
      <line class="cls-7" x1="185.819" y1="17.568" x2="195.177" y2="17.568"/>
      <polygon class="cls-8" points="188.775 19.158 188.946 18.688 185.868 17.568 188.946 16.448 188.775 15.978 184.407 17.568 188.775 19.158"/>
    </g>
    <line class="cls-7" x1="177.689" y1="17.568" x2="221.262" y2="17.568"/>
    <g>
      <line class="cls-7" x1="181.458" y1="133.553" x2="172.101" y2="133.553"/>
      <polygon class="cls-8" points="178.502 131.963 178.331 132.433 181.409 133.553 178.331 134.673 178.502 135.143 182.871 133.553 178.502 131.963"/>
    </g>
    <g>
      <line class="cls-7" x1="185.819" y1="133.553" x2="195.177" y2="133.553"/>
      <polygon class="cls-8" points="188.775 135.144 188.946 134.673 185.868 133.553 188.946 132.433 188.775 131.963 184.407 133.553 188.775 135.144"/>
    </g>
    <line class="cls-7" x1="177.689" y1="133.553" x2="221.262" y2="133.553"/>
    <g>
      <line class="cls-7" x1="70.573" y1="17.568" x2="61.216" y2="17.568"/>
      <polygon class="cls-8" points="67.617 15.978 67.447 16.448 70.524 17.568 67.447 18.688 67.617 19.158 71.986 17.568 67.617 15.978"/>
    </g>
    <g>
      <line class="cls-7" x1="81.459" y1="17.568" x2="90.816" y2="17.568"/>
      <polygon class="cls-8" points="84.414 19.158 84.585 18.688 81.508 17.568 84.585 16.448 84.414 15.978 80.046 17.568 84.414 19.158"/>
    </g>
    <line class="cls-7" x1="66.601" y1="17.568" x2="105.575" y2="17.568"/>
    <g>
      <line class="cls-7" x1="36.323" y1="133.553" x2="115.633" y2="133.553"/>
      <polygon class="cls-8" points="39.279 135.144 39.45 134.673 36.372 133.553 39.45 132.433 39.279 131.963 34.91 133.553 39.279 135.144"/>
      <polygon class="cls-8" points="112.678 135.144 112.507 134.673 115.584 133.553 112.507 132.433 112.678 131.963 117.046 133.553 112.678 135.144"/>
    </g>
    <line class="cls-7" x1="17.887" y1="29.295" x2="89.307" y2="29.295"/>
    <line class="cls-7" x1="71.91" y1="38.796" x2="71.91" y2="13.677"/>
    <line class="cls-7" x1="80.046" y1="38.796" x2="80.046" y2="13.677"/>
    <line class="cls-7" x1="17.887" y1="111.432" x2="89.307" y2="111.432"/>
    <g>
      <line class="cls-7" x1="22.419" y1="30.709" x2="22.419" y2="110.019"/>
      <polygon class="cls-8" points="20.828 33.664 21.298 33.835 22.419 30.758 23.539 33.835 24.008 33.664 22.419 29.296 20.828 33.664"/>
      <polygon class="cls-8" points="20.828 107.063 21.298 106.892 22.419 109.97 23.539 106.892 24.008 107.063 22.419 111.432 20.828 107.063"/>
    </g>
  </g>
</svg>
