<svg xmlns="http://www.w3.org/2000/svg" viewBox="0 0 132.365 132.364"><defs><clipPath clipPathUnits="userSpaceOnUse" id="a"><path d="M.031.031h99.212v99.212H.031z"/></clipPath><clipPath clipPathUnits="userSpaceOnUse" id="b"><path d="M38.661 96.571c-19.777 0-35.96-16.184-35.96-35.961V38.662c0-19.778 16.183-35.961 35.96-35.961h21.948c19.781 0 35.964 16.183 35.964 35.961V60.61c0 19.777-16.183 35.961-35.964 35.961z"/></clipPath><clipPath clipPathUnits="userSpaceOnUse" id="c"><path d="M65.722 120.92h54.951V88.647H65.722z"/></clipPath><clipPath clipPathUnits="userSpaceOnUse" id="d"><path d="M65.74 88.666h54.915v32.236H65.74z"/></clipPath><clipPath clipPathUnits="userSpaceOnUse" id="e"><path d="M14.149 119.378H69.1V87.106H14.149z"/></clipPath><clipPath clipPathUnits="userSpaceOnUse" id="f"><path d="M14.167 87.124h54.915v32.236H14.167z"/></clipPath><clipPath clipPathUnits="userSpaceOnUse" id="g"><path d="M23.616 90.432h54.95V58.159h-54.95z"/></clipPath><clipPath clipPathUnits="userSpaceOnUse" id="h"><path d="M23.634 58.177h54.915v32.237H23.634z"/></clipPath><clipPath clipPathUnits="userSpaceOnUse" id="i"><path d="M84.656 63.027h54.951V30.755h-54.95z"/></clipPath><clipPath clipPathUnits="userSpaceOnUse" id="j"><path d="M84.674 30.772h54.916v32.236H84.674z"/></clipPath><clipPath clipPathUnits="userSpaceOnUse" id="k"><path d="M-27.957 88.89h54.952V56.618h-54.952z"/></clipPath><clipPath clipPathUnits="userSpaceOnUse" id="l"><path d="M-27.938 56.635h54.915v32.237h-54.915z"/></clipPath><clipPath clipPathUnits="userSpaceOnUse" id="m"><path d="M33.084 61.485h54.95V29.213h-54.95z"/></clipPath><clipPath clipPathUnits="userSpaceOnUse" id="n"><path d="M33.102 29.23h54.915v32.237H33.102z"/></clipPath><clipPath clipPathUnits="userSpaceOnUse" id="o"><path d="M94.123 34.08h54.952V1.81H94.123z"/></clipPath><clipPath clipPathUnits="userSpaceOnUse" id="p"><path d="M94.142 1.826h54.915v32.236H94.142z"/></clipPath><clipPath clipPathUnits="userSpaceOnUse" id="q"><path d="M42.55 32.538h54.952V.267H42.55z"/></clipPath><clipPath clipPathUnits="userSpaceOnUse" id="r"><path d="M42.569.284h54.915v32.237H42.569z"/></clipPath><clipPath clipPathUnits="userSpaceOnUse" id="s"><path d="M-9.023 30.997h54.952V-1.274H-9.023z"/></clipPath><clipPath clipPathUnits="userSpaceOnUse" id="t"><path d="M-9.004-1.257h54.916v32.236H-9.004z"/></clipPath><clipPath clipPathUnits="userSpaceOnUse" id="u"><path d="M38.661 96.571c-19.777 0-35.96-16.184-35.96-35.961V38.662c0-19.778 16.183-35.961 35.96-35.961h21.948c19.781 0 35.964 16.183 35.964 35.961V60.61c0 19.777-16.183 35.961-35.964 35.961z"/></clipPath><clipPath clipPathUnits="userSpaceOnUse" id="v"><path d="M43.247 71.542h6.845v-7.906h-6.845z"/></clipPath><clipPath clipPathUnits="userSpaceOnUse" id="w"><path d="M43.259 63.647h6.821v7.883h-6.821z"/></clipPath><clipPath clipPathUnits="userSpaceOnUse" id="x"><path d="M.031.031h99.212v99.212H.031z"/></clipPath></defs><g clip-path="url(#a)" transform="matrix(1.33333 0 0 -1.33333 0 132.364)"><path d="M96.572 38.662c0-19.778-16.184-35.96-35.964-35.96H38.661c-19.777 0-35.96 16.182-35.96 35.96V60.61c0 19.778 16.183 35.962 35.96 35.962h21.947c19.78 0 35.964-16.184 35.964-35.962z" fill="#fff"/></g><g clip-path="url(#b)" transform="matrix(1.33333 0 0 -1.33333 0 132.364)"><g clip-path="url(#c)"><g clip-path="url(#d)" opacity=".25"><path d="M97.978 90.29l-30.614 13.744 21.052 15.244 30.616-13.745z" fill="#f0348d"/><path d="M97.978 90.29l-30.614 13.744 21.052 15.244 30.616-13.745z" fill="none" stroke="#fff" stroke-width="3.284" stroke-linecap="round" stroke-linejoin="round" stroke-miterlimit="10"/></g></g><path d="M128.498 76.586L97.883 90.331l21.053 15.244 30.616-13.745z" fill="#fff"/><path d="M128.498 76.586L97.883 90.331l21.053 15.244 30.616-13.745z" fill="none" stroke="#fff" stroke-width="3.284" stroke-linecap="round" stroke-linejoin="round" stroke-miterlimit="10"/><g clip-path="url(#e)"><g clip-path="url(#f)" opacity=".5"><path d="M46.406 88.748L15.79 102.493l21.053 15.244 30.615-13.745z" fill="#f0348d"/><path d="M46.406 88.748L15.79 102.493l21.053 15.244 30.615-13.745z" fill="none" stroke="#fff" stroke-width="3.284" stroke-linecap="round" stroke-linejoin="round" stroke-miterlimit="10"/></g></g><path d="M76.925 75.045L46.31 88.79l21.052 15.245 30.616-13.746z" fill="#fff"/><path d="M76.925 75.045L46.31 88.79l21.052 15.245 30.616-13.746z" fill="none" stroke="#fff" stroke-width="3.284" stroke-linecap="round" stroke-linejoin="round" stroke-miterlimit="10"/><path d="M107.445 61.343L76.83 75.087l21.052 15.244 30.616-13.744z" fill="#f0348d"/><path d="M107.445 61.343L76.83 75.087l21.052 15.244 30.616-13.744z" fill="none" stroke="#fff" stroke-width="3.284" stroke-linecap="round" stroke-linejoin="round" stroke-miterlimit="10"/><path d="M-5.167 87.206l-30.615 13.745 21.052 15.244 30.616-13.745z" fill="#f0348d"/><path d="M-5.167 87.206l-30.615 13.745 21.052 15.244 30.616-13.745z" fill="none" stroke="#fff" stroke-width="3.284" stroke-linecap="round" stroke-linejoin="round" stroke-miterlimit="10"/><path d="M25.352 73.504L-5.262 87.249l21.052 15.244 30.616-13.745z" fill="#fff"/><path d="M25.352 73.504L-5.262 87.249l21.052 15.244 30.616-13.745z" fill="none" stroke="#fff" stroke-width="3.284" stroke-linecap="round" stroke-linejoin="round" stroke-miterlimit="10"/><g clip-path="url(#g)"><g clip-path="url(#h)" opacity=".5"><path d="M55.872 59.801L25.258 73.546 46.31 88.79l30.615-13.744z" fill="#f0348d"/><path d="M55.872 59.801L25.258 73.546 46.31 88.79l30.615-13.744z" fill="none" stroke="#fff" stroke-width="3.284" stroke-linecap="round" stroke-linejoin="round" stroke-miterlimit="10"/></g></g><path d="M86.393 46.099L55.779 59.844l21.05 15.243 30.617-13.743z" fill="#fff"/><path d="M86.393 46.099L55.779 59.844l21.05 15.243 30.617-13.743z" fill="none" stroke="#fff" stroke-width="3.284" stroke-linecap="round" stroke-linejoin="round" stroke-miterlimit="10"/><g clip-path="url(#i)"><g clip-path="url(#j)" opacity=".5"><path d="M116.913 32.397L86.298 46.142l21.052 15.243 30.616-13.744z" fill="#f0348d"/><path d="M116.913 32.397L86.298 46.142l21.052 15.243 30.616-13.744z" fill="none" stroke="#fff" stroke-width="3.284" stroke-linecap="round" stroke-linejoin="round" stroke-miterlimit="10"/></g></g><g clip-path="url(#k)"><g clip-path="url(#l)" opacity=".5"><path d="M4.3 58.259l-30.615 13.745 21.053 15.245 30.615-13.745z" fill="#f0348d"/><path d="M4.3 58.259l-30.615 13.745 21.053 15.245 30.615-13.745z" fill="none" stroke="#fff" stroke-width="3.284" stroke-linecap="round" stroke-linejoin="round" stroke-miterlimit="10"/></g></g><path d="M34.82 44.558L4.205 58.302l21.053 15.244 30.614-13.744z" fill="#fff"/><path d="M34.82 44.558L4.205 58.302l21.053 15.244 30.614-13.744z" fill="none" stroke="#fff" stroke-width="3.284" stroke-linecap="round" stroke-linejoin="round" stroke-miterlimit="10"/><g clip-path="url(#m)"><g clip-path="url(#n)" opacity=".25"><path d="M65.34 30.855L34.726 44.6l21.052 15.243 30.615-13.745z" fill="#f0348d"/><path d="M65.34 30.855L34.726 44.6l21.052 15.243 30.615-13.745z" fill="none" stroke="#fff" stroke-width="3.284" stroke-linecap="round" stroke-linejoin="round" stroke-miterlimit="10"/></g></g><path d="M95.86 17.152L65.244 30.896l21.053 15.245 30.616-13.745z" fill="#fff"/><path d="M95.86 17.152L65.244 30.896l21.053 15.245 30.616-13.745z" fill="none" stroke="#fff" stroke-width="3.284" stroke-linecap="round" stroke-linejoin="round" stroke-miterlimit="10"/><g clip-path="url(#o)"><g clip-path="url(#p)" opacity=".25"><path d="M126.38 3.45L95.765 17.194l21.053 15.244 30.616-13.744z" fill="#f0348d"/><path d="M126.38 3.45L95.765 17.194l21.053 15.244 30.616-13.744z" fill="none" stroke="#fff" stroke-width="3.284" stroke-linecap="round" stroke-linejoin="round" stroke-miterlimit="10"/></g></g><path d="M-16.753 43.016L-47.368 56.76l21.053 15.244L4.3 58.259z" fill="#fff"/><path d="M-16.753 43.016L-47.368 56.76l21.053 15.244L4.3 58.259z" fill="none" stroke="#fff" stroke-width="3.284" stroke-linecap="round" stroke-linejoin="round" stroke-miterlimit="10"/><path d="M13.767 29.314l-30.615 13.744L4.205 58.302 34.82 44.558z" fill="#f0348d"/><path d="M13.767 29.314l-30.615 13.744L4.205 58.302 34.82 44.558z" fill="none" stroke="#fff" stroke-width="3.284" stroke-linecap="round" stroke-linejoin="round" stroke-miterlimit="10"/><path d="M44.288 15.611L13.673 29.355 34.725 44.6 65.34 30.854z" fill="#fff"/><path d="M44.288 15.611L13.673 29.355 34.725 44.6 65.34 30.854z" fill="none" stroke="#fff" stroke-width="3.284" stroke-linecap="round" stroke-linejoin="round" stroke-miterlimit="10"/><g clip-path="url(#q)"><g clip-path="url(#r)" opacity=".5"><path d="M74.807 1.908L44.193 15.652l21.05 15.244 30.618-13.744z" fill="#f0348d"/><path d="M74.807 1.908L44.193 15.652l21.05 15.244 30.618-13.744z" fill="none" stroke="#fff" stroke-width="3.284" stroke-linecap="round" stroke-linejoin="round" stroke-miterlimit="10"/></g></g><path d="M105.327-11.795L74.712 1.95l21.052 15.244L126.38 3.45z" fill="#fff"/><path d="M105.327-11.795L74.712 1.95l21.052 15.244L126.38 3.45z" fill="none" stroke="#fff" stroke-width="3.284" stroke-linecap="round" stroke-linejoin="round" stroke-miterlimit="10"/><path d="M-7.286 14.07L-37.9 27.812l21.053 15.244 30.615-13.744z" fill="#fff"/><path d="M-7.286 14.07L-37.9 27.812l21.053 15.244 30.615-13.744z" fill="none" stroke="#fff" stroke-width="3.284" stroke-linecap="round" stroke-linejoin="round" stroke-miterlimit="10"/><g clip-path="url(#s)"><g clip-path="url(#t)" opacity=".5"><path d="M23.234.367L-7.38 14.11l21.052 15.245 30.616-13.744z" fill="#f0348d"/><path d="M23.234.367L-7.38 14.11l21.052 15.245 30.616-13.744z" fill="none" stroke="#fff" stroke-width="3.284" stroke-linecap="round" stroke-linejoin="round" stroke-miterlimit="10"/></g></g><path d="M53.754-13.336L23.14.408l21.052 15.244L74.807 1.908z" fill="#fff"/><path d="M53.754-13.336L23.14.408l21.052 15.244L74.807 1.908z" fill="none" stroke="#fff" stroke-width="3.284" stroke-linecap="round" stroke-linejoin="round" stroke-miterlimit="10"/><path d="M84.274-27.038L53.66-13.294 74.711 1.95l30.616-13.745z" fill="#f0348d"/><path d="M84.274-27.038L53.66-13.294 74.711 1.95l30.616-13.745z" fill="none" stroke="#fff" stroke-width="3.284" stroke-linecap="round" stroke-linejoin="round" stroke-miterlimit="10"/><path d="M47.502 48.897l7.157-3.031-2.557-1.872M50.48 32.898l8.85-3.743M38.923 34.57l-4.295-3.145 9.688-4.322M57.313 52.422l4.03-1.69" fill="none" stroke="#f0348d" stroke-width="2.083" stroke-linecap="round" stroke-linejoin="round" stroke-miterlimit="10"/><path d="M34.256 73.556l2.55 11.48c.15.685.417 1.338.788 1.934l7.97 12.8-6.448 6.576-10.71-15.563-1.273-18.61z" fill="#fff"/><path d="M34.256 73.556l2.55 11.48c.15.685.417 1.338.788 1.934l7.97 12.8-6.448 6.576-10.71-15.563-1.273-18.61z" fill="none" stroke="#f0348d" stroke-width="2.083" stroke-linecap="round" stroke-linejoin="round" stroke-miterlimit="10"/><path d="M30.398 73.152l2.37 13.477c.103.58.327 1.13.657 1.616l9.3 13.662-8.344 3.866-13.22-18.176-.293-13.13z" fill="#fff"/><path d="M30.398 73.152l2.37 13.477c.103.58.327 1.13.657 1.616l9.3 13.662-8.344 3.866-13.22-18.176-.293-13.13z" fill="none" stroke="#f0348d" stroke-width="2.083" stroke-linecap="round" stroke-linejoin="round" stroke-miterlimit="10"/><path d="M27.465 72.575c-.136 1.978-.053 10.557-.027 12.894.005.398.052.79.144 1.177.417 1.762 1.687 6.93 2.46 7.896 1.427 1.78 5.953 7.252 7.143 7.887 1.189.635 8.768-4.66 8.768-4.66l2.963-10.003a6.31 6.31 0 00-.801-5.293c-2.307-3.46-6.232-9.547-6.287-11.014-.08-2.078-.632-6.45.672-7.621 1.303-1.172 3.187-1.238 4.718.37 1.533 1.609 3.984 7.5 5.234 8.338 1.095.733 1.956 2.217 2.758 3.227a680.314 680.314 0 014.808 6.199l6.759 8.726 8.84 19.43-13.864 15.189s-2.41-1.431-6.157-3.263c-9.106-4.454-18.098-9.206-27.176-13.801l-7.042-3.564-7.194-19.29 5.043-14.735 4.159-2.19z" fill="#fff"/><path d="M27.465 72.575c-.136 1.978-.053 10.557-.027 12.894.005.398.052.79.144 1.177.417 1.762 1.687 6.93 2.46 7.896 1.427 1.78 5.953 7.252 7.143 7.887 1.189.635 8.768-4.66 8.768-4.66l2.963-10.003a6.31 6.31 0 00-.801-5.293c-2.307-3.46-6.232-9.547-6.287-11.014-.08-2.078-.632-6.45.672-7.621 1.303-1.172 3.187-1.238 4.718.37 1.533 1.609 3.984 7.5 5.234 8.338 1.095.733 1.956 2.217 2.758 3.227a680.314 680.314 0 014.808 6.199l6.759 8.726 8.84 19.43-13.864 15.189s-2.41-1.431-6.157-3.263c-9.106-4.454-18.098-9.206-27.176-13.801l-7.042-3.564-7.194-19.29 5.043-14.735 4.159-2.19z" fill="none" stroke="#f0348d" stroke-width="2.083" stroke-linecap="round" stroke-linejoin="round" stroke-miterlimit="10"/><path d="M34.022 113.624l-8.55-13.9-3.888-14.007a5.096 5.096 0 01-.148-1.988l1.806-14.503-3.4-2.57L14 81.11a9.074 9.074 0 00-.436 5.409l2.95 14.026 1.537 6.084z" fill="#fff"/><path d="M34.022 113.624l-8.55-13.9-3.888-14.007a5.096 5.096 0 01-.148-1.988l1.806-14.503-3.4-2.57L14 81.11a9.074 9.074 0 00-.436 5.409l2.95 14.026 1.537 6.084z" fill="none" stroke="#f0348d" stroke-width="2.083" stroke-linecap="round" stroke-linejoin="round" stroke-miterlimit="10"/><path d="M26.694 51.725c2.221.688 3.54 3.688 2.943 6.698-.595 3.01-2.877 4.893-5.097 4.205-2.22-.686-3.54-3.684-2.943-6.694.595-3.012 2.876-4.896 5.097-4.21" fill="#fff"/><path d="M26.694 51.725c2.221.688 3.54 3.688 2.943 6.698-.595 3.01-2.877 4.893-5.097 4.205-2.22-.686-3.54-3.684-2.943-6.694.595-3.012 2.876-4.896 5.097-4.21z" fill="none" stroke="#f0348d" stroke-width="2.083" stroke-linecap="round" stroke-linejoin="round" stroke-miterlimit="10"/><path d="M32.958 49.378L16.326 56.88v14.894l16.632-7.21z" fill="#fff"/><path d="M32.958 49.378L16.326 56.88v14.894l16.632-7.21z" fill="none" stroke="#f0348d" stroke-width="2.083" stroke-linecap="round" stroke-linejoin="round" stroke-miterlimit="10"/><path d="M47.526 59.51L32.958 49.372v15.383l14.568 9.196z" fill="#fff"/><path d="M47.526 59.51L32.958 49.372v15.383l14.568 9.196z" fill="none" stroke="#f0348d" stroke-width="2.083" stroke-linecap="round" stroke-linejoin="round" stroke-miterlimit="10"/><path d="M32.958 64.756l-16.632 7.018 14.327 8.868 16.874-6.69z" fill="#fff"/><path d="M32.958 64.756l-16.632 7.018 14.327 8.868 16.874-6.69z" fill="none" stroke="#f0348d" stroke-width="2.083" stroke-linecap="round" stroke-linejoin="round" stroke-miterlimit="10"/><g><path d="M75.177 55.54c2.22.687 3.539 3.687 2.942 6.697-.594 3.011-2.876 4.894-5.097 4.206-2.22-.686-3.54-3.685-2.943-6.695.595-3.012 2.877-4.896 5.098-4.208" fill="#fff"/></g><g><path d="M75.177 55.54c2.22.687 3.539 3.687 2.942 6.697-.594 3.011-2.876 4.894-5.097 4.206-2.22-.686-3.54-3.685-2.943-6.695.595-3.012 2.877-4.896 5.098-4.208z" fill="none" stroke="#f0348d" stroke-width="2.083" stroke-linecap="round" stroke-linejoin="round" stroke-miterlimit="10"/></g><g><path d="M81.44 53.193l-16.634 7.503V75.59l16.634-7.21z" fill="#fff"/></g><g><path d="M81.44 53.193l-16.634 7.503V75.59l16.634-7.21z" fill="none" stroke="#f0348d" stroke-width="2.083" stroke-linecap="round" stroke-linejoin="round" stroke-miterlimit="10"/></g><g><path d="M96.008 63.324L81.44 53.189V68.57l14.568 9.197z" fill="#fff"/></g><g><path d="M96.008 63.324L81.44 53.189V68.57l14.568 9.197z" fill="none" stroke="#f0348d" stroke-width="2.083" stroke-linecap="round" stroke-linejoin="round" stroke-miterlimit="10"/></g><g><path d="M81.44 68.57l-16.634 7.02 14.33 8.867 16.871-6.69z" fill="#fff"/></g><g><path d="M81.44 68.57l-16.634 7.02 14.33 8.867 16.871-6.69z" fill="none" stroke="#f0348d" stroke-width="2.083" stroke-linecap="round" stroke-linejoin="round" stroke-miterlimit="10"/></g><g><path d="M49.012 84.226s-6.416-10.832-7.185-12.766c-.94-2.371-.63-6.452.673-7.621 1.303-1.172 3.187-1.238 4.718.369 1.303 1.369 4.598 6.848 5.554 8.454.177.3.372.588.585.866 1.821 2.373 10.52 13.442 10.52 13.442" fill="#fff" stroke="#f0348d" stroke-width="2.083" stroke-linecap="round" stroke-linejoin="round" stroke-miterlimit="10"/></g></g><g clip-path="url(#u)" transform="matrix(1.33333 0 0 -1.33333 0 132.364)"><g clip-path="url(#v)"><g clip-path="url(#w)" opacity=".5"><path d="M49.05 68.454c-1.26 1.071-2.975 2.046-2.975 2.046-.986-.697-1.82-2.388-1.785-3.669.032-1.172 1.003-2.555 2.372-2.045 1.37.511 2.389 3.668 2.389 3.668" fill="#f0348d"/><path d="M49.05 68.454c-1.26 1.071-2.975 2.046-2.975 2.046-.986-.697-1.82-2.388-1.785-3.669.032-1.172 1.003-2.555 2.372-2.045 1.37.511 2.389 3.668 2.389 3.668z" fill="none" stroke="#f0348d" stroke-width="2.083" stroke-linecap="round" stroke-linejoin="round" stroke-miterlimit="10"/></g></g><path d="M49.05 68.454c-1.26 1.071-2.975 2.046-2.975 2.046-.986-.697-1.82-2.388-1.785-3.669.032-1.172 1.003-2.555 2.372-2.045 1.37.511 2.389 3.668 2.389 3.668z" fill="none" stroke="#f0348d" stroke-width="2.083" stroke-linecap="round" stroke-linejoin="round" stroke-miterlimit="10"/><g><path d="M44.754 54.214l17.675-7.552L42.91 32.174l21.519-9.456" fill="none" stroke="#f0348d" stroke-width="2.083" stroke-linecap="round" stroke-linejoin="round" stroke-miterlimit="10"/></g></g><g clip-path="url(#x)" transform="matrix(1.33333 0 0 -1.33333 0 132.364)"><path d="M96.572 38.662c0-19.778-16.184-35.96-35.964-35.96H38.661c-19.777 0-35.96 16.182-35.96 35.96V60.61c0 19.778 16.183 35.962 35.96 35.962h21.947c19.78 0 35.964-16.184 35.964-35.962z" fill="none" stroke="#f0348d" stroke-width="5.403" stroke-linecap="round" stroke-linejoin="round" stroke-miterlimit="10"/><path d="M73.234 5.108H29.248L7.994 18.691h84.241z" fill="#f0348d"/><path d="M34.093 13.506c-.861-5.866-4.058-7.411-7.536-7.92l-.674 1.526c2.533.343 5.106 1.048 6.133 4.857h-3.217c-1.142-1.442-2.106-2.033-2.471-2.252L25.25 10.93c.602.344 2.418 1.382 3.373 3.976l1.765-.227c-.135-.323-.25-.603-.55-1.174zM43.353 10.298c0-3.787-2.833-4.4-5.605-4.713l-.623 1.6c2.916.197 4.475.758 4.475 2.864v4.548h1.753zM38.34 8.72h-1.744v5.699h1.745zM54.11 13.984v-1.63h-3.064V7.952h3.572V6.323h-8.854v1.63h3.55v4.401h-3.03v1.63zM62.602 5.722h-1.754v4.234c-1.224-.706-2.148-1.1-3.467-1.546l-.914 1.4c4.403 1.257 6.84 4.1 7.66 5.045l1.496-1.03c-.404-.432-1.36-1.46-3.021-2.696zM69.63 14.741v-2.47c1.713-.519 3.582-1.34 4.993-2.18l-.883-1.734c-1.08.737-2.834 1.724-4.11 2.16v-4.92h-1.806v9.144z" fill="#fff"/></g></svg>