<svg version="1.1" id="レイヤー_1" xmlns="http://www.w3.org/2000/svg" xmlns:xlink="http://www.w3.org/1999/xlink" x="0" y="0" viewBox="0 0 74.944 74.949" xml:space="preserve"><style>.st0{fill:#fff}.st2{fill:#f9be00}.st3{fill:none}</style><g id="レイヤー_2-2"><path class="st0" d="M69.949 45.067a24.959 24.959 0 01-14.036 22.378 24.654 24.654 0 01-10.846 2.504H29.882C16.157 69.909 5.04 58.792 5 45.067V29.882C5.04 16.157 16.157 5.04 29.882 5h15.185c13.725.04 24.841 11.156 24.882 24.882v15.185z"/><defs><path id="SVGID_1_" d="M29.881 5C16.156 5.04 5.04 16.157 5.001 29.883v15.183C5.04 58.791 16.155 69.908 29.88 69.95h15.186a24.657 24.657 0 0010.846-2.505 24.958 24.958 0 0014.036-22.378V29.883C69.909 16.157 58.792 5.04 45.067 5H29.88z"/></defs><clipPath id="SVGID_2_"><use xlink:href="#SVGID_1_" overflow="visible"/></clipPath><g clip-path="url(#SVGID_2_)"><path class="st0" d="M20.686 35.306c-.194 2.497-2.069 3.978-4.187 3.309a5.671 5.671 0 01-3.484-5.732c.195-2.495 2.07-3.977 4.189-3.307a5.665 5.665 0 013.482 5.73"/><path class="st2" d="M17.508 39.26a3.811 3.811 0 01-1.154-.184 6.185 6.185 0 01-3.822-6.23 4.35 4.35 0 011.768-3.338 3.48 3.48 0 013.05-.394 6.178 6.178 0 013.819 6.23 4.348 4.348 0 01-1.767 3.338 3.348 3.348 0 01-1.894.577zm-1.309-9.36a2.41 2.41 0 00-1.358.41 3.394 3.394 0 00-1.344 2.611 5.176 5.176 0 003.148 5.233c.74.257 1.56.156 2.216-.274a3.397 3.397 0 001.343-2.611 5.168 5.168 0 00-3.145-5.232 2.878 2.878 0 00-.86-.137zm4.488 5.406z"/><path class="st0" d="M44.007 34.004l-16.746-9.341V10.772l16.746 7.175z"/><path class="st2" d="M44.007 34.488a.491.491 0 01-.236-.06l-16.745-9.343a.483.483 0 01-.248-.422V10.772a.483.483 0 01.674-.445l16.745 7.175a.484.484 0 01.293.445v16.057a.483.483 0 01-.481.484h-.002zm-16.262-10.11l15.778 8.802V18.266l-15.778-6.76v12.872z"/><path class="st0" d="M25.276 41.297L8.422 33.355V16.974l16.854 7.381z"/><path class="st2" d="M25.275 41.78a.477.477 0 01-.206-.046L8.216 33.792a.483.483 0 01-.278-.437V16.974a.484.484 0 01.678-.444l16.854 7.382a.485.485 0 01.289.443v16.941a.484.484 0 01-.484.484zm-16.37-8.732l15.887 7.486V24.672L8.905 17.714v15.334z"/><path class="st0" d="M44.007 34.004l-18.731 7.153v-16.94l18.731-6.27z"/><path class="st2" d="M25.275 41.64a.482.482 0 01-.483-.483v-16.94c0-.208.133-.392.33-.459l18.732-6.27a.484.484 0 01.636.459v16.057c0 .2-.123.38-.31.453l-18.732 7.152a.483.483 0 01-.173.031zm.484-17.075v15.89l17.764-6.784V18.62L25.76 24.565zm18.248 9.44z"/><path class="st0" d="M25.276 24.217L8.422 16.973l18.84-6.201 16.745 7.175z"/><path class="st2" d="M25.275 24.7a.483.483 0 01-.191-.039L8.23 17.418a.484.484 0 01.04-.904l18.84-6.201a.482.482 0 01.342.015l16.745 7.174a.484.484 0 01-.037.904l-18.731 6.27a.485.485 0 01-.154.025zM9.787 17.035l15.51 6.666 17.351-5.809L27.24 11.29 9.787 17.034z"/><path class="st3" d="M53.811 56.77l21.182 10.509"/><path class="st2" d="M74.992 67.762a.484.484 0 01-.215-.05l-21.18-10.508a.484.484 0 11.43-.868l21.18 10.51a.484.484 0 01-.215.916z"/><path class="st3" d="M66.173 56.882l11.391 5.925"/><path class="st2" d="M77.564 63.29a.485.485 0 01-.223-.054L65.949 57.31a.484.484 0 01.447-.857l11.392 5.924a.483.483 0 01-.224.912z"/><path class="st3" d="M63.114 52.94l12.523 5.914"/><path class="st2" d="M75.637 59.337a.49.49 0 01-.207-.045l-12.523-5.915a.484.484 0 11.414-.875l12.523 5.915a.484.484 0 01-.207.92z"/><path class="st0" d="M32.77 41.857s4.818-2.724-.346-7.07c0 0 7.724 1.227 7.324-6.61 1.861 4.063 6.724 4.14 10.33.403-2.069 4.702.27 6.602 3.888 5.482"/><path class="st2" d="M32.771 42.34a.484.484 0 01-.24-.904 3.755 3.755 0 001.787-2.519c.107-1.173-.635-2.438-2.206-3.76a.484.484 0 01.387-.847c.032.003 3.234.479 5.201-1.294 1.149-1.034 1.675-2.654 1.565-4.814a.484.484 0 01.922-.227 4.61 4.61 0 003.427 2.78 7.2 7.2 0 006.116-2.511.483.483 0 01.79.53c-.894 2.035-.977 3.616-.231 4.453.651.73 1.938.865 3.535.373a.483.483 0 01.285.924c-1.971.612-3.629.373-4.542-.653a4.01 4.01 0 01-.543-3.728 7.466 7.466 0 01-5.572 1.564 5.322 5.322 0 01-3.259-1.902 5.932 5.932 0 01-1.85 3.935 7.135 7.135 0 01-4.627 1.601 4.78 4.78 0 011.565 3.671 4.677 4.677 0 01-2.272 3.266.477.477 0 01-.238.062zm27.741 4.933c-1.098 2.34-5.4 4.169-10.938 4.169s-9.84-1.829-10.938-4.17c-.096.207-.217-1.193-.217-1.398 0-.335-.076 2.684-.024 3.003.441 2.691 5.056 4.927 11.18 4.927 6.286 0 10.983-2.355 11.204-5.143.02-.249-.049-2.582-.049-2.582-.046-.214-.12 1.4-.218 1.194"/><path class="st2" d="M49.574 54.287c-6.147 0-11.158-2.292-11.656-5.331a19.82 19.82 0 01.019-2.914l-.001-.167.028-.001a.719.719 0 01.168-.415.486.486 0 01.505-.042.525.525 0 01.265.458c.019.367.056.733.112 1.096.024.03.044.062.06.097.907 1.933 4.805 3.89 10.5 3.89s9.593-1.957 10.5-3.89a.513.513 0 01.043-.074c.02-.135.038-.333.057-.511.054-.531.09-.882.52-.906a.505.505 0 01.51.4c.027.642.078 2.468.058 2.725-.254 3.183-5.279 5.585-11.688 5.585zm-10.713-5.801c.002.155.006.268.012.316.363 2.219 4.466 4.518 10.701 4.518 6.393 0 10.543-2.439 10.723-4.696.002-.026.003-.079.003-.154-1.804 2.103-5.892 3.455-10.726 3.455-4.821 0-8.902-1.345-10.713-3.44z"/><path d="M60.73 45.54c-.587-2.776-5.557-4.822-11.156-4.822-5.598 0-10.568 2.047-11.155 4.823a2.693 2.693 0 00.217 1.732c1.098 2.34 5.4 4.168 10.938 4.168s9.84-1.828 10.938-4.168a2.69 2.69 0 00.218-1.732" fill="#f6aa00"/><path class="st2" d="M49.574 51.925c-5.555 0-10.127-1.787-11.376-4.446a3.18 3.18 0 01-.253-2.038c.628-2.969 5.627-5.206 11.63-5.206s11 2.237 11.628 5.206a3.178 3.178 0 01-.253 2.037c-1.248 2.66-5.82 4.447-11.376 4.447zm0-10.723c-5.464 0-10.155 1.95-10.681 4.438-.1.483-.036.985.181 1.428.907 1.932 4.806 3.89 10.5 3.89s9.593-1.958 10.5-3.89c.217-.443.28-.945.182-1.428-.527-2.488-5.218-4.438-10.682-4.438z"/><path class="st2" d="M60.512 45.055c-1.098 2.34-5.4 4.17-10.938 4.17s-9.84-1.83-10.938-4.17c-.096.206-.217-1.193-.217-1.399 0-.335-.076 2.684-.024 3.003.441 2.691 5.056 4.927 11.18 4.927 6.286 0 10.983-2.356 11.204-5.143.02-.25-.049-2.581-.049-2.581-.046-.215-.12 1.399-.218 1.193"/><path class="st2" d="M49.574 52.069c-6.147 0-11.158-2.292-11.656-5.331a19.82 19.82 0 01.019-2.914l-.001-.167.028-.001a.719.719 0 01.168-.415.484.484 0 01.505-.042.525.525 0 01.265.458c.019.367.056.733.112 1.096a.46.46 0 01.06.096c.907 1.934 4.806 3.892 10.5 3.892s9.593-1.958 10.5-3.89a.432.432 0 01.043-.075c.02-.135.038-.333.057-.51.054-.532.09-.883.52-.907a.516.516 0 01.51.4c.027.642.078 2.466.058 2.724-.254 3.184-5.279 5.586-11.688 5.586zm-10.713-5.802c.002.156.006.27.012.317.363 2.22 4.466 4.518 10.701 4.518 6.393 0 10.543-2.438 10.723-4.696a2.52 2.52 0 00.003-.155c-1.804 2.104-5.892 3.457-10.726 3.457-4.821 0-8.902-1.346-10.713-3.44z"/><path d="M60.73 43.323c-.587-2.776-5.557-4.821-11.156-4.821-5.598 0-10.568 2.045-11.155 4.821a2.694 2.694 0 00.217 1.732c1.098 2.34 5.4 4.169 10.938 4.169s9.84-1.829 10.938-4.169a2.7 2.7 0 00.218-1.732" fill="#fdd337"/><path class="st2" d="M49.574 49.707c-5.555 0-10.128-1.787-11.376-4.446a3.168 3.168 0 01-.253-2.038c.628-2.968 5.627-5.205 11.63-5.205s11 2.237 11.628 5.205a3.178 3.178 0 01-.253 2.037c-1.248 2.66-5.82 4.447-11.376 4.447zm0-10.722c-5.464 0-10.156 1.95-10.681 4.437-.1.483-.036.986.181 1.428.907 1.933 4.806 3.89 10.5 3.89 5.696 0 9.593-1.957 10.5-3.89.217-.442.281-.945.182-1.428-.527-2.488-5.218-4.437-10.682-4.437z"/><path class="st0" d="M48.974 15.919a3.846 3.846 0 00-3.674-2.815"/><path class="st2" d="M48.974 16.403a.484.484 0 01-.461-.338 3.366 3.366 0 00-3.252-2.479.484.484 0 01-.444-.52.495.495 0 01.522-.444 4.349 4.349 0 014.096 3.15.483.483 0 01-.314.608.477.477 0 01-.147.023z"/><path class="st0" d="M49.755 12.429a2.134 2.134 0 00-1.62-1.395"/><path class="st2" d="M49.756 12.913a.484.484 0 01-.453-.316 1.663 1.663 0 00-1.268-1.09.484.484 0 01.2-.946 2.622 2.622 0 011.974 1.7.484.484 0 01-.453.652z"/><path class="st0" d="M20.118 45.049a3.87 3.87 0 004.53 1.014"/><path class="st2" d="M22.983 46.868a4.286 4.286 0 01-3.22-1.49.484.484 0 11.71-.657 3.39 3.39 0 004.008.888.484.484 0 01.334.908 5.313 5.313 0 01-1.832.35z"/><path class="st0" d="M20.896 48.546c.534.55 1.32.772 2.062.586"/><path class="st2" d="M22.424 49.677a2.623 2.623 0 01-1.868-.787.484.484 0 11.68-.69 1.652 1.652 0 001.614.46.484.484 0 11.216.943 2.83 2.83 0 01-.642.074z"/></g><path class="st2" d="M45.092 71.561H29.906C15.281 71.544 3.43 59.692 3.413 45.067V29.88C3.43 15.256 15.281 3.404 29.906 3.387h15.186c14.625.016 26.478 11.869 26.494 26.494v15.186a26.711 26.711 0 01-14.94 23.827 26.113 26.113 0 01-11.554 2.667zM29.906 6.612C17.061 6.627 6.653 17.037 6.64 29.882v15.185c.014 12.845 10.423 23.254 23.267 23.268h15.186a22.917 22.917 0 0010.137-2.34 23.465 23.465 0 0013.13-20.927V29.88C68.346 17.036 57.937 6.627 45.092 6.612H29.906z"/><path class="st3" d="M29.88 74.949C13.386 74.929.019 61.562 0 45.066V29.882C.018 13.387 13.385.02 29.88 0h15.186C61.562.019 74.93 13.387 74.948 29.882v15.184a30.114 30.114 0 01-16.842 26.871 29.473 29.473 0 01-13.04 3.012H29.881z"/><path class="st3" d="M29.881 5C16.156 5.04 5.04 16.157 5.001 29.883v15.183C5.04 58.791 16.155 69.908 29.88 69.95h15.186a24.657 24.657 0 0010.846-2.505 24.958 24.958 0 0014.036-22.378V29.883C69.909 16.157 58.792 5.04 45.067 5H29.88z"/></g></svg>