<svg xmlns="http://www.w3.org/2000/svg" viewBox="0 0 75 75"><defs><style>.cls-3{fill:#675642}</style></defs><g id="レイヤー_2" data-name="レイヤー 2"><g id="レイヤー_2-2" data-name="レイヤー 2"><path d="M8.482 0H75v75H8.482A8.482 8.482 0 010 66.518V8.482A8.482 8.482 0 018.482 0z" transform="rotate(90 37.5 37.5)" fill="none"/><path d="M8.482 5h58.036A3.482 3.482 0 0170 8.482V70H5V8.482A3.482 3.482 0 018.482 5z" fill="#fff"/><path class="cls-3" d="M70.125 70.125H4.875V8.482a3.611 3.611 0 013.607-3.607h58.036a3.611 3.611 0 013.607 3.607zm-65-.25h64.75V8.482a3.36 3.36 0 00-3.357-3.357H8.482a3.36 3.36 0 00-3.357 3.357z"/><path class="cls-3" d="M26.098 35.803l10.45-15.198a1.156 1.156 0 011.905 0l10.449 15.198a1.156 1.156 0 01-.953 1.812H27.051a1.156 1.156 0 01-.953-1.812z"/><rect class="cls-3" x="32.901" y="33.292" width="9.198" height="21.605" rx="1.156"/><path class="cls-3" d="M35.875 15.59a4.628 4.628 0 00-1.155-.703c-.027.596-.267.958-1.018.958-.777 0-1.277-.378-1.277-.884 0-.49.463-.857 1.384-.857.069 0 .133 0 .197.005l-.01-.49h-1.444v-.623h1.432c-.005-.16-.005-.33-.01-.506h-1.529v-.617h1.524c-.005-.246-.005-.496-.005-.751h.713c0 .255 0 .505.006.75h1.48v.618h-1.475c0 .176.005.346.005.506h1.358v.623h-1.342c0 .23.005.437.01.612a4.564 4.564 0 011.545.826zm-2.156-.895c-.458 0-.66.112-.66.277s.207.271.574.271c.325 0 .379-.096.379-.521v-.011a2.625 2.625 0 00-.293-.016zm7.71 1.07c-.83 0-.985-.138-1.086-.554-.032-.122-.048-.229-.074-.33-.048-.202-.107-.293-.256-.293a.79.79 0 00-.49.24c-.086.08-.213.197-.31.293-.218.218-.43.426-.75.756l-.501-.484a51.613 51.613 0 002.3-2.35h-2.05v-.638h3.11v.506c-.393.41-.734.772-1.033 1.097a.344.344 0 01.102-.022c.245 0 .399.155.473.464.022.085.054.223.07.298.075.378.106.389.591.389.203 0 .474-.021.74-.048v.639a9.32 9.32 0 01-.836.037zm-.42-3.621a8.497 8.497 0 00-1.96-.432l.154-.638a8.817 8.817 0 012.03.447zM16.632 63.688l.111.914-.285.03-.111-.922-1.182.096-.022-.25 1.173-.092-.082-.702-1 .08-.02-.25.991-.076-.089-.725.286-.026.088.732.985-.076.016.243-.97.075.082.702 1.069-.082.016.243zm1.472.744v-.246h1.47l.095-1.2h-1.26v-.247h1.559l-.121 1.447h.557v.246zm2.821-.977v-.296h2.578v.296zm3.455 1.105l-.138-.249a1.994 1.994 0 001.673-1.791H23.97v-.266h2.3a2.377 2.377 0 01-1.89 2.306zm1.781-2.369a1.95 1.95 0 00-.236-.502l.16-.078a2.07 2.07 0 01.257.508zm.456-.023a1.82 1.82 0 00-.233-.511l.164-.082a2.134 2.134 0 01.25.521zm1.291.388h.22c.482 0 .656.21.656.705a2.269 2.269 0 01-.21 1.073.421.421 0 01-.435.24 1.23 1.23 0 01-.463-.1l.033-.229a1.163 1.163 0 00.394.086.237.237 0 00.229-.112 1.956 1.956 0 00.184-.958c0-.331-.112-.469-.427-.469-.069 0-.148 0-.233.003a6.24 6.24 0 01-.692 1.782l-.233-.132a5.573 5.573 0 00.65-1.643c-.2.003-.42.013-.65.023l-.013-.237c.263-.013.502-.02.715-.026a6.124 6.124 0 00.105-.728h.279a6.805 6.805 0 01-.109.722zm1.208-.223a2.068 2.068 0 00-.236-.541l.16-.082a2.067 2.067 0 01.256.55zm.288 1.578a2.31 2.31 0 00-.442-1.372l.213-.13a2.527 2.527 0 01.509 1.502zm.142-1.687a1.991 1.991 0 00-.24-.528l.16-.085a2.18 2.18 0 01.257.538zm1.36-.016a1.97 1.97 0 00-.233-.43c.105-.04.178-.062.25-.085a2.071 2.071 0 01.268.508l-.02.007h.759a3.974 3.974 0 00.295-.519l.279.092a4.771 4.771 0 01-.275.427h.852v.233h-3.019v-.233zm-.344 1.785v.712h-.26V62.7h1.126v1.752c0 .14-.04.22-.164.243a2.183 2.183 0 01-.345.01l-.04-.23c.079.003.187.003.224.003.05-.006.062-.026.062-.069v-.416zm.603-.752v-.315h-.603v.315zm0 .538v-.33h-.603v.33zm.896-1.05v1.44h-.263v-1.44zm.784-.11v1.807c0 .154-.046.242-.19.269a2.68 2.68 0 01-.414.006l-.043-.24c.106.007.253.007.299.004.056-.003.075-.033.075-.082v-1.765zm.865 1.889a5.653 5.653 0 01-.107-1.188 8.39 8.39 0 01.104-1.286h.275a9.585 9.585 0 00-.104 1.28 5.816 5.816 0 00.104 1.15zm1.68-.092c-.784 0-1.08-.158-1.08-.466a.964.964 0 01.273-.597l.227.108a.755.755 0 00-.23.453c0 .17.223.252.81.252.158 0 .328-.003.508-.02v.25a5.39 5.39 0 01-.508.02zm-1.01-1.857v-.246h1.499v.246zm3.35 1.886v-2.227l-.538.367-.138-.213.65-.446h.328v2.52zm1.795-.042v-.27H41.4v-1.627h-1.87v-.265h2.165v2.162zm4.405.147a7.136 7.136 0 00-1.341-1.148l.174-.203a7.028 7.028 0 01.695.515 2.885 2.885 0 001.066-1.293h-2.26v-.256h2.673a3.415 3.415 0 01-1.265 1.732c.174.158.338.312.475.456zm1.667-.042a5.653 5.653 0 01-.108-1.188 8.39 8.39 0 01.105-1.286h.275a9.585 9.585 0 00-.104 1.28 5.816 5.816 0 00.104 1.15zm1.68-.092c-.785 0-1.08-.158-1.08-.466a.964.964 0 01.273-.597l.226.108a.755.755 0 00-.23.453c0 .17.223.252.81.252.159 0 .328-.003.51-.019v.249a5.4 5.4 0 01-.51.02zm-1.01-1.857v-.246h1.499v.246zm3.184 1.443a.624.624 0 010-1.246.566.566 0 01.316.092v-.358h-1.569v-.25h1.569v-.485h.288v.486h.984v.25h-.984v.888c0 .748-.184 1.181-1.171 1.306l-.085-.233c.554-.066.803-.2.905-.509a.54.54 0 01-.253.06zm0-1.02c-.2 0-.324.161-.324.397 0 .236.124.394.324.394.197 0 .316-.174.316-.394 0-.226-.116-.397-.316-.397zm2.949 1.02a.624.624 0 010-1.246.566.566 0 01.315.092v-.358h-1.569v-.25h1.569v-.485h.288v.486h.984v.25h-.984v.888c0 .748-.184 1.181-1.171 1.306l-.085-.233c.555-.066.804-.2.905-.509a.54.54 0 01-.253.06zm0-1.02c-.2 0-.325.161-.325.397 0 .236.124.394.324.394.198 0 .316-.174.316-.394 0-.226-.115-.397-.316-.397zm2.368 1.037c-.289 0-.47-.19-.47-.564 0-.345.178-.568.47-.568a.46.46 0 01.226.056v-.341h-.669v-.243h.67v-.561h.265v.56h.643v.244h-.643v.856c0 .23-.069.39-.069.597 0 .23.174.318.59.318.486 0 .755-.095.755-.394a2.916 2.916 0 00-.085-.61h.259a2.84 2.84 0 01.085.627c0 .45-.357.623-1.03.623-.597 0-.836-.177-.836-.498a.818.818 0 01.01-.132.472.472 0 01-.171.03zm0-.916c-.155 0-.247.135-.247.352 0 .229.096.347.247.347s.246-.134.246-.347c0-.217-.095-.351-.246-.351zm2.253-.098a2.965 2.965 0 00-.721-.492l.144-.2a3.183 3.183 0 01.735.489zm2.641 1.476a2.806 2.806 0 00-.836-.492c-.01.463-.154.643-.588.643-.435 0-.724-.213-.724-.482 0-.282.292-.489.777-.489a2.303 2.303 0 01.259.017c-.01-.387-.035-1.05-.035-1.884h.275c0 .266.003.516.006.745h1.01v.246H58.8c.01.397.02.722.022.952a2.836 2.836 0 011.001.54zm-1.393-.584c-.319 0-.502.102-.502.256 0 .148.176.24.449.24.265 0 .334-.092.338-.473a1.636 1.636 0 00-.285-.023zm-26.907-3.441a1.892 1.892 0 00-.557-.312c-.002.285-.093.427-.389.427-.293 0-.499-.135-.499-.327s.197-.321.535-.321a1.217 1.217 0 01.158.01l-.006-.31h-.658v-.17h.656c-.002-.099-.005-.203-.005-.314H29.9v-.167h.694c-.002-.12-.002-.244-.002-.372h.191c0 .128 0 .252.003.372h.675v.167h-.673c0 .111.002.215.005.314h.621v.17h-.62c.005.133.008.25.008.347a1.975 1.975 0 01.666.342zm-.932-.373c-.214 0-.341.064-.341.163 0 .102.129.162.31.162.173 0 .214-.058.214-.282v-.03a1.29 1.29 0 00-.183-.013zm2.837.443c-.336 0-.398-.047-.44-.213-.015-.05-.028-.115-.04-.169-.028-.108-.056-.15-.128-.15a.355.355 0 00-.222.098c-.04.034-.091.084-.146.134-.112.108-.205.203-.36.357l-.134-.13c.318-.307.781-.78 1.101-1.117h-1.002v-.172h1.285v.138l-.534.553a.256.256 0 01.105-.025c.103 0 .162.06.196.204.014.051.03.121.038.162.04.152.062.16.303.16.084 0 .192-.004.305-.015v.171a3.448 3.448 0 01-.327.014zm-.186-1.579a3.81 3.81 0 00-.821-.196l.04-.172a3.942 3.942 0 01.843.199z"/></g></g></svg>