<svg xmlns="http://www.w3.org/2000/svg" viewBox="0 0 562.974 185.264">
  <defs>
    <style>
      .cls-1 {
        fill: #fff;
      }

      .cls-2 {
        fill: #e5e5e6;
      }

      .cls-3 {
        fill: #c8c9ca;
      }

      .cls-4 {
        fill: #9e9e9f;
      }

      .cls-5 {
        fill: #231815;
      }

      .cls-6, .cls-7 {
        font-size: 9.98px;
        fill: #666;
      }

      .cls-6 {
        font-family: SST-Roman, SST;
      }

      .cls-7 {
        font-family: KozGoPr6N-Regular-90ms-RKSJ-H, Kozuka Gothic Pr6N;
      }

      .cls-10, .cls-11, .cls-12, .cls-13, .cls-15, .cls-16, .cls-17, .cls-8, .cls-9 {
        fill: none;
        stroke: #bfd833;
        stroke-miterlimit: 10;
      }

      .cls-10, .cls-11, .cls-12, .cls-15, .cls-16, .cls-8, .cls-9 {
        stroke-width: 0.75px;
      }

      .cls-9 {
        stroke-dasharray: 0.992 1.984;
      }

      .cls-10 {
        stroke-dasharray: 2.976 1.984 0.992 1.984;
      }

      .cls-11 {
        stroke-dasharray: 1.01 2.019;
      }

      .cls-12 {
        stroke-dasharray: 3.029 2.019 1.01 2.019;
      }

      .cls-13 {
        stroke-linecap: round;
        stroke-width: 0.5px;
      }

      .cls-14 {
        fill: #bfd833;
      }

      .cls-15 {
        stroke-dasharray: 1.028 2.056;
      }

      .cls-16 {
        stroke-dasharray: 3.084 2.056 1.028 2.056;
      }

      .cls-17 {
        stroke-width: 2px;
      }
    </style>
  </defs>
  <title>magnetSensorAxis</title>
  <g id="レイヤー_3" data-name="レイヤー 3">
    <g>
      <path class="cls-1" d="M388.875,153.09l-3.385,1.61v.083H332.733l-1.41-1.41V147.8h-1.552a.848.848,0,0,0-.848.848v1.975h-1.974a.846.846,0,0,1-.846-.848V137.363a.847.847,0,0,1,.846-.848l4.374-.114v-11l-4.374-.115a.845.845,0,0,1-.846-.844V95.412a.847.847,0,0,1,.846-.848l4.374-.114v-11l-4.374-.114a.847.847,0,0,1-.846-.848V70.077a.848.848,0,0,1,.846-.848h1.974V71.2a.847.847,0,0,0,.848.848h1.552V66.479l1.41-1.409H385.49v.085l3.385,1.606v.848l1.371,1.148a5.651,5.651,0,0,1,2.014,4.324v5.984a5.65,5.65,0,0,1-2.014,4.321l-1.371,1.151,0,1.746c.322.3.63.607.928.928a17.631,17.631,0,0,1-.928,24.918l0,19.887.2,0a1.407,1.407,0,0,1,.765.241l1.936,1.306a6.207,6.207,0,0,1,2.737,5.145v5.062a6.209,6.209,0,0,1-2.737,5.145l-1.936,1.306a1.416,1.416,0,0,1-.765.241l-.2,0Z"/>
      <path class="cls-2" d="M388.875,132.016l.2,0a1.407,1.407,0,0,1,.765.241l1.936,1.306a6.207,6.207,0,0,1,2.737,5.145v5.062a6.209,6.209,0,0,1-2.737,5.145l-1.936,1.306a1.416,1.416,0,0,1-.765.241l-.2,0Z"/>
      <path class="cls-3" d="M388.88,86.283c.322.3.63.607.928.928a17.631,17.631,0,0,1-.928,24.918Z"/>
      <path class="cls-4" d="M329.172,102.078a.249.249,0,0,1-.249.249h-1.985l-.111-.008h-.021l-.109-.015c-.01,0-.018,0-.026-.006l-.106-.026s-.013,0-.021-.005l-.1-.034-.029-.012-.091-.045a.075.075,0,0,1-.02-.01l-.083-.052a.1.1,0,0,1-.029-.018l-.072-.059c-.008-.008-.019-.016-.026-.024l-.06-.064-.023-.029-.05-.07c-.007-.01-.012-.021-.02-.034l-.034-.072c-.007-.016-.013-.029-.018-.042l-.02-.078a.233.233,0,0,1-.008-.046l-.008-.078a.248.248,0,0,1,.5-.044l0,.055.011.035.017.037.026.036.04.042.046.039.06.033.067.034.073.026.083.021.083.01.1,0h1.967A.249.249,0,0,1,329.172,102.078Zm.848,13.7v9.506a.249.249,0,1,1-.5,0v-9.506A.249.249,0,1,1,330.02,115.781Zm0-21.217v9.507a.249.249,0,1,1-.5,0V94.564A.249.249,0,0,1,330.02,94.564ZM331.7,66.479v86.894a.373.373,0,1,1-.747,0V66.479A.374.374,0,0,1,331.7,66.479Zm1.41-1.409v89.713a.373.373,0,1,1-.747,0V65.07A.374.374,0,0,1,333.107,65.07Zm7.617,0v89.713a.374.374,0,0,1-.747,0V65.07A.374.374,0,0,1,340.724,65.07Zm27.082,0v89.713a.373.373,0,1,1-.746,0V65.07A.373.373,0,1,1,367.806,65.07Zm18.058,0v89.713a.373.373,0,1,1-.747,0V65.07A.374.374,0,1,1,385.864,65.07Zm3.384,1.691V153.09a.373.373,0,1,1-.746,0V66.761A.373.373,0,0,1,389.248,66.761Z"/>
      <path class="cls-4" d="M327.2,136.515v14.108a.249.249,0,0,1-.5,0V136.515A.249.249,0,0,1,327.2,136.515Zm4.374-30.871a.248.248,0,0,1-.249.249h-4.385l-.111,0a.066.066,0,0,0-.024,0l-.108-.015a.2.2,0,0,0-.024-.005l-.106-.026-.018-.006-.1-.033a.221.221,0,0,1-.029-.013l-.091-.045c-.008,0-.015-.007-.023-.009l-.083-.052-.026-.019-.072-.059c-.008-.008-.016-.013-.024-.021l-.062-.064-.023-.029-.05-.07a.335.335,0,0,1-.02-.037l-.037-.075a.278.278,0,0,1-.012-.038l-.023-.079a.233.233,0,0,1-.008-.046l-.008-.078a.248.248,0,0,1,.5-.043l0,.054.011.036.017.036.026.039.037.036.049.039.06.039.065.031.075.023.083.022.085.012.093,0h4.367A.249.249,0,0,1,331.572,105.644Z"/>
      <path class="cls-4" d="M327.2,69.229V83.337a.249.249,0,0,1-.5,0V69.229A.249.249,0,0,1,327.2,69.229Zm0,25.335v30.723a.249.249,0,0,1-.5,0V94.564A.249.249,0,0,1,327.2,94.564Z"/>
      <path class="cls-4" d="M331.572,114.21a.249.249,0,0,1-.249.249h-4.374l-.088,0-.083.01-.081.021-.077.026-.065.031-.06.036-.046.039-.04.042-.026.038-.017.037-.011.033,0,.055a.249.249,0,0,1-.5-.047l.008-.075.008-.047.023-.077a.252.252,0,0,1,.012-.039l.037-.075c.008-.011.013-.024.02-.034l.05-.07a.247.247,0,0,1,.023-.028l.06-.065a.154.154,0,0,1,.026-.024l.072-.059a.12.12,0,0,1,.026-.018l.083-.053a.151.151,0,0,1,.026-.012l.094-.044.02-.008.1-.037.023-.008.1-.025c.008,0,.016,0,.024,0l.108-.015a.1.1,0,0,1,.029,0l.111,0h4.38A.249.249,0,0,1,331.572,114.21Zm-2.4,3.566a.248.248,0,0,1-.249.249l-2.062,0-.083.013-.081.018-.077.029-.065.028-.06.037-.049.041-.037.039-.026.038-.017.037-.011.031,0,.057a.248.248,0,0,1-.5-.044l.008-.081a.246.246,0,0,1,.008-.046l.023-.075a.125.125,0,0,1,.015-.039l.034-.075a.3.3,0,0,1,.02-.034l.05-.07c.008-.01.016-.018.023-.028l.06-.065.026-.023.075-.06.021-.015.083-.053a.1.1,0,0,1,.031-.015l.091-.044.02-.008.1-.034a.106.106,0,0,1,.026-.01l.1-.023.024-.006.108-.015c.008,0,.016,0,.026,0l.109,0h1.985a.248.248,0,0,1,.249.249Z"/>
      <path class="cls-4" d="M331.7,104.071a.374.374,0,0,1-.374.373h-1.552a1.221,1.221,0,0,1-1.221-1.218V94.694a.359.359,0,0,1,.008-.075l.008-.031a.346.346,0,0,1,.062-.14l.018-.026a.32.32,0,0,1,.086-.086l.028-.02a.4.4,0,0,1,.078-.045l.042-.015a.144.144,0,0,1,.051-.015l.052-.014a.116.116,0,0,1,.029-.005l.062-.01a.238.238,0,0,1,.026-.005l.072-.006h.013l.174-.008h.01l.1,0a.377.377,0,0,1,.376.371v0a.371.371,0,0,1-.371.373l-.173.006v8.283a.474.474,0,0,0,.474.472h1.552A.375.375,0,0,1,331.7,104.071Zm0,11.71a.375.375,0,0,1-.374.373h-1.552a.475.475,0,0,0-.474.475v8.28l.269,0a.374.374,0,1,1,0,.747h-.2l-.01,0-.174,0-.018,0-.07-.007h-.015l-.062-.011a.1.1,0,0,1-.042-.008l-.052-.012a.292.292,0,0,1-.052-.019l-.042-.015c-.02-.011-.041-.021-.061-.034l-.029-.02a.358.358,0,0,1-.1-.094l-.018-.023a.378.378,0,0,1-.062-.143l-.008-.031a.382.382,0,0,1-.008-.075v-8.529a1.221,1.221,0,0,1,1.221-1.221h1.552A.374.374,0,0,1,331.7,115.781Z"/>
      <path class="cls-5" d="M388.378,152.776v-2.309a.5.5,0,0,1,.487-.5l.207,0a.909.909,0,0,0,.5-.156l1.936-1.306a5.7,5.7,0,0,0,2.517-4.732v-5.062a5.707,5.707,0,0,0-2.517-4.733l-1.936-1.306a.917.917,0,0,0-.5-.156l-.2,0a.5.5,0,0,1-.489-.5l0-19.887a.5.5,0,0,1,.161-.365,17.132,17.132,0,0,0,.9-24.216c-.287-.311-.588-.611-.9-.9a.5.5,0,0,1-.161-.363l0-1.744v0a.5.5,0,0,1,.175-.382l1.372-1.15a5.132,5.132,0,0,0,1.837-3.94V73.081a5.128,5.128,0,0,0-1.837-3.942l-1.369-1.149a.494.494,0,0,1-.178-.381v-.534l-3.1-1.472a.7.7,0,0,1-.065-.036H332.938l-1.117,1.117v5.368a.5.5,0,0,1-.5.5h-1.552a1.35,1.35,0,0,1-1.345-1.345V69.727h-1.477a.349.349,0,0,0-.348.35V82.489a.35.35,0,0,0,.348.35h.012l4.376.114a.5.5,0,0,1,.484.5v11a.5.5,0,0,1-.484.5l-4.376.117h-.012a.347.347,0,0,0-.348.347v29.034a.346.346,0,0,0,.348.345l.012,0,4.376.114a.5.5,0,0,1,.484.5v11a.5.5,0,0,1-.484.5l-4.376.114h-.012a.348.348,0,0,0-.348.348v12.414a.352.352,0,0,0,.348.35h1.477v-1.477a1.349,1.349,0,0,1,1.345-1.345h1.552a.5.5,0,0,1,.5.5v5.368l1.117,1.117H385.21a.7.7,0,0,1,.065-.036Zm6.637-14.065v5.062a6.69,6.69,0,0,1-2.957,5.557l-1.933,1.306a1.968,1.968,0,0,1-.752.3v2.153a.5.5,0,0,1-.285.449l-3.178,1.511a.5.5,0,0,1-.42.231H332.733a.5.5,0,0,1-.352-.146l-1.41-1.41a.5.5,0,0,1-.145-.352V148.3h-1.055a.352.352,0,0,0-.35.35v1.975a.5.5,0,0,1-.5.5h-1.974a1.346,1.346,0,0,1-1.343-1.345V137.363a1.345,1.345,0,0,1,1.335-1.345l3.885-.1v-10.03l-3.885-.1a1.343,1.343,0,0,1-1.335-1.342V95.412a1.343,1.343,0,0,1,1.335-1.345l3.885-.1V83.935l-3.885-.1a1.345,1.345,0,0,1-1.335-1.345V70.077a1.347,1.347,0,0,1,1.343-1.346h1.974a.5.5,0,0,1,.5.5V71.2a.35.35,0,0,0,.35.35h1.055V66.479a.5.5,0,0,1,.145-.353l1.41-1.409a.5.5,0,0,1,.352-.145H385.49a.5.5,0,0,1,.42.23l3.178,1.509a.5.5,0,0,1,.285.45v.615l1.192,1a6.119,6.119,0,0,1,2.192,4.7v5.984a6.116,6.116,0,0,1-2.192,4.7l-1.192,1,0,1.3c.276.262.54.528.8.806a18.129,18.129,0,0,1-.8,25.472l0,19.2a1.959,1.959,0,0,1,.749.3l1.938,1.309A6.691,6.691,0,0,1,395.015,138.711Z"/>
    </g>
    <g>
      <path class="cls-1" d="M149.637,65.066H233.7a2.825,2.825,0,0,1,2.826,2.827v84.066a2.818,2.818,0,0,1-2.826,2.819H149.637a2.822,2.822,0,0,1-2.821-2.819V67.893A2.825,2.825,0,0,1,149.637,65.066Z"/>
      <path class="cls-4" d="M183.563,82.24c.076-.07,1.714-1.709,2.572-2.572a2.4,2.4,0,0,0,.717-1.735v-3.3a2.394,2.394,0,0,0-.717-1.727l-2.579-2.585a2.446,2.446,0,0,0-1.728-.718h-2.7a2.452,2.452,0,0,0-2.445,2.451v8.466a2.451,2.451,0,0,0,2.445,2.445h2.7a2.42,2.42,0,0,0,1.728-.717Zm-4.434-13.382h2.7a3.185,3.185,0,0,1,2.255.934l2.579,2.579a3.187,3.187,0,0,1,.94,2.26v3.3a3.174,3.174,0,0,1-.94,2.261l-2.172,2.179c-.2.2-.33.323-.413.4h.006a3.135,3.135,0,0,1-2.255.933h-2.7a3.2,3.2,0,0,1-3.194-3.188V72.052A3.2,3.2,0,0,1,179.129,68.858Zm25.08,14.1a2.446,2.446,0,0,0,2.445-2.445V72.052a2.451,2.451,0,0,0-2.445-2.451h-2.692a2.457,2.457,0,0,0-1.735.718L197.2,72.9a2.39,2.39,0,0,0-.717,1.727v3.3a2.423,2.423,0,0,0,.717,1.735l2.572,2.578h.006a2.431,2.431,0,0,0,1.735.717Zm-2.7-14.1h2.7a3.193,3.193,0,0,1,3.195,3.194v8.466a3.2,3.2,0,0,1-3.195,3.195h-2.692a3.178,3.178,0,0,1-2.262-.94l.007-.007c-.14-.127-.28-.26-.413-.393l-2.172-2.179a3.174,3.174,0,0,1-.94-2.261v-3.3a3.187,3.187,0,0,1,.94-2.26l2.578-2.579A3.16,3.16,0,0,1,201.51,68.858Zm-7.552,73.25H189.38a3.228,3.228,0,0,1-2.255-.939l-3.569-3.564a2.416,2.416,0,0,0-1.728-.717h-2.7a2.448,2.448,0,0,0-2.445,2.452V147.8a2.447,2.447,0,0,0,2.445,2.445h2.7a2.411,2.411,0,0,0,1.728-.712l3.569-3.569a3.192,3.192,0,0,1,2.255-.933h4.578a3.163,3.163,0,0,1,2.262.933l3.562,3.569a2.432,2.432,0,0,0,1.735.712h2.692a2.453,2.453,0,0,0,2.452-2.445V139.34a2.458,2.458,0,0,0-2.452-2.452h-2.692a2.437,2.437,0,0,0-1.735.717l-3.562,3.564A3.187,3.187,0,0,1,193.958,142.108Zm-14.829-5.963h2.7a3.135,3.135,0,0,1,2.255.933l3.569,3.564a2.448,2.448,0,0,0,1.728.717h4.578a2.4,2.4,0,0,0,1.729-.717l3.568-3.564a3.138,3.138,0,0,1,2.255-.933h2.7a3.193,3.193,0,0,1,3.195,3.195V147.8a3.193,3.193,0,0,1-3.195,3.194h-2.692a3.143,3.143,0,0,1-2.262-.933l-3.568-3.57a2.475,2.475,0,0,0-1.729-.717H189.38a2.474,2.474,0,0,0-1.728.717l-3.569,3.57a3.189,3.189,0,0,1-2.255.933h-2.7a3.2,3.2,0,0,1-3.194-3.194V139.34A3.2,3.2,0,0,1,179.129,136.145ZM162.255,124.91a2.448,2.448,0,0,0,2.452-2.445v-2.7a2.427,2.427,0,0,0-.717-1.728l-3.564-3.568a3.174,3.174,0,0,1-.94-2.255v-4.579a3.174,3.174,0,0,1,.94-2.255l3.564-3.568a2.428,2.428,0,0,0,.717-1.735V97.386a2.448,2.448,0,0,0-2.452-2.446H153.8a2.442,2.442,0,0,0-2.445,2.446v2.7a2.407,2.407,0,0,0,.712,1.729l3.569,3.568a3.142,3.142,0,0,1,.933,2.255v4.579a3.142,3.142,0,0,1-.933,2.255l-3.569,3.568a2.41,2.41,0,0,0-.712,1.728v2.7a2.442,2.442,0,0,0,2.445,2.445ZM153.8,94.191h8.459a3.193,3.193,0,0,1,3.195,3.195v2.692a3.143,3.143,0,0,1-.933,2.261l-3.564,3.569a2.427,2.427,0,0,0-.717,1.728v4.579a2.4,2.4,0,0,0,.717,1.728l3.564,3.568a3.173,3.173,0,0,1,.939,2.255v2.7a3.2,3.2,0,0,1-3.194,3.195H153.8a3.193,3.193,0,0,1-3.195-3.195v-2.692a3.194,3.194,0,0,1,.935-2.262l3.569-3.568a2.448,2.448,0,0,0,.717-1.728v-4.579a2.452,2.452,0,0,0-.717-1.728l-3.569-3.569a3.186,3.186,0,0,1-.935-2.255v-2.7A3.193,3.193,0,0,1,153.8,94.191Zm75.746,30.719a2.442,2.442,0,0,0,2.446-2.445v-2.7a2.418,2.418,0,0,0-.712-1.728l-3.569-3.568a3.138,3.138,0,0,1-.933-2.255v-4.579a3.138,3.138,0,0,1,.933-2.255l3.569-3.568a2.419,2.419,0,0,0,.712-1.735V97.386a2.443,2.443,0,0,0-2.446-2.446h-8.465a2.447,2.447,0,0,0-2.445,2.446v2.7a2.42,2.42,0,0,0,.717,1.729l3.563,3.568a3.17,3.17,0,0,1,.94,2.255v4.579a3.224,3.224,0,0,1-.94,2.255l-3.563,3.568a2.423,2.423,0,0,0-.717,1.728v2.7a2.446,2.446,0,0,0,2.445,2.445Zm-8.465-30.719h8.465a3.193,3.193,0,0,1,3.195,3.195v2.692a3.163,3.163,0,0,1-.933,2.261l-3.57,3.569a2.452,2.452,0,0,0-.717,1.728v4.579a2.448,2.448,0,0,0,.717,1.728l3.57,3.568a3.192,3.192,0,0,1,.933,2.255v2.7a3.193,3.193,0,0,1-3.195,3.195h-8.465a3.2,3.2,0,0,1-3.195-3.195v-2.692a3.178,3.178,0,0,1,.94-2.262l3.564-3.568a2.423,2.423,0,0,0,.717-1.728v-4.579a2.4,2.4,0,0,0-.717-1.728l-3.564-3.569a3.17,3.17,0,0,1-.94-2.255v-2.7A3.2,3.2,0,0,1,221.077,94.191Z"/>
      <path class="cls-5" d="M233.7,154.282a2.323,2.323,0,0,0,2.323-2.323V67.893a2.324,2.324,0,0,0-2.323-2.324H149.637a2.326,2.326,0,0,0-2.325,2.324v84.066a2.324,2.324,0,0,0,2.325,2.323Zm-84.066-89.71H233.7a3.324,3.324,0,0,1,3.321,3.321v84.066a3.328,3.328,0,0,1-3.321,3.322H149.637a3.328,3.328,0,0,1-3.321-3.322V67.893A3.327,3.327,0,0,1,149.637,64.572Z"/>
      <path class="cls-4" d="M233.7,153.12a1.162,1.162,0,0,0,1.161-1.161V67.893a1.162,1.162,0,0,0-1.161-1.162H149.637a1.162,1.162,0,0,0-1.162,1.162v84.066a1.161,1.161,0,0,0,1.162,1.161ZM149.637,66.229H233.7a1.673,1.673,0,0,1,1.663,1.664v84.066a1.673,1.673,0,0,1-1.663,1.663H149.631a1.668,1.668,0,0,1-1.659-1.663V67.893a1.664,1.664,0,0,1,1.659-1.664Z"/>
      <path class="cls-4" d="M183.048,70.833h-.007a1.706,1.706,0,0,0-1.213-.507h-2.7a1.731,1.731,0,0,0-1.726,1.726v8.466a1.727,1.727,0,0,0,1.726,1.722h2.7a1.72,1.72,0,0,0,1.22-.5l.013-.018,2.565-2.56a1.725,1.725,0,0,0,.509-1.226v-3.3a1.725,1.725,0,0,0-.509-1.22c-.863-.869-2.508-2.508-2.578-2.572Zm-3.919-1h2.7a2.243,2.243,0,0,1,1.569.647l-.006.006c.076.064.2.186.406.4l2.179,2.172a2.23,2.23,0,0,1,.653,1.576v3.3a2.223,2.223,0,0,1-.653,1.575l-2.6,2.6a2.207,2.207,0,0,1-1.55.634h-2.7a2.224,2.224,0,0,1-2.222-2.222V72.052A2.224,2.224,0,0,1,179.129,69.83Zm25.08,12.41a1.724,1.724,0,0,0,1.727-1.722V72.052a1.727,1.727,0,0,0-1.727-1.726h-2.692a1.736,1.736,0,0,0-1.226.507l-2.579,2.578a1.7,1.7,0,0,0-.5,1.22v3.3a1.726,1.726,0,0,0,.5,1.226l2.572,2.565.007.013a1.719,1.719,0,0,0,1.219.5Zm-2.7-12.41h2.7a2.224,2.224,0,0,1,2.223,2.222v8.466a2.224,2.224,0,0,1-2.223,2.222h-2.692a2.277,2.277,0,0,1-1.563-.64l-2.591-2.592a2.209,2.209,0,0,1-.654-1.575v-3.3a2.227,2.227,0,0,1,.654-1.576l2.172-2.172c.216-.214.336-.336.413-.4l-.007-.006a2.251,2.251,0,0,1,1.576-.647Zm-7.552,73H189.38a3.917,3.917,0,0,1-2.769-1.15l-3.563-3.568a1.749,1.749,0,0,0-1.22-.5h-2.7a1.73,1.73,0,0,0-1.726,1.729V147.8a1.729,1.729,0,0,0,1.726,1.728h2.7a1.73,1.73,0,0,0,1.22-.509l3.563-3.562a3.968,3.968,0,0,1,2.769-1.15h4.578a3.966,3.966,0,0,1,2.769,1.15l3.564,3.562a1.729,1.729,0,0,0,1.219.509h2.7a1.73,1.73,0,0,0,1.727-1.728V139.34a1.73,1.73,0,0,0-1.727-1.729h-2.692a1.732,1.732,0,0,0-1.226.5l-3.564,3.568A3.915,3.915,0,0,1,193.958,142.832Zm-14.829-5.721h2.7a2.271,2.271,0,0,1,1.569.653l3.569,3.569a3.391,3.391,0,0,0,2.414,1h4.578a3.394,3.394,0,0,0,2.415-1l3.568-3.569a2.278,2.278,0,0,1,1.576-.653h2.692a2.23,2.23,0,0,1,2.223,2.229V147.8a2.225,2.225,0,0,1-2.223,2.222h-2.692a2.246,2.246,0,0,1-1.576-.647l-3.568-3.57a3.447,3.447,0,0,0-2.415-1H189.38a3.447,3.447,0,0,0-2.414,1l-3.569,3.57a2.276,2.276,0,0,1-1.569.654h-2.7a2.23,2.23,0,0,1-2.222-2.223V139.34A2.23,2.23,0,0,1,179.129,137.111Zm-16.874-12.919a1.729,1.729,0,0,0,1.728-1.727v-2.7a1.751,1.751,0,0,0-.5-1.219l-3.569-3.564a3.887,3.887,0,0,1-1.143-2.768v-4.579a3.887,3.887,0,0,1,1.143-2.768l3.569-3.564a1.69,1.69,0,0,0,.5-1.22v-2.7a1.724,1.724,0,0,0-1.721-1.727H153.8a1.728,1.728,0,0,0-1.727,1.727v2.7a1.724,1.724,0,0,0,.508,1.22l3.564,3.564a3.978,3.978,0,0,1,1.149,2.768v4.579a3.918,3.918,0,0,1-1.149,2.768l-3.564,3.564a1.727,1.727,0,0,0-.508,1.219v2.7a1.728,1.728,0,0,0,1.727,1.727ZM153.8,95.163h8.459a2.23,2.23,0,0,1,2.229,2.223v2.7a2.209,2.209,0,0,1-.653,1.569l-3.563,3.571a3.344,3.344,0,0,0-1,2.412v4.579a3.354,3.354,0,0,0,1,2.414l3.563,3.568a2.252,2.252,0,0,1,.653,1.576v2.692a2.228,2.228,0,0,1-2.222,2.223H153.8a2.224,2.224,0,0,1-2.222-2.223v-2.7a2.247,2.247,0,0,1,.647-1.569l3.57-3.568a3.382,3.382,0,0,0,1-2.414v-4.579a3.409,3.409,0,0,0-1-2.412l-3.57-3.571a2.182,2.182,0,0,1-.647-1.575V97.386A2.224,2.224,0,0,1,153.8,95.163Zm75.746,29.029a1.728,1.728,0,0,0,1.727-1.727v-2.7a1.731,1.731,0,0,0-.507-1.219l-3.562-3.564a3.91,3.91,0,0,1-1.15-2.768v-4.579a3.885,3.885,0,0,1,1.15-2.768l3.562-3.564a1.728,1.728,0,0,0,.507-1.22v-2.7a1.728,1.728,0,0,0-1.727-1.727h-8.465a1.733,1.733,0,0,0-1.728,1.727v2.7a1.725,1.725,0,0,0,.509,1.22l3.568,3.564a3.879,3.879,0,0,1,1.143,2.768v4.579a3.879,3.879,0,0,1-1.143,2.768l-3.568,3.564a1.754,1.754,0,0,0-.509,1.219v2.7a1.733,1.733,0,0,0,1.728,1.727Zm-8.465-29.029h8.465a2.225,2.225,0,0,1,2.223,2.223v2.7a2.193,2.193,0,0,1-.647,1.569l-3.57,3.571a3.393,3.393,0,0,0-1,2.412v4.579a3.4,3.4,0,0,0,1,2.414l3.57,3.568a2.246,2.246,0,0,1,.647,1.576v2.692a2.225,2.225,0,0,1-2.223,2.223h-8.465a2.225,2.225,0,0,1-2.223-2.223v-2.7a2.211,2.211,0,0,1,.654-1.569l3.564-3.568a3.387,3.387,0,0,0,1-2.414v-4.579a3.37,3.37,0,0,0-1-2.412l-3.569-3.571a2.213,2.213,0,0,1-.654-1.575V97.386A2.225,2.225,0,0,1,221.077,95.163Z"/>
    </g>
  </g>
  <g id="レイヤー_1" data-name="レイヤー 1">
    <text class="cls-6" transform="translate(407.993 177.145)">[mm]</text>
    <text class="cls-6" transform="translate(133.486 102.292) rotate(-90)">11.5</text>
    <text class="cls-7" transform="translate(326.969 179.327)">1.9</text>
  </g>
  <g id="レイヤー_2" data-name="レイヤー 2">
    <g>
      <line class="cls-8" x1="132.142" y1="109.926" x2="133.642" y2="109.926"/>
      <line class="cls-9" x1="135.626" y1="109.926" x2="137.609" y2="109.926"/>
      <line class="cls-10" x1="138.601" y1="109.926" x2="248.705" y2="109.926"/>
      <line class="cls-8" x1="249.697" y1="109.926" x2="251.197" y2="109.926"/>
    </g>
    <g>
      <line class="cls-8" x1="132.142" y1="77.88" x2="133.642" y2="77.877"/>
      <line class="cls-11" x1="135.661" y1="77.873" x2="137.68" y2="77.869"/>
      <line class="cls-12" x1="138.689" y1="77.867" x2="420.357" y2="77.334"/>
      <line class="cls-8" x1="421.366" y1="77.332" x2="422.866" y2="77.329"/>
    </g>
    <g>
      <line class="cls-13" x1="138.695" y1="79.304" x2="138.695" y2="109.077"/>
      <polygon class="cls-14" points="137.105 82.26 137.575 82.431 138.695 79.353 139.816 82.431 140.285 82.26 138.695 77.892 137.105 82.26"/>
      <polygon class="cls-14" points="137.105 106.122 137.575 105.951 138.695 109.028 139.816 105.951 140.285 106.122 138.695 110.49 137.105 106.122"/>
    </g>
    <g>
      <line class="cls-13" x1="349.484" y1="162.554" x2="338.8" y2="162.554"/>
      <polygon class="cls-14" points="341.756 160.964 341.927 161.434 338.849 162.554 341.927 163.675 341.756 164.144 337.387 162.554 341.756 160.964"/>
    </g>
    <g>
      <line class="cls-13" x1="318.694" y1="162.554" x2="329.378" y2="162.554"/>
      <polygon class="cls-14" points="326.423 164.145 326.252 163.675 329.329 162.554 326.252 161.434 326.423 160.965 330.791 162.554 326.423 164.145"/>
    </g>
    <line class="cls-13" x1="327.513" y1="162.554" x2="339.61" y2="162.554"/>
    <g>
      <line class="cls-8" x1="191.669" y1="169.45" x2="191.669" y2="167.95"/>
      <line class="cls-9" x1="191.669" y1="165.966" x2="191.669" y2="163.982"/>
      <line class="cls-10" x1="191.669" y1="162.99" x2="191.669" y2="52.887"/>
      <line class="cls-8" x1="191.669" y1="51.895" x2="191.669" y2="50.395"/>
    </g>
    <g>
      <line class="cls-8" x1="330.791" y1="169.45" x2="330.791" y2="167.95"/>
      <line class="cls-15" x1="330.791" y1="165.894" x2="330.791" y2="163.837"/>
      <line class="cls-16" x1="330.791" y1="162.809" x2="330.791" y2="73.367"/>
      <line class="cls-8" x1="330.791" y1="72.339" x2="330.791" y2="70.839"/>
    </g>
    <g>
      <line class="cls-8" x1="337.388" y1="169.45" x2="337.388" y2="167.95"/>
      <line class="cls-15" x1="337.388" y1="165.894" x2="337.388" y2="163.837"/>
      <line class="cls-16" x1="337.388" y1="162.809" x2="337.388" y2="73.367"/>
      <line class="cls-8" x1="337.388" y1="72.339" x2="337.388" y2="70.839"/>
    </g>
    <text class="cls-6" transform="translate(408.446 73.409)">Z</text>
    <text class="cls-6" transform="translate(343.422 11.106)">X</text>
    <g>
      <line class="cls-17" x1="337.384" y1="77.328" x2="399.639" y2="77.328"/>
      <polygon class="cls-14" points="397.889 83.311 408.25 77.328 397.889 71.345 397.889 83.311"/>
    </g>
    <g>
      <line class="cls-17" x1="337.387" y1="77.328" x2="337.387" y2="15.073"/>
      <polygon class="cls-14" points="343.371 16.823 337.388 6.462 331.404 16.823 343.371 16.823"/>
    </g>
    <circle class="cls-14" cx="337.384" cy="77.328" r="3.919"/>
    <g>
      <text class="cls-6" transform="translate(262.553 73.409)">Y</text>
      <text class="cls-6" transform="translate(197.674 11.106)">X</text>
      <g>
        <line class="cls-17" x1="191.636" y1="77.328" x2="253.892" y2="77.328"/>
        <polygon class="cls-14" points="252.141 83.311 262.502 77.328 252.141 71.345 252.141 83.311"/>
      </g>
      <g>
        <line class="cls-17" x1="191.64" y1="77.328" x2="191.64" y2="15.073"/>
        <polygon class="cls-14" points="197.623 16.823 191.64 6.462 185.657 16.823 197.623 16.823"/>
      </g>
      <circle class="cls-14" cx="191.636" cy="77.328" r="3.919"/>
    </g>
  </g>
</svg>
