<svg xmlns="http://www.w3.org/2000/svg" viewBox="-46.051 0 555 313.919"><defs><style>.cls-1{fill:#fff}.cls-2{fill:#9e9e9f}.cls-3{fill:#231815}.cls-4{fill:#b4b4b5}.cls-5{fill:#c8c9ca}.cls-8{fill:#bfd833}</style></defs><g id="レイヤー_2" data-name="レイヤー 2"><g id="レイヤー_2-2" data-name="レイヤー 2"><path class="cls-1" d="M355.457 303.656l3.082-.048 3.119-.148 3.109-.246 3.102-.344 3.09-.441 3.075-.544 3.054-.637 2.485-.595.06-.018.086-.029.11-.041.127-.051.146-.06.17-.07.191.04 2.81-.785 2.917-.907 2.886-1 2.853-1.09 2.818-1.177 2.782-1.264 2.871-1.416.528.516a1.157 1.157 0 102.043-1.085l-.133-.728 2.78-1.586 2.602-1.599 2.548-1.681 2.502-1.754 2.445-1.835 2.378-1.91 2.227-1.891.005-.004.024-.024.026-.023.025-.027.024-.027.026-.032.027-.038.025-.038.026-.043.027-.048.025-.054.021-.062.013-.066.008-.073v-.073l-.008-.073-.015-.074-.027-.073-.02-.04 1.002-.887.282-.251.27-.248.282-.242.278-.234.266-.23.269-.22.265-.213.248-.204.253-.196.238-.185.226-.176.22-.164.571-.43.305-.23.123-.096.107-.086.093-.073.07-.06.045-.045 1.717-1.816 2.084-2.325 2.004-2.39 1.932-2.453 1.85-2.514 1.77-2.571 1.69-2.625 1.603-2.678 1.518-2.727 1.43-2.774 1.342-2.818 1.251-2.861 1.161-2.896 1.068-2.933.976-2.965.88-2.996.782-3.022.689-3.043.59-3.066.494-3.083.395-3.096.152-1.461.003-.023.01-.185.001-.208-.006-.241-.015-.268-.02-.295-.027-.32-.034-.35-.038-.374-.085-.819-.046-.44-.046-.458-.045-.477-.044-.495-.04-.498-.039-.51-.034-.521-.028-.534-.024-.53-.019-.534-.01-.548-.008-.54v-.54l.007-.55.011-.54.02-.533.023-.54.028-.526.034-.517.039-.52.04-.5.044-.488.045-.473.046-.46.13-1.262.04-.374.033-.346.027-.324.02-.298.015-.264.006-.24-.002-.212-.01-.182-.002-.022-.152-1.463-.395-3.095-.494-3.083-.59-3.064-.689-3.046-.782-3.02-.88-2.995-.973-2.965-1.07-2.933-1.16-2.9-1.251-2.858-1.34-2.819-1.432-2.773-1.518-2.728-1.605-2.676-1.686-2.626-1.772-2.573-1.85-2.51-1.93-2.455-2.007-2.39-2.083-2.327-2.15-2.257-2.23-2.19-2.287-2.119-2.362-2.042-2.422-1.968-2.483-1.89-2.548-1.81-2.597-1.727-2.652-1.647-2.705-1.56-2.751-1.471-2.795-1.387-2.844-1.297-2.878-1.205-2.915-1.112-2.95-1.02-2.981-.925-3.01-.831-3.033-.736-3.054-.639-3.075-.541-3.089-.443-3.103-.345-3.11-.244-3.118-.148-3.085-.049H107.87l-3.081.049-3.118.148-3.11.243-3.105.346-3.089.442-3.073.542-3.056.638-3.032.736-3.01.83-2.981.926-2.95 1.02-2.914 1.113-2.881 1.204-2.84 1.296-2.796 1.385-2.754 1.474-2.701 1.56-2.653 1.644-2.6 1.729-2.543 1.81-2.485 1.89-2.423 1.968-2.36 2.043-2.294 2.117-2.223 2.189-2.155 2.26-2.08 2.325-2.007 2.39-1.931 2.453-1.849 2.513-1.772 2.571-1.687 2.627-1.604 2.677-1.52 2.728-1.427 2.773-1.347 2.819-1.25 2.858-1.162 2.898-1.063 2.935-.98 2.964-.876 2.994-.785 3.021-.69 3.046-.587 3.064-.49 3.082-.397 3.096-.3 3.107-.196 3.12-.103 3.111v3.123l.103 3.124.196 3.113.3 3.104.397 3.098.49 3.083.586 3.065.69 3.043.785 3.022.878 2.996.98 2.965 1.062 2.933 1.16 2.896 1.25 2.861 1.347 2.818 1.427 2.773 1.52 2.728 1.603 2.68 1.69 2.623 1.768 2.573 1.85 2.512 1.933 2.454 2.004 2.39 2.082 2.325.38.408.042.045.071.064.088.075.108.086.124.1.142.114.722.569.216.167.226.182.237.191.244.201.135.114-.14 1.632-.004.073.004.072.011.067.016.061.02.054.02.049.023.044.023.04.026.037.024.032.025.032.023.026.026.026.026.027.025.026 2.128 2.007 2.32 2.06 2.38 1.984 2.443 1.912 2.5 1.831 2.555 1.755 2.61 1.675 1.47.895-.158.72a1.158 1.158 0 002.005 1.158l.547-.498 1.504.827 2.755 1.423 2.798 1.335 2.839 1.249 2.872 1.16 2.913 1.07 1.55.524.006.004.01.01.013.013.012.015.014.02.013.02.011.025.007.03.004.03v.034l-.001.018a1.157 1.157 0 002.182.692l.008-.015.019-.027.021-.024.023-.019.024-.014.025-.012.022-.007.018-.005h.017l.012-.005h.008l1.73.51.037.01.035.008.035.01.034.007.04.006.041.003.044.004.048.001h.047l.053-.008.055-.009.061-.018.065-.023.064-.032.062-.038 1.345-.94.166.06.295.11.284.109.268.104.256.1.665.27.355.143.15.056.13.05.108.038.09.028.06.018.589.135 3.055.637 3.074.543 3.09.442 3.103.344 3.112.246 3.116.148 3.085.048h22.538l.068-.002.126-.006.15-.013.17-.02.191-.021.21-.027.738-.098.28-.036.298-.038.313-.034.329-.037.34-.034.351-.031.363-.029.37-.026.374-.02.375-.017.374-.012.37-.01h28.96l.374.01.375.012.377.017.372.02.37.026.36.029.35.031.345.036.328.035.314.034.295.04.278.034.732.095.21.03.192.02.172.021.15.013.127.006.069.002h17.304l.071-.002.127-.006.149-.013.168-.02.19-.021.21-.027.74-.098.282-.036.298-.038.312-.034.328-.037.342-.034.351-.031.362-.029.37-.026.374-.02.375-.017.376-.012.37-.01h75.237l.372.01.378.012.374.017.374.02.368.026.358.029.353.031.345.036.33.035.31.034.298.04.277.034.73.095.21.03.194.02.172.021.15.013.128.006.067.002h17.307l.068-.002.129-.006.146-.013.172-.02.19-.021.208-.027.74-.098.281-.036.298-.038.314-.034.325-.037.342-.034.352-.031.363-.029.37-.026.375-.02.374-.017.375-.012.37-.01h28.961l.37.01.377.012.375.017.374.02.37.026.36.029.353.031.342.036.33.035.313.034.293.04.277.034.734.095.209.03.192.02.171.021.153.013.128.006.068.002z"/><path class="cls-2" d="M79.08 300.86a.311.311 0 01-.092-.015l-2.526-.8a.306.306 0 01.185-.583l2.526.8a.306.306 0 01-.093.597zm-19.702-8.49a.3.3 0 01-.306-.299l.055-.002.062-.206-.195.236-1.848-1.067-.013-.327-.043.155.05.092a.326.326 0 01-.084.032l-.005.016-.003-.016a.305.305 0 01-.209-.565l.01-.005a.3.3 0 01.091-.032.508.508 0 01.116-.007c.01.002.088.016.098.019l.074.02.128.043 2.029 1.171.124.106c.01.01.08.086.089.098a.62.62 0 01.054.088.417.417 0 01.032.137.312.312 0 01-.306.313zm155.96-135.288a.3.3 0 01-.105-.019l-.755-.299-.749-.405-.701-.494-.634-.573-.545-.625-.445-.655-.338-.667-.304-.84-.217-.947-.117-1.023-.017-.53v-10.69a.306.306 0 01.302-.306l3.21-.036a.286.286 0 01.218.088.306.306 0 01.091.218v3.976h3.245a.306.306 0 01.306.306v3.179a.306.306 0 01-.306.306h-3.245l.102 3.874.237.759.352.57.547.575.508.39.676.4.424.21a.306.306 0 01.127.432l-1.604 2.677a.306.306 0 01-.263.15zm-4.315-17.464l.016 10.883.109.953.201.878.28.771.302.6.403.59.496.57.58.525.643.452.684.37.468.192 1.305-2.176-.532-.29-.645-.433-.503-.44-.395-.447-.416-.674-.235-.678-.152-1.118-.012-1.266v-2.14a.306.306 0 01.306-.306h3.245v-2.567h-3.245a.306.306 0 01-.306-.306v-3.973zm25.322 2.059h-.014l-.562-.07-.571-.218-.485-.338-.381-.447-.268-.538-.125-.573-.008-.185.071-.596.219-.577.345-.494.457-.39.542-.268.583-.127.182-.01.582.072.568.223.489.341.383.454.27.553.13.6.008.196-.068.566-.22.562-.339.483-.447.378-.547.267-.59.126-.19.01zm-.015-4.219l-.568.104-.536.292-.384.433-.202.423-.098.598.101.56.288.522.426.383.412.196.575.096.453-.058.557-.247.426-.392.278-.526.091-.558-.059-.443-.251-.572-.4-.434-.533-.28zm1.606 19.196h-3.18a.306.306 0 01-.307-.306V143.56a.306.306 0 01.307-.306h3.18a.306.306 0 01.306.306v12.787a.306.306 0 01-.306.306zm-2.874-.613h2.568v-12.174h-2.568zm-9.408.941h-.01l-.873-.055-.878-.155-.834-.257-.78-.348-.737-.44-.674-.525-.605-.6-.527-.675-.443-.733-.348-.774-.255-.83-.16-.868-.053-.884.05-.885.16-.872.252-.827.347-.775.44-.732.524-.673.604-.604.672-.526.738-.445.779-.35.83-.258.88-.16.892-.053.892.052.878.157.832.256.782.349.736.441.674.524.605.603.528.673.442.73.349.775.256.828.158.869.056.885-.053.886-.157.87-.253.827-.348.776-.441.733-.524.674-.604.603-.672.526-.738.444-.78.35-.83.258-.878.158-.89.057zm-.01-13.692l-.82.05-.804.145-.762.237-.71.32-.676.406-.613.48-.55.551-.48.615-.4.669-.317.708-.23.754-.147.8-.046.813.048.813.147.795.233.757.32.708.402.668.482.617.552.547.616.48.673.401.713.319.762.234.806.143.811.05.83-.052.805-.145.76-.236.712-.32.672-.405.616-.482.55-.55.478-.615.403-.67.318-.708.231-.756.143-.798.05-.813-.052-.812-.145-.798-.234-.755-.32-.71-.404-.665-.48-.615-.552-.548-.616-.48-.673-.403-.714-.318-.763-.235-.803-.143zm.02 10.674l-.568-.04-.566-.122-.537-.201-.505-.276-.467-.35-.415-.417-.354-.471-.283-.52-.205-.551-.128-.583-.043-.593.04-.592.125-.585.202-.554.28-.518.352-.476.636-.602.49-.318.518-.24.554-.165.85-.096a.15.15 0 01.028 0l.828.091.555.162.52.239.486.311.442.384.389.447.318.497.245.537.168.568.085.593.012.295-.042.595-.124.583-.202.551-.28.52-.353.476-.412.418-.469.354-.5.278-.537.203-.564.126zm-.01-7.657l-.735.08-.69.234-.63.378-.543.515-.427.622-.284.698-.132.754-.008.252.082.758.24.717.384.646.514.554.607.424.67.277.724.128.239.008.723-.081.688-.234.63-.38.546-.514.426-.621.285-.699.133-.753.008-.252-.083-.76-.24-.718-.384-.647-.512-.546-.609-.426-.672-.278-.721-.127zm21.383 10.675h-.01l-.874-.055-.877-.155-.834-.257-.781-.348-.735-.441-.674-.525-.604-.6-.53-.674-.442-.732-.35-.775-.255-.827-.16-.869-.054-.885.052-.886.158-.87.252-.827.35-.776.44-.733.526-.674.603-.603.674-.528.734-.443.78-.35.83-.258.88-.16.892-.053.891.052.88.157.832.256.781.349.738.441.673.524.604.603.528.673.443.73.349.777.258.825.157.87.053.886-.05.884-.156.87-.256.828-.346.776-.443.733-.525.673-.602.603-.672.527-.736.444-.781.35-.833.259-.877.157-.89.057zm-.01-13.692l-.82.05-.805.145-.762.237-.711.32-.67.405-.615.48-.55.552-.482.615-.402.67-.318.709-.23.754-.145.8-.048.812.05.811.146.798.233.757.32.706.405.668.483.616.55.548.617.479.671.403.713.318.763.234.805.143.812.05.829-.052.806-.145.76-.236.714-.32.671-.406.615-.482.55-.55.479-.614.404-.67.315-.708.235-.758.142-.796.046-.812-.048-.813-.145-.798-.236-.753-.318-.71-.405-.668-.482-.614-.55-.549-.617-.479-.673-.403-.713-.318-.764-.235-.804-.144zm.02 10.674l-.567-.04-.567-.122-.537-.201-.505-.276-.466-.349-.417-.417-.355-.474-.282-.515-.206-.554-.126-.585-.045-.59.043-.595.122-.583.203-.554.28-.519.353-.476.415-.417.464-.354.505-.278.532-.202.568-.124.565-.045a.15.15 0 01.027 0l.827.091.556.163.519.237.487.312.441.381.389.45.32.496.244.537.168.57.085.594.01.294-.039.592-.124.585-.203.553-.28.519-.35.472-.416.422-.468.353-.503.278-.533.203-.566.126zm-.01-7.657l-.735.08-.688.234-.63.378-.547.516-.426.621-.285.698-.132.756-.009.251.084.759.24.717.383.646.515.553.608.423.67.276.723.13.24.007.722-.081.687-.233.635-.38.545-.515.426-.622.283-.697.132-.751.007-.254-.08-.76-.24-.718-.386-.649-.33-.38-.58-.467-.652-.325-.71-.179zM380.271 300.69a.306.306 0 01-.12-.589l4.638-1.768 2.887-.961 2.851-1.052 2.818-1.14 2.782-1.223 2.74-1.313 2.7-1.395 2.655-1.48 2.608-1.562 2.557-1.638 2.506-1.718 2.456-1.796 2.394-1.87 2.33-1.945 2.279-2.016a.306.306 0 01.405.459l-2.286 2.021-2.343 1.958-2.41 1.882-2.471 1.807-2.522 1.728-2.573 1.649-2.624 1.57-2.671 1.49-2.718 1.403-2.757 1.321-2.8 1.231-2.834 1.147-2.869 1.059-6.646 2.36-.842.356a.317.317 0 01-.12.024zM107.87 268.097a62.78 62.78 0 1162.782-62.784 62.853 62.853 0 01-62.782 62.784zm0-124.95a62.168 62.168 0 1062.17 62.166 62.237 62.237 0 00-62.17-62.165z"/><path class="cls-2" d="M142.58 244.946h-33.437a.204.204 0 010-.408h33.437a4.52 4.52 0 004.514-4.516v-69.415a4.518 4.518 0 00-4.514-4.511H73.162a4.517 4.517 0 00-4.512 4.511v69.415a4.52 4.52 0 004.512 4.516h33.436a.204.204 0 010 .408H73.162a4.928 4.928 0 01-4.92-4.924v-69.415a4.925 4.925 0 014.92-4.92h69.418a4.926 4.926 0 014.922 4.92v69.415a4.929 4.929 0 01-4.922 4.924z"/><path class="cls-3" d="M159.587 147.468a1.967 1.967 0 10-1.967 1.969 1.968 1.968 0 001.967-1.97z"/><path class="cls-2" d="M157.62 149.743a2.274 2.274 0 112.273-2.275 2.277 2.277 0 01-2.273 2.275zm0-3.936a1.662 1.662 0 101.66 1.66 1.663 1.663 0 00-1.66-1.66z"/><path class="cls-3" d="M159.587 141.222a1.967 1.967 0 10-1.967 1.965 1.967 1.967 0 001.967-1.965z"/><path class="cls-2" d="M157.62 143.493a2.272 2.272 0 112.273-2.271 2.275 2.275 0 01-2.273 2.27zm0-3.933a1.66 1.66 0 101.66 1.662 1.663 1.663 0 00-1.66-1.662z"/><path class="cls-3" d="M164.996 144.345a1.967 1.967 0 10-1.964 1.967 1.964 1.964 0 001.964-1.967z"/><path class="cls-2" d="M163.032 146.618a2.272 2.272 0 112.27-2.273 2.276 2.276 0 01-2.27 2.273zm0-3.933a1.66 1.66 0 101.658 1.66 1.663 1.663 0 00-1.658-1.66z"/><path class="cls-3" d="M164.996 150.592a1.967 1.967 0 10-1.964 1.966 1.965 1.965 0 001.964-1.966z"/><path class="cls-2" d="M163.032 152.864a2.272 2.272 0 112.27-2.272 2.276 2.276 0 01-2.27 2.272zm0-3.932a1.66 1.66 0 101.658 1.66 1.663 1.663 0 00-1.658-1.66z"/><path class="cls-3" d="M159.587 153.716a1.967 1.967 0 10-1.967 1.967 1.967 1.967 0 001.967-1.967z"/><path class="cls-2" d="M157.62 155.99a2.273 2.273 0 112.273-2.274 2.276 2.276 0 01-2.273 2.273zm0-3.935a1.66 1.66 0 101.66 1.661 1.663 1.663 0 00-1.66-1.66z"/><path class="cls-3" d="M154.176 150.592a1.968 1.968 0 10-1.969 1.966 1.967 1.967 0 001.969-1.966z"/><path class="cls-2" d="M152.207 152.864a2.272 2.272 0 112.275-2.272 2.275 2.275 0 01-2.275 2.272zm0-3.932a1.66 1.66 0 101.663 1.66 1.663 1.663 0 00-1.663-1.66z"/><path class="cls-3" d="M154.176 144.345a1.968 1.968 0 10-1.969 1.967 1.966 1.966 0 001.969-1.967z"/><path class="cls-2" d="M152.207 146.618a2.272 2.272 0 112.275-2.273 2.276 2.276 0 01-2.275 2.273zm0-3.933a1.66 1.66 0 101.663 1.66 1.662 1.662 0 00-1.663-1.66zm95.653 127.023h-32.397a8.859 8.859 0 010-17.718h32.397a8.859 8.859 0 110 17.718zm-32.397-17.31a8.45 8.45 0 000 16.901h32.397a8.45 8.45 0 100-16.901zm-132.788 47.88a.3.3 0 01-.104-.018l-2.394-.79-2.961-.926-2.935-1.021-2.901-1.11-2.867-1.207-2.826-1.292-2.785-1.383-2.74-1.469-2.69-1.552-2.643-1.638-2.588-1.72-2.533-1.8-2.475-1.88-2.414-1.958-2.353-2.032-4.17-3.782a.306.306 0 01.394-.47l1.907 1.7 2.276 2.095 2.339 2.02 2.398 1.946 2.46 1.868 2.517 1.788 2.573 1.71 2.626 1.628 2.673 1.543 2.724 1.46 2.768 1.374 2.807 1.284 2.85 1.199 2.883 1.102 2.917 1.016 5.372 1.721a.306.306 0 01-.104.594zm199.433-55.436H181.221a5.518 5.518 0 01-5.513-5.511V171.3a5.518 5.518 0 015.513-5.51h100.887a5.516 5.516 0 015.51 5.51v68.03a5.517 5.517 0 01-5.51 5.512zm-100.887-78.44a4.905 4.905 0 00-4.9 4.898v68.03a4.906 4.906 0 004.9 4.9h100.887a4.904 4.904 0 004.898-4.9V171.3a4.904 4.904 0 00-4.898-4.898z"/><path class="cls-3" d="M307.675 147.468a1.967 1.967 0 10-1.966 1.969 1.967 1.967 0 001.966-1.97z"/><path class="cls-2" d="M305.71 149.743a2.274 2.274 0 112.27-2.275 2.277 2.277 0 01-2.27 2.275zm0-3.936a1.662 1.662 0 101.659 1.66 1.663 1.663 0 00-1.66-1.66z"/><path class="cls-3" d="M307.675 141.222a1.967 1.967 0 10-1.966 1.965 1.967 1.967 0 001.966-1.965z"/><path class="cls-2" d="M305.71 143.493a2.272 2.272 0 112.27-2.271 2.275 2.275 0 01-2.27 2.27zm0-3.933a1.66 1.66 0 101.659 1.662 1.664 1.664 0 00-1.66-1.662z"/><path class="cls-3" d="M302.266 144.345a1.968 1.968 0 10-1.968 1.967 1.967 1.967 0 001.968-1.967z"/><path class="cls-2" d="M300.298 146.618a2.272 2.272 0 112.274-2.273 2.276 2.276 0 01-2.274 2.273zm0-3.933a1.66 1.66 0 101.662 1.66 1.662 1.662 0 00-1.662-1.66z"/><path class="cls-3" d="M302.266 150.592a1.968 1.968 0 10-1.968 1.966 1.968 1.968 0 001.968-1.966z"/><path class="cls-2" d="M300.298 152.864a2.272 2.272 0 112.274-2.272 2.275 2.275 0 01-2.274 2.272zm0-3.932a1.66 1.66 0 101.662 1.66 1.663 1.663 0 00-1.662-1.66z"/><path class="cls-3" d="M307.675 153.716a1.967 1.967 0 10-1.966 1.967 1.966 1.966 0 001.966-1.967z"/><path class="cls-2" d="M305.71 155.99a2.273 2.273 0 112.27-2.274 2.276 2.276 0 01-2.27 2.273zm0-3.935a1.66 1.66 0 101.659 1.661 1.663 1.663 0 00-1.66-1.66z"/><path class="cls-3" d="M313.086 150.592a1.966 1.966 0 10-1.968 1.966 1.968 1.968 0 001.968-1.966z"/><path class="cls-2" d="M311.118 152.864a2.272 2.272 0 112.274-2.272 2.273 2.273 0 01-2.274 2.272zm0-3.932a1.66 1.66 0 101.662 1.66 1.66 1.66 0 00-1.662-1.66z"/><path class="cls-3" d="M313.086 144.345a1.966 1.966 0 10-1.968 1.967 1.967 1.967 0 001.968-1.967z"/><path class="cls-2" d="M311.118 146.618a2.272 2.272 0 112.274-2.273 2.274 2.274 0 01-2.274 2.273zm0-3.933a1.66 1.66 0 101.662 1.66 1.66 1.66 0 00-1.662-1.66zM142.58 243.338h-13.008c-1.943 0-1.97-.032-2.077-.15l-.004-.003H88.003c-.106.153-.438.153-2.814.153H73.162a3.319 3.319 0 01-3.314-3.316v-12.025c0-2.336 0-2.702.152-2.812v-39.737c-.152-.105-.152-.432-.152-2.812v-12.029a3.318 3.318 0 013.314-3.313H85.19c2.36 0 2.702 0 2.81.15h39.748c.12-.15.458-.15 2.804-.15h12.029a3.317 3.317 0 013.314 3.313v12.03c0 2.36 0 2.7-.152 2.81l.017 31.643c.103.087.135.115.135 2.06v20.872a3.319 3.319 0 01-3.314 3.316zm-14.713-.643c.207.015.798.03 1.705.03h13.008a2.706 2.706 0 002.702-2.703V219.15c0-.91-.016-1.502-.03-1.706l-.035-.036a.304.304 0 01-.087-.212v-31.948a.307.307 0 01.122-.245c.015-.312.03-1.121.03-2.367v-12.029a2.705 2.705 0 00-2.702-2.7h-12.03a69.28 69.28 0 00-2.367.027.306.306 0 01-.244.122H87.8a.306.306 0 01-.243-.122 69.312 69.312 0 00-2.369-.028H73.162a2.705 2.705 0 00-2.702 2.701v12.03c0 1.245.016 2.053.03 2.366a.306.306 0 01.122.245v40.137a.305.305 0 01-.122.244c-.015.314-.03 1.123-.03 2.368v12.025a2.706 2.706 0 002.702 2.703H85.19a65.75 65.75 0 002.366-.029.307.307 0 01.246-.124h39.816a.305.305 0 01.216.09z"/><path class="cls-4" d="M109.338 242.878l-.164.496-.022.064-.005.364-.004.94v6.85a1.272 1.272 0 11-2.545 0v-6.85l-.004-.94c-.002-.217-.003-.356-.006-.364l-.02-.064-.165-.496z"/><path class="cls-2" d="M107.87 253.172a1.58 1.58 0 01-1.578-1.58l-.005-7.903a11.271 11.271 0 00-.003-.224l-.172-.49a.306.306 0 01.29-.403h2.936a.306.306 0 01.29.403l-.164.496a2.494 2.494 0 00-.01.334l-.005 7.788a1.58 1.58 0 01-1.579 1.579zm-1.043-9.987l.031.093a.957.957 0 01.041.405l.005 1.057v6.853a.966.966 0 101.933 0l.004-7.792c.002-.252.01-.414.011-.423a3.04 3.04 0 01.032-.102l.03-.091zm-36.521-57.631a.306.306 0 01-.216-.522l17.495-17.499a.306.306 0 11.433.433l-17.495 17.499a.305.305 0 01-.217.09zm17.495 57.631a.304.304 0 01-.216-.09L70.09 225.601a.306.306 0 01.433-.433l17.495 17.494a.306.306 0 01-.217.523z"/><path class="cls-5" d="M131.703 223.595h9.024v14.809h-9.024z"/><path class="cls-2" d="M140.727 238.71h-9.024a.306.306 0 01-.306-.305v-14.81a.306.306 0 01.306-.306h9.024a.306.306 0 01.306.306v14.81a.306.306 0 01-.306.306zm-8.718-.611h8.412V223.9h-8.412zm13.427-52.545a.305.305 0 01-.216-.09l-17.497-17.498a.306.306 0 11.433-.433l17.497 17.499a.306.306 0 01-.217.522z"/><path class="cls-3" d="M133.206 226.488h6.018v3.239h-6.018z"/><path class="cls-2" d="M139.225 230.033h-6.019a.306.306 0 01-.306-.306v-3.24a.306.306 0 01.306-.305h6.019a.306.306 0 01.306.306v3.239a.306.306 0 01-.306.306zm-5.713-.612h5.406v-2.627h-5.406z"/><path class="cls-3" d="M133.206 232.273h6.018v3.238h-6.018z"/><path class="cls-2" d="M139.225 235.817h-6.019a.306.306 0 01-.306-.306v-3.238a.306.306 0 01.306-.306h6.019a.306.306 0 01.306.306v3.238a.306.306 0 01-.306.306zm-5.713-.612h5.406v-2.626h-5.406z"/><path class="cls-4" d="M112.614 235.164a4.743 4.743 0 10-4.744 4.745 4.742 4.742 0 004.744-4.745z"/><path class="cls-2" d="M107.87 240.215a5.049 5.049 0 115.05-5.051 5.056 5.056 0 01-5.05 5.05zm0-9.486a4.437 4.437 0 104.437 4.435 4.44 4.44 0 00-4.437-4.435zm19.747 12.456a.306.306 0 01-.306-.307v-22.212a3.781 3.781 0 013.778-3.777h14.347a.306.306 0 110 .613H131.09a3.169 3.169 0 00-3.166 3.164v22.212a.306.306 0 01-.306.307zm227.839 24.912a62.78 62.78 0 1162.782-62.784 62.853 62.853 0 01-62.782 62.784zm0-124.95a62.168 62.168 0 1062.17 62.166 62.236 62.236 0 00-62.17-62.165z"/><path class="cls-2" d="M390.166 244.946H356.73a.204.204 0 010-.408h33.437a4.52 4.52 0 004.515-4.516v-69.415a4.518 4.518 0 00-4.515-4.511h-69.418a4.517 4.517 0 00-4.513 4.511v69.415a4.52 4.52 0 004.513 4.516h33.436a.204.204 0 010 .408h-33.436a4.928 4.928 0 01-4.92-4.924v-69.415a4.925 4.925 0 014.92-4.92h69.418a4.926 4.926 0 014.923 4.92v69.415a4.929 4.929 0 01-4.923 4.924z"/><path class="cls-2" d="M390.166 243.338h-13.008c-1.945 0-1.973-.032-2.079-.152l-.001-.001h-39.492c-.11.153-.444.153-2.811.153h-12.027a3.319 3.319 0 01-3.315-3.316v-12.025c0-2.336 0-2.702.153-2.812v-39.737c-.153-.105-.153-.432-.153-2.812v-12.029a3.317 3.317 0 013.315-3.313h12.026c2.38 0 2.703 0 2.811.15h39.75c.121-.15.458-.15 2.802-.15h12.03a3.317 3.317 0 013.313 3.313v12.03c0 2.356 0 2.7-.152 2.81l.017 31.643c.102.085.135.114.135 2.06v20.872a3.319 3.319 0 01-3.314 3.316zm-14.713-.643c.207.015.798.03 1.705.03h13.008a2.706 2.706 0 002.702-2.703V219.15c0-.911-.017-1.503-.03-1.706l-.036-.036a.304.304 0 01-.086-.212v-31.948a.306.306 0 01.123-.245c.014-.31.03-1.107.03-2.367v-12.029a2.705 2.705 0 00-2.703-2.7h-12.03a72.18 72.18 0 00-2.366.027.306.306 0 01-.244.122h-40.139a.306.306 0 01-.244-.122 69.353 69.353 0 00-2.369-.028h-12.026a2.705 2.705 0 00-2.702 2.701v12.03c0 1.245.016 2.053.03 2.366a.306.306 0 01.122.245v40.137a.305.305 0 01-.122.244c-.015.314-.03 1.123-.03 2.368v12.025a2.706 2.706 0 002.702 2.703h12.026c1.244 0 2.052-.015 2.367-.029a.306.306 0 01.246-.124h39.817a.305.305 0 01.216.09z"/><path class="cls-4" d="M356.924 242.878l-.164.496-.022.064c-.001.008-.004.147-.005.364l-.004.94v6.85a1.272 1.272 0 11-2.545 0v-6.85l-.004-.94c-.003-.217-.003-.356-.006-.364l-.02-.064-.165-.496z"/><path class="cls-2" d="M355.456 253.172a1.58 1.58 0 01-1.578-1.58l-.008-8.124-.007.003-.164-.496a.306.306 0 01.29-.403h2.935a.306.306 0 01.29.403l-.164.496a2.46 2.46 0 00-.011.334l-.004 7.788a1.58 1.58 0 01-1.58 1.579zm-1.043-9.987l.03.093a.74.74 0 01.041.332l.006 1.131v6.852a.966.966 0 101.933 0l.004-7.792c.002-.252.009-.414.011-.423.002-.013.028-.09.032-.102l.03-.091zm-36.521-57.631a.306.306 0 01-.216-.522l17.495-17.499a.306.306 0 11.433.433l-17.495 17.499a.305.305 0 01-.217.09zm17.495 57.631a.304.304 0 01-.216-.09l-17.495-17.494a.306.306 0 01.433-.433l17.495 17.494a.306.306 0 01-.217.523z"/><path class="cls-5" d="M379.289 223.595h9.024v14.809h-9.024z"/><path class="cls-2" d="M388.313 238.71h-9.024a.306.306 0 01-.306-.305v-14.81a.306.306 0 01.306-.306h9.024a.306.306 0 01.306.306v14.81a.306.306 0 01-.306.306zm-8.718-.611h8.412V223.9h-8.412zm13.427-52.545a.305.305 0 01-.216-.09l-17.497-17.498a.306.306 0 11.433-.433l17.496 17.499a.306.306 0 01-.216.522z"/><path class="cls-3" d="M380.793 226.488h6.018v3.239h-6.018z"/><path class="cls-2" d="M386.81 230.033h-6.017a.306.306 0 01-.306-.306v-3.24a.306.306 0 01.306-.305h6.017a.306.306 0 01.307.306v3.239a.306.306 0 01-.307.306zm-5.711-.612h5.405v-2.627H381.1z"/><path class="cls-3" d="M380.793 232.273h6.018v3.238h-6.018z"/><path class="cls-2" d="M386.81 235.817h-6.017a.306.306 0 01-.306-.306v-3.238a.306.306 0 01.306-.306h6.017a.306.306 0 01.307.306v3.238a.306.306 0 01-.307.306zm-5.711-.612h5.405v-2.626H381.1z"/><path class="cls-4" d="M360.2 235.164a4.743 4.743 0 10-4.744 4.745 4.742 4.742 0 004.744-4.745z"/><path class="cls-2" d="M355.456 240.215a5.049 5.049 0 115.05-5.051 5.056 5.056 0 01-5.05 5.05zm0-9.486a4.437 4.437 0 104.438 4.435 4.44 4.44 0 00-4.438-4.435zm19.748 12.456a.306.306 0 01-.306-.307v-22.212a3.78 3.78 0 013.777-3.777h14.347a.306.306 0 110 .613h-14.347a3.168 3.168 0 00-3.165 3.164v22.212a.306.306 0 01-.306.307z"/><path class="cls-3" d="M355.457 304.064h-22.536l-.089-.002-.89-.094-4.82-.414h-.36l-30.064.057-2.613.263-1.618.188-.088.002h-17.307l-.088-.002-.89-.094-4.82-.414h-.36l-75.227.009-3.729.31-1.614.189-.083.002h-17.313l-.09-.002-.887-.094-4.822-.414h-.36l-30.061.057-2.616.263-1.616.188-.088.002H107.87l-3.091-.048-3.129-.149-3.125-.246-3.116-.345-3.103-.443-3.087-.546-3.664-.776a1.763 1.763 0 01-.087-.025l-.867-.327-1.723-.676-1.17.819a3.182 3.182 0 01-.085.052 3.249 3.249 0 01-.138.067 1.923 1.923 0 01-.198.06c-.02.003-.147.02-.166.021l-.139-.001-.107-.01a4.597 4.597 0 01-.107-.02c-.005 0-.08-.02-.083-.021l-1.571-.462a1.566 1.566 0 01-2.89-.918l-1.35-.455-2.922-1.072-2.885-1.165-2.85-1.254-2.81-1.34-4.024-2.12-.288.262a1.605 1.605 0 01-2.102.514 1.57 1.57 0 01-.607-2.08l.083-.378-1.222-.744-2.617-1.68-2.567-1.761-2.51-1.84-2.453-1.919-2.39-1.992-2.329-2.068-2.137-2.016-.07-.071-.075-.083a2.598 2.598 0 01-.061-.08 2.757 2.757 0 01-.076-.124 2.94 2.94 0 01-.065-.141 2.582 2.582 0 01-.028-.085c-.003-.013-.023-.088-.025-.101l-.015-.107a2.382 2.382 0 01-.005-.117l.005-.088.123-1.42-2.162-1.737-.069-.072-.379-.406-2.087-2.33-2.013-2.4-1.94-2.464-1.858-2.523-1.777-2.584-1.696-2.634-1.61-2.69-1.526-2.74-1.434-2.785-1.352-2.828-1.256-2.873-1.165-2.909-1.067-2.945-.983-2.976-.883-3.01-.788-3.034-.693-3.055-.589-3.079-.492-3.096-.399-3.109-.301-3.117-.198-3.127-.103-3.135v-3.137l.103-3.125.197-3.131.301-3.122.398-3.108.492-3.094.588-3.076.694-3.06.788-3.034.88-3.006.984-2.977 1.067-2.946 1.166-2.91 1.255-2.87 1.353-2.832 1.432-2.784 1.527-2.74 1.61-2.688 1.694-2.637 1.779-2.583 1.856-2.523 1.94-2.464 2.014-2.4 2.089-2.335 2.163-2.269 2.233-2.198 2.304-2.126 2.369-2.052 2.433-1.975 2.495-1.898 2.554-1.818 2.61-1.737 2.664-1.65 2.712-1.568 2.765-1.48 2.808-1.39 2.851-1.302 2.894-1.21 2.926-1.118 2.961-1.024 2.993-.93 3.024-.833 3.044-.74 3.068-.64 3.086-.545 3.103-.444 3.116-.348 3.124-.244 3.13-.15 3.095-.048h247.593l3.091.049 3.132.148 3.122.245 3.116.347 3.101.444 3.088.543 3.068.642 3.046.738 3.021.834 2.993.929 2.963 1.024 2.928 1.117 2.89 1.21 2.855 1.301 2.807 1.393 2.763 1.476 2.716 1.568 2.663 1.653 2.608 1.734 2.558 1.817 2.494 1.898 2.432 1.976 2.372 2.05 2.297 2.129 2.238 2.197 2.16 2.267 2.092 2.336 2.015 2.4 1.938 2.465 1.858 2.52 1.78 2.585 1.693 2.636 1.612 2.687 1.524 2.739 1.438 2.785 1.346 2.83 1.258 2.87 1.164 2.913 1.075 2.944.976 2.977.884 3.008.786 3.033.692 3.058.593 3.076.496 3.096.566 5.035-.142 1.892-.448 5.792-.018 1.616.381 6.042.227 2.697-.011.426-.158 1.506-.395 3.105-.496 3.096-.592 3.078-.692 3.056-.785 3.034-.884 3.008-.98 2.978-1.072 2.945-1.165 2.908-1.256 2.874-1.348 2.83-1.435 2.785-1.524 2.738-1.61 2.69-1.697 2.636-1.776 2.58-1.858 2.526-1.94 2.464-2.012 2.4-2.093 2.335-1.724 1.823c-.01.01-.065.066-.076.074l-.718.562-3.642 2.972-.808.714.002.011c.001.015.01.103.01.117 0 .016 0 .102-.003.118a5.15 5.15 0 01-.012.104 2.053 2.053 0 01-.027.121l-.038.105c-.004.007-.033.069-.038.076-.002.006-.058.102-.061.108a1.62 1.62 0 01-.12.166l-.06.063c-.01.012-.072.07-.085.08l-2.229 1.894-2.386 1.916-2.455 1.843-2.513 1.762-2.558 1.687-2.613 1.606-2.54 1.45.07.385a1.565 1.565 0 01-.677 2.057 1.603 1.603 0 01-2.084-.59l-.28-.272-2.611 1.288-2.795 1.27-2.828 1.181-2.865 1.095-2.898 1.005-2.93.91-2.82.79a.417.417 0 01-.197.006l-.067-.015-.55.213c-.01.004-.08.026-.092.028l-2.485.595-3.066.64-3.088.545-3.102.444-3.115.346-3.122.246-3.132.15-3.094.048zM82.82 299.618a.405.405 0 01.14.025l2.747 1.062.62.145 3.048.636 3.06.54 3.078.44 3.09.343 3.1.244 3.103.148 3.072.047 23.394-.086 4.918-.424.37-.001 30.12.06 2.667.267 1.553.183h17.353l.864-.085 4.922-.424.37-.001 75.258.01 3.806.317 1.553.183 17.354.001.86-.086 4.923-.424.37-.001h28.236l4.549.327 1.556.183 22.581.001 3.078-.048 3.106-.147 3.097-.245 3.09-.344 3.076-.44 3.062-.54 3.042-.635 3.11-.843a.421.421 0 01.242-.022l.094.02 2.712-.758 2.906-.904 2.873-.995 2.841-1.086 2.806-1.173 2.772-1.258 2.859-1.41a.405.405 0 01.466.073l.527.516a.406.406 0 01.075.1.763.763 0 001.014.31.748.748 0 00.309-1.011.401.401 0 01-.041-.119l-.134-.728a.408.408 0 01.2-.428l2.78-1.586 2.59-1.591 2.538-1.674 2.492-1.748 2.434-1.827 2.367-1.901 2.22-1.885.343.233-.282-.297.41.119-.357-.196.41.094-.367-.192.408-.082-.414-.03a.468.468 0 01.073-.536l4.127-3.471 1.248-.959 1.73-1.83 2.076-2.318 1.995-2.379 1.925-2.444 1.841-2.503 1.762-2.56 1.683-2.615 1.597-2.667 1.511-2.716 1.424-2.763 1.337-2.805 1.246-2.85 1.155-2.884 1.064-2.92.97-2.954.877-2.983.78-3.01.685-3.03.587-3.053.492-3.07.556-4.913-.138-1.803-.451-5.843-.02-1.642.34-5.688.269-3.078-.01-.362-.154-1.464-.394-3.086-.492-3.07-.588-3.05-.686-3.034-.78-3.008-.876-2.982-.969-2.954-1.066-2.92-1.154-2.887-1.247-2.846-1.335-2.807-1.426-2.762-1.512-2.717-1.598-2.665-1.68-2.614-1.764-2.563-1.843-2.5-1.922-2.444-1.998-2.38-2.075-2.317-2.142-2.248-2.22-2.18-2.278-2.11-2.352-2.034-2.412-1.96-2.474-1.882-2.536-1.801-2.587-1.72-2.642-1.64-2.693-1.554-2.74-1.464-2.784-1.382-2.831-1.29-2.866-1.2-2.904-1.108-2.938-1.016-2.968-.92-2.997-.828-3.021-.732-3.042-.637-3.062-.538-3.076-.44-3.09-.345-3.097-.243-3.106-.147-3.071-.048H107.87l-3.076.049-3.104.147-3.099.243-3.09.345-3.077.44-3.06.54-3.043.636-3.02.732-2.999.827-2.967.923-2.937 1.016-2.903 1.109-2.87 1.199-2.827 1.29-2.784 1.38-2.742 1.467-2.69 1.555-2.642 1.637-2.589 1.722-2.532 1.803-2.475 1.882-2.413 1.96-2.35 2.035-2.284 2.108-2.214 2.18-2.146 2.25-2.071 2.316-1.999 2.38-1.922 2.444-1.841 2.501-1.765 2.562-1.68 2.615-1.596 2.667-1.514 2.717-1.421 2.76-1.341 2.808-1.245 2.847-1.157 2.886-1.058 2.922-.976 2.953-.873 2.981-.781 3.009-.688 3.033-.583 3.05-.489 3.07-.394 3.083-.3 3.096-.194 3.105-.102 3.1v3.11l.102 3.109.196 3.101.3 3.091.394 3.085.489 3.071.584 3.052.687 3.03.782 3.01.875 2.983.975 2.952 1.06 2.922 1.154 2.884 1.245 2.849 1.34 2.804 1.423 2.764 1.514 2.715 1.597 2.669 1.681 2.612 1.763 2.562 1.842 2.502 1.925 2.443 1.995 2.381 2.979 3.159 1.789 1.432a.407.407 0 01.144.347l-.141 1.632-.406.11.414.001-.347.23.386-.141.059.079-.25.326.313-.264 2.121 2 2.31 2.051 2.37 1.977 2.434 1.903 2.49 1.824 2.545 1.748 4.061 2.558a.407.407 0 01.187.436l-.159.72a.402.402 0 01-.045.116.752.752 0 00.277 1.025.768.768 0 001.023-.276.387.387 0 01.078-.097l.547-.498a.41.41 0 01.47-.055l1.505.826 2.746 1.418 2.786 1.33 2.827 1.243 2.862 1.156 4.44 1.586a.715.715 0 01.18.118c.007.009.05.056.056.065l.049.071a.836.836 0 01.037.076c.003.013.036.13.038.143.002.016.007.097.007.114a.672.672 0 01-.006.083.752.752 0 00.622.859.768.768 0 00.79-.412 1.4 1.4 0 01.058-.094.951.951 0 01.059-.07c.014-.012.09-.078.107-.087.014-.01.077-.043.093-.05l.09-.033a.728.728 0 01.075-.014.427.427 0 01.198.009l1.73.51-.01.418.093-.397.104.012.112.399-.01-.412.254.33-.148-.387 1.321-.926a.408.408 0 01.234-.074z"/><path class="cls-2" d="M247.882 268.318h-32.391a7.479 7.479 0 010-14.957h32.391a7.479 7.479 0 010 14.957zm-32.391-14.345a6.867 6.867 0 000 13.733h32.391a6.867 6.867 0 000-13.733z"/><rect x="183.216" y="173.269" width="96.94" height="64.087" rx="1.851" fill="#8a9593"/><path d="M278.306 237.662h-93.239a2.16 2.16 0 01-2.157-2.157V175.12a2.16 2.16 0 012.157-2.157h93.239a2.16 2.16 0 012.157 2.157v60.385a2.16 2.16 0 01-2.157 2.157zm-93.239-64.087a1.547 1.547 0 00-1.545 1.545v60.385a1.546 1.546 0 001.545 1.545h93.239a1.546 1.546 0 001.544-1.545V175.12a1.547 1.547 0 00-1.544-1.545z" fill="gray"/><path class="cls-8" d="M107.222 176.418l20-27.321h-40l20 27.321z"/><path class="cls-8" d="M97.015 94.405h20.413v58.506H97.015zm258.704 82.013l20-27.321h-40l20 27.321z"/><path class="cls-8" d="M345.512 94.405h20.413v58.506h-20.413z"/><path class="cls-1" d="M321.246 10.318h68.946a2.313 2.313 0 012.313 2.313v68.946a2.313 2.313 0 01-2.313 2.314h-68.946a2.313 2.313 0 01-2.314-2.314V12.632a2.314 2.314 0 012.314-2.314z"/><path class="cls-2" d="M379.838 34.201h6.941a2.623 2.623 0 012.62 2.62v2.211a2.6 2.6 0 01-.767 1.852l-2.925 2.925a1.994 1.994 0 00-.588 1.42v3.752a1.99 1.99 0 00.588 1.418l2.925 2.926a2.603 2.603 0 01.767 1.852v2.212a2.622 2.622 0 01-2.62 2.619h-6.941a2.622 2.622 0 01-2.62-2.62v-2.21a2.606 2.606 0 01.768-1.853l2.925-2.925a2.021 2.021 0 00.588-1.42v-3.75a1.996 1.996 0 00-.588-1.42l-2.925-2.925a2.604 2.604 0 01-.767-1.852v-2.211a2.622 2.622 0 012.619-2.62zm6.941 25.195a2.01 2.01 0 002.008-2.007v-2.212a1.995 1.995 0 00-.588-1.42l-2.924-2.924a2.597 2.597 0 01-.768-1.852v-3.752a2.6 2.6 0 01.768-1.853l2.924-2.924a1.994 1.994 0 00.588-1.42v-2.211a2.01 2.01 0 00-2.008-2.008h-6.941a2.01 2.01 0 00-2.007 2.008v2.211a1.998 1.998 0 00.589 1.42l2.924 2.924a2.605 2.605 0 01.768 1.853v3.752a2.638 2.638 0 01-.768 1.852l-2.925 2.924a1.999 1.999 0 00-.588 1.42v2.212a2.01 2.01 0 002.007 2.007zm-62.121-25.195h6.941a2.623 2.623 0 012.62 2.62v2.211a2.6 2.6 0 01-.767 1.852l-2.925 2.925a1.995 1.995 0 00-.588 1.42v3.752a1.992 1.992 0 00.588 1.419l2.925 2.925a2.603 2.603 0 01.767 1.852v2.212a2.622 2.622 0 01-2.62 2.619h-6.94a2.622 2.622 0 01-2.62-2.62v-2.21a2.605 2.605 0 01.767-1.853l2.926-2.925a2.02 2.02 0 00.587-1.42v-3.75a1.996 1.996 0 00-.588-1.42l-2.925-2.924a2.606 2.606 0 01-.766-1.853v-2.211a2.622 2.622 0 012.618-2.62zm6.941 25.195a2.01 2.01 0 002.008-2.007v-2.212a1.994 1.994 0 00-.588-1.42l-2.924-2.924a2.6 2.6 0 01-.768-1.852v-3.752a2.603 2.603 0 01.768-1.853l2.924-2.924a1.993 1.993 0 00.588-1.42v-2.211a2.01 2.01 0 00-2.008-2.008h-6.94a2.01 2.01 0 00-2.007 2.008v2.211a1.997 1.997 0 00.587 1.42l2.925 2.924a2.604 2.604 0 01.767 1.853v3.752a2.601 2.601 0 01-.766 1.852l-2.926 2.924a1.996 1.996 0 00-.587 1.42v2.212a2.009 2.009 0 002.006 2.007zm13.836 9.209h2.212a2.599 2.599 0 011.851.767l2.925 2.925a2.02 2.02 0 001.42.588h3.752a1.991 1.991 0 001.42-.588l2.924-2.925a2.6 2.6 0 011.853-.767h2.21a2.623 2.623 0 012.62 2.62v6.94a2.623 2.623 0 01-2.62 2.62h-2.21a2.603 2.603 0 01-1.853-.767l-2.925-2.926a2.02 2.02 0 00-1.419-.587h-3.752a2.021 2.021 0 00-1.42.587l-2.925 2.926a2.601 2.601 0 01-1.851.767h-2.212a2.622 2.622 0 01-2.62-2.62v-6.94a2.623 2.623 0 012.62-2.62zm12.16 4.892h-3.752a2.635 2.635 0 01-1.852-.768l-2.926-2.924a1.99 1.99 0 00-1.418-.588h-2.212a2.01 2.01 0 00-2.008 2.008v6.94a2.01 2.01 0 002.008 2.007h2.212a1.991 1.991 0 001.418-.587l2.926-2.926a2.637 2.637 0 011.852-.766h3.752a2.6 2.6 0 011.852.766l2.925 2.926a1.993 1.993 0 001.42.587h2.21a2.01 2.01 0 002.009-2.006v-6.941a2.01 2.01 0 00-2.008-2.008h-2.211a1.993 1.993 0 00-1.42.587l-2.925 2.925a2.599 2.599 0 01-1.852.768zm6.197-60.073h2.21a2.623 2.623 0 012.62 2.62v6.942a2.623 2.623 0 01-2.62 2.618h-2.21a2.603 2.603 0 01-1.853-.766l.004-.004a9.627 9.627 0 01-.334-.327l-1.785-1.784a2.603 2.603 0 01-.768-1.853v-2.71a2.6 2.6 0 01.768-1.853l2.115-2.115a2.6 2.6 0 011.853-.768zm2.21 11.568a2.01 2.01 0 002.009-2.006v-6.941a2.01 2.01 0 00-2.008-2.008h-2.211a1.993 1.993 0 00-1.42.588l-2.115 2.115a1.993 1.993 0 00-.589 1.42v2.71a1.997 1.997 0 00.589 1.42l2.112 2.112.003.003a1.994 1.994 0 001.42.587zm-20.567-11.568h2.212a2.603 2.603 0 011.852.768l2.115 2.115a2.601 2.601 0 01.768 1.853v2.71a2.604 2.604 0 01-.768 1.853l-1.785 1.784c-.166.166-.266.266-.335.327l.004.004a2.602 2.602 0 01-1.851.766h-2.212a2.622 2.622 0 01-2.62-2.618v-6.941a2.623 2.623 0 012.62-2.62zM349.07 24.4l2.11-2.11a1.995 1.995 0 00.59-1.42v-2.71a1.992 1.992 0 00-.59-1.42l-2.114-2.115a1.995 1.995 0 00-1.42-.588h-2.21a2.01 2.01 0 00-2.009 2.008v6.94a2.01 2.01 0 002.008 2.007h2.212a1.993 1.993 0 001.418-.587z"/><path class="cls-3" d="M321.246 9.91h68.946a2.725 2.725 0 012.721 2.721v68.946a2.725 2.725 0 01-2.721 2.722h-68.946a2.725 2.725 0 01-2.722-2.722V12.631a2.725 2.725 0 012.722-2.721zm68.946 73.573a1.908 1.908 0 001.905-1.906V12.631a1.908 1.908 0 00-1.905-1.905h-68.946a1.908 1.908 0 00-1.906 1.905v68.946a1.908 1.908 0 001.906 1.906z"/><path class="cls-2" d="M321.246 11.271h68.946a1.362 1.362 0 011.36 1.36v68.946a1.363 1.363 0 01-1.36 1.362h-68.946a1.362 1.362 0 01-1.36-1.362V12.631a1.362 1.362 0 011.36-1.36zm68.946 71.26a.954.954 0 00.953-.954V12.631a.954.954 0 00-.953-.952h-68.946a.953.953 0 00-.952.952v68.946a.954.954 0 00.952.953z"/><path class="cls-2" d="M379.838 34.997h6.941a1.826 1.826 0 011.824 1.824v2.211a1.811 1.811 0 01-.534 1.29l-2.925 2.925a2.781 2.781 0 00-.822 1.982v3.752a2.784 2.784 0 00.822 1.982l2.925 2.925a1.836 1.836 0 01.534 1.29v2.21a1.826 1.826 0 01-1.824 1.824h-6.941a1.826 1.826 0 01-1.824-1.823v-2.212a1.832 1.832 0 01.536-1.29l2.924-2.924a2.785 2.785 0 00.82-1.982v-3.752a2.782 2.782 0 00-.82-1.982l-2.925-2.926a1.807 1.807 0 01-.535-1.289v-2.211a1.826 1.826 0 011.824-1.824zm6.941 23.807a1.417 1.417 0 001.416-1.415v-2.212a1.426 1.426 0 00-.415-1l-2.924-2.926a3.188 3.188 0 01-.942-2.27v-3.752a3.187 3.187 0 01.942-2.271l2.924-2.925a1.408 1.408 0 00.415-1V36.82a1.417 1.417 0 00-1.416-1.416h-6.941a1.417 1.417 0 00-1.416 1.416v2.211a1.404 1.404 0 00.416 1l2.924 2.926a3.188 3.188 0 01.94 2.27v3.753a3.191 3.191 0 01-.94 2.27l-2.924 2.925a1.421 1.421 0 00-.416 1.001v2.212a1.417 1.417 0 001.416 1.415zm-62.121-23.807h6.941a1.826 1.826 0 011.824 1.824v2.211a1.812 1.812 0 01-.534 1.29l-2.925 2.925a2.783 2.783 0 00-.821 1.982v3.752a2.785 2.785 0 00.821 1.982l2.925 2.925a1.836 1.836 0 01.534 1.29v2.21a1.826 1.826 0 01-1.824 1.824h-6.94a1.826 1.826 0 01-1.824-1.823v-2.212a1.834 1.834 0 01.534-1.29l2.925-2.924a2.788 2.788 0 00.821-1.982v-3.752a2.822 2.822 0 00-.82-1.982l-2.926-2.926a1.81 1.81 0 01-.534-1.289v-2.211a1.826 1.826 0 011.823-1.824zm6.941 23.807a1.418 1.418 0 001.416-1.415v-2.212a1.426 1.426 0 00-.414-1l-2.925-2.926a3.19 3.19 0 01-.941-2.27v-3.752a3.188 3.188 0 01.94-2.271l2.925-2.925a1.405 1.405 0 00.415-1V36.82a1.417 1.417 0 00-1.416-1.416h-6.94a1.417 1.417 0 00-1.416 1.416v2.211a1.405 1.405 0 00.414 1l2.926 2.926a3.232 3.232 0 01.94 2.27v3.753a3.192 3.192 0 01-.94 2.27l-2.925 2.925a1.422 1.422 0 00-.415 1.001v2.212a1.417 1.417 0 001.415 1.415zm13.836 10.597h2.212a1.836 1.836 0 011.29.534l2.923 2.925a2.786 2.786 0 001.983.821h3.752a2.785 2.785 0 001.982-.821l2.925-2.925a1.836 1.836 0 011.29-.534h2.21a1.826 1.826 0 011.824 1.824v6.94a1.826 1.826 0 01-1.823 1.824h-2.211a1.834 1.834 0 01-1.29-.534l-2.924-2.925a2.824 2.824 0 00-1.983-.821h-3.752a2.826 2.826 0 00-1.983.82l-2.924 2.926a1.834 1.834 0 01-1.29.534h-2.21a1.826 1.826 0 01-1.824-1.823v-6.941a1.826 1.826 0 011.823-1.824zm12.16 4.688h-3.752a3.19 3.19 0 01-2.271-.94l-2.924-2.926a1.427 1.427 0 00-1.001-.414h-2.212a1.417 1.417 0 00-1.415 1.416v6.94a1.417 1.417 0 001.415 1.416h2.212a1.423 1.423 0 001-.415l2.925-2.925a3.235 3.235 0 012.27-.94h3.753a3.235 3.235 0 012.271.94l2.925 2.925a1.425 1.425 0 001 .415h2.212a1.417 1.417 0 001.415-1.415v-6.941a1.417 1.417 0 00-1.415-1.416h-2.211a1.427 1.427 0 00-1.001.414l-2.925 2.925a3.19 3.19 0 01-2.27.941zm6.197-59.868h2.21a1.826 1.826 0 011.824 1.824v6.94a1.826 1.826 0 01-1.823 1.824h-2.211a1.836 1.836 0 01-1.28-.525l-.01-.01-2.115-2.114a1.815 1.815 0 01-.534-1.29v-2.71a1.817 1.817 0 01.534-1.29l1.785-1.784c.177-.177.273-.274.334-.327l-.004-.004a1.833 1.833 0 011.29-.534zm2.21 10.18a1.417 1.417 0 001.416-1.415v-6.941a1.417 1.417 0 00-1.415-1.416h-2.211a1.423 1.423 0 00-1 .415l-.003.002-2.114 2.112a1.41 1.41 0 00-.414 1.002v2.71a1.412 1.412 0 00.414 1.002l2.106 2.105.01.009a1.423 1.423 0 001.001.415zm-20.567-10.18h2.212a1.83 1.83 0 011.288.535l-.004.004c.061.052.158.149.335.326l1.785 1.784a1.817 1.817 0 01.534 1.29v2.71a1.819 1.819 0 01-.533 1.29l-2.116 2.114-.014.014a1.83 1.83 0 01-1.275.521h-2.212a1.826 1.826 0 01-1.823-1.823v-6.941a1.826 1.826 0 011.823-1.824zm3.215.826l-.004-.004a1.417 1.417 0 00-1-.414h-2.21a1.417 1.417 0 00-1.416 1.416v6.94a1.417 1.417 0 001.415 1.416h2.212a1.418 1.418 0 00.999-.415l.015-.013 2.102-2.102a1.412 1.412 0 00.414-1.001v-2.71a1.412 1.412 0 00-.415-1.002c-.71-.71-2.058-2.058-2.112-2.11z"/><path class="cls-1" d="M72.75 10.263h68.945a2.313 2.313 0 012.314 2.313v68.946a2.313 2.313 0 01-2.314 2.313H72.75a2.313 2.313 0 01-2.313-2.313V12.577a2.314 2.314 0 012.313-2.314z"/><path class="cls-2" d="M131.341 34.146h6.942a2.623 2.623 0 012.62 2.62v2.21a2.6 2.6 0 01-.768 1.853l-2.924 2.925a1.994 1.994 0 00-.589 1.42v3.751a1.99 1.99 0 00.589 1.42l2.924 2.924a2.603 2.603 0 01.767 1.853v2.212a2.622 2.622 0 01-2.62 2.619h-6.941a2.622 2.622 0 01-2.619-2.62v-2.21a2.606 2.606 0 01.767-1.853l2.926-2.925a2.021 2.021 0 00.588-1.42v-3.751a1.996 1.996 0 00-.588-1.42l-2.925-2.925a2.604 2.604 0 01-.768-1.852v-2.212a2.622 2.622 0 012.619-2.62zm6.942 25.195a2.01 2.01 0 002.007-2.007v-2.212a1.995 1.995 0 00-.588-1.42l-2.924-2.925a2.597 2.597 0 01-.768-1.852v-3.751a2.6 2.6 0 01.768-1.853l2.924-2.925a1.994 1.994 0 00.588-1.42v-2.21a2.01 2.01 0 00-2.007-2.008h-6.942a2.01 2.01 0 00-2.007 2.007v2.212a1.998 1.998 0 00.589 1.42l2.924 2.924a2.605 2.605 0 01.768 1.853v3.751a2.637 2.637 0 01-.768 1.852l-2.924 2.925a1.999 1.999 0 00-.589 1.42v2.212a2.01 2.01 0 002.007 2.007zM76.162 34.146h6.94a2.623 2.623 0 012.62 2.62v2.21a2.6 2.6 0 01-.766 1.853l-2.925 2.925a1.995 1.995 0 00-.588 1.42v3.751a1.991 1.991 0 00.588 1.42l2.925 2.924a2.603 2.603 0 01.767 1.853v2.212a2.622 2.622 0 01-2.62 2.619h-6.941a2.622 2.622 0 01-2.619-2.62v-2.21a2.605 2.605 0 01.766-1.853l2.926-2.925a2.02 2.02 0 00.588-1.42v-3.751a1.996 1.996 0 00-.588-1.42L74.31 40.83a2.606 2.606 0 01-.767-1.853v-2.212a2.622 2.622 0 012.619-2.62zm6.94 25.195a2.01 2.01 0 002.008-2.007v-2.212a1.994 1.994 0 00-.587-1.42l-2.925-2.925a2.6 2.6 0 01-.768-1.852v-3.751a2.603 2.603 0 01.768-1.853l2.925-2.925a1.993 1.993 0 00.587-1.42v-2.21a2.01 2.01 0 00-2.008-2.008h-6.94a2.01 2.01 0 00-2.007 2.007v2.212a1.997 1.997 0 00.587 1.42l2.926 2.924a2.604 2.604 0 01.767 1.853v3.751a2.602 2.602 0 01-.767 1.852l-2.925 2.925a1.996 1.996 0 00-.588 1.42v2.212a2.009 2.009 0 002.007 2.007zm13.837 9.209h2.211a2.599 2.599 0 011.852.767l2.925 2.924a2.02 2.02 0 001.42.589h3.752a1.991 1.991 0 001.419-.589l2.925-2.924a2.6 2.6 0 011.852-.767h2.211a2.623 2.623 0 012.62 2.62v6.94a2.623 2.623 0 01-2.62 2.62h-2.21a2.603 2.603 0 01-1.853-.767l-2.925-2.926a2.02 2.02 0 00-1.42-.587h-3.752a2.021 2.021 0 00-1.42.587l-2.924 2.926a2.601 2.601 0 01-1.852.766h-2.21a2.622 2.622 0 01-2.62-2.618V71.17a2.623 2.623 0 012.62-2.62zm12.16 4.892h-3.753a2.635 2.635 0 01-1.852-.768l-2.925-2.925a1.99 1.99 0 00-1.419-.587h-2.21a2.01 2.01 0 00-2.008 2.008v6.94a2.01 2.01 0 002.008 2.007h2.211a1.991 1.991 0 001.418-.587l2.926-2.926a2.637 2.637 0 011.852-.767h3.753a2.6 2.6 0 011.852.767l2.925 2.926a1.993 1.993 0 001.42.587h2.21a2.01 2.01 0 002.008-2.006V71.17a2.01 2.01 0 00-2.008-2.008h-2.21a1.993 1.993 0 00-1.42.587l-2.925 2.925a2.6 2.6 0 01-1.852.768zm6.196-60.072h2.211a2.623 2.623 0 012.62 2.62v6.94a2.623 2.623 0 01-2.62 2.62h-2.21a2.603 2.603 0 01-1.853-.768l.004-.004a9.296 9.296 0 01-.335-.326l-1.784-1.785a2.603 2.603 0 01-.768-1.852v-2.71a2.6 2.6 0 01.768-1.853l2.114-2.115a2.6 2.6 0 011.853-.768zm2.211 11.567a2.01 2.01 0 002.008-2.007v-6.94a2.01 2.01 0 00-2.008-2.009h-2.21a1.993 1.993 0 00-1.421.589l-2.115 2.115a1.993 1.993 0 00-.588 1.42v2.71a1.997 1.997 0 00.588 1.42l2.113 2.112.003.003a1.994 1.994 0 001.42.587zM96.939 13.37h2.211a2.603 2.603 0 011.853.767l2.114 2.115a2.601 2.601 0 01.769 1.853v2.71a2.604 2.604 0 01-.769 1.852l-1.785 1.785c-.165.165-.266.266-.334.327l.004.003a2.602 2.602 0 01-1.852.767h-2.21a2.622 2.622 0 01-2.62-2.619v-6.94a2.623 2.623 0 012.62-2.62zm3.634 10.975c.062-.06 1.405-1.404 2.111-2.11a1.995 1.995 0 00.59-1.42v-2.71a1.992 1.992 0 00-.59-1.42l-2.114-2.115a1.995 1.995 0 00-1.42-.589h-2.21a2.01 2.01 0 00-2.008 2.009v6.94a2.01 2.01 0 002.008 2.007h2.211a1.993 1.993 0 001.418-.587z"/><path class="cls-3" d="M72.75 9.855h68.945a2.725 2.725 0 012.722 2.721v68.946a2.725 2.725 0 01-2.722 2.721H72.75a2.725 2.725 0 01-2.721-2.721V12.576a2.725 2.725 0 012.721-2.721zm68.945 73.572a1.908 1.908 0 001.906-1.905V12.576a1.908 1.908 0 00-1.906-1.905H72.75a1.908 1.908 0 00-1.905 1.905v68.946a1.908 1.908 0 001.905 1.905z"/><path class="cls-2" d="M72.75 11.216h68.945a1.362 1.362 0 011.361 1.36v68.946a1.363 1.363 0 01-1.36 1.361H72.748a1.362 1.362 0 01-1.36-1.361V12.576a1.362 1.362 0 011.36-1.36zm68.945 71.26a.954.954 0 00.953-.954V12.576a.954.954 0 00-.953-.952H72.75a.953.953 0 00-.952.952v68.946a.954.954 0 00.952.953z"/><path class="cls-2" d="M131.341 34.942h6.942a1.826 1.826 0 011.823 1.823v2.212a1.811 1.811 0 01-.534 1.29l-2.924 2.924a2.781 2.781 0 00-.822 1.983v3.751a2.784 2.784 0 00.822 1.983l2.924 2.925a1.836 1.836 0 01.534 1.29v2.21a1.826 1.826 0 01-1.823 1.824h-6.942a1.826 1.826 0 01-1.824-1.823v-2.212a1.832 1.832 0 01.536-1.29l2.924-2.924a2.785 2.785 0 00.821-1.983v-3.751a2.782 2.782 0 00-.82-1.983l-2.925-2.925a1.807 1.807 0 01-.536-1.29v-2.21a1.826 1.826 0 011.824-1.824zm6.942 23.807a1.417 1.417 0 001.415-1.415v-2.212a1.426 1.426 0 00-.414-1l-2.925-2.926a3.188 3.188 0 01-.941-2.27v-3.752a3.186 3.186 0 01.941-2.272l2.925-2.924a1.408 1.408 0 00.414-1.001v-2.212a1.417 1.417 0 00-1.415-1.415h-6.942a1.417 1.417 0 00-1.416 1.415v2.212a1.404 1.404 0 00.416 1l2.925 2.926a3.188 3.188 0 01.94 2.27v3.752a3.191 3.191 0 01-.94 2.271l-2.925 2.925a1.421 1.421 0 00-.416 1.001v2.212a1.417 1.417 0 001.416 1.415zM76.162 34.942h6.94a1.826 1.826 0 011.824 1.823v2.212a1.812 1.812 0 01-.533 1.29l-2.925 2.924a2.783 2.783 0 00-.822 1.983v3.751a2.785 2.785 0 00.822 1.983l2.925 2.925a1.836 1.836 0 01.533 1.29v2.21a1.826 1.826 0 01-1.823 1.824h-6.941a1.826 1.826 0 01-1.824-1.823v-2.212a1.834 1.834 0 01.535-1.29l2.925-2.924a2.788 2.788 0 00.82-1.983v-3.751a2.822 2.822 0 00-.82-1.983l-2.925-2.925a1.81 1.81 0 01-.535-1.29v-2.21a1.826 1.826 0 011.824-1.824zm6.94 23.807a1.418 1.418 0 001.416-1.415v-2.212a1.426 1.426 0 00-.414-1l-2.925-2.926a3.19 3.19 0 01-.94-2.27v-3.752a3.188 3.188 0 01.94-2.272l2.925-2.924a1.405 1.405 0 00.414-1.001v-2.212a1.417 1.417 0 00-1.415-1.415h-6.941a1.417 1.417 0 00-1.416 1.415v2.212a1.405 1.405 0 00.415 1l2.925 2.926a3.232 3.232 0 01.94 2.27v3.752a3.192 3.192 0 01-.94 2.271l-2.925 2.925a1.422 1.422 0 00-.415 1.001v2.212a1.417 1.417 0 001.416 1.415zm13.837 10.597h2.211a1.836 1.836 0 011.29.534l2.924 2.925a2.785 2.785 0 001.982.82h3.753a2.785 2.785 0 001.982-.82l2.925-2.925a1.836 1.836 0 011.29-.534h2.21a1.826 1.826 0 011.824 1.824v6.94a1.826 1.826 0 01-1.824 1.824h-2.21a1.834 1.834 0 01-1.29-.535l-2.925-2.924a2.824 2.824 0 00-1.982-.821h-3.753a2.826 2.826 0 00-1.982.82L100.44 79.4a1.834 1.834 0 01-1.29.535h-2.21a1.826 1.826 0 01-1.824-1.823V71.17a1.826 1.826 0 011.824-1.824zm12.16 4.688h-3.753a3.19 3.19 0 01-2.27-.94l-2.925-2.926a1.427 1.427 0 00-1-.414h-2.212a1.417 1.417 0 00-1.416 1.416v6.94a1.417 1.417 0 001.416 1.416h2.211a1.423 1.423 0 001-.415l2.925-2.925a3.235 3.235 0 012.271-.94h3.753a3.235 3.235 0 012.27.94l2.925 2.925a1.425 1.425 0 001.001.415h2.211a1.417 1.417 0 001.416-1.415V71.17a1.417 1.417 0 00-1.416-1.416h-2.21a1.427 1.427 0 00-1.002.414l-2.925 2.925a3.19 3.19 0 01-2.27.941zm6.196-59.868h2.211a1.826 1.826 0 011.824 1.824v6.94a1.826 1.826 0 01-1.824 1.824h-2.21a1.836 1.836 0 01-1.28-.525l-.01-.01-2.116-2.114a1.816 1.816 0 01-.533-1.29v-2.71a1.817 1.817 0 01.533-1.29l1.785-1.785c.177-.177.274-.273.335-.326l-.004-.004a1.834 1.834 0 011.29-.534zm2.211 10.18a1.417 1.417 0 001.416-1.416v-6.94a1.417 1.417 0 00-1.416-1.416h-2.21a1.423 1.423 0 00-1.001.415l-.003.002-2.113 2.112a1.41 1.41 0 00-.414 1.002v2.71a1.412 1.412 0 00.414 1.002l2.106 2.105.01.009a1.423 1.423 0 001 .415zm-20.567-10.18h2.211a1.83 1.83 0 011.289.534l-.004.004c.061.053.158.15.334.326l1.786 1.785a1.817 1.817 0 01.533 1.29v2.71a1.819 1.819 0 01-.533 1.29l-2.115 2.114-.015.014a1.83 1.83 0 01-1.275.521h-2.21a1.826 1.826 0 01-1.824-1.824v-6.94a1.826 1.826 0 011.824-1.824zm3.214.826l-.004-.004a1.417 1.417 0 00-.999-.414h-2.21a1.417 1.417 0 00-1.416 1.416v6.94a1.417 1.417 0 001.416 1.416h2.211a1.418 1.418 0 001-.415l.014-.013 2.102-2.102a1.412 1.412 0 00.414-1.001v-2.71a1.412 1.412 0 00-.414-1.002c-.71-.71-2.059-2.058-2.113-2.11z"/><path fill="none" d="M0 0h462.897v313.919H0z"/></g></g></svg>