<svg xmlns="http://www.w3.org/2000/svg" viewBox="0 0 133.788 133.787"><defs><clipPath clipPathUnits="userSpaceOnUse" id="a"><path d="M0 100.34h100.341V0H0z"/></clipPath></defs><g clip-path="url(#a)" transform="matrix(1.33333 0 0 -1.33333 0 133.787)"><path d="M97.64 39.07c0-20.004-16.366-36.369-36.372-36.369H39.072c-20.004 0-36.37 16.365-36.37 36.37v22.196c0 20.003 16.366 36.371 36.37 36.371h22.196c20.006 0 36.372-16.368 36.372-36.37z" fill="#fff"/><path d="M97.64 39.07c0-20.004-16.366-36.369-36.372-36.369H39.072c-20.004 0-36.37 16.365-36.37 36.37v22.196c0 20.003 16.366 36.371 36.37 36.371h22.196c20.006 0 36.372-16.368 36.372-36.37z" fill="none" stroke="#f36732" stroke-width="5.403" stroke-linecap="round" stroke-linejoin="round" stroke-miterlimit="10"/><path d="M24.822 34.501c-1.171 1.545-2.356 4.12-.323 7.564M19.668 35.52c-.491.714-1.008 1.941-.348 3.482M75.904 45.528c.977 1.675 1.842 4.374-.593 7.55M80.97 47.24c.4.768.767 2.05-.074 3.5" fill="none" stroke="#f36732" stroke-width="2.083" stroke-linecap="round" stroke-linejoin="round" stroke-miterlimit="10"/><path d="M61.415 26.49c-2.025.343-3.229 2.662-2.686 5.177.543 2.513 2.626 4.576 4.654 4.231 2.025-.345 3.228-2.96 2.685-5.476-.543-2.516-2.626-4.277-4.653-3.933" fill="#f36732"/><path d="M61.415 26.49c-2.025.343-3.229 2.662-2.686 5.177.543 2.513 2.626 4.576 4.654 4.231 2.025-.345 3.228-2.96 2.685-5.476-.543-2.516-2.626-4.277-4.653-3.933zM56.675 23.102l-26.017 5.24v20.717l26.017-5.24z" fill="none" stroke="#f36732" stroke-width="2.083" stroke-linecap="round" stroke-linejoin="round" stroke-miterlimit="10"/><path d="M69.879 54.21l-26.016 5.239-13.205-10.39 26.017-5.241z" fill="none" stroke="#f36732" stroke-width="2.083" stroke-linecap="round" stroke-linejoin="round" stroke-miterlimit="10"/><path d="M56.675 23.102l13.204 10.357v20.718L56.675 43.82z" fill="#fff"/><path d="M56.675 23.102l13.204 10.357v20.718L56.675 43.82z" fill="none" stroke="#f36732" stroke-width="2.083" stroke-linecap="round" stroke-linejoin="round" stroke-miterlimit="10"/><path d="M32.21 66.444l-2.492 16.143" fill="#fff"/><path d="M32.21 66.444l-2.492 16.143" fill="#fff" stroke="#f36732" stroke-width="2.083" stroke-linecap="round" stroke-linejoin="round" stroke-miterlimit="10"/><path d="M33.242 66.564c.448-2.903-2.218-5.724-5.955-6.301s-7.13 1.308-7.578 4.21c-.448 2.904 2.218 5.726 5.955 6.303 3.737.576 7.13-1.31 7.578-4.213M34.687 85.146c3.563-1.211 3.569-4.167 8.988-3.495.309-2.003-1.44-5.052-4.066-5.436-1.854-.271-4.027.848-5.072 1.36-1.544.756-3.77.041-5.072-.092l-1.19 7.706c1.573.479 4.148.727 6.412-.043M53.256 73.393c-3.426.62-6.612-1.081-7.102-3.791-.49-2.71 1.898-5.418 5.324-6.038 3.424-.62 6.61 1.08 7.1 3.79.49 2.71-1.896 5.419-5.322 6.039M71.793 70.04c-3.426.62-6.611-1.082-7.103-3.792-.489-2.709 1.899-5.418 5.325-6.038 3.424-.62 6.611 1.08 7.101 3.79.489 2.71-1.897 5.42-5.323 6.04M79.48 76.935l-20.584 3.73 1.29 7.133 20.585-3.729z" fill="#f36732"/><path d="M57.593 67.66l3.337 18.449" fill="#fff"/><path d="M57.593 67.66l3.337 18.449" fill="#fff" stroke="#f36732" stroke-width="2.083" stroke-linecap="round" stroke-linejoin="round" stroke-miterlimit="10"/><path d="M76.137 64.305l3.345 18.493" fill="#fff"/><path d="M76.137 64.305l3.345 18.493" fill="#fff" stroke="#f36732" stroke-width="2.083" stroke-linecap="round" stroke-linejoin="round" stroke-miterlimit="10"/><path d="M73.775 5.136H29.288L7.793 18.874h85.2z" fill="#f36732"/><path d="M47.734 6.975h1.11v1.896h-1.11zm0 3.372h1.11v1.777h-1.11zm-2.65-3.372h1.077v1.896h-1.077zm0 3.372h1.077v1.777h-1.077zm-2.639-3.372h1.066v1.896h-1.066zm0 3.372h1.066v1.777h-1.066zm5.289 4.772v-1.486h2.693V4.95h-1.583v.539h-6.399V4.95h-1.583v8.683h2.649v1.486h1.573v-1.486h1.078v1.486zM56.42 8.474c-.645-.082-1.103-.212-1.103-1.094v-.294h6.397V5.322h-8.327v1.646c0 .977.022 2.942 2.316 3.2l3.012.34c.87.096 1.143.355 1.143 1.13 0 .87-.272 1.283-2.06 1.283-2.13 0-2.316-.223-2.342-1.53h-1.904c.022 2.06.269 3.295 4.057 3.295 2.142 0 4.166-.117 4.166-2.93 0-.424-.048-1.564-.635-2.117-.401-.377-1.154-.73-1.823-.811z" fill="#fff"/></g></svg>