<svg xmlns="http://www.w3.org/2000/svg" viewBox="0 0 133.787 133.785"><defs><clipPath clipPathUnits="userSpaceOnUse" id="a"><path d="M0 0h100.34v100.339H0z"/></clipPath><clipPath clipPathUnits="userSpaceOnUse" id="b"><path d="M39.071 97.637c-20.005 0-36.369-16.368-36.369-36.37V39.07c0-20.004 16.364-36.369 36.369-36.369h22.197c20.006 0 36.37 16.365 36.37 36.369v22.197c0 20.002-16.364 36.37-36.37 36.37z"/></clipPath><clipPath clipPathUnits="userSpaceOnUse" id="c"><path d="M27.245 84.592h31.91V43.07h-31.91z"/></clipPath><clipPath clipPathUnits="userSpaceOnUse" id="d"><path d="M27.245 43.069h31.911v41.522H27.245z"/></clipPath><clipPath clipPathUnits="userSpaceOnUse" id="e"><path d="M55.968 32.853h25.2V19.718h-25.2z"/></clipPath><clipPath clipPathUnits="userSpaceOnUse" id="f"><path d="M55.968 19.718h25.2v13.136h-25.2z"/></clipPath><clipPath clipPathUnits="userSpaceOnUse" id="g"><path d="M0 0h100.34v100.339H0z"/></clipPath></defs><g clip-path="url(#a)" transform="matrix(1.33333 0 0 -1.33333 0 133.785)"><path d="M97.64 39.07c0-20.004-16.367-36.369-36.373-36.369H39.072c-20.005 0-36.37 16.365-36.37 36.37v22.195c0 20.003 16.365 36.371 36.37 36.371h22.195c20.006 0 36.372-16.368 36.372-36.37z" fill="#fff"/></g><g clip-path="url(#b)" transform="matrix(1.33333 0 0 -1.33333 0 133.785)"><path d="M60.903 69.906c.357 2.211.17 5.481-3.772 7.894M64.1 74.142c.113.996-.024 2.53-1.534 3.743M17.8 70.258c-1.861-1.244-4.128-3.61-3.208-8.14M12.522 69.713c-.806-.595-1.834-1.74-1.695-3.672" fill="#fff" stroke="#f8a045" stroke-width="2.083" stroke-linecap="round" stroke-linejoin="round" stroke-miterlimit="10"/><path d="M30.465 32.082c-.218-2.803-2.322-4.467-4.701-3.715-2.377.751-4.13 3.631-3.911 6.435.218 2.801 2.323 4.466 4.702 3.714 2.377-.749 4.129-3.631 3.91-6.434" fill="#fff"/><path d="M30.465 32.082c-.218-2.803-2.322-4.467-4.701-3.715-2.377.751-4.13 3.631-3.911 6.435.218 2.801 2.323 4.466 4.702 3.714 2.377-.749 4.129-3.631 3.91-6.434z" fill="none" stroke="#f8a045" stroke-width="2.083" stroke-linecap="round" stroke-linejoin="round" stroke-miterlimit="10"/><path d="M58.114 33.28l-18.8 10.485 4.346 15.597 14.454-8.057z" fill="#fff"/><path d="M58.114 33.28l-18.8 10.485 4.346 15.597 14.454-8.057z" fill="none" stroke="#f8a045" stroke-width="2.083" stroke-linecap="round" stroke-linejoin="round" stroke-miterlimit="10"/><path d="M32.737 25.96l-14.576 8.917v17.521l14.576-8.288z" fill="#fff"/><path d="M32.737 25.96l-14.576 8.917v17.521l14.576-8.288z" fill="none" stroke="#f8a045" stroke-width="2.083" stroke-linecap="round" stroke-linejoin="round" stroke-miterlimit="10"/><path d="M58.114 33.769l-25.376-7.81v18.309l25.376 7.039z" fill="#fff"/><path d="M58.114 33.769l-25.376-7.81v18.309l25.376 7.039z" fill="none" stroke="#f8a045" stroke-width="2.083" stroke-linecap="round" stroke-linejoin="round" stroke-miterlimit="10"/><path d="M32.737 44.268l-14.576 8.13 25.498 6.964 14.454-8.055z" fill="#fff"/><path d="M32.737 44.268l-14.576 8.13 25.498 6.964 14.454-8.055z" fill="none" stroke="#f8a045" stroke-width="2.083" stroke-linecap="round" stroke-linejoin="round" stroke-miterlimit="10"/><path d="M28.52 79.13L18.161 52.4l14.732 4.007z" fill="none" stroke="#f8a045" stroke-width="2.083" stroke-linecap="round" stroke-linejoin="round" stroke-miterlimit="10"/><path d="M32.147 81.696c-4.861.265-6.23 6.33-6.23 6.33s-3.585-4.723-.704-9.17c2.88-4.449 8.023-2.204 8.023-2.204z" fill="#fff"/><path d="M32.147 81.696c-4.861.265-6.23 6.33-6.23 6.33s-3.585-4.723-.704-9.17c2.88-4.449 8.023-2.204 8.023-2.204z" fill="none" stroke="#f8a045" stroke-width="2.083" stroke-linecap="round" stroke-linejoin="round" stroke-miterlimit="10"/><path d="M43.986 83.488c4.783.905 5.34 7.096 5.34 7.096s4.175-4.206 1.908-8.996c-2.268-4.79-7.66-3.244-7.66-3.244z" fill="#fff"/><path d="M43.986 83.488c4.783.905 5.34 7.096 5.34 7.096s4.175-4.206 1.908-8.996c-2.268-4.79-7.66-3.244-7.66-3.244z" fill="none" stroke="#f8a045" stroke-width="2.083" stroke-linecap="round" stroke-linejoin="round" stroke-miterlimit="10"/><path d="M58.114 51.306l-25.376-7.195-4.372 29.341a7.926 7.926 0 006.604 8.94l6.674 1.06a7.879 7.879 0 008.838-5.708z" fill="#fff"/><path d="M58.114 51.306l-25.376-7.195-4.372 29.341a7.926 7.926 0 006.604 8.94l6.674 1.06a7.879 7.879 0 008.838-5.708z" fill="none" stroke="#f8a045" stroke-width="2.083" stroke-linecap="round" stroke-linejoin="round" stroke-miterlimit="10"/><g clip-path="url(#c)"><g clip-path="url(#d)" opacity=".5"><path d="M58.114 51.306l-25.376-7.195-4.372 29.341a7.926 7.926 0 006.604 8.94l6.674 1.06a7.879 7.879 0 008.838-5.708z" fill="#f8a045"/><path d="M58.114 51.306l-25.376-7.195-4.372 29.341a7.926 7.926 0 006.604 8.94l6.674 1.06a7.879 7.879 0 008.838-5.708z" fill="none" stroke="#f8a045" stroke-width="2.083" stroke-linecap="round" stroke-linejoin="round" stroke-miterlimit="10"/></g></g><path d="M48.358 71.655a7.33 7.33 0 10-14.372-2.875 7.33 7.33 0 0014.372 2.875" fill="#fff"/><path d="M44.477 70.879a3.372 3.372 0 10-6.611-1.324 3.372 3.372 0 006.611 1.324" fill="#f8a045"/><path d="M38.025 59.588l-1.176-3.944 4.004.953zM47.802 61.916l-1.176-3.943 4.003.952z" fill="#fff"/><path d="M40.74 59.357l-.66-2.214 2.247.535zM42.988 59.893l-.66-2.214 2.247.535zM45.236 60.428l-.66-2.214 2.247.535z" fill="#fff"/><path d="M47.234 58.117l-6.78-1.615-.165.691 6.78 1.615z" fill="#fff"/><path d="M48.386 23.02s8.04 4.546-.58 11.798c0 0 14.526-1.502 13.859 11.578 3.104-6.782 9.585-7.455 15.603-1.219-3.452-7.847.45-11.018 6.488-9.149M75.294 12.666L97.13 1.833M82.33 15.273l11.742-6.108M84.558 19.672l9.43-4.452" fill="#fff" stroke="#f8a045" stroke-width="2.083" stroke-linecap="round" stroke-linejoin="round" stroke-miterlimit="10"/><path d="M79.844 22.77c-1.133-2.412-5.755-3.449-11.464-3.449-5.709 0-9.955 1.037-11.087 3.45-.099-.213-.283 3.186-.283 3.395 0 .348-.02-4.72.035-5.05.454-2.774 5.211-5.078 11.524-5.078 6.48 0 11.321 2.426 11.55 5.3.02.257.011 5.233.011 5.233-.047.22-.186-4.013-.286-3.8" fill="#f8a045"/><path d="M79.844 22.77c-1.133-2.412-5.755-3.449-11.464-3.449-5.709 0-9.955 1.037-11.087 3.45-.099-.213-.283 3.186-.283 3.395 0 .348-.02-4.72.035-5.05.454-2.774 5.211-5.078 11.524-5.078 6.48 0 11.321 2.426 11.55 5.3.02.257.011 5.233.011 5.233-.047.22-.186-4.013-.286-3.8z" fill="none" stroke="#f8a045" stroke-width="2.083" stroke-linecap="round" stroke-linejoin="round" stroke-miterlimit="10"/><path d="M80.068 26.843c-.605 2.86-5.73 4.97-11.5 4.97-5.771 0-10.895-2.11-11.5-4.971a2.778 2.778 0 01.225-1.785c1.132-2.412 5.567-4.298 11.276-4.298 5.708 0 10.143 1.886 11.275 4.298a2.78 2.78 0 01.224 1.786" fill="#fff"/><path d="M80.068 26.843c-.605 2.86-5.73 4.97-11.5 4.97-5.771 0-10.895-2.11-11.5-4.971a2.778 2.778 0 01.225-1.785c1.132-2.412 5.567-4.298 11.276-4.298 5.708 0 10.143 1.886 11.275 4.298a2.78 2.78 0 01.224 1.786z" fill="none" stroke="#f8a045" stroke-width="2.083" stroke-miterlimit="10"/><g clip-path="url(#e)"><g clip-path="url(#f)" opacity=".5"><path d="M80.068 26.843c-.605 2.86-5.73 4.97-11.5 4.97-5.771 0-10.895-2.11-11.5-4.971a2.778 2.778 0 01.225-1.785c1.132-2.412 5.567-4.298 11.276-4.298 5.708 0 10.143 1.886 11.275 4.298a2.78 2.78 0 01.224 1.786" fill="#f8a045"/><path d="M80.068 26.843c-.605 2.86-5.73 4.97-11.5 4.97-5.771 0-10.895-2.11-11.5-4.971a2.778 2.778 0 01.225-1.785c1.132-2.412 5.567-4.298 11.276-4.298 5.708 0 10.143 1.886 11.275 4.298a2.78 2.78 0 01.224 1.786z" fill="none" stroke="#f8a045" stroke-width="2.083" stroke-miterlimit="10"/></g></g><g><path d="M97.64 39.07c0-20.004-16.367-36.369-36.373-36.369H39.072c-20.005 0-36.37 16.365-36.37 36.37v22.195c0 20.003 16.365 36.371 36.37 36.371h22.195c20.006 0 36.372-16.368 36.372-36.37z" fill="none" stroke="#f8a045" stroke-width="5.403" stroke-linecap="round" stroke-linejoin="round" stroke-miterlimit="10"/></g></g><g clip-path="url(#g)" transform="matrix(1.33333 0 0 -1.33333 0 133.785)"><path d="M97.64 39.07c0-20.004-16.367-36.369-36.373-36.369H39.072c-20.005 0-36.37 16.365-36.37 36.37v22.195c0 20.003 16.365 36.371 36.37 36.371h22.195c20.006 0 36.372-16.368 36.372-36.37z" fill="none" stroke="#f8a045" stroke-width="5.403" stroke-linecap="round" stroke-linejoin="round" stroke-miterlimit="10"/></g></svg>