<svg version="1.1" id="レイヤー_1" xmlns="http://www.w3.org/2000/svg" xmlns:xlink="http://www.w3.org/1999/xlink" x="0" y="0" viewBox="0 0 74.85 74.947" xml:space="preserve"><style>.st0{fill:#fff}.st2{fill:#ea6350}.st3{fill:none}</style><g id="レイヤー_2-2"><path class="st0" d="M29.933 5.022h15.186C58.861 5.022 70 16.162 70 29.904v15.185c0 13.742-11.14 24.882-24.88 24.882H29.932c-13.741 0-24.88-11.14-24.88-24.88V29.902c0-13.741 11.139-24.88 24.88-24.88z"/><defs><path id="SVGID_1_" d="M29.914 5H45.1c13.742 0 24.882 11.14 24.882 24.88v15.186c0 13.74-11.14 24.88-24.881 24.88H29.914c-13.742 0-24.881-11.14-24.881-24.881V29.881C5.033 16.14 16.173 5 29.913 5z"/></defs><clipPath id="SVGID_2_"><use xlink:href="#SVGID_1_" overflow="visible"/></clipPath><g clip-path="url(#SVGID_2_)"><path class="st2" d="M33.927 47.256C45.94 48.94 51.25 42.704 59.58 40.493a36.728 36.728 0 0118.694.011c4.783 1.341 7.786 3.621 1.562 6.156-7.346 2.994-33.059 8.531-38.544 3.405"/><path class="st2" d="M50.498 52.642c-4.297 0-7.821-.621-9.535-2.223a.484.484 0 01.66-.707c5.231 4.89 31-.634 38.031-3.5 2.854-1.162 3.24-2.056 3.215-2.485-.04-.704-1.303-1.797-4.725-2.757a35.965 35.965 0 00-18.44-.01 41.629 41.629 0 00-7.51 3.038c-4.982 2.403-10.135 4.887-18.335 3.737a.484.484 0 11.135-.958c7.905 1.108 12.928-1.31 17.778-3.65a43.05 43.05 0 017.684-3.102 36.964 36.964 0 0118.95.013c2.42.68 5.328 1.861 5.429 3.634.07 1.238-1.178 2.362-3.815 3.436-5.334 2.174-19.523 5.534-29.522 5.534z"/><path class="st0" d="M32.943 61.44a3.137 3.137 0 01-3.024-4.07 5.163 5.163 0 015.236-3.387 3.138 3.138 0 013.026 4.071 5.164 5.164 0 01-5.238 3.387"/><path class="st2" d="M33.322 61.94c-.14 0-.28-.005-.419-.017a3.997 3.997 0 01-3.024-1.638 3.525 3.525 0 01-.424-3.053 5.665 5.665 0 015.74-3.73 3.998 3.998 0 013.024 1.636 3.53 3.53 0 01.425 3.054 5.67 5.67 0 01-5.322 3.748zm-.339-.981a4.656 4.656 0 004.734-3.042 2.58 2.58 0 00-.297-2.233 3 3 0 00-2.305-1.219 4.654 4.654 0 00-4.732 3.043 2.58 2.58 0 00.295 2.23 3.001 3.001 0 002.305 1.221z"/><path class="st0" d="M43.813 57.012l-16.28-7.431V35.43l16.28 6.557z"/><path class="st2" d="M43.813 57.496a.485.485 0 01-.202-.044L27.332 50.02a.484.484 0 01-.282-.44V35.43a.484.484 0 01.664-.45l16.28 6.558a.483.483 0 01.302.448v15.025a.484.484 0 01-.484.484zM28.017 49.27l15.312 6.99V42.313l-15.312-6.168V49.27z"/><path class="st0" d="M25.602 63.677L9.219 56.418v-15.32l16.383 6.747z"/><path class="st2" d="M25.603 64.16a.487.487 0 01-.197-.04L9.022 56.86a.484.484 0 01-.287-.442v-15.32a.483.483 0 01.668-.448l16.384 6.748a.484.484 0 01.299.447v15.832a.484.484 0 01-.483.484zm-15.9-8.056l15.416 6.83V48.168L9.702 41.82v14.284z"/><path class="st0" d="M43.813 57.012l-18.21 6.538V47.718l18.21-5.731z"/><path class="st2" d="M25.603 64.034a.484.484 0 01-.484-.484V47.718c0-.21.137-.398.338-.461l18.21-5.731a.483.483 0 01.629.461v15.025a.483.483 0 01-.32.455l-18.21 6.538a.47.47 0 01-.163.029zm.483-15.96v14.788l17.243-6.19V42.645l-17.243 5.427zm17.727 8.938z"/><path class="st2" d="M21.66 46.22s-5.724 2.552-9.689.608c-4.96-2.43 1.681-3.9 1.681-3.9l-4.433-1.83 18.313-5.668 16.281 6.557-18.21 5.731-3.943-1.497z"/><path class="st2" d="M25.603 48.202a.485.485 0 01-.172-.032l-3.76-1.428c-1.053.435-6.153 2.363-9.912.52-1.514-.742-2.201-1.509-2.102-2.344.12-1.007 1.442-1.681 2.533-2.07l-3.155-1.303a.484.484 0 01.042-.909l18.313-5.668a.478.478 0 01.323.013l16.281 6.557a.484.484 0 01-.035.91l-18.21 5.731a.48.48 0 01-.146.023zm-3.943-2.465a.46.46 0 01.172.032l3.785 1.437 16.763-5.275-14.87-5.988-16.864 5.22 3.19 1.318a.484.484 0 01-.08.92c-1.267.282-3.064 1.005-3.138 1.632-.015.131.051.618 1.567 1.36 3.716 1.826 9.223-.59 9.278-.614a.485.485 0 01.197-.042z"/><path class="st0" d="M41.586 23.646l-3.702 12.841 8.16-11.661"/><path class="st2" d="M37.884 36.97a.484.484 0 01-.465-.618l3.702-12.84a.484.484 0 11.93.268l-2.898 10.048 6.494-9.28a.484.484 0 01.793.555l-8.16 11.661a.484.484 0 01-.396.207z"/><path class="st2" d="M51.684 26.165c-.35 0-.699-.044-1.038-.13a.484.484 0 11.239-.938 3.367 3.367 0 002.585-.411 4.386 4.386 0 001.944-2.737 4.018 4.018 0 00-2.575-4.972c-.35-.09-.713-.12-1.072-.089a.483.483 0 01-.524-.494 4.964 4.964 0 00-3.499-5.12 4.815 4.815 0 00-5.4 2.806.484.484 0 01-.704.187 3.336 3.336 0 00-1.05-.472 3.426 3.426 0 00-2.63.416A4.472 4.472 0 0035.978 17a4.09 4.09 0 002.624 5.06.484.484 0 11-.239.938 5.056 5.056 0 01-3.326-6.226 5.445 5.445 0 012.424-3.389 4.39 4.39 0 013.366-.525c.31.079.61.192.896.338a5.703 5.703 0 016.26-2.858 5.856 5.856 0 014.221 5.576c.295.011.587.054.873.127a4.985 4.985 0 013.278 6.136 5.365 5.365 0 01-2.385 3.34c-.689.42-1.48.644-2.286.649z"/><path class="st0" d="M19.068 41.555a4.168 4.168 0 00-3.077.034c-.598.392-.19 1.013.914 1.388.992.38 2.093.368 3.077-.034.598-.392.19-1.014-.914-1.388m4.339 1.585a4.183 4.183 0 00-3.078.034c-.597.392-.188 1.013.914 1.387.993.38 2.094.369 3.078-.033.596-.393.188-1.013-.914-1.388"/><path class="st2" d="M17.439 42.625c-.56-.188-.767-.503-.464-.703a2.114 2.114 0 011.56-.016c.558.189.766.503.463.703a2.116 2.116 0 01-1.56.016m4.339 1.585c-.56-.19-.767-.504-.463-.703a2.115 2.115 0 011.559-.016c.558.19.766.505.463.702a2.112 2.112 0 01-1.56.018"/><path class="st0" d="M58.952 36.571s2.522-1.707 4.423-1.07"/><path class="st2" d="M58.951 37.055a.484.484 0 01-.271-.885c.111-.075 2.753-1.835 4.848-1.128a.483.483 0 11-.306.917c-1.378-.46-3.354.576-4 1.013a.483.483 0 01-.27.083z"/><path class="st0" d="M59.953 33.264a4.638 4.638 0 012.169-.626"/><path class="st2" d="M59.953 33.748a.483.483 0 01-.243-.902 4.945 4.945 0 012.451-.69.484.484 0 11-.078.965 4.116 4.116 0 00-1.889.563.48.48 0 01-.24.064z"/><path class="st0" d="M31.544 33.288a4.837 4.837 0 00-5.508-1.876"/><path class="st2" d="M31.544 33.771a.482.482 0 01-.389-.196 4.347 4.347 0 00-5-1.694.484.484 0 01-.237-.938A5.356 5.356 0 0131.933 33a.484.484 0 01-.102.677.478.478 0 01-.287.094z"/><path class="st0" d="M31.015 29.798a2.683 2.683 0 00-2.493-1.01"/><path class="st2" d="M31.016 30.282a.483.483 0 01-.375-.178 2.205 2.205 0 00-2.06-.835.484.484 0 11-.116-.961 3.175 3.175 0 012.926 1.185.484.484 0 01-.375.79z"/></g><path class="st2" d="M45.104 71.56H29.918C15.293 71.543 3.441 59.691 3.425 45.066V29.88C3.44 15.256 15.293 3.403 29.918 3.386h15.186c14.626.017 26.478 11.87 26.494 26.495v15.185C71.58 59.69 59.73 71.543 45.104 71.56zM29.918 6.612C17.073 6.627 6.664 17.036 6.65 29.882v15.184C6.665 57.91 17.073 68.32 29.918 68.334h15.186C57.95 68.32 68.358 57.91 68.372 45.066V29.88C68.358 17.036 57.95 6.627 45.104 6.611H29.918z"/><path class="st3" d="M29.882 0h15.185C61.57 0 74.948 13.378 74.948 29.881v15.186c0 16.503-13.377 29.88-29.88 29.88H29.881C13.378 74.947 0 61.57 0 45.066V29.882C0 13.379 13.379 0 29.882 0z"/><path class="st3" d="M29.882 5h15.185c13.741 0 24.88 11.14 24.88 24.881v15.186c0 13.741-11.138 24.88-24.879 24.88H29.882C16.14 69.947 5 58.807 5 45.066V29.881C5 16.14 16.14 5 29.882 5z"/></g></svg>