<svg xmlns="http://www.w3.org/2000/svg" viewBox="0 0 562.97 301.53"><style>.st0{fill:#fff}.st1{fill:#e5e5e6}.st2{fill:#c8c9ca}.st3{fill:#9e9e9f}.st4{fill:#231815}.st5{fill:#e84720}.st6{fill:#005bab}.st7{fill:none;stroke:#231815;stroke-width:.5;stroke-linejoin:round;stroke-miterlimit:10}.st8{fill:#666}.st10,.st9{stroke:#231815;stroke-width:.5;stroke-miterlimit:10}.st9{fill:#e84720;stroke-linejoin:round}.st10{fill:#005bab}.st11{fill:#e8e8e9}.st12{fill:#fffdfd}.st14{fill:none;stroke:#bfd833;stroke-width:.75;stroke-miterlimit:10}.st18{fill:#bfd833}.st19{stroke-width:.75;stroke-dasharray:.9982,1.9963}.st19,.st20,.st21{fill:none;stroke:#bfd833;stroke-miterlimit:10}.st20{stroke-width:.75;stroke-dasharray:2.9945,1.9963,.9982,1.9963}.st21{stroke-width:.5}.st22{stroke-width:.75;stroke-dasharray:.9979,1.9958}.st22,.st23,.st24{fill:none;stroke:#bfd833;stroke-miterlimit:10}.st23{stroke-width:.75;stroke-dasharray:2.9938,1.9958,.9979,1.9958}.st24{stroke-width:.5;stroke-linecap:round}</style><g id="レイヤー_3"><path class="st0" d="M520.87 124.65l-3.39 1.61v.08h-52.76l-1.41-1.41v-5.57h-1.55a.85.85 0 00-.85.85v1.97h-1.97a.85.85 0 01-.85-.85v-12.41c0-.47.38-.85.85-.85l4.37-.11v-11l-4.37-.11c-.47 0-.85-.38-.85-.84V66.98c0-.47.38-.85.85-.85l4.37-.11v-11l-4.37-.11a.85.85 0 01-.85-.85V41.64c0-.47.38-.85.85-.85h1.97v1.98c0 .47.38.85.85.85h1.55v-5.57l1.41-1.41h52.76v.09l3.39 1.61v.85l1.37 1.15a5.618 5.618 0 012.01 4.32v5.98c0 1.67-.74 3.25-2.01 4.32l-1.37 1.15v1.75c.32.3.63.61.93.93 6.62 7.14 6.21 18.29-.93 24.92v19.89h.2c.27.01.54.09.77.24l1.94 1.31a6.201 6.201 0 012.74 5.14v5.06c0 2.06-1.03 3.99-2.74 5.14l-1.94 1.31c-.23.15-.49.24-.77.24h-.2v2.61z"/><path class="st1" d="M520.87 103.58h.2c.27.01.54.09.77.24l1.94 1.31a6.201 6.201 0 012.74 5.14v5.06c0 2.06-1.03 3.99-2.74 5.14l-1.94 1.31c-.23.15-.49.24-.77.24h-.2v-18.44z"/><path class="st2" d="M520.88 57.85c.32.3.63.61.93.93 6.62 7.14 6.21 18.29-.93 24.92V57.85z"/><path class="st3" d="M461.17 73.64c0 .14-.11.25-.25.25h-1.99l-.11-.01h-.02l-.11-.02c-.01 0-.02 0-.03-.01l-.11-.03c-.01 0-.01 0-.02-.01l-.1-.03c-.01 0-.02-.01-.03-.01l-.09-.04c-.01 0-.02-.01-.02-.01l-.08-.05c-.01-.01-.02-.01-.03-.02l-.07-.06c-.01-.01-.02-.02-.03-.02l-.06-.06c-.01-.01-.02-.02-.02-.03l-.05-.07c-.01-.01-.01-.02-.02-.03l-.03-.07c-.01-.02-.01-.03-.02-.04l-.02-.08c0-.02-.01-.03-.01-.05l-.01-.08c-.03-.33.47-.37.49-.04l.01.05.01.04.02.04.03.04.04.04.05.04.06.03.07.03.07.03.08.02.08.01.1.01h1.97c.14-.01.25.11.25.24zm.85 13.71v9.51c0 .33-.5.33-.5 0v-9.51c0-.34.5-.34.5 0zm0-21.22v9.51c0 .33-.5.33-.5 0v-9.51c0-.33.5-.33.5 0zm1.68-28.09v86.89c0 .5-.75.5-.75 0V38.04c0-.49.75-.49.75 0zm1.41-1.41v89.71c0 .5-.75.5-.75 0V36.63c0-.49.75-.49.75 0zm7.61 0v89.71c0 .5-.75.5-.75 0V36.63c.01-.49.75-.49.75 0zm27.09 0v89.71c0 .5-.75.5-.75 0V36.63c0-.49.75-.49.75 0zm18.05 0v89.71c0 .5-.75.5-.75 0V36.63c.01-.49.75-.49.75 0zm3.39 1.7v86.33c0 .5-.75.5-.75 0V38.33c0-.5.75-.5.75 0z"/><path class="st3" d="M459.2 108.08v14.11c0 .33-.5.33-.5 0v-14.11c0-.33.5-.33.5 0zm4.37-30.87c0 .14-.11.25-.25.25h-4.39l-.11-.01h-.02l-.11-.02c-.01 0-.02 0-.02-.01l-.11-.03-.02-.01-.1-.03c-.01 0-.02-.01-.03-.01l-.09-.04c-.01 0-.02-.01-.02-.01l-.08-.05c-.01-.01-.02-.01-.03-.02l-.07-.06c-.01-.01-.02-.01-.02-.02l-.06-.06c-.01-.01-.02-.02-.02-.03l-.05-.07c-.01-.01-.02-.02-.02-.04l-.04-.07c0-.01-.01-.03-.01-.04l-.02-.08c0-.02-.01-.03-.01-.05l-.01-.08c-.03-.33.47-.37.49-.04l.01.05.01.04.02.04.03.04.04.04.05.04.06.04.07.03.07.02.08.02.09.01.09.01h4.37c.12 0 .23.11.23.25z"/><path class="st3" d="M459.2 40.79V54.9c0 .33-.5.33-.5 0V40.79c0-.33.5-.33.5 0zm0 25.34v30.72c0 .33-.5.33-.5 0V66.13c0-.33.5-.33.5 0z"/><path class="st3" d="M463.57 85.77c0 .14-.11.25-.25.25h-4.46l-.08.01-.08.02-.08.03-.07.03-.06.04-.05.04-.04.04-.03.04-.02.04-.01.03-.01.05c-.03.33-.52.28-.49-.05l.01-.07c0-.02.01-.03.01-.05l.02-.08c0-.01.01-.03.01-.04l.04-.07c.01-.01.01-.02.02-.03l.05-.07c.01-.01.02-.02.02-.03l.06-.07c.01-.01.02-.02.03-.02l.07-.06c.01-.01.02-.01.03-.02l.08-.05c.01 0 .02-.01.03-.01l.09-.04.02-.01.1-.04.02-.01.1-.03h.02l.11-.02h4.52c.16.01.27.12.27.25zm-2.4 3.57c0 .14-.11.25-.25.25h-2.06l-.08.01-.08.02-.08.03-.07.03-.06.04-.05.04-.04.04-.03.04-.02.04-.01.03-.01.06c-.03.32-.52.28-.49-.04l.01-.08c0-.02.01-.03.01-.05l.02-.07c0-.01.01-.03.02-.04l.03-.07c.01-.01.01-.02.02-.03l.05-.07c.01-.01.02-.02.02-.03l.06-.07c.01-.01.02-.02.03-.02l.07-.06.02-.02.08-.05c.01-.01.02-.01.03-.02l.09-.04.02-.01.1-.03c.01-.01.02-.01.03-.01l.1-.02.02-.01.11-.02h.03l.11-.01h1.99c.15-.01.26.1.26.24z"/><path class="st3" d="M463.7 75.64c0 .21-.17.37-.37.37h-1.55c-.67 0-1.22-.54-1.22-1.22v-8.53c0-.03 0-.05.01-.07l.01-.03c.01-.05.03-.1.06-.14l.02-.03c.02-.03.05-.06.09-.09l.03-.02c.02-.02.05-.03.08-.04l.04-.02c.02-.01.03-.01.05-.02l.05-.01c.01 0 .02-.01.03-.01l.06-.01c.01 0 .02 0 .03-.01l.07-.01h.01l.17-.01h.11c.2 0 .37.17.38.37 0 .21-.17.37-.37.37l-.17.01v8.28c0 .26.21.47.47.47h1.55c.19.02.36.19.36.4zm0 11.71c0 .21-.17.37-.37.37h-1.55a.47.47 0 00-.47.47v8.28l.27.01c.5 0 .5.75 0 .75H461.37l-.17-.01h-.02l-.07-.01h-.02l-.06-.01c-.02 0-.03 0-.04-.01l-.05-.01c-.02-.01-.04-.01-.05-.02l-.04-.02-.06-.03-.03-.02a.902.902 0 01-.1-.09l-.02-.02a.35.35 0 01-.06-.14l-.01-.03c0-.03-.01-.05-.01-.07v-8.53c0-.67.55-1.22 1.22-1.22h1.55c.2-.02.37.15.37.36z"/><path class="st4" d="M520.38 124.34v-2.31c0-.27.22-.49.49-.5h.21c.18 0 .35-.06.49-.16l1.94-1.31a5.724 5.724 0 002.52-4.73v-5.06c0-1.9-.94-3.67-2.52-4.73l-1.94-1.31a.982.982 0 00-.49-.16h-.21a.506.506 0 01-.49-.5V83.68c0-.14.06-.27.16-.36 3.33-3.09 5.29-7.38 5.47-11.92a17.114 17.114 0 00-5.47-13.2.5.5 0 01-.16-.36V56.1c0-.15.06-.29.18-.38l1.37-1.15a5.133 5.133 0 001.84-3.94v-5.98c0-1.52-.67-2.97-1.84-3.94l-1.37-1.15a.51.51 0 01-.18-.38v-.53l-3.1-1.47c-.02-.01-.04-.02-.07-.04h-52.27l-1.12 1.12v5.37c0 .27-.22.5-.5.5h-1.55c-.74 0-1.34-.6-1.35-1.34v-1.48h-1.48c-.19 0-.35.16-.35.35v12.41c0 .19.16.35.35.35h.01l4.38.11c.27.01.48.23.48.5v11c0 .27-.21.49-.48.5l-4.38.12h-.01c-.19 0-.35.16-.35.35v29.03c0 .19.16.35.35.35h.01l4.38.11c.27.01.48.23.48.5v11c0 .27-.21.49-.48.5l-4.38.11h-.01c-.19 0-.35.16-.35.35v12.41c0 .19.16.35.35.35h1.48v-1.48c0-.74.6-1.34 1.35-1.35h1.55c.27 0 .5.22.5.5v5.37l1.12 1.12h52.27c.02-.01.04-.03.07-.04l3.1-1.49zm6.63-14.06v5.06a6.71 6.71 0 01-2.96 5.56l-1.93 1.31c-.23.15-.48.25-.75.3v2.15c0 .19-.11.37-.29.45l-3.18 1.51c-.09.15-.25.23-.42.23h-52.76a.47.47 0 01-.35-.15l-1.41-1.41a.51.51 0 01-.15-.35v-5.08h-1.05c-.19 0-.35.16-.35.35v1.97c0 .27-.22.5-.5.5h-1.97c-.74 0-1.34-.6-1.34-1.34v-12.41c0-.74.6-1.34 1.33-1.35l3.88-.1V97.45l-3.88-.1c-.74 0-1.33-.6-1.33-1.34V66.98c0-.74.6-1.34 1.33-1.34l3.88-.1V55.5l-3.88-.1c-.74-.01-1.33-.61-1.33-1.34V41.64c0-.74.6-1.34 1.34-1.35h1.97c.27 0 .5.22.5.5v1.98c0 .19.16.35.35.35h1.05v-5.07c0-.13.05-.26.15-.35l1.41-1.41a.5.5 0 01.35-.14h52.76c.17 0 .33.09.42.23l3.18 1.51c.17.08.29.26.29.45v.61l1.19 1a6.128 6.128 0 012.19 4.7v5.98c0 1.81-.8 3.54-2.19 4.7l-1.19 1v1.3c.28.26.54.53.8.81 6.75 7.28 6.4 18.63-.8 25.47v19.2c.27.05.52.15.75.3l1.94 1.31a6.662 6.662 0 012.95 5.56z"/><g><path class="st0" d="M31.49 36.63h84.07c1.56 0 2.83 1.26 2.83 2.83v84.07c0 1.56-1.26 2.82-2.83 2.82H31.49c-1.56 0-2.82-1.26-2.82-2.82V39.46c0-1.56 1.26-2.82 2.82-2.83z"/><path class="st3" d="M65.41 53.8c.08-.07 1.71-1.71 2.57-2.57.46-.46.72-1.08.72-1.73v-3.3c.01-.65-.25-1.27-.72-1.73l-2.58-2.59c-.46-.46-1.08-.72-1.73-.72h-2.7a2.46 2.46 0 00-2.45 2.45v8.47c0 1.35 1.1 2.45 2.45 2.45h2.7c.66 0 1.28-.26 1.74-.73zm-4.43-13.38h2.7c.85 0 1.66.34 2.26.93l2.58 2.58c.6.6.94 1.42.94 2.26v3.3c0 .85-.34 1.66-.94 2.26l-2.17 2.18c-.2.2-.33.32-.41.4h.01c-.6.6-1.41.94-2.26.93h-2.7c-1.76 0-3.19-1.43-3.19-3.19V43.6c-.01-1.75 1.42-3.18 3.18-3.18zm25.08 14.11c1.35 0 2.45-1.1 2.45-2.45v-8.47c0-1.35-1.09-2.45-2.45-2.45h-2.69c-.66 0-1.28.26-1.73.72l-2.58 2.59c-.46.46-.72 1.08-.72 1.73v3.3c0 .66.25 1.28.72 1.73l2.57 2.58h.01c.46.46 1.08.72 1.73.72h2.69zm-2.7-14.11h2.7c1.77 0 3.19 1.43 3.19 3.19v8.47c0 1.76-1.43 3.19-3.19 3.19h-2.69c-.85 0-1.66-.34-2.26-.94l.01-.01c-.14-.13-.28-.26-.41-.39l-2.17-2.18c-.6-.6-.94-1.41-.94-2.26v-3.3c0-.84.34-1.66.94-2.26l2.58-2.58c.58-.59 1.4-.93 2.24-.93zm-7.55 73.25h-4.58c-.85-.01-1.66-.34-2.25-.94l-3.57-3.56c-.46-.46-1.08-.72-1.73-.72h-2.7c-1.35 0-2.45 1.1-2.45 2.45v8.46c0 1.35 1.1 2.45 2.45 2.45h2.7c.65.01 1.27-.25 1.73-.71l3.57-3.57c.6-.6 1.41-.93 2.25-.93h4.58c.85-.01 1.66.33 2.26.93l3.56 3.57c.46.46 1.09.72 1.73.71h2.69c1.35 0 2.45-1.09 2.45-2.45v-8.46a2.46 2.46 0 00-2.45-2.45h-2.69c-.65 0-1.28.25-1.73.72l-3.56 3.56c-.6.61-1.41.94-2.26.94zm-14.83-5.96h2.7c.85-.01 1.66.33 2.26.93l3.57 3.56c.46.46 1.08.72 1.73.72h4.58c.65.01 1.27-.25 1.73-.72l3.57-3.56c.6-.6 1.41-.94 2.25-.93h2.7c1.77 0 3.19 1.43 3.19 3.19v8.46c0 1.77-1.43 3.19-3.19 3.19h-2.69c-.85.01-1.66-.33-2.26-.93l-3.57-3.57c-.46-.46-1.08-.71-1.73-.72h-4.58c-.65.01-1.27.26-1.73.72l-3.57 3.57c-.6.6-1.41.93-2.26.93h-2.7c-1.76 0-3.19-1.43-3.19-3.19v-8.46c0-1.76 1.43-3.19 3.19-3.19zM44.11 96.48c1.35 0 2.45-1.09 2.45-2.45v-2.7c0-.65-.25-1.27-.72-1.73l-3.56-3.57c-.6-.6-.94-1.41-.94-2.25V79.2c0-.85.34-1.66.94-2.26l3.56-3.57c.46-.46.72-1.08.72-1.73v-2.69c0-1.35-1.1-2.45-2.45-2.45h-8.46c-1.35 0-2.45 1.09-2.45 2.45v2.7c-.01.65.25 1.27.71 1.73l3.57 3.57c.6.6.94 1.41.93 2.26v4.58c.01.85-.33 1.66-.93 2.25l-3.57 3.57c-.46.46-.72 1.08-.71 1.73v2.7c0 1.35 1.09 2.45 2.45 2.45h8.46zm-8.46-30.72h8.46c1.77 0 3.19 1.43 3.19 3.19v2.69c.01.85-.33 1.66-.93 2.26l-3.56 3.57c-.46.46-.72 1.08-.72 1.73v4.58c-.01.65.25 1.27.72 1.73l3.56 3.57c.6.6.94 1.41.94 2.26v2.7a3.199 3.199 0 01-3.19 3.19h-8.47c-1.77 0-3.19-1.43-3.19-3.19v-2.69c0-.85.34-1.66.93-2.26l3.57-3.57c.46-.46.72-1.08.72-1.73V79.2c0-.65-.26-1.27-.72-1.73l-3.57-3.57c-.6-.6-.93-1.41-.93-2.25v-2.7a3.173 3.173 0 013.19-3.19zm75.74 30.72c1.35 0 2.45-1.09 2.45-2.45v-2.7c.01-.65-.25-1.27-.71-1.73l-3.57-3.57c-.6-.6-.94-1.41-.93-2.25V79.2c-.01-.85.33-1.66.93-2.26l3.57-3.57c.46-.46.72-1.08.71-1.73v-2.69c0-1.35-1.09-2.45-2.45-2.45h-8.47c-1.35 0-2.45 1.09-2.45 2.45v2.7c0 .65.25 1.27.72 1.73l3.56 3.57c.6.6.94 1.41.94 2.26v4.58c-.01.85-.34 1.66-.94 2.25l-3.56 3.57c-.46.46-.72 1.08-.72 1.73v2.7c0 1.35 1.1 2.45 2.45 2.45h8.47zm-8.46-30.72h8.47c1.77 0 3.19 1.43 3.19 3.19v2.69c.01.85-.34 1.66-.93 2.26l-3.57 3.57c-.46.46-.72 1.08-.72 1.73v4.58c0 .65.26 1.27.72 1.73l3.57 3.57c.6.6.93 1.41.93 2.26v2.7c0 1.77-1.43 3.19-3.19 3.19h-8.47c-1.76 0-3.19-1.43-3.19-3.19v-2.69c0-.85.34-1.66.94-2.26l3.56-3.57c.46-.46.72-1.08.72-1.73V79.2c.01-.65-.25-1.27-.72-1.73l-3.56-3.57c-.6-.6-.94-1.41-.94-2.25v-2.7c0-1.77 1.43-3.19 3.19-3.19z"/><path class="st4" d="M115.55 125.85c1.28 0 2.32-1.04 2.32-2.32V39.46c0-1.28-1.04-2.32-2.32-2.32H31.49c-1.28 0-2.32 1.04-2.32 2.32v84.07c0 1.28 1.04 2.32 2.32 2.32h84.06zM31.49 36.14h84.07c1.84 0 3.32 1.49 3.32 3.32v84.07a3.325 3.325 0 01-3.32 3.32H31.49a3.325 3.325 0 01-3.32-3.32V39.46c0-1.84 1.48-3.32 3.32-3.32z"/><path class="st3" d="M115.55 124.68c.64 0 1.16-.52 1.16-1.16V39.46c0-.64-.52-1.16-1.16-1.16H31.49c-.64 0-1.16.52-1.16 1.16v84.07c0 .64.52 1.16 1.16 1.16h84.06zM31.49 37.79h84.07c.91.01 1.66.74 1.66 1.66v84.07c-.01.91-.74 1.66-1.66 1.66H31.48c-.92-.01-1.66-.75-1.66-1.66V39.46c0-.92.75-1.66 1.67-1.67z"/><path class="st3" d="M64.9 42.4c-.33-.32-.76-.51-1.22-.51h-2.7c-.95 0-1.72.77-1.73 1.73v8.47c.01.95.77 1.72 1.73 1.72h2.7c.46 0 .9-.18 1.22-.5l.01-.02 2.57-2.56c.33-.32.51-.76.51-1.23v-3.3c0-.46-.18-.9-.51-1.22L64.9 42.4zm-3.92-1.01h2.7c.59 0 1.15.24 1.57.65l-.01.01c.08.06.2.19.41.4l2.18 2.17c.42.42.65.99.65 1.58v3.3c0 .59-.23 1.16-.65 1.58l-2.6 2.6c-.41.41-.97.63-1.55.63h-2.7c-1.23 0-2.22-1-2.22-2.22v-8.47c0-1.23.99-2.23 2.22-2.23zM86.06 53.8c.95 0 1.73-.77 1.73-1.72v-8.47c0-.95-.77-1.73-1.73-1.73h-2.69c-.46 0-.9.18-1.23.51l-2.58 2.58c-.32.32-.51.76-.5 1.22v3.3c0 .46.18.9.5 1.23l2.57 2.57.01.01c.32.32.76.5 1.22.5h2.7zm-2.7-12.41h2.7c1.23 0 2.22 1 2.22 2.22v8.47c0 1.23-1 2.22-2.22 2.22h-2.69c-.59-.01-1.14-.23-1.56-.64l-2.59-2.59c-.42-.41-.65-.98-.65-1.58v-3.3c0-.59.23-1.16.65-1.58l2.17-2.17c.22-.21.34-.34.41-.4l-.01-.01c.42-.4.99-.64 1.57-.64zm-7.55 73.01h-4.58c-1.04 0-2.03-.41-2.77-1.15l-3.56-3.57c-.32-.32-.76-.5-1.22-.5h-2.7c-.95 0-1.73.78-1.73 1.73v8.46c0 .95.77 1.73 1.73 1.73h2.7c.46 0 .9-.19 1.22-.51l3.56-3.56a3.99 3.99 0 012.77-1.15h4.58c1.04.01 2.03.42 2.77 1.15l3.56 3.56c.32.32.76.51 1.22.51h2.7c.95 0 1.73-.78 1.73-1.73v-8.46c0-.95-.77-1.73-1.73-1.73h-2.69c-.46 0-.9.18-1.23.5l-3.56 3.57c-.74.73-1.73 1.15-2.77 1.15zm-14.83-5.72h2.7c.59.01 1.15.24 1.57.65l3.57 3.57c.64.64 1.51 1 2.41 1h4.58c.91 0 1.78-.36 2.41-1l3.57-3.57c.42-.41.98-.65 1.58-.65h2.69c1.23.01 2.22 1 2.22 2.23v8.46c0 1.23-1 2.22-2.22 2.22h-2.69c-.59 0-1.16-.23-1.58-.65l-3.57-3.57c-.64-.63-1.51-1-2.41-1h-4.58c-.9 0-1.77.36-2.41 1l-3.57 3.57c-.42.41-.98.65-1.57.65h-2.7c-1.23-.01-2.22-1-2.22-2.22v-8.47c0-1.23.99-2.22 2.22-2.22zM44.11 95.76c.95 0 1.73-.77 1.73-1.73v-2.7c0-.46-.19-.9-.5-1.22l-3.57-3.56a3.854 3.854 0 01-1.14-2.77V79.2c-.01-1.04.41-2.03 1.14-2.77l3.57-3.56c.32-.32.51-.76.5-1.22v-2.7c0-.95-.77-1.73-1.72-1.73h-8.47c-.95 0-1.73.77-1.73 1.73v2.7c0 .46.18.9.51 1.22l3.56 3.56a3.99 3.99 0 011.15 2.77v4.58c0 1.04-.41 2.03-1.15 2.77l-3.56 3.56c-.32.32-.51.76-.51 1.22v2.7c0 .95.77 1.73 1.73 1.73h8.46zm-8.46-29.03h8.46c1.23 0 2.22 1 2.23 2.22v2.7c0 .59-.23 1.16-.65 1.57l-3.56 3.57a3.3 3.3 0 00-1 2.41v4.58c0 .91.36 1.78 1 2.41l3.56 3.57c.42.42.65.98.65 1.58v2.69c-.01 1.23-1 2.22-2.22 2.22h-8.47c-1.23 0-2.22-1-2.22-2.22v-2.7c0-.59.24-1.15.65-1.57l3.57-3.57c.64-.64 1-1.51 1-2.41V79.2c0-.9-.36-1.77-1-2.41l-3.57-3.57c-.42-.41-.65-.98-.65-1.58v-2.69c-.01-1.23.99-2.22 2.22-2.22zm75.74 29.03c.95 0 1.73-.77 1.73-1.73v-2.7c0-.46-.18-.9-.51-1.22l-3.56-3.56a3.905 3.905 0 01-1.15-2.77V79.2c-.01-1.04.41-2.03 1.15-2.77l3.56-3.56c.32-.32.51-.76.51-1.22v-2.7c0-.95-.77-1.73-1.73-1.73h-8.47c-.95 0-1.72.77-1.73 1.73v2.7c0 .46.19.9.51 1.22l3.57 3.56c.74.74 1.15 1.73 1.14 2.77v4.58c.01 1.04-.41 2.03-1.14 2.77l-3.57 3.56c-.32.32-.5.76-.51 1.22v2.7c.01.95.78 1.73 1.73 1.73h8.47zm-8.46-29.03h8.47c1.23 0 2.22 1 2.22 2.22v2.7c0 .59-.23 1.16-.65 1.57l-3.57 3.57c-.64.63-1 1.5-1 2.41v4.58c0 .91.36 1.78 1 2.41l3.57 3.57c.41.42.65.98.65 1.58v2.69c0 1.23-1 2.22-2.22 2.22h-8.47c-1.23 0-2.22-1-2.22-2.22v-2.7c0-.59.23-1.16.65-1.57l3.56-3.57c.65-.64 1-1.51 1-2.41V79.2c.01-.9-.36-1.78-1-2.41l-3.57-3.57c-.42-.41-.65-.98-.65-1.58v-2.69c.01-1.23 1-2.22 2.23-2.22z"/></g><g><path class="st0" d="M165.11 36.63h84.07c1.56 0 2.83 1.26 2.83 2.83v84.07c0 1.56-1.26 2.82-2.83 2.82h-84.07c-1.56 0-2.82-1.26-2.82-2.82V39.46c0-1.56 1.26-2.82 2.82-2.83z"/><path class="st3" d="M199.04 53.8c.08-.07 1.71-1.71 2.57-2.57.46-.46.72-1.08.72-1.73v-3.3c.01-.65-.25-1.27-.72-1.73l-2.58-2.59c-.46-.46-1.08-.72-1.73-.72h-2.7a2.46 2.46 0 00-2.45 2.45v8.47c0 1.35 1.1 2.45 2.45 2.45h2.7c.65 0 1.27-.26 1.74-.73zm-4.44-13.38h2.7c.85 0 1.66.34 2.26.93l2.58 2.58c.6.6.94 1.42.94 2.26v3.3c0 .85-.34 1.66-.94 2.26l-2.17 2.18c-.2.2-.33.32-.41.4h.01c-.6.6-1.41.94-2.26.93h-2.7c-1.76 0-3.19-1.43-3.19-3.19V43.6c0-1.75 1.43-3.18 3.18-3.18zm25.08 14.11c1.35 0 2.45-1.1 2.45-2.45v-8.47c0-1.35-1.09-2.45-2.45-2.45h-2.69c-.66 0-1.28.26-1.73.72l-2.58 2.59c-.46.46-.72 1.08-.72 1.73v3.3c0 .66.25 1.28.72 1.73l2.57 2.58h.01c.46.46 1.08.72 1.73.72h2.69zm-2.69-14.11h2.7c1.77 0 3.19 1.43 3.19 3.19v8.47c0 1.76-1.43 3.19-3.19 3.19H217c-.85 0-1.66-.34-2.26-.94l.01-.01c-.14-.13-.28-.26-.41-.39l-2.17-2.18c-.6-.6-.94-1.41-.94-2.26v-3.3c0-.84.34-1.66.94-2.26l2.58-2.58c.58-.59 1.39-.93 2.24-.93zm-7.56 73.25h-4.58c-.85-.01-1.66-.34-2.25-.94l-3.57-3.56c-.46-.46-1.08-.72-1.73-.72h-2.7c-1.35 0-2.45 1.1-2.45 2.45v8.46c0 1.35 1.1 2.45 2.45 2.45h2.7c.65.01 1.27-.25 1.73-.71l3.57-3.57c.6-.6 1.41-.93 2.25-.93h4.58c.85-.01 1.66.33 2.26.93l3.56 3.57c.46.46 1.09.72 1.73.71h2.69c1.35 0 2.45-1.09 2.45-2.45v-8.46a2.46 2.46 0 00-2.45-2.45h-2.69c-.65 0-1.28.25-1.73.72l-3.56 3.56c-.59.61-1.41.94-2.26.94zm-14.83-5.96h2.7c.85-.01 1.66.33 2.26.93l3.57 3.56c.46.46 1.08.72 1.73.72h4.58c.65.01 1.27-.25 1.73-.72l3.57-3.56c.6-.6 1.41-.94 2.25-.93h2.7c1.77 0 3.19 1.43 3.19 3.19v8.46c0 1.77-1.43 3.19-3.19 3.19H217c-.85.01-1.66-.33-2.26-.93l-3.57-3.57c-.46-.46-1.08-.71-1.73-.72h-4.58c-.65.01-1.27.26-1.73.72l-3.57 3.57c-.6.6-1.41.93-2.26.93h-2.7c-1.76 0-3.19-1.43-3.19-3.19v-8.46c.01-1.76 1.44-3.19 3.19-3.19zm-16.87-11.23c1.35 0 2.45-1.09 2.45-2.45v-2.7c0-.65-.25-1.27-.72-1.73l-3.56-3.57c-.6-.6-.94-1.41-.94-2.25V79.2c0-.85.34-1.66.94-2.26l3.56-3.57c.46-.46.72-1.08.72-1.73v-2.69c0-1.35-1.1-2.45-2.45-2.45h-8.46c-1.35 0-2.45 1.09-2.45 2.45v2.7c-.01.65.25 1.27.71 1.73l3.57 3.57c.6.6.94 1.41.93 2.26v4.58c.01.85-.33 1.66-.93 2.25l-3.57 3.57c-.46.46-.72 1.08-.71 1.73v2.7c0 1.35 1.09 2.45 2.45 2.45h8.46zm-8.46-30.72h8.46c1.77 0 3.19 1.43 3.19 3.19v2.69c.01.85-.33 1.66-.93 2.26l-3.56 3.57c-.46.46-.72 1.08-.72 1.73v4.58c-.01.65.25 1.27.72 1.73l3.56 3.57c.6.6.94 1.41.94 2.26v2.7a3.199 3.199 0 01-3.19 3.19h-8.47c-1.77 0-3.19-1.43-3.19-3.19v-2.69c0-.85.34-1.66.93-2.26l3.57-3.57c.46-.46.72-1.08.72-1.73V79.2c0-.65-.26-1.27-.72-1.73l-3.57-3.57c-.6-.6-.93-1.41-.93-2.25v-2.7c0-1.77 1.43-3.19 3.19-3.19zm75.75 30.72c1.35 0 2.45-1.09 2.45-2.45v-2.7c.01-.65-.25-1.27-.71-1.73l-3.57-3.57c-.6-.6-.94-1.41-.93-2.25V79.2c-.01-.85.33-1.66.93-2.26l3.57-3.57c.46-.46.72-1.08.71-1.73v-2.69c0-1.35-1.09-2.45-2.45-2.45h-8.47c-1.35 0-2.45 1.09-2.45 2.45v2.7c0 .65.25 1.27.72 1.73l3.56 3.57c.6.6.94 1.41.94 2.26v4.58c-.01.85-.34 1.66-.94 2.25l-3.56 3.57c-.46.46-.72 1.08-.72 1.73v2.7c0 1.35 1.1 2.45 2.45 2.45h8.47zm-8.47-30.72h8.47c1.77 0 3.19 1.43 3.19 3.19v2.69c.01.85-.34 1.66-.93 2.26l-3.57 3.57c-.46.46-.72 1.08-.72 1.73v4.58c0 .65.26 1.27.72 1.73l3.57 3.57c.6.6.93 1.41.93 2.26v2.7c0 1.77-1.43 3.19-3.19 3.19h-8.47c-1.76 0-3.19-1.43-3.19-3.19v-2.69c0-.85.34-1.66.94-2.26l3.56-3.57c.46-.46.72-1.08.72-1.73V79.2c.01-.65-.25-1.27-.72-1.73l-3.56-3.57c-.6-.6-.94-1.41-.94-2.25v-2.7c0-1.77 1.43-3.19 3.19-3.19z"/><path class="st4" d="M249.18 125.85c1.28 0 2.32-1.04 2.32-2.32V39.46c0-1.28-1.04-2.32-2.32-2.32h-84.07c-1.28 0-2.32 1.04-2.32 2.32v84.07c0 1.28 1.04 2.32 2.32 2.32h84.07zm-84.07-89.71h84.07c1.84 0 3.32 1.49 3.32 3.32v84.07a3.325 3.325 0 01-3.32 3.32h-84.07a3.325 3.325 0 01-3.32-3.32V39.46a3.325 3.325 0 013.32-3.32z"/><path class="st3" d="M249.18 124.68c.64 0 1.16-.52 1.16-1.16V39.46c0-.64-.52-1.16-1.16-1.16h-84.07c-.64 0-1.16.52-1.16 1.16v84.07c0 .64.52 1.16 1.16 1.16h84.07zm-84.07-86.89h84.07c.91.01 1.66.74 1.66 1.66v84.07c-.01.91-.74 1.66-1.66 1.66h-84.07c-.92-.01-1.66-.75-1.66-1.66V39.46c0-.92.74-1.66 1.66-1.67z"/><path class="st3" d="M198.52 42.4c-.33-.32-.76-.51-1.22-.51h-2.7c-.95 0-1.72.77-1.73 1.73v8.47c.01.95.77 1.72 1.73 1.72h2.7c.46 0 .9-.18 1.22-.5l.01-.02 2.57-2.56c.33-.32.51-.76.51-1.23v-3.3c0-.46-.18-.9-.51-1.22-.86-.87-2.51-2.51-2.58-2.58zm-3.92-1.01h2.7c.59 0 1.15.24 1.57.65l-.01.01c.08.06.2.19.41.4l2.18 2.17c.42.42.65.99.65 1.58v3.3c0 .59-.23 1.16-.65 1.58l-2.6 2.6c-.41.41-.97.63-1.55.63h-2.7c-1.23 0-2.22-1-2.22-2.22v-8.47c0-1.23 1-2.23 2.22-2.23zm25.08 12.41c.95 0 1.73-.77 1.73-1.72v-8.47c0-.95-.77-1.73-1.73-1.73h-2.69c-.46 0-.9.18-1.23.51l-2.58 2.58c-.32.32-.51.76-.5 1.22v3.3c0 .46.18.9.5 1.23l2.57 2.57.01.01c.32.32.76.5 1.22.5h2.7zm-2.69-12.41h2.7c1.23 0 2.22 1 2.22 2.22v8.47c0 1.23-1 2.22-2.22 2.22H217c-.59-.01-1.14-.23-1.56-.64l-2.59-2.59c-.42-.41-.65-.98-.65-1.58v-3.3c0-.59.23-1.16.65-1.58l2.17-2.17c.22-.21.34-.34.41-.4l-.01-.01c.42-.4.98-.64 1.57-.64zm-7.56 73.01h-4.58c-1.04 0-2.03-.41-2.77-1.15l-3.56-3.57c-.32-.32-.76-.5-1.22-.5h-2.7c-.95 0-1.73.78-1.73 1.73v8.46c0 .95.77 1.73 1.73 1.73h2.7c.46 0 .9-.19 1.22-.51l3.56-3.56a3.99 3.99 0 012.77-1.15h4.58c1.04.01 2.03.42 2.77 1.15l3.56 3.56c.32.32.76.51 1.22.51h2.7c.95 0 1.73-.78 1.73-1.73v-8.46c0-.95-.77-1.73-1.73-1.73h-2.69c-.46 0-.9.18-1.23.5l-3.56 3.57a3.93 3.93 0 01-2.77 1.15zm-14.83-5.72h2.7c.59.01 1.15.24 1.57.65l3.57 3.57c.64.64 1.51 1 2.41 1h4.58c.91 0 1.78-.36 2.41-1l3.57-3.57c.42-.41.98-.65 1.58-.65h2.69c1.23.01 2.22 1 2.22 2.23v8.46c0 1.23-1 2.22-2.22 2.22h-2.69c-.59 0-1.16-.23-1.58-.65l-3.57-3.57c-.64-.63-1.51-1-2.41-1h-4.58c-.9 0-1.77.36-2.41 1l-3.57 3.57c-.42.41-.98.65-1.57.65h-2.7c-1.23-.01-2.22-1-2.22-2.22v-8.47c0-1.23 1-2.22 2.22-2.22zm-16.87-12.92c.95 0 1.73-.77 1.73-1.73v-2.7c0-.46-.19-.9-.5-1.22l-3.57-3.56a3.854 3.854 0 01-1.14-2.77V79.2c-.01-1.04.41-2.03 1.14-2.77l3.57-3.56c.32-.32.51-.76.5-1.22v-2.7c0-.95-.77-1.73-1.72-1.73h-8.47c-.95 0-1.73.77-1.73 1.73v2.7c0 .46.18.9.51 1.22l3.56 3.56a3.99 3.99 0 011.15 2.77v4.58c0 1.04-.41 2.03-1.15 2.77l-3.56 3.56c-.32.32-.51.76-.51 1.22v2.7c0 .95.77 1.73 1.73 1.73h8.46zm-8.46-29.03h8.46c1.23 0 2.22 1 2.23 2.22v2.7c0 .59-.23 1.16-.65 1.57l-3.56 3.57a3.3 3.3 0 00-1 2.41v4.58c0 .91.36 1.78 1 2.41l3.56 3.57c.42.42.65.98.65 1.58v2.69c-.01 1.23-1 2.22-2.22 2.22h-8.47c-1.23 0-2.22-1-2.22-2.22v-2.7c0-.59.24-1.15.65-1.57l3.57-3.57c.64-.64 1-1.51 1-2.41V79.2c0-.9-.36-1.77-1-2.41l-3.57-3.57c-.42-.41-.65-.98-.65-1.58v-2.69c0-1.23.99-2.22 2.22-2.22zm75.75 29.03c.95 0 1.73-.77 1.73-1.73v-2.7c0-.46-.18-.9-.51-1.22l-3.56-3.56a3.905 3.905 0 01-1.15-2.77V79.2c-.01-1.04.41-2.03 1.15-2.77l3.56-3.56c.32-.32.51-.76.51-1.22v-2.7c0-.95-.77-1.73-1.73-1.73h-8.47c-.95 0-1.72.77-1.73 1.73v2.7c0 .46.19.9.51 1.22l3.57 3.56c.74.74 1.15 1.73 1.14 2.77v4.58c.01 1.04-.41 2.03-1.14 2.77l-3.57 3.56c-.32.32-.5.76-.51 1.22v2.7c.01.95.78 1.73 1.73 1.73h8.47zm-8.47-29.03h8.47c1.23 0 2.22 1 2.22 2.22v2.7c0 .59-.23 1.16-.65 1.57l-3.57 3.57c-.64.63-1 1.5-1 2.41v4.58c0 .91.36 1.78 1 2.41l3.57 3.57c.41.42.65.98.65 1.58v2.69c0 1.23-1 2.22-2.22 2.22h-8.47c-1.23 0-2.22-1-2.22-2.22v-2.7c0-.59.23-1.16.65-1.57l3.56-3.57c.65-.64 1-1.51 1-2.41V79.2c.01-.9-.36-1.78-1-2.41l-3.57-3.57c-.42-.41-.65-.98-.65-1.58v-2.69a2.236 2.236 0 012.23-2.22z"/></g><g><path class="st0" d="M298.74 36.63h84.07c1.56 0 2.83 1.26 2.83 2.83v84.07c0 1.56-1.26 2.82-2.83 2.82h-84.07c-1.56 0-2.82-1.26-2.82-2.82V39.46a2.819 2.819 0 012.82-2.83z"/><path class="st3" d="M332.66 53.8c.08-.07 1.71-1.71 2.57-2.57.46-.46.72-1.08.72-1.73v-3.3c.01-.65-.25-1.27-.72-1.73l-2.58-2.59c-.46-.46-1.08-.72-1.73-.72h-2.7a2.46 2.46 0 00-2.45 2.45v8.47c0 1.35 1.1 2.45 2.45 2.45h2.7c.66 0 1.28-.26 1.74-.73zm-4.43-13.38h2.7c.85 0 1.66.34 2.26.93l2.58 2.58c.6.6.94 1.42.94 2.26v3.3c0 .85-.34 1.66-.94 2.26l-2.17 2.18c-.2.2-.33.32-.41.4h.01c-.6.6-1.41.94-2.26.93h-2.7c-1.76 0-3.19-1.43-3.19-3.19V43.6c-.01-1.75 1.42-3.18 3.18-3.18zm25.08 14.11c1.35 0 2.45-1.1 2.45-2.45v-8.47c0-1.35-1.09-2.45-2.45-2.45h-2.69c-.66 0-1.28.26-1.73.72l-2.58 2.59c-.46.46-.72 1.08-.72 1.73v3.3c0 .66.25 1.28.72 1.73l2.57 2.58h.01c.46.46 1.08.72 1.73.72h2.69zm-2.7-14.11h2.7c1.77 0 3.19 1.43 3.19 3.19v8.47c0 1.76-1.43 3.19-3.19 3.19h-2.69c-.85 0-1.66-.34-2.26-.94l.01-.01c-.14-.13-.28-.26-.41-.39l-2.17-2.18c-.6-.6-.94-1.41-.94-2.26v-3.3c0-.84.34-1.66.94-2.26l2.58-2.58c.58-.59 1.39-.93 2.24-.93zm-7.55 73.25h-4.58c-.85-.01-1.66-.34-2.25-.94l-3.57-3.56c-.46-.46-1.08-.72-1.73-.72h-2.7c-1.35 0-2.45 1.1-2.45 2.45v8.46c0 1.35 1.1 2.45 2.45 2.45h2.7c.65.01 1.27-.25 1.73-.71l3.57-3.57c.6-.6 1.41-.93 2.25-.93h4.58c.85-.01 1.66.33 2.26.93l3.56 3.57c.46.46 1.09.72 1.73.71h2.69c1.35 0 2.45-1.09 2.45-2.45v-8.46a2.46 2.46 0 00-2.45-2.45h-2.69c-.65 0-1.28.25-1.73.72l-3.56 3.56c-.6.61-1.42.94-2.26.94zm-14.83-5.96h2.7c.85-.01 1.66.33 2.26.93l3.57 3.56c.46.46 1.08.72 1.73.72h4.58c.65.01 1.27-.25 1.73-.72l3.57-3.56c.6-.6 1.41-.94 2.26-.93h2.7c1.77 0 3.19 1.43 3.19 3.19v8.46c0 1.77-1.43 3.19-3.19 3.19h-2.69c-.85.01-1.66-.33-2.26-.93l-3.57-3.57c-.46-.46-1.08-.71-1.73-.72h-4.58c-.65.01-1.27.26-1.73.72l-3.57 3.57c-.6.6-1.41.93-2.26.93h-2.7c-1.76 0-3.19-1.43-3.19-3.19v-8.46a3.177 3.177 0 013.18-3.19zm-16.88-11.23c1.35 0 2.45-1.09 2.45-2.45v-2.7c0-.65-.25-1.27-.72-1.73l-3.56-3.57c-.6-.6-.94-1.41-.94-2.25V79.2c0-.85.34-1.66.94-2.26l3.56-3.57c.46-.46.72-1.08.72-1.73v-2.69c0-1.35-1.1-2.45-2.45-2.45h-8.46c-1.35 0-2.45 1.09-2.45 2.45v2.7c-.01.65.25 1.27.71 1.73l3.57 3.57c.6.6.94 1.41.93 2.26v4.58c.01.85-.33 1.66-.93 2.25l-3.57 3.57c-.46.46-.72 1.08-.71 1.73v2.7c0 1.35 1.09 2.45 2.45 2.45h8.46zm-8.46-30.72h8.46c1.77 0 3.19 1.43 3.19 3.19v2.69c.01.85-.33 1.66-.93 2.26l-3.56 3.57c-.46.46-.72 1.08-.72 1.73v4.58c-.01.65.25 1.27.72 1.73l3.56 3.57c.6.6.94 1.41.94 2.26v2.7a3.199 3.199 0 01-3.19 3.19h-8.47c-1.77 0-3.19-1.43-3.19-3.19v-2.69c0-.85.34-1.66.93-2.26l3.57-3.57c.46-.46.72-1.08.72-1.73V79.2c0-.65-.26-1.27-.72-1.73l-3.57-3.57c-.6-.6-.93-1.41-.93-2.25v-2.7c0-1.77 1.43-3.19 3.19-3.19zm75.75 30.72c1.35 0 2.45-1.09 2.45-2.45v-2.7c.01-.65-.25-1.27-.71-1.73l-3.57-3.57c-.6-.6-.94-1.41-.93-2.25V79.2c-.01-.85.33-1.66.93-2.26l3.57-3.57c.46-.46.72-1.08.71-1.73v-2.69c0-1.35-1.09-2.45-2.45-2.45h-8.47c-1.35 0-2.45 1.09-2.45 2.45v2.7c0 .65.25 1.27.72 1.73l3.56 3.57c.6.6.94 1.41.94 2.26v4.58c-.01.85-.34 1.66-.94 2.25l-3.56 3.57c-.46.46-.72 1.08-.72 1.73v2.7c0 1.35 1.1 2.45 2.45 2.45h8.47zm-8.46-30.72h8.47c1.77 0 3.19 1.43 3.19 3.19v2.69c.01.85-.34 1.66-.93 2.26l-3.57 3.57c-.46.46-.72 1.08-.72 1.73v4.58c0 .65.26 1.27.72 1.73l3.57 3.57c.6.6.93 1.41.93 2.26v2.7c0 1.77-1.43 3.19-3.19 3.19h-8.47c-1.76 0-3.19-1.43-3.19-3.19v-2.69c0-.85.34-1.66.94-2.26l3.56-3.57c.46-.46.72-1.08.72-1.73V79.2c.01-.65-.25-1.27-.72-1.73l-3.56-3.57c-.6-.6-.94-1.41-.94-2.25v-2.7c0-1.77 1.43-3.19 3.19-3.19z"/><path class="st4" d="M382.8 125.85c1.28 0 2.32-1.04 2.32-2.32V39.46c0-1.28-1.04-2.32-2.32-2.32h-84.07c-1.28 0-2.32 1.04-2.32 2.32v84.07c0 1.28 1.04 2.32 2.32 2.32h84.07zm-84.06-89.71h84.07c1.84 0 3.32 1.49 3.32 3.32v84.07a3.325 3.325 0 01-3.32 3.32h-84.07a3.325 3.325 0 01-3.32-3.32V39.46c0-1.84 1.48-3.32 3.32-3.32z"/><path class="st3" d="M382.8 124.68c.64 0 1.16-.52 1.16-1.16V39.46c0-.64-.52-1.16-1.16-1.16h-84.07c-.64 0-1.16.52-1.16 1.16v84.07c0 .64.52 1.16 1.16 1.16h84.07zm-84.06-86.89h84.07c.91.01 1.66.74 1.66 1.66v84.07c-.01.91-.74 1.66-1.66 1.66h-84.07c-.92-.01-1.66-.75-1.66-1.66V39.46c-.01-.92.73-1.66 1.66-1.67z"/><path class="st3" d="M332.15 42.4c-.33-.32-.76-.51-1.22-.51h-2.7c-.95 0-1.72.77-1.73 1.73v8.47c.01.95.77 1.72 1.73 1.72h2.7c.46 0 .9-.18 1.22-.5l.01-.02 2.57-2.56c.33-.32.51-.76.51-1.23v-3.3c0-.46-.18-.9-.51-1.22l-2.58-2.58zm-3.92-1.01h2.7c.59 0 1.15.24 1.57.65l-.01.01c.08.06.2.19.41.4l2.18 2.17c.42.42.65.99.65 1.58v3.3c0 .59-.23 1.16-.65 1.58l-2.6 2.6c-.41.41-.97.63-1.55.63h-2.7c-1.23 0-2.22-1-2.22-2.22v-8.47c0-1.23.99-2.23 2.22-2.23zm25.08 12.41c.95 0 1.73-.77 1.73-1.72v-8.47c0-.95-.77-1.73-1.73-1.73h-2.69c-.46 0-.9.18-1.23.51l-2.58 2.58c-.32.32-.51.76-.5 1.22v3.3c0 .46.18.9.5 1.23l2.57 2.57.01.01c.32.32.76.5 1.22.5h2.7zm-2.7-12.41h2.7c1.23 0 2.22 1 2.22 2.22v8.47c0 1.23-1 2.22-2.22 2.22h-2.69c-.59-.01-1.14-.23-1.56-.64l-2.59-2.59c-.42-.41-.65-.98-.65-1.58v-3.3c0-.59.23-1.16.65-1.58l2.17-2.17c.22-.21.34-.34.41-.4l-.01-.01c.42-.4.98-.64 1.57-.64zm-7.55 73.01h-4.58c-1.04 0-2.03-.41-2.77-1.15l-3.56-3.57c-.32-.32-.76-.5-1.22-.5h-2.7c-.95 0-1.73.78-1.73 1.73v8.46c0 .95.77 1.73 1.73 1.73h2.7c.46 0 .9-.19 1.22-.51l3.56-3.56a3.99 3.99 0 012.77-1.15h4.58c1.04.01 2.03.42 2.77 1.15l3.56 3.56c.32.32.76.51 1.22.51h2.7c.95 0 1.73-.78 1.73-1.73v-8.46c0-.95-.77-1.73-1.73-1.73h-2.69c-.46 0-.9.18-1.23.5l-3.56 3.57c-.74.73-1.74 1.15-2.77 1.15zm-14.83-5.72h2.7c.59.01 1.15.24 1.57.65l3.57 3.57c.64.64 1.51 1 2.41 1h4.58c.91 0 1.78-.36 2.41-1l3.57-3.57c.42-.41.98-.65 1.58-.65h2.69c1.23.01 2.22 1 2.22 2.23v8.46c0 1.23-1 2.22-2.22 2.22h-2.69c-.59 0-1.16-.23-1.58-.65l-3.57-3.57c-.64-.63-1.51-1-2.41-1h-4.58c-.9 0-1.77.36-2.41 1l-3.57 3.57c-.42.41-.98.65-1.57.65h-2.7c-1.23-.01-2.22-1-2.22-2.22v-8.47c0-1.23.99-2.22 2.22-2.22zm-16.88-12.92c.95 0 1.73-.77 1.73-1.73v-2.7c0-.46-.19-.9-.5-1.22l-3.57-3.56a3.854 3.854 0 01-1.14-2.77V79.2c-.01-1.04.41-2.03 1.14-2.77l3.57-3.56c.32-.32.51-.76.5-1.22v-2.7c0-.95-.77-1.73-1.72-1.73h-8.47c-.95 0-1.73.77-1.73 1.73v2.7c0 .46.18.9.51 1.22l3.56 3.56a3.99 3.99 0 011.15 2.77v4.58c0 1.04-.41 2.03-1.15 2.77l-3.56 3.56c-.32.32-.51.76-.51 1.22v2.7c0 .95.77 1.73 1.73 1.73h8.46zm-8.46-29.03h8.46c1.23 0 2.22 1 2.23 2.22v2.7c0 .59-.23 1.16-.65 1.57l-3.56 3.57a3.3 3.3 0 00-1 2.41v4.58c0 .91.36 1.78 1 2.41l3.56 3.57c.42.42.65.98.65 1.58v2.69c-.01 1.23-1 2.22-2.22 2.22h-8.47c-1.23 0-2.22-1-2.22-2.22v-2.7c0-.59.24-1.15.65-1.57l3.57-3.57c.64-.64 1-1.51 1-2.41V79.2c0-.9-.36-1.77-1-2.41l-3.57-3.57c-.42-.41-.65-.98-.65-1.58v-2.69c0-1.23 1-2.22 2.22-2.22zm75.75 29.03c.95 0 1.73-.77 1.73-1.73v-2.7c0-.46-.18-.9-.51-1.22l-3.56-3.56a3.905 3.905 0 01-1.15-2.77V79.2c-.01-1.04.41-2.03 1.15-2.77l3.56-3.56c.32-.32.51-.76.51-1.22v-2.7c0-.95-.77-1.73-1.73-1.73h-8.47c-.95 0-1.72.77-1.73 1.73v2.7c0 .46.19.9.51 1.22l3.57 3.56c.74.74 1.15 1.73 1.14 2.77v4.58c.01 1.04-.41 2.03-1.14 2.77l-3.57 3.56c-.32.32-.5.76-.51 1.22v2.7c.01.95.78 1.73 1.73 1.73h8.47zm-8.46-29.03h8.47c1.23 0 2.22 1 2.22 2.22v2.7c0 .59-.23 1.16-.65 1.57l-3.57 3.57c-.64.63-1 1.5-1 2.41v4.58c0 .91.36 1.78 1 2.41l3.57 3.57c.41.42.65.98.65 1.58v2.69c0 1.23-1 2.22-2.22 2.22h-8.47c-1.23 0-2.22-1-2.22-2.22v-2.7c0-.59.23-1.16.65-1.57l3.56-3.57c.65-.64 1-1.51 1-2.41V79.2c.01-.9-.36-1.78-1-2.41l-3.57-3.57c-.42-.41-.65-.98-.65-1.58v-2.69c0-1.23 1-2.22 2.23-2.22z"/></g><g><path class="st0" d="M520.87 284.73l-3.39 1.61v.08h-52.76l-1.41-1.41v-5.57h-1.55a.85.85 0 00-.85.85v1.97h-1.97a.85.85 0 01-.85-.85V269c0-.47.38-.85.85-.85l4.37-.11v-11l-4.37-.11c-.47 0-.85-.38-.85-.84v-29.03c0-.47.38-.85.85-.85l4.37-.11v-11l-4.37-.11a.85.85 0 01-.85-.85v-12.41c0-.47.38-.85.85-.85h1.97v1.98c0 .47.38.85.85.85h1.55v-5.57l1.41-1.41h52.76v.09l3.39 1.61v.85l1.37 1.15a5.618 5.618 0 012.01 4.32v5.98c0 1.67-.74 3.25-2.01 4.32l-1.37 1.15v1.75c.32.3.63.61.93.93 6.62 7.14 6.21 18.29-.93 24.92v19.89h.2c.27.01.54.09.77.24l1.94 1.31a6.201 6.201 0 012.74 5.14v5.06c0 2.06-1.03 3.99-2.74 5.14l-1.94 1.31c-.23.15-.49.24-.77.24h-.2v2.6z"/><path class="st1" d="M520.87 263.65h.2c.27.01.54.09.77.24l1.94 1.31a6.201 6.201 0 012.74 5.14v5.06c0 2.06-1.03 3.99-2.74 5.14l-1.94 1.31c-.23.15-.49.24-.77.24h-.2v-18.44z"/><path class="st2" d="M520.88 217.92c.32.3.63.61.93.93 6.62 7.14 6.21 18.29-.93 24.92v-25.85z"/><path class="st3" d="M461.17 233.72c0 .14-.11.25-.25.25h-1.99l-.11-.01h-.02l-.11-.02c-.01 0-.02 0-.03-.01l-.11-.03c-.01 0-.01 0-.02-.01l-.1-.03c-.01 0-.02-.01-.03-.01l-.09-.04c-.01 0-.02-.01-.02-.01l-.08-.05c-.01-.01-.02-.01-.03-.02l-.07-.06c-.01-.01-.02-.02-.03-.02l-.06-.06c-.01-.01-.02-.02-.02-.03l-.05-.07c-.01-.01-.01-.02-.02-.03l-.03-.07c-.01-.02-.01-.03-.02-.04l-.02-.08c0-.02-.01-.03-.01-.05l-.01-.08c-.03-.33.47-.37.49-.04l.01.05.01.04.02.04.03.04.04.04.05.04.06.03.07.03.07.03.08.02.08.01.1.01h1.97c.14-.01.25.1.25.24zm.85 13.7v9.51c0 .33-.5.33-.5 0v-9.51c0-.33.5-.33.5 0zm0-21.22v9.51c0 .33-.5.33-.5 0v-9.51c0-.33.5-.33.5 0zm1.68-28.08v86.89c0 .5-.75.5-.75 0v-86.89c0-.5.75-.5.75 0zm1.41-1.41v89.71c0 .5-.75.5-.75 0v-89.71c0-.5.75-.5.75 0zm7.61 0v89.71c0 .5-.75.5-.75 0v-89.71c.01-.5.75-.5.75 0zm27.09 0v89.71c0 .5-.75.5-.75 0v-89.71c0-.5.75-.5.75 0zm18.05 0v89.71c0 .5-.75.5-.75 0v-89.71c.01-.5.75-.5.75 0zm3.39 1.69v86.33c0 .5-.75.5-.75 0V198.4c0-.5.75-.5.75 0z"/><path class="st3" d="M459.2 268.15v14.11c0 .33-.5.33-.5 0v-14.11c0-.33.5-.33.5 0zm4.37-30.87c0 .14-.11.25-.25.25h-4.39l-.11-.01h-.02l-.11-.02c-.01 0-.02 0-.02-.01l-.11-.03-.02-.01-.1-.03c-.01 0-.02-.01-.03-.01l-.09-.04c-.01 0-.02-.01-.02-.01l-.08-.05c-.01-.01-.02-.01-.03-.02l-.07-.06c-.01-.01-.02-.01-.02-.02l-.06-.06c-.01-.01-.02-.02-.02-.03l-.05-.07c-.01-.01-.02-.02-.02-.04l-.04-.07c0-.01-.01-.03-.01-.04l-.02-.08c0-.02-.01-.03-.01-.05l-.01-.08c-.03-.33.47-.37.49-.04l.01.05.01.04.02.04.03.04.04.04.05.04.06.04.07.03.07.02.08.02.09.01.09.01h4.37c.12 0 .23.11.23.25z"/><path class="st3" d="M459.2 200.87v14.11c0 .33-.5.33-.5 0v-14.11c0-.34.5-.34.5 0zm0 25.33v30.72c0 .33-.5.33-.5 0V226.2c0-.33.5-.33.5 0z"/><path class="st3" d="M463.57 245.85c0 .14-.11.25-.25.25h-4.46l-.08.01-.08.02-.08.03-.07.03-.06.04-.05.04-.04.04-.03.04-.02.04-.01.03-.01.05c-.03.33-.52.28-.49-.05l.01-.07c0-.02.01-.03.01-.05l.02-.08c0-.01.01-.03.01-.04l.04-.07c.01-.01.01-.02.02-.03l.05-.07c.01-.01.02-.02.02-.03l.06-.07c.01-.01.02-.02.03-.02l.07-.06c.01-.01.02-.01.03-.02l.08-.05c.01 0 .02-.01.03-.01l.09-.04.02-.01.1-.04.02-.01.1-.03h.02l.11-.02h4.52c.16 0 .27.11.27.25zm-2.4 3.56c0 .14-.11.25-.25.25h-2.06l-.08.01-.08.02-.08.03-.07.03-.06.04-.05.04-.04.04-.03.04-.02.04-.01.03-.01.06c-.03.32-.52.28-.49-.04l.01-.08c0-.02.01-.03.01-.05l.02-.07c0-.01.01-.03.02-.04l.03-.07c.01-.01.01-.02.02-.03l.05-.07c.01-.01.02-.02.02-.03l.06-.07c.01-.01.02-.02.03-.02l.07-.06.02-.02.08-.05c.01-.01.02-.01.03-.02l.09-.04.02-.01.1-.03c.01-.01.02-.01.03-.01l.1-.02.02-.01.11-.02h.03l.11-.01h1.99c.15-.01.26.1.26.24z"/><path class="st3" d="M463.7 235.71c0 .21-.17.37-.37.37h-1.55c-.67 0-1.22-.54-1.22-1.22v-8.53c0-.03 0-.05.01-.07l.01-.03c.01-.05.03-.1.06-.14l.02-.03c.02-.03.05-.06.09-.09l.03-.02c.02-.02.05-.03.08-.04l.04-.02c.02-.01.03-.01.05-.02l.05-.01c.01 0 .02-.01.03-.01l.06-.01c.01 0 .02 0 .03-.01l.07-.01h.01l.17-.01h.11c.2 0 .37.17.38.37 0 .21-.17.37-.37.37l-.17.01v8.28c0 .26.21.47.47.47h1.55c.19.02.36.19.36.4zm0 11.71c0 .21-.17.37-.37.37h-1.55a.47.47 0 00-.47.47v8.28l.27.01c.5 0 .5.75 0 .75H461.37l-.17-.01h-.02l-.07-.01h-.02l-.06-.01c-.02 0-.03 0-.04-.01l-.05-.01c-.02-.01-.04-.01-.05-.02l-.04-.02-.06-.03-.03-.02a.902.902 0 01-.1-.09l-.02-.02a.35.35 0 01-.06-.14l-.01-.03c0-.03-.01-.05-.01-.07v-8.53c0-.67.55-1.22 1.22-1.22h1.55c.2-.01.37.15.37.36z"/><path class="st4" d="M520.38 284.41v-2.31c0-.27.22-.49.49-.5h.21c.18 0 .35-.06.49-.16l1.94-1.31a5.724 5.724 0 002.52-4.73v-5.06c0-1.9-.94-3.67-2.52-4.73l-1.94-1.31a.982.982 0 00-.49-.16h-.21a.506.506 0 01-.49-.5v-19.89c0-.14.06-.27.16-.36 3.33-3.09 5.29-7.38 5.47-11.92a17.114 17.114 0 00-5.47-13.2.5.5 0 01-.16-.36v-1.74c0-.15.06-.29.18-.38l1.37-1.15a5.133 5.133 0 001.84-3.94v-5.98c0-1.52-.67-2.97-1.84-3.94l-1.37-1.15a.51.51 0 01-.18-.38v-.53l-3.1-1.47c-.02-.01-.04-.02-.07-.04h-52.27l-1.12 1.12v5.37c0 .27-.22.5-.5.5h-1.55c-.74 0-1.34-.6-1.35-1.34v-1.48h-1.48c-.19 0-.35.16-.35.35v12.41c0 .19.16.35.35.35h.01l4.38.11c.27.01.48.23.48.5v11c0 .27-.21.49-.48.5l-4.38.12h-.01c-.19 0-.35.16-.35.35v29.03c0 .19.16.35.35.35h.01l4.38.11c.27.01.48.23.48.5v11c0 .27-.21.49-.48.5l-4.38.11h-.01c-.19 0-.35.16-.35.35v12.41c0 .19.16.35.35.35h1.48v-1.48c0-.74.6-1.34 1.35-1.35h1.55c.27 0 .5.22.5.5v5.37l1.12 1.12h52.27c.02-.01.04-.03.07-.04l3.1-1.49zm6.63-14.06v5.06a6.71 6.71 0 01-2.96 5.56l-1.93 1.31c-.23.15-.48.25-.75.3v2.15c0 .19-.11.37-.29.45l-3.18 1.51c-.09.15-.25.23-.42.23h-52.76a.47.47 0 01-.35-.15l-1.41-1.41a.51.51 0 01-.15-.35v-5.08h-1.05c-.19 0-.35.16-.35.35v1.97c0 .27-.22.5-.5.5h-1.97c-.74 0-1.34-.6-1.34-1.34V269c0-.74.6-1.34 1.33-1.35l3.88-.1v-10.03l-3.88-.1c-.74 0-1.33-.6-1.33-1.34v-29.03c0-.74.6-1.34 1.33-1.34l3.88-.1v-10.03l-3.88-.1c-.74-.01-1.33-.61-1.33-1.34v-12.41c0-.74.6-1.34 1.34-1.35h1.97c.27 0 .5.22.5.5v1.98c0 .19.16.35.35.35h1.05v-5.07c0-.13.05-.26.15-.35l1.41-1.41a.5.5 0 01.35-.14h52.76c.17 0 .33.09.42.23l3.18 1.51c.17.08.29.26.29.45v.61l1.19 1a6.128 6.128 0 012.19 4.7v5.98c0 1.81-.8 3.54-2.19 4.7l-1.19 1v1.3c.28.26.54.53.8.81 6.75 7.28 6.4 18.63-.8 25.47v19.2c.27.05.52.15.75.3l1.94 1.31a6.614 6.614 0 012.95 5.54z"/></g><g><path class="st0" d="M31.49 196.7h84.07c1.56 0 2.83 1.26 2.83 2.83v84.07c0 1.56-1.26 2.82-2.83 2.82H31.49c-1.56 0-2.82-1.26-2.82-2.82v-84.07c0-1.56 1.26-2.82 2.82-2.83z"/><path class="st3" d="M65.41 213.88c.08-.07 1.71-1.71 2.57-2.57.46-.46.72-1.08.72-1.73v-3.3c.01-.65-.25-1.27-.72-1.73l-2.58-2.59c-.46-.46-1.08-.72-1.73-.72h-2.7a2.46 2.46 0 00-2.45 2.45v8.47c0 1.35 1.1 2.45 2.45 2.45h2.7a2.46 2.46 0 001.74-.73zm-4.43-13.39h2.7c.85 0 1.66.34 2.26.93l2.58 2.58c.6.6.94 1.42.94 2.26v3.3c0 .85-.34 1.66-.94 2.26L66.35 214c-.2.2-.33.32-.41.4h.01c-.6.6-1.41.94-2.26.93h-2.7c-1.76 0-3.19-1.43-3.19-3.19v-8.47c-.01-1.75 1.42-3.18 3.18-3.18zm25.08 14.11c1.35 0 2.45-1.1 2.45-2.45v-8.47c0-1.35-1.09-2.45-2.45-2.45h-2.69c-.66 0-1.28.26-1.73.72l-2.58 2.59c-.46.46-.72 1.08-.72 1.73v3.3c0 .66.25 1.28.72 1.73l2.57 2.58h.01c.46.46 1.08.72 1.73.72h2.69zm-2.7-14.11h2.7c1.77 0 3.19 1.43 3.19 3.19v8.47c0 1.76-1.43 3.19-3.19 3.19h-2.69c-.85 0-1.66-.34-2.26-.94l.01-.01c-.14-.13-.28-.26-.41-.39l-2.17-2.18c-.6-.6-.94-1.41-.94-2.26v-3.3c0-.84.34-1.66.94-2.26l2.58-2.58c.58-.59 1.4-.93 2.24-.93zm-7.55 73.26h-4.58c-.85-.01-1.66-.34-2.25-.94l-3.57-3.56c-.46-.46-1.08-.72-1.73-.72h-2.7c-1.35 0-2.45 1.1-2.45 2.45v8.46c0 1.35 1.1 2.45 2.45 2.45h2.7c.65.01 1.27-.25 1.73-.71l3.57-3.57c.6-.6 1.41-.93 2.25-.93h4.58c.85-.01 1.66.33 2.26.93l3.56 3.57c.46.46 1.09.72 1.73.71h2.69c1.35 0 2.45-1.09 2.45-2.45v-8.46a2.46 2.46 0 00-2.45-2.45h-2.69c-.65 0-1.28.25-1.73.72l-3.56 3.56c-.6.6-1.41.94-2.26.94zm-14.83-5.97h2.7c.85-.01 1.66.33 2.26.93l3.57 3.56c.46.46 1.08.72 1.73.72h4.58c.65.01 1.27-.25 1.73-.72l3.57-3.56c.6-.6 1.41-.94 2.25-.93h2.7c1.77 0 3.19 1.43 3.19 3.19v8.46c0 1.77-1.43 3.19-3.19 3.19h-2.69c-.85.01-1.66-.33-2.26-.93l-3.57-3.57c-.46-.46-1.08-.71-1.73-.72h-4.58c-.65.01-1.27.26-1.73.72l-3.57 3.57c-.6.6-1.41.93-2.26.93h-2.7c-1.76 0-3.19-1.43-3.19-3.19v-8.46c0-1.76 1.43-3.19 3.19-3.19zm-16.87-11.23c1.35 0 2.45-1.09 2.45-2.45v-2.7c0-.65-.25-1.27-.72-1.73l-3.56-3.57c-.6-.6-.94-1.41-.94-2.25v-4.58c0-.85.34-1.66.94-2.26l3.56-3.57c.46-.46.72-1.08.72-1.73v-2.69c0-1.35-1.1-2.45-2.45-2.45h-8.46c-1.35 0-2.45 1.09-2.45 2.45v2.7c-.01.65.25 1.27.71 1.73l3.57 3.57c.6.6.94 1.41.93 2.26v4.58c.01.85-.33 1.66-.93 2.25l-3.57 3.57c-.46.46-.72 1.08-.71 1.73v2.7c0 1.35 1.09 2.45 2.45 2.45h8.46zm-8.46-30.72h8.46c1.77 0 3.19 1.43 3.19 3.19v2.69c.01.85-.33 1.66-.93 2.26l-3.56 3.57c-.46.46-.72 1.08-.72 1.73v4.58c-.01.65.25 1.27.72 1.73l3.56 3.57c.6.6.94 1.41.94 2.26v2.7a3.199 3.199 0 01-3.19 3.19h-8.47c-1.77 0-3.19-1.43-3.19-3.19v-2.69c0-.85.34-1.66.93-2.26l3.57-3.57c.46-.46.72-1.08.72-1.73v-4.58c0-.65-.26-1.27-.72-1.73l-3.57-3.57c-.6-.6-.93-1.41-.93-2.25v-2.7a3.182 3.182 0 013.19-3.2zm75.74 30.72c1.35 0 2.45-1.09 2.45-2.45v-2.7c.01-.65-.25-1.27-.71-1.73l-3.57-3.57c-.6-.6-.94-1.41-.93-2.25v-4.58c-.01-.85.33-1.66.93-2.26l3.57-3.57c.46-.46.72-1.08.71-1.73v-2.69c0-1.35-1.09-2.45-2.45-2.45h-8.47c-1.35 0-2.45 1.09-2.45 2.45v2.7c0 .65.25 1.27.72 1.73l3.56 3.57c.6.6.94 1.41.94 2.26v4.58c-.01.85-.34 1.66-.94 2.25l-3.56 3.57c-.46.46-.72 1.08-.72 1.73v2.7c0 1.35 1.1 2.45 2.45 2.45h8.47zm-8.46-30.72h8.47c1.77 0 3.19 1.43 3.19 3.19v2.69c.01.85-.34 1.66-.93 2.26l-3.57 3.57c-.46.46-.72 1.08-.72 1.73v4.58c0 .65.26 1.27.72 1.73l3.57 3.57c.6.6.93 1.41.93 2.26v2.7c0 1.77-1.43 3.19-3.19 3.19h-8.47c-1.76 0-3.19-1.43-3.19-3.19v-2.69c0-.85.34-1.66.94-2.26l3.56-3.57c.46-.46.72-1.08.72-1.73v-4.58c.01-.65-.25-1.27-.72-1.73l-3.56-3.57c-.6-.6-.94-1.41-.94-2.25v-2.7c0-1.77 1.43-3.2 3.19-3.2z"/><path class="st4" d="M115.55 285.92c1.28 0 2.32-1.04 2.32-2.32v-84.07c0-1.28-1.04-2.32-2.32-2.32H31.49c-1.28 0-2.32 1.04-2.32 2.32v84.07c0 1.28 1.04 2.32 2.32 2.32h84.06zm-84.06-89.71h84.07c1.84 0 3.32 1.49 3.32 3.32v84.07a3.325 3.325 0 01-3.32 3.32H31.49a3.325 3.325 0 01-3.32-3.32v-84.07c0-1.83 1.48-3.31 3.32-3.32z"/><path class="st3" d="M115.55 284.76c.64 0 1.16-.52 1.16-1.16v-84.07c0-.64-.52-1.16-1.16-1.16H31.49c-.64 0-1.16.52-1.16 1.16v84.07c0 .64.52 1.16 1.16 1.16h84.06zm-84.06-86.89h84.07c.91.01 1.66.74 1.66 1.66v84.07c-.01.91-.74 1.66-1.66 1.66H31.48c-.92-.01-1.66-.75-1.66-1.66v-84.07c0-.92.75-1.66 1.67-1.66z"/><path class="st3" d="M64.9 202.47c-.33-.32-.76-.51-1.22-.51h-2.7c-.95 0-1.72.77-1.73 1.73v8.47c.01.95.77 1.72 1.73 1.72h2.7c.46 0 .9-.18 1.22-.5l.01-.02 2.57-2.56c.33-.32.51-.76.51-1.23v-3.3c0-.46-.18-.9-.51-1.22l-2.58-2.58zm-3.92-1h2.7c.59 0 1.15.24 1.57.65l-.01.01c.08.06.2.19.41.4l2.18 2.17c.42.42.65.99.65 1.58v3.3c0 .59-.23 1.16-.65 1.58l-2.6 2.6c-.41.41-.97.63-1.55.63h-2.7c-1.23 0-2.22-1-2.22-2.22v-8.47c0-1.24.99-2.23 2.22-2.23zm25.08 12.41c.95 0 1.73-.77 1.73-1.72v-8.47c0-.95-.77-1.73-1.73-1.73h-2.69c-.46 0-.9.18-1.23.51l-2.58 2.58c-.32.32-.51.76-.5 1.22v3.3c0 .46.18.9.5 1.23l2.57 2.57.01.01c.32.32.76.5 1.22.5h2.7zm-2.7-12.41h2.7c1.23 0 2.22 1 2.22 2.22v8.47c0 1.23-1 2.22-2.22 2.22h-2.69c-.59-.01-1.14-.23-1.56-.64l-2.59-2.59c-.42-.41-.65-.98-.65-1.58v-3.3c0-.59.23-1.16.65-1.58l2.17-2.17c.22-.21.34-.34.41-.4l-.01-.01c.42-.41.99-.64 1.57-.64zm-7.55 73h-4.58c-1.04 0-2.03-.41-2.77-1.15l-3.56-3.57c-.32-.32-.76-.5-1.22-.5h-2.7c-.95 0-1.73.78-1.73 1.73v8.46c0 .95.77 1.73 1.73 1.73h2.7c.46 0 .9-.19 1.22-.51l3.56-3.56a3.99 3.99 0 012.77-1.15h4.58c1.04.01 2.03.42 2.77 1.15l3.56 3.56c.32.32.76.51 1.22.51h2.7c.95 0 1.73-.78 1.73-1.73v-8.46c0-.95-.77-1.73-1.73-1.73h-2.69c-.46 0-.9.18-1.23.5l-3.56 3.57c-.74.74-1.73 1.15-2.77 1.15zm-14.83-5.72h2.7c.59.01 1.15.24 1.57.65l3.57 3.57c.64.64 1.51 1 2.41 1h4.58c.91 0 1.78-.36 2.41-1l3.57-3.57c.42-.41.98-.65 1.58-.65h2.69c1.23.01 2.22 1 2.22 2.23v8.46c0 1.23-1 2.22-2.22 2.22h-2.69c-.59 0-1.16-.23-1.58-.65l-3.57-3.57c-.64-.63-1.51-1-2.41-1h-4.58c-.9 0-1.77.36-2.41 1l-3.57 3.57c-.42.41-.98.65-1.57.65h-2.7c-1.23-.01-2.22-1-2.22-2.22v-8.47c0-1.23.99-2.22 2.22-2.22zm-16.87-12.92c.95 0 1.73-.77 1.73-1.73v-2.7c0-.46-.19-.9-.5-1.22l-3.57-3.56a3.854 3.854 0 01-1.14-2.77v-4.58c-.01-1.04.41-2.03 1.14-2.77l3.57-3.56c.32-.32.51-.76.5-1.22v-2.7c0-.95-.77-1.73-1.72-1.73h-8.47c-.95 0-1.73.77-1.73 1.73v2.7c0 .46.18.9.51 1.22l3.56 3.56a3.99 3.99 0 011.15 2.77v4.58c0 1.04-.41 2.03-1.15 2.77l-3.56 3.56c-.32.32-.51.76-.51 1.22v2.7c0 .95.77 1.73 1.73 1.73h8.46zm-8.46-29.03h8.46c1.23 0 2.22 1 2.23 2.22v2.7c0 .59-.23 1.16-.65 1.57l-3.56 3.57a3.3 3.3 0 00-1 2.41v4.58c0 .91.36 1.78 1 2.41l3.56 3.57c.42.42.65.98.65 1.58v2.69c-.01 1.23-1 2.22-2.22 2.22h-8.47c-1.23 0-2.22-1-2.22-2.22v-2.7c0-.59.24-1.15.65-1.57l3.57-3.57c.64-.64 1-1.51 1-2.41v-4.58c0-.9-.36-1.77-1-2.41l-3.57-3.57c-.42-.41-.65-.98-.65-1.58v-2.69c-.01-1.22.99-2.22 2.22-2.22zm75.74 29.03c.95 0 1.73-.77 1.73-1.73v-2.7c0-.46-.18-.9-.51-1.22l-3.56-3.56a3.905 3.905 0 01-1.15-2.77v-4.58c-.01-1.04.41-2.03 1.15-2.77l3.56-3.56c.32-.32.51-.76.51-1.22v-2.7c0-.95-.77-1.73-1.73-1.73h-8.47c-.95 0-1.72.77-1.73 1.73v2.7c0 .46.19.9.51 1.22l3.57 3.56c.74.74 1.15 1.73 1.14 2.77v4.58c.01 1.04-.41 2.03-1.14 2.77l-3.57 3.56c-.32.32-.5.76-.51 1.22v2.7c.01.95.78 1.73 1.73 1.73h8.47zm-8.46-29.03h8.47c1.23 0 2.22 1 2.22 2.22v2.7c0 .59-.23 1.16-.65 1.57l-3.57 3.57c-.64.63-1 1.5-1 2.41v4.58c0 .91.36 1.78 1 2.41l3.57 3.57c.41.42.65.98.65 1.58v2.69c0 1.23-1 2.22-2.22 2.22h-8.47c-1.23 0-2.22-1-2.22-2.22v-2.7c0-.59.23-1.16.65-1.57l3.56-3.57c.65-.64 1-1.51 1-2.41v-4.58c.01-.9-.36-1.78-1-2.41l-3.57-3.57c-.42-.41-.65-.98-.65-1.58v-2.69c.01-1.22 1-2.22 2.23-2.22z"/></g><g><path class="st0" d="M165.11 196.7h84.07c1.56 0 2.83 1.26 2.83 2.83v84.07c0 1.56-1.26 2.82-2.83 2.82h-84.07c-1.56 0-2.82-1.26-2.82-2.82v-84.07c0-1.56 1.26-2.82 2.82-2.83z"/><path class="st3" d="M199.04 213.88c.08-.07 1.71-1.71 2.57-2.57.46-.46.72-1.08.72-1.73v-3.3c.01-.65-.25-1.27-.72-1.73l-2.58-2.59c-.46-.46-1.08-.72-1.73-.72h-2.7a2.46 2.46 0 00-2.45 2.45v8.47c0 1.35 1.1 2.45 2.45 2.45h2.7c.65-.01 1.27-.26 1.74-.73zm-4.44-13.39h2.7c.85 0 1.66.34 2.26.93l2.58 2.58c.6.6.94 1.42.94 2.26v3.3c0 .85-.34 1.66-.94 2.26l-2.17 2.18c-.2.2-.33.32-.41.4h.01c-.6.6-1.41.94-2.26.93h-2.7c-1.76 0-3.19-1.43-3.19-3.19v-8.47c0-1.75 1.43-3.18 3.18-3.18zm25.08 14.11c1.35 0 2.45-1.1 2.45-2.45v-8.47c0-1.35-1.09-2.45-2.45-2.45h-2.69c-.66 0-1.28.26-1.73.72l-2.58 2.59c-.46.46-.72 1.08-.72 1.73v3.3c0 .66.25 1.28.72 1.73l2.57 2.58h.01c.46.46 1.08.72 1.73.72h2.69zm-2.69-14.11h2.7c1.77 0 3.19 1.43 3.19 3.19v8.47c0 1.76-1.43 3.19-3.19 3.19H217c-.85 0-1.66-.34-2.26-.94l.01-.01c-.14-.13-.28-.26-.41-.39l-2.17-2.18c-.6-.6-.94-1.41-.94-2.26v-3.3c0-.84.34-1.66.94-2.26l2.58-2.58c.58-.59 1.39-.93 2.24-.93zm-7.56 73.26h-4.58c-.85-.01-1.66-.34-2.25-.94l-3.57-3.56c-.46-.46-1.08-.72-1.73-.72h-2.7c-1.35 0-2.45 1.1-2.45 2.45v8.46c0 1.35 1.1 2.45 2.45 2.45h2.7c.65.01 1.27-.25 1.73-.71l3.57-3.57c.6-.6 1.41-.93 2.25-.93h4.58c.85-.01 1.66.33 2.26.93l3.56 3.57c.46.46 1.09.72 1.73.71h2.69c1.35 0 2.45-1.09 2.45-2.45v-8.46a2.46 2.46 0 00-2.45-2.45h-2.69c-.65 0-1.28.25-1.73.72l-3.56 3.56c-.59.6-1.41.94-2.26.94zm-14.83-5.97h2.7c.85-.01 1.66.33 2.26.93l3.57 3.56c.46.46 1.08.72 1.73.72h4.58c.65.01 1.27-.25 1.73-.72l3.57-3.56c.6-.6 1.41-.94 2.25-.93h2.7c1.77 0 3.19 1.43 3.19 3.19v8.46c0 1.77-1.43 3.19-3.19 3.19H217c-.85.01-1.66-.33-2.26-.93l-3.57-3.57c-.46-.46-1.08-.71-1.73-.72h-4.58c-.65.01-1.27.26-1.73.72l-3.57 3.57c-.6.6-1.41.93-2.26.93h-2.7c-1.76 0-3.19-1.43-3.19-3.19v-8.46c.01-1.76 1.44-3.19 3.19-3.19zm-16.87-11.23c1.35 0 2.45-1.09 2.45-2.45v-2.7c0-.65-.25-1.27-.72-1.73l-3.56-3.57c-.6-.6-.94-1.41-.94-2.25v-4.58c0-.85.34-1.66.94-2.26l3.56-3.57c.46-.46.72-1.08.72-1.73v-2.69c0-1.35-1.1-2.45-2.45-2.45h-8.46c-1.35 0-2.45 1.09-2.45 2.45v2.7c-.01.65.25 1.27.71 1.73l3.57 3.57c.6.6.94 1.41.93 2.26v4.58c.01.85-.33 1.66-.93 2.25l-3.57 3.57c-.46.46-.72 1.08-.71 1.73v2.7c0 1.35 1.09 2.45 2.45 2.45h8.46zm-8.46-30.72h8.46c1.77 0 3.19 1.43 3.19 3.19v2.69c.01.85-.33 1.66-.93 2.26l-3.56 3.57c-.46.46-.72 1.08-.72 1.73v4.58c-.01.65.25 1.27.72 1.73l3.56 3.57c.6.6.94 1.41.94 2.26v2.7a3.199 3.199 0 01-3.19 3.19h-8.47c-1.77 0-3.19-1.43-3.19-3.19v-2.69c0-.85.34-1.66.93-2.26l3.57-3.57c.46-.46.72-1.08.72-1.73v-4.58c0-.65-.26-1.27-.72-1.73l-3.57-3.57c-.6-.6-.93-1.41-.93-2.25v-2.7c0-1.77 1.43-3.2 3.19-3.2zm75.75 30.72c1.35 0 2.45-1.09 2.45-2.45v-2.7c.01-.65-.25-1.27-.71-1.73l-3.57-3.57c-.6-.6-.94-1.41-.93-2.25v-4.58c-.01-.85.33-1.66.93-2.26l3.57-3.57c.46-.46.72-1.08.71-1.73v-2.69c0-1.35-1.09-2.45-2.45-2.45h-8.47c-1.35 0-2.45 1.09-2.45 2.45v2.7c0 .65.25 1.27.72 1.73l3.56 3.57c.6.6.94 1.41.94 2.26v4.58c-.01.85-.34 1.66-.94 2.25l-3.56 3.57c-.46.46-.72 1.08-.72 1.73v2.7c0 1.35 1.1 2.45 2.45 2.45h8.47zm-8.47-30.72h8.47c1.77 0 3.19 1.43 3.19 3.19v2.69c.01.85-.34 1.66-.93 2.26l-3.57 3.57c-.46.46-.72 1.08-.72 1.73v4.58c0 .65.26 1.27.72 1.73l3.57 3.57c.6.6.93 1.41.93 2.26v2.7c0 1.77-1.43 3.19-3.19 3.19h-8.47c-1.76 0-3.19-1.43-3.19-3.19v-2.69c0-.85.34-1.66.94-2.26l3.56-3.57c.46-.46.72-1.08.72-1.73v-4.58c.01-.65-.25-1.27-.72-1.73l-3.56-3.57c-.6-.6-.94-1.41-.94-2.25v-2.7c0-1.77 1.43-3.2 3.19-3.2z"/><path class="st4" d="M249.18 285.92c1.28 0 2.32-1.04 2.32-2.32v-84.07c0-1.28-1.04-2.32-2.32-2.32h-84.07c-1.28 0-2.32 1.04-2.32 2.32v84.07c0 1.28 1.04 2.32 2.32 2.32h84.07zm-84.07-89.71h84.07c1.84 0 3.32 1.49 3.32 3.32v84.07a3.325 3.325 0 01-3.32 3.32h-84.07a3.325 3.325 0 01-3.32-3.32v-84.07a3.338 3.338 0 013.32-3.32z"/><path class="st3" d="M249.18 284.76c.64 0 1.16-.52 1.16-1.16v-84.07c0-.64-.52-1.16-1.16-1.16h-84.07c-.64 0-1.16.52-1.16 1.16v84.07c0 .64.52 1.16 1.16 1.16h84.07zm-84.07-86.89h84.07c.91.01 1.66.74 1.66 1.66v84.07c-.01.91-.74 1.66-1.66 1.66h-84.07c-.92-.01-1.66-.75-1.66-1.66v-84.07c0-.92.74-1.66 1.66-1.66z"/><path class="st3" d="M198.52 202.47c-.33-.32-.76-.51-1.22-.51h-2.7c-.95 0-1.72.77-1.73 1.73v8.47c.01.95.77 1.72 1.73 1.72h2.7c.46 0 .9-.18 1.22-.5l.01-.02 2.57-2.56c.33-.32.51-.76.51-1.23v-3.3c0-.46-.18-.9-.51-1.22-.86-.87-2.51-2.51-2.58-2.58zm-3.92-1h2.7c.59 0 1.15.24 1.57.65l-.01.01c.08.06.2.19.41.4l2.18 2.17c.42.42.65.99.65 1.58v3.3c0 .59-.23 1.16-.65 1.58l-2.6 2.6c-.41.41-.97.63-1.55.63h-2.7c-1.23 0-2.22-1-2.22-2.22v-8.47c0-1.24 1-2.23 2.22-2.23zm25.08 12.41c.95 0 1.73-.77 1.73-1.72v-8.47c0-.95-.77-1.73-1.73-1.73h-2.69c-.46 0-.9.18-1.23.51l-2.58 2.58c-.32.32-.51.76-.5 1.22v3.3c0 .46.18.9.5 1.23l2.57 2.57.01.01c.32.32.76.5 1.22.5h2.7zm-2.69-12.41h2.7c1.23 0 2.22 1 2.22 2.22v8.47c0 1.23-1 2.22-2.22 2.22H217c-.59-.01-1.14-.23-1.56-.64l-2.59-2.59c-.42-.41-.65-.98-.65-1.58v-3.3c0-.59.23-1.16.65-1.58l2.17-2.17c.22-.21.34-.34.41-.4l-.01-.01c.42-.41.98-.64 1.57-.64zm-7.56 73h-4.58c-1.04 0-2.03-.41-2.77-1.15l-3.56-3.57c-.32-.32-.76-.5-1.22-.5h-2.7c-.95 0-1.73.78-1.73 1.73v8.46c0 .95.77 1.73 1.73 1.73h2.7c.46 0 .9-.19 1.22-.51l3.56-3.56a3.99 3.99 0 012.77-1.15h4.58c1.04.01 2.03.42 2.77 1.15l3.56 3.56c.32.32.76.51 1.22.51h2.7c.95 0 1.73-.78 1.73-1.73v-8.46c0-.95-.77-1.73-1.73-1.73h-2.69c-.46 0-.9.18-1.23.5l-3.56 3.57c-.73.74-1.73 1.15-2.77 1.15zm-14.83-5.72h2.7c.59.01 1.15.24 1.57.65l3.57 3.57c.64.64 1.51 1 2.41 1h4.58c.91 0 1.78-.36 2.41-1l3.57-3.57c.42-.41.98-.65 1.58-.65h2.69c1.23.01 2.22 1 2.22 2.23v8.46c0 1.23-1 2.22-2.22 2.22h-2.69c-.59 0-1.16-.23-1.58-.65l-3.57-3.57c-.64-.63-1.51-1-2.41-1h-4.58c-.9 0-1.77.36-2.41 1l-3.57 3.57c-.42.41-.98.65-1.57.65h-2.7c-1.23-.01-2.22-1-2.22-2.22v-8.47c0-1.23 1-2.22 2.22-2.22zm-16.87-12.92c.95 0 1.73-.77 1.73-1.73v-2.7c0-.46-.19-.9-.5-1.22l-3.57-3.56a3.854 3.854 0 01-1.14-2.77v-4.58c-.01-1.04.41-2.03 1.14-2.77l3.57-3.56c.32-.32.51-.76.5-1.22v-2.7c0-.95-.77-1.73-1.72-1.73h-8.47c-.95 0-1.73.77-1.73 1.73v2.7c0 .46.18.9.51 1.22l3.56 3.56a3.99 3.99 0 011.15 2.77v4.58c0 1.04-.41 2.03-1.15 2.77l-3.56 3.56c-.32.32-.51.76-.51 1.22v2.7c0 .95.77 1.73 1.73 1.73h8.46zm-8.46-29.03h8.46c1.23 0 2.22 1 2.23 2.22v2.7c0 .59-.23 1.16-.65 1.57l-3.56 3.57a3.3 3.3 0 00-1 2.41v4.58c0 .91.36 1.78 1 2.41l3.56 3.57c.42.42.65.98.65 1.58v2.69c-.01 1.23-1 2.22-2.22 2.22h-8.47c-1.23 0-2.22-1-2.22-2.22v-2.7c0-.59.24-1.15.65-1.57l3.57-3.57c.64-.64 1-1.51 1-2.41v-4.58c0-.9-.36-1.77-1-2.41l-3.57-3.57c-.42-.41-.65-.98-.65-1.58v-2.69c0-1.22.99-2.22 2.22-2.22zm75.75 29.03c.95 0 1.73-.77 1.73-1.73v-2.7c0-.46-.18-.9-.51-1.22l-3.56-3.56a3.905 3.905 0 01-1.15-2.77v-4.58c-.01-1.04.41-2.03 1.15-2.77l3.56-3.56c.32-.32.51-.76.51-1.22v-2.7c0-.95-.77-1.73-1.73-1.73h-8.47c-.95 0-1.72.77-1.73 1.73v2.7c0 .46.19.9.51 1.22l3.57 3.56c.74.74 1.15 1.73 1.14 2.77v4.58c.01 1.04-.41 2.03-1.14 2.77l-3.57 3.56c-.32.32-.5.76-.51 1.22v2.7c.01.95.78 1.73 1.73 1.73h8.47zm-8.47-29.03h8.47c1.23 0 2.22 1 2.22 2.22v2.7c0 .59-.23 1.16-.65 1.57l-3.57 3.57c-.64.63-1 1.5-1 2.41v4.58c0 .91.36 1.78 1 2.41l3.57 3.57c.41.42.65.98.65 1.58v2.69c0 1.23-1 2.22-2.22 2.22h-8.47c-1.23 0-2.22-1-2.22-2.22v-2.7c0-.59.23-1.16.65-1.57l3.56-3.57c.65-.64 1-1.51 1-2.41v-4.58c.01-.9-.36-1.78-1-2.41l-3.57-3.57c-.42-.41-.65-.98-.65-1.58v-2.69a2.243 2.243 0 012.23-2.22z"/></g><g><path class="st0" d="M298.74 196.7h84.07c1.56 0 2.83 1.26 2.83 2.83v84.07c0 1.56-1.26 2.82-2.83 2.82h-84.07c-1.56 0-2.82-1.26-2.82-2.82v-84.07a2.819 2.819 0 012.82-2.83z"/><path class="st3" d="M332.66 213.88c.08-.07 1.71-1.71 2.57-2.57.46-.46.72-1.08.72-1.73v-3.3c.01-.65-.25-1.27-.72-1.73l-2.58-2.59c-.46-.46-1.08-.72-1.73-.72h-2.7a2.46 2.46 0 00-2.45 2.45v8.47c0 1.35 1.1 2.45 2.45 2.45h2.7a2.46 2.46 0 001.74-.73zm-4.43-13.39h2.7c.85 0 1.66.34 2.26.93l2.58 2.58c.6.6.94 1.42.94 2.26v3.3c0 .85-.34 1.66-.94 2.26L333.6 214c-.2.2-.33.32-.41.4h.01c-.6.6-1.41.94-2.26.93h-2.7c-1.76 0-3.19-1.43-3.19-3.19v-8.47c-.01-1.75 1.42-3.18 3.18-3.18zm25.08 14.11c1.35 0 2.45-1.1 2.45-2.45v-8.47c0-1.35-1.09-2.45-2.45-2.45h-2.69c-.66 0-1.28.26-1.73.72l-2.58 2.59c-.46.46-.72 1.08-.72 1.73v3.3c0 .66.25 1.28.72 1.73l2.57 2.58h.01c.46.46 1.08.72 1.73.72h2.69zm-2.7-14.11h2.7c1.77 0 3.19 1.43 3.19 3.19v8.47c0 1.76-1.43 3.19-3.19 3.19h-2.69c-.85 0-1.66-.34-2.26-.94l.01-.01c-.14-.13-.28-.26-.41-.39l-2.17-2.18c-.6-.6-.94-1.41-.94-2.26v-3.3c0-.84.34-1.66.94-2.26l2.58-2.58c.58-.59 1.39-.93 2.24-.93zm-7.55 73.26h-4.58c-.85-.01-1.66-.34-2.25-.94l-3.57-3.56c-.46-.46-1.08-.72-1.73-.72h-2.7c-1.35 0-2.45 1.1-2.45 2.45v8.46c0 1.35 1.1 2.45 2.45 2.45h2.7c.65.01 1.27-.25 1.73-.71l3.57-3.57c.6-.6 1.41-.93 2.25-.93h4.58c.85-.01 1.66.33 2.26.93l3.56 3.57c.46.46 1.09.72 1.73.71h2.69c1.35 0 2.45-1.09 2.45-2.45v-8.46a2.46 2.46 0 00-2.45-2.45h-2.69c-.65 0-1.28.25-1.73.72l-3.56 3.56c-.6.6-1.42.94-2.26.94zm-14.83-5.97h2.7c.85-.01 1.66.33 2.26.93l3.57 3.56c.46.46 1.08.72 1.73.72h4.58c.65.01 1.27-.25 1.73-.72l3.57-3.56c.6-.6 1.41-.94 2.26-.93h2.7c1.77 0 3.19 1.43 3.19 3.19v8.46c0 1.77-1.43 3.19-3.19 3.19h-2.69c-.85.01-1.66-.33-2.26-.93l-3.57-3.57c-.46-.46-1.08-.71-1.73-.72h-4.58c-.65.01-1.27.26-1.73.72l-3.57 3.57c-.6.6-1.41.93-2.26.93h-2.7c-1.76 0-3.19-1.43-3.19-3.19v-8.46a3.177 3.177 0 013.18-3.19zm-16.88-11.23c1.35 0 2.45-1.09 2.45-2.45v-2.7c0-.65-.25-1.27-.72-1.73l-3.56-3.57c-.6-.6-.94-1.41-.94-2.25v-4.58c0-.85.34-1.66.94-2.26l3.56-3.57c.46-.46.72-1.08.72-1.73v-2.69c0-1.35-1.1-2.45-2.45-2.45h-8.46c-1.35 0-2.45 1.09-2.45 2.45v2.7c-.01.65.25 1.27.71 1.73l3.57 3.57c.6.6.94 1.41.93 2.26v4.58c.01.85-.33 1.66-.93 2.25l-3.57 3.57c-.46.46-.72 1.08-.71 1.73v2.7c0 1.35 1.09 2.45 2.45 2.45h8.46zm-8.46-30.72h8.46c1.77 0 3.19 1.43 3.19 3.19v2.69c.01.85-.33 1.66-.93 2.26l-3.56 3.57c-.46.46-.72 1.08-.72 1.73v4.58c-.01.65.25 1.27.72 1.73l3.56 3.57c.6.6.94 1.41.94 2.26v2.7a3.199 3.199 0 01-3.19 3.19h-8.47c-1.77 0-3.19-1.43-3.19-3.19v-2.69c0-.85.34-1.66.93-2.26l3.57-3.57c.46-.46.72-1.08.72-1.73v-4.58c0-.65-.26-1.27-.72-1.73l-3.57-3.57c-.6-.6-.93-1.41-.93-2.25v-2.7c0-1.77 1.43-3.2 3.19-3.2zm75.75 30.72c1.35 0 2.45-1.09 2.45-2.45v-2.7c.01-.65-.25-1.27-.71-1.73l-3.57-3.57c-.6-.6-.94-1.41-.93-2.25v-4.58c-.01-.85.33-1.66.93-2.26l3.57-3.57c.46-.46.72-1.08.71-1.73v-2.69c0-1.35-1.09-2.45-2.45-2.45h-8.47c-1.35 0-2.45 1.09-2.45 2.45v2.7c0 .65.25 1.27.72 1.73l3.56 3.57c.6.6.94 1.41.94 2.26v4.58c-.01.85-.34 1.66-.94 2.25l-3.56 3.57c-.46.46-.72 1.08-.72 1.73v2.7c0 1.35 1.1 2.45 2.45 2.45h8.47zm-8.46-30.72h8.47c1.77 0 3.19 1.43 3.19 3.19v2.69c.01.85-.34 1.66-.93 2.26l-3.57 3.57c-.46.46-.72 1.08-.72 1.73v4.58c0 .65.26 1.27.72 1.73l3.57 3.57c.6.6.93 1.41.93 2.26v2.7c0 1.77-1.43 3.19-3.19 3.19h-8.47c-1.76 0-3.19-1.43-3.19-3.19v-2.69c0-.85.34-1.66.94-2.26l3.56-3.57c.46-.46.72-1.08.72-1.73v-4.58c.01-.65-.25-1.27-.72-1.73l-3.56-3.57c-.6-.6-.94-1.41-.94-2.25v-2.7c0-1.77 1.43-3.2 3.19-3.2z"/><path class="st4" d="M382.8 285.92c1.28 0 2.32-1.04 2.32-2.32v-84.07c0-1.28-1.04-2.32-2.32-2.32h-84.07c-1.28 0-2.32 1.04-2.32 2.32v84.07c0 1.28 1.04 2.32 2.32 2.32h84.07zm-84.06-89.71h84.07c1.84 0 3.32 1.49 3.32 3.32v84.07a3.325 3.325 0 01-3.32 3.32h-84.07a3.325 3.325 0 01-3.32-3.32v-84.07c0-1.83 1.48-3.31 3.32-3.32z"/><path class="st3" d="M382.8 284.76c.64 0 1.16-.52 1.16-1.16v-84.07c0-.64-.52-1.16-1.16-1.16h-84.07c-.64 0-1.16.52-1.16 1.16v84.07c0 .64.52 1.16 1.16 1.16h84.07zm-84.06-86.89h84.07c.91.01 1.66.74 1.66 1.66v84.07c-.01.91-.74 1.66-1.66 1.66h-84.07c-.92-.01-1.66-.75-1.66-1.66v-84.07c-.01-.92.73-1.66 1.66-1.66z"/><path class="st3" d="M332.15 202.47c-.33-.32-.76-.51-1.22-.51h-2.7c-.95 0-1.72.77-1.73 1.73v8.47c.01.95.77 1.72 1.73 1.72h2.7c.46 0 .9-.18 1.22-.5l.01-.02 2.57-2.56c.33-.32.51-.76.51-1.23v-3.3c0-.46-.18-.9-.51-1.22l-2.58-2.58zm-3.92-1h2.7c.59 0 1.15.24 1.57.65l-.01.01c.08.06.2.19.41.4l2.18 2.17c.42.42.65.99.65 1.58v3.3c0 .59-.23 1.16-.65 1.58l-2.6 2.6c-.41.41-.97.63-1.55.63h-2.7c-1.23 0-2.22-1-2.22-2.22v-8.47c0-1.24.99-2.23 2.22-2.23zm25.08 12.41c.95 0 1.73-.77 1.73-1.72v-8.47c0-.95-.77-1.73-1.73-1.73h-2.69c-.46 0-.9.18-1.23.51l-2.58 2.58c-.32.32-.51.76-.5 1.22v3.3c0 .46.18.9.5 1.23l2.57 2.57.01.01c.32.32.76.5 1.22.5h2.7zm-2.7-12.41h2.7c1.23 0 2.22 1 2.22 2.22v8.47c0 1.23-1 2.22-2.22 2.22h-2.69c-.59-.01-1.14-.23-1.56-.64l-2.59-2.59c-.42-.41-.65-.98-.65-1.58v-3.3c0-.59.23-1.16.65-1.58l2.17-2.17c.22-.21.34-.34.41-.4l-.01-.01c.42-.41.98-.64 1.57-.64zm-7.55 73h-4.58c-1.04 0-2.03-.41-2.77-1.15l-3.56-3.57c-.32-.32-.76-.5-1.22-.5h-2.7c-.95 0-1.73.78-1.73 1.73v8.46c0 .95.77 1.73 1.73 1.73h2.7c.46 0 .9-.19 1.22-.51l3.56-3.56a3.99 3.99 0 012.77-1.15h4.58c1.04.01 2.03.42 2.77 1.15l3.56 3.56c.32.32.76.51 1.22.51h2.7c.95 0 1.73-.78 1.73-1.73v-8.46c0-.95-.77-1.73-1.73-1.73h-2.69c-.46 0-.9.18-1.23.5l-3.56 3.57c-.74.74-1.74 1.15-2.77 1.15zm-14.83-5.72h2.7c.59.01 1.15.24 1.57.65l3.57 3.57c.64.64 1.51 1 2.41 1h4.58c.91 0 1.78-.36 2.41-1l3.57-3.57c.42-.41.98-.65 1.58-.65h2.69c1.23.01 2.22 1 2.22 2.23v8.46c0 1.23-1 2.22-2.22 2.22h-2.69c-.59 0-1.16-.23-1.58-.65l-3.57-3.57c-.64-.63-1.51-1-2.41-1h-4.58c-.9 0-1.77.36-2.41 1l-3.57 3.57c-.42.41-.98.65-1.57.65h-2.7c-1.23-.01-2.22-1-2.22-2.22v-8.47c0-1.23.99-2.22 2.22-2.22zm-16.88-12.92c.95 0 1.73-.77 1.73-1.73v-2.7c0-.46-.19-.9-.5-1.22l-3.57-3.56a3.854 3.854 0 01-1.14-2.77v-4.58c-.01-1.04.41-2.03 1.14-2.77l3.57-3.56c.32-.32.51-.76.5-1.22v-2.7c0-.95-.77-1.73-1.72-1.73h-8.47c-.95 0-1.73.77-1.73 1.73v2.7c0 .46.18.9.51 1.22l3.56 3.56a3.99 3.99 0 011.15 2.77v4.58c0 1.04-.41 2.03-1.15 2.77l-3.56 3.56c-.32.32-.51.76-.51 1.22v2.7c0 .95.77 1.73 1.73 1.73h8.46zm-8.46-29.03h8.46c1.23 0 2.22 1 2.23 2.22v2.7c0 .59-.23 1.16-.65 1.57l-3.56 3.57a3.3 3.3 0 00-1 2.41v4.58c0 .91.36 1.78 1 2.41l3.56 3.57c.42.42.65.98.65 1.58v2.69c-.01 1.23-1 2.22-2.22 2.22h-8.47c-1.23 0-2.22-1-2.22-2.22v-2.7c0-.59.24-1.15.65-1.57l3.57-3.57c.64-.64 1-1.51 1-2.41v-4.58c0-.9-.36-1.77-1-2.41l-3.57-3.57c-.42-.41-.65-.98-.65-1.58v-2.69c0-1.22 1-2.22 2.22-2.22zm75.75 29.03c.95 0 1.73-.77 1.73-1.73v-2.7c0-.46-.18-.9-.51-1.22l-3.56-3.56a3.905 3.905 0 01-1.15-2.77v-4.58c-.01-1.04.41-2.03 1.15-2.77l3.56-3.56c.32-.32.51-.76.51-1.22v-2.7c0-.95-.77-1.73-1.73-1.73h-8.47c-.95 0-1.72.77-1.73 1.73v2.7c0 .46.19.9.51 1.22l3.57 3.56c.74.74 1.15 1.73 1.14 2.77v4.58c.01 1.04-.41 2.03-1.14 2.77l-3.57 3.56c-.32.32-.5.76-.51 1.22v2.7c.01.95.78 1.73 1.73 1.73h8.47zm-8.46-29.03h8.47c1.23 0 2.22 1 2.22 2.22v2.7c0 .59-.23 1.16-.65 1.57l-3.57 3.57c-.64.63-1 1.5-1 2.41v4.58c0 .91.36 1.78 1 2.41l3.57 3.57c.41.42.65.98.65 1.58v2.69c0 1.23-1 2.22-2.22 2.22h-8.47c-1.23 0-2.22-1-2.22-2.22v-2.7c0-.59.23-1.16.65-1.57l3.56-3.57c.65-.64 1-1.51 1-2.41v-4.58c.01-.9-.36-1.78-1-2.41l-3.57-3.57c-.42-.41-.65-.98-.65-1.58v-2.69c0-1.22 1-2.22 2.23-2.22z"/></g></g><g id="レイヤー_1"><path class="st5" d="M447.94 43.22h2.83v11.34h-2.83z"/><path class="st6" d="M450.77 43.22h2.83v11.34h-2.83z"/><path class="st7" d="M447.94 43.22h5.67v11.34h-5.67z"/><path transform="rotate(-180 452.187 208.145)" class="st5" d="M450.77 202.48h2.83v11.34h-2.83z"/><path transform="rotate(-180 449.352 208.145)" class="st6" d="M447.94 202.48h2.83v11.34h-2.83z"/><path transform="rotate(-180 450.77 208.145)" class="st7" d="M447.94 202.48h5.67v11.34h-5.67z"/><path class="st8" d="M536.92 290.19H536v8.8h.92v.55h-1.65v-9.9h1.65v.55zM539.38 292.33v.81h.01c.26-.57.88-.93 1.59-.93.8 0 1.32.31 1.57.86h.03c.37-.63.99-.86 1.67-.86 1.23 0 1.84.8 1.84 1.92v3.47h-.85v-3.15c0-.93-.25-1.57-1.19-1.57-.65 0-1.29.43-1.29 1.48v3.24h-.85v-3.24c0-.93-.21-1.48-1.15-1.48-.7 0-1.35.51-1.35 1.64v3.08h-.85v-5.27h.82zM548.49 292.33v.81h.01c.26-.57.88-.93 1.59-.93.8 0 1.32.31 1.57.86h.03c.37-.63.99-.86 1.67-.86 1.23 0 1.84.8 1.84 1.92v3.47h-.85v-3.15c0-.93-.25-1.57-1.19-1.57-.65 0-1.29.43-1.29 1.48v3.24h-.85v-3.24c0-.93-.21-1.48-1.15-1.48-.7 0-1.35.51-1.35 1.64v3.08h-.85v-5.27h.82zM556.76 299h.92v-8.8h-.92v-.55h1.65v9.9h-1.65V299zM14.75 71.05v.86h-6.3l1.04 1.52-.6.39-1.27-1.84v-.93h7.13zM14.75 67.08v.86h-6.3l1.04 1.52-.6.39-1.27-1.84v-.93h7.13zM13.74 65.02v-1.01h1.01v1.01h-1.01zM11.06 61c0 .47.04.89.13 1.4l-3.56-.15v-3.62h.72v2.86l2.05.11a6.68 6.68 0 01-.05-.77c0-1.37.7-2.63 2.18-2.63 1.58 0 2.35 1.2 2.35 2.58 0 .71-.1 1.34-.38 1.95l-.71-.25c.26-.58.37-1.08.37-1.69 0-.95-.48-1.74-1.59-1.74-1.14 0-1.51.97-1.51 1.95zM230.2 28.28h.62c1.04 0 1.93-.36 1.93-1.33 0-.78-.58-1.17-1.42-1.17-.58 0-1.11.12-1.66.44l-.27-.7c.59-.31 1.29-.46 1.98-.46 1.19 0 2.24.62 2.24 1.82 0 .9-.54 1.49-1.44 1.73v.02c1.04.15 1.63.79 1.63 1.68 0 1.38-1.12 2.13-2.5 2.13-.77 0-1.51-.16-2.08-.47l.26-.7c.54.29 1.14.45 1.82.45.95 0 1.64-.43 1.64-1.39 0-1.06-1.11-1.32-2.13-1.32h-.62v-.73zM235.18 31.3h1.01v1.01h-1.01V31.3zM241.91 32.31h-4.48v-.77c2.94-2.69 3.55-3.51 3.55-4.52 0-.77-.65-1.24-1.43-1.24-.6 0-1.14.26-1.63.66l-.37-.62c.52-.46 1.24-.76 2-.76 1.3 0 2.3.66 2.3 1.94 0 1.35-.69 2.13-3.36 4.58h3.42v.73zM355.22 28.28h.62c1.04 0 1.93-.36 1.93-1.33 0-.78-.58-1.17-1.42-1.17-.58 0-1.11.12-1.66.44l-.27-.7c.59-.31 1.29-.46 1.98-.46 1.19 0 2.24.62 2.24 1.82 0 .9-.54 1.49-1.44 1.73v.02c1.04.15 1.63.79 1.63 1.68 0 1.38-1.12 2.13-2.5 2.13-.77 0-1.51-.16-2.08-.47l.26-.7c.54.29 1.14.45 1.82.45.95 0 1.64-.43 1.64-1.39 0-1.06-1.11-1.32-2.13-1.32h-.62v-.73zM360.2 31.3h1.01v1.01h-1.01V31.3zM366.92 32.31h-4.48v-.77c2.94-2.69 3.55-3.51 3.55-4.52 0-.77-.65-1.24-1.43-1.24-.6 0-1.14.26-1.63.66l-.37-.62c.52-.46 1.24-.76 2-.76 1.3 0 2.29.66 2.29 1.94 0 1.35-.69 2.13-3.36 4.58h3.42v.73zM429.19 28.28h.62c1.04 0 1.93-.36 1.93-1.33 0-.78-.58-1.17-1.42-1.17-.58 0-1.11.12-1.66.44l-.27-.7c.59-.31 1.29-.46 1.98-.46 1.19 0 2.24.62 2.24 1.82 0 .9-.54 1.49-1.44 1.73v.02c1.04.15 1.63.79 1.63 1.68 0 1.38-1.12 2.13-2.5 2.13-.77 0-1.51-.16-2.08-.47l.26-.7c.54.29 1.14.45 1.82.45.95 0 1.64-.43 1.64-1.39 0-1.06-1.11-1.32-2.13-1.32h-.62v-.73zM434.17 31.3h1.01v1.01h-1.01V31.3zM438.87 32.31h-.86v-6.3l-1.52 1.04-.39-.6 1.84-1.27h.93v7.13zM14.75 231.69v.86h-6.3l1.04 1.52-.6.39-1.27-1.84v-.93h7.13zM14.75 227.71v.86h-6.3l1.04 1.52-.6.39-1.27-1.84v-.93h7.13zM13.74 225.66v-1.01h1.01v1.01h-1.01zM11.06 221.64c0 .47.04.89.13 1.4l-3.56-.15v-3.62h.72v2.86l2.05.11a6.68 6.68 0 01-.05-.77c0-1.37.7-2.63 2.18-2.63 1.58 0 2.35 1.2 2.35 2.58 0 .71-.1 1.34-.38 1.95l-.71-.25c.26-.58.37-1.08.37-1.69 0-.95-.48-1.74-1.59-1.74-1.14 0-1.51.97-1.51 1.95z"/><path class="st9" d="M67.85 43.22h11.34v11.34H67.85zM210.89 43.22h11.34v11.34h-11.34zM326.03 43.22h11.34v11.34h-11.34z"/><path class="st10" d="M67.85 202.48h11.34v11.34H67.85zM210.89 202.48h11.34v11.34h-11.34zM326.03 202.48h11.34v11.34h-11.34z"/><path class="st11" d="M54.47 19.62H31.65c-1.93 0-3.49-1.56-3.49-3.49v-4.86c0-1.93 1.56-3.49 3.49-3.49h22.82c1.93 0 3.49 1.56 3.49 3.49v4.86c0 1.93-1.57 3.49-3.49 3.49z"/><g><path class="st4" d="M38.19 14.01c0 2.15-.79 3.55-2.46 3.55-1.71 0-2.47-1.4-2.47-3.55 0-2.16.77-3.61 2.47-3.61 1.67 0 2.46 1.45 2.46 3.61zm-4.1 0c0 1.74.46 2.85 1.64 2.85 1.15 0 1.63-1.12 1.63-2.85 0-1.76-.48-2.91-1.63-2.91-1.19 0-1.64 1.16-1.64 2.91zM41.66 14.79l1.76 2.66h-.94l-1.34-2.12-1.38 2.12h-.92l1.8-2.64-1.65-2.48h.93l1.25 1.97 1.27-1.97h.9l-1.68 2.46zM49.01 14.01c0 2.15-.79 3.55-2.46 3.55-1.71 0-2.48-1.4-2.48-3.55 0-2.16.77-3.61 2.48-3.61 1.67 0 2.46 1.45 2.46 3.61zm-4.1 0c0 1.74.46 2.85 1.64 2.85 1.15 0 1.63-1.12 1.63-2.85 0-1.76-.48-2.91-1.63-2.91-1.19 0-1.64 1.16-1.64 2.91zM52.24 17.45h-.83v-6.12l-1.48 1.01-.38-.58 1.79-1.23h.9v6.92z"/></g><path class="st11" d="M54.47 179.7H31.65c-1.93 0-3.49-1.56-3.49-3.49v-4.86c0-1.93 1.56-3.49 3.49-3.49h22.82c1.93 0 3.49 1.56 3.49 3.49v4.86c0 1.93-1.57 3.49-3.49 3.49z"/><g><path class="st4" d="M37.55 174.09c0 2.15-.79 3.55-2.46 3.55-1.71 0-2.48-1.4-2.48-3.55 0-2.16.77-3.61 2.48-3.61 1.67 0 2.46 1.44 2.46 3.61zm-4.11 0c0 1.74.46 2.85 1.64 2.85 1.15 0 1.63-1.12 1.63-2.85 0-1.76-.48-2.91-1.63-2.91-1.18-.01-1.64 1.15-1.64 2.91zM41.02 174.86l1.76 2.66h-.94l-1.34-2.12-1.38 2.12h-.92l1.8-2.64-1.65-2.48h.93l1.25 1.97 1.27-1.97h.9l-1.68 2.46zM48.37 174.09c0 2.15-.79 3.55-2.46 3.55-1.71 0-2.47-1.4-2.47-3.55 0-2.16.77-3.61 2.47-3.61 1.67 0 2.46 1.44 2.46 3.61zm-4.11 0c0 1.74.46 2.85 1.64 2.85 1.15 0 1.63-1.12 1.63-2.85 0-1.76-.48-2.91-1.63-2.91-1.18-.01-1.64 1.15-1.64 2.91zM53.57 177.52h-4.36v-.75c2.86-2.62 3.45-3.42 3.45-4.4 0-.75-.63-1.2-1.39-1.2-.58 0-1.11.25-1.58.64l-.36-.6c.5-.45 1.2-.74 1.94-.74 1.26 0 2.23.64 2.23 1.88 0 1.31-.67 2.07-3.27 4.45h3.33v.72z"/></g><path class="st11" d="M188.43 19.62h-22.82c-1.93 0-3.49-1.56-3.49-3.49v-4.86c0-1.93 1.56-3.49 3.49-3.49h22.82c1.93 0 3.49 1.56 3.49 3.49v4.86c0 1.93-1.56 3.49-3.49 3.49z"/><g><path class="st4" d="M171.5 14.01c0 2.15-.79 3.55-2.46 3.55-1.71 0-2.48-1.4-2.48-3.55 0-2.16.77-3.61 2.48-3.61 1.67 0 2.46 1.45 2.46 3.61zm-4.11 0c0 1.74.46 2.85 1.64 2.85 1.15 0 1.63-1.12 1.63-2.85 0-1.76-.48-2.91-1.63-2.91-1.18 0-1.64 1.16-1.64 2.91zM174.97 14.79l1.76 2.66h-.94l-1.34-2.12-1.38 2.12h-.92l1.8-2.64-1.65-2.48h.93l1.25 1.97 1.27-1.97h.9l-1.68 2.46zM182.32 14.01c0 2.15-.79 3.55-2.46 3.55-1.71 0-2.47-1.4-2.47-3.55 0-2.16.77-3.61 2.47-3.61 1.67 0 2.46 1.45 2.46 3.61zm-4.11 0c0 1.74.46 2.85 1.64 2.85 1.15 0 1.63-1.12 1.63-2.85 0-1.76-.48-2.91-1.63-2.91-1.18 0-1.64 1.16-1.64 2.91zM184.02 13.53h.6c1.01 0 1.87-.35 1.87-1.29 0-.76-.56-1.14-1.38-1.14-.56 0-1.08.12-1.61.43l-.26-.68c.57-.3 1.25-.45 1.92-.45 1.15 0 2.17.6 2.17 1.77 0 .87-.52 1.45-1.4 1.68v.02c1.01.15 1.58.77 1.58 1.63 0 1.34-1.09 2.07-2.43 2.07-.75 0-1.47-.16-2.02-.46l.25-.68c.52.28 1.11.44 1.77.44.92 0 1.59-.42 1.59-1.35 0-1.03-1.08-1.28-2.07-1.28h-.6v-.71z"/></g><path class="st11" d="M188.43 179.7h-22.82c-1.93 0-3.49-1.56-3.49-3.49v-4.86c0-1.93 1.56-3.49 3.49-3.49h22.82c1.93 0 3.49 1.56 3.49 3.49v4.86c0 1.93-1.56 3.49-3.49 3.49z"/><g><path class="st4" d="M171.26 174.09c0 2.15-.79 3.55-2.46 3.55-1.71 0-2.47-1.4-2.47-3.55 0-2.16.77-3.61 2.47-3.61 1.67 0 2.46 1.44 2.46 3.61zm-4.11 0c0 1.74.46 2.85 1.64 2.85 1.15 0 1.63-1.12 1.63-2.85 0-1.76-.48-2.91-1.63-2.91-1.18-.01-1.64 1.15-1.64 2.91zM174.73 174.86l1.76 2.66h-.94l-1.34-2.12-1.38 2.12h-.92l1.8-2.64-1.65-2.48h.93l1.25 1.97 1.27-1.97h.9l-1.68 2.46zM182.08 174.09c0 2.15-.79 3.55-2.46 3.55-1.71 0-2.48-1.4-2.48-3.55 0-2.16.77-3.61 2.48-3.61 1.67 0 2.46 1.44 2.46 3.61zm-4.11 0c0 1.74.46 2.85 1.64 2.85 1.15 0 1.63-1.12 1.63-2.85 0-1.76-.48-2.91-1.63-2.91-1.18-.01-1.64 1.15-1.64 2.91zM186.93 175.15h.93v.71h-.93v1.66h-.83v-1.66h-3.32V175l2.85-4.41h1.3v4.56zm-.84-3.87h-.02l-2.49 3.87h2.51v-3.87z"/></g><path class="st11" d="M322.4 19.62h-22.82c-1.93 0-3.49-1.56-3.49-3.49v-4.86c0-1.93 1.56-3.49 3.49-3.49h22.82c1.93 0 3.49 1.56 3.49 3.49v4.86a3.5 3.5 0 01-3.49 3.49z"/><g><path class="st4" d="M305.39 14.01c0 2.15-.79 3.55-2.46 3.55-1.71 0-2.47-1.4-2.47-3.55 0-2.16.77-3.61 2.47-3.61 1.67 0 2.46 1.45 2.46 3.61zm-4.1 0c0 1.74.46 2.85 1.64 2.85 1.15 0 1.63-1.12 1.63-2.85 0-1.76-.48-2.91-1.63-2.91-1.19 0-1.64 1.16-1.64 2.91zM308.86 14.79l1.76 2.66h-.94l-1.34-2.12-1.38 2.12h-.92l1.79-2.64-1.65-2.48h.93l1.25 1.97 1.27-1.97h.9l-1.67 2.46zM316.21 14.01c0 2.15-.79 3.55-2.46 3.55-1.71 0-2.47-1.4-2.47-3.55 0-2.16.77-3.61 2.47-3.61 1.67 0 2.46 1.45 2.46 3.61zm-4.1 0c0 1.74.46 2.85 1.64 2.85 1.16 0 1.63-1.12 1.63-2.85 0-1.76-.48-2.91-1.63-2.91-1.19 0-1.64 1.16-1.64 2.91zM318.78 13.86c-.46 0-.86.04-1.36.13l.15-3.46h3.52v.7h-2.79l-.11 1.99c.31-.04.6-.05.75-.05 1.33 0 2.56.68 2.56 2.12 0 1.53-1.16 2.29-2.51 2.29-.69 0-1.3-.1-1.89-.37l.24-.69c.56.25 1.05.36 1.64.36.92 0 1.69-.47 1.69-1.54 0-1.12-.94-1.48-1.89-1.48z"/></g><path class="st11" d="M322.4 179.7h-22.82c-1.93 0-3.49-1.56-3.49-3.49v-4.86c0-1.93 1.56-3.49 3.49-3.49h22.82c1.93 0 3.49 1.56 3.49 3.49v4.86a3.5 3.5 0 01-3.49 3.49z"/><g><path class="st4" d="M305.23 174.09c0 2.15-.79 3.55-2.46 3.55-1.71 0-2.47-1.4-2.47-3.55 0-2.16.77-3.61 2.47-3.61 1.67 0 2.46 1.44 2.46 3.61zm-4.1 0c0 1.74.46 2.85 1.64 2.85 1.15 0 1.63-1.12 1.63-2.85 0-1.76-.48-2.91-1.63-2.91-1.19-.01-1.64 1.15-1.64 2.91zM308.7 174.86l1.76 2.66h-.94l-1.34-2.12-1.38 2.12h-.92l1.79-2.64-1.65-2.48h.93l1.25 1.97 1.27-1.97h.9l-1.67 2.46zM316.05 174.09c0 2.15-.79 3.55-2.46 3.55-1.71 0-2.47-1.4-2.47-3.55 0-2.16.77-3.61 2.47-3.61 1.67 0 2.46 1.44 2.46 3.61zm-4.1 0c0 1.74.46 2.85 1.64 2.85 1.16 0 1.63-1.12 1.63-2.85 0-1.76-.48-2.91-1.63-2.91-1.19-.01-1.64 1.15-1.64 2.91zM317.91 173.8c.34-.5.98-.83 1.69-.83 1.35 0 2.2.97 2.2 2.29 0 1.38-.93 2.37-2.29 2.37-2.01 0-2.46-1.8-2.46-3.19 0-2.25.86-3.97 2.73-3.97.56 0 1.01.1 1.38.27l-.21.66c-.31-.16-.71-.23-1.14-.23-1.37 0-1.85 1.32-1.92 2.63h.02zm1.57 3.14c.92 0 1.49-.68 1.49-1.67 0-.88-.46-1.59-1.41-1.59-.94 0-1.62.69-1.62 1.45 0 .87.46 1.81 1.54 1.81z"/></g><g><path class="st12" d="M69.89 44.41h1.96l3.56 6.25v-6.25h1.75v8.96h-1.87l-3.65-6.36v6.36h-1.75v-8.96z"/></g><g><path class="st12" d="M212.92 44.41h1.96l3.56 6.25v-6.25h1.75v8.96h-1.87l-3.65-6.36v6.36h-1.75v-8.96z"/></g><g><path class="st12" d="M328.06 44.41h1.96l3.56 6.25v-6.25h1.75v8.96h-1.87l-3.65-6.36v6.36h-1.75v-8.96z"/></g><g><path class="st12" d="M71.7 209.79c.05.39.16.68.32.87.29.35.8.52 1.51.52.43 0 .77-.05 1.04-.14.51-.18.76-.51.76-.99 0-.28-.12-.5-.37-.65-.25-.15-.64-.28-1.18-.4l-.92-.2c-.9-.2-1.53-.42-1.86-.65-.57-.39-.86-1.01-.86-1.84 0-.76.28-1.39.84-1.9.56-.5 1.38-.76 2.47-.76.91 0 1.68.24 2.32.71.64.47.98 1.16 1.01 2.07h-1.71c-.03-.51-.26-.87-.69-1.09-.28-.14-.64-.21-1.06-.21-.47 0-.84.09-1.12.28s-.42.44-.42.77c0 .3.14.53.41.68.18.1.55.22 1.13.35l1.49.35c.65.15 1.14.36 1.47.62.51.4.76.98.76 1.74 0 .78-.3 1.42-.9 1.93-.6.51-1.45.77-2.54.77-1.12 0-2-.25-2.64-.76-.64-.51-.96-1.2-.96-2.08h1.7z"/></g><g><path class="st12" d="M214.73 209.79c.05.39.16.68.32.87.29.35.8.52 1.51.52.43 0 .77-.05 1.04-.14.51-.18.76-.51.76-.99 0-.28-.12-.5-.37-.65-.25-.15-.64-.28-1.18-.4l-.92-.2c-.9-.2-1.53-.42-1.86-.65-.57-.39-.86-1.01-.86-1.84 0-.76.28-1.39.84-1.9.56-.5 1.38-.76 2.47-.76.91 0 1.68.24 2.32.71.64.47.98 1.16 1.01 2.07h-1.71c-.03-.51-.26-.87-.69-1.09-.28-.14-.64-.21-1.06-.21-.47 0-.84.09-1.12.28s-.42.44-.42.77c0 .3.14.53.41.68.18.1.55.22 1.13.35l1.49.35c.65.15 1.14.36 1.47.62.51.4.76.98.76 1.74 0 .78-.3 1.42-.9 1.93-.6.51-1.45.77-2.54.77-1.12 0-2-.25-2.64-.76-.64-.51-.96-1.2-.96-2.08h1.7z"/></g><g><path class="st12" d="M329.87 209.79c.05.39.16.68.32.87.29.35.8.52 1.51.52.43 0 .77-.05 1.04-.14.51-.18.76-.51.76-.99 0-.28-.12-.5-.37-.65-.25-.15-.64-.28-1.18-.4l-.92-.2c-.9-.2-1.53-.42-1.86-.65-.57-.39-.86-1.01-.86-1.84 0-.76.28-1.39.84-1.9.56-.5 1.38-.76 2.47-.76.91 0 1.68.24 2.32.71.64.47.98 1.16 1.01 2.07h-1.71c-.03-.51-.26-.87-.69-1.09-.28-.14-.64-.21-1.06-.21-.47 0-.84.09-1.12.28s-.42.44-.42.77c0 .3.14.53.41.68.18.1.55.22 1.13.35l1.49.35c.65.15 1.14.36 1.47.62.51.4.76.98.76 1.74 0 .78-.3 1.42-.9 1.93-.6.51-1.45.77-2.54.77-1.12 0-2-.25-2.64-.76-.64-.51-.96-1.2-.96-2.08h1.7z"/></g></g><g id="レイヤー_2"><path class="st14" d="M73.52 299.13v-1.5"/><path class="st19" d="M73.52 295.63v-2"/><path class="st20" d="M73.52 292.64V22.13"/><path class="st14" d="M73.52 21.14v-1.5M207.14 299.13v-1.5"/><path class="st19" d="M207.14 295.63v-2"/><path class="st20" d="M207.14 292.64V22.13"/><path class="st14" d="M207.14 21.14v-1.5"/><path class="st21" d="M216.22 24.8v196.07M331.7 220.87V24.8"/><path class="st14" d="M340.77 299.13v-1.5"/><path class="st19" d="M340.77 295.63v-2"/><path class="st20" d="M340.77 292.64V22.13"/><path class="st14" d="M340.77 21.14v-1.5"/><path class="st21" d="M463.32 24.8v206.25M453.6 24.8v196.07"/><path class="st14" d="M6.83 81.49h1.5"/><path class="st22" d="M10.32 81.49h2"/><path class="st23" d="M13.32 81.49h517.92"/><path class="st14" d="M532.24 81.49h1.5"/><g><path class="st14" d="M6.83 241.56h1.5"/><path class="st22" d="M10.32 241.56h2"/><path class="st23" d="M13.32 241.56h517.92"/><path class="st14" d="M532.24 241.56h1.5"/></g><path class="st21" d="M485.01 48.89H16.21M485.01 208.97H16.21"/><g><path class="st24" d="M452.98 28.69h-9.36"/><path class="st18" d="M450.02 27.1l-.17.47 3.08 1.12-3.08 1.12.17.47 4.37-1.59z"/></g><g><path class="st24" d="M464.88 28.69h9.36"/><path class="st18" d="M467.84 30.28l.17-.47-3.08-1.12 3.08-1.12-.17-.47-4.37 1.59z"/></g><path class="st24" d="M443.62 28.69h30.62"/><g><path class="st24" d="M18.83 50.31v29.77"/><path class="st18" d="M17.24 53.26l.47.17 1.12-3.08 1.12 3.08.47-.17-1.59-4.37zM17.24 77.12l.47-.17 1.12 3.08 1.12-3.08.47.17-1.59 4.37z"/></g><g><path class="st24" d="M18.83 210.94v29.77"/><path class="st18" d="M17.24 213.9l.47.17 1.12-3.08 1.12 3.08.47-.17-1.59-4.37zM17.24 237.76l.47-.17 1.12 3.08 1.12-3.08.47.17-1.59 4.37z"/></g><g><path class="st24" d="M330.28 28.69h-9.36"/><path class="st18" d="M327.33 27.1l-.17.47 3.07 1.12-3.07 1.12.17.47 4.36-1.59z"/><path class="st24" d="M342.18 28.69h9.36"/><path class="st18" d="M345.14 30.28l.17-.47-3.08-1.12 3.08-1.12-.17-.47-4.37 1.59z"/><path class="st24" d="M320.92 28.69h30.62"/></g><g><path class="st24" d="M205.73 28.69h-9.36"/><path class="st18" d="M202.77 27.1l-.17.47 3.08 1.12-3.08 1.12.17.47 4.37-1.59z"/><path class="st24" d="M217.63 28.69h9.36"/><path class="st18" d="M220.58 30.28l.18-.47-3.08-1.12 3.08-1.12-.18-.47-4.36 1.59z"/><path class="st24" d="M196.37 28.69h30.62"/></g></g></svg>