<svg xmlns="http://www.w3.org/2000/svg" viewBox="0 0 133.788 133.787"><defs><clipPath clipPathUnits="userSpaceOnUse" id="a"><path d="M.088 0h100.253v100.279H.088z"/></clipPath><clipPath clipPathUnits="userSpaceOnUse" id="b"><path d="M39.159 97.577c-20.003 0-36.368-16.368-36.368-36.371V39.01c0-20.004 16.365-36.369 36.368-36.369h22.198c20.007 0 36.37 16.365 36.37 36.369v22.196c0 20.003-16.363 36.371-36.37 36.371z"/></clipPath><clipPath clipPathUnits="userSpaceOnUse" id="c"><path d="M0 100.34h100.341V0H0z"/></clipPath></defs><g clip-path="url(#a)" transform="matrix(1.33333 0 0 -1.33333 0 133.787)"><path d="M97.728 39.009c0-20.004-16.365-36.37-36.371-36.37H39.16c-20.004 0-36.37 16.366-36.37 36.37v22.197c0 20.003 16.366 36.37 36.37 36.37h22.197c20.005 0 36.371-16.367 36.371-36.37z" fill="#fff"/></g><g clip-path="url(#b)" transform="matrix(1.33333 0 0 -1.33333 0 133.787)"><path d="M57.617 39.257c-2.639.448-4.204 3.468-3.497 6.743.706 3.276 3.42 5.959 6.06 5.51 2.637-.447 4.204-3.857 3.497-7.131-.707-3.276-3.42-5.57-6.06-5.122" fill="#00aaa3"/><path d="M57.617 39.257c-2.639.448-4.204 3.468-3.497 6.743.706 3.276 3.42 5.959 6.06 5.51 2.637-.447 4.204-3.857 3.497-7.131-.707-3.276-3.42-5.57-6.06-5.122z" fill="none" stroke="#00aaa3" stroke-width="2.083" stroke-linecap="round" stroke-linejoin="round" stroke-miterlimit="10"/><path d="M68.599 44.403l-16.704 9.333V67.62l16.704-7.17z" fill="#fff"/><path d="M68.599 44.403l-16.704 9.333V67.62l16.704-7.17z" fill="none" stroke="#00aaa3" stroke-width="2.083" stroke-linecap="round" stroke-linejoin="round" stroke-miterlimit="10"/><path d="M49.913 37.114L33.1 45.051v16.37l16.812-7.377z" fill="#fff"/><path d="M49.913 37.114L33.1 45.051v16.37l16.812-7.377z" fill="none" stroke="#00aaa3" stroke-width="2.083" stroke-linecap="round" stroke-linejoin="round" stroke-miterlimit="10"/><path d="M49.913 54.183L33.1 61.423l18.793 6.197 16.705-7.17z" fill="#fff"/><path d="M49.913 54.183L33.1 61.423l18.793 6.197 16.705-7.17z" fill="none" stroke="#00aaa3" stroke-width="2.083" stroke-linecap="round" stroke-linejoin="round" stroke-miterlimit="10"/><path d="M68.599 44.403l-16.704 9.333V67.62l16.704-7.17z" fill="#fff"/><path d="M68.599 44.403l-16.704 9.333V67.62l16.704-7.17z" fill="none" stroke="#00aaa3" stroke-width="2.083" stroke-linecap="round" stroke-linejoin="round" stroke-miterlimit="10"/><path d="M68.599 44.403L49.912 37.12v17.063l18.687 6.267z" fill="#fff"/><path d="M68.599 44.403L49.912 37.12v17.063l18.687 6.267z" fill="none" stroke="#00aaa3" stroke-width="2.083" stroke-linecap="round" stroke-linejoin="round" stroke-miterlimit="10"/><path d="M49.913 54.183L33.1 61.423l18.793 6.197 16.705-7.17z" fill="#fff"/><path d="M49.913 54.183L33.1 61.423l18.793 6.197 16.705-7.17zM27.418 46.452a3.31 3.31 0 00-.9 1.662c-.14.66-.075 1.31.148 1.884M25.107 44.663a5.72 5.72 0 00-1.553 2.874 5.713 5.713 0 00.255 3.257M74.451 46.452c.436.434.76 1.004.897 1.662a3.29 3.29 0 01-.146 1.884M76.76 44.663a5.72 5.72 0 011.555 2.874 5.713 5.713 0 01-.255 3.257M55.072 74.946a5.717 5.717 0 01-3.155.849 5.722 5.722 0 01-3.112-1M53.773 72.454a3.303 3.303 0 01-1.824.491 3.307 3.307 0 01-1.8-.578M74.317 24.11c0-6.845-2.628-12.395-5.87-12.395-3.243 0-5.872 5.55-5.872 12.394s2.63 12.393 5.871 12.393c3.243 0 5.871-5.549 5.871-12.393z" fill="none" stroke="#00aaa3" stroke-width="2.083" stroke-linecap="round" stroke-linejoin="round" stroke-miterlimit="10"/><path d="M69.318 11.861l28.865 12.176v.071l-28.865 12.25" fill="none" stroke="#00aaa3" stroke-width="2.083" stroke-linecap="round" stroke-linejoin="round" stroke-miterlimit="10"/><path d="M15.552 88.104V70.456l4.451 1.523c0 5.448 3.222 10.967 7.197 12.327 3.975 1.36 7.197-1.954 7.197-7.402l4.762-3.175-.312 22.347z" fill="#fff"/><path d="M15.552 88.104V70.456l4.451 1.523c0 5.448 3.222 10.967 7.197 12.327 3.975 1.36 7.197-1.954 7.197-7.402l4.762-3.175-.312 22.347z" fill="none" stroke="#00aaa3" stroke-width="2.083" stroke-linecap="round" stroke-linejoin="round" stroke-miterlimit="10"/><path d="M20.315 84.929V67.28l4.451 1.523c0 5.448 3.222 10.967 7.196 12.327 3.975 1.36 7.197-1.954 7.197-7.402l4.451 1.523V92.9z" fill="#fff"/><path d="M20.315 84.929V67.28l4.451 1.523c0 5.448 3.222 10.967 7.196 12.327 3.975 1.36 7.197-1.954 7.197-7.402l4.451 1.523V92.9z" fill="none" stroke="#00aaa3" stroke-width="2.083" stroke-linecap="round" stroke-linejoin="round" stroke-miterlimit="10"/><path d="M13.554 70.158l6.762-2.878v17.65l-6.762 2.876z" fill="#fff"/><path d="M13.554 70.158l6.762-2.878v17.65l-6.762 2.876z" fill="none" stroke="#00aaa3" stroke-width="2.083" stroke-linecap="round" stroke-linejoin="round" stroke-miterlimit="10"/><path d="M36.834 95.873l6.762-2.878-23.28-8.066-6.762 2.878z" fill="#fff"/><path d="M36.834 95.873l6.762-2.878-23.28-8.066-6.762 2.878z" fill="none" stroke="#00aaa3" stroke-width="2.083" stroke-linecap="round" stroke-linejoin="round" stroke-miterlimit="10"/><path d="M20.315 84.929V67.28l4.451 1.523c0 5.448 3.222 10.967 7.196 12.327 3.975 1.36 7.197-1.954 7.197-7.402l4.451 1.523V92.9z" fill="#fff"/><path d="M20.315 84.929V67.28l4.451 1.523c0 5.448 3.222 10.967 7.196 12.327 3.975 1.36 7.197-1.954 7.197-7.402l4.451 1.523V92.9z" fill="none" stroke="#00aaa3" stroke-width="2.083" stroke-linecap="round" stroke-linejoin="round" stroke-miterlimit="10"/><path d="M13.554 70.158l6.762-2.878v17.65l-6.762 2.876z" fill="#fff"/><path d="M13.554 70.158l6.762-2.878v17.65l-6.762 2.876z" fill="none" stroke="#00aaa3" stroke-width="2.083" stroke-linecap="round" stroke-linejoin="round" stroke-miterlimit="10"/><path d="M36.834 95.873l6.762-2.878-23.28-8.066-6.762 2.878z" fill="#fff"/><path d="M36.834 95.873l6.762-2.878-23.28-8.066-6.762 2.878z" fill="none" stroke="#00aaa3" stroke-width="2.083" stroke-linecap="round" stroke-linejoin="round" stroke-miterlimit="10"/><path d="M32.143 23.14l-13.491 7.525v11.193l13.49-5.78z" fill="#fff"/><path d="M32.143 23.14l-13.491 7.525v11.193l13.49-5.78z" fill="none" stroke="#00aaa3" stroke-width="2.083" stroke-linecap="round" stroke-linejoin="round" stroke-miterlimit="10"/><path d="M17.05 31.025L3.474 36.861l15.179 4.996 13.49-5.78z" fill="#fff"/><path d="M17.05 31.025L3.474 36.861l15.179 4.996 13.49-5.78z" fill="none" stroke="#00aaa3" stroke-width="2.083" stroke-linecap="round" stroke-linejoin="round" stroke-miterlimit="10"/><path d="M32.143 23.14l-13.491 7.525v11.193l13.49-5.78z" fill="#fff"/><path d="M32.143 23.14l-13.491 7.525v11.193l13.49-5.78z" fill="none" stroke="#00aaa3" stroke-width="2.083" stroke-linecap="round" stroke-linejoin="round" stroke-miterlimit="10"/><path d="M17.05 31.025L3.474 36.861l15.179 4.996 13.49-5.78z" fill="#fff"/><path d="M17.05 31.025L3.474 36.861l15.179 4.996 13.49-5.78z" fill="none" stroke="#00aaa3" stroke-width="2.083" stroke-linecap="round" stroke-linejoin="round" stroke-miterlimit="10"/><path d="M23.306 27.463H12.584v9.086h10.722z" fill="#fff" stroke="#00aaa3" stroke-width="2.083" stroke-linecap="round" stroke-linejoin="round" stroke-miterlimit="10"/><path d="M17.05 17.265L3.474 23.662v13.2l13.578-5.95z" fill="#fff"/><path d="M17.05 17.265L3.474 23.662v13.2l13.578-5.95z" fill="none" stroke="#00aaa3" stroke-width="2.083" stroke-linecap="round" stroke-linejoin="round" stroke-miterlimit="10"/><path d="M32.143 23.14L17.05 17.27v13.756l15.092 5.052z" fill="#fff"/><path d="M32.143 23.14L17.05 17.27v13.756l15.092 5.052z" fill="none" stroke="#00aaa3" stroke-width="2.083" stroke-linecap="round" stroke-linejoin="round" stroke-miterlimit="10"/><path d="M23.3 36.549c0-1.047-2.397-1.896-5.355-1.896-2.958 0-5.355.849-5.355 1.896 0 1.048 2.397 1.896 5.355 1.896 2.958 0 5.355-.848 5.355-1.896" fill="#fff"/><path d="M23.3 36.549c0-1.047-2.397-1.896-5.355-1.896-2.958 0-5.355.849-5.355 1.896 0 1.048 2.397 1.896 5.355 1.896 2.958 0 5.355-.848 5.355-1.896z" fill="none" stroke="#00aaa3" stroke-width="2.083" stroke-linecap="round" stroke-linejoin="round" stroke-miterlimit="10"/><path d="M96.728 63.562l-23.302 6.079v14.405l23.302-9.93z" fill="#fff"/><path d="M96.728 63.562l-23.302 6.079v14.405l23.302-9.93z" fill="none" stroke="#00aaa3" stroke-width="2.083" stroke-linecap="round" stroke-linejoin="round" stroke-miterlimit="10"/><path d="M87.835 59.254L64.422 69.98v10.89l23.413-10.145z" fill="#fff"/><path d="M87.835 59.254L64.422 69.98v10.89l23.413-10.145z" fill="none" stroke="#00aaa3" stroke-width="2.083" stroke-linecap="round" stroke-linejoin="round" stroke-miterlimit="10"/><path d="M96.728 63.562l-8.894-4.302v11.609l8.894 3.247z" fill="#fff"/><path d="M96.728 63.562l-8.894-4.302v11.609l8.894 3.247z" fill="none" stroke="#00aaa3" stroke-width="2.083" stroke-linecap="round" stroke-linejoin="round" stroke-miterlimit="10"/><path d="M87.835 70.87l-23.413 10 9.004 3.176 23.303-9.93z" fill="#fff"/><path d="M87.835 70.87l-23.413 10 9.004 3.176 23.303-9.93z" fill="none" stroke="#00aaa3" stroke-width="2.083" stroke-linecap="round" stroke-linejoin="round" stroke-miterlimit="10"/><path d="M96.728 63.562l-8.894-4.302v11.609l8.894 3.247z" fill="#fff"/><path d="M96.728 63.562l-8.894-4.302v11.609l8.894 3.247z" fill="none" stroke="#00aaa3" stroke-width="2.083" stroke-linecap="round" stroke-linejoin="round" stroke-miterlimit="10"/><path d="M87.835 70.87l-23.413 10 9.004 3.176 23.303-9.93z" fill="#fff"/><path d="M87.835 70.87l-23.413 10 9.004 3.176 23.303-9.93z" fill="none" stroke="#00aaa3" stroke-width="2.083" stroke-linecap="round" stroke-linejoin="round" stroke-miterlimit="10"/><path d="M69.783 73.124c0-1.386-.898-2.509-2.007-2.509-1.108 0-2.007 1.123-2.007 2.509s.9 2.509 2.007 2.509c1.11 0 2.007-1.123 2.007-2.509" fill="#fff"/><path d="M69.783 73.124c0-1.386-.898-2.509-2.007-2.509-1.108 0-2.007 1.123-2.007 2.509s.9 2.509 2.007 2.509c1.11 0 2.007-1.123 2.007-2.509z" fill="none" stroke="#00aaa3" stroke-width="2.083" stroke-linecap="round" stroke-linejoin="round" stroke-miterlimit="10"/><path d="M69.07 72.768c0-1.386-.898-2.51-2.006-2.51-1.108 0-2.007 1.124-2.007 2.51 0 1.386.9 2.51 2.007 2.51 1.108 0 2.006-1.124 2.006-2.51" fill="#fff"/><path d="M69.07 72.768c0-1.386-.898-2.51-2.006-2.51-1.108 0-2.007 1.124-2.007 2.51 0 1.386.9 2.51 2.007 2.51 1.108 0 2.006-1.124 2.006-2.51z" fill="none" stroke="#00aaa3" stroke-width="2.083" stroke-linecap="round" stroke-linejoin="round" stroke-miterlimit="10"/><path d="M77.452 69.522c0-1.386-.898-2.509-2.006-2.509-1.108 0-2.007 1.123-2.007 2.509s.9 2.509 2.007 2.509c1.108 0 2.006-1.123 2.006-2.509" fill="#fff"/><path d="M77.452 69.522c0-1.386-.898-2.509-2.006-2.509-1.108 0-2.007 1.123-2.007 2.509s.9 2.509 2.007 2.509c1.108 0 2.006-1.123 2.006-2.509z" fill="none" stroke="#00aaa3" stroke-width="2.083" stroke-linecap="round" stroke-linejoin="round" stroke-miterlimit="10"/><path d="M76.74 69.165c0-1.386-.898-2.509-2.007-2.509-1.107 0-2.006 1.123-2.006 2.51 0 1.385.9 2.51 2.006 2.51 1.11 0 2.007-1.125 2.007-2.51" fill="#fff"/><path d="M76.74 69.165c0-1.386-.898-2.509-2.007-2.509-1.107 0-2.006 1.123-2.006 2.51 0 1.385.9 2.51 2.006 2.51 1.11 0 2.007-1.125 2.007-2.51z" fill="none" stroke="#00aaa3" stroke-width="2.083" stroke-linecap="round" stroke-linejoin="round" stroke-miterlimit="10"/><path d="M85.122 65.92c0-1.386-.898-2.51-2.007-2.51-1.107 0-2.006 1.124-2.006 2.51 0 1.386.9 2.509 2.006 2.509 1.11 0 2.007-1.123 2.007-2.51" fill="#fff"/><path d="M85.122 65.92c0-1.386-.898-2.51-2.007-2.51-1.107 0-2.006 1.124-2.006 2.51 0 1.386.9 2.509 2.006 2.509 1.11 0 2.007-1.123 2.007-2.51z" fill="none" stroke="#00aaa3" stroke-width="2.083" stroke-linecap="round" stroke-linejoin="round" stroke-miterlimit="10"/><path d="M84.41 65.564c0-1.386-.898-2.51-2.007-2.51-1.108 0-2.007 1.124-2.007 2.51 0 1.386.9 2.51 2.007 2.51 1.11 0 2.006-1.124 2.006-2.51" fill="#fff"/><path d="M84.41 65.564c0-1.386-.898-2.51-2.007-2.51-1.108 0-2.007 1.124-2.007 2.51 0 1.386.9 2.51 2.007 2.51 1.11 0 2.006-1.124 2.006-2.51z" fill="none" stroke="#00aaa3" stroke-width="2.083" stroke-linecap="round" stroke-linejoin="round" stroke-miterlimit="10"/></g><g clip-path="url(#c)" transform="matrix(1.33333 0 0 -1.33333 0 133.787)"><path d="M97.728 39.009c0-20.004-16.365-36.37-36.371-36.37H39.16c-20.004 0-36.37 16.366-36.37 36.37v22.197c0 20.003 16.366 36.37 36.37 36.37h22.197c20.005 0 36.371-16.367 36.371-36.37z" fill="none" stroke="#00aaa3" stroke-width="5.403" stroke-linecap="round" stroke-linejoin="round" stroke-miterlimit="10"/><path d="M73.864 5.075H29.376L7.882 18.813h85.2z" fill="#00aaa3"/><path d="M28.764 6.643c3.938 1.013 6.282 4.115 7.24 8.107l2.001-.504c-1.11-3.488-2.87-7.382-8.184-9.165zM49.61 9.04h-9.703v1.839h9.703zM57.113 5.322c-1.21 1.684-3.169 3.378-4.467 4.335L54 10.834c.374-.24.902-.583 1.76-1.32.364.242 1.97 1.342 2.784 2.805H51.36v1.705h9.77c-.22-1.178-.76-3.366-4.105-5.654 1.08-1.045 1.343-1.375 1.64-1.729zM68.145 7.446c1.883.627 2.289 2.926 2.422 3.807l1.649-.793c-.593-2.959-2.376-5.082-5.83-5.214v9.393h1.76zm-3.002 4.278c0-4.883-1.42-6.269-1.992-6.808l-1.376 1.428c.517.497 1.597 1.54 1.597 5.194v2.751h1.77z" fill="#fff"/></g></svg>