<svg xmlns="http://www.w3.org/2000/svg" viewBox="0 0 133.789 133.788"><defs><clipPath clipPathUnits="userSpaceOnUse" id="a"><path d="M0 0h100.342v100.341H0z"/></clipPath><clipPath clipPathUnits="userSpaceOnUse" id="b"><path d="M39.071 97.639c-20.005 0-36.369-16.367-36.369-36.371V39.072c0-20.006 16.364-36.37 36.369-36.37h22.197c20.007 0 36.371 16.364 36.371 36.37v22.196c0 20.004-16.364 36.371-36.371 36.371z"/></clipPath><clipPath clipPathUnits="userSpaceOnUse" id="c"><path d="M84.018 99.9h40.729V71.99h-40.73z"/></clipPath><clipPath clipPathUnits="userSpaceOnUse" id="d"><path d="M84.018 71.989h40.729v27.912H84.018z"/></clipPath><clipPath clipPathUnits="userSpaceOnUse" id="e"><path d="M55.05 86.766h42.52V65.608H55.05z"/></clipPath><clipPath clipPathUnits="userSpaceOnUse" id="f"><path d="M55.05 65.608h42.52v21.157H55.05z"/></clipPath><clipPath clipPathUnits="userSpaceOnUse" id="g"><path d="M23.327 46.242h5.03v-2.616h-5.03z"/></clipPath><clipPath clipPathUnits="userSpaceOnUse" id="h"><path d="M23.327 43.627h5.03v2.615h-5.03z"/></clipPath><clipPath clipPathUnits="userSpaceOnUse" id="i"><path d="M0 0h100.342v100.341H0z"/></clipPath></defs><g clip-path="url(#a)" transform="matrix(1.33333 0 0 -1.33333 0 133.788)"><path d="M97.64 39.07c0-20.004-16.365-36.368-36.37-36.368H39.072c-20.004 0-36.37 16.364-36.37 36.368v22.197c0 20.004 16.366 36.372 36.37 36.372H61.27c20.005 0 36.37-16.368 36.37-36.372z" fill="#fff"/></g><g clip-path="url(#b)" transform="matrix(1.33333 0 0 -1.33333 0 133.788)"><g clip-path="url(#c)"><g clip-path="url(#d)" opacity=".6"><path d="M103.281 74.318c-.427.154-.854.308-1.28.46-2.199.794-4.41 1.592-6.408 2.677-1.772.96-3.392 2.08-5.174 3.032-1.847.984-3.94 1.732-5.922 2.549-.229.094-.487.23-.48.434.014.31.555.355.942.337 2.17-.101 4.14.946 5.853 2.019 3.865 2.42 6.998 5.346 10.445 8.084 2.78 2.209 5.143 5.262 9.28 5.905 1.516.235 3.09-.045 4.548-.458 4.99-1.412 9.508-4.891 9.658-9.14.1-2.86-1.733-5.507-3.525-7.981-2.71-3.74-5.598-7.583-10.049-10.021-1.08-.592-2.379.118-3.574.548l-4.314 1.555" fill="#3fb9ee"/></g></g><path d="M47.102 32.914c-1.387 1.508-3.97 1.637-5.767.286-1.799-1.348-2.13-3.662-.744-5.17 1.387-1.508 3.97-1.637 5.766-.287 1.8 1.35 2.133 3.663.745 5.171" fill="#3fb9ee"/><path d="M47.102 32.914c-1.387 1.508-3.97 1.637-5.767.286-1.799-1.348-2.13-3.662-.744-5.17 1.387-1.508 3.97-1.637 5.766-.287 1.8 1.35 2.133 3.663.745 5.171z" fill="none" stroke="#3fb9ee" stroke-width="2.083" stroke-linecap="round" stroke-linejoin="round" stroke-miterlimit="10"/><path d="M90.814 57.739c-1.387 1.507-3.97 1.635-5.767.286-1.797-1.348-2.129-3.662-.744-5.17 1.39-1.507 3.97-1.637 5.769-.287 1.798 1.349 2.131 3.664.742 5.17" fill="#3fb9ee"/><path d="M90.814 57.739c-1.387 1.507-3.97 1.635-5.767.286-1.797-1.348-2.129-3.662-.744-5.17 1.39-1.507 3.97-1.637 5.769-.287 1.798 1.349 2.131 3.664.742 5.17z" fill="none" stroke="#3fb9ee" stroke-width="2.083" stroke-linecap="round" stroke-linejoin="round" stroke-miterlimit="10"/><path d="M32.645 22.105l21.673 11.473v18.984L32.647 41.267z" fill="#fff"/><path d="M32.645 22.105l21.673 11.473v18.984L32.647 41.267z" fill="none" stroke="#3fb9ee" stroke-width="2.083" stroke-linecap="round" stroke-linejoin="round" stroke-miterlimit="10"/><path d="M32.645 22.105L10.81 33.75v18.987l21.835-11.472z" fill="#fff"/><path d="M32.645 22.105L10.81 33.75v18.987l21.835-11.472z" fill="none" stroke="#3fb9ee" stroke-width="2.083" stroke-linecap="round" stroke-linejoin="round" stroke-miterlimit="10"/><path d="M97.96 58.976l-.251 18.187-21.077 9.582 21.077-9.582z" fill="#fff"/><path d="M97.96 58.976l-.251 18.187-21.077 9.582 21.077-9.582z" fill="none" stroke="#3fb9ee" stroke-width="2.083" stroke-linecap="round" stroke-linejoin="round" stroke-miterlimit="10"/><g clip-path="url(#e)"><g clip-path="url(#f)" opacity=".6"><path d="M76.642 65.608l-7.484 3.588-7.777-1.768 2.148 4.466-8.48 4.063 20.657 10.808 21.864-9.653z" fill="#3fb9ee"/></g></g><path d="M76.732 46.08L55.324 57.06l-.262 18.667 8.631-4.355-3.048-4.75 7.935 2.281 7.888-3.983z" fill="#fff"/><path d="M76.732 46.08L55.324 57.06l-.262 18.667 8.631-4.355-3.048-4.75 7.935 2.281 7.888-3.983z" fill="none" stroke="#3fb9ee" stroke-width="2.083" stroke-linecap="round" stroke-linejoin="round" stroke-miterlimit="10"/><path d="M97.85 58.199L76.735 46.098l-.27 19.03 21.134 11.258z" fill="#fff"/><path d="M97.85 58.199L76.735 46.098l-.27 19.03 21.134 11.258z" fill="none" stroke="#3fb9ee" stroke-width="2.083" stroke-linecap="round" stroke-linejoin="round" stroke-miterlimit="10"/><path d="M45.95 56.669c.429.403 1.315 2.202-.382 3.34-1.698 1.139-5.044.85-6.538.055l-6.21 3.046-21.974-10.38 21.8-11.252 21.673 11.085z" fill="#3fb9ee"/><path d="M45.95 56.669c.429.403 1.315 2.202-.382 3.34-1.698 1.139-5.044.85-6.538.055l-6.21 3.046-21.974-10.38 21.8-11.252 21.673 11.085z" fill="none" stroke="#3fb9ee" stroke-width="2.083" stroke-linecap="round" stroke-linejoin="round" stroke-miterlimit="10"/><path d="M38.072 58.249c.41-.79-.493-1.493-2.014-1.572-1.52-.078-3.086.498-3.494 1.287-.409.789.493 1.493 2.014 1.572 1.521.078 3.085-.498 3.494-1.287" fill="#fff"/><path d="M36.73 58.18c.209-.405-.253-.766-1.033-.806-.779-.04-1.581.255-1.791.66-.209.404.253.765 1.033.806.78.04 1.582-.256 1.791-.66" fill="#3fb9ee"/><path d="M44.725 54.91c.409-.79-.493-1.494-2.014-1.572-1.521-.079-3.085.497-3.494 1.287-.41.79.493 1.493 2.014 1.572 1.52.078 3.085-.498 3.494-1.287" fill="#fff"/><path d="M43.382 54.84c.21-.404-.252-.765-1.032-.805-.78-.04-1.582.255-1.79.66-.21.404.252.765 1.031.805.78.04 1.582-.255 1.791-.66" fill="#3fb9ee"/><path d="M46.921 80.225l13.072 6.624M42.73 74.11l7.363 3.73M74.56 55.804l10.722 5.437M73.224 50.762l7.513 3.811M41.692 81.953l9.043 4.583M64.7 55.495l8.578 4.35M55.063 75.728L76.63 86.745" fill="none" stroke="#3fb9ee" stroke-width="2.083" stroke-linecap="round" stroke-linejoin="round" stroke-miterlimit="10"/><g clip-path="url(#g)"><g clip-path="url(#h)" opacity=".7"><path d="M28.357 43.626l-5.03 2.615" fill="#3fb9ee"/></g></g><path d="M10.81 52.738l21.835-11.471" fill="none" stroke="#3fb9ee" stroke-width="2.083" stroke-linecap="round" stroke-linejoin="round" stroke-miterlimit="10"/><path d="M9.887 52.916C7.852 45.114 1.903 35.764-7.291 33.77l-17.393-5.2c-5.198-1.16-6.134-5.477-1.617-7.451l12.693-5.547c3.206-1.402 7.677-.534 11.08.016 3.765.608 7.39 1.697 10.784 3.136 6.884 2.918 12.799 7.227 17.568 12.14 1.477 1.523 2.864 3.11 3.967 4.824a18.938 18.938 0 012.37 5.27" fill="#3fb9ee"/><path d="M77.561 71.624c.397-.092.62-.477.451-.784-.623-1.136-2.119-1.74-3.654-1.386-1.535.356-2.613 1.556-2.677 2.85-.016.35.354.597.75.505z" fill="#fff"/><path d="M74.553 70.32a1.794 1.794 0 00-1.33 1.268c-.042.155.115.284.295.243l2.63-.608c.177-.04.263-.227.158-.347a1.798 1.798 0 00-1.753-.556" fill="#3fb9ee"/><path d="M65.28 78.015c-.27.272-.716.23-.91-.087-.72-1.171-.56-2.748.475-3.798 1.037-1.05 2.611-1.234 3.791-.531a.58.58 0 01.1.909z" fill="#fff"/><path d="M65.584 74.707c.449-.456 1.132-.567 1.752-.35.158.057.199.26.079.383l-1.771 1.799c-.122.122-.328.084-.384-.074-.228-.618-.125-1.301.324-1.757" fill="#3fb9ee"/><path d="M20.363 68.708c-2.105-.434-4.976-1.719-5.793-6.081" fill="#fff" stroke="#3fb9ee" stroke-width="2.083" stroke-linecap="round" stroke-linejoin="round" stroke-miterlimit="10"/><g><path d="M15.471 70.13c-.932-.238-2.26-.886-2.834-2.654" fill="#fff" stroke="#3fb9ee" stroke-width="2.083" stroke-linecap="round" stroke-linejoin="round" stroke-miterlimit="10"/></g><g><path d="M58.497 27.027c1.876 1.051 4.226 3.142 3.688 7.546" fill="#fff" stroke="#3fb9ee" stroke-width="2.083" stroke-linecap="round" stroke-linejoin="round" stroke-miterlimit="10"/></g><g><path d="M63.59 27.148c.816.51 1.889 1.526 1.9 3.388" fill="#fff" stroke="#3fb9ee" stroke-width="2.083" stroke-linecap="round" stroke-linejoin="round" stroke-miterlimit="10"/></g></g><g clip-path="url(#i)" transform="matrix(1.33333 0 0 -1.33333 0 133.788)"><path d="M97.64 39.07c0-20.004-16.365-36.368-36.37-36.368H39.072c-20.004 0-36.37 16.364-36.37 36.368v22.197c0 20.004 16.366 36.372 36.37 36.372H61.27c20.005 0 36.37-16.368 36.37-36.372z" fill="none" stroke="#3fb9ee" stroke-width="5.403" stroke-linecap="round" stroke-linejoin="round" stroke-miterlimit="10"/><path d="M73.775 5.136H29.288L13.501 14.78l-7.124 4.093h88.034c1.564 4.315-20.636-13.738-20.636-13.738" fill="#3fb9ee"/><path d="M42.363 11.356c-.011 1.432-.616 1.584-2.058 1.584-1.936 0-2.233-.196-2.233-2.694 0-2.388.12-2.85 2.124-2.85 1.903 0 2.178.153 2.2 1.772h1.826c-.022-2.4-.66-3.42-3.752-3.42-3.201 0-4.213.602-4.213 4.277 0 3.168.363 4.565 3.883 4.565 2.608 0 3.994-.383 4.016-3.234zM47.928 12.852v-2.497h3.103c.792 0 1.188.177 1.188 1.255 0 1.178-.474 1.242-1.188 1.242zm3.421 1.65c1.904 0 2.685-.757 2.685-2.88 0-1.959-.572-2.916-2.762-2.916h-3.344V5.833h-1.804v8.67zM57.53 14.503V8.85c0-1.167.386-1.453 2.244-1.453 1.672 0 2.3.23 2.3 1.54v5.566h1.805V8.685c0-2.356-1.487-2.94-4.137-2.94-2.783 0-4.026.684-4.026 2.94v5.818z" fill="#fff"/></g></svg>