<svg xmlns="http://www.w3.org/2000/svg" viewBox="0 0 315.51 187.855"><defs><style>.cls-1{fill:#fff}.cls-2{fill:#666}.cls-3{fill:#00afca}.cls-5{fill:#c7d932}</style></defs><g id="レイヤー_2" data-name="レイヤー 2"><g id="レイヤー_2-2" data-name="レイヤー 2"><g id="ARC"><rect class="cls-1" x="69.944" y="9.676" width="60.22" height="60.22" rx="3.115"/><path class="cls-2" d="M127.05 70.012H73.059a3.234 3.234 0 01-3.23-3.231v-53.99a3.234 3.234 0 013.23-3.231h53.99a3.234 3.234 0 013.231 3.23v53.991a3.234 3.234 0 01-3.23 3.231zM73.059 9.792a3.002 3.002 0 00-2.998 2.998v53.991a3.002 3.002 0 002.998 3h53.99a3.002 3.002 0 002.999-3v-53.99a3.002 3.002 0 00-2.998-3z"/></g><path class="cls-3" d="M114.171 21.595l4.478-6.513a.496.496 0 01.817 0l4.478 6.513a.496.496 0 01-.408.777h-8.956a.496.496 0 01-.409-.777z"/><rect class="cls-3" x="117.087" y="20.519" width="3.942" height="14.414" rx=".496"/><path class="cls-3" d="M87.495 42.452a9.85 9.85 0 011.06-1.187 3.736 3.736 0 00-1.81.605 5.264 5.264 0 00-2.085 3.806 2.405 2.405 0 00.385 1.854 1.398 1.398 0 00.762.394 8.454 8.454 0 011.688-5.472zm1.952 7.208a4.26 4.26 0 01-.093-1.456c.34-3.237 1.5-5.707 3.312-7.13a2.823 2.823 0 00-.703-.094c-.034 0-.069 0-.103.002-.853.036-1.914.08-3.493 2.14a7.072 7.072 0 00-1.38 5.302 1.637 1.637 0 00.686 1.146 2.086 2.086 0 001.774.09zm5.223-4.956a8.816 8.816 0 012.522-3.44 4.536 4.536 0 00-1.442-.253 3.241 3.241 0 00-1.352.283c-2.176.99-3.579 3.485-3.95 7.025a2.426 2.426 0 00.963 2.408 2.398 2.398 0 002.42-.02 6.48 6.48 0 01-.158-2.486 12.684 12.684 0 01.997-3.517zm18.707-1.165c-.612-1.172-2.56-1.174-3.955-.388-.961.541-2.088 1.764-3.06 5.141-.848 2.944-2.31 2.823-3.912 3.472-2 .81-4.479 1.882-4.762 4.417h-.01c-.062.343-.114.684-.114.689a.549.549 0 01-1.088-.148l.001-.017.004-.029.003-.014.01-.063v-.006c.03-.192.095-.592.16-.92a11.61 11.61 0 01-7.465-4.603.405.405 0 00-.344-.16 2.736 2.736 0 01-.208.008h-.01a.424.424 0 00-.353.678q.474.611.995 1.17v3.242c0 1.185 1.146 2.508 1.743 3.224.596.716 1.852 1.267 1.852 1.57v1.226a.879.879 0 00.879.879h10.107a.884.884 0 00.879-.893c.003-1.835.69-2.035 1.397-2.452.294-.174.592-.348.89-.546 1.276-.804 3.029-2.346 3.973-6.996v-.003c.33-1.3.532-2.491.834-3.742.453-1.876 2.337-3.235 1.554-4.736zm-28.891-6.776c-.025-6.236 1.86-11.72 5.175-15.048a12.333 12.333 0 018.935-3.65c6.815 0 13.717 6.741 13.722 19.625 0 .397-.01.784-.027 1.164a13.614 13.614 0 01-7.714-1.345c.073-4.555-1.348-8.88-3.725-11.312a5.472 5.472 0 00-3.853-1.864h-.001c-2.206 0-4.154 1.41-5.485 3.968a20.439 20.439 0 00-1.9 9.186 16.211 16.211 0 00.162 2.178.52.52 0 00.669.431l.01-.003a.53.53 0 00.372-.58 14.99 14.99 0 01-.15-2.027 19.378 19.378 0 011.78-8.695c.805-1.55 2.247-3.396 4.542-3.396a4.451 4.451 0 013.095 1.544c2.208 2.259 3.519 6.35 3.422 10.676-.001.082-.006.163-.009.244q-.012.354-.036.706l-.005.067q-.025.358-.063.713l-.003.029q-.04.375-.095.746l-.005.034c-.03.201-.064.402-.1.601q-.035.197-.075.39l-.038.189c-.01.048-.024.094-.034.141a4.954 4.954 0 00-3.473-.23c-1.824.637-2.849 1.665-3.915 3.928a11.596 11.596 0 00-.898 3.163 4.43 4.43 0 00.366 2.655 1.793 1.793 0 001.438.882c1.179.124 1.886-.438 2.156-1.718a18.185 18.185 0 00.357-3.552.543.543 0 01.549-.531h.012a.548.548 0 01.538.56 29.142 29.142 0 01-.083 1.68 16.197 16.197 0 01-.138 1.195 12.107 12.107 0 003.251-4.82 14.959 14.959 0 002.357 1.039.527.527 0 00.65-.276l.004-.01a.524.524 0 00-.308-.715 13.802 13.802 0 01-2.338-1.05 20.505 20.505 0 00.953-5.025 14.683 14.683 0 007.685 1.29c-.033.372-.076.739-.127 1.101a.533.533 0 00.4.59l.011.003a.522.522 0 00.646-.434 25.749 25.749 0 00.235-3.51c-.005-13.58-7.441-20.686-14.784-20.686a13.373 13.373 0 00-9.687 3.962c-3.564 3.577-5.512 9.19-5.485 15.802a25.493 25.493 0 00.572 5.113.52.52 0 00.919.21l.009-.012a.524.524 0 00.103-.428 24.685 24.685 0 01-.541-4.888zm40.611 28.911a.595.595 0 11.595.607.601.601 0 01-.595-.607m-.494 0a1.089 1.089 0 101.089-1.084 1.075 1.075 0 00-1.089 1.084m-2.298.606a.606.606 0 11.595-.606.601.601 0 01-.595.606m0-1.69a1.084 1.084 0 101.089 1.084 1.075 1.075 0 00-1.089-1.084m-1.858.595h.563v-.503h-.563v-.679h-.513V65.7a1.308 1.308 0 00.1.513 1.063 1.063 0 00.64.568l.254-.43a.854.854 0 01-.423-.365.771.771 0 01-.056-.298l-.002-.165zm3.217-1.179a.334.334 0 00.669 0 .334.334 0 10-.669 0m.083.675h.503v2.025h-.503zm2.975 1.886h-.071v-.024h.169v.024h-.071v.191h-.027v-.191zm.212.191l-.059-.175v.175h-.028v-.215h.039l.062.183.062-.183h.039v.215h-.028v-.175l-.059.175h-.028z"/><g id="ARC-2" data-name="ARC"><rect class="cls-1" x="79.209" y="45.782" width="60.22" height="60.22" rx="3.115"/><path class="cls-2" d="M136.314 106.118h-53.99a3.234 3.234 0 01-3.231-3.23v-53.99a3.234 3.234 0 013.23-3.232h53.991a3.234 3.234 0 013.23 3.231v53.99a3.234 3.234 0 01-3.23 3.231zm-53.99-60.22a3.002 3.002 0 00-2.999 3v53.99a3.002 3.002 0 002.998 2.999h53.991a3.002 3.002 0 002.998-3v-53.99a3.002 3.002 0 00-2.998-3z"/></g><path class="cls-3" d="M110.05 63.555l-3.874 1.817 2.702 3.319-4.278-.044.994 4.162-3.836-1.896-.91 4.181-2.634-3.372-2.633 3.372-.91-4.181-3.836 1.896.994-4.162-4.278.044 2.701-3.319-3.873-1.817 3.873-1.817-2.701-3.318 4.278.043-.994-4.161 3.836 1.895.91-4.181 2.633 3.372 2.634-3.372.91 4.181 3.836-1.895-.994 4.161 4.278-.043-2.702 3.318 3.874 1.817z"/><path class="cls-1" d="M111.751 54.027a2.252 2.252 0 00-1.28.4L99.908 61.69a2.265 2.265 0 000 3.732l10.563 7.262a2.263 2.263 0 003.547-1.866V56.293a2.27 2.27 0 00-2.267-2.266z"/><path class="cls-3" d="M101.563 93.384H98.33l4.634 3.186-4.653 3.199h3.148l4.695-3.228zm5.734 0h-3.148l4.592 3.157-4.695 3.228h3.232l4.653-3.2zm8.186-32.804a19.815 19.815 0 00-2.93-.216v-4.07a.8.8 0 00-1.252-.66l-10.563 7.262a.8.8 0 000 1.318l10.563 7.262a.8.8 0 001.252-.659v-4.069a13.32 13.32 0 01.944 26.607 13.63 13.63 0 01-.945.029h-2.67l4.635 3.186-4.653 3.199h2.688c.509 0 1.02-.013 1.538-.052a19.708 19.708 0 001.393-39.137zm18.878 41.2a.595.595 0 11.595.607.601.601 0 01-.595-.606m-.493 0a1.089 1.089 0 101.088-1.085 1.075 1.075 0 00-1.088 1.085m-2.298.606a.606.606 0 11.595-.606.601.601 0 01-.595.606m0-1.69a1.084 1.084 0 101.088 1.084 1.075 1.075 0 00-1.088-1.085m-1.858.595h.563v-.503h-.563v-.678h-.514v1.697a1.308 1.308 0 00.1.512 1.063 1.063 0 00.64.569l.255-.431a.854.854 0 01-.423-.364.771.771 0 01-.057-.298v-.165zm3.217-1.178a.334.334 0 00.668 0 .334.334 0 10-.668 0m.082.675h.503v2.025h-.503zm2.975 1.886h-.071v-.025h.17v.025h-.071v.191h-.028v-.191zm.213.191l-.059-.175v.175h-.028v-.216h.039l.062.184.062-.184h.039v.216h-.028v-.175l-.059.175h-.028z"/><g id="ARC-3" data-name="ARC"><rect class="cls-1" x="88.473" y="81.889" width="60.22" height="60.22" rx="3.115"/><path class="cls-2" d="M145.579 142.225H91.588a3.234 3.234 0 01-3.23-3.23V85.003a3.234 3.234 0 013.23-3.23h53.991a3.234 3.234 0 013.23 3.23v53.99a3.234 3.234 0 01-3.23 3.23zm-53.991-60.22a3.002 3.002 0 00-2.998 2.999v53.99a3.002 3.002 0 002.998 3h53.991a3.002 3.002 0 002.998-3v-53.99a3.002 3.002 0 00-2.998-3z"/></g><path class="cls-3" d="M101.75 123.029a7.925 7.925 0 01.37-1.226 3.005 3.005 0 00-1.114 1.056 4.234 4.234 0 00-.226 3.484 1.935 1.935 0 00.91 1.22 1.125 1.125 0 00.69.029 6.801 6.801 0 01-.63-4.563zm3.875 4.591a3.427 3.427 0 01-.563-1.03 8.142 8.142 0 01-.01-6.323 2.271 2.271 0 00-.544.17c-.025.01-.05.023-.075.036-.61.316-1.368.71-1.82 2.747a5.69 5.69 0 00.797 4.335 1.317 1.317 0 00.89.603 1.678 1.678 0 001.325-.538zm2.123-5.389a7.092 7.092 0 01.67-3.365 3.65 3.65 0 00-1.139.306 2.607 2.607 0 00-.89.666c-1.25 1.461-1.424 3.757-.491 6.464a1.952 1.952 0 001.521 1.428 1.929 1.929 0 001.757-.837 5.212 5.212 0 01-.96-1.758 10.203 10.203 0 01-.468-2.904zm13.242-7.209c-.844-.646-2.265.014-3.015 1.062-.517.721-.923 1.995-.484 4.789.383 2.434-.723 2.843-1.671 3.86-1.183 1.271-2.626 2.895-1.97 4.84l-.008.003c.072.271.15.538.151.542a.441.441 0 01-.843.261l-.005-.012-.007-.023-.003-.01-.014-.05-.001-.005c-.044-.15-.133-.464-.197-.725a9.34 9.34 0 01-7.007-.818.326.326 0 00-.306 0 2.201 2.201 0 01-.149.077l-.007.003a.341.341 0 00-.027.614q.554.285 1.123.516l1.102 2.363c.403.864 1.689 1.439 2.367 1.758s1.781.295 1.885.516l.5 1.073a.799.799 0 00.723.461l9.005.01a.798.798 0 00.705-1.175l-1.666-3.114c-.908-1.675-.429-2.073-.02-2.669.156-.227.314-.455.464-.7.656-1.02 1.41-2.74.518-6.452l-.001-.002c-.201-1.06-.46-1.997-.664-3.012-.308-1.522.604-3.153-.478-3.981zm-23.368 4.882c-2.138-4.538-2.628-9.178-1.343-12.731a9.922 9.922 0 015.274-5.699c4.97-2.317 12.293.252 16.677 9.643.135.29.259.575.376.858a10.952 10.952 0 01-6.082 1.642c-1.495-3.346-4.001-6.016-6.561-6.98a4.402 4.402 0 00-3.443-.05h-.001c-1.609.75-2.55 2.44-2.65 4.758a16.442 16.442 0 001.738 7.343 13.04 13.04 0 00.858 1.533.419.419 0 00.634.088l.007-.006a.426.426 0 00.073-.55 12.059 12.059 0 01-.798-1.426 15.589 15.589 0 01-1.658-6.945c.06-1.404.484-3.24 2.157-4.02a3.58 3.58 0 012.782.073c2.377.896 4.724 3.433 6.125 6.62l.076.181q.111.262.213.527l.02.051q.102.27.196.541l.007.022q.098.287.185.576l.008.027a16.114 16.114 0 01.21.783l.035.15c.01.038.015.076.024.115a3.986 3.986 0 00-2.61 1.012 5.122 5.122 0 00-1.52 4.195 9.329 9.329 0 00.42 2.611 3.563 3.563 0 001.17 1.812 1.442 1.442 0 001.349.154 1.475 1.475 0 00.988-1.986 14.629 14.629 0 00-.948-2.71.436.436 0 01.22-.574l.01-.004a.441.441 0 01.582.225 23.445 23.445 0 01.51 1.253 15.53 15.53 0 01.306.918 9.74 9.74 0 00.732-4.62 12.033 12.033 0 002.071-.044.424.424 0 00.38-.421v-.009a.421.421 0 00-.468-.417 11.104 11.104 0 01-2.061.03 16.496 16.496 0 00-1.014-3.988 11.812 11.812 0 006.042-1.672c.102.282.195.564.282.846a.43.43 0 00.492.294l.009-.001a.42.42 0 00.323-.537 20.714 20.714 0 00-1.022-2.639c-4.621-9.9-12.458-12.552-17.812-10.056a10.758 10.758 0 00-5.716 6.182c-1.382 3.82-.894 8.575 1.374 13.386a20.508 20.508 0 002.155 3.534.418.418 0 00.741-.16l.003-.01a.421.421 0 00-.07-.348 19.86 19.86 0 01-2.057-3.38z"/><path d="M136.445 101.135a10.759 10.759 0 00-8.41-.405 16.413 16.413 0 00-8.13 7.307.426.426 0 00-.009.42l.005.009a.42.42 0 00.73.023 15.821 15.821 0 017.697-6.957 9.922 9.922 0 017.756.377c4.969 2.317 7.709 9.578 3.332 18.973-.135.29-.274.568-.415.84a10.952 10.952 0 01-5.167-3.604c1.602-3.296 2.037-6.932 1.13-9.513a4.402 4.402 0 00-2.176-2.67c-1.609-.75-3.508-.385-5.348 1.028a16.443 16.443 0 00-4.508 6.052 9.764 9.764 0 00-.243.574.424.424 0 00.135.486.426.426 0 00.658-.179c.072-.18.146-.354.224-.52a15.59 15.59 0 014.254-5.735c1.114-.856 2.793-1.712 4.467-.932a3.581 3.581 0 011.731 2.179c.842 2.397.407 5.825-1.134 8.947l-.09.175q-.129.253-.266.502l-.027.047q-.14.252-.288.498l-.012.02q-.157.26-.323.512l-.015.023c-.09.137-.183.271-.277.405q-.093.131-.188.259l-.092.124c-.024.032-.049.06-.073.092a3.986 3.986 0 00-2.453-1.35 5.122 5.122 0 00-4.19 1.534 8.5 8.5 0 00-.834.824l-.002.009a13.472 13.472 0 01.423 4.579 1.897 1.897 0 00.952-.739 14.628 14.628 0 001.468-2.468.436.436 0 01.58-.2l.01.004a.441.441 0 01.2.59 23.366 23.366 0 01-.63 1.198 15.762 15.762 0 01-.508.824 9.74 9.74 0 004.01-2.41 12.038 12.038 0 001.365 1.56.424.424 0 00.567.02l.007-.006a.421.421 0 00.018-.627 11.101 11.101 0 01-1.347-1.56 16.5 16.5 0 002.403-3.34 11.812 11.812 0 005.164 3.554c-.15.26-.306.512-.467.76a.43.43 0 00.092.566l.006.005a.42.42 0 00.619-.097 20.712 20.712 0 001.364-2.48c4.614-9.902 1.608-17.611-3.745-20.107zm-12.774 19.317c.177-.176.346-.333.494-.456a7.092 7.092 0 013.008-1.65 3.65 3.65 0 00-.965-.675 2.607 2.607 0 00-1.083-.254 4.357 4.357 0 00-1.87.42 3.021 3.021 0 00.008.804c.087.433.186.853.29 1.297l.118.514zm11.777 3.427c-.885.068-2.122.576-3.98 2.708-1.618 1.858-2.642 1.273-4.031 1.201a7.825 7.825 0 00-3.624.404 7.441 7.441 0 01-.658 1.268l-.003.005c-.076.122-.152.24-.226.351l-.395.614a4.042 4.042 0 00.248.53c.101.186 1.481 2.661 2.277 4.086a.687.687 0 001.095.145 1.706 1.706 0 011.315-.468c.273-.026.55-.052.835-.095 1.202-.152 3.005-.68 5.274-3.75l.002-.002c.682-.836 1.234-1.635 1.88-2.444.968-1.215 2.804-1.565 2.742-2.925-.047-1.063-1.466-1.726-2.751-1.628z" fill="#a9d8e5"/><path class="cls-3" d="M111.567 97.317l-6.554-.073a.41.41 0 01-.378-.562l2.415-6.093a.41.41 0 01.723-.078l4.14 6.167a.41.41 0 01-.346.64z"/><path class="cls-3" d="M127.666 95.753a15.487 15.487 0 00-18.165 0l-1.896-2.663a18.755 18.755 0 0121.958 0z"/><path class="cls-3" d="M125.6 97.317l6.554-.073a.41.41 0 00.378-.562l-2.415-6.093a.41.41 0 00-.723-.078l-4.14 6.167a.41.41 0 00.346.64zm18.026 40.57a.595.595 0 11.595.607.601.601 0 01-.595-.607m-.494 0a1.089 1.089 0 101.089-1.084 1.075 1.075 0 00-1.089 1.084m-2.298.607a.606.606 0 11.595-.607.601.601 0 01-.595.607m0-1.691a1.084 1.084 0 101.089 1.084 1.075 1.075 0 00-1.089-1.084m-1.857.595h.563v-.503h-.563v-.679h-.514v1.697a1.308 1.308 0 00.1.513 1.063 1.063 0 00.64.568l.255-.43a.854.854 0 01-.423-.365.771.771 0 01-.057-.298l-.001-.165zm3.217-1.178a.334.334 0 00.668 0 .334.334 0 10-.668 0m.082.675h.503v2.025h-.503zm2.975 1.885h-.071v-.024h.169v.024h-.07v.191h-.028v-.191zm.213.191l-.059-.175v.175h-.029v-.215h.04l.062.183.062-.183h.039v.215h-.028v-.175l-.059.175h-.028z"/><g id="ARC-4" data-name="ARC"><rect class="cls-1" x="4.192" y="9.676" width="60.22" height="60.22" rx="3.115"/><path class="cls-2" d="M61.297 70.012H7.307a3.235 3.235 0 01-3.232-3.231v-53.99A3.235 3.235 0 017.307 9.56h53.99a3.235 3.235 0 013.231 3.23v53.991a3.235 3.235 0 01-3.231 3.231zM7.307 9.792a3.002 3.002 0 00-3 2.998v53.991a3.002 3.002 0 003 3h53.99a3.002 3.002 0 002.999-3v-53.99a3.002 3.002 0 00-3-3z"/></g><path class="cls-3" d="M53.673 37.003a.22.22 0 00-.363.196 4.389 4.389 0 01.011 1.218c-.627 5.052-9.628 8.18-21.427 7.64a51 51 0 01-10.028-1.33.219.219 0 00-.184.388c3.194 2.443 9.055 4.083 15.759 4.088 10.123.007 18.331-3.718 18.335-8.32a5.227 5.227 0 00-2.103-3.88z"/><path class="cls-3" d="M37.897 52.539c-10.06.802-18.518-2.34-18.89-7.015a4.068 4.068 0 01.065-1.11.219.219 0 00-.39-.172 6.44 6.44 0 00-1.584 5.431c1.188 4.932 10.056 7.025 19.808 4.675a34.194 34.194 0 006.258-2.15.22.22 0 00-.139-.414 38.23 38.23 0 01-5.128.755zm16.941-22.117c-.646-4.24-9.063-7.286-19.321-5.765-7.414 1.095-13.021 4.628-12.534 7.828.414 2.736 5.162 4.36 11.164 4.067a16.74 16.74 0 001.285-.143c3.947-.6 6.93-2.488 6.671-4.218-.168-1.095-1.596-1.862-3.623-2.127a.22.22 0 00-.152.402 1.159 1.159 0 01.629.932c.085.92-1.598 1.834-3.765 2.039a7.283 7.283 0 01-2.817-.225c-.921-.313-1.494-.766-1.583-1.335-.143-.948 1.118-2 3.173-2.844a16.897 16.897 0 019.012-1.083c3.224.484 5.399 1.606 5.642 3.196.43 2.825-5.413 6.06-13.094 7.279a4.49 4.49 0 01-.24.03c-9.71 1.324-18.036-.947-18.598-5.068a3.352 3.352 0 01.041-1.108h-.003l.02-.062a4.084 4.084 0 01.238-.738 9.388 9.388 0 011.169-2.307.22.22 0 00-.296-.316c-3.423 2.193-5.35 4.782-4.984 7.27.747 5.07 10.858 7.844 22.413 6.141 11.523-1.753 20.28-7.054 19.553-11.845zm4.506 35.252a.595.595 0 11.595.607.601.601 0 01-.595-.607m-.493 0a1.089 1.089 0 101.088-1.084 1.075 1.075 0 00-1.088 1.084m-2.298.606a.606.606 0 11.595-.606.601.601 0 01-.595.606m0-1.69a1.084 1.084 0 101.088 1.084 1.075 1.075 0 00-1.088-1.084m-1.858.595h.563v-.503h-.563v-.679h-.514V65.7a1.308 1.308 0 00.1.513 1.063 1.063 0 00.64.568l.255-.43a.854.854 0 01-.423-.365.771.771 0 01-.057-.298l-.001-.165zm3.217-1.179a.334.334 0 00.668 0 .334.334 0 10-.668 0m.082.675h.503v2.025h-.503zm2.975 1.886h-.071v-.024h.169v.024h-.07v.191h-.028v-.191zm.213.191l-.059-.175v.175h-.028v-.215h.039l.062.183.062-.183h.039v.215h-.028v-.175l-.059.175h-.028z"/><g id="ARC-5" data-name="ARC"><rect class="cls-1" x="13.456" y="45.782" width="60.22" height="60.22" rx="3.115"/><path class="cls-2" d="M70.561 106.118h-53.99a3.235 3.235 0 01-3.231-3.23v-53.99a3.235 3.235 0 013.231-3.232h53.99a3.235 3.235 0 013.232 3.231v53.99a3.235 3.235 0 01-3.232 3.231zm-53.99-60.22a3.002 3.002 0 00-2.999 3v53.99a3.002 3.002 0 003 2.999h53.99a3.002 3.002 0 002.998-3v-53.99a3.002 3.002 0 00-2.999-3z"/></g><path class="cls-3" d="M43.301 52.934l1.24 2.643 2.264-1.843-.03 2.919 2.84-.678-1.293 2.617 2.853.621-2.301 1.797 2.301 1.798-2.853.62 1.293 2.618-2.84-.678.03 2.919-2.264-1.843-1.24 2.643-1.24-2.643-2.265 1.843.03-2.919-2.84.678 1.294-2.618-2.853-.62 2.301-1.798-2.301-1.797 2.853-.621-1.294-2.617 2.84.678-.03-2.919 2.265 1.843 1.24-2.643zm-14.34 10.795l1.24 2.643 2.264-1.843-.029 2.92 2.839-.679-1.293 2.618 2.853.62-2.301 1.798 2.301 1.797-2.853.621 1.293 2.617-2.839-.678.029 2.92-2.264-1.844-1.24 2.643-1.24-2.643-2.265 1.844.03-2.92-2.84.678 1.294-2.617-2.853-.621 2.301-1.797-2.301-1.798 2.853-.62-1.294-2.618 2.84.679-.03-2.92 2.265 1.843 1.24-2.643zm29.211 0l1.24 2.643 2.264-1.843-.029 2.92 2.84-.679-1.294 2.618 2.853.62-2.301 1.798 2.301 1.797-2.853.621 1.294 2.617-2.84-.678.029 2.92-2.264-1.844-1.24 2.643-1.24-2.643-2.264 1.844.029-2.92-2.84.678 1.294-2.617-2.853-.621 2.301-1.797-2.301-1.798 2.853-.62-1.294-2.618 2.84.679-.029-2.92 2.264 1.843 1.24-2.643zM37.954 79.763l4.9-7.127a.542.542 0 01.894 0l4.9 7.127a.542.542 0 01-.447.85h-9.8a.542.542 0 01-.447-.85zM48.647 91.49l-4.9 7.126a.542.542 0 01-.893 0l-4.9-7.127a.542.542 0 01.447-.85h9.8a.542.542 0 01.446.85z"/><path class="cls-3" d="M41.144 91.712V78.915c0-.182.243-.33.542-.33h3.23c.299 0 .541.148.541.33v12.797c0 .182-.242.33-.542.33h-3.229c-.299 0-.542-.148-.542-.33zm27.465 10.068a.595.595 0 11.595.607.601.601 0 01-.595-.606m-.494 0a1.089 1.089 0 101.089-1.085 1.075 1.075 0 00-1.089 1.085m-2.298.606a.606.606 0 11.595-.606.601.601 0 01-.595.606m0-1.69a1.084 1.084 0 101.089 1.084 1.075 1.075 0 00-1.089-1.085m-1.857.595h.563v-.503h-.563v-.678h-.514v1.697a1.308 1.308 0 00.1.512 1.063 1.063 0 00.64.569l.255-.431a.854.854 0 01-.423-.364.771.771 0 01-.057-.298l-.001-.165zm3.216-1.178a.334.334 0 00.669 0 .334.334 0 10-.669 0m.083.675h.503v2.025h-.503zm2.975 1.886h-.071v-.025h.169v.025h-.07v.191h-.028v-.191zm.212.191l-.058-.175v.175h-.029v-.216h.04l.061.184.063-.184h.039v.216h-.029v-.175l-.058.175h-.029z"/><g id="ARC-6" data-name="ARC"><rect class="cls-1" x="22.721" y="81.889" width="60.22" height="60.22" rx="3.115"/><path class="cls-2" d="M79.826 142.225h-53.99a3.235 3.235 0 01-3.232-3.23V85.003a3.235 3.235 0 013.232-3.23h53.99a3.235 3.235 0 013.232 3.23v53.99a3.235 3.235 0 01-3.232 3.23zm-53.99-60.22a3.002 3.002 0 00-3 2.999v53.99a3.002 3.002 0 003 3h53.99a3.002 3.002 0 003-3v-53.99a3.002 3.002 0 00-3-3z"/></g><path class="cls-3" d="M52.831 87.08l1.817 3.874 3.318-2.702-.043 4.279 4.162-.994-1.896 3.836 4.181.909-3.372 2.634 3.372 2.634-4.181.909 1.896 3.837-4.162-.995.043 4.279-3.318-2.702-1.817 3.874-1.817-3.874-3.318 2.702.043-4.279-4.162.995 1.896-3.837-4.181-.909 3.372-2.634-3.372-2.634 4.181-.909-1.896-3.836 4.162.994-.043-4.279 3.318 2.702 1.817-3.874z"/><path class="cls-3" d="M40.911 114.255l11.327-11.282a.841.841 0 011.187 0l11.326 11.282a.841.841 0 01-.594 1.437H41.505a.841.841 0 01-.594-1.437z"/><path class="cls-1" d="M52.831 102.727a.838.838 0 01.594.246l11.326 11.282a.841.841 0 01-.594 1.437H41.505a.841.841 0 01-.594-1.437l11.326-11.282a.838.838 0 01.594-.246m0-1.83a2.655 2.655 0 00-1.886.778l-11.326 11.283a2.672 2.672 0 001.886 4.565h22.652a2.672 2.672 0 001.886-4.566l-11.326-11.282a2.655 2.655 0 00-1.886-.779z"/><path class="cls-3" d="M47.972 133.35v3.567l4.859-4.84 4.859 4.84v-3.566l-4.86-4.84zm0-6.152v3.567l4.859-4.84 4.859 4.84v-3.567l-4.86-4.84zm0-15.413v12.828l4.859-4.84 4.859 4.84v-12.828zm29.902 26.102a.595.595 0 11.594.607.601.601 0 01-.594-.607m-.494 0a1.089 1.089 0 101.088-1.084 1.075 1.075 0 00-1.088 1.084m-2.298.607a.606.606 0 11.595-.607.601.601 0 01-.595.607m0-1.691a1.084 1.084 0 101.089 1.084 1.075 1.075 0 00-1.089-1.084m-1.858.595h.563v-.503h-.563v-.679h-.513v1.697a1.308 1.308 0 00.1.513 1.063 1.063 0 00.64.568l.254-.43a.854.854 0 01-.423-.365.771.771 0 01-.057-.298v-.165zm3.217-1.178a.334.334 0 00.668 0 .334.334 0 10-.668 0m.083.675h.503v2.025h-.503zm2.975 1.885h-.072v-.024h.17v.024h-.071v.191h-.027v-.191zm.212.191l-.059-.175v.175h-.028v-.215h.039l.062.183.062-.183h.039v.215h-.028v-.175l-.059.175h-.028z"/><g id="ARC-7" data-name="ARC"><rect class="cls-1" x="97.738" y="117.995" width="60.22" height="60.22" rx="3.115"/><path class="cls-2" d="M154.844 178.331h-53.992a3.234 3.234 0 01-3.23-3.23v-53.99a3.234 3.234 0 013.23-3.231h53.992a3.234 3.234 0 013.23 3.23v53.99a3.234 3.234 0 01-3.23 3.231zm-53.992-60.22a3.002 3.002 0 00-2.998 3v53.99a3.002 3.002 0 002.998 2.999h53.992a3.002 3.002 0 002.998-3v-53.99a3.002 3.002 0 00-2.998-2.999z"/></g><path class="cls-3" d="M136.362 132.137a3.401 3.401 0 013.405 3.39v14.984a6.543 6.543 0 01-1.832 4.553l-7.66 7.975a3.381 3.381 0 01-2.427 1.034v-24.545l2.642-2.751 3.452-3.594a3.291 3.291 0 012.42-1.046m0-3.662a6.966 6.966 0 00-5.062 2.17l-3.452 3.595-3.452-3.594a6.966 6.966 0 00-5.062-2.171 7.081 7.081 0 00-4.844 1.907 6.956 6.956 0 00-2.223 5.145v14.984a10.188 10.188 0 002.852 7.09l7.66 7.975a7.028 7.028 0 0010.138 0l7.66-7.975a10.188 10.188 0 002.853-7.09v-14.984a7.068 7.068 0 00-7.068-7.052zm16.528 45.519a.595.595 0 11.596.606.601.601 0 01-.595-.606m-.494 0a1.089 1.089 0 101.089-1.084 1.075 1.075 0 00-1.089 1.084m-2.297.606a.606.606 0 11.594-.606.601.601 0 01-.595.606m0-1.69a1.084 1.084 0 101.089 1.084 1.075 1.075 0 00-1.089-1.084m-1.858.594h.563v-.503h-.563v-.678h-.513v1.697a1.308 1.308 0 00.1.512 1.063 1.063 0 00.64.569l.254-.43a.854.854 0 01-.423-.365.771.771 0 01-.056-.298l-.002-.165zm3.217-1.178a.334.334 0 00.669 0 .334.334 0 10-.669 0m.083.675h.503v2.025h-.503zm2.975 1.886h-.071v-.025h.169v.025h-.071v.191h-.027v-.191zm.212.191l-.059-.175v.175h-.028v-.216h.039l.062.184.062-.184h.039v.216h-.028v-.175l-.059.175h-.028z"/><g id="ARC-8" data-name="ARC"><rect class="cls-1" x="31.986" y="117.995" width="60.22" height="60.22" rx="3.115"/><path class="cls-2" d="M89.09 178.331H35.1a3.235 3.235 0 01-3.23-3.23v-53.99a3.235 3.235 0 013.23-3.231h53.99a3.235 3.235 0 013.232 3.23v53.99a3.235 3.235 0 01-3.231 3.231zm-53.99-60.22a3.002 3.002 0 00-2.998 3v53.99A3.002 3.002 0 0035.1 178.1h53.99a3.002 3.002 0 002.999-3v-53.99a3.002 3.002 0 00-3-2.999z"/></g><path class="cls-3" d="M66.944 134.103l10.824-6.664a.8.8 0 011.205.533l2.346 12.493a.8.8 0 01-1.11.879l-13.17-5.83a.8.8 0 01-.095-1.411z"/><rect class="cls-3" x="48.295" y="149.806" width="37.78" height="6.343" rx=".799" transform="rotate(-66.125 67.185 152.977)"/><path class="cls-3" d="M52.981 144.084l-12.694-.66a.8.8 0 01-.689-1.123l5.162-11.616a.8.8 0 011.412-.094l7.532 12.276a.8.8 0 01-.723 1.217z"/><rect class="cls-3" x="45.857" y="129.663" width="20.859" height="6.343" rx=".799" transform="rotate(-31.532 56.287 132.834)"/><rect class="cls-3" x="55.374" y="137.073" width="6.343" height="37.864" rx=".799" transform="rotate(-68.422 58.546 156.005)"/><path class="cls-1" d="M42.556 146.331a.798.798 0 01.294.056l33.724 13.338a.8.8 0 01.45 1.037l-1.745 4.412a.799.799 0 01-1.038.449l-33.724-13.337a.8.8 0 01-.45-1.038l1.745-4.411a.8.8 0 01.744-.506m0-2.198a2.982 2.982 0 00-2.787 1.896l-1.745 4.41a2.997 2.997 0 001.685 3.89l33.724 13.338a2.997 2.997 0 003.89-1.684l1.744-4.412a3 3 0 00-1.685-3.89l-33.724-13.337a2.985 2.985 0 00-1.102-.21z"/><path class="cls-3" d="M77.434 155.023l7.092 10.549a.8.8 0 01-.484 1.225l-12.39 2.845a.8.8 0 01-.922-1.074l5.297-13.393a.8.8 0 011.407-.152zm9.704 18.971a.595.595 0 11.595.606.601.601 0 01-.595-.606m-.493 0a1.089 1.089 0 101.088-1.084 1.075 1.075 0 00-1.088 1.084m-2.298.606a.606.606 0 11.595-.606.601.601 0 01-.595.606m0-1.69a1.084 1.084 0 101.088 1.084 1.075 1.075 0 00-1.088-1.084m-1.858.594h.563v-.503h-.563v-.678h-.514v1.697a1.308 1.308 0 00.1.512 1.063 1.063 0 00.64.569l.255-.43a.854.854 0 01-.423-.365.771.771 0 01-.057-.298l-.001-.165zm3.217-1.178a.334.334 0 00.668 0 .334.334 0 10-.668 0m.082.675h.503v2.025h-.503zm2.975 1.886h-.071v-.025h.169v.025h-.07v.191h-.028v-.191zm.213.191l-.059-.175v.175h-.028v-.216h.039l.062.184.062-.184h.039v.216h-.028v-.175l-.059.175h-.028z"/><g id="CIRCLE"><path class="cls-5" d="M164.804 39.675a30.11 30.11 0 1130.11 30.11 30.11 30.11 0 01-30.11-30.11z"/><path class="cls-2" d="M194.914 69.9a30.226 30.226 0 1130.227-30.225A30.26 30.26 0 01194.914 69.9zm0-60.22a29.995 29.995 0 1029.994 29.995A30.028 30.028 0 00194.914 9.68z"/></g><path class="cls-1" d="M181.946 19.91a4.357 4.357 0 001.454 1.006l-.36.523a5.02 5.02 0 01-1.467-1.09 4.629 4.629 0 01-1.63 1.094l-.32-.483a3.878 3.878 0 002.328-2.341h-1.907v-.523h2.71a4.505 4.505 0 01-.808 1.814zm4.365 1.476c-.25 0-.571-.004-.734-.013-.755-.048-1.076-.382-1.076-1.063v-2.447h.62v1.344a7.998 7.998 0 001.999-.619l.246.532a10.891 10.891 0 01-2.245.619v.496c0 .4.074.505.5.554.11.013.4.026.571.03.163 0 .339 0 .532-.008.237-.004.475-.022.694-.04v.58c-.356.03-.725.035-1.107.035zm.927-2.89a.53.53 0 11.531-.532.528.528 0 01-.531.532zm.005-.791a.261.261 0 10.259.264.261.261 0 00-.26-.264zm1.311 2.262v-.62h3.488v.62zm5.169 1.489v-3.76h.606v1.27a10.761 10.761 0 011.998.94l-.333.536a8.207 8.207 0 00-1.665-.844v1.858zm1.845-2.807a2.756 2.756 0 00-.33-.742l.334-.167a2.913 2.913 0 01.37.751zm.628-.254a2.495 2.495 0 00-.343-.708l.334-.18a2.962 2.962 0 01.373.734zm3.407 1.612l-.299-.466a1.3 1.3 0 00.887-1.01h-2.842v-.523h3.598a2.241 2.241 0 01-1.344 1.999zm-1.617 1.463l-.307-.475c.848-.316.992-.742.992-1.581v-.598h.616v.602a1.866 1.866 0 01-1.301 2.052zm4.457-1.358a7.147 7.147 0 00-.382-1.15l.474-.185a7.713 7.713 0 01.44 1.142zm.413 1.388l-.286-.461a2.2 2.2 0 001.753-2.302h.571a2.752 2.752 0 01-2.038 2.763zm.488-1.528a6.575 6.575 0 00-.378-1.147l.479-.189a7.635 7.635 0 01.43 1.143zm3.503 1.445l-.29-.531a2.35 2.35 0 002.091-2.122h-2.438v-.554h2.922a.522.522 0 11.408.198.461.461 0 01-.158-.027c-.229 1.67-.949 2.693-2.535 3.036zm2.697-3.787a.257.257 0 10.255.255.256.256 0 00-.255-.255z"/><rect class="cls-1" x="181.923" y="53.209" width="25.982" height="1.758" rx=".879"/><path class="cls-1" d="M205.301 33.17v5.543l-10.387-6.71-10.387 6.71V33.17l10.387-6.711 10.387 6.711z"/><path class="cls-1" d="M194.914 37.546l10.387 6.711v5.544l-10.387-6.711-10.387 6.711v-5.544l10.387-6.711zm1.606 28.017a.595.595 0 11.594.606.601.601 0 01-.595-.606m-.493 0a1.089 1.089 0 101.088-1.084 1.075 1.075 0 00-1.088 1.084m-2.298.607a.606.606 0 11.595-.607.601.601 0 01-.595.606m0-1.69a1.084 1.084 0 101.088 1.084 1.075 1.075 0 00-1.088-1.084m-1.858.595h.563v-.504h-.563v-.678h-.514v1.697a1.308 1.308 0 00.1.512 1.063 1.063 0 00.64.569l.255-.43a.854.854 0 01-.423-.365.771.771 0 01-.057-.298l-.001-.165zm3.217-1.179a.334.334 0 00.668 0 .334.334 0 10-.668 0m.082.675h.503v2.025h-.503zm2.975 1.886h-.071v-.025h.169v.025h-.07v.191h-.028v-.191zm.213.191l-.059-.175v.175h-.028v-.216h.039l.062.184.062-.184h.039v.216h-.028v-.175l-.059.175h-.028z"/><g id="CIRCLE-2" data-name="CIRCLE"><path class="cls-5" d="M229.657 39.675a30.11 30.11 0 1130.11 30.11 30.11 30.11 0 01-30.11-30.11z"/><path class="cls-2" d="M259.767 69.9a30.226 30.226 0 1130.226-30.225A30.26 30.26 0 01259.767 69.9zm0-60.22a29.995 29.995 0 1029.994 29.995A30.028 30.028 0 00259.767 9.68z"/></g><path class="cls-1" d="M250.773 21.338l-.51-.369a4.229 4.229 0 001.06-2.816h.619a5.198 5.198 0 01-1.169 3.185zm2.948 0a5.19 5.19 0 01-1.186-3.185h.624a3.967 3.967 0 001.085 2.741zm.123-2.811a.53.53 0 010-1.059.53.53 0 110 1.059zm.004-.791a.264.264 0 10.26.264.262.262 0 00-.26-.264zm1.514 3.444v-.593h3.532v.593zm.435-2.341v-.593h2.658v.593zm5.125 1.273a7.167 7.167 0 00-.382-1.15l.474-.185a7.755 7.755 0 01.44 1.142zm.413 1.389l-.286-.462a2.2 2.2 0 001.753-2.302h.572a2.751 2.751 0 01-2.039 2.764zm.488-1.53a6.558 6.558 0 00-.378-1.146l.479-.188a7.651 7.651 0 01.43 1.142zm4.861-1.751h1.665c-.316 1.695-1.015 2.78-2.328 3.254l-.294-.478a2.827 2.827 0 001.845-2.245h-1.165a5.463 5.463 0 01-1.027 1.278l-.44-.387a4.602 4.602 0 001.287-1.893h.637a6.231 6.231 0 01-.18.47zm-6.979 7.829c-7.199 0-9.516 3.268-9.516 6.743v.91a2.648 2.648 0 002.648 2.648h.124a2.65 2.65 0 002.648-2.65q.002-3.1 4.096-3.1c2.69 0 4.096 1.034 4.096 3.103v1.24a2.676 2.676 0 01-1.572 2.525l-3.806 1.944c-1.283.62-2.607 1.407-2.607 3.724v1.406a2.438 2.438 0 00.114.738 2.791 2.791 0 005.357 0 2.438 2.438 0 00.114-.738c0-1.324.58-1.779 1.738-2.317l2.358-1.075c1.696-.745 3.848-2.441 3.848-6.413v-1.945c-.042-3.475-2.441-6.743-9.64-6.743z"/><circle class="cls-1" cx="258.609" cy="52.584" r="2.793"/><path class="cls-1" d="M261.372 65.563a.595.595 0 11.595.606.601.601 0 01-.595-.606m-.494 0a1.089 1.089 0 101.089-1.084 1.075 1.075 0 00-1.089 1.084m-2.298.607a.606.606 0 11.595-.607.601.601 0 01-.595.606m0-1.69a1.084 1.084 0 101.089 1.084 1.075 1.075 0 00-1.089-1.084m-1.857.595h.563v-.504h-.563v-.678h-.514v1.697a1.308 1.308 0 00.1.512 1.063 1.063 0 00.64.569l.255-.43a.854.854 0 01-.423-.365.771.771 0 01-.057-.298l-.001-.165zm3.217-1.179a.334.334 0 00.668 0 .334.334 0 10-.668 0m.082.675h.503v2.025h-.503zm2.975 1.886h-.071v-.025h.169v.025h-.07v.191h-.028v-.191zm.212.191l-.058-.175v.175h-.029v-.216h.04l.062.184.062-.184h.039v.216h-.029v-.175l-.058.175h-.029z"/><g id="CIRCLE-3" data-name="CIRCLE"><path class="cls-5" d="M238.921 93.927a30.11 30.11 0 1130.11 30.11 30.11 30.11 0 01-30.11-30.11z"/><path class="cls-2" d="M269.031 124.153a30.226 30.226 0 1130.227-30.226 30.26 30.26 0 01-30.227 30.226zm0-60.22a29.994 29.994 0 1029.994 29.994 30.028 30.028 0 00-29.994-29.994z"/></g><path class="cls-1" d="M264.415 74.163a4.355 4.355 0 001.454 1.006l-.36.523a5.018 5.018 0 01-1.467-1.09 4.63 4.63 0 01-1.63 1.094l-.32-.483a3.878 3.878 0 002.327-2.342h-1.906v-.522h2.71a4.502 4.502 0 01-.808 1.814zm4.805 1.476c-.25 0-.572-.005-.734-.013-.756-.049-1.076-.383-1.076-1.063v-2.447h.619v1.344a7.993 7.993 0 001.999-.62l.246.532a10.891 10.891 0 01-2.245.62v.496c0 .4.075.505.5.553.11.014.4.027.572.031.162 0 .338 0 .531-.009.238-.004.475-.022.694-.04v.58c-.355.031-.725.036-1.107.036zm.926-2.89a.53.53 0 11.532-.532.528.528 0 01-.532.531zm.005-.791a.261.261 0 10.259.263.261.261 0 00-.26-.263zm3.231 1.612a5.48 5.48 0 00-1.283-.826l.36-.501a6.407 6.407 0 011.327.778zm-.958 2.051l-.193-.588a3.383 3.383 0 002.869-2.074l.461.43a3.9 3.9 0 01-3.137 2.232zm-1.694 34.661a16.156 16.156 0 01-16.166-16.166 14.467 14.467 0 0128.935 0 12.769 12.769 0 01-25.537 0 11.07 11.07 0 1122.14 0 9.372 9.372 0 01-18.744 0 7.673 7.673 0 1115.347 0 5.975 5.975 0 01-11.95 0 4.276 4.276 0 118.553 0 2.578 2.578 0 01-5.156 0 .879.879 0 011.758 0 .82.82 0 001.64 0 2.518 2.518 0 10-5.036 0 4.217 4.217 0 008.433 0 5.916 5.916 0 10-11.83 0 7.614 7.614 0 0015.227 0 9.312 9.312 0 10-18.624 0 11.01 11.01 0 0022.021 0 12.71 12.71 0 10-25.419 0 14.41 14.41 0 0024.598 10.19.88.88 0 011.244 1.244 16.064 16.064 0 01-11.434 4.732zm-.093 9.534a.595.595 0 11.595.606.601.601 0 01-.595-.606m-.494 0a1.089 1.089 0 101.089-1.085 1.075 1.075 0 00-1.089 1.085m-2.298.606a.606.606 0 11.595-.606.601.601 0 01-.595.606m0-1.69a1.084 1.084 0 101.089 1.084 1.075 1.075 0 00-1.089-1.085m-1.858.595h.563v-.503h-.563v-.678h-.513v1.697a1.308 1.308 0 00.1.512 1.063 1.063 0 00.64.569l.254-.431a.854.854 0 01-.423-.365.771.771 0 01-.057-.298v-.164zm3.217-1.179a.334.334 0 00.668 0 .334.334 0 10-.668 0m.083.676h.503v2.025h-.503zm2.975 1.886h-.072v-.025h.17v.025h-.071v.191h-.027v-.191zm.212.191l-.059-.175v.175h-.028v-.216h.039l.062.183.062-.183h.039v.216h-.028v-.175l-.059.175h-.028z"/><g id="CIRCLE-4" data-name="CIRCLE"><path class="cls-5" d="M248.186 148.18a30.11 30.11 0 1130.11 30.11 30.11 30.11 0 01-30.11-30.11z"/><path class="cls-2" d="M278.296 178.406a30.226 30.226 0 1130.226-30.226 30.26 30.26 0 01-30.226 30.226zm0-60.22a29.994 29.994 0 1029.994 29.994 30.028 30.028 0 00-29.994-29.995z"/></g><path class="cls-1" d="M270.388 128.424a6.572 6.572 0 00-1.256-.628l.268-.488a7.85 7.85 0 011.278.576zm-.786 1.507l-.167-.58a3.253 3.253 0 002.833-2.069l.48.382a3.819 3.819 0 01-3.146 2.267zm1.348-2.513a7.185 7.185 0 00-1.26-.632l.272-.483a8.66 8.66 0 011.278.575zm3.614 1.327v-.492h1.722v-.589h-1.84v-.5h2.407v2.697h-2.42v-.5h1.853v-.616zm4.888-.127a7.167 7.167 0 00-.382-1.152l.474-.184a7.752 7.752 0 01.44 1.142zm.413 1.388l-.286-.462a2.2 2.2 0 001.753-2.301h.571a2.752 2.752 0 01-2.038 2.763zm.487-1.529a6.56 6.56 0 00-.377-1.146l.478-.19a7.654 7.654 0 01.43 1.143zm4.862-1.753h1.665c-.317 1.696-1.015 2.781-2.329 3.255l-.294-.478a2.827 2.827 0 001.845-2.245h-1.164a5.468 5.468 0 01-1.028 1.278l-.44-.387a4.6 4.6 0 001.288-1.893h.637a6.153 6.153 0 01-.18.47zm-2.334 33.611h-.352a.417.417 0 01-.417-.417v-.204a.417.417 0 00-.416-.417h-.92a.417.417 0 00-.416.417v.204a.417.417 0 01-.417.417h-.353a.417.417 0 01-.416-.417v-.204a.417.417 0 00-.417-.417h-.92a.417.417 0 00-.416.417v.204a.417.417 0 01-.417.417h-.353a.417.417 0 01-.416-.417v-.204a.417.417 0 00-.417-.417h-.92a.417.417 0 00-.416.417v.204a.417.417 0 01-.417.417h-.352a.417.417 0 01-.417-.417v-.204a.417.417 0 00-.417-.417h-.919a.417.417 0 00-.417.417v.192a3.671 3.671 0 003.671 3.67h6.166a3.671 3.671 0 003.671-3.67v-.192a.417.417 0 00-.416-.417h-.92a.417.417 0 00-.416.417v.204a.417.417 0 01-.417.417zm-4.584-25.475c-6.343 0-10.678 3.605-10.678 8.807v8.67c0 1.918 2.373 4.353 3.924 4.353v1.005a.417.417 0 00.417.416h.92a.417.417 0 00.416-.416v-.205a.417.417 0 01.417-.416h.352a.417.417 0 01.417.416v.205a.417.417 0 00.417.416h.92a.417.417 0 00.416-.416v-.205a.417.417 0 01.416-.416h.353a.417.417 0 01.417.416v.205a.417.417 0 00.417.416h.919a.417.417 0 00.417-.416v-.205a.417.417 0 01.416-.416h.353a.417.417 0 01.417.416v.205a.417.417 0 00.416.416h.92a.417.417 0 00.416-.416v-.205a.417.417 0 01.417-.416h.353a.417.417 0 01.416.416v.205a.417.417 0 00.417.416h.92a.417.417 0 00.416-.416v-1.005c1.552 0 3.925-2.435 3.925-4.352v-8.67c0-5.203-4.336-8.808-10.679-8.808z"/><path class="cls-5" d="M277.84 151.511l-1.21 2.098a.526.526 0 00.598.769l.926-.26a.526.526 0 01.285 0l.926.26a.526.526 0 00.598-.77l-1.211-2.097a.526.526 0 00-.911 0zm-2.535-.071a.877.877 0 01-.622-.257l-3.296-3.296a.88.88 0 011.244-1.243l3.296 3.296a.88.88 0 01-.622 1.5z"/><path class="cls-5" d="M272.009 151.44a.88.88 0 01-.622-1.5l3.296-3.296a.88.88 0 011.244 1.243l-3.296 3.296a.877.877 0 01-.622.258zm12.575 0a.873.873 0 01-.621-.257l-3.297-3.296a.879.879 0 111.242-1.243l3.297 3.296a.878.878 0 01-.621 1.5z"/><path class="cls-5" d="M281.287 151.44a.878.878 0 01-.621-1.5l3.297-3.296a.879.879 0 111.242 1.243l-3.297 3.296a.873.873 0 01-.62.258z"/><path class="cls-1" d="M279.901 174.068a.595.595 0 11.595.607.601.601 0 01-.595-.607m-.493 0a1.089 1.089 0 101.088-1.084 1.075 1.075 0 00-1.088 1.084m-2.298.607a.606.606 0 11.595-.607.601.601 0 01-.595.607m0-1.691a1.084 1.084 0 101.088 1.084 1.075 1.075 0 00-1.088-1.084m-1.858.595h.563v-.503h-.563v-.679h-.514v1.697a1.308 1.308 0 00.1.513 1.063 1.063 0 00.64.568l.255-.43a.854.854 0 01-.423-.365.771.771 0 01-.057-.298l-.001-.165zm3.217-1.179a.334.334 0 00.668 0 .334.334 0 10-.668 0m.082.676h.503v2.025h-.503zm2.975 1.885h-.071v-.024h.169v.024h-.07v.191h-.028v-.191zm.213.191l-.059-.175v.175h-.028v-.215h.039l.062.183.062-.183h.039v.215h-.028v-.175l-.059.175h-.028z"/><g id="CIRCLE-5" data-name="CIRCLE"><path class="cls-5" d="M174.069 93.927a30.11 30.11 0 1130.11 30.11 30.11 30.11 0 01-30.11-30.11z"/><path class="cls-2" d="M204.179 124.153a30.226 30.226 0 1130.226-30.226 30.26 30.26 0 01-30.226 30.226zm0-60.22a29.994 29.994 0 1029.994 29.994 30.028 30.028 0 00-29.994-29.994z"/></g><path class="cls-1" d="M191.211 74.163a4.357 4.357 0 001.454 1.006l-.36.523a5.02 5.02 0 01-1.467-1.09 4.629 4.629 0 01-1.63 1.094l-.32-.483a3.878 3.878 0 002.327-2.342h-1.906v-.522h2.71a4.505 4.505 0 01-.808 1.814zm4.365 1.476c-.25 0-.571-.005-.734-.013-.755-.049-1.076-.383-1.076-1.063v-2.447h.62v1.344a7.998 7.998 0 001.998-.62l.246.532a10.891 10.891 0 01-2.245.62v.496c0 .4.075.505.501.553.11.014.4.027.571.031.163 0 .338 0 .532-.008.237-.005.474-.023.694-.04v.58c-.356.03-.725.035-1.107.035zm.927-2.89a.53.53 0 11.531-.532.528.528 0 01-.531.531zm.004-.791a.261.261 0 10.26.263.261.261 0 00-.26-.263zm1.312 2.262v-.62h3.488v.62zm5.168 1.49v-3.761h.607v1.27a10.761 10.761 0 011.998.94l-.334.535a8.208 8.208 0 00-1.664-.843v1.858zm1.845-2.808a2.756 2.756 0 00-.33-.742l.335-.167a2.913 2.913 0 01.369.75zm.628-.255a2.496 2.496 0 00-.342-.707l.333-.18a2.961 2.961 0 01.374.733zm1.993 1.107a5.454 5.454 0 01-.598.628l-.421-.386a5.348 5.348 0 001.384-1.99h.615a4.956 4.956 0 01-.154.4h1.577a3.77 3.77 0 01-2.399 3.334l-.294-.453a2.976 2.976 0 001.296-.878 5.522 5.522 0 00-1.006-.655zm1.327.202a3.214 3.214 0 00.386-1.04h-1.142a5.98 5.98 0 01-.26.417 7.265 7.265 0 011.016.623zm.764-1.59a2.334 2.334 0 00-.294-.58l.316-.158a2.157 2.157 0 01.325.589zm.641.018a2.056 2.056 0 00-.285-.607l.312-.166a2.211 2.211 0 01.32.623zm1.988 3.334l-.237-.531a1.84 1.84 0 001.85-2.03h-2.008v1.002h-.62v-1.525h1.27v-.755h.628v.755h1.41c-.052 1.792-.54 2.816-2.293 3.084zm4.707-2.148a5.48 5.48 0 00-1.282-.826l.36-.501a6.417 6.417 0 011.327.778zm-.957 2.051l-.193-.588a3.384 3.384 0 002.868-2.074l.461.43a3.899 3.899 0 01-3.136 2.232z"/><rect class="cls-1" x="191.188" y="107.462" width="25.982" height="1.758" rx=".879"/><path class="cls-1" d="M193.792 97.343v-5.544l10.387 6.711 10.387-6.711v5.544l-10.387 6.711-10.387-6.711z"/><path class="cls-1" d="M204.179 92.966l-10.387-6.711v-5.544l10.387 6.711 10.387-6.711v5.544l-10.387 6.711zm1.605 26.85a.595.595 0 11.595.606.601.601 0 01-.595-.606m-.494 0a1.089 1.089 0 101.089-1.085 1.075 1.075 0 00-1.089 1.085m-2.298.606a.606.606 0 11.595-.606.601.601 0 01-.595.606m0-1.69a1.084 1.084 0 101.089 1.084 1.075 1.075 0 00-1.089-1.085m-1.857.595h.563v-.503h-.563v-.678h-.514v1.697a1.308 1.308 0 00.1.512 1.063 1.063 0 00.64.569l.255-.431a.854.854 0 01-.423-.365.771.771 0 01-.057-.298l-.001-.164zm3.216-1.179a.334.334 0 00.669 0 .334.334 0 10-.669 0m.083.676h.503v2.025h-.503zm2.975 1.886h-.071v-.025h.169v.025h-.07v.191h-.028v-.191zm.212.191l-.058-.175v.175h-.029v-.216h.04l.061.183.063-.183h.039v.216h-.029v-.175l-.058.175h-.029z"/><g id="CIRCLE-6" data-name="CIRCLE"><path class="cls-5" d="M183.333 148.18a30.11 30.11 0 1130.11 30.11 30.11 30.11 0 01-30.11-30.11z"/><path class="cls-2" d="M213.443 178.406a30.226 30.226 0 1130.227-30.226 30.26 30.26 0 01-30.227 30.226zm0-60.22a29.994 29.994 0 1029.994 29.994 30.028 30.028 0 00-29.994-29.995z"/></g><path class="cls-1" d="M204.508 129.734l-.51-.286a3.553 3.553 0 00.575-1.296l.536.136a4.364 4.364 0 01-.601 1.446zm1.291.237a1.781 1.781 0 01-.83-.202l.11-.483a1.298 1.298 0 00.641.175c.286 0 .43-.105.43-.307s-.092-.352-.434-.681a.753.753 0 01-.3-.558 1.278 1.278 0 01.278-.747l.505.198a.758.758 0 00-.207.496c0 .123.093.22.246.37a1.246 1.246 0 01.501.952c0 .48-.338.787-.94.787zm.835-2.816a5.478 5.478 0 00-1.542-.448l.14-.523a6.169 6.169 0 011.613.457zm.826 2.548a4.83 4.83 0 00-.576-1.388l.483-.216a6.093 6.093 0 01.633 1.397zm2.976.307a4.839 4.839 0 01-.54-.03v-.519c.154.018.374.027.527.027.94 0 1.375-.246 1.375-.633 0-.268-.22-.465-.641-.465a1.865 1.865 0 00-1.287.623l-.554-.14a8.58 8.58 0 01.365-1.823l.549.087a4.923 4.923 0 00-.264 1.13 2.241 2.241 0 011.266-.4c.742 0 1.177.435 1.177.966 0 .76-.712 1.177-1.973 1.177zm1.23-2.912a7.15 7.15 0 00-1.845-.391l.123-.518a7.255 7.255 0 011.88.377zm3.047 2.653l-.11-.553c1.59-.009 2.201-.453 2.201-1.103 0-.466-.299-.808-.962-.808a9.099 9.099 0 00-1.928.382l-.15-.575a11.961 11.961 0 012.17-.374 1.33 1.33 0 011.503 1.362c0 .931-.73 1.67-2.724 1.67zm6.457-1.551a4.949 4.949 0 00.219.457l-.571.176a6.873 6.873 0 01-.273-.633h-1.783v-.505h1.612c-.048-.162-.092-.33-.136-.5h-1.283v-.506h1.169a14.46 14.46 0 01-.11-.593h.606q.046.303.106.593h1.16v.505h-1.046c.044.172.092.339.14.501h1.147v.505zm-.22 1.815c-1.34 0-1.823-.325-1.823-.795a1.297 1.297 0 01.14-.558l.545.088a.926.926 0 00-.101.4c0 .236.36.329 1.2.329.109 0 .302 0 .504-.009v.536c-.158.004-.351.009-.465.009zm-6.459 11.869l1.918 2.232a.578.578 0 00.997-.23l2.371-8.959a.578.578 0 00-.62-.722l-9.215.994a.578.578 0 00-.377.952l1.918 2.231c-1.957 1.682-4.392 3.774-4.392 7.917s2.435 6.236 4.392 7.917c1.83 1.573 2.785 2.483 2.785 4.417 0 1.774-.804 2.686-2.35 4.04a.58.58 0 00-.06.812l2.256 2.625a.578.578 0 00.817.06c1.863-1.622 3.953-3.7 3.953-7.537 0-4.144-2.436-6.236-4.393-7.918-1.83-1.572-2.785-2.483-2.785-4.416 0-1.933.955-2.843 2.785-4.415zm.558 32.184a.595.595 0 11.595.607.601.601 0 01-.595-.607m-.494 0a1.089 1.089 0 101.089-1.084 1.075 1.075 0 00-1.089 1.084m-2.298.607a.606.606 0 11.595-.607.601.601 0 01-.595.607m0-1.691a1.084 1.084 0 101.089 1.084 1.075 1.075 0 00-1.089-1.084m-1.857.595h.562v-.503h-.563v-.679h-.513v1.697a1.308 1.308 0 00.1.513 1.063 1.063 0 00.64.568l.254-.43a.854.854 0 01-.423-.365.771.771 0 01-.057-.298v-.165zm3.216-1.179a.334.334 0 00.668 0 .334.334 0 10-.668 0m.083.676h.503v2.025h-.503zm2.975 1.885h-.071v-.024h.169v.024h-.071v.191h-.027v-.191zm.212.191l-.059-.175v.175h-.028v-.215h.039l.062.183.062-.183h.039v.215h-.028v-.175l-.059.175h-.028z"/><path fill="none" d="M0 0h315.51v187.855H0z"/></g></g></svg>