<svg width="538" height="239" xmlns="http://www.w3.org/2000/svg" xmlns:xlink="http://www.w3.org/1999/xlink" overflow="hidden"><defs><clipPath id="clip0"><path d="M263 246 801 246 801 485 263 485Z" fill-rule="evenodd" clip-rule="evenodd"/></clipPath></defs><g clip-path="url(#clip0)" transform="translate(-263 -246)"><path d="M456.693 274 626.307 274C629.451 274 632 276.535 632 279.661L632 448.339C632 451.466 629.451 454 626.307 454L456.689 454C453.547 454 451 451.467 451 448.342L451 279.661C451 276.535 453.549 274 456.693 274Z" fill="#FFFFFF" fill-rule="evenodd"/><path d="M626.225 452 456.776 452C455.243 451.998 454.001 450.756 454 449.223L454 279.776C454.001 278.243 455.243 277.001 456.776 277L626.225 277C627.757 277.002 628.999 278.244 629 279.776L629 449.223C629 450.756 627.758 451.998 626.225 452ZM456.776 278.003C455.797 278.004 455.004 278.797 455.003 279.776L455.003 449.223C455.004 450.202 455.797 450.996 456.776 450.997L626.225 450.997C627.204 450.995 627.997 450.202 627.997 449.223L627.997 279.776C627.997 278.798 627.204 278.004 626.225 278.003Z" fill="#9E9E9F" fill-rule="evenodd"/><path d="M495.5 364C495.224 364 495 363.777 495 363.501L495 321.499C495 321.223 495.224 321 495.5 321 495.776 321 496 321.223 496 321.499L496 363.501C496 363.777 495.776 364 495.5 364Z" fill="#9E9E9F" fill-rule="evenodd"/><path d="M495.842 364.948 471.665 364.948C471.251 364.948 470.916 364.613 470.916 364.199L470.916 322.147C470.916 321.734 471.25 321.399 471.663 321.398 471.664 321.398 471.664 321.398 471.665 321.398L495.887 321.398 496.146 321.414C496.174 321.416 496.202 321.419 496.23 321.424L496.49 321.468C496.52 321.474 496.549 321.481 496.578 321.49L496.836 321.568C496.859 321.575 496.883 321.584 496.906 321.593L497.168 321.703C497.194 321.714 497.22 321.726 497.244 321.74L497.504 321.885C497.53 321.898 497.555 321.914 497.578 321.932L497.836 322.117C497.855 322.132 497.874 322.147 497.892 322.163L498.151 322.39C498.172 322.408 498.191 322.427 498.209 322.447L498.464 322.725C498.479 322.742 498.494 322.761 498.509 322.78L498.757 323.109C498.771 323.129 498.786 323.149 498.799 323.171L499.035 323.561C499.046 323.58 499.057 323.6 499.067 323.621L499.287 324.074C499.297 324.094 499.305 324.114 499.313 324.134L499.513 324.656C499.52 324.676 499.527 324.696 499.533 324.716L499.705 325.311C499.711 325.331 499.715 325.353 499.719 325.373L499.854 326.05 499.863 326.11 499.951 326.866C499.953 326.886 499.954 326.906 499.955 326.926L499.985 327.768 500.055 332.962 500.092 338.136 500.103 343.17 500.093 348.208 500.055 353.382 499.987 358.562 499.955 359.419C499.954 359.439 499.953 359.458 499.951 359.477L499.863 360.236C499.861 360.256 499.857 360.277 499.853 360.296L499.719 360.973C499.715 360.993 499.711 361.014 499.705 361.034L499.534 361.63C499.528 361.65 499.521 361.67 499.514 361.69L499.314 362.211 499.288 362.271 499.067 362.723C499.058 362.744 499.047 362.765 499.035 362.784L498.799 363.174C498.786 363.195 498.772 363.216 498.757 363.236L498.508 363.566C498.493 363.585 498.478 363.603 498.462 363.621L498.207 363.898C498.19 363.917 498.172 363.934 498.153 363.951L497.894 364.181C497.875 364.198 497.855 364.214 497.834 364.23L497.576 364.413C497.555 364.429 497.532 364.443 497.509 364.456L497.247 364.604 497.172 364.641 496.91 364.751C496.884 364.762 496.857 364.772 496.83 364.78L496.573 364.856C496.546 364.865 496.518 364.871 496.49 364.876L496.23 364.921C496.203 364.926 496.174 364.93 496.146 364.931L495.887 364.947 495.842 364.948ZM472.413 363.45 495.819 363.45 496.015 363.439 496.189 363.408 496.365 363.356 496.55 363.278 496.738 363.171 496.931 363.033 497.132 362.855 497.336 362.634 497.539 362.364 497.736 362.037 497.927 361.646 498.103 361.184 498.258 360.65 498.38 360.035 498.46 359.335 498.49 358.523 498.558 353.367 498.595 348.2 498.606 343.171 498.596 338.145 498.558 332.976 498.49 327.807 498.46 327.01 498.38 326.313 498.258 325.696 498.103 325.162 497.927 324.699 497.736 324.307 497.539 323.981 497.335 323.71 497.132 323.489 496.931 323.311 496.738 323.172 496.554 323.069 496.364 322.991 496.187 322.937 496.015 322.907 495.819 322.895 472.413 322.895ZM504.33 440.789C497.023 440.788 491.101 434.859 491.101 427.547 491.102 420.234 497.025 414.307 504.332 414.307 511.638 414.308 517.561 420.236 517.561 427.548 517.553 434.858 511.634 440.781 504.33 440.789ZM504.33 415.306C497.575 415.306 492.099 420.788 492.099 427.549 492.1 434.31 497.577 439.79 504.332 439.79 511.087 439.789 516.563 434.308 516.563 427.548 516.555 420.79 511.083 415.313 504.33 415.306ZM481.697 448.434 463.027 448.434C460.253 448.431 458.004 446.181 458 443.405L458 411.692C458.003 408.915 460.252 406.664 463.027 406.661L481.698 406.661C484.473 406.664 486.721 408.915 486.724 411.692L486.724 443.405C486.721 446.182 484.472 448.432 481.698 448.434ZM463.027 407.661C460.803 407.663 459.001 409.467 458.998 411.692L458.998 443.405C459.001 445.631 460.804 447.433 463.027 447.435L481.698 447.435C483.921 447.433 485.723 445.63 485.726 443.405L485.726 411.692C485.724 409.466 483.922 407.662 481.698 407.66ZM541.673 449C530.778 448.988 521.949 440.152 521.936 429.248L521.936 425.848C521.936 414.938 530.773 406.095 541.673 406.095 552.573 406.095 561.41 414.938 561.41 425.848L561.41 429.248C561.397 440.152 552.568 448.988 541.673 449ZM541.673 407.095C531.329 407.106 522.946 415.495 522.934 425.848L522.934 429.248C522.934 439.606 531.324 448.002 541.673 448.002 552.022 448.002 560.412 439.606 560.412 429.248L560.412 425.848C560.4 415.495 552.017 407.106 541.673 407.095ZM541.673 314.475C531.885 314.474 523.951 306.532 523.952 296.736 523.953 286.939 531.889 278.999 541.677 279 551.464 279.001 559.398 286.942 559.398 296.738 559.387 306.53 551.458 314.466 541.673 314.475ZM541.673 280.499C532.712 280.5 525.448 287.772 525.449 296.741 525.45 305.709 532.716 312.979 541.677 312.978 550.638 312.977 557.901 305.706 557.901 296.738 557.891 287.772 550.631 280.508 541.673 280.499ZM587.501 364.698C587.226 364.698 587.003 364.474 587.002 364.199L587.002 322.147C587.002 321.871 587.225 321.648 587.501 321.648 587.777 321.648 588 321.871 588 322.147L588 364.199C588 364.475 587.777 364.698 587.501 364.698Z" fill="#9E9E9F" fill-rule="evenodd"/><path d="M611.255 365 587.232 365 587.189 364.999 586.931 364.983C586.903 364.981 586.876 364.978 586.848 364.973L586.591 364.927C586.562 364.923 586.535 364.916 586.507 364.907L586.251 364.83C586.225 364.822 586.198 364.813 586.172 364.801L585.912 364.69C585.887 364.679 585.862 364.666 585.838 364.653L585.578 364.504C585.555 364.49 585.532 364.476 585.511 364.459L585.255 364.274C585.234 364.259 585.215 364.242 585.195 364.225L584.938 363.993C584.919 363.976 584.901 363.958 584.884 363.939L584.631 363.66C584.615 363.642 584.6 363.623 584.586 363.603L584.338 363.27C584.323 363.25 584.309 363.229 584.297 363.207L584.062 362.814C584.05 362.795 584.039 362.774 584.029 362.754L583.811 362.295C583.802 362.275 583.793 362.255 583.785 362.235L583.587 361.709C583.579 361.689 583.573 361.669 583.567 361.649L583.396 361.046C583.39 361.025 583.385 361.005 583.382 360.984L583.249 360.3C583.245 360.28 583.241 360.26 583.239 360.24L583.152 359.473C583.149 359.453 583.148 359.434 583.148 359.414L583.117 358.566 583.048 353.316 583.011 348.088 583 342.999 583.01 337.913 583.049 332.685 583.116 327.452 583.148 326.584C583.148 326.564 583.149 326.544 583.152 326.524L583.239 325.76C583.241 325.74 583.244 325.72 583.248 325.7L583.382 325.016C583.385 324.994 583.39 324.974 583.396 324.953L583.566 324.352C583.572 324.332 583.579 324.312 583.586 324.292L583.784 323.763 583.81 323.703 584.028 323.245C584.039 323.225 584.05 323.205 584.062 323.185L584.297 322.791C584.31 322.77 584.324 322.749 584.339 322.729L584.586 322.396C584.599 322.376 584.614 322.358 584.629 322.34L584.882 322.06C584.901 322.039 584.92 322.019 584.94 322.002L585.197 321.773C585.215 321.757 585.234 321.741 585.253 321.727L585.509 321.539C585.532 321.521 585.556 321.505 585.582 321.492L585.841 321.345C585.865 321.331 585.891 321.319 585.916 321.308L586.177 321.197C586.2 321.187 586.223 321.179 586.247 321.172L586.502 321.093C586.531 321.084 586.561 321.077 586.591 321.071L586.848 321.025C586.876 321.02 586.904 321.017 586.932 321.015L587.189 321 611.256 321C611.667 320.999 611.999 321.337 612 321.755 612 321.756 612 321.756 612 321.757L612 364.243C612 364.661 611.667 365 611.256 365ZM587.256 363.486 610.513 363.486 610.513 322.514 587.256 322.514 587.063 322.524 586.891 322.555 586.715 322.61 586.528 322.688 586.344 322.792 586.152 322.934 585.952 323.112 585.751 323.335 585.548 323.61 585.352 323.939 585.164 324.335 584.987 324.803 584.834 325.342 584.713 325.965 584.633 326.669 584.603 327.492 584.536 332.699 584.498 337.921 584.487 342.999 584.497 348.081 584.536 353.302 584.603 358.525 584.633 359.328 584.713 360.035 584.834 360.658 584.987 361.197 585.163 361.664 585.351 362.059 585.549 362.39 585.75 362.663 585.952 362.885 586.152 363.066 586.344 363.205 586.53 363.313 586.715 363.391 586.889 363.444 587.063 363.474Z" fill="#9E9E9F" fill-rule="evenodd"/><path d="M479.495 368.273C479.072 368.122 478.626 368.045 478.177 368.046 477.634 368.046 477.08 368.231 477.08 368.824 477.08 369.304 477.4 369.533 478.285 369.877 479.362 370.328 479.983 370.741 479.983 371.74 479.983 372.951 478.938 373.448 477.841 373.448 477.214 373.46 476.59 373.358 476 373.145L476.225 372.307C476.73 372.529 477.274 372.653 477.826 372.67 478.533 372.67 479.008 372.382 479.008 371.81 479.008 371.298 478.546 371.016 477.675 370.675 476.664 370.273 476.087 369.77 476.087 368.909 476.087 367.735 477.141 367.24 478.129 367.24 478.658 367.233 479.185 367.313 479.689 367.476ZM482.823 373.448C484.117 373.532 485.235 372.562 485.32 371.282 485.405 370.002 484.425 368.896 483.13 368.812 481.836 368.728 480.718 369.698 480.633 370.978 480.63 371.028 480.628 371.079 480.628 371.13 480.49 372.267 481.31 373.3 482.459 373.436 482.58 373.451 482.702 373.455 482.823 373.448M482.823 369.541C483.66 369.541 484.047 370.203 484.047 371.13 484.047 372.077 483.66 372.737 482.823 372.737 481.996 372.737 481.608 372.077 481.608 371.13 481.608 370.203 481.985 369.541 482.824 369.541M485.752 368.909 485.752 373.386 486.719 373.386 486.719 370.894C486.719 369.909 487.291 369.541 487.826 369.541 488.555 369.541 488.752 370.018 488.752 370.788L488.752 373.386 489.744 373.386 489.744 370.423C489.802 369.589 489.164 368.867 488.321 368.81 488.244 368.805 488.166 368.805 488.089 368.812 487.532 368.784 487.005 369.061 486.718 369.533L486.7 369.533 486.7 368.909ZM491.2 368.909 490.133 368.909 491.921 373.251 491.188 375 492.203 375 494.661 368.909 493.64 368.909 492.425 372.196 492.413 372.196ZM538.671 373.386 542.27 373.386 542.27 372.55 539.675 372.55 539.675 370.678 541.978 370.678 541.978 369.867 539.675 369.867 539.675 368.148 542.19 368.148 542.19 367.346 538.671 367.346ZM543.055 368.909 543.055 373.386 544.025 373.386 544.025 370.894C544.025 369.909 544.578 369.541 545.132 369.541 545.87 369.541 546.066 370.018 546.066 370.788L546.066 373.386 547.024 373.386 547.024 370.423C547.016 369.525 546.274 368.803 545.366 368.81 544.821 368.815 544.314 369.085 544.012 369.533L544 369.533 544 368.909ZM499.04 368.909 499.04 373.386 500.025 373.386 500.025 370.894C500.025 369.909 500.592 369.541 501.12 369.541 501.866 369.541 502.068 370.018 502.068 370.788L502.068 373.386 503.04 373.386 503.04 370.423C503.102 369.595 502.474 368.873 501.636 368.811 501.559 368.805 501.48 368.806 501.402 368.812 500.84 368.784 500.307 369.06 500.01 369.533L499.997 369.533 499.997 368.909ZM547.507 369.639 548.256 369.639 548.256 372.151C548.256 372.972 548.441 373.416 549.457 373.416 549.72 373.416 550.003 373.402 550.206 373.386L550.206 372.651C550.054 372.674 549.901 372.686 549.747 372.687 549.281 372.687 549.222 372.582 549.222 371.972L549.222 369.639 550.21 369.639 550.21 368.909 549.222 368.909 549.222 367.75 548.256 367.75 548.256 368.909 547.507 368.909ZM554.731 371.412 554.731 371.003C554.731 369.671 554.068 368.812 552.766 368.812 551.59 368.807 550.633 369.746 550.629 370.909 550.629 370.987 550.633 371.065 550.641 371.143 550.564 372.342 551.484 373.376 552.696 373.453 552.811 373.46 552.927 373.459 553.042 373.448 553.504 373.468 553.965 373.399 554.401 373.246L554.275 372.535C553.911 372.671 553.526 372.739 553.137 372.737 552.371 372.82 551.681 372.274 551.596 371.516 551.592 371.481 551.59 371.447 551.588 371.412ZM551.588 370.708C551.579 370.053 552.104 369.514 552.766 369.497 553.346 369.489 553.823 369.948 553.831 370.522 553.832 370.576 553.828 370.63 553.82 370.684L553.82 370.708 551.588 370.708M557.752 368.82C557.696 368.814 557.64 368.811 557.584 368.812 557.087 368.771 556.619 369.046 556.418 369.497L556.394 369.497 556.394 368.909 555.45 368.909 555.45 373.386 556.431 373.386 556.431 371.011C556.431 369.933 556.909 369.567 557.498 369.567 557.584 369.567 557.649 369.567 557.705 369.569ZM503.526 369.639 504.267 369.639 504.267 372.151C504.267 372.972 504.46 373.416 505.503 373.416 505.754 373.416 506.043 373.402 506.225 373.386L506.225 372.651C506.081 372.674 505.935 372.686 505.788 372.687 505.316 372.687 505.268 372.582 505.268 371.972L505.268 369.639 506.228 369.639 506.228 368.909 505.268 368.909 505.268 367.75 504.267 367.75 504.267 368.909 503.527 368.909ZM522.399 369.639 523.165 369.639 523.165 372.151C523.165 372.972 523.33 373.416 524.381 373.416 524.637 373.416 524.91 373.402 525.124 373.386L525.124 372.651C524.972 372.674 524.818 372.686 524.664 372.687 524.194 372.687 524.138 372.582 524.138 371.972L524.138 369.639 525.125 369.639 525.125 368.909 524.138 368.909 524.138 367.75 523.165 367.75 523.165 368.909 522.399 368.909ZM510.762 371.412 510.762 371.003C510.762 369.671 510.093 368.812 508.81 368.812 507.635 368.796 506.67 369.726 506.654 370.888 506.653 370.973 506.657 371.058 506.666 371.143 506.587 372.34 507.503 373.374 508.713 373.453 508.83 373.46 508.946 373.459 509.062 373.448 509.524 373.469 509.985 373.4 510.42 373.246L510.29 372.535C509.924 372.669 509.537 372.738 509.148 372.737 508.379 372.81 507.697 372.253 507.623 371.493 507.62 371.466 507.619 371.439 507.618 371.412ZM507.618 370.708C507.611 370.048 508.144 369.508 508.81 369.497 509.387 369.498 509.854 369.962 509.853 370.532 509.853 370.583 509.849 370.634 509.842 370.684L509.842 370.708 507.618 370.708M536.089 371.412 536.089 371.003C536.089 369.671 535.426 368.812 534.144 368.812 532.964 368.797 531.995 369.732 531.98 370.9 531.979 370.981 531.983 371.062 531.991 371.143 531.917 372.346 532.844 373.381 534.06 373.454 534.177 373.461 534.293 373.459 534.409 373.448 534.865 373.468 535.321 373.4 535.75 373.246L535.613 372.535C535.259 372.671 534.882 372.74 534.503 372.737 533.726 372.824 533.025 372.272 532.936 371.504 532.933 371.474 532.93 371.443 532.929 371.412ZM532.929 370.708C532.933 370.044 533.473 369.506 534.144 369.497 534.728 369.499 535.2 369.969 535.198 370.547 535.198 370.593 535.195 370.638 535.189 370.684L535.189 370.708 532.929 370.708M513.824 368.82C513.737 368.815 513.7 368.812 513.64 368.812 513.138 368.766 512.662 369.041 512.458 369.497L512.445 369.497 512.445 368.909 511.5 368.909 511.5 373.386 512.463 373.386 512.463 371.011C512.463 369.933 512.96 369.567 513.556 369.567 513.64 369.567 513.692 369.567 513.753 369.569ZM558.41 369.639 559.046 369.639 559.046 372.151C559.046 372.972 559.242 373.416 560.258 373.416 560.525 373.416 560.81 373.402 561.017 373.386L561.017 372.651C560.863 372.674 560.707 372.686 560.551 372.687 560.112 372.687 560.018 372.582 560.018 371.972L560.018 369.639 561.03 369.639 561.03 368.909 560.017 368.909 560.017 367.75 559.045 367.75 559.045 368.909 558.409 368.909ZM564.318 370.568C562.783 370.568 561.477 370.808 561.477 372.1 561.477 373.127 562.264 373.448 563.024 373.448 563.576 373.494 564.106 373.226 564.391 372.756L564.413 372.756C564.424 372.969 564.457 373.18 564.512 373.386L565.366 373.386C565.326 373.042 565.306 372.695 565.309 372.348L565.309 370.46C565.309 369.383 564.648 368.811 563.344 368.811 562.858 368.82 562.377 368.907 561.919 369.069L562.123 369.781C562.491 369.633 562.884 369.551 563.281 369.541 564.005 369.541 564.318 369.867 564.318 370.459ZM564.318 371.196 564.318 371.549C564.378 372.154 563.931 372.693 563.32 372.753 563.263 372.758 563.207 372.759 563.151 372.756 562.788 372.802 562.456 372.547 562.41 372.188 562.404 372.145 562.403 372.101 562.406 372.058 562.406 371.362 563.227 371.196 564.134 371.196ZM516.942 370.568C515.425 370.568 514.111 370.808 514.111 372.1 514.111 373.127 514.886 373.448 515.669 373.448 516.219 373.488 516.746 373.221 517.035 372.756L517.051 372.756C517.065 372.969 517.095 373.179 517.143 373.386L517.994 373.386C517.941 373.043 517.916 372.696 517.92 372.348L517.92 370.46C517.92 369.383 517.285 368.811 515.992 368.811 515.506 368.817 515.025 368.904 514.569 369.069L514.76 369.781C515.126 369.633 515.515 369.552 515.91 369.541 516.634 369.541 516.942 369.867 516.942 370.459ZM516.942 371.196 516.942 371.549C517.007 372.149 516.568 372.687 515.962 372.751 515.908 372.757 515.854 372.759 515.801 372.756 515.433 372.81 515.091 372.558 515.037 372.194 515.031 372.149 515.029 372.103 515.031 372.058 515.031 371.362 515.863 371.196 516.766 371.196ZM567.327 367.209 566.345 367.209 566.345 368.105 567.327 368.105ZM567.312 368.909 566.345 368.909 566.345 373.386 567.312 373.386ZM526.924 367.21 525.927 367.21 525.927 368.104 526.924 368.104ZM526.9 368.909 525.927 368.909 525.927 373.386 526.9 373.386ZM568.347 368.909 568.347 373.386 569.318 373.386 569.318 370.894C569.318 369.909 569.889 369.541 570.424 369.541 571.157 369.541 571.352 370.018 571.352 370.788L571.352 373.386 572.329 373.386 572.329 370.423C572.396 369.6 571.777 368.878 570.945 368.811 570.861 368.805 570.777 368.805 570.693 368.812 570.132 368.785 569.599 369.061 569.302 369.533L569.294 369.533 569.294 368.909ZM573.327 368.909 573.327 373.386 574.309 373.386 574.309 370.85C574.309 369.909 574.79 369.541 575.321 369.541 576.055 369.541 576.195 369.991 576.195 370.736L576.195 373.386 577.166 373.386 577.166 370.648C577.091 370.115 577.467 369.624 578.006 369.55 578.056 369.543 578.107 369.54 578.157 369.541 578.868 369.541 579.015 370.048 579.015 370.788L579.015 373.386 580.003 373.386 580.003 370.423C580.088 369.617 579.496 368.896 578.68 368.812 578.581 368.802 578.481 368.802 578.382 368.812 577.815 368.776 577.275 369.053 576.98 369.533L576.942 369.533C576.696 369.04 576.166 368.752 575.614 368.812 575.07 368.786 574.56 369.074 574.304 369.549L574.277 369.549 574.277 368.909ZM584.781 371.412 584.781 371.003C584.781 369.671 584.121 368.812 582.842 368.812 581.663 368.798 580.695 369.732 580.681 370.899 580.68 370.98 580.684 371.062 580.693 371.143 580.615 372.343 581.535 373.378 582.748 373.455 582.869 373.462 582.991 373.46 583.112 373.448 583.566 373.467 584.02 373.398 584.449 373.246L584.318 372.535C583.953 372.672 583.565 372.741 583.175 372.737 582.397 372.808 581.708 372.243 581.635 371.473 581.633 371.453 581.632 371.432 581.631 371.412ZM581.631 370.708C581.635 370.045 582.174 369.507 582.843 369.497 583.43 369.508 583.897 369.987 583.887 370.568 583.886 370.606 583.883 370.645 583.878 370.684L583.878 370.708 581.631 370.708M585.518 368.909 585.518 373.386 586.469 373.386 586.469 370.894C586.469 369.909 587.026 369.541 587.579 369.541 588.343 369.541 588.513 370.018 588.513 370.788L588.513 373.386 589.496 373.386 589.496 370.423C589.479 369.516 588.722 368.794 587.805 368.811 587.265 368.821 586.763 369.09 586.46 369.533L586.44 369.533 586.44 368.909ZM589.966 369.639 590.704 369.639 590.704 372.151C590.704 372.972 590.891 373.416 591.913 373.416 592.182 373.416 592.462 373.402 592.661 373.386L592.661 372.651C592.514 372.673 592.365 372.685 592.216 372.687 591.77 372.687 591.693 372.582 591.693 371.972L591.693 369.639 592.661 369.639 592.661 368.909 591.695 368.909 591.695 367.75 590.704 367.75 590.704 368.909 589.966 368.909ZM594.965 373.386 595.993 373.386 595.993 367.346 594.965 367.346ZM497.04 373.386 498.024 373.386 498.024 367.346 497.04 367.346ZM596.997 368.909 596.997 373.386 597.963 373.386 597.963 370.894C597.963 369.909 598.524 369.541 599.07 369.541 599.827 369.541 600.001 370.018 600.001 370.788L600.001 373.386 600.984 373.386 600.984 370.423C600.97 369.52 600.218 368.798 599.304 368.812 598.763 368.82 598.261 369.09 597.958 369.533L597.934 369.533 597.934 368.909ZM605.071 368.977C604.741 368.857 604.391 368.801 604.04 368.812 602.818 368.738 601.767 369.657 601.692 370.866 601.687 370.958 601.687 371.051 601.693 371.143 601.597 372.322 602.486 373.355 603.679 373.45 603.8 373.459 603.922 373.459 604.044 373.448 604.396 373.466 604.748 373.403 605.071 373.264L604.914 372.569C604.665 372.693 604.389 372.751 604.111 372.738 603.218 372.651 602.565 371.864 602.652 370.98 602.727 370.229 603.321 369.63 604.079 369.541 604.357 369.536 604.633 369.59 604.888 369.698ZM521.987 368.977C521.654 368.858 521.302 368.802 520.948 368.812 519.723 368.735 518.668 369.655 518.591 370.867 518.585 370.959 518.585 371.051 518.591 371.143 518.498 372.326 519.393 373.359 520.589 373.45 520.708 373.459 520.829 373.458 520.948 373.448 521.304 373.466 521.659 373.403 521.987 373.264L521.818 372.569C521.567 372.694 521.288 372.752 521.008 372.738 520.115 372.641 519.47 371.847 519.567 370.964 519.65 370.219 520.24 369.63 520.991 369.541 521.266 369.538 521.539 369.592 521.792 369.698ZM605.885 373.386 607 373.386 607 372.268 605.885 372.268ZM530.235 373.388 531.932 368.897 530.887 368.897 529.716 372.506 529.697 372.506 528.508 368.897 527.427 368.897 529.127 373.388 530.235 373.388ZM580.265 327.485C580.316 323.954 577.463 321.051 573.893 321.001 570.324 320.95 567.388 323.772 567.337 327.303 567.286 330.834 570.139 333.737 573.708 333.787 573.74 333.788 573.772 333.788 573.804 333.788 577.346 333.807 580.235 330.988 580.265 327.485ZM579.405 327.485C579.342 330.547 576.782 332.979 573.687 332.917 570.592 332.855 568.133 330.322 568.196 327.261 568.258 324.242 570.751 321.827 573.804 321.829 576.911 321.842 579.419 324.344 579.405 327.417 579.405 327.44 579.405 327.463 579.405 327.485ZM522.556 330.32C521.791 329.577 521.372 328.553 521.399 327.493 521.366 326.39 521.782 325.321 522.554 324.524 524.34 322.996 526.99 322.996 528.776 324.524 529.543 325.323 529.954 326.392 529.917 327.493 529.961 328.553 529.546 329.582 528.776 330.32 527.966 331.161 526.837 331.627 525.664 331.604 524.493 331.616 523.37 331.152 522.555 330.32ZM531.496 331.069C532.453 330.116 533.004 328.836 533.035 327.493 533.069 326.111 532.51 324.779 531.496 323.827 529.879 322.457 527.79 321.757 525.664 321.871 523.558 321.839 521.506 322.527 519.855 323.821 518.823 324.767 518.247 326.102 518.27 327.493 518.282 328.849 518.855 330.141 519.855 331.069 521.493 332.386 523.553 333.081 525.664 333.028 527.784 333.097 529.857 332.4 531.496 331.069ZM508.978 321.874C507.678 321.853 506.389 322.118 505.205 322.649 504.06 323.026 503.273 324.066 503.228 325.258 503.236 325.936 503.499 326.588 503.965 327.086 504.539 327.664 505.3 328.024 506.115 328.103 507.15 328.329 508.196 328.5 509.249 328.616 510.498 328.758 511.75 328.89 512.269 329.023 512.635 329.132 513.324 329.283 513.324 329.944 513.316 330.453 512.981 330.9 512.491 331.057 511.706 331.41 510.849 331.576 509.987 331.542 508.972 331.509 507.969 331.317 507.014 330.976 506.338 330.754 505.736 330.353 505.274 329.816 505.036 329.496 504.911 329.107 504.917 328.709L503.551 328.709 503.551 332.586 505.07 332.586 505.07 332.017C505.07 331.949 505.137 331.843 505.4 331.85 506.137 332.156 506.897 332.407 507.672 332.601 508.429 332.804 509.211 332.908 509.995 332.909 511.054 332.93 512.109 332.775 513.116 332.452 513.773 332.24 514.405 331.955 514.999 331.604 515.615 331.095 515.977 330.346 515.992 329.552 516.02 328.8 515.73 328.071 515.191 327.539 514.91 327.233 514.569 326.985 514.19 326.81 513.792 326.622 513.379 326.471 512.954 326.359 511.82 326.1 510.668 325.926 509.508 325.839 508.476 325.782 507.448 325.665 506.429 325.487 506.091 325.39 505.856 325.086 505.852 324.737 505.858 324.385 506.064 324.066 506.385 323.912 507.281 323.556 508.243 323.393 509.208 323.432 510.326 323.408 511.44 323.59 512.491 323.969 512.778 324.093 513.044 324.261 513.279 324.466 513.653 324.822 513.918 325.274 514.045 325.771L515.297 325.771 515.297 322.348 513.891 322.348 513.891 322.774C513.891 322.91 513.771 323.092 513.508 322.942 512.105 322.236 510.552 321.87 508.978 321.874ZM539.413 322.501 546.176 328.632 546.199 324.509C546.179 323.945 546.081 323.751 545.498 323.751L544.216 323.751 544.216 322.501 550.012 322.501 550.012 323.751 548.769 323.751C548.166 323.751 548.13 323.92 548.122 324.509L548.146 332.373 546.176 332.373 538.382 325.474 538.382 330.347C538.39 330.917 538.409 331.181 538.971 331.181L540.339 331.181 540.339 332.373 534.674 332.373 534.674 331.181 535.989 331.181C536.488 331.181 536.468 330.681 536.468 330.32L536.468 324.547C536.468 324.14 536.409 323.752 535.659 323.752L534.563 323.752 534.563 322.5ZM556.548 331.181C556.665 331.18 556.783 331.173 556.899 331.162 557.012 331.11 557.102 331.02 557.155 330.909 557.172 330.815 557.178 330.721 557.175 330.626L557.175 328.679C557.175 328.631 557.175 328.616 557.092 328.495 557.006 328.376 553.56 324.455 553.409 324.247 553.135 323.939 552.743 323.759 552.329 323.751L551.151 323.751 551.151 322.501 557.919 322.501 557.919 323.751 557.092 323.751C556.915 323.751 556.783 323.903 556.956 324.076 556.956 324.076 559.235 326.88 559.263 326.903 559.281 326.939 559.305 326.947 559.321 326.908 559.352 326.884 561.667 324.108 561.686 324.086 561.793 323.961 561.711 323.751 561.482 323.751L560.618 323.751 560.618 322.501 566.217 322.501 566.217 323.751 564.956 323.751C564.581 323.713 564.212 323.865 563.975 324.155 563.815 324.347 560.333 328.375 560.227 328.492 560.188 328.546 560.171 328.612 560.179 328.678L560.179 330.626C560.18 330.721 560.189 330.816 560.208 330.909 560.258 331.027 560.356 331.119 560.478 331.162 560.593 331.174 560.708 331.18 560.823 331.181L562.099 331.181 562.099 332.373 555.354 332.373 555.354 331.181Z" fill="#C8C9CA" fill-rule="evenodd"/><path d="M575.563 330.999C575.622 330.951 575.614 330.951 575.614 330.951 575.475 330.387 575.392 329.812 575.366 329.234 575.261 328.605 575.044 328.104 574.187 328.104L572.042 328.104 572.151 328.208 572.151 330.958 572.231 331 571 331 571.074 330.95 571.074 324.058 571 324.001 574.222 324.001C574.561 323.995 574.899 324.035 575.226 324.118 576.353 324.42 577.006 325.523 576.685 326.581 576.543 327.047 576.227 327.448 575.793 327.71 575.606 327.735 575.416 327.745 575.226 327.74 576.279 327.74 576.412 328.32 576.515 329.497 576.542 329.985 576.659 330.466 576.861 330.917L577 331ZM574.211 324.95 572.041 324.95 572.151 325.036 572.151 327.268 572.041 327.351 574.187 327.351C574.929 327.426 575.596 326.921 575.675 326.223 575.683 326.155 575.685 326.087 575.681 326.018 575.681 325.424 575.213 324.949 574.211 324.949Z" fill="#C8C9CA" fill-rule="evenodd"/><path d="M559 428.694C558.897 438.354 550.978 446.102 541.313 445.999 531.794 445.897 524.102 438.209 524 428.694L524 425.306C524.103 415.646 532.022 407.898 541.687 408.001 551.206 408.103 558.898 415.791 559 425.306Z" fill="#E5E5E6" fill-rule="evenodd"/><path d="M541.694 447C531.589 446.99 523.4 438.804 523.388 428.701L523.388 425.302C523.388 415.194 531.584 407 541.694 407 551.804 407 560 415.194 560 425.302L560 428.701C559.988 438.804 551.799 446.99 541.694 447ZM541.694 408.501C532.416 408.51 524.897 416.026 524.886 425.302L524.886 428.701C524.886 437.982 532.411 445.505 541.694 445.505 550.977 445.505 558.502 437.982 558.502 428.701L558.502 425.302C558.49 416.027 550.971 408.511 541.694 408.501ZM481.664 445.829 462.977 445.829C461.334 445.828 460.003 444.498 460 442.856L460 411.149C460.003 409.507 461.334 408.177 462.977 408.175L481.665 408.175C483.306 408.177 484.637 409.507 484.639 411.149L484.639 442.857C484.637 444.498 483.306 445.827 481.665 445.829ZM462.977 409.673C462.161 409.673 461.5 410.333 461.498 411.149L461.498 442.857C461.501 443.671 462.162 444.331 462.977 444.331L481.665 444.331C482.479 444.33 483.139 443.67 483.141 442.856L483.141 411.149C483.139 410.334 482.479 409.675 481.665 409.673Z" fill="#9E9E9F" fill-rule="evenodd"/><path d="M467.679 418 476.322 418C477.249 418 478 418.738 478 419.649L478 421.35C478 422.261 477.249 422.999 476.322 423L467.678 423C466.751 423 466.001 422.262 466 421.352L466 419.65C466 418.739 466.751 418.001 467.678 418.001 467.678 418.001 467.678 418.001 467.679 418.001Z" fill="#9E9E9F" fill-rule="evenodd"/><path d="M476.474 423.528 467.526 423.528C466.131 423.526 465.001 422.447 465 421.117L465 419.409C465.002 418.079 466.132 417.002 467.526 417L476.474 417C477.868 417.002 478.998 418.079 479 419.409L479 421.117C478.999 422.447 477.869 423.525 476.474 423.527ZM467.526 418.505C467.003 418.505 466.579 418.909 466.579 419.408L466.579 421.117C466.579 421.616 467.002 422.021 467.526 422.021L476.474 422.021C476.997 422.021 477.421 421.616 477.421 421.118L477.421 419.409C477.421 418.91 476.997 418.506 476.474 418.506ZM467.527 431.978 476.474 431.978C477.433 431.978 478.211 432.719 478.211 433.634L478.211 435.343C478.211 436.258 477.433 436.999 476.474 437L467.526 437C466.567 437 465.789 436.258 465.789 435.344L465.789 433.635C465.789 432.721 466.567 431.979 467.526 431.979 467.526 431.979 467.526 431.979 467.527 431.979Z" fill="#9E9E9F" fill-rule="evenodd"/><path d="M476.474 438 467.526 438C466.131 437.998 465.001 436.842 465 435.415L465 433.584C465.001 432.157 466.131 431.001 467.526 431L476.474 431C477.868 431.002 478.998 432.158 479 433.584L479 435.414C478.999 436.841 477.869 437.998 476.474 438ZM467.526 432.614C467.003 432.614 466.579 433.048 466.579 433.583L466.579 435.415C466.579 435.95 467.002 436.385 467.526 436.385L476.474 436.385C476.998 436.385 477.421 435.95 477.421 435.415L477.421 433.584C477.421 433.049 476.997 432.615 476.474 432.615Z" fill="#9E9E9F" fill-rule="evenodd"/><path d="M467 419 477 419 477 422 467 422Z" fill="#DDD583" fill-rule="evenodd"/><path d="M477.203 423 466.796 423C466.356 423 466 422.641 466 422.198L466 418.803C466 418.359 466.356 418 466.796 418L477.204 418C477.644 418 478 418.359 478 418.803L478 422.198C478 422.641 477.644 423 477.204 423ZM467.592 421.395 476.408 421.395 476.408 419.605 467.592 419.605Z" fill="#9E9E9F" fill-rule="evenodd"/><path d="M467 433 477 433 477 436 467 436Z" fill="#DDD583" fill-rule="evenodd"/><path d="M476.664 436.577 466.758 436.577C466.339 436.577 466 436.235 466 435.814L466 432.588C466 432.167 466.339 431.825 466.758 431.825L476.665 431.825C477.084 431.825 477.423 432.167 477.423 432.588L477.423 435.814C477.423 436.235 477.084 436.577 476.665 436.577ZM467.516 435.052 475.908 435.052 475.908 433.35 467.516 433.35ZM504.074 439C497.486 439.001 492.146 433.629 492.145 427.001 492.145 420.374 497.484 415.001 504.072 415 510.659 414.999 515.999 420.372 516 426.999 515.992 433.623 510.657 438.991 504.074 438.999ZM504.074 416.525C498.323 416.524 493.661 421.214 493.661 426.999 493.66 432.784 498.321 437.475 504.072 437.475 509.822 437.476 514.484 432.786 514.484 427.001 514.484 427 514.484 427 514.484 426.999 514.478 421.217 509.821 416.531 504.074 416.525Z" fill="#9E9E9F" fill-rule="evenodd"/><path d="M504.001 436C499.031 436.001 495.001 431.972 495 427.001 494.999 422.031 499.029 418.001 503.999 418 508.97 417.999 513 422.029 513 426.999 513 426.999 513 427 513 427 512.994 431.968 508.969 435.994 504.001 436ZM504.001 419.528C499.874 419.527 496.528 422.872 496.528 426.999 496.527 431.126 499.872 434.472 503.999 434.472 508.126 434.473 511.472 431.128 511.472 427.001 511.472 427.001 511.472 427 511.472 427 511.468 422.876 508.126 419.533 504.001 419.528Z" fill="#9E9E9F" fill-rule="evenodd"/><path d="M505.754 423.846C507.74 424.765 508.565 427.036 507.596 428.92 506.627 430.803 504.231 431.585 502.245 430.666 500.259 429.747 499.434 427.476 500.403 425.593 500.794 424.832 501.443 424.217 502.245 423.846L501.81 423C499.328 424.147 498.297 426.984 499.507 429.336 500.716 431.689 503.709 432.667 506.19 431.52 508.672 430.373 509.703 427.536 508.494 425.184 508.004 424.232 507.194 423.464 506.19 423Z" fill="#9E9E9F" fill-rule="evenodd"/><path d="M504 420.986 505.1 420.986 505.1 427.301 504 427.301ZM594.486 448C583.156 447.999 573.973 438.821 573.973 427.499 573.974 416.177 583.158 406.999 594.488 407 605.816 407.001 614.999 416.178 615 427.499 614.987 438.816 605.81 447.987 594.486 448ZM594.486 407.994C583.706 407.994 574.967 416.728 574.968 427.501 574.968 438.274 583.708 447.007 594.488 447.006 605.268 447.006 614.006 438.272 614.005 427.499 613.992 416.731 605.26 408.006 594.486 407.993Z" fill="#9E9E9F" fill-rule="evenodd"/><path d="M613 427.5C613 417.283 604.717 409 594.5 409 584.283 409 576 417.283 576 427.5 576 437.717 584.283 446 594.5 446 604.717 445.999 612.999 437.717 613 427.5Z" fill="#3E3A39" fill-rule="evenodd"/><path d="M594.501 446C583.731 446.001 575.001 437.495 575 427.001 574.999 416.508 583.729 408.001 594.499 408 605.269 407.999 614 416.506 614 426.999 614 426.999 614 427 614 427 613.988 437.488 605.265 445.987 594.501 445.999ZM594.501 409.486C584.574 409.486 576.526 417.326 576.525 426.999 576.525 436.672 584.572 444.513 594.499 444.514 604.426 444.514 612.474 436.674 612.475 427.001 612.475 427.001 612.475 427 612.475 427 612.464 417.332 604.423 409.498 594.501 409.486Z" fill="#9E9E9F" fill-rule="evenodd"/><path d="M594.501 435C590.359 435.001 587.001 431.643 587 427.501 586.999 423.359 590.357 420.001 594.499 420 598.641 419.999 602 423.357 602 427.499 602 427.5 602 427.5 602 427.501 601.995 431.64 598.64 434.995 594.501 435ZM594.501 421.526C591.201 421.526 588.526 424.2 588.525 427.5 588.524 430.8 591.199 433.476 594.499 433.476 597.799 433.477 600.474 430.802 600.475 427.502 600.475 427.502 600.475 427.501 600.475 427.501 600.471 424.203 597.799 421.531 594.501 421.526Z" fill="#9E9E9F" fill-rule="evenodd"/><path d="M594.501 430C593.12 430.001 592.001 428.882 592 427.501 591.999 426.12 593.118 425.001 594.499 425 595.88 424.999 596.999 426.118 597 427.499 597 427.5 597 427.5 597 427.501 596.997 428.88 595.88 429.997 594.501 430ZM594.501 426.543C593.972 426.542 593.543 426.97 593.543 427.499 593.542 428.028 593.97 428.457 594.499 428.457 595.028 428.458 595.457 428.03 595.457 427.501 595.457 427.501 595.457 427.5 595.457 427.5 595.456 426.972 595.029 426.545 594.501 426.543Z" fill="#9E9E9F" fill-rule="evenodd"/><path d="M462.001 370.696 461.742 370.266 461.508 369.785 461.304 369.254 461.132 368.675 461 368.049 461 317.952 461.132 317.327 461.304 316.746 461.508 316.217 461.742 315.735 462.001 315.304 462.22 315 462.22 371 462.001 370.696ZM469.997 370.696 470.257 370.266 470.491 369.785 470.696 369.254 470.867 368.675 471 368.049 471 317.952 470.867 317.327 470.696 316.746 470.491 316.217 470.257 315.735 469.997 315.304 469.777 315 469.777 371 469.997 370.696Z" fill="#231815" fill-rule="evenodd"/><path d="M466.859 373 467.216 372.983 467.572 372.927 467.928 372.835 468.281 372.706 468.627 372.538 468.97 372.33 469.304 372.079 469.629 371.784 469.941 371.442 470 371.361 470 314.638 469.941 314.556 469.629 314.215 469.304 313.922 468.97 313.67 468.627 313.46 468.281 313.293 467.928 313.165 467.572 313.073 467.216 313.019 466.859 313 465.144 313 464.785 313.019 464.43 313.073 464.073 313.165 463.721 313.293 463.375 313.46 463.032 313.67 462.697 313.922 462.373 314.215 462.063 314.556 462 314.638 462 371.361 462.063 371.442 462.373 371.784 462.697 372.079 463.032 372.33 463.375 372.538 463.721 372.706 464.073 372.835 464.43 372.927 464.785 372.983 465.144 373 466.859 373Z" fill="#C8C9CA" fill-rule="evenodd"/><path d="M466.903 373 465.061 373 464.684 372.982C464.656 372.981 464.629 372.978 464.601 372.974L464.226 372.919C464.201 372.915 464.176 372.91 464.151 372.904L463.777 372.814C463.751 372.808 463.725 372.8 463.7 372.791L463.331 372.663C463.306 372.654 463.282 372.644 463.258 372.634L462.893 372.467C462.87 372.456 462.848 372.445 462.826 372.433L462.466 372.226C462.445 372.213 462.424 372.201 462.405 372.186L462.052 371.938C462.032 371.924 462.012 371.908 461.993 371.892L461.653 371.6C461.634 371.583 461.615 371.567 461.598 371.548L461.271 371.209C461.258 371.193 461.243 371.178 461.229 371.16L461.164 371.081C461.058 370.95 461 370.789 461 370.624L461 314.374C461 314.211 461.056 314.053 461.159 313.923L461.224 313.843C461.239 313.824 461.255 313.805 461.272 313.786L461.6 313.449C461.616 313.431 461.634 313.414 461.653 313.398L461.995 313.108C462.013 313.092 462.031 313.078 462.05 313.064L462.403 312.814C462.423 312.799 462.443 312.786 462.464 312.774L462.823 312.566C462.847 312.553 462.871 312.541 462.896 312.529L463.261 312.363C463.285 312.353 463.309 312.343 463.334 312.334L463.703 312.208C463.726 312.2 463.75 312.194 463.774 312.188L464.148 312.095C464.175 312.088 464.202 312.083 464.23 312.079L464.605 312.026C464.63 312.023 464.655 312.02 464.681 312.019L465.058 312 466.944 312 467.32 312.019C467.346 312.02 467.371 312.023 467.397 312.026L467.772 312.079C467.799 312.083 467.826 312.088 467.853 312.095L468.228 312.188C468.252 312.193 468.275 312.2 468.297 312.208L468.668 312.334C468.693 312.343 468.718 312.353 468.742 312.364L469.108 312.529C469.131 312.54 469.154 312.552 469.176 312.565L469.536 312.774C469.559 312.786 469.581 312.8 469.603 312.816L469.952 313.066C469.971 313.078 469.99 313.092 470.006 313.108L470.348 313.398C470.367 313.414 470.385 313.431 470.401 313.448L470.729 313.785C470.749 313.806 470.768 313.828 470.785 313.85L470.846 313.93C470.947 314.059 471.001 314.214 471 314.374L471 370.624C471 370.786 470.945 370.943 470.842 371.073L470.779 371.153C470.763 371.173 470.747 371.192 470.73 371.211L470.401 371.551C470.385 371.568 470.367 371.584 470.348 371.6L470.007 371.892C469.99 371.907 469.97 371.922 469.951 371.937L469.6 372.186 469.535 372.228 469.174 372.434C469.153 372.445 469.132 372.456 469.11 372.466L468.745 372.634C468.721 372.645 468.696 372.655 468.671 372.664L468.3 372.791C468.276 372.8 468.251 372.808 468.225 372.814L467.85 372.904C467.825 372.91 467.8 372.915 467.775 372.919L467.4 372.974C467.372 372.978 467.345 372.981 467.317 372.982L466.942 372.999ZM465.119 371.499 466.884 371.499 467.198 371.485 467.493 371.442 467.792 371.369 468.086 371.267 468.383 371.132 468.678 370.962 468.968 370.757 469.254 370.512 469.411 370.348 469.411 314.65 469.254 314.489 468.968 314.243 468.677 314.034 468.382 313.865 468.09 313.733 467.792 313.631 467.493 313.558 467.198 313.516 466.882 313.5 465.121 313.5 464.803 313.516 464.508 313.558 464.211 313.631 463.913 313.733 463.619 313.865 463.328 314.035 463.033 314.243 462.747 314.488 462.589 314.651 462.589 370.347 462.748 370.512 463.034 370.757 463.326 370.962 463.619 371.132 463.916 371.267 464.211 371.369 464.508 371.442 464.803 371.485Z" fill="#9E9E9F" fill-rule="evenodd"/><path d="M466.85 373 465.113 373 464.757 372.982C464.731 372.981 464.705 372.978 464.679 372.974L464.325 372.919C464.301 372.915 464.278 372.91 464.254 372.904L463.901 372.814C463.877 372.808 463.852 372.8 463.828 372.791L463.481 372.663C463.457 372.654 463.434 372.644 463.412 372.634L463.068 372.467C463.046 372.456 463.025 372.445 463.004 372.433L462.665 372.226C462.645 372.213 462.625 372.201 462.607 372.186L462.274 371.938C462.255 371.924 462.236 371.908 462.218 371.892L461.897 371.6C461.879 371.583 461.861 371.567 461.845 371.548L461.537 371.209 461.495 371.159 461.203 370.775C461.19 370.757 461.177 370.738 461.165 370.72L460.895 370.286C460.882 370.267 460.871 370.247 460.861 370.226L460.615 369.743C460.605 369.724 460.596 369.705 460.589 369.686L460.373 369.151C460.365 369.132 460.358 369.112 460.353 369.091L460.173 368.511C460.166 368.491 460.161 368.471 460.156 368.451L460.018 367.823C460.006 367.769 460 367.715 460 367.661L460 317.339C460 317.284 460.006 317.229 460.018 317.175L460.156 316.549 460.172 316.491 460.352 315.907C460.359 315.887 460.365 315.867 460.374 315.846L460.589 315.314C460.597 315.295 460.605 315.276 460.615 315.257L460.861 314.773C460.871 314.752 460.882 314.732 460.895 314.713L461.165 314.28 461.203 314.225 461.494 313.839 461.538 313.786 461.847 313.449C461.863 313.431 461.88 313.414 461.897 313.398L462.22 313.108C462.237 313.092 462.254 313.078 462.272 313.064L462.605 312.814C462.623 312.799 462.643 312.786 462.663 312.774L463.002 312.566C463.024 312.553 463.047 312.541 463.07 312.529L463.415 312.363C463.437 312.353 463.46 312.343 463.484 312.334L463.831 312.208C463.853 312.2 463.876 312.194 463.898 312.188L464.251 312.095C464.277 312.088 464.302 312.083 464.328 312.079L464.682 312.026C464.706 312.023 464.73 312.02 464.754 312.019L465.11 312 466.889 312 467.244 312.019C467.268 312.02 467.292 312.023 467.316 312.026L467.67 312.079C467.696 312.083 467.722 312.088 467.747 312.095L468.101 312.188C468.123 312.193 468.144 312.2 468.166 312.208L468.516 312.334C468.539 312.343 468.563 312.353 468.585 312.364L468.93 312.529C468.952 312.54 468.974 312.552 468.994 312.565L469.334 312.774C469.356 312.786 469.377 312.8 469.397 312.816L469.727 313.066C469.745 313.078 469.762 313.092 469.778 313.108L470.101 313.398C470.118 313.414 470.135 313.431 470.151 313.448L470.46 313.785C470.476 313.803 470.491 313.822 470.506 313.841L470.796 314.228C470.808 314.244 470.821 314.262 470.832 314.28L471.104 314.713 471.137 314.771 471.384 315.255C471.394 315.275 471.402 315.295 471.41 315.314L471.626 315.846C471.634 315.866 471.642 315.887 471.648 315.907L471.828 316.491 471.843 316.549 471.981 317.175C471.994 317.229 472 317.284 472 317.339L472 367.661C472 367.716 471.994 367.77 471.981 367.823L471.843 368.451 471.827 368.511 471.647 369.091C471.641 369.112 471.634 369.132 471.626 369.151L471.41 369.686C471.402 369.706 471.393 369.726 471.383 369.746L471.136 370.229C471.126 370.249 471.116 370.268 471.104 370.286L470.832 370.72C470.821 370.738 470.809 370.755 470.796 370.772L470.505 371.157C470.491 371.176 470.476 371.193 470.461 371.211L470.151 371.551C470.135 371.568 470.118 371.584 470.101 371.6L469.779 371.892C469.763 371.907 469.744 371.922 469.726 371.937L469.395 372.186 469.333 372.228 468.993 372.434C468.974 372.445 468.953 372.456 468.932 372.466L468.589 372.634C468.566 372.645 468.542 372.655 468.518 372.664L468.169 372.791C468.145 372.8 468.122 372.808 468.098 372.814L467.744 372.904C467.72 372.91 467.697 372.915 467.673 372.919L467.319 372.974C467.293 372.978 467.267 372.981 467.241 372.982L466.887 372.999ZM465.167 371.499 466.832 371.499 467.129 371.485 467.407 371.442 467.689 371.369 467.967 371.267 468.247 371.132 468.524 370.962 468.798 370.757 469.068 370.512 469.329 370.224 469.58 369.894 469.816 369.516 470.033 369.091 470.225 368.618 470.385 368.097 470.501 367.578 470.501 317.422 470.386 316.905 470.225 316.381 470.033 315.911 469.816 315.484 469.579 315.106 469.329 314.774 469.069 314.49 468.798 314.243 468.524 314.035 468.246 313.866 467.97 313.734 467.689 313.632 467.407 313.559 467.129 313.517 466.83 313.501 465.169 313.501 464.869 313.517 464.591 313.559 464.311 313.632 464.029 313.734 463.752 313.866 463.478 314.036 463.2 314.245 462.93 314.489 462.67 314.774 462.418 315.107 462.182 315.483 461.967 315.909 461.775 316.381 461.613 316.905 461.499 317.422 461.499 367.579 461.613 368.098 461.775 368.619 461.967 369.093 462.182 369.518 462.418 369.894 462.67 370.224 462.932 370.513 463.2 370.757 463.476 370.963 463.752 371.133 464.032 371.268 464.311 371.37 464.591 371.443 464.869 371.486Z" fill="#9E9E9F" fill-rule="evenodd"/><path d="M620.999 370.696 621.257 370.266 621.492 369.785 621.697 369.254 621.868 368.675 622 368.049 622 317.952 621.868 317.327 621.697 316.746 621.492 316.217 621.257 315.735 620.999 315.304 620.78 315 620.78 371 620.999 370.696ZM613.001 370.696 612.743 370.266 612.509 369.785 612.304 369.254 612.133 368.675 612 368.049 612 317.952 612.133 317.327 612.304 316.746 612.509 316.217 612.743 315.735 613.001 315.304 613.223 315 613.223 371 613.001 370.696Z" fill="#231815" fill-rule="evenodd"/><path d="M616.141 373 615.784 372.983 615.426 372.927 615.072 372.835 614.719 372.706 614.372 372.538 614.03 372.33 613.694 372.079 613.371 371.784 613.059 371.442 613 371.361 613 314.638 613.059 314.556 613.371 314.215 613.694 313.922 614.03 313.67 614.372 313.46 614.719 313.293 615.072 313.165 615.426 313.073 615.784 313.019 616.141 313 617.857 313 618.213 313.019 618.571 313.073 618.925 313.165 619.279 313.293 619.625 313.46 619.968 313.67 620.303 313.922 620.626 314.215 620.938 314.556 621 314.638 621 371.361 620.938 371.442 620.626 371.784 620.303 372.079 619.968 372.33 619.625 372.538 619.279 372.706 618.925 372.835 618.571 372.927 618.213 372.983 617.857 373 616.141 373Z" fill="#C8C9CA" fill-rule="evenodd"/><path d="M617.901 373 616.059 373 615.683 372.982C615.656 372.981 615.628 372.978 615.601 372.974L615.225 372.919C615.199 372.915 615.173 372.91 615.148 372.904L614.775 372.814C614.75 372.808 614.725 372.8 614.7 372.791L614.329 372.663C614.304 372.654 614.279 372.644 614.255 372.634L613.889 372.467C613.867 372.456 613.845 372.445 613.824 372.433L613.463 372.226C613.442 372.214 613.422 372.201 613.402 372.186L613.049 371.938C613.028 371.924 613.009 371.908 612.99 371.891L612.651 371.598C612.632 371.583 612.614 371.567 612.598 371.55L612.269 371.211C612.252 371.192 612.235 371.173 612.219 371.153L612.158 371.073C612.056 370.943 612 370.786 612 370.624L612 314.374C612 314.214 612.054 314.059 612.154 313.931L612.215 313.85C612.233 313.828 612.251 313.806 612.271 313.785L612.6 313.447 612.651 313.399 612.99 313.109 613.047 313.064 613.4 312.814C613.42 312.799 613.441 312.786 613.462 312.774L613.822 312.566C613.845 312.553 613.868 312.54 613.893 312.529L614.259 312.363C614.284 312.353 614.308 312.343 614.333 312.334L614.703 312.207C614.725 312.199 614.749 312.194 614.771 312.187L615.144 312.095C615.172 312.088 615.2 312.083 615.228 312.079L615.605 312.026C615.63 312.023 615.654 312.02 615.679 312.019L616.055 312 617.944 312 618.319 312.019C618.344 312.02 618.369 312.023 618.394 312.026L618.77 312.079C618.798 312.083 618.826 312.088 618.854 312.095L619.227 312.188C619.25 312.194 619.273 312.2 619.296 312.208L619.667 312.334C619.691 312.343 619.716 312.353 619.74 312.364L620.105 312.529C620.13 312.541 620.154 312.553 620.177 312.566L620.537 312.774C620.558 312.786 620.578 312.799 620.598 312.814L620.951 313.064C620.97 313.078 620.989 313.093 621.007 313.109L621.346 313.399C621.365 313.414 621.383 313.43 621.399 313.447L621.727 313.785C621.744 313.803 621.761 313.823 621.778 313.842L621.841 313.923C621.944 314.053 622 314.211 622 314.374L622 370.624C622 370.789 621.943 370.95 621.837 371.081L621.772 371.161C621.759 371.178 621.744 371.195 621.728 371.211L621.4 371.551C621.384 371.567 621.366 371.583 621.348 371.598L621.009 371.891C620.99 371.908 620.97 371.923 620.949 371.938L620.596 372.186C620.577 372.201 620.555 372.213 620.534 372.226L620.174 372.433 620.109 372.467 619.743 372.634 619.669 372.664 619.298 372.791C619.274 372.8 619.249 372.808 619.224 372.814L618.851 372.904C618.825 372.91 618.799 372.915 618.773 372.919L618.397 372.974C618.37 372.978 618.342 372.981 618.314 372.982L617.939 372.999ZM616.117 371.499 617.882 371.499 618.197 371.485 618.494 371.442 618.788 371.369 619.085 371.267 619.382 371.132 619.675 370.962 619.968 370.757 620.251 370.512 620.412 370.347 620.412 314.65 620.253 314.487 619.967 314.241 619.673 314.033 619.382 313.864 619.088 313.732 618.788 313.63 618.493 313.557 618.196 313.515 617.88 313.499 616.119 313.499 615.801 313.515 615.506 313.557 615.21 313.63 614.91 313.732 614.617 313.864 614.325 314.034 614.031 314.241 613.745 314.487 613.59 314.649 613.59 370.347 613.748 370.511 614.031 370.755 614.323 370.961 614.617 371.131 614.914 371.266 615.211 371.368 615.506 371.441 615.802 371.484Z" fill="#9E9E9F" fill-rule="evenodd"/><path d="M617.852 373 616.113 373 615.76 372.982C615.734 372.981 615.707 372.978 615.682 372.974L615.327 372.919C615.303 372.915 615.279 372.91 615.255 372.904L614.903 372.814C614.879 372.808 614.855 372.8 614.832 372.791L614.482 372.663C614.459 372.654 614.435 372.644 614.412 372.634L614.067 372.467C614.046 372.456 614.026 372.445 614.006 372.433L613.666 372.226C613.646 372.214 613.626 372.201 613.608 372.186L613.275 371.938C613.255 371.924 613.237 371.908 613.219 371.891L612.899 371.598C612.881 371.583 612.865 371.567 612.849 371.55L612.539 371.211 612.497 371.159 612.205 370.775 612.165 370.718 611.896 370.284C611.885 370.266 611.875 370.248 611.866 370.229L611.618 369.745C611.608 369.725 611.599 369.705 611.591 369.685L611.375 369.151C611.367 369.132 611.36 369.112 611.354 369.091L611.174 368.511 611.158 368.451 611.02 367.823C611.007 367.769 611 367.715 611 367.661L611 317.339C611 317.284 611.007 317.229 611.02 317.175L611.158 316.549 611.174 316.491 611.354 315.907C611.36 315.886 611.366 315.866 611.374 315.846L611.591 315.314C611.598 315.294 611.607 315.274 611.617 315.255L611.864 314.771C611.873 314.751 611.884 314.732 611.896 314.714L612.165 314.281C612.178 314.262 612.191 314.243 612.205 314.225L612.496 313.839C612.511 313.821 612.526 313.803 612.541 313.785L612.851 313.447 612.899 313.399 613.219 313.109 613.273 313.064 613.606 312.814C613.625 312.799 613.644 312.786 613.665 312.774L614.004 312.566C614.025 312.553 614.047 312.54 614.07 312.529L614.416 312.363C614.439 312.353 614.463 312.343 614.486 312.334L614.835 312.207C614.856 312.199 614.878 312.194 614.899 312.187L615.251 312.095C615.277 312.088 615.303 312.083 615.33 312.079L615.685 312.026C615.708 312.023 615.733 312.02 615.757 312.019L616.11 312 617.891 312 618.245 312.019C618.269 312.02 618.293 312.023 618.316 312.026L618.671 312.079C618.698 312.083 618.724 312.088 618.75 312.095L619.101 312.188C619.123 312.194 619.145 312.2 619.167 312.208L619.517 312.334C619.54 312.343 619.563 312.353 619.586 312.364L619.931 312.529C619.954 312.541 619.976 312.553 619.998 312.566L620.337 312.774C620.357 312.786 620.377 312.799 620.395 312.814L620.728 313.064C620.747 313.078 620.764 313.093 620.781 313.109L621.101 313.399C621.119 313.414 621.135 313.43 621.151 313.447L621.46 313.785C621.476 313.803 621.491 313.821 621.506 313.839L621.798 314.225C621.811 314.243 621.824 314.262 621.836 314.281L622.105 314.714 622.137 314.771 622.384 315.255 622.411 315.314 622.626 315.846C622.635 315.866 622.641 315.887 622.648 315.907L622.828 316.491 622.844 316.549 622.982 317.175C622.994 317.229 623 317.284 623 317.339L623 367.661C623 367.716 622.994 367.77 622.982 367.823L622.844 368.451C622.839 368.471 622.834 368.491 622.827 368.511L622.647 369.091C622.642 369.112 622.635 369.132 622.627 369.151L622.411 369.686C622.403 369.706 622.394 369.726 622.384 369.746L622.137 370.229C622.127 370.247 622.117 370.266 622.105 370.284L621.836 370.718 621.796 370.775 621.505 371.159 621.461 371.211 621.152 371.551C621.136 371.567 621.12 371.583 621.103 371.598L620.783 371.891C620.765 371.908 620.746 371.923 620.726 371.938L620.393 372.186C620.375 372.201 620.354 372.213 620.335 372.226L619.995 372.433 619.934 372.467 619.589 372.634 619.519 372.664 619.169 372.791C619.146 372.8 619.123 372.808 619.099 372.814L618.747 372.904C618.723 372.91 618.699 372.915 618.674 372.919L618.319 372.974C618.294 372.978 618.268 372.981 618.241 372.982L617.888 372.999ZM616.168 371.499 617.834 371.499 618.13 371.485 618.41 371.442 618.688 371.369 618.968 371.267 619.248 371.132 619.525 370.962 619.801 370.757 620.068 370.512 620.331 370.224 620.581 369.894 620.816 369.517 621.034 369.091 621.226 368.618 621.386 368.097 621.501 367.578 621.501 317.422 621.387 316.905 621.226 316.381 621.034 315.911 620.816 315.483 620.581 315.106 620.331 314.775 620.068 314.489 619.801 314.243 619.523 314.035 619.248 313.866 618.971 313.734 618.688 313.632 618.409 313.559 618.129 313.517 617.832 313.501 616.17 313.501 615.871 313.517 615.593 313.559 615.313 313.632 615.03 313.734 614.754 313.866 614.478 314.036 614.201 314.243 613.932 314.489 613.671 314.775 613.42 315.105 613.186 315.483 612.968 315.91 612.776 316.381 612.616 316.905 612.5 317.422 612.5 367.579 612.615 368.098 612.776 368.619 612.968 369.092 613.185 369.518 613.42 369.895 613.67 370.225 613.935 370.513 614.201 370.757 614.476 370.963 614.754 371.133 615.034 371.268 615.314 371.37 615.593 371.443 615.872 371.486Z" fill="#9E9E9F" fill-rule="evenodd"/><path d="M626.304 455 456.696 455C453 454.996 450.004 452.017 450 448.34L450 279.657C450.004 275.981 453 273.003 456.696 273L626.304 273C630 273.003 632.995 275.981 633 279.657L633 448.34C632.996 452.017 630 454.996 626.304 455ZM456.696 274.997C454.109 274.999 452.011 277.083 452.008 279.657L452.008 448.34C452.011 450.914 454.108 453 456.696 453.003L626.304 453.003C628.892 453 630.989 450.914 630.992 448.34L630.992 279.657C630.989 277.083 628.891 274.999 626.304 274.997Z" fill="#231815" fill-rule="evenodd"/><path d="M473 435C473 437.761 470.538 440 467.5 440 464.462 440 462 437.761 462 435 462 432.239 464.462 430 467.5 430 470.538 430 473 432.239 473 435Z" fill="#BFD833" fill-rule="evenodd"/><path d="M391 434 468 434 468 436 391 436Z" fill="#BFD833" fill-rule="evenodd"/><path d="M11.0001 5.00005C11.0001 7.76154 8.53769 10.0001 5.50006 10.0001 2.46242 10.0001 0 7.76154 0 5.00005 0 2.23856 2.46242 0 5.50006 0 8.53769 0 11.0001 2.23856 11.0001 5.00005Z" fill="#BFD833" fill-rule="evenodd" transform="matrix(1 0 0 -1 462 425)"/><path d="M391 392 468 392 468 394 391 394Z" fill="#BFD833" fill-rule="evenodd"/><path d="M468 392 468 418 466 418 466 392Z" fill="#BFD833" fill-rule="evenodd"/><path d="M373.527 431.276 373.527 439.724 374.939 439.724C376.439 439.707 377.542 439.32 378.248 438.562 378.953 437.804 379.303 436.778 379.296 435.484 379.303 434.205 378.953 433.189 378.248 432.434 377.542 431.68 376.439 431.294 374.939 431.276ZM370.823 429.213 375.318 429.213C377.502 429.23 379.161 429.785 380.293 430.877 381.425 431.969 381.994 433.493 382 435.451 381.993 437.413 381.422 438.954 380.286 440.074 379.151 441.195 377.495 441.766 375.318 441.787L370.823 441.787ZM357.652 429.213 361.82 429.213 365.85 439.249 365.885 439.249 365.885 429.213 368.417 429.213 368.417 441.787 364.386 441.787 360.201 431.603 360.167 431.603 360.167 441.787 357.652 441.787ZM351.165 429C351.826 429 352.483 429.061 353.137 429.182 353.79 429.303 354.395 429.483 354.953 429.72L354.213 431.8C353.829 431.583 353.365 431.407 352.82 431.272 352.275 431.137 351.729 431.067 351.182 431.063 349.82 431.073 348.738 431.47 347.935 432.254 347.133 433.038 346.723 434.147 346.704 435.582 346.706 436.393 346.874 437.126 347.208 437.781 347.543 438.435 348.031 438.956 348.674 439.343 349.316 439.73 350.1 439.928 351.027 439.937 351.346 439.938 351.641 439.92 351.912 439.882 352.182 439.844 352.421 439.78 352.628 439.691L352.628 436.548 350.39 436.548 350.39 434.501 355.315 434.501 355.315 441.116C354.621 441.439 353.891 441.668 353.126 441.803 352.36 441.939 351.592 442.004 350.82 442 349.429 441.99 348.225 441.713 347.207 441.167 346.189 440.622 345.402 439.865 344.846 438.898 344.289 437.93 344.007 436.808 344 435.533 344.002 434.261 344.277 433.137 344.824 432.158 345.371 431.18 346.177 430.411 347.24 429.853 348.304 429.295 349.612 429.011 351.165 429Z" fill="#666666" fill-rule="evenodd"/><path d="M370.578 387 373.529 387 376.789 397.27 376.823 397.27 380.083 387 383 387 378.47 399.784 375.107 399.784ZM362.081 387 369.459 387 369.459 389.097 364.466 389.097 364.26 391.794C364.505 391.77 364.714 391.755 364.888 391.75 365.062 391.745 365.225 391.743 365.375 391.744 366.232 391.745 367.013 391.898 367.718 392.201 368.423 392.505 368.987 392.951 369.409 393.539 369.832 394.128 370.048 394.85 370.059 395.706 370.048 396.665 369.817 397.463 369.366 398.099 368.916 398.735 368.314 399.211 367.56 399.527 366.807 399.843 365.97 400 365.049 400 364.357 400.001 363.665 399.937 362.973 399.809 362.281 399.68 361.623 399.483 361 399.218L361.652 397.22C362.111 397.423 362.608 397.587 363.143 397.711 363.677 397.835 364.221 397.899 364.775 397.903 365.476 397.913 366.08 397.763 366.587 397.451 367.093 397.139 367.359 396.602 367.383 395.839 367.372 395.294 367.209 394.87 366.893 394.567 366.578 394.263 366.176 394.052 365.687 393.931 365.198 393.811 364.688 393.753 364.157 393.758 363.756 393.759 363.353 393.777 362.947 393.812 362.542 393.847 362.122 393.89 361.686 393.941Z" fill="#666666" fill-rule="evenodd"/></g></svg>