<svg xmlns="http://www.w3.org/2000/svg" viewBox="0 0 133.787 133.785"><defs><clipPath clipPathUnits="userSpaceOnUse" id="a"><path d="M0 0h100.34v100.339H0z"/></clipPath><clipPath clipPathUnits="userSpaceOnUse" id="b"><path d="M39.071 97.637c-20.005 0-36.369-16.368-36.369-36.369V39.072c0-20.006 16.364-36.371 36.369-36.371h22.197c18.466 0 33.83 13.942 36.085 31.82v31.295c-2.255 17.878-17.619 31.821-36.085 31.821z"/></clipPath><clipPath clipPathUnits="userSpaceOnUse" id="c"><path d="M2.52 102.995h68.103V65.863H2.52z"/></clipPath><clipPath clipPathUnits="userSpaceOnUse" id="d"><path d="M2.52 65.863h68.103v37.131H2.52z"/></clipPath><clipPath clipPathUnits="userSpaceOnUse" id="e"><path d="M-2.314 69.2h68.103V32.07H-2.314z"/></clipPath><clipPath clipPathUnits="userSpaceOnUse" id="f"><path d="M-2.314 32.07h68.103V69.2H-2.314z"/></clipPath><clipPath clipPathUnits="userSpaceOnUse" id="g"><path d="M62.396 69.099H130.5V31.968H62.396z"/></clipPath><clipPath clipPathUnits="userSpaceOnUse" id="h"><path d="M62.396 31.968H130.5v37.13H62.396z"/></clipPath><clipPath clipPathUnits="userSpaceOnUse" id="i"><path d="M57.562 35.305h68.104V-1.826H57.562z"/></clipPath><clipPath clipPathUnits="userSpaceOnUse" id="j"><path d="M57.562-1.826h68.104v37.131H57.562z"/></clipPath><clipPath clipPathUnits="userSpaceOnUse" id="k"><path d="M39.071 97.637c-20.005 0-36.369-16.368-36.369-36.369V39.072c0-20.006 16.364-36.371 36.369-36.371h22.197c20.006 0 36.37 16.365 36.37 36.371v22.196c0 20.001-16.364 36.369-36.37 36.369z"/></clipPath><clipPath clipPathUnits="userSpaceOnUse" id="l"><path d="M0 0h100.34v100.339H0z"/></clipPath><clipPath clipPathUnits="userSpaceOnUse" id="m"><path d="M69.043 35.724h4.208v-3.997h-4.208z"/></clipPath><clipPath clipPathUnits="userSpaceOnUse" id="n"><path d="M69.042 31.727h4.209v3.997h-4.209z"/></clipPath></defs><g clip-path="url(#a)" transform="matrix(1.33333 0 0 -1.33333 0 133.785)"><path d="M97.64 39.07c0-20.004-16.367-36.369-36.372-36.369H39.071c-20.004 0-36.37 16.365-36.37 36.37v22.196c0 20.003 16.366 36.371 36.37 36.371h22.197c20.005 0 36.371-16.368 36.371-36.37z" fill="#fff"/></g><g clip-path="url(#b)" transform="matrix(1.33333 0 0 -1.33333 0 133.785)"><path d="M4.27 84.506l-34.88-16.898-29.939 16.947 34.881 16.899z" fill="#9b3da4"/><path d="M4.27 84.506l-34.88-16.898-29.939 16.947 34.881 16.899z" fill="none" stroke="#fff" stroke-width="3.284" stroke-linecap="round" stroke-linejoin="round" stroke-miterlimit="10"/><path d="M39.042 101.352L4.162 84.454l-29.938 16.947 34.88 16.9z" fill="#fff"/><path d="M39.042 101.352L4.162 84.454l-29.938 16.947 34.88 16.9z" fill="none" stroke="#fff" stroke-width="3.284" stroke-linecap="round" stroke-linejoin="round" stroke-miterlimit="10"/><path d="M73.814 118.198L38.935 101.3 8.996 118.247l34.881 16.9zM-.564 50.711l-34.88-16.897-29.937 16.947 34.88 16.898z" fill="none" stroke="#fff" stroke-width="3.284" stroke-linecap="round" stroke-linejoin="round" stroke-miterlimit="10"/><path d="M34.209 67.558L-.671 50.66-30.61 67.608 4.271 84.506z" fill="#fff"/><path d="M34.209 67.558L-.671 50.66-30.61 67.608 4.271 84.506z" fill="none" stroke="#fff" stroke-width="3.284" stroke-linecap="round" stroke-linejoin="round" stroke-miterlimit="10"/><g clip-path="url(#c)"><g clip-path="url(#d)" opacity=".25"><path d="M68.98 84.404L34.101 67.506 4.162 84.454l34.881 16.898z" fill="#9b3da4"/><path d="M68.98 84.404L34.101 67.506 4.162 84.454l34.881 16.898z" fill="none" stroke="#fff" stroke-width="3.284" stroke-linecap="round" stroke-linejoin="round" stroke-miterlimit="10"/></g></g><path d="M103.752 101.25l-34.88-16.898-29.938 16.947 34.881 16.899z" fill="#fff"/><path d="M103.752 101.25l-34.88-16.898-29.938 16.947 34.881 16.899z" fill="none" stroke="#fff" stroke-width="3.284" stroke-linecap="round" stroke-linejoin="round" stroke-miterlimit="10"/><path d="M138.525 118.096l-34.881-16.898-29.937 16.947 34.88 16.9z" fill="none" stroke="#fff" stroke-width="3.284" stroke-linecap="round" stroke-linejoin="round" stroke-miterlimit="10"/><path d="M29.375 33.765l-34.88-16.897-29.939 16.946L-.563 50.712z" fill="#fff"/><path d="M29.375 33.765l-34.88-16.897-29.939 16.946L-.563 50.712z" fill="none" stroke="#fff" stroke-width="3.284" stroke-linecap="round" stroke-linejoin="round" stroke-miterlimit="10"/><g clip-path="url(#e)"><g clip-path="url(#f)" opacity=".5"><path d="M64.146 50.61L29.267 33.713-.671 50.66l34.88 16.898z" fill="#9b3da4"/><path d="M64.146 50.61L29.267 33.713-.671 50.66l34.88 16.898z" fill="none" stroke="#fff" stroke-width="3.284" stroke-linecap="round" stroke-linejoin="round" stroke-miterlimit="10"/></g></g><path d="M98.918 67.456l-34.88-16.899-29.937 16.948 34.88 16.9z" fill="#fff"/><path d="M98.918 67.456l-34.88-16.899-29.937 16.948 34.88 16.9z" fill="none" stroke="#fff" stroke-width="3.284" stroke-linecap="round" stroke-linejoin="round" stroke-miterlimit="10"/><path d="M133.69 84.302L98.81 67.404 68.873 84.351l34.88 16.9z" fill="#9b3da4"/><path d="M133.69 84.302L98.81 67.404 68.873 84.351l34.88 16.9z" fill="none" stroke="#fff" stroke-width="3.284" stroke-linecap="round" stroke-linejoin="round" stroke-miterlimit="10"/><path d="M24.541-.03l-34.88-16.897L-40.277.02l34.88 16.898z" fill="#fff"/><path d="M24.541-.03l-34.88-16.897L-40.277.02l34.88 16.898z" fill="none" stroke="#fff" stroke-width="3.284" stroke-linecap="round" stroke-linejoin="round" stroke-miterlimit="10"/><path d="M59.313 16.816L24.433-.08-5.506 16.866l34.882 16.898z" fill="#9b3da4"/><path d="M59.313 16.816L24.433-.08-5.506 16.866l34.882 16.898z" fill="none" stroke="#fff" stroke-width="3.284" stroke-linecap="round" stroke-linejoin="round" stroke-miterlimit="10"/><path d="M94.085 33.662l-34.88-16.897-29.938 16.947 34.88 16.898z" fill="#fff"/><path d="M94.085 33.662l-34.88-16.897-29.938 16.947 34.88 16.898z" fill="none" stroke="#fff" stroke-width="3.284" stroke-linecap="round" stroke-linejoin="round" stroke-miterlimit="10"/><g clip-path="url(#g)"><g clip-path="url(#h)" opacity=".25"><path d="M128.857 50.508l-34.88-16.897-29.938 16.946 34.88 16.9z" fill="#9b3da4"/><path d="M128.857 50.508l-34.88-16.897-29.938 16.946 34.88 16.9z" fill="none" stroke="#fff" stroke-width="3.284" stroke-linecap="round" stroke-linejoin="round" stroke-miterlimit="10"/></g></g><path d="M163.628 67.354l-34.88-16.898-29.937 16.948 34.88 16.898z" fill="#fff"/><path d="M163.628 67.354l-34.88-16.898-29.937 16.948 34.88 16.898zM54.479-16.977l-34.88-16.897-29.939 16.946L24.542-.03z" fill="none" stroke="#fff" stroke-width="3.284" stroke-linecap="round" stroke-linejoin="round" stroke-miterlimit="10"/><path d="M89.25-.132L54.37-17.029 24.434-.082l34.88 16.898z" fill="#fff"/><path d="M89.25-.132L54.37-17.029 24.434-.082l34.88 16.898z" fill="none" stroke="#fff" stroke-width="3.284" stroke-linecap="round" stroke-linejoin="round" stroke-miterlimit="10"/><g clip-path="url(#i)"><g clip-path="url(#j)" opacity=".5"><path d="M124.023 16.715L89.143-.182 59.205 16.764l34.88 16.898z" fill="#9b3da4"/><path d="M124.023 16.715L89.143-.182 59.205 16.764l34.88 16.898z" fill="none" stroke="#fff" stroke-width="3.284" stroke-linecap="round" stroke-linejoin="round" stroke-miterlimit="10"/></g></g><path d="M158.795 33.56l-34.88-16.897L93.976 33.61l34.881 16.899z" fill="#fff"/><g><path d="M158.795 33.56l-34.88-16.897L93.976 33.61l34.881 16.899z" fill="none" stroke="#fff" stroke-width="3.284" stroke-linecap="round" stroke-linejoin="round" stroke-miterlimit="10"/></g><g><path d="M119.189-17.08l-34.88-16.896L54.371-17.03 89.252-.132z" fill="none" stroke="#fff" stroke-width="3.284" stroke-linecap="round" stroke-linejoin="round" stroke-miterlimit="10"/></g><g><path d="M153.961-.233l-34.88-16.897L89.142-.183l34.881 16.898z" fill="#fff"/></g><g><path d="M153.961-.233l-34.88-16.897L89.142-.183l34.881 16.898z" fill="none" stroke="#fff" stroke-width="3.284" stroke-linecap="round" stroke-linejoin="round" stroke-miterlimit="10"/></g></g><g clip-path="url(#k)" transform="matrix(1.33333 0 0 -1.33333 0 133.785)"><path d="M29.924 74.143v10.244" fill="#fff" stroke="#9b3da4" stroke-width="2.083" stroke-linecap="round" stroke-linejoin="round" stroke-miterlimit="10"/><path d="M29.924 74.143h-4.592v-7.844H34.517v7.844z" fill="#fff"/><path d="M29.924 74.143h-4.592v-7.844H34.517v7.844z" fill="none" stroke="#9b3da4" stroke-width="2.083" stroke-linecap="round" stroke-linejoin="round" stroke-miterlimit="10"/><path d="M41.483 59.696c0-6.384-5.175-11.56-11.56-11.56-6.383 0-11.559 5.176-11.559 11.56s5.176 11.56 11.56 11.56 11.56-5.176 11.56-11.56" fill="#fff"/><path d="M41.483 59.696c0-6.384-5.175-11.56-11.56-11.56-6.383 0-11.559 5.176-11.559 11.56s5.176 11.56 11.56 11.56 11.56-5.176 11.56-11.56z" fill="none" stroke="#9b3da4" stroke-width="2.083" stroke-linecap="round" stroke-linejoin="round" stroke-miterlimit="10"/><path d="M21.916 61.343a8.157 8.157 0 002.533 4.422" fill="#fff" stroke="#9b3da4" stroke-width="2.083" stroke-linecap="round" stroke-linejoin="round" stroke-miterlimit="10"/><path d="M25.616 79.467l1.225 3.03-3.01 1.28 3.01 1.276-1.225 3.03 3.03-1.224 1.279 3.01 1.277-3.01 3.03 1.224-1.224-3.03 3.009-1.278-3.01-1.278 1.226-3.03-3.031 1.224-1.278-3.009-1.278 3.01zM28.176 67.572a1.046 1.046 0 10-2.09-.001 1.046 1.046 0 002.09 0" fill="#9b3da4"/><path d="M69.676 43.405l9.267 3.036a4.438 4.438 0 001.701.211l12.328-.312 2.23 7.75-15.385 1.92-13.912-7.3z" fill="#fff"/><path d="M69.676 43.405l9.267 3.036a4.438 4.438 0 001.701.211l12.328-.312 2.23 7.75-15.385 1.92-13.912-7.3z" fill="none" stroke="#9b3da4" stroke-width="2.083" stroke-linecap="round" stroke-linejoin="round" stroke-miterlimit="10"/><path d="M70.019 46.441l9.014 3.923c.538.233 1.105.36 1.678.375l12.35.315 1.619 8.505-15.473.423-13.331-8.62z" fill="#fff"/><path d="M70.019 46.441l9.014 3.923c.538.233 1.105.36 1.678.375l12.35.315 1.619 8.505-15.473.423-13.331-8.62z" fill="none" stroke="#9b3da4" stroke-width="2.083" stroke-linecap="round" stroke-linejoin="round" stroke-miterlimit="10"/><path d="M68.012 49.286l10.304 5.096c.442.217.921.326 1.402.316l13.536-.292-1.09 8.604-18.387 1.058-9.136-6.56z" fill="#fff"/><path d="M68.012 49.286l10.304 5.096c.442.217.921.326 1.402.316l13.536-.292-1.09 8.604-18.387 1.058-9.136-6.56z" fill="none" stroke="#9b3da4" stroke-width="2.083" stroke-linecap="round" stroke-linejoin="round" stroke-miterlimit="10"/><path d="M64.015 49.549c1.295 1.13 9.502 7.263 11.115 8.45.275.204.565.368.872.496 1.395.582 14.875.688 14.875.688l1.114-15.201-9.313-3.188s-8.307-.47-10.703-1.428c-2.397-.96-4.706-2.837-4.924-4.474-.22-1.638.58-3.161 2.37-3.542 1.788-.381 8.264.184 10.595-.05 3.553-.355 14.783-.635 18.98.589 1.744.51.387-3.215 2.186-3.38 2.112-.192 4.226.37 6.228 1.172 10.156 4.066 17.937 14.416 21.285 26.205.77 2.704-31.342 17.12-31.342 17.12l-23.76-4.957a5.975 5.975 0 01-2.825-1.924L57.652 49.98z" fill="#fff"/><path d="M64.015 49.549c1.295 1.13 9.502 7.263 11.115 8.45.275.204.565.368.872.496 1.395.582 14.875.688 14.875.688l1.114-15.201-9.313-3.188s-8.307-.47-10.703-1.428c-2.397-.96-4.706-2.837-4.924-4.474-.22-1.638.58-3.161 2.37-3.542 1.788-.381 8.264.184 10.595-.05 3.553-.355 14.783-.635 18.98.589 1.744.51.387-3.215 2.186-3.38 2.112-.192 4.226.37 6.228 1.172 10.156 4.066 17.937 14.416 21.285 26.205.77 2.704-31.342 17.12-31.342 17.12l-23.76-4.957a5.975 5.975 0 01-2.825-1.924L57.652 49.98z" fill="none" stroke="#9b3da4" stroke-width="2.083" stroke-linecap="round" stroke-linejoin="round" stroke-miterlimit="10"/><path d="M56.167 27.33c2.145.19 3.418 2.511 2.842 5.184-.573 2.67-2.779 4.68-4.924 4.49-2.146-.192-3.419-2.513-2.842-5.183.573-2.673 2.778-4.682 4.924-4.492" fill="#fff"/><path d="M56.167 27.33c2.145.19 3.418 2.511 2.842 5.184-.573 2.67-2.779 4.68-4.924 4.49-2.146-.192-3.419-2.513-2.842-5.183.573-2.673 2.778-4.682 4.924-4.492z" fill="none" stroke="#9b3da4" stroke-width="2.083" stroke-linecap="round" stroke-linejoin="round" stroke-miterlimit="10"/><path d="M79.011 32.45l-15.308 9.668-.992 12.804 16.3-8.406z" fill="#fff"/><path d="M79.011 32.45l-15.308 9.668-.992 12.804 16.3-8.406z" fill="none" stroke="#9b3da4" stroke-width="2.083" stroke-linecap="round" stroke-linejoin="round" stroke-miterlimit="10"/><path d="M62.217 24.216l-16.067 9.35v14.449l16.067-9.101z" fill="#fff"/><path d="M62.217 24.216l-16.067 9.35v14.449l16.067-9.101z" fill="none" stroke="#9b3da4" stroke-width="2.083" stroke-linecap="round" stroke-linejoin="round" stroke-miterlimit="10"/><path d="M79.011 32.45l-16.794-8.238v14.866l16.794 7.438z" fill="#fff"/><path d="M79.011 32.45l-16.794-8.238v14.866l16.794 7.438z" fill="none" stroke="#9b3da4" stroke-width="2.083" stroke-linecap="round" stroke-linejoin="round" stroke-miterlimit="10"/><path d="M62.217 39.078L46.15 48.016l16.561 6.906 16.3-8.406z" fill="#fff"/><path d="M62.217 39.078L46.15 48.016l16.561 6.906 16.3-8.406z" fill="none" stroke="#9b3da4" stroke-width="2.083" stroke-linecap="round" stroke-linejoin="round" stroke-miterlimit="10"/><path d="M52.07 82.964L57.21 72.32l-2.893-.967 3.223-9.628L46.7 73.452l3.567 1.354-4.051 6.199zM18.034 33.962l11.806-.55-.244 3.039 10.119.814-15.037 5.369.152-3.812-7.29 1.295z" fill="#9b3da4"/></g><g clip-path="url(#l)" transform="matrix(1.33333 0 0 -1.33333 0 133.785)"><path d="M97.64 39.07c0-20.004-16.367-36.369-36.372-36.369H39.071c-20.004 0-36.37 16.365-36.37 36.37v22.196c0 20.003 16.366 36.371 36.37 36.371h22.197c20.005 0 36.371-16.368 36.371-36.37z" fill="none" stroke="#9b3da4" stroke-width="5.403" stroke-linecap="round" stroke-linejoin="round" stroke-miterlimit="10"/><path d="M83.278 40.999l-.601-.205s-8.211-.657-10.702-1.428c-2.49-.769-4.706-2.837-4.925-4.473-.217-1.639.582-3.164 2.37-3.542 1.79-.382 8.265.183 10.596-.05a57.223 57.223 0 013.108-.2" fill="#fff" stroke="#9b3da4" stroke-width="2.083" stroke-linecap="round" stroke-linejoin="round" stroke-miterlimit="10"/><g clip-path="url(#m)"><g clip-path="url(#n)" opacity=".5"><path d="M73.153 32.097c.169 1.55.068 3.412.068 3.412-.92.42-2.452.205-3.316-.485-.79-.631-1.301-2.115-.338-2.935.964-.82 3.586.008 3.586.008" fill="#9b3da4"/></g></g><path d="M73.153 32.097c.169 1.55.068 3.412.068 3.412-.92.42-2.452.205-3.316-.485-.79-.631-1.301-2.115-.338-2.935.964-.82 3.586.008 3.586.008z" fill="none" stroke="#9b3da4" stroke-width="2.083" stroke-linecap="round" stroke-linejoin="round" stroke-miterlimit="10"/><path d="M73.96 5.137H29.474L7.979 18.875h85.198z" fill="#9b3da4"/><path d="M42.825 11.358c-.01 1.43-.616 1.584-2.058 1.584-1.936 0-2.233-.198-2.233-2.695 0-2.388.121-2.85 2.124-2.85 1.903 0 2.178.154 2.2 1.773h1.826c-.022-2.4-.66-3.423-3.752-3.423-3.2 0-4.213.605-4.213 4.28 0 3.168.363 4.565 3.883 4.565 2.608 0 3.994-.385 4.016-3.234zM48.335 12.854v-2.497h3.103c.792 0 1.187.177 1.187 1.255 0 1.177-.474 1.242-1.187 1.242zm3.42 1.65c1.904 0 2.685-.758 2.685-2.88 0-1.959-.572-2.916-2.76-2.916h-3.345V5.836h-1.804v8.67z" fill="#fff"/><g><path d="M57.717 14.505V8.85c0-1.166.386-1.451 2.244-1.451 1.673 0 2.3.23 2.3 1.54v5.566h1.805v-5.82c0-2.355-1.487-2.938-4.138-2.938-2.782 0-4.025.683-4.025 2.938v5.82z" fill="#fff"/></g></g></svg>