<svg xmlns="http://www.w3.org/2000/svg" viewBox="0 0 133.787 133.785"><defs><clipPath clipPathUnits="userSpaceOnUse" id="a"><path d="M0 0h100.34v100.339H0z"/></clipPath><clipPath clipPathUnits="userSpaceOnUse" id="b"><path d="M39.071 97.637c-20.003 0-36.37-16.368-36.37-36.369V39.07c0-20.003 16.367-36.369 36.37-36.369h22.197c20.005 0 36.371 16.366 36.371 36.369v22.198c0 20.001-16.366 36.369-36.371 36.369z"/></clipPath><clipPath clipPathUnits="userSpaceOnUse" id="c"><path d="M66.457 122.245h55.54V89.642h-55.54z"/></clipPath><clipPath clipPathUnits="userSpaceOnUse" id="d"><path d="M66.457 89.642h55.54v32.603h-55.54z"/></clipPath><clipPath clipPathUnits="userSpaceOnUse" id="e"><path d="M14.298 120.686h55.538V88.083H14.298z"/></clipPath><clipPath clipPathUnits="userSpaceOnUse" id="f"><path d="M14.298 88.083h55.539v32.603H14.298z"/></clipPath><clipPath clipPathUnits="userSpaceOnUse" id="g"><path d="M23.873 91.41h55.539V58.808h-55.54z"/></clipPath><clipPath clipPathUnits="userSpaceOnUse" id="h"><path d="M23.873 58.808h55.539v32.603H23.873z"/></clipPath><clipPath clipPathUnits="userSpaceOnUse" id="i"><path d="M85.606 63.694h55.54V31.092h-55.54z"/></clipPath><clipPath clipPathUnits="userSpaceOnUse" id="j"><path d="M85.606 31.092h55.54v32.602h-55.54z"/></clipPath><clipPath clipPathUnits="userSpaceOnUse" id="k"><path d="M-28.287 89.851h55.54V57.248h-55.54z"/></clipPath><clipPath clipPathUnits="userSpaceOnUse" id="l"><path d="M-28.287 57.248h55.54v32.603h-55.54z"/></clipPath><clipPath clipPathUnits="userSpaceOnUse" id="m"><path d="M33.447 62.135h55.54V29.532h-55.54z"/></clipPath><clipPath clipPathUnits="userSpaceOnUse" id="n"><path d="M33.447 29.532h55.54v32.603h-55.54z"/></clipPath><clipPath clipPathUnits="userSpaceOnUse" id="o"><path d="M95.181 34.419h55.539V1.816H95.181z"/></clipPath><clipPath clipPathUnits="userSpaceOnUse" id="p"><path d="M95.181 1.816h55.539v32.603H95.181z"/></clipPath><clipPath clipPathUnits="userSpaceOnUse" id="q"><path d="M43.022 32.86h55.539V.257H43.022z"/></clipPath><clipPath clipPathUnits="userSpaceOnUse" id="r"><path d="M43.022.257h55.539v32.604H43.022z"/></clipPath><clipPath clipPathUnits="userSpaceOnUse" id="s"><path d="M-9.137 31.3h55.54V-1.301h-55.54z"/></clipPath><clipPath clipPathUnits="userSpaceOnUse" id="t"><path d="M-9.137-1.302h55.54v32.603h-55.54z"/></clipPath><clipPath clipPathUnits="userSpaceOnUse" id="u"><path d="M39.071 97.637c-20.003 0-36.37-16.368-36.37-36.369V39.07c0-20.003 16.367-36.369 36.37-36.369h22.197c20.005 0 36.371 16.366 36.371 36.369v22.198c0 20.001-16.366 36.369-36.371 36.369z"/></clipPath><clipPath clipPathUnits="userSpaceOnUse" id="v"><path d="M43.72 72.312h6.899V64.34H43.72z"/></clipPath><clipPath clipPathUnits="userSpaceOnUse" id="w"><path d="M43.72 64.34h6.898v7.972H43.72z"/></clipPath><clipPath clipPathUnits="userSpaceOnUse" id="x"><path d="M0 0h100.34v100.339H0z"/></clipPath></defs><g clip-path="url(#a)" transform="matrix(1.33333 0 0 -1.33333 0 133.785)"><path d="M97.64 39.07c0-20.003-16.368-36.369-36.373-36.369H39.071c-20.003 0-36.37 16.366-36.37 36.37v22.195c0 20.003 16.367 36.371 36.37 36.371h22.196c20.005 0 36.372-16.368 36.372-36.37z" fill="#fff"/></g><g clip-path="url(#b)" transform="matrix(1.33333 0 0 -1.33333 0 133.785)"><g clip-path="url(#c)"><g clip-path="url(#d)" opacity=".25"><path d="M99.062 91.284l-30.964 13.901 21.293 15.417 30.963-13.9z" fill="#f0348d"/><path d="M99.062 91.284l-30.964 13.901 21.293 15.417 30.963-13.9z" fill="none" stroke="#fff" stroke-width="3.284" stroke-linecap="round" stroke-linejoin="round" stroke-miterlimit="10"/></g></g><path d="M129.928 77.426l-30.963 13.9 21.293 15.418 30.963-13.901z" fill="#fff"/><path d="M129.928 77.426l-30.963 13.9 21.293 15.418 30.963-13.901z" fill="none" stroke="#fff" stroke-width="3.284" stroke-linecap="round" stroke-linejoin="round" stroke-miterlimit="10"/><g clip-path="url(#e)"><g clip-path="url(#f)" opacity=".5"><path d="M46.903 89.725L15.94 103.626l21.292 15.417 30.963-13.9z" fill="#f0348d"/><path d="M46.903 89.725L15.94 103.626l21.292 15.417 30.963-13.9z" fill="none" stroke="#fff" stroke-width="3.284" stroke-linecap="round" stroke-linejoin="round" stroke-miterlimit="10"/></g></g><path d="M77.769 75.867l-30.962 13.9 21.291 15.419 30.964-13.902z" fill="#fff"/><path d="M77.769 75.867l-30.962 13.9 21.291 15.419 30.964-13.902z" fill="none" stroke="#fff" stroke-width="3.284" stroke-linecap="round" stroke-linejoin="round" stroke-miterlimit="10"/><path d="M108.636 62.01l-30.963 13.9 21.292 15.417 30.963-13.9z" fill="#f0348d"/><path d="M108.636 62.01l-30.963 13.9 21.292 15.417 30.963-13.9z" fill="none" stroke="#fff" stroke-width="3.284" stroke-linecap="round" stroke-linejoin="round" stroke-miterlimit="10"/><path d="M-5.256 88.166l-30.963 13.901 21.292 15.417 30.963-13.901z" fill="#f0348d"/><path d="M-5.256 88.166l-30.963 13.901 21.292 15.417 30.963-13.901z" fill="none" stroke="#fff" stroke-width="3.284" stroke-linecap="round" stroke-linejoin="round" stroke-miterlimit="10"/><path d="M25.61 74.308L-5.353 88.21l21.292 15.417 30.963-13.9z" fill="#fff"/><path d="M25.61 74.308L-5.353 88.21l21.292 15.417 30.963-13.9z" fill="none" stroke="#fff" stroke-width="3.284" stroke-linecap="round" stroke-linejoin="round" stroke-miterlimit="10"/><g clip-path="url(#g)"><g clip-path="url(#h)" opacity=".5"><path d="M56.477 60.45l-30.962 13.9 21.292 15.418L77.77 75.867z" fill="#f0348d"/><path d="M56.477 60.45l-30.962 13.9 21.292 15.418L77.77 75.867z" fill="none" stroke="#fff" stroke-width="3.284" stroke-linecap="round" stroke-linejoin="round" stroke-miterlimit="10"/></g></g><path d="M87.344 46.592l-30.963 13.9 21.292 15.417 30.963-13.9z" fill="#fff"/><path d="M87.344 46.592l-30.963 13.9 21.292 15.417 30.963-13.9z" fill="none" stroke="#fff" stroke-width="3.284" stroke-linecap="round" stroke-linejoin="round" stroke-miterlimit="10"/><g clip-path="url(#i)"><g clip-path="url(#j)" opacity=".5"><path d="M118.211 32.734l-30.963 13.9 21.292 15.417 30.963-13.9z" fill="#f0348d"/><path d="M118.211 32.734l-30.963 13.9 21.292 15.417 30.963-13.9z" fill="none" stroke="#fff" stroke-width="3.284" stroke-linecap="round" stroke-linejoin="round" stroke-miterlimit="10"/></g></g><g clip-path="url(#k)"><g clip-path="url(#l)" opacity=".5"><path d="M4.318 58.89l-30.963 13.901L-5.353 88.21l30.963-13.9z" fill="#f0348d"/><path d="M4.318 58.89l-30.963 13.901L-5.353 88.21l30.963-13.9z" fill="none" stroke="#fff" stroke-width="3.284" stroke-linecap="round" stroke-linejoin="round" stroke-miterlimit="10"/></g></g><path d="M35.185 45.033l-30.963 13.9L25.514 74.35l30.963-13.9z" fill="#fff"/><path d="M35.185 45.033l-30.963 13.9L25.514 74.35l30.963-13.9z" fill="none" stroke="#fff" stroke-width="3.284" stroke-linecap="round" stroke-linejoin="round" stroke-miterlimit="10"/><g clip-path="url(#m)"><g clip-path="url(#n)" opacity=".25"><path d="M66.052 31.175l-30.962 13.9 21.291 15.417 30.963-13.9z" fill="#f0348d"/><path d="M66.052 31.175l-30.962 13.9 21.291 15.417 30.963-13.9z" fill="none" stroke="#fff" stroke-width="3.284" stroke-linecap="round" stroke-linejoin="round" stroke-miterlimit="10"/></g></g><path d="M96.92 17.316l-30.965 13.9 21.293 15.418 30.963-13.9z" fill="#fff"/><path d="M96.92 17.316l-30.965 13.9 21.293 15.418 30.963-13.9z" fill="none" stroke="#fff" stroke-width="3.284" stroke-linecap="round" stroke-linejoin="round" stroke-miterlimit="10"/><g clip-path="url(#o)"><g clip-path="url(#p)" opacity=".25"><path d="M127.786 3.459l-30.963 13.9 21.293 15.417 30.963-13.9z" fill="#f0348d"/><path d="M127.786 3.459l-30.963 13.9 21.293 15.417 30.963-13.9z" fill="none" stroke="#fff" stroke-width="3.284" stroke-linecap="round" stroke-linejoin="round" stroke-miterlimit="10"/></g></g><path d="M-16.974 43.474l-30.963 13.9 21.292 15.417 30.963-13.9z" fill="#fff"/><path d="M-16.974 43.474l-30.963 13.9 21.292 15.417 30.963-13.9z" fill="none" stroke="#fff" stroke-width="3.284" stroke-linecap="round" stroke-linejoin="round" stroke-miterlimit="10"/><path d="M13.893 29.616l-30.963 13.9L4.222 58.932l30.963-13.9z" fill="#f0348d"/><path d="M13.893 29.616l-30.963 13.9L4.222 58.932l30.963-13.9z" fill="none" stroke="#fff" stroke-width="3.284" stroke-linecap="round" stroke-linejoin="round" stroke-miterlimit="10"/><path d="M44.76 15.758l-30.963 13.9L35.09 45.075l30.963-13.9z" fill="#fff"/><path d="M44.76 15.758l-30.963 13.9L35.09 45.075l30.963-13.9z" fill="none" stroke="#fff" stroke-width="3.284" stroke-linecap="round" stroke-linejoin="round" stroke-miterlimit="10"/><g clip-path="url(#q)"><g clip-path="url(#r)" opacity=".5"><path d="M75.626 1.9L44.664 15.8l21.291 15.416 30.964-13.9z" fill="#f0348d"/><path d="M75.626 1.9L44.664 15.8l21.291 15.416 30.964-13.9z" fill="none" stroke="#fff" stroke-width="3.284" stroke-linecap="round" stroke-linejoin="round" stroke-miterlimit="10"/></g></g><path d="M106.494-11.959L75.53 1.941l21.292 15.418 30.963-13.9z" fill="#fff"/><path d="M106.494-11.959L75.53 1.941l21.292 15.418 30.963-13.9z" fill="none" stroke="#fff" stroke-width="3.284" stroke-linecap="round" stroke-linejoin="round" stroke-miterlimit="10"/><path d="M-7.399 14.198l-30.963 13.9 21.292 15.417 30.963-13.899z" fill="#fff"/><path d="M-7.399 14.198l-30.963 13.9 21.292 15.417 30.963-13.899z" fill="none" stroke="#fff" stroke-width="3.284" stroke-linecap="round" stroke-linejoin="round" stroke-miterlimit="10"/><g clip-path="url(#s)"><g clip-path="url(#t)" opacity=".5"><path d="M23.468.34l-30.963 13.9 21.292 15.418 30.963-13.9z" fill="#f0348d"/><path d="M23.468.34l-30.963 13.9 21.292 15.418 30.963-13.9z" fill="none" stroke="#fff" stroke-width="3.284" stroke-linecap="round" stroke-linejoin="round" stroke-miterlimit="10"/></g></g><path d="M54.334-13.518L23.372.382 44.665 15.8 75.627 1.9z" fill="#fff"/><path d="M54.334-13.518L23.372.382 44.665 15.8 75.627 1.9z" fill="none" stroke="#fff" stroke-width="3.284" stroke-linecap="round" stroke-linejoin="round" stroke-miterlimit="10"/><path d="M85.202-27.376l-30.963 13.9L75.53 1.941l30.963-13.9z" fill="#f0348d"/><path d="M85.202-27.376l-30.963 13.9L75.53 1.941l30.963-13.9z" fill="none" stroke="#fff" stroke-width="3.284" stroke-linecap="round" stroke-linejoin="round" stroke-miterlimit="10"/><path d="M48.012 49.42l7.238-3.064-2.585-1.894M51.024 33.24l8.95-3.784M39.335 34.932l-4.344-3.18 9.798-4.371M57.933 52.987l4.076-1.71" fill="none" stroke="#f0348d" stroke-width="2.083" stroke-linecap="round" stroke-linejoin="round" stroke-miterlimit="10"/><path d="M34.615 74.36l2.578 11.612a6.25 6.25 0 00.798 1.955l8.06 12.946-6.52 6.65-10.833-15.74-1.287-18.821z" fill="#fff"/><path d="M34.615 74.36l2.578 11.612a6.25 6.25 0 00.798 1.955l8.06 12.946-6.52 6.65-10.833-15.74-1.287-18.821z" fill="none" stroke="#f0348d" stroke-width="2.083" stroke-linecap="round" stroke-linejoin="round" stroke-miterlimit="10"/><path d="M30.713 73.953l2.398 13.63c.103.586.33 1.143.664 1.635l9.406 13.817-8.44 3.91-13.37-18.383-.297-13.28z" fill="#fff"/><path d="M30.713 73.953l2.398 13.63c.103.586.33 1.143.664 1.635l9.406 13.817-8.44 3.91-13.37-18.383-.297-13.28z" fill="none" stroke="#f0348d" stroke-width="2.083" stroke-linecap="round" stroke-linejoin="round" stroke-miterlimit="10"/><path d="M27.747 73.369c-.138 2-.054 10.677-.028 13.04.005.403.053.799.146 1.19.422 1.783 1.706 7.01 2.488 7.986 1.443 1.8 6.02 7.335 7.224 7.977 1.203.642 8.868-4.712 8.868-4.712l2.996-10.117a6.377 6.377 0 00-.81-5.353c-2.333-3.5-6.302-9.656-6.358-11.14-.08-2.101-.64-6.523.68-7.707 1.318-1.185 3.223-1.252 4.772.374 1.549 1.627 4.029 7.586 5.293 8.433 1.108.74 1.979 2.24 2.79 3.263 1.643 2.073 4.862 6.27 4.862 6.27l6.836 8.825 8.94 19.65-14.021 15.362s-2.437-1.447-6.228-3.3c-9.21-4.504-18.303-9.311-27.485-13.958l-7.122-3.604-7.275-19.508 5.1-14.904 4.207-2.213z" fill="#fff"/><path d="M27.747 73.369c-.138 2-.054 10.677-.028 13.04.005.403.053.799.146 1.19.422 1.783 1.706 7.01 2.488 7.986 1.443 1.8 6.02 7.335 7.224 7.977 1.203.642 8.868-4.712 8.868-4.712l2.996-10.117a6.377 6.377 0 00-.81-5.353c-2.333-3.5-6.302-9.656-6.358-11.14-.08-2.101-.64-6.523.68-7.707 1.318-1.185 3.223-1.252 4.772.374 1.549 1.627 4.029 7.586 5.293 8.433 1.108.74 1.979 2.24 2.79 3.263 1.643 2.073 4.862 6.27 4.862 6.27l6.836 8.825 8.94 19.65-14.021 15.362s-2.437-1.447-6.228-3.3c-9.21-4.504-18.303-9.311-27.485-13.958l-7.122-3.604-7.275-19.508 5.1-14.904 4.207-2.213z" fill="none" stroke="#f0348d" stroke-width="2.083" stroke-linecap="round" stroke-linejoin="round" stroke-miterlimit="10"/><path d="M34.378 114.884l-8.647-14.059-3.933-14.165a5.15 5.15 0 01-.15-2.01l1.827-14.668-3.44-2.6-5.906 14.62a9.18 9.18 0 00-.441 5.468l2.985 14.187 1.553 6.152z" fill="#fff"/><path d="M34.378 114.884l-8.647-14.059-3.933-14.165a5.15 5.15 0 01-.15-2.01l1.827-14.668-3.44-2.6-5.906 14.62a9.18 9.18 0 00-.441 5.468l2.985 14.187 1.553 6.152z" fill="none" stroke="#f0348d" stroke-width="2.083" stroke-linecap="round" stroke-linejoin="round" stroke-miterlimit="10"/><path d="M26.967 52.282c2.246.696 3.58 3.729 2.976 6.774-.6 3.045-2.909 4.949-5.155 4.253-2.246-.694-3.58-3.726-2.976-6.77.601-3.047 2.91-4.952 5.155-4.257" fill="#fff"/><path d="M26.967 52.282c2.246.696 3.58 3.729 2.976 6.774-.6 3.045-2.909 4.949-5.155 4.253-2.246-.694-3.58-3.726-2.976-6.77.601-3.047 2.91-4.952 5.155-4.257z" fill="none" stroke="#f0348d" stroke-width="2.083" stroke-linecap="round" stroke-linejoin="round" stroke-miterlimit="10"/><path d="M33.302 49.909L16.48 57.497v15.062l16.82-7.292z" fill="#fff"/><path d="M33.302 49.909L16.48 57.497v15.062l16.82-7.292z" fill="none" stroke="#f0348d" stroke-width="2.083" stroke-linecap="round" stroke-linejoin="round" stroke-miterlimit="10"/><path d="M48.036 60.155L33.302 49.904v15.558l14.734 9.3z" fill="#fff"/><path d="M48.036 60.155L33.302 49.904v15.558l14.734 9.3z" fill="none" stroke="#f0348d" stroke-width="2.083" stroke-linecap="round" stroke-linejoin="round" stroke-miterlimit="10"/><path d="M33.302 65.461L16.48 72.56l14.49 8.968 17.065-6.765z" fill="#fff"/><path d="M33.302 65.461L16.48 72.56l14.49 8.968 17.065-6.765z" fill="none" stroke="#f0348d" stroke-width="2.083" stroke-linecap="round" stroke-linejoin="round" stroke-miterlimit="10"/><g><path d="M76 56.14c2.247.695 3.58 3.73 2.978 6.773-.602 3.045-2.91 4.95-5.157 4.254-2.245-.694-3.58-3.727-2.975-6.77.6-3.047 2.909-4.953 5.155-4.257" fill="#fff"/></g><g><path d="M76 56.14c2.247.695 3.58 3.73 2.978 6.773-.602 3.045-2.91 4.95-5.157 4.254-2.245-.694-3.58-3.727-2.975-6.77.6-3.047 2.909-4.953 5.155-4.257z" fill="none" stroke="#f0348d" stroke-width="2.083" stroke-linecap="round" stroke-linejoin="round" stroke-miterlimit="10"/></g><g><path d="M82.335 53.767l-16.821 7.588v15.062l16.82-7.293z" fill="#fff"/></g><g><path d="M82.335 53.767l-16.821 7.588v15.062l16.82-7.293z" fill="none" stroke="#f0348d" stroke-width="2.083" stroke-linecap="round" stroke-linejoin="round" stroke-miterlimit="10"/></g><g><path d="M97.069 64.012l-14.734-10.25V69.32l14.734 9.301z" fill="#fff"/></g><g><path d="M97.069 64.012l-14.734-10.25V69.32l14.734 9.301z" fill="none" stroke="#f0348d" stroke-width="2.083" stroke-linecap="round" stroke-linejoin="round" stroke-miterlimit="10"/></g><g><path d="M82.335 69.319l-16.821 7.099 14.49 8.968L97.07 78.62z" fill="#fff"/></g><g><path d="M82.335 69.319l-16.821 7.099 14.49 8.968L97.07 78.62z" fill="none" stroke="#f0348d" stroke-width="2.083" stroke-linecap="round" stroke-linejoin="round" stroke-miterlimit="10"/></g><g><path d="M49.539 85.152s-6.49-10.955-7.266-12.911c-.953-2.398-.64-6.525.68-7.708 1.318-1.185 3.223-1.252 4.772.374 1.318 1.384 4.65 6.925 5.617 8.55.179.303.377.594.592.876 1.84 2.4 10.639 13.594 10.639 13.594" fill="#fff" stroke="#f0348d" stroke-width="2.083" stroke-linecap="round" stroke-linejoin="round" stroke-miterlimit="10"/></g></g><g clip-path="url(#u)" transform="matrix(1.33333 0 0 -1.33333 0 133.785)"><g clip-path="url(#v)"><g clip-path="url(#w)" opacity=".5"><path d="M49.578 69.201c-1.274 1.083-3.01 2.07-3.01 2.07-.997-.706-1.84-2.416-1.805-3.712.032-1.185 1.014-2.584 2.399-2.068 1.386.517 2.416 3.71 2.416 3.71" fill="#f0348d"/><path d="M49.578 69.201c-1.274 1.083-3.01 2.07-3.01 2.07-.997-.706-1.84-2.416-1.805-3.712.032-1.185 1.014-2.584 2.399-2.068 1.386.517 2.416 3.71 2.416 3.71z" fill="none" stroke="#f0348d" stroke-width="2.083" stroke-linecap="round" stroke-linejoin="round" stroke-miterlimit="10"/></g></g><path d="M49.578 69.201c-1.274 1.083-3.01 2.07-3.01 2.07-.997-.706-1.84-2.416-1.805-3.712.032-1.185 1.014-2.584 2.399-2.068 1.386.517 2.416 3.71 2.416 3.71z" fill="none" stroke="#f0348d" stroke-width="2.083" stroke-linecap="round" stroke-linejoin="round" stroke-miterlimit="10"/><g><path d="M45.232 54.8l17.876-7.639-19.74-14.652 21.763-9.563" fill="none" stroke="#f0348d" stroke-width="2.083" stroke-linecap="round" stroke-linejoin="round" stroke-miterlimit="10"/></g></g><g clip-path="url(#x)" transform="matrix(1.33333 0 0 -1.33333 0 133.785)"><path d="M97.64 39.07c0-20.003-16.368-36.369-36.373-36.369H39.071c-20.003 0-36.37 16.366-36.37 36.37v22.195c0 20.003 16.367 36.371 36.37 36.371h22.196c20.005 0 36.372-16.368 36.372-36.37z" fill="none" stroke="#f0348d" stroke-width="5.403" stroke-linecap="round" stroke-linejoin="round" stroke-miterlimit="10"/><path d="M74.329 5.136H29.843L8.348 18.873h85.198z" fill="#f0348d"/><path d="M30.94 11.487h3.287V9.955h-3.328c-.073-1.544-.588-3.538-4.724-4.325l-.704 1.48c.504.072 2.205.325 3.108 1.207.556.546.598 1.008.66 1.638h-4.03v1.532h4.052v1.081c-1.658-.168-2.634-.168-3.348-.157l-.316 1.491c2.394 0 4.798.168 7.076.892l.85-1.534a25.078 25.078 0 00-2.582-.492zM37.86 13.063l1.534.145.252-1.647 4.136.546c.01-2.94-1.532-4.041-2.078-4.43l-1.145 1.029c.767.525 1.113.872 1.428 1.743l-2.131-.305.682-4.524-1.574-.19-.651 4.484-1.953-.294-.221 1.49 1.964.252zM47.983 7.624c1.05.115 3.832.42 5.154 4.588l1.533-.861c-.903-2.394-2.7-5.637-8.471-5.606v8.934h1.784zM56.583 7.571c4.083.326 6.236 1.88 7.433 6.11l1.586-.787c-1.628-5.48-4.872-6.614-8.463-7.13zm3.16 3.748c-.975.672-2.183 1.25-3.306 1.627l.755 1.428c1.576-.462 2.677-1.039 3.443-1.512zM75.765 13.66a7.743 7.743 0 01-.462 1.521l.913.15c.273-.589.462-1.387.483-1.483zm-1.533-.24c-.02.136-.179 1.038-.409 1.658l.934.145c.094-.25.241-.586.462-1.605zm-3.002-1.334c-1.134.555-1.995.84-3.17 1.143l.6 1.417c1.194-.26 2.086-.534 3.231-1.028zM67.807 7.53c3.57.347 5.67 1.145 7.034 5.638l1.532-.798c-1.595-4.692-3.894-6.078-8.093-6.635zm2.5 2.016a16.057 16.057 0 01-3.088 1.218l.557 1.426c.493-.114 2.057-.534 3.15-1.11z" fill="#fff"/></g></svg>