<svg xmlns="http://www.w3.org/2000/svg" viewBox="0 0 75 75"><defs><style>.cls-2{fill:#fff}.cls-4{fill:#00afca}</style></defs><g id="レイヤー_2" data-name="レイヤー 2"><g id="レイヤー_2-2" data-name="レイヤー 2"><g id="ARC"><path d="M8.362 0h58.276A8.362 8.362 0 0175 8.362v58.276A8.362 8.362 0 0166.638 75H8.362A8.362 8.362 0 010 66.638V8.362A8.362 8.362 0 018.362 0z" fill="none"/><rect class="cls-2" x="5" y="5" width="65" height="65" rx="3.362"/><path d="M66.638 70.125H8.362a3.491 3.491 0 01-3.487-3.487V8.362a3.49 3.49 0 013.487-3.487h58.276a3.49 3.49 0 013.487 3.487v58.276a3.491 3.491 0 01-3.487 3.487zm-58.276-65a3.24 3.24 0 00-3.237 3.237v58.276a3.24 3.24 0 003.237 3.237h58.276a3.24 3.24 0 003.237-3.237V8.362a3.24 3.24 0 00-3.237-3.237z" fill="#666"/></g><path class="cls-4" d="M42.733 22.386l11.683-7.193a.863.863 0 011.3.576l2.533 13.484a.863.863 0 01-1.198.949L42.836 23.91a.863.863 0 01-.103-1.524z"/><rect class="cls-4" x="22.604" y="39.335" width="40.779" height="6.846" rx=".863" transform="rotate(-66.125 42.993 42.758)"/><path class="cls-4" d="M27.662 33.16l-13.702-.713a.863.863 0 01-.743-1.213l5.571-12.538a.863.863 0 011.524-.1l8.13 13.25a.863.863 0 01-.78 1.313z"/><rect class="cls-4" x="19.973" y="17.593" width="22.515" height="6.846" rx=".863" transform="rotate(-31.532 31.23 21.016)"/><rect class="cls-4" x="30.245" y="25.592" width="6.846" height="40.87" rx=".863" transform="rotate(-68.422 33.668 46.026)"/><path class="cls-2" d="M16.41 35.585a.86.86 0 01.317.06l36.4 14.396a.863.863 0 01.485 1.12l-1.883 4.762a.862.862 0 01-1.12.485l-36.4-14.396a.863.863 0 01-.485-1.12l1.883-4.762a.863.863 0 01.802-.545m0-2.373a3.218 3.218 0 00-3.008 2.046l-1.883 4.761a3.235 3.235 0 001.818 4.198l36.401 14.397a3.234 3.234 0 004.198-1.819l1.883-4.761A3.238 3.238 0 0054 47.836L17.599 33.439a3.22 3.22 0 00-1.19-.227z"/><path class="cls-4" d="M54.056 44.966l7.655 11.387a.863.863 0 01-.523 1.322l-13.373 3.07a.863.863 0 01-.995-1.158l5.717-14.457a.863.863 0 011.519-.164zM64.53 65.443a.642.642 0 11.642.654.649.649 0 01-.642-.654m-.533 0a1.175 1.175 0 101.175-1.17 1.16 1.16 0 00-1.175 1.17m-2.48.654a.655.655 0 11.642-.654.65.65 0 01-.642.654m0-1.824a1.17 1.17 0 101.175 1.17 1.16 1.16 0 00-1.175-1.17m-2.005.642h.607v-.544h-.607v-.732h-.555v1.832a1.412 1.412 0 00.108.553 1.147 1.147 0 00.691.614l.275-.465a.922.922 0 01-.457-.394.833.833 0 01-.061-.321l-.001-.178zm3.472-1.273a.36.36 0 00.721 0 .36.36 0 10-.721 0m.089.729h.543v2.186h-.543zm3.211 2.036h-.077v-.027h.183v.027h-.076v.206h-.03v-.206zm.229.206l-.063-.189v.189h-.031v-.233h.043l.066.198.068-.198h.042v.233h-.031v-.189l-.063.189h-.031z"/></g></g></svg>