<svg id="レイヤー_1" data-name="レイヤー 1" xmlns="http://www.w3.org/2000/svg" viewBox="0 0 555 208">
  <defs>
    <style>
      .cls-1, .cls-11, .cls-12, .cls-3, .cls-4, .cls-5, .cls-6, .cls-7, .cls-8, .cls-9 {
        fill: none;
        stroke-linecap: round;
        stroke-miterlimit: 10;
      }

      .cls-1, .cls-11, .cls-12, .cls-3 {
        stroke: #666;
      }

      .cls-1, .cls-11, .cls-12, .cls-3, .cls-4, .cls-5, .cls-6, .cls-7, .cls-8 {
        stroke-width: 1.5px;
      }

      .cls-13, .cls-2 {
        fill: #666;
      }

      .cls-3 {
        stroke-dasharray: 5.056 5.056;
      }

      .cls-4, .cls-5, .cls-6, .cls-7, .cls-8, .cls-9 {
        stroke: #bfd833;
      }

      .cls-5 {
        stroke-dasharray: 4.992 4.992;
      }

      .cls-6 {
        stroke-dasharray: 5.412 5.412;
      }

      .cls-7 {
        stroke-dasharray: 4.459 4.459;
      }

      .cls-8 {
        stroke-dasharray: 5.244 5.244;
      }

      .cls-9 {
        stroke-width: 2px;
      }

      .cls-10 {
        fill: #bfd833;
      }

      .cls-11 {
        stroke-dasharray: 5.281 5.281;
      }

      .cls-12 {
        stroke-dasharray: 4.646 4.646;
      }

      .cls-13 {
        font-size: 9.98px;
        font-family: SST-Roman, SST;
      }
    </style>
  </defs>
  <g>
    <line class="cls-1" x1="250.789" y1="115.658" x2="250.789" y2="19.535"/>
    <polygon class="cls-2" points="256.024 21.066 250.789 12 245.553 21.066 256.024 21.066"/>
  </g>
  <g>
    <line class="cls-1" x1="250.789" y1="115.658" x2="179.15" y2="178.869"/>
    <polygon class="cls-2" points="176.834 173.929 173.5 183.853 183.762 181.78 176.834 173.929"/>
  </g>
  <g>
    <line class="cls-1" x1="274.43" y1="94.744" x2="272.553" y2="96.396"/>
    <line class="cls-3" x1="268.757" y1="99.736" x2="255.473" y2="111.427"/>
    <line class="cls-1" x1="253.575" y1="113.097" x2="251.698" y2="114.748"/>
  </g>
  <g>
    <line class="cls-1" x1="250.789" y1="115.658" x2="369.236" y2="148.313"/>
    <polygon class="cls-2" points="366.368 152.953 376.5 150.316 369.151 142.859 366.368 152.953"/>
  </g>
  <g>
    <line class="cls-4" x1="303.075" y1="131.571" x2="301.197" y2="133.221"/>
    <line class="cls-5" x1="297.447" y1="136.517" x2="276.822" y2="154.642"/>
    <line class="cls-4" x1="274.947" y1="156.29" x2="273.069" y2="157.94"/>
  </g>
  <g>
    <line class="cls-4" x1="221.692" y1="143.845" x2="224.103" y2="144.504"/>
    <line class="cls-6" x1="229.324" y1="145.931" x2="268.478" y2="156.628"/>
    <line class="cls-4" x1="271.088" y1="157.341" x2="273.5" y2="158"/>
  </g>
  <g>
    <line class="cls-4" x1="250.789" y1="32.004" x2="252.047" y2="34.164"/>
    <line class="cls-7" x1="254.291" y1="38.017" x2="271.12" y2="66.913"/>
    <line class="cls-4" x1="272.242" y1="68.84" x2="273.5" y2="71"/>
  </g>
  <g>
    <line class="cls-4" x1="273.069" y1="157.122" x2="273.069" y2="154.622"/>
    <line class="cls-8" x1="273.069" y1="149.378" x2="273.069" y2="78.59"/>
    <line class="cls-4" x1="273.069" y1="75.968" x2="273.069" y2="73.468"/>
  </g>
  <g>
    <line class="cls-9" x1="251.5" y1="115" x2="268.883" y2="79.365"/>
    <polygon class="cls-10" points="270.98 83.513 268.341 80.476 264.323 80.266 271.5 74 270.98 83.513"/>
  </g>
  <g>
    <line class="cls-1" x1="250.789" y1="191.128" x2="250.789" y2="188.628"/>
    <line class="cls-11" x1="250.789" y1="183.347" x2="250.789" y2="122.617"/>
    <line class="cls-1" x1="250.789" y1="119.976" x2="250.789" y2="117.476"/>
  </g>
  <g>
    <line class="cls-1" x1="220.782" y1="107.474" x2="223.198" y2="108.118"/>
    <line class="cls-12" x1="227.687" y1="109.316" x2="243.4" y2="113.506"/>
    <line class="cls-1" x1="245.645" y1="114.104" x2="248.061" y2="114.748"/>
  </g>
  <circle class="cls-2" cx="273.069" cy="71.468" r="2.728"/>
  <text class="cls-13" transform="translate(207.704 140.873)">X</text>
  <text class="cls-13" transform="translate(305.145 124.617)">Y</text>
  <text class="cls-13" transform="translate(237.53 32.663)">Z</text>
  <text class="cls-13" transform="translate(275.683 64.464)">( X, Y, Z )</text>
</svg>
