<svg xmlns="http://www.w3.org/2000/svg" viewBox="0 0 133.787 133.785"><defs><clipPath clipPathUnits="userSpaceOnUse" id="a"><path d="M0 100.339h100.34V0H0z"/></clipPath></defs><g clip-path="url(#a)" transform="matrix(1.33333 0 0 -1.33333 0 133.785)"><path d="M97.64 39.07c0-20.004-16.367-36.369-36.373-36.369H39.072c-20.005 0-36.37 16.365-36.37 36.37v22.195c0 20.003 16.365 36.371 36.37 36.371h22.195c20.006 0 36.372-16.368 36.372-36.37z" fill="#fff"/><path d="M97.64 39.07c0-20.004-16.367-36.369-36.373-36.369H39.072c-20.005 0-36.37 16.365-36.37 36.37v22.195c0 20.003 16.365 36.371 36.37 36.371h22.195c20.006 0 36.372-16.368 36.372-36.37z" fill="none" stroke="#f36732" stroke-width="5.403" stroke-linecap="round" stroke-linejoin="round" stroke-miterlimit="10"/><path d="M24.822 34.501c-1.171 1.545-2.356 4.12-.323 7.564M19.668 35.52c-.491.714-1.008 1.941-.348 3.482M75.904 45.528c.977 1.675 1.842 4.374-.593 7.548M80.97 47.24c.4.768.766 2.05-.075 3.5" fill="none" stroke="#f36732" stroke-width="2.083" stroke-linecap="round" stroke-linejoin="round" stroke-miterlimit="10"/><path d="M61.415 26.49c-2.025.343-3.23 2.662-2.686 5.177.543 2.513 2.626 4.576 4.654 4.231 2.025-.345 3.228-2.96 2.685-5.476-.543-2.516-2.626-4.277-4.653-3.933" fill="#f36732"/><path d="M61.415 26.49c-2.025.343-3.23 2.662-2.686 5.177.543 2.513 2.626 4.576 4.654 4.231 2.025-.345 3.228-2.96 2.685-5.476-.543-2.516-2.626-4.277-4.653-3.933zM56.674 23.102l-26.017 5.24v20.717l26.017-5.24z" fill="none" stroke="#f36732" stroke-width="2.083" stroke-linecap="round" stroke-linejoin="round" stroke-miterlimit="10"/><path d="M69.878 54.21l-26.016 5.238-13.205-10.39 26.017-5.24z" fill="none" stroke="#f36732" stroke-width="2.083" stroke-linecap="round" stroke-linejoin="round" stroke-miterlimit="10"/><path d="M56.674 23.102l13.204 10.357v20.717L56.674 43.82z" fill="#fff"/><path d="M56.674 23.102l13.204 10.357v20.717L56.674 43.82z" fill="none" stroke="#f36732" stroke-width="2.083" stroke-linecap="round" stroke-linejoin="round" stroke-miterlimit="10"/><path d="M32.21 66.444l-2.492 16.143" fill="#fff"/><path d="M32.21 66.444l-2.492 16.143" fill="#fff" stroke="#f36732" stroke-width="2.083" stroke-linecap="round" stroke-linejoin="round" stroke-miterlimit="10"/><path d="M33.242 66.563c.448-2.903-2.218-5.724-5.955-6.301s-7.13 1.308-7.578 4.211c-.448 2.903 2.218 5.725 5.955 6.302s7.13-1.309 7.578-4.212M34.687 85.145c3.563-1.21 3.569-4.166 8.988-3.494.309-2.004-1.44-5.053-4.066-5.437-1.854-.27-4.027.849-5.072 1.36-1.544.757-3.77.042-5.072-.091l-1.19 7.705c1.573.48 4.148.728 6.412-.042M53.255 73.392c-3.426.62-6.612-1.08-7.102-3.79-.49-2.71 1.898-5.419 5.324-6.039 3.424-.62 6.611 1.08 7.101 3.79.49 2.71-1.897 5.42-5.323 6.04M71.793 70.039c-3.427.62-6.612-1.081-7.104-3.791-.488-2.71 1.9-5.418 5.326-6.038 3.424-.62 6.61 1.08 7.1 3.79.49 2.71-1.896 5.419-5.322 6.039M79.48 76.935l-20.585 3.729 1.291 7.134 20.584-3.73z" fill="#f36732"/><path d="M57.592 67.66l3.337 18.448" fill="#fff"/><path d="M57.592 67.66l3.337 18.448" fill="#fff" stroke="#f36732" stroke-width="2.083" stroke-linecap="round" stroke-linejoin="round" stroke-miterlimit="10"/><path d="M76.136 64.305l3.345 18.493" fill="#fff"/><path d="M76.136 64.305l3.345 18.493" fill="#fff" stroke="#f36732" stroke-width="2.083" stroke-linecap="round" stroke-linejoin="round" stroke-miterlimit="10"/><path d="M73.775 5.136H29.288L7.794 18.874h85.198z" fill="#f36732"/><path d="M48.057 6.975h1.109v1.896h-1.109zm0 3.372h1.109v1.777h-1.109zm-2.65-3.372h1.077v1.896h-1.077zm0 3.372h1.077v1.777h-1.077zm-2.639-3.372h1.066v1.896h-1.066zm0 3.372h1.066v1.777h-1.066zm5.289 4.772v-1.486h2.693V4.95h-1.584v.539h-6.398V4.95h-1.584v8.683h2.65v1.486h1.573v-1.486h1.077v1.486zM58.261 12.991l-3.506-4.094h3.506zm1.918 1.601V8.897h1.507V7.133H60.18V5.321h-1.918v1.812h-5.48v1.918l4.705 5.541z" fill="#fff"/></g></svg>