<svg xmlns="http://www.w3.org/2000/svg" viewBox="0 0 75 74.999"><defs><style>.cls-2{fill:#f0f8fa}.cls-4{fill:#00afca}</style></defs><g id="レイヤー_2" data-name="レイヤー 2"><g id="レイヤー_2-2" data-name="レイヤー 2"><path d="M8.363 0h58.275A8.361 8.361 0 0175 8.36v58.277A8.362 8.362 0 0166.637 75H8.362A8.361 8.361 0 010 66.638V8.362A8.362 8.362 0 018.363 0z" transform="rotate(90 37.5 37.5)" fill="none"/><rect class="cls-2" x="5" y="5" width="65" height="65" rx="3.362" transform="rotate(90 37.5 37.5)"/><path d="M66.638 70.124H8.362a3.49 3.49 0 01-3.487-3.486V8.36a3.49 3.49 0 013.487-3.486h58.276a3.49 3.49 0 013.487 3.486v58.277a3.49 3.49 0 01-3.487 3.486zM8.362 5.125a3.24 3.24 0 00-3.237 3.236v58.277a3.24 3.24 0 003.237 3.236h58.276a3.24 3.24 0 003.237-3.236V8.36a3.24 3.24 0 00-3.237-3.236z" fill="#666"/><path class="cls-4" d="M33.055 58.88l-.173-.098a1.973 1.973 0 00.317-.7l.183.046a2.178 2.178 0 01-.327.751zm.763.137a.94.94 0 01-.443-.111l.04-.169a.762.762 0 00.377.104c.18 0 .282-.073.282-.21 0-.124-.052-.216-.268-.415a.385.385 0 01-.159-.283.63.63 0 01.152-.386l.173.069a.44.44 0 00-.128.296c0 .078.045.13.14.218.225.209.292.335.292.51 0 .227-.166.377-.458.377zm.465-1.553a2.967 2.967 0 00-.835-.25l.048-.177a3.387 3.387 0 01.86.25zm.493 1.401a2.697 2.697 0 00-.335-.732l.166-.076a3.394 3.394 0 01.354.735zm-21.283-1.178a3.721 3.721 0 00-.503-.157 2 2 0 01.129.7.708.708 0 01-.73.78.652.652 0 01-.693-.702 1.69 1.69 0 01.28-.894h-.505v-.17h.74v.135a1.588 1.588 0 00-.327.922.474.474 0 00.502.526c.337 0 .545-.23.545-.619a1.923 1.923 0 00-.161-.76l.097-.126c.26.064.498.137.688.199zm-.36-.38a1.623 1.623 0 00-.178-.379l.116-.059a1.653 1.653 0 01.19.386zm.318-.033a1.45 1.45 0 00-.174-.374l.117-.062a1.621 1.621 0 01.184.384zm1.255 1.684a1.47 1.47 0 00-.494-.295c-.004.287-.094.39-.362.39-.263 0-.434-.136-.434-.301 0-.174.175-.297.467-.297a.963.963 0 01.147.01c-.007-.242-.021-.603-.021-1.062h.182l.002.4h.62v.164h-.615c.005.215.01.396.012.533a1.64 1.64 0 01.595.325zm-.835-.349c-.192 0-.291.054-.291.145 0 .085.106.144.256.144.163 0 .197-.057.197-.277a1.171 1.171 0 00-.162-.012zm1.514.446l-.048-.183c.709-.06 1.031-.284 1.031-.642a.375.375 0 00-.412-.399 6.602 6.602 0 00-.89.098l-.037-.192a6.752 6.752 0 01.939-.097.556.556 0 01.614.59c0 .469-.436.77-1.197.825zm.881-1.669a4.191 4.191 0 00-.893-.225l.045-.183a4.56 4.56 0 01.91.228zm1.232.13c.055-.002.11-.002.157-.002.353 0 .483.156.483.519a1.693 1.693 0 01-.156.794.307.307 0 01-.32.175.921.921 0 01-.34-.073l.024-.17a.876.876 0 00.29.061.167.167 0 00.165-.08 1.43 1.43 0 00.136-.705c0-.244-.08-.343-.31-.343-.05 0-.107 0-.17.002a4.634 4.634 0 01-.507 1.311l-.175-.095a4.093 4.093 0 00.479-1.211c-.147.002-.308.01-.476.016l-.012-.177.526-.02a4.454 4.454 0 00.073-.526h.209a5.27 5.27 0 01-.076.524zm1.09.977a1.69 1.69 0 00-.324-1.008l.159-.097a1.854 1.854 0 01.372 1.105zm1.64.509a.385.385 0 01-.422-.352c-.016-.103-.028-.202-.038-.27-.016-.105-.05-.162-.128-.162a.522.522 0 00-.315.242 1.265 1.265 0 00-.1.18c-.059.125-.104.22-.177.386l-.176-.07c.216-.518.517-1.253.773-1.888l.192.064c-.187.448-.332.78-.44 1.06a.459.459 0 01.303-.164c.154 0 .222.107.25.266l.046.287c.026.18.111.237.242.237.204 0 .377-.23.44-.688l.171.064c-.07.489-.28.808-.62.808zm18.319-.042c-.614 0-.891-.173-.891-.446a.772.772 0 01.298-.519l.138.11a.605.605 0 00-.237.383c0 .169.168.287.7.287a5.302 5.302 0 00.682-.045l.019.187a5.94 5.94 0 01-.709.043zm-.059-1.15l-.13-.118c.151-.102.317-.207.436-.278h-.968v-.178h1.3v.162a7.237 7.237 0 00-.638.412zm1.345 1.245l-.047-.183c.708-.06 1.03-.284 1.03-.642a.375.375 0 00-.411-.399 6.602 6.602 0 00-.89.098l-.037-.192a6.752 6.752 0 01.939-.097.556.556 0 01.613.59c0 .469-.436.77-1.197.825zm.882-1.669a4.191 4.191 0 00-.894-.225l.045-.183a4.56 4.56 0 01.91.228zm.857 1.557a3.538 3.538 0 01-.121-.917 6.052 6.052 0 01.069-.963l.199.005a5.797 5.797 0 00-.069.95 3.656 3.656 0 00.116.888zm.84.114l-.11-.147c.384-.218.413-.42.413-.965 0-.05 0-.107-.003-.17h-.749v-.176h.747c-.005-.2-.01-.42-.019-.59h.192c.01.17.019.39.026.59h.417v.176h-.412c.002.061.002.118.002.165 0 .59-.069.878-.505 1.117zm.68-1.633a1.578 1.578 0 00-.147-.358l.111-.06a1.568 1.568 0 01.159.363zm.26-.157a1.561 1.561 0 00-.16-.353l.113-.06a1.564 1.564 0 01.168.359zm1.462.78a2.863 2.863 0 00.145.31l-.192.065a3.213 3.213 0 01-.164-.375h-.998v-.173h.936a4.692 4.692 0 01-.104-.36h-.728v-.173h.686a5.958 5.958 0 01-.074-.375h.207c.019.126.042.251.07.375h.652v.173h-.609a3.726 3.726 0 00.11.36h.627v.173zm-.071 1.008c-.633 0-.927-.154-.927-.4a.667.667 0 01.076-.292l.185.035a.562.562 0 00-.062.232c0 .166.254.242.716.242.06 0 .16-.002.259-.005v.183c-.086.002-.183.005-.247.005zm2.639-1.008a2.937 2.937 0 00.145.31l-.193.065a3.211 3.211 0 01-.163-.375h-.998v-.173h.936a4.701 4.701 0 01-.104-.36h-.728v-.173h.685a5.686 5.686 0 01-.073-.375h.206a5.1 5.1 0 00.071.375h.652v.173h-.61c.032.126.07.246.11.36h.628v.173zm-.071 1.008c-.633 0-.927-.154-.927-.4a.67.67 0 01.076-.292l.184.035a.566.566 0 00-.06.232c0 .166.253.242.715.242.06 0 .159-.002.258-.005v.183c-.085.002-.182.005-.246.005zm1.954-.097a1.47 1.47 0 00-.493-.295c-.005.287-.095.39-.363.39-.263 0-.434-.136-.434-.301 0-.174.176-.297.467-.297a.972.972 0 01.148.01c-.008-.242-.022-.603-.022-1.062h.183l.002.4h.619v.164h-.614c.005.215.01.396.012.533a1.64 1.64 0 01.595.325zm-.834-.349c-.192 0-.292.054-.292.145 0 .085.107.144.256.144.164 0 .197-.057.197-.277a1.162 1.162 0 00-.161-.012zm1.56.446l-.047-.183c.709-.06 1.031-.284 1.031-.642a.375.375 0 00-.412-.399 6.602 6.602 0 00-.89.098l-.037-.192a6.752 6.752 0 01.939-.097.556.556 0 01.614.59c0 .469-.437.77-1.198.825zm.882-1.669a4.19 4.19 0 00-.894-.225l.046-.183a4.56 4.56 0 01.91.228zm.843.932h-.197a2.41 2.41 0 01-.059-.541 3.913 3.913 0 01.064-.647h.199a3.72 3.72 0 00-.064.64 1.66 1.66 0 00.026.308c.083-.102.197-.235.304-.363l.097.166c-.123.14-.254.294-.37.437zm.316.744l-.121-.161a1.05 1.05 0 00.709-1.157c0-.14-.01-.406-.031-.66h.206c.023.25.033.5.033.657a1.238 1.238 0 01-.796 1.32zm2.215-.104a1.465 1.465 0 00-.493-.295c-.005.287-.095.39-.363.39-.263 0-.434-.136-.434-.301 0-.174.175-.297.467-.297a.963.963 0 01.147.01c-.007-.242-.021-.603-.021-1.062h.182c0 .142.003.277.003.4h.618v.164h-.614c.005.215.01.396.012.533a1.64 1.64 0 01.595.325zm-.835-.349c-.192 0-.291.054-.291.145 0 .085.106.144.256.144.163 0 .197-.057.197-.277a1.171 1.171 0 00-.162-.012zm2.368.458a6.389 6.389 0 00-1.1-.915c-.077-.053-.105-.098-.105-.148 0-.044.021-.09.102-.149a7.876 7.876 0 001.026-.891l.164.144a9.441 9.441 0 01-.97.828c-.042.03-.059.047-.059.066 0 .021.014.031.052.057a6.683 6.683 0 011.046.856zM11.09 63.24a1.615 1.615 0 01-.717-.146l.092-.27a1.367 1.367 0 00.622.138.575.575 0 00.638-.609c0-.434-.355-.576-.717-.576a2.602 2.602 0 00-.512.05l.055-1.367h1.331v.274h-1.055l-.037.787a1.96 1.96 0 01.28-.022.866.866 0 01.973.837.876.876 0 01-.953.904zm2.757-1.011l-.174.22a8.785 8.785 0 00-.287-.53v1.559h-.28v-1.441a5.12 5.12 0 01-.403.822l-.198-.214a4.452 4.452 0 00.59-1.203h-.542v-.26h.553v-.494a3.571 3.571 0 01-.461.085l-.103-.242a3.386 3.386 0 001.144-.327l.157.22a3.124 3.124 0 01-.457.185v.573h.45v.26h-.45v.146c.167.22.355.48.46.641zm.567-1.385a2.981 2.981 0 01-.397 1.11l-.242-.113a2.624 2.624 0 00.386-1.043zm1.116 1.157a2.202 2.202 0 01-1.513 1.474l-.218-.22a1.929 1.929 0 001.458-1.34zm-.601-1.797v1.83c0 .163-.044.255-.188.28a2.21 2.21 0 01-.39.007l-.043-.266a2.43 2.43 0 00.27.003c.054-.003.071-.029.071-.075v-1.78zm.458.555a5.02 5.02 0 01.341 1.057l-.27.075a4.878 4.878 0 00-.314-1.06zm1.018-.449h.97v1.214h-.97v1.954h-.28v-3.167h.28zm.697.499v-.285h-.697v.285zm-.697.2v.295h.697v-.296zm1.79.779v1.227h-1.339v-1.227zm-1.083.516h.817V62h-.817zm0 .498h.817v-.317h-.817zm1.715-2.491h.119v2.797c0 .206-.052.328-.243.36a3.308 3.308 0 01-.467.003l-.048-.281a3.414 3.414 0 00.362.007c.089-.007.112-.05.112-.132v-1.541h-.993v-1.213h1.158zm-.165.498v-.285h-.717v.285zm-.717.2v.295h.717v-.296zm2.143 2.487a4.3 4.3 0 00-.69-.712l.181-.178a4.442 4.442 0 01.714.701zm.506-1.331v-1.659h.304v1.659zm.648 1.213l-.146-.256a1.305 1.305 0 001.072-1.445v-1.256h.31v1.26a1.576 1.576 0 01-1.236 1.697zm2.849-1.822a4.668 4.668 0 00-.997-.658l.174-.257a5.615 5.615 0 011.024.637zm-.82 1.708l-.092-.298a2.672 2.672 0 002.25-1.723l.226.213a2.918 2.918 0 01-2.383 1.808zm3.758-2.394h1.324a3.006 3.006 0 01-1.868 2.508l-.146-.238a2.564 2.564 0 001.639-2h-1.09a4.688 4.688 0 01-.88 1.131l-.212-.199a4.195 4.195 0 001.085-1.609h.308a4.606 4.606 0 01-.16.406zm1.198-.068a2.353 2.353 0 00-.25-.566l.168-.086a2.263 2.263 0 01.266.57zm.468-.058a2.236 2.236 0 00-.243-.565l.168-.09a2.435 2.435 0 01.26.581zm1.756 2.553l-.109-.256a1.138 1.138 0 001.045-1.186.94.94 0 00-.93-.982c-.139 1.267-.416 2.171-.894 2.171-.358 0-.641-.484-.641-.996a1.454 1.454 0 011.457-1.442 1.197 1.197 0 011.301 1.242 1.42 1.42 0 01-1.229 1.449zm-1.25-1.257c0 .363.171.68.356.68.232 0 .484-.666.6-1.833a1.158 1.158 0 00-.956 1.153zm3.263-.128v-.776h-.427v-.263h.427v-.67h.273v.67H33v.263h-.263v.687c.092-.032.181-.06.26-.089l.023.246a8.96 8.96 0 01-.283.113v1.047c0 .189-.051.299-.219.328a2.133 2.133 0 01-.382.006l-.048-.277a2.792 2.792 0 00.284.007c.071-.007.092-.043.092-.107v-.9a18.84 18.84 0 00-.403.146l-.062-.285c.117-.036.287-.089.465-.146zm1.154 1.228v-1.356h-.236a3.494 3.494 0 01-.368 1.655l-.243-.153a3.153 3.153 0 00.348-1.634V60.3h2.032v.26h-1.766v.971h1.766v.253h-.796a3.57 3.57 0 00.154.598 3.994 3.994 0 00.471-.441l.185.181a5.186 5.186 0 01-.56.473 1.37 1.37 0 00.597.641l-.191.242a2.27 2.27 0 01-.902-1.694h-.235v1.31c.208-.043.427-.085.59-.121l.025.238c-.315.079-.793.189-1.07.246l-.071-.267c.075-.014.168-.029.27-.05zm1.284-2.235v.245h-1.335v-.245zm1.166 1.398h-.284a3.742 3.742 0 01-.085-.811 6.105 6.105 0 01.092-.971h.287a5.78 5.78 0 00-.092.96 2.58 2.58 0 00.037.463c.12-.153.284-.352.437-.544l.14.249c-.177.21-.365.441-.532.654zm.454 1.118l-.175-.242a1.584 1.584 0 001.021-1.737c0-.21-.013-.608-.044-.989h.297c.034.374.048.75.048.986a1.87 1.87 0 01-1.147 1.982zm2.152-.943v-1.584h-.488v-.263h1.246v.263h-.475v1.499c.178-.054.348-.107.492-.154l.024.253c-.369.135-.932.328-1.253.43l-.072-.298c.133-.036.325-.085.526-.146zm2.673.74l-.211.257a2.351 2.351 0 01-.854-.684 3.118 3.118 0 01-.95.684l-.197-.243a2.821 2.821 0 00.976-.683 3.712 3.712 0 01-.427-1.035 3.61 3.61 0 01-.27.444l-.224-.181a3.446 3.446 0 00.61-1.577l.284.05a5.36 5.36 0 01-.133.59h1.355v.271h-.34a3.1 3.1 0 01-.496 1.445 2.121 2.121 0 00.877.663zm-1.051-.914a2.74 2.74 0 00.372-1.193h-.792a3.628 3.628 0 00.42 1.193zm2.706.487v-.228h-1.13v-.181h1.13v-.21c-.318.022-.639.028-.898.022l-.059-.182a10.004 10.004 0 002.056-.15l.089.175a8.432 8.432 0 01-.895.114v.23h1.161v.182h-1.16v.228h1.43v.182h-1.43v.238c0 .15-.045.235-.182.257a3.661 3.661 0 01-.502.007l-.037-.22c.12.006.304.006.355.003.054-.004.072-.029.072-.079v-.206h-1.418v-.182zm-.755-1.167v-.15h-.54v-.79h.54v-.146h-.625v-.163h.625v-.171h.256v.17h.625v.164h-.625v.146h.56v.79h-.56v.15h.639v.164h-.64v.153h-.255v-.153h-.66v-.164zm-.317-.612h.317v-.175h-.317zm0 .31h.317v-.182h-.317zm.898-.31v-.175h-.325v.175zm0 .31v-.182h-.325v.181zm1.335-1.047h.116v.238c0 .086.01.104.054.104h.127c.047 0 .051-.011.054-.186l.226.043c-.02.324-.065.363-.256.367h-.178c-.222-.007-.266-.068-.266-.328v-.046h-.414v.018a.525.525 0 01-.276.456l-.226-.129c.195-.107.263-.21.263-.338v-.199h.776zm.556 1.47l-.137.203a2.668 2.668 0 01-.696-.246 2.705 2.705 0 01-.574.242l-.154-.181a2.138 2.138 0 00.523-.19 1.41 1.41 0 01-.341-.348l.188-.075h-.274v-.192h1.059c.01.004.02.007.177.046a1.218 1.218 0 01-.403.556 2.371 2.371 0 00.632.185zm-.837-.296a1.038 1.038 0 00.28-.299h-.61a1.204 1.204 0 00.33.3zm2.218-.306h.228c.502 0 .683.228.683.766a2.558 2.558 0 01-.218 1.164.437.437 0 01-.454.26 1.24 1.24 0 01-.482-.108l.034-.249a1.175 1.175 0 00.41.093.243.243 0 00.24-.121 2.195 2.195 0 00.19-1.04c0-.359-.116-.508-.444-.508-.071 0-.153 0-.242.003a6.899 6.899 0 01-.72 1.933l-.243-.143a6.176 6.176 0 00.676-1.783c-.208.004-.437.014-.676.025l-.013-.256c.273-.014.522-.021.744-.029a7.045 7.045 0 00.11-.79h.29a8.39 8.39 0 01-.113.783zm1.256-.242a2.268 2.268 0 00-.246-.587l.168-.089a2.33 2.33 0 01.266.598zm.3 1.712a2.585 2.585 0 00-.46-1.487l.222-.143a2.816 2.816 0 01.529 1.63zm.147-1.83a2.159 2.159 0 00-.249-.572l.168-.093a2.423 2.423 0 01.266.584zm1.443.994h.133c-.04 1.014-.092 1.545-.211 1.64a.36.36 0 01-.212.061c-.095.004-.297-.004-.42-.007l-.038-.278c.11.004.298.011.383.007a.122.122 0 00.078-.024 3.355 3.355 0 00.13-1.143h-.45a4.52 4.52 0 01-.031.203l-.253-.014c.051-.285.113-.801.14-1.15h.615v-.512h-.738v-.253h1.011v1.014h-.652c-.017.15-.038.306-.055.456h.57zm1.093 1.303v-.552h-.748v-1.011h.748V61.2c-.297.022-.584.04-.792.054l-.055-.257c.075 0 .16-.003.26-.007a5.663 5.663 0 00.41-.786l.273.081a7.547 7.547 0 01-.39.691c.324-.014.694-.032.994-.05a5.476 5.476 0 00-.331-.399l.201-.128a3.65 3.65 0 01.611.79l-.232.136a3.542 3.542 0 00-.102-.185c-.168.014-.366.028-.567.042v.335h.778v1.01h-.778v.535c.164-.011.32-.021.464-.032a4.672 4.672 0 00-.222-.356l.208-.1a3.457 3.457 0 01.455.797l-.24.104a1.92 1.92 0 00-.084-.214c-.492.05-1.244.114-1.663.146l-.069-.274c.215-.01.54-.032.87-.053zm-.485-.773h.485v-.57h-.485zm1.274 0v-.57h-.51v.57zm3.402-1.252h.15a6.312 6.312 0 01-.287 2.32.42.42 0 01-.277.09c-.122.003-.389 0-.546-.008l-.05-.3c.153.011.405.015.521.011a.177.177 0 00.127-.042 5.74 5.74 0 00.198-1.79h-.997a2.631 2.631 0 01-1.294 2.128l-.233-.224a2.3 2.3 0 001.24-1.904h-1.161v-.281h1.191c.024-.282.028-.566.031-.844l.294.003a11.42 11.42 0 01-.038.84h1.13zm.762 2.206a6.338 6.338 0 01-.112-1.288 9.478 9.478 0 01.109-1.396h.287a10.734 10.734 0 00-.11 1.389 6.595 6.595 0 00.11 1.249zm1.749-.1c-.817 0-1.124-.17-1.124-.505a1.067 1.067 0 01.284-.648l.235.118a.835.835 0 00-.239.491c0 .185.232.274.844.274.164 0 .34-.004.529-.021v.27a5.486 5.486 0 01-.53.021zm-1.052-2.014v-.267h1.56v.267zm3.016-.192h.598v.26h-.663a6.06 6.06 0 01-.665 1.626l-.26-.153a5.32 5.32 0 00.625-1.474h-.587v-.26h.648a5.272 5.272 0 00.11-.65h.303a6.868 6.868 0 01-.109.65zm1.7 2.167a2.102 2.102 0 00-.55-.363v.043c0 .438-.173.598-.583.598-.393 0-.703-.207-.703-.51 0-.305.287-.505.734-.505a1.466 1.466 0 01.28.025v-.978h.273v1.05a2.305 2.305 0 01.707.416zm-1.116-.487c-.273 0-.471.092-.471.26 0 .16.194.26.427.26.249 0 .338-.079.338-.35v-.138a1.355 1.355 0 00-.294-.032zm1.188-1.3a2.887 2.887 0 00-.921-.387l.095-.253a3.41 3.41 0 01.953.384zm1.723 2.068c-.485 0-.789-.21-.789-.516 0-.249.222-.445.556-.445a.754.754 0 01.724.62.644.644 0 00.444-.59c0-.35-.276-.585-.778-.585a1.354 1.354 0 00-.605.135 3.859 3.859 0 00-.798.609l-.178-.22c.232-.196.57-.474.799-.695.242-.231.69-.655.953-.929H61.53v-.266h1.735v.234c-.308.306-.772.737-.998.965a1.264 1.264 0 01.454-.086c.646 0 .994.335.994.83 0 .551-.502.94-1.215.94zm-.243-.722c-.194 0-.297.092-.297.217 0 .16.188.26.509.26a1.358 1.358 0 00.276-.025c-.078-.267-.239-.452-.488-.452zm2.166.822a.43.43 0 11.417-.423.425.425 0 01-.417.423zm0-.712a.285.285 0 10.273.289.279.279 0 00-.273-.289zM20.886 15.74l-.602-.436a5.152 5.152 0 001.224-3.32h.74a6.211 6.211 0 01-1.362 3.757zm3.505-.004a6.234 6.234 0 01-1.383-3.753h.74a4.927 4.927 0 001.265 3.233zm1.655-1.578v-2.436h.73v2.436zm1.156 1.778l-.35-.596c1.275-.365 1.522-.992 1.522-1.897v-1.85h.745v1.85a2.36 2.36 0 01-1.917 2.493zm4.178-.016l-.323-.585c1.156-.242 1.367-.597 1.393-1.62h-2v-.637h4.333v.638H33.18a1.956 1.956 0 01-1.8 2.205zm-.303-3.52v-.638h3.08v.638zm4.801 3.366l-.596-.431a4.946 4.946 0 001.238-3.295h.725a6.082 6.082 0 01-1.367 3.726zm3.449 0a6.069 6.069 0 01-1.388-3.726h.73a4.644 4.644 0 001.27 3.207zm.144-3.29a.62.62 0 010-1.238.62.62 0 110 1.239zm.005-.924a.309.309 0 10.303.308.306.306 0 00-.303-.308zM42.05 15.9l-.282-.601a2.407 2.407 0 002.148-2.71h-2.23v1.265h-.72v-1.901h3.731c0 2.328-.72 3.572-2.647 3.947zm3.433-1.737v-.725h4.082v.725zm7.371.047l-.35-.546a1.522 1.522 0 001.039-1.182h-3.326v-.611h4.21a2.623 2.623 0 01-1.573 2.338zm-1.892 1.71l-.36-.555c.993-.37 1.162-.868 1.162-1.85v-.699h.72v.704a2.184 2.184 0 01-1.522 2.4zm4.698-1.588a8.397 8.397 0 00-.447-1.346l.555-.216a9.084 9.084 0 01.514 1.336zm.483 1.625l-.334-.54a2.574 2.574 0 002.05-2.694h.67a3.22 3.22 0 01-2.386 3.234zm.571-1.79a7.71 7.71 0 00-.442-1.34l.56-.222a9.012 9.012 0 01.504 1.337zm3.685 1.692l-.34-.622a2.75 2.75 0 002.447-2.483h-2.852v-.647h3.418a.61.61 0 11.478.231.543.543 0 01-.186-.03c-.267 1.952-1.11 3.15-2.965 3.55zm3.156-4.43a.3.3 0 10.298.298.3.3 0 00-.298-.299zM11.91 15.175a1.223 1.223 0 01.057-.19.464.464 0 00-.172.164.653.653 0 00-.035.537.298.298 0 00.14.188.173.173 0 00.107.004 1.049 1.049 0 01-.097-.703zm.597.708a.528.528 0 01-.087-.16 1.255 1.255 0 01-.001-.974.35.35 0 00-.084.026l-.012.006c-.094.048-.21.109-.28.423a.877.877 0 00.123.669.203.203 0 00.137.093.259.259 0 00.204-.083zm.327-.831a1.094 1.094 0 01.104-.52.563.563 0 00-.176.048.402.402 0 00-.137.103 1.004 1.004 0 00-.076.996.301.301 0 00.235.22.297.297 0 00.27-.128.804.804 0 01-.147-.272 1.573 1.573 0 01-.073-.447zm2.042-1.112c-.13-.1-.349.002-.465.164a.971.971 0 00-.074.738c.059.375-.112.439-.258.596-.182.195-.405.446-.304.746l.022.084a.068.068 0 01-.13.04v-.002l-.001-.003V16.3l-.003-.008a3.326 3.326 0 01-.03-.112 1.44 1.44 0 01-1.081-.126.05.05 0 00-.047 0l-.023.011-.001.001a.053.053 0 00-.004.095q.085.044.173.08l.17.364c.062.133.26.221.365.27s.274.046.29.08l.078.166a.123.123 0 00.111.07l1.389.002a.123.123 0 00.108-.18 53.754 53.754 0 00-.257-.481c-.14-.258-.066-.32-.003-.412.024-.035.049-.07.072-.108a1.177 1.177 0 00.08-.994c-.032-.164-.071-.309-.103-.465-.047-.235.093-.486-.074-.614zm-3.603.753a2.633 2.633 0 01-.207-1.963 1.53 1.53 0 01.813-.879c.766-.357 1.896.039 2.572 1.487l.058.132a1.689 1.689 0 01-.938.253 2.018 2.018 0 00-1.012-1.076.679.679 0 00-.53-.008.788.788 0 00-.41.734 2.535 2.535 0 00.269 1.132 2.012 2.012 0 00.132.237.065.065 0 00.098.013.066.066 0 00.012-.085 1.86 1.86 0 01-.123-.22 2.404 2.404 0 01-.256-1.071.673.673 0 01.333-.62.552.552 0 01.429.011 1.892 1.892 0 01.944 1.021l.012.028.033.081.003.008.03.084.001.003.029.089v.004a.875.875 0 01.021.073l.012.047.006.024.003.017a.615.615 0 00-.402.156.79.79 0 00-.234.647 1.438 1.438 0 00.065.403.55.55 0 00.18.28.222.222 0 00.208.023.227.227 0 00.152-.306 2.256 2.256 0 00-.146-.418.067.067 0 01.034-.089h.001a.068.068 0 01.09.035c.025.055.045.105.064.153l.015.04.017.048.03.093a1.502 1.502 0 00.113-.712 1.855 1.855 0 00.32-.007.065.065 0 00.058-.065v-.001a.065.065 0 00-.072-.064 1.712 1.712 0 01-.318.004 2.544 2.544 0 00-.157-.615 1.821 1.821 0 00.932-.258c.016.044.03.087.044.13a.066.066 0 00.076.046.065.065 0 00.05-.083 3.195 3.195 0 00-.157-.407c-.712-1.526-1.92-1.935-2.746-1.55a1.659 1.659 0 00-.882.953 2.725 2.725 0 00.212 2.064 3.162 3.162 0 00.332.545.064.064 0 00.115-.025v-.001a.065.065 0 00-.01-.054 3.062 3.062 0 01-.318-.521z"/><path d="M17.26 11.799a1.659 1.659 0 00-1.297-.063 2.531 2.531 0 00-1.254 1.127.066.066 0 00-.001.065v.001a.065.065 0 00.113.004 2.44 2.44 0 011.187-1.073 1.53 1.53 0 011.196.058c.766.357 1.188 1.477.514 2.926l-.064.13a1.689 1.689 0 01-.797-.556 2.018 2.018 0 00.174-1.467.679.679 0 00-.335-.412.788.788 0 00-.825.158 2.536 2.536 0 00-.695.934 1.505 1.505 0 00-.038.088.065.065 0 00.021.075.066.066 0 00.102-.027.836.836 0 01.034-.08 2.404 2.404 0 01.656-.885.673.673 0 01.689-.144.552.552 0 01.267.336 1.892 1.892 0 01-.175 1.38l-.014.027-.041.077-.004.007q-.022.04-.045.077l-.001.003-.05.08-.002.003a2.501 2.501 0 01-.043.062l-.03.04-.013.02-.012.013a.615.615 0 00-.378-.208.79.79 0 00-.646.237 1.31 1.31 0 00-.129.127v.001a2.078 2.078 0 01.065.706.292.292 0 00.147-.114 2.254 2.254 0 00.226-.38.067.067 0 01.09-.031h.001a.068.068 0 01.031.092 3.605 3.605 0 01-.076.147l-.02.037-.027.045a2.04 2.04 0 01-.052.082 1.502 1.502 0 00.618-.371 1.855 1.855 0 00.21.24.065.065 0 00.088.003h.001a.065.065 0 00.003-.097 1.712 1.712 0 01-.208-.24 2.544 2.544 0 00.37-.516 1.821 1.821 0 00.797.548c-.023.04-.047.08-.072.117a.066.066 0 00.014.088h.001a.065.065 0 00.096-.014 3.194 3.194 0 00.21-.383c.711-1.527.248-2.715-.578-3.1zm-1.97 2.978c.027-.027.053-.05.076-.07a1.094 1.094 0 01.464-.254.563.563 0 00-.15-.104.402.402 0 00-.166-.04.672.672 0 00-.289.065.466.466 0 00.002.124c.013.067.028.132.044.2zm1.816.529c-.137.01-.327.089-.614.417-.25.287-.407.197-.622.186a1.207 1.207 0 00-.558.062 1.148 1.148 0 01-.102.195v.001a1.849 1.849 0 01-.035.054l-.061.095a.623.623 0 00.038.082l.351.63a.106.106 0 00.17.022.263.263 0 01.202-.072c.042-.004.085-.008.129-.015a1.177 1.177 0 00.813-.578c.105-.13.19-.252.29-.377.15-.187.432-.241.423-.451-.007-.164-.226-.266-.424-.251z" fill="#a9d8e5"/><path class="cls-4" d="M13.423 11.21l-1.01-.011a.063.063 0 01-.059-.087l.373-.94a.063.063 0 01.111-.011l.639.95a.063.063 0 01-.054.1z"/><path class="cls-4" d="M15.905 10.969a2.423 2.423 0 00-2.8 0l-.293-.41a2.936 2.936 0 013.386 0z"/><path class="cls-4" d="M15.587 11.21l1.01-.011a.063.063 0 00.059-.087l-.372-.94a.063.063 0 00-.112-.011l-.638.95a.063.063 0 00.053.1zm19.616 27.179h-.316v-4.327a.158.158 0 01.079-.136.153.153 0 01.158 0l3.745 2.162-.158.273-3.508-2.025z"/><path class="cls-4" transform="rotate(-59.995 56.438 32.67)" d="M56.28 29.894h.316v5.554h-.316z"/><path class="cls-4" d="M35.124 34.196l-.158-.273 11.897-6.871a.153.153 0 01.158 0l3.748 2.163-.159.273-3.668-2.117zm11.818 17.281a.153.153 0 01-.079-.022l-11.897-6.871a.158.158 0 01-.08-.137V42.25a.158.158 0 01.317 0v2.106l11.581 6.688V41.022l-4.728-2.729a.158.158 0 01-.058-.216.156.156 0 01.216-.057l4.807 2.774a.158.158 0 01.08.137v10.387a.158.158 0 01-.08.137.153.153 0 01-.079.022z"/><path class="cls-4" d="M47.021 51.455l-.158-.273 11.822-6.826V34.334l-3.434 1.982-.158-.273 3.67-2.12a.153.153 0 01.159 0 .158.158 0 01.079.137v10.387a.158.158 0 01-.08.137z"/><path class="cls-4" transform="rotate(-30.052 49.384 39.521)" d="M46.565 39.363h5.639v.316h-5.639z"/><path class="cls-2" d="M53.497 40.064a.972.972 0 01-.493-.132l-6.482-3.743a.988.988 0 11.989-1.71l6.481 3.742a.988.988 0 01-.495 1.843zm-9.829-5.674a.972.972 0 01-.493-.133L21.782 21.904c-.965-.556-1.12-1.967-.362-3.282.76-1.314 2.06-1.884 3.024-1.328L47.51 30.612a.988.988 0 11-.988 1.711L23.603 19.091a1.664 1.664 0 00-.686 1.186l21.246 12.269a.988.988 0 01-.495 1.844zm11.502 2.776a.972.972 0 01-.493-.133l-4.81-2.777a.988.988 0 11.988-1.711l4.81 2.777a.988.988 0 01-.495 1.844z"/><path class="cls-2" d="M53.803 40.145a1.584 1.584 0 01-.8-.212c-.964-.558-1.12-1.97-.361-3.284a3.393 3.393 0 011.199-1.245 1.696 1.696 0 012.666 1.54 3.407 3.407 0 01-.479 1.66v.001a2.76 2.76 0 01-2.225 1.54zm1.369-2.035z"/><path class="cls-4" d="M53.498 39.234a.156.156 0 01-.079-.021l-6.481-3.742a.158.158 0 01-.058-.216.156.156 0 01.216-.058l6.481 3.742a.158.158 0 01-.079.295zm-9.829-5.674a.156.156 0 01-.08-.022L22.198 21.186c-.546-.315-.571-1.26-.057-2.149s1.344-1.338 1.89-1.023L47.093 31.33a.158.158 0 11-.158.273L23.87 18.287c-.378-.216-1.047.198-1.458.908-.41.712-.436 1.498-.058 1.717l21.393 12.353a.158.158 0 01-.079.295zm11.501 2.776a.156.156 0 01-.078-.022l-4.81-2.777a.158.158 0 01-.057-.216.156.156 0 01.215-.057l4.81 2.777a.158.158 0 01-.08.295z"/><path class="cls-4" d="M53.806 39.313a.762.762 0 01-.387-.1c-.546-.315-.571-1.259-.058-2.149a2.557 2.557 0 01.895-.94.876.876 0 011.42.82 2.567 2.567 0 01-.367 1.245 1.986 1.986 0 01-1.503 1.124zm1.056-3.056a.92.92 0 00-.449.14 2.252 2.252 0 00-.778.826c-.41.712-.437 1.498-.058 1.716.381.216 1.047-.198 1.458-.908a2.246 2.246 0 00.325-1.088.685.685 0 00-.268-.629.46.46 0 00-.23-.057zm.31 1.853zm-23.014 2.993a.157.157 0 01-.102-.039 10.384 10.384 0 01-3.08-4.186.157.157 0 01.092-.203.154.154 0 01.203.092 10.087 10.087 0 002.99 4.057.158.158 0 01.017.223.156.156 0 01-.12.056zm1.468-.233a.16.16 0 01-.094-.031c-2.588-1.899-3.956-4.242-3.956-6.78a7.201 7.201 0 011.235-3.982.158.158 0 11.265.172 6.898 6.898 0 00-1.183 3.81c0 2.433 1.323 4.69 3.827 6.524a.158.158 0 01-.094.286z"/><path class="cls-4" d="M34.169 39.846a.156.156 0 01-.095-.033c-2.209-1.659-3.377-3.649-3.377-5.753a.158.158 0 01.317 0c0 2 1.124 3.903 3.25 5.502a.157.157 0 01.031.22.155.155 0 01-.126.064zm1.079-.612a.156.156 0 01-.089-.027 10.074 10.074 0 01-1.731-1.473q-.22-.235-.411-.482a.158.158 0 11.248-.195c.124.156.255.311.395.463a9.716 9.716 0 001.677 1.425.158.158 0 01-.089.29zm26.282-1.921a.166.166 0 01-.071-.017.16.16 0 01-.07-.213 6.564 6.564 0 00.335-5.276.158.158 0 01.297-.108 6.903 6.903 0 01.42 2.36 6.988 6.988 0 01-.77 3.167.16.16 0 01-.14.087zm-4.686 3.191a.158.158 0 01-.08-.295c2.733-1.604 4.239-3.788 4.239-6.15a5.759 5.759 0 00-.91-3.068.158.158 0 11.27-.166 6.074 6.074 0 01.956 3.235c0 2.478-1.561 4.76-4.395 6.422a.16.16 0 01-.08.022z"/><path class="cls-4" d="M59.625 36.115a.166.166 0 01-.064-.013.158.158 0 01-.08-.21 4.474 4.474 0 00.4-1.832 4.39 4.39 0 00-.211-1.34.158.158 0 01.3-.097 4.683 4.683 0 01.228 1.437 4.798 4.798 0 01-.428 1.961.159.159 0 01-.145.094zM24.03 48.788l-.159-.273 31.22-18.028a.529.529 0 00.234-.339 1.962 1.962 0 00-.29-1.377c-.41-.71-1.077-1.127-1.458-.909L22.355 45.89l-.158-.274L53.42 27.59c.549-.318 1.376.137 1.89 1.024a2.247 2.247 0 01.322 1.617.839.839 0 01-.381.53z"/><path class="cls-4" d="M23.642 48.889a1.984 1.984 0 01-1.502-1.124c-.514-.89-.489-1.834.057-2.149.545-.316 1.376.133 1.89 1.024.514.89.488 1.834-.058 2.148a.763.763 0 01-.387.1zm-1.229-1.283c.411.71 1.08 1.125 1.458.909.379-.22.353-1.005-.058-1.717-.41-.711-1.08-1.121-1.458-.908-.378.218-.352 1.005.058 1.716z"/><path d="M30.054 45.587c.24 1.018 1.285 1.902 3.206 2.984-4.587.308-5.367 1.48-4.219 5.963-3.549-2.97-5.855-2.256-8.111 1.749-.31-4.587-.568-5.882-5.051-4.733 2.97-3.55 2.77-4.943-1.234-7.2 4.586-.308 5.367-1.48 4.218-5.963 3.55 2.97 4.943 2.771 7.2-1.234.164 2.45.576 3.814 1.606 4.378" stroke="#00afca" stroke-linecap="round" stroke-linejoin="round" stroke-width=".316" fill="none"/><path class="cls-2" d="M25.035 54.073a.988.988 0 01-.888-.553c-.22-.45-.89-1.82-1.435-1.954-.363-.088-1.067.26-2.108 1.034a.989.989 0 01-1.516-1.135c.447-1.217.581-1.995.396-2.314-.28-.486-1.785-.74-2.279-.825a.988.988 0 01-.268-1.862c.45-.22 1.82-.89 1.953-1.437.087-.357-.261-1.066-1.034-2.107a.989.989 0 011.135-1.517c1.218.449 1.998.582 2.314.397.486-.281.742-1.785.826-2.28a.988.988 0 011.862-.267c.22.45.89 1.82 1.436 1.953q.542.126 2.107-1.033a.989.989 0 011.517 1.135c-.448 1.216-.581 1.994-.397 2.312.282.486 1.785.742 2.28.826a.988.988 0 01.268 1.863c-.451.22-1.821.89-1.954 1.435-.087.358.26 1.067 1.033 2.108a.989.989 0 01-1.135 1.516c-1.216-.447-1.997-.58-2.312-.395-.486.28-.742 1.784-.826 2.278a.99.99 0 01-.834.812.973.973 0 01-.14.01zm-2.431-4.496a2.413 2.413 0 01.576.069 2.883 2.883 0 011.502.982 2.659 2.659 0 012.782-1.703 2.829 2.829 0 01-.134-1.648 2.876 2.876 0 01.983-1.503 2.88 2.88 0 01-1.368-1.163 2.835 2.835 0 01-.336-1.619 2.833 2.833 0 01-1.648.135 2.883 2.883 0 01-1.502-.982 2.888 2.888 0 01-1.163 1.366 2.839 2.839 0 01-1.62.336 2.83 2.83 0 01.135 1.647 2.876 2.876 0 01-.983 1.503 2.873 2.873 0 011.366 1.163 2.83 2.83 0 01.337 1.62 3.177 3.177 0 011.073-.203z"/><path class="cls-4" d="M25.035 53.243a.158.158 0 01-.141-.089c-.754-1.54-1.33-2.234-1.986-2.394-.646-.156-1.46.18-2.799 1.173a.158.158 0 01-.242-.182c.574-1.563.672-2.436.336-3.016-.339-.585-1.167-.94-2.858-1.227a.158.158 0 01-.043-.298c1.54-.755 2.235-1.33 2.395-1.986.158-.652-.181-1.462-1.174-2.798a.158.158 0 010-.19.156.156 0 01.182-.053c1.562.573 2.434.669 3.016.336.585-.34.94-1.167 1.228-2.859a.158.158 0 01.298-.043c.754 1.542 1.33 2.236 1.985 2.396.657.159 1.461-.181 2.8-1.173a.158.158 0 01.241.181c-.574 1.562-.671 2.435-.336 3.015.34.585 1.167.94 2.859 1.229a.158.158 0 01.043.297c-1.541.754-2.235 1.33-2.396 1.986-.158.651.182 1.462 1.173 2.799a.157.157 0 010 .188.16.16 0 01-.181.054c-1.562-.574-2.437-.672-3.016-.335-.584.339-.94 1.166-1.228 2.857a.159.159 0 01-.133.13zm-2.44-2.837a1.642 1.642 0 01.388.046c.7.171 1.273.782 1.98 2.14.298-1.503.675-2.251 1.298-2.612.604-.35 1.435-.311 2.806.145-.825-1.187-1.095-1.974-.93-2.651.17-.7.781-1.274 2.14-1.982-1.504-.297-2.252-.674-2.613-1.297-.35-.604-.311-1.435.146-2.806-1.186.824-1.968 1.095-2.653.931-.699-.17-1.272-.782-1.98-2.141-.297 1.504-.674 2.252-1.297 2.613-.605.352-1.436.312-2.808-.146.825 1.187 1.097 1.974.932 2.652-.17.7-.781 1.273-2.14 1.982 1.503.296 2.251.673 2.613 1.296.35.605.311 1.436-.146 2.808a4.263 4.263 0 012.264-.978z"/><path class="cls-2" d="M22.276 38.488a.988.988 0 01-.94-.685 15.626 15.626 0 01-.035-9.872 15.196 15.196 0 014.664-6.764.989.989 0 111.28 1.508 13.251 13.251 0 00-4.073 5.89 13.682 13.682 0 00.045 8.632.987.987 0 01-.638 1.243.96.96 0 01-.303.048z"/><path class="cls-4" d="M26.418 22.24a.157.157 0 01-.118-.052.16.16 0 01.013-.224c.062-.056.125-.11.189-.164a.163.163 0 01.224.018.16.16 0 01-.019.224 9.843 9.843 0 00-.184.158.162.162 0 01-.105.04zm-4.504 14.114a.16.16 0 01-.154-.123c-.036-.153-.07-.31-.103-.465a.159.159 0 01.124-.187.156.156 0 01.187.124c.03.152.064.305.1.456a.16.16 0 01-.118.19.152.152 0 01-.036.005zm-.262-1.394a.158.158 0 01-.156-.136 13.009 13.009 0 01-.06-.473.158.158 0 01.14-.175.154.154 0 01.174.14c.018.154.037.309.059.463a.157.157 0 01-.134.18zm-.133-1.41a.159.159 0 01-.159-.15 15.38 15.38 0 01-.014-.48.159.159 0 01.156-.16.147.147 0 01.16.157c.002.155.007.31.015.467a.16.16 0 01-.15.166zm.002-1.418h-.008a.159.159 0 01-.15-.167c.01-.158.02-.317.034-.476a.15.15 0 01.171-.143.157.157 0 01.144.17 15.14 15.14 0 00-.032.466.16.16 0 01-.159.15zm.147-1.41l-.025-.001a.16.16 0 01-.131-.182c.025-.156.052-.313.082-.47a.158.158 0 01.31.059c-.029.154-.054.308-.08.462a.158.158 0 01-.156.133zm.289-1.387a.187.187 0 01-.04-.005.16.16 0 01-.113-.193c.04-.155.084-.307.13-.46a.158.158 0 11.302.09c-.044.149-.087.3-.126.45a.158.158 0 01-.153.118zm.43-1.35a.141.141 0 01-.055-.011.158.158 0 01-.093-.203q.085-.225.176-.445a.161.161 0 01.207-.086.16.16 0 01.086.207c-.06.145-.117.29-.173.435a.157.157 0 01-.147.102zm.566-1.3a.165.165 0 01-.07-.017.158.158 0 01-.072-.212q.107-.214.221-.424a.154.154 0 01.214-.063.157.157 0 01.064.214q-.112.206-.215.414a.16.16 0 01-.142.088zm.696-1.234a.155.155 0 01-.084-.024.157.157 0 01-.05-.218q.128-.204.263-.4a.158.158 0 01.262.177q-.132.194-.257.391a.158.158 0 01-.134.074zm.818-1.158a.158.158 0 01-.125-.256c.097-.125.199-.249.302-.37a.158.158 0 11.242.202c-.1.12-.199.24-.294.363a.158.158 0 01-.125.061zm.928-1.071a.158.158 0 01-.115-.267c.11-.116.22-.23.334-.342a.158.158 0 01.223.225q-.167.165-.328.334a.154.154 0 01-.114.05zm-3.166 14.285a.158.158 0 01-.152-.111l-.071-.238a.158.158 0 11.303-.09l.07.234a.159.159 0 01-.104.198.156.156 0 01-.046.007z"/><path class="cls-4" d="M22.233 37.545a.2.2 0 01-.102-.028l-1.333-.81a.198.198 0 01.205-.338l1.151.7.614-1.2a.197.197 0 11.351.18l-.71 1.388a.2.2 0 01-.122.101.203.203 0 01-.054.007z"/></g></g></svg>