<svg xmlns="http://www.w3.org/2000/svg" viewBox="0 0 75 75"><defs><style>.cls-3{fill:#675642}</style></defs><g id="レイヤー_2" data-name="レイヤー 2"><g id="レイヤー_2-2" data-name="レイヤー 2"><path d="M8.482 0h58.036A8.482 8.482 0 0175 8.482V75H0V8.482A8.482 8.482 0 018.482 0z" transform="rotate(90 37.5 37.5)" fill="none"/><path d="M5 5h61.518A3.482 3.482 0 0170 8.482v58.036A3.482 3.482 0 0166.518 70H5V5z" fill="#fff"/><path class="cls-3" d="M66.518 70.125H4.875V4.875h61.643a3.611 3.611 0 013.607 3.607v58.036a3.611 3.611 0 01-3.607 3.607zm-61.393-.25h61.393a3.36 3.36 0 003.357-3.357V8.482a3.361 3.361 0 00-3.357-3.357H5.125z"/><path class="cls-3" d="M39.197 26.098l15.198 10.45a1.156 1.156 0 010 1.905L39.197 48.902a1.156 1.156 0 01-1.812-.953V27.051a1.156 1.156 0 011.812-.953z"/><rect class="cls-3" x="20.104" y="32.901" width="21.605" height="9.198" rx="1.156"/><path class="cls-3" d="M36.44 14.549a4.908 4.908 0 00-.687-.362 2.782 2.782 0 01-1.113 1.682l-.448-.468a2.193 2.193 0 00.943-1.449 4.559 4.559 0 00-1.097-.197c-.037.15-.074.298-.112.442-.213.873-.511 1.267-1.012 1.267a1.022 1.022 0 01-.927-1.096c0-.661.538-1.13 1.487-1.23.085-.4.17-.805.239-1.15h-1.177v-.618h2.04c-.144.66-.266 1.23-.389 1.757a6.01 6.01 0 011.033.176c.021-.282.032-.602.032-.964h.677a11.165 11.165 0 01-.054 1.171 6.275 6.275 0 01.879.4zm-3.83-.181c0 .255.134.452.278.452.165 0 .245-.213.378-.761l.064-.277c-.495.08-.72.287-.72.586zm8.371-.661q.12.28.256.527l-.686.213a9.908 9.908 0 01-.315-.74h-2.151v-.602h1.95a14.112 14.112 0 01-.166-.58h-1.55v-.602h1.412c-.048-.25-.096-.5-.14-.767h.725c.042.261.085.517.138.767h1.385v.602h-1.246c.048.197.106.394.165.58h1.369v.602zm-.271 2.136c-1.603 0-2.188-.389-2.188-.953a1.586 1.586 0 01.165-.677l.66.112a1.145 1.145 0 00-.128.48c0 .276.437.393 1.443.393.133 0 .367 0 .608-.01v.644c-.193.005-.421.01-.56.01zm.597-3.968a3.077 3.077 0 00-.41-.814l.394-.198a3.403 3.403 0 01.452.826zm.81-.032a3.158 3.158 0 00-.395-.814l.388-.208a3.27 3.27 0 01.438.841zM16.633 63.687l.111.916-.285.029-.111-.922-1.182.095-.022-.25 1.173-.091-.082-.702-1 .079-.02-.25.991-.075-.089-.725.286-.026.088.731.985-.075.016.243-.97.075.082.702 1.069-.082.016.243zm1.472.745v-.246h1.47l.095-1.201h-1.26v-.246h1.559l-.121 1.447h.557v.246zm2.821-.978v-.295h2.578v.295zm3.454 1.106l-.137-.25a1.994 1.994 0 001.673-1.791h-1.945v-.266h2.3a2.377 2.377 0 01-1.89 2.307zm1.782-2.37a1.951 1.951 0 00-.236-.501l.16-.079a2.07 2.07 0 01.257.509zm.456-.022a1.82 1.82 0 00-.233-.512l.164-.082a2.096 2.096 0 01.249.522zm1.292.387h.22c.481 0 .655.21.655.706a2.269 2.269 0 01-.21 1.072.421.421 0 01-.435.24 1.23 1.23 0 01-.463-.099l.033-.23a1.163 1.163 0 00.393.086.237.237 0 00.23-.112 1.958 1.958 0 00.184-.957c0-.332-.112-.47-.427-.47-.069 0-.148 0-.233.003a6.24 6.24 0 01-.692 1.782l-.233-.131a5.574 5.574 0 00.65-1.644c-.2.004-.42.013-.65.023l-.013-.236c.263-.013.502-.02.715-.026a6.127 6.127 0 00.105-.728h.279a6.808 6.808 0 01-.109.721zm1.207-.223a2.069 2.069 0 00-.236-.541l.16-.082a2.074 2.074 0 01.256.55zm.288 1.578a2.31 2.31 0 00-.442-1.371l.213-.131a2.527 2.527 0 01.509 1.502zm.142-1.686a1.991 1.991 0 00-.24-.528l.16-.086a2.18 2.18 0 01.257.538zm1.459 2.339v.144h-.27v-1.085a4.016 4.016 0 01-.511.524 3.257 3.257 0 00-.2-.216 3.348 3.348 0 001.006-1.342h-.968v-.26h1.064a4.577 4.577 0 00.16-.642l.277.056a5.342 5.342 0 01-.149.587h1.667v.259h-1.759a3.682 3.682 0 01-.302.617h1.746v1.502h-.279v-.144zm1.482-.252v-.847h-1.482v.847zm1.222.196a5.65 5.65 0 01-.107-1.188 8.402 8.402 0 01.105-1.285h.275a9.591 9.591 0 00-.104 1.279 5.815 5.815 0 00.104 1.151zm1.68-.091c-.784 0-1.078-.158-1.078-.467a.964.964 0 01.272-.596l.227.107a.755.755 0 00-.23.454c0 .17.223.252.81.252.158 0 .328-.003.508-.02v.25a5.4 5.4 0 01-.508.02zm-1.01-1.857v-.246h1.5v.246zm3.35 1.886v-2.228l-.537.367-.138-.212.65-.447h.328v2.52zm1.796-.043v-.269H41.4v-1.627h-1.87v-.266h2.165v2.162zm4.406.148a7.136 7.136 0 00-1.342-1.15l.174-.203a7.026 7.026 0 01.695.515 2.885 2.885 0 001.066-1.292h-2.26v-.256h2.673a3.415 3.415 0 01-1.265 1.732c.174.157.338.312.475.456zm1.666-.043a5.65 5.65 0 01-.109-1.188 8.402 8.402 0 01.106-1.285h.275a9.591 9.591 0 00-.104 1.279 5.815 5.815 0 00.104 1.151zm1.68-.091c-.785 0-1.08-.158-1.08-.467a.964.964 0 01.273-.596l.226.107a.755.755 0 00-.23.454c0 .17.223.252.81.252.159 0 .328-.003.51-.02v.25a5.4 5.4 0 01-.51.02zm-1.01-1.857v-.246h1.499v.246zm3.184 1.443a.624.624 0 010-1.247.566.566 0 01.316.092v-.357h-1.569v-.25h1.569v-.485h.288v.485h.984v.25h-.984v.888c0 .748-.184 1.182-1.171 1.306l-.085-.233c.554-.065.803-.2.905-.508a.54.54 0 01-.253.059zm0-1.02c-.2 0-.324.16-.324.396 0 .237.124.394.324.394.197 0 .316-.173.316-.394 0-.226-.116-.397-.316-.397zm2.948 1.02a.624.624 0 010-1.247.566.566 0 01.316.092v-.357h-1.569v-.25h1.569v-.485h.288v.485h.984v.25h-.984v.888c0 .748-.184 1.182-1.171 1.306l-.085-.233c.555-.065.804-.2.905-.508a.54.54 0 01-.253.059zm0-1.02c-.2 0-.324.16-.324.396 0 .237.124.394.324.394.198 0 .316-.173.316-.394 0-.226-.115-.397-.316-.397zm2.369 1.037c-.289 0-.47-.19-.47-.565 0-.345.178-.567.47-.567a.46.46 0 01.226.055v-.34h-.669v-.244h.67v-.56h.265v.56h.643v.243h-.643v.857c0 .229-.069.39-.069.596 0 .23.174.319.59.319.486 0 .755-.096.755-.394a2.916 2.916 0 00-.085-.61h.259a2.84 2.84 0 01.085.627c0 .449-.358.623-1.03.623-.597 0-.836-.178-.836-.499a.82.82 0 01.01-.131.472.472 0 01-.171.03zm0-.916c-.155 0-.247.134-.247.351 0 .23.096.348.247.348.15 0 .246-.135.246-.348 0-.217-.095-.351-.246-.351zm2.253-.099a2.964 2.964 0 00-.721-.491l.144-.2a3.183 3.183 0 01.735.488zm2.64 1.477a2.806 2.806 0 00-.836-.492c-.01.462-.154.643-.588.643-.435 0-.724-.214-.724-.483 0-.282.292-.488.777-.488a2.3 2.3 0 01.259.016c-.01-.387-.035-1.05-.035-1.883h.275c0 .266.003.515.006.745h1.01v.246H58.8c.01.397.02.721.022.951a2.836 2.836 0 011.001.541zm-1.393-.584c-.319 0-.502.102-.502.256 0 .147.176.24.449.24.265 0 .334-.093.338-.473a1.636 1.636 0 00-.285-.023zm-27.224-4.306a2.504 2.504 0 01.402.185l-.086.17a2.311 2.311 0 00-.347-.174 1.165 1.165 0 01-.504.774l-.117-.129a1.024 1.024 0 00.45-.706 2.216 2.216 0 00-.586-.097l-.034.135c-.097.393-.212.603-.409.603a.378.378 0 01-.335-.404c0-.266.229-.47.631-.501.045-.197.088-.398.128-.59H29.7v-.167h.77c-.064.289-.117.529-.171.754a2.29 2.29 0 01.573.09 4.518 4.518 0 00.02-.453h.183a3.889 3.889 0 01-.03.51zm-1.396.355c0 .126.075.23.159.23.103 0 .16-.156.239-.465.007-.03.016-.059.022-.09-.289.031-.42.162-.42.325zm3.164-.348a2.991 2.991 0 00.135.287l-.18.06a3.814 3.814 0 01-.154-.347h-.948v-.165h.89a5.492 5.492 0 01-.097-.332h-.693v-.165h.652a5.91 5.91 0 01-.072-.37h.194c.02.124.043.248.07.37h.617v.165h-.577c.033.115.066.226.102.332h.594v.165zm-.07.942c-.598 0-.876-.147-.876-.38a.648.648 0 01.07-.275l.173.031a.535.535 0 00-.058.222c0 .155.242.228.68.228.056 0 .15 0 .246-.005v.174c-.082.002-.174.005-.235.005zm.325-1.656a1.422 1.422 0 00-.165-.357l.11-.056a1.54 1.54 0 01.18.363zm.31-.036a1.388 1.388 0 00-.163-.359l.111-.059a1.517 1.517 0 01.174.368z"/></g></g></svg>