<svg xmlns="http://www.w3.org/2000/svg" viewBox="0 0 75 75"><g data-name="レイヤー 2"><circle cx="37.5" cy="37.5" r="37.5" fill="none"/><path d="M5 37.5A32.5 32.5 0 1137.5 70 32.5 32.5 0 015 37.5z" fill="#c7d932"/><path d="M32.517 16.167a4.7 4.7 0 001.57 1.086l-.389.564a5.416 5.416 0 01-1.584-1.176 4.997 4.997 0 01-1.759 1.18l-.346-.52a4.186 4.186 0 002.513-2.528h-2.058v-.564h2.926a4.86 4.86 0 01-.873 1.958zm5.186 1.593c-.27 0-.617-.005-.792-.014-.816-.052-1.162-.413-1.162-1.147v-2.642h.669v1.451a8.627 8.627 0 002.157-.668l.266.574a11.756 11.756 0 01-2.423.668v.536c0 .432.08.545.54.597.119.015.432.029.617.033.175 0 .365 0 .573-.009.257-.004.513-.024.75-.043v.626a13.97 13.97 0 01-1.195.038zm1-3.12a.571.571 0 11.574-.573.57.57 0 01-.574.573zm.005-.853a.282.282 0 10.28.284.282.282 0 00-.28-.284zm3.488 1.74a5.915 5.915 0 00-1.385-.892l.39-.54a6.916 6.916 0 011.431.84zm-1.034 2.215l-.208-.636a3.651 3.651 0 003.096-2.238l.498.465a4.21 4.21 0 01-3.386 2.409zm-1.829 37.411a17.441 17.441 0 01-17.45-17.449 15.616 15.616 0 0131.233 0 13.783 13.783 0 01-27.565 0 11.95 11.95 0 0123.898 0 10.116 10.116 0 11-20.231 0 8.282 8.282 0 0116.564 0 6.45 6.45 0 11-12.898 0 4.616 4.616 0 019.232 0 2.783 2.783 0 01-5.565 0 .95.95 0 011.898 0 .884.884 0 001.769 0 2.718 2.718 0 00-5.436 0 4.55 4.55 0 009.102 0 6.384 6.384 0 00-12.768 0 8.217 8.217 0 1016.435 0 10.05 10.05 0 00-20.102 0 11.884 11.884 0 0023.769 0 13.718 13.718 0 00-27.436 0 15.556 15.556 0 0026.551 11 .949.949 0 011.342 1.34 17.338 17.338 0 01-12.342 5.11zm-.1 10.29a.642.642 0 11.642.655.649.649 0 01-.642-.655m-.533 0a1.175 1.175 0 101.175-1.17 1.16 1.16 0 00-1.175 1.17m-2.48.655a.655.655 0 11.641-.655.65.65 0 01-.642.655m0-1.825a1.17 1.17 0 101.175 1.17 1.16 1.16 0 00-1.175-1.17m-2.005.642h.608v-.543h-.608v-.732h-.554v1.831a1.412 1.412 0 00.107.554 1.147 1.147 0 00.692.613l.274-.465a.922.922 0 01-.456-.393.832.832 0 01-.062-.322v-.178zm3.472-1.272a.36.36 0 00.722 0 .36.36 0 10-.722 0m.089.729h.543v2.186h-.543zm3.212 2.035h-.077v-.026h.182v.026h-.076v.206h-.029v-.206zm.229.206l-.064-.189v.189h-.03v-.232h.042l.067.198.067-.198h.042v.232h-.03v-.189l-.064.189h-.03z" fill="#fff"/></g></svg>