<svg xmlns="http://www.w3.org/2000/svg" viewBox="0 0 165.223 80.744"><defs><style>.cls-2{fill:#675642}.cls-3{fill:#fff}</style></defs><g id="レイヤー_2" data-name="レイヤー 2"><g id="レイヤー_2-2" data-name="レイヤー 2"><path d="M129.972 80.744a49.699 49.699 0 01-10.015-1.064c-12.343-2.547-18.813-5.866-31.688-13.39-8.92-5.218-12.082-6.08-16.286-6.222V65.4H21.93v-6.464a34.804 34.804 0 01-4.528.314C6.18 59.249 0 52.546 0 40.373c0-12.176 6.179-18.882 17.398-18.882a33.894 33.894 0 013.806.228c.24.026.48.056.725.089v-6.463h50.054v5.33c4.204-.142 7.366-1.003 16.285-6.22 12.862-7.522 19.33-10.84 31.69-13.39A49.682 49.682 0 01129.972 0c21.743 0 35.25 15.47 35.25 40.372 0 12.598-3.452 22.992-9.986 30.06-6.235 6.746-14.972 10.312-25.264 10.312z" fill="none"/><path class="cls-2" d="M160.223 40.372c0-27.968-17.739-38.855-39.254-34.41-11.5 2.372-17.513 5.402-30.177 12.81-11.815 6.91-15.108 6.932-21.48 6.932h-.378a1.95 1.95 0 01-1.95-1.95v-3.41H26.929v4.38a2.516 2.516 0 01-2.986 2.475c-.038-.008-.075-.013-.114-.02-.367-.07-.726-.13-1.086-.19-.052-.009-.106-.02-.157-.028v.001a39.891 39.891 0 00-1.945-.275C11.305 25.629 5 28.677 5 40.373c0 12.915 7.697 15.28 18.675 13.22.09-.018.177-.03.269-.048a2.516 2.516 0 012.985 2.474v4.38h40.055v-3.408a1.95 1.95 0 011.95-1.95h.378c6.372 0 9.665.022 21.48 6.931 12.664 7.403 18.677 10.438 30.177 12.811 21.515 4.444 39.254-6.443 39.254-34.41z"/><circle class="cls-3" cx="35.215" cy="37.037" r="3.436"/><circle class="cls-2" cx="35.215" cy="37.037" r="1.772"/><circle class="cls-3" cx="35.215" cy="43.706" r="3.436"/><circle class="cls-2" cx="35.215" cy="43.706" r="1.772"/><path class="cls-3" d="M155.101 38.425a.722.722 0 11.736-.722.73.73 0 01-.736.722m0 .599a1.32 1.32 0 10-1.315-1.32 1.304 1.304 0 001.315 1.32m.736 2.788a.736.736 0 11-.736-.722.73.73 0 01.736.722m-2.051 0a1.315 1.315 0 101.315-1.321 1.304 1.304 0 00-1.315 1.32m.722 2.254v-.683h-.611v.683h-.823v.623h2.059a1.587 1.587 0 00.622-.12 1.29 1.29 0 00.69-.778l-.523-.308a1.036 1.036 0 01-.442.513.936.936 0 01-.362.069l-.2.001zm-1.43-3.902a.405.405 0 000-.811.405.405 0 100 .81m.819-.71h2.457v.611h-2.457zm2.288-2.999v.087h-.03v-.206h.03v.086h.232v.033h-.232zm.232-.257l-.213.071h.213v.034h-.262v-.047l.222-.075-.222-.076v-.047h.262v.034h-.213l.213.072v.034z"/></g></g></svg>