<?xml version="1.0" encoding="utf-8"?>
<!-- Generator: Adobe Illustrator 23.0.3, SVG Export Plug-In . SVG Version: 6.00 Build 0)  -->
<svg version="1.1" id="レイヤー_1" xmlns="http://www.w3.org/2000/svg" xmlns:xlink="http://www.w3.org/1999/xlink" x="0px"
	 y="0px" viewBox="-63.65 0 555 406.2" style="enable-background:new 0 0 427.7 406.2;" xml:space="preserve">
<style type="text/css">
	.st0{fill:#B3B3B3;}
	.st1{fill:#666666;}
	.st2{fill:#BFD833;}
	.st3{fill:none;}
</style>
<title>アセット 1401</title>
<g>
	<g id="レイヤー_2-2">
		<path class="st0" d="M100.7,316c-0.8,0-1.5-0.7-1.5-1.5c0-0.8,0.7-1.5,1.5-1.5l0,0h0c0.8,0,1.5,0.7,1.5,1.5S101.6,316,100.7,316z
			 M94.7,316c-0.8,0-1.5-0.7-1.5-1.5c0-0.8,0.7-1.5,1.5-1.5h0c0.8,0,1.5,0.7,1.5,1.5S95.6,316,94.7,316z M88.7,316
			c-0.8,0-1.5-0.7-1.5-1.5c0-0.8,0.7-1.5,1.5-1.5l0,0h0c0.8,0,1.5,0.7,1.5,1.5S89.6,316,88.7,316z M82.7,316c-0.8,0-1.5-0.7-1.5-1.5
			c0-0.8,0.7-1.5,1.5-1.5h0c0.8,0,1.5,0.7,1.5,1.5S83.5,316,82.7,316z M76.7,316c-0.8,0-1.5-0.7-1.5-1.5c0-0.8,0.7-1.5,1.5-1.5l0,0
			h0c0.8,0,1.5,0.7,1.5,1.5S77.5,316,76.7,316z"/>
		<path class="st0" d="M76.7,67.4c-0.2,0-0.4,0-0.6-0.1c-0.2-0.1-0.3-0.2-0.5-0.3c-0.1-0.1-0.2-0.3-0.3-0.5
			c-0.1-0.2-0.1-0.4-0.1-0.6c0-0.1,0-0.2,0-0.3c0-0.1,0.1-0.2,0.1-0.3c0-0.1,0.1-0.2,0.1-0.3c0.1-0.1,0.1-0.2,0.2-0.2
			c0.1-0.1,0.1-0.1,0.2-0.2c0.1-0.1,0.2-0.1,0.3-0.1c0.1,0,0.2-0.1,0.3-0.1c0.2,0,0.4,0,0.6,0c0.1,0,0.2,0,0.3,0.1
			c0.1,0,0.2,0.1,0.3,0.1c0.1,0.1,0.2,0.1,0.2,0.2c0.3,0.3,0.4,0.7,0.4,1.1c0,0.2,0,0.4-0.1,0.6c-0.1,0.2-0.2,0.4-0.3,0.5
			c-0.1,0.1-0.3,0.2-0.5,0.3C77.1,67.4,76.9,67.4,76.7,67.4z"/>
		<path class="st0" d="M338.7,67.4c-0.8,0-1.5-0.7-1.5-1.5s0.7-1.5,1.5-1.5h0c0.8,0,1.5,0.7,1.5,1.5S339.5,67.4,338.7,67.4z
			 M332.8,67.4c-0.8,0-1.5-0.7-1.5-1.5s0.7-1.5,1.5-1.5h0c0.8,0,1.5,0.7,1.5,1.5S333.6,67.4,332.8,67.4z M326.8,67.4
			c-0.8,0-1.5-0.7-1.5-1.5s0.7-1.5,1.5-1.5h0c0.8,0,1.5,0.7,1.5,1.5S327.6,67.4,326.8,67.4z M320.8,67.4c-0.8,0-1.5-0.7-1.5-1.5
			s0.7-1.5,1.5-1.5h0c0.8,0,1.5,0.7,1.5,1.5S321.7,67.4,320.8,67.4z M314.9,67.4c-0.8,0-1.5-0.7-1.5-1.5s0.7-1.5,1.5-1.5h0
			c0.8,0,1.5,0.7,1.5,1.5S315.7,67.4,314.9,67.4z M308.9,67.4c-0.8,0-1.5-0.7-1.5-1.5s0.7-1.5,1.5-1.5h0c0.8,0,1.5,0.7,1.5,1.5
			S309.8,67.4,308.9,67.4z M303,67.4c-0.8,0-1.5-0.7-1.5-1.5s0.7-1.5,1.5-1.5h0c0.8,0,1.5,0.7,1.5,1.5S303.8,67.4,303,67.4z
			 M297,67.4c-0.8,0-1.5-0.7-1.5-1.5s0.7-1.5,1.5-1.5h0c0.8,0,1.5,0.7,1.5,1.5S297.9,67.4,297,67.4z M291.1,67.4
			c-0.8,0-1.5-0.7-1.5-1.5s0.7-1.5,1.5-1.5h0c0.8,0,1.5,0.7,1.5,1.5S291.9,67.4,291.1,67.4z M285.1,67.4c-0.8,0-1.5-0.7-1.5-1.5
			s0.7-1.5,1.5-1.5h0c0.8,0,1.5,0.7,1.5,1.5S285.9,67.4,285.1,67.4z M279.2,67.4c-0.8,0-1.5-0.7-1.5-1.5s0.7-1.5,1.5-1.5h0
			c0.8,0,1.5,0.7,1.5,1.5S280,67.4,279.2,67.4z M273.2,67.4c-0.8,0-1.5-0.7-1.5-1.5s0.7-1.5,1.5-1.5h0c0.8,0,1.5,0.7,1.5,1.5
			S274,67.4,273.2,67.4z M267.3,67.4c-0.8,0-1.5-0.7-1.5-1.5s0.7-1.5,1.5-1.5h0c0.8,0,1.5,0.7,1.5,1.5S268.1,67.4,267.3,67.4z
			 M261.3,67.4c-0.8,0-1.5-0.7-1.5-1.5s0.7-1.5,1.5-1.5h0c0.8,0,1.5,0.7,1.5,1.5S262.1,67.4,261.3,67.4z M255.3,67.4
			c-0.8,0-1.5-0.7-1.5-1.5s0.7-1.5,1.5-1.5h0c0.8,0,1.5,0.7,1.5,1.5S256.2,67.4,255.3,67.4z M249.4,67.4c-0.8,0-1.5-0.7-1.5-1.5
			s0.7-1.5,1.5-1.5h0c0.8,0,1.5,0.7,1.5,1.5S250.2,67.4,249.4,67.4z M243.4,67.4c-0.8,0-1.5-0.7-1.5-1.5s0.7-1.5,1.5-1.5h0
			c0.8,0,1.5,0.7,1.5,1.5S244.3,67.4,243.4,67.4L243.4,67.4z M237.5,67.4c-0.8,0-1.5-0.7-1.5-1.5s0.7-1.5,1.5-1.5h0
			c0.8,0,1.5,0.7,1.5,1.5S238.3,67.4,237.5,67.4z M231.5,67.4c-0.8,0-1.5-0.7-1.5-1.5s0.7-1.5,1.5-1.5h0c0.8,0,1.5,0.7,1.5,1.5
			S232.4,67.4,231.5,67.4z M225.6,67.4c-0.8,0-1.5-0.7-1.5-1.5s0.7-1.5,1.5-1.5h0c0.8,0,1.5,0.7,1.5,1.5S226.4,67.4,225.6,67.4
			L225.6,67.4z M219.6,67.4c-0.8,0-1.5-0.7-1.5-1.5s0.7-1.5,1.5-1.5h0c0.8,0,1.5,0.7,1.5,1.5S220.4,67.4,219.6,67.4z M213.7,67.4
			c-0.8,0-1.5-0.7-1.5-1.5s0.7-1.5,1.5-1.5h0c0.8,0,1.5,0.7,1.5,1.5S214.5,67.4,213.7,67.4z M207.7,67.4c-0.8,0-1.5-0.7-1.5-1.5
			s0.7-1.5,1.5-1.5h0c0.8,0,1.5,0.7,1.5,1.5S208.5,67.4,207.7,67.4z M201.7,67.4c-0.8,0-1.5-0.7-1.5-1.5s0.7-1.5,1.5-1.5h0
			c0.8,0,1.5,0.7,1.5,1.5S202.6,67.4,201.7,67.4z M195.8,67.4c-0.8,0-1.5-0.7-1.5-1.5s0.7-1.5,1.5-1.5h0c0.8,0,1.5,0.7,1.5,1.5
			S196.6,67.4,195.8,67.4z M189.8,67.4c-0.8,0-1.5-0.7-1.5-1.5s0.7-1.5,1.5-1.5h0c0.8,0,1.5,0.7,1.5,1.5S190.7,67.4,189.8,67.4z
			 M183.9,67.4c-0.8,0-1.5-0.7-1.5-1.5s0.7-1.5,1.5-1.5h0c0.8,0,1.5,0.7,1.5,1.5S184.7,67.4,183.9,67.4z M177.9,67.4
			c-0.8,0-1.5-0.7-1.5-1.5s0.7-1.5,1.5-1.5h0c0.8,0,1.5,0.7,1.5,1.5S178.8,67.4,177.9,67.4z M172,67.4c-0.8,0-1.5-0.7-1.5-1.5
			s0.7-1.5,1.5-1.5h0c0.8,0,1.5,0.7,1.5,1.5S172.8,67.4,172,67.4z M166,67.4c-0.8,0-1.5-0.7-1.5-1.5s0.7-1.5,1.5-1.5h0
			c0.8,0,1.5,0.7,1.5,1.5S166.8,67.4,166,67.4z M160.1,67.4c-0.8,0-1.5-0.7-1.5-1.5s0.7-1.5,1.5-1.5h0c0.8,0,1.5,0.7,1.5,1.5
			S160.9,67.4,160.1,67.4z M154.1,67.4c-0.8,0-1.5-0.7-1.5-1.5s0.7-1.5,1.5-1.5h0c0.8,0,1.5,0.7,1.5,1.5S154.9,67.4,154.1,67.4z
			 M148.2,67.4c-0.8,0-1.5-0.7-1.5-1.5s0.7-1.5,1.5-1.5h0c0.8,0,1.5,0.7,1.5,1.5S149,67.4,148.2,67.4z M142.2,67.4
			c-0.8,0-1.5-0.7-1.5-1.5s0.7-1.5,1.5-1.5h0c0.8,0,1.5,0.7,1.5,1.5S143,67.4,142.2,67.4z M136.2,67.4c-0.8,0-1.5-0.7-1.5-1.5
			s0.7-1.5,1.5-1.5h0c0.8,0,1.5,0.7,1.5,1.5S137.1,67.4,136.2,67.4z M130.3,67.4c-0.8,0-1.5-0.7-1.5-1.5s0.7-1.5,1.5-1.5h0
			c0.8,0,1.5,0.7,1.5,1.5S131.1,67.4,130.3,67.4z M124.3,67.4c-0.8,0-1.5-0.7-1.5-1.5c0-0.8,0.7-1.5,1.5-1.5h0
			c0.8,0,1.5,0.7,1.5,1.5S125.2,67.4,124.3,67.4z M118.4,67.4c-0.8,0-1.5-0.7-1.5-1.5c0-0.8,0.7-1.5,1.5-1.5h0
			c0.8,0,1.5,0.7,1.5,1.5S119.2,67.4,118.4,67.4L118.4,67.4z M112.4,67.4c-0.8,0-1.5-0.7-1.5-1.5c0-0.8,0.7-1.5,1.5-1.5h0
			c0.8,0,1.5,0.7,1.5,1.5S113.3,67.4,112.4,67.4z M106.5,67.4c-0.8,0-1.5-0.7-1.5-1.5c0-0.8,0.7-1.5,1.5-1.5l0,0h0
			c0.8,0,1.5,0.7,1.5,1.5S107.3,67.4,106.5,67.4z M100.5,67.4c-0.8,0-1.5-0.7-1.5-1.5c0-0.8,0.7-1.5,1.5-1.5l0,0h0
			c0.8,0,1.5,0.7,1.5,1.5S101.3,67.4,100.5,67.4z M94.6,67.4c-0.8,0-1.5-0.7-1.5-1.5c0-0.8,0.7-1.5,1.5-1.5l0,0h0
			c0.8,0,1.5,0.7,1.5,1.5S95.4,67.4,94.6,67.4z M88.6,67.4c-0.8,0-1.5-0.7-1.5-1.5c0-0.8,0.7-1.5,1.5-1.5h0c0.8,0,1.5,0.7,1.5,1.5
			S89.4,67.4,88.6,67.4z M82.6,67.4c-0.8,0-1.5-0.7-1.5-1.5c0-0.8,0.7-1.5,1.5-1.5h0c0.8,0,1.5,0.7,1.5,1.5S83.5,67.4,82.6,67.4z"/>
		<path class="st0" d="M344.7,67.4c-0.2,0-0.4,0-0.6-0.1c-0.2-0.1-0.3-0.2-0.5-0.3c-0.1-0.1-0.3-0.3-0.3-0.5
			c-0.1-0.2-0.1-0.4-0.1-0.6c0-0.1,0-0.2,0-0.3c0-0.1,0.1-0.2,0.1-0.3c0-0.1,0.1-0.2,0.1-0.3c0.1-0.1,0.1-0.2,0.2-0.2
			c0.1-0.1,0.1-0.1,0.2-0.2c0.1-0.1,0.2-0.1,0.3-0.1c0.1,0,0.2-0.1,0.3-0.1c0.2,0,0.4,0,0.6,0c0.1,0,0.2,0,0.3,0.1
			c0.1,0,0.2,0.1,0.3,0.1c0.1,0.1,0.2,0.1,0.2,0.2c0.1,0.1,0.1,0.1,0.2,0.2c0.1,0.1,0.1,0.2,0.1,0.3c0,0.1,0.1,0.2,0.1,0.3
			c0,0.1,0,0.2,0,0.3c0,0.2,0,0.4-0.1,0.6c-0.1,0.2-0.2,0.4-0.3,0.5C345.4,67.3,345.1,67.4,344.7,67.4z"/>
		<path class="st0" d="M344.7,336.1c-0.8,0-1.5-0.7-1.5-1.5s0.7-1.5,1.5-1.5c0.8,0,1.5,0.7,1.5,1.5v0
			C346.2,335.5,345.5,336.1,344.7,336.1z M344.7,330.2c-0.8,0-1.5-0.7-1.5-1.5c0-0.8,0.7-1.5,1.5-1.5c0.8,0,1.5,0.7,1.5,1.5v0
			C346.2,329.5,345.5,330.2,344.7,330.2z M344.7,324.2c-0.8,0-1.5-0.7-1.5-1.5s0.7-1.5,1.5-1.5c0.8,0,1.5,0.7,1.5,1.5v0
			C346.2,323.5,345.5,324.2,344.7,324.2L344.7,324.2z M344.7,318.2c-0.8,0-1.5-0.7-1.5-1.5c0-0.8,0.7-1.5,1.5-1.5
			c0.8,0,1.5,0.7,1.5,1.5v0C346.2,317.5,345.5,318.2,344.7,318.2z M344.7,312.2c-0.8,0-1.5-0.7-1.5-1.5c0-0.8,0.7-1.5,1.5-1.5
			c0.8,0,1.5,0.7,1.5,1.5v0C346.2,311.6,345.5,312.2,344.7,312.2z M344.7,306.3c-0.8,0-1.5-0.7-1.5-1.5c0-0.8,0.7-1.5,1.5-1.5
			c0.8,0,1.5,0.7,1.5,1.5v0C346.2,305.6,345.5,306.3,344.7,306.3L344.7,306.3z M344.7,300.3c-0.8,0-1.5-0.7-1.5-1.5
			c0-0.8,0.7-1.5,1.5-1.5c0.8,0,1.5,0.7,1.5,1.5v0C346.2,299.6,345.5,300.3,344.7,300.3z M344.7,294.3c-0.8,0-1.5-0.7-1.5-1.5
			c0-0.8,0.7-1.5,1.5-1.5c0.8,0,1.5,0.7,1.5,1.5v0C346.2,293.7,345.5,294.3,344.7,294.3z M344.7,288.4c-0.8,0-1.5-0.7-1.5-1.5
			c0-0.8,0.7-1.5,1.5-1.5c0.8,0,1.5,0.7,1.5,1.5v0C346.2,287.7,345.5,288.4,344.7,288.4z M344.7,282.4c-0.8,0-1.5-0.7-1.5-1.5
			c0-0.8,0.7-1.5,1.5-1.5c0.8,0,1.5,0.7,1.5,1.5v0C346.2,281.7,345.5,282.4,344.7,282.4z M344.7,276.4c-0.8,0-1.5-0.7-1.5-1.5
			c0-0.8,0.7-1.5,1.5-1.5c0.8,0,1.5,0.7,1.5,1.5v0C346.2,275.7,345.5,276.4,344.7,276.4z M344.7,270.4c-0.8,0-1.5-0.7-1.5-1.5
			c0-0.8,0.7-1.5,1.5-1.5c0.8,0,1.5,0.7,1.5,1.5v0C346.2,269.8,345.5,270.4,344.7,270.4z M344.7,264.5c-0.8,0-1.5-0.7-1.5-1.5
			c0-0.8,0.7-1.5,1.5-1.5c0.8,0,1.5,0.7,1.5,1.5v0C346.2,263.8,345.5,264.5,344.7,264.5z M344.7,258.5c-0.8,0-1.5-0.7-1.5-1.5
			c0-0.8,0.7-1.5,1.5-1.5c0.8,0,1.5,0.7,1.5,1.5v0C346.2,257.8,345.5,258.5,344.7,258.5z M344.7,252.5c-0.8,0-1.5-0.7-1.5-1.5
			s0.7-1.5,1.5-1.5c0.8,0,1.5,0.7,1.5,1.5v0C346.2,251.9,345.5,252.5,344.7,252.5z M344.7,246.6c-0.8,0-1.5-0.7-1.5-1.5
			s0.7-1.5,1.5-1.5c0.8,0,1.5,0.7,1.5,1.5v0C346.2,245.9,345.5,246.6,344.7,246.6L344.7,246.6z M344.7,240.6c-0.8,0-1.5-0.7-1.5-1.5
			s0.7-1.5,1.5-1.5c0.8,0,1.5,0.7,1.5,1.5v0C346.2,239.9,345.5,240.6,344.7,240.6L344.7,240.6z M344.7,234.6c-0.8,0-1.5-0.7-1.5-1.5
			s0.7-1.5,1.5-1.5c0.8,0,1.5,0.7,1.5,1.5v0C346.2,233.9,345.5,234.6,344.7,234.6z M344.7,228.6c-0.8,0-1.5-0.7-1.5-1.5
			s0.7-1.5,1.5-1.5c0.8,0,1.5,0.7,1.5,1.5v0C346.2,228,345.5,228.6,344.7,228.6L344.7,228.6z M344.7,222.7c-0.8,0-1.5-0.7-1.5-1.5
			c0-0.8,0.7-1.5,1.5-1.5c0.8,0,1.5,0.7,1.5,1.5v0C346.2,222,345.5,222.7,344.7,222.7z M344.7,216.7c-0.8,0-1.5-0.7-1.5-1.5
			s0.7-1.5,1.5-1.5c0.8,0,1.5,0.7,1.5,1.5v0C346.2,216,345.5,216.7,344.7,216.7z M344.7,210.7c-0.8,0-1.5-0.7-1.5-1.5
			c0-0.8,0.7-1.5,1.5-1.5c0.8,0,1.5,0.7,1.5,1.5v0C346.2,210.1,345.5,210.7,344.7,210.7z M344.7,204.8c-0.8,0-1.5-0.7-1.5-1.5
			s0.7-1.5,1.5-1.5c0.8,0,1.5,0.7,1.5,1.5v0C346.2,204.1,345.5,204.8,344.7,204.8z M344.7,198.8c-0.8,0-1.5-0.7-1.5-1.5
			s0.7-1.5,1.5-1.5c0.8,0,1.5,0.7,1.5,1.5v0C346.2,198.1,345.5,198.8,344.7,198.8L344.7,198.8z M344.7,192.8c-0.8,0-1.5-0.7-1.5-1.5
			s0.7-1.5,1.5-1.5c0.8,0,1.5,0.7,1.5,1.5v0C346.2,192.2,345.5,192.8,344.7,192.8L344.7,192.8z M344.7,186.9c-0.8,0-1.5-0.7-1.5-1.5
			s0.7-1.5,1.5-1.5c0.8,0,1.5,0.7,1.5,1.5v0C346.2,186.2,345.5,186.8,344.7,186.9L344.7,186.9z M344.7,180.9c-0.8,0-1.5-0.7-1.5-1.5
			s0.7-1.5,1.5-1.5c0.8,0,1.5,0.7,1.5,1.5v0C346.2,180.2,345.5,180.9,344.7,180.9z M344.7,174.9c-0.8,0-1.5-0.7-1.5-1.5
			s0.7-1.5,1.5-1.5c0.8,0,1.5,0.7,1.5,1.5v0C346.2,174.2,345.5,174.9,344.7,174.9z M344.7,168.9c-0.8,0-1.5-0.7-1.5-1.5
			s0.7-1.5,1.5-1.5c0.8,0,1.5,0.7,1.5,1.5v0C346.2,168.3,345.5,168.9,344.7,168.9z M344.7,163c-0.8,0-1.5-0.7-1.5-1.5
			s0.7-1.5,1.5-1.5c0.8,0,1.5,0.7,1.5,1.5v0C346.2,162.3,345.5,163,344.7,163z M344.7,157c-0.8,0-1.5-0.7-1.5-1.5s0.7-1.5,1.5-1.5
			c0.8,0,1.5,0.7,1.5,1.5v0C346.2,156.3,345.5,157,344.7,157L344.7,157z M344.7,151c-0.8,0-1.5-0.7-1.5-1.5s0.7-1.5,1.5-1.5
			c0.8,0,1.5,0.7,1.5,1.5v0C346.2,150.4,345.5,151,344.7,151L344.7,151z M344.7,145.1c-0.8,0-1.5-0.7-1.5-1.5s0.7-1.5,1.5-1.5
			c0.8,0,1.5,0.7,1.5,1.5v0C346.2,144.4,345.5,145.1,344.7,145.1z M344.7,139.1c-0.8,0-1.5-0.7-1.5-1.5s0.7-1.5,1.5-1.5
			c0.8,0,1.5,0.7,1.5,1.5v0C346.2,138.4,345.5,139.1,344.7,139.1z M344.7,133.1c-0.8,0-1.5-0.7-1.5-1.5c0-0.8,0.7-1.5,1.5-1.5
			c0.8,0,1.5,0.7,1.5,1.5v0C346.2,132.4,345.5,133.1,344.7,133.1z M344.7,127.1c-0.8,0-1.5-0.7-1.5-1.5s0.7-1.5,1.5-1.5
			c0.8,0,1.5,0.7,1.5,1.5v0C346.2,126.5,345.5,127.1,344.7,127.1z M344.7,121.2c-0.8,0-1.5-0.7-1.5-1.5s0.7-1.5,1.5-1.5
			c0.8,0,1.5,0.7,1.5,1.5v0C346.2,120.5,345.5,121.2,344.7,121.2z M344.7,115.2c-0.8,0-1.5-0.7-1.5-1.5s0.7-1.5,1.5-1.5
			c0.8,0,1.5,0.7,1.5,1.5v0C346.2,114.5,345.5,115.2,344.7,115.2z M344.7,109.2c-0.8,0-1.5-0.7-1.5-1.5s0.7-1.5,1.5-1.5
			c0.8,0,1.5,0.7,1.5,1.5v0C346.2,108.6,345.5,109.2,344.7,109.2z M344.7,103.3c-0.8,0-1.5-0.7-1.5-1.5s0.7-1.5,1.5-1.5
			c0.8,0,1.5,0.7,1.5,1.5v0C346.2,102.6,345.5,103.3,344.7,103.3z M344.7,97.3c-0.8,0-1.5-0.7-1.5-1.5s0.7-1.5,1.5-1.5
			c0.8,0,1.5,0.7,1.5,1.5v0C346.2,96.6,345.5,97.3,344.7,97.3z M344.7,91.3c-0.8,0-1.5-0.7-1.5-1.5s0.7-1.5,1.5-1.5
			c0.8,0,1.5,0.7,1.5,1.5v0C346.2,90.6,345.5,91.3,344.7,91.3z M344.7,85.3c-0.8,0-1.5-0.7-1.5-1.5s0.7-1.5,1.5-1.5
			c0.8,0,1.5,0.7,1.5,1.5v0C346.2,84.7,345.5,85.3,344.7,85.3z M344.7,79.4c-0.8,0-1.5-0.7-1.5-1.5s0.7-1.5,1.5-1.5
			c0.8,0,1.5,0.7,1.5,1.5v0C346.2,78.7,345.5,79.4,344.7,79.4z M344.7,73.4c-0.8,0-1.5-0.7-1.5-1.5s0.7-1.5,1.5-1.5
			c0.8,0,1.5,0.7,1.5,1.5v0C346.2,72.7,345.5,73.4,344.7,73.4L344.7,73.4z"/>
		<path class="st0" d="M344.7,342.1c-0.2,0-0.4,0-0.6-0.1c-0.2-0.1-0.3-0.2-0.5-0.3c-0.3-0.3-0.4-0.7-0.4-1.1c0-0.1,0-0.2,0-0.3
			c0-0.1,0-0.2,0.1-0.3c0-0.1,0.1-0.2,0.1-0.3c0.1-0.2,0.2-0.3,0.4-0.4c0.1-0.1,0.2-0.1,0.3-0.1c0.1,0,0.2-0.1,0.3-0.1
			c0.2,0,0.4,0,0.6,0c0.1,0,0.2,0,0.3,0.1c0.1,0,0.2,0.1,0.3,0.1c0.1,0.1,0.2,0.1,0.2,0.2c0.1,0.1,0.1,0.1,0.2,0.2
			c0.1,0.1,0.1,0.2,0.1,0.3c0.1,0.2,0.1,0.4,0.1,0.6c0,0.4-0.2,0.8-0.4,1.1C345.4,341.9,345.1,342.1,344.7,342.1L344.7,342.1z"/>
		<path class="st1" d="M56.9,310.8v5.8h1v1.5h-1v1.9H55v-1.9h-4.3v-1.8l3.5-5.5H56.9z M55,316.6v-4.1h0l-2.5,4.1H55z"/>
		<path class="st1" d="M59.8,316.1v-1.5h1c1.1,0,2-0.3,2-1.3c0-0.8-0.6-1.1-1.5-1.1c-0.7,0-1.4,0.2-2,0.5l-0.5-1.5
			c0.9-0.4,1.8-0.6,2.7-0.6c1.7,0,3.1,0.7,3.1,2.4c0,1-0.6,1.9-1.6,2.1v0c1.1,0.2,1.8,1.1,1.8,2.1c0,1.9-1.6,2.8-3.5,2.8
			c-1,0-1.9-0.2-2.8-0.6l0.4-1.4c0.7,0.3,1.5,0.5,2.3,0.5c1,0,1.7-0.4,1.7-1.3c0-1-1.1-1.3-2.2-1.3L59.8,316.1z"/>
		<path class="st1" d="M48.8,62.4v5.8h1v1.5h-1v1.9h-1.9v-1.9h-4.3v-1.8l3.5-5.5H48.8z M46.9,68.1V64h0l-2.5,4.1L46.9,68.1z"/>
		<path class="st1" d="M51.7,67.6v-1.5h1c1.1,0,2-0.3,2-1.3c0-0.8-0.6-1.1-1.5-1.1c-0.7,0-1.4,0.2-2,0.5l-0.5-1.5
			c0.9-0.4,1.8-0.6,2.7-0.6c1.7,0,3.1,0.7,3.1,2.4c0,1-0.6,1.9-1.6,2.1v0c1.1,0.2,1.8,1.1,1.8,2.1c0,1.9-1.6,2.8-3.5,2.8
			c-1,0-1.9-0.2-2.8-0.6l0.4-1.4c0.7,0.3,1.5,0.5,2.3,0.5c1,0,1.7-0.4,1.7-1.3c0-1-1.1-1.3-2.2-1.3L51.7,67.6z"/>
		<path class="st1" d="M61.4,62.2c2.3,0,3.5,1.8,3.5,4.8c0,3-1.2,4.7-3.5,4.7c-2.3,0-3.5-1.7-3.5-4.7C57.9,64,59.1,62.2,61.4,62.2z
			 M61.4,63.7c-1.2,0-1.6,1.4-1.6,3.3c0,1.9,0.5,3.2,1.6,3.2c1.2,0,1.6-1.3,1.6-3.2C63,65.1,62.6,63.7,61.4,63.7z"/>
		<path class="st1" d="M34.9,20.1v1.3h-1.3v10.3h1.3V33H32V20.1H34.9z"/>
		<path class="st1" d="M40.6,23.5l-0.1,1.4c-0.2,0-0.4-0.1-0.5,0c-0.9,0-1.7,0.6-1.7,2.3v3.3h-1.8v-6.8h1.8v0.9h0
			c0.3-0.7,1-1.1,1.8-1C40.2,23.5,40.4,23.5,40.6,23.5z"/>
		<path class="st1" d="M43.4,29.7V33h-1.8v-9.3h1.8v0.9h0c0.5-0.7,1.3-1,2.1-1c1.9,0,2.9,1.6,2.9,3.6c0,2-1.1,3.6-2.9,3.6
			C44.7,30.6,43.9,30.3,43.4,29.7L43.4,29.7z M46.5,27c0-1.2-0.5-2.2-1.5-2.2s-1.7,0.9-1.7,2.2c0,1.3,0.6,2.2,1.7,2.2
			S46.5,28.3,46.5,27z"/>
		<path class="st1" d="M49.9,23.6h1.8v0.9h0c0.4-0.7,1.2-1.1,2-1.1c0.8-0.1,1.6,0.4,2,1.1h0c0.5-0.7,1.3-1.1,2.1-1.1
			c1.2-0.2,2.4,0.7,2.5,2c0,0.2,0,0.3,0,0.5v4.5h-1.8v-3.8c0-1.1-0.1-1.8-1.2-1.8c-0.7,0-1.3,0.5-1.3,1.3c0,0.1,0,0.1,0,0.2v4.1
			h-1.8v-3.8c0-1.1-0.2-1.8-1.2-1.8c-0.7,0-1.3,0.5-1.3,1.9v3.7h-1.8L49.9,23.6z"/>
		<path class="st1" d="M61.9,33v-1.3h1.4V21.4h-1.4v-1.3h2.9V33H61.9z"/>
		<path class="st1" d="M23.9,267.8l-7.5,1.3v0l7.5,1.3v2.7l-9.2,2v-2.1l7.5-1.3v0l-7.5-1.2v-2.8l7.5-1.1v0l-7.5-1.3v-2l9.2,2
			L23.9,267.8z"/>
		<path class="st1" d="M14.4,261.8V260H18v0c-0.7-0.4-1.1-1.2-1.1-2c-0.1-1.3,0.9-2.4,2.2-2.5c0.1,0,0.2,0,0.3,0h4.5v1.8h-3.8
			c-1.1,0-1.8,0.3-1.8,1.3c0,0.7,0.5,1.5,1.9,1.5h3.7v1.8L14.4,261.8z"/>
		<path class="st1" d="M21,247.5v4.7c1.2-0.1,1.7-1.1,1.7-2.2c0-0.6-0.1-1.1-0.3-1.6l1.3-0.2c0.2,0.7,0.3,1.4,0.3,2.1
			c0,2.4-1.5,3.9-3.5,3.9c-1.8,0.1-3.4-1.2-3.6-3c0-0.1,0-0.3,0-0.4c0-2,1.3-3.1,3.4-3.1H21z M18.2,250.6c0,0.9,0.7,1.6,1.6,1.6v-3
			c-0.8-0.1-1.5,0.4-1.6,1.2C18.2,250.5,18.2,250.5,18.2,250.6z"/>
		<path class="st1" d="M21,239.9v4.7c1.2-0.1,1.7-1.1,1.7-2.2c0-0.6-0.1-1.1-0.3-1.6l1.3-0.2c0.2,0.7,0.3,1.4,0.3,2.1
			c0,2.4-1.5,3.8-3.5,3.8c-1.8,0.1-3.4-1.2-3.6-3c0-0.1,0-0.3,0-0.4c0-2,1.3-3.1,3.4-3.1H21z M18.2,243c0,0.9,0.7,1.6,1.6,1.6v-3
			c-0.8-0.1-1.5,0.4-1.6,1.2C18.2,242.8,18.2,242.9,18.2,243L18.2,243z"/>
		<path class="st1" d="M14.4,238.4v-1.8h9.5v1.8H14.4z"/>
		<path class="st1" d="M14.9,222.7l1.5,0.3c-0.2,0.6-0.3,1.3-0.3,2c0,0.7,0.2,1.5,1,1.5c0.6,0,1-0.5,1.5-1.7
			c0.6-1.5,1.2-2.6,2.9-2.6c1.8,0,2.7,1.6,2.7,3.4c0,1-0.2,1.9-0.5,2.8l-1.5-0.3c0.3-0.8,0.5-1.6,0.5-2.4c0-1-0.4-1.6-1.1-1.6
			c-0.7,0-1,0.6-1.5,1.8c-0.6,1.5-1.3,2.5-2.7,2.5c-1.9,0-2.7-1.7-2.7-3.2C14.5,224.3,14.6,223.5,14.9,222.7z"/>
		<path class="st1" d="M23.1,218.9h3.3v1.8h-9.3v-1.8H18v0c-0.7-0.5-1-1.3-1-2.1c0-1.9,1.6-2.9,3.6-2.9c2,0,3.6,1.1,3.6,2.9
			C24.1,217.6,23.7,218.4,23.1,218.9L23.1,218.9z M20.5,215.8c-1.2,0-2.2,0.5-2.2,1.5s0.9,1.7,2.2,1.7c1.3,0,2.2-0.6,2.2-1.7
			S21.7,215.8,20.5,215.8L20.5,215.8z"/>
		<path class="st1" d="M21,206.3v4.7c1.2-0.1,1.7-1.1,1.7-2.2c0-0.6-0.1-1.1-0.3-1.6l1.3-0.2c0.2,0.7,0.3,1.4,0.3,2.1
			c0,2.4-1.5,3.9-3.5,3.9c-1.8,0.1-3.4-1.2-3.6-3c0-0.1,0-0.3,0-0.4c0-2,1.3-3.1,3.4-3.1H21z M18.2,209.4c0,0.9,0.7,1.6,1.6,1.6v-3
			c-0.8-0.1-1.5,0.4-1.6,1.2C18.2,209.2,18.2,209.3,18.2,209.4L18.2,209.4z"/>
		<path class="st1" d="M21,198.6v4.7c1.2-0.1,1.7-1.1,1.7-2.2c0-0.6-0.1-1.1-0.3-1.6l1.3-0.2c0.2,0.7,0.3,1.4,0.3,2.1
			c0,2.4-1.5,3.8-3.5,3.8c-1.8,0.1-3.4-1.2-3.6-3c0-0.1,0-0.3,0-0.4c0-2,1.3-3.1,3.4-3.1H21z M18.2,201.8c0,0.9,0.7,1.6,1.6,1.6v-3
			c-0.8-0.1-1.5,0.4-1.6,1.2C18.2,201.6,18.2,201.7,18.2,201.8z"/>
		<path class="st1" d="M17.8,192.5h-3.4v-1.8h9.5v1.8H23v0c0.7,0.5,1,1.3,1,2.1c0,1.9-1.6,2.9-3.6,2.9c-2,0-3.6-1.1-3.6-2.9
			C16.9,193.8,17.2,193.1,17.8,192.5L17.8,192.5z M20.5,195.7c1.2,0,2.2-0.5,2.2-1.5s-0.9-1.7-2.2-1.7c-1.3,0-2.2,0.6-2.2,1.7
			S19.2,195.7,20.5,195.7z"/>
		<path class="st1" d="M23.9,187l-9.2-4.2v-1.5l9.2,4.2L23.9,187z"/>
		<path class="st1" d="M19.1,175.8c0.5,0.4,1,0.9,1.5,1.4l-1.1,1.2c-1.5-1.6-3.3-2.9-5.4-3.6v-1.7c0.4,0.1,0.8,0.3,1.2,0.4v-4.4
			c4.6,0.6,7.9,2.5,9.3,6.4l-1.3,0.8c-0.5-1.3-1.3-2.5-2.3-3.4C20.3,173.8,19.6,174.8,19.1,175.8z M19.7,172.1c-0.9-0.5-1.9-0.9-3-1
			v3.2c0.4,0.2,0.8,0.5,1.2,0.8C18.5,173.9,19,173,19.7,172.1L19.7,172.1z"/>
		<path class="st1" d="M24.5,161.6h-5.1c0.8,1.2,1.4,2.6,1.9,3.9l-1.4,0.8c-1.1-3.2-3.1-6.1-5.6-8.3l1.1-1.3c1.1,0.9,2.1,2,2.9,3.1
			h6.2L24.5,161.6z"/>
		<path class="st1" d="M24.6,150.2l-6.1,1.4l0.4,2.8l-1.5,0.2l-0.3-2.7l-2.7,0.6l-0.3-1.7l2.8-0.6L16,144c2.2,0.2,4.2,1.2,5.7,2.8
			l-1,1.3c-0.7-1-1.7-1.7-2.9-2l0.5,3.7l5.9-1.3L24.6,150.2z"/>
		<path class="st1" d="M24.1,140.8h0.6v1.5H14.4v-10h10.4v1.6h-0.6V140.8z M22.7,133.9h-6.8v6.9h6.8V133.9z M16.9,134.9h4.8v4.9
			h-4.8V134.9z M20.3,138.4v-2.1h-2.1v2.1H20.3z"/>
		<path class="st1" d="M21.5,128.9H21v1.7h-4.4v-1.7H16v1.9h-1.3v-1.9h-1v-1.5h1v-2H16v2h0.5v-1.8H21v1.8h0.5v-2h1.3v2h2.1v1.5h-2.1
			v2h-1.3V128.9z M14.2,120.1h1.5v5h-1.5L14.2,120.1z M23.1,124.8c-1.4-0.3-2.9-0.6-4.1-0.8v1.2h-1.5v-5.6h1.5v2.7
			c1.2,0.2,2.6,0.5,3.9,0.9c-0.1-0.6-0.2-1.2-0.2-1.7c-0.6,0.2-1.1,0.4-1.7,0.7l-0.4-1.3c1.2-0.6,2.5-1.1,3.9-1.4l0.5,1.5
			c-0.3,0-0.7,0.1-1,0.2c0.3,1.3,0.6,3,0.7,4l-1.4,0.4C23.2,125.5,23.2,125.2,23.1,124.8z M18.3,126.9h-0.5v0.6h0.5L18.3,126.9z
			 M18.3,129.3v-0.6h-0.5v0.6H18.3z M19.8,126.9h-0.5v0.6h0.5V126.9z M19.8,129.3v-0.6h-0.5v0.6H19.8z"/>
		<path class="st1" d="M23,114.8l-1.2,0.9c-0.4-1-1-2-1.8-2.8v2.2h-3.5v-2.6h-0.6v3h-1.2v-3h-0.9V111h0.9v-3.3h1.2v3.3h0.6v-2.7h3.5
			v2.3c0.8-0.9,1.4-1.8,1.7-2.9l1.4,1c-0.5,0.9-1.1,1.7-1.8,2.4h1.8v1.6h-1.7C22,113.3,22.5,114,23,114.8z M13.9,117.6
			c0.6-0.7,1.3-1.4,2.1-1.9c0.3,0.5,0.6,0.9,0.9,1.4c-0.8,0.4-1.5,1-2.2,1.7L13.9,117.6z M18.7,109.8h-1.1v1.2h1.1L18.7,109.8z
			 M18.7,113.7v-1.1h-1.1v1.1H18.7z M23.3,113.7c0-1.3,0-4.5,0-6.1l1.5,0.3c0,1.5,0,4.6,0,6.1c0,1-0.4,2-1.1,2.7
			c0.6,0.6,1,1.2,1.4,1.8l-1.6,0.7c-0.3-0.6-0.6-1.1-1-1.6h-2.6v1.4h-1.4v-2.9h3.8C23,115.4,23.4,114.6,23.3,113.7L23.3,113.7z"/>
		<path class="st1" d="M16.8,102.8h-0.6v-1.5h0.6v-1.8h-0.6V98h0.6v-2.3H18V98h1.8v4.8H18v1.6c2.3,0,4.6,0.4,6.8,1.2L24,107
			c-2.1-0.8-4.3-1.1-6.5-1h-2.8v-4.3h-1v-1.6h1v-4.4H16v8.8h0.8L16.8,102.8z M18,101.4h0.6v-1.8H18V101.4z M23.7,95.6l1.3,0.9
			c-0.2,1.3-0.6,2.7-1.1,3.9c0.5,1.1,0.9,2.4,1.1,3.6l-1.2,0.9c-0.1-1-0.3-2-0.6-3c-0.3,0.5-0.7,0.9-1.2,1.3l-0.5-1.1v2.1h-1.2v-6
			l0.4-1.1c1,0.4,1.8,1.1,2.4,1.9C23.4,97.9,23.6,96.8,23.7,95.6z M22.4,100.5c-0.3-0.4-0.6-0.8-0.9-1.1v2.5
			C21.9,101.4,22.2,100.9,22.4,100.5z"/>
		<path class="st1" d="M154.4,388.7v-9.2h1.9v9.2H154.4z"/>
		<path class="st1" d="M158.2,381.9h1.8v0.9h0c0.4-0.7,1.2-1.1,2.1-1.1c1.3-0.1,2.4,0.9,2.5,2.2c0,0.1,0,0.2,0,0.3v4.5h-1.8v-3.8
			c0-1.1-0.3-1.8-1.3-1.8c-0.7,0-1.5,0.5-1.5,1.9v3.7h-1.8L158.2,381.9z"/>
		<path class="st1" d="M168.2,387.9v3.3h-1.8v-9.3h1.8v0.9h0c0.5-0.7,1.3-1,2.1-1c1.9,0,2.9,1.6,2.9,3.6c0,2-1.1,3.6-2.9,3.6
			C169.4,388.9,168.7,388.5,168.2,387.9L168.2,387.9z M171.3,385.3c0-1.2-0.5-2.2-1.5-2.2s-1.7,0.9-1.7,2.2c0,1.3,0.6,2.2,1.7,2.2
			S171.3,386.5,171.3,385.3L171.3,385.3z"/>
		<path class="st1" d="M181,388.7h-1.8v-0.9h0c-0.4,0.7-1.2,1.1-2.1,1.1c-1.3,0.1-2.4-0.9-2.5-2.2c0-0.1,0-0.2,0-0.3v-4.5h1.8v3.8
			c0,1.1,0.3,1.8,1.3,1.8c0.7,0,1.5-0.5,1.5-1.9v-3.7h1.8L181,388.7z"/>
		<path class="st1" d="M182,383.2v-1.4h1v-1.8h1.8v1.8h1.4v1.4h-1.4v3c0,0.9,0.1,1.1,0.8,1.1c0.2,0,0.4,0,0.6,0v1.4
			c-0.3,0-0.8,0.1-1.2,0.1c-1.7,0-2-0.7-2-2v-3.5H182z"/>
		<path class="st1" d="M198.4,379.6l-0.3,1.5c-0.6-0.2-1.3-0.3-2-0.3c-0.7,0-1.5,0.2-1.5,1c0,0.6,0.5,1,1.7,1.5
			c1.5,0.6,2.6,1.2,2.6,2.9c0,1.8-1.6,2.7-3.4,2.7c-1,0-1.9-0.2-2.8-0.5l0.3-1.5c0.8,0.3,1.6,0.5,2.4,0.5c1,0,1.6-0.4,1.6-1.1
			c0-0.7-0.6-1-1.8-1.5c-1.5-0.6-2.5-1.3-2.5-2.7c0-1.9,1.7-2.7,3.2-2.7C196.8,379.3,197.6,379.4,198.4,379.6z"/>
		<path class="st1" d="M202.4,387.9v3.3h-1.8v-9.3h1.8v0.9h0c0.5-0.7,1.3-1,2.1-1c1.9,0,2.9,1.6,2.9,3.6c0,2-1.1,3.6-2.9,3.6
			C203.6,388.9,202.9,388.5,202.4,387.9L202.4,387.9z M205.5,385.3c0-1.2-0.5-2.2-1.5-2.2s-1.7,0.9-1.7,2.2c0,1.3,0.6,2.2,1.7,2.2
			S205.5,386.5,205.5,385.3L205.5,385.3z"/>
		<path class="st1" d="M215,385.8h-4.7c0.1,1.2,1.1,1.7,2.2,1.7c0.6,0,1.1-0.1,1.6-0.3l0.2,1.3c-0.7,0.2-1.4,0.3-2.1,0.3
			c-2.4,0-3.9-1.5-3.9-3.5c-0.1-1.8,1.2-3.4,3-3.6c0.1,0,0.3,0,0.4,0c2,0,3.1,1.3,3.1,3.4V385.8z M211.9,382.9
			c-0.9,0-1.6,0.7-1.6,1.6h3c0.1-0.8-0.4-1.5-1.2-1.6C212,383,211.9,382.9,211.9,382.9L211.9,382.9z"/>
		<path class="st1" d="M222.6,385.8h-4.7c0.1,1.2,1.1,1.7,2.2,1.7c0.6,0,1.1-0.1,1.6-0.3l0.2,1.3c-0.7,0.2-1.4,0.3-2.1,0.3
			c-2.4,0-3.8-1.5-3.8-3.5c-0.1-1.8,1.2-3.4,3-3.6c0.1,0,0.3,0,0.4,0c2,0,3.1,1.3,3.1,3.4V385.8z M219.5,382.9
			c-0.9,0-1.6,0.7-1.6,1.6h3c0.1-0.8-0.4-1.5-1.2-1.6C219.6,383,219.6,382.9,219.5,382.9z"/>
		<path class="st1" d="M228.7,382.6v-3.4h1.8v9.5h-1.8v-0.9h0c-0.5,0.7-1.3,1-2.1,1c-1.9,0-2.9-1.6-2.9-3.6c0-2,1.1-3.6,2.9-3.6
			C227.4,381.7,228.2,382,228.7,382.6L228.7,382.6z M225.6,385.3c0,1.2,0.5,2.2,1.5,2.2s1.7-0.9,1.7-2.2c0-1.3-0.6-2.2-1.7-2.2
			S225.6,384,225.6,385.3L225.6,385.3z"/>
		<path class="st1" d="M233.4,388.7l4.2-9.2h1.5l-4.2,9.2H233.4z"/>
		<path class="st1" d="M246.8,388.1c1.3,0,4.5,0,6.1,0l-0.3,1.5c-1.5,0-4.6,0-6.1,0c-1,0-2-0.4-2.7-1.1c-0.6,0.6-1.2,1-1.8,1.4
			l-0.7-1.6c0.6-0.3,1.1-0.6,1.6-1v-2.6h-1.4v-1.4h2.9v3.8C245.1,387.8,246,388.2,246.8,388.1z M243,378.7c0.7,0.6,1.4,1.3,1.9,2.1
			c-0.5,0.3-0.9,0.6-1.4,0.9c-0.4-0.8-1-1.5-1.7-2.2L243,378.7z M245.7,387.8l-0.9-1.2c1-0.4,2-1,2.8-1.8h-2.2v-3.5h2.6v-0.6h-3
			v-1.2h3v-0.9h1.6v0.9h3.3v1.2h-3.3v0.6h2.7v3.5H250c0.9,0.8,1.8,1.4,2.9,1.7l-1,1.4c-0.9-0.5-1.7-1.1-2.4-1.8v1.8h-1.6v-1.7
			C247.3,386.8,246.5,387.3,245.7,387.8L245.7,387.8z M246.8,383.5h1.1v-1.1h-1.1V383.5z M250.7,383.5v-1.1h-1.2v1.1H250.7z"/>
		<path class="st1" d="M257.8,381.6v-0.6h1.5v0.6h1.8v-0.6h1.5v0.6h2.3v1.2h-2.3v1.8h-4.8v-1.8h-1.6c0,2.3-0.4,4.6-1.2,6.8l-1.4-0.8
			c0.8-2.1,1.1-4.3,1-6.5v-2.8h4.3v-1h1.6v1h4.4v1.3h-8.8v0.8H257.8z M265,388.5l-0.9,1.3c-1.3-0.2-2.7-0.6-3.9-1.1
			c-1.1,0.5-2.4,0.9-3.6,1.1l-0.9-1.2c1-0.1,2-0.3,3-0.6c-0.5-0.3-0.9-0.7-1.3-1.2l1.1-0.5h-2.1v-1.2h6l1.1,0.4
			c-0.4,1-1.1,1.8-1.9,2.4C262.8,388.2,263.9,388.4,265,388.5z M260.2,387.2c0.4-0.3,0.8-0.6,1.1-0.9h-2.5
			C259.3,386.7,259.7,387,260.2,387.2z M259.3,382.8v0.6h1.8v-0.6H259.3z"/>
		<path class="st1" d="M267.3,384.1V382h-1.4v-1.4h1.4v-2h1.5v2h0.9v1.4h-0.9v1.6c0.3-0.1,0.6-0.2,0.9-0.3c0,0.5,0.1,0.9,0.1,1.4
			c-0.3,0.1-0.7,0.2-1.1,0.4v3.1c0,0.9-0.2,1.3-1,1.5c-0.4,0.1-0.9,0.1-1.4,0l-0.3-1.5c0.3,0,0.6,0,0.9,0c0.2,0,0.3-0.1,0.3-0.3
			v-2.3c-0.5,0.1-0.9,0.3-1.2,0.4l-0.3-1.6C266.1,384.3,266.7,384.2,267.3,384.1z M276.5,380.1c-1.6,0.6-3.2,1-4.9,1.2v0
			c0,0.6,0.2,0.7,0.8,0.8c0.7,0,1.7,0,2.4,0s0.7-0.1,0.8-0.9l1.5,0.3c-0.2,1.8-0.5,2.1-2.1,2.1c-0.8,0-1.9,0-2.6,0
			c-1.8,0-2.2-0.4-2.2-2.1v-2.9h1.5v1.5c1.4-0.2,2.8-0.5,4.1-1.1L276.5,380.1z M271.8,389.4v0.4h-1.5V384h6.1v5.7h-1.6v-0.4H271.8z
			 M274.8,386.1v-0.7h-3v0.7H274.8z M274.8,388v-0.7h-3v0.7H274.8z"/>
		<path class="st1" d="M281.8,384.4c-0.6,1.5-1.4,2.9-2.5,4.1l-1.5-0.7c1.1-1.1,1.9-2.4,2.5-3.8L281.8,384.4z M284.3,388.2
			c0,0.9-0.3,1.4-1,1.5c-0.6,0.1-1.2,0.1-1.8,0l-0.3-1.6c0.4,0,0.9,0.1,1.3,0c0.2,0,0.3-0.1,0.3-0.3v-4.4H278V382h11v1.5h-4.7
			L284.3,388.2z M287.9,379v1.5h-8.8V379H287.9z M286.5,383.8c1,1.2,1.9,2.4,2.7,3.8l-1.5,0.9c-0.7-1.4-1.6-2.7-2.6-3.9L286.5,383.8
			z"/>
		<path class="st1" d="M292.9,389.7h-1.5v-5.2c-0.2,0.3-0.4,0.6-0.6,1l-1-1.2c1.2-1.7,2-3.7,2.5-5.8l1.6,0.3
			c-0.2,0.9-0.5,1.7-0.8,2.5L292.9,389.7z M301,387.9v1.4h-6v0.4h-1.5v-7.3h1.5v5.5H301z M296.2,381.7c0-0.2,0.1-0.4,0.1-0.6h-2.7
			v-1.4h3c0.1-0.4,0.1-0.8,0.1-1.2l1.7,0.1c0,0.3-0.1,0.7-0.2,1.1h2.9v1.4h-3.1c0,0.2-0.1,0.4-0.1,0.6h2.6v5.8h-4.9v-5.8
			L296.2,381.7z M296.8,383.3h2v-0.5h-2V383.3z M296.8,384.8h2v-0.5h-2V384.8z M296.8,386.3h2v-0.5h-2V386.3z"/>
		<path class="st1" d="M99.9,354.7v9.2H98v-7.4l-1.7,1l-0.7-1.4l2.4-1.4H99.9z"/>
		<path class="st1" d="M105.4,354.6c2.3,0,3.5,1.8,3.5,4.8c0,3-1.2,4.7-3.5,4.7c-2.3,0-3.5-1.7-3.5-4.7
			C101.9,356.4,103.1,354.6,105.4,354.6z M105.4,356.1c-1.2,0-1.6,1.4-1.6,3.3c0,1.9,0.5,3.2,1.6,3.2c1.2,0,1.6-1.3,1.6-3.2
			C107,357.4,106.6,356.1,105.4,356.1z"/>
		<path class="st1" d="M76.1,354.6c2.3,0,3.5,1.8,3.5,4.8c0,3-1.2,4.7-3.5,4.7c-2.3,0-3.5-1.7-3.5-4.7
			C72.6,356.4,73.8,354.6,76.1,354.6z M76.1,356.1c-1.2,0-1.6,1.4-1.6,3.3c0,1.9,0.5,3.2,1.6,3.2c1.2,0,1.6-1.3,1.6-3.2
			C77.7,357.4,77.3,356.1,76.1,356.1z"/>
		<path class="st1" d="M61.5,337.2c2.3,0,3.5,1.8,3.5,4.8c0,3-1.2,4.7-3.5,4.7c-2.3,0-3.5-1.7-3.5-4.7
			C58,339.1,59.1,337.2,61.5,337.2z M61.5,338.7c-1.2,0-1.6,1.4-1.6,3.3c0,1.9,0.5,3.2,1.6,3.2c1.2,0,1.6-1.3,1.6-3.2
			C63.1,340.1,62.6,338.7,61.5,338.7L61.5,338.7z"/>
		<path class="st1" d="M338,354.7v9.2h-1.9v-7.4l-1.7,1l-0.7-1.4l2.4-1.4H338z"/>
		<path class="st1" d="M343.5,354.6c2.3,0,3.5,1.8,3.5,4.8c0,3-1.2,4.7-3.5,4.7c-2.3,0-3.5-1.7-3.5-4.7
			C340,356.4,341.1,354.6,343.5,354.6z M343.5,356.1c-1.2,0-1.6,1.4-1.6,3.3c0,1.9,0.5,3.2,1.6,3.2c1.2,0,1.6-1.3,1.6-3.2
			C345.1,357.4,344.6,356.1,343.5,356.1z"/>
		<path class="st1" d="M351.6,354.6c2.3,0,3.5,1.8,3.5,4.8c0,3-1.2,4.7-3.5,4.7c-2.3,0-3.5-1.7-3.5-4.7
			C348.1,356.4,349.3,354.6,351.6,354.6z M351.6,356.1c-1.2,0-1.6,1.4-1.6,3.3c0,1.9,0.5,3.2,1.6,3.2c1.2,0,1.6-1.3,1.6-3.2
			C353.2,357.4,352.8,356.1,351.6,356.1z"/>
		<polygon class="st1" points="395.8,342.8 75.7,342.8 75.7,342.6 74.9,342.6 74.9,21.8 76.4,21.8 76.4,341.3 395.8,341.3 		"/>
		<path class="st2" d="M101.9,344.1H75.7c-0.8,0-1.5-0.7-1.5-1.5s0.7-1.5,1.5-1.5h24.7v-26.6c0-0.4,0.2-0.8,0.4-1L343.6,64.9
			c0.3-0.3,0.7-0.5,1.1-0.5h42.2c0.8,0,1.5,0.7,1.5,1.5s-0.7,1.5-1.5,1.5h-41.6L103.4,315.2v27.5
			C103.4,343.4,102.8,344.1,101.9,344.1z"/>
		<rect class="st3" width="427.7" height="406.2"/>
		<polygon class="st1" points="396.8,342 386.1,335.9 386.1,348.2 		"/>
		<polygon class="st1" points="75.7,19.8 69.5,30.4 81.9,30.4 		"/>
	</g>
</g>
</svg>
