<svg xmlns="http://www.w3.org/2000/svg" viewBox="0 0 508.392 187.553"><defs><style>.cls-1{fill:#fff}.cls-2{fill:#e5e5e6}.cls-3{fill:#c8c9ca}.cls-4{fill:#9e9e9f}.cls-5{fill:#231815}.cls-6{fill:#bfd833}.cls-7{fill:#666}.cls-8{fill:none}</style></defs><g id="レイヤー_2" data-name="レイヤー 2"><g id="レイヤー_2-2" data-name="レイヤー 2"><path class="cls-1" d="M186.448 89.834l-.45-5.632.11-.063-39.755-68.86-2.903-.777-7.273 4.2-1.17-2.027a1.275 1.275 0 01.466-1.742l2.576-1.488-1.488-2.577a1.273 1.273 0 00-1.74-.468l-16.204 9.355a1.274 1.274 0 00-.466 1.742l3.148 5.794-14.36 8.29-3.445-5.622a1.275 1.275 0 00-1.741-.467l-37.89 21.876a1.277 1.277 0 00-.47 1.743l3.147 5.795-14.354 8.287-3.447-5.621a1.275 1.275 0 00-1.743-.467L30.794 70.46a1.274 1.274 0 00-.466 1.741l1.488 2.578 2.578-1.488a1.275 1.275 0 011.741.468l1.17 2.026-7.273 4.199-.778 2.902 39.756 68.86.11-.064 4.65 3.207 1.106-.639 2.532.924a8.513 8.513 0 007.162-.627l7.81-4.51a8.503 8.503 0 004.12-5.886l.47-2.657 2.285-1.308a26.32 26.32 0 001.91.512 26.576 26.576 0 0031.825-19.989l25.95-14.993.16.266a2.145 2.145 0 00.891.816l3.164 1.542a9.356 9.356 0 008.78-.305l6.603-3.813a9.347 9.347 0 004.653-7.45l.246-3.51a2.098 2.098 0 00-.261-1.18l-.149-.273z"/><path class="cls-2" d="M158.94 105.716l.16.266a2.145 2.145 0 00.891.816l3.164 1.542a9.356 9.356 0 008.78-.305l6.603-3.813a9.347 9.347 0 004.653-7.45l.246-3.51a2.098 2.098 0 00-.261-1.18l-.149-.273z"/><path class="cls-3" d="M99.255 140.186a26.32 26.32 0 001.91.512 26.576 26.576 0 0031.825-19.989z"/><path class="cls-4" d="M186.73 90.321L74.05 155.376a.563.563 0 11-.562-.974l112.68-65.055a.563.563 0 11.562.974zm-.34-5.695l-117.1 67.607a.563.563 0 01-.562-.974l117.098-67.607a.563.563 0 11.563.974zM172.784 61.06l-117.1 67.606a.563.563 0 01-.562-.974l117.099-67.607a.563.563 0 11.563.974zm-20.41-35.35L35.276 93.315a.563.563 0 01-.563-.974l117.099-67.607a.563.563 0 11.562.974zm-5.74-9.943L29.535 83.374a.563.563 0 01-.562-.975L146.07 14.792a.563.563 0 01.563.975zm-2.904-.777L30.315 80.47a.563.563 0 01-.563-.974l113.417-65.481a.563.563 0 01.563.974zM78.118 49.953l-12.41 7.165a.375.375 0 11-.376-.65l12.411-7.165a.375.375 0 11.375.65zm27.69-15.987l-12.41 7.165a.375.375 0 11-.375-.65l12.41-7.164a.375.375 0 11.375.65zM74.876 50.352a.375.375 0 01-.513-.138l-1.56-2.688-.08-.103-.086-.09-.088-.077-.095-.065-.09-.05-.086-.032-.08-.02-.07-.005-.062.004-.052.013-.076.035a.375.375 0 11-.315-.68l.107-.05a.356.356 0 01.065-.022l.117-.031a.42.42 0 01.065-.01l.124-.01a.406.406 0 01.062 0l.128.011a.403.403 0 01.055.01l.131.03a.354.354 0 01.044.015l.133.05a.467.467 0 01.051.023l.127.071.027.016.127.087a.443.443 0 01.038.028l.12.104.026.025.11.118a.265.265 0 01.025.028l.101.13a.226.226 0 01.019.027l.09.14.01.016 1.488 2.577a.375.375 0 01-.137.513z"/><path class="cls-4" d="M81.339 50.795a.375.375 0 01-.512-.138l-3.291-5.7-.076-.117-.082-.103-.087-.092-.09-.079-.091-.062-.091-.05-.087-.033-.08-.02-.068-.005-.062.004-.052.013-.076.035a.375.375 0 11-.315-.68l.107-.05a.373.373 0 01.066-.023l.116-.03a.342.342 0 01.064-.01l.124-.01a.315.315 0 01.062.001l.128.01a.297.297 0 01.056.01l.13.032c.016.004.032.008.047.014l.132.05a.354.354 0 01.043.021l.13.07a.365.365 0 01.035.02l.126.088a.346.346 0 01.032.026l.121.104.025.025.112.117a.3.3 0 01.022.027l.102.13a.263.263 0 01.02.026l.09.14.011.018 3.296 5.708a.374.374 0 01-.137.513zm55.409-39.603l-18.41 10.63a.375.375 0 11-.374-.65l18.41-10.63a.375.375 0 01.374.65z"/><path class="cls-4" d="M103.681 30.284l-40.1 23.152a.375.375 0 11-.375-.65l40.1-23.152a.375.375 0 01.375.65zM48.926 61.897l-18.41 10.63a.375.375 0 11-.376-.65l18.411-10.63a.375.375 0 11.375.65z"/><path class="cls-4" d="M95.365 38.522a.375.375 0 01-.513-.137l-1.488-2.578-.009-.016-.076-.148a.277.277 0 01-.014-.032l-.062-.154c-.003-.01-.008-.021-.01-.032l-.048-.155a.298.298 0 01-.008-.038l-.03-.156-.005-.036-.013-.152a.426.426 0 01-.002-.049l.008-.149a.168.168 0 01.003-.037l.02-.139a.341.341 0 01.012-.055l.04-.129a.373.373 0 01.017-.05l.055-.116a.408.408 0 01.031-.055l.07-.102a.343.343 0 01.04-.05l.083-.085a.41.41 0 01.055-.046l.097-.069a.375.375 0 01.43.614l-.068.048-.036.038-.034.051-.031.064-.023.077-.013.092-.005.105.01.11.022.119.036.12.049.12.063.126 1.484 2.57a.374.374 0 01-.137.511zm-2.847 5.818a.375.375 0 01-.512-.137l-3.296-5.708-.084-.16a.362.362 0 01-.017-.036l-.062-.154-.012-.032-.046-.155a.45.45 0 01-.01-.04l-.027-.157a.231.231 0 01-.004-.031l-.015-.151a.497.497 0 01-.001-.052l.006-.148c0-.014.003-.027.003-.04l.022-.14a.4.4 0 01.012-.054l.04-.13a.487.487 0 01.02-.049l.054-.116a.356.356 0 01.029-.052l.07-.102a.326.326 0 01.041-.051l.084-.087a.373.373 0 01.053-.045l.096-.068a.375.375 0 01.432.613l-.068.048-.036.038-.035.05-.03.066-.024.078-.015.092-.004.104.01.11.023.12.034.119.048.118.069.13 3.289 5.697a.374.374 0 01-.137.513z"/><path class="cls-4" d="M94.662 43.32a.563.563 0 01-.769-.207l-1.17-2.026a1.842 1.842 0 01.675-2.512l11.134-6.428a.534.534 0 01.104-.046l.045-.015a.548.548 0 01.225-.027l.046.004a.551.551 0 01.202.056l.05.024a.532.532 0 01.097.061l.052.04a.544.544 0 01.054.05l.056.057a.773.773 0 01.04.044l.057.074a.271.271 0 01.022.028l.062.088.008.014.067.1.01.016.224.378a.563.563 0 01-.975.562l-.206-.348L93.96 39.55a.715.715 0 00-.262.975l1.17 2.026a.562.562 0 01-.206.768zm-15.281 8.821a.563.563 0 01-.768-.206l-1.17-2.026a.714.714 0 00-.974-.26L65.657 55.89l.125.228a.563.563 0 01-.98.555l-.069-.124-.008-.013-.12-.233a.176.176 0 01-.013-.024l-.045-.099-.01-.027-.036-.088a.7.7 0 01-.018-.055l-.02-.077a.551.551 0 01-.017-.072l-.009-.065a.617.617 0 01-.002-.135l.006-.055a.557.557 0 01.047-.176l.018-.042a.573.573 0 01.137-.187l.035-.03a.515.515 0 01.094-.07l11.134-6.428a1.84 1.84 0 012.512.673l1.17 2.026a.563.563 0 01-.207.768z"/><path class="cls-5" d="M178.913 104.872l-6.603 3.812a10.09 10.09 0 01-9.483.33l-3.164-1.542a2.89 2.89 0 01-.958-.754l-25.059 14.478a27.324 27.324 0 01-32.648 20.232 28.487 28.487 0 01-1.651-.43l-1.7.973-.408 2.31a9.226 9.226 0 01-4.485 6.406l-7.81 4.509a9.24 9.24 0 01-7.792.683l-2.204-.804-.804.464a.751.751 0 01-.801-.033l-4.364-3.011a.75.75 0 01-.619-.374L28.604 83.26a.75.75 0 01-.074-.569l.78-2.903a.748.748 0 01.347-.455l6.624-3.824-.795-1.376a.526.526 0 00-.717-.194L32.19 75.43a.75.75 0 01-1.024-.275l-1.489-2.578a2.027 2.027 0 01.74-2.766l16.203-9.354a2.028 2.028 0 012.762.731l3.06 4.992 13.089-7.557-2.793-5.146a2.028 2.028 0 01.748-2.758l37.89-21.876a2.027 2.027 0 012.76.732l3.06 4.992 13.094-7.559-2.795-5.145a2.027 2.027 0 01.746-2.756l16.204-9.356a2.026 2.026 0 012.764.743l1.489 2.577a.75.75 0 01-.275 1.025l-2.576 1.487a.526.526 0 00-.191.718l.794 1.377 6.624-3.824a.748.748 0 01.567-.074l2.905.776a.749.749 0 01.455.35l39.756 68.859a.75.75 0 01.015.723l.424 5.287a.75.75 0 01-.374.71l-2.81 1.622a2.844 2.844 0 01.173 1.21l-.247 3.51a10.082 10.082 0 01-5.026 8.046zm-20.348.194a.75.75 0 011.018.263l.16.266a1.383 1.383 0 00.578.53l3.164 1.54a8.593 8.593 0 008.075-.28l6.603-3.812a8.584 8.584 0 004.28-6.852l.247-3.513a1.345 1.345 0 00-.168-.759l-.153-.28a.75.75 0 01.283-1.01l3.012-1.738-.414-5.159a.78.78 0 010-.111l-39.392-68.228-2.302-.616-7.004 4.044a.75.75 0 01-1.025-.275l-1.17-2.026a2.028 2.028 0 01.74-2.767l1.928-1.112-1.114-1.928a.525.525 0 00-.715-.194l-16.204 9.356a.525.525 0 00-.191.717l.008.017 3.149 5.794a.751.751 0 01-.284 1.008l-14.36 8.29a.749.749 0 01-1.013-.258l-3.447-5.622-.01-.017a.525.525 0 00-.716-.193l-37.89 21.876a.527.527 0 00-.195.719l.01.017 3.146 5.795a.75.75 0 01-.284 1.007L52.56 67.844a.75.75 0 01-1.015-.258L48.1 61.964l-.012-.016a.526.526 0 00-.718-.192l-16.2 9.353a.526.526 0 00-.192.717l1.114 1.929 1.928-1.114a2.028 2.028 0 012.766.743l1.17 2.026a.75.75 0 01-.275 1.024l-7.004 4.044-.617 2.302 39.39 68.228a.737.737 0 01.098.056l4.259 2.938.695-.401a.75.75 0 01.631-.055l2.534.923a7.74 7.74 0 006.529-.572l7.809-4.509a7.732 7.732 0 003.758-5.367l.47-2.657a.749.749 0 01.363-.52l2.286-1.308a.75.75 0 01.595-.066 26.1 26.1 0 001.857.497 25.824 25.824 0 0030.926-19.425.752.752 0 01.356-.482z"/><path class="cls-6" d="M13.347 158.363a1.5 1.5 0 01-.01-3h.01a1.5 1.5 0 010 3zm6.01-.01a1.5 1.5 0 01-.01-3h.01a1.5 1.5 0 110 3zm6.01-.01a1.5 1.5 0 01-.01-3h.01a1.5 1.5 0 110 3zm6.01-.01a1.5 1.5 0 01-.01-3h.01a1.5 1.5 0 010 3zm6.01-.008a1.5 1.5 0 01-.01-3h.01a1.5 1.5 0 010 3zm6.01-.01a1.5 1.5 0 11-.01-3h.01a1.5 1.5 0 110 3zm6.01-.01a1.5 1.5 0 01-.01-3h.01a1.5 1.5 0 110 3zm6.01-.01a1.5 1.5 0 01-.01-3h.01a1.5 1.5 0 010 3zm6.01-.01a1.5 1.5 0 01-.01-3h.01a1.5 1.5 0 010 3zm6.01-.009a1.5 1.5 0 01-.01-3h.01a1.5 1.5 0 110 3zm6.01-.01a1.5 1.5 0 01-.01-3h.01a1.5 1.5 0 010 3zm6.01-.008a1.5 1.5 0 11-.01-3h.01a1.5 1.5 0 010 3zm6.01-.01a1.5 1.5 0 01-.01-3h.01a1.5 1.5 0 010 3zm6.01-.01a1.5 1.5 0 01-.01-3h.01a1.5 1.5 0 110 3zm6.01-.01a1.5 1.5 0 01-.01-3h.01a1.5 1.5 0 010 3zm6.01-.01a1.5 1.5 0 01-.01-3h.01a1.5 1.5 0 110 3zm6.01-.01a1.5 1.5 0 01-.01-3h.01a1.5 1.5 0 110 3zm6.01-.01a1.5 1.5 0 01-.01-3h.01a1.5 1.5 0 110 3zm6.01-.008a1.5 1.5 0 11-.01-3h.01a1.5 1.5 0 010 3zm6.01-.01a1.5 1.5 0 01-.01-3h.01a1.5 1.5 0 010 3zm6.01-.01a1.5 1.5 0 01-.01-3h.01a1.5 1.5 0 010 3zm6.01-.01a1.5 1.5 0 01-.01-3h.01a1.5 1.5 0 010 3zm6.01-.009a1.5 1.5 0 01-.01-3h.01a1.5 1.5 0 010 3zm6.01-.01a1.5 1.5 0 01-.01-3h.01a1.5 1.5 0 010 3zm6.01-.01a1.5 1.5 0 11-.01-3h.01a1.5 1.5 0 010 3zm6.01-.01a1.5 1.5 0 01-.01-3h.01a1.5 1.5 0 010 3zm6.01-.008a1.5 1.5 0 01-.01-3h.01a1.5 1.5 0 010 3zm6.01-.01a1.5 1.5 0 11-.01-3h.01a1.5 1.5 0 010 3zm6.01-.01a1.5 1.5 0 01-.01-3h.01a1.5 1.5 0 010 3zm6.01-.01a1.5 1.5 0 01-.01-3h.01a1.5 1.5 0 010 3zm6.01-.01a1.5 1.5 0 01-.01-3h.01a1.5 1.5 0 010 3zm6.01-.009a1.5 1.5 0 11-.01-3h.01a1.5 1.5 0 010 3zm6.01-.01a1.5 1.5 0 01-.01-3h.01a1.5 1.5 0 010 3zm6.01-.008a1.5 1.5 0 01-.01-3h.01a1.5 1.5 0 010 3zm6.01-.01a1.5 1.5 0 01-.01-3h.01a1.5 1.5 0 010 3zm6.01-.01a1.5 1.5 0 01-.01-3h.01a1.5 1.5 0 010 3zm-77.393-51.824l-1.515 14.44 13.263-5.909-11.748-8.531z"/><path class="cls-6" d="M144.592 120.913l.03-.29 1.545-14.728 12.219 8.873zm1.848-14.404l-1.454 13.86 12.733-5.671zM17.374 179.57a1.5 1.5 0 01-.735-2.808l.009-.004a1.5 1.5 0 11.726 2.812zm5.203-3.01a1.5 1.5 0 01-.736-2.807l.009-.005a1.5 1.5 0 11.727 2.812zm5.202-3.008a1.5 1.5 0 01-.767-2.79l.008-.004a1.5 1.5 0 11.759 2.793zm5.202-3.01a1.5 1.5 0 01-.735-2.808l.009-.005a1.5 1.5 0 11.726 2.813zm5.203-3.01a1.5 1.5 0 01-.736-2.807l.009-.005a1.5 1.5 0 11.727 2.813zm5.202-3.009a1.5 1.5 0 01-.767-2.789l.008-.005a1.5 1.5 0 11.759 2.794zm5.202-3.009a1.5 1.5 0 01-.735-2.807l.009-.005a1.5 1.5 0 11.726 2.812zm5.202-3.01a1.5 1.5 0 01-.735-2.807l.009-.005a1.5 1.5 0 11.726 2.813zm5.203-3.008a1.5 1.5 0 01-.767-2.79l.008-.004a1.5 1.5 0 11.759 2.794zm5.202-3.01a1.5 1.5 0 01-.735-2.808l.009-.004a1.5 1.5 0 11.726 2.812zm5.202-3.01a1.498 1.498 0 01-.838-2.743l.008-.006a1.5 1.5 0 11.83 2.75zm5.203-3.008a1.5 1.5 0 01-.735-2.808l.008-.005a1.5 1.5 0 11.727 2.813zm5.202-3.01a1.5 1.5 0 01-.735-2.808l.009-.005a1.5 1.5 0 11.726 2.813zm5.202-3.009a1.5 1.5 0 01-.735-2.808l.009-.005a1.5 1.5 0 11.726 2.813zm5.203-3.01a1.5 1.5 0 01-.735-2.807l.008-.005a1.5 1.5 0 11.727 2.812zm5.202-3.009a1.5 1.5 0 01-.735-2.807l.009-.005a1.5 1.5 0 11.726 2.812zm5.202-3.01a1.5 1.5 0 01-.767-2.788l.008-.005a1.5 1.5 0 11.76 2.794zm5.203-3.008a1.5 1.5 0 01-.735-2.808l.008-.005a1.5 1.5 0 11.727 2.813zm5.202-3.01a1.5 1.5 0 01-.735-2.808l.008-.004a1.5 1.5 0 11.727 2.812zm5.201-3.01a1.499 1.499 0 01-.87-2.72l.008-.006a1.5 1.5 0 11.862 2.726zm5.204-3.008a1.5 1.5 0 01-.736-2.808l.01-.005a1.5 1.5 0 11.726 2.813zm5.201-3.01a1.498 1.498 0 01-.838-2.743l.009-.006a1.5 1.5 0 11.83 2.749zm5.203-3.009a1.5 1.5 0 01-.767-2.79l.008-.004a1.5 1.5 0 11.76 2.794zm5.203-3.01a1.5 1.5 0 01-.736-2.807l.01-.005a1.5 1.5 0 11.726 2.812zm5.202-3.009a1.5 1.5 0 01-.735-2.807l.008-.005a1.5 1.5 0 11.727 2.812zm5.202-3.01a1.5 1.5 0 01-.735-2.807l.008-.005a1.5 1.5 0 11.727 2.813zm5.203-3.008a1.5 1.5 0 01-.736-2.808l.01-.005a1.5 1.5 0 11.726 2.813zm5.202-3.01a1.5 1.5 0 01-.736-2.808l.01-.004a1.5 1.5 0 11.726 2.812zm5.202-3.009a1.5 1.5 0 01-.735-2.807l.008-.005a1.5 1.5 0 11.727 2.812zm5.203-3.01a1.5 1.5 0 01-.736-2.807l.009-.005a1.5 1.5 0 11.727 2.813zm5.202-3.008a1.5 1.5 0 01-.736-2.808l.01-.005a1.5 1.5 0 11.726 2.813zm5.202-3.01a1.5 1.5 0 01-.735-2.808l.008-.005a1.5 1.5 0 11.727 2.813zm5.201-3.01a1.499 1.499 0 01-.87-2.72l.008-.006a1.5 1.5 0 11.862 2.726zm5.204-3.009a1.5 1.5 0 01-.736-2.807l.01-.005a1.5 1.5 0 11.726 2.812zm5.201-3.01a1.498 1.498 0 01-.838-2.742l.009-.006a1.5 1.5 0 11.83 2.749zm5.203-3.008a1.5 1.5 0 01-.767-2.79l.008-.004a1.5 1.5 0 11.759 2.794zm5.203-3.01a1.5 1.5 0 01-.736-2.808l.01-.004a1.5 1.5 0 11.726 2.812zm5.202-3.009a1.5 1.5 0 01-.736-2.807l.01-.005a1.5 1.5 0 11.726 2.812zm5.202-3.01a1.5 1.5 0 01-.767-2.789l.008-.004a1.5 1.5 0 11.759 2.794z"/><path class="cls-6" d="M156.797 155.31a108.445 108.445 0 00-7.642-37.277l3.718-1.475a112.434 112.434 0 017.923 38.647z"/><path class="cls-7" d="M171.843 128.98c0-3.71 1.116-7.22 5.221-7.22 3.17 0 5.222 2.088 5.222 7.22 0 5.149-2.035 7.256-5.222 7.256-3.223 0-5.221-2.125-5.221-7.257zm7.724-.991c-.09-2.755-.81-4.16-2.485-4.16-1.692 0-2.43 1.424-2.502 4.16zm-2.503 6.176c1.53 0 2.467-.936 2.503-4.087h-4.987c.036 3.259 1.026 4.087 2.484 4.087z"/><path class="cls-8" d="M0 0h252.066v187.553H0z"/><path class="cls-1" d="M434.251 154.214l4.641-3.22.111.062 39.523-68.993-.788-2.9-7.287-4.174 1.162-2.03a1.275 1.275 0 011.74-.474l2.582 1.479 1.48-2.583a1.273 1.273 0 00-.471-1.74l-16.235-9.3a1.274 1.274 0 00-1.74.474l-3.425 5.634-14.388-8.241 3.127-5.806a1.275 1.275 0 00-.472-1.74l-37.964-21.748a1.277 1.277 0 00-1.742.472l-3.427 5.634-14.382-8.24 3.125-5.806a1.275 1.275 0 00-.473-1.74l-16.234-9.3a1.274 1.274 0 00-1.74.473l-1.479 2.583 2.583 1.48a1.275 1.275 0 01.471 1.74l-1.163 2.03-7.287-4.174-2.9.787-39.523 68.993.111.063-.434 5.632 1.109.635.475 2.653a8.513 8.513 0 004.144 5.874l7.824 4.483a8.503 8.503 0 007.161.602l2.532-.931 2.281 1.317q.222.962.518 1.908a26.575 26.575 0 0033.282 17.455l26.01 14.889-.148.272a2.145 2.145 0 00-.258 1.18l.258 3.511a9.356 9.356 0 004.68 7.435l6.616 3.79a9.347 9.347 0 008.78.275l3.158-1.553a2.098 2.098 0 00.888-.82l.16-.265z"/><path class="cls-2" d="M406.69 138.426l-.15.272a2.145 2.145 0 00-.257 1.18l.258 3.511a9.356 9.356 0 004.68 7.435l6.616 3.79a9.347 9.347 0 008.78.275l3.158-1.553a2.098 2.098 0 00.888-.82l.16-.265z"/><path class="cls-3" d="M346.879 104.174q.222.962.518 1.908a26.575 26.575 0 0033.282 17.455z"/><path class="cls-4" d="M433.972 154.703L321.074 90.029a.563.563 0 01.559-.976l112.898 64.673a.563.563 0 01-.56.977zm4.751-3.158l-117.326-67.21a.563.563 0 01.559-.977l117.327 67.21a.563.563 0 11-.56.977zm13.527-23.613l-117.327-67.21a.563.563 0 01.56-.977l117.326 67.21a.563.563 0 11-.56.977zm20.29-35.419l-117.327-67.21a.563.563 0 01.559-.976l117.327 67.21a.563.563 0 11-.56.976zm5.706-9.962L360.92 15.341a.563.563 0 11.56-.976l117.326 67.21a.563.563 0 01-.559.976zm-.788-2.9L363.82 14.554a.563.563 0 01.56-.977l113.637 65.098a.563.563 0 11-.56.976zM414.24 40.524l-12.435-7.123a.375.375 0 11.372-.65l12.435 7.122a.375.375 0 01-.373.651zm27.743 15.893l-12.434-7.122a.375.375 0 11.373-.651l12.434 7.122a.375.375 0 01-.373.651zm-29.719-18.495a.375.375 0 01-.139-.511l1.539-2.701.049-.122.035-.12.022-.114.008-.114-.002-.103-.016-.091-.023-.08-.03-.062-.035-.051-.037-.039-.07-.047a.375.375 0 01.43-.615l.097.067a.357.357 0 01.052.045l.086.086a.419.419 0 01.042.051l.07.102a.406.406 0 01.031.054l.055.116a.404.404 0 01.02.052l.038.13a.353.353 0 01.01.044l.024.14a.465.465 0 01.006.056l.002.146v.03l-.011.154a.443.443 0 01-.005.047l-.03.156-.008.035-.047.155a.263.263 0 01-.012.035l-.062.154a.224.224 0 01-.014.029l-.075.149-.009.016-1.48 2.582a.375.375 0 01-.51.14z"/><path class="cls-4" d="M415.132 43.732a.375.375 0 01-.14-.512l3.272-5.711.064-.125.048-.123.036-.121.023-.117.007-.111-.003-.103-.015-.092-.022-.078-.03-.063-.035-.051-.038-.038-.068-.048a.375.375 0 01.43-.615l.096.068a.374.374 0 01.053.045l.084.086a.342.342 0 01.041.05l.072.102a.315.315 0 01.03.053l.055.116a.297.297 0 01.02.053l.038.129c.004.016.009.032.011.047l.023.14a.353.353 0 01.004.048l.005.147a.366.366 0 010 .041l-.012.153a.343.343 0 01-.007.041l-.028.157-.01.034-.045.155a.297.297 0 01-.012.033l-.061.154a.261.261 0 01-.012.03l-.075.148-.01.019-3.277 5.72a.374.374 0 01-.512.139zm62.096 27.975L458.782 61.14a.375.375 0 01.373-.65l18.446 10.566a.375.375 0 11-.373.65z"/><path class="cls-4" d="M444.097 52.727l-40.179-23.016a.375.375 0 01.373-.65l40.178 23.015a.375.375 0 01-.372.651zM389.235 21.3l-18.447-10.568a.375.375 0 01.373-.65l18.447 10.567a.375.375 0 11-.373.65z"/><path class="cls-4" d="M432.793 49.682a.375.375 0 01-.139-.511l1.48-2.583.009-.016.09-.14a.277.277 0 01.02-.03l.102-.13.023-.025.11-.119a.298.298 0 01.028-.026l.12-.104.03-.023.124-.088a.428.428 0 01.041-.025l.133-.07a.169.169 0 01.034-.015l.13-.052a.34.34 0 01.053-.018l.131-.03a.373.373 0 01.053-.01l.128-.011a.407.407 0 01.063 0l.123.008a.343.343 0 01.063.01l.116.028a.41.41 0 01.067.025l.108.049a.375.375 0 01-.314.681l-.076-.035-.05-.012-.062-.004-.07.005-.079.02-.086.034-.094.049-.089.064-.092.078-.085.092-.08.103-.076.118-1.475 2.574a.374.374 0 01-.512.14zm-6.461.466a.375.375 0 01-.139-.512l3.277-5.72.096-.152a.36.36 0 01.022-.033l.102-.131.022-.026.111-.118.03-.029.122-.103a.232.232 0 01.024-.019l.124-.089a.5.5 0 01.044-.027l.13-.069.037-.017.131-.052a.4.4 0 01.054-.016l.132-.03a.487.487 0 01.052-.01l.128-.01a.357.357 0 01.06-.001l.123.009a.326.326 0 01.065.01l.117.029a.375.375 0 01.066.023l.107.049a.375.375 0 01-.313.682l-.076-.035-.05-.013-.062-.004-.072.007-.08.018-.087.034-.091.048-.09.064-.092.08-.086.09-.078.101-.078.124-3.27 5.709a.374.374 0 01-.512.139z"/><path class="cls-4" d="M428.293 51.487a.563.563 0 01-.208-.767l1.163-2.03a1.842 1.842 0 012.51-.681l11.156 6.39a.533.533 0 01.092.067l.036.032a.548.548 0 01.136.18l.02.042a.551.551 0 01.053.203l.004.055a.533.533 0 01-.004.115l-.009.065a.544.544 0 01-.015.072l-.02.077a.773.773 0 01-.02.056l-.034.088a.272.272 0 01-.014.032l-.044.098-.008.014-.054.109-.008.016-.214.383a.563.563 0 01-.976-.56l.197-.352-10.833-6.206a.715.715 0 00-.975.264l-1.163 2.03a.562.562 0 01-.768.208zm-15.31-8.77a.563.563 0 01-.208-.768l1.163-2.03a.714.714 0 00-.265-.973L402.84 32.74l-.134.223a.563.563 0 01-.972-.567l.072-.123.007-.013.14-.221a.175.175 0 01.016-.024l.062-.088.018-.023.058-.074a.723.723 0 01.039-.044l.056-.057a.549.549 0 01.054-.05l.052-.04a.617.617 0 01.115-.07l.05-.023a.557.557 0 01.177-.048l.045-.005a.573.573 0 01.231.024l.044.015a.515.515 0 01.106.047l11.156 6.39a1.84 1.84 0 01.682 2.51l-1.163 2.03a.563.563 0 01-.768.208z"/><path class="cls-5" d="M417.464 155.264l-6.616-3.79a10.09 10.09 0 01-5.055-8.03l-.257-3.51a2.89 2.89 0 01.17-1.208l-25.117-14.377a27.324 27.324 0 01-33.908-18.044c-.17-.548-.324-1.1-.457-1.644l-1.697-.979-2.202.81a9.226 9.226 0 01-7.792-.655l-7.825-4.483a9.24 9.24 0 01-4.51-6.391l-.413-2.31-.805-.461a.751.751 0 01-.375-.71l.408-5.286a.75.75 0 01.013-.723l39.522-68.993a.75.75 0 01.455-.351l2.901-.786a.748.748 0 01.568.072l6.636 3.801.79-1.379a.526.526 0 00-.193-.717l-2.583-1.48a.75.75 0 01-.278-1.023l1.48-2.583a2.027 2.027 0 012.763-.75l16.234 9.299a2.028 2.028 0 01.757 2.755l-2.776 5.155 13.115 7.512 3.043-5.002a2.028 2.028 0 012.76-.74l37.964 21.748a2.027 2.027 0 01.755 2.754l-2.776 5.155 13.12 7.515 3.04-5.003a2.027 2.027 0 012.758-.741l16.236 9.3a2.026 2.026 0 01.748 2.763l-1.48 2.583a.75.75 0 01-1.023.278l-2.581-1.48a.526.526 0 00-.717.197l-.79 1.379 6.636 3.801a.748.748 0 01.35.454l.79 2.9a.749.749 0 01-.073.57l-39.523 68.993a.75.75 0 01-.618.377l-4.356 3.025a.75.75 0 01-.801.034l-2.817-1.613a2.844 2.844 0 01-.957.758l-3.158 1.552a10.082 10.082 0 01-9.483-.298zm-10.401-17.489a.75.75 0 01.285 1.011l-.15.273a1.382 1.382 0 00-.167.766l.259 3.51a8.593 8.593 0 004.304 6.838l6.616 3.79a8.584 8.584 0 008.074.253l3.16-1.553a1.344 1.344 0 00.572-.527l.165-.273a.75.75 0 011.015-.263l3.018 1.728 4.25-2.952a.778.778 0 01.096-.056l39.16-68.36-.625-2.3-7.017-4.02a.75.75 0 01-.278-1.024l1.163-2.03a2.028 2.028 0 012.763-.752l1.931 1.106 1.107-1.932a.525.525 0 00-.193-.715l-16.235-9.3a.525.525 0 00-.716.194l-.012.017-3.424 5.635a.751.751 0 01-1.013.261l-14.387-8.242a.749.749 0 01-.287-1.005l3.125-5.807.01-.017a.525.525 0 00-.194-.716l-37.964-21.748a.527.527 0 00-.718.194l-.01.017-3.427 5.634a.75.75 0 01-1.014.26l-14.382-8.238a.75.75 0 01-.288-1.007l3.127-5.806.009-.017a.526.526 0 00-.196-.718l-16.234-9.3a.526.526 0 00-.716.196l-1.106 1.932 1.932 1.107a2.028 2.028 0 01.75 2.764l-1.164 2.03a.75.75 0 01-1.023.278l-7.018-4.02-2.3.624-39.16 68.36a.738.738 0 010 .112l-.398 5.159.696.399a.75.75 0 01.365.518l.477 2.654a7.74 7.74 0 003.778 5.356l7.824 4.482a7.732 7.732 0 006.53.549l2.532-.93a.749.749 0 01.631.052h.002l2.28 1.318a.75.75 0 01.356.48c.142.611.311 1.235.504 1.855a25.824 25.824 0 0032.343 16.961.752.752 0 01.596.066z"/><path class="cls-6" d="M495.055 158.363h-.01a1.5 1.5 0 11.01 0zm-6.01-.01h-.01a1.5 1.5 0 11.01 0zm-6.01-.01h-.01a1.5 1.5 0 11.01 0zm-6.01-.01h-.01a1.5 1.5 0 11.01 0zm-6.01-.008h-.01a1.5 1.5 0 11.01 0zm-6.01-.01h-.01a1.5 1.5 0 11.01 0zm-6.01-.01h-.01a1.5 1.5 0 11.01 0zm-6.01-.01h-.01a1.5 1.5 0 11.01 0zm-6.01-.01h-.01a1.5 1.5 0 11.01 0zm-6.01-.009h-.01a1.5 1.5 0 11.01 0zm-6.01-.01h-.01a1.5 1.5 0 11.01 0zm-6.01-.008h-.01a1.5 1.5 0 11.01 0zm-6.01-.01h-.01a1.5 1.5 0 11.01 0zm-6.01-.01h-.01a1.5 1.5 0 11.01 0zm-6.01-.01h-.01a1.5 1.5 0 11.01 0zm-6.01-.01h-.01a1.5 1.5 0 11.01 0zm-6.01-.01h-.01a1.5 1.5 0 11.01 0zm-6.01-.01h-.01a1.5 1.5 0 11.01 0zm-6.01-.008h-.01a1.5 1.5 0 11.01 0zm-6.01-.01h-.01a1.5 1.5 0 11.01 0zm-6.01-.01h-.01a1.5 1.5 0 11.01 0zm-6.01-.01h-.01a1.5 1.5 0 11.01 0zm-6.01-.009h-.01a1.5 1.5 0 11.01 0zm-6.01-.01h-.01a1.5 1.5 0 11.01 0zm-6.01-.01h-.01a1.5 1.5 0 11.01 0zm-6.008-.008a1.312 1.312 0 01-.151-.008l-.01-.001a1.492 1.492 0 11.16.009zm-6.012-.01h-.01a1.5 1.5 0 11.01 0zm-6.01-.01h-.01a1.5 1.5 0 11.01 0zm-6.01-.01h-.01a1.5 1.5 0 11.01 0zm-6.01-.01h-.01a1.5 1.5 0 11.01 0zm-6.01-.01h-.01a1.5 1.5 0 11.01 0zm-6.01-.009h-.01a1.5 1.5 0 11.01 0zm-6.01-.01h-.01a1.5 1.5 0 11.01 0zm-6.01-.008h-.01a1.5 1.5 0 11.01 0zm-6.01-.01h-.01a1.5 1.5 0 11.01 0zm-6.01-.01h-.01a1.5 1.5 0 11.01 0zm77.383-51.824l1.515 14.44-13.263-5.909 11.748-8.531z"/><path class="cls-6" d="M363.8 120.913l-13.794-6.145 12.219-8.873zm-13.127-6.215l12.733 5.672-1.454-13.861zm140.347 64.876a1.486 1.486 0 01-.724-.188l-.009-.005a1.493 1.493 0 11.733.193zm-5.202-3.01a1.486 1.486 0 01-.724-.188l-.01-.005a1.493 1.493 0 11.734.193zm-5.203-3.009a1.493 1.493 0 01-.756-.207l-.008-.004a1.494 1.494 0 11.764.211zm-5.202-3.01a1.486 1.486 0 01-.724-.188l-.009-.005a1.493 1.493 0 11.733.194zm-5.202-3.008a1.486 1.486 0 01-.724-.189l-.009-.004a1.493 1.493 0 11.733.193zm-5.203-3.01a1.493 1.493 0 01-.756-.207l-.008-.005a1.493 1.493 0 11.764.212zm-5.202-3.009a1.486 1.486 0 01-.724-.188l-.009-.005a1.494 1.494 0 11.733.193zm-5.202-3.01a1.486 1.486 0 01-.724-.188l-.009-.005a1.493 1.493 0 11.733.194zm-5.203-3.008a1.493 1.493 0 01-.756-.207l-.008-.005a1.493 1.493 0 11.764.212zm-5.202-3.01a1.486 1.486 0 01-.724-.188l-.009-.005a1.494 1.494 0 11.733.193zm-5.203-3.01a1.486 1.486 0 01-.827-.25l-.008-.007a1.495 1.495 0 11.835.257zm-5.202-3.009a1.486 1.486 0 01-.724-.188l-.009-.005a1.493 1.493 0 11.733.193zm-5.202-3.01a1.486 1.486 0 01-.724-.188l-.009-.005a1.493 1.493 0 11.733.194zm-5.202-3.008a1.486 1.486 0 01-.724-.189l-.009-.004a1.493 1.493 0 11.733.193zm-5.203-3.01a1.486 1.486 0 01-.724-.188l-.008-.005a1.493 1.493 0 11.732.193zm-5.202-3.009a1.486 1.486 0 01-.724-.188l-.009-.005a1.493 1.493 0 11.733.193zm-5.202-3.01a1.493 1.493 0 01-.757-.206l-.008-.005a1.494 1.494 0 11.765.212zm-5.202-3.008a1.486 1.486 0 01-.725-.189l-.008-.005a1.493 1.493 0 11.733.194zm-5.203-3.01a1.486 1.486 0 01-.724-.188l-.009-.005a1.493 1.493 0 11.733.193zm-5.203-3.01a1.49 1.49 0 01-.86-.273l-.008-.006a1.496 1.496 0 11.868.28zm-5.201-3.009a1.486 1.486 0 01-.725-.188l-.008-.005a1.493 1.493 0 11.733.193zm-5.204-3.01a1.486 1.486 0 01-.826-.25l-.009-.006a1.495 1.495 0 11.835.257zm-5.201-3.008a1.493 1.493 0 01-.757-.207l-.008-.005a1.493 1.493 0 11.765.212zm-5.202-3.01a1.486 1.486 0 01-.724-.188l-.01-.005a1.493 1.493 0 11.734.193zm-5.203-3.009a1.486 1.486 0 01-.724-.188l-.008-.005a1.493 1.493 0 11.732.193zm-5.202-3.01a1.493 1.493 0 01-.756-.206l-.009-.005a1.493 1.493 0 11.765.212zm-5.202-3.008a1.486 1.486 0 01-.724-.189l-.01-.005a1.493 1.493 0 11.734.194zm-5.202-3.01a1.486 1.486 0 01-.725-.188l-.008-.005a1.493 1.493 0 11.733.193zm-5.203-3.009a1.486 1.486 0 01-.724-.188l-.008-.005a1.493 1.493 0 11.732.193zm-5.202-3.01a1.493 1.493 0 01-.757-.207l-.008-.004a1.493 1.493 0 11.765.211zm-5.202-3.008a1.486 1.486 0 01-.724-.189l-.01-.005a1.493 1.493 0 11.734.194zm-5.203-3.01a1.486 1.486 0 01-.724-.189l-.008-.004a1.493 1.493 0 11.732.193zm-5.203-3.01a1.49 1.49 0 01-.86-.273l-.008-.006a1.496 1.496 0 11.868.28zm-5.201-3.009a1.486 1.486 0 01-.724-.188l-.01-.005a1.493 1.493 0 11.734.193zm-5.203-3.01a1.486 1.486 0 01-.827-.25l-.009-.006a1.495 1.495 0 11.836.257zm-5.202-3.008a1.493 1.493 0 01-.756-.207l-.009-.005a1.493 1.493 0 11.765.212zm-5.202-3.01a1.486 1.486 0 01-.724-.188l-.01-.005a1.493 1.493 0 11.734.193zm-5.202-3.009a1.486 1.486 0 01-.725-.188l-.008-.005a1.493 1.493 0 11.733.193zm-5.203-3.01a1.493 1.493 0 01-.756-.207l-.009-.004a1.493 1.493 0 11.765.212z"/><path class="cls-6" d="M351.595 155.31l-3.999-.105a112.448 112.448 0 017.923-38.647l3.718 1.475a108.459 108.459 0 00-7.642 37.277z"/><path class="cls-7" d="M331.814 128.98c0-3.71 1.117-7.22 5.222-7.22 3.169 0 5.221 2.088 5.221 7.22 0 5.149-2.034 7.256-5.22 7.256-3.224 0-5.223-2.125-5.223-7.257zm7.725-.991c-.09-2.755-.81-4.16-2.485-4.16-1.693 0-2.431 1.424-2.503 4.16zm-2.503 6.176c1.53 0 2.466-.936 2.503-4.087h-4.988c.036 3.259 1.027 4.087 2.485 4.087z"/><path class="cls-8" d="M256.326 0h252.066v187.553H256.326z"/></g></g></svg>