<svg xmlns="http://www.w3.org/2000/svg" viewBox="-173.415 0 555 275.344"><defs><style>.cls-1{fill:#fff}.cls-2{fill:#9e9e9f}.cls-3{fill:#c8c9ca}.cls-5{fill:#ddd583}.cls-7{fill:#231815}.cls-8{fill:#bfd833}</style></defs><g id="レイヤー_2" data-name="レイヤー 2"><g id="レイヤー_2-2" data-name="レイヤー 2"><path class="cls-1" d="M69.841 9.591H196.55a4.252 4.252 0 014.252 4.252v126.71a4.25 4.25 0 01-4.25 4.25H69.841a4.252 4.252 0 01-4.252-4.252V13.843a4.252 4.252 0 014.252-4.252z"/><path class="cls-2" d="M196.55 142.627H69.841a2.078 2.078 0 01-2.076-2.077V13.841a2.078 2.078 0 012.076-2.075H196.55a2.078 2.078 0 012.075 2.075v126.71a2.078 2.078 0 01-2.075 2.076zM69.841 12.516a1.327 1.327 0 00-1.326 1.325v126.71a1.328 1.328 0 001.326 1.326H196.55a1.327 1.327 0 001.325-1.327V13.841a1.327 1.327 0 00-1.325-1.325z"/><path class="cls-2" d="M98.753 77.202a.375.375 0 01-.375-.375V45.251a.375.375 0 11.75 0v31.576a.375.375 0 01-.375.375z"/><path class="cls-2" d="M98.753 77.39H80.585a.562.562 0 01-.563-.563V45.251a.562.562 0 01.563-.562h18.202l.196.012a.582.582 0 01.063.008l.194.033a.665.665 0 01.067.016l.193.059a.741.741 0 01.053.019l.197.082a.53.53 0 01.057.028l.196.109a.387.387 0 01.055.035l.194.14a.664.664 0 01.042.034l.195.17c.015.013.03.028.043.043l.192.209a.62.62 0 01.033.04l.187.248c.011.015.022.03.032.047l.177.292a.63.63 0 01.025.046l.165.34.02.044.15.393a.54.54 0 01.015.045l.129.446a.586.586 0 01.01.047l.102.508.006.045.066.568a.435.435 0 01.003.044l.024.633.052 3.9.028 3.886.008 3.78-.008 3.782-.028 3.885-.052 3.89-.024.644a.407.407 0 01-.003.043l-.066.57c-.001.015-.004.03-.007.045l-.1.508a.572.572 0 01-.011.046l-.13.447a.462.462 0 01-.015.046l-.15.39-.019.045-.165.34a.422.422 0 01-.025.046l-.177.292a.575.575 0 01-.032.047l-.187.247a.714.714 0 01-.035.043l-.191.207a.537.537 0 01-.04.04l-.195.173a.743.743 0 01-.046.036l-.193.138a.434.434 0 01-.051.033l-.197.11a.807.807 0 01-.056.028l-.197.083a.506.506 0 01-.06.021l-.193.057a.47.47 0 01-.063.016l-.194.034a.44.44 0 01-.063.007l-.196.012zm-17.606-1.125h17.59l.147-.009.13-.023.133-.04.139-.058.141-.08.145-.103.151-.134.153-.166.152-.202.15-.246.143-.294.132-.346.116-.402.092-.462.06-.525.022-.61.052-3.871.028-3.88.008-3.776-.008-3.774-.028-3.881-.052-3.881-.022-.599-.06-.524-.092-.462-.116-.401-.133-.348-.143-.294-.149-.245-.153-.204-.152-.166-.15-.133-.146-.104-.139-.078-.141-.058-.134-.04-.13-.023-.146-.01h-17.59zm23.985 58.071a9.942 9.942 0 119.943-9.942 9.953 9.953 0 01-9.943 9.942zm0-19.135a9.192 9.192 0 109.193 9.193 9.202 9.202 0 00-9.193-9.193zm-17.008 24.875h-14.03a3.781 3.781 0 01-3.778-3.776v-23.812a3.782 3.782 0 013.777-3.778h14.031a3.782 3.782 0 013.778 3.778V136.3a3.78 3.78 0 01-3.778 3.776zm-14.03-30.616a3.031 3.031 0 00-3.028 3.028V136.3a3.03 3.03 0 003.027 3.026h14.031a3.03 3.03 0 003.028-3.026v-23.812a3.03 3.03 0 00-3.028-3.028zm59.101 31.041a14.848 14.848 0 01-14.832-14.831v-2.553a14.832 14.832 0 0129.664 0v2.553a14.848 14.848 0 01-14.832 14.831zm0-31.465a14.097 14.097 0 00-14.082 14.081v2.553a14.082 14.082 0 0028.164 0v-2.553a14.097 14.097 0 00-14.082-14.08zm0-69.545a13.318 13.318 0 1113.32-13.318 13.333 13.333 0 01-13.32 13.318zm0-25.511a12.193 12.193 0 1012.195 12.193 12.206 12.206 0 00-12.195-12.193zm34.44 63.222a.376.376 0 01-.375-.375V45.251a.375.375 0 11.75 0v31.576a.375.375 0 01-.375.375z"/><path class="cls-2" d="M185.805 77.39h-18.17l-.034-.001-.194-.012a.435.435 0 01-.063-.008l-.195-.033a.476.476 0 01-.063-.016l-.193-.057a.506.506 0 01-.06-.021l-.197-.083a.783.783 0 01-.056-.028l-.196-.11a.42.42 0 01-.051-.033l-.194-.138a.703.703 0 01-.045-.036l-.195-.173a.535.535 0 01-.04-.04l-.192-.207a.672.672 0 01-.035-.043l-.186-.247a.502.502 0 01-.032-.047l-.177-.292a.45.45 0 01-.025-.046l-.166-.34a.93.93 0 01-.019-.044l-.15-.391a.462.462 0 01-.015-.046l-.129-.447a.516.516 0 01-.011-.046l-.1-.508-.008-.045-.066-.57a.407.407 0 01-.003-.043l-.023-.632-.052-3.9-.029-3.886-.008-3.782.008-3.78.029-3.886.051-3.888.024-.646a.435.435 0 01.003-.044l.066-.568a.49.49 0 01.007-.045l.1-.508a.537.537 0 01.012-.047l.129-.446a.54.54 0 01.015-.045l.15-.393.02-.045.165-.34a.693.693 0 01.025-.046l.177-.291a.606.606 0 01.032-.047l.186-.247a.566.566 0 01.034-.042l.191-.208a.768.768 0 01.043-.043l.195-.17a.578.578 0 01.043-.035l.193-.139a.386.386 0 01.056-.035l.195-.11a.53.53 0 01.057-.027l.197-.082a.719.719 0 01.053-.02l.194-.058a.662.662 0 01.066-.016l.195-.034a.574.574 0 01.063-.007l.194-.012h18.204a.562.562 0 01.562.562v31.576a.562.562 0 01-.562.563zm-18.153-1.125h17.59V45.814h-17.59l-.146.009-.13.022-.133.04-.141.06-.14.077-.145.104-.15.133-.153.166-.153.204-.149.245-.142.294-.134.348-.115.4-.092.463-.06.524-.023.611-.051 3.87-.029 3.881-.008 3.774.008 3.777.029 3.88.051 3.882.023.597.06.525.092.462.115.402.133.346.143.294.15.246.151.202.153.166.151.134.145.104.142.08.139.058.132.039.13.023z"/><path class="cls-3" d="M86.972 80.257a2.89 2.89 0 00-.984-.171c-.404 0-.819.14-.819.587 0 .362.239.536.9.795.804.34 1.268.653 1.268 1.406 0 .914-.78 1.29-1.6 1.29a3.792 3.792 0 01-1.374-.23l.167-.631a3.195 3.195 0 001.196.273c.527 0 .882-.217.882-.648 0-.388-.345-.6-.995-.858-.754-.302-1.184-.683-1.184-1.332 0-.887.785-1.26 1.523-1.26a3.583 3.583 0 011.165.178zm2.485 3.906a1.753 1.753 0 10-1.64-1.75 1.565 1.565 0 001.64 1.75m0-2.948c.625 0 .913.5.913 1.199 0 .714-.288 1.213-.913 1.213-.618 0-.907-.499-.907-1.213 0-.7.281-1.2.907-1.2m2.187-.476v3.38h.721v-1.882c0-.744.427-1.021.826-1.021.545 0 .692.36.692.94v1.962h.741V81.88a1.143 1.143 0 00-1.236-1.216 1.128 1.128 0 00-1.024.545h-.013v-.471zm4.067 0h-.797l1.335 3.277-.547 1.32h.758l1.835-4.597h-.763l-.907 2.48h-.009zm35.441 3.38h2.687v-.632h-1.937v-1.414h1.719v-.611h-1.719v-1.297h1.877v-.606h-2.627zm3.273-3.38v3.38h.725v-1.882c0-.744.412-1.021.826-1.021.551 0 .697.36.697.94v1.962h.716V81.88a1.228 1.228 0 00-2.249-.671h-.01v-.471zm-32.861 0v3.38h.736v-1.882c0-.744.422-1.021.817-1.021.557 0 .708.36.708.94v1.962h.725V81.88a1.135 1.135 0 00-1.223-1.216 1.156 1.156 0 00-1.039.545h-.01v-.471zm36.185.55h.56v1.897c0 .62.138.955.896.955.196 0 .408-.011.56-.023v-.555a2.45 2.45 0 01-.343.027c-.348 0-.393-.08-.393-.54v-1.76h.739v-.551h-.739v-.875h-.72v.875h-.56zm5.394 1.339v-.31c0-1.005-.496-1.653-1.467-1.653a1.589 1.589 0 00-1.587 1.76 1.643 1.643 0 001.793 1.74 2.69 2.69 0 001.014-.153l-.094-.537a2.362 2.362 0 01-.849.153 1.042 1.042 0 01-1.156-1zm-2.346-.532a.902.902 0 01.879-.913.785.785 0 01.787.895v.018h-1.666m4.601-1.425a1.15 1.15 0 00-.126-.006.87.87 0 00-.87.518h-.017v-.444h-.706v3.38h.733v-1.794c0-.814.357-1.09.797-1.09.063 0 .112 0 .154.002zm-40.484.619h.553v1.896c0 .62.144.955.923.955.187 0 .402-.011.539-.023v-.555a2.238 2.238 0 01-.326.027c-.353 0-.39-.08-.39-.54v-1.76h.718v-.551h-.717v-.875h-.747v.875h-.553zm14.09 0h.572v1.896c0 .62.123.955.908.955.19 0 .394-.011.554-.023v-.555a2.465 2.465 0 01-.343.027c-.351 0-.393-.08-.393-.54v-1.76h.737v-.551h-.737v-.875h-.726v.875h-.573zm-8.689 1.338v-.31c0-1.005-.5-1.653-1.456-1.653a1.588 1.588 0 00-1.601 1.76 1.64 1.64 0 001.789 1.74 2.663 2.663 0 001.013-.153l-.096-.537a2.425 2.425 0 01-.853.153 1.043 1.043 0 01-1.143-1zm-2.347-.532a.905.905 0 01.89-.913.78.78 0 01.77.895v.018h-1.66m21.256.532v-.31c0-1.005-.494-1.653-1.451-1.653a1.596 1.596 0 00-1.607 1.76 1.648 1.648 0 001.805 1.74 2.601 2.601 0 001-.153l-.102-.537a2.23 2.23 0 01-.828.153 1.056 1.056 0 01-1.176-1zm-2.359-.532a.92.92 0 01.908-.913.79.79 0 01.78.895v.018h-1.688m-14.264-1.425c-.064-.004-.091-.006-.137-.006a.876.876 0 00-.882.518h-.01v-.444h-.705v3.38h.718v-1.794c0-.814.372-1.09.816-1.09.063 0 .102 0 .148.002zm33.289.619h.474v1.896c0 .62.147.955.905.955.2 0 .412-.011.567-.023v-.555a2.37 2.37 0 01-.348.027c-.328 0-.399-.08-.399-.54v-1.76h.756v-.551h-.756v-.875h-.725v.875h-.474zm4.41.7c-1.146 0-2.12.182-2.12 1.157 0 .776.587 1.017 1.155 1.017a1.084 1.084 0 001.02-.521h.016a2.34 2.34 0 00.074.475h.637a6.44 6.44 0 01-.042-.784v-1.425c0-.813-.493-1.244-1.467-1.244a3.352 3.352 0 00-1.063.195l.151.537a2.448 2.448 0 01.865-.181c.54 0 .775.246.775.693zm0 .475v.266a.83.83 0 01-.871.912.495.495 0 01-.556-.528c0-.525.613-.65 1.29-.65zm-35.37-.475c-1.133 0-2.114.182-2.114 1.157 0 .776.579 1.017 1.164 1.017a1.104 1.104 0 001.02-.521h.012a2.994 2.994 0 00.068.475h.635a4.77 4.77 0 01-.055-.784v-1.425c0-.813-.475-1.244-1.44-1.244a3.203 3.203 0 00-1.062.195l.142.537a2.437 2.437 0 01.86-.181c.539 0 .77.246.77.693zm0 .475v.266a.824.824 0 01-.852.912.502.502 0 01-.575-.528c0-.525.621-.65 1.296-.65zm37.617-3.01h-.733v.677h.733zm-.012 1.284h-.721v3.38h.721zm-30.153-1.283h-.744v.676h.744zm-.018 1.283h-.726v3.38h.726zm30.944 0v3.38h.725v-1.882c0-.744.427-1.021.826-1.021.547 0 .693.36.693.94v1.962h.729V81.88a1.128 1.128 0 00-1.221-1.216 1.16 1.16 0 00-1.039.545h-.006v-.471zm3.718 0v3.38h.733v-1.915c0-.71.36-.988.756-.988.547 0 .653.34.653.902v2h.724V82.05a.734.734 0 01.74-.835c.531 0 .64.383.64.94v1.962h.74V81.88a1.108 1.108 0 00-1.212-1.216 1.14 1.14 0 00-1.047.545h-.028a.985.985 0 00-.991-.545 1.052 1.052 0 00-.979.556h-.019v-.482zm8.552 1.889v-.31c0-1.005-.493-1.653-1.447-1.653a1.594 1.594 0 00-1.606 1.76 1.643 1.643 0 001.807 1.74 2.636 2.636 0 00.998-.153l-.098-.537a2.327 2.327 0 01-.854.153 1.056 1.056 0 01-1.152-1zm-2.352-.532a.919.919 0 01.905-.913.794.794 0 01.773.895v.018h-1.678m2.902-1.357v3.38h.71v-1.882c0-.744.416-1.021.829-1.021.57 0 .698.36.698.94v1.962h.732V81.88a1.24 1.24 0 00-2.266-.671h-.015v-.471zm3.32.55H170v1.897c0 .62.14.955.902.955.201 0 .41-.011.559-.023v-.555a2.401 2.401 0 01-.333.027c-.332 0-.389-.08-.389-.54v-1.76h.722v-.551h-.722v-.875H170v.875h-.55zm3.733 2.83h.768v-4.56h-.768zm-73.11 0h.735v-4.56h-.736zm74.627-3.38v3.38h.722v-1.882c0-.744.418-1.021.826-1.021.565 0 .695.36.695.94v1.962h.734V81.88a1.235 1.235 0 00-2.259-.671h-.018v-.471zm6.028.05a2.053 2.053 0 00-.77-.124 1.655 1.655 0 00-1.752 1.76 1.617 1.617 0 001.756 1.74 1.712 1.712 0 00.766-.139l-.117-.525a1.195 1.195 0 01-.6.127 1.214 1.214 0 01-.023-2.412 1.475 1.475 0 01.604.118zm-62.03 0a2.107 2.107 0 00-.775-.124 1.659 1.659 0 00-1.76 1.76 1.621 1.621 0 001.76 1.74 1.75 1.75 0 00.775-.139l-.126-.525a1.21 1.21 0 01-.605.127 1.214 1.214 0 01-.012-2.412 1.489 1.489 0 01.598.118zm62.638 3.33h.832v-.845h-.832zm-56.479.001l1.266-3.391h-.78l-.875 2.725h-.013l-.889-2.725h-.807l1.27 3.391h.828zm37.351-34.649a4.826 4.826 0 10-4.824 4.758 4.797 4.797 0 004.824-4.757zm-.642 0a4.185 4.185 0 11-4.182-4.27 4.2 4.2 0 014.182 4.27zm-42.444 2.14a2.892 2.892 0 01-.863-2.133 3.102 3.102 0 01.864-2.24 3.55 3.55 0 014.644 0 3.102 3.102 0 01.852 2.24 2.81 2.81 0 01-.852 2.134 3.125 3.125 0 01-2.324.969 3.184 3.184 0 01-2.32-.97zm6.676.566a3.96 3.96 0 001.148-2.7 3.692 3.692 0 00-1.148-2.767 6.18 6.18 0 00-4.355-1.475 6.81 6.81 0 00-4.336 1.471 3.695 3.695 0 00-1.184 2.772 3.744 3.744 0 001.184 2.699 6.611 6.611 0 004.336 1.478 6.525 6.525 0 004.355-1.478zm-16.812-6.94a6.56 6.56 0 00-2.817.584 2.16 2.16 0 00-1.477 1.97 2.07 2.07 0 00.551 1.38 2.612 2.612 0 001.606.767 22.537 22.537 0 002.34.387c.931.108 1.867.207 2.253.307.274.082.788.197.788.695a.897.897 0 01-.621.84 4.126 4.126 0 01-1.87.367 7.254 7.254 0 01-2.22-.428 2.91 2.91 0 01-1.299-.875 1.374 1.374 0 01-.266-.836h-1.02v2.926h1.134v-.428c0-.052.05-.133.246-.127a11.961 11.961 0 001.697.567 6.661 6.661 0 001.734.232 7.082 7.082 0 002.33-.346 6.913 6.913 0 001.406-.638 2.068 2.068 0 00.741-1.55 2.04 2.04 0 00-.598-1.52 2.35 2.35 0 00-.747-.55 5.363 5.363 0 00-.923-.34 17.278 17.278 0 00-2.572-.392 19.478 19.478 0 01-2.299-.265.598.598 0 01-.431-.567.707.707 0 01.398-.623 5.085 5.085 0 012.107-.362 6.724 6.724 0 012.452.405 2.251 2.251 0 01.588.375 2.069 2.069 0 01.572.986h.935v-2.584h-1.05v.321c0 .103-.09.24-.286.127a7.424 7.424 0 00-3.382-.805zm22.723.473l5.048 4.627.018-3.112c-.016-.425-.088-.572-.524-.572h-.957v-.943h4.328v.943h-.93c-.449 0-.476.127-.482.572l.018 5.936h-1.47l-5.82-5.207v3.678c.007.43.02.629.44.629h1.022v.9h-4.23v-.9h.982c.372 0 .357-.377.357-.65v-4.356c0-.309-.043-.602-.603-.602h-.819v-.943zm12.792 6.551c.035 0 .219-.006.262-.014a.393.393 0 00.191-.191.99.99 0 00.016-.213V50.37c0-.035 0-.047-.062-.138-.065-.09-2.637-3.05-2.75-3.206a1.1 1.1 0 00-.807-.375h-.879v-.943h5.053v.943h-.618c-.132 0-.23.115-.101.246 0 0 1.701 2.116 1.722 2.133.014.027.032.033.044.004.023-.018 1.751-2.113 1.765-2.13.08-.094.02-.253-.152-.253h-.644v-.943h4.179v.943h-.941a.834.834 0 00-.733.305c-.12.144-2.719 3.185-2.798 3.273a.197.197 0 00-.036.14v1.472a1.104 1.104 0 00.022.213.346.346 0 00.201.19 2.533 2.533 0 00.258.015h.953v.9h-5.036v-.9z"/><path class="cls-3" d="M158.679 52.129c.043-.04.037-.04.037-.04a7.313 7.313 0 01-.182-1.335c-.076-.489-.234-.879-.861-.879h-1.568l.08.081v2.14l.058.033h-.9l.054-.04v-5.363l-.054-.044h2.356a2.628 2.628 0 01.734.091 1.551 1.551 0 01.414 2.795 2.485 2.485 0 01-.414.024c.77 0 .867.45.942 1.367a3.294 3.294 0 00.253 1.105l.102.065zm-.988-4.709h-1.586l.08.068v1.737l-.08.064h1.568a.988.988 0 001.092-1.037c0-.463-.342-.832-1.074-.832z"/><path d="M146.377 125.67a13.182 13.182 0 01-26.364 0v-2.553a13.182 13.182 0 0126.364 0z" fill="#e5e5e6"/><path class="cls-2" d="M133.195 139.412a13.759 13.759 0 01-13.744-13.742v-2.553a13.744 13.744 0 0127.488 0v2.553a13.759 13.759 0 01-13.744 13.742zm0-28.912a12.632 12.632 0 00-12.62 12.617v2.553a12.62 12.62 0 0025.24 0v-2.553a12.633 12.633 0 00-12.62-12.617zm-45.071 28.033h-14.03a2.237 2.237 0 01-2.235-2.233v-23.812a2.237 2.237 0 012.234-2.233h14.031a2.236 2.236 0 012.234 2.233V136.3a2.236 2.236 0 01-2.234 2.233zm-14.03-27.153a1.11 1.11 0 00-1.11 1.108V136.3a1.11 1.11 0 001.11 1.108h14.03a1.11 1.11 0 001.11-1.108v-23.812a1.11 1.11 0 00-1.11-1.108z"/><path class="cls-2" d="M77.92 117.203h6.377a1.238 1.238 0 011.238 1.238v1.276a1.239 1.239 0 01-1.239 1.238H77.92a1.237 1.237 0 01-1.237-1.237v-1.277a1.238 1.238 0 011.237-1.238z"/><path class="cls-2" d="M84.297 121.518H77.92a1.802 1.802 0 01-1.8-1.801v-1.276a1.802 1.802 0 011.8-1.8h6.377a1.802 1.802 0 011.8 1.8v1.276a1.802 1.802 0 01-1.8 1.8zm-6.377-3.753a.675.675 0 00-.675.676v1.276a.676.676 0 00.675.676h6.377a.676.676 0 00.675-.676v-1.276a.675.675 0 00-.675-.676zm0 10.067h6.377a1.238 1.238 0 011.238 1.238v1.275a1.239 1.239 0 01-1.239 1.239H77.92a1.237 1.237 0 01-1.237-1.237v-1.277a1.238 1.238 0 011.237-1.238z"/><path class="cls-2" d="M84.297 132.146H77.92a1.802 1.802 0 01-1.8-1.8v-1.276a1.802 1.802 0 011.8-1.8h6.377a1.802 1.802 0 011.8 1.8v1.275a1.802 1.802 0 01-1.8 1.801zm-6.377-3.752a.675.675 0 00-.675.676v1.275a.676.676 0 00.675.676h6.377a.676.676 0 00.675-.676v-1.275a.675.675 0 00-.675-.676z"/><path class="cls-5" d="M77.433 117.889h7.354v2.38h-7.354z"/><path class="cls-2" d="M84.787 120.831h-7.354a.562.562 0 01-.563-.562v-2.38a.562.562 0 01.563-.563h7.354a.563.563 0 01.562.563v2.38a.563.563 0 01-.562.562zm-6.792-1.125h6.23v-1.255h-6.23z"/><path class="cls-5" d="M77.433 128.517h7.354v2.38h-7.354z"/><path class="cls-2" d="M84.787 131.46h-7.354a.562.562 0 01-.563-.562v-2.38a.562.562 0 01.563-.563h7.354a.563.563 0 01.562.562v2.38a.563.563 0 01-.562.563zm-6.792-1.125h6.23v-1.255h-6.23zm27.137 2.912a8.854 8.854 0 118.854-8.853 8.864 8.864 0 01-8.854 8.853zm0-16.582a7.729 7.729 0 107.729 7.729 7.737 7.737 0 00-7.729-7.729z"/><path class="cls-2" d="M105.132 131.02a6.627 6.627 0 116.627-6.626 6.634 6.634 0 01-6.627 6.627zm0-12.128a5.502 5.502 0 105.502 5.502 5.508 5.508 0 00-5.502-5.502z"/><path class="cls-2" d="M106.484 121.623a3.083 3.083 0 11-2.703 0l-.336-.688a3.85 3.85 0 103.375 0z"/><path class="cls-2" d="M104.718 119.479h.83v4.765h-.83zm68.234 20.384a15.47 15.47 0 1115.47-15.47 15.488 15.488 0 01-15.47 15.47zm0-30.188a14.72 14.72 0 1014.72 14.719 14.737 14.737 0 00-14.72-14.719z"/><path d="M186.77 124.394a13.819 13.819 0 10-13.818 13.818 13.82 13.82 0 0013.819-13.818z" fill="#3e3a39"/><path class="cls-2" d="M172.952 138.775a14.382 14.382 0 1114.381-14.381 14.398 14.398 0 01-14.381 14.381zm0-27.639a13.257 13.257 0 1013.256 13.258 13.272 13.272 0 00-13.256-13.258z"/><path class="cls-2" d="M172.952 129.926a5.532 5.532 0 115.532-5.532 5.54 5.54 0 01-5.532 5.532zm0-9.94a4.407 4.407 0 104.407 4.408 4.413 4.413 0 00-4.407-4.408z"/><path class="cls-2" d="M172.952 126.217a1.823 1.823 0 111.823-1.823 1.826 1.826 0 01-1.823 1.823zm0-2.522a.698.698 0 10.698.699.7.7 0 00-.698-.699z"/><path class="cls-7" d="M73.495 81.891l-.204-.325-.184-.362-.162-.4-.135-.435-.104-.471V42.181l.104-.47.135-.438.162-.398.184-.363.204-.325.173-.228v42.16l-.173-.228zm6.3 0l.204-.325.184-.362.162-.4.135-.435.105-.471V42.181l-.105-.47-.135-.438-.162-.398-.184-.363-.204-.325-.174-.228v42.16l.174-.228z"/><path class="cls-3" d="M77.283 83.337l.267-.013.264-.041.265-.068.262-.096.258-.125.256-.155.248-.187.242-.219.232-.254.044-.06v-42.16l-.044-.061-.232-.253-.242-.218-.248-.188-.256-.156-.258-.124-.262-.095-.265-.069-.264-.04-.267-.014h-1.276l-.267.014-.264.04-.266.069-.261.095-.259.124-.255.156-.249.188-.241.218-.231.253-.046.061v42.16l.046.06.231.254.241.219.249.187.255.155.259.125.261.096.266.068.264.041.267.013h1.276z"/><path class="cls-2" d="M77.283 83.9h-1.276l-.027-.001-.267-.013a.501.501 0 01-.059-.006l-.265-.041a.604.604 0 01-.053-.011l-.265-.068a.446.446 0 01-.055-.017l-.261-.096a.702.702 0 01-.051-.022l-.259-.125a.633.633 0 01-.048-.026l-.254-.154-.044-.03-.25-.186-.041-.035-.241-.219a.478.478 0 01-.039-.039l-.23-.254c-.01-.012-.021-.023-.03-.037l-.047-.059a.565.565 0 01-.116-.342V39.96a.563.563 0 01.113-.338l.046-.06a.635.635 0 01.034-.042l.232-.253a.466.466 0 01.038-.039l.241-.217a.53.53 0 01.04-.033l.249-.188a.467.467 0 01.044-.03l.254-.155a.707.707 0 01.051-.028l.259-.124a.632.632 0 01.051-.022l.262-.094a.532.532 0 01.05-.016l.264-.07a.466.466 0 01.058-.01l.266-.041a.63.63 0 01.054-.005l.267-.014.03-.001h1.305l.266.015a.66.66 0 01.054.005l.265.04a.495.495 0 01.058.012l.265.07a.37.37 0 01.05.014l.262.095a.747.747 0 01.053.022l.258.125a.673.673 0 01.048.026l.256.156a.483.483 0 01.046.032l.248.187c.014.01.026.02.038.032l.242.217c.013.012.026.024.037.037l.233.254a.616.616 0 01.04.048l.043.06a.558.558 0 01.109.333v42.16a.56.56 0 01-.112.336l-.044.06a.597.597 0 01-.036.044l-.232.254a.585.585 0 01-.037.037l-.242.22a.598.598 0 01-.04.033l-.248.186c-.016.01-.03.021-.047.031l-.255.155a.57.57 0 01-.045.024l-.258.126a.602.602 0 01-.053.022l-.262.096a.487.487 0 01-.054.017l-.265.068a.675.675 0 01-.053.011l-.266.04a.518.518 0 01-.058.007l-.266.013zm-1.262-1.125h1.249l.223-.011.208-.033.211-.054.209-.077.21-.1.209-.128.205-.154.202-.183.111-.123V40.165l-.11-.12-.203-.184-.207-.156-.208-.127-.207-.1-.21-.076-.212-.055-.208-.031-.225-.012h-1.246l-.225.012-.209.031-.21.055-.21.076-.209.1-.206.127-.208.156-.203.183-.112.122v41.745l.113.124.202.183.206.154.208.127.21.101.209.077.21.055.209.032z"/><path class="cls-2" d="M77.283 83.9h-1.276l-.027-.001-.267-.013a.501.501 0 01-.059-.006l-.265-.041a.604.604 0 01-.053-.011l-.265-.068a.446.446 0 01-.055-.017l-.261-.096a.702.702 0 01-.051-.022l-.259-.125a.633.633 0 01-.048-.026l-.254-.154-.044-.03-.25-.186-.041-.035-.241-.219a.478.478 0 01-.039-.039l-.23-.254c-.012-.012-.022-.025-.032-.037l-.22-.289a.503.503 0 01-.028-.04l-.203-.325a.505.505 0 01-.026-.045l-.184-.363a.433.433 0 01-.02-.043l-.161-.4a.435.435 0 01-.016-.044l-.135-.436-.012-.045-.104-.47a.569.569 0 01-.013-.122V42.18a.57.57 0 01.013-.122l.104-.47a.616.616 0 01.012-.044l.135-.437.016-.046.161-.399a.533.533 0 01.02-.042l.184-.363a.505.505 0 01.026-.045l.203-.325.028-.04.22-.29.032-.04.232-.252a.466.466 0 01.038-.039l.241-.217a.53.53 0 01.04-.033l.249-.188a.467.467 0 01.044-.03l.254-.155a.707.707 0 01.051-.028l.259-.124a.632.632 0 01.051-.022l.262-.094a.532.532 0 01.05-.016l.264-.07a.466.466 0 01.058-.01l.266-.041a.63.63 0 01.054-.005l.267-.014.03-.001h1.305l.266.015a.66.66 0 01.054.005l.265.04a.495.495 0 01.058.012l.265.07a.37.37 0 01.05.014l.262.095a.747.747 0 01.053.022l.258.125a.673.673 0 01.048.026l.256.156a.483.483 0 01.046.032l.248.187c.014.01.026.02.038.032l.242.217c.013.012.026.024.037.037l.233.254a.738.738 0 01.034.042l.218.289a.34.34 0 01.027.039l.204.325a.855.855 0 01.025.043l.185.364a.349.349 0 01.02.044l.162.398c.006.015.012.03.016.046l.135.437a.616.616 0 01.012.044l.103.47a.527.527 0 01.014.122v37.717a.526.526 0 01-.014.121l-.103.471-.012.045-.135.436a.865.865 0 01-.016.044l-.162.4a.464.464 0 01-.02.045l-.186.363a.653.653 0 01-.024.043l-.204.324a.519.519 0 01-.027.04l-.219.288a.594.594 0 01-.033.04l-.232.255a.585.585 0 01-.037.037l-.242.22a.598.598 0 01-.04.033l-.248.186c-.016.01-.03.021-.047.031l-.255.155a.57.57 0 01-.045.024l-.258.126a.602.602 0 01-.053.022l-.262.096a.487.487 0 01-.054.017l-.265.068a.675.675 0 01-.053.011l-.266.04a.518.518 0 01-.058.007l-.266.013zm-1.262-1.125h1.249l.223-.011.208-.033.211-.054.209-.077.21-.1.209-.128.205-.154.202-.183.196-.216.189-.248.177-.283.162-.318.144-.355.12-.39.087-.389V42.242l-.086-.387-.12-.393-.144-.353-.163-.319-.178-.283-.187-.25-.196-.212-.203-.184-.206-.156-.208-.127-.208-.1-.21-.076-.212-.055-.208-.031-.224-.012h-1.247l-.225.012-.209.031-.21.055-.21.076-.209.1-.206.127-.208.156-.203.183-.195.214-.189.25-.177.281-.161.32-.145.353-.12.393-.086.387v37.594l.085.388.121.391.145.356.16.318.178.282.189.248.196.216.202.183.206.154.208.127.21.101.209.077.21.055.209.032z"/><path class="cls-7" d="M192.895 81.891l.202-.325.186-.362.162-.4.134-.435.104-.471V42.181l-.104-.47-.134-.438-.162-.398-.186-.363-.202-.325-.173-.228v42.16l.173-.228zm-6.302 0l-.202-.325-.185-.362-.162-.4-.135-.435-.104-.471V42.181l.104-.47.135-.438.162-.398.185-.363.202-.325.176-.228v42.16l-.176-.228z"/><path class="cls-3" d="M189.106 83.337l-.266-.013-.266-.041-.264-.068-.262-.096-.259-.125-.254-.155-.25-.187-.24-.219-.233-.254-.043-.06v-42.16l.043-.061.233-.253.24-.218.25-.188.254-.156.259-.124.262-.095.264-.069.266-.04.266-.014h1.276l.266.014.266.04.264.069.263.095.258.124.255.156.249.188.24.218.233.253.046.061v42.16l-.046.06-.233.254-.24.219-.249.187-.255.155-.258.125-.263.096-.264.068-.266.041-.266.013h-1.276z"/><path class="cls-2" d="M190.382 83.9h-1.276l-.027-.001-.266-.013a.518.518 0 01-.059-.006l-.266-.041a.644.644 0 01-.054-.011l-.264-.068a.435.435 0 01-.053-.017l-.262-.096a.72.72 0 01-.052-.022l-.26-.125a.618.618 0 01-.047-.026l-.254-.154a.454.454 0 01-.044-.03l-.25-.186a.48.48 0 01-.042-.036l-.24-.22a.414.414 0 01-.037-.035l-.232-.254-.036-.044-.044-.06a.562.562 0 01-.111-.336V39.96a.557.557 0 01.108-.332l.044-.06a.616.616 0 01.04-.05l.232-.253a.842.842 0 01.037-.036l.24-.218a.866.866 0 01.04-.033l.25-.188a.467.467 0 01.044-.03l.254-.155a.526.526 0 01.05-.028l.26-.124a.672.672 0 01.052-.022l.262-.095.048-.015.264-.07a.523.523 0 01.06-.01l.266-.041a.613.613 0 01.053-.005l.266-.014.03-.001h1.306l.266.015c.018 0 .036.003.054.005l.266.04a.52.52 0 01.059.012l.264.07a.537.537 0 01.049.014l.262.095a.71.71 0 01.052.022l.258.124a.677.677 0 01.052.028l.254.156a.448.448 0 01.044.03l.25.187a.6.6 0 01.039.033l.24.218a.446.446 0 01.037.036l.232.254a.67.67 0 01.036.042l.045.061a.562.562 0 01.113.338v42.16a.565.565 0 01-.116.342l-.046.06a.369.369 0 01-.031.038l-.232.254a.548.548 0 01-.036.036l-.24.22a.634.634 0 01-.043.035l-.25.186-.044.03-.254.154c-.015.01-.031.018-.047.026l-.26.125a.788.788 0 01-.051.022l-.263.096a.392.392 0 01-.053.017l-.263.068a.592.592 0 01-.055.011l-.266.04a.498.498 0 01-.059.007l-.266.013zm-1.262-1.125h1.25l.222-.011.21-.033.209-.054.21-.077.21-.1.207-.128.207-.154.2-.183.114-.124V40.167l-.113-.123-.201-.183-.208-.156-.207-.127-.208-.1-.211-.076-.21-.055-.21-.031-.223-.012h-1.247l-.224.012-.21.031-.209.055-.212.076-.208.1-.207.127-.207.156-.202.183-.11.121v41.747l.111.123.2.183.207.154.208.127.21.101.21.077.21.055.209.032z"/><path class="cls-2" d="M190.382 83.9h-1.276l-.027-.001-.266-.013a.518.518 0 01-.059-.006l-.266-.041a.644.644 0 01-.054-.011l-.264-.068a.435.435 0 01-.053-.017l-.262-.096a.72.72 0 01-.052-.022l-.26-.125a.618.618 0 01-.047-.026l-.254-.154a.454.454 0 01-.044-.03l-.25-.186a.48.48 0 01-.042-.036l-.24-.22a.414.414 0 01-.037-.035l-.232-.254-.032-.04-.22-.288a.61.61 0 01-.028-.042l-.203-.325-.024-.041-.185-.363a.462.462 0 01-.02-.045l-.162-.4a.711.711 0 01-.016-.044l-.135-.436-.012-.045-.104-.47a.526.526 0 01-.014-.122V42.18a.527.527 0 01.014-.122l.104-.47a.702.702 0 01.012-.044l.135-.437a.579.579 0 01.016-.046l.161-.399a.551.551 0 01.02-.044l.186-.363a.576.576 0 01.024-.042l.203-.325a.741.741 0 01.028-.042l.22-.289a.993.993 0 01.033-.04l.232-.254a.842.842 0 01.037-.036l.24-.218a.866.866 0 01.04-.033l.25-.188a.467.467 0 01.044-.03l.254-.155a.526.526 0 01.05-.028l.26-.124a.672.672 0 01.052-.022l.262-.095.048-.015.264-.07a.523.523 0 01.06-.01l.266-.041a.613.613 0 01.053-.005l.266-.014.03-.001h1.306l.266.015c.018 0 .036.003.054.005l.265.04a.52.52 0 01.06.012l.264.07a.537.537 0 01.049.014l.262.095a.71.71 0 01.052.022l.258.124a.677.677 0 01.052.028l.254.156a.448.448 0 01.044.03l.25.187a.6.6 0 01.039.033l.24.218a.446.446 0 01.037.036l.232.254a.609.609 0 01.034.04l.22.29c.01.013.02.027.028.041l.203.325.023.042.185.363.021.044.161.399c.007.015.012.03.017.046l.135.437a.616.616 0 01.011.044l.105.47a.58.58 0 01.013.122v37.717a.578.578 0 01-.013.121l-.105.471-.012.045-.135.436a.475.475 0 01-.015.044l-.162.4a.464.464 0 01-.02.045l-.186.363-.023.041-.203.325a.88.88 0 01-.03.042l-.218.289-.033.039-.232.254a.548.548 0 01-.036.036l-.24.22a.634.634 0 01-.043.035l-.25.186-.044.03-.254.154a.367.367 0 01-.048.026l-.258.125a.788.788 0 01-.052.022l-.263.096a.392.392 0 01-.053.017l-.263.068a.592.592 0 01-.055.011l-.266.04a.498.498 0 01-.059.007l-.266.013zm-1.262-1.125h1.25l.222-.011.21-.033.209-.054.21-.077.21-.1.207-.128.207-.154.2-.183.198-.216.189-.248.175-.282.164-.319.143-.355.121-.39.086-.389V42.242l-.086-.387-.12-.393-.144-.353-.164-.32-.176-.282-.188-.249-.197-.214-.201-.183-.208-.156-.207-.127-.208-.1-.211-.076-.21-.055-.21-.031-.223-.012h-1.247l-.224.012-.21.031-.209.055-.212.076-.208.1-.207.127-.207.156-.202.183-.197.214-.188.249-.176.282-.163.32-.144.353-.12.393-.087.387v37.594l.087.388.12.391.144.355.163.319.176.282.188.248.198.216.2.183.207.154.208.127.21.101.21.077.21.055.209.032z"/><path class="cls-7" d="M196.55 145.553H69.841a5.008 5.008 0 01-5.002-5.003V13.841a5.006 5.006 0 015.002-5H196.55a5.007 5.007 0 015.002 5v126.71a5.008 5.008 0 01-5.002 5.002zM69.841 10.34a3.505 3.505 0 00-3.502 3.5v126.71a3.506 3.506 0 003.502 3.502H196.55a3.506 3.506 0 003.502-3.503V13.841a3.505 3.505 0 00-3.502-3.5z"/><rect class="cls-1" x="6.618" y="174.039" width="139.667" height="92.464" rx="17.671"/><path class="cls-8" d="M128.614 267.003H24.29A18.192 18.192 0 016.118 248.83v-57.12a18.192 18.192 0 0118.172-18.172h104.324a18.192 18.192 0 0118.171 18.171v57.121a18.192 18.192 0 01-18.17 18.172zM24.29 174.539A17.19 17.19 0 007.118 191.71v57.121a17.19 17.19 0 0017.172 17.172h104.324a17.19 17.19 0 0017.171-17.172v-57.12a17.19 17.19 0 00-17.17-17.172z"/><path class="cls-2" d="M77.28 241.554a21.421 21.421 0 1121.42-21.421 21.446 21.446 0 01-21.42 21.42zm0-39.206a17.785 17.785 0 1017.784 17.785 17.804 17.804 0 00-17.785-17.785z"/><path class="cls-2" d="M81.65 211.176a9.966 9.966 0 11-8.739 0l-1.084-2.223a12.448 12.448 0 1010.907 0z"/><path class="cls-2" d="M75.942 204.244h2.682v15.403h-2.682z"/><path class="cls-1" d="M97.881 173.752h13.745v6.318H97.881z"/><path class="cls-1" d="M111.457 174.007l-6.827-40.779-6.828 40.779"/><path class="cls-8" d="M111.456 174.507a.5.5 0 01-.492-.417l-6.334-37.833-6.334 37.833a.5.5 0 01-.987-.165l6.827-40.78a.5.5 0 01.987 0l6.827 40.78a.5.5 0 01-.41.575.48.48 0 01-.084.007z"/><path fill="none" d="M0 0h208.171v275.344H0z"/></g></g></svg>