<svg xmlns="http://www.w3.org/2000/svg" viewBox="0 0 133.788 133.787"><defs><clipPath clipPathUnits="userSpaceOnUse" id="a"><path d="M0 0h100.341v100.34H0z"/></clipPath><clipPath clipPathUnits="userSpaceOnUse" id="b"><path d="M39.071 97.638c-20.005 0-36.369-16.367-36.369-36.37V39.072c0-20.005 16.364-36.37 36.369-36.37h22.197c20.007 0 36.371 16.365 36.371 36.37v22.196c0 20.003-16.364 36.37-36.371 36.37z"/></clipPath><clipPath clipPathUnits="userSpaceOnUse" id="c"><path d="M0 100.34h100.341V0H0z"/></clipPath></defs><g clip-path="url(#a)" transform="matrix(1.33333 0 0 -1.33333 0 133.787)"><path d="M97.64 39.07c0-20.004-16.366-36.369-36.372-36.369H39.072c-20.005 0-36.37 16.365-36.37 36.37v22.196c0 20.003 16.365 36.371 36.37 36.371h22.196c20.006 0 36.372-16.368 36.372-36.37z" fill="#fff"/></g><g clip-path="url(#b)" transform="matrix(1.33333 0 0 -1.33333 0 133.787)"><path d="M57.529 39.318c-2.64.448-4.204 3.468-3.497 6.743.706 3.276 3.419 5.96 6.059 5.511 2.638-.448 4.205-3.858 3.498-7.132-.707-3.276-3.421-5.569-6.06-5.122" fill="#00aaa3"/><path d="M57.529 39.318c-2.64.448-4.204 3.468-3.497 6.743.706 3.276 3.419 5.96 6.059 5.511 2.638-.448 4.205-3.858 3.498-7.132-.707-3.276-3.421-5.569-6.06-5.122z" fill="none" stroke="#00aaa3" stroke-width="2.083" stroke-linecap="round" stroke-linejoin="round" stroke-miterlimit="10"/><path d="M68.51 44.465l-16.704 9.333V67.68l16.704-7.17z" fill="#fff"/><path d="M68.51 44.465l-16.704 9.333V67.68l16.704-7.17z" fill="none" stroke="#00aaa3" stroke-width="2.083" stroke-linecap="round" stroke-linejoin="round" stroke-miterlimit="10"/><path d="M49.824 37.176l-16.812 7.937v16.37l16.812-7.377z" fill="#fff"/><path d="M49.824 37.176l-16.812 7.937v16.37l16.812-7.377z" fill="none" stroke="#00aaa3" stroke-width="2.083" stroke-linecap="round" stroke-linejoin="round" stroke-miterlimit="10"/><path d="M49.824 54.245l-16.812 7.239 18.793 6.198 16.705-7.17z" fill="#fff"/><path d="M49.824 54.245l-16.812 7.239 18.793 6.198 16.705-7.17z" fill="none" stroke="#00aaa3" stroke-width="2.083" stroke-linecap="round" stroke-linejoin="round" stroke-miterlimit="10"/><path d="M68.51 44.465l-16.704 9.333V67.68l16.704-7.17z" fill="#fff"/><path d="M68.51 44.465l-16.704 9.333V67.68l16.704-7.17z" fill="none" stroke="#00aaa3" stroke-width="2.083" stroke-linecap="round" stroke-linejoin="round" stroke-miterlimit="10"/><path d="M68.51 44.465L49.823 37.18v17.063L68.51 60.51z" fill="#fff"/><path d="M68.51 44.465L49.823 37.18v17.063L68.51 60.51z" fill="none" stroke="#00aaa3" stroke-width="2.083" stroke-linecap="round" stroke-linejoin="round" stroke-miterlimit="10"/><path d="M49.824 54.245l-16.812 7.239 18.793 6.198 16.705-7.17z" fill="#fff"/><path d="M49.824 54.245l-16.812 7.239 18.793 6.198 16.705-7.17zM27.33 46.514a3.31 3.31 0 00-.9 1.662c-.14.659-.075 1.31.148 1.884M25.019 44.725a5.72 5.72 0 00-1.553 2.874 5.713 5.713 0 00.255 3.257M74.363 46.514c.436.434.759 1.004.897 1.662a3.29 3.29 0 01-.146 1.884M76.672 44.725a5.72 5.72 0 011.554 2.874 5.713 5.713 0 01-.255 3.257M54.984 75.007a5.717 5.717 0 01-3.155.85 5.722 5.722 0 01-3.112-1M53.685 72.516a3.303 3.303 0 01-1.824.49 3.307 3.307 0 01-1.8-.577M74.229 24.17c0-6.843-2.628-12.393-5.871-12.393-3.242 0-5.871 5.55-5.871 12.394s2.629 12.393 5.871 12.393c3.243 0 5.871-5.55 5.871-12.393z" fill="none" stroke="#00aaa3" stroke-width="2.083" stroke-linecap="round" stroke-linejoin="round" stroke-miterlimit="10"/><path d="M69.23 11.923l28.865 12.176v.07L69.23 36.42" fill="none" stroke="#00aaa3" stroke-width="2.083" stroke-linecap="round" stroke-linejoin="round" stroke-miterlimit="10"/><path d="M15.464 88.165V70.517l4.45 1.524c0 5.447 3.223 10.966 7.198 12.326 3.975 1.36 7.197-1.954 7.197-7.402l4.762-3.175-.312 22.347z" fill="#fff"/><path d="M15.464 88.165V70.517l4.45 1.524c0 5.447 3.223 10.966 7.198 12.326 3.975 1.36 7.197-1.954 7.197-7.402l4.762-3.175-.312 22.347z" fill="none" stroke="#00aaa3" stroke-width="2.083" stroke-linecap="round" stroke-linejoin="round" stroke-miterlimit="10"/><path d="M20.227 84.99V67.342l4.451 1.523c0 5.448 3.222 10.967 7.196 12.327 3.975 1.36 7.197-1.954 7.197-7.402l4.451 1.523v17.65z" fill="#fff"/><path d="M20.227 84.99V67.342l4.451 1.523c0 5.448 3.222 10.967 7.196 12.327 3.975 1.36 7.197-1.954 7.197-7.402l4.451 1.523v17.65z" fill="none" stroke="#00aaa3" stroke-width="2.083" stroke-linecap="round" stroke-linejoin="round" stroke-miterlimit="10"/><path d="M13.465 70.22l6.762-2.878V84.99l-6.762 2.877z" fill="#fff"/><path d="M13.465 70.22l6.762-2.878V84.99l-6.762 2.877z" fill="none" stroke="#00aaa3" stroke-width="2.083" stroke-linecap="round" stroke-linejoin="round" stroke-miterlimit="10"/><path d="M36.746 95.935l6.762-2.878-23.28-8.066-6.763 2.878z" fill="#fff"/><path d="M36.746 95.935l6.762-2.878-23.28-8.066-6.763 2.878z" fill="none" stroke="#00aaa3" stroke-width="2.083" stroke-linecap="round" stroke-linejoin="round" stroke-miterlimit="10"/><path d="M32.054 23.202l-13.49 7.524V41.92l13.49-5.78z" fill="#fff"/><path d="M32.054 23.202l-13.49 7.524V41.92l13.49-5.78z" fill="none" stroke="#00aaa3" stroke-width="2.083" stroke-linecap="round" stroke-linejoin="round" stroke-miterlimit="10"/><path d="M16.962 31.087L3.384 36.923l15.18 4.996 13.49-5.78z" fill="#fff"/><path d="M16.962 31.087L3.384 36.923l15.18 4.996 13.49-5.78z" fill="none" stroke="#00aaa3" stroke-width="2.083" stroke-linecap="round" stroke-linejoin="round" stroke-miterlimit="10"/><path d="M32.054 23.202l-13.49 7.524V41.92l13.49-5.78z" fill="#fff"/><path d="M32.054 23.202l-13.49 7.524V41.92l13.49-5.78z" fill="none" stroke="#00aaa3" stroke-width="2.083" stroke-linecap="round" stroke-linejoin="round" stroke-miterlimit="10"/><path d="M16.962 31.087L3.384 36.923l15.18 4.996 13.49-5.78z" fill="#fff"/><path d="M16.962 31.087L3.384 36.923l15.18 4.996 13.49-5.78z" fill="none" stroke="#00aaa3" stroke-width="2.083" stroke-linecap="round" stroke-linejoin="round" stroke-miterlimit="10"/><path d="M23.218 27.524H12.496v9.086h10.722z" fill="#fff" stroke="#00aaa3" stroke-width="2.083" stroke-linecap="round" stroke-linejoin="round" stroke-miterlimit="10"/><path d="M16.962 17.326L3.384 23.723v13.2l13.578-5.949z" fill="#fff"/><path d="M16.962 17.326L3.384 23.723v13.2l13.578-5.949z" fill="none" stroke="#00aaa3" stroke-width="2.083" stroke-linecap="round" stroke-linejoin="round" stroke-miterlimit="10"/><path d="M32.054 23.202l-15.092-5.87v13.755l15.092 5.052z" fill="#fff"/><path d="M32.054 23.202l-15.092-5.87v13.755l15.092 5.052z" fill="none" stroke="#00aaa3" stroke-width="2.083" stroke-linecap="round" stroke-linejoin="round" stroke-miterlimit="10"/><path d="M23.212 36.61c0-1.047-2.397-1.896-5.355-1.896-2.958 0-5.355.85-5.355 1.896 0 1.048 2.397 1.896 5.355 1.896 2.958 0 5.355-.848 5.355-1.896" fill="#fff"/><path d="M23.212 36.61c0-1.047-2.397-1.896-5.355-1.896-2.958 0-5.355.85-5.355 1.896 0 1.048 2.397 1.896 5.355 1.896 2.958 0 5.355-.848 5.355-1.896z" fill="none" stroke="#00aaa3" stroke-width="2.083" stroke-linecap="round" stroke-linejoin="round" stroke-miterlimit="10"/><path d="M96.64 63.623l-23.303 6.08v14.404l23.303-9.93z" fill="#fff"/><path d="M96.64 63.623l-23.303 6.08v14.404l23.303-9.93z" fill="none" stroke="#00aaa3" stroke-width="2.083" stroke-linecap="round" stroke-linejoin="round" stroke-miterlimit="10"/><path d="M87.747 59.316L64.334 70.042v10.89l23.413-10.145z" fill="#fff"/><path d="M87.747 59.316L64.334 70.042v10.89l23.413-10.145z" fill="none" stroke="#00aaa3" stroke-width="2.083" stroke-linecap="round" stroke-linejoin="round" stroke-miterlimit="10"/><path d="M96.64 63.623l-8.895-4.301V70.93l8.895 3.247z" fill="#fff"/><path d="M96.64 63.623l-8.895-4.301V70.93l8.895 3.247z" fill="none" stroke="#00aaa3" stroke-width="2.083" stroke-linecap="round" stroke-linejoin="round" stroke-miterlimit="10"/><path d="M87.747 70.93L64.334 80.933l9.004 3.176 23.303-9.93z" fill="#fff"/><path d="M87.747 70.93L64.334 80.933l9.004 3.176 23.303-9.93z" fill="none" stroke="#00aaa3" stroke-width="2.083" stroke-linecap="round" stroke-linejoin="round" stroke-miterlimit="10"/><path d="M96.64 63.623l-8.895-4.301V70.93l8.895 3.247z" fill="#fff"/><path d="M96.64 63.623l-8.895-4.301V70.93l8.895 3.247z" fill="none" stroke="#00aaa3" stroke-width="2.083" stroke-linecap="round" stroke-linejoin="round" stroke-miterlimit="10"/><path d="M87.747 70.93L64.334 80.933l9.004 3.176 23.303-9.93z" fill="#fff"/><path d="M87.747 70.93L64.334 80.933l9.004 3.176 23.303-9.93z" fill="none" stroke="#00aaa3" stroke-width="2.083" stroke-linecap="round" stroke-linejoin="round" stroke-miterlimit="10"/><path d="M69.695 73.186c0-1.387-.898-2.51-2.007-2.51-1.108 0-2.007 1.124-2.007 2.51 0 1.385.899 2.508 2.007 2.508 1.109 0 2.007-1.122 2.007-2.508" fill="#fff"/><path d="M69.695 73.186c0-1.387-.898-2.51-2.007-2.51-1.108 0-2.007 1.124-2.007 2.51 0 1.385.899 2.508 2.007 2.508 1.109 0 2.007-1.122 2.007-2.508z" fill="none" stroke="#00aaa3" stroke-width="2.083" stroke-linecap="round" stroke-linejoin="round" stroke-miterlimit="10"/><path d="M68.982 72.83c0-1.387-.898-2.51-2.006-2.51-1.108 0-2.007 1.123-2.007 2.51 0 1.385.899 2.51 2.007 2.51s2.006-1.125 2.006-2.51" fill="#fff"/><path d="M68.982 72.83c0-1.387-.898-2.51-2.006-2.51-1.108 0-2.007 1.123-2.007 2.51 0 1.385.899 2.51 2.007 2.51s2.006-1.125 2.006-2.51z" fill="none" stroke="#00aaa3" stroke-width="2.083" stroke-linecap="round" stroke-linejoin="round" stroke-miterlimit="10"/><path d="M77.364 69.584c0-1.387-.898-2.51-2.006-2.51-1.108 0-2.007 1.124-2.007 2.51 0 1.385.899 2.508 2.007 2.508s2.006-1.122 2.006-2.508" fill="#fff"/><path d="M77.364 69.584c0-1.387-.898-2.51-2.006-2.51-1.108 0-2.007 1.124-2.007 2.51 0 1.385.899 2.508 2.007 2.508s2.006-1.122 2.006-2.508z" fill="none" stroke="#00aaa3" stroke-width="2.083" stroke-linecap="round" stroke-linejoin="round" stroke-miterlimit="10"/><path d="M76.652 69.227c0-1.386-.898-2.509-2.007-2.509-1.107 0-2.006 1.123-2.006 2.51 0 1.385.899 2.51 2.006 2.51 1.109 0 2.007-1.125 2.007-2.51" fill="#fff"/><path d="M76.652 69.227c0-1.386-.898-2.509-2.007-2.509-1.107 0-2.006 1.123-2.006 2.51 0 1.385.899 2.51 2.006 2.51 1.109 0 2.007-1.125 2.007-2.51z" fill="none" stroke="#00aaa3" stroke-width="2.083" stroke-linecap="round" stroke-linejoin="round" stroke-miterlimit="10"/><path d="M85.034 65.981c0-1.386-.898-2.509-2.007-2.509-1.107 0-2.006 1.123-2.006 2.51 0 1.385.899 2.508 2.006 2.508 1.109 0 2.007-1.123 2.007-2.509" fill="#fff"/><path d="M85.034 65.981c0-1.386-.898-2.509-2.007-2.509-1.107 0-2.006 1.123-2.006 2.51 0 1.385.899 2.508 2.006 2.508 1.109 0 2.007-1.123 2.007-2.509z" fill="none" stroke="#00aaa3" stroke-width="2.083" stroke-linecap="round" stroke-linejoin="round" stroke-miterlimit="10"/><path d="M84.32 65.625c0-1.386-.896-2.509-2.005-2.509-1.108 0-2.007 1.123-2.007 2.509s.899 2.51 2.007 2.51c1.109 0 2.006-1.124 2.006-2.51" fill="#fff"/><path d="M84.32 65.625c0-1.386-.896-2.509-2.005-2.509-1.108 0-2.007 1.123-2.007 2.509s.899 2.51 2.007 2.51c1.109 0 2.006-1.124 2.006-2.51z" fill="none" stroke="#00aaa3" stroke-width="2.083" stroke-linecap="round" stroke-linejoin="round" stroke-miterlimit="10"/></g><g clip-path="url(#c)" transform="matrix(1.33333 0 0 -1.33333 0 133.787)"><path d="M97.64 39.07c0-20.004-16.366-36.369-36.372-36.369H39.072c-20.005 0-36.37 16.365-36.37 36.37v22.196c0 20.003 16.365 36.371 36.37 36.371h22.196c20.006 0 36.372-16.368 36.372-36.37z" fill="none" stroke="#00aaa3" stroke-width="5.403" stroke-linecap="round" stroke-linejoin="round" stroke-miterlimit="10"/><path d="M74.039 5.137H29.55L8.057 18.875h85.199z" fill="#00aaa3"/><path d="M41.522 12.502h-5.049V7.387h5.049zm1.849-6.777h-8.69v8.438h8.69zM55.25 13.559a8.667 8.667 0 01-.417 1.683l.902.12c.232-.573.277-.802.453-1.66zm-1.418-.022c-.076.682-.143.902-.352 1.639l.89.12c.277-.78.363-1.211.419-1.605zm-.56.946c.065-.264.186-.825.23-1.266l.571.067v-.385h-7.106v1.584zm2.289-2.774v-1.637h-3.478l-.012-.242c-.043-1.024-.394-2.377-1.2-3.191-.967-.97-2.452-1.344-3.541-1.562l-.737 1.606c1.044.152 2.111.374 2.782.913.794.638.87 1.99.883 2.234l.01.242H46.23v1.637zM57.042 7.629a13.714 13.714 0 014.907 3.806h-4.388v1.662h4.97v1.705h1.74v-1.705h2.485v-1.662h-2.485l.021-4.664c.012-1.575-1.253-1.575-2.187-1.575-.507 0-.958.023-1.298.035l-.322 1.705a37.12 37.12 0 011.53-.067c.254 0 .54.032.54.406l-.012 2.585c-1.583-1.99-3.497-3.09-4.453-3.607z" fill="#fff"/></g></svg>