<svg xmlns="http://www.w3.org/2000/svg" viewBox="0 0 75 75"><defs><style>.cls-2{fill:#fff}.cls-4{fill:#00afca}</style></defs><g id="レイヤー_2" data-name="レイヤー 2"><g id="レイヤー_2-2" data-name="レイヤー 2"><g id="ARC"><path d="M8.362 0h58.276A8.362 8.362 0 0175 8.362v58.276A8.362 8.362 0 0166.638 75H8.362A8.362 8.362 0 010 66.638V8.362A8.362 8.362 0 018.362 0z" fill="none"/><rect class="cls-2" x="5" y="5" width="65" height="65" rx="3.362"/><path d="M66.638 70.125H8.362a3.49 3.49 0 01-3.487-3.487V8.362a3.491 3.491 0 013.487-3.487h58.276a3.491 3.491 0 013.487 3.487v58.276a3.49 3.49 0 01-3.487 3.487zm-58.276-65a3.24 3.24 0 00-3.237 3.237v58.276a3.24 3.24 0 003.237 3.237h58.276a3.24 3.24 0 003.237-3.237V8.362a3.24 3.24 0 00-3.237-3.237z" fill="#666"/></g><path class="cls-4" d="M37.5 10.604l1.961 4.181 3.582-2.916-.047 4.618 4.492-1.073-2.046 4.14 4.513.982-3.64 2.843 3.64 2.843-4.513.982 2.046 4.14-4.492-1.073.047 4.618-3.582-2.916-1.961 4.181-1.962-4.181-3.581 2.916.047-4.618-4.492 1.073 2.046-4.14-4.513-.982 3.64-2.843-3.64-2.843 4.513-.982-2.046-4.14 4.492 1.073-.047-4.618 3.581 2.916 1.962-4.181z"/><path class="cls-4" d="M24.634 39.935l12.225-12.178a.908.908 0 011.281 0l12.226 12.178a.908.908 0 01-.64 1.551H25.273a.908.908 0 01-.64-1.55z"/><path class="cls-2" d="M37.5 27.493a.905.905 0 01.64.264l12.226 12.178a.908.908 0 01-.64 1.551H25.273a.908.908 0 01-.64-1.55l12.225-12.179a.905.905 0 01.64-.264m0-1.977a2.866 2.866 0 00-2.035.84L23.24 38.536a2.884 2.884 0 002.035 4.928h24.451a2.884 2.884 0 002.035-4.928L39.535 26.357a2.866 2.866 0 00-2.035-.841z"/><path class="cls-4" d="M32.255 60.546v3.85l5.245-5.224 5.244 5.225v-3.85L37.5 55.321zm0-6.64v3.85l5.245-5.224 5.244 5.224v-3.85L37.5 48.68zm0-16.637v13.846l5.245-5.224 5.244 5.224V37.27zM64.53 65.443a.642.642 0 11.642.655.649.649 0 01-.642-.655m-.533 0a1.175 1.175 0 101.175-1.17 1.16 1.16 0 00-1.175 1.17m-2.48.655a.655.655 0 11.642-.655.65.65 0 01-.642.655m0-1.825a1.17 1.17 0 101.175 1.17 1.16 1.16 0 00-1.175-1.17m-2.005.642h.607v-.543h-.607v-.732h-.555v1.831a1.412 1.412 0 00.108.553 1.147 1.147 0 00.691.614l.275-.465a.922.922 0 01-.457-.393.833.833 0 01-.061-.322l-.001-.178zm3.472-1.272a.36.36 0 00.721 0 .36.36 0 10-.721 0m.089.729h.543v2.186h-.543zm3.211 2.035h-.077v-.026h.183v.026h-.076v.206h-.03v-.206zm.229.206l-.063-.189v.189h-.031v-.232h.043l.066.198.068-.198h.042v.232h-.031v-.189l-.063.189h-.031z"/></g></g></svg>