<svg xmlns="http://www.w3.org/2000/svg" viewBox="1.727 0 75 76.171"><defs><clipPath id="clip-path"><path class="cls-1" d="M30.546 5.833A24.784 24.784 0 005.834 30.545v15.08a24.784 24.784 0 0024.712 24.712h15.08A24.504 24.504 0 0056.4 67.852a24.793 24.793 0 0013.94-22.226V30.545A24.783 24.783 0 0045.627 5.833z"/></clipPath><clipPath id="clip-path-2"><path class="cls-1" d="M28.64 5.906A24.793 24.793 0 005.835 30.545v15.08a24.784 24.784 0 0024.712 24.712h15.08A24.504 24.504 0 0056.4 67.852a24.817 24.817 0 0013.867-20.339V28.656a24.805 24.805 0 00-22.735-22.75z"/></clipPath><style>.cls-1{fill:none}.cls-2{clip-path:url(#clip-path)}.cls-3{fill:#fff}.cls-4{fill:#f9be00}</style></defs><g id="レイヤー_2" data-name="レイヤー 2"><g id="レイヤー_2-2" data-name="レイヤー 2"><g class="cls-2"><path class="cls-3" d="M70.34 45.626A24.789 24.789 0 0156.4 67.85a24.476 24.476 0 01-10.772 2.486H30.546a24.784 24.784 0 01-24.713-24.71V30.544a24.784 24.784 0 0124.713-24.71h15.082a24.784 24.784 0 0124.711 24.71z"/><path class="cls-4" d="M45.627 72.17h-15.08A26.575 26.575 0 014 45.627V30.545A26.575 26.575 0 0130.546 4h15.081a26.575 26.575 0 0126.545 26.545v15.08A26.762 26.762 0 0157.205 69.5a26.171 26.171 0 01-11.578 2.672zM30.547 7.668a22.904 22.904 0 00-22.88 22.878v15.08a22.905 22.905 0 0022.88 22.88h15.08a22.522 22.522 0 009.968-2.302 23.071 23.071 0 0012.911-20.577V30.545A22.904 22.904 0 0045.627 7.667z"/></g><g clip-path="url(#clip-path-2)"><path class="cls-3" d="M21.414 35.932c-.194 2.48-2.056 3.95-4.16 3.287a5.632 5.632 0 01-3.46-5.693c.194-2.478 2.055-3.952 4.16-3.286a5.628 5.628 0 013.46 5.692"/><path class="cls-4" d="M18.256 39.928a3.861 3.861 0 01-1.167-.185 6.214 6.214 0 01-3.842-6.26 4.383 4.383 0 011.785-3.368 3.516 3.516 0 013.088-.4 6.21 6.21 0 013.842 6.26 4.388 4.388 0 01-1.785 3.368 3.405 3.405 0 01-1.92.585zm-1.308-9.3a2.294 2.294 0 00-1.301.4 3.3 3.3 0 00-1.303 2.54 5.064 5.064 0 003.077 5.126 2.412 2.412 0 002.14-.264 3.3 3.3 0 001.304-2.541 5.062 5.062 0 00-3.076-5.125 2.786 2.786 0 00-.84-.135zm4.466 5.304z"/><path class="cls-3" d="M44.575 34.638l-16.631-9.277V11.565l16.631 7.126v15.947z"/><path class="cls-4" d="M44.575 35.188a.549.549 0 01-.268-.07l-16.631-9.277a.55.55 0 01-.282-.48V11.565a.55.55 0 01.767-.505l16.631 7.125a.55.55 0 01.333.506v15.947a.55.55 0 01-.55.55zm-16.081-10.15l15.531 8.663V19.054l-15.531-6.655z"/><path class="cls-3" d="M25.972 41.881L9.233 33.994v-16.27l16.739 7.331v16.826z"/><path class="cls-4" d="M25.971 42.431a.552.552 0 01-.234-.052L9 34.492a.55.55 0 01-.316-.498v-16.27a.55.55 0 01.771-.504l16.738 7.332a.55.55 0 01.33.503v16.826a.549.549 0 01-.55.55zM9.783 33.645l15.639 7.369V25.415l-15.639-6.85z"/><path class="cls-3" d="M44.575 34.638l-18.604 7.105V24.918l18.604-6.227v15.947z"/><path class="cls-4" d="M25.97 42.293a.55.55 0 01-.55-.55V24.918a.55.55 0 01.376-.522L44.4 18.169a.55.55 0 01.725.522v15.947a.55.55 0 01-.354.514l-18.604 7.105a.555.555 0 01-.196.036zm.55-16.98v15.631l17.505-6.685V19.455zm18.055 9.325z"/><path class="cls-3" d="M25.972 24.918L9.233 17.724l18.711-6.158 16.631 7.125-18.603 6.227z"/><path class="cls-4" d="M25.971 25.468a.548.548 0 01-.216-.045L9.016 18.23a.55.55 0 01.045-1.028l18.711-6.159a.553.553 0 01.39.017l16.63 7.125a.55.55 0 01-.041 1.027L26.146 25.44a.552.552 0 01-.175.03zm-15.186-7.675l15.211 6.537 17.035-5.702-15.112-6.475z"/><path class="cls-3" d="M54.312 57.249l21.036 10.437"/><path class="cls-4" d="M75.347 68.237a.54.54 0 01-.244-.058L54.068 57.74a.55.55 0 01.489-.985l21.035 10.438a.55.55 0 01-.245 1.043z"/><path class="cls-3" d="M66.59 57.36l11.313 5.885"/><path class="cls-4" d="M77.903 63.795a.539.539 0 01-.253-.062l-11.314-5.885a.55.55 0 11.507-.976l11.314 5.885a.55.55 0 01-.254 1.038z"/><path class="cls-3" d="M63.551 53.445l12.437 5.874"/><path class="cls-4" d="M75.988 59.87a.545.545 0 01-.235-.054l-12.437-5.874a.55.55 0 11.47-.994l12.437 5.874a.55.55 0 01-.235 1.047z"/><path class="cls-3" d="M33.415 42.438s4.785-2.705-.344-7.021c0 0 7.672 1.218 7.274-6.566 1.849 4.035 6.678 4.112 10.259.4-2.055 4.67.269 6.558 3.862 5.445"/><path class="cls-4" d="M33.416 42.988a.55.55 0 01-.273-1.029 3.658 3.658 0 001.74-2.448c.103-1.14-.626-2.377-2.167-3.673a.55.55 0 01-.146-.649.544.544 0 01.586-.316c.033.004 3.18.472 5.11-1.267 1.124-1.013 1.638-2.603 1.53-4.727a.55.55 0 011.05-.257 4.508 4.508 0 003.35 2.72 7.066 7.066 0 006.012-2.472.55.55 0 01.9.603c-.878 1.995-.964 3.538-.242 4.348.629.704 1.881.83 3.437.35a.55.55 0 01.326 1.05c-1.986.616-3.657.372-4.584-.668a3.821 3.821 0 01-.606-3.579 7.401 7.401 0 01-5.427 1.452 5.342 5.342 0 01-3.174-1.789 5.889 5.889 0 01-1.841 3.791 7.067 7.067 0 01-4.488 1.604 4.727 4.727 0 011.47 3.588 4.72 4.72 0 01-2.293 3.297.553.553 0 01-.27.07zm27.551 4.828c-1.09 2.325-5.364 4.142-10.863 4.142s-9.772-1.817-10.864-4.142c-.096.205-.215-1.184-.215-1.387 0-.335-.076 2.664-.024 2.981.438 2.672 5.022 4.893 11.103 4.893 6.242 0 10.908-2.34 11.129-5.106.02-.248-.05-2.565-.05-2.565-.046-.214-.119 1.39-.216 1.184"/><path class="cls-4" d="M50.104 54.853c-6.24 0-11.137-2.252-11.645-5.354a17.917 17.917 0 01.017-2.924v-.147h.025a.807.807 0 01.198-.469.55.55 0 01.574-.047.59.59 0 01.302.516c.001.15.058.771.106 1.06a.546.546 0 01.057.095c.892 1.9 4.74 3.825 10.366 3.825s9.473-1.924 10.365-3.825a.587.587 0 01.037-.067c.02-.14.042-.361.056-.496.052-.52.093-.93.582-.957a.603.603 0 01.576.455.532.532 0 01.012.097c.017.55.07 2.367.05 2.623-.256 3.203-5.277 5.615-11.678 5.615zm-10.566-5.648c.001.055.004.096.007.122.356 2.173 4.403 4.426 10.559 4.426 6.27 0 10.354-2.359 10.577-4.56-1.865 2.023-5.868 3.315-10.577 3.315-4.699 0-8.695-1.287-10.566-3.303z"/><path d="M61.183 46.097c-.583-2.758-5.518-4.79-11.08-4.79-5.56 0-10.495 2.032-11.079 4.79a2.688 2.688 0 00.217 1.72c1.09 2.324 5.362 4.14 10.862 4.14 5.501 0 9.775-1.816 10.865-4.14a2.678 2.678 0 00.215-1.72" fill="#f6aa00"/><path class="cls-4" d="M50.103 52.507c-5.545 0-10.11-1.79-11.36-4.456a3.221 3.221 0 01-.257-2.066c.63-2.981 5.625-5.228 11.617-5.228 5.994 0 10.988 2.247 11.618 5.226a3.213 3.213 0 01-.255 2.068c-1.251 2.666-5.818 4.456-11.363 4.456zm0-10.65c-5.304 0-10.033 1.953-10.541 4.354a2.15 2.15 0 00.177 1.373c.891 1.9 4.737 3.823 10.364 3.823 5.628 0 9.475-1.924 10.367-3.823a2.142 2.142 0 00.175-1.373c-.507-2.401-5.237-4.355-10.542-4.355z"/><path class="cls-4" d="M60.967 45.614c-1.09 2.324-5.364 4.141-10.863 4.141s-9.772-1.817-10.864-4.141c-.096.205-.215-1.185-.215-1.388 0-.335-.076 2.665-.024 2.981.438 2.673 5.022 4.893 11.103 4.893 6.242 0 10.908-2.34 11.129-5.106.02-.25-.05-2.565-.05-2.565-.046-.214-.119 1.39-.216 1.185"/><path class="cls-4" d="M50.104 52.65c-6.24 0-11.137-2.252-11.645-5.354a17.935 17.935 0 01.017-2.926v-.144l.025-.001a.803.803 0 01.198-.469.55.55 0 01.574-.047.59.59 0 01.302.517c.001.149.058.77.106 1.059a.59.59 0 01.057.095c.892 1.9 4.74 3.825 10.366 3.825s9.473-1.924 10.365-3.825a.588.588 0 01.037-.067c.02-.141.043-.361.056-.496.052-.52.093-.93.582-.957a.607.607 0 01.577.455.532.532 0 01.012.097c.016.55.068 2.365.049 2.623-.256 3.203-5.277 5.615-11.678 5.615zm-10.566-5.648c.001.055.004.096.007.122.356 2.173 4.403 4.426 10.559 4.426 6.27 0 10.354-2.359 10.577-4.56-1.865 2.023-5.868 3.315-10.577 3.315-4.699 0-8.695-1.287-10.566-3.303z"/><path d="M61.183 43.894c-.583-2.757-5.518-4.79-11.08-4.79-5.56 0-10.495 2.033-11.079 4.79a2.688 2.688 0 00.217 1.72c1.09 2.324 5.362 4.14 10.862 4.14 5.501 0 9.775-1.816 10.865-4.14a2.679 2.679 0 00.215-1.72" fill="#fdd337"/><path class="cls-4" d="M50.103 50.304c-5.545 0-10.11-1.79-11.36-4.456a3.217 3.217 0 01-.257-2.066c.63-2.98 5.625-5.227 11.617-5.227 5.994 0 10.988 2.246 11.618 5.225a3.21 3.21 0 01-.255 2.068c-1.251 2.666-5.818 4.456-11.363 4.456zm0-10.65c-5.304 0-10.033 1.954-10.541 4.354a2.142 2.142 0 00.177 1.372c.891 1.9 4.737 3.825 10.364 3.825 5.628 0 9.475-1.924 10.367-3.824a2.138 2.138 0 00.175-1.373c-.507-2.4-5.237-4.353-10.542-4.353z"/></g><g class="cls-2"><path class="cls-3" d="M49.508 16.676a3.82 3.82 0 00-3.648-2.794"/><path class="cls-4" d="M49.508 17.227a.55.55 0 01-.524-.383 3.28 3.28 0 00-3.168-2.414.55.55 0 01-.505-.592.542.542 0 01.593-.505 4.384 4.384 0 014.128 3.176.55.55 0 01-.524.718z"/><path class="cls-3" d="M50.284 13.21a2.121 2.121 0 00-1.61-1.384"/><path class="cls-4" d="M50.284 13.761a.55.55 0 01-.515-.358 1.566 1.566 0 00-1.209-1.039.55.55 0 01.229-1.076 2.67 2.67 0 012.01 1.73.55.55 0 01-.515.743z"/><path class="cls-3" d="M20.849 45.608a3.842 3.842 0 004.5 1.008"/><path class="cls-4" d="M23.691 47.484a4.319 4.319 0 01-3.246-1.503.55.55 0 01.808-.746 3.299 3.299 0 003.905.864.55.55 0 01.38 1.033 5.347 5.347 0 01-1.847.352z"/><path class="cls-3" d="M21.622 49.081a2.133 2.133 0 002.049.583"/><path class="cls-4" d="M23.137 50.276a2.7 2.7 0 01-1.902-.804.55.55 0 01.774-.782 1.57 1.57 0 001.539.437.55.55 0 11.245 1.073 2.969 2.969 0 01-.656.076zm-3.406 7.425h22.597v11.237H19.731z"/><path class="cls-3" d="M25.962 67.038a7.91 7.91 0 00.073-1.21v-5.081h-.444a8.365 8.365 0 00-.951.054v-1.173a5.103 5.103 0 00.925.056h.848a6.87 6.87 0 00.943-.045 13.94 13.94 0 00-.074 1.523v4.666a7.882 7.882 0 00.074 1.21zm8.868-3.862a1.163 1.163 0 001.313-1.266 1.247 1.247 0 00-.306-.887 1.262 1.262 0 00-1.006-.331h-1.765v2.484zm-3.058 3.807a7.405 7.405 0 00.074-1.192v-4.999a8.273 8.273 0 00-.074-1.192c.397.02.685.028 1.174.028h1.93a2.628 2.628 0 011.969.656 2.16 2.16 0 01.572 1.589 2.373 2.373 0 01-.62 1.7 2.616 2.616 0 01-1.966.665h-1.765v1.543a7.37 7.37 0 00.074 1.201z"/></g><path class="cls-1" d="M30.546 5.833A24.784 24.784 0 005.834 30.545v15.08a24.784 24.784 0 0024.712 24.712h15.08A24.504 24.504 0 0056.4 67.852a24.793 24.793 0 0013.94-22.226V30.545A24.783 24.783 0 0045.627 5.833z"/><path class="cls-1" d="M30.546 76.17A30.58 30.58 0 010 45.627V30.545A30.58 30.58 0 0130.546 0h15.082a30.58 30.58 0 0130.545 30.545v15.081A30.789 30.789 0 0158.96 73.093a30.132 30.132 0 01-13.332 3.078zm0-64.503a18.9 18.9 0 00-18.879 18.878v15.081a18.9 18.9 0 0018.879 18.878h15.082a18.555 18.555 0 008.21-1.895 19.047 19.047 0 0010.668-16.983V30.545a18.9 18.9 0 00-18.878-18.878z"/><path class="cls-4" d="M45.627 72.17h-15.08A26.575 26.575 0 014 45.627V30.545A26.575 26.575 0 0130.546 4h15.081a26.575 26.575 0 0126.545 26.545v15.08A26.762 26.762 0 0157.205 69.5a26.171 26.171 0 01-11.578 2.672zM30.547 7.668a22.904 22.904 0 00-22.88 22.878v15.08a22.905 22.905 0 0022.88 22.88h15.08a22.522 22.522 0 009.968-2.302 23.071 23.071 0 0012.911-20.577V30.545A22.904 22.904 0 0045.627 7.667z"/></g></g></svg>