<svg xmlns="http://www.w3.org/2000/svg" width="389.179" height="202.075"><defs><clipPath clipPathUnits="userSpaceOnUse" id="a"><path d="M86.477 323.1h317.705v170.078H86.477z"/></clipPath><clipPath clipPathUnits="userSpaceOnUse" id="b"><path d="M0 0h810.708v668.976H0z"/></clipPath><clipPath clipPathUnits="userSpaceOnUse" id="c"><path d="M0 0h810.708v668.976H0z"/></clipPath><clipPath clipPathUnits="userSpaceOnUse" id="d"><path d="M0 0h810.708v668.976H0z"/></clipPath></defs><g clip-path="url(#a)" transform="matrix(1.33333 0 0 -1.33333 -132.517 645.223)"><path d="M391.272 340.22c0-4.322-3.536-7.86-7.858-7.86H107.246c-4.322 0-7.858 3.538-7.858 7.86v135.838c0 4.323 3.536 7.859 7.858 7.859h276.168c4.322 0 7.858-3.536 7.858-7.86z" fill="#717779"/><path d="M367.554 366.818h-3.282a.51.51 0 00-.51.51v42.194c0 .282.229.51.51.51h3.282a.51.51 0 00.51-.51v-42.194a.51.51 0 00-.51-.51z" fill="none" stroke="#32336a" stroke-width=".216" stroke-miterlimit="10"/><path d="M367.538 413.554h-3.25a.525.525 0 00-.525.526v59.269c0 .29.235.526.525.526h3.25c.29 0 .526-.235.526-.526v-59.27a.526.526 0 00-.526-.525z" fill="none" stroke="#32336a" stroke-width=".205" stroke-miterlimit="10"/><path d="M370.985 421.912h-2.92m2.953-20.1h-2.954" fill="none" stroke="#32336a" stroke-width=".23" stroke-miterlimit="10"/><path d="M387.555 401.779a8.431 8.431 0 10-16.863 0 8.431 8.431 0 0016.863 0" fill="#3e4372"/><path d="M379.08 394.045a7.76 7.76 0 00-7.758 7.759v.02a7.76 7.76 0 0015.518 0v-.02a7.76 7.76 0 00-7.76-7.76" fill="#32336a"/><path d="M379.215 408.25h-.268v.939h.268zm-3.239-.796l-.232-.134-.47.813.232.134zm-2.407-2.309l-.134-.232-.813.47.134.231zm-.93-3.472h-.939v.268h.939zm.796-2.97l.134-.232-.813-.47-.134.233zm2.309-2.407l.232-.134-.47-.813-.232.134zm3.203-.931h.268v-.939h-.268zm3.239.797l.232.134.47-.813-.233-.134zm2.407 2.308l.134.233.813-.47-.134-.231zm.93 3.472h.939v-.268h-.939zm-.796 2.971l-.134.232.813.47.134-.233zm-2.309 2.407l-.232.134.47.813.231-.134z" fill="#3e4372"/><path d="M382.653 400.24c0-.143-.106-.259-.236-.259h-1.263v1.629h.356v2.635h.907c.13 0 .236-.117.236-.26zm-1.97-.259h-1.408v1.629h.356v2.635h.696v-2.635h.356zm-1.88 0h-1.425v1.629h.356v2.635h.713v-2.635h.357zm-1.896 0h-1.281c-.13 0-.236.116-.236.259v3.745c0 .143.106.26.236.26h.924v-2.635h.357zm6.183 5.42h-8.137c-.13 0-.235-.099-.235-.219v-5.599c0-.12.105-.218.235-.218h8.137c.13 0 .235.098.235.218v5.599c0 .12-.105.219-.235.219" fill="#fff"/><path d="M375.846 397.238a1.74 1.74 0 00-.488-.483l-.24.275.004.004.12-.013c.137.1.26.212.355.352l-.289.156.196.25.005-.001.01-.09.203-.095c.061.13.103.272.137.413l-.059.08.002.005.354-.066a2.679 2.679 0 00-.183-.56c.076-.04.15-.081.224-.123l-.074-.254zm1.718.484h-.551v-.592h.551zm-.551-.849v-.079l-.282.063.006 1.058-.082.07v.006l.358.033v-.068c.275.016.552.022.829.022l.005-1.105zm2.426 1.09l-.065.179.201.043.022-.191zm-1.024-.173l.052.306h.006l.06-.073c.206.016.415.019.623.022l-.026.07.201.043.022-.19-.064-.013.033-.165zm.669-.405a.96.96 0 00-.419-.635l-.249.272.003.005.129-.011c.114.1.19.226.236.369h-.515l.052.307h.007l.058-.074c.144.01.291.012.436.016.216.004.433.007.65.007l.054-.256zm1.334-.568v.508a2.728 2.728 0 00-.363-.191l-.16.248.005.005.095-.018c.263.12.488.27.676.49l-.02.085.004.008.26-.171a2.13 2.13 0 00-.353-.357l.101.009v-.671zm.972.481l.049.306h.006l.056-.07c.378.022.758.027 1.136.027l.05-.263z" fill="#9ba1a2"/><path d="M387.555 421.91a8.431 8.431 0 10-16.863.001 8.431 8.431 0 0016.863 0" fill="#3e4372"/><path d="M379.08 414.176a7.76 7.76 0 00-7.758 7.76v.02a7.758 7.758 0 007.759 7.757 7.758 7.758 0 007.759-7.758v-.02a7.76 7.76 0 00-7.76-7.759" fill="#32336a"/><path d="M379.265 428.382h-.268v.939h.268zm-3.255-.797l-.231-.134-.47.813.232.134zm-2.42-2.317l-.133-.232-.813.469.134.232zm-.936-3.485h-.939v.268h.939zm.796-2.986l.134-.232-.813-.47-.134.232zm2.317-2.42l.232-.134-.469-.813-.233.134zm3.217-.938h.268v-.939h-.268zm3.254.797l.232.134.47-.813-.232-.134zm2.421 2.317l.134.232.813-.469-.134-.232zm.937 3.485h.939v-.268h-.939zm-.796 2.986l-.135.232.813.47.134-.232zm-2.318 2.421l-.232.134.469.813.233-.134z" fill="#3e4372"/><path d="M379.1 422.315a.547.547 0 10-1.059.277.547.547 0 001.059-.277m4.138 4.015l-.309.345a.317.317 0 01-.467.006l-.768-.813a.317.317 0 01-.08-.281l-1.812-1.625c-.376.333-1.189.887-1.977.33-.261-.184-.34-.401-.605-.673-.342-.35-.84-.054-1.566-.578-1.812-1.308-.024-3.223-.024-3.223s1.709-1.985 3.206-.326c.6.665.36 1.193.745 1.494.299.235.524.289.736.529.638.722.175 1.59-.114 2l1.811 1.626a.313.313 0 01.288.049l.891.675a.317.317 0 01.045.465" fill="#fff"/><path d="M376.984 416.803l.054.313h.006l.06-.074c.241.018.483.021.726.022v.507h-.822l.054.313h.006l.058-.074c.328.021.656.024.984.024l.006-1.03zm1.491.385l.05.306h.005l.056-.069c.378.021.758.026 1.136.026l.051-.263zm2.662.491l-.065.179.201.043.022-.19zm-.244-.027l-.065.179.201.043.022-.19zm-.6-.947v1.183l-.082.07v.006l.361.035v-.53l.095.126c.16-.085.337-.15.511-.196l.111.044.006-.005-.134-.327c-.2.066-.4.139-.589.236v-.703z" fill="#9ba1a2"/><path d="M365.457 364.002h-17.12v47.712h17.12z" fill="#fff"/><path d="M348.337 364.002h-17.12v47.712h17.12z" fill="#e5eaec"/><path d="M331.217 364.002h-17.12v47.712h17.12z" fill="#fff"/><path d="M314.097 364.002h-17.12v47.712h17.12z" fill="#e5eaec"/><path d="M296.977 364.002h-17.12v47.712h17.12z" fill="#fff"/><path d="M279.857 364.002h-17.12v47.712h17.12z" fill="#e5eaec"/><path d="M262.737 364.002h-17.12v47.712h17.12z" fill="#fff"/><path d="M245.616 364.002h-17.12v47.712h17.12z" fill="#e5eaec"/><path d="M228.496 364.002h-17.12v47.712h17.12z" fill="#fff"/><path d="M211.376 364.002h-17.12v47.712h17.12z" fill="#e5eaec"/><path d="M194.256 364.002h-17.12v47.712h17.12z" fill="#fff"/><path d="M177.136 364.002h-17.12v47.712h17.12z" fill="#e5eaec"/><path d="M160.016 364.002h-17.12v47.712h17.12z" fill="#fff"/><path d="M142.896 364.002h-17.12v47.712h17.12z" fill="#e5eaec"/><path d="M125.776 364.002h-17.12v47.712h17.12z" fill="#fff"/><path d="M228.49 411.677H108.649v63.429H228.49z" fill="#32336a"/><path d="M365.457 411.674h-17.12v63.429h17.12z" fill="#eff0f0"/><path d="M348.337 411.674h-17.12v63.429h17.12z" fill="#e5e5e5"/><path d="M331.217 411.674h-17.12v63.429h17.12z" fill="#eff0f0"/><path d="M314.097 411.674h-17.12v63.429h17.12z" fill="#e5e5e5"/><path d="M296.977 411.674h-17.12v63.429h17.12z" fill="#eff0f0"/><path d="M279.857 411.674h-17.12v63.429h17.12z" fill="#e5e5e5"/><path d="M262.737 411.674h-17.12v63.429h17.12z" fill="#eff0f0"/><path d="M245.616 411.674h-17.12v63.429h17.12z" fill="#e5e5e5"/><path d="M177.136 365.612h-17.12v-1.61h17.12zm119.841 0h-17.12v-1.61h17.12z" fill="#32336a"/><path d="M138.426 431.379l-12.349-12.349-12.349 12.349 12.35 12.349zm54.92-.594c0-5.735-4.65-10.384-10.384-10.384-5.735 0-10.385 4.649-10.385 10.384s4.65 10.384 10.385 10.384c5.735 0 10.384-4.65 10.384-10.384m27.6 15.304h-19.085v19.085h19.085zm-76.25 15.214V449.96l9.823-5.671 9.823 5.67v11.344l-9.823 5.67z" fill="#fff"/><path d="M162.875 409.411a.842.842 0 10-1.684 0 .842.842 0 001.684 0m13.069 0a.842.842 0 10-1.684 0 .842.842 0 001.684 0m-9.802 0a.842.842 0 10-1.684 0 .842.842 0 001.684 0m3.268 0a.842.842 0 10-1.684 0 .842.842 0 001.684 0m3.267 0a.842.842 0 10-1.684 0 .842.842 0 001.684 0m75.799 0a.842.842 0 10-1.685 0 .842.842 0 001.685 0m13.069 0a.842.842 0 10-1.684 0 .842.842 0 001.684 0m-9.802 0a.842.842 0 10-1.684 0 .842.842 0 001.684 0m3.267 0a.842.842 0 10-1.684 0 .842.842 0 001.684 0m3.267 0a.842.842 0 10-1.684 0 .842.842 0 001.684 0m75.799 0a.842.842 0 10-1.684 0 .842.842 0 001.684 0m13.07 0a.842.842 0 10-1.685 0 .842.842 0 001.685 0m-9.802 0a.842.842 0 10-1.684 0 .842.842 0 001.684 0m3.266 0a.842.842 0 10-1.683 0 .842.842 0 001.684 0m3.267 0a.842.842 0 10-1.684 0 .842.842 0 001.684 0" fill="#32336a"/><path d="M226.837 337.85l.293.725h.008l.09-.229 1.027-.09-.03-.635zm2.144-2.709c-.575.071-.94.334-1.15.872a4.905 4.905 0 01-.569-.188 7.23 7.23 0 01-.519-.617l-.662.504.004.012.27.05c.358.41.723.811 1.118 1.191h-1.016l.128.715h.015l.14-.177c.537.034 1.08.053 1.617.056l.124-.594h-.188c-.162-.154-.33-.305-.489-.466.192.056.387.105.583.14.034-.426.162-.739.602-.859l.207.11.015-.005zm3.809.113c-.697.064-1.16.293-1.453.944l-.455-.139-.267-.831-.802.346.008.015.241.086c.131.422.278.839.436 1.253.158.425.327.85.515 1.264l-.113.233.008.011.81-.267a20.712 20.712 0 01-.614-1.425c.221.094.447.176.681.244.105-.568.304-.906.891-1.019l.327.233.015-.004zm1.602 2.046c-.147.26-.309.737-.365 1.053l.606.046c.045-.219.131-.516.203-.663l.2-.067.003-.012zm1.505-2.174c-.696.214-1.182.624-1.182 1.395 0 .042.004.083.004.124l-1.049-.034.12.73h.015l.14-.173c.462.05.93.076 1.391.102.132.293.252.594.346.903l-.165.196v.015l.857-.072a6.045 6.045 0 00-.376-1.016l.587.023.132-.609-1.355-.046v-.049c0-.41.268-.673.644-.793l.24.082.012-.007zm2.31 2.724l.293.725.008-.004.09-.225 1.023-.09-.026-.64zm.376-2.149l.008.011.274-.03c.305.166.587.4.587.771 0 .257-.113.378-.369.378-.327 0-.895-.106-1.21-.2l-.14.824.015.004.214-.136c.35.083.72.14 1.08.14.625 0 1.087-.294 1.087-.967 0-.685-.444-1.102-1-1.426zm4.097-.458l-.8 1.678.673.15.188-.413.275.06c.162.192.304.485.395.786h-2.235l.128.745h.015l.139-.177c.662.038 1.73.049 2.716.049-.052-.9-.297-1.471-.665-1.908l-.693.275.339-.748.263-.038.004-.015zm3.613 1.444l-.327 1.035.598.06.18-.704.2-.082v-.016zm-.433-.91l.012.015.24-.023c.553.399.877.82 1.054 1.396l-.117.195.01.016.724-.196c-.252-.91-.655-1.452-1.43-1.986zm-.372.722l-.372 1.061.598.06.222-.73.199-.083.004-.015zm3.841-1.196v2.81l-.195.165v.016l.857.082v-1.256l.226.297c.38-.203.8-.357 1.215-.466l.263.105.015-.011-.32-.78c-.473.159-.951.332-1.4.56v-1.67zm7.223 1.899c-.23.312-.403.67-.572 1.016l.647.176c.083-.236.181-.47.293-.692l.253-.045.003-.01zm-2.156-1.27l.162-.103c.136.05.203.162.215.301zm1.426-.41l.004.014.233.082c.09.136.177.313.177.482 0 .244-.207.346-.425.346-.128 0-.256-.03-.376-.068v-.1c0-.626-.286-1.04-.933-1.104l-.192.712-.117-.065-.327.745.008.008.23-.068c.221.083.443.166.67.245v.56h-.712l.127.715h.016l.14-.177.428.026v.313l-.196.165v.015l.858.083v-.549l.49.004.123-.595h-.613v-.357c.147.034.293.056.444.056.308 0 .594-.094.808-.323.143-.15.192-.388.192-.59a1.58 1.58 0 00-.316-.919zm4.496.733l.015.008.361-.847c-.33-.124-.583-.2-.94-.2-.756 0-1.227.481-1.268 1.222h-.662l.124.715h.015l.143-.177.448.023.041.421h-.685l.128.715h.015l.14-.177.46.023.021.222-.166.17v.014l.862-.004-.038-.38.602.012.128-.595h-.786l-.04-.398.826.011.124-.595h-.985c.022-.357.177-.553.55-.553.15 0 .33.042.473.087zm3.259-1.095c-.587.324-1.02.869-1.02 1.565 0 .267.068.557.192.794l-1.26-.023.117.734h.015l.143-.177c.865.068 1.734.086 2.603.1l.135-.604-1.004-.02c-.14-.24-.248-.518-.248-.804 0-.38.21-.666.515-.876l.286.045.01-.015z" fill="#fff"/><path d="M115.07 345.71v-2.825c0-.471.37-.854.826-.854h119.8c.456 0 .826.383.826.854v2.572" fill="none" stroke="#32336a" stroke-width=".195" stroke-miterlimit="10"/><path d="M134.135 345.483v-3.452m17.07 3.452v-3.452m17.063 3.452v-3.452m17.062 3.452v-3.452m17.058 3.452v-3.452m17.061 3.452v-3.452" fill="none" stroke="#32336a" stroke-width=".198" stroke-miterlimit="10"/><path d="M123.531 352.61a8.42 8.42 0 10-16.84.001 8.42 8.42 0 0016.84 0" fill="#3e4372"/><path d="M115.068 344.887a7.75 7.75 0 00-7.749 7.749v.02a7.749 7.749 0 0015.498 0v-.02a7.749 7.749 0 00-7.749-7.75" fill="#32336a"/><path d="M115.202 359.073h-.268v.937h.268zm-3.232-.793l-.232-.135-.47.812.233.134zm-2.403-2.304l-.134-.232-.812.468.134.232zm-.928-3.465h-.938v.268h.938zm.794-2.964l.134-.232-.812-.47-.134.233zm2.304-2.403l.232-.134-.47-.812-.231.134zm3.196-.928h.268v-.938h-.268zm3.232.794l.232.134.47-.812-.233-.134zm2.402 2.304l.135.232.811-.47-.134-.231zm.929 3.464h.938v-.268h-.938zm-.794 2.964l-.134.232.812.47.134-.233zm-2.304 2.403l-.232.134.47.812.231-.134z" fill="#3e4372"/><path d="M118.505 354.757l-1.121-1.184 1.215-.726-1.42-.43 1.125-1.618-1.879.717-.054-1.572-1.052 1.17-.907-1.132-.25 1.336-1.666-.993.765 1.747-1.607-.259 1.205 1.365-1.913.918 2.118.24-.763 1.448 1.517-.548.055 1.571 1.051-1.169.838 1.476.319-1.68 1.449.763-.548-1.517z" fill="#fff"/><path d="M111.423 348.46l.054.301h.005l.06-.074c.244.017.487.023.731.023l.052-.25zm.921-.56h.007l.057-.365a2.07 2.07 0 00-.304-.028c-.339 0-.63.131-.77.453l.32.139.002-.005-.032-.096c.097-.165.304-.208.481-.208.06 0 .116.003.174.011zm.809.691l.124.306.003-.002.038-.095.43-.038-.011-.269zm.158-.904l.003.005.116-.013c.128.07.247.169.247.325 0 .108-.047.159-.155.159-.138 0-.377-.044-.51-.084l-.058.347h.006l.09-.057c.147.035.302.06.454.06.263 0 .458-.124.458-.407 0-.288-.187-.464-.421-.6zm2.207.306c-.095.163-.182.388-.252.568l.282.062c.037-.125.097-.31.15-.426l.105-.024.002-.004zm-.776-.342l.005.006.119.021c.11.169.155.35.155.465 0 .113-.022.141-.15.141l-.031-.004-.014-.524-.277.053.01.411-.151-.045-.082.345.004.002.096-.057.142.035.005.215-.08.073v.006l.362.024-.008-.284.073.002c.273.006.388-.193.388-.397 0-.184-.09-.456-.24-.67zm2.333.668c-.097.13-.17.282-.241.428l.273.074c.034-.1.076-.198.123-.292l.106-.018.002-.005zm-.907-.535l.068-.043c.057.02.085.068.09.127zm.6-.173v.007l.1.034a.404.404 0 01.074.203c0 .103-.087.146-.18.146a.526.526 0 01-.157-.03v-.041c0-.263-.12-.438-.393-.464l-.081.299-.05-.027-.136.313.003.004.096-.03c.094.036.187.07.282.104v.236h-.3l.055.3h.006l.058-.074.18.012v.13l-.081.07v.007l.36.035v-.232l.207.002.052-.25h-.258v-.15a.832.832 0 00.187.023.45.45 0 00.34-.136c.06-.063.08-.163.08-.25a.664.664 0 00-.132-.385zm2.024-.112c-.293.027-.488.124-.611.397l-.192-.058-.112-.35-.337.146.003.006.101.036c.056.178.117.353.184.528.066.179.137.357.217.532l-.048.098.003.005.341-.113a8.597 8.597 0 01-.258-.6c.093.04.188.074.286.103.045-.24.129-.382.375-.43l.138.099.007-.002z" fill="#9ba1a2"/><path d="M129.204 344.975a2.35 2.35 0 00-2.348 2.347v9.868a2.35 2.35 0 002.348 2.347h9.868a2.35 2.35 0 002.347-2.347v-9.868a2.35 2.35 0 00-2.347-2.347z" fill="#32336a"/><path d="M139.072 359.933h-9.868a2.747 2.747 0 01-2.743-2.743v-9.868a2.746 2.746 0 012.743-2.743h9.868a2.746 2.746 0 012.744 2.743v9.868a2.747 2.747 0 01-2.744 2.743m0-.792a1.951 1.951 0 001.95-1.95v-9.869a1.95 1.95 0 00-1.95-1.95h-9.868a1.951 1.951 0 00-1.951 1.95v9.868c0 1.077.874 1.951 1.95 1.951h9.869" fill="#3e4372"/><path d="M137.536 353.84l-1.12-1.185 1.214-.726-1.42-.43 1.126-1.619-1.88.717-.053-1.57-1.052 1.167-.907-1.13-.25 1.335-1.666-.992.765 1.747-1.608-.259 1.205 1.365-1.912.918 2.117.24-.763 1.448 1.517-.549.055 1.572 1.051-1.169.838 1.475.32-1.68 1.448.763-.548-1.517z" fill="#3e4372"/><path d="M129.905 346.886v3.693l-.63.314v.023l1.67.296v-4.492z" fill="#fff"/><path d="M146.268 344.96a2.35 2.35 0 00-2.348 2.348v9.867a2.352 2.352 0 002.348 2.348h9.868a2.35 2.35 0 002.347-2.348v-9.867a2.35 2.35 0 00-2.347-2.348z" fill="#32336a"/><path d="M156.136 359.918h-9.868a2.747 2.747 0 01-2.743-2.744v-9.867a2.747 2.747 0 012.743-2.744h9.868a2.747 2.747 0 012.744 2.744v9.867a2.747 2.747 0 01-2.744 2.744m0-.792a1.951 1.951 0 001.95-1.952v-9.867a1.951 1.951 0 00-1.95-1.952h-9.868a1.952 1.952 0 00-1.951 1.952v9.867c0 1.078.874 1.952 1.95 1.952h9.869" fill="#3e4372"/><path d="M154.574 353.84l-1.12-1.185 1.214-.726-1.42-.43 1.125-1.619-1.879.717-.054-1.57-1.052 1.167-.907-1.13-.25 1.335-1.666-.992.765 1.747-1.607-.259 1.205 1.365-1.913.918 2.118.24-.763 1.448 1.517-.549.055 1.572 1.051-1.169.838 1.475.32-1.68 1.448.763-.548-1.517z" fill="#3e4372"/><path d="M145.865 346.763c.595.576 2.184 2.083 2.184 2.945 0 .325-.283.645-.624.645-.306 0-.503-.108-.676-.36l.035-.399-.018-.012-.993.862c.375.617.895.868 1.617.868.93 0 1.699-.628 1.699-1.58 0-.857-.48-1.496-1.052-2.102h1.08v-.867z" fill="#fff"/><path d="M163.332 344.945a2.35 2.35 0 00-2.348 2.348v9.867a2.352 2.352 0 002.348 2.348h9.868a2.35 2.35 0 002.347-2.348v-9.867a2.35 2.35 0 00-2.347-2.348z" fill="#32336a"/><path d="M173.2 359.904h-9.868a2.747 2.747 0 01-2.743-2.744v-9.867a2.747 2.747 0 012.743-2.744h9.868a2.747 2.747 0 012.744 2.744v9.867a2.747 2.747 0 01-2.744 2.744m0-.792a1.951 1.951 0 001.95-1.952v-9.867a1.951 1.951 0 00-1.95-1.952h-9.868a1.952 1.952 0 00-1.951 1.952v9.867c0 1.078.874 1.952 1.95 1.952h9.869" fill="#3e4372"/><path d="M171.81 353.84l-1.121-1.185 1.215-.726-1.42-.43 1.125-1.619-1.88.717-.053-1.57-1.052 1.167-.907-1.13-.25 1.335-1.666-.992.765 1.747-1.607-.259 1.205 1.365-1.913.918 2.118.24-.763 1.448 1.517-.549.055 1.572 1.05-1.169.839 1.475.319-1.68 1.449.763-.548-1.517z" fill="#3e4372"/><path d="M163.296 348.192l.023-.012.127-.382c.26-.137.555-.239.844-.239.445 0 .803.222.803.69 0 .537-.358.702-.844.771-.214.028-.433.04-.653.034l.549 1.204h-1.328l.196 1.13h.023l.214-.268h2.409l-.636-1.433c.71-.17 1.092-.73 1.092-1.438 0-1.067-.774-1.66-1.82-1.66-.548 0-1.091.188-1.577.44z" fill="#fff"/><path d="M180.385 345.07a2.339 2.339 0 00-2.336 2.336v9.73a2.339 2.339 0 002.336 2.335h9.89a2.339 2.339 0 002.337-2.336v-9.729a2.339 2.339 0 00-2.337-2.336z" fill="#32336a"/><path d="M190.275 359.867h-9.89a2.736 2.736 0 01-2.733-2.732v-9.729a2.736 2.736 0 012.732-2.732h9.891a2.736 2.736 0 012.732 2.732v9.73a2.736 2.736 0 01-2.732 2.731m0-.792a1.94 1.94 0 001.94-1.94v-9.729a1.94 1.94 0 00-1.94-1.94h-9.89a1.94 1.94 0 00-1.94 1.94v9.73a1.94 1.94 0 001.94 1.94h9.89" fill="#3e4372"/><path d="M189.062 353.84l-1.12-1.185 1.214-.726-1.42-.43 1.126-1.619-1.88.717-.054-1.57-1.052 1.167-.907-1.13-.25 1.335-1.666-.992.765 1.747-1.607-.259 1.205 1.365-1.913.918 2.118.24-.763 1.448 1.517-.549.055 1.572 1.051-1.169.838 1.475.32-1.68 1.448.763-.548-1.517z" fill="#3e4372"/><path d="M181.178 346.692v.93h-1.774l.237 2.483-.277.28.006.023h1.346l-.185-1.918h.647v2.386l-.3.257v.022l1.34.12v-2.785h.537l.191-.868h-.728v-1.09z" fill="#fff"/><path d="M197.46 344.93a2.35 2.35 0 00-2.348 2.347v9.868a2.35 2.35 0 002.348 2.347h9.868a2.35 2.35 0 002.347-2.347v-9.868a2.35 2.35 0 00-2.347-2.347z" fill="#32336a"/><path d="M207.327 359.889h-9.868a2.747 2.747 0 01-2.743-2.743v-9.868a2.746 2.746 0 012.743-2.743h9.868a2.746 2.746 0 012.744 2.743v9.868a2.747 2.747 0 01-2.744 2.743m0-.792a1.951 1.951 0 001.951-1.951v-9.868a1.95 1.95 0 00-1.95-1.951h-9.869a1.951 1.951 0 00-1.95 1.95v9.869a1.95 1.95 0 001.95 1.95h9.868" fill="#3e4372"/><path d="M206.11 353.84l-1.122-1.185 1.215-.726-1.42-.43 1.125-1.619-1.879.717-.054-1.57-1.052 1.167-.907-1.13-.25 1.335-1.666-.992.765 1.747-1.607-.259 1.205 1.365-1.913.918 2.118.24-.763 1.448 1.517-.549.055 1.572 1.051-1.169.838 1.475.32-1.68 1.448.763-.548-1.517z" fill="#3e4372"/><path d="M197.289 348.154l.023-.01.127-.384c.26-.137.555-.239.844-.239.45 0 .849.28.849.747 0 .703-.711.806-1.271.806-.26 0-.52-.006-.774-.011l.317 2.14h2.294l.197-.868h-1.56l-.076-.485c.087.011.168.016.255.016.964 0 1.64-.633 1.64-1.598 0-1.107-.768-1.718-1.866-1.718-.548 0-1.091.19-1.577.44z" fill="#fff"/><path d="M214.524 344.915a2.35 2.35 0 00-2.348 2.348v9.867a2.352 2.352 0 002.348 2.348h9.868a2.35 2.35 0 002.347-2.348v-9.867a2.35 2.35 0 00-2.347-2.348z" fill="#32336a"/><path d="M224.392 359.874h-9.868a2.747 2.747 0 01-2.743-2.744v-9.867a2.747 2.747 0 012.743-2.744h9.868a2.747 2.747 0 012.744 2.744v9.867a2.747 2.747 0 01-2.744 2.744m0-.792a1.951 1.951 0 001.95-1.952v-9.867a1.951 1.951 0 00-1.95-1.952h-9.868a1.952 1.952 0 00-1.951 1.952v9.867c0 1.078.874 1.952 1.95 1.952h9.869" fill="#3e4372"/><path d="M215.51 348.996c-.434 0-.82-.326-.82-.765 0-.44.386-.77.82-.77.461 0 .813.296.813.77 0 .468-.352.765-.814.765m.45 1.695l-.606-.88c.07.013.144.018.214.018.96 0 1.762-.548 1.762-1.558 0-1.067-.74-1.724-1.809-1.724-1.057 0-1.773.782-1.773 1.81 0 .662.428 1.352.757 1.906l.687 1.153 1.19-.582-.005-.023z" fill="#fff"/><path d="M223.19 353.84l-1.12-1.185 1.214-.726-1.42-.43 1.125-1.619-1.879.717-.054-1.57-1.052 1.167-.907-1.13-.25 1.335-1.666-.992.765 1.747-1.607-.259 1.205 1.365-1.913.918 2.118.24-.763 1.448 1.517-.549.055 1.572 1.051-1.169.838 1.475.32-1.68 1.448.763-.548-1.517z" fill="#3e4372"/><path d="M265.59 343.916v-1.844a.3.3 0 01.293-.307h42.294a.3.3 0 01.292.307v2.227" fill="none" stroke="#32336a" stroke-width=".194" stroke-miterlimit="10"/><path d="M231.588 344.9a2.35 2.35 0 00-2.348 2.349v9.867a2.35 2.35 0 002.348 2.348h9.868a2.35 2.35 0 002.347-2.348v-9.867a2.35 2.35 0 00-2.347-2.348z" fill="#32336a"/><path d="M241.455 359.859h-9.868a2.747 2.747 0 01-2.743-2.744v-9.867a2.747 2.747 0 012.743-2.744h9.868a2.747 2.747 0 012.744 2.744v9.867a2.747 2.747 0 01-2.744 2.744m0-.792a1.951 1.951 0 001.951-1.952v-9.867a1.951 1.951 0 00-1.95-1.952h-9.869a1.952 1.952 0 00-1.95 1.952v9.867c0 1.078.873 1.952 1.95 1.952h9.868" fill="#3e4372"/><path d="M239.888 353.84l-1.121-1.185 1.215-.726-1.42-.43 1.126-1.619-1.88.717-.054-1.57-1.052 1.167-.907-1.13-.25 1.335-1.666-.992.765 1.747-1.607-.259 1.205 1.365-1.913.918 2.118.24-.763 1.448 1.517-.549.055 1.572 1.05-1.169.839 1.475.319-1.68 1.449.763-.548-1.517z" fill="#3e4372"/><path d="M231.86 346.926l1.005 3.362h-2.028l.203 1.153h.023l.219-.267 2.895.005-1.318-4.657z" fill="#fff"/><path d="M333.146 343.84v-1.768c0-.17.136-.308.305-.308h44.044c.168 0 .304.138.304.308v2.778" fill="none" stroke="#32336a" stroke-width=".198" stroke-miterlimit="10"/><path d="M228.496 436.358v-1.12h136.961v1.12m0 31.664H228.496v-1.12h136.961zm0-10.555H228.496v-1.12h136.961zm0-10.555H228.496v-1.12h136.961z" fill="#32336a"/><path d="M382.259 345.81h-9.07a2.283 2.283 0 00-2.283 2.283v9.07a2.283 2.283 0 002.283 2.283h9.07a2.283 2.283 0 002.283-2.283v-9.07a2.283 2.283 0 00-2.283-2.283" fill="#3e4372"/><path d="M382.296 345.05h-9.145a3.005 3.005 0 00-3.006 3.005v9.145a3.005 3.005 0 003.006 3.005h9.145a3.005 3.005 0 003.005-3.005v-9.145a3.005 3.005 0 00-3.005-3.005z" fill="none" stroke="#3e4372" stroke-width=".677" stroke-miterlimit="10"/><path d="M382.163 346.433h-8.878c-.97 0-1.756.786-1.756 1.756v8.878c0 .97.786 1.756 1.756 1.756h8.878c.97 0 1.756-.786 1.756-1.756v-8.878c0-.97-.786-1.756-1.756-1.756" fill="#32336a"/><path d="M378.02 356.725a3.256 3.256 0 01-2.374-.88l-.732.587a.12.12 0 01-.194-.075l-.426-2.786a.12.12 0 01.162-.13l2.626 1.024a.12.12 0 01.031.206l-.665.532c.482.395 1.11.58 1.757.488a2.27 2.27 0 001.933-2.157 2.263 2.263 0 00-2.259-2.341c-.872 0-1.659.497-2.036 1.275a.119.119 0 01-.154.06l-.713-.301a.12.12 0 01-.063-.161 3.268 3.268 0 012.966-1.886 3.277 3.277 0 013.271 3.403 3.295 3.295 0 01-3.13 3.142" fill="#fff"/><path d="M375.075 347.684l.002.005h.113a.86.86 0 01.314.684v.312l-.082.07v.006l.361.033v-.423c0-.413-.129-.668-.444-.932zm-.23.337v.668l-.083.07v.006l.361.034v-.84zm1.718-.468v.617l-.283-.06v.345l.006.002.07-.063.207.046v.232l-.082.07v.006l.36.035v-.283l.66.125c0-.244-.021-.5-.124-.702l-.337.12v.007l.11.043c.029.06.049.142.06.217l-.368-.08v-.424h.548l.06.092h.004l.067-.345zm1.842.549l-.138.435.252.026.076-.296.084-.035v-.007zm-.182-.383l.005.006.1-.009c.234.167.37.345.444.587l-.05.082.006.007.304-.083c-.106-.383-.276-.61-.602-.836zm-.157.304l-.156.446.25.025.094-.306.084-.035.002-.007zm1.617-.503v1.183l-.082.069v.007l.361.034v-.528l.095.125c.16-.086.337-.151.511-.197l.112.045.006-.005-.135-.328c-.2.067-.4.14-.588.236v-.703z" fill="#9ba1a2"/><path d="M276.735 408.619h-1.574v1.584h1.574zm-3.106 0h-1.574v1.584h1.574zm-3.106 0h-1.574v1.584h1.574zm-3.106 0h-1.574v1.584h1.574zm-3.106 0h-1.574v1.584h1.574zm15.529 0h-1.574v1.584h1.574zm-105.826-3.017h-1.574v1.584h1.574zm-3.106 0h-1.574v1.584h1.574zm-3.106 0h-1.574v1.584h1.574zm-3.106 0h-1.574v1.584h1.574zm-3.106 0h-1.574v1.584h1.574zm15.53 0h-1.574v1.584h1.574z" fill="#32336a"/><path d="M287.007 345.216v-3.452" fill="none" stroke="#32336a" stroke-width=".198" stroke-miterlimit="10"/><path d="M295.488 352.33a8.42 8.42 0 10-16.841 0 8.42 8.42 0 0016.84 0" fill="#3e4372"/><path d="M287.024 344.606a7.75 7.75 0 00-7.749 7.749v.02a7.749 7.749 0 0015.498 0v-.02a7.75 7.75 0 00-7.749-7.75" fill="#32336a"/><path d="M287.175 358.792h-.268v.938h.268zm-3.235-.785l-.232-.134-.469.812.232.134zm-2.408-2.298l-.134-.232-.812.469.134.232zm-.937-3.463h-.938v.268h.938zm.785-2.966l.135-.233-.812-.469-.134.232zm2.299-2.41l.232-.133-.47-.812-.231.134zm3.194-.936h.268v-.937h-.268zm3.235.786l.232.134.469-.812-.232-.134zm2.409 2.298l.134.232.812-.469-.134-.232zm.936 3.462h.938v-.268h-.938zm-.786 2.967l-.134.232.812.47.134-.232zm-2.297 2.409l-.233.134.47.812.231-.134z" fill="#3e4372"/><path d="M282.666 351.72h2.917v-.692h-2.917zm1.848 1.22v-.997h-.779v.997h-1.069v.692h1.069v.998h.779v-.998h1.069v-.692zm2.646-1.757v2.946l-.494.25v.019l1.309.237v-3.584zm1.812-.087c.466.46 1.712 1.662 1.712 2.35 0 .26-.222.514-.49.514-.24 0-.393-.087-.53-.287l.028-.319-.014-.009-.778.688c.294.491.7.692 1.268.692.729 0 1.33-.5 1.33-1.26 0-.684-.375-1.194-.823-1.677h.847v-.692z" fill="#fff"/><path d="M282.426 347.52v1.183l-.074.069v.007l.325.034v-.528l.086.125a2 2 0 01.46-.197l.1.045.006-.005-.121-.328c-.18.067-.361.14-.531.236v-.703zm1.371.975l.05.306h.004l.053-.073c.224.019.452.023.677.023l.047-.256zm.187-.803l.003.003.101.002a.75.75 0 01.325.415h-.733l.047.305h.006l.054-.073c.302.015.605.024.907.024-.017-.422-.164-.681-.47-.921zm1.111.122l.006.003.104-.05c.292.098.55.281.73.558l-.017.11.003.004.262-.216a1.63 1.63 0 00-.948-.743zm-.02.714l.146.276.002-.002.023-.089c.103-.025.208-.049.307-.09l-.023-.269zm2.345-1.038c-.127.108-.24.24-.345.376a1.75 1.75 0 00-.438-.383l-.182.28.004.003.094-.014c.26.155.438.373.52.692h-.474l.047.312h.006l.054-.073c.221.017.443.02.666.02a1.52 1.52 0 00-.217-.725l.114.075c.077-.11.163-.214.256-.306h.108l.003-.006zm1.552 1.28c-.033 0-.06-.03-.06-.067 0-.034.027-.065.06-.065.03 0 .058.031.058.065 0 .037-.027.067-.058.067m-.124-1.127c-.08.155-.131.327-.174.5l.232.07c.026-.138.062-.273.116-.4l.08-.026.004-.007zm-.626-.105v.007l.11.075v.7h-.423l.048.307h.005l.053-.074.318.013v.152l-.074.07v.006l.325.035v-.257l.277.003a.189.189 0 00-.05.128c0 .098.072.18.16.18.089 0 .16-.082.16-.18 0-.086-.056-.16-.133-.174l.038-.209h-.452v-.858zm-.334.197c.057.114.1.265.124.392l-.05.078.002.006.278-.07a2.243 2.243 0 00-.133-.513zm1.42.267l.044.306h.006l.05-.069c.34.021.683.026 1.024.026l.045-.263zm2.492.651l-.056.18.18.043.02-.19zm-.103-1.164c-.126.11-.24.241-.344.377a1.75 1.75 0 00-.438-.383l-.182.28.004.003.094-.014c.26.155.438.374.519.692h-.473l.047.312h.006l.054-.073c.19.014.38.021.572.021l-.033.102.18.043.02-.19-.08-.019a1.48 1.48 0 00-.21-.66l.114.073c.077-.109.163-.214.255-.306h.109l.003-.006z" fill="#9ba1a2"/><path d="M316.92 352.33a8.42 8.42 0 10-16.84 0 8.42 8.42 0 0016.84 0" fill="#3e4372"/><path d="M308.457 344.606a7.75 7.75 0 00-7.749 7.749v.02a7.749 7.749 0 0015.498 0v-.02a7.75 7.75 0 00-7.749-7.75" fill="#32336a"/><path d="M308.594 358.792h-.268v.938h.268zm-3.233-.794l-.232-.134-.469.812.232.134zm-2.401-2.304l-.135-.232-.812.47.134.231zm-.929-3.465h-.938v.268h.938zm.794-2.964l.134-.232-.812-.47-.134.233zm2.305-2.402l.231-.134-.469-.812-.232.134zm3.196-.929h.268v-.937h-.268zm3.233.795l.232.134.469-.812-.232-.134zm2.401 2.304l.135.232.812-.469-.134-.232zm.929 3.464h.938v-.268h-.938zm-.794 2.965l-.134.232.812.469.134-.232zm-2.305 2.402l-.231.134.469.812.232-.134z" fill="#3e4372"/><path d="M306.401 347.49a2.721 2.721 0 00-.382.376 1.9 1.9 0 00-.486-.383l-.202.28.004.003.105-.014c.288.155.486.373.576.692h-.525l.052.312h.006l.06-.073c.246.017.493.02.74.02a1.415 1.415 0 00-.241-.725l.127.075c.085-.11.18-.214.283-.306h.12l.004-.006zm.791.224l.003.006.124-.004c.194.156.296.34.343.584h-.348l-.133-.273-.241.175c.092.183.19.368.304.541l-.044.098.001.007.325-.107-.098-.202c.242.014.486.024.728.024l.052-.263h-.261c-.05-.372-.201-.61-.494-.839zm1.308.288l.05.306h.006l.056-.069c.378.021.758.026 1.137.026l.05-.263zm2.767.118l.006.002.187-.32c-.207-.16-.476-.253-.73-.304v1.189l-.084.069v.007l.361.035v-.928c.083.033.164.076.238.128zm-1.24-.364l.004.005.1.023c.107.187.14.428.142.64l-.083.063v.005l.35.032v-.178a1.4 1.4 0 00-.21-.772z" fill="#9ba1a2"/><path d="M308.288 355.028v-3.23a1.19 1.19 0 01-.559.135c-.579 0-1.049-.397-1.049-.887s.47-.888 1.05-.888c.578 0 1.048.398 1.048.888a.544.544 0 01-.003.057h.003v2.813s1.291.043 1.27-1.409c.132.132.458.953.132 1.34-.326.387-.402.29-.88.493-.48.204-1.012.688-1.012.688m3.682.584v-2.496a.914.914 0 01-.432.106c-.447 0-.81-.307-.81-.685 0-.379.363-.686.81-.686.448 0 .81.307.81.686 0 .015 0 .03-.002.044h.002v2.172s.997.033.98-1.088c.104.102.355.736.103 1.035-.252.3-.31.223-.68.381-.37.157-.781.531-.781.531m-7.068 0v-2.496a.914.914 0 01-.432.106c-.447 0-.81-.307-.81-.685 0-.379.363-.686.81-.686.448 0 .81.307.81.686 0 .015 0 .03-.002.044h.002v2.172s.997.033.981-1.088c.102.102.354.736.102 1.035-.252.3-.31.223-.68.381-.37.157-.781.531-.781.531" fill="#fffcfd"/><path d="M274.054 352.33a8.42 8.42 0 10-16.84 0 8.42 8.42 0 0016.84 0" fill="#3e4372"/><path d="M265.591 344.606a7.75 7.75 0 00-7.749 7.749v.02a7.749 7.749 0 0015.498 0v-.02a7.75 7.75 0 00-7.749-7.75" fill="#32336a"/><path d="M265.725 358.792h-.268v.938h.268zm-3.228-.792l-.232-.134-.469.812.232.134zm-2.398-2.301l-.134-.232-.812.469.133.232zm-.927-3.46h-.938v.268h.938zm.793-2.959l.134-.233-.812-.469-.134.232zm2.3-2.4l.232-.133-.469-.812-.232.134zm3.192-.927h.268v-.938h-.268zm3.228.794l.232.134.469-.812-.232-.134zm2.398 2.301l.134.232.812-.47-.134-.231zm.928 3.459h.938v-.268h-.938zm-.794 2.96l-.134.232.812.469.134-.232zm-2.3 2.398l-.232.134.469.812.232-.133z" fill="#3e4372"/><path d="M262.812 351.552h2.917v-.692h-2.917zm1.847 1.22v-.997h-.779v.997h-1.068v.692h1.068v.997h.779v-.997h1.069v-.692zm2.646-1.757v2.946l-.494.25v.019l1.309.236v-3.583z" fill="#fff"/><path d="M260.976 347.52v1.183l-.074.069v.007l.325.034v-.528l.086.125a2 2 0 01.46-.197l.1.045.006-.005-.121-.328c-.18.067-.361.14-.531.236v-.703zm1.372.975l.049.306h.005l.053-.073c.224.019.452.023.677.023l.047-.256zm.187-.803l.003.003.1.002a.75.75 0 01.326.415h-.733l.047.305h.006l.054-.073c.302.015.605.024.907.024-.017-.422-.164-.681-.471-.921zm1.11.122l.006.003.104-.05c.292.098.55.281.73.558l-.017.11.003.004.262-.216a1.63 1.63 0 00-.948-.743zm-.02.714l.146.276.002-.002.023-.089c.103-.025.208-.049.307-.09l-.023-.269zm2.345-1.038c-.127.108-.24.24-.345.376a1.75 1.75 0 00-.438-.383l-.182.28.004.003.094-.014c.26.155.438.373.52.692h-.474l.047.312h.006l.054-.073c.221.017.443.02.666.02a1.52 1.52 0 00-.217-.725l.114.075c.077-.11.163-.214.256-.306h.108l.003-.006zm1.552 1.28c-.033 0-.06-.03-.06-.067 0-.034.027-.065.06-.065.031 0 .058.031.058.065 0 .037-.027.067-.058.067m-.124-1.127c-.08.155-.131.327-.174.5l.232.07c.026-.138.062-.273.116-.4l.081-.026.003-.007zm-.626-.105v.007l.111.075v.7h-.424l.048.307h.005l.053-.074.318.013v.152l-.074.07v.006l.325.035v-.257l.277.003a.189.189 0 00-.05.128c0 .098.072.18.161.18.088 0 .16-.082.16-.18 0-.086-.057-.16-.134-.174l.038-.209h-.452v-.858zm-.334.197c.057.114.1.265.124.392l-.05.078.002.006.278-.07a2.243 2.243 0 00-.133-.513zm1.42.267l.044.306h.006l.05-.069c.341.021.683.026 1.024.026l.045-.263zm2.492.651l-.056.18.18.043.02-.19zm-.103-1.164c-.126.11-.24.241-.344.377a1.75 1.75 0 00-.438-.383l-.182.28.004.003.094-.014c.26.155.438.374.519.692h-.473l.047.312h.006l.054-.073c.19.014.38.021.572.021l-.033.102.18.043.02-.19-.08-.019a1.48 1.48 0 00-.21-.66l.114.073c.077-.109.163-.214.255-.306h.109l.003-.006z" fill="#9ba1a2"/><path d="M340.664 352.33a7.48 7.48 0 10-14.96.001 7.48 7.48 0 0014.96-.001" fill="#3e4372"/><path d="M341.604 352.33a8.42 8.42 0 10-16.84 0 8.42 8.42 0 0016.84 0z" fill="none" stroke="#3e4372" stroke-width=".671" stroke-miterlimit="10"/><path d="M333.146 345.469a6.883 6.883 0 00-6.883 6.883v.018a6.883 6.883 0 0013.766 0v-.018a6.883 6.883 0 00-6.883-6.883" fill="#32336a"/><path d="M333.264 358.07h-.238v.833h.238zm-2.87-.705l-.206-.119-.417.721.207.12zm-2.133-2.045l-.119-.206-.72.416.118.207zm-.824-3.076h-.833v.238h.833zm.705-2.631l.12-.206-.722-.417-.119.207zm2.046-2.133l.206-.119-.416-.72-.206.118zm2.838-.824h.238v-.833h-.238zm2.869.705l.206.12.417-.722-.207-.119zm2.132 2.046l.12.206.72-.416-.119-.206zm.825 3.075h.833v-.238h-.833zm-.706 2.632l-.119.206.721.417.12-.207zm-2.046 2.133l-.205.119.416.72.207-.118z" fill="#3e4372"/><path d="M330.039 347.942a1.753 1.753 0 00-.488-.483l-.241.275.005.004.119-.013c.138.1.26.212.356.352l-.29.156.197.25h.005l.009-.09.204-.096c.06.131.103.272.136.413l-.058.081v.004l.356-.066a2.679 2.679 0 00-.183-.56c.076-.04.15-.08.224-.123l-.074-.254zm.811-.422v1.183l-.082.069v.007l.361.034v-.528l.095.125c.16-.086.337-.151.511-.197l.111.045.006-.005-.135-.328c-.199.067-.4.14-.588.236v-.703zm2.047.906h-.551v-.592h.551zm-.551-.848v-.079l-.282.063.006 1.058-.082.069v.007l.358.033v-.068c.275.016.552.022.829.022l.005-1.105zm1.017.132l.003.002h.135c.307.254.502.585.587.972l-.061.086v.003l.359-.062c-.13-.567-.31-.87-.743-1.252zm1.205.292l.05.306h.005l.056-.069c.378.021.758.026 1.136.026l.051-.263zm2.414-.517c-.063.09-.122.187-.176.284l-.011-.105-.822-.101-.004.356h.006l.071-.075.076.008.222.843-.063.084.003.004.359-.06-.231-.84.317.03c-.041.083-.08.167-.114.253l.342.11.001-.004-.049-.09c.07-.16.151-.312.25-.455l.105-.006.002-.005z" fill="#9ba1a2"/><path d="M333.75 352.078h1.56l-.48 1.747-1.14-1.64a.534.534 0 00.06-.107m.166 5.07c-.021.078-.097.142-.17.142h-1.07c-.071 0-.146-.064-.168-.142l-.058-.212h1.524zm-.926-4.753l.105.149v.667h-.114a.117.117 0 000 .235h.114v.242h-.114a.117.117 0 000 .235h.114v.242h-.114a.117.117 0 000 .235h.114v.242h-.114a.117.117 0 000 .235h.114v.242h-.114a.117.117 0 000 .235h.114v.242h-.114a.117.117 0 000 .235h.114v.242h-.114a.117.117 0 000 .235h.114v.1c0 .066.052.119.117.119a.117.117 0 00.117-.118v-.101h.114a.118.118 0 00.117-.117.118.118 0 00-.117-.118h-.114v-.242h.114a.118.118 0 00.117-.117.118.118 0 00-.117-.118h-.114v-.242h.114a.118.118 0 00.117-.117.118.118 0 00-.117-.118h-.114v-.242h.114a.118.118 0 00.117-.118.118.118 0 00-.117-.117h-.114v-.242h.114a.118.118 0 00.117-.118.118.118 0 00-.117-.117h-.114v-.242h.114a.118.118 0 00.117-.118.118.118 0 00-.117-.117h-.114v-.242h.114a.118.118 0 00.117-.118.118.118 0 00-.117-.117h-.114v-.33l1.26 1.814-.551 2.007h-1.653l-1.271-4.624h1.554c.06.145.177.259.323.317m2.385 2.622l.07.1.463.667a.117.117 0 01-.029.163.118.118 0 01-.163-.03l-.463-.665-.07-.103a.337.337 0 00.192-.132m-1.856-2.671l1.497 2.154a.33.33 0 00-.192.134l-1.533-2.205a.58.58 0 00.228-.083" fill="#fff"/><path d="M335.017 354.5a.335.335 0 11.17.647.335.335 0 01-.17-.647m.822-4.344l-.464 1.688h-1.815v.007a.353.353 0 11-.704 0v-.007h-1.807l-.464-1.688c-.022-.078.019-.142.09-.142h5.073c.072 0 .113.064.09.142" fill="#fff"/><path d="M355.345 345.216v-3.452" fill="none" stroke="#32336a" stroke-width=".198" stroke-miterlimit="10"/><path d="M363.812 352.33a8.42 8.42 0 10-16.841 0 8.42 8.42 0 0016.84 0" fill="#3e4372"/><path d="M355.348 344.606a7.75 7.75 0 00-7.749 7.749v.02a7.749 7.749 0 0015.498 0v-.02a7.75 7.75 0 00-7.749-7.75" fill="#32336a"/><path d="M355.482 358.792h-.268v.938h.268zM352.25 358l-.233-.134-.469.812.232.134zm-2.404-2.304l-.134-.232-.812.47.134.231zm-.93-3.464h-.938v.268h.938zm.794-2.965l.133-.232-.812-.469-.134.232zm2.303-2.403l.232-.134-.47-.812-.231.134zm3.196-.93h.268v-.937h-.268zm3.233.793l.232.134.469-.812-.232-.134zm2.403 2.303l.134.233.812-.47-.134-.231zm.93 3.464h.938v-.268h-.938zm-.794 2.966l-.134.232.812.469.134-.232zm-2.303 2.403l-.232.134.47.812.231-.134z" fill="#3e4372"/><path d="M352.733 348.669l-.065.179.201.043.022-.191zm-.244-.027l-.065.179.201.044.022-.191zm.098-1a2.212 2.212 0 00-.193.5l.258.07a1.77 1.77 0 01.13-.4l.09-.025.002-.006zm-.695-.103v.006l.124.076v.7h-.47l.052.307h.006l.06-.075.352.013v.152l-.082.07v.006l.36.035v-.257l.448.005.054-.256h-.502v-.86zm-.37.196c.063.114.111.266.138.393l-.056.077.002.006.308-.071a2.063 2.063 0 00-.147-.511zm1.996-.051l.002.005h.113a.86.86 0 01.314.684v.312l-.082.07v.006l.36.033v-.423c0-.413-.128-.668-.443-.932zm-.231.337v.668l-.082.07v.006l.36.034v-.84zm1.478-.454l.046.269h.008l.049-.061.494.014c.035.137.06.282.079.449H355l.047.27h.007l.05-.062c.155.012.372.02.608.02a4.88 4.88 0 00-.092-.672l.238.001.048-.228zm1.503.435l.05.306h.005l.056-.069c.378.021.758.026 1.137.026l.05-.263zm2.667-.517c-.063.09-.122.187-.176.284l-.01-.105-.823-.101-.004.356h.006l.071-.075.076.008.222.843-.063.084.003.004.36-.06-.232-.84.317.03a3.585 3.585 0 00-.114.253l.342.11.001-.004-.049-.09c.07-.16.151-.312.25-.455l.105-.006.002-.005z" fill="#9ba1a2"/><path d="M355.264 355.764a.34.34 0 01-.16-.07l-1.847-1.354c-.008 0-.014.006-.022.006h-1.842c-.124 0-.226-.125-.226-.28v-2.177c0-.154.102-.28.227-.28h1.842c.007 0 .013.006.019.006l1.852-1.353c.227-.167.411-.031.411.3l-.003 4.83c0 .25-.103.389-.25.372" fill="#fff"/><path d="M353.237 354.535v-3.114" fill="none" stroke="#32336a" stroke-width=".227" stroke-linecap="round" stroke-linejoin="round"/><path d="M356.306 353.736c.421-.42.421-1.1.002-1.52m.961 2.484a2.438 2.438 0 00.004-3.447m1.057 4.511a3.94 3.94 0 00.005-5.572" fill="none" stroke="#fff" stroke-width=".34" stroke-linecap="round" stroke-linejoin="round"/><path d="M128.389 463.45a8.42 8.42 0 10-16.84.001 8.42 8.42 0 0016.84 0" fill="#3e4372"/><path d="M119.925 455.727a7.749 7.749 0 00-7.749 7.749v.02a7.749 7.749 0 0015.498 0v-.02a7.75 7.75 0 00-7.749-7.75" fill="#32336a"/><path d="M120.099 469.913h-.268v.938h.268zm-3.249-.8l-.232-.134-.469.812.232.134zm-2.413-2.318l-.134-.232-.812.469.134.232zm-.931-3.483h-.938v.268h.938zm.801-2.98l.134-.232-.812-.47-.134.233zm2.318-2.413l.232-.134-.469-.812-.232.134zm3.215-.931h.268v-.938h-.268zm3.248.801l.232.134.47-.812-.233-.134zm2.413 2.318l.134.232.812-.469-.134-.232zm.931 3.482h.938v-.268h-.938zm-.802 2.981l-.133.232.812.469.134-.232zm-2.317 2.413l-.232.134.469.812.232-.134z" fill="#3e4372"/><path d="M123.554 466.88l-2.727-1.13a.35.35 0 00-.571-.122.348.348 0 00.388.563l2.727 1.13a.213.213 0 00.278-.116l.02-.048a.213.213 0 00-.115-.278m-1.401-1.977c-.6-.19-1.394-.296-2.238-.296-.844 0-1.638.105-2.238.296-.831.263-1.005.595-1.005.827 0 .167.09.386.452.594l.335-.139c-.324-.14-.515-.306-.515-.455 0-.19.312-.408.815-.568.574-.182 1.34-.282 2.156-.282.816 0 1.582.1 2.156.282.503.16.815.377.815.568 0 .154-.204.325-.548.47l.34.14c.385-.213.48-.439.48-.61 0-.232-.174-.564-1.005-.827m1.005-2.343c0-.232-.174-.564-1.005-.828a6.011 6.011 0 00-.98-.212v2.95c.385.052.74.127 1.046.225.407.13.71.29.9.477l.039.04zm-2.258-1.073a9.477 9.477 0 00-.985-.05c-.332 0-.657.016-.966.048v2.951a9.737 9.737 0 011.95.002zm-2.223.03c-.37.05-.708.123-1 .215-.831.264-1.005.596-1.005.828v2.652l.038-.04c.19-.188.494-.348.9-.477a6.295 6.295 0 011.067-.228zm-2.583 5.641l.02.048a.212.212 0 00.278.115l2.728-1.13a.348.348 0 10-.183-.441l-2.728 1.13a.213.213 0 00-.115.278m3.82-.306c.562 0 1.1-.046 1.575-.133l-.487-.202a9.19 9.19 0 01-2.225-.007l-.482.2a8.746 8.746 0 001.62.142" fill="#fff"/><path d="M115.698 458.8l.002.005h.113a.86.86 0 01.314.684v.312l-.082.07v.006l.361.033v-.423c0-.413-.129-.668-.444-.932zm-.23.337v.668l-.083.07v.006l.361.034v-.84zm2.581.633l-.063.18.199.042.024-.19zm-.115-1.165c-.14.11-.267.241-.382.377a1.917 1.917 0 00-.486-.383l-.203.28.005.003.104-.014c.288.155.487.374.577.692h-.526l.052.312h.007l.06-.073c.212.014.422.021.635.021l-.037.102.2.043.023-.19-.088-.019a1.363 1.363 0 00-.235-.66l.127.073c.086-.109.18-.214.284-.306h.12l.003-.006zm1.598-.005c-.063.09-.122.188-.176.285l-.011-.105-.822-.101-.004.356h.006l.07-.075.077.008.222.843-.063.084.003.004.359-.06-.231-.84.317.03a3.585 3.585 0 00-.114.253l.342.11v-.004l-.048-.09c.07-.16.15-.312.25-.455l.105-.006v-.005zm.822.07v.616l-.283-.06v.345l.006.002.071-.063.206.046v.232l-.082.07v.006l.361.035v-.283l.66.125c0-.244-.022-.499-.125-.702l-.337.121v.006l.11.043c.03.06.05.142.061.217l-.369-.079v-.425h.548l.06.092h.004l.067-.345zm1.843.548l-.139.435.252.026.076-.296.084-.035v-.007zm-.183-.383l.006.006.1-.009c.233.167.37.345.443.587l-.049.082.005.007.304-.083c-.106-.383-.276-.61-.602-.836zm-.156.304l-.157.446.252.025.093-.306.083-.035.002-.007zm1.617-.503v1.183l-.082.069v.007l.361.034v-.528l.095.125c.16-.086.337-.151.511-.197l.111.045.006-.005-.134-.328c-.2.067-.4.14-.589.236v-.703z" fill="#9ba1a2"/><path d="M347.074 427.02h-.17v.695h.17zm0-1.39h-.17v.695h.17zm0-1.39h-.17v.695h.17zm0-1.39h-.17v.695h.17zm0-1.39h-.17v.695h.17zm0-1.39h-.17v.695h.17zm0-1.39h-.17v.695h.17zm0-1.39h-.17v.695h.17zm0-1.39h-.17v.695h.17zm0-1.39h-.17v.695h.17zm0-1.389h-.17v.695h.17zm-13.899 14.423h-.695v.171h.695zm1.39 0h-.695v.171h.695zm1.39 0h-.695v.171h.695zm1.39 0h-.695v.171h.695zm1.39 0h-.695v.171h.695zm1.39 0h-.695v.171h.695zm1.39 0h-.695v.171h.695zm1.39 0h-.695v.171h.695zm1.389 0h-.695v.171h.695zm1.391 0h-.695v.171h.695z" fill="#32336a"/><path d="M347.074 427.544h-.695v.171h.695zm-13.899-14.423h-.695v.171h.695zm1.39 0h-.695v.171h.695zm1.39 0h-.695v.171h.695zm1.39 0h-.695v.171h.695zm1.39 0h-.695v.171h.695zm1.39 0h-.695v.171h.695zm1.39 0h-.695v.171h.695zm1.39 0h-.695v.171h.695zm1.389 0h-.695v.171h.695zm1.391 0h-.695v.171h.695zm1.389 0h-.695v.171h.695zm-14.423 13.899h-.17v.695h.17zm0-1.39h-.17v.695h.17zm0-1.39h-.17v.695h.17zm0-1.39h-.17v.695h.17zm0-1.39h-.17v.695h.17zm0-1.39h-.17v.695h.17zm0-1.39h-.17v.695h.17zm0-1.39h-.17v.695h.17zm0-1.39h-.17v.695h.17zm0-1.39h-.17v.695h.17z" fill="#32336a"/><path d="M332.651 413.121h-.17v.695h.17zm-2.697 13.899h-.171v.695h.171zm0-1.39h-.171v.695h.171zm0-1.39h-.171v.695h.171zm0-1.39h-.171v.695h.171zm0-1.39h-.171v.695h.171zm0-1.39h-.171v.695h.171zm0-1.39h-.171v.695h.171zm0-1.39h-.171v.695h.171zm0-1.39h-.171v.695h.171zm0-1.39h-.171v.695h.171zm0-1.389h-.171v.695h.171zm-13.899 14.423h-.695v.171h.695zm1.39 0h-.695v.171h.695zm1.39 0h-.695v.171h.695zm1.39 0h-.695v.171h.695zm1.39 0h-.695v.171h.695zm1.39 0h-.695v.171h.695zm1.389 0h-.695v.171h.695zm1.39 0h-.695v.171h.695zm1.39 0h-.695v.171h.695zm1.39 0h-.695v.171h.695z" fill="#32336a"/><path d="M329.954 427.544h-.695v.171h.695zm-13.899-14.423h-.695v.171h.695zm1.39 0h-.695v.171h.695zm1.39 0h-.695v.171h.695zm1.39 0h-.695v.171h.695zm1.39 0h-.695v.171h.695zm1.39 0h-.695v.171h.695zm1.389 0h-.695v.171h.695zm1.39 0h-.695v.171h.695zm1.39 0h-.695v.171h.695zm1.39 0h-.695v.171h.695zm1.39 0h-.695v.171h.695zm-14.423 13.899h-.17v.695h.17zm0-1.39h-.17v.695h.17zm0-1.39h-.17v.695h.17zm0-1.39h-.17v.695h.17zm0-1.39h-.17v.695h.17zm0-1.39h-.17v.695h.17zm0-1.39h-.17v.695h.17zm0-1.39h-.17v.695h.17zm0-1.39h-.17v.695h.17zm0-1.39h-.17v.695h.17z" fill="#32336a"/><path d="M315.531 413.121h-.17v.695h.17zm-2.697 13.899h-.171v.695h.171zm0-1.39h-.171v.695h.171zm0-1.39h-.171v.695h.171zm0-1.39h-.171v.695h.171zm0-1.39h-.171v.695h.171zm0-1.39h-.171v.695h.171zm0-1.39h-.171v.695h.171zm0-1.39h-.171v.695h.171zm0-1.39h-.171v.695h.171zm0-1.39h-.171v.695h.171zm0-1.389h-.171v.695h.171zm-13.899 14.423h-.695v.171h.695zm1.39 0h-.695v.171h.695zm1.39 0h-.695v.171h.695zm1.39 0h-.695v.171h.695zm1.389 0h-.695v.171h.695zm1.39 0h-.695v.171h.695zm1.39 0h-.695v.171h.695zm1.39 0h-.695v.171h.695zm1.39 0h-.695v.171h.695zm1.39 0h-.695v.171h.695z" fill="#32336a"/><path d="M312.834 427.544h-.695v.171h.695zm-13.899-14.423h-.695v.171h.695zm1.39 0h-.695v.171h.695zm1.39 0h-.695v.171h.695zm1.39 0h-.695v.171h.695zm1.389 0h-.695v.171h.695zm1.39 0h-.695v.171h.695zm1.39 0h-.695v.171h.695zm1.39 0h-.695v.171h.695zm1.39 0h-.695v.171h.695zm1.39 0h-.695v.171h.695zm1.39 0h-.695v.171h.695zm-14.423 13.899h-.17v.695h.17zm0-1.39h-.17v.695h.17zm0-1.39h-.17v.695h.17zm0-1.39h-.17v.695h.17zm0-1.39h-.17v.695h.17zm0-1.39h-.17v.695h.17zm0-1.39h-.17v.695h.17zm0-1.39h-.17v.695h.17zm0-1.39h-.17v.695h.17zm0-1.39h-.17v.695h.17z" fill="#32336a"/><path d="M298.411 413.121h-.17v.695h.17zm-2.697 13.899h-.171v.695h.171zm0-1.39h-.171v.695h.171zm0-1.39h-.171v.695h.171zm0-1.39h-.171v.695h.171zm0-1.39h-.171v.695h.171zm0-1.39h-.171v.695h.171zm0-1.39h-.171v.695h.171zm0-1.39h-.171v.695h.171zm0-1.39h-.171v.695h.171zm0-1.39h-.171v.695h.171zm0-1.389h-.171v.695h.171zm-13.899 14.423h-.695v.171h.695zm1.39 0h-.695v.171h.695zm1.39 0h-.695v.171h.695zm1.39 0h-.695v.171h.695zm1.39 0h-.695v.171h.695zm1.389 0h-.695v.171h.695zm1.39 0h-.695v.171h.695zm1.39 0h-.695v.171h.695zm1.39 0h-.695v.171h.695zm1.39 0h-.695v.171h.695z" fill="#32336a"/><path d="M295.714 427.544h-.695v.171h.695zm-13.899-14.423h-.695v.171h.695zm1.39 0h-.695v.171h.695zm1.39 0h-.695v.171h.695zm1.39 0h-.695v.171h.695zm1.39 0h-.695v.171h.695zm1.389 0h-.695v.171h.695zm1.39 0h-.695v.171h.695zm1.39 0h-.695v.171h.695zm1.39 0h-.695v.171h.695zm1.39 0h-.695v.171h.695zm1.39 0h-.695v.171h.695zM281.29 427.02h-.171v.695h.171zm0-1.39h-.171v.695h.171zm0-1.39h-.171v.695h.171zm0-1.39h-.171v.695h.171zm0-1.39h-.171v.695h.171zm0-1.39h-.171v.695h.171zm0-1.39h-.171v.695h.171zm0-1.39h-.171v.695h.171zm0-1.39h-.171v.695h.171zm0-1.39h-.171v.695h.171z" fill="#32336a"/><path d="M281.29 413.121h-.171v.695h.171zm-2.696 13.899h-.17v.695h.17zm0-1.39h-.17v.695h.17zm0-1.39h-.17v.695h.17zm0-1.39h-.17v.695h.17zm0-1.39h-.17v.695h.17zm0-1.39h-.17v.695h.17zm0-1.39h-.17v.695h.17zm0-1.39h-.17v.695h.17zm0-1.39h-.17v.695h.17zm0-1.39h-.17v.695h.17zm0-1.389h-.17v.695h.17zm-13.899 14.423H264v.171h.695zm1.39 0h-.695v.171h.695zm1.389 0h-.695v.171h.695zm1.39 0h-.695v.171h.695zm1.39 0h-.695v.171h.695zm1.39 0h-.695v.171h.695zm1.39 0h-.695v.171h.695zm1.39 0h-.695v.171h.695zm1.39 0h-.695v.171h.695zm1.39 0h-.695v.171h.695z" fill="#32336a"/><path d="M278.594 427.544h-.695v.171h.695zm-13.899-14.423H264v.171h.695zm1.39 0h-.695v.171h.695zm1.389 0h-.695v.171h.695zm1.39 0h-.695v.171h.695zm1.39 0h-.695v.171h.695zm1.39 0h-.695v.171h.695zm1.39 0h-.695v.171h.695zm1.39 0h-.695v.171h.695zm1.39 0h-.695v.171h.695zm1.39 0h-.695v.171h.695zm1.39 0h-.695v.171h.695zM264.17 427.02h-.171v.695h.171zm0-1.39h-.171v.695h.171zm0-1.39h-.171v.695h.171zm0-1.39h-.171v.695h.171zm0-1.39h-.171v.695h.171zm0-1.39h-.171v.695h.171zm0-1.39h-.171v.695h.171zm0-1.39h-.171v.695h.171zm0-1.39h-.171v.695h.171zm0-1.39h-.171v.695h.171z" fill="#32336a"/><path d="M264.17 413.121h-.171v.695h.171zm-2.696 13.899h-.171v.695h.171zm0-1.39h-.171v.695h.171zm0-1.39h-.171v.695h.171zm0-1.39h-.171v.695h.171zm0-1.39h-.171v.695h.171zm0-1.39h-.171v.695h.171zm0-1.39h-.171v.695h.171zm0-1.39h-.171v.695h.171zm0-1.39h-.171v.695h.171zm0-1.39h-.171v.695h.171zm0-1.389h-.171v.695h.171zm-13.899 14.423h-.695v.171h.695zm1.389 0h-.695v.171h.695zm1.39 0h-.695v.171h.695zm1.39 0h-.695v.171h.695zm1.39 0h-.695v.171h.695zm1.39 0h-.695v.171h.695zm1.39 0h-.695v.171h.695zm1.39 0h-.695v.171h.695zm1.39 0h-.695v.171h.695zm1.39 0h-.695v.171h.695z" fill="#32336a"/><path d="M261.474 427.544h-.695v.171h.695zm-13.899-14.423h-.695v.171h.695zm1.389 0h-.695v.171h.695zm1.39 0h-.695v.171h.695zm1.39 0h-.695v.171h.695zm1.39 0h-.695v.171h.695zm1.39 0h-.695v.171h.695zm1.39 0h-.695v.171h.695zm1.39 0h-.695v.171h.695zm1.39 0h-.695v.171h.695zm1.39 0h-.695v.171h.695zm1.39 0h-.695v.171h.695zM247.05 427.02h-.171v.695h.171zm0-1.39h-.171v.695h.171zm0-1.39h-.171v.695h.171zm0-1.39h-.171v.695h.171zm0-1.39h-.171v.695h.171zm0-1.39h-.171v.695h.171zm0-1.39h-.171v.695h.171zm0-1.39h-.171v.695h.171zm0-1.39h-.171v.695h.171zm0-1.39h-.171v.695h.171z" fill="#32336a"/><path d="M247.05 413.121h-.171v.695h.171zm-2.696 13.899h-.171v.695h.171zm0-1.39h-.171v.695h.171zm0-1.39h-.171v.695h.171zm0-1.39h-.171v.695h.171zm0-1.39h-.171v.695h.171zm0-1.39h-.171v.695h.171zm0-1.39h-.171v.695h.171zm0-1.39h-.171v.695h.171zm0-1.39h-.171v.695h.171zm0-1.39h-.171v.695h.171zm0-1.389h-.171v.695h.171zm-13.9 14.423h-.695v.171h.695zm1.39 0h-.695v.171h.695zm1.39 0h-.695v.171h.695zm1.39 0h-.695v.171h.695zm1.39 0h-.695v.171h.695zm1.39 0h-.695v.171h.695zm1.39 0h-.695v.171h.695zm1.39 0h-.695v.171h.695zm1.39 0h-.695v.171h.695zm1.39 0h-.695v.171h.695z" fill="#32336a"/><path d="M244.354 427.544h-.695v.171h.695zm-13.9-14.423h-.695v.171h.695zm1.39 0h-.695v.171h.695zm1.39 0h-.695v.171h.695zm1.39 0h-.695v.171h.695zm1.39 0h-.695v.171h.695zm1.39 0h-.695v.171h.695zm1.39 0h-.695v.171h.695zm1.39 0h-.695v.171h.695zm1.39 0h-.695v.171h.695zm1.39 0h-.695v.171h.695zm1.39 0h-.695v.171h.695zM229.93 427.02h-.171v.695h.171zm0-1.39h-.171v.695h.171zm0-1.39h-.171v.695h.171zm0-1.39h-.171v.695h.171zm0-1.39h-.171v.695h.171zm0-1.39h-.171v.695h.171zm0-1.39h-.171v.695h.171zm0-1.39h-.171v.695h.171zm0-1.39h-.171v.695h.171zm0-1.39h-.171v.695h.171z" fill="#32336a"/><path d="M229.93 413.121h-.171v.695h.171zm134.264 13.899h-.17v.695h.17zm0-1.39h-.17v.695h.17zm0-1.39h-.17v.695h.17zm0-1.39h-.17v.695h.17zm0-1.39h-.17v.695h.17zm0-1.39h-.17v.695h.17zm0-1.39h-.17v.695h.17zm0-1.39h-.17v.695h.17zm0-1.39h-.17v.695h.17zm0-1.39h-.17v.695h.17zm0-1.389h-.17v.695h.17zm-13.899 14.423h-.695v.171h.695zm1.39 0h-.695v.171h.695zm1.39 0h-.695v.171h.695zm1.39 0h-.695v.171h.695zm1.39 0h-.695v.171h.695zm1.39 0h-.695v.171h.695zm1.39 0h-.695v.171h.695zm1.39 0h-.695v.171h.695zm1.39 0h-.695v.171h.695zm1.39 0h-.695v.171h.695z" fill="#32336a"/><path d="M364.194 427.544h-.695v.171h.695zm-13.899-14.423h-.695v.171h.695zm1.39 0h-.695v.171h.695zm1.39 0h-.695v.171h.695zm1.39 0h-.695v.171h.695zm1.39 0h-.695v.171h.695zm1.39 0h-.695v.171h.695zm1.39 0h-.695v.171h.695zm1.39 0h-.695v.171h.695zm1.39 0h-.695v.171h.695zm1.39 0h-.695v.171h.695zm1.389 0h-.695v.171h.695zm-14.423 13.899h-.17v.695h.17zm0-1.39h-.17v.695h.17zm0-1.39h-.17v.695h.17zm0-1.39h-.17v.695h.17zm0-1.39h-.17v.695h.17zm0-1.39h-.17v.695h.17zm0-1.39h-.17v.695h.17zm0-1.39h-.17v.695h.17zm0-1.39h-.17v.695h.17zm0-1.39h-.17v.695h.17z" fill="#32336a"/><path d="M349.771 413.121h-.17v.695h.17z" fill="#32336a"/><path d="M298.63 462.185a1.652 1.652 0 10-3.304 0 1.652 1.652 0 003.303 0m.001-20.943a1.652 1.652 0 10-3.304 0 1.652 1.652 0 003.303 0" fill="#cbd7db"/><path d="M113.773 336.182a.866.866 0 00-.331.069l.035.118a.702.702 0 01.3-.072c.135 0 .237.06.237.186 0 .113-.1.172-.27.24-.19.078-.286.174-.286.323 0 .207.195.295.364.295.1 0 .198-.016.278-.047l-.032-.115a.662.662 0 01-.247.048c-.106 0-.226-.041-.226-.172 0-.101.06-.155.233-.222.212-.082.323-.168.323-.342 0-.221-.193-.31-.378-.31m.887.762c-.173 0-.252-.136-.252-.327 0-.192.082-.33.251-.33.172 0 .251.138.251.33 0 .191-.079.327-.25.327m0-.762c-.239 0-.386.165-.386.435s.147.432.385.432c.236 0 .384-.162.384-.432s-.148-.435-.384-.435m1.093.019v.497c0 .152-.044.247-.194.247-.114 0-.226-.08-.226-.273v-.47h-.135v.829h.13v-.123h.002a.29.29 0 00.259.142c.187 0 .298-.12.298-.302v-.546zm.558-.306h-.139l.13.321-.319.814h.146l.246-.666h.003l.245.666h.14zm.94 1.427h.136V336.2h-.136zm.893-1.121v.497c0 .152-.044.247-.194.247-.114 0-.226-.08-.226-.273v-.47h-.135v.829h.13v-.123h.002a.29.29 0 00.259.142c.187 0 .298-.12.298-.302v-.546zm.597-.01c-.173 0-.2.082-.2.231v.503h-.15v.106h.15v.208h.132v-.208h.191v-.106h-.19v-.496c0-.112.011-.132.104-.132.036 0 .06.002.088.005v-.1a.843.843 0 00-.126-.012m.827.502c0 .158-.09.252-.222.252-.15 0-.232-.106-.247-.259h.469zm-.47-.112c.012-.177.12-.292.296-.292.076 0 .158.014.222.041l.023-.103a.676.676 0 00-.248-.043c-.275 0-.42.185-.42.432 0 .251.143.435.374.435.233 0 .344-.161.344-.406v-.064zm1.171.361a.464.464 0 01-.07.003c-.109 0-.197-.064-.197-.258v-.484h-.134v.828h.13v-.11h.001c.041.087.109.13.216.13.015 0 .037 0 .06-.003zm.593-.32h-.036c-.187 0-.364-.03-.364-.183 0-.086.045-.15.152-.15.165 0 .248.124.248.264zm.032-.42a.589.589 0 00-.019.125h-.003c-.043-.08-.13-.143-.265-.143-.137 0-.273.074-.273.249 0 .24.245.286.528.286v.024c0 .137-.064.203-.2.203a.54.54 0 01-.213-.05l-.029.107a.72.72 0 00.248.048c.203 0 .328-.097.328-.296v-.364c0-.053.005-.131.016-.188zm.84.708a.405.405 0 01-.163.035c-.186 0-.289-.146-.289-.33 0-.18.102-.327.289-.327a.4.4 0 01.166.035l.022-.105a.54.54 0 00-.19-.035c-.276 0-.422.186-.422.432 0 .251.161.435.421.435.076 0 .138-.01.195-.035zm.437-.718c-.172 0-.2.082-.2.231v.503h-.149v.106h.149v.208h.133v-.208h.191v-.106h-.191v-.496c0-.112.012-.132.105-.132.036 0 .06.002.088.005v-.1a.843.843 0 00-.126-.012m.301.841h.134v-.829h-.134zm-.004.312h.143v-.137h-.143zm.709-1.142h-.155l-.31.83h.145l.243-.714h.004l.244.714h.141zm.915.491c0 .158-.09.252-.223.252-.148 0-.232-.106-.246-.259h.468zm-.469-.112c.01-.177.118-.292.294-.292.076 0 .158.014.222.041l.023-.103a.672.672 0 00-.248-.043c-.275 0-.42.185-.42.432 0 .251.143.435.374.435.233 0 .344-.161.344-.406v-.064zm1.149-.379v1.122h.615v-.114h-.478v-.372h.442v-.115h-.442v-.405h.492v-.115zm1.33 0v.497c0 .152-.045.247-.195.247-.114 0-.226-.08-.226-.273v-.47h-.134v.829h.13v-.123h.001a.29.29 0 00.26.142c.186 0 .297-.12.297-.302v-.546zm.566-.01c-.171 0-.2.082-.2.231v.503h-.148v.106h.148v.208h.134v-.208h.19v-.106h-.19v-.496c0-.112.011-.132.104-.132.037 0 .06.002.089.005v-.1a.843.843 0 00-.127-.012m.798.502c0 .158-.09.252-.222.252-.148 0-.232-.106-.246-.259h.468zm-.468-.112c.01-.177.118-.292.294-.292.076 0 .158.014.222.041l.023-.103a.672.672 0 00-.248-.043c-.275 0-.42.185-.42.432 0 .251.143.435.374.435.233 0 .344-.161.344-.406v-.064zm1.14.361a.464.464 0 01-.07.003c-.109 0-.197-.064-.197-.258v-.484h-.134v.828h.13v-.11h.001c.041.087.109.13.216.13.015 0 .036 0 .06-.003zm.394-.75c-.173 0-.2.082-.2.231v.503h-.15v.106h.15v.208h.132v-.208h.191v-.106h-.19v-.496c0-.112.011-.132.104-.132.036 0 .06.002.088.005v-.1a.843.843 0 00-.126-.012m.72.431h-.036c-.187 0-.364-.03-.364-.183 0-.086.046-.15.152-.15.165 0 .248.124.248.264zm.032-.42a.589.589 0 00-.02.125h-.002c-.043-.08-.13-.143-.265-.143-.137 0-.273.074-.273.249 0 .24.245.286.528.286v.024c0 .137-.064.203-.2.203a.54.54 0 01-.213-.05l-.03.107a.72.72 0 00.249.048c.203 0 .328-.097.328-.296v-.364c0-.053.005-.131.016-.188zm.296.83h.134v-.829h-.134zm-.005.312h.143v-.137h-.143zm.888-1.142v.497c0 .152-.044.247-.194.247-.114 0-.226-.08-.226-.273v-.47h-.134v.829h.129v-.123h.002a.29.29 0 00.26.142c.186 0 .297-.12.297-.302v-.546zm1.339 0v.497c0 .146-.04.247-.187.247-.102 0-.203-.067-.203-.232v-.511h-.133v.51c0 .147-.033.233-.181.233-.11 0-.211-.08-.211-.258v-.485h-.134v.829h.129v-.127h.002a.267.267 0 00.249.146c.126 0 .208-.048.247-.134h.005c.058.097.154.134.262.134.193 0 .289-.126.289-.302v-.546zm.903.491c0 .158-.09.252-.222.252-.148 0-.232-.106-.246-.259h.468zm-.468-.112c.01-.177.118-.292.294-.292.076 0 .158.014.222.041l.023-.103a.672.672 0 00-.248-.043c-.275 0-.42.185-.42.432 0 .251.143.435.374.435.233 0 .344-.161.344-.406v-.064zm1.322-.379v.497c0 .152-.044.247-.194.247-.114 0-.226-.08-.226-.273v-.47h-.134v.829h.13v-.123h.001a.29.29 0 00.26.142c.186 0 .297-.12.297-.302v-.546zm.597-.01c-.172 0-.2.082-.2.231v.503h-.15v.106h.15v.208h.133v-.208h.19v-.106h-.19v-.496c0-.112.012-.132.105-.132.036 0 .06.002.088.005v-.1a.843.843 0 00-.126-.012m.653 1.132h.136V336.2h-.136zm.894-1.121v.497c0 .152-.044.247-.194.247-.114 0-.226-.08-.226-.273v-.47h-.134v.829h.129v-.123h.002a.29.29 0 00.26.142c.186 0 .297-.12.297-.302v-.546zm.863.708a.41.41 0 01-.164.035c-.185 0-.288-.146-.288-.33 0-.18.102-.327.288-.327.06 0 .107.01.167.035l.022-.105a.54.54 0 00-.19-.035c-.276 0-.422.186-.422.432 0 .251.16.435.42.435.077 0 .139-.01.196-.035zm.199-.548h.158v-.159h-.158zm-26.669.577c0 .307.245.557.547.557.301 0 .546-.25.546-.557a.552.552 0 00-.546-.557.553.553 0 00-.547.557m-.454 0c0-.56.44-.996 1.001-.996.561 0 1 .437 1 .996a.987.987 0 01-1 .996.988.988 0 01-1-.996m-2.112-.557a.553.553 0 00-.547.556c0 .308.246.558.547.558.3 0 .547-.25.547-.558a.553.553 0 00-.547-.557m0 1.554c-.561 0-1-.438-1-.997a.988.988 0 011-.996c.56 0 1 .438 1 .996a.988.988 0 01-1 .997m-1.708-.547h.517v.463h-.517v.623h-.472v-1.56c0-.179.036-.34.092-.47a.977.977 0 01.588-.523l.234.396c-.09.044-.296.141-.389.335a.708.708 0 00-.052.274v.151zm2.957 1.084c0-.167.138-.303.307-.303.169 0 .307.136.307.302a.31.31 0 01-.307.312.31.31 0 01-.307-.312m.076-.62h.463v-1.861h-.463zm2.747-1.729h-.066v.022h.156v-.022h-.065v-.176h-.025zm.195-.177l-.054.161v-.16h-.026v.198h.036l.057-.169.057.17h.036v-.2h-.026v.161l-.054-.16z" fill="#fff"/></g><g clip-path="url(#b)" transform="matrix(1.33333 0 0 -1.33333 -224.397 400.93)"><path d="M28.346 632.126H0m782.362 0h28.346M28.346 36.85H0m782.362 0h28.346M36.85 640.63v28.346m0-640.63V0m737.008 640.63v28.346m0-640.63V0" fill="none" stroke="#fff" stroke-width="1.417" stroke-miterlimit="10"/></g><path d="M-175.264-453.244h-37.794m1020.471 0h37.795M-175.264 363.135h-37.794m1020.471 0h37.795m-1031.81-805.04V-479.7m0 831.496v37.795M818.752-441.905V-479.7m0 831.496v37.795" fill="none" stroke="#fff" stroke-width="1.889" stroke-miterlimit="10"/><g clip-path="url(#c)" transform="matrix(1.33333 0 0 -1.33333 -224.397 400.93)"><path d="M28.346 632.126H0m782.362 0h28.346M28.346 36.85H0m782.362 0h28.346M36.85 640.63v28.346m0-640.63V0m737.008 640.63v28.346m0-640.63V0" fill="none" stroke="#000" stroke-width=".283" stroke-miterlimit="10"/></g><path d="M-175.264-453.244h-37.794m1020.471 0h37.795M-175.264 363.135h-37.794m1020.471 0h37.795m-1031.81-805.04V-479.7m0 831.496v37.795M818.752-441.905V-479.7m0 831.496v37.795" fill="none" stroke="#000" stroke-width=".377" stroke-miterlimit="10"/><g clip-path="url(#d)" transform="matrix(1.33333 0 0 -1.33333 -224.397 400.93)" fill="none" stroke-miterlimit="10"><path d="M412.44 14.173a7.087 7.087 0 10-14.173 0 7.087 7.087 0 0014.174 0zm-35.432 0H433.7m-28.346 14.173V0" stroke="#fff" stroke-width="1.417"/><path d="M412.44 14.173a7.087 7.087 0 10-14.173 0 7.087 7.087 0 0014.174 0zm-35.432 0H433.7m-28.346 14.173V0" stroke="#000" stroke-width=".283"/></g></svg>