<svg xmlns="http://www.w3.org/2000/svg" viewBox="0 0 75 75"><defs><style>.cls-3{fill:#675642}</style></defs><g id="レイヤー_2" data-name="レイヤー 2"><g id="レイヤー_2-2" data-name="レイヤー 2"><path d="M0 0h66.518A8.482 8.482 0 0175 8.482v58.036A8.482 8.482 0 0166.518 75H0V0z" transform="rotate(90 37.5 37.5)" fill="none"/><path d="M5 5h65v61.518A3.482 3.482 0 0166.518 70H8.482A3.482 3.482 0 015 66.518V5z" fill="#fff"/><path class="cls-3" d="M66.518 70.125H8.482a3.611 3.611 0 01-3.607-3.607V4.875h65.25v61.643a3.611 3.611 0 01-3.607 3.607zm-61.393-65v61.393a3.36 3.36 0 003.357 3.357h58.036a3.36 3.36 0 003.357-3.357V5.125z"/><path class="cls-3" d="M48.902 39.197l-10.45 15.198a1.156 1.156 0 01-1.905 0L26.098 39.197a1.156 1.156 0 01.953-1.812h20.898a1.156 1.156 0 01.953 1.812z"/><rect class="cls-3" x="32.901" y="20.104" width="9.198" height="21.605" rx="1.156"/><path class="cls-3" d="M30.358 15.846l-.17-.65c1.512-.122 2.2-.522 2.2-1.251a.67.67 0 00-.746-.724 14.292 14.292 0 00-1.992.213l-.138-.682a15.771 15.771 0 012.167-.213 1.304 1.304 0 011.46 1.411c0 1.13-1.109 1.784-2.78 1.896zm1.944-3.61a9.372 9.372 0 00-2.04-.49l.16-.645a9.782 9.782 0 012.099.5zm5.053 3.562a1.45 1.45 0 01-1.63-1.661v-2.892h.747v2.828c0 .766.303 1.017.916 1.017a1.538 1.538 0 001.379-1.134l.59.404a2.177 2.177 0 01-2.002 1.438zm5.507-.038a5.552 5.552 0 01-.9-.063v-.607a7.011 7.011 0 00.852.048c1.028 0 1.518-.341 1.518-.826 0-.404-.33-.666-.932-.666a2.025 2.025 0 00-.825.166 3.988 3.988 0 00-1.156.777l-.421-.468a37.232 37.232 0 002.253-2.061h-1.667v-.623h2.727v.516c-.458.432-.916.852-1.289 1.198a1.626 1.626 0 01.511-.085c1.018 0 1.497.517 1.497 1.246 0 .842-.735 1.449-2.168 1.449zM14.45 63.686l.112.915-.286.029-.111-.921-1.182.095-.022-.25 1.174-.091-.082-.702-1 .078-.02-.25.99-.074-.088-.726.286-.026.088.732.984-.076.017.243-.971.075.082.702 1.07-.081.016.243zm1.342.744v-.245h1.47l.094-1.202h-1.26v-.246h1.56l-.122 1.448h.558v.246zm2.492-.978v-.295h2.578v.295zm3.259 1.107l-.138-.25a1.993 1.993 0 001.673-1.791h-1.945v-.266h2.3a2.378 2.378 0 01-1.89 2.307zm1.781-2.37a1.943 1.943 0 00-.236-.502l.161-.078a2.05 2.05 0 01.256.508zm.456-.022a1.808 1.808 0 00-.233-.512l.164-.082a2.08 2.08 0 01.249.522zm1.291.387h.221c.481 0 .655.21.655.705a2.27 2.27 0 01-.21 1.073.422.422 0 01-.435.24 1.231 1.231 0 01-.463-.1l.033-.229a1.149 1.149 0 00.394.085.236.236 0 00.23-.111 1.956 1.956 0 00.183-.958c0-.331-.112-.469-.427-.469-.068 0-.148 0-.232.003a6.232 6.232 0 01-.693 1.781l-.233-.13a5.563 5.563 0 00.65-1.644c-.2.003-.42.013-.65.022l-.013-.235c.263-.014.502-.02.715-.026a6.15 6.15 0 00.105-.729h.279a6.826 6.826 0 01-.109.722zm1.208-.223a2.075 2.075 0 00-.236-.542l.16-.082a2.072 2.072 0 01.256.552zm.288 1.577a2.307 2.307 0 00-.442-1.37l.213-.132a2.528 2.528 0 01.509 1.502zm.142-1.685a1.994 1.994 0 00-.24-.529l.16-.085a2.165 2.165 0 01.257.537zm1.173 2.483h-.266v-1.453a4.536 4.536 0 01-.302.311l-.154-.229a3.038 3.038 0 00.755-1.008l.263.075a3.457 3.457 0 01-.296.513zm.207-2.943a3.57 3.57 0 01-.71.824l-.186-.178a2.801 2.801 0 00.64-.724zm2.168 2.704l-.167.235a3.302 3.302 0 01-.98-.353 3.49 3.49 0 01-.959.353l-.164-.21a3.1 3.1 0 00.906-.288 1.802 1.802 0 01-.372-.354 3.21 3.21 0 01-.393.314l-.187-.16a2.448 2.448 0 00.768-.772c-.23.014-.446.024-.613.03l-.046-.25c.15 0 .35-.005.57-.012.066-.063.131-.128.193-.193a3.727 3.727 0 00-.63-.49l.159-.17c.068.042.134.081.196.124a4.552 4.552 0 00.434-.584l.258.116a5.954 5.954 0 01-.502.6c.1.072.187.144.266.213a6.293 6.293 0 00.538-.646l.256.125a11.148 11.148 0 01-.827.895l.765-.03a3.81 3.81 0 00-.252-.308l.212-.122a3.294 3.294 0 01.555.759l-.246.124a2.66 2.66 0 00-.128-.242c-.246.012-.552.032-.85.046a1.938 1.938 0 01-.148.232h.808l.193.066a1.517 1.517 0 01-.521.675 3.063 3.063 0 00.908.277zm-1.132-.4a1.331 1.331 0 00.384-.408h-.804l-.006.007a1.623 1.623 0 00.426.4zm2.439.528a4.38 4.38 0 01-.534-.033v-.24a4.69 4.69 0 00.518.03c.696 0 1.04-.247 1.04-.608 0-.298-.252-.495-.662-.495a1.43 1.43 0 00-.65.157 2.656 2.656 0 00-.636.44l-.168-.184c.472-.384 1.122-1 1.558-1.424h-1.217v-.245h1.63v.206c-.347.325-.714.676-1.016.948a1.3 1.3 0 01.548-.127c.57 0 .882.298.882.724 0 .5-.439.85-1.293.85zm2.192-.089a5.649 5.649 0 01-.109-1.188 8.403 8.403 0 01.106-1.286h.275a9.591 9.591 0 00-.104 1.28 5.815 5.815 0 00.104 1.15zm1.68-.092c-.785 0-1.08-.157-1.08-.466a.967.967 0 01.273-.597l.226.108a.755.755 0 00-.229.453c0 .17.223.252.81.252.158 0 .328-.003.508-.02v.25c-.176.016-.347.02-.508.02zm-1.01-1.857v-.246h1.499v.246zm4.989.463v.289h-3.016v-.29zm.393 1.38v-.268h1.874v-1.627h-1.87v-.267h2.165V64.4zm4.404.149A7.1 7.1 0 0042.87 63.4l.174-.204a7.112 7.112 0 01.695.516 2.886 2.886 0 001.067-1.293h-2.26v-.256h2.673a3.417 3.417 0 01-1.266 1.732c.174.158.338.312.476.457zm1.204-.057l-.236-.167a3.417 3.417 0 00.85-2.165h.291a3.905 3.905 0 01-.905 2.332zm2.45 0a3.9 3.9 0 01-.925-2.332h.292a3.322 3.322 0 00.876 2.13zm-.236-2.079a2.133 2.133 0 00-.235-.538l.16-.082a2.303 2.303 0 01.253.548zm.407-.158a2.058 2.058 0 00-.24-.528l.161-.082a2.105 2.105 0 01.256.535zm.669 1.351a5.33 5.33 0 00-.296-.852l.227-.092a6.736 6.736 0 01.321.853zm.22 1.021l-.138-.223a1.73 1.73 0 001.355-1.775h.27a1.992 1.992 0 01-1.487 1.998zm.44-1.118a4.835 4.835 0 00-.286-.85l.23-.093a6.534 6.534 0 01.308.854zm2.614-1.247h1.286a2.79 2.79 0 01-1.729 2.345l-.141-.222a2.361 2.361 0 001.505-1.87h-1.055a3.901 3.901 0 01-.788.983l-.206-.186a3.513 3.513 0 00.984-1.434h.298a3.5 3.5 0 01-.155.384zM54.81 64a.623.623 0 11.316-1.154v-.358h-1.568v-.25h1.568v-.485h.288v.485h.984v.25h-.984v.889c0 .748-.184 1.182-1.17 1.306l-.086-.233c.555-.065.804-.2.905-.509a.545.545 0 01-.252.059zm0-1.02c-.2 0-.324.16-.324.397s.124.394.325.394c.197 0 .315-.174.315-.394 0-.227-.115-.397-.315-.397zm3.128 1.657c-.466 0-.758-.194-.758-.476 0-.23.213-.41.534-.41a.718.718 0 01.696.571.597.597 0 00.426-.545c0-.32-.266-.538-.748-.538a1.343 1.343 0 00-.58.125 3.679 3.679 0 00-.768.56l-.17-.202c.222-.181.547-.437.767-.64.233-.213.663-.603.915-.856h-1.246v-.247h1.666v.217c-.295.283-.741.679-.958.889a1.27 1.27 0 01.436-.078c.62 0 .955.307.955.764 0 .508-.482.866-1.167.866zm-.234-.666c-.186 0-.285.086-.285.2 0 .147.18.24.49.24a1.347 1.347 0 00.265-.023.504.504 0 00-.47-.417zm4.14.509a2.785 2.785 0 00-.836-.493c-.01.463-.154.643-.588.643-.436 0-.725-.213-.725-.482 0-.282.292-.489.778-.489a2.303 2.303 0 01.258.017c-.01-.387-.035-1.05-.035-1.883h.276c0 .266.003.515.006.744h1.01v.246h-1.007c.01.398.02.722.023.951a2.84 2.84 0 011 .542zm-1.394-.585c-.318 0-.502.102-.502.256 0 .148.177.24.45.24.265 0 .333-.092.337-.473a1.736 1.736 0 00-.285-.022zm-33.143-3.354l-.045-.174c.675-.056.982-.271.982-.612a.357.357 0 00-.392-.379 6.154 6.154 0 00-.848.093l-.036-.184a6.484 6.484 0 01.894-.092.529.529 0 01.585.562c0 .447-.415.734-1.14.786zm.84-1.59a4.037 4.037 0 00-.851-.215l.043-.174a4.396 4.396 0 01.867.217zm1.515 1.561c-.392 0-.625-.181-.625-.644v-1.244h.201v1.23c0 .355.149.468.436.468a.736.736 0 00.666-.515l.158.109a.913.913 0 01-.836.596z"/></g></g></svg>