<svg xmlns="http://www.w3.org/2000/svg" viewBox="0 0 75 75"><defs><style>.cls-3{fill:#fff}</style></defs><g id="レイヤー_2" data-name="レイヤー 2"><g id="レイヤー_2-2" data-name="レイヤー 2"><g id="CIRCLE"><circle cx="37.5" cy="37.5" r="37.5" fill="none"/><path d="M5 37.5A32.5 32.5 0 1137.5 70 32.5 32.5 0 015 37.5z" fill="#c7d932"/></g><path class="cls-3" d="M23.503 16.167a4.702 4.702 0 001.57 1.086l-.39.564a5.419 5.419 0 01-1.583-1.176 4.997 4.997 0 01-1.759 1.18l-.346-.521a4.186 4.186 0 002.513-2.527H21.45v-.564h2.926a4.862 4.862 0 01-.873 1.958zm4.711 1.593c-.27 0-.616-.005-.792-.014-.815-.052-1.161-.413-1.161-1.147v-2.642h.668v1.451a8.633 8.633 0 002.158-.668l.265.574a11.756 11.756 0 01-2.423.668v.536c0 .431.081.545.54.597.12.014.432.029.617.033.176 0 .365 0 .574-.009.256-.005.512-.024.75-.043v.626a13.96 13.96 0 01-1.196.038zm1-3.12a.571.571 0 11.574-.573.57.57 0 01-.573.573zm.006-.853a.282.282 0 10.28.284.282.282 0 00-.28-.284zm1.415 2.442v-.669H34.4v.669zm5.579 1.607v-4.059h.654v1.37a11.616 11.616 0 012.157 1.015l-.36.579a8.859 8.859 0 00-1.797-.91v2.005zm1.991-3.03a2.975 2.975 0 00-.355-.801l.36-.18a3.144 3.144 0 01.398.81zm.678-.275a2.693 2.693 0 00-.37-.763l.36-.195a3.196 3.196 0 01.404.792zm3.677 1.74l-.322-.502a1.404 1.404 0 00.958-1.09h-3.068v-.565h3.884a2.419 2.419 0 01-1.451 2.157zm-1.744 1.58l-.332-.513c.915-.341 1.071-.801 1.071-1.707v-.645h.665v.65a2.014 2.014 0 01-1.404 2.214zm4.81-1.466a7.714 7.714 0 00-.412-1.242l.512-.2a8.325 8.325 0 01.474 1.234zm.446 1.498l-.308-.498a2.374 2.374 0 001.892-2.484h.616a2.97 2.97 0 01-2.2 2.982zm.527-1.65a7.096 7.096 0 00-.408-1.237l.516-.204a8.24 8.24 0 01.465 1.233zm3.781 1.56l-.313-.573a2.536 2.536 0 002.257-2.29h-2.631v-.598h3.153a.564.564 0 11.44.213.498.498 0 01-.17-.028c-.247 1.802-1.024 2.907-2.736 3.276zm2.911-4.087a.277.277 0 10.276.275.276.276 0 00-.276-.275z"/><rect class="cls-3" x="23.478" y="52.109" width="28.044" height="1.898" rx=".949"/><path class="cls-3" d="M48.711 30.479v5.984L37.5 29.219l-11.211 7.244v-5.984L37.5 23.235l11.211 7.244z"/><path class="cls-3" d="M37.5 35.203l11.211 7.243v5.984L37.5 41.187 26.289 48.43v-5.984L37.5 35.203zm1.733 30.24a.642.642 0 11.642.655.649.649 0 01-.642-.655m-.533 0a1.175 1.175 0 101.175-1.17 1.16 1.16 0 00-1.175 1.17m-2.48.655a.655.655 0 11.641-.655.65.65 0 01-.642.655m0-1.825a1.17 1.17 0 101.175 1.17 1.16 1.16 0 00-1.175-1.17m-2.005.642h.608v-.543h-.608v-.732h-.554v1.831a1.412 1.412 0 00.107.553 1.147 1.147 0 00.692.614l.274-.465a.922.922 0 01-.456-.393.832.832 0 01-.062-.322v-.178zm3.472-1.272a.36.36 0 00.722 0 .36.36 0 10-.722 0m.089.729h.543v2.186h-.543zm3.212 2.035h-.077v-.026h.182v.026h-.076v.206h-.029v-.206zm.229.206l-.064-.189v.189h-.03v-.232h.042l.067.197.067-.197h.042v.232h-.03v-.189l-.064.189h-.03z"/></g></g></svg>