<svg xmlns="http://www.w3.org/2000/svg" viewBox="0 0 555 190"><defs><style>.cls-1{fill:#fff}.cls-2{fill:#bfd833}.cls-3{fill:#e5e5e6}.cls-4{fill:#9e9e9f}.cls-5{fill:#c8c9ca}.cls-6{fill:#231815}.cls-7{fill:none}</style></defs><g id="レイヤー_2" data-name="レイヤー 2"><g id="レイヤー_1-2" data-name="レイヤー 1"><path class="cls-1" d="M0 0h555v190H0z"/><path class="cls-2" d="M480.08 170.453H316.233a.75.75 0 010-1.5h163.849a.75.75 0 010 1.5z"/><path class="cls-1" d="M449.713 44.051a2.977 2.977 0 01-2.977 2.977h-5.529v.962h5.925v18.17a2.55 2.55 0 01-2.55 2.55l-3.375.088v19.045l.154.13.157.003a2.146 2.146 0 011.152.362l2.918 1.969a9.355 9.355 0 014.125 7.754v5.078a9.355 9.355 0 01-4.125 7.754l-2.918 1.97a2.139 2.139 0 01-1.152.36l-.157.003-.154.129.001 7.597a1.702 1.702 0 011.276 1.647v9.834l2.098.057a2.55 2.55 0 012.55 2.552v18.169h-5.925v.962h5.529a2.977 2.977 0 110 5.953h-5.529v5.528l-5.102 2.425v.127h-79.512l-2.125-2.125v-8.398h-2.34a1.276 1.276 0 00-1.275 1.275v2.975h-2.977a1.273 1.273 0 01-1.275-1.274v-18.71a1.274 1.274 0 011.275-1.275l6.592-.171v-16.58l-6.592-.173a1.274 1.274 0 01-1.275-1.274V78.723a1.276 1.276 0 011.275-1.277l6.592-.173V60.698l-6.592-.173a1.276 1.276 0 01-1.275-1.276v-18.71a1.275 1.275 0 011.275-1.275h2.977v2.977a1.276 1.276 0 001.276 1.275h2.339v-8.398l2.125-2.125h79.512v.127l5.102 2.422v5.533h5.529a2.977 2.977 0 012.977 2.976z"/><path class="cls-3" d="M441.207 113.355l.154-.129.157-.002a2.139 2.139 0 001.152-.362l2.918-1.969a9.355 9.355 0 004.125-7.754v-5.078a9.355 9.355 0 00-4.125-7.754l-2.918-1.969a2.146 2.146 0 00-1.153-.362l-.156-.004-.154-.129z"/><path class="cls-1" d="M441.207 87.843l2.066 1.734a8.507 8.507 0 013.037 6.514v9.018a8.509 8.509 0 01-3.037 6.515l-2.066 1.731z"/><path class="cls-4" d="M436.667 32.993v135.213a.563.563 0 01-1.125 0V32.993a.563.563 0 011.125 0zm-27.212 0v135.213a.563.563 0 01-1.125 0V32.993a.563.563 0 111.125 0zm-40.819 0v135.213a.563.563 0 01-1.125 0V32.993a.563.563 0 011.125 0zm-11.481 0v135.213a.563.563 0 01-1.125 0V32.993a.563.563 0 011.125 0zm-2.125 2.125v130.963a.563.563 0 01-1.125 0V35.118a.563.563 0 011.125 0zm-2.526 42.328v14.33a.375.375 0 01-.75 0v-14.33a.375.375 0 01.75 0zm0 31.975v14.329a.375.375 0 01-.75 0v-14.33a.375.375 0 01.75 0zm-1.276-20.652a.375.375 0 01-.375.375h-2.995l-.167-.008-.032-.003-.164-.023a.316.316 0 01-.036-.006l-.158-.038-.034-.01-.15-.052a.434.434 0 01-.044-.018l-.138-.068-.027-.014-.126-.076a.394.394 0 01-.045-.031l-.11-.09a.326.326 0 01-.034-.032l-.093-.097a.424.424 0 01-.035-.043l-.074-.106a.41.41 0 01-.031-.053l-.054-.112a.359.359 0 01-.023-.062l-.032-.117a.358.358 0 01-.013-.067l-.01-.118a.375.375 0 01.746-.067l.008.083.014.052.027.056.04.057.057.06.071.058.089.053.103.051.11.037.121.03.13.017.142.007h2.967a.375.375 0 01.375.375z"/><path class="cls-4" d="M355.03 94.146a.563.563 0 01-.562.562h-6.624l-.166-.01a.525.525 0 01-.048-.005l-.164-.023a.633.633 0 01-.051-.01l-.157-.038a.589.589 0 01-.052-.014l-.15-.052a.563.563 0 01-.059-.024l-.138-.066a.46.46 0 01-.054-.029l-.126-.077a.622.622 0 01-.058-.042l-.11-.089a.594.594 0 01-.054-.049l-.092-.097a.56.56 0 01-.053-.065l-.074-.106a.572.572 0 01-.047-.08l-.054-.112a.585.585 0 01-.034-.09l-.032-.116a.548.548 0 01-.02-.103l-.01-.117a.563.563 0 111.12-.101l.011.084.037.06.038.04.053.044.07.042.081.039.095.033.105.025.114.017.127.006h6.576a.563.563 0 01.562.563zm-6.779 46.528v21.259a.375.375 0 01-.75 0v-21.259a.375.375 0 01.75 0z"/><path class="cls-4" d="M348.251 77.446v46.304a.375.375 0 01-.75 0V77.446a.375.375 0 01.75 0zm0-38.182v21.26a.375.375 0 01-.75 0v-21.26a.375.375 0 01.75 0z"/><path class="cls-4" d="M351.228 112.428a.375.375 0 01-.375.375l-3.107.007-.13.02-.122.028-.114.04-.1.046-.088.056-.073.058-.055.059-.04.058-.028.056-.014.05-.008.083a.375.375 0 11-.747-.067l.011-.118a.412.412 0 01.013-.07l.033-.114a.338.338 0 01.023-.06l.053-.112a.366.366 0 01.031-.053l.074-.106a.394.394 0 01.034-.041l.092-.099a.414.414 0 01.042-.038l.11-.086a.293.293 0 01.03-.022l.126-.08a.285.285 0 01.043-.023l.138-.065.034-.014.15-.053a.323.323 0 01.037-.01l.158-.038a.298.298 0 01.033-.007l.164-.023a.277.277 0 01.036-.003l.166-.009h2.995a.375.375 0 01.375.375zm3.802-5.374a.563.563 0 01-.562.562h-6.582l-.126.005-.109.015-.102.025-.098.035-.082.038-.12.085-.064.077-.018.045-.006.064a.563.563 0 01-1.12-.1l.01-.117a.54.54 0 01.02-.103l.032-.116a.708.708 0 01.035-.092l.054-.112a.531.531 0 01.046-.077l.074-.105a.55.55 0 01.048-.061l.093-.1a.632.632 0 01.06-.056l.111-.088a.58.58 0 01.05-.035l.125-.08a.607.607 0 01.067-.037l.138-.063.044-.018.15-.053a.543.543 0 01.06-.019l.157-.037a.628.628 0 01.05-.01l.165-.023a.537.537 0 01.06-.005l.166-.006h6.612a.563.563 0 01.562.562z"/><path class="cls-4" d="M355.03 109.421a.563.563 0 01-.562.563h-2.34a.715.715 0 00-.713.715v12.484l.26.004h.144a.563.563 0 110 1.125l-.438-.004-.019-.001-.12-.007-.016-.001-.108-.01-.035-.004-.093-.014a.515.515 0 01-.058-.012l-.076-.02a.577.577 0 01-.07-.023l-.062-.024a.577.577 0 01-.101-.054l-.046-.03a.576.576 0 01-.15-.147l-.026-.039a.543.543 0 01-.09-.208l-.01-.046a.54.54 0 01-.01-.112v-12.857a1.841 1.841 0 011.838-1.84h2.339a.563.563 0 01.562.562zm0-17.645a.563.563 0 01-.562.563h-2.34a1.84 1.84 0 01-1.838-1.838V77.643a.52.52 0 01.013-.115l.008-.045a.564.564 0 01.094-.212l.027-.038a.568.568 0 01.13-.129l.045-.033a.611.611 0 01.117-.064l.061-.024a.47.47 0 01.07-.024l.077-.02a.552.552 0 01.058-.011l.093-.014.029-.004.108-.01.027-.002.262-.011h.015l.142-.002a.562.562 0 01.567.558.57.57 0 01-.558.567l-.26.005v12.486a.714.714 0 00.713.713h2.34a.563.563 0 01.562.562zm47.272 31.854a.568.568 0 01-.034.191l-.19.522-.012.03-.221.515-.015.033-.258.507-.016.027-.289.498-.017.027-.318.484-.02.028-.35.465-.02.026-.376.441-.024.026-.396.41-.024.023-.416.381-.023.02-.43.354-.028.022-.434.312-.029.02-.439.276-.031.019-.451.245-.03.015-.439.205a.33.33 0 01-.036.016l-.547.212-.023.008-.588.199-.031.01-.624.17-.024.006-.66.147a.462.462 0 01-.071.012l-.684.061-.019.002-.709.04h-.022l-.721.014h-15.038a.563.563 0 01-.563-.559l-.033-4.47a.575.575 0 01.163-.401.562.562 0 01.4-.166h5.447v-4.437a.562.562 0 01.562-.562h4.47a.563.563 0 01.562.562v4.437h2.445l1.74-.017.269-.016.27-.027.28-.039.554-.104.264-.073.258-.085.236-.099.25-.132.264-.161.26-.186.264-.218.266-.247.267-.29.27-.32.269-.378.277-.432.284-.509.3-.602a.562.562 0 01.793-.232l3.766 2.26a.562.562 0 01.273.483zm-1.276.313l.026-.07-2.846-1.71-.034.07-.013.024-.298.535-.018.03-.294.458-.015.023-.29.406a.454.454 0 01-.028.036l-.293.348-.017.02-.29.315-.031.03-.294.274-.025.022-.293.24c-.01.01-.02.017-.03.024l-.293.209a.36.36 0 01-.035.023l-.296.18-.029.016-.287.153a.558.558 0 01-.047.022l-.28.117a.385.385 0 01-.04.015l-.293.097-.026.007-.298.082a.342.342 0 01-.04.01l-.605.115-.023.003-.3.04-.018.004-.293.03-.027.002-.292.016h-.018l-.297.008-1.475.011h-3.01a.563.563 0 01-.563-.562v-4.437h-3.345v4.437a.563.563 0 01-.562.562h-5.443l.024 3.346h14.47l.701-.013.689-.038.637-.06.61-.135.596-.163.56-.188.516-.2.407-.192.42-.229.409-.257.406-.292.403-.332.393-.36.372-.384.352-.414.329-.437.3-.456.274-.471.242-.475zm-20.392-29.868l-.001.024-.01.241-.004.044-.03.238a.792.792 0 01-.006.045l-.052.25a.75.75 0 01-.014.053l-.073.234a.24.24 0 01-.01.032l-.09.236-.017.041-.11.234a.574.574 0 01-.023.042l-.123.213a.44.44 0 01-.033.05l-.14.193a.404.404 0 01-.022.028l-.152.184a.613.613 0 01-.037.04l-.168.167a.368.368 0 01-.03.028l-.184.156a.504.504 0 01-.038.03l-.197.14a.453.453 0 01-.045.03l-.211.123c-.013.008-.027.014-.04.02l-.223.106-.022.01-.234.1a.723.723 0 01-.062.021l-.234.068-.043.01-.234.05-.03.004-.234.035a.561.561 0 01-.062.006l-.217.008a.362.362 0 01-.04 0l-.242-.008a.567.567 0 01-.062-.005l-.249-.037-.027-.005-.248-.049a.51.51 0 01-.056-.014l-.246-.077a.545.545 0 01-.038-.012l-.241-.094a.686.686 0 01-.043-.019l-.229-.111-.035-.02-.219-.126a.441.441 0 01-.044-.028l-.2-.143-.028-.021-.188-.153a.307.307 0 01-.038-.034l-.17-.167a.448.448 0 01-.037-.039l-.158-.187c-.01-.012-.02-.024-.028-.036l-.14-.197a.45.45 0 01-.03-.047l-.13-.226a.39.39 0 01-.016-.03l-.11-.225a.479.479 0 01-.02-.044l-.09-.229a.274.274 0 01-.017-.048l-.072-.246-.01-.033-.052-.23a.562.562 0 01-.01-.058l-.028-.232a.409.409 0 01-.004-.043l-.01-.236v-.05l.01-.232.004-.042.028-.232a.701.701 0 01.01-.055l.052-.234.01-.038.073-.242.013-.04.09-.237a.578.578 0 01.022-.05l.111-.223a.398.398 0 01.022-.04l.13-.214.02-.034.141-.2a.516.516 0 01.034-.044l.159-.183.025-.03.17-.17a.498.498 0 01.046-.043l.189-.152a.287.287 0 00.024-.02l.201-.143.03-.02.217-.136a.596.596 0 01.068-.036l.485-.21a.702.702 0 01.07-.024l.246-.067.042-.01.247-.047.031-.004.249-.033a.601.601 0 01.052-.005l.24-.01h.047l.217.01.048.005.234.03.036.006.233.046a.403.403 0 01.041.01l.235.064a.566.566 0 01.07.024l.233.098.016.007.221.102a.544.544 0 01.057.03l.213.13a.408.408 0 01.041.028l.197.145a.378.378 0 01.033.026l.183.157.021.019.168.16a.563.563 0 01.04.043l.153.18a.555.555 0 01.036.046l.14.207a.449.449 0 01.021.033l.124.211a.44.44 0 01.021.039l.11.228a.476.476 0 01.02.045l.088.233a.31.31 0 01.014.038l.072.241.013.048.051.247a.34.34 0 01.008.046l.03.238.003.044.01.235zm-1.134.194l.008-.194-.008-.19-.024-.192-.042-.2-.06-.2-.073-.19-.09-.186-.103-.177-.113-.165-.114-.134-.135-.129-.156-.134-.16-.118-.163-.1-.375-.165-.178-.049-.195-.038-.193-.025-.17-.007-.192.007-.207.028-.21.04-.19.05-.387.169-.17.106-.172.124-.152.123-.133.134-.128.149-.113.161-.107.179-.09.179-.073.192-.06.204-.043.187-.022.182-.008.184.008.19.022.182.042.185.061.207.073.184.093.188.106.186.111.155.126.15.133.13.154.125.164.117.178.103.189.092.201.078.2.061.204.041.203.03.19.006.165-.006.189-.028.196-.04.181-.053.191-.08.19-.09.17-.099.155-.111.148-.127.133-.132.123-.15.114-.155.097-.168.091-.192.075-.198.06-.192.04-.2zm22.203-2.432v4.472a.563.563 0 01-.563.563h-17.989a.562.562 0 01-.562-.563v-4.472a.562.562 0 01.562-.562h17.99a.563.563 0 01.562.562zm-1.125 3.91V92.4h-16.864v3.347zm1.585 13.369v.022l-.024.604-.001.027-.053.604-.003.033-.088.593-.007.035-.124.582-.009.035-.16.567-.007.025-.185.555-.013.035-.222.541-.013.03-.25.52-.017.033-.284.501-.016.026-.312.485-.019.028-.341.467a.302.302 0 01-.025.031l-.37.438-.016.02-.39.421-.028.028-.416.391-.025.022-.442.37-.03.023-.467.338-.022.015-.483.315-.034.02-.502.28-.024.012-.51.254-.035.015-.533.22-.034.013-.547.187-.034.01-.565.153-.03.007-.58.125-.034.006-.594.09-.032.003-.597.055a.35.35 0 01-.04.002l-.594.013h-.025l-.594-.013a.35.35 0 01-.04-.002l-.6-.055-.031-.004-.594-.09-.035-.005-.577-.125-.029-.007-.566-.153-.032-.01-.553-.186a.467.467 0 01-.034-.013l-.531-.218-.038-.017-.512-.256-.022-.011-.5-.28-.034-.02-.484-.315-.025-.017-.463-.337-.029-.023-.441-.37a.413.413 0 01-.026-.022l-.414-.392a.331.331 0 01-.024-.024l-.395-.422-.02-.022-.368-.438-.023-.03-.342-.465a.252.252 0 01-.02-.03l-.312-.485-.016-.028-.282-.5-.017-.031-.25-.52c-.007-.01-.011-.022-.016-.034l-.218-.54a.234.234 0 01-.01-.03l-.19-.555-.008-.03-.16-.565-.008-.037-.122-.582-.005-.029-.092-.592-.005-.037-.054-.604a.312.312 0 01-.002-.037l-.014-.603v-.026l.014-.61a.303.303 0 01.002-.037l.054-.602a.458.458 0 01.005-.037l.092-.59.005-.026.122-.593.009-.038.159-.566.009-.031.188-.55.013-.031.217-.53.013-.028.25-.525.02-.036.282-.497.015-.025.312-.487a.48.48 0 01.021-.031l.342-.464.021-.027.368-.44.02-.023.395-.424.025-.026.414-.392c.009-.008.017-.016.027-.023l.442-.367.024-.019.463-.343.028-.02.483-.314.031-.02.5-.28c.01-.007.022-.012.033-.017l.513-.246.026-.012.531-.222a.345.345 0 01.039-.015l.553-.185.03-.01.566-.154.03-.007.576-.126.036-.006.594-.09.03-.003.6-.058.038-.002.594-.016a.22.22 0 01.031 0l.596.016.038.002.597.058.03.004.593.089.035.006.58.125.03.008.565.154.031.01.548.185.036.014.533.223.028.012.51.246.032.016.501.282c.011.005.021.012.032.019l.483.314.026.018.467.344.025.02.443.367.026.023.416.391a.347.347 0 01.028.03l.39.423.017.02.37.44a.27.27 0 01.023.029l.341.463.02.03.312.487.015.025.284.498.019.036.25.526.01.024.223.53.013.037.186.55.008.027.16.566.008.037.125.593.006.033.088.59.003.033.053.602.001.028.024.61zm-1.147.569l.022-.569-.022-.573-.05-.572-.083-.557-.117-.558-.15-.534-.174-.517-.21-.499-.234-.493-.266-.468-.294-.459-.32-.434-.35-.418-.368-.4-.389-.365-.416-.345-.44-.324-.453-.295-.47-.263-.482-.233-.501-.21-.513-.173-.535-.146-.547-.118-.56-.084-.564-.055-.56-.015-.56.015-.566.055-.561.084-.544.118-.537.146-.518.174-.499.21-.484.232-.469.262-.453.296-.437.323-.416.345-.387.367-.372.4-.348.416-.32.435-.295.46-.265.467-.235.493-.206.5-.178.518-.148.53-.115.562-.088.558-.05.565-.014.578.013.572.05.567.089.56.115.55.148.533.18.526.204.508.235.486.265.47.294.458.32.437.347.413.374.399.388.367.415.346.435.318.456.297.472.263.482.24.495.203.52.175.535.146.545.117.56.085.565.05.562.013.564-.012.56-.051.562-.085.548-.117.533-.145.513-.175.5-.206.481-.238.472-.263.455-.297.44-.319.414-.345.39-.367.368-.398.35-.414.318-.436.295-.458.266-.471.235-.487.208-.507.175-.525.15-.536.117-.547.083-.56zm-3.098-.569v.022l-.015.373c0 .015-.002.03-.003.044l-.042.363a.2.2 0 01-.005.031l-.063.368a.586.586 0 01-.01.05l-.097.36-.009.03-.116.355a.41.41 0 01-.015.043l-.146.347a.346.346 0 01-.015.034l-.168.335a.373.373 0 01-.02.037l-.193.324a.653.653 0 01-.028.043l-.219.3-.011.016-.236.301a.407.407 0 01-.032.037l-.266.285a.517.517 0 01-.035.034l-.28.253-.018.016-.3.248a.52.52 0 01-.042.03l-.32.22a.306.306 0 01-.037.023l-.331.19-.032.016-.343.17a.397.397 0 01-.033.014l-.353.146-.03.012-.369.128a.576.576 0 01-.051.015l-.375.091-.034.008-.385.069a.515.515 0 01-.049.006l-.387.035-.028.003-.386.014h-.044l-.383-.014-.029-.003-.389-.035a.55.55 0 01-.049-.006l-.384-.07-.032-.006-.38-.091a.706.706 0 01-.054-.016l-.365-.129-.027-.01-.358-.146a.522.522 0 01-.035-.017l-.342-.168-.03-.017-.33-.19a.537.537 0 01-.037-.022l-.317-.216a.805.805 0 01-.042-.03l-.303-.252-.02-.017-.279-.253-.033-.033-.266-.285-.024-.03-.244-.3-.02-.025-.216-.3a.76.76 0 01-.029-.044l-.19-.325a.701.701 0 01-.021-.038l-.164-.335-.013-.028-.146-.346a.47.47 0 01-.017-.045l-.116-.356a.44.44 0 01-.01-.034l-.092-.357-.009-.035-.07-.37a.474.474 0 01-.009-.057l-.033-.363-.002-.033-.012-.374v-.035l.012-.374.002-.033.033-.36a.67.67 0 01.008-.054l.071-.375.007-.03.093-.37c.004-.015.007-.029.013-.043l.115-.347a.59.59 0 01.015-.039l.146-.35a.294.294 0 01.016-.032l.164-.33.02-.037.192-.32.02-.034.218-.31.025-.034.244-.299a.558.558 0 01.028-.031l.264-.28.025-.024.279-.26.035-.03.304-.24.025-.017.316-.223a.408.408 0 01.042-.026l.33-.192a.21.21 0 01.027-.014l.34-.174a.876.876 0 01.043-.019l.357-.146.04-.015.364-.118.025-.007.38-.105c.02-.005.04-.01.06-.013l.385-.061.027-.004.39-.042.038-.002.383-.016a.444.444 0 01.044 0l.386.016.038.002.387.042.027.004.386.06a.628.628 0 01.063.015l.375.104.022.006.367.119a.32.32 0 01.043.016l.353.147a.639.639 0 01.039.017l.342.173.028.015.331.19a.462.462 0 01.042.027l.319.223.028.021.3.239a.396.396 0 01.031.027l.282.26.025.025.266.28a.593.593 0 01.034.039l.236.298a.315.315 0 01.019.026l.218.31.021.033.193.32.021.037.167.331a.323.323 0 01.017.037l.146.346.014.04.116.346a.352.352 0 01.011.038l.096.37a.38.38 0 01.01.047l.064.375.004.029.042.358.003.045.015.373zm-1.138.332l.013-.332-.013-.33-.038-.322-.057-.337-.085-.328-.103-.31-.13-.308-.149-.295-.173-.285-.197-.282-.21-.266-.235-.247-.253-.234-.27-.215-.284-.199-.297-.17-.312-.158-.312-.13-.334-.107-.334-.093-.34-.054-.354-.038-.344-.014-.342.014-.356.038-.34.055-.336.092-.333.108-.316.13-.308.156-.295.17-.283.2-.274.215-.25.233-.237.251-.218.266-.193.277-.17.284-.146.294-.131.314-.103.306-.083.333-.064.332-.028.315-.011.34.01.34.03.318.062.327.084.323.103.317.131.309.148.302.167.283.192.267.222.274.236.253.251.228.273.226.278.19.296.17.308.151.325.134.324.113.336.082.344.061.35.032.348.014.348-.014.348-.032.345-.061.332-.082.327-.113.32-.133.312-.153.297-.17.28-.191.27-.224.254-.23.233-.248.214-.274.197-.271.17-.285.15-.3.13-.308.103-.319.086-.321.056-.328zm5.383-30.41v.022l-.024.601-.001.026-.053.608a.281.281 0 01-.004.034l-.088.588-.005.032-.125.592c-.002.013-.006.025-.009.038l-.16.567-.007.025-.185.557-.014.037-.222.536-.014.03-.25.514a.413.413 0 01-.016.031l-.284.5-.016.027-.311.484-.02.028-.34.465a.502.502 0 01-.025.031l-.37.436-.015.016-.39.427-.027.027-.416.396-.025.023-.441.373a.764.764 0 01-.04.03l-.466.33-.494.33a.497.497 0 01-.043.027l-.502.274-.026.013-.51.246-.037.016-.533.212-.017.007-.548.197a.325.325 0 01-.036.011l-.565.162-.036.008-.58.124a.274.274 0 01-.034.007l-.594.09-.038.003-.597.048-.028.002-.595.019h-.036l-.594-.02-.027-.001-.6-.048-.039-.004-.594-.09a.289.289 0 01-.035-.006l-.576-.124-.035-.008-.567-.162a.286.286 0 01-.034-.01l-.554-.198-.02-.007-.53-.212a.356.356 0 01-.036-.016l-.512-.246-.026-.013-.5-.275a.336.336 0 01-.043-.025l-.484-.323-.013-.01-.463-.33a.35.35 0 01-.037-.028l-.443-.374-.025-.023-.413-.396-.025-.024-.394-.427-.016-.018-.368-.434-.026-.031-.342-.468-.018-.027-.311-.481-.019-.03-.282-.501a.202.202 0 01-.015-.03l-.251-.512-.016-.036-.218-.535-.012-.032-.188-.556-.01-.03-.158-.567-.008-.038-.122-.593-.005-.025-.092-.588a.532.532 0 01-.005-.037l-.054-.607a.308.308 0 01-.002-.037l-.014-.601v-.027l.014-.6a.3.3 0 01.002-.037l.054-.603a.491.491 0 01.005-.036l.092-.595.005-.028.122-.586.008-.035.159-.573.01-.032.188-.55.012-.03.217-.534.015-.033.251-.517.016-.03.282-.504.014-.023.311-.497.028-.04.342-.455.018-.023.368-.44.018-.022.395-.427.025-.026.414-.394.035-.03.441-.357.022-.017.462-.339.024-.016.484-.317a.575.575 0 01.034-.021l.5-.28.025-.013.512-.254.037-.017.533-.218.028-.01.551-.193a.41.41 0 01.042-.013l.566-.148.024-.006.577-.126.042-.007.594-.082.016-.002.6-.065a.51.51 0 01.048-.004l.594-.014h.027l.595.014a.26.26 0 01.048.004l.597.065.015.002.594.082.042.007.58.126.025.006.565.148.043.013.547.193.027.01.532.218a.57.57 0 01.036.017l.513.254.023.013.502.28.035.021.483.318.021.015.467.338.023.017.442.358.033.03.416.392.03.03.388.428.014.016.372.441.02.026.341.456.027.038.31.497.014.021.283.5a.31.31 0 01.018.035l.25.52.012.028.221.534c.006.012.01.024.014.036l.186.55.008.028.16.574.008.033.124.586.007.035.088.594.003.033.053.602.001.027.024.602zm-1.147.566l.022-.566-.022-.565-.05-.573-.083-.56-.117-.552-.15-.541-.174-.517-.21-.503-.234-.49-.268-.472-.293-.467-.317-.424-.354-.42-.368-.405-.384-.364-.414-.334-.444-.323-.455-.298-.472-.264-.482-.24-.5-.205-.512-.179-.53-.14-.548-.119-.565-.077-.565-.063-.558-.013-.557.013-.568.063-.565.077-.543.119-.533.14-.516.18-.5.204-.482.24-.471.264-.455.298-.441.322-.413.335-.385.365-.373.405-.35.419-.319.424-.291.466-.268.477-.236.486-.205.503-.178.518-.148.539-.115.554-.088.562-.05.565-.014.57.013.57.05.57.089.555.115.56.148.535.18.526.203.502.235.481.266.473.294.453.321.438.346.409.376.406.389.372.41.347.437.311.457.306.466.254.48.232.504.2.526.188.53.15.542.117.557.084.567.045.564.018.563-.018.564-.045.558-.084.544-.117.529-.15.52-.187.506-.201.48-.232.467-.254.462-.31.435-.307.41-.348.39-.371.37-.405.35-.412.32-.436.294-.456.267-.47.234-.482.208-.501.174-.525.151-.536.117-.559.083-.554zm-3.098-.566v.021l-.015.369c0 .014-.002.027-.003.041l-.042.372a.206.206 0 01-.005.032l-.063.367a.491.491 0 01-.01.048l-.097.363-.008.028-.116.36a.394.394 0 01-.018.048l-.145.342a.309.309 0 01-.014.03l-.168.339a.395.395 0 01-.024.045l-.194.314a.267.267 0 01-.017.027l-.218.312a.36.36 0 01-.023.031l-.235.293a.441.441 0 01-.036.04l-.266.274-.018.018-.281.264a.342.342 0 01-.032.028l-.3.243a.54.54 0 01-.039.028l-.318.216a.407.407 0 01-.03.02l-.332.194-.03.016-.343.174a.616.616 0 01-.039.018l-.353.147a.558.558 0 01-.04.014l-.368.121-.028.008-.375.102a.714.714 0 01-.055.012l-.385.065-.034.004-.387.041-.037.003-.385.015a.444.444 0 01-.045 0l-.383-.015-.037-.003-.389-.04-.034-.005-.385-.065c-.017-.002-.035-.007-.052-.011l-.38-.102-.03-.01-.366-.12-.037-.014-.357-.146-.041-.02-.34-.173-.031-.017-.33-.194-.032-.02-.317-.215a.541.541 0 01-.034-.026l-.303-.243a.51.51 0 01-.037-.031l-.278-.265a.184.184 0 01-.018-.017l-.265-.274-.028-.031-.243-.293a.489.489 0 01-.03-.04l-.217-.313-.018-.028-.191-.314a.527.527 0 01-.026-.047l-.164-.338-.01-.024-.147-.342a.624.624 0 01-.019-.05l-.115-.36-.01-.033-.092-.36-.008-.032-.071-.37a.489.489 0 01-.008-.057l-.033-.371-.003-.032-.011-.368v-.036l.011-.37.003-.034.033-.366a.452.452 0 01.008-.056l.07-.374.008-.034.093-.361.01-.038.117-.351a.58.58 0 01.017-.047l.147-.34.01-.023.165-.337a.416.416 0 01.02-.039l.19-.325.028-.042.217-.305a.49.49 0 01.025-.031l.244-.296a.232.232 0 01.02-.024l.264-.285.033-.033.28-.256.03-.026.302-.24.019-.015.318-.23a.53.53 0 01.05-.032l.33-.191.037-.02.342-.164.036-.016.357-.14.024-.01.366-.125c.014-.005.03-.009.046-.013l.379-.095.032-.007.385-.073a.451.451 0 01.053-.007l.39-.035c.011-.002.022-.002.033-.002l.383-.012h.034l.386.012.033.002.387.035c.018.001.036.004.054.007l.386.073.033.008.375.094a.44.44 0 01.043.013l.369.126.025.01.355.14.035.015.342.164a.638.638 0 01.037.02l.33.19a.543.543 0 01.052.032l.319.23.021.018.3.24.028.023.281.257.032.031.266.285a.424.424 0 01.028.034l.236.295.018.023.218.305a.373.373 0 01.026.04l.194.326.02.037.167.338.013.028.146.34.017.045.116.351.01.032.095.363a.561.561 0 01.011.05l.064.374.004.03.042.366.003.043.015.372zm-1.138.325l.013-.325-.013-.329-.038-.33-.056-.334-.086-.321-.103-.313-.13-.303-.15-.304-.171-.287-.195-.273-.213-.267-.236-.252-.251-.23-.275-.22-.284-.205-.287-.165-.307-.147-.323-.128-.333-.114-.336-.085-.342-.064-.344-.031-.35-.011-.35.01-.345.032-.342.064-.34.086-.33.113-.327.128-.305.147-.285.164-.283.206-.278.221-.248.227-.238.256-.22.268-.191.268-.167.285-.15.307-.13.305-.103.31-.084.327-.063.33-.028.321-.011.338.01.334.03.327.062.324.084.327.103.32.131.306.147.302.168.277.193.28.215.257.242.25.252.24.268.215.284.193.3.177.305.155.317.13.331.11.338.09.341.057.354.038.342.013.345-.013.351-.038.342-.057.334-.09.334-.11.314-.13.307-.156.301-.177.285-.191.264-.215.257-.242.239-.246.207-.258.198-.283.171-.279.149-.3.129-.304.104-.323.086-.324.056-.326zm50.915 55.679a.563.563 0 01-.563.563h-5.925a.563.563 0 110-1.125h5.925a.563.563 0 01.563.562zm-2.55-2.552v.014a.563.563 0 01-.578.548l-3.375-.088a.562.562 0 11.03-1.124l3.375.088a.562.562 0 01.548.562zm2.55-66.33a.563.563 0 01-.563.563h-5.925a.563.563 0 110-1.125h5.925a.562.562 0 01.563.562zm-.822 29.931v9.018a9.046 9.046 0 01-3.238 6.945l-2.066 1.732a.563.563 0 11-.723-.862l2.066-1.732a7.923 7.923 0 002.836-6.083V96.09a7.923 7.923 0 00-2.837-6.084l-2.065-1.732a.563.563 0 01.723-.863l2.066 1.733a9.047 9.047 0 013.238 6.946z"/><path class="cls-5" d="M441.207 154.173h5.529a2.977 2.977 0 110 5.953h-5.529zm0-113.098h5.529a2.977 2.977 0 110 5.953h-5.529z"/><path class="cls-4" d="M441.77 35.545v130.11a.563.563 0 01-1.125 0V35.545a.563.563 0 011.125 0z"/><path class="cls-6" d="M450.463 44.051a3.734 3.734 0 01-2.674 3.576.75.75 0 01.093.363v18.17a3.303 3.303 0 01-3.29 3.3l-2.635.069v17.736a2.889 2.889 0 011.13.45l2.92 1.97a10.092 10.092 0 014.456 8.376v5.078a10.093 10.093 0 01-4.456 8.376l-2.918 1.969a2.908 2.908 0 01-1.132.45l.001 6.514a2.453 2.453 0 011.276 2.15v9.106l1.359.035a3.305 3.305 0 013.29 3.303v18.169a.75.75 0 01-.094.363 3.727 3.727 0 01-1.053 7.302h-4.779v4.778a.75.75 0 01-.428.677l-4.79 2.277a.75.75 0 01-.634.348h-79.512a.75.75 0 01-.53-.22l-2.125-2.125a.75.75 0 01-.22-.53v-7.648h-1.59a.526.526 0 00-.525.525v2.975a.75.75 0 01-.75.75h-2.977a2.026 2.026 0 01-2.025-2.024v-18.71a2.027 2.027 0 012.014-2.025l5.853-.152v-15.118l-5.853-.154a2.027 2.027 0 01-2.014-2.024V78.723a2.028 2.028 0 012.014-2.027l5.853-.153V61.428l-5.853-.153a2.028 2.028 0 01-2.014-2.026v-18.71a2.027 2.027 0 012.025-2.025h2.977a.75.75 0 01.75.75v2.977a.526.526 0 00.526.525h1.589v-7.648a.75.75 0 01.22-.53l2.124-2.126a.75.75 0 01.53-.22h79.513a.75.75 0 01.634.348l4.79 2.275a.751.751 0 01.428.677v4.783h4.78a3.731 3.731 0 013.726 3.726zm-10.006 3.94v-.963a.75.75 0 01.75-.75h5.529a2.227 2.227 0 100-4.453h-5.529a.75.75 0 01-.75-.75v-5.058l-4.674-2.22a.768.768 0 01-.097-.054h-78.783l-1.685 1.686v8.087a.75.75 0 01-.75.75h-2.34a2.028 2.028 0 01-2.025-2.025v-2.227h-2.227a.526.526 0 00-.525.525v18.71a.526.526 0 00.525.525l.02.001 6.592.173a.75.75 0 01.73.75v16.575a.75.75 0 01-.73.75l-6.592.173h-.02a.527.527 0 00-.525.527v43.753a.525.525 0 00.525.524h.02l6.592.174a.75.75 0 01.73.75v16.579a.75.75 0 01-.73.75l-6.592.17-.02.001a.525.525 0 00-.525.525v18.71a.525.525 0 00.525.524h2.227v-2.225a2.028 2.028 0 012.026-2.025h2.339a.75.75 0 01.75.75v8.087l1.685 1.686h78.783a.814.814 0 01.097-.055l4.674-2.221v-5.054a.75.75 0 01.75-.75h5.53a2.227 2.227 0 100-4.453h-5.53a.75.75 0 01-.75-.75v-.962a.75.75 0 01.75-.75h5.175v-17.419a1.804 1.804 0 00-1.8-1.802h-.02l-2.099-.057a.75.75 0 01-.73-.75V122.6a.953.953 0 00-.713-.921.75.75 0 01-.562-.726l-.001-7.597a.75.75 0 01.268-.574l.153-.13a.757.757 0 01.471-.175l.158-.002a1.383 1.383 0 00.746-.236l2.915-1.967a8.594 8.594 0 003.795-7.132v-5.078a8.596 8.596 0 00-3.795-7.133l-2.918-1.969a1.388 1.388 0 00-.745-.233l-.161-.004a.755.755 0 01-.466-.175l-.153-.129a.751.751 0 01-.268-.575V68.798a.75.75 0 01.731-.75l3.375-.087.019-.001a1.802 1.802 0 001.8-1.8V48.74h-5.175a.75.75 0 01-.75-.75z"/><path class="cls-7" d="M303.873 0H492.44v188.567H303.873z"/><path class="cls-2" d="M240.086 170.453H76.238a.75.75 0 010-1.5h163.848a.75.75 0 010 1.5z"/><path class="cls-1" d="M106.606 157.147a2.977 2.977 0 012.977-2.976h5.529v-.963h-5.926v-18.17a2.55 2.55 0 012.55-2.55l3.376-.087v-19.045l-.154-.13-.157-.003a2.146 2.146 0 01-1.152-.362l-2.918-1.97a9.355 9.355 0 01-4.125-7.753V98.06a9.355 9.355 0 014.125-7.755l2.918-1.968a2.139 2.139 0 011.152-.362l.157-.002.154-.13-.002-7.596a1.702 1.702 0 01-1.275-1.647v-9.834l-2.098-.057a2.55 2.55 0 01-2.55-2.552V47.988h5.925v-.962h-5.53a2.977 2.977 0 110-5.953h5.53v-5.528l5.102-2.425v-.127h79.512l2.125 2.125v8.398h2.34a1.276 1.276 0 001.275-1.275v-2.975h2.977a1.273 1.273 0 011.275 1.273V59.25a1.275 1.275 0 01-1.275 1.274l-6.592.172v16.58l6.592.173a1.274 1.274 0 011.275 1.274v43.753a1.276 1.276 0 01-1.275 1.276l-6.592.174v16.575l6.592.173a1.276 1.276 0 011.275 1.276v18.71a1.275 1.275 0 01-1.275 1.275h-2.977v-2.977a1.276 1.276 0 00-1.276-1.275h-2.34v8.398l-2.124 2.125h-79.512v-.127l-5.102-2.422v-5.533h-5.53a2.977 2.977 0 01-2.976-2.977z"/><path class="cls-3" d="M115.112 87.844l-.154.129-.157.002a2.139 2.139 0 00-1.152.362l-2.918 1.968a9.355 9.355 0 00-4.125 7.755v5.078a9.355 9.355 0 004.125 7.754l2.918 1.969a2.146 2.146 0 001.152.362l.157.004.154.129z"/><path class="cls-1" d="M115.112 113.356l-2.066-1.734a8.507 8.507 0 01-3.038-6.514V96.09a8.509 8.509 0 013.038-6.515l2.066-1.731z"/><path class="cls-4" d="M119.651 168.206V32.993a.563.563 0 111.125 0v135.213a.563.563 0 01-1.125 0zm27.213 0V32.993a.563.563 0 111.125 0v135.213a.563.563 0 01-1.125 0zm40.819 0V32.993a.563.563 0 111.125 0v135.213a.563.563 0 01-1.125 0zm11.48 0V32.993a.563.563 0 111.125 0v135.213a.563.563 0 01-1.125 0zm2.125-2.126V35.119a.563.563 0 011.125 0v130.963a.563.563 0 11-1.125 0zm2.527-42.328v-14.33a.375.375 0 01.75 0v14.33a.375.375 0 01-.75 0zm0-31.974V77.449a.375.375 0 01.75 0v14.329a.375.375 0 01-.75 0zm1.276 20.652a.375.375 0 01.375-.375h2.995l.166.008.032.003.165.023a.316.316 0 01.036.006l.158.038.034.01.15.052a.434.434 0 01.043.017l.139.069.027.014.125.076a.394.394 0 01.046.031l.11.09a.326.326 0 01.034.032l.092.097a.424.424 0 01.036.043l.073.106a.41.41 0 01.032.053l.053.112a.359.359 0 01.024.062l.032.117a.358.358 0 01.012.067l.011.118a.375.375 0 01-.747.067l-.007-.083-.015-.052-.027-.056-.04-.057-.056-.06-.071-.058-.09-.053-.102-.051-.11-.038-.122-.029-.13-.017-.14-.007h-2.968a.375.375 0 01-.375-.375z"/><path class="cls-4" d="M201.288 107.053a.563.563 0 01.563-.562h6.623l.166.01c.016 0 .033.002.049.004l.164.024a.633.633 0 01.051.01l.157.037a.589.589 0 01.052.015l.15.052a.563.563 0 01.059.023l.138.066a.46.46 0 01.053.03l.126.077a.622.622 0 01.058.041l.11.09a.594.594 0 01.054.049l.093.097a.559.559 0 01.053.065l.074.106a.572.572 0 01.047.08l.053.112a.585.585 0 01.035.09l.032.116a.548.548 0 01.02.103l.01.117a.563.563 0 01-1.12.101l-.012-.084-.036-.06-.038-.04-.054-.044-.069-.042-.082-.039-.094-.033-.105-.025-.115-.017-.127-.006h-6.575a.563.563 0 01-.563-.563zm6.78-46.529V39.266a.375.375 0 01.75 0v21.258a.375.375 0 01-.75 0z"/><path class="cls-4" d="M208.068 123.752V77.45a.375.375 0 01.75 0v46.303a.375.375 0 01-.75 0zm0 38.183v-21.26a.375.375 0 01.75 0v21.26a.375.375 0 01-.75 0z"/><path class="cls-4" d="M205.091 88.77a.375.375 0 01.375-.375l3.107-.006.13-.02.121-.028.114-.04.1-.046.089-.057.073-.057.055-.06.04-.057.027-.056.015-.05.007-.083a.375.375 0 11.747.067l-.01.118a.412.412 0 01-.013.07l-.033.114a.338.338 0 01-.023.06l-.053.112a.366.366 0 01-.032.053l-.073.106a.394.394 0 01-.035.041l-.092.098a.414.414 0 01-.042.038l-.11.087a.295.295 0 01-.03.022l-.126.08a.285.285 0 01-.043.023l-.137.065-.035.014-.15.052a.323.323 0 01-.037.011l-.157.038a.296.296 0 01-.034.006l-.164.024a.277.277 0 01-.035.003l-.166.008h-2.995a.375.375 0 01-.375-.375zm-3.803 5.375a.563.563 0 01.563-.563h6.582l.126-.004.109-.015.101-.025.098-.035.082-.038.121-.085.064-.077.018-.045.005-.065a.563.563 0 011.121.1l-.01.118a.54.54 0 01-.02.103l-.032.116a.708.708 0 01-.035.092l-.055.112a.53.53 0 01-.045.077l-.074.105a.55.55 0 01-.048.06l-.093.1a.632.632 0 01-.061.057l-.11.088a.58.58 0 01-.05.035l-.125.08a.607.607 0 01-.067.036l-.139.063-.044.019-.15.053a.543.543 0 01-.06.018l-.156.038a.624.624 0 01-.051.01l-.164.023a.537.537 0 01-.06.005l-.167.006h-6.611a.563.563 0 01-.563-.562z"/><path class="cls-4" d="M201.288 91.778a.563.563 0 01.563-.563h2.34a.715.715 0 00.713-.715V78.016l-.26-.004h-.145a.563.563 0 010-1.125l.439.004.018.001.121.007h.016l.108.01.034.005.094.014a.515.515 0 01.057.012l.077.02a.577.577 0 01.07.023l.062.024a.576.576 0 01.101.053l.045.031a.576.576 0 01.15.147l.027.038a.543.543 0 01.09.208l.009.046a.54.54 0 01.012.113V90.5a1.841 1.841 0 01-1.839 1.84h-2.34a.563.563 0 01-.562-.562zm0 17.645a.563.563 0 01.563-.563h2.34a1.84 1.84 0 011.838 1.838v12.858a.52.52 0 01-.013.115l-.009.045a.564.564 0 01-.094.212l-.027.038a.568.568 0 01-.128.128l-.046.033a.61.61 0 01-.117.065l-.062.024a.47.47 0 01-.07.024l-.077.02a.552.552 0 01-.057.011l-.094.014-.028.004-.108.01-.028.002-.261.011h-.016l-.142.001a.562.562 0 01-.567-.557.57.57 0 01.558-.568l.26-.005v-12.485a.714.714 0 00-.713-.713h-2.34a.563.563 0 01-.562-.562zM154.017 77.57a.568.568 0 01.033-.192l.19-.522.013-.03.22-.516.016-.033.258-.506.015-.028.29-.498.016-.026.319-.484.02-.029.35-.464.02-.026.375-.441.025-.027.396-.409.023-.023.416-.381.024-.02.429-.354.029-.022.434-.313.028-.019.44-.277.03-.018.452-.245.03-.015.439-.206a.33.33 0 01.035-.015l.548-.212.023-.008.588-.199.031-.01.623-.17.025-.006.66-.147a.462.462 0 01.071-.012l.684-.062h.019l.708-.041.022-.001.722-.013h15.038a.563.563 0 01.563.559l.033 4.47a.575.575 0 01-.164.401.562.562 0 01-.399.166h-5.447v4.437a.562.562 0 01-.563.562h-4.469a.563.563 0 01-.562-.562v-4.437h-2.445l-1.74.017-.27.016-.27.027-.28.038-.553.105-.264.073-.258.085-.236.098-.25.133-.264.161-.26.186-.265.218-.265.247-.268.29-.27.32-.268.378-.278.432-.284.509-.3.602a.562.562 0 01-.793.231l-3.765-2.26a.562.562 0 01-.273-.483zm1.276-.314l-.027.07 2.846 1.709.035-.07.012-.023.3-.535.017-.03.294-.458.015-.023.29-.406a.451.451 0 01.028-.036l.293-.348.017-.02.29-.315.031-.03.294-.274.025-.022.293-.24c.01-.01.02-.017.03-.024l.293-.209a.36.36 0 01.034-.023l.297-.18.028-.017.287-.152a.574.574 0 01.047-.022l.28-.117a.383.383 0 01.041-.016l.292-.096.027-.008.297-.082a.342.342 0 01.04-.01l.606-.114.023-.003.3-.041.018-.003.293-.03.027-.002.291-.016.019-.001.297-.007 1.474-.011h3.011a.563.563 0 01.563.562v4.437h3.344v-4.437a.563.563 0 01.563-.562h5.442l-.024-3.346h-14.47l-.7.013-.69.038-.637.059-.61.136-.595.163-.56.188-.517.2-.407.192-.42.228-.408.257-.407.293-.403.331-.392.36-.372.385-.353.414-.328.436-.3.457-.275.47-.241.476zm20.392 29.868v-.024l.01-.242.004-.044.03-.238a.792.792 0 01.007-.044l.052-.25a.75.75 0 01.013-.053l.073-.234a.24.24 0 01.012-.032l.088-.236.018-.041.11-.234a.595.595 0 01.022-.042l.124-.214a.44.44 0 01.032-.049l.14-.193a.402.402 0 01.022-.028l.152-.184a.613.613 0 01.038-.04l.168-.167a.368.368 0 01.03-.029l.183-.156a.504.504 0 01.039-.03l.197-.14a.453.453 0 01.044-.029l.212-.123c.013-.008.027-.014.04-.021l.222-.105.023-.01.234-.1a.729.729 0 01.062-.022l.234-.068.043-.01.233-.048.03-.005.235-.035a.561.561 0 01.062-.006l.217-.008a.362.362 0 01.04 0l.242.008a.567.567 0 01.061.005l.25.036.027.005.248.05a.51.51 0 01.056.014l.246.076a.545.545 0 01.037.013l.242.094a.704.704 0 01.043.019l.228.11.036.02.218.127a.441.441 0 01.044.028l.2.143.029.021.187.153c.014.01.027.022.039.034l.17.167a.448.448 0 01.037.039l.158.187.028.036.14.197a.45.45 0 01.03.047l.13.226a.39.39 0 01.015.03l.112.225a.479.479 0 01.02.043l.09.23.016.047.072.247.009.033.053.23a.562.562 0 01.01.058l.028.232a.409.409 0 01.003.043l.01.236v.05l-.01.232-.003.042-.028.231a.701.701 0 01-.01.055l-.052.235-.01.038-.073.242-.013.04-.09.236a.57.57 0 01-.022.05l-.112.224a.398.398 0 01-.022.04l-.129.214-.02.033-.141.2a.516.516 0 01-.035.044l-.158.184-.026.029-.169.17a.496.496 0 01-.047.044l-.188.152a.287.287 0 00-.025.019l-.2.144-.03.02-.217.136a.596.596 0 01-.069.036l-.484.21a.702.702 0 01-.07.024l-.246.066c-.014.004-.028.008-.043.01l-.246.048-.032.004-.248.033a.601.601 0 01-.052.004l-.241.01h-.046l-.217-.01a.523.523 0 01-.048-.004l-.235-.03-.036-.006-.233-.046a.403.403 0 01-.04-.01l-.235-.064a.566.566 0 01-.07-.024l-.233-.098-.016-.008-.221-.102a.544.544 0 01-.058-.03l-.212-.129a.408.408 0 01-.042-.028l-.197-.145a.376.376 0 01-.032-.026l-.183-.157-.021-.02-.168-.159a.563.563 0 01-.041-.043l-.152-.18a.555.555 0 01-.036-.046l-.141-.207a.449.449 0 01-.02-.033l-.124-.212a.44.44 0 01-.021-.038l-.11-.228a.476.476 0 01-.02-.045l-.089-.233a.31.31 0 01-.013-.039l-.073-.24-.012-.048-.051-.247a.495.495 0 01-.008-.046l-.03-.238-.003-.044-.01-.235zm1.134-.194l-.008.194.008.19.024.192.042.2.06.2.072.19.09.186.104.177.112.165.114.134.136.129.156.134.16.118.163.099.375.166.178.049.195.038.193.025.17.007.191-.007.208-.028.21-.04.19-.051.387-.168.169-.106.173-.124.152-.123.133-.135.127-.148.114-.161.107-.18.09-.178.072-.192.061-.204.043-.188.022-.181.008-.185-.008-.19-.022-.181-.043-.185-.06-.207-.073-.184-.093-.188-.106-.186-.112-.155-.126-.15-.132-.13-.154-.125-.164-.117-.178-.103-.189-.092-.201-.078-.2-.062-.204-.04-.203-.03-.19-.006-.165.005-.19.029-.195.04-.181.053-.191.08-.19.09-.17.099-.155.111-.148.127-.133.132-.124.15-.113.154-.098.169-.09.192-.075.198-.06.192-.041.2zm-22.203 2.432v-4.472a.563.563 0 01.562-.563h17.99a.562.562 0 01.562.563v4.472a.562.562 0 01-.562.562h-17.99a.563.563 0 01-.562-.562zm1.125-3.91v3.347h16.864v-3.347zm-1.586-13.37v-.022l.024-.603.002-.027.053-.604.003-.033.088-.593.007-.035.124-.582.008-.036.16-.566.008-.025.185-.556.013-.035.222-.54c.003-.01.008-.02.013-.031l.25-.519.017-.033.284-.501.016-.027.312-.484.019-.028.341-.467a.302.302 0 01.024-.031l.37-.438.017-.02.39-.421.028-.028.416-.391.025-.022.442-.37.03-.023.467-.338.022-.016.483-.314.034-.021.502-.279.023-.012.511-.254.035-.015.533-.22.034-.013.547-.187.034-.01.565-.153.03-.008.58-.124.034-.006.594-.09.032-.003.596-.055a.35.35 0 01.04-.002l.595-.013h.024l.594.013a.35.35 0 01.04.002l.6.055.032.004.594.089.035.006.577.124.028.008.566.153.033.01.553.186a.467.467 0 01.034.013l.531.218.037.017.512.255.023.012.5.279.034.02.483.315.025.017.463.338.03.023.441.369a.413.413 0 01.026.022l.414.392a.331.331 0 01.024.025l.395.421.02.023.368.438.022.03.342.465a.253.253 0 01.02.03l.312.484.016.028.283.5.017.032.25.52c.006.01.01.022.016.034l.217.54a.234.234 0 01.011.03l.19.555.008.029.16.566.008.037.121.582.006.029.092.592.005.037.053.603a.312.312 0 01.003.038l.014.603v.026l-.014.61a.303.303 0 01-.003.037l-.053.602a.458.458 0 01-.005.037l-.092.59-.006.026-.121.592-.009.039-.159.566-.01.031-.188.55-.012.031-.218.53-.012.028-.251.525-.019.035-.282.498-.015.025-.312.487a.48.48 0 01-.021.031l-.342.464-.021.027-.368.44-.02.023-.395.424-.025.025-.414.392-.027.024-.442.367-.024.019-.463.343-.029.02-.482.314-.032.02-.5.28c-.01.007-.021.012-.032.017l-.514.246-.025.012-.531.222a.345.345 0 01-.04.015l-.552.185-.03.01-.566.154-.03.007-.576.126-.036.006-.594.089-.03.004-.6.058-.038.002-.594.016a.22.22 0 01-.031 0l-.596-.016-.038-.002-.598-.058-.03-.004-.592-.089-.035-.006-.58-.125-.03-.008-.565-.154-.032-.01-.547-.185-.036-.014-.534-.223-.027-.012-.51-.246a.432.432 0 01-.032-.016l-.501-.282c-.011-.005-.022-.012-.033-.019l-.482-.314-.027-.018-.466-.344-.026-.02-.442-.367-.026-.023-.416-.391a.347.347 0 01-.028-.03l-.39-.423-.018-.02-.37-.44a.27.27 0 01-.022-.029l-.342-.463-.02-.03-.311-.487-.016-.025-.283-.498-.02-.036-.249-.526-.011-.024-.222-.53-.014-.037-.185-.55-.008-.027-.16-.566-.009-.037-.124-.593-.006-.033-.088-.59-.004-.033-.052-.602-.002-.028-.023-.61zm1.148-.568l-.022.568.022.574.05.572.082.557.118.558.15.534.174.517.209.499.235.493.266.467.293.46.32.434.35.417.369.4.388.366.416.345.44.324.454.295.47.263.481.233.502.21.513.173.534.146.547.118.56.084.565.054.56.016.56-.016.566-.054.56-.084.545-.118.537-.146.518-.174.498-.21.485-.232.468-.263.454-.295.436-.324.416-.345.388-.366.372-.4.348-.416.32-.435.294-.46.265-.467.235-.493.206-.5.178-.518.149-.53.115-.562.088-.558.05-.565.013-.578-.013-.572-.05-.567-.088-.56-.115-.55-.149-.533-.179-.526-.205-.508-.235-.486-.265-.47-.294-.458-.32-.437-.347-.413-.373-.399-.388-.367-.415-.346-.436-.318-.455-.297-.472-.263-.483-.24-.495-.203-.52-.175-.535-.146-.544-.117-.56-.085-.565-.05-.563-.013-.563.012-.561.051-.561.085-.548.117-.533.145-.514.175-.499.206-.482.239-.472.262-.455.297-.44.319-.413.346-.39.366-.368.398-.35.414-.319.436-.294.458-.267.471-.234.487-.208.507-.175.525-.15.536-.118.547-.082.56zm3.098.568v-.02l.015-.374c0-.015.001-.03.003-.044l.042-.364a.199.199 0 01.004-.03l.063-.368a.586.586 0 01.011-.05l.096-.36.01-.03.116-.355a.408.408 0 01.015-.043l.146-.347a.346.346 0 01.015-.035l.168-.334a.373.373 0 01.02-.037l.193-.324a.656.656 0 01.028-.043l.218-.3.012-.016.236-.301a.407.407 0 01.032-.038l.266-.284a.517.517 0 01.034-.034l.282-.254.017-.015.3-.248a.532.532 0 01.041-.031l.32-.218a.306.306 0 01.038-.024l.331-.19.031-.016.344-.17a.395.395 0 01.032-.014l.353-.147.03-.011.37-.128a.573.573 0 01.05-.015l.376-.092.033-.007.386-.069a.514.514 0 01.049-.006l.386-.036.029-.002.385-.015h.045l.383.015.028.002.39.036a.55.55 0 01.048.006l.385.069.031.007.38.091.055.016.365.128.027.01.357.147a.52.52 0 01.036.016l.341.169.031.017.33.19a.537.537 0 01.037.022l.316.216.042.03.303.252.02.017.28.253.033.033.265.285.025.03.244.3.019.025.217.3.028.044.191.325a.701.701 0 01.02.038l.165.335.012.028.147.345a.47.47 0 01.017.046l.115.356a.447.447 0 01.01.033l.093.358.008.034.071.372a.474.474 0 01.008.055l.033.364.002.033.012.374v.035l-.012.374-.002.033-.033.36a.67.67 0 01-.007.053l-.072.375-.006.031-.093.37-.013.042-.116.348a.59.59 0 01-.014.038l-.147.35a.294.294 0 01-.015.033l-.164.33-.02.037-.192.32a.513.513 0 01-.021.034l-.217.31-.026.034-.243.299a.558.558 0 01-.028.031l-.265.28-.025.023-.278.26-.036.03-.303.24-.025.018-.316.223a.408.408 0 01-.042.026l-.331.191a.21.21 0 01-.027.015l-.34.174a.886.886 0 01-.042.019l-.357.146-.04.015-.365.118-.025.007-.379.105a.876.876 0 01-.06.013l-.385.06-.027.004-.39.043-.038.002-.383.016a.444.444 0 01-.045 0l-.385-.016-.039-.002-.387-.043-.027-.003-.385-.061a.628.628 0 01-.063-.014l-.375-.104-.022-.007-.368-.118a.319.319 0 01-.043-.016l-.353-.147a.317.317 0 01-.038-.017l-.343-.173-.027-.015-.332-.191a.462.462 0 01-.041-.027l-.319-.222-.028-.021-.3-.24a.394.394 0 01-.032-.026l-.28-.26-.026-.025-.266-.28a.593.593 0 01-.035-.039l-.236-.299a.315.315 0 01-.018-.025l-.218-.31-.021-.033-.194-.32-.02-.037-.167-.332a.323.323 0 01-.017-.036l-.146-.347-.014-.038-.116-.348a.352.352 0 01-.011-.037l-.096-.37a.38.38 0 01-.01-.047l-.064-.375-.004-.029-.042-.358-.003-.045-.015-.373zm1.137-.33l-.012.33.012.33.039.323.057.337.085.328.103.31.13.308.148.295.173.285.198.282.21.265.234.248.254.234.27.215.284.198.297.171.311.157.312.13.335.108.333.093.34.053.354.04.344.012.342-.013.356-.039.34-.054.337-.092.332-.108.317-.13.307-.156.296-.17.283-.2.273-.215.25-.233.238-.252.217-.266.194-.276.169-.285.147-.293.13-.314.103-.306.084-.333.063-.333.029-.315.011-.339-.011-.34-.029-.318-.063-.327-.083-.323-.103-.317-.131-.309-.148-.303-.167-.282-.192-.267-.222-.274-.236-.253-.251-.228-.274-.226-.277-.19-.297-.17-.307-.152-.326-.133-.323-.113-.336-.082-.345-.061-.35-.033-.347-.013-.349.013-.348.033-.345.061-.331.082-.327.112-.32.134-.313.153-.296.17-.28.19-.27.225-.255.23-.233.248-.213.274-.197.271-.17.285-.15.3-.13.308-.104.319-.085.321-.057.328zm-5.383 30.409v-.022l.024-.601.002-.027.053-.607a.281.281 0 01.004-.034l.088-.588.005-.032.124-.593.01-.037.159-.567.008-.025.185-.557.013-.037.222-.536.014-.03.25-.514a.413.413 0 01.016-.031l.284-.5.016-.027.312-.484.02-.028.34-.465a.505.505 0 01.025-.032l.37-.435.014-.016.39-.427.027-.028.416-.395.025-.023.442-.373a.764.764 0 01.039-.03l.466-.33.495-.33a.497.497 0 01.043-.027l.502-.274.025-.013.51-.246.037-.017.534-.211.017-.008.547-.196a.325.325 0 01.037-.012l.565-.16.035-.01.58-.123a.274.274 0 01.035-.007l.594-.09.038-.004.597-.047.027-.002.595-.019h.036l.594.02h.027l.6.048.04.005.593.09a.289.289 0 01.035.006l.577.123.035.01.566.16a.286.286 0 01.034.011l.554.197.02.008.531.212a.356.356 0 01.035.016l.512.246a.126.126 0 01.026.013l.5.275a.336.336 0 01.043.025l.484.323.014.01.462.33a.35.35 0 01.038.028l.442.373.025.024.414.396.024.024.395.426.016.019.368.433.025.032.342.468.019.026.311.482.018.03.282.501a.202.202 0 01.016.03l.25.512.016.035.218.536.012.031.188.557.01.03.158.567.009.038.122.592.005.026.092.587a.532.532 0 01.005.038l.054.607a.308.308 0 01.002.037l.014.6v.027l-.014.602a.3.3 0 01-.002.036l-.054.603a.492.492 0 01-.005.036l-.092.595-.005.028-.122.585-.009.036-.158.572-.01.033-.189.55-.011.03-.218.534-.014.033-.252.517-.015.03-.283.504-.014.023-.31.497-.028.039-.342.456-.018.023-.368.44-.019.022-.395.427-.025.026-.414.394-.034.03-.442.357-.021.016-.463.34-.023.016-.484.317a.58.58 0 01-.035.021l-.5.28-.024.013-.512.254-.038.017-.533.218-.028.01-.55.192a.41.41 0 01-.043.014l-.565.148-.024.006-.577.125-.042.008-.594.082-.016.002-.6.065a.51.51 0 01-.048.004l-.594.014h-.027l-.596-.014a.484.484 0 01-.047-.004l-.597-.065-.016-.002-.593-.082-.042-.008-.58-.125-.025-.006-.565-.148-.043-.014-.547-.192-.027-.01-.532-.218a.57.57 0 01-.037-.017l-.512-.254-.024-.013-.501-.28-.036-.021-.482-.318-.022-.015-.466-.338-.023-.018-.442-.357-.033-.03-.416-.393-.03-.03-.388-.427-.014-.017-.372-.44-.02-.026-.341-.456-.027-.038-.311-.497-.013-.021-.284-.5a.31.31 0 01-.017-.035l-.25-.52-.013-.028-.22-.535a.508.508 0 01-.015-.035l-.185-.55-.009-.028-.159-.574-.009-.033-.123-.586-.007-.035-.088-.594-.003-.034-.053-.602-.002-.027-.023-.601zm1.148-.566l-.022.566.022.565.05.572.082.56.118.553.15.541.174.517.209.503.234.489.268.473.293.467.317.424.355.42.368.404.384.364.414.335.444.322.455.3.471.263.482.24.5.204.512.18.531.14.548.118.565.078.565.062.557.013.557-.013.569-.062.565-.078.543-.118.532-.14.517-.18.5-.205.482-.24.471-.263.455-.298.44-.322.414-.335.384-.365.373-.405.35-.419.32-.424.291-.466.267-.477.236-.486.205-.503.178-.518.149-.539.115-.554.088-.562.05-.565.014-.57-.014-.57-.05-.57-.088-.555-.115-.561-.149-.534-.178-.526-.205-.502-.235-.481-.266-.473-.293-.453-.321-.438-.347-.409-.375-.406-.39-.372-.41-.347-.437-.311-.456-.306-.466-.255-.481-.231-.503-.2-.526-.188-.531-.15-.541-.117-.558-.084-.567-.045-.563-.018-.563.018-.564.045-.558.084-.544.117-.53.15-.52.187-.505.201-.48.231-.467.255-.463.31-.434.307-.41.348-.39.371-.371.404-.35.413-.32.436-.293.456-.268.47-.234.482-.207.501-.174.525-.151.536-.117.558-.083.555zm3.098.566v-.021l.015-.369c0-.014.001-.028.003-.041l.042-.372a.206.206 0 01.004-.032l.063-.367a.488.488 0 01.011-.048l.096-.363.008-.028.116-.36c.005-.017.012-.032.019-.048l.145-.342a.309.309 0 01.014-.03l.167-.339a.395.395 0 01.025-.045l.194-.314a.267.267 0 01.017-.027l.218-.313a.358.358 0 01.023-.03l.235-.293a.441.441 0 01.035-.04l.266-.274.019-.018.28-.265a.342.342 0 01.032-.027l.3-.243a.556.556 0 01.04-.028l.318-.216a.41.41 0 01.03-.02l.332-.194.03-.016.343-.174a.614.614 0 01.038-.018l.354-.147a.558.558 0 01.04-.014l.368-.121.028-.008.375-.102a.714.714 0 01.055-.013l.385-.064.034-.004.387-.042.037-.002.385-.015a.444.444 0 01.045 0l.383.015.037.002.388.042.035.004.384.064c.018.003.036.008.053.012l.38.102.03.01.366.12.037.014.357.146.04.019.341.173.031.017.33.195.032.02.316.215a.541.541 0 01.035.026l.303.242a.51.51 0 01.037.032l.278.265a.184.184 0 01.018.017l.265.274.027.031.244.293a.489.489 0 01.03.04l.217.313.018.027.19.315a.527.527 0 01.027.047l.164.338.01.024.147.342a.624.624 0 01.018.05l.116.36.01.032.092.36.008.033.071.37a.489.489 0 01.008.057l.033.371.002.032.012.368v.035l-.012.372-.002.033-.033.366a.452.452 0 01-.008.056l-.07.374-.008.033-.093.362-.01.038-.117.351a.6.6 0 01-.018.046l-.146.34-.011.024-.164.337a.416.416 0 01-.02.038l-.191.326a1.099 1.099 0 01-.027.042l-.217.305a.493.493 0 01-.025.031l-.244.295a.232.232 0 01-.02.025l-.264.284-.033.033-.28.257-.03.025-.302.24-.02.015-.317.231a.53.53 0 01-.05.032l-.33.19-.037.02-.342.165-.037.016-.356.14-.024.01-.366.124a.35.35 0 01-.046.014l-.38.095-.032.007-.384.073c-.018.003-.035.006-.054.007l-.389.035c-.011.002-.022.002-.033.002l-.383.012h-.035l-.385-.012-.034-.002-.387-.035c-.018-.001-.035-.004-.053-.007l-.386-.073-.034-.008-.375-.094a.44.44 0 01-.043-.014l-.368-.125-.026-.01-.354-.14-.036-.015-.342-.165a.638.638 0 01-.036-.018l-.331-.19a.543.543 0 01-.052-.033l-.318-.23-.021-.018-.3-.24-.028-.023-.282-.257a.604.604 0 01-.031-.031l-.266-.285a.424.424 0 01-.029-.034l-.236-.295-.017-.023-.218-.305a.373.373 0 01-.027-.04l-.193-.326-.02-.037-.168-.338-.013-.028-.146-.34-.016-.045-.116-.351-.01-.032-.096-.363a.561.561 0 01-.01-.05l-.064-.374-.004-.03-.043-.366-.002-.044-.015-.371zm1.137-.325l-.012.325.012.329.039.33.056.334.086.32.103.314.13.303.15.304.171.287.195.273.213.267.235.252.252.23.275.22.283.205.288.165.306.146.323.129.333.114.337.085.342.064.343.031.351.011.35-.011.345-.03.341-.065.341-.086.33-.113.326-.129.306-.146.285-.164.283-.207.278-.22.248-.227.237-.257.22-.267.192-.268.167-.285.15-.307.13-.305.103-.31.083-.327.063-.33.029-.321.011-.338-.011-.334-.029-.327-.063-.324-.084-.327-.102-.32-.131-.306-.147-.303-.168-.277-.194-.278-.214-.258-.242-.25-.253-.241-.268-.214-.283-.193-.3-.177-.305-.155-.317-.13-.332-.11-.338-.09-.34-.057-.354-.038-.343-.013-.344.013-.352.038-.341.057-.334.09-.334.11-.314.13-.308.156-.3.177-.285.191-.264.215-.257.242-.24.246-.207.258-.197.283-.172.278-.148.301-.13.304-.103.323-.086.324-.056.326zm-50.914-55.679a.563.563 0 01.562-.563h5.926a.563.563 0 110 1.125h-5.926a.563.563 0 01-.562-.562zm2.55 2.553v-.015a.563.563 0 01.577-.548l3.375.088a.562.562 0 11-.029 1.124l-3.375-.088a.562.562 0 01-.548-.562zm-2.55 66.328a.563.563 0 01.562-.562h5.926a.563.563 0 110 1.125h-5.926a.562.562 0 01-.562-.563zm.822-29.93V96.09a9.046 9.046 0 013.238-6.945l2.066-1.733a.563.563 0 11.723.862l-2.066 1.733a7.923 7.923 0 00-2.836 6.083v9.018a7.923 7.923 0 002.836 6.083l2.066 1.733a.563.563 0 11-.723.862l-2.066-1.733a9.047 9.047 0 01-3.238-6.945z"/><path class="cls-5" d="M115.112 47.026h-5.53a2.977 2.977 0 110-5.953h5.53zm0 113.098h-5.53a2.977 2.977 0 110-5.953h5.53z"/><path class="cls-4" d="M114.55 165.654V35.544a.563.563 0 111.124 0v130.11a.563.563 0 01-1.125 0z"/><path class="cls-6" d="M105.856 157.147a3.734 3.734 0 012.674-3.575.75.75 0 01-.094-.364v-18.17a3.303 3.303 0 013.29-3.3l2.636-.068v-17.736a2.889 2.889 0 01-1.13-.45l-2.92-1.97a10.092 10.092 0 01-4.456-8.376V98.06a10.093 10.093 0 014.455-8.376l2.918-1.969a2.908 2.908 0 011.133-.45l-.002-6.514a2.453 2.453 0 01-1.275-2.151v-9.105l-1.36-.036a3.305 3.305 0 01-3.289-3.302V47.988a.75.75 0 01.094-.363 3.727 3.727 0 011.053-7.302h4.779v-4.778a.75.75 0 01.427-.677l4.791-2.277a.75.75 0 01.634-.348h79.512a.75.75 0 01.53.22l2.125 2.125a.75.75 0 01.22.53v7.648h1.59a.526.526 0 00.525-.525v-2.975a.75.75 0 01.75-.75h2.977a2.026 2.026 0 012.025 2.023V59.25a2.027 2.027 0 01-2.014 2.024l-5.853.153v15.118l5.853.154a2.027 2.027 0 012.014 2.024v43.753a2.028 2.028 0 01-2.014 2.027l-5.853.153v15.115l5.853.153a2.028 2.028 0 012.014 2.026v18.71a2.027 2.027 0 01-2.025 2.025h-2.977a.75.75 0 01-.75-.75v-2.977a.526.526 0 00-.526-.525h-1.59v7.648a.75.75 0 01-.219.53l-2.125 2.126a.75.75 0 01-.53.22h-79.512a.75.75 0 01-.634-.349l-4.79-2.274a.751.751 0 01-.428-.677v-4.783h-4.78a3.73 3.73 0 01-3.726-3.727zm10.006-3.939v.963a.75.75 0 01-.75.75h-5.53a2.227 2.227 0 100 4.453h5.53a.75.75 0 01.75.75v5.058l4.673 2.22a.768.768 0 01.098.054h78.783l1.685-1.686v-8.087a.75.75 0 01.75-.75h2.34a2.028 2.028 0 012.025 2.025v2.227h2.227a.526.526 0 00.525-.526V141.95a.526.526 0 00-.525-.526h-.02l-6.592-.173a.75.75 0 01-.73-.75v-16.575a.75.75 0 01.73-.75l6.592-.174h.02a.527.527 0 00.525-.526V78.723a.525.525 0 00-.525-.524h-.02l-6.592-.174a.75.75 0 01-.73-.75v-16.58a.75.75 0 01.73-.75l6.592-.17h.02a.525.525 0 00.525-.525V40.54a.525.525 0 00-.525-.524h-2.227v2.225a2.028 2.028 0 01-2.026 2.025h-2.34a.75.75 0 01-.75-.75V35.43l-1.684-1.686h-78.783a.814.814 0 01-.097.055l-4.674 2.22v5.055a.75.75 0 01-.75.75h-5.53a2.227 2.227 0 100 4.453h5.53a.75.75 0 01.75.75v.962a.75.75 0 01-.75.75h-5.176v17.419a1.804 1.804 0 001.8 1.802h.02l2.1.057a.75.75 0 01.73.75V78.6a.953.953 0 00.713.921.75.75 0 01.561.726l.002 7.597a.75.75 0 01-.268.574l-.153.129a.757.757 0 01-.471.176l-.158.002a1.383 1.383 0 00-.746.236l-2.915 1.966a8.594 8.594 0 00-3.795 7.133v5.078a8.596 8.596 0 003.795 7.133l2.918 1.969a1.388 1.388 0 00.745.233l.16.004a.755.755 0 01.467.175l.153.129a.751.751 0 01.268.575V132.4a.75.75 0 01-.731.75l-3.375.087h-.02a1.802 1.802 0 00-1.8 1.8v17.42h5.176a.75.75 0 01.75.75z"/><path class="cls-7" d="M63.878 0h188.567v188.567H63.878z"/></g></g></svg>