<svg xmlns="http://www.w3.org/2000/svg" viewBox="-39.068 0 555 170.594"><defs><style>.cls-1{fill:#bfd833}.cls-2{fill:#fff}.cls-3{fill:#666}</style></defs><g id="レイヤー_2" data-name="レイヤー 2"><g id="レイヤー_2-2" data-name="レイヤー 2"><path class="cls-1" d="M462.256 159.174H14.608a2.753 2.753 0 01-2.75-2.75v-100a2.753 2.753 0 012.75-2.75h25.138v1.5H14.608a1.251 1.251 0 00-1.25 1.25v100a1.251 1.251 0 001.25 1.25h447.648a1.251 1.251 0 001.25-1.25v-100a1.251 1.251 0 00-1.25-1.25h-26.638v-1.5h26.638a2.753 2.753 0 012.75 2.75v100a2.753 2.753 0 01-2.75 2.75z"/><path class="cls-1" d="M322.908 54.425a1.498 1.498 0 011.5-1.5 1.498 1.498 0 011.5 1.5 1.498 1.498 0 01-1.5 1.5 1.498 1.498 0 01-1.5-1.5zm-10 0a1.498 1.498 0 011.5-1.5 1.498 1.498 0 011.5 1.5 1.498 1.498 0 01-1.5 1.5 1.498 1.498 0 01-1.5-1.5zm-10 0a1.498 1.498 0 011.5-1.5 1.498 1.498 0 011.5 1.5 1.498 1.498 0 01-1.5 1.5 1.498 1.498 0 01-1.5-1.5zm-10 0a1.498 1.498 0 011.5-1.5 1.498 1.498 0 011.5 1.5 1.498 1.498 0 01-1.5 1.5 1.498 1.498 0 01-1.5-1.5zm-10 0a1.498 1.498 0 011.5-1.5 1.498 1.498 0 011.5 1.5 1.498 1.498 0 01-1.5 1.5 1.498 1.498 0 01-1.5-1.5zm-10 0a1.498 1.498 0 011.5-1.5 1.498 1.498 0 011.5 1.5 1.498 1.498 0 01-1.5 1.5 1.498 1.498 0 01-1.5-1.5zm-224.909-.31l-10.685-6.169v12.339l10.685-6.17z"/><rect class="cls-2" x="50.507" y="12.17" width="96.061" height="81.892" rx="1.8"/><path class="cls-1" d="M144.768 94.812h-92.46a2.553 2.553 0 01-2.551-2.55V13.97a2.553 2.553 0 012.55-2.55h92.46a2.553 2.553 0 012.55 2.55v78.292a2.553 2.553 0 01-2.55 2.55zM52.308 12.92a1.051 1.051 0 00-1.051 1.05v78.292a1.051 1.051 0 001.05 1.05h92.46a1.05 1.05 0 001.05-1.05V13.97a1.05 1.05 0 00-1.05-1.05z"/><path class="cls-3" d="M72.46 47.75c0 3.222-1.793 5.547-5.057 5.547-3.235 0-5.042-2.325-5.042-5.547 0-3.235 1.779-5.574 5.042-5.574 3.292 0 5.057 2.339 5.057 5.574zm-2.2 0c0-2.115-.896-3.81-2.857-3.81-1.946 0-2.842 1.695-2.842 3.81 0 2.102.91 3.782 2.87 3.782 1.975 0 2.83-1.68 2.83-3.782zm6.2 4.497v3.81h-2.143V45.159h2.101v1.023h.028a2.99 2.99 0 012.438-1.205c2.184 0 3.361 1.835 3.361 4.16 0 2.34-1.232 4.16-3.403 4.16a2.848 2.848 0 01-2.354-1.05zm3.656-3.11c0-1.442-.56-2.549-1.806-2.549-1.247 0-1.99 1.065-1.99 2.549 0 1.47.743 2.563 1.99 2.563 1.246 0 1.806-1.12 1.806-2.563zm11.089.631h-5.463c.126 1.358 1.246 1.932 2.62 1.932a6.284 6.284 0 001.905-.294l.238 1.57a8.656 8.656 0 01-2.396.321c-2.843 0-4.496-1.694-4.496-4.145a3.869 3.869 0 014.006-4.175c2.312 0 3.586 1.54 3.586 3.936zm-3.628-3.348a1.882 1.882 0 00-1.835 1.862h3.46a1.64 1.64 0 00-1.625-1.862zm10.094-1.415l-.098 1.639a2.972 2.972 0 00-.616-.056c-1.05 0-1.933.687-1.933 2.69v3.837H92.88V45.16h2.1v1.037h.029a2.104 2.104 0 012.087-1.22c.196 0 .406.015.574.03zm5.754 3.109v-.196c0-.826-.532-1.33-1.765-1.33a6.248 6.248 0 00-2.046.392l-.391-1.54a8.532 8.532 0 012.59-.463c2.663 0 3.754 1.12 3.754 3.04v3.292a10.296 10.296 0 00.127 1.806h-1.905a5.92 5.92 0 01-.168-.98h-.028a2.544 2.544 0 01-2.297 1.162c-1.387 0-2.886-.63-2.886-2.478 0-2.326 2.297-2.705 5.015-2.705zm0 1.318h-.28c-1.457 0-2.648.237-2.648 1.303a1.033 1.033 0 001.163 1.078 1.678 1.678 0 001.765-1.822zm3.315-2.662v-1.61h1.219v-2.116h2.143v2.115h1.653v1.61h-1.653v3.56c0 1.077.14 1.245.896 1.245a5.24 5.24 0 00.715-.055v1.596c-.406.042-.911.07-1.387.07-1.99 0-2.367-.798-2.367-2.297V46.77zm6.427-4.693h2.143v1.864h-2.143zm0 3.082h2.143v7.956h-2.143zm11.988 3.964a4.057 4.057 0 11-8.11 0 4.056 4.056 0 118.11 0zm-2.129 0c0-1.499-.63-2.535-1.919-2.535-1.302 0-1.92 1.036-1.92 2.535 0 1.555.631 2.564 1.92 2.564s1.92-1.01 1.92-2.564zm3.875-3.963h2.101v1.064h.028a2.625 2.625 0 012.41-1.247 2.739 2.739 0 012.94 2.9v5.238h-2.142v-4.44c0-1.303-.294-2.087-1.47-2.087-.828 0-1.724.588-1.724 2.213v4.314h-2.143zM93.658 73.525h-1.667l.393-2.83h-1.387v-1.527h1.597l.28-2.045h-1.597v-1.527h1.807l.393-2.83h1.667l-.407 2.83h1.583l.392-2.83h1.653l-.392 2.83h1.232v1.527h-1.442l-.267 2.045h1.402v1.528h-1.612l-.391 2.829h-1.667l.406-2.83h-1.57zm.87-6.402l-.267 2.045h1.583l.28-2.045zm10.234-4.356v10.758h-2.2V64.84l-2.016 1.19-.77-1.638 2.745-1.625zm116 86.042V138.05h4.174c1.933 0 3.74.715 3.74 2.914a2.486 2.486 0 01-1.821 2.507v.028c.672.239.98.658 1.344 1.947.337 1.149.66 2.199.995 3.362h-2.353c-.196-.77-.532-2.144-.729-2.816-.322-1.163-.588-1.527-2.129-1.527h-1.022v4.343zm2.199-8.993v2.885h1.442c1.205 0 2.074-.322 2.074-1.442 0-1.205-1.01-1.443-2.003-1.443zm14.73 5.645h-5.462c.126 1.359 1.246 1.933 2.619 1.933a6.284 6.284 0 001.905-.294l.238 1.57a8.656 8.656 0 01-2.395.32c-2.844 0-4.497-1.694-4.497-4.145a3.87 3.87 0 014.007-4.175c2.311 0 3.585 1.541 3.585 3.937zm-3.627-3.348a1.882 1.882 0 00-1.835 1.863h3.46a1.64 1.64 0 00-1.625-1.863zm7.446 5.827v3.81h-2.143v-10.897h2.1v1.022h.03a2.99 2.99 0 012.437-1.205c2.184 0 3.361 1.835 3.361 4.16 0 2.34-1.232 4.16-3.403 4.16a2.848 2.848 0 01-2.354-1.05zm3.656-3.11c0-1.442-.56-2.549-1.807-2.549-1.247 0-1.989 1.065-1.989 2.55 0 1.47.742 2.563 1.99 2.563 1.246 0 1.806-1.12 1.806-2.564zm11.089.631h-5.463c.126 1.359 1.246 1.933 2.62 1.933a6.284 6.284 0 001.904-.294l.239 1.57a8.656 8.656 0 01-2.396.32c-2.844 0-4.496-1.694-4.496-4.145a3.869 3.869 0 014.006-4.175c2.312 0 3.586 1.541 3.586 3.937zm-3.628-3.348a1.882 1.882 0 00-1.835 1.863h3.46a1.64 1.64 0 00-1.625-1.863zm9.87 1.695v-.196c0-.827-.532-1.33-1.765-1.33a6.248 6.248 0 00-2.045.391l-.392-1.54a8.532 8.532 0 012.59-.463c2.663 0 3.755 1.121 3.755 3.04v3.292a10.297 10.297 0 00.127 1.807h-1.906a5.919 5.919 0 01-.168-.98h-.028a2.544 2.544 0 01-2.297 1.161c-1.386 0-2.885-.63-2.885-2.478 0-2.325 2.296-2.704 5.014-2.704zm0 1.317h-.28c-1.457 0-2.648.237-2.648 1.303a1.033 1.033 0 001.163 1.078 1.678 1.678 0 001.765-1.821zm3.316-2.662v-1.61h1.218v-2.115h2.143v2.115h1.653v1.61h-1.653v3.559c0 1.078.14 1.246.896 1.246a5.24 5.24 0 00.715-.056v1.597c-.406.042-.91.07-1.386.07-1.99 0-2.368-.799-2.368-2.298v-4.118z"/><rect class="cls-2" x="160.234" y="12.17" width="96.061" height="81.892" rx="1.8"/><path class="cls-1" d="M254.494 94.812h-92.46a2.553 2.553 0 01-2.55-2.55V13.97a2.553 2.553 0 012.55-2.55h92.46a2.552 2.552 0 012.55 2.55v78.292a2.552 2.552 0 01-2.55 2.55zm-92.46-81.892a1.051 1.051 0 00-1.05 1.05v78.292a1.051 1.051 0 001.05 1.05h92.46a1.05 1.05 0 001.05-1.05V13.97a1.05 1.05 0 00-1.05-1.05z"/><path class="cls-3" d="M182.187 47.75c0 3.222-1.793 5.547-5.057 5.547-3.235 0-5.042-2.325-5.042-5.547 0-3.235 1.778-5.574 5.042-5.574 3.292 0 5.057 2.339 5.057 5.574zm-2.2 0c0-2.115-.896-3.81-2.857-3.81-1.946 0-2.843 1.695-2.843 3.81 0 2.102.91 3.782 2.871 3.782 1.975 0 2.83-1.68 2.83-3.782zm6.2 4.497v3.81h-2.143V45.159h2.1v1.023h.029a2.99 2.99 0 012.437-1.205c2.185 0 3.362 1.835 3.362 4.16 0 2.34-1.233 4.16-3.404 4.16a2.848 2.848 0 01-2.353-1.05zm3.656-3.11c0-1.442-.56-2.549-1.807-2.549-1.247 0-1.99 1.065-1.99 2.549 0 1.47.743 2.563 1.99 2.563 1.246 0 1.807-1.12 1.807-2.563zm11.089.631h-5.463c.126 1.358 1.246 1.932 2.619 1.932a6.284 6.284 0 001.905-.294l.239 1.57a8.656 8.656 0 01-2.396.321c-2.844 0-4.496-1.694-4.496-4.145a3.869 3.869 0 014.006-4.175c2.311 0 3.586 1.54 3.586 3.936zm-3.628-3.348a1.882 1.882 0 00-1.835 1.862h3.46a1.64 1.64 0 00-1.625-1.862zm10.094-1.415l-.098 1.639a2.972 2.972 0 00-.616-.056c-1.051 0-1.934.687-1.934 2.69v3.837h-2.143V45.16h2.101v1.037h.028a2.104 2.104 0 012.087-1.22c.197 0 .407.015.575.03zm5.753 3.109v-.196c0-.826-.532-1.33-1.764-1.33a6.248 6.248 0 00-2.046.392l-.392-1.54a8.532 8.532 0 012.591-.463c2.662 0 3.754 1.12 3.754 3.04v3.292a10.297 10.297 0 00.127 1.806h-1.905a5.919 5.919 0 01-.168-.98h-.029a2.544 2.544 0 01-2.296 1.162c-1.387 0-2.886-.63-2.886-2.478 0-2.326 2.297-2.705 5.014-2.705zm0 1.318h-.28c-1.457 0-2.647.237-2.647 1.303a1.033 1.033 0 001.163 1.078 1.678 1.678 0 001.764-1.822zm3.316-2.662v-1.61h1.219v-2.116h2.142v2.115h1.654v1.61h-1.654v3.56c0 1.077.14 1.245.897 1.245a5.24 5.24 0 00.715-.055v1.596c-.407.042-.912.07-1.387.07-1.99 0-2.367-.798-2.367-2.297V46.77zm6.427-4.693h2.142v1.864h-2.142zm0 3.082h2.142v7.956h-2.142zm11.988 3.964a4.057 4.057 0 11-8.11 0 4.056 4.056 0 118.11 0zm-2.129 0c0-1.499-.63-2.535-1.919-2.535-1.303 0-1.92 1.036-1.92 2.535 0 1.555.63 2.564 1.92 2.564 1.288 0 1.919-1.01 1.919-2.564zm3.875-3.963h2.1v1.064h.029a2.625 2.625 0 012.41-1.247 2.739 2.739 0 012.94 2.9v5.238h-2.142v-4.44c0-1.303-.294-2.087-1.47-2.087-.828 0-1.724.588-1.724 2.213v4.314h-2.143zm-34.076 28.365h-1.667l.392-2.83h-1.386v-1.527h1.596l.28-2.045h-1.596v-1.527h1.807l.392-2.83h1.667l-.406 2.83h1.583l.392-2.83h1.653l-.393 2.83h1.233v1.527h-1.443l-.265 2.045h1.4v1.528h-1.611l-.392 2.829h-1.667l.406-2.83h-1.569zm.869-6.402l-.267 2.045h1.583l.28-2.045zm12.869 4.637v1.765h-7.215v-1.793c3.824-3.363 4.874-4.58 4.874-5.883a1.505 1.505 0 00-1.667-1.5 4.715 4.715 0 00-2.465.827l-.686-1.568a6.063 6.063 0 013.32-1.023c2.213 0 3.697 1.134 3.697 3.222 0 1.919-1.204 3.235-4.341 5.953z"/><rect class="cls-2" x="339.473" y="12.17" width="96.061" height="81.892" rx="1.8"/><path class="cls-1" d="M433.733 94.812h-92.46a2.552 2.552 0 01-2.55-2.55V13.97a2.552 2.552 0 012.55-2.55h92.46a2.553 2.553 0 012.551 2.55v78.292a2.553 2.553 0 01-2.55 2.55zm-92.46-81.892a1.05 1.05 0 00-1.05 1.05v78.292a1.05 1.05 0 001.05 1.05h92.46a1.052 1.052 0 001.051-1.05V13.97a1.052 1.052 0 00-1.05-1.05z"/><path class="cls-3" d="M361.427 47.75c0 3.222-1.793 5.547-5.057 5.547-3.235 0-5.042-2.325-5.042-5.547 0-3.235 1.779-5.574 5.042-5.574 3.292 0 5.057 2.339 5.057 5.574zm-2.2 0c0-2.115-.896-3.81-2.857-3.81-1.946 0-2.843 1.695-2.843 3.81 0 2.102.91 3.782 2.872 3.782 1.974 0 2.829-1.68 2.829-3.782zm6.2 4.497v3.81h-2.143V45.159h2.1v1.023h.03a2.99 2.99 0 012.437-1.205c2.184 0 3.361 1.835 3.361 4.16 0 2.34-1.232 4.16-3.403 4.16a2.848 2.848 0 01-2.354-1.05zm3.656-3.11c0-1.442-.56-2.549-1.807-2.549-1.247 0-1.989 1.065-1.989 2.549 0 1.47.742 2.563 1.99 2.563 1.246 0 1.806-1.12 1.806-2.563zm11.089.631h-5.463c.126 1.358 1.246 1.932 2.62 1.932a6.284 6.284 0 001.904-.294l.239 1.57a8.656 8.656 0 01-2.396.321c-2.844 0-4.496-1.694-4.496-4.145a3.869 3.869 0 014.006-4.175c2.311 0 3.586 1.54 3.586 3.936zm-3.628-3.348a1.882 1.882 0 00-1.835 1.862h3.46a1.64 1.64 0 00-1.625-1.862zm10.094-1.415l-.098 1.639a2.972 2.972 0 00-.616-.056c-1.05 0-1.934.687-1.934 2.69v3.837h-2.142V45.16h2.1v1.037h.029a2.104 2.104 0 012.087-1.22c.196 0 .406.015.574.03zm5.754 3.109v-.196c0-.826-.533-1.33-1.765-1.33a6.249 6.249 0 00-2.046.392l-.391-1.54a8.532 8.532 0 012.59-.463c2.662 0 3.754 1.12 3.754 3.04v3.292a10.297 10.297 0 00.127 1.806h-1.905a5.919 5.919 0 01-.168-.98h-.028a2.544 2.544 0 01-2.297 1.162c-1.387 0-2.886-.63-2.886-2.478 0-2.326 2.297-2.705 5.015-2.705zm0 1.318h-.28c-1.458 0-2.648.237-2.648 1.303a1.033 1.033 0 001.163 1.078 1.678 1.678 0 001.765-1.822zm3.315-2.662v-1.61h1.219v-2.116h2.142v2.115h1.654v1.61h-1.654v3.56c0 1.077.141 1.245.897 1.245a5.24 5.24 0 00.715-.055v1.596c-.406.042-.911.07-1.387.07-1.99 0-2.367-.798-2.367-2.297V46.77zm6.427-4.693h2.142v1.864h-2.142zm0 3.082h2.142v7.956h-2.142zm11.988 3.964a4.057 4.057 0 11-8.11 0 4.056 4.056 0 118.11 0zm-2.129 0c0-1.499-.63-2.535-1.919-2.535-1.302 0-1.92 1.036-1.92 2.535 0 1.555.631 2.564 1.92 2.564 1.288 0 1.92-1.01 1.92-2.564zm3.875-3.963h2.1v1.064h.03a2.625 2.625 0 012.408-1.247 2.739 2.739 0 012.942 2.9v5.238h-2.143v-4.44c0-1.303-.294-2.087-1.47-2.087-.828 0-1.724.588-1.724 2.213v4.314h-2.143zm-35.433 28.365h-1.667l.392-2.83h-1.387v-1.527h1.597l.28-2.045h-1.596v-1.527h1.806l.393-2.83h1.667l-.406 2.83h1.583l.391-2.83h1.654l-.393 2.83h1.233v1.527h-1.443l-.265 2.045h1.4v1.528h-1.611l-.392 2.829h-1.667l.406-2.83h-1.57zm.869-6.402l-.267 2.045h1.583l.28-2.045zm9.702-4.356l3.277 8.587h.029v-8.587h2.06v10.758h-3.28l-3.402-8.713h-.029v8.713h-2.045V62.767z"/><path fill="none" d="M0 0h476.864v170.594H0z"/></g></g></svg>