<svg xmlns="http://www.w3.org/2000/svg" viewBox="0 0 364 168.59593"><defs><style>.cls-1{fill:none;}.cls-2{fill:#fff;}.cls-3{fill:#9e9e9f;}.cls-4{fill:#c8c9ca;}.cls-5{fill:#e5e5e6;}.cls-6{fill:#ddd583;}.cls-7{fill:#3e3a39;}.cls-8{fill:#231815;}.cls-9{fill:#bfd833;}</style></defs><title>アセット 1601</title><g id="レイヤー_2" data-name="レイヤー 2"><g id="レイヤー_2-2" data-name="レイヤー 2"><rect class="cls-1" width="364" height="168.59593"/><path class="cls-2" d="M211.9001,40.09h96.09063a3.22481,3.22481,0,0,1,3.22481,3.22481v96.08962a3.22481,3.22481,0,0,1-3.22481,3.22481H211.8985a3.22322,3.22322,0,0,1-3.22322-3.22322V43.31482A3.22482,3.22482,0,0,1,211.9001,40.09Z"/><path class="cls-3" d="M307.99073,140.979h-96.0912a1.576,1.576,0,0,1-1.57413-1.57458V43.31322a1.57566,1.57566,0,0,1,1.57413-1.57413h96.0912a1.57554,1.57554,0,0,1,1.57355,1.57413v96.0912A1.57593,1.57593,0,0,1,307.99073,140.979Zm-96.0912-98.67113a1.00654,1.00654,0,0,0-1.00536,1.00535v96.0912a1.00693,1.00693,0,0,0,1.00536,1.00581h96.0912a1.00644,1.00644,0,0,0,1.00478-1.00581V43.31322a1.006,1.006,0,0,0-1.00478-1.00535Z"/><path class="cls-3" d="M233.82552,91.36377a.28457.28457,0,0,1-.28438-.28439v-23.946a.28439.28439,0,0,1,.56877,0v23.946A.28457.28457,0,0,1,233.82552,91.36377Z"/><path class="cls-3" d="M233.82552,91.506H220.04728a.4263.4263,0,0,1-.42658-.42658v-23.946a.42594.42594,0,0,1,.42658-.42658h13.77824l.0256.00046.14833.009a.44055.44055,0,0,1,.04778.00546l.14765.02559a.50617.50617,0,0,1,.05062.01217l.14663.04448c.01332.00444.02662.00887.03993.01445l.14947.06222a.40068.40068,0,0,1,.04334.021l.14822.08282a.29275.29275,0,0,1,.04221.02662l.14674.10556c.011.0083.02161.01672.03219.02616l.14777.12934c.011.01.02219.02116.03276.03219l.14492.15835c.00888.01.01775.02059.0256.03117l.14162.18769c.00831.01161.01661.02332.02389.03549l.13434.22114c.00672.01161.01343.02332.01889.03492l.12558.25777.01445.0339.11387.29769c.00443.01172.0083.02276.0116.03447l.09783.33819c.0033.01172.006.02389.0083.03561l.07667.38551.005.03379.04994.431a.33259.33259,0,0,1,.00227.03333l.01775.47993.03947,2.95715.02161,2.94726.00615,2.8666-.00615,2.86831-.02161,2.946-.0389,2.95-.01832.48824a.3105.3105,0,0,1-.00227.03276l-.04994.43215c-.00114.0116-.00342.02275-.00557.03435l-.07611.385-.0083.035-.09783.33933a.35218.35218,0,0,1-.0116.03447l-.11387.29656-.01445.0339-.12558.25776a.31967.31967,0,0,1-.01889.03493l-.13434.22113a.42535.42535,0,0,1-.02389.03549l-.14162.18781c-.00842.011-.01729.02162-.02673.0322l-.14493.1572a.40383.40383,0,0,1-.0306.03049l-.14776.13059c-.011.0099-.02275.01888-.03436.02776l-.14663.10442a.32839.32839,0,0,1-.0389.02491l-.1489.084c-.01388.00774-.02833.01445-.04278.02105l-.14935.06279a.38379.38379,0,0,1-.04505.01615l-.14663.04334a.3552.3552,0,0,1-.04778.01161l-.14765.02559a.33308.33308,0,0,1-.04778.00546l-.14833.009Zm-13.35166-.85315h13.33893l.11159-.0066.09942-.01775.1-.02946.10556-.04448.10716-.06051.11-.07838.11443-.10158.11615-.12616.11546-.15322.11273-.18611.10886-.22329.10056-.26266.08782-.30441.06939-.35048.04561-.39825.01718-.46218.0389-2.936.02162-2.94225.00614-2.86376-.00614-2.86217-.02162-2.94327-.0389-2.94327-.01718-.45388-.04561-.39712-.06939-.351-.08782-.30384-.101-.2638-.1084-.2233-.11273-.18553-.116-.15436-.11558-.12616-.11443-.101-.11-.079-.10545-.05881-.10727-.04448-.101-.03048-.09839-.01729-.11159-.0066H220.47386Z"/><path class="cls-3" d="M238.66292,134.69147a7.5398,7.5398,0,1,1,7.54065-7.53951A7.54779,7.54779,0,0,1,238.66292,134.69147Zm0-14.51082a6.971,6.971,0,1,0,6.97188,6.97131A6.97842,6.97842,0,0,0,238.66292,120.18065Z"/><path class="cls-3" d="M225.765,139.0445H215.12446a2.86762,2.86762,0,0,1-2.865-2.8633V118.12329a2.86835,2.86835,0,0,1,2.865-2.865H225.765a2.86785,2.86785,0,0,1,2.86444,2.865V136.1812A2.86712,2.86712,0,0,1,225.765,139.0445Zm-10.64056-23.21745a2.29885,2.29885,0,0,0-2.29624,2.29624V136.1812a2.29813,2.29813,0,0,0,2.29624,2.29453H225.765a2.29764,2.29764,0,0,0,2.29567-2.29453V118.12329a2.29837,2.29837,0,0,0-2.29567-2.29624Z"/><path class="cls-3" d="M259.94461,139.36722a11.26033,11.26033,0,0,1-11.24767-11.24767V126.1838a11.2479,11.2479,0,0,1,22.49579,0v1.93575A11.26042,11.26042,0,0,1,259.94461,139.36722Zm0-23.86175a10.69065,10.69065,0,0,0-10.6789,10.67833v1.93575a10.67913,10.67913,0,0,0,21.35825,0V126.1838A10.69074,10.69074,0,0,0,259.94461,115.50547Z"/><path class="cls-3" d="M259.94461,62.7653a10.10012,10.10012,0,1,1,10.10115-10.10012A10.11119,10.11119,0,0,1,259.94461,62.7653Zm0-19.34708a9.247,9.247,0,1,0,9.248,9.247A9.25669,9.25669,0,0,0,259.94461,43.41822Z"/><path class="cls-3" d="M286.06245,91.36377a.28493.28493,0,0,1-.28439-.28439v-23.946a.28439.28439,0,0,1,.56877,0v23.946A.28456.28456,0,0,1,286.06245,91.36377Z"/><path class="cls-3" d="M299.84183,91.506H286.06245l-.02548-.001-.1472-.009a.32953.32953,0,0,1-.04778-.00546l-.14776-.02559a.3593.3593,0,0,1-.04778-.01161l-.14663-.04334a.38314.38314,0,0,1-.04505-.01615l-.14936-.06279c-.01444-.0066-.02889-.01331-.04276-.02105l-.14891-.084a.31854.31854,0,0,1-.03879-.02491l-.14663-.10442c-.01172-.00888-.02343-.01786-.03447-.02776l-.14777-.13059a.40742.40742,0,0,1-.03059-.03049l-.14493-.1572c-.00944-.01058-.01831-.02116-.02662-.0322l-.14162-.18781a.37743.37743,0,0,1-.02389-.03549L284.244,90.274a.34147.34147,0,0,1-.01888-.03493l-.12558-.25776-.01445-.0339-.11387-.29656a.34954.34954,0,0,1-.0116-.03447l-.09772-.33933c-.00341-.01171-.00614-.02332-.00841-.035l-.07611-.385c-.00216-.0116-.00443-.02275-.00546-.03435l-.05-.43215a.308.308,0,0,1-.00216-.03276l-.01786-.47879-.03936-2.95829-.02172-2.94669-.00615-2.8682.00615-2.86615.02172-2.94714.03879-2.94885.01843-.48937a.32932.32932,0,0,1,.00216-.03333l.05-.431.0049-.03379.07667-.38551c.00227-.01172.005-.02389.00841-.03561l.09772-.33819c.0033-.01171.00716-.02275.0116-.03447l.11387-.29769.01445-.0339.12558-.25777c.00557-.0116.01217-.02331.01888-.03492l.13446-.22114c.00717-.01217.01547-.02388.02389-.03549l.14162-.18769c.00775-.01058.01661-.02116.02548-.03117l.145-.15835c.01047-.011.02161-.02218.03276-.03219l.14777-.12934c.01047-.00944.021-.01786.03219-.02616l.14664-.10556a.29254.29254,0,0,1,.04219-.02662l.14834-.08282a.40159.40159,0,0,1,.04334-.021l.14936-.06222c.01331-.00558.02662-.01.04-.01445l.14664-.04448a.50322.50322,0,0,1,.0505-.01217l.14776-.02559a.43435.43435,0,0,1,.04778-.00546l.1472-.009.02548-.00046h13.77938a.42594.42594,0,0,1,.42658.42658v23.946A.4263.4263,0,0,1,299.84183,91.506Zm-13.76607-.85315h13.33949V67.55992H286.07576l-.111.0066-.09828.01729-.10113.03048-.10715.04448-.10557.05881-.11.079-.11444.101-.11546.12616-.11613.15436-.11274.18553-.10829.2233-.10113.2638-.08771.30384-.0695.351-.0455.39712-.01729.46332-.03879,2.93485-.02173,2.94328-.00614,2.86171.00614,2.86433.02173,2.94225.03879,2.9443.01729.45274.0455.39825.0695.35048.08771.30441.10056.26266.10886.22329.11274.18611.11557.15322.116.12616.11444.10158.11.07838.10716.06051.10556.04448.1.02946.09942.01775Z"/><path class="cls-4" d="M224.8907,93.6806a2.19152,2.19152,0,0,0-.74588-.13c-.30668,0-.621.10613-.621.44546,0,.27438.1811.406.68264.60267.60927.25822.96145.49483.96145,1.06645,0,.69321-.59209.9776-1.21307.9776a2.87557,2.87557,0,0,1-1.04256-.17336l.12718-.47936a2.42346,2.42346,0,0,0,.90651.20726c.39984,0,.66921-.16449.66921-.49165,0-.29383-.26152-.4549-.75475-.65033-.57218-.22944-.89821-.51826-.89821-1.01036,0-.67263.596-.95543,1.15529-.95543a2.71742,2.71742,0,0,1,.88318.135Zm1.88468,2.96216a1.32977,1.32977,0,1,0-1.2431-1.32694,1.187,1.187,0,0,0,1.2431,1.32694m0-2.23629c.47379,0,.69265.3788.69265.90935,0,.542-.21886.91981-.69265.91981-.46821,0-.68764-.37778-.68764-.91981,0-.53055.21329-.90935.68764-.90935m1.65854-.36151v2.56276h.547V95.18136c0-.56434.32386-.77489.62656-.77489.41327,0,.52441.27278.52441.7138v1.48745h.56206v-1.6963a.86653.86653,0,0,0-.937-.92255.85568.85568,0,0,0-.7766.41316h-.01046V94.045Zm3.08433,0H230.914l1.01252,2.48552-.415,1.00093h.57491l1.39144-3.48645h-.57821l-.68821,1.88126h-.00672Zm26.87714,2.56276h2.038v-.47879h-1.46925v-1.072h1.30363v-.46377h-1.30363V93.6095h1.42364V93.15h-1.99241Zm2.48235-2.56276v2.56276h.54931V95.18136c0-.56434.31271-.77489.62656-.77489.41816,0,.52874.27278.52874.7138v1.48745h.54271v-1.6963a.93135.93135,0,0,0-1.70528-.50939h-.00717V94.045Zm-24.92092,0v2.56276h.55819V95.18136c0-.56434.32045-.77489.61985-.77489.42214,0,.53715.27278.53715.7138v1.48745h.54989v-1.6963a.8609.8609,0,0,0-.92767-.92255.87648.87648,0,0,0-.78809.41316h-.00728V94.045Zm27.44148.4177h.4243v1.438c0,.46991.105.72427.67992.72427.1489,0,.30941-.0083.4243-.01718v-.421a1.8579,1.8579,0,0,1-.25993.02047c-.2638,0-.2977-.06051-.2977-.40985V94.46266h.55991V94.045h-.55991V93.3812h-.54659V94.045h-.4243Zm4.09026,1.01469V95.243c0-.7626-.3755-1.25414-1.11251-1.25414a1.20494,1.20494,0,0,0-1.20307,1.33468,1.24567,1.24567,0,0,0,1.3597,1.31921,2.0392,2.0392,0,0,0,.76921-.11558l-.07167-.40712a1.79148,1.79148,0,0,1-.64373.11557.7901.7901,0,0,1-.877-.75828Zm-1.77911-.40315a.68376.68376,0,0,1,.6666-.69265.5952.5952,0,0,1,.59709.67923v.01342h-1.26369m3.48986-1.08089a.87281.87281,0,0,0-.09556-.00444.66038.66038,0,0,0-.65989.39268h-.0133V94.045h-.53488v2.56276h.55547V95.24745c0-.61712.27051-.826.60426-.826.04834,0,.08554,0,.11728.00114Zm-30.7019.46935h.41929v1.438c0,.46991.10944.72427.69982.72427.1422,0,.30554-.0083.40883-.01718v-.421a1.69727,1.69727,0,0,1-.24719.02047c-.26766,0-.29485-.06051-.29485-.40985V94.46266h.54375V94.045h-.54375V93.3812h-.56661V94.045h-.41929Zm10.68492,0h.43443v1.438c0,.46991.09328.72427.6881.72427.145,0,.2994-.0083.42055-.01718v-.421a1.86944,1.86944,0,0,1-.2605.02047c-.26607,0-.29781-.06051-.29781-.40985V94.46266h.55888V94.045h-.55888V93.3812h-.55034V94.045h-.43443Zm-6.58864,1.01469V95.243c0-.7626-.3788-1.25414-1.10477-1.25414a1.20438,1.20438,0,0,0-1.21411,1.33468,1.24319,1.24319,0,0,0,1.35686,1.31921,2.01932,2.01932,0,0,0,.76875-.11558l-.07325-.40712a1.83907,1.83907,0,0,1-.64715.11557.79129.79129,0,0,1-.86647-.75828Zm-1.78014-.40315a.686.686,0,0,1,.67537-.69265.59191.59191,0,0,1,.58378.67923v.01342h-1.25915m16.12.40315V95.243c0-.7626-.37493-1.25414-1.10091-1.25414a1.21013,1.21013,0,0,0-1.21865,1.33468,1.24982,1.24982,0,0,0,1.36869,1.31921,1.97272,1.97272,0,0,0,.75919-.11558l-.07769-.40712a1.69132,1.69132,0,0,1-.62827.11557.80119.80119,0,0,1-.89149-.75828Zm-1.78913-.40315a.697.697,0,0,1,.68822-.69265.59871.59871,0,0,1,.59152.67923v.01342h-1.27974M244.3273,93.99331c-.04891-.00284-.0695-.00444-.10385-.00444a.66464.66464,0,0,0-.66933.39268h-.00728V94.045H243.012v2.56276h.54488V95.24745c0-.61712.28165-.826.61882-.826.04778,0,.07713,0,.1116.00114Zm25.24466.46935h.35992v1.438c0,.46991.11114.72427.68606.72427.15106,0,.3127-.0083.42987-.01718v-.421a1.79763,1.79763,0,0,1-.26379.02047c-.2489,0-.30225-.06051-.30225-.40985V94.46266h.57332V94.045h-.57332V93.3812h-.54989V94.045H269.572Zm3.34495.53146c-.86931,0-1.6086.13776-1.6086.877,0,.58823.44546.7716.87647.7716a.82178.82178,0,0,0,.77319-.39552h.01217a1.77433,1.77433,0,0,0,.0562.36048h.48323a4.88431,4.88431,0,0,1-.03174-.59436V94.932c0-.616-.37436-.94314-1.11252-.94314a2.54183,2.54183,0,0,0-.80652.14766l.115.40769a1.85621,1.85621,0,0,1,.656-.13775c.40929,0,.58709.18667.58709.52554Zm0,.35992v.20168a.63012.63012,0,0,1-.661.69152.37526.37526,0,0,1-.42157-.4c0-.39826.46492-.49324.97874-.49324ZM246.093,94.99412c-.8593,0-1.603.13776-1.603.877,0,.58823.43887.7716.88262.7716a.83693.83693,0,0,0,.77319-.39552h.00944a2.27137,2.27137,0,0,0,.05164.36048h.48153a3.61734,3.61734,0,0,1-.04164-.59436V94.932c0-.616-.35992-.94314-1.09192-.94314a2.42893,2.42893,0,0,0-.80538.14766l.10773.40769a1.84823,1.84823,0,0,1,.65146-.13775c.4094,0,.58436.18667.58436.52554Zm0,.35992v.20168a.62506.62506,0,0,1-.646.69152.38105.38105,0,0,1-.436-.4c0-.39826.47105-.49324.98261-.49324Zm28.52737-2.28225h-.55591v.51269h.55591Zm-.00887.97317h-.547v2.56276h.547Zm-22.86686-.97317h-.56433v.51269h.56433Zm-.01342.97317h-.55091v2.56276h.55091Zm23.4668,0v2.56276h.54943V95.18136c0-.56434.32374-.77489.62645-.77489.415,0,.52542.27278.52542.7138v1.48745h.55274v-1.6963a.85578.85578,0,0,0-.926-.92255.87959.87959,0,0,0-.78764.41316H275.734V94.045Zm2.81951,0v2.56276h.55591v-1.452c0-.53874.27222-.74929.57321-.74929.415,0,.49494.25776.49494.68434v1.51691h.54932V95.0403a.55688.55688,0,0,1,.561-.63383c.40269,0,.486.29052.486.7138v1.48745h.55989v-1.6963a.84025.84025,0,0,0-.9181-.92255.86447.86447,0,0,0-.79435.41316h-.02161a.74732.74732,0,0,0-.75157-.41316.79786.79786,0,0,0-.742.422h-.01444V94.045Zm6.48524,1.43239V95.243c0-.7626-.3738-1.25414-1.09751-1.25414a1.209,1.209,0,0,0-1.21751,1.33468,1.24625,1.24625,0,0,0,1.36972,1.31921,1.99917,1.99917,0,0,0,.757-.11558l-.07383-.40712a1.7645,1.7645,0,0,1-.64771.11557.80062.80062,0,0,1-.8742-.75828Zm-1.784-.40315a.69662.69662,0,0,1,.6865-.69265.60177.60177,0,0,1,.58652.67923v.01342h-1.273M284.9199,94.045v2.56276h.53829V95.18136c0-.56434.31544-.77489.62871-.77489.43273,0,.5293.27278.5293.7138v1.48745h.55546v-1.6963a.94.94,0,0,0-1.71848-.50939h-.01172V94.045Zm2.5184.4177h.41771v1.438c0,.46991.106.72427.68423.72427.15277,0,.31112-.0083.42385-.01718v-.421a1.82108,1.82108,0,0,1-.2522.02047c-.25219,0-.295-.06051-.295-.40985V94.46266h.54716V94.045h-.54716V93.3812H287.856V94.045h-.41771Zm2.83055,2.14506h.58208V93.15h-.58208Zm-55.44457,0h.5582V93.15h-.5582ZM291.41913,94.045v2.56276h.54716V95.18136c0-.56434.31714-.77489.62644-.77489.42829,0,.52714.27278.52714.7138v1.48745h.5566v-1.6963a.93648.93648,0,0,0-1.713-.50939h-.01387V94.045Zm4.57132.03833a1.55688,1.55688,0,0,0-.58378-.09442,1.25493,1.25493,0,0,0-1.32865,1.33468,1.22619,1.22619,0,0,0,1.33138,1.31921,1.29787,1.29787,0,0,0,.58105-.105l-.089-.39825a.90625.90625,0,0,1-.45434.09612.92042.92042,0,0,1-.0183-1.82916,1.11874,1.11874,0,0,1,.45819.09Zm-47.04086,0a1.598,1.598,0,0,0-.58822-.09442,1.25788,1.25788,0,0,0-1.33525,1.33468,1.22954,1.22954,0,0,0,1.33525,1.31921,1.32663,1.32663,0,0,0,.58822-.105l-.096-.39825a.9171.9171,0,0,1-.45888.09612.92085.92085,0,0,1-.00887-1.82916,1.12894,1.12894,0,0,1,.45331.09Zm47.5018,2.52443h.631v-.64043h-.631Z"/><polygon class="cls-4" points="253.62 96.609 254.58 94.038 253.989 94.038 253.325 96.104 253.315 96.104 252.641 94.038 252.029 94.038 252.992 96.609 253.62 96.609"/><path class="cls-4" d="M281.94558,70.33313a3.66019,3.66019,0,1,0-3.65811,3.6076A3.63814,3.63814,0,0,0,281.94558,70.33313Zm-.4871,0a3.17338,3.17338,0,1,1-3.171-3.23812A3.18523,3.18523,0,0,1,281.45848,70.33313Z"/><path class="cls-4" d="M249.27129,71.95618a2.19288,2.19288,0,0,1-.65489-1.6185,2.35233,2.35233,0,0,1,.65489-1.69914,2.69152,2.69152,0,0,1,3.52194,0,2.35268,2.35268,0,0,1,.646,1.69914,2.13053,2.13053,0,0,1-.646,1.6185,2.36992,2.36992,0,0,1-1.76239.73485A2.41453,2.41453,0,0,1,249.27129,71.95618Zm5.06217.42828a3.0024,3.0024,0,0,0,.871-2.04678,2.79977,2.79977,0,0,0-.871-2.0991,4.68615,4.68615,0,0,0-3.30262-1.11866,5.16451,5.16451,0,0,0-3.28818,1.11593,2.8018,2.8018,0,0,0-.89763,2.10183,2.839,2.839,0,0,0,.89763,2.04678,5.0136,5.0136,0,0,0,3.28818,1.12139A4.94827,4.94827,0,0,0,254.33346,72.38446Z"/><path class="cls-4" d="M241.5839,67.12162a4.97548,4.97548,0,0,0-2.13619.4433,1.63776,1.63776,0,0,0-1.1198,1.493,1.56968,1.56968,0,0,0,.41771,1.047,1.98078,1.98078,0,0,0,1.21751.58208,17.09105,17.09105,0,0,0,1.77468.29326c.70652.08167,1.41578.15721,1.709.23274.20783.06222.59709.14936.59709.52714a.68023.68023,0,0,1-.47094.637,3.12869,3.12869,0,0,1-1.41748.27824,5.5011,5.5011,0,0,1-1.68414-.32431,2.20677,2.20677,0,0,1-.98477-.66376,1.04175,1.04175,0,0,1-.20168-.63372h-.77308v2.219h.85919v-.325c0-.03948.03833-.10056.18667-.09613a9.0694,9.0694,0,0,0,1.2869.43,5.05109,5.05109,0,0,0,1.31534.176,5.3706,5.3706,0,0,0,1.76683-.26209,5.24193,5.24193,0,0,0,1.06644-.48436,1.56851,1.56851,0,0,0,.56161-1.17474,1.5464,1.5464,0,0,0-.45331-1.15256,1.78233,1.78233,0,0,0-.56707-.41713,4.06716,4.06716,0,0,0-.69936-.25834,13.10414,13.10414,0,0,0-1.95066-.2977,14.77021,14.77021,0,0,1-1.7435-.201.45343.45343,0,0,1-.32716-.42942.5358.5358,0,0,1,.30214-.47265,3.85605,3.85605,0,0,1,1.598-.27437,5.0991,5.0991,0,0,1,1.85908.30713,1.70735,1.70735,0,0,1,.446.28439,1.56891,1.56891,0,0,1,.43375.74759h.70926V67.3927h-.7964V67.636c0,.07826-.06837.18212-.2167.096A5.63034,5.63034,0,0,0,241.5839,67.12162Z"/><path class="cls-4" d="M258.816,67.48041l3.82862,3.50874.0133-2.35949c-.0116-.32272-.06666-.43385-.39711-.43385h-.72541v-.7154h3.28215v.7154h-.70494c-.341,0-.36151.09612-.36606.43385l.01342,4.50125h-1.11535l-4.41241-3.94863v2.78891c.00443.326.015.47709.3333.47709h.77477v.68263H256.132v-.68263h.74486c.28268,0,.27108-.286.27108-.4921V68.65185c0-.23377-.03277-.456-.45775-.456h-.62042v-.7154Z"/><path class="cls-4" d="M268.51724,72.44828c.02661,0,.16608-.00444.19884-.01058a.29823.29823,0,0,0,.14492-.14493.7511.7511,0,0,0,.01172-.16164V71.01577c0-.02662,0-.03549-.04721-.10488-.04891-.06837-1.99957-2.3124-2.08568-2.43127a.83457.83457,0,0,0-.61154-.28381h-.66649v-.7154h3.83192v.7154h-.46821c-.10056,0-.175.08724-.07724.1861,0,0,1.29031,1.60473,1.30647,1.618.01046.02047.02389.02491.03276.00273.01774-.01331,1.32853-1.60246,1.33911-1.61577.06052-.07109.01445-.1911-.11546-.1911h-.4888v-.7154h3.1693v.7154H273.278a.63222.63222,0,0,0-.55546.23114c-.09055.10944-2.06179,2.41557-2.12231,2.48223a.14973.14973,0,0,0-.02673.10659v1.11536a.83741.83741,0,0,0,.01615.16164.26231.26231,0,0,0,.15277.14493,1.92146,1.92146,0,0,0,.19543.01058h.72268v.68263h-3.81873v-.68263Z"/><path class="cls-4" d="M279.27053,72.34886c.03276-.02947.02832-.02947.02832-.02947a5.54607,5.54607,0,0,1-.13775-1.01309c-.05779-.3705-.17768-.66649-.65317-.66649h-1.18919l.06051.06166v1.62236l.04448.025h-.68264l.04107-.02947V68.252l-.04107-.0339h1.78628a1.99282,1.99282,0,0,1,.5566.06939,1.1763,1.1763,0,0,1,.3143,2.11958,1.88406,1.88406,0,0,1-.3143.01775c.58367,0,.65761.34217.71426,1.037a2.49838,2.49838,0,0,0,.19214.83814l.07723.04892Zm-.7493-3.57086h-1.20249l.06051.05164v1.31694l-.06051.04891h1.18919a.74938.74938,0,0,0,.82813-.78661C279.33606,69.058,279.0767,68.778,278.52123,68.778Z"/><path class="cls-5" d="M269.94144,128.11955a9.99655,9.99655,0,0,1-19.99309,0V126.1838a9.99655,9.99655,0,0,1,19.99309,0Z"/><path class="cls-3" d="M259.94461,138.54125a10.43407,10.43407,0,0,1-10.42284-10.4217V126.1838a10.42313,10.42313,0,0,1,20.84625,0v1.93575A10.43426,10.43426,0,0,1,259.94461,138.54125Zm0-21.926a9.57994,9.57994,0,0,0-9.56968,9.56854v1.93575a9.57,9.57,0,0,0,19.13993,0V126.1838A9.58013,9.58013,0,0,0,259.94461,116.61526Z"/><path class="cls-3" d="M225.765,137.8742H215.12446a1.69617,1.69617,0,0,1-1.69471-1.693V118.12329a1.69629,1.69629,0,0,1,1.69471-1.69357H225.765a1.6957,1.6957,0,0,1,1.694,1.69357V136.1812A1.69558,1.69558,0,0,1,225.765,137.8742Zm-10.64056-20.59132a.84216.84216,0,0,0-.84156.84041V136.1812a.84211.84211,0,0,0,.84156.83984H225.765a.84152.84152,0,0,0,.84087-.83984V118.12329a.84157.84157,0,0,0-.84087-.84041Z"/><path class="cls-3" d="M218.02667,121.69859h4.83557a.9387.9387,0,0,1,.9387.9387v.96759a.93927.93927,0,0,1-.93927.93927H218.0261a.93813.93813,0,0,1-.93813-.93813v-.96873A.9387.9387,0,0,1,218.02667,121.69859Z"/><path class="cls-3" d="M222.86224,124.97072H218.0261a1.36666,1.36666,0,0,1-1.36471-1.36584v-.96759a1.36655,1.36655,0,0,1,1.36471-1.36528h4.83614a1.36674,1.36674,0,0,1,1.36528,1.36528v.96759A1.36685,1.36685,0,0,1,222.86224,124.97072Zm-4.83614-2.84555a.51214.51214,0,0,0-.51156.51212v.96759a.51262.51262,0,0,0,.51156.51269h4.83614a.51274.51274,0,0,0,.51212-.51269v-.96759a.51225.51225,0,0,0-.51212-.51212Z"/><path class="cls-3" d="M218.02667,129.75921h4.83557a.9387.9387,0,0,1,.9387.9387v.96748a.93927.93927,0,0,1-.93927.93927H218.0261a.93813.93813,0,0,1-.93813-.93813v-.96862A.9387.9387,0,0,1,218.02667,129.75921Z"/><path class="cls-3" d="M222.86224,133.03123H218.0261a1.3666,1.3666,0,0,1-1.36471-1.36585v-.96748a1.36647,1.36647,0,0,1,1.36471-1.36527h4.83614a1.36666,1.36666,0,0,1,1.36528,1.36527v.96748A1.36679,1.36679,0,0,1,222.86224,133.03123Zm-4.83614-2.84545a.51207.51207,0,0,0-.51156.51212v.96748a.51255.51255,0,0,0,.51156.51269h4.83614a.51266.51266,0,0,0,.51212-.51269v-.96748a.51218.51218,0,0,0-.51212-.51212Z"/><rect class="cls-6" x="217.65674" y="122.21856" width="5.57714" height="1.80516"/><path class="cls-3" d="M223.23387,124.4503h-5.57713a.4263.4263,0,0,1-.42658-.42658v-1.80516a.42622.42622,0,0,1,.42658-.42658h5.57713a.42666.42666,0,0,1,.42658.42658v1.80516A.42673.42673,0,0,1,223.23387,124.4503Zm-5.15055-.85316h4.724v-.952h-4.724Z"/><rect class="cls-6" x="217.65674" y="130.27906" width="5.57714" height="1.80516"/><path class="cls-3" d="M223.23387,132.5108h-5.57713a.42629.42629,0,0,1-.42658-.42657v-1.80517a.4263.4263,0,0,1,.42658-.42658h5.57713a.42673.42673,0,0,1,.42658.42658v1.80517A.42672.42672,0,0,1,223.23387,132.5108Zm-5.15055-.85315h4.724v-.952h-4.724Z"/><path class="cls-3" d="M238.66292,133.86607A6.71417,6.71417,0,1,1,245.377,127.152,6.722,6.722,0,0,1,238.66292,133.86607Zm0-12.57518a5.861,5.861,0,1,0,5.861,5.86107A5.86733,5.86733,0,0,0,238.66292,121.29089Z"/><path class="cls-3" d="M238.66292,132.1775a5.0256,5.0256,0,1,1,5.02554-5.02554A5.03131,5.03131,0,0,1,238.66292,132.1775Zm0-9.198a4.17245,4.17245,0,1,0,4.17239,4.1725A4.17692,4.17692,0,0,0,238.66292,122.97946Z"/><path class="cls-3" d="M239.68819,125.05069a2.33816,2.33816,0,1,1-2.05008,0l-.25436-.52156a2.92031,2.92031,0,1,0,2.5589,0Z"/><rect class="cls-3" x="238.34907" y="123.42435" width="0.62929" height="3.61374"/><path class="cls-3" d="M290.09493,138.88343A11.73119,11.73119,0,1,1,301.82639,127.152,11.74555,11.74555,0,0,1,290.09493,138.88343Zm0-22.89359A11.16241,11.16241,0,1,0,301.25762,127.152,11.17586,11.17586,0,0,0,290.09493,115.98984Z"/><path class="cls-7" d="M300.5744,127.152a10.47971,10.47971,0,1,0-10.47947,10.47949A10.4804,10.4804,0,0,0,300.5744,127.152Z"/><path class="cls-3" d="M290.09493,138.058A10.90664,10.90664,0,1,1,301.001,127.152,10.91868,10.91868,0,0,1,290.09493,138.058Zm0-20.96012a10.05348,10.05348,0,1,0,10.0529,10.05405A10.06518,10.06518,0,0,0,290.09493,117.09791Z"/><path class="cls-3" d="M290.09493,131.34721a4.19554,4.19554,0,1,1,4.19525-4.19525A4.20088,4.20088,0,0,1,290.09493,131.34721Zm0-7.53791A3.34238,3.34238,0,1,0,293.437,127.152,3.34688,3.34688,0,0,0,290.09493,123.8093Z"/><path class="cls-3" d="M290.09493,128.53441a1.38274,1.38274,0,1,1,1.38256-1.38245A1.385,1.385,0,0,1,290.09493,128.53441Zm0-1.91232a.52959.52959,0,1,0,.5294.52987A.531.531,0,0,0,290.09493,126.62209Z"/><polygon class="cls-8" points="214.671 94.919 214.516 94.673 214.376 94.399 214.254 94.095 214.151 93.765 214.072 93.408 214.072 64.805 214.151 64.448 214.254 64.117 214.376 63.815 214.516 63.539 214.671 63.293 214.802 63.12 214.802 95.093 214.671 94.919"/><polygon class="cls-8" points="219.448 94.919 219.603 94.673 219.743 94.399 219.866 94.095 219.968 93.765 220.047 93.408 220.047 64.805 219.968 64.448 219.866 64.117 219.743 63.815 219.603 63.539 219.448 63.293 219.316 63.12 219.316 95.093 219.448 94.919"/><polygon class="cls-4" points="217.543 96.016 217.746 96.006 217.946 95.975 218.147 95.923 218.346 95.851 218.542 95.756 218.735 95.638 218.924 95.497 219.107 95.331 219.283 95.138 219.316 95.093 219.316 63.12 219.283 63.074 219.107 62.881 218.924 62.716 218.735 62.574 218.542 62.456 218.346 62.361 218.147 62.29 217.946 62.237 217.746 62.207 217.543 62.197 216.576 62.197 216.373 62.207 216.173 62.237 215.971 62.29 215.773 62.361 215.577 62.456 215.384 62.574 215.195 62.716 215.012 62.881 214.837 63.074 214.802 63.12 214.802 95.093 214.837 95.138 215.012 95.331 215.195 95.497 215.384 95.638 215.577 95.756 215.773 95.851 215.971 95.923 216.173 95.975 216.373 96.006 216.576 96.016 217.543 96.016"/><path class="cls-3" d="M217.54344,96.44278h-.96759l-.02059-.00057-.20271-.01a.37894.37894,0,0,1-.04448-.00444l-.201-.03105c-.014-.00228-.0273-.005-.04061-.00842l-.201-.05164a.33971.33971,0,0,1-.04118-.01274l-.19827-.07281c-.01331-.005-.026-.01058-.0389-.01661l-.196-.095c-.01229-.00614-.02446-.01229-.03618-.01945l-.1927-.11717c-.01115-.00728-.02275-.01445-.03333-.02286l-.1894-.14106c-.01115-.0083-.02116-.01718-.03162-.026l-.1828-.16608c-.01-.00944-.02-.01888-.02947-.02946l-.175-.1927c-.00774-.009-.01547-.01786-.02275-.02787l-.035-.04493a.42842.42842,0,0,1-.0877-.25936V63.11964a.42684.42684,0,0,1,.08554-.25606l.03447-.04607c.0083-.01115.01718-.02161.026-.03162l.17552-.19168a.35233.35233,0,0,1,.02889-.02946l.18326-.16495c.00944-.00887.01945-.01717.02946-.02491l.18941-.14219a.35353.35353,0,0,1,.03333-.0223l.19269-.1183c.01286-.00774.0256-.01445.03891-.02105l.19611-.094c.01274-.006.02548-.0116.0389-.0166l.19828-.07167c.01217-.00444.025-.0083.03776-.0116l.201-.05278a.35085.35085,0,0,1,.04391-.00888l.20111-.0306c.01332-.0017.02719-.0033.04107-.00386l.20271-.01058.0223-.00057h.96759l.02275.00057.20158.01058c.01387.00056.02718.00216.04106.00386l.20111.0306a.37288.37288,0,0,1,.04391.00888l.201.05278a.28237.28237,0,0,1,.03731.011l.19884.07224c.01388.005.02719.01057.0405.0166l.19554.09442c.01218.00614.025.01285.03663.02l.19384.1183a.36873.36873,0,0,1,.035.02389l.18827.1422c.01.00728.01945.01558.02889.02388l.18326.16495c.00944.009.01945.01843.02832.02832l.17609.19225a.46644.46644,0,0,1,.03.03663l.03333.04607a.42277.42277,0,0,1,.08213.25162V95.09252a.42536.42536,0,0,1-.0844.25492l-.0339.0455c-.0083.01115-.01718.0223-.02662.03276l-.17609.19282c-.00887.00944-.01831.01945-.02832.02832l-.18326.16608c-.00944.00887-.02.01718-.0306.02548l-.18827.14117-.035.02389-.19384.11717c-.011.00659-.02275.01274-.03435.01831l-.19555.09555c-.01285.006-.02616.01161-.04.01661l-.19884.07281a.37079.37079,0,0,1-.0405.01274l-.20111.05164c-.01331.00341-.02719.00614-.0405.00842l-.20112.03105a.3922.3922,0,0,1-.04436.00444l-.20169.01Zm-.95758-.85316h.94757l.16881-.0083.15834-.02446.15994-.04118.15823-.05824.15892-.07667.1588-.09669.15562-.1166.15322-.13889.08441-.09328v-31.659l-.08384-.09157-.15379-.13946-.15664-.11831-.15778-.09612-.15721-.07553-.15994-.05779-.15994-.04164-.15834-.02388-.16994-.00888h-.94542l-.17051.00888-.15824.02388-.15948.04164-.15994.05779-.15778.07553-.15664.09612-.15766.11887-.15391.13833-.08441.09271V94.93474l.08555.09385.15277.13889.15664.1166.15766.09669.15948.07667.15824.05824.15948.04118.15824.02446Z"/><path class="cls-3" d="M217.54344,96.44278h-.96759l-.02059-.00057-.20271-.01a.37894.37894,0,0,1-.04448-.00444l-.201-.03105c-.014-.00228-.0273-.005-.04061-.00842l-.201-.05164a.33971.33971,0,0,1-.04118-.01274l-.19827-.07281c-.01331-.005-.026-.01058-.0389-.01661l-.196-.095c-.01229-.00614-.02446-.01229-.03618-.01945l-.1927-.11717c-.01115-.00728-.02275-.01445-.03333-.02286l-.1894-.14106c-.01115-.0083-.02116-.01718-.03162-.026l-.1828-.16608c-.01-.00944-.02-.01888-.02947-.02946l-.175-.1927c-.0083-.009-.016-.01888-.02389-.02833l-.16608-.21886a.37785.37785,0,0,1-.02161-.03117l-.15448-.246a.38141.38141,0,0,1-.01934-.0339l-.13946-.27494a.32831.32831,0,0,1-.015-.03276l-.12273-.30327a.32657.32657,0,0,1-.01161-.0339l-.10227-.33045c-.00386-.011-.0067-.02276-.00944-.0339l-.07883-.35708a.43148.43148,0,0,1-.01-.09225V64.80491a.43288.43288,0,0,1,.01-.09283l.07883-.356.00887-.03321.10227-.33171c.00387-.0116.00773-.02332.01274-.03492l.12217-.30213c.00444-.01058.00944-.02173.015-.03231l.13946-.2754a.38427.38427,0,0,1,.01934-.0339l.15448-.24662.02105-.0306.16608-.21943.025-.02991.17552-.19168a.35233.35233,0,0,1,.02889-.02946l.18326-.16495c.00944-.00887.01945-.01717.02946-.02491l.18941-.14219a.35353.35353,0,0,1,.03333-.0223l.19269-.1183c.01286-.00774.0256-.01445.03891-.02105l.19611-.094c.01274-.006.02548-.0116.0389-.0166l.19828-.07167c.01217-.00444.025-.0083.03776-.0116l.201-.05278a.35085.35085,0,0,1,.04391-.00888l.20111-.0306c.01332-.0017.02719-.0033.04107-.00386l.20271-.01058.0223-.00057h.96759l.02275.00057.20158.01058c.01387.00056.02718.00216.04106.00386l.20111.0306a.37288.37288,0,0,1,.04391.00888l.201.05278a.28237.28237,0,0,1,.03731.011l.19884.07224c.01388.005.02719.01057.0405.0166l.19554.09442c.01218.00614.025.01285.03663.02l.19384.1183a.36873.36873,0,0,1,.035.02389l.18827.1422c.01.00728.01945.01558.02889.02388l.18326.16495c.00944.009.01945.01843.02832.02832l.17609.19225c.00888.01.01775.02059.02617.03162l.16551.21943.02047.02946.15448.24662.01889.03276.14048.27552c.00558.011.01058.02218.015.03333l.12274.30213c.00443.0116.00887.02332.01228.03492l.10215.33171.00888.03321.07883.356a.39955.39955,0,0,1,.01058.09283V93.40782a.39816.39816,0,0,1-.01058.09225l-.07883.35708-.00888.0339-.10215.33045-.01228.0339-.12274.30327a.35187.35187,0,0,1-.01559.0339l-.14048.27494c-.00558.01115-.01172.02173-.01832.03276l-.15448.246c-.00659.01058-.01387.02059-.021.03l-.16551.21887c-.00785.01058-.01616.02047-.025.03048l-.17609.19282c-.00887.00944-.01831.01945-.02832.02832l-.18326.16608c-.00944.00887-.02.01718-.0306.02548l-.18827.14117-.035.02389-.19384.11717c-.011.00659-.02275.01274-.03435.01831l-.19555.09555c-.01285.006-.02616.01161-.04.01661l-.19884.07281a.37079.37079,0,0,1-.0405.01274l-.20111.05164c-.01331.00341-.02719.00614-.0405.00842l-.20112.03105a.3922.3922,0,0,1-.04436.00444l-.20169.01Zm-.95758-.85316h.94757l.16881-.0083.15834-.02446.15994-.04118.15823-.05824.15892-.07667.1588-.09669.15562-.1166.15322-.13889.14891-.16381.14276-.18781.13434-.21488.12332-.241.10885-.26892.09169-.29656.06552-.29439V64.85155l-.06552-.29383-.09169-.29769-.10885-.26778-.12332-.24218-.1349-.21489-.1422-.18883-.14834-.16164-.15379-.13946-.15664-.11831-.15778-.09612-.15721-.07553-.15994-.05779-.15994-.04164-.15834-.02388-.16994-.00888h-.94542l-.17051.00888-.15824.02388-.15948.04164-.15994.05779-.15778.07553-.15664.09612-.15766.11887-.15391.13833-.14777.16221-.14321.1894-.13446.21375-.12217.24218-.10943.26835-.09169.29769-.06495.29383V93.36118l.06495.29439.09169.29656.10943.26937.12217.24116.13446.21374.14321.18838.14891.16381.15277.13889.15664.1166.15766.09669.15948.07667.15824.05824.15948.04118.15824.02446Z"/><polygon class="cls-8" points="305.219 94.919 305.372 94.673 305.513 94.399 305.636 94.095 305.738 93.765 305.817 93.408 305.817 64.805 305.738 64.448 305.636 64.117 305.513 63.815 305.372 63.539 305.219 63.293 305.087 63.12 305.087 95.093 305.219 94.919"/><polygon class="cls-8" points="300.44 94.919 300.286 94.673 300.146 94.399 300.023 94.095 299.921 93.765 299.842 93.408 299.842 64.805 299.921 64.448 300.023 64.117 300.146 63.815 300.286 63.539 300.44 63.293 300.573 63.12 300.573 95.093 300.44 94.919"/><polygon class="cls-4" points="302.346 96.016 302.144 96.006 301.942 95.975 301.742 95.923 301.543 95.851 301.347 95.756 301.154 95.638 300.964 95.497 300.782 95.331 300.606 95.138 300.573 95.093 300.573 63.12 300.606 63.074 300.782 62.881 300.964 62.716 301.154 62.574 301.347 62.456 301.543 62.361 301.742 62.29 301.942 62.237 302.144 62.207 302.346 62.197 303.313 62.197 303.515 62.207 303.717 62.237 303.917 62.29 304.116 62.361 304.312 62.456 304.505 62.574 304.694 62.716 304.876 62.881 305.052 63.074 305.087 63.12 305.087 95.093 305.052 95.138 304.876 95.331 304.694 95.497 304.505 95.638 304.312 95.756 304.116 95.851 303.917 95.923 303.717 95.975 303.515 96.006 303.313 96.016 302.346 96.016"/><path class="cls-3" d="M303.31338,96.44278h-.9676l-.02115-.00057-.20158-.01a.39159.39159,0,0,1-.04447-.00444l-.20158-.03105c-.01388-.00228-.02775-.005-.04118-.00842l-.19986-.05164a.3311.3311,0,0,1-.04061-.01274l-.19884-.07281c-.01331-.005-.02662-.01058-.03948-.01661l-.19656-.095c-.01229-.00614-.02389-.01229-.03561-.01945l-.1927-.11717a.34562.34562,0,0,1-.03333-.02286l-.1894-.14106a.36267.36267,0,0,1-.03219-.02662l-.18224-.16665a.31363.31363,0,0,1-.02775-.02718l-.17609-.19282c-.00945-.01046-.01832-.02161-.02719-.03276l-.03333-.0455a.42615.42615,0,0,1-.0844-.25492V63.11964a.42213.42213,0,0,1,.08224-.25162l.03321-.04607a.46881.46881,0,0,1,.03-.03663l.17609-.19225.02775-.02775.18224-.16495.03048-.02548.1894-.14219a.35614.35614,0,0,1,.03333-.0223l.19282-.1183a.39843.39843,0,0,1,.03833-.02105l.19657-.094c.01274-.006.02616-.0116.03947-.0166l.19884-.07224c.01218-.00443.02446-.00773.03663-.011l.2-.05278a.39462.39462,0,0,1,.04494-.00888l.20225-.0306c.01331-.0017.02662-.0033.0405-.00386l.20168-.01058.02275-.00057h.9676l.02275.00057.20157.01058c.01331.00056.0273.00216.04061.00386l.20157.0306a.39175.39175,0,0,1,.04505.00888l.2.05278c.01274.0033.02491.0066.0372.011l.19884.07224c.01331.005.02662.01057.03936.0166l.19611.094c.01331.0066.02616.01331.0389.02105l.1927.1183a.341.341,0,0,1,.03333.0223l.1894.14219c.01058.00831.02059.01661.03.02548l.18211.16495a.335.335,0,0,1,.02787.02775l.176.19225c.00944.01.01843.021.0273.03219l.03436.04607a.42612.42612,0,0,1,.08554.25606V95.09252a.42842.42842,0,0,1-.0877.25936l-.035.04493a.28022.28022,0,0,1-.02389.02889l-.17552.19282c-.00887.00944-.01832.01888-.02776.02718l-.18211.16665c-.01059.00944-.02117.01832-.03231.02662l-.1894.14106c-.01047.00841-.02219.01558-.03333.02286l-.1927.11717c-.01161.00716-.02389.01331-.03606.01945l-.19612.095c-.01331.006-.026.01161-.03947.01661l-.19941.07281a.29817.29817,0,0,1-.03993.01274l-.2.05164c-.01331.00341-.02718.00614-.04163.00842l-.20169.03105a.37711.37711,0,0,1-.04436.00444l-.20169.01Zm-.95759-.85316h.94758l.16881-.0083.15891-.02446.1588-.04118.15937-.05824.15892-.07667.15777-.09669.15664-.1166.15221-.13889.086-.09385V63.27742l-.08554-.09328-.15266-.13889-.15777-.11831-.15664-.09612-.15778-.07553-.16051-.05779-.1588-.04164-.15891-.02388-.16995-.00888h-.94541l-.17.00888-.1588.02388-.15892.04164-.16106.05779-.15722.07553-.15709.09612-.15721.11831-.15334.13889-.08383.09214v31.659l.085.09328.15221.13889.15607.1166.15823.09669.15891.07667.15937.05824.15892.04118.1588.02446Z"/><path class="cls-3" d="M303.31338,96.44278h-.9676l-.02115-.00057-.20158-.01a.39159.39159,0,0,1-.04447-.00444l-.20158-.03105c-.01388-.00228-.02775-.005-.04118-.00842l-.19986-.05164a.3311.3311,0,0,1-.04061-.01274l-.19884-.07281c-.01331-.005-.02662-.01058-.03948-.01661l-.19656-.095c-.01229-.00614-.02389-.01229-.03561-.01945l-.1927-.11717a.34562.34562,0,0,1-.03333-.02286l-.1894-.14106a.36267.36267,0,0,1-.03219-.02662l-.18224-.16665a.31363.31363,0,0,1-.02775-.02718l-.17609-.19282-.02446-.02935-.16608-.21886c-.00774-.01058-.01547-.02116-.02218-.03219l-.1538-.24616c-.00671-.01047-.01229-.02105-.01786-.03163l-.14048-.27494a.35187.35187,0,0,1-.01559-.0339l-.12274-.30327-.01217-.0339-.10227-.33045-.00886-.0339-.07884-.35708a.39871.39871,0,0,1-.01058-.09225V64.80491a.40009.40009,0,0,1,.01058-.09283l.07884-.356.00886-.03321.10227-.33171c.0033-.0116.00773-.02332.01217-.03492l.12274-.30213c.00444-.01115.00944-.0223.015-.03333l.14049-.27552c.00557-.01057.01171-.02172.01842-.03219l.1538-.24616.02172-.03163.16608-.21943.02549-.03048.17609-.19225.02775-.02775.18224-.16495.03048-.02548.1894-.14219a.35614.35614,0,0,1,.03333-.0223l.19282-.1183a.39843.39843,0,0,1,.03833-.02105l.19657-.094c.01274-.006.02616-.0116.03947-.0166l.19884-.07224c.01218-.00443.02446-.00773.03663-.011l.2-.05278a.39462.39462,0,0,1,.04494-.00888l.20225-.0306c.01331-.0017.02662-.0033.0405-.00386l.20168-.01058.02275-.00057h.9676l.02275.00057.20157.01058c.01331.00056.0273.00216.04061.00386l.20157.0306a.39175.39175,0,0,1,.04505.00888l.2.05278c.01274.0033.02491.0066.0372.011l.19884.07224c.01331.005.02662.01057.03936.0166l.19611.094c.01331.0066.02616.01331.0389.02105l.1927.1183a.341.341,0,0,1,.03333.0223l.1894.14219c.01058.00831.02059.01661.03.02548l.18211.16495a.335.335,0,0,1,.02787.02775l.176.19225c.00944.01.01787.02.02617.03048l.16608.21943.02161.03163.15391.24616.01774.03219.14049.27552.01559.03333.12217.30213c.005.0116.00887.02332.01285.03492l.10215.33171.00888.03321.07894.356a.43987.43987,0,0,1,.0099.09283V93.40782a.43846.43846,0,0,1-.0099.09225l-.07894.35708c-.00273.01114-.00558.02286-.00945.0339l-.10215.33045c-.00341.01172-.00728.02287-.01171.0339l-.12274.30327a.35187.35187,0,0,1-.01559.0339l-.14049.27494-.01774.03163-.15391.24616-.02218.03219-.16608.21886c-.00773.0099-.01616.01934-.025.02935l-.17552.19282c-.00887.00944-.01832.01888-.02776.02718l-.18211.16665c-.01059.00944-.02117.01832-.03231.02662l-.1894.14106c-.01047.00841-.02219.01558-.03333.02286l-.1927.11717c-.01161.00716-.02389.01331-.03606.01945l-.19612.095c-.01331.006-.026.01161-.03947.01661l-.19941.07281a.29817.29817,0,0,1-.03993.01274l-.2.05164c-.01331.00341-.02718.00614-.04163.00842l-.20169.03105a.37711.37711,0,0,1-.04436.00444l-.20169.01Zm-.95759-.85316h.94758l.16881-.0083.15891-.02446.1588-.04118.15937-.05824.15892-.07667.15777-.09669.15664-.1166.15221-.13889.14992-.16381.14277-.18781.13332-.21431.12376-.24161.109-.26892.09157-.29656.06495-.29439V64.85155l-.06495-.29383-.09157-.29769-.109-.26778-.12376-.24275-.13389-.21432-.1422-.18837-.14947-.16267-.15266-.13889-.15777-.11831-.15664-.09612-.15778-.07553-.16051-.05779-.1588-.04164-.15891-.02388-.16995-.00888h-.94541l-.17.00888-.1588.02388-.15892.04164-.16106.05779-.15722.07553-.15709.09612-.15721.11831-.15334.13889-.14879.16267-.14277.18837-.13332.21432-.12387.24275-.10887.26778-.09167.29769-.06553.29383V93.36118l.06553.29439.09167.29656.10887.26892.12331.24161.13388.21431.14277.18781.14992.16381.15221.13889.15607.1166.15823.09669.15891.07667.15937.05824.15892.04118.1588.02446Z"/><path class="cls-8" d="M307.99073,143.198h-96.0912a3.79751,3.79751,0,0,1-3.793-3.79359V43.31322a3.79643,3.79643,0,0,1,3.793-3.792h96.0912a3.79692,3.79692,0,0,1,3.79358,3.792v96.0912A3.798,3.798,0,0,1,307.99073,143.198ZM211.89953,40.65877a2.65774,2.65774,0,0,0-2.65548,2.65445v96.0912a2.65874,2.65874,0,0,0,2.65548,2.656h96.0912a2.65885,2.65885,0,0,0,2.656-2.656V43.31322a2.65785,2.65785,0,0,0-2.656-2.65445Z"/><path class="cls-9" d="M326.43776,91.57875a.5.5,0,0,1-.45605-.29541l-2.3125-5.14893a.49994.49994,0,1,1,.91211-.40966l1.85644,4.1333,1.856-4.1333a.49984.49984,0,1,1,.91211.40918l-2.312,5.14941A.5.5,0,0,1,326.43776,91.57875Z"/><path class="cls-9" d="M328.75026,84.70668a.49984.49984,0,0,1-.45654-.29541l-1.856-4.1333-1.85644,4.1333a.49994.49994,0,1,1-.91211-.40967l2.3125-5.14892a.52059.52059,0,0,1,.91211,0l2.312,5.14941a.50017.50017,0,0,1-.45557.70459Z"/><path class="cls-9" d="M326.43776,91.55043a.49972.49972,0,0,1-.5-.5V79.08559a.5.5,0,0,1,1,0V91.05043A.49971.49971,0,0,1,326.43776,91.55043Z"/><path class="cls-9" d="M326.43776,127.79164a.5.5,0,0,1-.45605-.29541l-2.3125-5.14893a.49994.49994,0,1,1,.91211-.40966l1.85644,4.1333,1.856-4.1333a.49984.49984,0,1,1,.91211.40918l-2.312,5.14941A.5.5,0,0,1,326.43776,127.79164Z"/><path class="cls-9" d="M328.75026,97.47719a.49986.49986,0,0,1-.45654-.29541l-1.856-4.1333-1.85644,4.1333a.49994.49994,0,1,1-.91211-.40967l2.3125-5.14893a.5206.5206,0,0,1,.91211,0l2.312,5.14942a.50017.50017,0,0,1-.45557.70459Z"/><path class="cls-9" d="M326.43776,127.76332a.49972.49972,0,0,1-.5-.5V91.85658a.5.5,0,0,1,1,0v35.40674A.49971.49971,0,0,1,326.43776,127.76332Z"/><path class="cls-9" d="M265.11013,158.67592a.50127.50127,0,0,1-.20459-.04395l-5.14893-2.3125a.49973.49973,0,0,1,0-.91211l5.14941-2.312a.49984.49984,0,1,1,.40918.91211l-4.1333,1.856,4.1333,1.85644a.49995.49995,0,0,1-.20507.95606Z"/><path class="cls-9" d="M285.02272,158.87953a.49994.49994,0,0,1-.20507-.956l4.1333-1.856-4.1333-1.85645a.49994.49994,0,1,1,.40966-.91211l5.14893,2.3125a.49973.49973,0,0,1,0,.91211l-5.14941,2.312A.49759.49759,0,0,1,285.02272,158.87953Z"/><path class="cls-9" d="M290.00026,156.56752h-.00342l-30.01074-.2041a.5.5,0,0,1,.00342-1h.00342l30.01074.2041a.5.5,0,0,1-.00342,1Z"/><path class="cls-9" d="M213.69606,15.10951a.50145.50145,0,0,1-.20459-.04394l-5.14892-2.3125a.49973.49973,0,0,1,0-.91211l5.14941-2.312a.49984.49984,0,1,1,.40918.91211l-4.1333,1.856,4.1333,1.85645a.49994.49994,0,0,1-.20508.956Z"/><path class="cls-9" d="M306.095,15.10951a.49995.49995,0,0,1-.20508-.956l4.1333-1.85645-4.1333-1.856a.49984.49984,0,0,1,.40918-.91211l5.14941,2.312a.49973.49973,0,0,1,0,.91211l-5.14892,2.3125A.50145.50145,0,0,1,306.095,15.10951Z"/><path class="cls-9" d="M311.08522,12.797H208.576a.5.5,0,0,1,0-1H311.08522a.5.5,0,0,1,0,1Z"/><path class="cls-9" d="M222.05056,29.1056a.49759.49759,0,0,1-.20411-.04394l-5.14941-2.312a.49973.49973,0,0,1,0-.91211L221.846,23.525a.49994.49994,0,1,1,.40966.91211l-4.1333,1.85644,4.1333,1.856a.49994.49994,0,0,1-.20507.956Z"/><path class="cls-9" d="M297.679,29.1056a.49994.49994,0,0,1-.20507-.956l4.1333-1.856-4.1333-1.85644a.49994.49994,0,1,1,.40966-.91211l5.14893,2.3125a.49973.49973,0,0,1,0,.91211l-5.14941,2.312A.49759.49759,0,0,1,297.679,29.1056Z"/><path class="cls-9" d="M302.79958,26.79359H216.93a.5.5,0,0,1,0-1h85.86963a.5.5,0,0,1,0,1Z"/><path class="cls-9" d="M311.21559,41.12025a.49972.49972,0,0,1-.5-.5V12.297a.5.5,0,0,1,1,0V40.62025A.49971.49971,0,0,1,311.21559,41.12025Z"/><path class="cls-9" d="M302.79958,96.73012a.49972.49972,0,0,1-.5-.5V26.29359a.5.5,0,1,1,1,0V96.23012A.49972.49972,0,0,1,302.79958,96.73012Z"/><path class="cls-9" d="M259.94558,154.85853a.50245.50245,0,1,1,.5-.50976v.00976A.49972.49972,0,0,1,259.94558,154.85853Zm0-3.00976a.49971.49971,0,0,1-.5-.5v-3a.5.5,0,0,1,1,0v3A.49972.49972,0,0,1,259.94558,151.84877Zm0-6a.50269.50269,0,1,1,.5-.51026v.01026A.49972.49972,0,0,1,259.94558,145.84877Zm0-3.01026a.49971.49971,0,0,1-.5-.5v-3a.5.5,0,1,1,1,0v3A.49972.49972,0,0,1,259.94558,142.83851Zm0-6a.50245.50245,0,1,1,.5-.50976v.00976A.49972.49972,0,0,1,259.94558,136.83851Zm0-3.00976a.49971.49971,0,0,1-.5-.5v-3a.5.5,0,0,1,1,0v3A.49972.49972,0,0,1,259.94558,133.82875Zm0-6a.50245.50245,0,1,1,.5-.51025v.01025A.49972.49972,0,0,1,259.94558,127.82875Zm0-3.01025a.49972.49972,0,0,1-.5-.5v-3a.5.5,0,0,1,1,0v3A.49972.49972,0,0,1,259.94558,124.8185Zm0-6a.50245.50245,0,1,1,.5-.50977v.00977A.49972.49972,0,0,1,259.94558,118.8185Zm0-3.00977a.49971.49971,0,0,1-.5-.5v-3a.5.5,0,0,1,1,0v3A.49972.49972,0,0,1,259.94558,115.80873Zm0-6a.50245.50245,0,1,1,.5-.51025v.01025A.49972.49972,0,0,1,259.94558,109.80873Zm0-3.01025a.49972.49972,0,0,1-.5-.5v-3a.5.5,0,1,1,1,0v3A.49972.49972,0,0,1,259.94558,106.79848Zm0-6a.50245.50245,0,1,1,.5-.50977v.00977A.49972.49972,0,0,1,259.94558,100.79848Zm0-3.00977a.49971.49971,0,0,1-.5-.5v-3a.5.5,0,1,1,1,0v3A.49972.49972,0,0,1,259.94558,97.78871Zm0-6a.50245.50245,0,1,1,.5-.51025v.01025A.49972.49972,0,0,1,259.94558,91.78871Zm0-3.01025a.49972.49972,0,0,1-.5-.5v-3a.5.5,0,0,1,1,0v3A.49972.49972,0,0,1,259.94558,88.77846Zm0-6a.50245.50245,0,1,1,.5-.50977v.00977A.49972.49972,0,0,1,259.94558,82.77846Zm0-3.00977a.49971.49971,0,0,1-.5-.5v-3a.5.5,0,1,1,1,0v3A.49972.49972,0,0,1,259.94558,79.76869Zm0-6a.50269.50269,0,1,1,.5-.51025v.01025A.49972.49972,0,0,1,259.94558,73.76869Zm0-3.01025a.49972.49972,0,0,1-.5-.5v-3a.5.5,0,0,1,1,0v3A.49972.49972,0,0,1,259.94558,70.75844Zm0-6a.50245.50245,0,1,1,.5-.50977v.00977A.49972.49972,0,0,1,259.94558,64.75844Zm0-3.00977a.49971.49971,0,0,1-.5-.5v-3a.5.5,0,0,1,1,0v3A.49972.49972,0,0,1,259.94558,61.74867Zm0-6a.50269.50269,0,1,1,.5-.51025v.01025A.49972.49972,0,0,1,259.94558,55.74867Zm0-3.01025a.49972.49972,0,0,1-.5-.5v-3a.5.5,0,0,1,1,0v3A.49972.49972,0,0,1,259.94558,52.73842Zm0-6a.50245.50245,0,1,1,.5-.50977v.00977A.49972.49972,0,0,1,259.94558,46.73842Zm0-3.00977a.49971.49971,0,0,1-.5-.5v-3a.5.5,0,0,1,1,0v3A.49972.49972,0,0,1,259.94558,43.72865Zm0-6a.50269.50269,0,1,1,.5-.51025v.01025A.49972.49972,0,0,1,259.94558,37.72865Zm0-3.01025a.49972.49972,0,0,1-.5-.5v-3a.5.5,0,1,1,1,0v3A.49972.49972,0,0,1,259.94558,34.7184Zm0-6a.50245.50245,0,1,1,.5-.50977v.00977A.49972.49972,0,0,1,259.94558,28.7184Z"/><path class="cls-9" d="M331.90309,91.85951h-.00976a.5.5,0,1,1,.00976,0Zm-3.00976,0h-3a.5.5,0,0,1,0-1h3a.5.5,0,0,1,0,1Zm-6,0h-.01025a.49976.49976,0,1,1,.01025,0Zm-3.01025,0h-3a.5.5,0,0,1,0-1h3a.5.5,0,0,1,0,1Zm-6,0h-.00977a.5.5,0,1,1,.00977,0Zm-3.00977,0h-3a.5.5,0,0,1,0-1h3a.5.5,0,0,1,0,1Zm-6,0h-.01025a.49976.49976,0,1,1,.01025,0Zm-3.01025,0h-3a.5.5,0,0,1,0-1h3a.5.5,0,0,1,0,1Zm-6,0h-.00977a.5.5,0,1,1,.00977,0Zm-3.00977,0h-3a.5.5,0,0,1,0-1h3a.5.5,0,0,1,0,1Zm-6,0H286.843a.49976.49976,0,1,1,.01025,0Zm-3.01025,0h-3a.5.5,0,0,1,0-1h3a.5.5,0,0,1,0,1Zm-6,0h-.00977a.5.5,0,1,1,.00977,0Zm-3.00977,0h-3a.5.5,0,0,1,0-1h3a.5.5,0,0,1,0,1Zm-6,0H268.823a.50025.50025,0,1,1,.01025,0Zm-3.01025,0h-3a.5.5,0,0,1,0-1h3a.5.5,0,0,1,0,1Zm-6,0h-.00977a.5.5,0,1,1,.00977,0Zm-3.00977,0h-3a.5.5,0,0,1,0-1h3a.5.5,0,0,1,0,1Zm-6,0H250.803a.50025.50025,0,1,1,.01025,0Zm-3.01025,0h-3a.5.5,0,0,1,0-1h3a.5.5,0,0,1,0,1Zm-6,0h-.00977a.5.5,0,1,1,.00977,0Zm-3.00977,0h-3a.5.5,0,0,1,0-1h3a.5.5,0,0,1,0,1Zm-6,0H232.783a.50025.50025,0,1,1,.01025,0Zm-3.01025,0h-3a.5.5,0,0,1,0-1h3a.5.5,0,0,1,0,1Zm-6,0h-.00977a.5.5,0,1,1,.00977,0Zm-3.00977,0h-3a.5.5,0,0,1,0-1h3a.5.5,0,0,1,0,1Zm-6,0H214.763a.50025.50025,0,1,1,.01025,0Zm-3.01025,0h-3a.5.5,0,0,1,0-1h3a.5.5,0,1,1,0,1Zm-6,0h-.00977a.5.5,0,1,1,.00977,0Zm-3.00977,0h-3a.5.5,0,0,1,0-1h3a.5.5,0,1,1,0,1Zm-6,0h-.01025a.50025.50025,0,1,1,.01025,0Z"/><path class="cls-9" d="M326.43776,79.58559h-119.752a.5.5,0,0,1,0-1h119.752a.5.5,0,0,1,0,1Z"/><path class="cls-9" d="M326.43776,127.83314H237.98171a.5.5,0,0,1,0-1h88.45605a.5.5,0,0,1,0,1Z"/><path class="cls-9" d="M216.93,96.73012a.49972.49972,0,0,1-.5-.5V26.29359a.5.5,0,1,1,1,0V96.23012A.49972.49972,0,0,1,216.93,96.73012Z"/><path class="cls-9" d="M208.576,41.12025a.49971.49971,0,0,1-.5-.5V12.297a.5.5,0,0,1,1,0V40.62025A.49972.49972,0,0,1,208.576,41.12025Z"/><path class="cls-9" d="M192.534,143.62953a.5.5,0,0,1-.45605-.29541l-2.3125-5.14893a.49994.49994,0,1,1,.91211-.40966l1.85644,4.1333,1.856-4.1333a.49984.49984,0,1,1,.91211.40918l-2.312,5.14941A.5.5,0,0,1,192.534,143.62953Z"/><path class="cls-9" d="M194.84645,46.17934a.49987.49987,0,0,1-.45654-.29541l-1.856-4.13331-1.85644,4.13331a.49994.49994,0,1,1-.91211-.40967l2.3125-5.14893a.5206.5206,0,0,1,.91211,0l2.312,5.14942a.50016.50016,0,0,1-.45557.70459Z"/><path class="cls-9" d="M192.534,143.60121a.49972.49972,0,0,1-.5-.5V40.55824a.5.5,0,0,1,1,0v102.543A.49971.49971,0,0,1,192.534,143.60121Z"/><path class="cls-9" d="M208.9861,41.05824H192.534a.5.5,0,0,1,0-1H208.9861a.5.5,0,0,1,0,1Z"/><path class="cls-9" d="M208.9861,143.69789H192.534a.5.5,0,0,1,0-1H208.9861a.5.5,0,0,1,0,1Z"/><path class="cls-9" d="M290.14333,153.2643a.49972.49972,0,0,1-.5-.5V116.87514a.5.5,0,1,1,1,0V152.7643A.49972.49972,0,0,1,290.14333,153.2643Z"/><path class="cls-9" d="M290.14333,156.56752a.49971.49971,0,0,1-.5-.5V127.35609a.5.5,0,0,1,1,0v28.71143A.49971.49971,0,0,1,290.14333,156.56752Z"/><path class="cls-9" d="M26.58571,131.42787a.5.5,0,0,1-.456-.29541l-2.3125-5.14893a.49994.49994,0,1,1,.91211-.40966l1.85644,4.1333,1.856-4.1333a.49984.49984,0,1,1,.91211.40918l-2.312,5.14941A.5.5,0,0,1,26.58571,131.42787Z"/><path class="cls-9" d="M28.89821,57.53041a.49984.49984,0,0,1-.45654-.29541l-1.856-4.1333L24.72927,57.235a.49994.49994,0,1,1-.91211-.40967l2.3125-5.14892a.52059.52059,0,0,1,.91211,0l2.312,5.14941a.50017.50017,0,0,1-.45557.70459Z"/><path class="cls-9" d="M26.58571,131.39955a.49971.49971,0,0,1-.5-.5V51.90932a.5.5,0,0,1,1,0v78.99023A.49971.49971,0,0,1,26.58571,131.39955Z"/><path class="cls-9" d="M41.90993,131.42787a.5.5,0,0,1-.45605-.29541l-2.312-5.14941a.49984.49984,0,1,1,.91211-.40918l1.856,4.1333,1.85645-4.1333a.49994.49994,0,1,1,.91211.40966l-2.3125,5.14893A.5.5,0,0,1,41.90993,131.42787Z"/><path class="cls-9" d="M39.59743,63.55629a.50017.50017,0,0,1-.45557-.70459l2.312-5.14942a.5206.5206,0,0,1,.91211,0l2.3125,5.14893a.49994.49994,0,1,1-.91211.40967l-1.85645-4.1333-1.856,4.1333A.49983.49983,0,0,1,39.59743,63.55629Z"/><path class="cls-9" d="M41.90993,131.39955a.49971.49971,0,0,1-.5-.5V57.93568a.5.5,0,1,1,1,0v72.96387A.49971.49971,0,0,1,41.90993,131.39955Z"/><path class="cls-9" d="M66.1028,52.40932H26.58571a.5.5,0,0,1,0-1H66.1028a.5.5,0,0,1,0,1Z"/><path class="cls-9" d="M66.1028,58.43568H40.20388a.5.5,0,0,1,0-1H66.1028a.5.5,0,0,1,0,1Z"/><path class="cls-9" d="M170.638,131.36146H21.62526a.5.5,0,1,1,0-1H170.638a.5.5,0,0,1,0,1Z"/><path class="cls-2" d="M153.2431,130.29282a2.25768,2.25768,0,0,1-2.25731-2.25731v-4.19295h-.72985V128.336H136.47668a1.93361,1.93361,0,0,1-1.93346-1.934l-.06666-2.55945h-14.443l-.09772.1166-.00273.11887a1.62727,1.62727,0,0,1-.27493.87374l-1.493,2.21284a7.09447,7.09447,0,0,1-5.88046,3.12821h-3.85078a7.09449,7.09449,0,0,1-5.88047-3.12821l-1.493-2.21284a1.62186,1.62186,0,0,1-.27437-.87374l-.0016-.11887-.09782-.1166-5.76092.001a1.29082,1.29082,0,0,1-1.24924.967H86.21871l-.04277,1.59141a1.9341,1.9341,0,0,1-1.93574,1.934H70.46208v-4.49348h-.72984v4.19295a2.25726,2.25726,0,1,1-4.51452,0v-4.19295H61.0258l-1.839-3.8692h-.09657v-60.298L60.702,58.064h6.36869V56.28991a.96757.96757,0,0,0-.967-.96759H63.84745V53.065a.96575.96575,0,0,1,.96588-.967H79.00244a.96653.96653,0,0,1,.96645.967l.13,4.999H92.67227l.13161-4.999a.96651.96651,0,0,1,.966-.967h33.18a.96762.96762,0,0,1,.96816.967l.13161,4.999h12.5695l.13161-4.999a.96757.96757,0,0,1,.96759-.967H155.9064a.96672.96672,0,0,1,.967.967v2.25732H154.6161a.96757.96757,0,0,0-.967.96759V58.064h6.36858l1.61188,1.61132v60.298H161.533l-1.83689,3.8692h-4.19567v4.19295A2.25769,2.25769,0,0,1,153.2431,130.29282Z"/><path class="cls-5" d="M100.68664,123.84256l.09782.1166.0016.11887a1.62186,1.62186,0,0,0,.27437.87374l1.493,2.21284a7.09449,7.09449,0,0,0,5.88047,3.12821h3.85078a7.09447,7.09447,0,0,0,5.88046-3.12821l1.493-2.21284a1.62727,1.62727,0,0,0,.27493-.87374l.00273-.11887.09772-.1166Z"/><path class="cls-2" d="M120.03355,123.84256l-1.31465,1.56684a6.45148,6.45148,0,0,1-4.94007,2.30339h-6.8385a6.45266,6.45266,0,0,1-4.94064-2.30339l-1.31305-1.56684Z"/><path class="cls-3" d="M161.62955,120.39994H59.09018a.42658.42658,0,1,1,0-.85315H161.62955a.42658.42658,0,1,1,0,.85315Z"/><path class="cls-3" d="M161.62955,99.7633H59.09018a.42658.42658,0,1,1,0-.85315H161.62955a.42658.42658,0,1,1,0,.85315Z"/><path class="cls-3" d="M161.62955,68.80833H59.09018a.42658.42658,0,1,1,0-.85315H161.62955a.42658.42658,0,1,1,0,.85315Z"/><path class="cls-3" d="M161.62955,60.10189H59.09018a.42658.42658,0,1,1,0-.85315H161.62955a.42658.42658,0,1,1,0,.85315Z"/><path class="cls-3" d="M160.01767,58.49058H60.702a.42658.42658,0,1,1,0-.85315h99.31572a.42658.42658,0,0,1,0,.85315Z"/><path class="cls-3" d="M127.918,56.57429H117.051a.28439.28439,0,1,1,0-.56877H127.918a.28439.28439,0,0,1,0,.56877Z"/><path class="cls-3" d="M103.66993,56.57429h-10.866a.28439.28439,0,0,1,0-.56877h10.866a.28439.28439,0,0,1,0,.56877Z"/><path class="cls-3" d="M119.33158,55.60671a.2842.2842,0,0,1-.28439-.28439V53.05113l.006-.126.00228-.02446.01717-.12444.005-.02776.02832-.11944.00785-.02605.03936-.11387a.33064.33064,0,0,1,.01331-.03276l.05176-.105.011-.02059.05721-.095a.29867.29867,0,0,1,.02389-.03435l.06836-.08338a.24755.24755,0,0,1,.02389-.026l.07383-.07007a.32258.32258,0,0,1,.03276-.02719l.08-.05551a.31083.31083,0,0,1,.04061-.02389l.085-.04049a.27178.27178,0,0,1,.04664-.01786l.08884-.02446a.27119.27119,0,0,1,.05108-.00944l.089-.00831a.28445.28445,0,0,1,.05107.56661l-.06336.00557-.03936.011-.04232.02059-.04323.02991-.04561.04334-.04391.05392-.03993.06723-.0389.07826-.02832.08338-.02218.09214-.01332.0984-.005.10716v2.25A.28457.28457,0,0,1,119.33158,55.60671Z"/><path class="cls-3" d="M115.25409,58.49058a.42674.42674,0,0,1-.42657-.42658V53.065l.00057-.02388.00717-.126c.00056-.01217.0017-.02446.00341-.03663l.01774-.12445c.00216-.01274.00444-.026.00774-.0389l.02832-.11887c.0033-.01331.00671-.02662.01115-.03936l.03936-.11387a.42581.42581,0,0,1,.01786-.04447l.04994-.105a.34908.34908,0,0,1,.02229-.0405l.05881-.09555a.47222.47222,0,0,1,.03117-.04391l.06768-.08383a.45059.45059,0,0,1,.0372-.04061l.07394-.07a.42293.42293,0,0,1,.04937-.0405l.08-.05608a.43361.43361,0,0,1,.06063-.0356l.085-.0405a.44355.44355,0,0,1,.06825-.02616l.08839-.02446a.416.416,0,0,1,.07769-.01444l.089-.00831a.42665.42665,0,1,1,.07655.84985l-.06381.00831-.04606.02775-.03.02889-.03333.04061-.03162.05222-.02947.06211-.025.07166-.01888.08-.01275.08668-.005.09612V58.064A.42674.42674,0,0,1,115.25409,58.49058Z"/><path class="cls-3" d="M79.96889,53.34939H63.84745a.28439.28439,0,0,1,0-.56877H79.96889a.28439.28439,0,0,1,0,.56877Z"/><path class="cls-3" d="M127.918,53.34939H92.80388a.28439.28439,0,0,1,0-.56877H127.918a.28439.28439,0,0,1,0,.56877Z"/><path class="cls-3" d="M156.87342,53.34939H140.75073a.28439.28439,0,0,1,0-.56877h16.12269a.28439.28439,0,0,1,0,.56877Z"/><path class="cls-3" d="M101.38929,55.60671a.2842.2842,0,0,1-.28438-.28439l-.005-2.35617-.01444-.09828-.02162-.09225-.0306-.08657-.03492-.07553-.04277-.06723-.0439-.05551-.04449-.04175-.04379-.03048-.04277-.02059-.03777-.011-.06279-.00557a.28443.28443,0,1,1,.05051-.56661l.08941.00831a.31206.31206,0,0,1,.05335.00944l.08668.025a.25586.25586,0,0,1,.04493.01729l.085.04049a.27732.27732,0,0,1,.04061.02389l.08.05551a.29971.29971,0,0,1,.03162.02616l.0744.07a.31288.31288,0,0,1,.02889.03163l.06564.08338a.22218.22218,0,0,1,.01661.02332l.06051.095a.21631.21631,0,0,1,.01775.03276l.04891.10443.01058.026.04.11386.00831.02776.02832.11944.005.02559.01775.12445a.2097.2097,0,0,1,.00228.02662l.00659.126v2.27119A.2842.2842,0,0,1,101.38929,55.60671Z"/><path class="cls-3" d="M105.46507,58.49058a.42674.42674,0,0,1-.42658-.42658V53.07229l-.00329-.09556-.01172-.08224-.01889-.07713-.02661-.0745-.02833-.06211-.065-.09169-.05836-.04834-.0339-.01331-.04891-.00444a.42663.42663,0,0,1,.0761-.84985l.089.00831a.40945.40945,0,0,1,.0777.01444l.08838.02446a.53685.53685,0,0,1,.07.02673l.08441.04107a.40239.40239,0,0,1,.05835.03446l.08.05608a.41783.41783,0,0,1,.04606.03663l.07553.07053a.47914.47914,0,0,1,.04278.04607l.06665.084a.4366.4366,0,0,1,.02662.0372l.06063.095a.45922.45922,0,0,1,.02776.05107l.04778.105c.005.01115.01.02218.01387.03333l.04051.11387a.413.413,0,0,1,.01387.04493l.02832.11887c.00285.01285.00558.02616.00728.0389l.01775.12445a.41086.41086,0,0,1,.00387.0455l.00443.12615.00057.0149v4.999A.42673.42673,0,0,1,105.46507,58.49058Z"/><path class="cls-3" d="M103.66993,58.49058a.42674.42674,0,0,1-.42658-.42658V56.28991a.54229.54229,0,0,0-.54214-.541H93.23387l-.00341.19725v.10931a.42658.42658,0,1,1-.85315,0l.00341-.33261.00058-.01388.00545-.09169.00057-.01217.00728-.08167.0033-.02616.01058-.0711a.3897.3897,0,0,1,.00887-.04334l.015-.05824a.43718.43718,0,0,1,.01774-.05335l.01832-.04664a.43629.43629,0,0,1,.04061-.07667l.02332-.03447a.43634.43634,0,0,1,.111-.11386l.02946-.02a.41226.41226,0,0,1,.15778-.06768l.03492-.00728a.40893.40893,0,0,1,.08554-.00887h9.75013a1.39634,1.39634,0,0,1,1.39529,1.39416V58.064A.42673.42673,0,0,1,103.66993,58.49058Z"/><path class="cls-3" d="M117.051,58.49058a.42666.42666,0,0,1-.42658-.42658V56.28991a1.39524,1.39524,0,0,1,1.39358-1.39416h9.7507a.39367.39367,0,0,1,.08771.00944l.03389.00671a.42736.42736,0,0,1,.16108.0711l.02832.02047a.43072.43072,0,0,1,.09771.09783l.025.03447a.46273.46273,0,0,1,.04891.08884l.01832.04664a.35731.35731,0,0,1,.01774.05335l.015.05824a.41645.41645,0,0,1,.00887.04334l.01058.0711.00273.02172.0083.08156.00114.02116.00831.19827.00056.01172.00057.10772a.42611.42611,0,0,1-.4227.42988.43222.43222,0,0,1-.43045-.42316l-.00386-.19725H118.018a.5412.5412,0,0,0-.54043.541V58.064A.42673.42673,0,0,1,117.051,58.49058Z"/><path class="cls-3" d="M92.895,94.33886a.43043.43043,0,0,1-.14549-.02548l-.39551-.14447L92.33125,94.16l-.391-.16778-.025-.01161-.3838-.19554-.02116-.0116-.37766-.21943-.02-.01274-.36707-.24161-.02174-.015-.35206-.26493-.02-.01615-.33444-.28439-.0199-.01831-.31055-.30054-.01718-.01774-.28938-.31544-.01559-.01786L89.097,91.7239l-.01672-.02161-.23718-.32943-.01444-.02161-.21-.33273-.01388-.02389-.186-.34217-.01114-.02218-.15607-.3333-.01172-.02718-.16107-.415-.006-.01775-.15061-.44546-.00717-.02389-.12888-.47264-.005-.01888-.1116-.49995a.35.35,0,0,1-.00887-.05437l-.04675-.51826-.001-.01445-.0306-.5376-.00057-.01672-.01-.547V75.28361a.42674.42674,0,0,1,.42385-.42657l3.39042-.025a.43638.43638,0,0,1,.30383.12388.426.426,0,0,1,.12547.3027v4.13072h3.36481a.42636.42636,0,0,1,.42658.42657v3.38928a.42666.42666,0,0,1-.42658.42657H91.81526v1.85406l.0133,1.3192.01172.20441.021.20544.02889.2117.0794.41986.05506.20055.06438.19554.075.17882.10055.1894.12217.20054.1406.19657.16551.20112.18713.20157.22.2027.24332.205.286.20327.32772.21056.38608.21545.45649.22773a.426.426,0,0,1,.17552.60108l-1.714,2.85543A.42632.42632,0,0,1,92.895,94.33886Zm-.23774-.96758.05335.02L94.00648,91.233l-.05278-.02617-.01774-.00944-.4061-.2266-.02275-.0133-.34718-.2233-.01718-.01115-.30827-.21988c-.00944-.00672-.01831-.01343-.02718-.02116l-.26391-.22216-.01445-.01274-.23933-.22057-.02332-.02332-.20715-.22273-.01672-.01888-.18269-.22216-.01786-.02332-.15823-.22159a.27432.27432,0,0,1-.01729-.02617l-.13718-.22489L91.517,89.0217l-.11557-.21773c-.006-.0116-.0116-.02332-.0166-.03549l-.08885-.21226a.29058.29058,0,0,1-.01171-.031l-.07326-.2216-.00558-.02L91.1432,88.058a.26078.26078,0,0,1-.00728-.03049l-.08713-.45933-.00228-.01729-.031-.22762-.00228-.01342-.02275-.22216-.0017-.02048-.01218-.22114-.00057-.01387-.00557-.22546-.0083-1.11808V83.20516a.42673.42673,0,0,1,.42657-.42658H94.7535V80.24246H91.38868a.42666.42666,0,0,1-.42657-.42658V75.68846l-2.53727.01832V86.68l.01.53157.0289.52213.04447.48322.1033.46264.1233.4516.14276.42441.1522.39211.14492.30884.17336.31873.19486.30941.22171.30827.25162.30555.27323.29769.29155.28211.31385.2672.331.24935.346.22773.35718.20772.36049.18337Z"/><path class="cls-3" d="M115.308,77.90688l-.01842-.00057-.18326-.00774-.03333-.00273-.18053-.02229-.0339-.00558-.18939-.03936c-.01331-.00284-.02662-.00614-.03993-.01l-.1778-.05551-.02445-.00842-.17882-.06722-.03106-.01331-.17722-.08384-.03163-.01661-.16221-.094a.33329.33329,0,0,1-.0372-.02445l-.14662-.10659-.02117-.01615-.13991-.11546c-.01058-.00888-.02059-.01832-.0306-.02833l-.126-.12717a.27854.27854,0,0,1-.02173-.02344l-.1183-.13878c-.0083-.00944-.01546-.01888-.02275-.02889l-.10659-.14947a.34351.34351,0,0,1-.02172-.03379l-.09328-.16061c-.00614-.0099-.01114-.02048-.01615-.03049l-.08-.16836-.00774-.01717-.075-.17723c-.00614-.0149-.01172-.031-.01672-.04721l-.05165-.17768-.00773-.03219-.03674-.17723-.00387-.02275-.02662-.1778a.42449.42449,0,0,1-.00444-.0472l-.00614-.16438a.274.274,0,0,1,0-.0306l.00614-.18325a.431.431,0,0,1,.00387-.04664l.02776-.18883.00386-.02116.0372-.18769a.3846.3846,0,0,1,.01115-.04277l.05779-.18667.00944-.02833.0711-.18325.01444-.0322.0844-.17336.01445-.02718.09612-.16551a.33394.33394,0,0,1,.02162-.03333l.10829-.1522.01615-.021.11557-.14219c.00831-.01058.01718-.02.02606-.02946l.1266-.12889a.33911.33911,0,0,1,.02946-.02775l.14219-.12.02719-.021.14947-.10671a.3431.3431,0,0,1,.03549-.02275l.17109-.09782.02275-.01218.17052-.0844a.3644.3644,0,0,1,.03333-.015l.17392-.06836c.01218-.00444.02389-.00887.03606-.01217l.18724-.055.02491-.00671.17393-.04a.42372.42372,0,0,1,.04437-.00773l.17609-.02105a.31187.31187,0,0,1,.03219-.00284l.17939-.00774c.01285-.00057.02559-.00057.03833,0l.17552.00774.03175.00284.17551.02105c.01388.0017.02776.00443.04163.00728l.17769.03992.02889.00774.18383.05506.03.01.17938.06825c.01286.005.0256.01058.03777.01672l.17.0844a.30084.30084,0,0,1,.02946.01673l.16278.09771.0256.01615.15163.10659a.39109.39109,0,0,1,.03333.026l.13935.12.02172.01945.12934.12831a.37732.37732,0,0,1,.03277.03561l.11556.14265.01445.01888.10887.1522.01558.02275.10272.16449a.45248.45248,0,0,1,.02775.05164l.15937.36765a.53456.53456,0,0,1,.01786.05278l.05051.18667.00773.03219.03561.18724.00329.02378.025.18837c.00171.01331.00274.02605.0033.03936l.00728.1828c.00057.0116.00057.02332,0,.035l-.00728.16437c-.00056.01217-.00159.02446-.0033.03663l-.02275.1778-.00444.02718-.035.17666a.30615.30615,0,0,1-.00717.03106l-.04891.17779a.42974.42974,0,0,1-.01832.05267l-.0745.17723-.00547.01217-.07723.16779a.41358.41358,0,0,1-.02276.04334l-.09782.16107a.309.309,0,0,1-.02162.03162l-.11.14947a.28573.28573,0,0,1-.02.02446l-.11888.13878-.01444.01615-.121.12718a.42613.42613,0,0,1-.03276.03105l-.136.11558a.42214.42214,0,0,1-.03561.02718l-.15663.1067-.025.01559-.16051.09385a.33435.33435,0,0,1-.02935.016l-.17279.08339a.36271.36271,0,0,1-.0339.015l-.17666.06712a.23473.23473,0,0,1-.02935.01l-.1828.055c-.01217.00387-.02389.0066-.03606.00944l-.18724.03891c-.0116.00273-.02331.00443-.03492.006l-.18052.02229-.03333.00273-.17837.00774Zm-.14719-.85975.14719.006.14322-.006.14606-.01843.1522-.03162.15061-.0455.14492-.05506.14105-.06825.13389-.07838.12558-.08554.101-.08657.09783-.10283.10215-.1183.08941-.121.075-.12387.12558-.28439.03721-.135.02888-.14765.01889-.14618.00557-.12876-.00557-.14561-.02116-.1572-.02992-.15937-.0389-.1439-.12718-.29382-.08054-.1282-.09441-.13116-.09282-.115-.10215-.101-.11273-.09669-.12229-.08611-.13548-.08111-.13548-.06768-.1456-.05563-.15493-.04607-.1422-.03219-.13775-.01672-.13992-.006-.14389.006-.13776.01672-.14.03219-.15709.04607-.13946.05506-.14276.07053-.14106.08054-.11773.0844-.1133.09555-.0984.10056-.095.1166-.08884.12444-.07826.13492-.06951.14332-.05938.15277-.04664.15107-.03116.15493-.02275.15391-.00444.14435.00444.125.02172.14333.03049.14878.04.1373.06109.14493.06825.14389.0745.12832.08441.1183.09612.11216.09988.10056.11341.09385.11773.08611.12775.07382.14549.06894.15049.05665.14561.04493.15209.03162Z"/><path class="cls-3" d="M117.00476,93.88453h-3.39143a.42666.42666,0,0,1-.42658-.42657V79.81588a.42636.42636,0,0,1,.42658-.42657h3.39143a.42629.42629,0,0,1,.42657.42657V93.458A.42658.42658,0,0,1,117.00476,93.88453Zm-2.96486-.85315h2.53828V80.24246H114.0399Z"/><path class="cls-3" d="M103.901,94.23387l-.01661-.00046-.45774-.01786-.02048-.001-.45774-.04-.02548-.00273-.44943-.06666-.02663-.005-.44159-.09441-.02661-.00614-.42942-.12115-.01945-.006-.421-.14-.02662-.01-.41-.16824-.02331-.01-.39325-.1894-.02548-.01331-.37994-.215-.02-.01217-.36765-.23661-.02116-.01445-.35377-.2589a.22929.22929,0,0,1-.02389-.01831l-.33216-.28109-.01445-.01217-.32-.296-.021-.02115-.29668-.31544-.0166-.01888-.27995-.335c-.00671-.00716-.01217-.01558-.01831-.02332l-.25606-.35377-.01171-.01672-.23878-.36606-.01558-.026-.21158-.3805L97.0214,90.122l-.19225-.38767-.0116-.02616-.16722-.40428-.00944-.0256-.14162-.41485-.00785-.0256-.116-.42885-.00557-.02218L96.2754,87.947l-.00443-.02617-.0678-.45046-.00273-.02434-.04163-.45217-.00171-.03-.01-.45149v-.01843l.01-.45034.00171-.03.04163-.4549.00273-.02446.0678-.45046.00443-.02662.09442-.43715.00557-.02173.116-.42931.00785-.02445.14105-.4193.00944-.02616.16552-.40269L96.828,83.268l.194-.38824.00887-.01718.21158-.37936.015-.0256.23935-.36663.01284-.01888.25606-.351.01718-.02218.27995-.33489L98.08,81.3445l.29725-.31385.0183-.01831.31988-.2994.01729-.01559.33216-.2788.02219-.01718.35319-.25936.0223-.015.36765-.23661.02116-.01229.37936-.21431.02389-.01285.3937-.19.02617-.0116.40939-.16494.02275-.00842.421-.14322.02219-.00671.42941-.12058.02776-.00659.44159-.09226.02161-.00387.44933-.07.02775-.00387.45775-.04061.02832-.00159.45763-.01058h.01945l.46218.01058.02833.00159.45706.04061.02775.00387.44716.07.02.00387.44932.09226.02889.00659.42931.12058.02389.00717.41656.14276.02389.00944.40166.16506.02161.00944.39825.19042.02662.01388.37721.21442.01888.01115.36936.23661.02389.01615.35161.25936.02047.016.33387.27892.01717.0149.3217.3.01934.01888.29723.31385.01775.02059.27824.33489.01445.01831.26049.351.015.02161.23831.36606.01445.02389.21328.37937.01217.02445.18667.38938.00888.01945.16881.40269a.263.263,0,0,1,.01114.02946l.14049.4193.00728.02275.11716.42941.005.02219.09555.43715.005.02719.06723.45046.00273.02275.04391.4549.00159.02889.01228.45046a.167.167,0,0,1,0,.02389l-.01228.4516-.00159.0289-.04391.45319-.00273.02275-.06723.44932-.005.02674-.095.43988-.00558.02275-.11716.42828-.00785.02389-.13992.41543-.01058.02718-.16881.4044-.00944.02115-.18667.38711-.01217.02388-.21328.37994-.01445.02446-.23831.36594-.01388.02-.2605.35389-.01558.01933-.27824.33558-.01718.01945-.29667.31544a.26348.26348,0,0,1-.02218.02161l-.32158.2961-.01445.01274-.33443.28051-.02161.01718-.35161.2589-.02275.01559-.36879.236-.01888.0116-.37778.215-.02775.01445-.39825.1894-.01889.0083-.40155.16836-.02832.01046-.41656.1406-.02059.006-.42931.12115-.02832.00671-.44933.09441-.025.00444-.44717.06666-.02548.00273-.4566.04-.02116.001-.46207.01786Zm-.431-.87033.431.01672.43488-.01672.43385-.03776.42214-.0628.42328-.08884.40484-.11386.39211-.13218.37835-.15835.37436-.17825.35434-.20157.3482-.22273.32942-.24275.31658-.2655.30327-.27938.27721-.29439.26152-.31555.246-.33318.2233-.34445.2-.3565.1761-.36492.15891-.38051.13161-.3888.111-.40553.0894-.41486.06393-.42487.04107-.42771.01171-.425-.01171-.4243-.04107-.42931-.06393-.42555-.0894-.41269-.111-.40713-.13161-.39267-.15891-.37823-.1761-.3672-.19941-.35548-.22386-.34376-.24548-.331-.26163-.31555-.27824-.29383-.30327-.2821-.31544-.2638-.33-.24332-.34877-.22272-.35377-.20112-.37391-.17825-.3788-.15607-.39324-.135-.40269-.11273-.42544-.08714-.42327-.06666-.42817-.03833-.43829-.01-.43374.01-.43.03833-.42487.06666-.41713.08714-.40439.11273-.39871.13559-.38551.1555-.36821.17825-.35719.20112-.34661.22272-.33159.24332-.31327.26266-.30213.28324-.27881.2944-.26219.31441-.24105.33045-.225.34547-.1994.35776-.18269.36605-.15391.37539-.13275.39381-.11046.4061-.089.41315-.06381.425-.03891.42816-.00944.42658.00944.42714.03891.42555.06381.42544.089.41542.10989.4044.13275.38937.15618.37823.181.36549.1994.35821.225.3449.24161.3333.26221.31384.27823.29553.30156.27938.31384.26493.331.24218.34717.2233.35719.20214.36935.17768.38437.15778.39814.13275.4061.11386.41543.08884.42384.0628Zm.431-2.34946h-.016l-.28336-.01114c-.011,0-.02218-.00114-.03333-.00216l-.27539-.03231-.02344-.0033-.27881-.04778c-.01274-.00216-.02491-.005-.03776-.0083l-.27324-.0728-.02275-.0066-.26937-.08839a.309.309,0,0,1-.0323-.0116l-.26323-.11057-.02616-.0116-.25378-.12729-.02776-.0149-.246-.14663-.0323-.02116-.22762-.16551-.01229-.00887-.2283-.17882a.30921.30921,0,0,1-.02833-.02446l-.216-.20168c-.00888-.00831-.01775-.01718-.0256-.026l-.19213-.21329-.01171-.01331-.18826-.22773c-.00831-.01-.01616-.02059-.02332-.03117l-.16551-.24218a.23091.23091,0,0,1-.01775-.02889l-.14447-.25106-.01217-.02388-.12831-.2605-.01115-.02446-.11114-.26766-.00887-.02332-.09714-.27937c-.00444-.01275-.00785-.0256-.01115-.03891l-.06939-.28438-.00558-.0256-.05221-.29211c-.00227-.01218-.00386-.02446-.005-.0372l-.02662-.29326-.00171-.02172L99.473,86.52c-.00045-.01115-.00045-.02275,0-.0339l.01115-.29053.00171-.02161.02662-.295c.00114-.01217.00273-.025.005-.0372l.05221-.29155.005-.02389.06939-.28836c.00341-.01388.00785-.02776.01228-.04107l.09715-.27664.00785-.02048.111-.27107.01229-.02719.12774-.2589.01274-.02332.1439-.25049.01718-.02775.1638-.23991.02332-.03173.19054-.2299.01285-.015.19213-.21158c.00774-.009.01661-.0173.025-.0256l.216-.20111.02219-.01889.2283-.185.01888-.01445.22717-.16437.03333-.02161.24662-.145.02889-.01547.25389-.12445.021-.00944.2622-.11113a.353.353,0,0,1,.03447-.01274l.26993-.08771.02548-.00785.27108-.07.02616-.00615.28154-.0538a.35857.35857,0,0,1,.0422-.00615l.27551-.025.025-.00171.28381-.00887h.02662l.28336.00887.02548.00171.27221.025c.01388.00114.02719.0033.04107.00558l.28438.05437.02332.005.28108.07052c.01058.00285.02105.00558.03163.00945l.26333.08781.02935.011.26505.11113.02491.01172.25.12433.02832.01559.24264.14492.02559.01615.23547.16438.0256.01945.22659.185.02389.02116.21158.20043.01843.01888.19713.21113.02275.02719.18167.23.01388.01888.16881.2399a.31049.31049,0,0,1,.02.03163l.14492.251.01115.02.13161.25833.01444.03163.11115.27107.01114.02992.08941.27665.00546.01888.07951.28768c.00387.015.00717.0306.01.04619l.04607.29154.00273.02059.0322.29553.0017.02878.01172.29053a.33624.33624,0,0,1,0,.0339l-.01172.29212-.0017.02946-.0322.29325-.00273.02059-.04607.29212a.47457.47457,0,0,1-.01058.04778l-.07894.28438-.00489.01672-.09.27881a.2419.2419,0,0,1-.01228.03276l-.111.26766-.01285.0289-.13162.26-.01114.021-.14492.251a.35235.35235,0,0,1-.02.03163l-.16881.24161-.01614.02173-.1811.22716a.29734.29734,0,0,1-.02048.02389l-.19725.21329-.01888.01945-.21158.20157c-.00944.00887-.01945.01786-.03.02616l-.2266.17882-.01945.01388-.23547.16551-.02446.01615-.24218.14663-.02832.01559-.25162.1266a.24342.24342,0,0,1-.02776.01274l-.26277.11057-.02935.011-.26333.08781-.02832.00831-.28052.0728a.288.288,0,0,1-.03606.00773l-.28439.04835-.02161.00273-.27164.03231c-.01115.001-.02275.00216-.0339.00216l-.28325.01114Zm-.251-.86259.251.00945.25048-.00945.24447-.02889.25548-.04334.24878-.06438.23444-.07838.23433-.09828.2233-.11273.2167-.13116.21386-.14993.201-.1588.18769-.17836.17723-.19213.16335-.205.15049-.215.12946-.22545.11932-.236.0984-.23661.08156-.2539.07064-.25276.0405-.25822.02946-.26823.01-.2606-.01-.25936-.02946-.26994-.04107-.25765-.07007-.2556-.08156-.25208-.09885-.24-.11842-.23319-.12934-.22387-.15106-.215-.16335-.20715-.17666-.18939-.19042-.18053-.20169-.16494-.21-.14663-.21545-.12831-.22273-.11114-.23775-.09942-.23217-.07781-.25276-.06325-.25207-.04834-.23888-.02161-.2572-.00842-.25765.00842-.24161.02161-.24776.04778-.245.06336-.24048.07826-.23433.09942-.22944.11216-.21442.12672-.20214.14549-.20771.16824-.19225.17894-.17267.19053-.17166.20715-.14333.21044-.12888.225-.11546.23331-.10113.24662-.08611.24548-.06165.25492-.04664.26106-.02446.2655-.01.26323.01.26447.02446.2638.04664.26163.06165.25162.08555.24775.10112.24321.116.23661.12888.225.145.21158.17.20555.17381.1927.18883.17666.20771.16221.20556.14936.216.12888.22728.11387.23376.09771.24162.079.24388.06495.24878.04277Z"/><path class="cls-3" d="M126.71109,94.23387l-.01673-.00046-.456-.01786-.01991-.001-.46047-.04-.02617-.0033-.44545-.06666-.02446-.00387-.44932-.09441-.02833-.00671-.42987-.12115-.01945-.006-.42214-.14-.02833-.01047-.406-.16835-.02332-.01058-.38938-.1894-.02389-.01217-.37879-.21556-.02059-.01217-.36709-.236-.02115-.015-.35275-.25833-.02389-.01888-.33045-.281-.01161-.01058-.32385-.29553-.02116-.02059-.29985-.31544-.01729-.01888-.28325-.33489-.02275-.02946-.24991-.35378-.25106-.37493a.37632.37632,0,0,1-.02-.03276l-.20771-.3805-.01-.01945-.18667-.38711-.01217-.02787-.1605-.40427-.00558-.01331-.14891-.415a.24934.24934,0,0,1-.00887-.02775l-.12216-.42828-.00672-.02719-.09385-.43988-.005-.02617-.0678-.45046-.0033-.02878-.036-.45274-.00114-.02058-.01445-.45149v-.0273L118.97,86.039l.00114-.02048.036-.4549.0033-.02946.0678-.45046.005-.02662.09385-.43715.00672-.02662.12216-.42942.00831-.026.14947-.42.00558-.015.16107-.40269.0116-.02662.18667-.38824.01-.02.20828-.37936a.255.255,0,0,1,.01945-.0322l.24491-.36719.00717-.01.25-.35093a.26635.26635,0,0,1,.02161-.02832l.28325-.33558.01786-.01888.30042-.31384.01831-.01832.32329-.29928.01388-.01229.32886-.27881.02389-.01945.35491-.25936.02-.01387.36548-.23616.02219-.01387.3805-.21375.02218-.01171.38881-.19054.02662-.0116.4061-.16551.02389-.009.422-.14265.0223-.00728.43044-.12.02889-.00659.44933-.09226.01945-.00387.44546-.07.02832-.00387.46047-.04061.02776-.00159.456-.01058h.02l.45592.01058.02775.00159.45718.04061.02719.00387.451.07.02115.00387.44432.09226.02662.00659.43443.12.02491.00774.41713.14276.0223.00887.40541.16506.025.011.39211.19054.02218.01171.38221.21432.01774.01057.37709.236.02947.02059.34547.25936.01785.01388.33376.27892.01615.01388.32431.29985.01946.01888.29882.31385.02275.02616.27108.33489.01228.01615.25708.35105.01229.01774.24048.36708.01615.02617.21214.37936.01.01832.19269.38824.01274.02832.16506.40439.0083.02105.14549.4177a.31016.31016,0,0,1,.01.03219l.11273.42885.00444.01832.095.43715.00558.03219.06222.45046.00171.01218.04937.4549c.0017.01228.00227.02388.00284.03617l.01046.45046v.02048l-.01046.4516c-.00057.01228-.00114.02445-.00284.03606l-.04937.45273-.00171.01172-.06222.45035-.00558.03174-.095.43988-.00444.01888-.11273.42828-.01.03276-.14605.41486-.00774.02059-.16506.40326-.01274.02775-.19269.38881-.01.01775-.21214.3805-.01615.02662-.24105.36606-.01115.01615-.25663.35377-.0133.01775-.27108.335-.02218.02491-.29825.31555-.02275.02219-.32444.295-.01217.01058-.33443.2821-.01934.015-.34558.25879-.0289.02-.37709.236-.01615.01-.37925.215-.02617.01331-.39438.1894-.021.00944-.40553.16779-.02719.01046-.41656.1406-.02173.0066-.43488.12058-.02548.00671-.44443.09384-.02605.005-.45047.06666-.02559.00273-.45649.04-.02059.001-.456.01786Zm-.42942-.87033.42942.01672.42873-.01672.43386-.03776.42487-.0628.41883-.08884.41043-.11443.3921-.13161.38107-.15835.37107-.17768.35877-.20328.35378-.22216.32158-.24059.31885-.2688.30656-.2788.27608-.29167.2539-.31373.24434-.33659.2266-.345.2-.35764.18167-.36549.1555-.37936.13605-.38824.10613-.40269.09-.415.05881-.42874.04732-.42828.0099-.4227-.0099-.4226-.04732-.431-.05881-.42828-.09-.41213-.10613-.40382-.13662-.39154-.15493-.37936-.18167-.36549-.2-.35719-.226-.3449-.24435-.33432-.25389-.31327-.27711-.29167-.30668-.28267-.31771-.2655-.32215-.24219-.35321-.221-.36162-.20282-.36822-.17882-.38164-.1555-.39267-.135-.40883-.11273-.42044-.08714-.426-.06666-.42885-.03833-.432-.01-.43215.01-.43215.03833-.421.06666-.42544.08714-.405.11273-.39882.13559-.381.15493-.36491.17825-.35832.20169-.34377.22272-.33216.24332-.31.26266-.3077.28495-.28211.295-.26334.311-.236.33159-.2316.346-.19326.35332-.17552.36492-.15221.38153-.14219.39882-.11386.40268-.08839.41042-.06382.42271-.03446.43-.01331.427.01331.42714.03446.42771.06382.42328.08839.41269.11386.401.14219.39439.15221.3838.17552.36435.19326.35377.2349.35059.23274.32932.2638.31156.28165.29554.30656.28108.31271.2655.33057.24218.346.22273.3565.20271.36549.17768.37993.15721.39825.13218.40656.11443.42327.08884.42043.0628Zm.42942-2.34946h-.01615l-.27939-.01114c-.01057,0-.02115-.00114-.03162-.00216l-.28164-.03231-.02447-.0033-.27824-.04778c-.01217-.00216-.025-.005-.03663-.0083l-.27493-.0728-.02117-.006-.2738-.08782c-.01229-.00387-.02389-.00887-.03605-.01388l-.25948-.11-.02218-.01057-.2572-.12718a.2994.2994,0,0,1-.03446-.01888l-.23821-.14663-.02-.01331-.23718-.16494-.02331-.01775-.22217-.17836a.33543.33543,0,0,1-.03-.02662l-.20771-.20169-.01388-.01387-.20055-.21329a.2591.2591,0,0,1-.021-.02389l-.1844-.22773c-.00728-.00944-.01444-.01889-.02115-.02935l-.1638-.24161-.01446-.02287-.14776-.25162-.01229-.02332-.13161-.25936-.01388-.02946-.111-.26823-.01115-.0306-.09168-.27881-.00615-.021-.07712-.28438c-.00387-.01388-.00671-.02776-.00944-.04175l-.04892-.29212-.0033-.02559-.03116-.29326-.00216-.02832L122.277,86.52a.33624.33624,0,0,1,0-.0339l.01115-.29053.00216-.02775.03116-.29485.0033-.02616.04892-.29155c.00216-.01343.00557-.02673.00888-.04l.07723-.28769.00716-.02331.09169-.27722.01-.02833.111-.2705.01445-.03106.13161-.25833.01286-.02332.14719-.25048.01547-.02389.16335-.23991.01945-.02616.18383-.22989c.00717-.00945.01558-.01889.02389-.02787l.20112-.211.01273-.01331.20772-.20111.02389-.02105.22216-.18439a.371.371,0,0,1,.02946-.02286l.23775-.16438.021-.01387.23832-.14493a.40042.40042,0,0,1,.03559-.01945l.25652-.12444.01831-.00831.25948-.11113c.01216-.005.0249-.01.03719-.01388l.2738-.08771.02446-.00728.27267-.07.025-.00615.27995-.0538a.37.37,0,0,1,.04391-.00615l.28154-.025.02388-.00171.27938-.00887h.02673l.28154.00887.025.00171.27778.025a.34215.34215,0,0,1,.04221.00615l.28381.0538.02548.00558.27437.07052.02844.00785.26653.08827c.01171.00387.02332.00831.035.01331l.25765.11114.01786.0083.25549.12445a.31619.31619,0,0,1,.02946.01547l.24708.14447.03173.02059.231.16437.02388.01888.22387.185.01831.01558.216.19986.025.025.1944.21215.01945.02286.18224.22933.011.01445.175.241a.40408.40408,0,0,1,.02446.03777l.14447.25.0149.02832.12444.25936.01229.02775.10659.27051.00671.01831.095.27722.01047.03492.07166.28768.00557.02446.05506.29166c.00216.01331.00444.02662.00546.0405l.02674.295.00159.0256.009.29041v.02616l-.009.29212-.00159.02559-.02674.29326c-.001.01388-.0033.02719-.00546.04049l-.05506.29281-.00614.02548-.07154.28438a.33334.33334,0,0,1-.01.03276l-.095.27938-.00728.01945-.10659.26891-.01172.02662-.12444.25936-.01434.02775-.14446.25106a.4124.4124,0,0,1-.02446.0389l-.17494.24161-.01275.01615-.18223.22774-.01774.021-.19441.21329-.02389.02389-.216.20168a.32234.32234,0,0,1-.02559.02162l-.22387.17882-.01775.01342-.231.16551a.28194.28194,0,0,1-.0306.01991l-.24661.14662-.02833.015-.25606.12718-.02161.01-.25777.11056-.03389.01274-.26653.08782-.02445.00717-.27495.0728c-.01228.0033-.025.00614-.03776.0083l-.28382.04835-.02229.00273-.27824.03231c-.01115.001-.02173.00216-.03276.00216l-.28166.01114Zm-.24662-.86259.24662.00945.24934-.00945.25049-.02889.25332-.04277.24321-.06495.23717-.07838.23-.09828.23047-.11444.21772-.12945.20727-.14765.20213-.16164.19156-.17837.17393-.191.16722-.2084.1555-.21488.1249-.21829.11113-.23217.09715-.24491.08668-.25276.0645-.25492.0488-.25947.02332-.2605.00841-.26606-.00841-.26493-.02332-.26209-.0488-.2589-.06507-.25822-.08611-.25049-.09715-.24718-.11113-.23161-.12434-.21613-.15663-.21488-.16722-.21055-.17222-.18826-.19441-.18-.2027-.16722-.20328-.14492-.21659-.12672-.23217-.1133-.23171-.09942-.2349-.07769-.24776-.06336-.24991-.04778-.24435-.02161-.25605-.00842-.25333.00842-.24776.02161-.246.04778-.24764.06381-.24275.07781-.23217.09942-.22944.11114-.21.12774-.21158.14663-.19554.16267-.19.18337-.18212.19156-.16222.20327-.14662.215-.13389.22716-.11774.2316-.09828.24059-.08338.25105-.06881.25652-.04335.25833-.02832.26823-.01.25993.01.26106.02832.26664.04335.2589.06881.25321.08338.25333.09828.2382.11831.23331.13389.2283.14549.21556.16278.20044.18326.195.18666.1811.19555.1572.21487.14993.21113.13.22819.11273.23.09771.24491.079.24605.06495.24718.04277Z"/><path class="cls-3" d="M84.2402,128.76262a.42674.42674,0,0,1-.42657-.42658v-4.49348a.42658.42658,0,0,1,.85315,0V128.336A.42666.42666,0,0,1,84.2402,128.76262Z"/><path class="cls-3" d="M86.17594,126.82859h-.01115a.42689.42689,0,0,1-.41542-.43773l.06666-2.55944a.42643.42643,0,1,1,.85258.02218l-.06666,2.55945A.42622.42622,0,0,1,86.17594,126.82859Z"/><path class="cls-3" d="M136.47668,128.76262a.42673.42673,0,0,1-.42657-.42658v-4.49348a.42657.42657,0,1,1,.85314,0V128.336A.42636.42636,0,0,1,136.47668,128.76262Z"/><path class="cls-3" d="M113.77883,128.13936h-6.8385a6.86035,6.86035,0,0,1-5.26723-2.45559l-1.31362-1.56683a.42661.42661,0,1,1,.65374-.54829l1.31362,1.56695a6.00879,6.00879,0,0,0,4.61349,2.15061h6.8385a6.00833,6.00833,0,0,0,4.61349-2.15118l1.31407-1.56638a.42666.42666,0,0,1,.65386.54829l-1.31419,1.56683A6.86121,6.86121,0,0,1,113.77883,128.13936Z"/><path class="cls-4" d="M69.73224,123.84256v4.19295a2.25726,2.25726,0,1,1-4.51452,0v-4.19295Z"/><path class="cls-4" d="M155.50042,123.84256v4.19295a2.25732,2.25732,0,0,1-4.51463,0v-4.19295Z"/><path class="cls-3" d="M159.69393,124.26914H61.02466a.42658.42658,0,0,1,0-.85315h98.66927a.42658.42658,0,0,1,0,.85315Z"/><path class="cls-8" d="M153.2431,130.86159a2.83173,2.83173,0,0,1-2.71165-2.02788.56835.56835,0,0,1-.27551.0711H136.47668a2.505,2.505,0,0,1-2.50223-2.49506l-.05221-1.99842h-13.4504a2.19082,2.19082,0,0,1-.34046.85645l-1.49471,2.21511a7.65359,7.65359,0,0,1-6.352,3.3787h-3.85078a7.65432,7.65432,0,0,1-6.352-3.3787l-1.493-2.21295a2.20558,2.20558,0,0,1-.34159-.85861l-4.93951.001a1.86055,1.86055,0,0,1-1.63134.967H86.7719l-.02719,1.031a2.50651,2.50651,0,0,1-2.50451,2.49449H70.46208a.56841.56841,0,0,1-.27551-.0711,2.82638,2.82638,0,0,1-5.53762-.7982v-3.62418H61.0258a.56892.56892,0,0,1-.51371-.32442l-1.72632-3.633a.56861.56861,0,0,1-.26436-.4805v-60.298a.56836.56836,0,0,1,.16654-.40212l1.61188-1.61132a.5692.5692,0,0,1,.40212-.16664h5.79993V56.28991a.399.399,0,0,0-.39825-.39882H63.84745a.56875.56875,0,0,1-.56876-.56877V53.065a1.53669,1.53669,0,0,1,1.53464-1.53578H79.00244a1.53719,1.53719,0,0,1,1.53521,1.52748l.11558,4.43854H92.11795l.11717-4.43854a1.53688,1.53688,0,0,1,1.53476-1.52748h33.18a1.53792,1.53792,0,0,1,1.53692,1.52748l.1166,4.43854h11.462l.11659-4.43854a1.53788,1.53788,0,0,1,1.53636-1.52748H155.9064a1.5373,1.5373,0,0,1,1.53578,1.53578v2.25732a.56875.56875,0,0,1-.56876.56877H154.6161a.399.399,0,0,0-.39825.39882v1.20533h5.79982a.56926.56926,0,0,1,.40223.16664l1.61188,1.61132a.56836.56836,0,0,1,.16654.40212v60.298a.5681.5681,0,0,1-.26379.4805l-1.72462,3.63248a.5696.5696,0,0,1-.51382.325h-3.62691v3.62418A2.82936,2.82936,0,0,1,153.2431,130.86159Zm-2.98716-7.58779h.72985a.56876.56876,0,0,1,.56877.56876v4.19295a1.68855,1.68855,0,1,0,3.37709,0v-4.19295a.56875.56875,0,0,1,.56877-.56876h3.83575l1.683-3.54432a.58331.58331,0,0,1,.04164-.07383V59.91078l-1.27859-1.278h-6.13311a.56912.56912,0,0,1-.56877-.56877V56.28991a1.53814,1.53814,0,0,1,1.53578-1.53635h1.68855V53.065a.399.399,0,0,0-.39825-.39824H141.71832a.39918.39918,0,0,0-.39883.39824l-.00044.015-.13117,4.999a.569.569,0,0,1-.56876.55375h-12.5695a.569.569,0,0,1-.56877-.55375l-.13161-4.999v-.015a.39959.39959,0,0,0-.39939-.39824h-33.18a.39811.39811,0,0,0-.39723.39824l-.00045.015-.13173,4.999a.56811.56811,0,0,1-.5682.55375H80.09891a.569.569,0,0,1-.56877-.55375l-.12945-4.999-.00057-.015a.3985.3985,0,0,0-.39768-.39824H64.81333a.39838.39838,0,0,0-.39711.39824v1.68856h1.68741a1.53778,1.53778,0,0,1,1.53578,1.53635V58.064a.56883.56883,0,0,1-.56877.56877H60.93753l-1.27859,1.278v59.74487a.6184.6184,0,0,1,.04164.07326l1.68457,3.54489h3.83257a.56882.56882,0,0,1,.56876.56876v4.19295a1.6885,1.6885,0,1,0,3.377,0v-4.19295a.56884.56884,0,0,1,.56877-.56876h.72984a.56912.56912,0,0,1,.56877.56876v3.92472H84.2402a1.36783,1.36783,0,0,0,1.367-1.36527v-.015l.04277-1.59187a.56858.56858,0,0,1,.56876-.55329h7.45777a.72254.72254,0,0,0,.69879-.541.56854.56854,0,0,1,.55045-.426l5.76092-.001a.56891.56891,0,0,1,.43545.20328l.09783.116a.57378.57378,0,0,1,.13331.35719l.00159.11944a1.04852,1.04852,0,0,0,.17894.56592l1.4913,2.21068a6.51746,6.51746,0,0,0,5.40885,2.87773h3.85078a6.51846,6.51846,0,0,0,5.40941-2.87773l1.493-2.21284a1.0528,1.0528,0,0,0,.17723-.5649l.00273-.12217a.57256.57256,0,0,1,.13275-.35332l.09771-.116a.56954.56954,0,0,1,.436-.20328h14.443a.5686.5686,0,0,1,.5682.55432l.06665,2.55944.00057.01445a1.36661,1.36661,0,0,0,1.3647,1.36527h13.2105v-3.92472A.56912.56912,0,0,1,150.25594,123.2738Z"/></g></g></svg>