<svg xmlns="http://www.w3.org/2000/svg" viewBox="0 0 75 75"><defs><style>.cls-2{fill:#c7d932}.cls-3{fill:#fff}</style></defs><g id="レイヤー_2" data-name="レイヤー 2"><g id="レイヤー_2-2" data-name="レイヤー 2"><g id="CIRCLE"><circle cx="37.5" cy="37.5" r="37.5" fill="none"/><path class="cls-2" d="M5 37.5A32.5 32.5 0 1137.5 70 32.5 32.5 0 015 37.5z"/></g><path class="cls-3" d="M28.964 16.177a7.095 7.095 0 00-1.356-.678l.29-.527a8.474 8.474 0 011.38.621zm-.848 1.626l-.18-.626a3.511 3.511 0 003.058-2.233l.517.412a4.122 4.122 0 01-3.395 2.447zm1.455-2.712a7.756 7.756 0 00-1.36-.683l.293-.521a9.346 9.346 0 011.38.62zm3.901 1.432v-.531h1.859v-.636h-1.987v-.54h2.598v2.911H33.33v-.54h2.002v-.664zm5.275-.138a7.736 7.736 0 00-.412-1.242l.512-.199a8.369 8.369 0 01.474 1.233zm.446 1.499l-.308-.498a2.374 2.374 0 001.892-2.485h.616a2.97 2.97 0 01-2.2 2.983zm.526-1.65a7.08 7.08 0 00-.407-1.238l.516-.204a8.26 8.26 0 01.465 1.233zm5.248-1.892h1.797c-.342 1.83-1.096 3.001-2.513 3.513l-.318-.517a3.051 3.051 0 001.991-2.423h-1.256a5.902 5.902 0 01-1.11 1.38l-.474-.417a4.965 4.965 0 001.39-2.044h.687a6.635 6.635 0 01-.194.508zM42.449 50.62h-.381a.45.45 0 01-.45-.45v-.22a.45.45 0 00-.45-.45h-.992a.45.45 0 00-.45.45v.22a.45.45 0 01-.45.45h-.38a.45.45 0 01-.45-.45v-.22a.45.45 0 00-.45-.45h-.992a.45.45 0 00-.45.45v.22a.45.45 0 01-.45.45h-.38a.45.45 0 01-.45-.45v-.22a.45.45 0 00-.45-.45h-.992a.45.45 0 00-.45.45v.22a.45.45 0 01-.45.45h-.38a.45.45 0 01-.45-.45v-.22a.45.45 0 00-.45-.45h-.992a.45.45 0 00-.45.45v.207a3.962 3.962 0 003.962 3.962h6.656a3.962 3.962 0 003.962-3.962v-.207a.45.45 0 00-.45-.45h-.992a.45.45 0 00-.45.45v.22a.45.45 0 01-.45.45zM37.5 23.123c-6.847 0-11.526 3.891-11.526 9.507v9.358c0 2.07 2.561 4.698 4.236 4.698v1.084a.45.45 0 00.45.45h.992a.45.45 0 00.45-.45v-.22a.45.45 0 01.45-.45h.38a.45.45 0 01.45.45v.22a.45.45 0 00.45.45h.992a.45.45 0 00.45-.45v-.22a.45.45 0 01.45-.45h.38a.45.45 0 01.45.45v.22a.45.45 0 00.45.45h.992a.45.45 0 00.45-.45v-.22a.45.45 0 01.45-.45h.38a.45.45 0 01.45.45v.22a.45.45 0 00.45.45h.992a.45.45 0 00.45-.45v-.22a.45.45 0 01.45-.45h.38a.45.45 0 01.45.45v.22a.45.45 0 00.45.45h.992a.45.45 0 00.45-.45v-1.084c1.675 0 4.236-2.629 4.236-4.698V32.63c0-5.616-4.68-9.507-11.526-9.507z"/><path class="cls-2" d="M37.008 41.096l-1.307 2.264a.568.568 0 00.646.83l1-.281a.568.568 0 01.307 0l1 .281a.568.568 0 00.645-.83l-1.307-2.264a.568.568 0 00-.984 0zm-2.737-.076a.945.945 0 01-.67-.278l-3.559-3.557a.949.949 0 011.342-1.342l3.558 3.557a.95.95 0 01-.67 1.62z"/><path class="cls-2" d="M30.713 41.02a.95.95 0 01-.671-1.62l3.559-3.557a.949.949 0 011.341 1.342l-3.558 3.557a.945.945 0 01-.671.279zm13.574 0a.945.945 0 01-.67-.278l-3.56-3.557a.949.949 0 011.342-1.342l3.559 3.557a.95.95 0 01-.67 1.62z"/><path class="cls-2" d="M40.729 41.02a.95.95 0 01-.671-1.62l3.558-3.557a.949.949 0 011.342 1.342l-3.559 3.557a.945.945 0 01-.67.279z"/><path class="cls-3" d="M39.233 65.443a.642.642 0 11.642.655.649.649 0 01-.642-.655m-.533 0a1.175 1.175 0 101.175-1.17 1.16 1.16 0 00-1.175 1.17m-2.48.655a.655.655 0 11.641-.655.65.65 0 01-.642.655m0-1.825a1.17 1.17 0 101.175 1.17 1.16 1.16 0 00-1.175-1.17m-2.005.642h.608v-.543h-.608v-.732h-.554v1.832a1.412 1.412 0 00.107.553 1.147 1.147 0 00.692.613l.274-.465a.922.922 0 01-.456-.393.832.832 0 01-.062-.322v-.178zm3.472-1.272a.36.36 0 00.722 0 .36.36 0 10-.722 0m.089.729h.543v2.186h-.543zm3.212 2.035h-.077v-.026h.182v.026h-.076v.207h-.029v-.207zm.229.207l-.064-.189v.189h-.03v-.233h.042l.067.198.067-.198h.042v.233h-.03v-.189l-.064.189h-.03z"/></g></g></svg>