<svg xmlns="http://www.w3.org/2000/svg" viewBox="0 0 562.97 162.12"><style>.st8{fill:#666}.st12{fill:#fffdfd}.st13,.st14,.st17{fill:none;stroke:#cfe266;stroke-width:.75;stroke-miterlimit:10}.st14,.st17{stroke:#bfd833}.st17{stroke-linecap:round}.st18{fill:#bfd833}</style><g id="レイヤー_1"><path class="st13" d="M128.9 30.38V14.43"/><path class="st14" d="M371.16 30.38V14.43M242.28 30.38V14.43M427.85 30.38V14.43M112.94 30.38h15.96"/><path class="st13" d="M112.94 143.77h15.96"/><path fill="#e84720" d="M371.16 30.38h28.35v113.39h-28.35z"/><path fill="#005bab" d="M399.51 30.38h28.35v113.39h-28.35z"/><path fill="#e84720" stroke="#231815" stroke-width="1.5" stroke-linejoin="round" stroke-miterlimit="10" d="M128.9 30.38h113.39v113.39H128.9z"/><path fill="none" stroke="#231815" stroke-width="1.5" stroke-linejoin="round" stroke-miterlimit="10" d="M371.16 30.38h56.69v113.39h-56.69z"/><path class="st12" d="M378.91 79.15h3.47l6.29 11.05V79.15h3.09V95h-3.31L382 83.76V95h-3.09V79.15zM179.17 79.15h3.47l6.29 11.05V79.15h3.09V95h-3.31l-6.45-11.24V95h-3.09V79.15zM410.27 90.13c.1.72.3 1.27.6 1.62.55.65 1.49.98 2.82.98.8 0 1.44-.09 1.94-.26.94-.33 1.42-.94 1.42-1.84 0-.52-.23-.93-.69-1.21-.46-.28-1.2-.53-2.2-.74l-1.72-.38c-1.69-.37-2.84-.78-3.48-1.21-1.07-.73-1.6-1.87-1.6-3.43 0-1.42.52-2.6 1.57-3.54 1.04-.94 2.58-1.41 4.6-1.41 1.69 0 3.13.44 4.33 1.33 1.19.89 1.82 2.17 1.88 3.85h-3.18c-.06-.95-.49-1.63-1.28-2.03-.53-.26-1.19-.4-1.97-.4-.87 0-1.57.17-2.09.52s-.78.82-.78 1.44c0 .57.26.99.77 1.27.33.19 1.03.4 2.11.66l2.78.66c1.22.29 2.13.67 2.74 1.15.94.75 1.42 1.82 1.42 3.24 0 1.45-.56 2.65-1.68 3.61-1.12.96-2.7 1.44-4.74 1.44-2.09 0-3.73-.47-4.92-1.41-1.2-.94-1.79-2.24-1.79-3.89h3.14z"/><path class="st8" d="M187.15 9.93h.96v.73h-.96v1.71h-.86v-1.71h-3.41v-.89l2.93-4.53h1.34v4.69zm-.86-3.98h-.02l-2.56 3.98h2.58V5.95zM433.89 148.77h-.92v8.8h.92v.55h-1.65v-9.9h1.65v.55zM436.35 150.91v.81h.01c.26-.57.88-.93 1.59-.93.8 0 1.32.31 1.57.86h.03c.37-.63.99-.86 1.67-.86 1.23 0 1.84.8 1.84 1.92v3.47h-.85v-3.15c0-.93-.25-1.57-1.19-1.57-.65 0-1.29.43-1.29 1.48v3.24h-.85v-3.24c0-.93-.21-1.48-1.15-1.48-.7 0-1.35.51-1.35 1.64v3.08h-.85v-5.27h.82zM445.46 150.91v.81h.01c.26-.57.88-.93 1.59-.93.8 0 1.32.31 1.57.86h.03c.37-.63.99-.86 1.67-.86 1.23 0 1.84.8 1.84 1.92v3.47h-.85v-3.15c0-.93-.25-1.57-1.19-1.57-.65 0-1.29.43-1.29 1.48v3.24h-.85v-3.24c0-.93-.21-1.48-1.15-1.48-.7 0-1.35.51-1.35 1.64v3.08h-.85v-5.27h.82zM453.73 157.57h.92v-8.8h-.92v-.55h1.65v9.9h-1.65v-.55zM401.69 12.37h-4.48v-.77c2.94-2.69 3.55-3.51 3.55-4.52 0-.77-.65-1.24-1.43-1.24-.6 0-1.14.26-1.63.66l-.37-.62c.52-.46 1.24-.76 2-.76 1.3 0 2.3.66 2.3 1.94 0 1.35-.69 2.13-3.36 4.58h3.42v.73zM107.44 85.51v-.96h.73v.96h1.71v.86h-1.71v3.41h-.89l-4.53-2.93v-1.34h4.69zm-3.98.86v.02l3.98 2.56v-2.58h-3.98z"/><g><path class="st17" d="M131.01 16.21h109.15"/><path class="st18" d="M135.45 18.59l.25-.7-4.61-1.68 4.61-1.68-.25-.71-6.55 2.39zM235.73 18.59l-.26-.7 4.62-1.68-4.62-1.68.26-.71 6.55 2.39z"/></g><g><path class="st17" d="M373.28 16.21h52.45"/><path class="st18" d="M377.71 18.59l.26-.7-4.62-1.68 4.62-1.68-.26-.71-6.55 2.39zM421.3 18.59l-.26-.7 4.62-1.68-4.62-1.68.26-.71 6.55 2.39z"/></g><g><path class="st17" d="M114.72 32.5v109.15"/><path class="st18" d="M112.34 36.93l.7.26 1.68-4.62 1.68 4.62.71-.26-2.39-6.55zM112.34 137.21l.7-.25 1.68 4.61 1.68-4.61.71.25-2.39 6.56z"/></g></g></svg>