<svg xmlns="http://www.w3.org/2000/svg" viewBox="0 0 133.789 133.788"><defs><clipPath clipPathUnits="userSpaceOnUse" id="a"><path d="M0 100.341h100.342V0H0z"/></clipPath></defs><g clip-path="url(#a)" transform="matrix(1.33333 0 0 -1.33333 0 133.788)"><path d="M97.64 39.07c0-20.004-16.365-36.368-36.37-36.368H39.072c-20.004 0-36.37 16.364-36.37 36.368v22.197c0 20.004 16.366 36.372 36.37 36.372H61.27c20.005 0 36.37-16.368 36.37-36.372z" fill="#fff"/><path d="M97.64 39.07c0-20.004-16.365-36.368-36.37-36.368H39.072c-20.004 0-36.37 16.364-36.37 36.368v22.197c0 20.004 16.366 36.372 36.37 36.372H61.27c20.005 0 36.37-16.368 36.37-36.372z" fill="none" stroke="#71afc3" stroke-width="5.403" stroke-linecap="round" stroke-linejoin="round" stroke-miterlimit="10"/><path d="M18.27 58.916c1.862-.202 4.177-.302 6.795-.302 2.466 0 5.31.15 7.222.353V55.62c-1.737-.127-4.831-.302-7.197-.302-2.617 0-4.781.125-6.82.276zm2.114-10.57c-.227-.906-.428-1.685-.428-2.516 0-1.586 1.51-2.745 5.109-2.745 3.372 0 6.542.38 8.757.983l.026-3.498c-2.165-.53-5.16-.856-8.658-.856-5.712 0-8.581 1.912-8.581 5.335 0 1.46.302 2.668.504 3.6zM49.932 53.153c1.384.126 3.171.25 4.781.25 1.41 0 2.92-.074 4.38-.226l-.078-2.994c-1.232.152-2.767.303-4.277.303-1.736 0-3.246-.076-4.806-.277zm1.46-6.267c-.202-.704-.353-1.535-.353-2.087 0-1.084.63-1.888 3.297-1.888 1.661 0 3.397.176 5.184.503l-.126-3.196c-1.409-.176-3.095-.353-5.084-.353-4.202 0-6.34 1.46-6.34 3.977 0 1.132.226 2.34.427 3.322zm.503 8.18a52.201 52.201 0 00-4.832-.806 53.57 53.57 0 00-.755-3.196c-.905-3.498-2.592-8.606-3.95-11.525l-3.499 1.156c1.486 2.493 3.373 7.728 4.304 11.225.176.654.352 1.359.528 2.063-.578-.024-1.133-.05-1.635-.05-1.208 0-2.14.05-3.02.1l-.076 3.12c1.284-.15 2.114-.2 3.145-.2.73 0 1.461.025 2.215.075.101.554.176 1.032.227 1.435.125.93.151 1.938.1 2.516l3.801-.302c-.177-.68-.403-1.787-.529-2.34l-.2-.956c1.408.227 2.817.503 4.176.83zM78.751 59.796l-.403-2.945c-2.618.227-7.274.756-10.243 1.26l.479 2.893c2.793-.529 7.573-1.057 10.167-1.208m-.757-7.978c-1.132-.98-3.472-3.12-4.051-3.749.228 0 .68-.076.931-.202.731-.226 1.184-.755 1.535-1.685.228-.68.453-1.636.681-2.265.224-.78.779-1.158 1.762-1.158 1.912 0 3.623.177 4.88.43l-.202-3.273c-1.031-.203-3.596-.352-4.882-.352-2.365 0-3.647.503-4.251 2.138-.278.731-.554 1.887-.731 2.517-.302.881-.829 1.208-1.332 1.208-.505 0-1.032-.402-1.611-1.007-.881-.88-2.743-2.894-4.454-5.083l-2.97 2.063c.453.353 1.082.881 1.736 1.536 1.282 1.308 6.366 6.366 8.656 8.782-1.76-.075-4.73-.327-6.165-.453a21.486 21.486 0 01-2.138-.302l-.302 3.448c.578-.05 1.484-.076 2.391-.076 1.181 0 6.843.252 8.908.53.453.05 1.133.2 1.409.301l1.837-2.089c-.653-.453-1.184-.906-1.637-1.259" fill="#71afc3"/></g></svg>