<svg xmlns="http://www.w3.org/2000/svg" viewBox="0 0 133.787 133.785"><defs><clipPath clipPathUnits="userSpaceOnUse" id="a"><path d="M0 100.339h100.34V0H0z"/></clipPath></defs><g clip-path="url(#a)" transform="matrix(1.33333 0 0 -1.33333 0 133.785)"><path d="M97.64 39.07c0-20.004-16.367-36.369-36.373-36.369H39.072c-20.005 0-36.37 16.365-36.37 36.37v22.195c0 20.003 16.365 36.371 36.37 36.371h22.195c20.006 0 36.372-16.368 36.372-36.37z" fill="#fff"/><path d="M97.64 39.07c0-20.004-16.367-36.369-36.373-36.369H39.072c-20.005 0-36.37 16.365-36.37 36.37v22.195c0 20.003 16.365 36.371 36.37 36.371h22.195c20.006 0 36.372-16.368 36.372-36.37z" fill="none" stroke="#f5b869" stroke-width="5.403" stroke-linecap="round" stroke-linejoin="round" stroke-miterlimit="10"/><path d="M73.665 17.169c-1.337-.102-2.405 2.554-2.384 5.928.02 3.375 1.082 6.579 2.42 6.679 1.339.103 2.444-2.936 2.425-6.311-.023-3.375-1.123-6.193-2.46-6.296" fill="#f5b869"/><path d="M73.665 17.169c-1.337-.102-2.405 2.554-2.384 5.928.02 3.375 1.082 6.579 2.42 6.679 1.339.103 2.444-2.936 2.425-6.311-.023-3.375-1.123-6.193-2.46-6.296z" fill="none" stroke="#f5b869" stroke-width="2.083" stroke-linecap="round" stroke-linejoin="round" stroke-miterlimit="10"/><path d="M47.338 51.563c-2.761-.272-5.055 2.106-5.122 5.309-.07 3.204 2.022 6.383 4.784 6.655 2.76.272 5.147-2.465 5.214-5.669.07-3.204-2.114-6.023-4.876-6.295" fill="#f5b869"/><path d="M47.338 51.563c-2.761-.272-5.055 2.106-5.122 5.309-.07 3.204 2.022 6.383 4.784 6.655 2.76.272 5.147-2.465 5.214-5.669.07-3.204-2.114-6.023-4.876-6.295zM70.447 13.507l-29.09 2.222v19.274l29.09-2.223z" fill="none" stroke="#f5b869" stroke-width="2.083" stroke-linecap="round" stroke-linejoin="round" stroke-miterlimit="10"/><path d="M70.447 13.507l7.579 12.114v19.275l-7.58-12.116z" fill="#fff"/><path d="M70.447 13.507l7.579 12.114v19.275l-7.58-12.116zM38.735 48.06l-20.25 7.71v17.472l20.25-7.712z" fill="none" stroke="#f5b869" stroke-width="2.083" stroke-linecap="round" stroke-linejoin="round" stroke-miterlimit="10"/><path d="M56.407 75.134l-20.122 6.87-17.801-8.762 20.25-7.712z" fill="none" stroke="#f5b869" stroke-width="2.083" stroke-linecap="round" stroke-linejoin="round" stroke-miterlimit="10"/><path d="M38.735 48.06l17.675 9.503v17.47L38.735 65.53z" fill="#fff"/><path d="M38.735 48.06l17.675 9.503v17.47L38.735 65.53z" fill="none" stroke="#f5b869" stroke-width="2.083" stroke-linecap="round" stroke-linejoin="round" stroke-miterlimit="10"/><path d="M78.02 45.018L50.656 47.24l-9.3-12.238 29.091-2.22z" fill="#fff"/><path d="M78.02 45.018L50.656 47.24l-9.3-12.238 29.091-2.22z" fill="none" stroke="#f5b869" stroke-width="2.083" stroke-linecap="round" stroke-linejoin="round" stroke-miterlimit="10"/><path d="M75.873 79.206l-6.99-3.323M68.532 85.98l-10.2-4.85M78.318 85.926l-9.032-4.554M69.814 58.42l-4.302-6.542M77.471 62.64l-5.74-8.733" fill="#fff" stroke="#f5b869" stroke-width="2.083" stroke-linecap="round" stroke-linejoin="round" stroke-miterlimit="10"/><path d="M37.173 38.13c-1.185-1.11-2.526-3.072-1.331-6.206M32.77 38.014c-.506-.522-1.107-1.464-.778-2.83M82.445 28.934c.818-1.404 1.544-3.667-.497-6.328M86.69 27.499c.337-.646.644-1.719-.061-2.936M14.52 58.084c-1.185 1.111-2.526 3.073-1.33 6.207M10.118 58.201c-.506.521-1.106 1.463-.778 2.83M61.034 67.281c.819 1.404 1.543 3.667-.497 6.328M65.28 68.715c.337.645.644 1.72-.062 2.934" fill="none" stroke="#f5b869" stroke-width="2.083" stroke-linecap="round" stroke-linejoin="round" stroke-miterlimit="10"/></g></svg>