<svg xmlns="http://www.w3.org/2000/svg" viewBox="0 0 133.787 133.785"><defs><clipPath clipPathUnits="userSpaceOnUse" id="a"><path d="M0 0h100.34v100.339H0z"/></clipPath><clipPath clipPathUnits="userSpaceOnUse" id="b"><path d="M39.071 97.637c-20.005 0-36.369-16.367-36.369-36.369V39.07c0-20.003 16.364-36.368 36.369-36.368h22.197c20.006 0 36.37 16.365 36.37 36.368v22.198c0 20.002-16.364 36.369-36.37 36.369z"/></clipPath><clipPath clipPathUnits="userSpaceOnUse" id="c"><path d="M53.325 58.722h7.942v-6.043h-7.942z"/></clipPath><clipPath clipPathUnits="userSpaceOnUse" id="d"><path d="M53.325 52.679h7.942v6.042h-7.942z"/></clipPath><clipPath clipPathUnits="userSpaceOnUse" id="e"><path d="M82.471 56.569h5.76v-6.257h-5.76z"/></clipPath><clipPath clipPathUnits="userSpaceOnUse" id="f"><path d="M82.471 50.313h5.76v6.256h-5.76z"/></clipPath><clipPath clipPathUnits="userSpaceOnUse" id="g"><path d="M0 0h100.34v100.339H0z"/></clipPath></defs><g clip-path="url(#a)" transform="matrix(1.33333 0 0 -1.33333 0 133.785)"><path d="M97.64 39.07c0-20.003-16.367-36.368-36.372-36.368H39.071c-20.004 0-36.37 16.365-36.37 36.368v22.196c0 20.003 16.366 36.371 36.37 36.371h22.197c20.005 0 36.371-16.368 36.371-36.37z" fill="#fff"/></g><g clip-path="url(#b)" transform="matrix(1.33333 0 0 -1.33333 0 133.785)"><g clip-path="url(#c)"><g clip-path="url(#d)" opacity=".5"><path d="M61.267 56.427l-4.65 2.295s-2.4-1.901-3.017-2.967c-.763-1.314-.009-3.7 3.144-2.924 2.644.653 4.523 3.596 4.523 3.596" fill="#f25887"/></g></g><path d="M41.716 17.541c-2.625-.259-4.806 2.003-4.87 5.048-.065 3.046 1.923 6.067 4.55 6.326 2.623.259 4.892-2.344 4.957-5.39.065-3.046-2.012-5.724-4.637-5.984" fill="#4b93d6"/><path d="M41.716 17.541c-2.625-.259-4.806 2.003-4.87 5.048-.065 3.046 1.923 6.067 4.55 6.326 2.623.259 4.892-2.344 4.957-5.39.065-3.046-2.012-5.724-4.637-5.984z" fill="none" stroke="#f25887" stroke-width="2.083" stroke-linecap="round" stroke-linejoin="round" stroke-miterlimit="10"/><path d="M37.887 63.035l-10.02-7.063M28.903 61.405l-9.595-6.766M72.004 40.942l-10.567-7.85M81.251 37.506L67.563 27.339M71.375 35.11l-13.69-10.167" fill="#fff" stroke="#f25887" stroke-width="2.083" stroke-linecap="round" stroke-linejoin="round" stroke-miterlimit="10"/><path d="M34.192 30.938l16.047 10.258-19.077 8.784-16.18-10.379z" fill="#fff"/><path d="M34.192 30.938l16.047 10.258-19.077 8.784-16.18-10.379z" fill="none" stroke="#f25887" stroke-width="2.083" stroke-linecap="round" stroke-linejoin="round" stroke-miterlimit="10"/><path d="M34.102 13.724l-19.12 8.959v16.919l19.12-8.96z" fill="#fff"/><path d="M34.102 13.724l-19.12 8.959v16.919l19.12-8.96z" fill="none" stroke="#f25887" stroke-width="2.083" stroke-linecap="round" stroke-linejoin="round" stroke-miterlimit="10"/><path d="M34.102 13.724L50.24 24.12v16.918L34.102 30.643z" fill="#fff"/><path d="M34.102 13.724L50.24 24.12v16.918L34.102 30.643zM64.824 79.934L58.84 74c-2.305-2.604-2.681-3.653-2.663-5.92l.036-4.54a5.046 5.046 0 011.022-3.01M61.495 56.495l-4.787 2.361s-2.466-1.956-3.102-3.052c-.785-1.353-.008-3.808 3.234-3.008 2.722.671 4.655 3.7 4.655 3.7z" fill="none" stroke="#f25887" stroke-width="2.083" stroke-linecap="round" stroke-linejoin="round" stroke-miterlimit="10"/><path d="M60.24 83.553l-7.276-7.734a6.102 6.102 0 01-1.593-4.66l-.014-2.358a5.46 5.46 0 012.318-4.01l2.406-1.686" fill="none" stroke="#f25887" stroke-width="2.083" stroke-linecap="round" stroke-linejoin="round" stroke-miterlimit="10"/><path d="M71.865 75.363L53.24 56.324c-2.354-2.58-2.194-4.535-1.447-5.844.14-.248.349-.492.595-.723 1.573-1.478 3.85-1.897 5.925-1.305 1.336.381 2.857 1.063 4.024 2.292l21.65 21.661s4.953-.418 5.177-.639c.36-.357.595-1.813.549-2.308-.384-4.128-6.751-9.533-8.657-11.832-2.76-3.329-1.95-6.354.155-8.002 1.582-1.239 3.95-.828 5.546.312 1.595 1.142 20.109 19.043 20.109 19.043l2.995 20.634s30.725 32.232 31.067 32.926c.346.693-21.798 7.944-21.798 7.944L93.086 99.908l-30.565-7.59a5.878 5.878 0 01-3.83-2.693l-6.022-7.18a6.112 6.112 0 01-1.397-4.572l.435-4.13" fill="none" stroke="#f25887" stroke-width="2.083" stroke-linecap="round" stroke-linejoin="round" stroke-miterlimit="10"/><g clip-path="url(#e)"><g clip-path="url(#f)" opacity=".5"><path d="M88.231 53.309c-.937 1.597-2.392 3.26-2.392 3.26-1.298-.372-2.802-1.852-3.239-3.22-.399-1.25.116-3.07 1.753-3.036 1.636.034 3.878 2.996 3.878 2.996" fill="#f25887"/></g></g><g><path d="M88.231 53.309c-.937 1.597-2.392 3.26-2.392 3.26-1.298-.372-2.802-1.852-3.239-3.22-.399-1.25.116-3.07 1.753-3.036 1.636.034 3.878 2.996 3.878 2.996z" fill="none" stroke="#f25887" stroke-width="2.083" stroke-linecap="round" stroke-linejoin="round" stroke-miterlimit="10"/></g></g><g clip-path="url(#g)" transform="matrix(1.33333 0 0 -1.33333 0 133.785)"><path d="M97.64 39.07c0-20.003-16.367-36.368-36.372-36.368H39.071c-20.004 0-36.37 16.365-36.37 36.368v22.196c0 20.003 16.366 36.371 36.37 36.371h22.197c20.005 0 36.371-16.368 36.371-36.37z" fill="none" stroke="#f25887" stroke-width="5.403" stroke-linecap="round" stroke-linejoin="round" stroke-miterlimit="10"/></g></svg>