<svg xmlns="http://www.w3.org/2000/svg" viewBox="0 0 75 75"><defs><style>.cls-4{fill:#00afca}</style></defs><g id="レイヤー_2" data-name="レイヤー 2"><g id="レイヤー_2-2" data-name="レイヤー 2"><path d="M8.363 0h58.275A8.362 8.362 0 0175 8.362v58.275A8.362 8.362 0 0166.637 75H8.362A8.362 8.362 0 010 66.638V8.362A8.362 8.362 0 018.363 0z" transform="rotate(90 37.5 37.5)" fill="none"/><rect x="5" y="5" width="65" height="65" rx="3.362" transform="rotate(90 37.5 37.5)" fill="#f0f8fa"/><path d="M66.638 70.125H8.362a3.49 3.49 0 01-3.487-3.487V8.362a3.49 3.49 0 013.487-3.487h58.276a3.49 3.49 0 013.487 3.487v58.276a3.49 3.49 0 01-3.487 3.487zm-58.276-65a3.24 3.24 0 00-3.237 3.237v58.276a3.24 3.24 0 003.237 3.237h58.276a3.24 3.24 0 003.237-3.237V8.362a3.24 3.24 0 00-3.237-3.237z" fill="#666"/><path class="cls-4" d="M25.986 13.21a.034.034 0 00-.056.03.676.676 0 01.002.187c-.097.78-1.484 1.262-3.304 1.178a7.865 7.865 0 01-1.546-.205.034.034 0 00-.028.06 4.23 4.23 0 002.43.63c1.56.001 2.826-.573 2.827-1.282a.806.806 0 00-.325-.599z"/><path class="cls-4" d="M23.554 15.605c-1.551.123-2.855-.36-2.913-1.082a.627.627 0 01.01-.171.034.034 0 00-.06-.027.993.993 0 00-.244.838c.183.76 1.55 1.083 3.054.72a5.273 5.273 0 00.965-.33.034.034 0 00-.021-.065 5.895 5.895 0 01-.791.117zm2.612-3.41c-.1-.654-1.397-1.124-2.98-.89-1.142.17-2.007.714-1.932 1.208.064.421.796.672 1.722.627.065-.005.131-.012.198-.022.608-.093 1.068-.384 1.028-.65-.025-.17-.246-.288-.558-.329a.034.034 0 00-.024.062.179.179 0 01.097.144c.014.142-.246.283-.58.314a1.123 1.123 0 01-.435-.034c-.142-.048-.23-.118-.244-.206-.022-.146.173-.308.49-.439a2.605 2.605 0 011.39-.167c.496.075.832.248.87.493.066.436-.835.935-2.02 1.123l-.037.004c-1.497.204-2.78-.146-2.867-.781a.517.517 0 01.006-.171l.002-.01a.63.63 0 01.037-.113 1.448 1.448 0 01.18-.356.034.034 0 00-.045-.049c-.528.338-.825.737-.769 1.121.115.782 1.675 1.21 3.456.947 1.777-.27 3.127-1.088 3.015-1.826zm3.494 1.392a5.38 5.38 0 01-.602.627l-.494-.457a5.777 5.777 0 001.548-2.308h.73a7.504 7.504 0 01-.19.499h1.886c-.268 1.963-1.09 3.397-2.74 3.993l-.344-.55a3.22 3.22 0 001.444-1.002 6.098 6.098 0 00-1.239-.802zm1.608.247a4.215 4.215 0 00.442-1.28h-1.35c-.104.18-.211.36-.33.53a9.214 9.214 0 011.24.75zm4.462 2.046v-2.17a8.395 8.395 0 01-1.687.813l-.334-.607a8.382 8.382 0 003.578-2.42l.54.467a7.392 7.392 0 01-1.342 1.24v2.677zm4.537-.041l-.334-.627a2.817 2.817 0 002.421-2.576h-2.94v-.657h3.835c-.232 2.045-1.013 3.428-2.982 3.86zm4.472-1.676v-.725h4.081v.725zm7.18-.761a6.393 6.393 0 00-1.5-.966l.42-.586a7.496 7.496 0 011.553.91zm-1.12 2.4l-.227-.688a3.958 3.958 0 003.356-2.426l.54.504a4.563 4.563 0 01-3.67 2.61zM19.117 63.428a9.608 9.608 0 00-1.651-1.373c-.114-.079-.157-.146-.157-.221 0-.068.032-.135.153-.224a11.814 11.814 0 001.541-1.339l.246.218a14.212 14.212 0 01-1.456 1.242c-.064.046-.089.07-.089.1 0 .031.022.046.079.085a10.035 10.035 0 011.57 1.285zm2.367-.024c-.506 0-.823-.21-.823-.516 0-.25.231-.445.58-.445a.777.777 0 01.755.62.647.647 0 00.463-.592c0-.349-.289-.583-.812-.583a1.462 1.462 0 00-.63.135 4.02 4.02 0 00-.833.608l-.185-.22c.242-.196.595-.474.833-.694.253-.232.72-.655.993-.93h-1.352v-.266h1.808v.235c-.32.306-.805.736-1.04.964a1.365 1.365 0 01.474-.085c.672 0 1.036.334 1.036.83 0 .55-.523.939-1.267.939zm-.253-.723c-.203 0-.31.093-.31.217 0 .16.196.26.53.26a1.48 1.48 0 00.289-.025.545.545 0 00-.51-.452zm4.078.747a9.608 9.608 0 00-1.652-1.373c-.114-.079-.156-.146-.156-.221 0-.068.032-.135.153-.224a11.815 11.815 0 001.54-1.339l.246.218a14.21 14.21 0 01-1.455 1.242c-.064.046-.09.07-.09.1 0 .031.022.046.079.085a10.035 10.035 0 011.57 1.285zm2.366-.024c-.506 0-.822-.21-.822-.516 0-.25.23-.445.58-.445a.777.777 0 01.754.62.647.647 0 00.463-.592c0-.349-.288-.583-.811-.583a1.462 1.462 0 00-.63.135 4.019 4.019 0 00-.833.608l-.185-.22c.241-.196.594-.474.833-.694.252-.232.718-.655.993-.93h-1.353v-.266h1.808v.235c-.32.306-.805.736-1.04.964a1.365 1.365 0 01.474-.085c.673 0 1.036.334 1.036.83 0 .55-.523.939-1.267.939zm-.253-.723c-.203 0-.31.093-.31.217 0 .16.196.26.53.26a1.48 1.48 0 00.29-.025.545.545 0 00-.51-.452zm2.583.552v.182h-.281v-2.987h2.847v2.987h-.295v-.182zm2.27-.274v-2.257h-2.27v2.257zm-.462-1.798v1.328h-1.356v-1.328zm-1.089 1.072h.815v-.815h-.815zm2.978 1.05l-.05-.26c1.068 0 1.535-.26 1.535-.769 0-.32-.228-.576-.684-.576a6.796 6.796 0 00-1.331.266l-.075-.274a8.397 8.397 0 011.453-.263.83.83 0 01.94.84c0 .637-.506 1.036-1.788 1.036zm4.64-2.282a.705.705 0 00-.313.132 1.516 1.516 0 00-.765 1.175c0 .47.416.726 1.253.733l-.05.284c-1.007-.014-1.506-.405-1.506-1.003a1.69 1.69 0 01.79-1.317l-1.704.071-.015-.281 2.827-.114.01.281c-.2.007-.406.021-.527.04zm1.031 1.766l-.195-.207a4.685 4.685 0 00.655-1.331h-.584v-.263h.598v-.762h.288v.762h.477v.263h-.477v.107c.178.256.377.562.488.75l-.182.232a8.7 8.7 0 00-.306-.633v1.793h-.288v-1.683a5.395 5.395 0 01-.474.972zm1.659.494v.193h-.285v-3.1h1.574v3.1h-.296v-.193zm.993-2.64h-.993v.604h.993zm0 1.48v-.62h-.993v.62zm0 .894v-.637h-.993v.637zm2.249-.94v-.516H43.08v-.281h1.193v-.517a11.085 11.085 0 01-1.115.09l-.114-.278a10.174 10.174 0 002.492-.346l.164.264a9.03 9.03 0 01-1.121.231v.556h1.192v.28H44.58v.517h1.48v.28h-1.48v.727c0 .235-.068.37-.3.402a4.701 4.701 0 01-.605.007l-.067-.31a4.41 4.41 0 00.523.008c.114-.007.143-.064.143-.16v-.673h-1.488v-.281zm4.049.071c.01.114.014.245.014.399v.28h-.288v-.277c0-.1 0-.185-.004-.26-.36.196-.597.4-.597.577 0 .206.21.281.725.281a7.959 7.959 0 00.897-.05v.27c-.241.022-.587.037-.893.037-.712 0-1.018-.157-1.018-.517 0-.32.349-.619.854-.886-.039-.196-.114-.253-.235-.253a1.252 1.252 0 00-.68.285 2.985 2.985 0 00-.476.466l-.221-.188a3.72 3.72 0 00.794-1.196h-.623v-.253h.719a3.965 3.965 0 00.139-.537h.313a4.471 4.471 0 01-.14.537h1.083v.253h-1.17a3.139 3.139 0 01-.296.59 1.276 1.276 0 01.64-.216c.214 0 .35.096.42.38.278-.128.588-.249.9-.36l.111.268a8.403 8.403 0 00-.968.37zm1.857.352v-1.583h-.509v-.264h1.3v.264h-.495v1.498c.185-.054.363-.107.512-.153l.025.253c-.385.135-.972.327-1.306.43l-.075-.299c.139-.035.338-.085.548-.146zm2.787.74l-.22.257a2.439 2.439 0 01-.89-.684 3.24 3.24 0 01-.99.684l-.206-.242a2.94 2.94 0 001.017-.684 3.644 3.644 0 01-.445-1.035 3.642 3.642 0 01-.28.445l-.236-.182a3.366 3.366 0 00.638-1.577l.295.05a5.036 5.036 0 01-.139.591h1.413v.27h-.356a3.015 3.015 0 01-.516 1.446 2.204 2.204 0 00.915.662zm-1.096-.914a2.66 2.66 0 00.388-1.192h-.826a3.535 3.535 0 00.438 1.192zm2.818.487v-.227H53.51v-.182h1.179v-.21c-.332.022-.666.029-.937.022l-.06-.182a10.86 10.86 0 002.142-.15l.093.175a9.171 9.171 0 01-.932.114v.231h1.21v.182h-1.21v.227h1.49v.182h-1.49v.239c0 .149-.047.235-.189.256a3.979 3.979 0 01-.523.007l-.04-.22c.125.006.317.006.37.003.058-.004.076-.029.076-.078v-.207H53.21v-.182zm-.787-1.167v-.15h-.562v-.79h.562v-.145h-.652v-.164h.652v-.171h.267v.17h.651v.165h-.651v.146h.584v.79h-.584v.15h.666v.163h-.666v.153h-.267v-.153h-.687v-.164zm-.331-.612h.33v-.175h-.33zm0 .31h.33v-.182h-.33zm.936-.31v-.175h-.338v.175zm0 .31v-.182h-.338v.182zm1.392-1.047h.12v.239c0 .085.011.103.058.103h.131c.05 0 .053-.01.057-.185l.235.043c-.021.323-.067.362-.267.366h-.185c-.231-.007-.278-.068-.278-.327v-.047h-.43v.018a.521.521 0 01-.288.456l-.235-.128c.202-.107.274-.21.274-.338v-.2h.808zm.58 1.47l-.143.203a2.86 2.86 0 01-.726-.246 2.885 2.885 0 01-.597.242l-.16-.181a2.29 2.29 0 00.544-.189 1.441 1.441 0 01-.356-.349l.195-.074h-.284v-.192h1.103c.01.003.022.007.185.046a1.22 1.22 0 01-.42.555 2.555 2.555 0 00.659.185zm-.872-.295a1.052 1.052 0 00.292-.3h-.637a1.234 1.234 0 00.345.3zm1.611 2.053a.43.43 0 11.434-.423.435.435 0 01-.434.423zm0-.712a.285.285 0 10.285.289.284.284 0 00-.285-.289zm-26.644-3.86a1.988 1.988 0 00-.586-.327c-.002.3-.097.448-.408.448-.308 0-.524-.142-.524-.343s.207-.337.562-.337a1.263 1.263 0 01.166.01 32.86 32.86 0 01-.007-.326h-.69v-.177h.688a14.556 14.556 0 01-.005-.33h-.73v-.175h.728c-.003-.126-.003-.256-.003-.391h.202c0 .135 0 .265.002.39h.71v.176h-.707c0 .116.002.226.004.33h.652v.177h-.65c.005.14.008.264.008.366a2.074 2.074 0 01.7.358zm-.98-.39c-.225 0-.357.066-.357.17 0 .107.135.17.324.17.183 0 .226-.06.226-.296v-.03a1.29 1.29 0 00-.193-.015zm1.953.509v-.742a9.599 9.599 0 00-.344.42l-.15-.136c.188-.234.35-.424.494-.576v-.298h-.455v-.176h.455v-.545h.2v.825a1.078 1.078 0 01.739-.342.631.631 0 01.623.695c0 .45-.329.726-.988.8l-.055-.181c.586-.064.84-.273.84-.626a.449.449 0 00-.434-.493c-.204 0-.415.102-.726.417v.958zm9.13.012l-.052-.17c.474-.055.713-.23.713-.518a.418.418 0 00-.313-.405 1.334 1.334 0 01-1.052.984.334.334 0 01-.356-.358.89.89 0 01.59-.723 4.73 4.73 0 01.031-.375h-.514v-.17h.538c.019-.121.04-.242.066-.358h.202c-.026.116-.05.237-.069.357h.977v.171h-1a4.552 4.552 0 00-.029.304 1.436 1.436 0 01.353-.045c.043 0 .083.002.121.004.007-.042.012-.085.017-.13h.192a1.923 1.923 0 01-.021.166.586.586 0 01.466.576c0 .389-.31.626-.86.69zm-.875-.47a.16.16 0 00.178.183.632.632 0 00.32-.112 1.651 1.651 0 01-.097-.601.678.678 0 00-.4.53zm.934-.668a1.108 1.108 0 00-.334.052v.026a1.78 1.78 0 00.062.536 1.376 1.376 0 00.379-.61 1.747 1.747 0 00-.107-.004zm1.879 1.019c-.313 0-.557-.557-.557-1.285 0-.135.002-.249.01-.365h.206a3.638 3.638 0 00-.014.358c0 .648.199 1.07.339 1.07.063 0 .182-.185.265-.449l.166.1c-.111.315-.263.571-.415.571zm1.09-.412a1.627 1.627 0 00-.445-1.176l.144-.116a1.778 1.778 0 01.51 1.292zm2.102-1.081a.47.47 0 00-.208.088 1.01 1.01 0 00-.51.782c0 .313.278.484.835.488l-.034.19c-.67-.01-1.002-.27-1.002-.669a1.124 1.124 0 01.526-.877l-1.136.047-.01-.187 1.883-.076.007.188c-.132.004-.27.014-.35.026zm4.71 1.51c-.614 0-.892-.173-.892-.446a.772.772 0 01.3-.519l.137.109a.605.605 0 00-.237.384c0 .168.168.287.7.287a5.301 5.301 0 00.682-.045l.019.187a5.938 5.938 0 01-.71.043zm-.06-1.15l-.13-.118c.152-.102.318-.207.437-.278h-.968v-.178h1.3v.161a7.237 7.237 0 00-.638.413zm1.393 1.245l-.047-.183c.709-.06 1.031-.284 1.031-.642a.375.375 0 00-.412-.399 6.602 6.602 0 00-.89.098l-.037-.193a6.75 6.75 0 01.939-.096.556.556 0 01.614.59c0 .469-.437.77-1.198.825zm.882-1.67a4.191 4.191 0 00-.894-.225l.046-.182a4.56 4.56 0 01.91.228zm.858 1.558a3.538 3.538 0 01-.122-.917 6.052 6.052 0 01.07-.963l.198.005a5.797 5.797 0 00-.069.95 3.656 3.656 0 00.117.887zm.838.114l-.108-.147c.384-.218.412-.42.412-.965 0-.05 0-.107-.002-.17h-.75v-.176h.747c-.004-.2-.009-.42-.019-.59h.192c.01.17.02.39.026.59h.418v.176h-.413c.002.061.002.118.002.165 0 .59-.068.878-.505 1.117zm.681-1.633a1.578 1.578 0 00-.147-.358l.111-.06a1.568 1.568 0 01.16.363zm.26-.157a1.561 1.561 0 00-.16-.353l.113-.06a1.564 1.564 0 01.168.359zm1.462.78a2.937 2.937 0 00.145.31l-.192.065a3.277 3.277 0 01-.163-.375h-.999v-.173h.937a4.701 4.701 0 01-.104-.36h-.728v-.173h.685a5.686 5.686 0 01-.074-.375h.206a5.1 5.1 0 00.071.375h.653v.173h-.61c.031.125.07.246.11.36h.628v.173zm-.07 1.008c-.634 0-.928-.155-.928-.4a.671.671 0 01.076-.292l.185.035a.566.566 0 00-.061.232c0 .166.253.242.715.242.06 0 .16-.002.259-.005v.183c-.086.002-.183.005-.247.005z"/><path class="cls-4" transform="rotate(-59.996 47.003 33.269)" d="M46.845 30.491h.316v5.555h-.316z"/><path class="cls-4" d="M33.839 30.087l-.158-.274 3.748-2.163a.16.16 0 01.158 0l3.747 2.163-.158.274-3.668-2.117zm-8.151 4.708l-.078-.135-.159.001v-.003a.158.158 0 01.08-.137l4.804-2.777.158.275z"/><path class="cls-4" d="M25.768 38.986h-.317v-4.325a.158.158 0 01.237-.137l3.746 2.162-.159.274-3.507-2.025zm11.74 13.089a.158.158 0 01-.08-.022l-11.898-6.87a.158.158 0 01-.079-.138v-2.197a.158.158 0 11.317 0v2.106l11.582 6.689v-4.127a.158.158 0 01.316 0v4.4a.159.159 0 01-.158.159zm0-9.301a.158.158 0 01-.158-.158v-.995l-4.73-2.73a.158.158 0 11.158-.274l4.809 2.775a.159.159 0 01.079.137v1.087a.158.158 0 01-.158.158z"/><path class="cls-4" transform="rotate(-30.052 39.909 40.143)" d="M37.136 39.985h5.545v.316h-5.545z"/><path class="cls-4" d="M37.587 52.054l-.158-.275 11.821-6.825v-2.103h.316v2.194a.157.157 0 01-.079.137zm11.979-13.067h-.316v-4.055l-3.508 2.025-.158-.273 3.745-2.163a.158.158 0 01.237.137z"/><path class="cls-4" d="M54.365 45.893l-17.079-9.852c-.546-.316-.571-1.26-.057-2.149.513-.89 1.344-1.337 1.89-1.024l17.078 9.852-.158.275-17.079-9.853c-.374-.22-1.047.196-1.458.908-.41.712-.437 1.498-.058 1.717l17.08 9.852z"/><path class="cls-4" d="M54.753 45.993a.768.768 0 01-.388-.1c-.546-.315-.571-1.259-.057-2.149a2.555 2.555 0 01.894-.94.876.876 0 011.421.82 2.564 2.564 0 01-.368 1.245 1.983 1.983 0 01-1.502 1.124zm1.056-3.057a.918.918 0 00-.449.141 2.246 2.246 0 00-.779.825c-.41.712-.436 1.498-.058 1.717.377.222 1.05-.198 1.458-.909a2.244 2.244 0 00.326-1.087.683.683 0 00-.268-.628.452.452 0 00-.23-.059zm-21.726-8.754L18.82 25.371c-.546-.316-.571-1.26-.057-2.149s1.341-1.337 1.89-1.024l16.934 9.78-.158.273-16.935-9.779c-.378-.22-1.048.198-1.458.908-.41.712-.436 1.498-.057 1.717L34.24 33.91z"/><path class="cls-4" transform="rotate(-30.052 29.037 40.87)" d="M19.264 40.711h19.547v.316H19.264z"/><path class="cls-4" d="M18.979 42.994l-.159-.273 35.545-20.522c.547-.315 1.376.134 1.89 1.023.514.89.488 1.833-.058 2.149l-15.272 8.817-.158-.273 15.272-8.818c.379-.22.353-1.005-.058-1.717-.409-.71-1.08-1.13-1.458-.907z"/><path class="cls-4" d="M20.265 45.993a1.983 1.983 0 01-1.502-1.124 2.564 2.564 0 01-.369-1.245.876.876 0 011.421-.82 2.555 2.555 0 01.895.94c.514.89.488 1.834-.058 2.149a.763.763 0 01-.387.1zm-1.056-3.057a.457.457 0 00-.23.058.685.685 0 00-.268.63 2.244 2.244 0 00.325 1.086c.411.713 1.084 1.13 1.458.909.38-.22.353-1.005-.057-1.717a2.246 2.246 0 00-.78-.825.918.918 0 00-.448-.141zM45.12 25.382a.169.169 0 01-.04-.005l-.237-.062a.159.159 0 01-.113-.193.155.155 0 01.193-.114l.238.063a.158.158 0 01-.04.311zm-1.225-.298a.17.17 0 01-.035-.004q-.246-.054-.495-.104a.158.158 0 01-.124-.186.152.152 0 01.187-.124q.252.05.5.105a.158.158 0 01-.033.313zm-12.616-.036a.158.158 0 01-.033-.313q.25-.052.502-.101a.155.155 0 01.186.125.158.158 0 01-.125.185q-.25.049-.496.1a.16.16 0 01-.034.004zm11.118-.25a.149.149 0 01-.025-.002 22.142 22.142 0 00-.499-.077.158.158 0 01-.134-.18.152.152 0 01.179-.134q.255.038.505.078a.158.158 0 01-.026.315zm-9.617-.027a.158.158 0 01-.024-.314c.167-.026.336-.051.506-.075a.158.158 0 01.043.314 29.86 29.86 0 00-.5.074zm8.108-.179h-.018a28.217 28.217 0 00-.503-.052.158.158 0 01-.142-.172.163.163 0 01.171-.143c.17.016.34.033.51.052a.158.158 0 01-.018.315zm-6.597-.018a.158.158 0 01-.017-.315c.17-.018.34-.034.51-.049a.153.153 0 01.171.144.158.158 0 01-.143.171c-.17.015-.337.03-.504.048zm5.078-.11h-.01q-.25-.016-.504-.026a.159.159 0 01-.15-.165.162.162 0 01.164-.152q.256.012.51.027a.158.158 0 01-.01.316zm-3.558-.01a.158.158 0 01-.007-.316q.253-.014.51-.023h.005a.158.158 0 01.006.316c-.169.007-.337.014-.506.023zm2.035-.043h-.001l-.34-.002h-.168a.158.158 0 01-.001-.316h.17l.34.001a.158.158 0 010 .317zm-7.798.931a.158.158 0 01-.041-.311l.24-.062a.155.155 0 01.191.115.158.158 0 01-.114.191l-.235.061a.17.17 0 01-.041.006z"/><path class="cls-4" d="M31.403 26.16a.197.197 0 01-.098-.026l-1.354-.775a.2.2 0 01-.094-.126.198.198 0 01.029-.155l.87-1.294a.198.198 0 01.329.22l-.752 1.118 1.169.67a.198.198 0 01-.099.369zm22.443 13.05a.156.156 0 01-.099-.034.158.158 0 01-.024-.223l.15-.19a.158.158 0 11.25.192c-.05.066-.102.13-.154.196a.159.159 0 01-.123.06zm.716-1.024a.163.163 0 01-.082-.022.159.159 0 01-.054-.217q.126-.213.237-.43a.158.158 0 11.281.143c-.076.151-.159.3-.247.448a.158.158 0 01-.135.078zm.632-1.362a.168.168 0 01-.05-.009.158.158 0 01-.1-.2q.079-.232.14-.47a.154.154 0 01.194-.113.159.159 0 01.113.193q-.064.248-.147.491a.156.156 0 01-.15.108zm.313-1.468h-.014a.158.158 0 01-.143-.172 6.25 6.25 0 00.022-.488.159.159 0 01.158-.157h.001a.159.159 0 01.158.16 5.986 5.986 0 01-.025.512.158.158 0 01-.157.145zm-.053-1.5a.159.159 0 01-.156-.133 5.672 5.672 0 00-.097-.478.158.158 0 11.307-.076q.061.25.102.504a.158.158 0 01-.13.181.156.156 0 01-.026.002zm-.408-1.443a.16.16 0 01-.147-.098 7.44 7.44 0 00-.202-.447.158.158 0 11.283-.14c.077.154.147.31.212.466a.158.158 0 01-.086.206.154.154 0 01-.06.013zm-.71-1.324a.159.159 0 01-.132-.07q-.135-.203-.284-.402a.158.158 0 11.252-.19q.155.206.296.416a.159.159 0 01-.132.246zM53.4 29.91a.158.158 0 01-.116-.051c-.055-.059-.11-.118-.167-.176a.158.158 0 11.227-.22c.058.06.115.12.17.18a.158.158 0 01-.115.266z"/><path class="cls-4" d="M53.202 31.334H53.2a.197.197 0 01-.194-.2l.023-1.56a.196.196 0 01.215-.194l1.554.137a.198.198 0 01.18.213.192.192 0 01-.215.18l-1.342-.118-.02 1.348a.197.197 0 01-.198.194zM28.735 43.907a.162.162 0 01-.047-.008l-.235-.077a.159.159 0 01-.1-.2.156.156 0 01.2-.1l.23.076a.158.158 0 01-.048.309zm8.772 1.317l-.338-.001a.158.158 0 010-.317h.002l.336.002h.167a.158.158 0 01.002.316zm1.177-.022a.158.158 0 01-.006-.316 39.1 39.1 0 00.5-.023.145.145 0 01.168.15.158.158 0 01-.15.166q-.252.014-.507.023zm-2.523-.006h-.007a41.328 41.328 0 01-.505-.027.158.158 0 01-.149-.167.154.154 0 01.167-.148c.167.01.334.019.501.025a.158.158 0 01-.007.317zm4.031-.087a.158.158 0 01-.013-.316c.167-.015.333-.03.5-.047a.167.167 0 01.173.14.158.158 0 01-.142.174c-.167.017-.335.034-.504.048zm-5.54-.015h-.014q-.254-.024-.504-.052a.158.158 0 01.035-.314q.248.027.498.05a.158.158 0 01-.015.316zm7.043-.154a.158.158 0 01-.021-.315 28.2 28.2 0 00.496-.073.15.15 0 01.18.132.158.158 0 01-.131.18c-.167.027-.334.052-.502.074zm-8.544-.024l-.022-.001q-.252-.037-.501-.077a.159.159 0 01-.13-.181.149.149 0 01.18-.131q.247.04.496.076a.158.158 0 01-.023.314zm10.038-.222a.158.158 0 01-.03-.313c.165-.032.328-.065.49-.1a.154.154 0 01.188.123.158.158 0 01-.121.187q-.246.052-.498.1a.15.15 0 01-.03.003zm-11.528-.031a.16.16 0 01-.03-.003 26.344 26.344 0 01-.497-.104.158.158 0 01-.12-.188.153.153 0 01.188-.12q.242.052.49.101a.158.158 0 01-.03.314zm13.003-.294a.158.158 0 01-.038-.312c.163-.04.325-.083.484-.126a.158.158 0 01.082.305c-.16.044-.325.087-.49.128a.146.146 0 01-.038.005zm-14.477-.042a.153.153 0 01-.04-.005q-.246-.064-.489-.132a.158.158 0 01-.11-.194.155.155 0 01.194-.11q.24.066.484.13a.158.158 0 01-.04.31zm15.941-.372a.158.158 0 01-.048-.309l.233-.075a.158.158 0 01.096.302l-.233.075a.162.162 0 01-.048.007z"/><path class="cls-4" d="M45.553 45.25a.2.2 0 01-.103-.029.198.198 0 01-.066-.271l.695-1.153-1.201-.61a.198.198 0 01.18-.353l1.39.707a.197.197 0 01.08.278l-.806 1.335a.198.198 0 01-.17.096zM21.725 29.793a.157.157 0 01-.109-.043.159.159 0 01-.007-.224c.057-.06.117-.12.176-.18a.158.158 0 01.223.225 7.015 7.015 0 00-.168.172.158.158 0 01-.115.05zm-1.352 8.257a.158.158 0 01-.138-.081 8.164 8.164 0 01-.237-.453.158.158 0 11.285-.138q.106.22.228.435a.158.158 0 01-.06.216.164.164 0 01-.078.02zm-.602-1.377a.16.16 0 01-.152-.111q-.076-.247-.134-.496a.158.158 0 11.309-.07q.054.238.128.472a.159.159 0 01-.105.198.156.156 0 01-.046.007zm-.275-1.475a.159.159 0 01-.158-.149 6.527 6.527 0 01-.012-.39l.001-.125a.158.158 0 01.158-.154h.004a.159.159 0 01.155.162l-.001.116q0 .186.011.372a.159.159 0 01-.148.167zm.09-1.498a.186.186 0 01-.027-.003.159.159 0 01-.127-.184q.047-.253.114-.502a.158.158 0 11.305.083q-.065.236-.109.476a.157.157 0 01-.155.13zm.445-1.434a.161.161 0 01-.064-.014.158.158 0 01-.08-.209q.102-.232.221-.461a.159.159 0 01.282.146 7.378 7.378 0 00-.214.443.158.158 0 01-.145.095zm.738-1.31a.162.162 0 01-.091-.028.159.159 0 01-.04-.22q.146-.208.303-.411a.158.158 0 01.25.194c-.101.131-.2.264-.293.397a.158.158 0 01-.13.068zm.301 8.131a.159.159 0 01-.125-.061 8.953 8.953 0 01-.151-.2.158.158 0 01.256-.187l.145.193a.158.158 0 01-.028.222.155.155 0 01-.097.033z"/><path class="cls-4" d="M21.077 39.122a.223.223 0 01-.04-.004l-1.528-.313a.197.197 0 01-.153-.233.195.195 0 01.233-.155l1.32.27.172-1.335a.194.194 0 01.222-.17.198.198 0 01.17.22l-.2 1.547a.198.198 0 01-.196.173zm-4.653 13.779a.159.159 0 01-.158-.162c.046-1.911-.168-2.894-.739-3.391-.565-.494-1.545-.575-3.374-.28a.158.158 0 01-.132-.272c1.37-1.251 1.915-2.067 1.88-2.817-.036-.755-.672-1.534-2.199-2.687a.158.158 0 01.096-.284h.004c1.917.05 2.895-.168 3.391-.738.495-.566.575-1.543.28-3.374a.158.158 0 01.273-.132c1.108 1.212 1.868 1.77 2.544 1.865a.158.158 0 01.134.18.154.154 0 01-.179.134 4.54 4.54 0 01-2.386-1.596c.216 1.62.085 2.544-.427 3.13-.526.604-1.427.853-3.147.853h-.016c1.357 1.075 1.91 1.833 1.948 2.635.036.777-.437 1.582-1.612 2.717 1.623-.215 2.544-.084 3.13.427.605.528.855 1.433.853 3.163 1.074-1.356 1.832-1.91 2.634-1.947.793-.03 1.584.436 2.718 1.612-.215-1.62-.084-2.543.427-3.13.527-.604 1.428-.853 3.15-.853h.013a7.74 7.74 0 01-1.482-1.444.158.158 0 11.256-.185 8.64 8.64 0 001.793 1.667.158.158 0 01-.096.284h-.004c-1.919-.047-2.895.168-3.391.739-.494.565-.575 1.543-.28 3.374a.159.159 0 01-.088.168.163.163 0 01-.185-.036c-1.213-1.329-2.018-1.881-2.748-1.881l-.068.001c-.755.035-1.534.672-2.687 2.197a.157.157 0 01-.126.063z"/></g></g></svg>