<svg xmlns="http://www.w3.org/2000/svg" viewBox="0 0 49.135 49.134"><defs><clipPath clipPathUnits="userSpaceOnUse" id="a"><path d="M0 0h36.851v36.85H0z"/></clipPath><clipPath clipPathUnits="userSpaceOnUse" id="b"><path d="M14.349 35.858C7.003 35.858.992 29.847.992 22.501v-8.152C.992 7.002 7.003.991 14.349.991h8.152c7.347 0 13.357 6.011 13.357 13.358v8.152c0 7.346-6.01 13.357-13.357 13.357z"/></clipPath><clipPath clipPathUnits="userSpaceOnUse" id="c"><path d="M0 36.851h36.851V0H0z"/></clipPath></defs><g clip-path="url(#a)" transform="matrix(1.33333 0 0 -1.33333 0 49.134)"><path d="M35.858 14.349c0-7.346-6.01-13.355-13.356-13.355h-8.153C7.003.994.992 7.003.992 14.349V22.5c0 7.346 6.01 13.357 13.357 13.357h8.153c7.346 0 13.356-6.011 13.356-13.357z" fill="#fff"/></g><g clip-path="url(#b)" transform="matrix(1.33333 0 0 -1.33333 0 49.134)"><path d="M30.5 16.232c-.92.19-1.466 1.471-1.22 2.86.246 1.39 1.194 2.528 2.113 2.338.92-.19 1.467-1.635 1.221-3.025-.247-1.39-1.192-2.362-2.113-2.173" fill="#4b93d6"/><path d="M30.5 16.232c-.92.19-1.466 1.471-1.22 2.86.246 1.39 1.194 2.528 2.113 2.338.92-.19 1.467-1.635 1.221-3.025-.247-1.39-1.192-2.362-2.113-2.173z" fill="none" stroke="#4b93d6" stroke-width=".765" stroke-linecap="round" stroke-linejoin="round" stroke-miterlimit="10"/><path d="M7.631 6.01c.92.19 1.466 1.472 1.22 2.86-.247 1.389-1.193 2.528-2.114 2.337-.919-.188-1.466-1.634-1.219-3.024.247-1.39 1.193-2.361 2.113-2.173" fill="#4b93d6"/><path d="M7.631 6.01c.92.19 1.466 1.472 1.22 2.86-.247 1.389-1.193 2.528-2.114 2.337-.919-.188-1.466-1.634-1.219-3.024.247-1.39 1.193-2.361 2.113-2.173z" fill="none" stroke="#4b93d6" stroke-width=".765" stroke-linecap="round" stroke-linejoin="round" stroke-miterlimit="10"/><path d="M35.604 19.928l-7.827 1.639-.829 10.47 8.656-5.091z" fill="#fff"/><path d="M35.604 19.928l-7.827 1.639-.829 10.47 8.656-5.091z" fill="none" stroke="#4b93d6" stroke-width=".765" stroke-linecap="round" stroke-linejoin="round" stroke-miterlimit="10"/><path d="M27.016 13.977l-8.537 5.627v7.26l8.537-5.54z" fill="#fff"/><path d="M27.016 13.977l-8.537 5.627v7.26l8.537-5.54z" fill="none" stroke="#4b93d6" stroke-width=".765" stroke-linecap="round" stroke-linejoin="round" stroke-miterlimit="10"/><path d="M35.604 19.928l-8.588-5.941v7.44l8.588 5.519z" fill="#fff"/><path d="M35.604 19.928l-8.588-5.941v7.44l8.588 5.519z" fill="none" stroke="#4b93d6" stroke-width=".765" stroke-linecap="round" stroke-linejoin="round" stroke-miterlimit="10"/><path d="M27.016 21.427l-8.537 5.437 8.47 5.174 8.655-5.092z" fill="#fff"/><path d="M27.016 21.427l-8.537 5.437 8.47 5.174 8.655-5.092z" fill="none" stroke="#4b93d6" stroke-width=".765" stroke-linecap="round" stroke-linejoin="round" stroke-miterlimit="10"/><path d="M29.385 29.01l1.106-.742-4.419-2.6-1.087.668z" fill="#4b93d6"/><path d="M29.385 29.01l1.106-.742-4.419-2.6-1.087.668z" fill="none" stroke="#4b93d6" stroke-width=".765" stroke-linecap="round" stroke-linejoin="round" stroke-miterlimit="10"/><path d="M24.35 27.493l3.537-2.202-3.73-.11z" fill="#4b93d6"/><path d="M24.35 27.493l3.537-2.202-3.73-.11z" fill="none" stroke="#4b93d6" stroke-width=".765" stroke-linecap="round" stroke-linejoin="round" stroke-miterlimit="10"/><path d="M24.157 24.723l3.73.11v.457l-1.193.288 3.797 2.233v.455l-1.105.29-3.783-2.3-1.253.78-.193-1.857z" fill="#4b93d6"/><path d="M24.157 24.723l3.73.11v.457l-1.193.288 3.797 2.233v.455l-1.105.29-3.783-2.3-1.253.78-.193-1.857z" fill="none" stroke="#4b93d6" stroke-width=".765" stroke-linecap="round" stroke-linejoin="round" stroke-miterlimit="10"/><path d="M12.632 23.267c1.499-.321 1.315 2.098 1.315 2.098s.666-1.736 1.887-1.544c1.222.19 1.28 1.71 1.28 1.71s.134-1.766 1.127-2.5c.992-.735 2.079.103 2.079.103s-.406-1.74.565-2.951c.974-1.211 1.89-.826 1.89-.826s-.81-1.032-.776-2.488c.02-.9.582-1.552.582-1.552" fill="#fff" stroke="#4b93d6" stroke-width=".765" stroke-linecap="round" stroke-linejoin="round" stroke-miterlimit="10"/><path d="M19.406 10.3l-7.83 1.642-.827 10.47 8.657-5.091z" fill="#fff"/><path d="M19.406 10.3l-7.83 1.642-.827 10.47 8.657-5.091z" fill="none" stroke="#4b93d6" stroke-width=".765" stroke-linecap="round" stroke-linejoin="round" stroke-miterlimit="10"/><path d="M10.817 4.352L2.279 9.979v7.26l8.538-5.541z" fill="#fff"/><path d="M10.817 4.352L2.279 9.979v7.26l8.538-5.541z" fill="none" stroke="#4b93d6" stroke-width=".765" stroke-linecap="round" stroke-linejoin="round" stroke-miterlimit="10"/><path d="M19.406 10.3l-8.59-5.938v7.44l8.59 5.519z" fill="#fff"/><path d="M19.406 10.3l-8.59-5.938v7.44l8.59 5.519z" fill="none" stroke="#4b93d6" stroke-width=".765" stroke-linecap="round" stroke-linejoin="round" stroke-miterlimit="10"/><path d="M10.817 11.802l-8.538 5.437 8.47 5.173 8.657-5.091z" fill="#fff"/><path d="M10.817 11.802l-8.538 5.437 8.47 5.173 8.657-5.091z" fill="none" stroke="#4b93d6" stroke-width=".765" stroke-linecap="round" stroke-linejoin="round" stroke-miterlimit="10"/><path d="M13.187 15.098l1.106.745v.455l-4.42 2.144-1.086-.67z" fill="#4b93d6"/><path d="M13.187 15.098l1.106.745v.455l-4.42 2.144-1.086-.67z" fill="none" stroke="#4b93d6" stroke-width=".765" stroke-linecap="round" stroke-linejoin="round" stroke-miterlimit="10"/><path d="M8.15 16.615l3.538 2.203v.456l-3.73.112v-.457z" fill="#4b93d6"/><path d="M8.15 16.615l3.538 2.203v.456l-3.73.112v-.457z" fill="none" stroke="#4b93d6" stroke-width=".765" stroke-linecap="round" stroke-linejoin="round" stroke-miterlimit="10"/><path d="M7.958 19.386l3.73-.111-1.193-.743 3.798-2.234-1.107-.745-3.782 2.3-1.254-.78z" fill="#fff"/><path d="M7.958 19.386l3.73-.111-1.193-.743 3.798-2.234-1.107-.745-3.782 2.3-1.254-.78z" fill="none" stroke="#4b93d6" stroke-width=".765" stroke-linecap="round" stroke-linejoin="round" stroke-miterlimit="10"/><path d="M7.958 19.386l3.73-.111-1.193-.743 3.798-2.234-1.107-.745-3.782 2.3-1.254-.78z" fill="#fff"/><path d="M7.958 19.386l3.73-.111-1.193-.743 3.798-2.234-1.107-.745-3.782 2.3-1.254-.78z" fill="none" stroke="#4b93d6" stroke-width=".765" stroke-linecap="round" stroke-linejoin="round" stroke-miterlimit="10"/><path d="M7.958 19.386l3.73-.111-1.193-.743 3.798-2.234-1.107-.745-3.782 2.3-1.254-.78z" fill="#4b93d6"/><path d="M7.958 19.386l3.73-.111-1.193-.743 3.798-2.234-1.107-.745-3.782 2.3-1.254-.78z" fill="none" stroke="#4b93d6" stroke-width=".765" stroke-linecap="round" stroke-linejoin="round" stroke-miterlimit="10"/></g><g clip-path="url(#c)" transform="matrix(1.33333 0 0 -1.33333 0 49.134)" fill="none" stroke="#4b93d6" stroke-linecap="round" stroke-linejoin="round" stroke-miterlimit="10"><path d="M35.858 14.349c0-7.346-6.01-13.355-13.356-13.355h-8.153C7.003.994.992 7.003.992 14.349V22.5c0 7.346 6.01 13.357 13.357 13.357h8.153c7.346 0 13.356-6.011 13.356-13.357z" stroke-width="1.984"/><path d="M17.888 30.202c-.597.005-1.451-.178-1.926-1.314m.724 2.398a1.076 1.076 0 01-.923-.556m-6.11-5.247c-.597.004-1.45-.178-1.925-1.314m.724 2.398a1.076 1.076 0 01-.923-.556M19.343 6.954c.596.033 1.436.27 1.84 1.433m-.574-2.439c.266.027.657.15.888.612m5.98 4.494c.596.033 1.436.268 1.84 1.432m-.573-2.439c.266.028.656.15.887.613" stroke-width=".765"/></g></svg>