<svg xmlns="http://www.w3.org/2000/svg" viewBox="0 0 508.39205 187.55314"><defs><style>.cls-1{fill:#fff;}.cls-2{fill:#e5e5e6;}.cls-3{fill:#9e9e9f;}.cls-4{fill:#c8c9ca;}.cls-5{fill:#231815;}.cls-6{fill:#bfd833;}.cls-7{fill:#666;}.cls-8{fill:none;}</style></defs><title>アセット 1401</title><g id="レイヤー_2" data-name="レイヤー 2"><g id="レイヤー_2-2" data-name="レイヤー 2"><path class="cls-1" d="M182.20676,101.45265a2.97708,2.97708,0,0,1-4.06611-1.08952l-2.7645-4.78825-.83347.4812,2.96265,5.13146-15.73564,9.085a2.54975,2.54975,0,0,1-3.48312-.93385l-1.76362-2.87889-16.49362,9.5226-.03472.19758.07525.13755a2.14584,2.14584,0,0,1,.26211,1.17906l-.246,3.5114a9.35512,9.35512,0,0,1-4.65287,7.44947l-4.39751,2.53891a9.35518,9.35518,0,0,1-8.77788.30477l-3.164-1.54265a2.13869,2.13869,0,0,1-.8894-.81689l-.0802-.1347-.18859-.06865-6.57817,3.79947a1.70214,1.70214,0,0,1-.789,1.928l-8.51663,4.91708,1.00041,1.84555a2.55039,2.55039,0,0,1-.93542,3.4849l-15.73434,9.08423L83.41971,148.666l-.83346.4812,2.7645,4.78825a2.97653,2.97653,0,1,1-5.1555,2.97653l-2.7645-4.78826-4.78708,2.76383-4.65121-3.206-.11029.06368L28.12632,82.886l.77824-2.90277,7.27292-4.199-1.1697-2.026a1.27588,1.27588,0,0,0-1.74226-.46739L30.689,74.7784l-1.4883-2.57781a1.27349,1.27349,0,0,1,.46543-1.74114l16.20369-9.3552a1.27449,1.27449,0,0,1,1.74123.46712l3.44443,5.623L65.414,58.90449,62.26837,53.109a1.27449,1.27449,0,0,1,.46557-1.74122l37.89086-21.8763a1.276,1.276,0,0,1,1.74319.466l3.44625,5.622,14.35411-8.28735-3.14565-5.79553a1.27588,1.27588,0,0,1,.46739-1.74227l16.2025-9.35452a1.27477,1.27477,0,0,1,1.74189.46674l1.4883,2.57781L134.345,14.9326a1.27588,1.27588,0,0,0-.46636,1.74254l1.1697,2.026,7.27279-4.19895,2.90311.77734,39.75585,68.85915-.11027.06367.45335,5.62965-4.79137,2.7663,2.7645,4.78826A2.97709,2.97709,0,0,1,182.20676,101.45265Z"/><path class="cls-2" d="M117.93554,128.73823l.18859.06865.0802.1347a2.13869,2.13869,0,0,0,.8894.81689l3.164,1.54265a9.35518,9.35518,0,0,0,8.77788-.30477l4.39751-2.53891A9.35512,9.35512,0,0,0,140.086,121.008l.246-3.5114a2.14584,2.14584,0,0,0-.26211-1.17906l-.07525-.13755.03472-.19758Z"/><path class="cls-1" d="M140.02933,115.98238l-.46826,2.65607a8.50721,8.50721,0,0,1-4.12279,5.88752l-7.80942,4.50878a8.50879,8.50879,0,0,1-7.16079.627l-2.53253-.92357Z"/><path class="cls-3" d="M185.26131,84.6258,68.16342,152.2323a.5625.5625,0,0,1-.5625-.97428l117.09789-67.6065a.5625.5625,0,1,1,.5625.97428Z"/><path class="cls-3" d="M171.65511,61.05917,54.55722,128.66567a.5625.5625,0,0,1-.5625-.97428l117.09789-67.6065a.5625.5625,0,1,1,.5625.97428Z"/><path class="cls-3" d="M151.24581,25.70922,34.14792,93.31572a.5625.5625,0,0,1-.5625-.97428L150.68331,24.735a.5625.5625,0,1,1,.5625.97427Z"/><path class="cls-3" d="M145.50546,15.76665,28.40757,83.37314a.5625.5625,0,0,1-.5625-.97427L144.943,14.79237a.5625.5625,0,0,1,.5625.97428Z"/><path class="cls-3" d="M142.60235,14.98931,29.18581,80.47038a.5625.5625,0,0,1-.5625-.97428L142.03985,14.015a.5625.5625,0,0,1,.5625.97428Z"/><path class="cls-3" d="M104.68174,33.965l-12.41,7.1649a.375.375,0,1,1-.375-.64952l12.41-7.1649a.375.375,0,1,1,.375.64952Z"/><path class="cls-3" d="M76.99092,49.95227,64.58212,57.1165a.375.375,0,0,1-.375-.64952l12.4088-7.16423a.375.375,0,0,1,.375.64952Z"/><path class="cls-3" d="M94.23826,38.52124A.37476.37476,0,0,1,93.726,38.384l-1.4883-2.57781-.00915-.01585-.07622-.14791-.01352-.02943-.06244-.15344a.31619.31619,0,0,1-.01258-.035l-.04641-.15507-.00821-.03492-.03013-.156a.4347.4347,0,0,1-.0064-.04618l-.01012-.154-.001-.03079.00271-.14619a.392.392,0,0,1,.00463-.055l.02309-.1403a.32625.32625,0,0,1,.01011-.0455l.03811-.12869a.42386.42386,0,0,1,.01948-.05265l.05472-.11612a.41085.41085,0,0,1,.03063-.05405l.07034-.10227a.35887.35887,0,0,1,.04148-.05115l.08533-.0865a.35837.35837,0,0,1,.05211-.04446l.09611-.06814a.37509.37509,0,0,1,.4319.61338l-.06868.04814-.03768.03855-.03474.05142-.02964.06266-.02352.07957-.01459.09053-.00127.10309.00717.115.02263.11389.03542.11984.04967.12115.06494.12567,1.4835,2.5695A.37523.37523,0,0,1,94.23826,38.52124Z"/><path class="cls-3" d="M91.48326,44.50293a.5627.5627,0,0,1-.76839-.20589l-3.296-5.70875-.0151-.02765L87.3289,38.412c-.00738-.01428-.01418-.02906-.02025-.04408l-.06179-.15382c-.00593-.016-.01211-.03267-.01681-.04952l-.046-.15443c-.005-.01737-.00989-.03482-.01322-.05229l-.03013-.156a.56124.56124,0,0,1-.00893-.06257l-.0122-.15282a.46175.46175,0,0,1-.00124-.061l.00416-.14789a.62174.62174,0,0,1,.00665-.07069l.022-.14037a.59423.59423,0,0,1,.01571-.0709l.03831-.12864a.56015.56015,0,0,1,.02968-.0788l.05435-.11676a.57122.57122,0,0,1,.04576-.08064l.07034-.10227a.58423.58423,0,0,1,.06069-.07488l.08481-.0862a.54716.54716,0,0,1,.0792-.06772l.09611-.06814a.5626.5626,0,0,1,.64775.92l-.0674.05156-.0343.06206-.01526.0528-.01128.06835-.00169.08048.0073.09035.01867.09834.03117.10377.0426.10739.05765.11307,3.28785,5.69472A.5627.5627,0,0,1,91.48326,44.50293Z"/><path class="cls-3" d="M47.79856,61.89612,29.38821,72.52535a.375.375,0,1,1-.375-.64952L47.42356,61.24661a.375.375,0,1,1,.375.64951Z"/><path class="cls-3" d="M102.55549,30.2822,62.45587,53.43373a.375.375,0,1,1-.375-.64952l40.09962-23.15153a.375.375,0,0,1,.375.64952Z"/><path class="cls-3" d="M135.622,11.19125,117.2102,21.8213a.375.375,0,1,1-.375-.64952l18.41178-10.63a.375.375,0,0,1,.375.64952Z"/><path class="cls-3" d="M73.74853,50.351a.37476.37476,0,0,1-.51226-.13726l-1.55919-2.6874-.0813-.10271-.0855-.0911-.092-.07869-.08968-.06323-.09317-.04857-.08674-.03445-.07832-.01834-.07012-.00594-.06242.00468-.0504.0123-.07538.035a.37506.37506,0,1,1-.3159-.68035l.10758-.04947a.41222.41222,0,0,1,.06715-.02439l.11549-.02857a.338.338,0,0,1,.06272-.00989l.12373-.00977a.36683.36683,0,0,1,.06212.0005l.12793.01067a.39516.39516,0,0,1,.05336.009l.13108.03084a.41487.41487,0,0,1,.05385.01706l.12993.05194a.294.294,0,0,1,.03434.01569l.13173.06857a.28439.28439,0,0,1,.04187.02571l.12471.087.02925.02277.1208.10364a.32418.32418,0,0,1,.02779.02622l.11109.11772a.29669.29669,0,0,1,.02259.02593l.10232.13042a.27684.27684,0,0,1,.02015.02889l.09063.13959.00915.01585,1.4883,2.57781A.37475.37475,0,0,1,73.74853,50.351Z"/><path class="cls-3" d="M80.30438,50.95706a.56271.56271,0,0,1-.76839-.20589l-3.29115-5.70044-.06676-.107-.06761-.08619-.07241-.07562-.07952-.06754-.0733-.05225-.13463-.06188-.09851-.01674-.04749.00716-.05878.02718a.56257.56257,0,0,1-.47342-1.02069l.10706-.04916a.5392.5392,0,0,1,.09826-.03474l.117-.03034a.70737.70737,0,0,1,.09751-.01559l.12347-.00876a.53049.53049,0,0,1,.08936.00089l.12831.01131a.54976.54976,0,0,1,.07675.01146l.13276.03074a.63232.63232,0,0,1,.07922.02441l.13147.05192a.57694.57694,0,0,1,.05492.02493l.13187.06849a.60666.60666,0,0,1,.06537.04l.12378.0884c.01307.00943.02607.01873.03783.02891l.12132.10333a.5424.5424,0,0,1,.04547.04217l.11072.11707c.01172.01281.02362.0262.034.03963l.10231.13041a.54.54,0,0,1,.03442.04941l.08824.14114.01047.01665,3.296,5.70875A.56271.56271,0,0,1,80.30438,50.95706Z"/><path class="cls-3" d="M78.25437,52.14063a.56271.56271,0,0,1-.76839-.20589l-1.1697-2.026a.71511.71511,0,0,0-.97582-.26037l-10.8115,6.242.12615.2275.07207.12484a.5625.5625,0,1,1-.97427.5625l-.21541-.38209-.00849-.01623-.05422-.1083-.00738-.01427-.04553-.09807c-.00455-.01089-.00959-.0208-.01349-.03206l-.03479-.08816a.515.515,0,0,1-.01844-.05534l-.02126-.07642a.58018.58018,0,0,1-.01491-.07262l-.00983-.06534A.57647.57647,0,0,1,63.305,55.682l.00391-.05473a.57565.57565,0,0,1,.05171-.20324l.02045-.04228a.54342.54342,0,0,1,.13555-.18133l.03508-.03133a.53892.53892,0,0,1,.09184-.06653L74.778,48.67411a1.84128,1.84128,0,0,1,2.5126.67215l1.1697,2.026A.56271.56271,0,0,1,78.25437,52.14063Z"/><path class="cls-3" d="M93.53522,43.31823a.56261.56261,0,0,1-.76839-.20589l-1.1697-2.026a1.83983,1.83983,0,0,1,.67225-2.51092l11.13509-6.42885a.51952.51952,0,0,1,.10639-.04705l.04313-.01468a.56343.56343,0,0,1,.23082-.025l.04585.00471a.56825.56825,0,0,1,.17608.04729l.05131.02286a.61114.61114,0,0,1,.11443.0692l.05166.04119a.46988.46988,0,0,1,.05544.04923l.05555.05661a.54969.54969,0,0,1,.03871.04364l.059.07421.01744.023.06326.08766.01524.02341.14021.221.00838.013.07167.12264a.56189.56189,0,0,1-.1993.76961.56992.56992,0,0,1-.77055-.19945l-.13447-.2227-10.8128,6.24278a.71364.71364,0,0,0-.26047.97414l1.1697,2.026A.56271.56271,0,0,1,93.53522,43.31823Z"/><path class="cls-3" d="M89.5852,100.1828a.56787.56787,0,0,1-.183.06683l-.54692.09579-.03183.00487-.55711.06617-.03623.00325-.56722.02974-.03181.0007-.576-.00158c-.01021,0-.02067-.00071-.03126-.00135l-.57849-.0339-.03472-.00281-.57673-.07043-.03351-.00524-.56942-.10426-.03481-.00779-.55278-.13846-.03132-.00894-.53845-.16942-.02957-.01012-.52024-.19518-.03335-.01366-.48805-.21982-.03074-.01516-.45918-.24152-.0316-.01813-.438-.26812-.02736-.018-.398-.27772a.3321.3321,0,0,1-.0313-.02332l-.45754-.36769-.01859-.01629-.46568-.40941-.02395-.02255-.4588-.45478-.01816-.01827-.45707-.49734a.46166.46166,0,0,1-.046-.05625l-.39508-.561-.01071-.01582-.38939-.59375-.01167-.01872-.37211-.61811L70.94254,81.93187a.56272.56272,0,0,1,.20277-.76659l3.85529-2.264a.57537.57537,0,0,1,.42864-.05886.56173.56173,0,0,1,.34286.263l2.72348,4.7172,3.84255-2.2185a.56223.56223,0,0,1,.76839.20589l2.23463,3.87048a.56262.56262,0,0,1-.20589.76839l-3.84256,2.2185,1.22243,2.11731.885,1.49772.14815.22571.15949.22073.17257.2227.3675.42712.19509.19272.20245.18086.20352.15478.2397.15.27174.14847.29016.13178.32161.12054.3466.10682.38488.08644.413.07366.46061.04359.51308.02437.58294-.00851.67145-.04091a.5617.5617,0,0,1,.59674.57069l-.07474,4.39094A.56216.56216,0,0,1,89.5852,100.1828Zm-.90945-.94821.07412-.01231.05682-3.3192-.07753.00492c-.00881.00094-.01742.00071-.02649.00092l-.61315.009c-.01176,0-.023-.00023-.03476-.0002l-.54369-.0261a.25449.25449,0,0,1-.027-.0014l-.497-.04786a.45206.45206,0,0,1-.045-.00623l-.44785-.07971-.0249-.005-.41874-.09408c-.01356-.00309-.0277-.00688-.042-.01126l-.3834-.11778-.03155-.01054-.3551-.13325c-.01276-.00441-.0243-.00969-.03577-.01485l-.32679-.14873a.36047.36047,0,0,1-.037-.01848L84.534,95.036l-.02822-.01678-.27553-.17244c-.01454-.00928-.02863-.019-.04236-.02958l-.24141-.18383a.38533.38533,0,0,1-.03386-.02773l-.22976-.20476-.01956-.01919-.21979-.21657a.34274.34274,0,0,1-.02841-.03l-.40236-.46711-.014-.01824-.18554-.23946-.01145-.01383-.17246-.2387-.01544-.02226-.1597-.24451-.0098-.01547-.155-.2538-.74666-1.27135-1.50555-2.60769a.56271.56271,0,0,1,.20589-.76839l3.84256-2.2185-1.67213-2.8962-3.84255,2.2185a.56261.56261,0,0,1-.76839-.20589l-2.7213-4.71343-2.88543,1.69379,7.23487,12.53117.36191.60044.37725.57721.36939.52251.423.46021.43856.43442.44286.39055.43233.34743.36912.25714.40813.24969.42652.22486.45644.20586.48879.183.50831.1598.51894.12994.53458.09822.54242.0665.54532.03192.54484.0017.53257-.02827Z"/><path class="cls-3" d="M104.34643,66.6404l-.02142.01151-.21437.112-.03987.01885-.22085.09357c-.01365.00545-.02816.01123-.04239.016l-.24224.07993c-.01707.00553-.03445.01054-.0522.01489l-.23964.05384a.24181.24181,0,0,1-.03347.00651l-.24854.04113-.04424.00527-.25765.02111c-.01539.00126-.03115.00187-.04708.00189l-.24719-.00035a.44024.44024,0,0,1-.0586-.00341l-.23772-.02505c-.01162-.00091-.02348-.00255-.03482-.00449l-.2359-.0396c-.01793-.00316-.03559-.00734-.05362-.01217l-.22778-.06214a.36539.36539,0,0,1-.04027-.01243l-.2266-.08048c-.0157-.00531-.03011-.01137-.045-.018l-.22027-.10042a.454.454,0,0,1-.04708-.02425l-.21242-.12193c-.01354-.00725-.02623-.016-.03855-.02416l-.20232-.13954-.02016-.01451-.20246-.153c-.01684-.013-.03385-.02773-.05022-.04288l-.17613-.16886-.03005-.03166-.15881-.17817-.01941-.02343-.14763-.18549a.56127.56127,0,0,1-.03619-.051l-.11539-.18366a.362.362,0,0,1-.02018-.035l-.11381-.21332a.5701.5701,0,0,1-.02633-.05581l-.09281-.234-.00953-.02671-.08127-.23886a.50892.50892,0,0,1-.01547-.0562l-.05708-.25127c-.00311-.01258-.00581-.02626-.0079-.03857l-.03962-.25615c-.00229-.01566-.00355-.031-.00474-.04629l-.01791-.25362c-.00116-.01371-.00129-.02714-.00143-.04057l.00065-.25239a.441.441,0,0,1,.0027-.05231l.02332-.24521L99.101,63.085l.03824-.23858c.0025-.01756.00641-.03419.01033-.05083l.0596-.23065a.448.448,0,0,1,.01534-.05112l.08326-.2308c.00541-.014.01074-.0282.01717-.042l.10034-.2204a.4513.4513,0,0,1,.02553-.04938l.13088-.22451c.00539-.00987.01167-.01939.01795-.0289l.13909-.20882a.47907.47907,0,0,1,.02815-.03912l.15355-.19275c.011-.01309.02143-.02588.03315-.03767l.1776-.1862c.00761-.00872.016-.016.024-.02409l.17223-.1604a.56223.56223,0,0,1,.04556-.03808l.18722-.14013a.40532.40532,0,0,1,.03488-.02447l.19976-.12711c.01431-.00913.02885-.01753.04378-.02528l.20554-.10689c.01246-.00633.02529-.012.03813-.01768l.21431-.09169c.017-.0072.03462-.01323.05234-.01914l.22923-.07155c.01294-.004.02552-.00711.0381-.01022l.24622-.05832.0409-.00837.24986-.04033c.018-.00276.0362-.0048.05415-.00581l.24973-.01566a.39845.39845,0,0,1,.04467-.00033l.25031.00426c.01344-.00013.02659.00076.03988.00157l.24344.02175a.517.517,0,0,1,.05524.00777l.23825.04518.03764.00788.2323.06126a.49766.49766,0,0,1,.0609.01906l.226.0867a.288.288,0,0,0,.02895.012l.22467.102c.01116.00464.022.01018.03279.01571l.22576.12011a.596.596,0,0,1,.06574.04068l.4244.31478a.7017.7017,0,0,1,.05519.0485l.18075.17987c.01011.01028.02025.02036.03006.03166l.16411.19035c.0064.00808.0137.01652.01945.025l.15277.19863c.01073.01407.0203.02794.02972.04277l.12884.204c.0083.01288.016.02626.0231.04l.10006.19251c.00738.01427.01431.029.02038.044l.09125.218.01286.034.07646.22484a.40295.40295,0,0,1,.01229.04019l.06137.23529a.566.566,0,0,1,.01381.07222l.03177.25151.00178.0175.02242.24254a.54334.54334,0,0,1,.0026.06449l-.00552.24844a.408.408,0,0,1-.00383.05037l-.02707.24322a.378.378,0,0,1-.00673.04112l-.04426.23686-.00584.028-.05437.225a.56286.56286,0,0,1-.01694.05706l-.07916.22168a.55346.55346,0,0,1-.02274.05453l-.10852.22512c-.00581.01184-.01135.02266-.0183.03429l-.12143.213c-.00681.01311-.01494.02543-.02294.03767l-.14235.20914a.47482.47482,0,0,1-.02881.0395l-.15749.19312a.30908.30908,0,0,1-.02692.03078l-.17245.1834c-.01135.01244-.02293.02328-.035.03456l-.18817.16787c-.01145.01077-.0237.02044-.0359.02991l-.19146.14449-.03626.02509-.19859.12644Zm-.73495-.88476.17208-.09016.15957-.10131.15465-.11735.153-.13646.142-.15126.1292-.15843.11608-.17094.10122-.17778.087-.18048.05828-.16546.04392-.18193.03865-.20245.02232-.19718.00392-.19088-.04409-.40756-.04654-.17873-.06436-.18766-.0748-.17938-.07854-.15072-.10236-.16261-.12782-.16557-.13924-.16227-.1393-.13868-.339-.25169-.1765-.0933-.19429-.08753-.18183-.07013-.18325-.048-.19249-.03609-.19642-.01771-.20819-.0033-.19934.012-.203.03248-.2073.04954-.18361.057-.16834.07173-.16375.08536-.16036.10176-.14629.10992-.13868.12909-.149.15618-.123.15483-.11653.17466-.108.185-.0788.174-.06638.18382-.04607.17971-.03159.19577-.01941.20069-.00042.20567.01513.2095.03291.21362.04634.20326.06656.19748.07549.19076.09011.16777.08749.13984.11931.14935.13292.14982.13625.13039.16531.12522.17282.11933.16968.09741.17439.07945.18372.06471.18036.049.19138.0324.19123.02071.19456.00008.21159-.0172.20922-.03453.1959-.04469.19453-.06416Z"/><path class="cls-3" d="M116.8185,83.76786l-3.87294,2.23605a.56261.56261,0,0,1-.76839-.20589l-8.99453-15.579a.56223.56223,0,0,1,.20589-.76839l3.873-2.23605a.56212.56212,0,0,1,.76838.20589l8.99453,15.579A.56252.56252,0,0,1,116.8185,83.76786Zm-3.9483.98052,2.89866-1.67354-8.432-14.6047-2.89867,1.67355Z"/><path class="cls-3" d="M102.08456,92.80642l-.01927.01043-.53451.28141-.02406.01233-.54913.25607-.0309.01369-.55719.22019c-.01126.00391-.02215.00846-.0337.01184l-.56654.18333-.03444.01053-.57027.14478-.02619.00594-.5731.11767-.037.00612-.57909.07817c-.01064.002-.0221.00253-.03323.00394l-.574.043-.03787.0016-.57563.005c-.01021,0-.02067-.00071-.03089-.0007l-.57585-.0278-.03368-.00255-.5747-.06241a.30237.30237,0,0,1-.03936-.00516l-.56464-.102-.02453-.00437-.56056-.127-.038-.0103-.54677-.16462-.03142-.01061-.54057-.198c-.01238-.00376-.02417-.00977-.03628-.01456l-.52567-.23517-.0244-.01138-.514-.2606-.035-.01947-.4925-.295-.02248-.014-.47514-.316c-.00989-.00693-.02088-.01427-.0305-.02223l-.45751-.35143-.02765-.023-.43526-.38039-.02584-.02405-.41525-.41324-.021-.02165-.39785-.44009-.02231-.02695-.37442-.46972-.01917-.026-.34567-.48892a.35028.35028,0,0,1-.02175-.03317l-.30911-.509-.01215-.021-.28549-.52089a.35024.35024,0,0,1-.01785-.03542l-.25238-.54694-.013-.02973-.21958-.55911-.01248-.03333-.18041-.56147-.008-.02848-.15054-.56676-.00716-.03311-.11537-.57182c-.00274-.01193-.00476-.02445-.00647-.0361l-.07649-.569-.00413-.04074-.03449-.57124-.00119-.02547-.0085-.57273c-.00014-.01343,0-.02634.00027-.03912l.0316-.57649.00222-.03.061-.56971.005-.03666.0989-.567c.00194-.01134.004-.02255.00679-.03354l.13252-.55438a.3332.3332,0,0,1,.00883-.033l.16789-.5528.00947-.0292.1955-.53739.014-.03425.23234-.529A.25305.25305,0,0,1,87.715,79.623l.26385-.5126.01607-.028.29192-.49486.01881-.03043.32435-.47651c.00668-.01062.01464-.02024.02222-.0305l.35878-.45829a.23339.23339,0,0,1,.02043-.02461l.38635-.44113.02091-.02229.41088-.42082.02735-.02583.44346-.39651.02213-.01866.467-.37614.02914-.02272.496-.34818a.31221.31221,0,0,1,.0313-.02049l.51562-.31381.02222-.01282.53477-.29264a.304.304,0,0,1,.0334-.01686l.54873-.255c.01145-.005.023-.01.03424-.01388l.55678-.21493.02541-.00879.574-.19089.03734-.01152.56976-.14535.032-.00757L95.42,73.8788c.01149-.0023.02249-.00363.0335-.005l.56752-.07633.03091-.00347.58034-.04511.03955-.00171.57213-.00383c.00919-.00028.01935-.00008.02892.00028l.57779.02668c.01279.00024.02543.00142.03793.00269l.57254.06436c.01148.001.02282.00293.034.00482l.56517.0984.02944.00569.56515.13045c.01158.00267.0233.00525.03453.00882l.54636.16243c.01131.00369.02268.00717.03384.01181l.53855.199.02857.01139.52893.22913.0314.01478.5135.26091.03224.01775.4937.29261c.01016.0059.02013.013.03.0199l.4699.32159.023.01636.45827.34856a.34579.34579,0,0,1,.03216.02629l.43688.3862.02331.02119.41693.41313c.00667.00706.01394.014.02034.022l.39735.43622.02364.02775.37378.47009.01811.02419.35007.49053.02086.032.311.50632a.21927.21927,0,0,1,.01575.02728l.28372.52381.01724.034.24865.5465.01189.02777.21947.55745.01191.03383.18156.565.00863.02966.14857.56634.00679.03245.11412.56666.00584.038.07385.57311.00317.03039.04205.56513c.00106.012.00182.02355.00185.03531l.00693.5745c.00042.01241-.0002.02454-.00037.03746l-.03087.575-.00265.032-.06416.57588c-.00136.01083-.00265.0218-.005.03236l-.0965.56666c-.002.01121-.004.02255-.00679.03354l-.13081.55582a.34782.34782,0,0,1-.01108.03931l-.172.55016-.00809.02408-.197.54084a.26988.26988,0,0,1-.01336.03387l-.23083.52748-.01571.0328-.26552.5127-.01391.0257-.28966.49459c-.00749.01194-.01432.02351-.02217.0348l-.32992.47887-.01609.02193-.34756.457-.02545.03062-.383.43521-.01954.02046-.41038.4214c-.00935.00869-.01826.01817-.02792.02634l-.45087.40407-.02565.02157-.4667.37095-.0273.01991-.495.34678-.02348.01512-.5159.325Zm-1.066-.70972.50323-.26507.48559-.30583.47056-.32917.44067-.35.4248-.38053.38725-.397.36063-.40948.32767-.43028.31-.45038.27175-.46381.25078-.48393.21615-.49441.18648-.51192.16212-.519.12247-.519.0906-.53278.06131-.54272.0279-.54057-.00668-.539-.0395-.53283-.06941-.5393-.10605-.53079-.14058-.53631-.17143-.5327-.20712-.52735-.2351-.51551-.26682-.493-.29313-.47682-.32995-.46318-.35358-.44382-.37419-.41235-.39522-.39172-.4092-.36165-.43084-.32716-.4432-.30323-.4621-.27447-.4823-.245-.49858-.21617-.50683-.18785-.51147-.1521-.53232-.12221-.53415-.09327-.53728-.06029-.54513-.0244-.5366.00358-.54452.043-.53548.07152-.5381.10508-.53419.13676-.54329.181-.52732.203-.51423.23852-.50712.27754-.48873.29741L91.501,76.753l-.44124.35625-.41891.37453-.38748.39536-.36591.41772-.33772.43175-.303.44633-.2753.46517-.249.48288-.21824.49649-.18458.5065-.15828.52266-.12429.52-.09212.53192-.0574.5363-.02918.54287.00816.54.03272.53848.07174.53016.108.53725.14162.53658.17081.53046.20733.52739.23787.51462.27047.49336.2924.48156.325.46032.35337.44377.37549.41576.39211.38936.40832.35713.42773.329.44766.29805.46389.2776.48435.24551.49567.22132.50636.18553.51259.154.52857.12022.53308.09562.5377.05832.54369.0261.54117-.00466.53895-.04062.543-.07325.54219-.1109.53883-.13772.533-.17244.52542-.20774Zm-1.05685-2.9672-.01832.01057-.33094.1741c-.01259.00727-.02608.01332-.03948.0195l-.3358.14468a.199.199,0,0,1-.02893.01169l-.3499.12926c-.016.00593-.03175.01071-.0486.01542l-.36.097-.03033.00747-.36589.07666a.41165.41165,0,0,1-.04453.008l-.37351.04728a.34377.34377,0,0,1-.03753.004l-.37374.022a.37133.37133,0,0,1-.04152.00128l-.37766-.00522c-.01714-.00032-.03468-.00128-.05084-.00286l-.36906-.03894-.01988-.002-.37862-.05368a.40776.40776,0,0,1-.04847-.00926l-.37965-.0879c-.01562-.00363-.0316-.00791-.04641-.01287l-.36-.11689-.02215-.00747-.36514-.13595c-.01609-.00595-.032-.01286-.04718-.02022l-.34869-.16744a.30431.30431,0,0,1-.03931-.02129L93.999,89.025c-.01016-.00591-.02-.01284-.02965-.01925l-.31828-.21288c-.00951-.00629-.01954-.01315-.02885-.02058l-.30339-.23239-.02551-.02078-.29513-.255c-.01348-.01162-.02585-.02405-.03839-.03707l-.26674-.279c-.00807-.008-.01574-.01707-.02324-.02556l-.25223-.29916c-.01062-.0124-.02053-.02539-.03023-.03919l-.22376-.31733-.01627-.02369-.20533-.32624c-.00787-.01243-.01552-.02568-.02235-.03872l-.17882-.33912-.0123-.02581-.16407-.35439c-.00673-.01465-.01339-.03038-.01882-.04578l-.1326-.36736-.01-.03058L91.29215,85.34c-.00526-.0181-.00934-.03687-.01305-.055l-.07146-.38-.00454-.02856-.05194-.38276c-.00181-.01333-.00311-.02609-.00389-.03915l-.02482-.37988-.00083-.035-.00082-.38093c0-.01438.00015-.02884.00132-.043l.02888-.382c.00134-.01689.0032-.03407.00571-.05162l.066-.38816.00478-.02563.07991-.36829c.00291-.01536.00757-.0307.0117-.04573l.11409-.3721.01288-.03618.13877-.36175.012-.02895.151-.33749c.00763-.01618.01556-.03184.02381-.04665l.186-.32824c.00717-.01245.01465-.02439.02278-.03671l.2079-.30951.01781-.02466.22615-.29979a.46856.46856,0,0,1,.031-.03727l.25044-.27814c.00761-.00872.01529-.01731.02392-.02576l.26344-.25861.02583-.02427.286-.24707a.47436.47436,0,0,1,.04415-.03484l.29812-.21023.02746-.01845.31826-.19725.03039-.01755.32945-.1767.03022-.01485.32736-.15089c.0166-.00785.03322-.01416.05057-.02071l.36061-.12541.02994-.00966.36748-.10478c.014-.00373.02771-.00751.04234-.01007l.35863-.07334c.0136-.00283.02745-.00494.04079-.00675l.376-.04783a.29422.29422,0,0,1,.03617-.00305l.36751-.02286c.01408-.00051.02816-.001.04262-.00088l.37263.00552c.01343-.00013.02672.00068.03988.00157l.37728.03246.042.00534.38072.06182c.0139.00219.02759.0052.04123.00842l.37377.08939.03349.00941.36433.11113c.01468.005.02949.01.0439.016l.35911.1429.0283.01241.35095.16267a.40864.40864,0,0,1,.04371.02291l.331.19115a.2098.2098,0,0,1,.02593.01551l.32063.20824c.01262.00864.0253.01743.03735.02659l.30564.23628.03245.02682.28451.257.01868.018.28048.2761c.01432.0146.02836.03022.04188.04614l.24484.30257.01669.02171.23161.31626c.00688.01041.0144.02044.02093.03175l.20493.324a.4442.4442,0,0,1,.02235.03872l.17922.34131c.0066.01144.0119.02362.01747.03477l.15659.35612.01046.02531.14.364a.628.628,0,0,1,.01942.06154l.09734.37681.00544.02232.08107.37772a.31927.31927,0,0,1,.00758.0455l.04968.37887c.002.01406.00322.02776.00437.04147l.02115.38374.00115.03138,0,.38225a.46431.46431,0,0,1-.002.04931l-.03347.38722-.00412.03545-.057.37883a.39571.39571,0,0,1-.00763.04078l-.08463.37362-.00874.03466-.10872.36969c-.00493.01636-.01044.03322-.017.04968l-.14087.35361c-.00372.00976-.00832.01917-.01307.02867l-.15977.34426-.01728.03457-.17989.32712-.02207.03647-.20387.31049a.326.326,0,0,1-.0233.03285l-.22718.29951c-.00875.01094-.017.02158-.02624.03195l-.24283.27391a.34915.34915,0,0,1-.02686.02816l-.27235.26809a.37977.37977,0,0,1-.03608.03261l-.29288.24271-.02289.01736-.28891.216c-.012.00852-.02455.01747-.03728.02482l-.31611.19948ZM99.10626,88.31l.29292-.15474.27982-.17593.26013-.19418.26318-.21794.24165-.23755.216-.24408.2028-.26673.18068-.276.161-.29266.14537-.31221.12484-.31387.09674-.32744.07572-.33626.05139-.34179.03011-.34474-.00082-.34282-.01935-.34822-.04364-.33508-.07425-.34372-.086-.33522-.124-.32158-.1432-.32574-.1604-.30421-.18243-.28958-.21162-.28884-.21677-.26715-.24854-.2457-.25935-.23409-.27113-.20892-.289-.18823-.2953-.17038-.31426-.14591-.32312-.12886-.32662-.09981-.33647-.08061-.33908-.05539-.33648-.029-.33064-.00448-.32762.01993-.33705.04321-.31644.06423-.33034.09442-.31974.111-.287.13281-.29927.16L94.29,79.9854l-.26165.184-.25144.21791-.238.23391-.223.24792-.202.268-.18806.27936-.16132.28608-.13492.29943-.12628.32907-.10156.33109-.07157.33144-.05945.34973-.02493.33482.00117.34193.022.34255.04711.34831.06351.33711.09767.33176.11886.32888.14713.31932.16211.3072.18581.29543.20185.28512.22577.268.2363.24669.26105.22653.27583.21106.2885.1937.29553.172.30513.146.3296.12268.32554.10546.33212.07724.34415.04829.33321.035.33166.00476.33463-.01982.33137-.04254.328-.06914.32134-.08663.3123-.11518Z"/><path class="cls-3" d="M128.13326,77.7672l-.0194.0105-.53256.28028-.02341.012-.55225.25787a.28188.28188,0,0,1-.032.01349l-.55265.21757-.03048.01171-.57537.18843c-.01191.00428-.02457.00726-.03677.011l-.57078.14508-.02619.00594-.5744.11841-.03925.00673-.57462.07541-.03361.0033-.56954.04043c-.012.00106-.02354.00182-.0353.00185l-.5747.00359c-.01022,0-.02095.00031-.03154-.00033l-.57483-.02752-.03406-.0032-.57316-.06244c-.01345-.00141-.02633-.00333-.03973-.00581l-.56262-.103-.02022-.00443-.56469-.124-.03773-.00956-.55041-.16252-.03219-.01017-.54426-.19568c-.01506-.00568-.03062-.01194-.04541-.01865l-.51865-.23922-.53389-.26264a.498.498,0,0,1-.04447-.02421l-.48808-.29758-.02425-.01562-.4684-.319-.03227-.0238-.44984-.35586-.01515-.01152-.44364-.37572a.325.325,0,0,1-.02844-.02584l-.42188-.40854-.0256-.02662-.39719-.44047a.27469.27469,0,0,1-.023-.02657l-.37442-.46972-.02274-.03069-.33967-.49325-.01488-.02276-.31418-.50606-.018-.03118-.28049-.52395-.0122-.02413-.25876-.54325-.01566-.03582-.21957-.55912a.28923.28923,0,0,1-.01184-.0337l-.181-.5611-.00988-.03482-.14362-.57094a.287.287,0,0,1-.00769-.03522l-.1062-.57815-.00353-.02083-.08157-.56606a.35525.35525,0,0,1-.00429-.038l-.04281-.56644c-.00131-.00946-.00124-.01955-.00177-.02946l-.01227-.57056a.33674.33674,0,0,1,.001-.04959l.03758-.5808.00159-.01616.05415-.5656a.35044.35044,0,0,1,.006-.0466l.10221-.57.008-.03335.13614-.55647.00884-.033.17187-.55493.00774-.02318.19173-.53522.01446-.038.2343-.53018.01371-.029.26168-.51065.01618-.03048.2936-.495a.20268.20268,0,0,1,.01761-.028l.31839-.47393.02274-.03081.35464-.45676.02135-.026.38789-.44115.02066-.023.41244-.42085.02864-.02658.4523-.40161.01966-.01724.46258-.37359c.00966-.00817.0197-.0157.02979-.02309l.49908-.35a.30771.30771,0,0,1,.03065-.02011l.51381-.31276.02287-.0132.52762-.28852a.30094.30094,0,0,1,.03274-.01648l.54886-.255c.01081-.00468.02234-.00961.03361-.01351l.56118-.21748.02672-.00954.56823-.18759.03474-.01.57524-.14938.03354-.00759.57048-.112.03131-.00457.5718-.07881.03586-.0039.5734-.04094c.01087-.00038.02195-.00158.03306-.00124l.57778-.00726c.00926-.00015.01832-.00036.02724.00038l.58625.02092c.01586.00107.03171.00213.04722.00409l.56552.06841.02954.00407.565.09848.0276.00519.568.12861c.01172.00259.02343.00517.03468.00873l.54817.16138c.01444.00431.02855.00985.04323.01488l.53037.20371.02467.01035.525.23138.02573.01217.51665.26064c.01191.00595.02413.0124.03569.01924l.4924.29335.0235.01431.476.31632.03322.02394.45512.353.02335.01855.44155.38108a.41285.41285,0,0,1,.03266.03017l.41148.41541.01714.018.3967.43659c.00957.01059.01829.02149.02759.03309l.36805.4734.01.01277.3563.48694c.01005.0129.01835.02578.0271.03943l.30895.50752.0135.02338.2858.52262c.00745.01441.01483.02868.02053.043l.24212.54957.00577.01451.22587.55531c.005.01321.01019.02634.01456.03992l.18156.565.00738.02449.15364.56341.01017.044.10674.57005.00473.02862.07738.56933c.00181.01333.003.027.00376.0401l.03629.57106c.00028.00919.00036.01833.00027.02687l.0086.5744c.00014.01343-.00038.02724-.00089.041l-.03392.577-.00208.0258-.05981.5732-.0035.029-.08869.5613c-.00233.01486-.00554.02849-.00891.04307l-.13255.557-.01135.04033-.176.55075-.00692.02011-.19592.54266-.01219.02989-.224.52339-.01979.04191-.275.51817-.01185.02209-.29135.49556a.30947.30947,0,0,1-.0211.03245l-.3255.47632-.01781.02465-.35248.459c-.00758.01026-.01554.01988-.02415.02987l-.383.43521-.02047.02186-.41712.42443c-.00768.00859-.01669.01639-.02467.02446l-.44566.4002c-.00871.00832-.01809.01546-.02645.02289l-.47047.37312-.02743.02-.4949.34671-.02284.01474-.509.32107Zm-1.06421-.71077.50141-.264.47858-.30177.47055-.32918.4438-.35183.41972-.37761.39326-.40128.361-.40882.33078-.43208.30659-.44756.2757-.46869.25752-.48695.20862-.48677.18689-.51719.16627-.52052.123-.51509.0831-.52568.05711-.54549.03129-.54339-.00743-.54027-.03352-.53716-.07254-.53575-.10061-.53306-.1443-.52984-.17085-.53321-.21551-.52838-.22834-.52029-.2674-.48925-.28992-.47607-.33822-.461-.34954-.45032-.37447-.41131-.38745-.39119-.41417-.35705-.427-.33108-.44843-.2976-.46388-.27605-.48551-.24485-.49946-.22068-.49649-.19036-.50875-.15037-.5366-.12061-.53787-.09372-.52756-.06417-.54908-.01953-.54669.00681-.5384.03857-.53835.074-.53745.10471-.5412.14081-.53758.1777-.53043.20474-.515.239-.5.27342-.48691.29635-.46823.32871-.43682.3537-.42839.38-.38813.39574-.36605.41779-.33289.42811-.2992.44415-.27622.46657-.24573.481-.2189.49686-.18081.50432-.16351.52829-.12769.52284-.09568.52878-.05092.5343-.03634.54786.01225.53091.04016.53245.07773.53605.10057.5492.13547.53493.16966.527.20583.5248.24415.51375.26634.49644.29683.479.32135.46572.352.44129.373.413.39441.38284.4224.35662.42687.33794.44066.30037.454.27657.4994.24549.48291.22262.50667.18188.51649.15179.53542.11887.53215.097.53718.05862.542.02619.54076-.00355.53453-.03807.53753-.071.54195-.11163.53972-.13737.54195-.17762.52152-.20549Zm-1.05867-2.96616-.01844.01065-.3264.17147c-.01208.007-.02491.01265-.03754.01838l-.34293.14881a.20629.20629,0,0,1-.03011.01236l-.34925.12889c-.01532.00555-.03188.01078-.0473.01467l-.362.09813-.02815.00707-.37057.08024c-.01658.00368-.03313.00561-.05033.00792l-.36884.04546a.30713.30713,0,0,1-.03231.00254l-.37756.02435a.39587.39587,0,0,1-.0518.00115l-.3687-.01039a.2677.2677,0,0,1-.03163-.002l-.37961-.032a.35608.35608,0,0,1-.03832-.0049l-.37131-.05721a.441.441,0,0,1-.05185-.01059l-.37018-.09337-.025-.0067-.36965-.11135a.34153.34153,0,0,1-.03978-.0134l-.36073-.13849c-.01453-.006-.02894-.012-.0435-.01957l-.34636-.16792c-.01053-.005-.02134-.01054-.03158-.01658L120.054,73.988l-.0294-.01853-.3213-.20941c-.01194-.00748-.02361-.016-.03527-.02449l-.30364-.23312c-.01115-.0088-.02216-.01768-.03291-.02759l-.28852-.25794-.02089-.02-.27558-.27391c-.01356-.01329-.026-.02727-.0383-.04145l-.24846-.30134-.02065-.02705-.22894-.31434-.02113-.03093-.20534-.32624a.44256.44256,0,0,1-.02235-.03871l-.17881-.33913-.01584-.03312-.15881-.35726-.01348-.032-.13637-.36519c-.00638-.01676-.01126-.03421-.01626-.05158l-.10148-.37945-.00719-.03136-.07807-.377c-.00311-.01258-.00492-.02592-.00724-.03895l-.05157-.38211c-.00191-.015-.00279-.02974-.004-.045l-.02-.38178-.0007-.03511.003-.3831.00191-.03748.02837-.38166c.00109-.01432.00278-.0288.005-.04271l.05835-.38373c.002-.01551.00535-.03184.00891-.04758l.09055-.37358a.18485.18485,0,0,1,.00577-.02359l.1046-.36662.01341-.03978.13212-.357a.49085.49085,0,0,1,.01858-.04554l.16313-.34446c.00422-.01006.00961-.01993.01487-.02972l.17661-.32263a.5271.5271,0,0,1,.02782-.04568l.21089-.31124.01544-.02156.223-.298c.01059-.01373.02184-.02785.03332-.04036l.25485-.28068.02313-.02444.26526-.25967.02453-.02351.28422-.246a.48719.48719,0,0,1,.04609-.036l.305-.2142.02615-.0177.3132-.19433.03053-.01763.32736-.17549.0297-.01455.33373-.15457a.45044.45044,0,0,1,.05224-.02081l.35959-.12568.03277-.01044.35983-.10036.03765-.00979.36256-.07491c.01593-.00331.03211-.0059.04879-.00791l.36751-.043.02587-.00229.37381-.02633a.4144.4144,0,0,1,.04384-.00176l.37741.00208c.01643.00056.03293.00125.04981.00259l.37221.03538c.01354.00154.02648.00325.03973.00582l.3776.06362a.231.231,0,0,1,.03119.00572l.37847.08582.04507.01208.36189.11409c.01283.00454.02509.00837.03728.01329l.35931.14173.02213.00923.35871.15991a.531.531,0,0,1,.05283.027l.32983.19028.03569.02252.31312.21414.03233.02359.30007.23864.01974.01649.29124.254c.01169.01.02356.0219.035.033l.27151.28128.02249.02425.25517.29677c.01125.01378.02262.02748.03294.04265l.225.31921c.00715.00938.01262.01887.01869.02818l.20173.32572.01725.02988.18234.33952.01507.03027.16281.35252c.008.01653.01416.03323.02046.04985l.13018.37067.00979.03315.10579.37193a.441.441,0,0,1,.01017.044l.07573.38167.00451.027.05558.37737.00417.03812.02888.37823c.00117.0137.00167.02779.00193.04115l.00055.38194a.54253.54253,0,0,1-.00228.06056l-.04048.39126-.00391.02685-.058.38022-.00638.03572-.08139.37175c-.00335.01459-.00714.02872-.01153.043l-.11371.37275a.42161.42161,0,0,1-.015.04155l-.13775.35181-.01141.027-.15471.34134a.373.373,0,0,1-.02182.0429l-.185.33c-.00748.01194-.01459.02453-.02244.03582l-.20857.31406-.01808.02568-.22146.29622-.03031.0369-.24647.276-.0232.02431-.266.26441c-.01185.01187-.02453.02352-.03765.03438l-.29224.24234-.02366.01781-.29644.22035c-.01206.00852-.02339.01679-.036.02407l-.31429.19843Zm-.85035-.82246.28785-.15182.27853-.17518.267-.19814.2611-.21587.23491-.23453.21917-.24588.19787-.26388.18773-.28264.16329-.29138.13934-.30527.12426-.31786.10116-.33.0727-.33279.05356-.34823.0359-.34791-.00129-.33164-.02616-.33841-.05054-.34373-.06766-.34579-.09442-.33364-.11535-.32849-.14512-.31285-.16581-.3094-.18429-.297-.19943-.28392-.22643-.26348-.24455-.252-.26349-.22927-.27391-.21823-.27962-.19121-.28448-.16484-.32056-.14212-.32978-.1302-.3208-.10144-.34065-.07733-.34173-.05731-.3277-.03147-.33089-.00191-.33983.02369-.33017.03924-.31947.06615-.32471.091-.3169.11021-.29328.13642-.298.15922-.28375.17663-.26868.188-.24948.21679-.24073.23615-.22591.2489-.19958.26662-.18875.27819-.15557.28433-.14495.30694-.11605.31469-.096.33465-.08168.33884-.05122.33909-.02569.34219-.00312.34769.01824.34211.04639.33955.07031.34167.09054.33831.12082.32359.14451.325.15994.30344.18356.29152.20814.28582.2202.26709.24554.24379.26224.23432.26929.20722.28892.18843.30343.17245.30827.15024.318.12156.33783.10183.33257.08374.327.05059.34423.02955.32683.00928.33491-.02172.32709-.04006.33173-.07132.32381-.088.31048-.11413Z"/><path class="cls-3" d="M102.398,145.20033a.56271.56271,0,0,1-.76839-.20589L98.66691,139.863a.5625.5625,0,0,1,.97428-.5625l2.96265,5.13146A.56261.56261,0,0,1,102.398,145.20033Z"/><path class="cls-3" d="M103.33337,141.71543l-.01273.00735a.5629.5629,0,0,1-.763-.226L100.94625,138.53a.56232.56232,0,1,1,.98827-.5368l1.61136,2.96679A.562.562,0,0,1,103.33337,141.71543Z"/><path class="cls-3" d="M162.05094,110.75966a.56271.56271,0,0,1-.76839-.20589l-2.96265-5.13146a.5625.5625,0,0,1,.97428-.5625l2.96265,5.13146A.56223.56223,0,0,1,162.05094,110.75966Z"/><path class="cls-3" d="M135.71953,125.01311l-7.80942,4.50878a9.04636,9.04636,0,0,1-7.63409.66856l-2.53318-.92319a.56255.56255,0,1,1,.385-1.05716l2.53326.92332a7.92346,7.92346,0,0,0,6.68646-.58581l7.80942-4.50878a7.92286,7.92286,0,0,0,3.85019-5.49838l.4679-2.65518a.56261.56261,0,1,1,1.10818.195l-.46773,2.65577A9.04748,9.04748,0,0,1,135.71953,125.01311Z"/><path class="cls-4" d="M82.58625,149.14716l2.7645,4.78825a2.97653,2.97653,0,1,1-5.1555,2.97653l-2.7645-4.78826Z"/><path class="cls-4" d="M180.53177,92.59828l2.7645,4.78826a2.9766,2.9766,0,1,1-5.15562,2.97659l-2.7645-4.78825Z"/><path class="cls-3" d="M185.60192,90.32055,72.92362,155.37539a.5625.5625,0,1,1-.5625-.97427l112.6783-65.05485a.5625.5625,0,1,1,.5625.97428Z"/><path class="cls-5" d="M182.58176,102.10217a3.73405,3.73405,0,0,1-4.43368-.528.74943.74943,0,0,1-.26775.26284l-15.73564,9.085a3.30326,3.30326,0,0,1-4.50254-1.19954l-1.37723-2.24772-15.36008,8.86815a2.88887,2.88887,0,0,1,.17588,1.20251l-.24646,3.51512a10.09237,10.09237,0,0,1-5.02618,8.0464l-4.39751,2.53891a10.09334,10.09334,0,0,1-9.48148.32959l-3.164-1.54277a2.90823,2.90823,0,0,1-.95619-.75529l-5.64015,3.25789a2.45339,2.45339,0,0,1-1.22537,2.17989l-7.8849,4.55235.64867,1.19524a3.30519,3.30519,0,0,1-1.21541,4.49994l-15.73434,9.08423a.74968.74968,0,0,1-.3615.10046,3.727,3.727,0,0,1-6.85013,2.73954l-2.3895-4.13874L73.01867,155.537a.7502.7502,0,0,1-.80055-.03178l-4.36677-3.01067a.74975.74975,0,0,1-.61869-.37441L27.47681,83.261a.74948.74948,0,0,1-.075-.569l.77836-2.90284a.75059.75059,0,0,1,.34934-.45544l6.6234-3.824-.7947-1.37646a.52618.52618,0,0,0-.71774-.19287L31.064,75.42792a.75.75,0,0,1-1.02452-.27452l-1.4883-2.57781a2.02636,2.02636,0,0,1,.74-2.76566l16.20369-9.3552a2.027,2.027,0,0,1,2.76028.73215l3.05841,4.99252,13.09248-7.559-2.79262-5.146a2.0266,2.0266,0,0,1,.74556-2.75625l37.89086-21.8763a2.028,2.028,0,0,1,2.76223.731l3.05958,4.99184L119.161,27.00765l-2.79327-5.14559a2.02792,2.02792,0,0,1,.74739-2.7573l16.2025-9.35452a2.02715,2.02715,0,0,1,2.76641.74125l1.4883,2.57781a.75.75,0,0,1-.27452,1.02452L134.72,15.58212a.52619.52619,0,0,0-.19184.718l.7947,1.37646,6.62327-3.82395a.75068.75068,0,0,1,.56922-.07489l2.90311.77734a.74946.74946,0,0,1,.4553.34941l39.75585,68.85915a.7491.7491,0,0,1,.01557.72263l.42549,5.2853a.75113.75113,0,0,1-.3725.70991l-4.14185,2.3913,2.3895,4.13874A3.73093,3.73093,0,0,1,182.58176,102.10217Zm-8.41408-6.69561.83347-.4812a.75.75,0,0,1,1.02452.27452l2.7645,4.78825a2.2266,2.2266,0,1,0,3.85658-2.22659l-2.7645-4.78826a.75.75,0,0,1,.27452-1.02452l4.38035-2.529-.41492-5.15716a.7693.7693,0,0,1-.00113-.11176L144.73,15.92341l-2.30275-.61647-7.00389,4.0437a.75047.75047,0,0,1-1.02452-.27452l-1.1697-2.026a2.02828,2.02828,0,0,1,.74088-2.76706l1.92829-1.1133-1.1133-1.92829a.52613.52613,0,0,0-.71737-.19222l-16.2025,9.35452a.52639.52639,0,0,0-.19288.71775l.00939.01744,3.14617,5.79524a.75029.75029,0,0,1-.28442,1.00737l-14.35411,8.28735a.75028.75028,0,0,1-1.01462-.25737l-3.44625-5.622-.0099-.01715a.52693.52693,0,0,0-.71867-.19147L63.10894,52.01727a.525.525,0,0,0-.191.7167l.00938.01744L66.07279,58.547a.74912.74912,0,0,1-.28377,1.007l-14.35853,8.2899a.75029.75029,0,0,1-1.01462-.25737l-3.44378-5.6234-.01055-.01677a.52547.52547,0,0,0-.71671-.1926L30.04114,71.109a.52533.52533,0,0,0-.19091.71662l1.1133,1.92829,1.927-1.11255a2.02778,2.02778,0,0,1,2.76678.74191l1.1697,2.026a.75008.75008,0,0,1-.27452,1.02452l-7.00389,4.0437-.6175,2.30247,39.39113,68.22743a.81547.81547,0,0,1,.09584.0562l4.261,2.93752,4.37672-2.5269a.75009.75009,0,0,1,1.02452.27452l2.7645,4.78826a2.22653,2.22653,0,1,0,3.85646-2.22653l-2.7645-4.78825a.75008.75008,0,0,1,.27452-1.02452l.83346-.4812a.75046.75046,0,0,1,1.02452.27452l2.58765,4.48194,15.08482-8.70923a1.80367,1.80367,0,0,0,.6609-2.46038l-.0099-.01715-1.00071-1.84607a.74977.74977,0,0,1,.28472-1.00685l8.51663-4.91708a.95277.95277,0,0,0,.4413-1.07854.74968.74968,0,0,1,.34773-.84942l6.57817-3.79947a.75022.75022,0,0,1,.6313-.055l.18822.068a.75662.75662,0,0,1,.38774.32l.08057.13535a1.38262,1.38262,0,0,0,.57746.5283l3.16059,1.5413a8.59426,8.59426,0,0,0,8.07415-.27987l4.39751-2.53891a8.59552,8.59552,0,0,0,4.28009-6.85285l.246-3.51139a1.38818,1.38818,0,0,0-.17006-.76195l-.07743-.14132a.75507.75507,0,0,1-.08135-.491l.03508-.19692a.751.751,0,0,1,.36391-.51962l16.49362-9.5226a.74976.74976,0,0,1,1.01434.2584l1.76362,2.87888.01018.01613a1.80207,1.80207,0,0,0,2.4586.65933l15.08612-8.71-2.58765-4.48194A.75048.75048,0,0,1,174.16768,95.40656Z"/><path class="cls-6" d="M13.34711,158.36306a1.5,1.5,0,0,1-.00976-3h.00976a1.5,1.5,0,1,1,0,3Zm6.01026-.00976a1.5,1.5,0,0,1-.01026-3h.01026a1.5,1.5,0,1,1,0,3Zm6.00976-.00977a1.5,1.5,0,0,1-.00976-3h.00976a1.5,1.5,0,1,1,0,3Zm6.01026-.00976a1.5,1.5,0,0,1-.01026-3h.01026a1.5,1.5,0,0,1,0,3Zm6.00976-.00879a1.5,1.5,0,0,1-.00976-3h.00976a1.5,1.5,0,0,1,0,3Zm6.01025-.00977a1.5,1.5,0,1,1-.01025-3h.01025a1.5,1.5,0,1,1,0,3Zm6.00977-.00976a1.5,1.5,0,0,1-.00977-3h.00977a1.5,1.5,0,1,1,0,3Zm6.01025-.00977a1.5,1.5,0,0,1-.01025-3h.01025a1.5,1.5,0,0,1,0,3Zm6.00977-.00976a1.5,1.5,0,0,1-.00977-3h.00977a1.5,1.5,0,0,1,0,3Zm6.01025-.00977a1.5,1.5,0,0,1-.01025-3h.01025a1.5,1.5,0,1,1,0,3Zm6.00977-.00977a1.5,1.5,0,0,1-.00977-3h.00977a1.5,1.5,0,1,1,0,3Zm6.01025-.00878a1.5,1.5,0,1,1-.01025-3h.01025a1.5,1.5,0,0,1,0,3Zm6.00977-.00977a1.5,1.5,0,0,1-.00977-3h.00977a1.5,1.5,0,0,1,0,3Zm6.01025-.00977a1.5,1.5,0,0,1-.01025-3h.01025a1.5,1.5,0,0,1,0,3Zm6.00977-.00976a1.5,1.5,0,0,1-.00977-3h.00977a1.5,1.5,0,1,1,0,3Zm6.00976-.00977a1.5,1.5,0,0,1-.00976-3h.00976a1.5,1.5,0,0,1,0,3Zm6.01026-.00976a1.5,1.5,0,0,1-.01026-3h.01026a1.5,1.5,0,1,1,0,3Zm6.00976-.00977a1.5,1.5,0,0,1-.00976-3h.00976a1.5,1.5,0,1,1,0,3Zm6.01026-.00879a1.5,1.5,0,1,1-.01026-3h.01026a1.5,1.5,0,0,1,0,3Zm6.00976-.00976a1.5,1.5,0,0,1-.00976-3h.00976a1.5,1.5,0,0,1,0,3Zm6.01026-.00977a1.5,1.5,0,0,1-.01026-3h.01026a1.5,1.5,0,0,1,0,3Zm6.00976-.00976a1.5,1.5,0,0,1-.00976-3h.00976a1.5,1.5,0,0,1,0,3Zm6.01026-.00977a1.5,1.5,0,0,1-.01026-3h.01026a1.5,1.5,0,0,1,0,3Zm6.00976-.00977a1.5,1.5,0,0,1-.00976-3h.00976a1.5,1.5,0,0,1,0,3Zm6.01026-.00976a1.5,1.5,0,1,1-.01026-3h.01026a1.5,1.5,0,1,1,0,3Zm6.00976-.00977a1.5,1.5,0,0,1-.00976-3h.00976a1.5,1.5,0,0,1,0,3Zm6.00977-.00879a1.5,1.5,0,0,1-.00977-3h.00977a1.5,1.5,0,0,1,0,3Zm6.01025-.00976a1.5,1.5,0,1,1-.01025-3h.01025a1.5,1.5,0,0,1,0,3Zm6.00977-.00977a1.5,1.5,0,0,1-.00977-3h.00977a1.5,1.5,0,0,1,0,3Zm6.01025-.00976a1.5,1.5,0,0,1-.01025-3h.01025a1.5,1.5,0,0,1,0,3Zm6.00977-.00977a1.5,1.5,0,0,1-.00977-3h.00977a1.5,1.5,0,0,1,0,3Zm6.01025-.00976a1.5,1.5,0,1,1-.01025-3h.01025a1.5,1.5,0,0,1,0,3Zm6.00977-.00977a1.5,1.5,0,0,1-.00977-3h.00977a1.5,1.5,0,0,1,0,3Zm6.01025-.00879a1.5,1.5,0,0,1-.01025-3h.01025a1.5,1.5,0,0,1,0,3Zm6.00977-.00976a1.5,1.5,0,0,1-.00977-3h.00977a1.5,1.5,0,0,1,0,3Zm6.01025-.00977a1.5,1.5,0,0,1-.01025-3h.01025a1.5,1.5,0,0,1,0,3Z"/><polygon class="cls-6" points="146.304 106.202 144.789 120.642 158.052 114.733 146.304 106.202"/><path class="cls-6" d="M144.59174,120.91287l.03076-.28906,1.54492-14.72852,12.21827,8.873Zm1.84815-14.4043-1.45362,13.86133,12.73242-5.67188Z"/><path class="cls-6" d="M17.37446,179.5701a1.49926,1.49926,0,0,1-.73536-2.80762l.00879-.00488a1.50027,1.50027,0,1,1,.72657,2.8125Zm5.20214-3.00977a1.49926,1.49926,0,0,1-.73535-2.80762l.00879-.00488a1.50028,1.50028,0,1,1,.72656,2.8125Zm5.20215-3.00879a1.49914,1.49914,0,0,1-.76709-2.78906l.0083-.00488a1.50016,1.50016,0,1,1,.75879,2.79394Zm5.20264-3.00977a1.49925,1.49925,0,0,1-.73535-2.80761l.00879-.00489a1.50028,1.50028,0,1,1,.72656,2.8125Zm5.20215-3.00878a1.49926,1.49926,0,0,1-.73535-2.80762l.00879-.00488a1.50027,1.50027,0,1,1,.72656,2.8125Zm5.20215-3.00977a1.49914,1.49914,0,0,1-.76709-2.78906l.0083-.00489a1.50017,1.50017,0,1,1,.75879,2.79395Zm5.20263-3.00879a1.49926,1.49926,0,0,1-.73535-2.80762l.00879-.00488a1.50028,1.50028,0,1,1,.72656,2.8125Zm5.20215-3.00976a1.49926,1.49926,0,0,1-.73535-2.80762l.00879-.00488a1.50027,1.50027,0,1,1,.72656,2.8125Zm5.20215-3.00879a1.49914,1.49914,0,0,1-.76709-2.78907l.0083-.00488a1.50017,1.50017,0,1,1,.75879,2.79395Zm5.20264-3.00977a1.49926,1.49926,0,0,1-.73536-2.80762l.00879-.00488a1.50028,1.50028,0,1,1,.72657,2.8125Zm5.20166-3.00976a1.49848,1.49848,0,0,1-.83838-2.74317l.00879-.00586a1.5,1.5,0,1,1,.82959,2.749ZM74.6,146.46756a1.49926,1.49926,0,0,1-.73535-2.80762l.00879-.00488a1.50027,1.50027,0,1,1,.72656,2.8125Zm5.20215-3.00977a1.49926,1.49926,0,0,1-.73535-2.80762l.00879-.00488a1.50028,1.50028,0,1,1,.72656,2.8125Zm5.20215-3.00879a1.49926,1.49926,0,0,1-.73535-2.80762l.00879-.00488a1.50028,1.50028,0,1,1,.72656,2.8125Zm5.20264-3.00976a1.49926,1.49926,0,0,1-.73536-2.80762l.00879-.00488a1.50027,1.50027,0,1,1,.72657,2.8125Zm5.20214-3.00879a1.49926,1.49926,0,0,1-.73535-2.80762l.00879-.00488a1.50027,1.50027,0,1,1,.72656,2.8125Zm5.20215-3.00977a1.49914,1.49914,0,0,1-.76709-2.78906l.0083-.00488a1.50016,1.50016,0,1,1,.75879,2.79394Zm5.20264-3.00879a1.49926,1.49926,0,0,1-.73535-2.80762l.00879-.00488a1.50028,1.50028,0,1,1,.72656,2.8125Zm5.20215-3.00976a1.49926,1.49926,0,0,1-.73535-2.80762l.00878-.00488a1.50028,1.50028,0,1,1,.72657,2.8125Zm5.20117-3.00977a1.49857,1.49857,0,0,1-.87061-2.7207l.0083-.00586a1.50023,1.50023,0,1,1,.86231,2.72656Zm5.20361-3.00879a1.49926,1.49926,0,0,1-.73535-2.80762l.00879-.00488a1.50028,1.50028,0,1,1,.72656,2.8125Zm5.20166-3.00976a1.49848,1.49848,0,0,1-.83838-2.74317l.00879-.00586a1.5,1.5,0,1,1,.82959,2.749Zm5.20264-3.00879a1.49914,1.49914,0,0,1-.76709-2.78907l.0083-.00488a1.50017,1.50017,0,1,1,.75879,2.79395Zm5.20264-3.00977a1.49926,1.49926,0,0,1-.73536-2.80762l.00879-.00488a1.50028,1.50028,0,1,1,.72657,2.8125Zm5.20214-3.00879a1.49926,1.49926,0,0,1-.73535-2.80761l.00879-.00489a1.50028,1.50028,0,1,1,.72656,2.8125Zm5.20215-3.00976a1.49926,1.49926,0,0,1-.73535-2.80762l.00879-.00488a1.50027,1.50027,0,1,1,.72656,2.8125Zm5.20264-3.00879a1.49926,1.49926,0,0,1-.73535-2.80762l.00879-.00488a1.50027,1.50027,0,1,1,.72656,2.8125Zm5.20215-3.00977a1.49926,1.49926,0,0,1-.73535-2.80762l.00879-.00488a1.50028,1.50028,0,1,1,.72656,2.8125Zm5.20215-3.00879a1.49926,1.49926,0,0,1-.73536-2.80761l.00879-.00489a1.50028,1.50028,0,1,1,.72657,2.8125Zm5.20263-3.00976a1.49926,1.49926,0,0,1-.73535-2.80762l.00879-.00488a1.50027,1.50027,0,1,1,.72656,2.8125Zm5.20215-3.00879a1.49926,1.49926,0,0,1-.73535-2.80762l.00879-.00488a1.50028,1.50028,0,1,1,.72656,2.8125Zm5.20215-3.00977a1.49926,1.49926,0,0,1-.73535-2.80761l.00879-.00489a1.50028,1.50028,0,1,1,.72656,2.8125Zm5.20117-3.00976a1.49857,1.49857,0,0,1-.8706-2.72071l.0083-.00586a1.50023,1.50023,0,1,1,.8623,2.72657Zm5.20362-3.00879a1.49926,1.49926,0,0,1-.73536-2.80762l.00879-.00488a1.50027,1.50027,0,1,1,.72657,2.8125Zm5.20166-3.00977a1.49847,1.49847,0,0,1-.83838-2.74316l.00879-.00586a1.5,1.5,0,1,1,.82959,2.749Zm5.20263-3.00879a1.49914,1.49914,0,0,1-.76709-2.78906l.0083-.00488a1.50017,1.50017,0,1,1,.75879,2.79394Zm5.20264-3.00976a1.49926,1.49926,0,0,1-.73535-2.80762l.00879-.00488a1.50027,1.50027,0,1,1,.72656,2.8125Zm5.20215-3.00879a1.49926,1.49926,0,0,1-.73535-2.80762l.00878-.00488a1.50028,1.50028,0,1,1,.72657,2.8125ZM215.062,65.2156a1.49914,1.49914,0,0,1-.76709-2.78906l.0083-.00488a1.50017,1.50017,0,1,1,.75879,2.79394Z"/><path class="cls-6" d="M156.79682,155.31033a108.44483,108.44483,0,0,0-7.6416-37.27734l3.71777-1.47461a112.43385,112.43385,0,0,1,7.92285,38.64648Z"/><path class="cls-7" d="M171.84272,128.97927c0-3.709,1.11621-7.21972,5.22168-7.21972,3.16894,0,5.22119,2.08887,5.22119,7.21972,0,5.14942-2.03418,7.25684-5.22119,7.25684C173.84125,136.23611,171.84272,134.11111,171.84272,128.97927Zm7.72412-.99023c-.08985-2.75488-.81006-4.15918-2.48438-4.15918-1.69287,0-2.43115,1.42285-2.50293,4.15918Zm-2.50244,6.17578c1.53027,0,2.46631-.93555,2.50244-4.08691h-4.98731C174.61567,133.3367,175.6059,134.16482,177.0644,134.16482Z"/><rect class="cls-8" width="252.06611" height="187.55314"/><path class="cls-1" d="M422.5836,157.12472a2.97709,2.97709,0,0,1-1.09122-4.06565l2.76249-4.78942-.83368-.48085-2.96049,5.13271-15.73946-9.07835a2.54975,2.54975,0,0,1-.93429-3.483l1.61013-2.96746L388.89945,127.877l-.18844.0688-.08144.134a2.14588,2.14588,0,0,1-.8897.81689l-3.16332,1.544a9.35515,9.35515,0,0,1-8.778-.30107L371.4,127.60257a9.35512,9.35512,0,0,1-4.656-7.44751l-.24749-3.51129a2.13866,2.13866,0,0,1,.26225-1.17881l.07649-.13683-.03492-.19763-6.58112-3.79436a1.70215,1.70215,0,0,1-2.06406.28153l-8.5187-4.91349-1.09734,1.78962a2.55039,2.55039,0,0,1-3.48533.93382L329.31558,100.35l2.96049-5.13271-.83367-.48085-2.76248,4.78942a2.97653,2.97653,0,1,1-5.15675-2.97435l2.76249-4.78942-4.78825-2.76181.44852-5.63126-.11031-.06363,39.72684-68.87589,2.90265-.77864,7.2747,4.196,1.16884-2.02647a1.27588,1.27588,0,0,0-.46709-1.74234l-2.57714-1.48646,1.48722-2.57844a1.27347,1.27347,0,0,1,1.74038-.46822l16.20762,9.34837a1.2745,1.2745,0,0,1,.46682,1.74132l-3.145,5.7958,14.362,8.28385,3.44388-5.62343a1.27449,1.27449,0,0,1,1.74053-.46814L444.06793,50.483a1.276,1.276,0,0,1,.46877,1.74244l-3.14321,5.79685,14.3576,8.2813,3.44388-5.62343a1.27589,1.27589,0,0,1,1.74235-.46709l16.20644,9.3477a1.27475,1.27475,0,0,1,.46747,1.74169L476.124,73.88092l-2.57844-1.48722a1.27589,1.27589,0,0,0-1.74207.46812l-1.16884,2.02647,7.27456,4.19589.77958,2.90251L438.962,150.86258l-.11031-.06362-4.64739,3.2094-4.79254-2.76428-2.76248,4.78941A2.97708,2.97708,0,0,1,422.5836,157.12472Z"/><path class="cls-2" d="M366.80029,115.1305l.03492.19763-.07649.13683a2.13866,2.13866,0,0,0-.26225,1.17881l.24749,3.51129a9.35512,9.35512,0,0,0,4.656,7.44751l4.39858,2.53706a9.35515,9.35515,0,0,0,8.778.30107l3.16332-1.544a2.14588,2.14588,0,0,0,.8897-.81689l.08144-.134.18844-.0688Z"/><path class="cls-1" d="M388.89945,127.877l-2.534.92359a8.50721,8.50721,0,0,1-7.1604-.62367l-7.81133-4.50548a8.50874,8.50874,0,0,1-4.12591-5.88616l-.46755-2.65482Z"/><path class="cls-3" d="M438.68093,151.34984,321.55457,83.79267a.5625.5625,0,0,1,.56209-.97452L439.243,150.37532a.5625.5625,0,0,1-.56209.97452Z"/><path class="cls-3" d="M452.2772,127.77748,335.15084,60.22031a.5625.5625,0,0,1,.56209-.97452L452.83929,126.803a.5625.5625,0,0,1-.56209.97452Z"/><path class="cls-3" d="M472.67161,92.41894,355.54525,24.86177a.5625.5625,0,1,1,.56209-.97451L473.2337,91.44443a.5625.5625,0,0,1-.56209.97451Z"/><path class="cls-3" d="M478.40777,82.474,361.28141,14.91678a.5625.5625,0,0,1,.56209-.97452L478.96986,81.49943a.5625.5625,0,0,1-.56209.97452Z"/><path class="cls-3" d="M477.62818,79.57144,364.18407,14.13814a.5625.5625,0,0,1,.56209-.97451L478.19027,78.59692a.5625.5625,0,1,1-.56209.97452Z"/><path class="cls-3" d="M442.22464,56.234l-12.413-7.15966a.375.375,0,1,1,.37472-.64968l12.413,7.15967a.375.375,0,1,1-.37472.64967Z"/><path class="cls-3" d="M414.52709,40.25833l-12.41182-7.159a.375.375,0,0,1,.37473-.64968l12.41182,7.159a.375.375,0,0,1-.37473.64968Z"/><path class="cls-3" d="M433.05421,49.47164a.37476.37476,0,0,1-.13748-.5122L434.404,46.381l.00914-.01585.08993-.14.01871-.02644.10161-.13083a.31845.31845,0,0,1,.024-.02841l.11105-.11777.02613-.02458.12-.10413a.43274.43274,0,0,1,.03678-.02866l.1283-.08583.02617-.01624.12793-.0708a.39422.39422,0,0,1,.04992-.02351l.133-.0502a.32562.32562,0,0,1,.04445-.014l.13049-.0314a.42353.42353,0,0,1,.05533-.00947l.12792-.01073a.412.412,0,0,1,.06213-.00053l.12374.00973a.35832.35832,0,0,1,.065.01033l.11759.03059a.3581.3581,0,0,1,.06456.02287l.10709.04913a.37509.37509,0,0,1-.315.68085l-.076-.03538-.05223-.01333-.0619-.00436-.06909.0057-.08066.01945-.08567.03266-.0899.05049-.096.06376-.08729.07658-.086.09064-.08.10362-.07631.1191-1.48242,2.57012A.37523.37523,0,0,1,433.05421,49.47164Z"/><path class="cls-3" d="M426.49666,50.07935a.56271.56271,0,0,1-.20621-.7683L429.584,43.6009l.01639-.02691.09123-.13924c.00867-.01353.01806-.02682.028-.03959l.10226-.13046c.01086-.01313.02223-.02684.03447-.03934l.11067-.11713c.01253-.013.0252-.026.03866-.03761l.12-.10413a.56231.56231,0,0,1,.0497-.039l.12622-.087a.46072.46072,0,0,1,.05215-.03157l.13013-.0704a.622.622,0,0,1,.06453-.02962l.13254-.05117a.59529.59529,0,0,1,.06925-.02188l.13055-.03119a.55755.55755,0,0,1,.08307-.01373l.12829-.01138a.57324.57324,0,0,1,.09272-.00072l.12374.00973a.58508.58508,0,0,1,.0952.01508l.11707.0303a.54788.54788,0,0,1,.09826.03468l.10709.04912a.5626.5626,0,0,1-.47247,1.02119l-.07837-.03256-.0709.00136-.05335.01321-.06483.02443-.07052.0388-.07457.05154-.0758.06537-.07425.07891-.07167.09061-.069.1065-3.28546,5.6961A.5627.5627,0,0,1,426.49666,50.07935Z"/><path class="cls-3" d="M389.5791,20.95944,371.16428,10.338a.375.375,0,0,1,.37472-.64968l18.41483,10.62147a.375.375,0,0,1-.37473.64968Z"/><path class="cls-3" d="M444.34934,52.5503,404.24,29.41566a.375.375,0,0,1,.37473-.64967l40.10936,23.13463a.375.375,0,1,1-.37472.64968Z"/><path class="cls-3" d="M477.42387,71.62732,459.00761,61.005a.375.375,0,1,1,.37472-.64967l18.41626,10.62229a.375.375,0,1,1-.37472.64968Z"/><path class="cls-3" d="M412.5595,37.65052a.37476.37476,0,0,1-.13748-.5122l1.54663-2.69465.04825-.12178.03609-.11962.02208-.119.00988-.10929-.00457-.105-.01357-.09233-.02331-.077-.02994-.06368-.03529-.0517-.03587-.03748-.06805-.04774a.37506.37506,0,1,1,.431-.61393l.09665.06839a.4106.4106,0,0,1,.05472.04593l.08253.0857a.33965.33965,0,0,1,.03994.04935l.07037.10224a.36679.36679,0,0,1,.03065.054l.05477.1161a.39387.39387,0,0,1,.01888.05072l.03889.12892a.41477.41477,0,0,1,.01217.05516l.02.13849a.29283.29283,0,0,1,.0036.03758l.00655.14836a.28529.28529,0,0,1-.00131.04912l-.01293.1515-.00508.03673-.02928.15644a.32348.32348,0,0,1-.0088.03718l-.04634.15509a.29739.29739,0,0,1-.01115.03254l-.06172.15384a.27687.27687,0,0,1-.01494.0319l-.0755.14832-.00914.01585-1.48722,2.57844A.37475.37475,0,0,1,412.5595,37.65052Z"/><path class="cls-3" d="M415.31507,43.62993a.5627.5627,0,0,1-.20621-.7683l3.28875-5.70183.05919-.11131.0408-.10167.02924-.10053.01868-.10265.00857-.08961-.01379-.14752-.0348-.09367-.02995-.03753-.053-.0373a.56257.56257,0,0,1,.64684-.92061l.09614.0681a.53945.53945,0,0,1,.07923.06769l.08484.08616a.709.709,0,0,1,.0623.07663l.06936.10252a.53181.53181,0,0,1,.04395.07781l.0544.11675a.551.551,0,0,1,.02848.07219l.03981.13032a.63191.63191,0,0,1,.01851.08081l.02083.13981a.57938.57938,0,0,1,.0059.06l.00667.14845a.60829.60829,0,0,1-.00194.07662l-.0146.15141c-.00163.016-.00318.03194-.00611.04722l-.02876.15675a.542.542,0,0,1-.01376.06046l-.046.15444c-.00522.01656-.01086.03356-.01731.04924l-.06172.15384a.53661.53661,0,0,1-.02557.05452l-.078.147-.00917.0174-3.29355,5.71014A.56269.56269,0,0,1,415.31507,43.62993Z"/><path class="cls-3" d="M413.26456,42.44722a.56271.56271,0,0,1-.20621-.7683l1.16885-2.02647a.71511.71511,0,0,0-.26284-.97517l-10.81413-6.23747-.13385.22306-.072.12487a.5625.5625,0,0,1-.97452-.56209l.223-.37768.0098-.01548.06663-.10113.00867-.01353.06213-.0885c.00714-.00938.01321-.0187.021-.02771l.05893-.07424a.517.517,0,0,1,.03869-.04366l.05552-.05663a.57876.57876,0,0,1,.05542-.04925l.05165-.04121a.57655.57655,0,0,1,.0969-.06082l.04934-.024a.57564.57564,0,0,1,.20184-.05692l.04684-.00346a.54336.54336,0,0,1,.22482.02664l.04468.01469a.539.539,0,0,1,.10356.04622l11.13715,6.42379a1.84127,1.84127,0,0,1,.67526,2.51177L414.03286,42.241A.5627.5627,0,0,1,413.26456,42.44722Z"/><path class="cls-3" d="M428.54913,51.26319a.5626.5626,0,0,1-.20621-.7683l1.16884-2.02648a1.83983,1.83983,0,0,1,2.51036-.67434l11.1378,6.42416a.519.519,0,0,1,.094.06858l.03429.03a.56351.56351,0,0,1,.13715.18733l.01886.042a.56846.56846,0,0,1,.04717.17613l.00587.05585a.60975.60975,0,0,1-.00266.13371l-.0098.06534a.47271.47271,0,0,1-.01488.07263l-.02122.07642a.554.554,0,0,1-.01842.05535l-.03476.08818-.0112.02662L443.34,55.395l-.01264.02492-.12114.23195-.00707.01376-.07033.12342a.56188.56188,0,0,1-.766.21253.56991.56991,0,0,1-.21288-.767l.12553-.22786L431.46,48.76859a.71364.71364,0,0,0-.97375.26191L429.31743,51.057A.56271.56271,0,0,1,428.54913,51.26319Z"/><path class="cls-3" d="M377.33849,76.29622a.56765.56765,0,0,1-.1494-.125l-.3566-.4256-.02014-.02512-.33605-.44925-.02094-.02974-.30957-.47622-.01652-.0272-.28682-.49946-.01447-.02774-.26011-.51783-.01494-.03147-.2276-.53457-.01223-.03165-.19464-.54517-.01067-.034-.15672-.54789-.00793-.03159-.12273-.551-.006-.03066-.09132-.5481-.00486-.0357-.05387-.53255-.00227-.03421-.02064-.51841c-.00048-.01205-.00051-.024-.00011-.03643l.013-.51338.00188-.03268.04132-.48354a.32941.32941,0,0,1,.00452-.03877l.08942-.58013.0048-.02424.12146-.60805.00754-.032.16419-.6248.00673-.02486.20191-.64459a.46162.46162,0,0,1,.02569-.068l.288-.62278.00834-.01718.31924-.63424.01037-.01947.349-.63146L383.81229,51.023a.56272.56272,0,0,1,.76518-.208l3.88922,2.20516a.57541.57541,0,0,1,.26544.34168.56169.56169,0,0,1-.05611.42842l-2.72149,4.71834,3.84349,2.21688a.56224.56224,0,0,1,.20621.76831l-2.233,3.87142a.56261.56261,0,0,1-.76831.20621l-3.84349-2.21688-1.22153,2.11782L381.084,66.988l-.12129.24121-.11131.24853-.10647.26085-.18593.5319-.06924.26535-.05529.26578-.03218.25365-.00993.28259.00743.30957.03109.31716.05655.33877.081.35353.11774.37649.14288.39445.19273.42061.23562.45642.29905.50047.37139.56088a.56169.56169,0,0,1-.19552.80222l-3.83914,2.13236A.56215.56215,0,0,1,377.33849,76.29622Zm.36592-1.26186.04775.058,2.90224-1.61161-.04306-.06466-.014-.02248-.31457-.52639-.01722-.03019-.24945-.48379-.01227-.02405-.20726-.45427a.45269.45269,0,0,1-.01711-.04208l-.15509-.42764-.0081-.02407-.12807-.40963c-.00411-.01328-.00791-.02742-.01127-.042l-.08987-.39089-.00666-.03258-.06231-.37413c-.00257-.01326-.00376-.02589-.005-.0384l-.03475-.35737a.36024.36024,0,0,1-.00251-.04127l-.00854-.34727c-.00026-.01123,0-.022.00041-.03283l.01143-.32485c.00076-.01722.00211-.03428.00442-.05147l.03836-.301a.38665.38665,0,0,1,.00708-.04319l.06232-.30138.00682-.02654.07754-.29866a.34146.34146,0,0,1,.01177-.03962l.2031-.58208.00879-.02125.1145-.28046.00624-.01684.12038-.26875.01154-.02451.13179-.26061.0085-.01623.14217-.26121.72715-1.2826L382.466,62.3052a.56272.56272,0,0,1,.76831-.20622l3.84349,2.21688,1.6709-2.89691-3.84349-2.21688a.56261.56261,0,0,1-.20621-.7683l2.71931-4.71457L384.508,52.06846l-7.2296,12.53422-.33878.61378-.311.61544-.26756.58127-.18682.5965-.15668.59708-.11656.57885-.08448.54816-.03794.44826-.012.47829.01872.48181.05015.49819.08611.51479.116.52.14716.51433.18245.512.21383.50291.24522.48811.27115.47259.291.447Z"/><path class="cls-3" d="M413.766,72.29328l-.02067-.01279-.20423-.12957-.03628-.02508-.19151-.1444c-.01156-.00909-.02382-.01876-.03505-.0287l-.19041-.16975q-.02-.018-.039-.03774l-.16651-.18054a.24049.24049,0,0,1-.02239-.02573l-.16-.19461-.0267-.03566-.1472-.21252c-.00879-.01269-.0172-.026-.02519-.03981l-.12338-.2142a.44052.44052,0,0,1-.02637-.05244l-.09726-.21835c-.005-.01052-.00954-.02161-.01353-.0324l-.08375-.22407c-.00624-.0171-.01146-.03448-.0163-.05251l-.06017-.22831a.36611.36611,0,0,1-.00938-.04108l-.0437-.23646c-.00327-.01626-.00523-.03176-.007-.048l-.02328-.241a.4534.4534,0,0,1-.00255-.05291l-.00073-.24492c-.0005-.01535.00077-.03073.00164-.04547l.01957-.245.00248-.02472.03114-.25182c.0028-.02107.00708-.0432.012-.06494l.05807-.237.01238-.04187.07479-.22664.01058-.02853.08673-.22063a.56121.56121,0,0,1,.026-.05685l.10128-.1918a.3641.3641,0,0,1,.02016-.035l.12776-.20528a.5668.5668,0,0,1,.03514-.05072l.15612-.19741.01835-.02162.16615-.18988a.50757.50757,0,0,1,.04092-.04151l.189-.17516c.00934-.009.01983-.01817.02944-.02613l.202-.16248c.0124-.00982.02509-.0186.0377-.02726l.21063-.14241c.01129-.00786.02285-.0147.03441-.02154l.21884-.12572a.44208.44208,0,0,1,.04665-.02384l.224-.1025.03231-.0134.2257-.08627c.01645-.00661.03281-.01155.04917-.01649l.22953-.06381a.45005.45005,0,0,1,.05194-.01229l.24148-.0434c.01487-.00233.02979-.00481.04492-.00613l.241-.0234a.44909.44909,0,0,1,.05552-.0026l.25988.001c.01124-.00027.02262.00041.034.00109l.25039.01593a.47994.47994,0,0,1,.04795.00481l.24372.0365c.01682.00295.03313.0056.0492.00985l.25008.0606c.01136.00223.02189.00588.03287.00875l.22506.06885a.56095.56095,0,0,1,.05577.0204l.215.092a.4077.4077,0,0,1,.03865.018l.21.10935c.01506.00782.02961.01621.04379.02525l.19539.12448c.01171.00762.02305.01589.03439.02416l.18662.13968c.01473.01109.02878.02335.04276.03574l.17665.16268c.00994.00919.01892.01853.02791.02787l.1737.184.02771.03122.15994.19615c.01138.01418.02226.02894.03212.044l.13851.20838a.39669.39669,0,0,1,.02264.03851l.12156.21886c.00684.01157.01265.0234.01859.03532l.103.22165a.51334.51334,0,0,1,.02091.05171l.08011.22889.012.03653.0632.23178a.49879.49879,0,0,1,.014.06226l.038.23908a.28919.28919,0,0,0,.00406.03109l.02408.24558c.00157.012.00219.02412.00281.03625l.009.25557a.59808.59808,0,0,1-.00233.07727l-.06019.525a.70089.70089,0,0,1-.01437.07206l-.0653.2465c-.00384.01388-.00749.02771-.01237.04186l-.08269.23733c-.0038.00959-.00745.02012-.01189.02933l-.09553.23167c-.00682.01632-.014.03155-.02216.04713l-.11212.2136c-.007.01363-.01472.027-.02309.04l-.11661.183c-.00866.01353-.01793.02689-.0279.03967l-.14312.1881-.023.02813-.15641.1787a.40506.40506,0,0,1-.02865.03075l-.173.17087a.568.568,0,0,1-.05562.04809l-.20187.15336-.01426.0103-.19877.14076a.54339.54339,0,0,1-.05454.03452l-.21787.11954a.40977.40977,0,0,1-.04552.02188l-.22413.09826a.37564.37564,0,0,1-.039.01475l-.22722.0802-.02715.00893-.222.06553a.56293.56293,0,0,1-.05788.01389l-.23154.04238a.55345.55345,0,0,1-.05859.00759l-.24921.01869c-.01317.00089-.0253.00151-.03885.00131l-.24518.00145c-.01476.00066-.02949-.00022-.04409-.001l-.25231-.0186a.47727.47727,0,0,1-.04861-.00518l-.246-.03973a.30847.30847,0,0,1-.04012-.0079l-.24508-.05755c-.01645-.0036-.03163-.0082-.04741-.013l-.2395-.07892c-.015-.00453-.02956-.0103-.04386-.01613l-.2209-.09347-.03987-.01884-.20883-.10868Zm.3983-1.079.16417.10387.16756.08747.179.07518.19469.06415.202.04726.20181.03259.20608.015.20458-.00132.1998-.015.17242-.03233.17949-.053.19463-.06783.18188-.07934.16723-.09211.33081-.2421.13146-.12972.13028-.14963.11788-.15452.09119-.14342.08958-.17.07939-.19352.07083-.20175.05037-.19.04831-.41941-.00753-.1995-.02143-.212-.03026-.19252-.05013-.18268-.06506-.18472-.083-.17893-.10132-.1819-.11016-.16657-.12967-.15947-.14662-.1547-.14121-.13045-.14633-.10986-.15585-.09907-.16834-.08792-.16837-.07166-.18116-.05548-.20978-.05088-.19559-.029-.20953-.0135-.21418-.00094-.19009.01885-.19237.0345-.17865.05-.18531.07061-.18347.08361-.17828.10254-.17383.11793-.16847.13538-.15281.14183-.13767.15644-.12739.16081-.10017.162-.0773.14573-.06961.178-.06321.19-.04472.18321-.0257.20579-.01684.20934.00056.19565.01847.19074.0359.19145.04784.18066.0677.18192.07775.17593.09728.16849.12077.17459.13458.16387.13672.14725.15289.13632Z"/><path class="cls-3" d="M405.17737,91.66176l-3.87389-2.23441a.56261.56261,0,0,1-.20621-.7683l8.988-15.58277a.56222.56222,0,0,1,.7683-.20621l3.87389,2.23441a.56213.56213,0,0,1,.20621.76831l-8.988,15.58276A.56252.56252,0,0,1,405.17737,91.66176Zm-2.82454-2.92788,2.89937,1.67232L413.67807,75.798l-2.89937-1.67233Z"/><path class="cls-3" d="M389.97931,83.42747l-.01868-.01146-.51109-.322-.02271-.01466-.49648-.34732-.02731-.0199-.46945-.37225c-.009-.0078-.0184-.01494-.02711-.02326l-.44221-.39878-.02635-.02455-.4107-.4213-.01824-.01971-.38864-.43732-.0238-.029-.35745-.46228c-.007-.00821-.01325-.01786-.02-.02679l-.32441-.47543-.02034-.032-.29234-.49589-.01485-.02709-.26406-.51249-.01465-.03044-.23352-.52882a.3006.3006,0,0,1-.01522-.03665l-.19423-.53992-.00848-.02342-.1705-.54891-.01009-.038-.13106-.55577-.00653-.03251-.099-.5671c-.00295-.01261-.00364-.02582-.00556-.0387l-.0594-.57281-.00236-.02681-.03157-.57545c-.00052-.01381-.00077-.02659-.00064-.04l.009-.574a.20513.20513,0,0,1,.00091-.02649l.03582-.56948c.00106-.012.00191-.02522.004-.03753l.07535-.572.00608-.03546.11155-.56718.0079-.0344.15-.5663.00825-.029.182-.56467.01217-.03281.21934-.55921.01292-.0296.25036-.54393a.35009.35009,0,0,1,.01783-.03542l.286-.52231.01214-.02105L386.53,68.97a.35151.35151,0,0,1,.02173-.03318l.34727-.49218.01923-.02614.37422-.46988.02261-.02748.39586-.43713.02068-.02115.41538-.41393.02508-.02277.43736-.386c.009-.00833.01879-.01635.028-.02366l.45436-.35093.03321-.024.47733-.31568.02145-.01378.49162-.29394.034-.01934.51494-.26109.02712-.01311.52376-.23227.03424-.014.54041-.19809c.01078-.004.0215-.00786.03243-.01091l.5463-.16265a.33151.33151,0,0,1,.033-.00886l.56264-.13124.03-.00641.56311-.09963.03666-.005.57431-.06355a.25288.25288,0,0,1,.03537-.00246l.57583-.028c.01059-.00065.0214-.00047.03226-.0001l.57454.00515c.01183-.0001.02424.0003.03575.001l.57487.0424c.01253.00048.02484.00255.03753.004l.5763.08132a.23325.23325,0,0,1,.03154.00538l.57524.11378.02977.00695.56994.14519.036.01075.56519.18556.02724.00982.55933.21612.03426.01387.54961.25519a.31066.31066,0,0,1,.0334.01685l.5297.28942.02222.01281.521.31659a.3023.3023,0,0,1,.03131.02048l.49532.34752c.01011.00739.02015.01491.02916.0227l.46468.37452.02032.01761.45247.40141.02865.02657.41094.42058.02256.02392.38177.43752c.00774.0088.0144.01766.02107.02652l.35005.45317.01847.025.32944.47989.02127.03339.28959.49345.01422.02517.266.51362c.00619.01118.01149.02273.01664.03418l.23076.52791c.00489.01044.00888.02123.01282.03181l.19759.53857.00981.02834.16982.55458c.00349.01137.00712.02281.00965.03431l.13275.55433c.00246.01164.00513.02322.0067.03521l.09719.56584.00443.03044.06627.57261.00291.03458.031.57514.00077.0368-.00632.57386c0,.01176-.00115.02392-.00221.036l-.04331.56775-.00267.02807-.07249.57118a.34591.34591,0,0,1-.00668.041l-.11578.5715-.00667.03078-.14909.5677c-.00277.00931-.0051.019-.00889.02864l-.17887.5623-.0122.03435-.22.55884-.01188.02778-.24954.54854-.01723.03405-.28275.52264a.22.22,0,0,1-.01574.02729l-.31156.50775-.02085.032-.34874.48873-.0181.02419-.37284.46895-.02333.02723-.3983.43989-.02136.02231-.416.412-.02471.02212-.43352.38234-.03.02408-.45925.3507-.02472.01795-.46827.31919c-.00989.00693-.01947.01335-.02964.01926l-.49394.29347c-.01054.00656-.02136.0121-.03262.01841l-.51331.261-.02905.01372-.5307.23261c-.01007.00423-.02021.0086-.03054.01182l-.53891.2c-.01072.00386-.02151.00786-.03244.0109l-.5467.16486a.34842.34842,0,0,1-.03957.01007l-.56241.12635-.0249.005-.56682.10008a.2699.2699,0,0,1-.036.00538l-.5722.06408-.03626.00281-.57676.02664-.02921.00081-.57317-.00331c-.01408-.00051-.02751-.00063-.04121-.00178l-.5797-.04605-.027-.00295-.56959-.07226-.03925-.0067-.56845-.11385-.02749-.00668-.57019-.14446c-.01221-.00376-.02487-.00673-.03678-.011l-.57545-.18819-.03151-.01142-.55469-.21846-.03091-.01367-.54794-.2551-.02484-.01277-.53956-.284Zm.08108-1.2781.4813.30307.50776.26741.52046.2427.52356.2064.542.17739.53746.13667.535.10735.53649.0684.54505.043.53755.00321.54448-.025.53622-.06024.53654-.0947.53047-.11932.51061-.15363.50662-.18814.50057-.21847.482-.24633.46331-.27546.44157-.30082.4322-.32994.4065-.3574.394-.39007.37544-.415.353-.44319.3287-.46151.29338-.47771.26616-.49238.23594-.51743.20734-.52821.16978-.53031.14141-.53819.10837-.53525.06768-.53673.04078-.53545.00643-.53743-.02923-.54015-.06231-.53985-.091-.53281-.12424-.51894-.16054-.52205-.18652-.50914-.21663-.49535-.25164-.48419-.2716-.46281-.30966-.45-.32986-.42784-.36022-.41332-.3857-.39407-.42855-.37983-.43957-.355-.46382-.32588-.49405-.3002-.502-.27433-.51641-.23951-.52923-.20378-.53388-.17529-.53619-.13767-.54476-.1078-.5428-.07636-.538-.039-.5405-.00561-.54266.02606-.53907.05947-.53089.09362-.53172.12448-.51243.15258-.50664.1864-.49306.21865-.48462.24637-.46347.27727-.44986.29777L389.34,67.496l-.4111.36238-.39372.3911-.37381.41332-.35288.44339-.32654.46345-.29183.481-.27063.49413-.23593.51172-.20741.528-.17209.53313-.14091.53432-.1049.53223-.0708.53494-.03406.53672-.00823.54054.02977.54221.0564.53989.09273.53125.12311.52088.16039.5178.18395.5094.21855.49472.24944.4838.27482.46622.30484.44631.3351.43346.36731.41394.38885.39762.416.37518.44276.351Zm2.04024-2.39972-.01832-.01057-.31632-.19942c-.0126-.00726-.02459-.01591-.03665-.02443l-.29329-.21834a.19846.19846,0,0,1-.02459-.01921l-.287-.23826c-.01313-.01086-.02516-.02213-.03767-.03437l-.26414-.26318-.02164-.02252-.24945-.27843a.40894.40894,0,0,1-.02925-.03453l-.22783-.29973a.34623.34623,0,0,1-.02224-.03049l-.206-.3126a.37227.37227,0,0,1-.02189-.03531l-.18445-.32959c-.0083-.015-.01625-.03067-.023-.04545l-.151-.339-.00819-.01823-.143-.35467a.40849.40849,0,0,1-.01624-.0466l-.11386-.37269c-.00467-.01533-.009-.03131-.01208-.04662l-.07894-.37021-.00461-.02292-.065-.38417c-.00289-.0169-.00488-.03416-.0061-.051l-.0295-.38567a.30581.30581,0,0,1-.00123-.0447l.00039-.382c0-.01175.00108-.02379.00183-.0353l.02506-.38209c.00068-.01139.0016-.02349.00338-.03528l.0494-.379.00523-.03248.07311-.38313c.00332-.01747.00789-.03441.01289-.05178l.1081-.37056c.00287-.011.0069-.02217.0105-.0329l.13281-.36808c.00542-.0154.01171-.03048.0188-.04578l.1628-.35252.01236-.02594.17973-.341c.00682-.013.01447-.02628.02233-.03872l.20415-.32451.01619-.02356.22474-.31938c.00932-.01316.0196-.02679.03022-.0392l.25172-.29862.02146-.024.26925-.28367c.013-.0136.02725-.02653.04108-.03881l.29324-.252.02245-.01822.30541-.23649c.01064-.00824.021-.01575.03195-.023l.31649-.21157.02992-.01824.3294-.19131c.01246-.00719.025-.0143.0379-.02039l.34517-.16611q.02292-.01094.04754-.02089l.36911-.13707.02458-.00868.35886-.1151c.01475-.00517.03036-.00881.04544-.01275l.37925-.0874.03778-.007.38264-.06086.03109-.00406.36778-.03809c.01783-.00149.03536-.00246.05231-.00273l.37726-.00318c.01438,0,.02846.00048.04319.00136l.372.02513.03025.00308.37273.0458a.47087.47087,0,0,1,.04776.00816l.36612.07766c.01136.00223.02264.00458.03428.00783l.35573.09868.03393.01022.357.124a.476.476,0,0,1,.05225.02079l.33119.15293.02971.01454.33.17685.0304.01754.31782.19683.028.01873.29444.20793c.01511.01044.02888.02168.04324.03342l.289.24948.02335.02108.2746.26575c.01021.01022.02036.02023.0299.03162l.24294.2738c.00926.01037.018.02131.02625.03194l.22953.30157a.29513.29513,0,0,1,.02074.0298l.20368.30675.02209.03646.18167.3254c.00684.01156.01278.02347.01859.03531l.16067.34289.01642.03909.137.36056c.00507.01314.00931.0265.01335.03991l.10963.36834.0086.03371.08608.371c.003.01523.00611.03054.00808.04605l.056.38241.00341.03072.03476.38525a.40923.40923,0,0,1,.002.04931l.00013.38225a.2102.2102,0,0,1-.00046.03021l-.01986.3818c-.00117.01525-.00243.03063-.00434.04564l-.05164.38286-.007.04151-.08014.37491-.0062.02517-.09871.381c-.00548.0197-.012.03968-.019.05935l-.13946.36338-.01045.02532-.15793.35878c-.00557.01116-.01049.02269-.017.034l-.178.33957a.44658.44658,0,0,1-.02233.03872l-.20585.326c-.00659.01143-.01449.02211-.02136.03252l-.23.31377-.01668.02172-.24508.30332a.62847.62847,0,0,1-.04357.0476l-.27753.27283-.01661.01588-.28647.25919a.32.32,0,0,1-.03561.02933l-.30317.23258c-.01114.00882-.02242.01668-.03372.02454l-.32166.21032-.0266.01669-.33094.19129a.46074.46074,0,0,1-.0437.02293l-.352.16477-.03276.01418-.35653.14016a.397.397,0,0,1-.03912.0138l-.36583.11367-.03439.00978-.37448.09085c-.01663.00391-.034.00758-.05154.01009l-.37665.055a.31438.31438,0,0,1-.03136.003l-.378.03392-.03858.00234-.37324.00792c-.01445.00015-.02854-.00035-.04262-.00086l-.37083-.02116a.32383.32383,0,0,1-.0401-.00373l-.373-.04683c-.01385-.0021-.02718-.0039-.04079-.00673l-.35866-.07319a.3506.3506,0,0,1-.03781-.00917l-.3684-.10166a.38094.38094,0,0,1-.04628-.01492l-.35669-.13214-.02649-.01112-.33157-.14207c-.01341-.00618-.02741-.01252-.04014-.01987l-.33089-.17388Zm.28154-1.1507.28055.17619.29234.15424.29827.12806.32039.11882.32658.09036.31944.06493.33242.04213.32933.01835.33394-.00705.34306-.03035.33422-.049.3319-.08008.329-.1027.32164-.12652.31355-.14643.29641-.17224.29182-.191.26828-.20544.26044-.23628.24722-.24217.21638-.26828.21037-.287.18314-.29109.15944-.30285.14419-.32775.12284-.32135.08837-.33814.07291-.34167.04522-.33929.01838-.34438-.00025-.34093-.0309-.34511-.05012-.34423-.077-.33273-.09857-.33166-.12171-.32129-.14326-.30584-.16156-.28851-.18119-.27369-.20606-.2702-.21394-.24184-.247-.23877-.25608-.2213-.25863-.18207-.28824-.17907-.29985-.16014-.29022-.13449-.31448-.10866-.32162-.08906-.32625-.069-.33317-.04082-.336-.023-.32841.00348-.32675.033-.34811.05532-.33748.07773-.32277.10388-.33255.12352-.30237.14594-.29546.1721-.28559.19043-.278.21508-.26009.22366-.23838.25057-.22527.26747-.20286.28716-.18486.29407-.16281.3087-.14586.31743-.1191.32958-.09536.328-.06551.33936-.04473.34442-.02335.34671-.001.34193.02627.33723.0587.34677.07159.33462.0993.3262.13039.32214.13639.306.16183.28954.18459.2798.20264.26563.224.24936.23579.23488.256.21276Z"/><path class="cls-3" d="M416.03434,98.45572l-.0188-.01153-.50915-.32086-.02206-.01428-.4996-.34912a.28105.28105,0,0,1-.02771-.021l-.46491-.36963-.02539-.02053-.451-.40388c-.00966-.00817-.01857-.01764-.02793-.02633l-.41121-.4216-.01825-.0197-.38993-.43808-.02546-.03061-.35282-.45978-.01966-.02745-.32-.47288c-.00694-.00989-.01335-.01948-.01927-.02964l-.29066-.4958-.0155-.02747-.26379-.51146-.01427-.03109-.23273-.52749c-.00552-.01236-.0103-.02447-.01485-.03731l-.19235-.53866-.00628-.01972-.17522-.551-.0106-.03745-.13469-.55787-.00731-.033-.1029-.56914c-.00261-.01589-.005-.03249-.00657-.04865l-.05239-.56875-.03975-.59367a.49369.49369,0,0,1-.00128-.05061l.01343-.57149.00138-.02881.04181-.56516.00446-.03985.083-.56753.00239-.01888.10331-.57211a.32387.32387,0,0,1,.00816-.03755l.14262-.56969.01024-.03549.18262-.56429a.27374.27374,0,0,1,.01152-.03318l.21934-.55921.01519-.035.2571-.54089.01227-.02427.281-.52524.018-.03118.3133-.505.01479-.02264.34088-.49586.02318-.03148.37423-.46988a.2884.2884,0,0,1,.02325-.0271l.39521-.43752.02521-.026.42247-.41a.285.285,0,0,1,.02664-.02429l.44744-.38124.01626-.01348.44929-.35385a.35539.35539,0,0,1,.03079-.02276l.469-.32048c.00754-.00587.01631-.01086.02463-.01628l.48785-.29611a.33634.33634,0,0,1,.04343-.02395l.52168-.25808.01478-.00671.5168-.23612a.35021.35021,0,0,1,.04335-.01812l.54463-.19669.03285-.0098.54992-.16057.033-.00885.56645-.12886.024-.00489.55933-.10181.04011-.00648.57627-.06242.032-.00266.57307-.02895c.01141-.00087.02259-.00134.03448-.00124l.57546.00654a.20229.20229,0,0,1,.03305.00124l.56966.03852.038.00428.57291.0785.03321.00547.576.11511.03026.00637.57075.14651.03735.0115.574.19066.02477.0084.55492.21357c.01191.00428.02345.0092.0349.01425l.55273.257a.3072.3072,0,0,1,.03276.01647l.52788.28837.02287.01319.51381.31246a.29924.29924,0,0,1,.03065.02011l.49546.34759c.00946.007.01949.01454.02851.02234l.4691.37706.02162.01836.44674.39811.02606.02507.41717.42331.02335.02524.38241.43789.01963.02483.35434.45564.02132.02909.32235.476c.00577.00921.01235.01821.01762.028l.29538.49661.0133.02378.27523.51806c.007.01426.014.02852.02009.04293l.22373.52386.01126.02762.19747.53849.0093.02649.17289.55618c.00362.01144.00724.02288.00979.03439l.13456.55537c.00349.01465.00576.02964.00875.04487l.089.56113.00339.02654.06237.57036.00234.02836.03284.57774c.00082.01329.00134.02709.00121.04053l-.00762.5731-.00063.02752-.03567.57042-.00411.04075-.0779.57067-.00438.02951-.109.573a.40858.40858,0,0,1-.00977.04337l-.15378.56413-.007.02384-.17952.56192c-.00437.01358-.00945.02659-.01484.04045l-.22571.55554-.00607.015-.24331.55214c-.00615.01516-.01314.02879-.02059.04319l-.28483.52144-.01349.02339-.30949.50895c-.00874.01366-.01741.02719-.027.03932l-.35468.48461-.00966.01226-.36779.47342c-.00892.011-.0177.022-.02727.03258l-.39831.43988-.01751.01865-.41094.41493-.033.03083-.44016.37765-.02241.01842-.45422.35187c-.01063.00824-.02192.0161-.03283.02331l-.47628.31716-.02312.01368-.493.29486-.036.01977-.51651.25931-.02338.01111-.52621.235-.02689.01151-.53035.20406c-.014.00541-.02744.00946-.04175.01384l-.54859.16394-.0406.01035-.56491.12317-.02088.00407-.56787.1019-.032.00441-.56525.06792-.04619.00383-.58625.02117-.025.0008-.57486-.00429a.31046.31046,0,0,1-.03865-.002l-.57527-.04349-.03026-.00308-.57376-.07553c-.01268-.00143-.025-.0035-.038-.006l-.56845-.11384L418.96,99.603l-.57619-.14879c-.01128-.00235-.02254-.00625-.03352-.00912l-.56949-.18561c-.01156-.00338-.02244-.00793-.03305-.01145l-.55847-.22064-.031-.01374-.54781-.255-.02419-.0124-.53268-.28005Zm.0829-1.27705.47949.302.50074.26337.52046.2427.52668.2082.53695.17446.54421.1397.53459.108.53961.0702.54091.04151.54374.00419.55047-.02069.52585-.06294.54129-.097.53387-.11649.50751-.15126.49672-.19109.50086-.22349.48614-.24481.46406-.27676.4483-.29779.42757-.33089.41119-.35383.38653-.39005.37618-.41472.34965-.451.33622-.458.2898-.47632.26712-.48923.22991-.52351.215-.528.16874-.53.14483-.53119.10191-.53725.073-.53541.03329-.53717.0069-.53975-.03094-.54287-.05884-.54287-.08361-.52512-.12437-.51572-.16407-.52494-.188-.5126-.20842-.48887-.25783-.48517-.27944-.46993-.30279-.44686-.33348-.42906-.35958-.41294-.39271-.39812-.42284-.37653-.44268-.35681-.4646-.32633-.48691-.29608-.50022-.27328-.51888-.24093-.52481-.20123-.54336-.18077-.53684-.138-.54489-.10787-.53723-.074-.53427-.03681-.54217-.00571-.53942.02793-.53971.05909-.52713.0958-.53921.12276-.51657.15106-.5057.18174-.48809.22325-.49253.24268-.45354.27624-.4409.3012-.42523.33552-.42518.36187-.39537.385-.37136.41058-.35139.44079-.32266.46846-.29655.479-.26621.49668-.24244.51126-.206.52554-.17094.52963-.13412.53305-.09742.54416-.079.53869-.03957.53182-.01232.53143.03734.55522.04888.5295.096.52969.127.52314.165.523.18227.50929.218.49442.24853.48241.27366.46641.30042.44376.33041.42989.36782.41337.389.39857.425.38035.43887.34872Zm2.03842-2.40077-.01844-.01063-.31178-.19681c-.01209-.007-.02342-.01524-.0347-.0233l-.30043-.22246a.2067.2067,0,0,1-.02577-.01989l-.28634-.23789c-.01248-.01049-.02529-.0222-.03637-.03362l-.26608-.26429-.02021-.02083-.25489-.28071c-.01149-.01251-.02144-.02587-.032-.0396l-.22392-.29661a.30755.30755,0,0,1-.01837-.02669l-.21-.31472a.39377.39377,0,0,1-.02692-.04428l-.17549-.32442a.269.269,0,0,1-.0141-.02839l-.16225-.34467a.3575.3575,0,0,1-.01493-.03563l-.13626-.35011a.44163.44163,0,0,1-.01677-.05019l-.10438-.36723-.00671-.025-.08855-.37576a.34155.34155,0,0,1-.0083-.04115l-.06059-.38162c-.00209-.01558-.00406-.03109-.00482-.04746l-.02793-.3839c-.00093-.01162-.00155-.02375-.00144-.03564l-.003-.38477.00133-.03473.02054-.383c.0005-.01408.002-.02844.00356-.04279l.0499-.37954c.002-.01406.00423-.028.00743-.0423l.079-.37887.00685-.02809.09927-.37565c.00472-.0184.01062-.03613.01672-.05391l.13659-.3659.01309-.03141.15761-.35551.0162-.03377.17972-.341a.444.444,0,0,1,.02233-.03872l.20415-.32451.02075-.03028.22986-.31626.021-.02771.248-.3008c.01131-.01391.024-.02686.03653-.03989l.27775-.27772.02355-.02192.28737-.25624c.00934-.009.02-.01722.0301-.02576l.305-.23584c.012-.00916.02435-.0173.037-.026l.32054-.20837.03005-.01816.33316-.18914.03341-.0171.34465-.16641c.01294-.00622.02632-.012.03946-.01707l.36144-.14149c.0144-.00606.03024-.0113.04564-.01609l.36876-.10852a.18444.18444,0,0,1,.02331-.00682l.36977-.09287.04115-.0083.37525-.06426a.48847.48847,0,0,1,.04873-.0067l.37986-.03112c.01082-.00138.02206-.00165.03317-.002l.3677-.00853a.52627.52627,0,0,1,.05348.00124l.375.02685.02639.00258.36961.044c.01719.0023.035.005.05162.00865l.37054.08021.03273.0078.35755.09973.03263.00947.35522.123a.48734.48734,0,0,1,.0542.02192l.33808.1569.02841.01379.325.17393.03053.01761.31575.19563.02746.01843.30081.21161a.45039.45039,0,0,1,.04416.03482l.28874.24845.02544.02315.26693.26133.02732.0277.24628.27643c.01083.01213.02116.02485.03125.03828l.22108.2967.01493.02125.20985.31048a.41615.41615,0,0,1,.02346.03708l.187.3278c.00774.01451.0154.02914.02269.04443l.1556.34c.00544.01249.01044.02455.01485.03731l.13385.35876a.23143.23143,0,0,1,.01065.02987l.11507.37062.0121.04507.08229.37041c.00249.01339.00531.02592.00715.03894l.05707.382.00308.02377.041.3906a.52991.52991,0,0,1,.00305.05925l.00029.38078-.00164.04217-.02873.37824-.00425.0398-.05647.37921-.0044.02534-.07415.37923c-.00285.01516-.00717.03136-.01105.04679l-.10768.37582-.00974.03161-.12928.36943c-.0063.01662-.01247.03333-.02044.04985l-.16379.35454c-.00455.01089-.01.02037-.01505.03028l-.18107.33765-.01724.02988-.20272.32776-.01868.02819-.22375.31735c-.01031.01518-.02168.02888-.03292.04266l-.25579.29818-.02381.02506-.26908.2777a.44086.44086,0,0,1-.033.03083l-.29256.25654-.02113.01742-.29892.23694-.03092.02269-.313.21426c-.01128.00787-.02322.01535-.03466.02226l-.33042.19159a.54031.54031,0,0,1-.05357.02832l-.359.16073-.02521.01005-.35819.14007-.03413.01235-.36259.11554c-.01431.00439-.02844.00818-.043.01155l-.37963.088a.42422.42422,0,0,1-.04347.00783l-.37353.05676-.02911.00365-.373.03684a.37416.37416,0,0,1-.04807.00258l-.3783.005c-.01408-.0005-.02854-.00036-.04225-.00151l-.37627-.02343-.03128-.00281-.36728-.04353-.04712-.00778-.3623-.07528-.03265-.00793-.362-.098c-.01621-.00432-.03263-.00947-.04861-.01539l-.356-.13177-.02727-.01157-.3391-.14641c-.01341-.00618-.02625-.01185-.03885-.01912l-.32906-.17283Zm.28661-1.14778.27548.17327.291.15349.30516.132.31754.118.3206.086.32255.06673.32748.03928.33865.02112.334-.00442.334-.0321.33738-.05147.33633-.07753.32451-.10356.32831-.12788.31918-.143.28649-.16705.27991-.192.27232-.21575.26554-.23161.24163-.24869.22669-.26423.19826-.28219.18491-.29837.16494-.30817.146-.31473.11484-.32788.0958-.33783.06667-.34285.05189-.34635.02564-.33777.00038-.32879-.03735-.34865-.05228-.35068-.07269-.32851-.1035-.33364-.12136-.32455-.13673-.29947-.1639-.28745-.19056-.28238-.19917-.26622-.21713-.24351-.24126-.23561-.254-.21922-.26486-.18567-.28694-.17832-.29491-.15729-.29724-.13854-.31253-.10753-.32491-.09027-.32854-.071-.3307-.0394-.33531-.02422-.324.00757-.33828.02809-.33053.057-.3378.08429-.33424.09882-.31922.12533-.30913.149-.3026.17127-.28707.187-.27078.21006-.26064.23183-.24761.24767-.21971.26652-.20907.28773-.18269.29031-.16056.3048-.14332.32322-.12107.3243-.08822.33457-.07166.3443-.04467.33684-.01858.34444.00252.349.02416.34208.05389.33619.08087.34346.09391.32983.11979.30841.14666.31282.1555.28762.18638.2791.19835.26316.22774.25153.23825.2363.25417.21171Z"/><path class="cls-3" d="M344.7727,109.91487a.56269.56269,0,0,1-.20621-.7683l2.96048-5.13271a.5625.5625,0,0,1,.97452.56209l-2.96049,5.13271A.56261.56261,0,0,1,344.7727,109.91487Z"/><path class="cls-3" d="M348.258,108.98106l-.01274-.00735a.5629.5629,0,0,1-.18613-.77369l1.76241-2.87963a.56232.56232,0,1,1,.95926.58706l-1.76242,2.87962A.562.562,0,0,1,348.258,108.98106Z"/><path class="cls-3" d="M404.4402,144.33042a.56271.56271,0,0,1-.20622-.7683l2.96049-5.13271a.5625.5625,0,0,1,.97452.56209l-2.96049,5.13271A.56223.56223,0,0,1,404.4402,144.33042Z"/><path class="cls-3" d="M378.924,128.66422l-7.81132-4.50548a9.04641,9.04641,0,0,1-4.39869-6.27518l-.46819-2.6552a.56255.56255,0,1,1,1.108-.19558l.46812,2.65533a7.92347,7.92347,0,0,0,3.85288,5.49611l7.81132,4.50549a7.92286,7.92286,0,0,0,6.68708.58234l2.533-.92344a.56261.56261,0,1,1,.38564,1.05708l-2.53344.92388A9.04748,9.04748,0,0,1,378.924,128.66422Z"/><path class="cls-4" d="M331.4424,94.73646l-2.76248,4.78942a2.97653,2.97653,0,1,1-5.15675-2.97435l2.76249-4.78942Z"/><path class="cls-4" d="M429.41173,151.24408l-2.76248,4.78941a2.9766,2.9766,0,1,1-5.15687-2.97442l2.76249-4.78942Z"/><path class="cls-3" d="M433.92076,154.49419,321.21506,89.48681a.5625.5625,0,0,1,.56209-.97452l112.7057,65.00739a.5625.5625,0,0,1-.56209.97451Z"/><path class="cls-5" d="M422.20887,157.7744a3.73405,3.73405,0,0,1-1.76135-4.10291.7495.7495,0,0,1-.36154-.10031l-15.73947-9.07834a3.30327,3.30327,0,0,1-1.21433-4.49858l1.257-2.3171-15.36382-8.86168a2.88883,2.88883,0,0,1-.95315.754l-3.16676,1.54545a10.09236,10.09236,0,0,1-9.48161-.32561l-4.39858-2.537a10.09331,10.09331,0,0,1-5.02957-8.04428l-.24742-3.51142a2.90822,2.90822,0,0,1,.1755-1.20581l-5.64287-3.25319a2.45338,2.45338,0,0,1-2.50051.0298l-7.88682-4.549-.71028,1.15969a3.30519,3.30519,0,0,1-4.50426,1.19928l-15.73817-9.07759a.7498.7498,0,0,1-.26786-.26273,3.727,3.727,0,0,1-5.79949-4.56017l2.38775-4.13974L321.12268,89.65a.7502.7502,0,0,1-.373-.709l.4217-5.28725a.74978.74978,0,0,1,.0146-.723l39.72684-68.87589a.74955.74955,0,0,1,.45516-.3496l2.90278-.77856a.75056.75056,0,0,1,.56912.07458l6.625,3.82123.79412-1.37679a.52619.52619,0,0,0-.19215-.71794l-2.57713-1.48646a.75.75,0,0,1-.275-1.02441L370.702,9.63841a2.02636,2.02636,0,0,1,2.76479-.74318l16.20762,9.34838a2.027,2.027,0,0,1,.74724,2.75623l-2.79227,5.14609L400.725,33.69937l3.05813-4.99276a2.0266,2.0266,0,0,1,2.75945-.73361l37.90007,21.86034a2.028,2.028,0,0,1,.7492,2.75736l-2.79111,5.14677,13.09255,7.55163,3.05747-4.99313a2.02792,2.02792,0,0,1,2.76128-.73255l16.20645,9.34769a2.02715,2.02715,0,0,1,.74242,2.76609l-1.48722,2.57844a.75.75,0,0,1-1.0244.275l-2.57844-1.48721a.52618.52618,0,0,0-.71766.19317l-.79412,1.37679L478.284,78.4345a.75069.75069,0,0,1,.34965.45537l.77959,2.9025a.74953.74953,0,0,1-.07471.569l-39.72684,68.87589a.74914.74914,0,0,1-.61788.375l-4.36319,3.013a.75114.75114,0,0,1-.801.0327l-4.14286-2.38956-2.38775,4.13974A3.73093,3.73093,0,0,1,422.20887,157.7744Zm1.58705-10.63528.83367.48086a.75.75,0,0,1,.27495,1.0244l-2.76248,4.78942a2.22659,2.22659,0,1,0,3.85751,2.225l2.76249-4.78942a.75.75,0,0,1,1.0244-.27495l4.38142,2.52715,4.25754-2.93971a.7691.7691,0,0,1,.0962-.0569l39.36238-68.244-.61846-2.30221-7.0056-4.04075a.75047.75047,0,0,1-.27495-1.0244l1.16885-2.02647a2.02828,2.02828,0,0,1,2.76647-.74308l1.92876,1.11249,1.11248-1.92876a.52612.52612,0,0,0-.19252-.71729l-16.20644-9.34769a.52637.52637,0,0,0-.71794.19214l-.01041.01686-3.44337,5.62372a.75028.75028,0,0,1-1.01451.2578l-14.3576-8.2813a.75029.75029,0,0,1-.28484-1.00726l3.14321-5.79685.00989-.01715a.52692.52692,0,0,0-.19382-.718L405.79313,29.27236a.525.525,0,0,0-.71612.19319l-.01041.01685-3.444,5.62336a.74913.74913,0,0,1-1.01386.25817l-14.362-8.28385a.75027.75027,0,0,1-.28484-1.00725l3.14567-5.79543.00925-.01753a.52549.52549,0,0,0-.19187-.71691L372.7173,10.19459a.5253.5253,0,0,0-.716.19327l-1.11249,1.92876,1.92745,1.11173a2.02779,2.02779,0,0,1,.74205,2.76675l-1.16885,2.02647a.75007.75007,0,0,1-1.0244.275l-7.0056-4.04075-2.30248.61744-39.36239,68.244a.81449.81449,0,0,1-.0007.1111l-.41131,5.159,4.37778,2.52505a.75008.75008,0,0,1,.275,1.02441l-2.76248,4.78941a2.22652,2.22652,0,1,0,3.85739,2.2249l2.76249-4.78941a.75008.75008,0,0,1,1.0244-.275l.83366.48085a.75046.75046,0,0,1,.275,1.02441l-2.58576,4.483,15.08849,8.70287a1.80368,1.80368,0,0,0,2.46093-.65887l.00989-.01715,1.09764-1.79014a.74977.74977,0,0,1,1.01421-.25728l8.51869,4.91349a.95278.95278,0,0,0,1.15464-.15758.74968.74968,0,0,1,.90942-.124l6.58113,3.79436a.75021.75021,0,0,1,.36347.51909l.0353.197a.75662.75662,0,0,1-.083.49582l-.07688.13749a1.3825,1.3825,0,0,0-.16846.76431l.247,3.5077a8.5942,8.5942,0,0,0,4.28233,6.85068l4.39858,2.537a8.59552,8.59552,0,0,0,8.0749.27684l3.16332-1.544a1.3882,1.3882,0,0,0,.57461-.52849l.08361-.13775a.755.755,0,0,1,.38442-.31612l.18806-.06816a.751.751,0,0,1,.632.05508L405.7718,136.743a.74977.74977,0,0,1,.28382,1.00753l-1.61013,2.96746-.00886.01688a1.80206,1.80206,0,0,0,.65934,2.4586l15.08978,8.70362,2.58577-4.483A.75047.75047,0,0,1,423.79592,147.13912Z"/><path class="cls-6" d="M495.05512,158.36306h-.00977a1.5,1.5,0,1,1,.00977,0Zm-6.00977-.00976h-.01025a1.49976,1.49976,0,1,1,.01025,0Zm-6.01025-.00977h-.00977a1.5,1.5,0,1,1,.00977,0Zm-6.00977-.00976h-.01025a1.49976,1.49976,0,1,1,.01025,0Zm-6.01025-.00977h-.00977a1.5,1.5,0,1,1,.00977,0Zm-6.00977-.00976h-.01025a1.50025,1.50025,0,1,1,.01025,0Zm-6.01025-.00977h-.00976a1.5,1.5,0,1,1,.00976,0Zm-6.00976-.00977H452.975a1.49975,1.49975,0,1,1,.01026,0Zm-6.01026-.00976h-.00976a1.5,1.5,0,1,1,.00976,0Zm-6.00976-.00977H440.955a1.49975,1.49975,0,1,1,.01026,0Zm-6.01026-.00976h-.00976a1.5,1.5,0,1,1,.00976,0Zm-6.00976-.00977H428.935a1.50024,1.50024,0,1,1,.01026,0Zm-6.01026-.00976h-.00976a1.5,1.5,0,1,1,.00976,0Zm-6.00976-.00977H416.915a1.49976,1.49976,0,1,1,.01026,0Zm-6.01026-.00976h-.00976a1.5,1.5,0,1,1,.00976,0Zm-6.00976-.00977h-.00977a1.5,1.5,0,1,1,.00977,0Zm-6.00977-.00977h-.01025a1.49976,1.49976,0,1,1,.01025,0Zm-6.01025-.00976h-.00977a1.5,1.5,0,1,1,.00977,0Zm-6.00977-.00977h-.01025a1.50025,1.50025,0,1,1,.01025,0Zm-6.01025-.00976h-.00977a1.5,1.5,0,1,1,.00977,0Zm-6.00977-.00977h-.01025a1.49976,1.49976,0,1,1,.01025,0Zm-6.01025-.00976h-.00977a1.5,1.5,0,1,1,.00977,0Zm-6.00977-.00977h-.01025a1.49976,1.49976,0,1,1,.01025,0Zm-6.01025-.00977h-.00977a1.5,1.5,0,1,1,.00977,0Zm-6.00977-.00976h-.01025a1.50025,1.50025,0,1,1,.01025,0Zm-6.01025-.00977h-.00977a1.5,1.5,0,1,1,.00977,0Zm-6.00977-.00976h-.01025a1.49976,1.49976,0,1,1,.01025,0Zm-6.01025-.00977h-.00977a1.5,1.5,0,1,1,.00977,0Zm-6.00977-.00976h-.01025a1.49976,1.49976,0,1,1,.01025,0Zm-6.01025-.00977h-.00977a1.5,1.5,0,1,1,.00977,0Zm-6.00977-.00976h-.00976a1.5,1.5,0,1,1,.00976,0Zm-6.00976-.00977h-.01025a1.50025,1.50025,0,1,1,.01025,0Zm-6.01025-.00977h-.00977a1.5,1.5,0,1,1,.00977,0Zm-6.00977-.00976h-.01025a1.49976,1.49976,0,1,1,.01025,0Zm-6.01025-.00977h-.00977a1.5,1.5,0,1,1,.00977,0Zm-6.00977-.00976h-.01025a1.49976,1.49976,0,1,1,.01025,0Z"/><polygon class="cls-6" points="362.088 106.202 363.603 120.642 350.34 114.733 362.088 106.202"/><path class="cls-6" d="M363.80024,120.91287l-13.79395-6.14453,12.21826-8.873Zm-13.127-6.21485,12.73243,5.67188-1.45362-13.86133Z"/><path class="cls-6" d="M491.02,179.574a1.48588,1.48588,0,0,1-.72412-.18848l-.00879-.00488a1.49349,1.49349,0,1,1,.73291.19336Zm-5.20215-3.00976a1.48588,1.48588,0,0,1-.72412-.18848l-.00879-.00488a1.49348,1.49348,0,1,1,.73291.19336Zm-5.20263-3.00879a1.49285,1.49285,0,0,1-.75635-.207l-.0083-.00489a1.49347,1.49347,0,1,1,.76465.21192Zm-5.20215-3.00977a1.48585,1.48585,0,0,1-.72412-.18848l-.00879-.00488a1.49348,1.49348,0,1,1,.73291.19336Zm-5.20215-3.00879a1.48584,1.48584,0,0,1-.72412-.18847l-.00879-.00489a1.49349,1.49349,0,1,1,.73291.19336Zm-5.20264-3.00976a1.49284,1.49284,0,0,1-.75634-.207l-.0083-.00489a1.49346,1.49346,0,1,1,.76464.21192Zm-5.20214-3.00879a1.48585,1.48585,0,0,1-.72412-.18848l-.00879-.00488a1.49347,1.49347,0,1,1,.73291.19336Zm-5.20215-3.00977a1.486,1.486,0,0,1-.72412-.18847l-.00879-.00489a1.49348,1.49348,0,1,1,.73291.19336Zm-5.20264-3.00879a1.49278,1.49278,0,0,1-.75635-.207l-.0083-.00488a1.4935,1.4935,0,1,1,.76465.21191ZM444.19916,152.49a1.48588,1.48588,0,0,1-.72412-.18848l-.00879-.00488a1.49348,1.49348,0,1,1,.73291.19336Zm-5.20312-3.00977a1.48553,1.48553,0,0,1-.82666-.251l-.00879-.00585a1.49492,1.49492,0,1,1,.83545.25683Zm-5.20166-3.00879a1.48584,1.48584,0,0,1-.72412-.18847l-.00879-.00489a1.49348,1.49348,0,1,1,.73291.19336Zm-5.20215-3.00976a1.48585,1.48585,0,0,1-.72412-.18848l-.00879-.00488a1.49347,1.49347,0,1,1,.73291.19336Zm-5.20215-3.00879a1.48585,1.48585,0,0,1-.72412-.18848l-.00879-.00488a1.49348,1.49348,0,1,1,.73291.19336Zm-5.20264-3.00977a1.48587,1.48587,0,0,1-.72412-.18847l-.00879-.00489a1.49349,1.49349,0,1,1,.73291.19336Zm-5.20214-3.00879a1.48588,1.48588,0,0,1-.72413-.18847l-.00878-.00489a1.49348,1.49348,0,1,1,.73291.19336Zm-5.20264-3.00976a1.49285,1.49285,0,0,1-.75635-.207l-.0083-.00489a1.49347,1.49347,0,1,1,.76465.21192Zm-5.20215-3.00879a1.48585,1.48585,0,0,1-.72412-.18848l-.00879-.00488a1.49348,1.49348,0,1,1,.73291.19336Zm-5.20215-3.00977a1.48584,1.48584,0,0,1-.72412-.18847l-.00879-.00489a1.49349,1.49349,0,1,1,.73291.19336Zm-5.20361-3.00976a1.48924,1.48924,0,0,1-.85986-.27344l-.00831-.00586a1.49563,1.49563,0,1,1,.86817.2793Zm-5.20117-3.00879a1.48585,1.48585,0,0,1-.72412-.18848l-.00879-.00488a1.49347,1.49347,0,1,1,.73291.19336Zm-5.20313-3.00977a1.4856,1.4856,0,0,1-.82666-.251l-.00879-.00586a1.49493,1.49493,0,1,1,.83545.25683Zm-5.20166-3.00879a1.49281,1.49281,0,0,1-.75635-.207l-.0083-.00488a1.4935,1.4935,0,1,1,.76465.21191Zm-5.20215-3.00976a1.48588,1.48588,0,0,1-.72412-.18848l-.00879-.00488a1.49348,1.49348,0,1,1,.73291.19336Zm-5.20215-3.00879a1.48588,1.48588,0,0,1-.72412-.18848l-.00879-.00488a1.49348,1.49348,0,1,1,.73291.19336Zm-5.20263-3.00977a1.49275,1.49275,0,0,1-.75635-.207l-.0083-.00488a1.4935,1.4935,0,1,1,.76465.21191Zm-5.20215-3.00879a1.48584,1.48584,0,0,1-.72412-.18847l-.00879-.00489a1.49348,1.49348,0,1,1,.73291.19336Zm-5.20215-3.00976a1.48585,1.48585,0,0,1-.72412-.18848l-.00879-.00488a1.49348,1.49348,0,1,1,.73291.19336Zm-5.20215-3.00879a1.48588,1.48588,0,0,1-.72412-.18848l-.00879-.00488a1.49349,1.49349,0,1,1,.73291.19336Zm-5.20263-3.00977a1.49275,1.49275,0,0,1-.75635-.207l-.0083-.00488a1.49349,1.49349,0,1,1,.76465.21191Zm-5.20215-3.00879a1.48584,1.48584,0,0,1-.72412-.18847l-.00879-.00488a1.4935,1.4935,0,1,1,.73291.19335Zm-5.20215-3.00976a1.48585,1.48585,0,0,1-.72412-.18848l-.00879-.00488a1.49347,1.49347,0,1,1,.73291.19336Zm-5.20361-3.00977a1.48926,1.48926,0,0,1-.85987-.27343l-.0083-.00586a1.49565,1.49565,0,1,1,.86817.27929Zm-5.20118-3.00879a1.48587,1.48587,0,0,1-.72412-.18847l-.00879-.00489a1.49349,1.49349,0,1,1,.73291.19336Zm-5.20312-3.00976a1.48561,1.48561,0,0,1-.82666-.251l-.00879-.00586a1.4949,1.4949,0,1,1,.83545.25684Zm-5.20166-3.00879a1.49275,1.49275,0,0,1-.75635-.207l-.0083-.00488a1.49349,1.49349,0,1,1,.76465.21191Zm-5.20215-3.00977a1.48584,1.48584,0,0,1-.72412-.18847l-.00879-.00489a1.49349,1.49349,0,1,1,.73291.19336Zm-5.20215-3.00879a1.48584,1.48584,0,0,1-.72412-.18847l-.00879-.00488a1.49351,1.49351,0,1,1,.73291.19335ZM293.332,65.21951a1.49275,1.49275,0,0,1-.75635-.207l-.0083-.00488a1.49348,1.49348,0,1,1,.76465.21191Z"/><path class="cls-6" d="M351.59516,155.31033l-3.999-.10547a112.44785,112.44785,0,0,1,7.92285-38.64648l3.71777,1.47461A108.45882,108.45882,0,0,0,351.59516,155.31033Z"/><path class="cls-7" d="M331.8144,128.98025c0-3.709,1.11621-7.21973,5.22168-7.21973,3.16894,0,5.22119,2.08887,5.22119,7.21973,0,5.14942-2.03418,7.25684-5.22119,7.25684C333.81293,136.23709,331.8144,134.11209,331.8144,128.98025Zm7.72412-.99023c-.08985-2.75489-.81006-4.15918-2.48438-4.15918-1.69287,0-2.43115,1.42285-2.50293,4.15918Zm-2.50244,6.17578c1.53027,0,2.46631-.93555,2.50244-4.08692h-4.98731C334.58735,133.33767,335.57758,134.1658,337.03608,134.1658Z"/><rect class="cls-8" x="256.32594" width="252.06611" height="187.55314"/></g></g></svg>