<svg xmlns="http://www.w3.org/2000/svg" viewBox="0 0 508.392 187.553"><defs><style>.cls-1{fill:#fff}.cls-2{fill:#e5e5e6}.cls-3{fill:#9e9e9f}.cls-4{fill:#c8c9ca}.cls-5{fill:#231815}.cls-6{fill:#bfd833}.cls-7{fill:#666}.cls-8{fill:none}</style></defs><g id="レイヤー_2" data-name="レイヤー 2"><g id="レイヤー_2-2" data-name="レイヤー 2"><path class="cls-1" d="M182.207 101.453a2.977 2.977 0 01-4.066-1.09l-2.765-4.788-.833.481 2.962 5.132-15.735 9.085a2.55 2.55 0 01-3.483-.934l-1.764-2.88-16.494 9.523-.034.198.075.138a2.146 2.146 0 01.262 1.179l-.246 3.511a9.355 9.355 0 01-4.653 7.45l-4.397 2.538a9.355 9.355 0 01-8.778.305l-3.164-1.543a2.139 2.139 0 01-.89-.816l-.08-.135-.188-.069-6.579 3.8a1.702 1.702 0 01-.789 1.928l-8.516 4.917 1 1.845a2.55 2.55 0 01-.935 3.485l-15.735 9.084-2.962-5.131-.834.481 2.765 4.788a2.977 2.977 0 11-5.156 2.977l-2.764-4.788-4.787 2.764-4.652-3.206-.11.063-39.756-68.859.779-2.903 7.272-4.199-1.17-2.026a1.276 1.276 0 00-1.741-.467l-2.577 1.487-1.488-2.577a1.273 1.273 0 01.465-1.742l16.204-9.355a1.274 1.274 0 011.741.467l3.444 5.623 14.359-8.29-3.146-5.795a1.274 1.274 0 01.466-1.741l37.89-21.877a1.276 1.276 0 011.744.466l3.446 5.622 14.354-8.287-3.145-5.795a1.276 1.276 0 01.467-1.743l16.203-9.354a1.275 1.275 0 011.741.467l1.489 2.577-2.578 1.489a1.276 1.276 0 00-.466 1.742l1.17 2.026 7.272-4.199 2.903.778 39.756 68.859-.11.063.453 5.63-4.791 2.766 2.764 4.789a2.977 2.977 0 01-1.09 4.066z"/><path class="cls-2" d="M117.936 128.738l.188.069.08.135a2.139 2.139 0 00.89.816l3.164 1.543a9.355 9.355 0 008.778-.305l4.397-2.539a9.355 9.355 0 004.653-7.449l.246-3.511a2.146 2.146 0 00-.262-1.18l-.075-.137.034-.198z"/><path class="cls-1" d="M140.03 115.982l-.469 2.656a8.507 8.507 0 01-4.123 5.888l-7.81 4.509a8.509 8.509 0 01-7.16.627l-2.532-.924z"/><path class="cls-3" d="M185.261 84.626L68.163 152.232a.563.563 0 01-.562-.974l117.098-67.606a.563.563 0 11.562.974zM171.655 61.06L54.557 128.665a.563.563 0 01-.562-.975l117.098-67.606a.563.563 0 11.562.974zM151.246 25.71L34.148 93.315a.563.563 0 01-.563-.975l117.098-67.606a.563.563 0 11.563.974zM145.505 15.767L28.408 83.373a.563.563 0 01-.563-.974l117.098-67.607a.563.563 0 01.563.975zM142.602 14.99L29.186 80.47a.563.563 0 01-.563-.974L142.04 14.015a.563.563 0 01.562.974zM104.682 33.965l-12.41 7.165a.375.375 0 11-.375-.65l12.41-7.165a.375.375 0 11.375.65zM76.99 49.952l-12.408 7.165a.375.375 0 01-.375-.65l12.409-7.164a.375.375 0 01.375.65zM94.238 38.521a.375.375 0 01-.512-.137l-1.488-2.578-.01-.016-.076-.148-.013-.029-.063-.153a.316.316 0 01-.012-.035l-.047-.156-.008-.034-.03-.156a.435.435 0 01-.006-.047l-.01-.154-.001-.03.002-.147a.392.392 0 01.005-.055l.023-.14a.326.326 0 01.01-.045l.038-.13a.424.424 0 01.02-.052l.054-.116a.41.41 0 01.031-.054l.07-.102a.359.359 0 01.042-.051l.085-.087a.358.358 0 01.052-.044l.096-.068a.375.375 0 01.432.613l-.068.048-.038.039-.035.051-.03.063-.023.08-.015.09v.103l.006.115.023.114.035.12.05.12.065.126 1.483 2.57a.375.375 0 01-.137.512z"/><path class="cls-3" d="M91.483 44.503a.563.563 0 01-.768-.206l-3.296-5.709-.015-.027-.075-.149a.523.523 0 01-.02-.044l-.062-.154-.017-.05-.046-.154a.59.59 0 01-.013-.052l-.03-.156a.561.561 0 01-.01-.063l-.011-.153a.462.462 0 01-.002-.06l.004-.148a.622.622 0 01.007-.071l.022-.14a.594.594 0 01.016-.071l.038-.129a.56.56 0 01.03-.079l.054-.117a.571.571 0 01.046-.08l.07-.102a.584.584 0 01.061-.075l.085-.087a.547.547 0 01.079-.067l.096-.068a.563.563 0 01.648.92l-.068.051-.034.062-.015.053-.011.068-.002.08.007.091.019.099.031.103.043.108.057.113 3.288 5.694a.563.563 0 01-.206.769zM47.799 61.896l-18.41 10.63a.375.375 0 11-.376-.65l18.41-10.63a.375.375 0 11.376.65z"/><path class="cls-3" d="M102.555 30.282l-40.1 23.152a.375.375 0 11-.374-.65l40.1-23.151a.375.375 0 01.374.65zM135.622 11.191l-18.412 10.63a.375.375 0 11-.375-.65l18.412-10.63a.375.375 0 01.375.65z"/><path class="cls-3" d="M73.749 50.351a.375.375 0 01-.513-.137l-1.559-2.688-.081-.102-.086-.091-.092-.08-.09-.062-.093-.049-.086-.034-.079-.019-.07-.006-.062.005-.05.012-.076.035a.375.375 0 11-.316-.68l.108-.05a.412.412 0 01.067-.024l.115-.028a.338.338 0 01.063-.01l.124-.01a.367.367 0 01.062 0l.128.011a.395.395 0 01.053.009l.131.03a.415.415 0 01.054.018l.13.052a.294.294 0 01.034.016l.132.068a.284.284 0 01.042.026l.125.087.029.023.12.103a.324.324 0 01.029.026l.11.118a.297.297 0 01.023.026l.103.13a.277.277 0 01.02.03l.09.139.01.016 1.488 2.578a.375.375 0 01-.137.512zM80.304 50.957a.563.563 0 01-.768-.206l-3.291-5.7-.067-.107-.068-.086-.072-.076-.08-.068-.073-.052-.134-.062-.099-.016-.047.007-.06.027a.563.563 0 01-.473-1.02l.107-.05a.54.54 0 01.099-.035l.117-.03a.707.707 0 01.097-.016l.124-.008a.53.53 0 01.09 0l.127.012a.55.55 0 01.077.011l.133.031a.632.632 0 01.08.024l.13.052a.577.577 0 01.055.025l.132.069a.607.607 0 01.066.04l.124.088c.013.01.026.019.037.029l.122.103a.542.542 0 01.045.043l.11.117a.64.64 0 01.035.04l.102.13a.54.54 0 01.035.049l.088.141.01.017 3.296 5.709a.563.563 0 01-.206.768z"/><path class="cls-3" d="M78.254 52.14a.563.563 0 01-.768-.205l-1.17-2.026a.715.715 0 00-.976-.26L64.53 55.89l.126.228.072.125a.563.563 0 11-.974.562l-.216-.382-.008-.016-.054-.108-.008-.015-.045-.098c-.005-.01-.01-.02-.014-.032l-.034-.088a.515.515 0 01-.019-.055l-.021-.077a.58.58 0 01-.015-.072l-.01-.066a.576.576 0 01-.004-.114l.004-.055a.576.576 0 01.052-.203l.02-.042a.543.543 0 01.136-.182l.035-.03a.539.539 0 01.092-.067l11.134-6.429a1.841 1.841 0 012.513.672l1.17 2.026a.563.563 0 01-.207.769zM93.535 43.318a.563.563 0 01-.768-.206l-1.17-2.026a1.84 1.84 0 01.672-2.51l11.135-6.43a.52.52 0 01.107-.046l.043-.015a.563.563 0 01.23-.025l.047.005a.568.568 0 01.176.047l.051.023a.611.611 0 01.114.069l.052.041a.47.47 0 01.056.05l.055.056a.55.55 0 01.039.044l.059.074.017.023.064.087.015.024.14.22.008.014.072.122a.562.562 0 01-.2.77.57.57 0 01-.77-.2l-.134-.222-10.813 6.243a.714.714 0 00-.26.974l1.17 2.026a.563.563 0 01-.207.768zM89.585 100.183a.568.568 0 01-.183.067l-.547.095-.032.005-.557.066-.036.004-.567.03h-.032l-.576-.001-.031-.002-.579-.034-.034-.002-.577-.07-.034-.006-.569-.104-.035-.008-.553-.139-.031-.009-.538-.169-.03-.01-.52-.195-.034-.014-.488-.22-.03-.015-.46-.241-.031-.019-.438-.268-.027-.018-.398-.277a.332.332 0 01-.032-.024l-.457-.367-.019-.017-.466-.41-.024-.022-.458-.454-.019-.019-.457-.497a.462.462 0 01-.046-.056l-.395-.561-.01-.016-.39-.594-.011-.019-.373-.618-7.518-13.023a.563.563 0 01.202-.767l3.856-2.264a.575.575 0 01.428-.059.562.562 0 01.343.263l2.724 4.718 3.842-2.219a.562.562 0 01.769.206l2.234 3.87a.563.563 0 01-.206.769l-3.842 2.218 1.222 2.118.885 1.497.148.226.16.22.172.224.368.427.195.192.202.181.204.155.24.15.271.149.29.131.322.12.347.108.385.086.413.074.46.043.513.025.583-.009.672-.04a.562.562 0 01.596.57l-.074 4.39a.562.562 0 01-.282.479zm-.91-.948l.075-.013.057-3.319-.078.005h-.026l-.613.01h-.035l-.544-.026a.254.254 0 01-.027-.002l-.497-.048a.452.452 0 01-.045-.006l-.448-.08-.025-.005-.418-.094a.598.598 0 01-.042-.01l-.384-.119-.031-.01-.355-.133-.036-.015-.327-.15a.36.36 0 01-.037-.018l-.305-.166-.028-.017-.276-.172a.582.582 0 01-.042-.03l-.242-.184a.385.385 0 01-.033-.027l-.23-.205-.02-.02-.22-.216a.343.343 0 01-.028-.03l-.402-.467-.014-.018-.186-.24-.011-.014-.173-.238-.015-.022-.16-.245-.01-.015-.155-.254-.746-1.272-1.506-2.607a.563.563 0 01.206-.769l3.843-2.218-1.673-2.896-3.842 2.218a.563.563 0 01-.768-.206L75.08 80.16l-2.885 1.694 7.235 12.53.362.601.377.577.37.523.422.46.439.435.443.39.432.348.37.257.407.25.427.224.456.206.489.183.508.16.52.13.534.098.542.067.546.031.544.002.533-.028zM104.346 66.64l-.021.012-.214.112-.04.019-.221.093a.814.814 0 01-.042.016l-.243.08a.744.744 0 01-.052.015l-.24.054a.242.242 0 01-.033.006l-.249.042-.044.005-.257.021a.587.587 0 01-.048.002h-.247a.44.44 0 01-.058-.004l-.238-.025a.389.389 0 01-.035-.004l-.236-.04a.628.628 0 01-.053-.012l-.228-.062a.365.365 0 01-.04-.013l-.227-.08a.513.513 0 01-.045-.018l-.22-.1a.454.454 0 01-.047-.025l-.213-.122c-.013-.007-.026-.016-.038-.024l-.203-.14-.02-.014-.202-.153a.75.75 0 01-.05-.043l-.177-.169-.03-.031-.158-.179-.02-.023-.148-.186a.561.561 0 01-.036-.05l-.115-.184a.362.362 0 01-.02-.035l-.114-.213a.57.57 0 01-.026-.056l-.093-.234-.01-.027-.081-.239a.509.509 0 01-.016-.056l-.057-.251a.547.547 0 01-.007-.039l-.04-.256a.683.683 0 01-.005-.046l-.018-.254-.001-.04v-.253a.441.441 0 01.003-.052l.023-.245.005-.035.038-.239a.57.57 0 01.01-.05l.06-.231a.448.448 0 01.016-.051l.083-.231c.005-.014.01-.028.017-.042l.1-.22a.451.451 0 01.026-.05l.13-.224a.408.408 0 01.019-.03l.139-.208a.48.48 0 01.028-.04l.153-.192.034-.038.177-.186.024-.024.172-.16a.562.562 0 01.046-.038l.187-.14a.405.405 0 01.035-.025l.2-.127a.566.566 0 01.044-.025l.205-.107.038-.018.215-.092a.71.71 0 01.052-.019l.23-.071.037-.01.246-.059.041-.008.25-.04a.57.57 0 01.054-.006l.25-.016a.398.398 0 01.045 0l.25.004c.014 0 .027 0 .04.002l.243.021a.517.517 0 01.056.008l.238.045.038.008.232.061a.498.498 0 01.06.02l.227.086a.288.288 0 00.029.012l.224.102.033.016.226.12a.596.596 0 01.066.04l.424.315a.702.702 0 01.055.049l.181.18.03.031.164.19.02.026.152.198a.6.6 0 01.03.043l.129.204a.484.484 0 01.023.04l.1.193a.524.524 0 01.02.044l.092.218.013.034.076.225a.403.403 0 01.012.04l.062.235a.566.566 0 01.014.072l.031.252.002.017.022.243a.543.543 0 01.003.064l-.005.249a.408.408 0 01-.004.05l-.027.243a.378.378 0 01-.007.041l-.044.237-.006.028-.055.225a.563.563 0 01-.016.057l-.08.222a.553.553 0 01-.022.055l-.109.225a.456.456 0 01-.018.034l-.122.213c-.006.013-.015.025-.023.038l-.142.209a.475.475 0 01-.029.04l-.157.192a.31.31 0 01-.027.031l-.173.184a.606.606 0 01-.035.034l-.188.168a.492.492 0 01-.036.03l-.191.144-.036.026-.199.126zm-.735-.884l.173-.09.16-.102.154-.117.153-.137.142-.15.129-.16.116-.17.101-.178.087-.18.059-.166.043-.182.04-.202.021-.198.004-.19-.044-.408-.046-.179-.065-.187-.074-.18-.079-.15-.102-.163-.128-.166-.14-.162-.139-.139-.339-.251-.176-.094-.194-.087-.182-.07-.184-.048-.192-.036-.196-.018-.209-.003-.199.012-.203.032-.207.05-.184.057-.168.071-.164.086-.16.102-.147.11-.138.129-.15.156-.122.155-.117.174-.108.185-.079.174-.066.184-.046.18-.032.195-.02.201v.206l.016.21.033.213.046.203.066.198.076.19.09.168.088.14.119.15.133.15.136.13.165.125.173.12.17.097.174.08.184.064.18.049.192.032.19.02.195.001.212-.017.21-.035.195-.044.195-.065zM116.819 83.768l-3.873 2.236a.563.563 0 01-.769-.206l-8.994-15.579a.562.562 0 01.206-.768l3.873-2.236a.562.562 0 01.768.205L117.024 83a.563.563 0 01-.206.768zm-3.949.98l2.899-1.673-8.432-14.605-2.899 1.674zM102.085 92.806l-.02.01-.534.282-.024.013-.55.256-.03.013-.558.22-.033.012-.567.184-.034.01-.57.145-.027.006-.573.118-.037.006-.579.078-.033.004-.574.043-.038.001-.576.005h-.03l-.576-.028-.034-.003-.575-.062a.302.302 0 01-.039-.005l-.565-.102-.024-.005-.56-.127-.039-.01-.547-.164-.031-.011-.54-.198c-.013-.004-.025-.01-.037-.015l-.525-.235-.025-.011-.514-.26-.035-.02-.492-.295-.023-.014-.475-.316-.03-.022-.458-.352-.028-.023-.435-.38-.026-.024-.415-.414-.021-.021-.398-.44-.022-.027-.375-.47-.019-.026-.345-.489a.35.35 0 01-.022-.033l-.31-.51-.011-.02-.286-.521a.35.35 0 01-.018-.035l-.252-.547-.013-.03-.22-.56-.012-.032-.18-.562-.009-.028-.15-.567-.007-.033-.116-.572a.465.465 0 01-.006-.036l-.077-.57-.004-.04-.034-.571-.001-.026-.009-.572v-.04l.032-.576.002-.03.061-.57.005-.036.099-.567a.433.433 0 01.007-.034l.132-.554a.333.333 0 01.01-.033l.167-.553.01-.03.195-.537.014-.034.232-.529a.253.253 0 01.016-.032l.264-.513.016-.028.292-.494.019-.03.324-.477.022-.03.359-.46a.233.233 0 01.02-.024l.387-.44.02-.023.412-.421.027-.026.443-.396.023-.019.467-.376.029-.023.496-.348a.312.312 0 01.031-.02l.516-.314.022-.013.535-.293a.304.304 0 01.033-.017l.549-.255a.475.475 0 01.034-.014l.557-.215.025-.008.574-.191.037-.012.57-.145.032-.008.57-.111c.011-.003.022-.004.034-.005l.567-.077.03-.003.581-.045.04-.002.572-.004h.029l.578.027a.46.46 0 01.038.003l.572.064.034.005.565.099.03.005.565.13.034.01.547.162.034.012.538.199.029.011.529.23.031.014.514.261.032.018.494.292.03.02.47.322.022.016.459.349a.346.346 0 01.032.026l.437.386.023.021.417.414.02.022.398.436.023.028.374.47.018.024.35.49.021.032.311.507a.22.22 0 01.016.027l.284.524.017.034.248.546.012.028.22.557.012.034.181.565.009.03.149.566.006.033.114.566.006.038.074.574.003.03.042.565a.41.41 0 01.002.035l.007.575v.037l-.031.575-.003.032-.064.576-.005.033-.096.566-.007.034-.131.556a.348.348 0 01-.011.039l-.172.55-.008.024-.197.541a.27.27 0 01-.014.034l-.23.527-.016.033-.266.513-.014.026-.29.494-.021.035-.33.479-.016.022-.348.457-.025.03-.383.436-.02.02-.41.421-.028.027-.451.404-.026.021-.466.371-.028.02-.495.347-.023.015-.516.325zm-1.066-.71l.503-.264.485-.306.47-.33.442-.35.424-.38.388-.397.36-.41.328-.43.31-.45.272-.464.25-.484.217-.494.186-.512.162-.52.123-.518.09-.533.062-.543.028-.54-.007-.54-.04-.532-.07-.54-.105-.53-.14-.536-.172-.533-.207-.527-.235-.516-.267-.493-.293-.477-.33-.463-.354-.444-.374-.412-.395-.392-.41-.362-.43-.327-.443-.303-.463-.274-.482-.245-.498-.217-.507-.187-.512-.152-.532-.123-.534-.093-.538-.06-.545-.025-.536.004-.545.043-.535.071-.538.106-.535.136-.543.181-.527.203-.514.239-.507.277-.49.298-.465.327-.441.356-.42.375-.387.395-.366.418-.337.432-.303.446-.276.465-.249.483-.218.496-.184.507-.159.523-.124.52-.092.532-.057.536-.03.543.009.54.032.538.072.53.108.538.142.536.17.53.208.528.238.515.27.493.292.482.325.46.354.444.375.415.392.39.409.357.427.329.448.298.464.278.484.245.496.221.506.186.513.154.529.12.533.096.537.058.544.026.541-.004.54-.041.542-.073.542-.111.54-.138.532-.172.526-.208zm-1.057-2.967l-.019.011-.33.174-.04.02-.336.144a.199.199 0 01-.029.012l-.35.13a.61.61 0 01-.048.015l-.36.097-.03.007-.366.077a.412.412 0 01-.045.008l-.374.047a.344.344 0 01-.037.004l-.374.022a.371.371 0 01-.041.001l-.378-.005a.658.658 0 01-.05-.003l-.37-.039-.02-.002-.378-.053a.408.408 0 01-.049-.01l-.38-.087a.516.516 0 01-.046-.013l-.36-.117-.022-.008-.365-.136a.531.531 0 01-.047-.02l-.35-.167a.304.304 0 01-.038-.022l-.331-.191-.03-.02-.318-.212a.401.401 0 01-.029-.02l-.303-.233-.026-.02-.295-.256a.572.572 0 01-.038-.037l-.267-.279-.023-.026-.252-.299a.516.516 0 01-.03-.039l-.224-.317-.017-.024-.205-.326a.553.553 0 01-.022-.039l-.18-.339-.011-.026-.165-.354a.55.55 0 01-.018-.046l-.133-.367-.01-.03-.11-.376a.703.703 0 01-.014-.055l-.071-.38-.005-.029-.052-.382a.517.517 0 01-.004-.04l-.025-.38v-.034l-.001-.381.001-.043.029-.382a.825.825 0 01.006-.052l.066-.388.004-.026.08-.368.012-.046.114-.372.013-.036.139-.362.012-.029.15-.337a.778.778 0 01.025-.047l.186-.328a.704.704 0 01.022-.037l.208-.31.018-.024.226-.3a.469.469 0 01.031-.037l.25-.278a.442.442 0 01.025-.026l.263-.259.026-.024.286-.247a.474.474 0 01.044-.035l.298-.21.028-.018.318-.198.03-.017.33-.177.03-.015.327-.15a.67.67 0 01.05-.021l.362-.126.03-.01.367-.104c.014-.004.028-.008.042-.01l.359-.074a.591.591 0 01.04-.006l.377-.048a.294.294 0 01.036-.003l.367-.023a.95.95 0 01.043-.001l.373.006.04.001.377.033.042.005.38.062a.556.556 0 01.042.008l.373.09.034.009.364.111.044.016.36.143.028.012.35.163a.409.409 0 01.044.023l.331.191a.21.21 0 01.026.016l.32.208a.93.93 0 01.038.026l.306.237.032.027.285.257.018.018.281.276.042.046.245.302.016.022.232.316c.007.01.014.02.02.032l.206.324a.444.444 0 01.022.039l.18.341.017.035.156.356.01.025.14.364a.628.628 0 01.02.062l.098.377.005.022.081.378a.32.32 0 01.008.045l.05.38a.717.717 0 01.004.04l.021.384.001.032v.382a.464.464 0 01-.002.05l-.033.386-.004.036-.057.379a.396.396 0 01-.008.04l-.085.374-.008.035-.11.37a.609.609 0 01-.016.05l-.141.353a.317.317 0 01-.013.028l-.16.345-.017.034-.18.327-.022.037-.204.31a.326.326 0 01-.023.033l-.227.3c-.01.01-.017.021-.027.032l-.243.274a.35.35 0 01-.026.028l-.273.268a.38.38 0 01-.036.032l-.293.243-.023.018-.289.216c-.012.008-.024.017-.037.024l-.316.2zm-.856-.819l.293-.155.28-.176.26-.194.263-.218.242-.237.216-.244.203-.267.18-.276.161-.293.146-.312.125-.314.096-.327.076-.337.052-.341.03-.345-.001-.343-.02-.348-.043-.335-.074-.344-.086-.335-.124-.322-.144-.325-.16-.305-.182-.29-.212-.288-.217-.267-.248-.246-.26-.234-.27-.209-.29-.188-.295-.17-.314-.147-.324-.128-.326-.1-.337-.08-.339-.056-.336-.03-.33-.004-.328.02-.338.043-.316.065-.33.094-.32.111-.287.133-.3.16-.288.18-.262.183-.251.218-.238.234-.223.248-.202.268-.188.28-.161.286-.135.299-.127.33-.101.33-.072.332-.06.35-.024.334.001.342.022.343.047.348.064.337.097.332.12.329.146.319.162.307.186.296.202.285.226.268.236.246.261.227.276.211.288.194.296.172.305.146.33.122.325.106.332.077.345.048.333.035.331.005.335-.02.331-.042.328-.07.322-.086.312-.115zM128.133 77.767l-.02.01-.532.281-.023.012-.552.258a.282.282 0 01-.032.013l-.553.218-.03.012-.576.188-.037.011-.57.145-.027.006-.574.118-.04.007-.574.076-.033.003-.57.04a.41.41 0 01-.035.002l-.575.004h-.032l-.574-.028-.034-.003-.574-.063a.504.504 0 01-.04-.006l-.562-.103-.02-.004-.565-.124-.038-.01-.55-.162-.032-.01-.544-.196a.761.761 0 01-.046-.019l-.519-.239-.533-.262a.498.498 0 01-.045-.025l-.488-.297-.024-.016-.469-.319-.032-.024-.45-.355-.015-.012-.444-.376a.325.325 0 01-.028-.026l-.422-.408-.025-.027-.398-.44a.275.275 0 01-.023-.027l-.374-.47-.023-.03-.34-.493-.014-.023-.315-.506-.018-.031-.28-.524-.012-.024-.259-.544-.016-.036-.22-.559a.29.29 0 01-.011-.033l-.181-.561-.01-.035-.144-.571a.287.287 0 01-.007-.035l-.106-.579-.004-.02-.082-.566a.355.355 0 01-.004-.038l-.043-.567-.001-.03-.013-.57a.337.337 0 01.001-.05l.038-.58.002-.016.054-.566a.35.35 0 01.006-.047l.102-.57.008-.033.136-.557.009-.033.172-.554.007-.024.192-.535.015-.038.234-.53.014-.029.261-.51.017-.031.293-.495a.203.203 0 01.018-.028l.318-.474.023-.03.355-.458.02-.026.389-.44.02-.024.413-.42.028-.027.453-.402.02-.017.462-.374a.538.538 0 01.03-.023l.499-.35a.308.308 0 01.03-.02l.514-.313.023-.013.528-.288a.3.3 0 01.033-.017l.548-.255a.489.489 0 01.034-.013l.561-.218.027-.01.568-.187.035-.01.575-.15.034-.007.57-.112.031-.004.572-.08.036-.003.574-.041c.01 0 .022-.002.033-.001l.577-.008h.028l.586.022c.016 0 .032.002.047.004l.566.068.03.004.564.099.028.005.568.129.034.008.549.162.043.015.53.203.025.01.525.232.026.012.516.26a.577.577 0 01.036.02l.492.293.024.015.476.316.033.024.455.353.024.018.441.382a.413.413 0 01.033.03l.411.415.017.018.397.437c.01.01.018.021.028.033l.368.473.01.013.356.487a.51.51 0 01.027.04l.31.507.013.023.285.523c.008.014.015.029.02.043l.243.55.006.014.226.555.014.04.182.565.007.025.154.563.01.044.107.57.004.029.078.57a.528.528 0 01.004.04l.036.57v.027l.009.575-.001.04-.034.578-.002.025-.06.574-.003.029-.09.56c-.001.016-.005.03-.008.044l-.133.557-.011.04-.176.551-.007.02-.196.543-.012.03-.224.523-.02.042-.275.518-.012.022-.291.496a.31.31 0 01-.021.032l-.326.477-.017.024-.353.46a.507.507 0 01-.024.029l-.383.435-.02.022-.418.425-.024.024-.446.4-.026.023-.47.373-.028.02-.495.347-.023.015-.509.32zm-1.064-.71l.501-.265.479-.301.47-.33.444-.351.42-.378.393-.401.361-.41.331-.431.307-.448.275-.468.258-.487.209-.487.186-.517.167-.52.123-.516.083-.526.057-.545.031-.543-.007-.54-.034-.538-.072-.536-.1-.533-.145-.53-.171-.533-.216-.528-.228-.52-.267-.49-.29-.476-.338-.46-.35-.451-.374-.411-.388-.392-.414-.357-.427-.33-.448-.298-.464-.276-.486-.245-.5-.22-.496-.191-.509-.15-.536-.121-.538-.094-.528-.064-.549-.02-.546.007-.539.039-.538.074-.538.104-.54.141-.538.178-.53.205-.516.239-.5.273-.487.296-.468.33-.437.353-.428.38-.388.396-.366.417-.333.429-.3.444-.276.466-.245.481-.22.497-.18.504-.164.529-.127.523-.096.528-.05.535-.037.547.012.531.04.533.078.536.1.55.136.534.17.527.205.525.245.514.266.496.297.479.321.466.352.441.373.413.395.383.422.356.427.338.44.3.455.277.499.246.483.222.506.182.517.152.535.119.533.097.537.059.542.026.54-.004.535-.038.538-.07.541-.112.54-.138.542-.177.522-.206zm-1.059-2.967l-.018.01-.326.172-.038.019-.343.149a.206.206 0 01-.03.012l-.35.129a.506.506 0 01-.047.014l-.362.099-.028.007-.37.08c-.017.004-.033.006-.05.008l-.37.045a.307.307 0 01-.032.003l-.377.024a.396.396 0 01-.052.001l-.369-.01a.268.268 0 01-.031-.002l-.38-.032a.356.356 0 01-.038-.005l-.372-.057a.441.441 0 01-.052-.01l-.37-.094-.025-.007-.37-.111a.342.342 0 01-.04-.014l-.36-.138a.534.534 0 01-.043-.02l-.347-.168a.402.402 0 01-.031-.016l-.335-.19-.03-.019-.32-.209c-.013-.007-.024-.016-.036-.024l-.304-.234a.555.555 0 01-.033-.027l-.288-.258-.02-.02-.277-.274a.694.694 0 01-.038-.041l-.248-.302-.02-.027-.23-.314-.021-.031-.205-.326a.443.443 0 01-.023-.04l-.178-.338-.016-.033-.16-.358-.013-.032-.136-.365-.016-.051-.102-.38-.007-.031-.078-.377-.007-.04-.052-.381-.004-.045-.02-.382v-.035l.003-.383.001-.038.029-.381a.527.527 0 01.005-.043l.058-.384a.524.524 0 01.009-.047l.09-.374a.185.185 0 01.006-.024l.105-.366.013-.04.132-.357a.49.49 0 01.02-.045l.162-.345.015-.03.177-.322a.527.527 0 01.027-.046l.211-.311.016-.022.223-.298a.624.624 0 01.033-.04l.255-.28.023-.025.265-.26.025-.023.284-.246a.487.487 0 01.046-.036l.305-.215.026-.017.314-.195.03-.017.327-.176.03-.014.334-.155a.45.45 0 01.052-.02l.36-.126.033-.01.36-.101.037-.01.363-.075a.58.58 0 01.048-.008l.368-.043.026-.002.374-.026a.414.414 0 01.043-.002l.378.002.05.003.372.035a.507.507 0 01.04.006l.377.063a.231.231 0 01.031.006l.379.086.045.012.362.114.037.013.36.142.021.01.36.16a.531.531 0 01.052.026l.33.19.036.023.313.214.032.024.3.238.02.017.291.254.035.033.272.281.022.024.255.297c.011.014.023.028.033.043l.225.319.019.028.202.326.017.03.182.34.015.03.163.352c.008.017.014.033.02.05l.13.37.01.034.106.372a.441.441 0 01.01.044l.076.381.005.027.055.378.004.038.03.378a.634.634 0 01.001.041v.382a.543.543 0 01-.002.06l-.04.392-.004.027-.058.38-.006.036-.082.372a.61.61 0 01-.011.043l-.114.372a.422.422 0 01-.015.042l-.138.352-.011.027-.155.341a.373.373 0 01-.022.043l-.185.33-.022.036-.209.314-.018.025-.221.297-.03.037-.247.276-.023.024-.266.264a.541.541 0 01-.038.035l-.292.242-.024.018-.296.22-.036.024-.314.199zm-.85-.822l.288-.152.278-.175.267-.198.262-.216.234-.235.22-.246.197-.263.188-.283.163-.292.14-.305.124-.318.101-.33.073-.332.054-.349.035-.348v-.331l-.027-.339-.05-.343-.068-.346-.095-.334-.115-.328-.145-.313-.166-.31-.184-.297-.2-.283-.226-.264-.245-.252-.263-.23-.274-.217-.28-.192-.284-.164-.32-.143-.33-.13-.321-.101-.34-.078-.343-.057-.327-.031-.331-.002-.34.023-.33.04-.32.066-.324.09-.317.111-.294.136-.298.16-.283.176-.269.188-.25.217-.24.236-.226.25-.2.266-.189.278-.155.284-.145.307-.116.315-.096.335-.082.338-.051.34-.026.342-.003.347.018.342.047.34.07.342.09.338.122.324.144.325.16.303.184.292.208.285.22.267.245.244.263.235.269.207.289.188.303.173.309.15.318.121.337.102.333.084.327.05.344.03.327.01.335-.022.327-.04.332-.072.324-.088.31-.114zM102.398 145.2a.563.563 0 01-.768-.206l-2.963-5.131a.563.563 0 01.974-.563l2.963 5.132a.563.563 0 01-.206.768zM103.333 141.715l-.012.008a.563.563 0 01-.763-.226l-1.612-2.967a.562.562 0 11.989-.537l1.61 2.967a.562.562 0 01-.212.755zM162.05 110.76a.563.563 0 01-.767-.206l-2.963-5.132a.563.563 0 01.974-.562l2.963 5.131a.562.562 0 01-.206.769zM135.72 125.013l-7.81 4.509a9.046 9.046 0 01-7.634.668l-2.533-.923a.563.563 0 11.385-1.057l2.533.923a7.923 7.923 0 006.687-.585l7.809-4.51a7.923 7.923 0 003.85-5.498l.468-2.655a.563.563 0 111.108.195l-.467 2.656a9.047 9.047 0 01-4.396 6.277z"/><path class="cls-4" d="M82.586 149.147l2.765 4.788a2.977 2.977 0 11-5.156 2.977l-2.764-4.788zM180.532 92.598l2.764 4.789a2.977 2.977 0 11-5.155 2.976l-2.765-4.788z"/><path class="cls-3" d="M185.602 90.32L72.924 155.376a.563.563 0 11-.563-.974L185.04 89.346a.563.563 0 11.563.975z"/><path class="cls-5" d="M182.582 102.102a3.734 3.734 0 01-4.434-.528.75.75 0 01-.268.263l-15.735 9.085a3.303 3.303 0 01-4.503-1.2l-1.377-2.247-15.36 8.868a2.889 2.889 0 01.176 1.202l-.247 3.516a10.092 10.092 0 01-5.026 8.046l-4.397 2.539a10.093 10.093 0 01-9.482.33l-3.164-1.543a2.908 2.908 0 01-.956-.756l-5.64 3.258a2.453 2.453 0 01-1.226 2.18l-7.885 4.552.65 1.196a3.305 3.305 0 01-1.216 4.5l-15.735 9.084a.75.75 0 01-.361.1 3.727 3.727 0 01-6.85 2.74l-2.39-4.139-4.137 2.389a.75.75 0 01-.8-.032l-4.368-3.01a.75.75 0 01-.618-.375L27.477 83.261a.75.75 0 01-.075-.569l.778-2.903a.75.75 0 01.35-.455l6.623-3.824-.795-1.377a.526.526 0 00-.718-.193l-2.576 1.488a.75.75 0 01-1.025-.275l-1.488-2.577a2.026 2.026 0 01.74-2.766l16.204-9.355a2.027 2.027 0 012.76.732l3.059 4.992 13.092-7.559-2.793-5.146a2.027 2.027 0 01.746-2.756l37.89-21.876a2.028 2.028 0 012.763.73l3.06 4.993 13.089-7.557-2.793-5.146a2.028 2.028 0 01.747-2.757l16.203-9.355a2.027 2.027 0 012.766.741l1.488 2.578a.75.75 0 01-.274 1.025l-2.578 1.488a.526.526 0 00-.192.718l.795 1.377 6.623-3.824a.75.75 0 01.57-.075l2.902.777a.75.75 0 01.456.35l39.756 68.859a.75.75 0 01.015.722l.426 5.286a.751.751 0 01-.373.71l-4.142 2.39 2.39 4.14a3.73 3.73 0 01-1.364 5.09zm-8.414-6.695l.833-.482a.75.75 0 011.025.275l2.764 4.788a2.227 2.227 0 103.857-2.226l-2.765-4.789a.75.75 0 01.275-1.024l4.38-2.53-.415-5.156a.77.77 0 010-.112L144.73 15.923l-2.303-.616-7.004 4.044a.75.75 0 01-1.024-.275l-1.17-2.026a2.028 2.028 0 01.741-2.767l1.928-1.113-1.113-1.929a.526.526 0 00-.717-.192l-16.203 9.355a.526.526 0 00-.193.718l.01.017 3.146 5.795a.75.75 0 01-.285 1.008l-14.354 8.287a.75.75 0 01-1.014-.257l-3.447-5.622-.01-.018a.527.527 0 00-.718-.191L63.109 52.017a.525.525 0 00-.191.717l.01.017 3.145 5.796a.75.75 0 01-.284 1.007l-14.359 8.29a.75.75 0 01-1.014-.257l-3.444-5.624-.01-.017a.525.525 0 00-.717-.192L30.04 71.109a.525.525 0 00-.19.717l1.113 1.928 1.927-1.113a2.028 2.028 0 012.766.742l1.17 2.026a.75.75 0 01-.275 1.025l-7.003 4.043-.618 2.303 39.391 68.227a.815.815 0 01.096.057L72.68 154l4.377-2.527a.75.75 0 011.024.275l2.765 4.788a2.227 2.227 0 103.856-2.227l-2.764-4.788a.75.75 0 01.274-1.024l.834-.482a.75.75 0 011.024.275l2.588 4.482 15.085-8.71a1.804 1.804 0 00.66-2.46l-.01-.017-1-1.846a.75.75 0 01.285-1.007l8.516-4.917a.953.953 0 00.442-1.078.75.75 0 01.347-.85l6.579-3.8a.75.75 0 01.63-.054l.19.068a.757.757 0 01.387.32l.08.135a1.383 1.383 0 00.578.528l3.16 1.542a8.594 8.594 0 008.075-.28l4.397-2.54a8.596 8.596 0 004.28-6.852l.246-3.511a1.388 1.388 0 00-.17-.762l-.077-.142a.755.755 0 01-.082-.49l.035-.198a.751.751 0 01.364-.52l16.494-9.522a.75.75 0 011.014.259l1.764 2.879.01.016a1.802 1.802 0 002.459.659l15.086-8.71-2.588-4.482a.75.75 0 01.275-1.024z"/><path class="cls-6" d="M13.347 158.363a1.5 1.5 0 01-.01-3h.01a1.5 1.5 0 110 3zm6.01-.01a1.5 1.5 0 01-.01-3h.01a1.5 1.5 0 110 3zm6.01-.01a1.5 1.5 0 01-.01-3h.01a1.5 1.5 0 110 3zm6.01-.01a1.5 1.5 0 01-.01-3h.01a1.5 1.5 0 010 3zm6.01-.008a1.5 1.5 0 01-.01-3h.01a1.5 1.5 0 010 3zm6.01-.01a1.5 1.5 0 11-.01-3h.01a1.5 1.5 0 110 3zm6.01-.01a1.5 1.5 0 01-.01-3h.01a1.5 1.5 0 110 3zm6.01-.01a1.5 1.5 0 01-.01-3h.01a1.5 1.5 0 010 3zm6.01-.01a1.5 1.5 0 01-.01-3h.01a1.5 1.5 0 010 3zm6.01-.009a1.5 1.5 0 01-.01-3h.01a1.5 1.5 0 110 3zm6.01-.01a1.5 1.5 0 01-.01-3h.01a1.5 1.5 0 110 3zm6.01-.008a1.5 1.5 0 11-.01-3h.01a1.5 1.5 0 010 3zm6.01-.01a1.5 1.5 0 01-.01-3h.01a1.5 1.5 0 010 3zm6.01-.01a1.5 1.5 0 01-.01-3h.01a1.5 1.5 0 010 3zm6.01-.01a1.5 1.5 0 01-.01-3h.01a1.5 1.5 0 110 3zm6.01-.01a1.5 1.5 0 01-.01-3h.01a1.5 1.5 0 010 3zm6.01-.01a1.5 1.5 0 01-.01-3h.01a1.5 1.5 0 110 3zm6.01-.009a1.5 1.5 0 01-.01-3h.01a1.5 1.5 0 110 3zm6.01-.009a1.5 1.5 0 11-.01-3h.01a1.5 1.5 0 010 3zm6.01-.01a1.5 1.5 0 01-.01-3h.01a1.5 1.5 0 010 3zm6.01-.01a1.5 1.5 0 01-.01-3h.01a1.5 1.5 0 010 3zm6.01-.01a1.5 1.5 0 01-.01-3h.01a1.5 1.5 0 010 3zm6.01-.009a1.5 1.5 0 01-.01-3h.01a1.5 1.5 0 010 3zm6.01-.01a1.5 1.5 0 01-.01-3h.01a1.5 1.5 0 010 3zm6.01-.01a1.5 1.5 0 11-.01-3h.01a1.5 1.5 0 110 3zm6.01-.01a1.5 1.5 0 01-.01-3h.01a1.5 1.5 0 010 3zm6.01-.008a1.5 1.5 0 01-.01-3h.01a1.5 1.5 0 010 3zm6.01-.01a1.5 1.5 0 11-.01-3h.01a1.5 1.5 0 010 3zm6.01-.01a1.5 1.5 0 01-.01-3h.01a1.5 1.5 0 010 3zm6.01-.01a1.5 1.5 0 01-.01-3h.01a1.5 1.5 0 010 3zm6.01-.009a1.5 1.5 0 01-.01-3h.01a1.5 1.5 0 010 3zm6.01-.01a1.5 1.5 0 11-.01-3h.01a1.5 1.5 0 010 3zm6.01-.01a1.5 1.5 0 01-.01-3h.01a1.5 1.5 0 010 3zm6.01-.008a1.5 1.5 0 01-.01-3h.01a1.5 1.5 0 010 3zm6.01-.01a1.5 1.5 0 01-.01-3h.01a1.5 1.5 0 010 3zm6.01-.01a1.5 1.5 0 01-.01-3h.01a1.5 1.5 0 010 3zM146.304 106.202l-1.515 14.44 13.263-5.909-11.748-8.531z"/><path class="cls-6" d="M144.592 120.913l.03-.29 1.545-14.728 12.219 8.873zm1.848-14.404l-1.454 13.86 12.733-5.671zM17.374 179.57a1.5 1.5 0 01-.735-2.808l.009-.004a1.5 1.5 0 11.726 2.812zm5.203-3.01a1.5 1.5 0 01-.736-2.807l.009-.005a1.5 1.5 0 11.727 2.812zm5.202-3.008a1.5 1.5 0 01-.767-2.79l.008-.004a1.5 1.5 0 11.759 2.794zm5.202-3.01a1.5 1.5 0 01-.735-2.808l.009-.005a1.5 1.5 0 11.726 2.813zm5.203-3.009a1.5 1.5 0 01-.736-2.808l.009-.005a1.5 1.5 0 11.727 2.813zm5.202-3.01a1.5 1.5 0 01-.767-2.789l.008-.005a1.5 1.5 0 11.759 2.794zm5.202-3.009a1.5 1.5 0 01-.735-2.807l.009-.005a1.5 1.5 0 11.726 2.812zm5.202-3.01a1.5 1.5 0 01-.735-2.807l.009-.005a1.5 1.5 0 11.726 2.813zm5.203-3.008a1.5 1.5 0 01-.767-2.79l.008-.004a1.5 1.5 0 11.759 2.794zm5.202-3.01a1.5 1.5 0 01-.735-2.808l.009-.004a1.5 1.5 0 11.726 2.812zm5.202-3.01a1.498 1.498 0 01-.838-2.743l.008-.006a1.5 1.5 0 11.83 2.75zm5.203-3.008a1.5 1.5 0 01-.735-2.808l.008-.005a1.5 1.5 0 11.727 2.813zm5.202-3.01a1.5 1.5 0 01-.735-2.808l.009-.005a1.5 1.5 0 11.726 2.813zm5.202-3.009a1.5 1.5 0 01-.735-2.808l.009-.005a1.5 1.5 0 11.726 2.813zm5.203-3.01a1.5 1.5 0 01-.735-2.807l.008-.005a1.5 1.5 0 11.727 2.812zm5.202-3.009a1.5 1.5 0 01-.735-2.807l.009-.005a1.5 1.5 0 11.726 2.812zm5.202-3.01a1.5 1.5 0 01-.767-2.788l.008-.005a1.5 1.5 0 11.76 2.794zm5.203-3.008a1.5 1.5 0 01-.735-2.808l.008-.005a1.5 1.5 0 11.727 2.813zm5.202-3.01a1.5 1.5 0 01-.735-2.807l.008-.005a1.5 1.5 0 11.727 2.812zm5.201-3.01a1.499 1.499 0 01-.87-2.72l.008-.006a1.5 1.5 0 11.862 2.726zm5.204-3.008a1.5 1.5 0 01-.736-2.808l.01-.005a1.5 1.5 0 11.726 2.813zm5.201-3.01a1.498 1.498 0 01-.838-2.743l.009-.006a1.5 1.5 0 11.83 2.749zm5.203-3.009a1.5 1.5 0 01-.767-2.79l.008-.004a1.5 1.5 0 11.76 2.794zm5.203-3.01a1.5 1.5 0 01-.736-2.807l.01-.005a1.5 1.5 0 11.726 2.812zm5.202-3.009a1.5 1.5 0 01-.735-2.807l.008-.005a1.5 1.5 0 11.727 2.812zm5.202-3.01a1.5 1.5 0 01-.735-2.807l.008-.005a1.5 1.5 0 11.727 2.813zm5.203-3.008a1.5 1.5 0 01-.736-2.808l.01-.005a1.5 1.5 0 11.726 2.813zm5.202-3.01a1.5 1.5 0 01-.736-2.807l.01-.005a1.5 1.5 0 11.726 2.812zm5.202-3.009a1.5 1.5 0 01-.735-2.807l.008-.005a1.5 1.5 0 11.727 2.812zm5.203-3.01a1.5 1.5 0 01-.736-2.807l.009-.005a1.5 1.5 0 11.727 2.813zm5.202-3.008a1.5 1.5 0 01-.736-2.808l.01-.005a1.5 1.5 0 11.726 2.813zm5.202-3.01a1.5 1.5 0 01-.735-2.808l.008-.004a1.5 1.5 0 11.727 2.812zm5.201-3.01a1.499 1.499 0 01-.87-2.72l.008-.006a1.5 1.5 0 11.862 2.726zm5.204-3.009a1.5 1.5 0 01-.736-2.807l.01-.005a1.5 1.5 0 11.726 2.812zm5.201-3.01a1.498 1.498 0 01-.838-2.742l.009-.006a1.5 1.5 0 11.83 2.749zm5.203-3.008a1.5 1.5 0 01-.767-2.79l.008-.004a1.5 1.5 0 11.759 2.794zm5.203-3.01a1.5 1.5 0 01-.736-2.807l.01-.005a1.5 1.5 0 11.726 2.812zm5.202-3.009a1.5 1.5 0 01-.736-2.807l.01-.005a1.5 1.5 0 11.726 2.812zm5.202-3.01a1.5 1.5 0 01-.767-2.788l.008-.005a1.5 1.5 0 11.759 2.794z"/><path class="cls-6" d="M156.797 155.31a108.445 108.445 0 00-7.642-37.277l3.718-1.475a112.434 112.434 0 017.923 38.647z"/><path class="cls-7" d="M171.843 128.98c0-3.71 1.116-7.22 5.221-7.22 3.17 0 5.222 2.088 5.222 7.22 0 5.149-2.035 7.256-5.222 7.256-3.223 0-5.221-2.125-5.221-7.257zm7.724-.991c-.09-2.755-.81-4.16-2.485-4.16-1.692 0-2.43 1.424-2.502 4.16zm-2.503 6.176c1.53 0 2.467-.936 2.503-4.087h-4.987c.036 3.259 1.026 4.087 2.484 4.087z"/><path class="cls-8" d="M0 0h252.066v187.553H0z"/><path class="cls-1" d="M422.584 157.125a2.977 2.977 0 01-1.092-4.066l2.763-4.79-.834-.48-2.96 5.133-15.74-9.079a2.55 2.55 0 01-.934-3.483l1.61-2.967-16.498-9.516-.188.069-.081.134a2.146 2.146 0 01-.89.817l-3.163 1.544a9.355 9.355 0 01-8.778-.301l-4.399-2.537a9.355 9.355 0 01-4.656-7.448l-.247-3.511a2.139 2.139 0 01.262-1.179l.076-.137-.035-.198-6.58-3.794a1.702 1.702 0 01-2.065.282l-8.519-4.914-1.097 1.79a2.55 2.55 0 01-3.485.934l-15.738-9.078 2.96-5.133-.834-.48-2.762 4.789a2.977 2.977 0 11-5.157-2.974l2.763-4.79L321.497 89l.449-5.631-.11-.064 39.726-68.876 2.903-.778 7.275 4.196 1.169-2.027a1.276 1.276 0 00-.467-1.742l-2.578-1.486 1.488-2.579a1.273 1.273 0 011.74-.468l16.208 9.348a1.274 1.274 0 01.466 1.742l-3.145 5.795 14.362 8.284 3.444-5.623a1.274 1.274 0 011.74-.468l37.9 21.86a1.276 1.276 0 01.47 1.742l-3.144 5.797 14.358 8.282 3.444-5.624a1.276 1.276 0 011.742-.467l16.207 9.348a1.275 1.275 0 01.467 1.741l-1.487 2.579-2.578-1.487a1.276 1.276 0 00-1.743.468l-1.168 2.026 7.274 4.196.78 2.903-39.727 68.876-.11-.064-4.648 3.21-4.792-2.765-2.763 4.79a2.977 2.977 0 01-4.065 1.09z"/><path class="cls-2" d="M366.8 115.13l.035.198-.076.137a2.139 2.139 0 00-.263 1.179l.248 3.511a9.355 9.355 0 004.656 7.448l4.399 2.537a9.355 9.355 0 008.778.3l3.163-1.543a2.146 2.146 0 00.89-.817l.081-.134.188-.069z"/><path class="cls-1" d="M388.9 127.877l-2.535.924a8.507 8.507 0 01-7.16-.624l-7.811-4.506a8.509 8.509 0 01-4.126-5.886l-.468-2.655z"/><path class="cls-3" d="M438.68 151.35L321.556 83.793a.563.563 0 01.562-.975l117.126 67.557a.563.563 0 01-.562.975zM452.277 127.777L335.151 60.22a.563.563 0 01.562-.974l117.126 67.557a.563.563 0 01-.562.975zM472.672 92.419L355.545 24.862a.563.563 0 11.562-.975l117.127 67.557a.563.563 0 01-.562.975zM478.408 82.474L361.28 14.917a.563.563 0 01.562-.975L478.97 81.5a.563.563 0 01-.562.975zM477.628 79.571L364.184 14.138a.563.563 0 01.562-.974L478.19 78.597a.563.563 0 11-.562.974zM442.225 56.234l-12.413-7.16a.375.375 0 11.374-.65l12.413 7.16a.375.375 0 11-.374.65zM414.527 40.258L402.115 33.1a.375.375 0 01.375-.65l12.412 7.16a.375.375 0 01-.375.65zM433.054 49.472a.375.375 0 01-.137-.513l1.487-2.578.01-.016.09-.14.018-.026.101-.131a.318.318 0 01.024-.029l.111-.117.027-.025.12-.104a.433.433 0 01.036-.029l.129-.086.026-.016.128-.07a.394.394 0 01.05-.024l.133-.05a.326.326 0 01.044-.014l.13-.032a.424.424 0 01.056-.01l.128-.01a.412.412 0 01.062 0l.124.01a.358.358 0 01.065.01l.117.03a.358.358 0 01.065.023l.107.05a.375.375 0 01-.315.68l-.076-.035-.052-.014-.062-.004-.07.006-.08.02-.086.032-.09.05-.095.064-.088.077-.086.09-.08.104-.076.119-1.482 2.57a.375.375 0 01-.513.138z"/><path class="cls-3" d="M426.497 50.08a.563.563 0 01-.207-.769l3.294-5.71.016-.027.092-.14a.531.531 0 01.028-.039l.102-.13a.628.628 0 01.034-.04l.111-.117a.59.59 0 01.039-.037l.12-.105a.562.562 0 01.05-.039l.126-.087a.46.46 0 01.052-.031l.13-.07a.622.622 0 01.064-.03l.133-.051a.595.595 0 01.07-.022l.13-.031a.558.558 0 01.083-.014l.128-.011a.573.573 0 01.093-.001l.124.01a.585.585 0 01.095.015l.117.03a.548.548 0 01.098.035l.107.049a.563.563 0 01-.472 1.02l-.079-.032-.07.002-.054.013-.065.024-.07.04-.075.05-.076.066-.074.079-.072.09-.069.107-3.285 5.696a.563.563 0 01-.768.206zM389.58 20.96l-18.416-10.622a.375.375 0 01.375-.65l18.415 10.622a.375.375 0 01-.375.65z"/><path class="cls-3" d="M444.35 52.55l-40.11-23.134a.375.375 0 01.375-.65l40.11 23.135a.375.375 0 11-.376.65zM477.424 71.627l-18.416-10.622a.375.375 0 11.374-.65L477.8 70.978a.375.375 0 11-.375.65z"/><path class="cls-3" d="M412.56 37.65a.375.375 0 01-.138-.512l1.547-2.694.048-.122.036-.12.022-.119.01-.109-.005-.105-.013-.092-.023-.077-.03-.064-.036-.052-.036-.037-.068-.048a.375.375 0 11.431-.614l.097.069a.41.41 0 01.055.045l.082.086a.34.34 0 01.04.05l.07.102a.367.367 0 01.031.054l.055.116a.394.394 0 01.019.05l.039.13a.415.415 0 01.012.055l.02.138a.293.293 0 01.004.038l.006.148a.285.285 0 01-.001.05l-.013.15-.005.037-.03.157a.323.323 0 01-.008.037l-.047.155a.297.297 0 01-.01.033l-.063.154a.277.277 0 01-.014.031l-.076.149-.01.016-1.486 2.578a.375.375 0 01-.512.138zM415.315 43.63a.563.563 0 01-.206-.768l3.289-5.702.059-.112.04-.101.03-.1.019-.103.008-.09-.014-.147-.034-.094-.03-.038-.053-.037a.563.563 0 01.646-.92l.097.068a.54.54 0 01.079.067l.085.086a.709.709 0 01.062.077l.07.103a.532.532 0 01.043.077l.055.117a.551.551 0 01.028.072l.04.13a.632.632 0 01.018.081l.021.14a.58.58 0 01.006.06l.007.149a.608.608 0 01-.002.076l-.015.152c-.001.016-.003.032-.006.047l-.029.157a.542.542 0 01-.013.06l-.046.155a.626.626 0 01-.018.049l-.061.154a.537.537 0 01-.026.054l-.078.147-.01.018-3.293 5.71a.563.563 0 01-.768.206z"/><path class="cls-3" d="M413.265 42.447a.563.563 0 01-.207-.768l1.17-2.027a.715.715 0 00-.264-.975L403.15 32.44l-.134.223-.072.125a.563.563 0 01-.974-.562l.223-.378.01-.016.066-.1.009-.014.062-.089.021-.027.059-.075a.517.517 0 01.039-.043l.055-.057a.579.579 0 01.056-.05l.051-.04a.577.577 0 01.097-.061l.05-.024a.576.576 0 01.201-.057l.047-.004a.543.543 0 01.225.027l.045.015a.539.539 0 01.103.046l11.137 6.424a1.841 1.841 0 01.676 2.512l-1.17 2.026a.563.563 0 01-.767.206zM428.55 51.263a.563.563 0 01-.207-.768l1.169-2.027a1.84 1.84 0 012.51-.674l11.138 6.424a.519.519 0 01.094.069l.034.03a.564.564 0 01.137.187l.02.042a.568.568 0 01.046.176l.006.056a.61.61 0 01-.002.134l-.01.065a.473.473 0 01-.015.073l-.021.076a.554.554 0 01-.019.056l-.034.088-.012.026-.044.099-.013.025-.12.232-.008.014-.07.123a.562.562 0 01-.766.213.57.57 0 01-.213-.767l.125-.228-10.815-6.238a.714.714 0 00-.974.262l-1.169 2.026a.563.563 0 01-.768.206zM377.338 76.296a.568.568 0 01-.149-.125l-.357-.425-.02-.025-.336-.45-.02-.03-.31-.476-.017-.027-.287-.5-.014-.027-.26-.518-.015-.031-.228-.535-.012-.032-.195-.545-.01-.034-.157-.548-.008-.031-.123-.551-.006-.03-.09-.549-.006-.036-.054-.532-.002-.035-.02-.518v-.036l.012-.514.002-.032.042-.484a.33.33 0 01.004-.039l.09-.58.004-.024.122-.608.007-.032.164-.625.007-.025.202-.644a.462.462 0 01.026-.068l.288-.623.008-.017.32-.635.01-.02.349-.63 7.513-13.027a.563.563 0 01.765-.208l3.89 2.205a.575.575 0 01.265.342.562.562 0 01-.056.428l-2.721 4.719 3.843 2.216a.562.562 0 01.206.769l-2.233 3.871a.563.563 0 01-.768.206l-3.844-2.216-1.221 2.117-.854 1.516-.121.241-.112.249-.106.26-.186.532-.07.266-.055.266-.032.253-.01.283.008.31.03.317.057.338.081.354.118.376.143.395.193.42.235.457.3.5.37.561a.562.562 0 01-.195.802l-3.839 2.133a.562.562 0 01-.555-.005zm.366-1.262l.048.058 2.902-1.611-.043-.065-.014-.022-.314-.527-.017-.03-.25-.484-.012-.024-.207-.454a.453.453 0 01-.018-.042l-.155-.428-.008-.024-.128-.41a.594.594 0 01-.011-.041l-.09-.391-.007-.033-.062-.374-.005-.038-.035-.358a.36.36 0 01-.002-.041l-.009-.347v-.033l.012-.325c0-.017.002-.034.005-.052l.038-.3a.387.387 0 01.007-.044l.062-.301.007-.027.078-.298a.341.341 0 01.011-.04l.204-.582.008-.021.115-.28.006-.018.12-.268.012-.025.132-.26.008-.017.142-.26.728-1.283 1.504-2.609a.563.563 0 01.768-.206l3.844 2.217 1.67-2.897-3.843-2.217a.563.563 0 01-.206-.768l2.72-4.715-2.911-1.65-7.23 12.534-.338.613-.311.616-.268.581-.187.597-.156.597-.117.579-.084.548-.038.448-.012.478.018.482.05.498.087.515.116.52.147.514.182.512.214.503.245.488.271.473.291.447zM413.766 72.293l-.02-.013-.205-.13-.036-.024-.192-.145a.79.79 0 01-.035-.028l-.19-.17-.04-.038-.166-.18a.24.24 0 01-.022-.026l-.16-.195-.027-.035-.147-.213a.58.58 0 01-.025-.04l-.124-.214a.44.44 0 01-.026-.052l-.097-.219a.397.397 0 01-.014-.032l-.083-.224a.625.625 0 01-.017-.053l-.06-.228a.366.366 0 01-.01-.041l-.043-.236a.53.53 0 01-.007-.048l-.023-.241a.453.453 0 01-.003-.053v-.245c-.001-.016 0-.031.001-.046l.02-.245.002-.024.031-.252a.74.74 0 01.012-.065l.058-.237.013-.042.075-.227.01-.028.087-.22a.561.561 0 01.026-.058l.101-.192a.364.364 0 01.02-.035l.128-.205a.567.567 0 01.035-.05l.156-.198.019-.022.166-.19a.508.508 0 01.04-.041l.19-.175a.54.54 0 01.03-.026l.201-.163a.679.679 0 01.038-.027l.21-.142.035-.022.219-.126a.442.442 0 01.046-.023l.224-.103.033-.013.225-.087.05-.016.23-.064a.45.45 0 01.051-.012l.242-.044.044-.006.241-.023a.45.45 0 01.056-.003l.26.001.034.001.25.016a.48.48 0 01.048.005l.244.037c.017.002.033.005.05.01l.25.06.032.009.225.069a.56.56 0 01.056.02l.215.092a.408.408 0 01.039.018l.21.11a.57.57 0 01.043.025l.196.124.034.024.187.14a.7.7 0 01.042.036l.177.162.028.028.174.184.027.031.16.197a.567.567 0 01.033.044l.138.208a.397.397 0 01.023.038l.121.22c.007.01.013.023.019.035l.103.221a.513.513 0 01.02.052l.08.229.013.036.063.232a.499.499 0 01.014.062l.038.24a.29.29 0 00.004.03l.024.246a.46.46 0 01.003.036l.009.256a.598.598 0 01-.002.077l-.06.525a.7.7 0 01-.015.072l-.065.247-.013.042-.082.237-.012.03-.096.231a.592.592 0 01-.022.047l-.112.214a.474.474 0 01-.023.04l-.117.183a.522.522 0 01-.028.04l-.143.188-.023.028-.156.178a.405.405 0 01-.029.031l-.173.171a.568.568 0 01-.055.048l-.202.153-.014.01-.2.142a.543.543 0 01-.054.034l-.218.12a.41.41 0 01-.045.021l-.224.099a.376.376 0 01-.04.014l-.227.08-.027.01-.222.065a.563.563 0 01-.058.014l-.231.042a.553.553 0 01-.059.008l-.249.019a.457.457 0 01-.039.001l-.245.001h-.044l-.252-.02a.477.477 0 01-.049-.004l-.246-.04a.308.308 0 01-.04-.008l-.245-.058a.604.604 0 01-.048-.013l-.24-.078a.498.498 0 01-.043-.017l-.22-.093-.04-.019-.21-.109zm.398-1.079l.164.104.168.088.179.075.195.064.202.047.202.033.206.015.204-.002.2-.015.172-.032.18-.053.195-.068.181-.079.168-.092.33-.242.132-.13.13-.15.118-.154.091-.144.09-.17.08-.193.07-.202.05-.19.049-.42-.008-.199-.021-.212-.03-.192-.05-.183-.066-.185-.083-.179-.101-.181-.11-.167-.13-.16-.146-.154-.142-.13-.146-.11-.156-.1-.168-.087-.169-.072-.18-.056-.21-.05-.196-.03-.21-.013-.214-.001-.19.019-.192.034-.179.05-.185.071-.184.084-.178.102-.174.118-.168.135-.153.142-.138.157-.127.16-.1.163-.078.145-.07.178-.062.19-.045.183-.026.206-.017.21v.195l.02.191.035.191.048.181.068.182.078.176.097.168.12.175.135.164.137.147.153.136zM405.177 91.662l-3.874-2.235a.563.563 0 01-.206-.768l8.988-15.583a.562.562 0 01.769-.206l3.873 2.234a.562.562 0 01.207.769l-8.988 15.583a.563.563 0 01-.769.206zm-2.824-2.928l2.9 1.672 8.425-14.608-2.9-1.672zM389.98 83.427l-.02-.011-.51-.322-.023-.015-.497-.347-.027-.02-.47-.372-.027-.023-.442-.4-.026-.024-.41-.421-.019-.02-.389-.437-.023-.029-.358-.462-.02-.027-.324-.476-.02-.032-.293-.495-.015-.028-.264-.512-.015-.03-.233-.53a.3.3 0 01-.015-.036l-.195-.54-.008-.023-.17-.55-.01-.037-.132-.556-.006-.032-.1-.568-.005-.038-.06-.573-.002-.027-.031-.575a.83.83 0 010-.04l.008-.574a.205.205 0 01.001-.027l.036-.57.004-.037.075-.572.006-.035.112-.567.008-.035.15-.566.008-.03.182-.564.012-.033.22-.559.013-.03.25-.543a.35.35 0 01.018-.036l.286-.522.012-.021.308-.508a.352.352 0 01.022-.033l.347-.492.02-.027.373-.47.023-.027.396-.437.02-.021.416-.414.025-.023.437-.386a.49.49 0 01.028-.023l.455-.351.033-.024.477-.316.022-.014.491-.294.034-.02.515-.26.027-.013.524-.233.034-.014.54-.198a.412.412 0 01.033-.01l.547-.163a.332.332 0 01.033-.01l.562-.13.03-.007.563-.1.037-.004.574-.064a.253.253 0 01.036-.002l.576-.028h.032l.574.005h.036l.575.043c.012 0 .025.003.037.004l.577.081a.233.233 0 01.031.006l.576.113.03.007.57.146.035.01.565.186.028.01.559.216.034.014.55.255a.31.31 0 01.033.017l.53.29.022.012.521.317a.302.302 0 01.032.02l.495.348a.46.46 0 01.029.022l.465.375.02.017.452.402.03.026.41.421.023.024.381.437.021.027.35.453.019.025.33.48.02.033.29.494.014.025.266.514a.458.458 0 01.017.034l.23.528c.006.01.01.021.014.032l.197.538.01.028.17.555.01.034.132.555.007.035.097.566.005.03.066.573.003.034.03.576.002.036-.007.574c0 .012 0 .024-.002.036l-.043.568-.003.028-.072.571a.346.346 0 01-.007.041l-.116.572-.007.03-.149.568c-.002.01-.005.02-.009.029l-.178.562-.013.034-.22.56-.011.027-.25.549-.017.034-.283.522a.22.22 0 01-.016.028l-.311.507-.021.032-.349.49-.018.023-.373.47-.023.026-.398.44-.022.023-.416.412-.025.022-.433.382-.03.024-.46.35-.024.019-.468.319a.413.413 0 01-.03.02l-.494.293-.032.018-.514.261-.029.014-.53.232c-.01.005-.02.01-.031.012l-.539.2-.032.011-.547.165a.348.348 0 01-.04.01l-.562.126-.025.005-.567.1a.27.27 0 01-.036.006l-.572.064-.036.003-.577.026-.03.001-.572-.003c-.015 0-.028 0-.042-.002l-.58-.046-.026-.003-.57-.072-.04-.007-.568-.114-.027-.006-.57-.145-.037-.01-.576-.189-.031-.011-.555-.219-.03-.014-.549-.255-.024-.012-.54-.284zm.08-1.278l.482.303.507.268.52.243.524.206.542.177.538.137.535.107.536.069.545.043.538.003.545-.025.536-.06.536-.095.53-.12.511-.153.507-.188.5-.219.483-.246.463-.275.441-.301.433-.33.406-.357.394-.39.376-.416.353-.443.328-.461.294-.478.266-.492.236-.518.207-.528.17-.53.141-.538.109-.536.067-.536.041-.536.007-.537-.03-.54-.062-.54-.091-.533-.124-.52-.16-.521-.187-.51-.217-.495-.252-.484-.271-.463-.31-.45-.33-.427-.36-.414-.386-.394-.428-.38-.44-.355-.464-.326-.494-.3-.502-.274-.516-.24-.53-.203-.533-.176-.536-.137-.545-.108-.543-.077-.538-.039-.54-.005-.543.026-.54.06-.53.093-.532.125-.512.152-.507.186-.493.22-.484.246-.464.277-.45.298-.423.327-.411.362-.394.391-.374.414-.353.443-.326.464-.292.48-.27.495-.236.511-.208.528-.172.534-.14.534-.106.532-.07.535-.035.537-.008.54.03.543.056.54.093.53.123.522.16.517.185.51.218.495.25.483.274.467.305.446.335.433.368.414.388.398.416.375.443.351zm2.04-2.4l-.018-.01-.316-.2c-.013-.007-.025-.015-.037-.024l-.293-.218a.198.198 0 01-.025-.02l-.287-.238a.603.603 0 01-.037-.034l-.264-.263-.022-.023-.25-.278a.409.409 0 01-.029-.035l-.228-.3a.346.346 0 01-.022-.03l-.206-.312a.372.372 0 01-.022-.036l-.184-.33a.674.674 0 01-.023-.045l-.151-.339-.008-.018-.143-.355a.408.408 0 01-.017-.046l-.113-.373a.504.504 0 01-.012-.047l-.08-.37-.004-.023-.065-.384a.533.533 0 01-.006-.05l-.03-.387a.306.306 0 010-.044v-.382l.001-.036.025-.382.004-.035.05-.379.004-.032.074-.384a.574.574 0 01.012-.051l.109-.37c.002-.012.006-.023.01-.034l.133-.368a.516.516 0 01.019-.046l.162-.352.013-.026.18-.341a.564.564 0 01.022-.039l.204-.324.016-.024.225-.32a.55.55 0 01.03-.038l.252-.3.021-.023.27-.284a.696.696 0 01.04-.039l.294-.252.022-.018.306-.236a.525.525 0 01.032-.023l.316-.212.03-.018.33-.191a.525.525 0 01.037-.02l.346-.167.047-.02.37-.138.024-.009.359-.115c.014-.005.03-.008.045-.012l.38-.088.037-.007.383-.06.03-.005.369-.038a.78.78 0 01.052-.003l.377-.003c.015 0 .029 0 .043.002l.372.025.03.003.373.046a.47.47 0 01.048.008l.366.077a.442.442 0 01.035.008l.355.099.034.01.357.124a.476.476 0 01.052.021l.332.153.03.014.33.177.03.018.318.197.028.018.294.208a.67.67 0 01.043.034l.29.25.023.02.274.266.03.032.243.274c.01.01.018.02.026.031l.23.302a.295.295 0 01.02.03l.204.307.022.036.182.325a.51.51 0 01.019.036l.16.343.017.039.137.36.013.04.11.369.008.033.086.371.008.046.056.383.004.03.035.386a.41.41 0 01.002.049v.382a.21.21 0 010 .03l-.02.382a.923.923 0 01-.005.046l-.052.383-.007.041-.08.375-.006.025-.099.381a.889.889 0 01-.019.06l-.14.363-.01.025-.157.36c-.006.01-.01.022-.017.033l-.178.34a.447.447 0 01-.023.038l-.206.326c-.006.012-.014.023-.021.033l-.23.314-.017.021-.245.304a.628.628 0 01-.043.047l-.278.273-.016.016-.287.26a.32.32 0 01-.036.029l-.303.232a.666.666 0 01-.033.025l-.322.21-.027.017-.33.191a.46.46 0 01-.044.023l-.352.165-.033.014-.357.14a.397.397 0 01-.039.014l-.366.114-.034.01-.374.09a.594.594 0 01-.052.01l-.377.055a.314.314 0 01-.031.003l-.378.034-.039.003-.373.007h-.042l-.371-.022a.324.324 0 01-.04-.003l-.373-.047-.041-.007-.359-.073a.35.35 0 01-.038-.01l-.368-.1a.38.38 0 01-.046-.016l-.357-.132-.026-.011-.332-.142-.04-.02-.331-.174zm.282-1.15l.28.176.293.154.298.128.32.12.327.09.32.065.332.042.33.018.333-.007.343-.03.335-.05.332-.08.329-.102.321-.127.314-.146.296-.172.292-.191.268-.206.26-.236.248-.242.216-.269.21-.287.184-.29.16-.303.143-.328.123-.322.089-.338.073-.341.045-.34.018-.344V74.3l-.03-.345-.051-.344-.077-.333-.099-.332-.121-.321-.144-.306-.161-.288-.181-.274-.206-.27-.214-.242-.247-.239-.256-.221-.26-.182-.287-.18-.3-.16-.29-.134-.315-.109-.321-.089-.327-.069-.333-.04-.336-.023-.328.003-.327.033-.348.055-.338.078-.322.104-.333.123-.302.146-.296.173-.285.19-.278.215-.26.224-.239.25-.225.268-.203.287-.185.294-.163.309-.146.317-.119.33-.095.328-.065.339-.045.344-.024.347v.342l.026.337.058.347.072.335.1.326.13.322.136.306.162.29.184.28.203.265.224.25.236.234.256.213zM416.034 98.456l-.018-.012-.51-.32-.022-.015-.5-.35a.281.281 0 01-.027-.02l-.465-.37-.025-.02-.451-.404-.028-.026-.411-.422-.019-.02-.39-.438-.025-.03-.353-.46-.02-.028-.32-.473a.416.416 0 01-.019-.03l-.29-.495-.016-.027-.264-.512-.014-.031-.233-.527a.498.498 0 01-.015-.038l-.192-.538-.006-.02-.175-.551-.011-.038-.135-.557-.007-.033-.103-.57a.753.753 0 01-.007-.048l-.052-.569-.04-.594a.494.494 0 01-.001-.05l.013-.572.002-.029.042-.565.004-.04.083-.567.003-.019.103-.572a.324.324 0 01.008-.038l.143-.57.01-.035.182-.564a.274.274 0 01.012-.033l.22-.56.015-.035.257-.54.012-.025.28-.525.019-.031.313-.505.015-.023.34-.496.024-.031.374-.47a.288.288 0 01.024-.027l.395-.438.025-.026.422-.41a.285.285 0 01.027-.024l.447-.381.017-.014.449-.353a.355.355 0 01.03-.023l.47-.32c.007-.007.016-.012.024-.017l.488-.296a.336.336 0 01.044-.024l.521-.258.015-.007.517-.236a.35.35 0 01.043-.018l.545-.197.033-.01.55-.16.033-.009.566-.129.024-.005.56-.102.04-.006.576-.062.032-.003.573-.03a.402.402 0 01.034 0l.576.006a.202.202 0 01.033.001l.57.039.038.004.573.079.033.005.576.115.03.007.57.146.038.012.574.19.025.009.555.213.035.015.552.257a.307.307 0 01.033.016l.528.288.023.014.514.312a.3.3 0 01.03.02l.496.348c.01.007.02.014.028.022l.47.377.021.019.447.398.026.025.417.423.023.025.383.438.02.025.354.456.021.029.322.476c.006.009.013.018.018.028l.295.496.014.024.275.518a.844.844 0 01.02.043l.224.524.011.028.198.538.009.027.173.556.01.034.134.556c.004.014.006.03.009.044l.089.562.003.026.063.57.002.029.033.578.001.04-.008.573v.028l-.036.57-.004.04-.078.572-.004.029-.11.573a.409.409 0 01-.01.043l-.153.565-.007.023-.18.562-.014.04-.226.556-.006.015-.243.552a.509.509 0 01-.02.044l-.286.521-.013.023-.31.51a.484.484 0 01-.027.039l-.354.484-.01.013-.368.473-.027.033-.398.44-.018.018-.41.415-.034.03-.44.379-.022.018-.455.352a.54.54 0 01-.033.023l-.476.317-.023.014-.493.295-.036.02-.516.259-.024.011-.526.235-.027.012-.53.204-.042.013-.549.164-.04.01-.565.124-.021.004-.568.102-.032.004-.565.068-.046.004-.587.021-.025.001-.574-.004a.31.31 0 01-.039-.002l-.575-.044-.03-.003-.574-.075a.49.49 0 01-.038-.006l-.569-.114-.029-.007-.576-.149-.034-.009-.57-.186-.032-.011-.559-.22-.03-.014-.549-.255-.024-.013-.532-.28zm.083-1.277l.48.302.5.263.52.243.528.208.537.174.544.14.534.108.54.07.54.042.545.004.55-.02.526-.064.541-.097.534-.116.508-.151.496-.191.501-.224.486-.245.464-.277.449-.297.427-.331.411-.354.387-.39.376-.415.35-.45.336-.459.29-.476.267-.49.23-.523.215-.528.169-.53.144-.531.102-.537.073-.536.034-.537.007-.54-.031-.543-.06-.542-.083-.525-.124-.516-.164-.525-.188-.513-.209-.489-.258-.485-.279-.47-.303-.447-.333-.429-.36-.413-.393-.398-.422-.376-.443-.357-.465-.326-.487-.296-.5-.274-.519-.24-.524-.202-.544-.18-.537-.139-.545-.108-.537-.074-.534-.036-.542-.006-.54.028-.54.059-.527.096-.539.123-.516.15-.506.182-.488.224-.493.242-.453.276-.441.302-.425.335-.425.362-.396.385-.371.41-.352.441-.322.469-.297.479-.266.497-.242.51-.206.526-.171.53-.135.533-.097.544-.079.539-.04.532-.012.531.038.555.048.53.096.53.127.523.165.523.183.509.218.494.248.483.274.466.3.444.33.43.369.413.389.399.425.38.438.349zm2.039-2.401l-.019-.01-.312-.198-.034-.023-.3-.222a.207.207 0 01-.026-.02l-.287-.238a.5.5 0 01-.036-.034l-.266-.264-.02-.02-.255-.282c-.012-.012-.022-.025-.032-.04l-.224-.296a.308.308 0 01-.019-.026l-.21-.315a.394.394 0 01-.027-.044l-.175-.325a.269.269 0 01-.014-.028l-.162-.345a.357.357 0 01-.015-.036l-.137-.35a.442.442 0 01-.016-.05l-.105-.367-.006-.025-.089-.376a.342.342 0 01-.008-.041l-.06-.382a.54.54 0 01-.006-.047l-.028-.384a.404.404 0 01-.001-.036l-.003-.384.001-.035.02-.383.004-.043.05-.38a.54.54 0 01.008-.042l.079-.379.007-.028.099-.375a.707.707 0 01.017-.054l.136-.366.013-.032.158-.355.016-.034.18-.34a.444.444 0 01.022-.04l.204-.324.021-.03.23-.317.02-.027.249-.301c.011-.014.024-.027.036-.04l.278-.278.024-.022.287-.256.03-.026.305-.235c.012-.01.024-.018.037-.026l.32-.209.03-.018.334-.19.033-.016.345-.167a.543.543 0 01.04-.017l.36-.141a.51.51 0 01.046-.016l.37-.109a.184.184 0 01.023-.007l.37-.093.04-.008.376-.064a.488.488 0 01.048-.007l.38-.03.033-.003.368-.008a.526.526 0 01.054 0l.375.028.026.002.37.044a.64.64 0 01.051.009l.37.08.034.008.357.1.033.01.355.122a.487.487 0 01.054.022l.338.157.029.014.325.174.03.017.316.196.027.018.301.212a.45.45 0 01.044.035l.29.248.025.023.266.262.028.027.246.277.031.038.221.297.015.021.21.31a.416.416 0 01.024.038l.187.327.022.045.156.34.015.037.134.359a.231.231 0 01.01.03l.115.37.012.045.083.37.007.04.057.382.003.024.041.39a.53.53 0 01.003.06v.38l-.001.042-.029.379-.004.04-.057.379-.004.025-.074.38-.011.046-.108.376-.01.031-.129.37c-.006.016-.012.033-.02.05l-.164.354-.015.03-.181.338-.018.03-.202.328-.019.028-.224.317c-.01.016-.021.03-.033.043l-.255.298-.024.025-.27.278a.44.44 0 01-.032.03l-.293.257-.021.018-.299.237-.03.022-.314.215a.633.633 0 01-.035.022l-.33.191a.54.54 0 01-.054.029l-.359.16-.025.01-.358.14-.034.013-.363.116a.63.63 0 01-.043.011l-.38.088a.424.424 0 01-.043.008l-.373.057-.03.003-.372.037a.374.374 0 01-.048.003l-.379.005c-.014 0-.028 0-.042-.002l-.376-.023-.032-.003-.367-.044-.047-.007-.362-.076-.033-.008-.362-.098a.544.544 0 01-.049-.015l-.356-.132-.027-.011-.339-.147-.039-.019-.329-.173zm.286-1.148l.276.173.29.154.306.132.317.118.321.086.323.067.327.039.339.021.334-.004.334-.033.337-.051.336-.078.325-.103.328-.128.32-.143.286-.167.28-.192.272-.216.266-.231.241-.249.227-.264.198-.282.185-.299.165-.308.146-.315.115-.328.096-.337.066-.343.052-.347.026-.337v-.33l-.037-.348-.052-.35-.073-.329-.103-.334-.122-.324-.137-.3-.163-.287-.191-.283-.2-.266-.216-.243-.242-.236-.254-.22-.264-.185-.287-.178-.295-.157-.298-.139-.312-.107-.325-.09-.329-.072-.33-.04-.336-.023-.324.007-.338.028-.33.057-.338.085-.334.098-.32.126-.309.149-.302.171-.287.187-.271.21-.26.232-.248.248-.22.266-.21.288-.182.29-.16.305-.144.323-.12.324-.09.335-.07.344-.045.337-.019.345.003.349.024.342.054.336.08.343.094.33.12.309.147.312.155.288.187.28.198.262.228.252.238.236.254.212zM344.773 109.915a.563.563 0 01-.207-.768l2.961-5.133a.563.563 0 01.974.562l-2.96 5.133a.563.563 0 01-.768.206zM348.258 108.981l-.013-.007a.563.563 0 01-.186-.774l1.763-2.88a.562.562 0 11.959.587l-1.763 2.88a.562.562 0 01-.76.194zM404.44 144.33a.563.563 0 01-.206-.768l2.96-5.133a.563.563 0 01.975.562l-2.96 5.133a.562.562 0 01-.769.206zM378.924 128.664l-7.811-4.505a9.046 9.046 0 01-4.399-6.275l-.468-2.656a.563.563 0 111.108-.195l.468 2.655a7.923 7.923 0 003.853 5.496l7.811 4.506a7.923 7.923 0 006.687.582l2.533-.923a.563.563 0 11.386 1.057l-2.534.924a9.047 9.047 0 01-7.634-.666z"/><path class="cls-4" d="M331.442 94.736l-2.762 4.79a2.977 2.977 0 11-5.157-2.974l2.763-4.79zM429.412 151.244l-2.763 4.79a2.977 2.977 0 11-5.157-2.975l2.763-4.79z"/><path class="cls-3" d="M433.92 154.494L321.216 89.487a.563.563 0 01.562-.975l112.706 65.008a.563.563 0 01-.562.974z"/><path class="cls-5" d="M422.209 157.774a3.734 3.734 0 01-1.761-4.103.75.75 0 01-.362-.1l-15.74-9.078a3.303 3.303 0 01-1.214-4.499l1.257-2.317-15.364-8.862a2.889 2.889 0 01-.953.754l-3.167 1.546a10.092 10.092 0 01-9.481-.326l-4.399-2.537a10.093 10.093 0 01-5.03-8.044l-.247-3.511a2.908 2.908 0 01.176-1.206l-5.643-3.253a2.453 2.453 0 01-2.5.03l-7.887-4.55-.71 1.16a3.305 3.305 0 01-4.505 1.2L328.941 101a.75.75 0 01-.268-.263 3.727 3.727 0 01-5.8-4.56l2.388-4.14-4.138-2.387a.75.75 0 01-.373-.709l.421-5.287a.75.75 0 01.015-.723l39.727-68.876a.75.75 0 01.455-.35l2.903-.778a.75.75 0 01.569.074l6.625 3.822.794-1.377a.526.526 0 00-.192-.718l-2.577-1.487a.75.75 0 01-.275-1.024l1.487-2.579a2.026 2.026 0 012.765-.743l16.207 9.349a2.027 2.027 0 01.748 2.756l-2.793 5.146 13.096 7.553 3.058-4.992a2.027 2.027 0 012.76-.734l37.9 21.86a2.028 2.028 0 01.749 2.758l-2.791 5.146 13.092 7.552 3.058-4.993a2.028 2.028 0 012.761-.733l16.206 9.348a2.027 2.027 0 01.743 2.766l-1.487 2.579a.75.75 0 01-1.025.275l-2.578-1.488a.526.526 0 00-.718.194l-.794 1.376 6.625 3.822a.75.75 0 01.35.455l.78 2.902a.75.75 0 01-.075.57l-39.727 68.875a.75.75 0 01-.618.375l-4.363 3.013a.751.751 0 01-.801.033l-4.143-2.39-2.388 4.14a3.73 3.73 0 01-5.09 1.366zm1.587-10.635l.834.481a.75.75 0 01.275 1.024l-2.763 4.79a2.227 2.227 0 103.858 2.225l2.762-4.79a.75.75 0 011.024-.275l4.382 2.528 4.257-2.94a.77.77 0 01.097-.057l39.362-68.244-.618-2.302-7.006-4.041a.75.75 0 01-.275-1.024l1.169-2.027a2.028 2.028 0 012.766-.743l1.93 1.113 1.112-1.93a.526.526 0 00-.193-.717l-16.206-9.347a.526.526 0 00-.718.192l-.01.017-3.444 5.624a.75.75 0 01-1.015.257l-14.357-8.281a.75.75 0 01-.285-1.007l3.143-5.797.01-.017a.527.527 0 00-.194-.718l-37.9-21.86a.525.525 0 00-.716.193l-.01.016-3.444 5.624a.75.75 0 01-1.014.258l-14.362-8.284a.75.75 0 01-.285-1.007l3.146-5.796.009-.017a.525.525 0 00-.192-.717l-16.208-9.348a.525.525 0 00-.716.193l-1.112 1.929 1.927 1.111a2.028 2.028 0 01.742 2.767l-1.169 2.027a.75.75 0 01-1.024.275l-7.006-4.041-2.302.617-39.362 68.244a.814.814 0 01-.001.111l-.411 5.16 4.377 2.524a.75.75 0 01.275 1.025l-2.762 4.79a2.227 2.227 0 103.857 2.224l2.763-4.79a.75.75 0 011.024-.274l.834.48a.75.75 0 01.275 1.025l-2.586 4.483 15.089 8.703a1.804 1.804 0 002.46-.659l.01-.017 1.098-1.79a.75.75 0 011.014-.258l8.519 4.914a.953.953 0 001.155-.158.75.75 0 01.909-.124l6.581 3.795a.75.75 0 01.364.519l.035.197a.757.757 0 01-.083.496l-.077.137a1.383 1.383 0 00-.168.764l.247 3.508a8.594 8.594 0 004.282 6.85l4.398 2.538a8.596 8.596 0 008.075.277l3.164-1.544a1.388 1.388 0 00.574-.529l.084-.138a.755.755 0 01.384-.316l.188-.068a.751.751 0 01.632.055l16.498 9.516a.75.75 0 01.284 1.008l-1.61 2.967-.01.017a1.802 1.802 0 00.66 2.458l15.09 8.704 2.586-4.483a.75.75 0 011.024-.275z"/><path class="cls-6" d="M495.055 158.363h-.01a1.5 1.5 0 11.01 0zm-6.01-.01h-.01a1.5 1.5 0 11.01 0zm-6.01-.01h-.01a1.5 1.5 0 11.01 0zm-6.01-.01h-.01a1.5 1.5 0 11.01 0zm-6.01-.009h-.01a1.5 1.5 0 11.01 0zm-6.01-.01h-.01a1.5 1.5 0 11.01 0zm-6.01-.01h-.01a1.5 1.5 0 11.01 0zm-6.01-.01h-.01a1.5 1.5 0 11.01 0zm-6.01-.01h-.01a1.5 1.5 0 11.01 0zm-6.01-.009h-.01a1.5 1.5 0 11.01 0zm-6.01-.01h-.01a1.5 1.5 0 11.01 0zm-6.01-.01h-.01a1.5 1.5 0 11.01 0zm-6.01-.01h-.01a1.5 1.5 0 11.01 0zm-6.01-.009h-.01a1.5 1.5 0 11.01 0zm-6.01-.01h-.01a1.5 1.5 0 11.01 0zm-6.01-.01h-.01a1.5 1.5 0 11.01 0zm-6.01-.01h-.01a1.5 1.5 0 11.01 0zm-6.01-.009h-.01a1.5 1.5 0 11.01 0zm-6.01-.01h-.01a1.5 1.5 0 11.01 0zm-6.01-.01h-.01a1.5 1.5 0 11.01 0zm-6.01-.01h-.01a1.5 1.5 0 11.01 0zm-6.01-.009h-.01a1.5 1.5 0 11.01 0zm-6.01-.01h-.01a1.5 1.5 0 11.01 0zm-6.01-.01h-.01a1.5 1.5 0 11.01 0zm-6.01-.01h-.01a1.5 1.5 0 11.01 0zm-6.01-.01h-.01a1.5 1.5 0 11.01 0zm-6.01-.009h-.01a1.5 1.5 0 11.01 0zm-6.01-.01h-.01a1.5 1.5 0 11.01 0zm-6.01-.01h-.01a1.5 1.5 0 11.01 0zm-6.01-.01h-.01a1.5 1.5 0 11.01 0zm-6.01-.009h-.01a1.5 1.5 0 11.01 0zm-6.01-.01h-.01a1.5 1.5 0 11.01 0zm-6.01-.01h-.01a1.5 1.5 0 11.01 0zm-6.01-.01h-.01a1.5 1.5 0 11.01 0zm-6.01-.009h-.01a1.5 1.5 0 11.01 0zm-6.01-.01h-.01a1.5 1.5 0 11.01 0zM362.088 106.202l1.515 14.44-13.263-5.909 11.748-8.531z"/><path class="cls-6" d="M363.8 120.913l-13.794-6.145 12.219-8.873zm-13.127-6.215l12.733 5.672-1.454-13.861zM491.02 179.574a1.486 1.486 0 01-.724-.188l-.009-.005a1.493 1.493 0 11.733.193zm-5.202-3.01a1.486 1.486 0 01-.724-.188l-.01-.005a1.493 1.493 0 11.734.193zm-5.203-3.009a1.493 1.493 0 01-.756-.207l-.008-.004a1.493 1.493 0 11.764.211zm-5.202-3.01a1.486 1.486 0 01-.724-.188l-.009-.005a1.493 1.493 0 11.733.194zm-5.202-3.008a1.486 1.486 0 01-.724-.189l-.009-.004a1.493 1.493 0 11.733.193zm-5.203-3.01a1.493 1.493 0 01-.756-.207l-.008-.005a1.493 1.493 0 11.764.212zm-5.202-3.009a1.486 1.486 0 01-.724-.188l-.009-.005a1.493 1.493 0 11.733.193zm-5.202-3.01a1.486 1.486 0 01-.724-.188l-.009-.005a1.493 1.493 0 11.733.194zm-5.203-3.008a1.493 1.493 0 01-.756-.207l-.008-.005a1.494 1.494 0 11.764.212zm-5.202-3.01a1.486 1.486 0 01-.724-.188l-.009-.005a1.493 1.493 0 11.733.193zm-5.203-3.01a1.486 1.486 0 01-.827-.25l-.008-.007a1.495 1.495 0 11.835.257zm-5.202-3.009a1.486 1.486 0 01-.724-.188l-.009-.005a1.493 1.493 0 11.733.193zm-5.202-3.01a1.486 1.486 0 01-.724-.188l-.009-.005a1.493 1.493 0 11.733.194zm-5.202-3.008a1.486 1.486 0 01-.724-.189l-.009-.004a1.493 1.493 0 11.733.193zm-5.203-3.01a1.486 1.486 0 01-.724-.188l-.008-.005a1.493 1.493 0 11.732.193zm-5.202-3.009a1.486 1.486 0 01-.724-.188l-.009-.005a1.493 1.493 0 11.733.193zm-5.202-3.01a1.493 1.493 0 01-.757-.206l-.008-.005a1.493 1.493 0 11.765.212zm-5.202-3.008a1.486 1.486 0 01-.725-.189l-.008-.005a1.493 1.493 0 11.733.194zm-5.203-3.01a1.486 1.486 0 01-.724-.188l-.009-.005a1.493 1.493 0 11.733.193zm-5.203-3.01a1.49 1.49 0 01-.86-.273l-.008-.006a1.496 1.496 0 11.868.28zm-5.201-3.009a1.486 1.486 0 01-.725-.188l-.008-.005a1.493 1.493 0 11.733.193zm-5.204-3.01a1.486 1.486 0 01-.826-.25l-.009-.006a1.495 1.495 0 11.835.257zm-5.201-3.008a1.493 1.493 0 01-.757-.207l-.008-.005a1.494 1.494 0 11.765.212zm-5.202-3.01a1.486 1.486 0 01-.724-.188l-.01-.005a1.493 1.493 0 11.734.193zm-5.203-3.009a1.486 1.486 0 01-.724-.188l-.008-.005a1.493 1.493 0 11.732.193zm-5.202-3.01a1.493 1.493 0 01-.756-.206l-.009-.005a1.494 1.494 0 11.765.212zm-5.202-3.008a1.486 1.486 0 01-.724-.189l-.01-.005a1.493 1.493 0 11.734.194zm-5.202-3.01a1.486 1.486 0 01-.725-.188l-.008-.005a1.493 1.493 0 11.733.193zm-5.203-3.009a1.486 1.486 0 01-.724-.188l-.009-.005a1.493 1.493 0 11.733.193zm-5.202-3.01a1.493 1.493 0 01-.757-.207l-.008-.004a1.493 1.493 0 11.765.211zm-5.202-3.008a1.486 1.486 0 01-.724-.189l-.01-.005a1.494 1.494 0 11.734.194zm-5.203-3.01a1.486 1.486 0 01-.724-.189l-.008-.004a1.493 1.493 0 11.732.193zm-5.203-3.01a1.49 1.49 0 01-.86-.273l-.008-.006a1.496 1.496 0 11.868.28zm-5.201-3.009a1.486 1.486 0 01-.724-.188l-.01-.005a1.493 1.493 0 11.734.193zm-5.203-3.01a1.486 1.486 0 01-.827-.25l-.009-.006a1.495 1.495 0 11.836.257zm-5.202-3.008a1.493 1.493 0 01-.756-.207l-.009-.005a1.493 1.493 0 11.765.212zm-5.202-3.01a1.486 1.486 0 01-.724-.188l-.01-.005a1.493 1.493 0 11.734.193zm-5.202-3.009a1.486 1.486 0 01-.725-.188l-.008-.005a1.494 1.494 0 11.733.193zm-5.203-3.01a1.493 1.493 0 01-.756-.206l-.009-.005a1.493 1.493 0 11.765.212z"/><path class="cls-6" d="M351.595 155.31l-3.999-.105a112.448 112.448 0 017.923-38.647l3.718 1.475a108.459 108.459 0 00-7.642 37.277z"/><path class="cls-7" d="M331.814 128.98c0-3.709 1.117-7.22 5.222-7.22 3.169 0 5.221 2.09 5.221 7.22 0 5.15-2.034 7.257-5.22 7.257-3.224 0-5.223-2.125-5.223-7.257zm7.725-.99c-.09-2.755-.81-4.16-2.485-4.16-1.693 0-2.431 1.424-2.503 4.16zm-2.503 6.176c1.53 0 2.466-.936 2.503-4.087h-4.988c.036 3.259 1.027 4.087 2.485 4.087z"/><path class="cls-8" d="M256.326 0h252.066v187.553H256.326z"/></g></g></svg>