<svg xmlns="http://www.w3.org/2000/svg" viewBox="0 0 508.39205 187.55314"><defs><style>.cls-1{fill:#fff;}.cls-2{fill:#e5e5e6;}.cls-3{fill:#c8c9ca;}.cls-4{fill:#9e9e9f;}.cls-5{fill:#231815;}.cls-6{fill:#bfd833;}.cls-7{fill:#666;}.cls-8{fill:none;}</style></defs><title>アセット 1501</title><g id="レイヤー_2" data-name="レイヤー 2"><g id="レイヤー_2-2" data-name="レイヤー 2"><path class="cls-1" d="M186.44831,89.83386l-.45024-5.63145.11041-.06375L146.35263,15.27951l-2.90311-.77734-7.27279,4.199-1.1697-2.026a1.27524,1.27524,0,0,1,.46571-1.74216l2.57651-1.48755-1.4883-2.57781a1.27287,1.27287,0,0,0-1.74-.4678L118.6172,19.755a1.27411,1.27411,0,0,0-.46608,1.74151l3.14747,5.79448-14.35918,8.29027-3.4456-5.62235a1.27508,1.27508,0,0,0-1.74123-.46712l-37.89034,21.876a1.27657,1.27657,0,0,0-.46857,1.743L66.53984,58.906,52.18573,67.19334l-3.4469-5.6216a1.27529,1.27529,0,0,0-1.74253-.46636L30.79393,70.45982a1.274,1.274,0,0,0-.4661,1.74152l1.4883,2.57781,2.57768-1.48822a1.27514,1.27514,0,0,1,1.74161.46776l1.1697,2.026-7.27279,4.19895L29.254,82.88646l39.75585,68.85915.11042-.06375,4.64926,3.20715,1.10626-.6387,2.53253.92357a8.51321,8.51321,0,0,0,7.16131-.62736l7.80942-4.50877a8.50279,8.50279,0,0,0,4.1215-5.88678l.469-2.65651,2.28558-1.30867c.62834.1946,1.26623.365,1.90938.51206a26.5755,26.5755,0,0,0,31.82508-19.98866l25.9507-14.99356.16032.266a2.14529,2.14529,0,0,0,.8907.81614l3.164,1.54264a9.35564,9.35564,0,0,0,8.77969-.30582l6.603-3.81225a9.34747,9.34747,0,0,0,4.6534-7.44978l.246-3.51139a2.09818,2.09818,0,0,0-.26145-1.17944l-.14888-.27258Z"/><path class="cls-2" d="M158.94027,105.71563l.16032.266a2.14529,2.14529,0,0,0,.8907.81614l3.164,1.54264a9.35564,9.35564,0,0,0,8.77969-.30582l6.603-3.81225a9.34747,9.34747,0,0,0,4.6534-7.44978l.246-3.51139a2.09818,2.09818,0,0,0-.26145-1.17944l-.14888-.27258Z"/><path class="cls-3" d="M99.25511,140.18579c.62834.1946,1.26623.365,1.90938.51206a26.5755,26.5755,0,0,0,31.82508-19.98866Z"/><path class="cls-4" d="M186.72956,90.321,74.05074,155.37614a.5625.5625,0,1,1-.5625-.97427L186.16706,89.34672a.5625.5625,0,1,1,.5625.97428Z"/><path class="cls-4" d="M186.38973,84.6258l-117.09867,67.607a.5625.5625,0,0,1-.5625-.97428L185.82723,83.65152a.5625.5625,0,1,1,.5625.97428Z"/><path class="cls-4" d="M172.78353,61.05917l-117.09867,67.607a.5625.5625,0,0,1-.5625-.97428L172.221,60.08489a.5625.5625,0,1,1,.5625.97428Z"/><path class="cls-4" d="M152.37423,25.70922,35.27556,93.31617a.5625.5625,0,0,1-.5625-.97428L151.81173,24.735a.5625.5625,0,1,1,.5625.97427Z"/><path class="cls-4" d="M146.63388,15.76665,29.53521,83.37359a.5625.5625,0,0,1-.5625-.97427L146.07138,14.79237a.5625.5625,0,0,1,.5625.97428Z"/><path class="cls-4" d="M143.73077,14.98931,30.31358,80.47076a.5625.5625,0,0,1-.5625-.97428L143.16827,14.015a.5625.5625,0,0,1,.5625.97428Z"/><path class="cls-4" d="M78.118,49.953,65.70742,57.1183a.375.375,0,1,1-.375-.64952L77.743,49.3035a.375.375,0,1,1,.375.64952Z"/><path class="cls-4" d="M105.80756,33.96647,93.39824,41.131a.375.375,0,1,1-.375-.64952L105.43256,33.317a.375.375,0,1,1,.375.64952Z"/><path class="cls-4" d="M74.87565,50.35174a.37524.37524,0,0,1-.51226-.13726l-1.56051-2.68819-.08008-.1036-.08608-.09059-.088-.07617-.09473-.06448-.09005-.05037-.08634-.03225-.08054-.01949-.06922-.00559-.06177.00431-.0517.013-.0759.03533a.37509.37509,0,1,1-.31525-.68072l.10693-.04909a.3558.3558,0,0,1,.06455-.0229l.11771-.03072a.41921.41921,0,0,1,.065-.01035l.12309-.00941a.40559.40559,0,0,1,.06264.00021l.12794.01066a.40349.40349,0,0,1,.0548.00975l.13116.031a.35424.35424,0,0,1,.04381.01438l.13356.04984a.46665.46665,0,0,1,.05058.02311l.12732.07112c.00832.00541.01783.01014.02631.01616l.12755.08623a.44267.44267,0,0,1,.03809.02788l.11951.10439c.00832.0087.01769.01594.026.02464l.11044.1181a.26535.26535,0,0,1,.02467.028l.10114.13109a.22557.22557,0,0,1,.0186.02651l.09076.13951.00915.01585,1.4883,2.57781A.37523.37523,0,0,1,74.87565,50.35174Z"/><path class="cls-4" d="M81.33905,50.79468a.37524.37524,0,0,1-.51226-.13726L77.536,44.95763l-.07634-.11753-.08167-.10336-.08684-.09189-.08939-.07864-.09213-.06268-.09085-.04905-.087-.03362-.079-.01952-.06922-.00559-.06177.00431-.0517.013-.07591.03533a.37509.37509,0,1,1-.31524-.68072l.10693-.04909a.37337.37337,0,0,1,.06585-.02365l.11665-.02924a.34162.34162,0,0,1,.06349-.01033l.12439-.01016a.31458.31458,0,0,1,.06135.001l.12793.01066a.29742.29742,0,0,1,.056.00908l.13.03164c.016.00429.032.00857.04716.01418l.13257.05111a.35448.35448,0,0,1,.04228.02044l.12992.06962a.36453.36453,0,0,1,.03559.02085l.12638.0869a.3464.3464,0,0,1,.032.02637l.1208.10364.02484.02532.11176.11734a.29967.29967,0,0,1,.02193.02631l.10231.13042a.2625.2625,0,0,1,.01982.02562l.09084.13964.01057.01832,3.296,5.70875A.37437.37437,0,0,1,81.33905,50.79468Z"/><path class="cls-4" d="M136.74845,11.19238,118.33862,21.8213a.375.375,0,1,1-.375-.64952l18.40983-10.62892a.375.375,0,0,1,.375.64952Z"/><path class="cls-4" d="M103.68131,30.2837,63.58117,53.43553a.375.375,0,1,1-.375-.64952l40.10014-23.15183a.375.375,0,0,1,.375.64952Z"/><path class="cls-4" d="M48.92633,61.8965l-18.411,10.6296a.375.375,0,1,1-.375-.64952l18.411-10.6296a.375.375,0,1,1,.375.64952Z"/><path class="cls-4" d="M95.36473,38.52236a.37523.37523,0,0,1-.51226-.13726l-1.4883-2.57781-.00915-.01585-.07557-.14828a.27693.27693,0,0,1-.01495-.0319l-.06178-.15381c-.003-.01091-.00764-.02192-.01051-.03291l-.04706-.1547a.29751.29751,0,0,1-.00816-.03754l-.02935-.15644-.00588-.03627-.013-.1515a.42554.42554,0,0,1-.00133-.04911l.00713-.14875a.16836.16836,0,0,1,.00372-.03765l.01985-.13842a.34144.34144,0,0,1,.01215-.05517l.03883-.12894a.37258.37258,0,0,1,.01836-.05043l.05471-.11611a.408.408,0,0,1,.03114-.05436l.06969-.10189a.34256.34256,0,0,1,.04069-.04982l.08249-.08573a.40949.40949,0,0,1,.05457-.04588l.09728-.06881a.375.375,0,0,1,.43073.61405l-.06868.04814-.03586.0375-.03461.05134-.0307.06414-.02313.07692-.0129.092-.00517.10535.01044.109.02161.11933.03667.1193.0483.12176.06374.1248,1.4835,2.5695A.37437.37437,0,0,1,95.36473,38.52236Z"/><path class="cls-4" d="M92.5178,44.34063a.37524.37524,0,0,1-.51226-.13726l-3.29595-5.70875-.08334-.159a.36172.36172,0,0,1-.0175-.03632l-.06179-.15381-.0118-.03216-.04576-.15545c-.00393-.0128-.00676-.0264-.00959-.04l-.02818-.15711a.23105.23105,0,0,1-.00406-.03074l-.01467-.1514a.497.497,0,0,1-.00108-.05168l.00583-.148c.00051-.01381.00287-.02712.00376-.04028l.02123-.139a.39908.39908,0,0,1,.01244-.05464l.04013-.1297a.4874.4874,0,0,1,.019-.04905L88.589,36.85a.35594.35594,0,0,1,.02892-.05221l.06975-.1021a.32627.32627,0,0,1,.04156-.051l.08365-.08641a.37334.37334,0,0,1,.0534-.0452l.096-.06806a.3751.3751,0,0,1,.432.6133l-.06869.04814-.03585.0375-.035.05069-.02995.06544-.02413.07819-.01449.0922-.00462.1033.01081.10963.02236.12063.03475.11868.048.11862.06814.12971,3.28935,5.69732A.37428.37428,0,0,1,92.5178,44.34063Z"/><path class="cls-4" d="M94.66169,43.31936a.56262.56262,0,0,1-.76839-.20589l-1.1697-2.026a1.84164,1.84164,0,0,1,.67407-2.512L104.53211,32.147a.53371.53371,0,0,1,.10354-.04627l.04546-.01516a.54756.54756,0,0,1,.22467-.02666l.0462.00382a.55123.55123,0,0,1,.202.05675l.04935.024a.53232.53232,0,0,1,.09745.06048l.05231.04081a.544.544,0,0,1,.05427.0499l.05607.05631c.01342.01425.02672.02857.03884.04357l.05819.07466a.27135.27135,0,0,1,.02115.02762l.06267.08818.008.0139.06682.101.01045.0151.22306.37766a.5625.5625,0,0,1-.97428.5625l-.20589-.34791L93.96017,39.54979a.715.715,0,0,0-.26229.9752l1.1697,2.026A.56175.56175,0,0,1,94.66169,43.31936Z"/><path class="cls-4" d="M79.38149,52.14138a.56261.56261,0,0,1-.76839-.20589l-1.1697-2.026a.71382.71382,0,0,0-.97452-.26112L65.6566,55.89087l.125.22817a.56252.56252,0,0,1-.9787.55484l-.06973-.12377-.00772-.01338-.1206-.23227a.17587.17587,0,0,1-.01265-.02491l-.04493-.09825-.01042-.02706-.03546-.08779c-.00706-.01792-.01281-.03659-.01844-.05534l-.02074-.07671a.551.551,0,0,1-.01607-.07195l-.00919-.06571a.6171.6171,0,0,1-.00155-.13438l.00521-.05549a.55711.55711,0,0,1,.04721-.17621l.0182-.04169a.573.573,0,0,1,.13707-.18739l.0348-.03031a.51508.51508,0,0,1,.09407-.06868l11.13444-6.42848a1.84048,1.84048,0,0,1,2.5113.6729l1.1697,2.026A.56271.56271,0,0,1,79.38149,52.14138Z"/><path class="cls-5" d="M178.913,104.87184l-6.603,3.81225a10.09007,10.09007,0,0,1-9.48278.33035l-3.164-1.54278a2.88986,2.88986,0,0,1-.95815-.75416L133.6462,121.19611a27.32444,27.32444,0,0,1-32.6486,20.23237c-.55951-.12851-1.11328-.27316-1.651-.4312l-1.69946.97356-.40822,2.31034a9.22633,9.22633,0,0,1-4.48487,6.40609L84.94459,155.196a9.2402,9.2402,0,0,1-7.79222.683l-2.20482-.80413-.80306.46365a.7513.7513,0,0,1-.80157-.03206L68.979,152.495a.75009.75009,0,0,1-.61869-.37441L28.60445,83.26146a.74968.74968,0,0,1-.07482-.56909l.77966-2.90359a.74813.74813,0,0,1,.348-.45468l6.62327-3.824-.7947-1.37646a.526.526,0,0,0-.71709-.19324l-2.57768,1.48822a.75.75,0,0,1-1.02452-.27452l-1.4883-2.57781a2.0269,2.0269,0,0,1,.74062-2.766L46.6213,60.45586a2.02782,2.02782,0,0,1,2.76158.7314l3.0597,4.99176L65.53182,58.622l-2.79314-5.14567a2.0281,2.0281,0,0,1,.74856-2.758l37.89034-21.876a2.02653,2.02653,0,0,1,2.76027.73216l3.05958,4.99184L120.29056,27.007l-2.79444-5.14492a2.02654,2.02654,0,0,1,.74608-2.75655L134.4459,9.7503a2.02573,2.02573,0,0,1,2.76457.74232l1.4883,2.57781a.75007.75007,0,0,1-.27452,1.02452l-2.57651,1.48755a.526.526,0,0,0-.19119.71764l.7947,1.37646,6.62327-3.82395a.74818.74818,0,0,1,.56779-.07407l2.90441.77659a.749.749,0,0,1,.45543.34934L186.758,83.76366a.7501.7501,0,0,1,.01491.723l.42393,5.28707a.75071.75071,0,0,1-.37353.70964l-2.81112,1.623a2.84369,2.84369,0,0,1,.17363,1.20883l-.24668,3.51023A10.08183,10.08183,0,0,1,178.913,104.87184Zm-20.34769.19427a.75.75,0,0,1,1.01755.26244l.16031.266a1.3825,1.3825,0,0,0,.57809.52967l3.1633,1.54146a8.593,8.593,0,0,0,8.07543-.28061l6.603-3.81225a8.58416,8.58416,0,0,0,4.27982-6.85183l.24681-3.51272a1.34461,1.34461,0,0,0-.16761-.75921l-.15294-.27959a.75024.75024,0,0,1,.283-1.00984l3.01156-1.73872-.414-5.15857a.77971.77971,0,0,1-.00011-.11148L145.85837,15.92341l-2.30275-.61647-7.00389,4.0437a.75.75,0,0,1-1.02452-.27452l-1.1697-2.026a2.02754,2.02754,0,0,1,.74023-2.76668l1.927-1.11255-1.1133-1.92829a.5248.5248,0,0,0-.71553-.19328l-16.2037,9.35521a.5251.5251,0,0,0-.19157.717l.00861.0179,3.14876,5.79373a.75118.75118,0,0,1-.28441,1.00737l-14.35918,8.29027a.749.749,0,0,1-1.01332-.25812l-3.4469-5.6216-.0099-.01715a.525.525,0,0,0-.71671-.1926l-37.89034,21.876a.52658.52658,0,0,0-.19405.71843l.0099.01714,3.14617,5.79523a.75027.75027,0,0,1-.28442,1.00737L52.56073,67.84286a.74939.74939,0,0,1-1.01462-.25737l-3.4456-5.62235-.01119-.0164a.52628.52628,0,0,0-.718-.19184L31.16893,71.10934a.526.526,0,0,0-.19158.717l1.1133,1.92829,1.92816-1.11322a2.02753,2.02753,0,0,1,2.76613.74228l1.1697,2.026a.75.75,0,0,1-.27452,1.02452l-7.00389,4.0437-.6175,2.30247,39.39113,68.22743a.73741.73741,0,0,1,.09687.05648l4.25878,2.93792.69524-.4014a.7493.7493,0,0,1,.6313-.055l2.53383.92282a7.73957,7.73957,0,0,0,6.52871-.57164l7.80942-4.50877a7.732,7.732,0,0,0,3.75825-5.36753l.469-2.65653a.749.749,0,0,1,.36325-.51923l.0013-.00075,2.28558-1.30867a.75028.75028,0,0,1,.59468-.06587c.59864.18456,1.223.35185,1.85647.49689a25.82406,25.82406,0,0,0,30.92607-19.42476.75193.75193,0,0,1,.35594-.48211Z"/><path class="cls-6" d="M13.34711,158.363a1.5,1.5,0,0,1-.00976-3h.00976a1.5,1.5,0,0,1,0,3Zm6.01026-.00976a1.5,1.5,0,0,1-.01026-3h.01026a1.5,1.5,0,1,1,0,3Zm6.00976-.00977a1.5,1.5,0,0,1-.00976-3h.00976a1.5,1.5,0,1,1,0,3Zm6.01026-.00977a1.5,1.5,0,0,1-.01026-3h.01026a1.5,1.5,0,0,1,0,3Zm6.00976-.00878a1.5,1.5,0,0,1-.00976-3h.00976a1.5,1.5,0,0,1,0,3Zm6.01025-.00977a1.5,1.5,0,1,1-.01025-3h.01025a1.5,1.5,0,1,1,0,3Zm6.00977-.00977a1.5,1.5,0,0,1-.00977-3h.00977a1.5,1.5,0,1,1,0,3Zm6.01025-.00976a1.5,1.5,0,0,1-.01025-3h.01025a1.5,1.5,0,0,1,0,3Zm6.00977-.00977a1.5,1.5,0,0,1-.00977-3h.00977a1.5,1.5,0,0,1,0,3Zm6.01025-.00976a1.5,1.5,0,0,1-.01025-3h.01025a1.5,1.5,0,1,1,0,3Zm6.00977-.00977a1.5,1.5,0,0,1-.00977-3h.00977a1.5,1.5,0,0,1,0,3Zm6.01025-.00879a1.5,1.5,0,1,1-.01025-3h.01025a1.5,1.5,0,0,1,0,3Zm6.00977-.00976a1.5,1.5,0,0,1-.00977-3h.00977a1.5,1.5,0,0,1,0,3Zm6.01025-.00977a1.5,1.5,0,0,1-.01025-3h.01025a1.5,1.5,0,1,1,0,3Zm6.00977-.00976a1.5,1.5,0,0,1-.00977-3h.00977a1.5,1.5,0,0,1,0,3Zm6.00976-.00977a1.5,1.5,0,0,1-.00976-3h.00976a1.5,1.5,0,1,1,0,3Zm6.01026-.00977a1.5,1.5,0,0,1-.01026-3h.01026a1.5,1.5,0,1,1,0,3Zm6.00976-.00976a1.5,1.5,0,0,1-.00976-3h.00976a1.5,1.5,0,1,1,0,3Zm6.01026-.00879a1.5,1.5,0,1,1-.01026-3h.01026a1.5,1.5,0,0,1,0,3Zm6.00976-.00977a1.5,1.5,0,0,1-.00976-3h.00976a1.5,1.5,0,0,1,0,3Zm6.01026-.00976a1.5,1.5,0,0,1-.01026-3h.01026a1.5,1.5,0,0,1,0,3Zm6.00976-.00977a1.5,1.5,0,0,1-.00976-3h.00976a1.5,1.5,0,0,1,0,3Zm6.01026-.00976a1.5,1.5,0,0,1-.01026-3h.01026a1.5,1.5,0,0,1,0,3Zm6.00976-.00977a1.5,1.5,0,0,1-.00976-3h.00976a1.5,1.5,0,0,1,0,3Zm6.01026-.00976a1.5,1.5,0,1,1-.01026-3h.01026a1.5,1.5,0,0,1,0,3Zm6.00976-.00977a1.5,1.5,0,0,1-.00976-3h.00976a1.5,1.5,0,0,1,0,3Zm6.00977-.00879a1.5,1.5,0,0,1-.00977-3h.00977a1.5,1.5,0,0,1,0,3Zm6.01025-.00976a1.5,1.5,0,1,1-.01025-3h.01025a1.5,1.5,0,0,1,0,3Zm6.00977-.00977a1.5,1.5,0,0,1-.00977-3h.00977a1.5,1.5,0,0,1,0,3Zm6.01025-.00977a1.5,1.5,0,0,1-.01025-3h.01025a1.5,1.5,0,0,1,0,3Zm6.00977-.00976a1.5,1.5,0,0,1-.00977-3h.00977a1.5,1.5,0,0,1,0,3Zm6.01025-.00977a1.5,1.5,0,1,1-.01025-3h.01025a1.5,1.5,0,0,1,0,3Zm6.00977-.00976a1.5,1.5,0,0,1-.00977-3h.00977a1.5,1.5,0,0,1,0,3Zm6.01025-.00879a1.5,1.5,0,0,1-.01025-3h.01025a1.5,1.5,0,0,1,0,3Zm6.00977-.00977a1.5,1.5,0,0,1-.00977-3h.00977a1.5,1.5,0,0,1,0,3Zm6.01025-.00976a1.5,1.5,0,0,1-.01025-3h.01025a1.5,1.5,0,0,1,0,3Z"/><polygon class="cls-6" points="146.304 106.202 144.789 120.642 158.052 114.733 146.304 106.202"/><path class="cls-6" d="M144.59174,120.91283l.03076-.28907,1.54492-14.72851,12.21827,8.873Zm1.84815-14.4043-1.45362,13.86133,12.73242-5.67188Z"/><path class="cls-6" d="M17.37446,179.57005a1.49926,1.49926,0,0,1-.73536-2.80761l.00879-.00489a1.50028,1.50028,0,1,1,.72657,2.8125Zm5.20214-3.00976a1.49926,1.49926,0,0,1-.73535-2.80762l.00879-.00488a1.50027,1.50027,0,1,1,.72656,2.8125Zm5.20215-3.00879a1.49914,1.49914,0,0,1-.76709-2.78906l.0083-.00489a1.50017,1.50017,0,1,1,.75879,2.79395Zm5.20264-3.00977a1.49926,1.49926,0,0,1-.73535-2.80761l.00879-.00489a1.50028,1.50028,0,1,1,.72656,2.8125Zm5.20215-3.00879a1.49925,1.49925,0,0,1-.73535-2.80761l.00879-.00489a1.50028,1.50028,0,1,1,.72656,2.8125Zm5.20215-3.00976a1.49914,1.49914,0,0,1-.76709-2.78906l.0083-.00489a1.50017,1.50017,0,1,1,.75879,2.79395Zm5.20263-3.00879a1.49926,1.49926,0,0,1-.73535-2.80762l.00879-.00488a1.50028,1.50028,0,1,1,.72656,2.8125Zm5.20215-3.00977a1.49925,1.49925,0,0,1-.73535-2.80761l.00879-.00489a1.50028,1.50028,0,1,1,.72656,2.8125Zm5.20215-3.00879a1.49914,1.49914,0,0,1-.76709-2.78906l.0083-.00488a1.50017,1.50017,0,1,1,.75879,2.79394Zm5.20264-3.00976a1.49926,1.49926,0,0,1-.73536-2.80762l.00879-.00488a1.50028,1.50028,0,1,1,.72657,2.8125Zm5.20166-3.00977a1.49847,1.49847,0,0,1-.83838-2.74316l.00879-.00586a1.5,1.5,0,1,1,.82959,2.749ZM74.6,146.46751a1.49925,1.49925,0,0,1-.73535-2.80761l.00879-.00489a1.50028,1.50028,0,1,1,.72656,2.8125Zm5.20215-3.00976a1.49926,1.49926,0,0,1-.73535-2.80762l.00879-.00488a1.50027,1.50027,0,1,1,.72656,2.8125Zm5.20215-3.00879a1.49926,1.49926,0,0,1-.73535-2.80762l.00879-.00488a1.50028,1.50028,0,1,1,.72656,2.8125Zm5.20264-3.00977a1.49926,1.49926,0,0,1-.73536-2.80761l.00879-.00489a1.50028,1.50028,0,1,1,.72657,2.8125Zm5.20214-3.00879a1.49926,1.49926,0,0,1-.73535-2.80761l.00879-.00489a1.50028,1.50028,0,1,1,.72656,2.8125Zm5.20215-3.00976a1.49914,1.49914,0,0,1-.76709-2.78906l.0083-.00489a1.50017,1.50017,0,1,1,.75879,2.79395Zm5.20264-3.00879a1.49926,1.49926,0,0,1-.73535-2.80762l.00879-.00488a1.50028,1.50028,0,1,1,.72656,2.8125Zm5.20215-3.00977a1.49925,1.49925,0,0,1-.73535-2.80761l.00878-.00489a1.50028,1.50028,0,1,1,.72657,2.8125Zm5.20117-3.00976a1.49857,1.49857,0,0,1-.87061-2.7207l.0083-.00586a1.50023,1.50023,0,1,1,.86231,2.72656Zm5.20361-3.00879a1.49926,1.49926,0,0,1-.73535-2.80762l.00879-.00488a1.50028,1.50028,0,1,1,.72656,2.8125Zm5.20166-3.00977a1.49847,1.49847,0,0,1-.83838-2.74316l.00879-.00586a1.5,1.5,0,1,1,.82959,2.749Zm5.20264-3.00879a1.49914,1.49914,0,0,1-.76709-2.78906l.0083-.00488a1.50017,1.50017,0,1,1,.75879,2.79394Zm5.20264-3.00976a1.49926,1.49926,0,0,1-.73536-2.80762l.00879-.00488a1.50028,1.50028,0,1,1,.72657,2.8125Zm5.20214-3.00879a1.49926,1.49926,0,0,1-.73535-2.80762l.00879-.00488a1.50028,1.50028,0,1,1,.72656,2.8125Zm5.20215-3.00977a1.49926,1.49926,0,0,1-.73535-2.80761l.00879-.00489a1.50028,1.50028,0,1,1,.72656,2.8125Zm5.20264-3.00878a1.49926,1.49926,0,0,1-.73535-2.80762l.00879-.00488a1.50027,1.50027,0,1,1,.72656,2.8125Zm5.20215-3.00977a1.49926,1.49926,0,0,1-.73535-2.80762l.00879-.00488a1.50028,1.50028,0,1,1,.72656,2.8125Zm5.20215-3.00879a1.49926,1.49926,0,0,1-.73536-2.80762l.00879-.00488a1.50028,1.50028,0,1,1,.72657,2.8125Zm5.20263-3.00977a1.49926,1.49926,0,0,1-.73535-2.80761l.00879-.00489a1.50028,1.50028,0,1,1,.72656,2.8125Zm5.20215-3.00878a1.49926,1.49926,0,0,1-.73535-2.80762l.00879-.00488a1.50027,1.50027,0,1,1,.72656,2.8125Zm5.20215-3.00977a1.49926,1.49926,0,0,1-.73535-2.80762l.00879-.00488a1.50028,1.50028,0,1,1,.72656,2.8125Zm5.20117-3.00977a1.49856,1.49856,0,0,1-.8706-2.7207l.0083-.00586a1.50023,1.50023,0,1,1,.8623,2.72656Zm5.20362-3.00878a1.49926,1.49926,0,0,1-.73536-2.80762l.00879-.00488a1.50027,1.50027,0,1,1,.72657,2.8125Zm5.20166-3.00977a1.49847,1.49847,0,0,1-.83838-2.74316l.00879-.00586a1.5,1.5,0,1,1,.82959,2.749Zm5.20263-3.00879a1.49914,1.49914,0,0,1-.76709-2.78906l.0083-.00488a1.50016,1.50016,0,1,1,.75879,2.79394Zm5.20264-3.00976a1.49926,1.49926,0,0,1-.73535-2.80762l.00879-.00488a1.50027,1.50027,0,1,1,.72656,2.8125Zm5.20215-3.00879a1.49926,1.49926,0,0,1-.73535-2.80762l.00878-.00488a1.50028,1.50028,0,1,1,.72657,2.8125Zm5.20215-3.00977a1.49914,1.49914,0,0,1-.76709-2.78906l.0083-.00488a1.50016,1.50016,0,1,1,.75879,2.79394Z"/><path class="cls-6" d="M156.79682,155.31029a108.44493,108.44493,0,0,0-7.6416-37.27735l3.71777-1.47461a112.434,112.434,0,0,1,7.92285,38.64649Z"/><path class="cls-7" d="M171.84272,128.97923c0-3.709,1.11621-7.21972,5.22168-7.21972,3.16894,0,5.22119,2.08886,5.22119,7.21972,0,5.14942-2.03418,7.25684-5.22119,7.25684C173.84125,136.23607,171.84272,134.11107,171.84272,128.97923Zm7.72412-.99023c-.08985-2.75488-.81006-4.15918-2.48438-4.15918-1.69287,0-2.43115,1.42285-2.50293,4.15918Zm-2.50244,6.17578c1.53027,0,2.46631-.93555,2.50244-4.08691h-4.98731C174.61567,133.33665,175.6059,134.16478,177.0644,134.16478Z"/><rect class="cls-8" width="252.06611" height="187.55314"/><path class="cls-1" d="M434.25141,154.21443l4.641-3.22136.11063.06338,39.5227-68.99324-.78817-2.90019-7.287-4.17432,1.16284-2.02993a1.27525,1.27525,0,0,1,1.74-.47365L475.935,73.964l1.47957-2.58283a1.27287,1.27287,0,0,0-.47079-1.73925l-16.23524-9.30034a1.27412,1.27412,0,0,0-1.73965.473l-3.42539,5.63464-14.38714-8.24165,3.12668-5.80577a1.27507,1.27507,0,0,0-.472-1.73991L405.84693,28.91413a1.27656,1.27656,0,0,0-1.74213.47157l-3.42669,5.63391-14.38206-8.23875,3.12538-5.80651a1.2753,1.2753,0,0,0-.47328-1.74067L372.71423,9.93409a1.274,1.274,0,0,0-1.73966.473L369.495,12.98992l2.5827,1.4795a1.27514,1.27514,0,0,1,.4716,1.74057l-1.16284,2.02993-7.287-4.17433-2.90046.78715L321.67634,83.846l.11063.06338-.4338,5.63144,1.10842.635.47541,2.65343a8.51317,8.51317,0,0,0,4.14385,5.87421l7.82463,4.48233a8.50279,8.50279,0,0,0,7.16093.60172l2.532-.93065,2.2806,1.31733q.22171.96144.51769,1.90787a26.57549,26.57549,0,0,0,33.28245,17.45451L406.6898,138.4258l-.14926.27233a2.1453,2.1453,0,0,0-.25746,1.18032l.2579,3.51055a9.35562,9.35562,0,0,0,4.67986,7.43473l6.61587,3.7899a9.34746,9.34746,0,0,0,8.77938.27537l3.15872-1.55334a2.098,2.098,0,0,0,.88794-.81915l.16072-.26577Z"/><path class="cls-2" d="M406.6898,138.4258l-.14926.27233a2.1453,2.1453,0,0,0-.25746,1.18032l.2579,3.51055a9.35562,9.35562,0,0,0,4.67986,7.43473l6.61587,3.7899a9.34746,9.34746,0,0,0,8.77938.27537l3.15872-1.55334a2.098,2.098,0,0,0,.88794-.81915l.16072-.26577Z"/><path class="cls-3" d="M346.879,104.17413q.22171.96144.51769,1.90787a26.57549,26.57549,0,0,0,33.28245,17.45451Z"/><path class="cls-4" d="M433.97181,154.70252,321.07357,90.02889a.5625.5625,0,0,1,.5592-.97617L434.531,153.72635a.5625.5625,0,0,1-.5592.97617Z"/><path class="cls-4" d="M438.72342,151.54453,321.39674,84.33407a.5625.5625,0,0,1,.5592-.97618l117.32668,67.21047a.5625.5625,0,1,1-.5592.97617Z"/><path class="cls-4" d="M452.24983,127.932,334.92314,60.72155a.5625.5625,0,0,1,.5592-.97618L452.809,126.95584a.5625.5625,0,1,1-.5592.97617Z"/><path class="cls-4" d="M472.53944,92.51324,355.21275,25.30277a.5625.5625,0,0,1,.5592-.97618L473.09864,91.53706a.5625.5625,0,1,1-.5592.97618Z"/><path class="cls-4" d="M478.24612,82.5513,360.91944,15.34083a.5625.5625,0,1,1,.5592-.97617L478.80533,81.57512a.5625.5625,0,0,1-.55921.97618Z"/><path class="cls-4" d="M477.458,79.65111,363.8199,14.55368a.5625.5625,0,0,1,.55921-.97618l113.638,65.09743a.5625.5625,0,1,1-.5592.97618Z"/><path class="cls-4" d="M414.23941,40.52429,401.80462,33.401a.375.375,0,1,1,.3728-.65078l12.43479,7.12325a.375.375,0,0,1-.3728.65078Z"/><path class="cls-4" d="M441.98284,56.41709l-12.43349-7.12251a.375.375,0,1,1,.37281-.65078l12.43348,7.12251a.375.375,0,0,1-.3728.65078Z"/><path class="cls-4" d="M412.2641,37.92232a.37524.37524,0,0,1-.139-.51179l1.53866-2.70076.04926-.12131.035-.12.02159-.11434.00809-.1143-.00175-.10317-.01555-.09085-.02366-.07941-.03-.06264-.03479-.05122-.03728-.03812-.06872-.04784a.37509.37509,0,0,1,.42983-.61483l.09621.06773a.357.357,0,0,1,.05225.04428l.08575.08629a.419.419,0,0,1,.04166.051l.07.10166a.40634.40634,0,0,1,.03133.05425l.05513.11594a.404.404,0,0,1,.01913.05227l.03919.12894a.353.353,0,0,1,.00961.04509l.02409.14052a.46528.46528,0,0,1,.00547.05533l.00256.14581c-.00049.00992.0002.02051-.00074.03087l-.01038.15361a.44265.44265,0,0,1-.00494.047l-.03012.15578c-.00335.01157-.00488.02331-.00823.03488l-.04653.15486a.26306.26306,0,0,1-.01181.03541l-.06244.15335a.22438.22438,0,0,1-.01355.0294l-.07494.14861-.00909.01588-1.47958,2.58283A.37521.37521,0,0,1,412.2641,37.92232Z"/><path class="cls-4" d="M415.13187,43.7316a.37524.37524,0,0,1-.139-.51179l3.27148-5.71089.06318-.12509.04827-.12258.03575-.12126.023-.11682.00784-.11116-.00329-.10319-.01467-.09207-.02286-.07809-.03-.06264-.03479-.05122-.03729-.03813-.06871-.04783a.37509.37509,0,0,1,.42983-.61483l.0962.06773a.37354.37354,0,0,1,.05356.045l.084.08612a.34192.34192,0,0,1,.04086.04968l.07133.1024a.31492.31492,0,0,1,.03.05351l.05512.11594a.297.297,0,0,1,.02031.05294l.038.12827c.00434.016.00867.03194.01147.04788l.02249.14029a.353.353,0,0,1,.00359.04684l.00517.1473a.3662.3662,0,0,1-.00012.04125l-.01155.15294a.34294.34294,0,0,1-.00669.04094l-.02882.15653-.00939.03421-.04522.15561a.29655.29655,0,0,1-.01171.03218l-.06126.154a.26121.26121,0,0,1-.01218.03l-.075.14875-.01052.01835-3.27662,5.71987A.37437.37437,0,0,1,415.13187,43.7316Z"/><path class="cls-4" d="M477.22815,71.70651,458.78247,61.13992a.375.375,0,0,1,.3728-.65079L477.601,71.05572a.375.375,0,1,1-.3728.65079Z"/><path class="cls-4" d="M444.09662,52.72715,403.9184,29.7111a.375.375,0,0,1,.3728-.65079l40.17822,23.01605a.375.375,0,0,1-.3728.65079Z"/><path class="cls-4" d="M389.235,21.29974,370.78817,10.73248a.375.375,0,0,1,.3728-.65078L389.60783,20.649a.375.375,0,1,1-.3728.65078Z"/><path class="cls-4" d="M432.79308,49.68233a.37524.37524,0,0,1-.139-.5118l1.47958-2.58283.00909-.01588.09016-.13989a.27686.27686,0,0,1,.02006-.029l.10187-.13076c.00791-.00809.01511-.01762.02315-.02563l.11005-.11848a.29791.29791,0,0,1,.02834-.02594l.12045-.104.0284-.02332.12441-.08742a.42784.42784,0,0,1,.04178-.02586l.13215-.06864a.16876.16876,0,0,1,.03442-.01572l.12963-.05246a.34.34,0,0,1,.05378-.01724l.131-.03129a.373.373,0,0,1,.05282-.0095l.12788-.0111a.40692.40692,0,0,1,.06264-.00042l.12312.009a.343.343,0,0,1,.06353.01011l.11558.02818a.41077.41077,0,0,1,.0671.02409l.1084.04948a.375.375,0,0,1-.31412.68112l-.07615-.03516-.05044-.01213-.06179-.0041-.07087.00573-.07812.01869-.086.03511-.09365.04851-.089.06384-.09227.07869-.08468.09169-.08095.103-.07581.11785-1.4748,2.5745A.37437.37437,0,0,1,432.79308,49.68233Z"/><path class="cls-4" d="M426.33238,50.1478a.37524.37524,0,0,1-.139-.51179L429.47,43.91614l.09555-.152a.35994.35994,0,0,1,.02259-.03339L429.69,43.6l.02185-.02638.11135-.11772c.00909-.00983.01943-.01913.02976-.02842l.12162-.10337a.23237.23237,0,0,1,.02453-.019l.12348-.08882a.50081.50081,0,0,1,.04412-.02693l.13085-.06939c.0122-.00649.02489-.01115.03671-.017l.13085-.05158a.39993.39993,0,0,1,.05349-.01673l.13228-.03053a.48675.48675,0,0,1,.05194-.00828l.128-.011a.35667.35667,0,0,1,.05967-.00126l.12332.00894a.32592.32592,0,0,1,.065.01026l.11675.02885a.37465.37465,0,0,1,.06594.02342l.10709.04873a.3751.3751,0,0,1-.31281.68187l-.07615-.03516-.05045-.01213-.06141-.00475-.07162.007-.07972.01846-.087.03385-.09161.048-.08932.06448-.093.08-.0851.08971-.07836.10119-.07785.12412-3.27006,5.70842A.37428.37428,0,0,1,426.33238,50.1478Z"/><path class="cls-4" d="M428.29331,51.4872a.56261.56261,0,0,1-.20848-.76769l1.16284-2.02992a1.84163,1.84163,0,0,1,2.51018-.68072L442.914,54.39964a.53347.53347,0,0,1,.09206.06622l.036.03167a.54777.54777,0,0,1,.136.18079l.01994.04184a.55133.55133,0,0,1,.05252.20313l.0041.05473a.53311.53311,0,0,1-.00327.11464l-.009.06574a.54391.54391,0,0,1-.01583.072l-.02047.07678c-.00557.01877-.01126.03746-.01813.05548l-.03526.08785a.27219.27219,0,0,1-.01325.03217l-.04469.09851-.008.01393-.05372.10856-.00779.01663-.21424.38274a.5625.5625,0,0,1-.97618-.55921l.19717-.35293L431.19865,48.985a.715.715,0,0,0-.97481.26375L429.061,51.27872A.56174.56174,0,0,1,428.29331,51.4872Z"/><path class="cls-4" d="M412.98337,42.71692a.56261.56261,0,0,1-.20849-.76769l1.16284-2.02993a.71381.71381,0,0,0-.26442-.97363L402.84,32.7398l-.13436.22279a.56252.56252,0,0,1-.97178-.56688l.07191-.12252.00768-.0134.14011-.22105a.17522.17522,0,0,1,.01517-.02346l.06233-.08825.01814-.02262.058-.0748c.012-.01511.02519-.02948.03856-.04377l.05588-.0565a.54888.54888,0,0,1,.0541-.05008l.05218-.041a.61653.61653,0,0,1,.11537-.06892l.05057-.02341a.55707.55707,0,0,1,.17606-.04781l.04518-.00524a.57308.57308,0,0,1,.2309.02423l.04371.01484a.51488.51488,0,0,1,.10667.04676l11.15612,6.39077a1.84047,1.84047,0,0,1,.68139,2.509l-1.16284,2.02993A.56271.56271,0,0,1,412.98337,42.71692Z"/><path class="cls-5" d="M417.46391,155.26441l-6.61587-3.78989a10.09006,10.09006,0,0,1-5.05467-8.0301l-.25781-3.51067a2.88978,2.88978,0,0,1,.17-1.20745l-25.117-14.37736a27.32444,27.32444,0,0,1-33.90727-18.04374c-.17032-.54824-.3238-1.09962-.45766-1.64391l-1.69618-.97926-2.2022.8091a9.22632,9.22632,0,0,1-7.79252-.65461l-7.82463-4.48234a9.24018,9.24018,0,0,1-4.50922-6.39156l-.41383-2.3101-.80463-.46093a.75134.75134,0,0,1-.37542-.709l.40815-5.2864a.75011.75011,0,0,1,.01245-.72306l39.5227-68.99324a.74966.74966,0,0,1,.45425-.35087l2.90177-.78641a.74818.74818,0,0,1,.568.07215l6.63617,3.80152.79-1.37914a.526.526,0,0,0-.19362-.717l-2.5827-1.4795a.75.75,0,0,1-.278-1.02358l1.47958-2.58283a2.02689,2.02689,0,0,1,2.76324-.751L389.321,18.58289a2.02782,2.02782,0,0,1,.7567,2.75476l-2.77572,5.15508,13.11473,7.51276,3.0428-5.00209a2.02811,2.02811,0,0,1,2.76027-.74006l37.96413,21.74771a2.02653,2.02653,0,0,1,.75539,2.754l-2.77586,5.155,13.11863,7.515,3.04151-5.00284a2.02653,2.02653,0,0,1,2.75779-.74148l16.23524,9.30035a2.02573,2.02573,0,0,1,.74878,2.76283l-1.47957,2.58283a.75008.75008,0,0,1-1.02359.278l-2.58153-1.47882a.526.526,0,0,0-.71643.19566l-.79,1.37914,6.63617,3.80153a.74812.74812,0,0,1,.34957.4535l.78948,2.90094a.749.749,0,0,1-.07289.56933l-39.5227,68.99324a.75014.75014,0,0,1-.61743.3765l-4.35656,3.02542a.75068.75068,0,0,1-.80121.03405l-2.8166-1.61348a2.84377,2.84377,0,0,1-.95751.758l-3.158,1.55216A10.0818,10.0818,0,0,1,417.46391,155.26441ZM407.0626,137.775a.75.75,0,0,1,.28492,1.01148l-.14926.27233a1.38241,1.38241,0,0,0-.16708.766l.25857,3.50938a8.59307,8.59307,0,0,0,4.30389,6.8387l6.61587,3.78989a8.58415,8.58415,0,0,0,8.07467.25321l3.16027-1.55332a1.34443,1.34443,0,0,0,.57192-.5267l.16474-.27279a.75023.75023,0,0,1,1.01516-.26328l3.01742,1.72853,4.25049-2.95221a.77808.77808,0,0,1,.09631-.05616L477.7206,81.95983l-.62528-2.30036-7.01753-4.02a.75.75,0,0,1-.278-1.02358l1.16284-2.02993a2.02752,2.02752,0,0,1,2.7636-.75163l1.93075,1.106,1.10677-1.932a.52482.52482,0,0,0-.19281-.71567l-16.23525-9.30034a.52509.52509,0,0,0-.71606.195l-.01114.01643-3.42409,5.63539a.75117.75117,0,0,1-1.01374.26081L440.78354,58.8583a.749.749,0,0,1-.28652-1.00566l3.12537-5.80651.00985-.01718a.525.525,0,0,0-.194-.71633L405.47413,29.56491a.52657.52657,0,0,0-.71855.1936l-.00984.01718-3.42669,5.6339a.75029.75029,0,0,1-1.01374.2608l-14.38206-8.23875a.74938.74938,0,0,1-.28783-1.0064l3.12668-5.80577.00854-.01792a.52628.52628,0,0,0-.19529-.71709l-16.23392-9.29958a.526.526,0,0,0-.71608.195l-1.10677,1.932,1.93192,1.1067a2.02753,2.02753,0,0,1,.74958,2.76416l-1.16284,2.02993a.75.75,0,0,1-1.02358.278l-7.01753-4.02-2.30065.62426L322.53537,83.85525a.73784.73784,0,0,1-.0001.11214l-.39748,5.15854.6966.399a.7493.7493,0,0,1,.365.518l.47671,2.65417a7.73961,7.73961,0,0,0,3.77755,5.35547l7.82463,4.48233a7.732,7.732,0,0,0,6.52944.54888l2.532-.93064a.749.749,0,0,1,.63148.05283l.0013.00074,2.2806,1.31733a.75027.75027,0,0,1,.356.48088c.14155.61023.31095,1.234.50419,1.85449a25.82406,25.82406,0,0,0,32.34294,16.96108.75192.75192,0,0,1,.5957.06518Z"/><path class="cls-6" d="M495.05512,158.363h-.00977a1.5,1.5,0,1,1,.00977,0Zm-6.00977-.00976h-.01025a1.49976,1.49976,0,1,1,.01025,0Zm-6.01025-.00977h-.00977a1.5,1.5,0,1,1,.00977,0Zm-6.00977-.00977h-.01025a1.49976,1.49976,0,1,1,.01025,0Zm-6.01025-.00878h-.00977a1.5,1.5,0,1,1,.00977,0Zm-6.00977-.00977h-.01025a1.50025,1.50025,0,1,1,.01025,0Zm-6.01025-.00977h-.00976a1.5,1.5,0,1,1,.00976,0Zm-6.00976-.00976H452.975a1.49975,1.49975,0,1,1,.01026,0Zm-6.01026-.00977h-.00976a1.5,1.5,0,1,1,.00976,0Zm-6.00976-.00976H440.955a1.49975,1.49975,0,1,1,.01026,0Zm-6.01026-.00977h-.00976a1.5,1.5,0,1,1,.00976,0Zm-6.00976-.00879H428.935a1.50024,1.50024,0,1,1,.01026,0Zm-6.01026-.00976h-.00976a1.5,1.5,0,1,1,.00976,0Zm-6.00976-.00977H416.915a1.49976,1.49976,0,1,1,.01026,0Zm-6.01026-.00976h-.00976a1.5,1.5,0,1,1,.00976,0Zm-6.00976-.00977h-.00977a1.5,1.5,0,1,1,.00977,0Zm-6.00977-.00977h-.01025a1.49976,1.49976,0,1,1,.01025,0Zm-6.01025-.00976h-.00977a1.5,1.5,0,1,1,.00977,0Zm-6.00977-.00879h-.01025a1.50025,1.50025,0,1,1,.01025,0Zm-6.01025-.00977h-.00977a1.5,1.5,0,1,1,.00977,0Zm-6.00977-.00976h-.01025a1.49976,1.49976,0,1,1,.01025,0Zm-6.01025-.00977h-.00977a1.5,1.5,0,1,1,.00977,0Zm-6.00977-.00976h-.01025a1.49976,1.49976,0,1,1,.01025,0Zm-6.01025-.00977h-.00977a1.5,1.5,0,1,1,.00977,0Zm-6.00977-.00976h-.01025a1.50025,1.50025,0,1,1,.01025,0Zm-6.00879-.00879a1.31238,1.31238,0,0,1-.15087-.00782l-.00977-.001a1.49187,1.49187,0,1,1,.16064.00879Zm-6.01123-.00977h-.01025a1.49976,1.49976,0,1,1,.01025,0Zm-6.00976-.00976h-.01026a1.50025,1.50025,0,1,1,.01026,0Zm-6.01026-.00977h-.00976a1.5,1.5,0,1,1,.00976,0Zm-6.00976-.00977h-.01026a1.49976,1.49976,0,1,1,.01026,0Zm-6.01026-.00976h-.00976a1.5,1.5,0,1,1,.00976,0Zm-6.00976-.00977h-.01025a1.50025,1.50025,0,1,1,.01025,0Zm-6.01025-.00976h-.00977a1.5,1.5,0,1,1,.00977,0Zm-6.00977-.00879h-.01025a1.49976,1.49976,0,1,1,.01025,0Zm-6.01025-.00977h-.00977a1.5,1.5,0,1,1,.00977,0Zm-6.00977-.00976h-.01025a1.49976,1.49976,0,1,1,.01025,0Z"/><polygon class="cls-6" points="362.088 106.202 363.603 120.642 350.34 114.733 362.088 106.202"/><path class="cls-6" d="M363.80024,120.91283l-13.79395-6.14454,12.21826-8.873Zm-13.127-6.21485,12.73243,5.67188-1.45362-13.86133Z"/><path class="cls-6" d="M491.02,179.574a1.48588,1.48588,0,0,1-.72412-.18848l-.00879-.00488a1.49348,1.49348,0,1,1,.73291.19336Zm-5.20215-3.00977a1.48587,1.48587,0,0,1-.72412-.18847l-.00879-.00489a1.49349,1.49349,0,1,1,.73291.19336Zm-5.20263-3.00879a1.49275,1.49275,0,0,1-.75635-.207l-.0083-.00488a1.4935,1.4935,0,1,1,.76465.21191Zm-5.20215-3.00976a1.48585,1.48585,0,0,1-.72412-.18848l-.00879-.00488a1.49347,1.49347,0,1,1,.73291.19336Zm-5.20215-3.00879a1.48585,1.48585,0,0,1-.72412-.18848l-.00879-.00488a1.49349,1.49349,0,1,1,.73291.19336Zm-5.20264-3.00977a1.49274,1.49274,0,0,1-.75634-.207l-.0083-.00488a1.49349,1.49349,0,1,1,.76464.21191Zm-5.20214-3.00879a1.48584,1.48584,0,0,1-.72412-.18847l-.00879-.00488a1.4935,1.4935,0,1,1,.73291.19335Zm-5.20215-3.00976a1.48585,1.48585,0,0,1-.72412-.18848l-.00879-.00488a1.49348,1.49348,0,1,1,.73291.19336Zm-5.20264-3.00879a1.49278,1.49278,0,0,1-.75635-.207l-.0083-.00488a1.49349,1.49349,0,1,1,.76465.21191ZM444.19916,152.49a1.48587,1.48587,0,0,1-.72412-.18847l-.00879-.00488a1.49351,1.49351,0,1,1,.73291.19335Zm-5.20312-3.00976a1.48561,1.48561,0,0,1-.82666-.251l-.00879-.00586a1.4949,1.4949,0,1,1,.83545.25684Zm-5.20166-3.00879a1.48585,1.48585,0,0,1-.72412-.18848l-.00879-.00488a1.49348,1.49348,0,1,1,.73291.19336Zm-5.20215-3.00977a1.48584,1.48584,0,0,1-.72412-.18847l-.00879-.00489a1.49348,1.49348,0,1,1,.73291.19336Zm-5.20215-3.00878a1.48585,1.48585,0,0,1-.72412-.18848l-.00879-.00488a1.49348,1.49348,0,1,1,.73291.19336Zm-5.20264-3.00977a1.48588,1.48588,0,0,1-.72412-.18848l-.00879-.00488a1.49349,1.49349,0,1,1,.73291.19336Zm-5.20214-3.00879a1.48589,1.48589,0,0,1-.72413-.18848l-.00878-.00488a1.49348,1.49348,0,1,1,.73291.19336Zm-5.20264-3.00977a1.49275,1.49275,0,0,1-.75635-.207l-.0083-.00488a1.4935,1.4935,0,1,1,.76465.21191Zm-5.20215-3.00878a1.48585,1.48585,0,0,1-.72412-.18848l-.00879-.00488a1.49348,1.49348,0,1,1,.73291.19336Zm-5.20215-3.00977a1.48585,1.48585,0,0,1-.72412-.18848l-.00879-.00488a1.49349,1.49349,0,1,1,.73291.19336Zm-5.20361-3.00977a1.48923,1.48923,0,0,1-.85986-.27343l-.00831-.00586a1.49565,1.49565,0,1,1,.86817.27929Zm-5.20117-3.00878a1.48585,1.48585,0,0,1-.72412-.18848l-.00879-.00488a1.49347,1.49347,0,1,1,.73291.19336Zm-5.20313-3.00977a1.48553,1.48553,0,0,1-.82666-.251l-.00879-.00586a1.49491,1.49491,0,1,1,.83545.25684Zm-5.20166-3.00879a1.49281,1.49281,0,0,1-.75635-.207l-.0083-.00488a1.49349,1.49349,0,1,1,.76465.21191Zm-5.20215-3.00976a1.48588,1.48588,0,0,1-.72412-.18848l-.00879-.00488a1.49348,1.49348,0,1,1,.73291.19336Zm-5.20215-3.00879a1.48588,1.48588,0,0,1-.72412-.18848l-.00879-.00488a1.49348,1.49348,0,1,1,.73291.19336Zm-5.20263-3.00977a1.49275,1.49275,0,0,1-.75635-.207l-.0083-.00488a1.49349,1.49349,0,1,1,.76465.21191Zm-5.20215-3.00879a1.48585,1.48585,0,0,1-.72412-.18848l-.00879-.00488a1.49348,1.49348,0,1,1,.73291.19336ZM350.55756,98.322a1.48585,1.48585,0,0,1-.72412-.18848l-.00879-.00488a1.49348,1.49348,0,1,1,.73291.19336Zm-5.20215-3.00879a1.48588,1.48588,0,0,1-.72412-.18848l-.00879-.00488a1.49348,1.49348,0,1,1,.73291.19336Zm-5.20263-3.00977a1.49275,1.49275,0,0,1-.75635-.207l-.0083-.00488a1.49348,1.49348,0,1,1,.76465.21191Zm-5.20215-3.00879a1.48584,1.48584,0,0,1-.72412-.18847l-.00879-.00489a1.49348,1.49348,0,1,1,.73291.19336Zm-5.20215-3.00976a1.48585,1.48585,0,0,1-.72412-.18848l-.00879-.00488a1.49347,1.49347,0,1,1,.73291.19336Zm-5.20361-3.00977a1.48927,1.48927,0,0,1-.85987-.27344l-.0083-.00586a1.49563,1.49563,0,1,1,.86817.2793Zm-5.20118-3.00879a1.486,1.486,0,0,1-.72412-.18847l-.00879-.00489a1.49349,1.49349,0,1,1,.73291.19336Zm-5.20312-3.00976a1.48561,1.48561,0,0,1-.82666-.251l-.00879-.00586a1.49489,1.49489,0,1,1,.83545.25684Zm-5.20166-3.00879a1.49285,1.49285,0,0,1-.75635-.207l-.0083-.00489a1.49347,1.49347,0,1,1,.76465.21192ZM303.73676,71.238a1.48585,1.48585,0,0,1-.72412-.18848l-.00879-.00488a1.49349,1.49349,0,1,1,.73291.19336Zm-5.20215-3.00879a1.48584,1.48584,0,0,1-.72412-.18847l-.00879-.00489a1.49349,1.49349,0,1,1,.73291.19336ZM293.332,65.21947a1.49285,1.49285,0,0,1-.75635-.207l-.0083-.00489a1.49346,1.49346,0,1,1,.76465.21192Z"/><path class="cls-6" d="M351.59516,155.31029l-3.999-.10547a112.4479,112.4479,0,0,1,7.92285-38.64649l3.71777,1.47461A108.45893,108.45893,0,0,0,351.59516,155.31029Z"/><path class="cls-7" d="M331.8144,128.97923c0-3.709,1.11621-7.21972,5.22168-7.21972,3.16894,0,5.22119,2.08886,5.22119,7.21972,0,5.14942-2.03418,7.25684-5.22119,7.25684C333.81293,136.23607,331.8144,134.11107,331.8144,128.97923Zm7.72412-.99023c-.08985-2.75488-.81006-4.15918-2.48438-4.15918-1.69287,0-2.43115,1.42285-2.50293,4.15918Zm-2.50244,6.17578c1.53027,0,2.46631-.93555,2.50244-4.08691h-4.98731C334.58735,133.33665,335.57758,134.16478,337.03608,134.16478Z"/><rect class="cls-8" x="256.32594" width="252.06611" height="187.55314"/></g></g></svg>