<svg xmlns="http://www.w3.org/2000/svg" viewBox="-190.624 0 555 173.752"><defs><style>.cls-2{fill:#9e9e9f}.cls-3{fill:#c8c9ca}.cls-5{fill:#ddd583}.cls-7{fill:#231815}</style></defs><g id="レイヤー_2" data-name="レイヤー 2"><g id="レイヤー_2-2" data-name="レイヤー 2"><path d="M23.522 19.27H150.23a4.252 4.252 0 014.253 4.253v126.709a4.25 4.25 0 01-4.25 4.25H23.52a4.252 4.252 0 01-4.251-4.252V23.523a4.252 4.252 0 014.252-4.253z" fill="#fff"/><path class="cls-2" d="M150.23 152.306H23.521a2.078 2.078 0 01-2.076-2.076V23.52a2.078 2.078 0 012.076-2.075h126.71a2.078 2.078 0 012.074 2.075v126.71a2.078 2.078 0 01-2.075 2.076zM23.521 22.195a1.327 1.327 0 00-1.326 1.326V150.23a1.328 1.328 0 001.326 1.326h126.71a1.327 1.327 0 001.324-1.326V23.52a1.327 1.327 0 00-1.325-1.325z"/><path class="cls-2" d="M52.434 86.882a.375.375 0 01-.375-.375V54.93a.375.375 0 01.75 0v31.577a.375.375 0 01-.375.375z"/><path class="cls-2" d="M52.434 87.07H34.265a.562.562 0 01-.562-.563V54.93a.562.562 0 01.562-.562h18.202l.196.012a.582.582 0 01.063.008l.195.033a.665.665 0 01.066.016l.194.059a.74.74 0 01.052.02l.197.081a.528.528 0 01.058.028l.195.11a.387.387 0 01.056.034l.193.14a.66.66 0 01.043.034l.194.17a.88.88 0 01.044.043l.19.209a.62.62 0 01.035.04l.186.248.032.047.177.292a.64.64 0 01.025.046l.165.34.02.044.15.393.015.045.129.446a.59.59 0 01.01.047l.102.509.007.044.065.569a.435.435 0 01.003.044l.024.632.052 3.9.028 3.886.009 3.78-.009 3.782-.028 3.885-.051 3.89-.025.644a.407.407 0 01-.003.043l-.065.57-.008.045-.1.508a.552.552 0 01-.011.046l-.13.447a.462.462 0 01-.014.046l-.15.39-.02.046-.165.34a.422.422 0 01-.025.046l-.177.291a.564.564 0 01-.032.047l-.186.248a.71.71 0 01-.036.042l-.19.207a.535.535 0 01-.041.04l-.195.173a.763.763 0 01-.045.036l-.194.138a.434.434 0 01-.051.033l-.196.11a.786.786 0 01-.057.028l-.197.083a.506.506 0 01-.06.021l-.192.058a.47.47 0 01-.063.015l-.195.034a.44.44 0 01-.063.007l-.196.012zm-17.606-1.126h17.589l.147-.009.131-.023.132-.039.139-.059.141-.08.145-.103.151-.134.153-.166.153-.202.148-.245.144-.295.132-.346.116-.402.092-.462.06-.525.023-.61.05-3.87.03-3.88.007-3.777-.008-3.774-.028-3.881-.051-3.881-.023-.599-.06-.523-.092-.463-.116-.4-.133-.349-.143-.294-.148-.245-.153-.203-.153-.167-.15-.133-.146-.104-.139-.078-.141-.058-.133-.04-.13-.023-.147-.009h-17.59zM58.812 144.015a9.942 9.942 0 119.944-9.942 9.953 9.953 0 01-9.944 9.942zm0-19.135a9.192 9.192 0 109.194 9.193 9.202 9.202 0 00-9.194-9.193zM41.805 149.755H27.774a3.781 3.781 0 01-3.778-3.776v-23.811a3.782 3.782 0 013.778-3.778h14.03a3.782 3.782 0 013.778 3.778v23.811a3.78 3.78 0 01-3.777 3.776zM27.774 119.14a3.031 3.031 0 00-3.028 3.028v23.811a3.03 3.03 0 003.028 3.026h14.03a3.03 3.03 0 003.028-3.026v-23.811a3.03 3.03 0 00-3.027-3.028zM86.875 150.18a14.848 14.848 0 01-14.832-14.831v-2.553a14.832 14.832 0 0129.664 0v2.553a14.848 14.848 0 01-14.832 14.832zm0-31.464a14.097 14.097 0 00-14.082 14.08v2.553a14.082 14.082 0 0028.164 0v-2.553a14.097 14.097 0 00-14.082-14.08zM86.875 49.17a13.318 13.318 0 1113.32-13.318 13.333 13.333 0 01-13.32 13.319zm0-25.511A12.193 12.193 0 1099.07 35.852 12.206 12.206 0 0086.875 23.66zM121.315 86.882a.376.376 0 01-.375-.375V54.93a.375.375 0 01.75 0v31.577a.375.375 0 01-.375.375z"/><path class="cls-2" d="M139.485 87.07h-18.17l-.034-.002-.194-.012a.435.435 0 01-.063-.007l-.195-.034a.476.476 0 01-.063-.015l-.193-.058a.506.506 0 01-.06-.02l-.196-.084a.783.783 0 01-.057-.027l-.196-.111a.42.42 0 01-.051-.033l-.194-.138a.703.703 0 01-.045-.036l-.195-.172a.535.535 0 01-.04-.04l-.191-.208a.658.658 0 01-.036-.042l-.186-.248a.502.502 0 01-.032-.047l-.177-.291a.45.45 0 01-.025-.046l-.166-.34a.93.93 0 01-.019-.045l-.15-.391a.462.462 0 01-.015-.046l-.129-.447a.516.516 0 01-.011-.046l-.1-.508-.008-.045-.066-.57a.407.407 0 01-.002-.043l-.024-.632-.052-3.9-.028-3.886-.009-3.782.009-3.78.028-3.886.051-3.888.025-.645a.435.435 0 01.002-.044l.066-.569a.49.49 0 01.007-.044l.101-.509a.532.532 0 01.011-.047l.129-.446a.54.54 0 01.015-.045l.15-.393.02-.044.165-.34a.658.658 0 01.025-.046l.177-.292a.606.606 0 01.032-.047l.187-.247a.566.566 0 01.033-.041l.191-.21a.768.768 0 01.044-.041l.194-.171a.578.578 0 01.043-.035l.193-.139a.386.386 0 01.056-.035l.195-.11a.53.53 0 01.058-.027l.197-.082a.719.719 0 01.052-.019l.194-.059a.662.662 0 01.066-.016l.195-.033a.574.574 0 01.063-.007l.194-.012h18.204a.562.562 0 01.562.562v31.576a.562.562 0 01-.562.562zm-18.153-1.126h17.59V55.493h-17.59l-.146.009-.13.022-.133.04-.141.06-.14.077-.144.104-.151.133-.153.167-.153.203-.148.245-.143.294-.134.348-.115.4-.092.464-.06.523-.023.611-.05 3.87-.03 3.881-.008 3.774.009 3.777.028 3.88.051 3.882.023.597.06.525.092.462.115.402.133.346.144.295.148.245.153.202.153.166.15.134.146.104.14.08.14.058.132.039.131.023z"/><path class="cls-3" d="M40.652 89.937a2.89 2.89 0 00-.984-.172c-.404 0-.819.14-.819.588 0 .361.24.535.9.794.804.34 1.268.653 1.268 1.407 0 .914-.78 1.289-1.6 1.289a3.792 3.792 0 01-1.374-.229l.168-.632a3.195 3.195 0 001.195.273c.527 0 .883-.217.883-.648 0-.388-.345-.6-.996-.858-.754-.302-1.184-.683-1.184-1.332 0-.887.786-1.26 1.523-1.26a3.583 3.583 0 011.165.178zm2.485 3.906a1.753 1.753 0 10-1.64-1.75 1.565 1.565 0 001.64 1.75m0-2.95c.625 0 .913.5.913 1.2 0 .715-.288 1.213-.913 1.213-.617 0-.907-.498-.907-1.213 0-.7.282-1.2.907-1.2m2.187-.476v3.38h.721v-1.881c0-.745.427-1.022.827-1.022.545 0 .691.36.691.941v1.961h.741V91.56a1.143 1.143 0 00-1.235-1.217 1.128 1.128 0 00-1.024.545h-.014v-.471zm4.067 0h-.797l1.335 3.278-.547 1.32h.758l1.835-4.598h-.762l-.908 2.48h-.009zm35.441 3.38h2.688v-.632h-1.938v-1.414h1.72v-.611h-1.72v-1.297h1.877v-.606h-2.627zm3.274-3.38v3.38h.724v-1.881c0-.745.412-1.022.826-1.022.551 0 .697.36.697.941v1.961h.716V91.56a1.228 1.228 0 00-2.249-.672h-.01v-.471zm-32.862 0v3.38h.736v-1.881c0-.745.423-1.022.817-1.022.557 0 .709.36.709.941v1.961h.725V91.56a1.135 1.135 0 00-1.224-1.217 1.156 1.156 0 00-1.039.545h-.01v-.471zm36.185.55h.56v1.897c0 .62.138.955.896.955.197 0 .408-.01.56-.023v-.555a2.45 2.45 0 01-.343.027c-.348 0-.393-.08-.393-.54v-1.76h.739v-.551h-.739v-.875h-.72v.875h-.56zm5.394 1.339v-.31c0-1.005-.495-1.653-1.467-1.653a1.589 1.589 0 00-1.587 1.76 1.643 1.643 0 001.793 1.74 2.69 2.69 0 001.015-.153l-.095-.537a2.362 2.362 0 01-.849.153 1.042 1.042 0 01-1.156-1zm-2.346-.532a.902.902 0 01.879-.913.785.785 0 01.787.896v.017h-1.666m4.602-1.425a1.15 1.15 0 00-.126-.006.87.87 0 00-.87.518h-.018v-.444h-.705v3.38h.732v-1.794c0-.814.357-1.09.797-1.09.064 0 .113 0 .154.002zm-40.485.619h.553v1.896c0 .62.144.955.923.955.187 0 .403-.01.539-.023v-.555a2.238 2.238 0 01-.326.027c-.353 0-.389-.08-.389-.54v-1.76h.717v-.551h-.717v-.875h-.747v.875h-.553zm14.09 0h.572v1.896c0 .62.123.955.908.955.191 0 .395-.01.554-.023v-.555a2.465 2.465 0 01-.343.027c-.351 0-.393-.08-.393-.54v-1.76h.737v-.551h-.737v-.875h-.726v.875h-.572zm-8.688 1.338v-.31c0-1.005-.5-1.653-1.457-1.653a1.588 1.588 0 00-1.601 1.76 1.64 1.64 0 001.789 1.74 2.663 2.663 0 001.014-.153l-.097-.537a2.425 2.425 0 01-.853.153 1.043 1.043 0 01-1.143-1zm-2.348-.532a.905.905 0 01.89-.913.78.78 0 01.77.896v.017h-1.66m21.257.532v-.31c0-1.005-.495-1.653-1.452-1.653a1.596 1.596 0 00-1.607 1.76 1.648 1.648 0 001.805 1.74 2.601 2.601 0 001-.153l-.102-.537a2.23 2.23 0 01-.828.153 1.056 1.056 0 01-1.176-1zm-2.36-.532a.92.92 0 01.908-.913.79.79 0 01.78.896v.017h-1.688M66.282 90.35c-.065-.004-.092-.006-.137-.006a.876.876 0 00-.883.518h-.01v-.444h-.705v3.38h.719v-1.794c0-.814.371-1.09.816-1.09.063 0 .101 0 .147.002zm33.288.619h.475v1.896c0 .62.146.955.904.955.2 0 .413-.01.567-.023v-.555a2.37 2.37 0 01-.348.027c-.328 0-.398-.08-.398-.54v-1.76h.756v-.551h-.756v-.875h-.725v.875h-.475zm4.41.7c-1.146 0-2.12.182-2.12 1.157 0 .776.587 1.018 1.155 1.018a1.084 1.084 0 001.02-.522h.016a2.34 2.34 0 00.074.475h.637a6.44 6.44 0 01-.042-.783v-1.426c0-.812-.493-1.244-1.467-1.244a3.352 3.352 0 00-1.063.195l.152.537a2.448 2.448 0 01.865-.181c.54 0 .774.246.774.693zm0 .475v.266a.83.83 0 01-.87.912.495.495 0 01-.557-.527c0-.525.613-.65 1.29-.65zm-35.37-.474c-1.133 0-2.114.181-2.114 1.156 0 .776.579 1.018 1.164 1.018a1.104 1.104 0 001.02-.522h.012a2.995 2.995 0 00.068.475h.635a4.77 4.77 0 01-.055-.783v-1.426c0-.812-.475-1.244-1.44-1.244a3.203 3.203 0 00-1.062.195l.142.537a2.437 2.437 0 01.86-.181c.54 0 .77.246.77.693zm0 .474v.266a.824.824 0 01-.852.912.502.502 0 01-.575-.527c0-.525.621-.65 1.296-.65zm37.617-3.01h-.733v.677h.733zm-.012 1.284h-.721v3.38h.721zm-30.153-1.283h-.744v.676h.744zm-.017 1.283h-.727v3.38h.727zm30.944 0v3.38h.724v-1.881c0-.745.427-1.022.826-1.022.547 0 .693.36.693.941v1.961h.729V91.56a1.128 1.128 0 00-1.221-1.217 1.16 1.16 0 00-1.039.545h-.006v-.471zm3.718 0v3.38h.733v-1.915c0-.71.359-.988.756-.988.547 0 .652.34.652.902v2h.724V91.73a.734.734 0 01.74-.836c.531 0 .641.383.641.941v1.961h.738V91.56a1.108 1.108 0 00-1.21-1.217 1.14 1.14 0 00-1.048.545h-.028a.985.985 0 00-.991-.545 1.052 1.052 0 00-.979.557h-.019v-.483zm8.551 1.889v-.31c0-1.005-.493-1.653-1.447-1.653a1.594 1.594 0 00-1.605 1.76 1.643 1.643 0 001.806 1.74 2.636 2.636 0 00.998-.153l-.097-.537a2.327 2.327 0 01-.854.153 1.056 1.056 0 01-1.153-1zm-2.352-.532a.919.919 0 01.905-.913.794.794 0 01.773.896v.017h-1.678m2.902-1.357v3.38h.71v-1.881c0-.745.416-1.022.83-1.022.57 0 .697.36.697.941v1.961h.733V91.56a1.24 1.24 0 00-2.266-.672h-.016v-.471zm3.321.55h.55v1.897c0 .62.14.955.903.955.202 0 .41-.01.56-.023v-.555a2.401 2.401 0 01-.333.027c-.333 0-.39-.08-.39-.54v-1.76h.722v-.551h-.721v-.875h-.74v.875h-.55zm3.733 2.83h.767v-4.56h-.767zm-73.111 0h.736v-4.56h-.736zm74.627-3.38v3.38h.722v-1.881c0-.745.418-1.022.826-1.022.565 0 .695.36.695.941v1.961h.734V91.56a1.235 1.235 0 00-2.259-.672h-.018v-.471zm6.028.05a2.053 2.053 0 00-.77-.124 1.655 1.655 0 00-1.752 1.76 1.617 1.617 0 001.756 1.74 1.712 1.712 0 00.766-.139l-.117-.525a1.195 1.195 0 01-.6.127 1.214 1.214 0 01-.023-2.412 1.475 1.475 0 01.604.118zm-62.03 0a2.107 2.107 0 00-.775-.124 1.659 1.659 0 00-1.76 1.76 1.621 1.621 0 001.76 1.74 1.75 1.75 0 00.776-.139l-.127-.525a1.21 1.21 0 01-.605.127 1.214 1.214 0 01-.012-2.412 1.489 1.489 0 01.598.118zm62.638 3.33h.832v-.845h-.832zM78.535 93.798l1.266-3.391h-.78l-.874 2.725h-.014l-.889-2.725h-.807l1.27 3.391h.828zM115.886 59.15a4.826 4.826 0 10-4.823 4.757 4.797 4.797 0 004.823-4.757zm-.642 0a4.185 4.185 0 11-4.181-4.27 4.2 4.2 0 014.18 4.27zM72.8 61.29a2.892 2.892 0 01-.863-2.134 3.102 3.102 0 01.864-2.24 3.55 3.55 0 014.644 0 3.102 3.102 0 01.852 2.24 2.81 2.81 0 01-.852 2.134 3.125 3.125 0 01-2.324.97 3.184 3.184 0 01-2.32-.97zm6.676.565a3.96 3.96 0 001.149-2.7 3.692 3.692 0 00-1.149-2.767 6.18 6.18 0 00-4.355-1.475 6.81 6.81 0 00-4.336 1.471 3.695 3.695 0 00-1.184 2.772 3.744 3.744 0 001.184 2.699 6.611 6.611 0 004.336 1.479 6.525 6.525 0 004.355-1.48zM62.664 54.915a6.56 6.56 0 00-2.817.585 2.16 2.16 0 00-1.476 1.968 2.07 2.07 0 00.55 1.38 2.612 2.612 0 001.606.769 22.537 22.537 0 002.34.386c.932.108 1.867.207 2.254.307.274.082.787.197.787.695a.897.897 0 01-.621.84 4.126 4.126 0 01-1.87.367 7.254 7.254 0 01-2.22-.428 2.91 2.91 0 01-1.299-.875 1.374 1.374 0 01-.266-.835h-1.019V63h1.133v-.429c0-.052.05-.133.246-.127a11.961 11.961 0 001.697.567 6.661 6.661 0 001.735.232 7.082 7.082 0 002.33-.345 6.912 6.912 0 001.406-.639 2.068 2.068 0 00.74-1.549 2.04 2.04 0 00-.598-1.52 2.35 2.35 0 00-.747-.55 5.363 5.363 0 00-.923-.34 17.278 17.278 0 00-2.572-.393 19.478 19.478 0 01-2.299-.265.598.598 0 01-.431-.566.707.707 0 01.398-.624 5.085 5.085 0 012.107-.361 6.724 6.724 0 012.452.405 2.251 2.251 0 01.588.375 2.069 2.069 0 01.572.985h.935v-2.584h-1.05v.321c0 .104-.09.24-.286.127a7.424 7.424 0 00-3.382-.805zM85.387 55.388l5.048 4.627.018-3.111c-.015-.426-.088-.572-.524-.572h-.956v-.944H93.3v.944h-.93c-.45 0-.477.126-.483.572l.018 5.935h-1.47l-5.82-5.207v3.678c.007.43.02.629.44.629h1.022v.9h-4.23v-.9h.982c.373 0 .357-.377.357-.649v-4.357c0-.308-.043-.601-.603-.601h-.818v-.944zM98.18 61.939c.034 0 .218-.006.261-.014a.393.393 0 00.191-.191.99.99 0 00.016-.213V60.05c0-.035 0-.047-.062-.138-.065-.09-2.637-3.05-2.75-3.206a1.1 1.1 0 00-.807-.375h-.879v-.943h5.053v.943h-.617c-.133 0-.231.115-.102.246 0 0 1.701 2.116 1.723 2.133.013.027.031.033.043.004.023-.018 1.752-2.113 1.766-2.13.08-.094.019-.253-.153-.253h-.644v-.943h4.179v.943h-.941a.834.834 0 00-.733.305c-.119.145-2.718 3.185-2.798 3.273a.197.197 0 00-.035.14v1.472a1.104 1.104 0 00.02.213.346.346 0 00.202.19 2.533 2.533 0 00.258.015h.953v.9h-5.035v-.9z"/><path class="cls-3" d="M112.359 61.808c.043-.039.037-.039.037-.039a7.313 7.313 0 01-.181-1.336c-.077-.488-.235-.879-.862-.879h-1.568l.08.082v2.139l.059.033h-.9l.054-.039v-5.363l-.055-.045h2.356a2.628 2.628 0 01.734.091 1.551 1.551 0 01.414 2.795 2.485 2.485 0 01-.414.024c.77 0 .867.451.942 1.367a3.294 3.294 0 00.253 1.105l.102.065zm-.988-4.709h-1.586l.08.068v1.737l-.08.064h1.568a.988.988 0 001.092-1.037c0-.463-.342-.832-1.074-.832z"/><path d="M100.057 135.349a13.182 13.182 0 01-26.363 0v-2.553a13.182 13.182 0 0126.363 0z" fill="#dc8f76"/><path class="cls-2" d="M86.875 149.091a13.759 13.759 0 01-13.744-13.742v-2.553a13.744 13.744 0 0127.489 0v2.553a13.759 13.759 0 01-13.745 13.742zm0-28.912a12.632 12.632 0 00-12.619 12.617v2.553a12.62 12.62 0 0025.239 0v-2.553a12.633 12.633 0 00-12.62-12.617zM41.805 148.212H27.774a2.237 2.237 0 01-2.235-2.233v-23.811a2.237 2.237 0 012.235-2.234h14.03a2.236 2.236 0 012.234 2.234v23.811a2.236 2.236 0 01-2.233 2.233zm-14.031-27.153a1.11 1.11 0 00-1.11 1.109v23.811a1.11 1.11 0 001.11 1.108h14.03a1.11 1.11 0 001.11-1.108v-23.811a1.11 1.11 0 00-1.11-1.109z"/><path class="cls-2" d="M31.6 126.882h6.377a1.238 1.238 0 011.238 1.238v1.276a1.239 1.239 0 01-1.239 1.238H31.6a1.237 1.237 0 01-1.237-1.237v-1.277a1.238 1.238 0 011.238-1.238z"/><path class="cls-2" d="M37.977 131.197H31.6a1.802 1.802 0 01-1.8-1.801v-1.276a1.802 1.802 0 011.8-1.8h6.377a1.802 1.802 0 011.8 1.8v1.276a1.802 1.802 0 01-1.8 1.8zm-6.377-3.752a.675.675 0 00-.675.675v1.276a.676.676 0 00.675.676h6.377a.676.676 0 00.675-.676v-1.276a.675.675 0 00-.675-.675zM31.6 137.511h6.377a1.238 1.238 0 011.238 1.238v1.276a1.239 1.239 0 01-1.239 1.238H31.6a1.237 1.237 0 01-1.237-1.237v-1.277a1.238 1.238 0 011.238-1.238z"/><path class="cls-2" d="M37.977 141.826H31.6a1.802 1.802 0 01-1.8-1.801v-1.276a1.802 1.802 0 011.8-1.8h6.377a1.802 1.802 0 011.8 1.8v1.276a1.802 1.802 0 01-1.8 1.8zm-6.377-3.752a.675.675 0 00-.675.675v1.276a.676.676 0 00.675.676h6.377a.676.676 0 00.675-.676v-1.276a.675.675 0 00-.675-.675z"/><path class="cls-5" d="M31.113 127.568h7.354v2.38h-7.354z"/><path class="cls-2" d="M38.467 130.51h-7.354a.562.562 0 01-.563-.562v-2.38a.562.562 0 01.563-.563h7.354a.563.563 0 01.563.563v2.38a.563.563 0 01-.563.563zm-6.792-1.124h6.23v-1.256h-6.23z"/><path class="cls-5" d="M31.113 138.197h7.354v2.38h-7.354z"/><path class="cls-2" d="M38.467 141.14h-7.354a.562.562 0 01-.563-.563v-2.38a.562.562 0 01.563-.563h7.354a.563.563 0 01.563.563v2.38a.563.563 0 01-.563.562zm-6.792-1.126h6.23v-1.255h-6.23zM58.812 142.927a8.854 8.854 0 118.854-8.854 8.864 8.864 0 01-8.854 8.853zm0-16.583a7.729 7.729 0 107.729 7.73 7.737 7.737 0 00-7.729-7.73z"/><path class="cls-2" d="M58.812 140.7a6.627 6.627 0 116.627-6.627 6.634 6.634 0 01-6.627 6.627zm0-12.129a5.502 5.502 0 105.502 5.502 5.508 5.508 0 00-5.502-5.502z"/><path class="cls-2" d="M60.164 131.302a3.083 3.083 0 11-2.703 0l-.335-.688a3.85 3.85 0 103.374 0z"/><path class="cls-2" d="M58.398 129.158h.83v4.765h-.83zM126.632 149.543a15.47 15.47 0 1115.47-15.47 15.488 15.488 0 01-15.47 15.47zm0-30.189a14.72 14.72 0 1014.72 14.72 14.737 14.737 0 00-14.72-14.72z"/><path d="M140.45 134.073a13.819 13.819 0 10-13.818 13.819 13.82 13.82 0 0013.819-13.819z" fill="#3e3a39"/><path class="cls-2" d="M126.632 148.454a14.382 14.382 0 1114.381-14.381 14.398 14.398 0 01-14.38 14.381zm0-27.639a13.257 13.257 0 1013.256 13.258 13.272 13.272 0 00-13.256-13.258z"/><path class="cls-2" d="M126.632 139.605a5.532 5.532 0 115.532-5.532 5.54 5.54 0 01-5.532 5.532zm0-9.94a4.407 4.407 0 104.407 4.408 4.413 4.413 0 00-4.407-4.408z"/><path class="cls-2" d="M126.632 135.896a1.823 1.823 0 111.823-1.823 1.826 1.826 0 01-1.823 1.823zm0-2.522a.698.698 0 10.698.699.7.7 0 00-.698-.699z"/><path class="cls-7" d="M27.175 91.57l-.204-.325-.184-.361-.162-.4-.135-.436-.104-.471V51.86l.104-.47.135-.437.162-.399.184-.363.204-.325.173-.228v42.16l-.173-.228zM33.475 91.57l.204-.325.185-.361.162-.4.134-.436.105-.471V51.86l-.105-.47-.134-.437-.162-.399-.185-.363-.204-.325-.174-.228v42.16l.174-.228z"/><path class="cls-3" d="M30.963 93.016l.267-.013.264-.041.265-.068.263-.096.258-.125.255-.155.248-.187.242-.219.232-.254.044-.06v-42.16l-.044-.061-.232-.253-.242-.218-.248-.187-.255-.156-.258-.125-.263-.094-.265-.07-.264-.039-.267-.014h-1.275l-.268.014-.264.039-.265.07-.262.094-.258.125-.255.156-.249.187-.242.218-.231.253-.046.061v42.16l.046.06.231.254.242.219.249.187.255.155.258.125.262.096.265.068.264.041.268.013h1.275z"/><path class="cls-2" d="M30.963 93.579H29.66l-.267-.014a.501.501 0 01-.059-.006l-.265-.04a.604.604 0 01-.053-.012l-.265-.068a.446.446 0 01-.055-.017l-.261-.096a.7.7 0 01-.051-.022l-.259-.125a.633.633 0 01-.047-.026L27.823 93l-.043-.03-.25-.186c-.015-.011-.028-.023-.042-.035l-.241-.219-.039-.038-.23-.255-.03-.036-.047-.06a.565.565 0 01-.115-.342v-42.16a.563.563 0 01.112-.338l.046-.06a.648.648 0 01.034-.042l.232-.253a.466.466 0 01.038-.039l.241-.217a.53.53 0 01.04-.033l.249-.188a.467.467 0 01.044-.029l.254-.156a.707.707 0 01.051-.028l.259-.124a.632.632 0 01.051-.022l.262-.094a.543.543 0 01.05-.015l.265-.07a.466.466 0 01.057-.012l.266-.04a.631.631 0 01.054-.005l.267-.014h1.335l.266.014a.66.66 0 01.054.005l.266.04a.495.495 0 01.057.012l.266.07a.371.371 0 01.049.014l.262.095a.745.745 0 01.053.022l.258.125a.671.671 0 01.048.026l.256.156a.483.483 0 01.046.032l.249.187.038.032.241.217.038.038.232.253a.616.616 0 01.04.048l.043.061a.558.558 0 01.109.332v42.16a.56.56 0 01-.112.337l-.044.06a.594.594 0 01-.035.043l-.233.254a.582.582 0 01-.037.037l-.242.22a.598.598 0 01-.04.033l-.248.186-.046.032-.256.154a.57.57 0 01-.045.024l-.258.126a.608.608 0 01-.053.022l-.262.096a.487.487 0 01-.054.017l-.265.068a.677.677 0 01-.053.011l-.265.041a.518.518 0 01-.059.006l-.266.013zm-1.262-1.125h1.25l.222-.011.209-.032.21-.055.21-.076.209-.102.21-.127.204-.154.202-.183.112-.123V49.844l-.11-.12-.204-.184-.206-.156-.208-.127-.208-.1-.21-.076-.211-.055-.21-.031-.223-.012h-1.247l-.225.012-.208.031-.21.055-.212.076-.208.1-.206.127-.208.157-.203.182-.111.122V91.59l.112.124.202.183.206.154.208.128.21.1.21.077.21.055.208.032z"/><path class="cls-2" d="M30.963 93.579H29.66l-.267-.014a.501.501 0 01-.059-.006l-.265-.04a.604.604 0 01-.053-.012l-.265-.068a.446.446 0 01-.055-.017l-.261-.096a.7.7 0 01-.051-.022l-.259-.125a.633.633 0 01-.047-.026L27.823 93l-.043-.03-.25-.186c-.015-.011-.028-.023-.042-.035l-.241-.219-.039-.038-.23-.255c-.012-.011-.022-.024-.032-.037l-.219-.289a.503.503 0 01-.029-.04l-.203-.325a.508.508 0 01-.026-.045l-.184-.362a.433.433 0 01-.02-.044l-.161-.4a.433.433 0 01-.016-.044l-.134-.436c-.006-.014-.01-.03-.013-.045l-.104-.47a.569.569 0 01-.013-.122V51.86a.57.57 0 01.013-.122l.104-.47a.622.622 0 01.012-.044l.135-.437.016-.046.162-.398a.541.541 0 01.02-.043l.183-.363a.508.508 0 01.026-.045l.203-.325.028-.04.22-.29.032-.04.232-.252a.466.466 0 01.038-.039l.241-.217a.53.53 0 01.04-.033l.249-.188a.467.467 0 01.044-.029l.254-.156a.707.707 0 01.051-.028l.259-.124a.632.632 0 01.051-.022l.262-.094a.543.543 0 01.05-.015l.265-.07a.466.466 0 01.057-.012l.266-.04a.631.631 0 01.054-.005l.267-.014h1.335l.266.014a.66.66 0 01.054.005l.266.04a.495.495 0 01.057.012l.266.07a.371.371 0 01.049.014l.262.095a.745.745 0 01.053.022l.258.125a.671.671 0 01.048.026l.256.156a.483.483 0 01.046.032l.249.187.038.032.241.217.038.038.232.253a.734.734 0 01.034.042l.219.29.027.038.203.325a.855.855 0 01.025.043l.185.364c.008.014.014.029.02.044l.162.398c.006.015.012.03.016.046l.135.437a.616.616 0 01.012.044l.104.47a.527.527 0 01.014.122v37.717a.525.525 0 01-.014.122l-.104.47-.012.045-.135.436a.865.865 0 01-.016.045l-.162.4a.467.467 0 01-.02.044l-.186.363a.653.653 0 01-.024.043l-.203.324a.519.519 0 01-.028.04l-.218.289a.59.59 0 01-.033.04l-.233.254a.582.582 0 01-.037.037l-.242.22a.598.598 0 01-.04.033l-.248.186-.046.032-.256.154a.57.57 0 01-.045.024l-.258.126a.608.608 0 01-.053.022l-.262.096a.487.487 0 01-.054.017l-.265.068a.677.677 0 01-.053.011l-.265.041a.518.518 0 01-.059.006l-.266.013zm-1.262-1.125h1.25l.222-.011.209-.032.21-.055.21-.076.209-.102.21-.127.204-.154.202-.183.197-.216.188-.248.177-.283.163-.318.143-.354.121-.391.087-.389V51.922l-.087-.388-.12-.392-.144-.353-.163-.32-.178-.283-.187-.25-.196-.212-.203-.184-.206-.156-.208-.127-.208-.1-.21-.076-.211-.055-.21-.031-.223-.012h-1.247l-.225.012-.208.031-.21.055-.212.076-.208.1-.206.127-.208.157-.203.182-.195.214-.189.25-.177.281-.161.32-.144.354-.121.392-.086.388v37.593l.086.389.12.39.145.356.16.318.178.282.19.248.195.216.202.183.206.154.208.128.21.1.21.077.21.055.208.032z"/><path class="cls-7" d="M146.575 91.57l.203-.325.185-.361.162-.4.134-.436.104-.471V51.86l-.104-.47-.134-.437-.162-.399-.185-.363-.203-.325-.173-.228v42.16l.173-.228zM140.274 91.57l-.203-.325-.185-.361-.162-.4-.134-.436-.105-.471V51.86l.105-.47.134-.437.162-.399.185-.363.203-.325.175-.228v42.16l-.175-.228z"/><path class="cls-3" d="M142.787 93.016l-.267-.013-.266-.041-.264-.068-.262-.096-.259-.125-.254-.155-.25-.187-.24-.219-.232-.254-.044-.06v-42.16l.044-.061.232-.253.24-.218.25-.187.254-.156.259-.125.262-.094.264-.07.266-.039.267-.014h1.276l.265.014.266.039.264.07.263.094.258.125.255.156.249.187.241.218.232.253.046.061v42.16l-.046.06-.232.254-.241.219-.249.187-.255.155-.258.125-.263.096-.264.068-.266.041-.265.013h-1.276z"/><path class="cls-2" d="M144.063 93.579h-1.304l-.266-.014a.518.518 0 01-.059-.006l-.266-.04a.644.644 0 01-.054-.012l-.263-.068a.435.435 0 01-.054-.017l-.262-.096a.72.72 0 01-.052-.022l-.26-.125a.629.629 0 01-.046-.026l-.254-.154a.454.454 0 01-.044-.03l-.25-.186a.48.48 0 01-.043-.035l-.24-.22a.414.414 0 01-.037-.036l-.232-.254-.036-.043-.044-.06a.562.562 0 01-.11-.337v-42.16a.557.557 0 01.108-.332l.043-.06a.616.616 0 01.04-.049l.232-.253a.842.842 0 01.037-.037l.24-.218a.866.866 0 01.04-.033l.25-.188a.467.467 0 01.044-.03l.254-.155a.526.526 0 01.05-.028l.26-.124a.68.68 0 01.052-.022l.262-.095c.016-.006.032-.01.049-.014l.263-.07a.523.523 0 01.06-.012l.266-.04a.613.613 0 01.054-.005l.266-.014h1.335l.266.014c.018 0 .036.003.054.005l.266.04a.52.52 0 01.059.012l.264.07a.543.543 0 01.049.014l.262.095a.71.71 0 01.052.022l.258.124a.677.677 0 01.052.028l.254.156a.448.448 0 01.044.03l.25.187a.6.6 0 01.04.033l.24.218a.446.446 0 01.036.037l.232.253a.67.67 0 01.036.043l.045.06a.562.562 0 01.113.338v42.16a.565.565 0 01-.115.342l-.047.06a.369.369 0 01-.031.038l-.232.254a.548.548 0 01-.036.036l-.24.22a.634.634 0 01-.043.035l-.25.186-.044.03-.254.154c-.015.01-.031.018-.047.026l-.259.125a.788.788 0 01-.052.022l-.263.096a.392.392 0 01-.053.017l-.263.068a.592.592 0 01-.055.011l-.266.041a.498.498 0 01-.059.006l-.266.013zm-1.263-1.125h1.25l.222-.011.21-.032.209-.055.21-.076.21-.102.208-.127.206-.154.2-.183.114-.124V49.846l-.113-.123-.2-.183-.209-.156-.206-.127-.208-.1-.212-.076-.21-.055-.209-.031-.224-.012H142.8l-.224.012-.21.031-.209.055-.212.076-.208.1-.207.127-.207.156-.202.183-.11.121v41.747l.111.123.201.183.206.154.208.128.21.1.21.077.21.055.21.032z"/><path class="cls-2" d="M144.063 93.579h-1.304l-.266-.014a.518.518 0 01-.059-.006l-.266-.04a.644.644 0 01-.054-.012l-.263-.068a.435.435 0 01-.054-.017l-.262-.096a.72.72 0 01-.052-.022l-.26-.125a.629.629 0 01-.046-.026l-.254-.154a.454.454 0 01-.044-.03l-.25-.186a.48.48 0 01-.043-.035l-.24-.22a.414.414 0 01-.037-.036l-.232-.254-.032-.039-.219-.289a.61.61 0 01-.03-.042l-.202-.325c-.009-.013-.016-.027-.024-.041l-.185-.363a.462.462 0 01-.02-.045l-.162-.4a.711.711 0 01-.016-.044l-.135-.436-.012-.045-.104-.47a.526.526 0 01-.014-.122V51.86a.527.527 0 01.014-.122l.104-.47a.702.702 0 01.012-.044l.135-.437a.56.56 0 01.016-.046l.162-.398a.542.542 0 01.02-.044l.185-.364a.566.566 0 01.024-.042l.203-.325a.741.741 0 01.028-.041l.22-.29a.993.993 0 01.033-.04l.232-.253a.842.842 0 01.037-.037l.24-.218a.866.866 0 01.04-.033l.25-.188a.467.467 0 01.044-.03l.254-.155a.526.526 0 01.05-.028l.26-.124a.68.68 0 01.052-.022l.262-.095c.016-.006.032-.01.049-.014l.263-.07a.523.523 0 01.06-.012l.266-.04a.613.613 0 01.054-.005l.266-.014h1.335l.266.014c.018 0 .036.003.054.005l.266.04a.52.52 0 01.059.012l.264.07a.543.543 0 01.049.014l.262.095a.71.71 0 01.052.022l.258.124a.677.677 0 01.052.028l.254.156a.448.448 0 01.044.03l.25.187a.6.6 0 01.04.033l.24.218a.446.446 0 01.036.037l.232.253a.609.609 0 01.035.04l.219.29.028.041.203.325.024.042.185.364.02.044.161.398c.007.015.012.03.017.046l.135.437a.616.616 0 01.012.044l.104.47a.58.58 0 01.013.122v37.717a.578.578 0 01-.013.122l-.104.47-.013.045-.134.436a.475.475 0 01-.016.045l-.162.4a.464.464 0 01-.02.044l-.185.363-.024.041-.203.325a.88.88 0 01-.03.042l-.218.29-.033.038-.232.254a.548.548 0 01-.036.036l-.24.22a.634.634 0 01-.043.035l-.25.186-.044.03-.254.154c-.015.01-.031.018-.047.026l-.259.125a.788.788 0 01-.052.022l-.263.096a.392.392 0 01-.052.017l-.264.068a.592.592 0 01-.055.011l-.266.041a.498.498 0 01-.059.006l-.266.013zm-1.263-1.125h1.25l.222-.011.21-.032.209-.055.21-.076.21-.102.208-.127.206-.154.2-.183.199-.216.188-.248.176-.282.163-.319.144-.354.12-.391.086-.389V51.922l-.086-.388-.12-.392-.144-.353-.163-.32-.177-.283-.187-.249-.198-.214-.2-.183-.209-.156-.206-.127-.208-.1-.212-.076-.21-.055-.209-.031-.224-.012H142.8l-.224.012-.21.031-.209.055-.212.076-.208.1-.207.127-.207.156-.202.183-.196.214-.189.249-.175.282-.164.32-.143.354-.121.392-.087.388v37.593l.087.389.12.39.144.355.163.319.176.282.189.248.197.216.201.183.206.154.208.128.21.1.21.077.21.055.21.032z"/><path class="cls-7" d="M150.23 155.232H23.521a5.008 5.008 0 01-5.001-5.002V23.52a5.006 5.006 0 015.001-5h126.71a5.007 5.007 0 015.002 5v126.71a5.008 5.008 0 01-5.003 5.002zM23.521 20.02a3.505 3.505 0 00-3.501 3.5v126.71a3.506 3.506 0 003.501 3.502h126.71a3.506 3.506 0 003.502-3.502V23.52a3.505 3.505 0 00-3.503-3.5z"/><path fill="none" d="M0 0h173.752v173.752H0z"/></g></g></svg>