<svg xmlns="http://www.w3.org/2000/svg" viewBox="-82.395 0 555 387.22"><defs><style>.cls-1{stroke-linecap:round}.cls-1,.cls-2{stroke-linejoin:round;stroke-width:.75px}.cls-1{fill:none;stroke:#9f9e9f}.cls-2{stroke:#b5b4b5}.cls-2,.cls-5{fill:#231815}.cls-6{fill:#b5b4b5}.cls-7{fill:#fff}.cls-8{fill:#b8cf3d}.cls-9{fill:#9f9e9f}.cls-10{fill:#c8c9ca}</style></defs><g id="_レイヤー_1" data-name="レイヤー 1"><path d="m378.48 251.75.02 1.8-.02 1.79-.04 1.8-.08 1.79-.1 1.75-.07 1.02-.02.19v.05c-4.39 55.29-50.52 97.91-105.97 97.91H114.31c-58.7 0-106.3-47.6-106.3-106.3s47.6-106.3 106.3-106.3H272.2c55.45 0 101.58 42.62 105.97 97.89v.18l.04.35.05.74.1 1.75.08 1.79z" class="cls-7"/><path d="M114.31 359.85H272.2m105.98-114.53-.01-.14m.04.49-.03-.35m.08 1.09-.05-.74m.05 15.01.1-1.75.08-1.79.04-1.8.02-1.79-.02-1.8-.04-1.8-.08-1.79-.1-1.75m-.07 15.29.07-1.02m-.09 1.24v-.03l.02-.19M272.2 147.25H114.31M8.01 253.55c0 58.7 47.6 106.3 106.3 106.3m0-212.6c-58.7 0-106.3 47.59-106.3 106.3m370.16-8.41c-4.39-55.27-50.52-97.89-105.97-97.89m0 212.6c55.45 0 101.58-42.62 105.97-97.9m0-.03v.03m0-16.81v.04" style="fill:none;stroke:#231815;stroke-miterlimit:10"/><path d="M144.4 275.73h11.11v18.23H144.4z" class="cls-10"/><path d="M146.25 279.29h7.41v3.99h-7.41zm0 7.12h7.41v3.99h-7.41z" class="cls-2"/><path d="M302.14 275.73h11.11v18.23h-11.11z" class="cls-10"/><path d="M303.99 279.29h7.41v3.99h-7.41zm0 7.12h7.41v3.99h-7.41z" class="cls-2"/></g><g id="_レイヤー_2" data-name="レイヤー 2"><path d="M66.93 295.9v-85.04m46.74 90.82-.01-1.15m.15 1.15-.01-1.15m-.13 1.15v8.39m.05-4.25v4.25m.09 0v-8.39m2.83 0v8.39m.09-4.25v4.25m.05 0v-8.39m-.13-1.15-.01 1.15m.14 0 .01-1.15m-3.12 5.13.05.16m-.06-5.74-.03-.07m3.17.07.02-.07m-.09 5.81.05-.16m46.74-94.8v85.04m7.21-51.75v11.59m.05-11.54v11.54m3.41-1.21v-2.36m0-3.34v-4.63m.05 10.33v-2.31m0-3.44v-4.63m3.8 8.02v-3.34m.04 3.39v-3.44m-2.31 14.28 1.69-2.87m-1.67 2.92 1.73-2.94m-3.28-16.02-.05.05m-60.52 61.62h.05m3.01 0h.05m79.98-57.04v13.83m.04-13.78v13.73m3.35 0v-13.73m.04 13.78v-13.83m-25.95 0-.05.05m3.89-.05-.04.05m96.35 52.85h-2.83m-154.92 0h-2.83m201.68 0h-40.96m-3.12 0h-40.96m-72.7 0h-40.97m-3.11 0H72.71m242.78-2.1h-15.93m-69.11 0h14.74m3.2-.18h22.78m3.6 0h22.4m5-5.48h11.06m-138.99-41.7-.05-.05m3.89.05-.04-.05m-7.31-8.02.05.05m29.41 18.41-.04-.05m24.53 33.34v-85.04m2.09 0v14.73m0 55.58v14.73m.18-67.1v49.16m-26.76-29.18-.04.05m26.8-20.03 21.44-21.44m-51.63 55.25.04-.05m116.43 13.21h-11.06m-105.41-26.99.04.05m51.59 50.57-21.44-21.44m92.04-10.03h-17.57m-104.66-5.32h3.43m-3.39-.05h3.35m-25.91-10.34h3.84m-3.89-.05h3.85m140.95-23.37.13-.06m-92.17 49.22-.12.06m-26.68-29.19h-3.35m-18.76 0h-3.85m26-.05h-3.43m-18.68 0h-3.84m-.05-4.58h-3.41m3.46-.05h-3.51m56.22-15.35-.12-.06m70.34 70.66.12.13m-25.91.48V300m3.19.01V300m-26.18-.6-.05.13m49.22-92.17.05-.13m-49.22.13-.05-.13m48.83 92.17v-27.22m.39-64.82h-49.17m67.1-.18h-14.73m-55.57 0h-14.74m-157.74-2.1h85.04m72.7 0h85.04m3.5 62.85.13.13m-16.95 7.71v18.15m11.06 0v-18.15m-15.67-68.41 21.43 21.44m0 39.13V228.8m.19 67.1v-25.57m0-44.74v-14.73m2.09 0v85.04m-145.5-32.84s.01.04.02.05m54.66-58.03c-3.19 0-5.78 2.59-5.78 5.78m.01 85.04c0 3.19 2.59 5.78 5.78 5.78M66.93 295.9c0 3.19 2.59 5.78 5.78 5.78m85.04 0c3.19 0 5.78-2.59 5.78-5.78m-.01-85.04c0-3.19-2.59-5.78-5.78-5.78m-85.03 0c-3.19 0-5.78 2.59-5.78 5.78m53.97 79.09c0-3.13-2.54-5.67-5.67-5.67s-5.67 2.54-5.67 5.67 2.54 5.67 5.67 5.67 5.67-2.54 5.67-5.67" class="cls-1"/><path d="M120.85 289.95c0-3.1-2.52-5.62-5.62-5.62s-5.62 2.52-5.62 5.62 2.52 5.62 5.62 5.62 5.62-2.52 5.62-5.62m109.6-82.77c-2.04 0-3.68 1.65-3.68 3.68m0 85.04c0 2.04 1.65 3.68 3.68 3.68m-115.22 12.05c.86 0 1.56-.7 1.56-1.56m-3.12 0c0 .86.7 1.56 1.56 1.56" class="cls-1"/><path d="M115.23 311.58c.83 0 1.51-.67 1.51-1.51m-3.02 0c0 .83.67 1.51 1.51 1.51" class="cls-1"/><path d="M115.23 311.49c.78 0 1.42-.63 1.42-1.42m-2.84 0c0 .78.63 1.42 1.42 1.42m163.55-21.54c0-3.21-2.6-5.81-5.81-5.81s-5.81 2.6-5.81 5.81 2.6 5.81 5.81 5.81 5.81-2.6 5.81-5.81m36.71 11.73c3.19 0 5.78-2.59 5.78-5.78m0-85.04c0-3.19-2.59-5.78-5.78-5.78" class="cls-1"/><path d="M278.64 289.95c0-3.13-2.54-5.67-5.67-5.67s-5.67 2.54-5.67 5.67 2.54 5.67 5.67 5.67 5.67-2.54 5.67-5.67" class="cls-1"/><path d="M278.59 289.95c0-3.1-2.52-5.62-5.62-5.62s-5.62 2.52-5.62 5.62 2.52 5.62 5.62 5.62 5.62-2.52 5.62-5.62" class="cls-6"/><path d="M298.41 269.18c-.8.8-1.24 1.88-1.24 3.01m4.25-4.26c-1.13 0-2.21.45-3.01 1.24m17.08 30.41c2.04 0 3.68-1.65 3.68-3.68m.01-85.04c0-2.04-1.65-3.68-3.68-3.68m-201.7 93.35v-.44h0v-.01m2.85 0v.01h0v.07h0v.37m180.96-93.3h.03l.02-.01h.09l.06-.01h.14l.08-.01h.27l.21-.01h.45l.25-.01h1.55m18.42 18.41v1.05l-.01.26v.49l-.01.23v.43l-.01.19v.17l-.01.07v.12l-.01.05v.08l-.01.01h0m0 39.32v.01l.01.01v.06l.01.03v.08l.01.1v.11l.01.14v.15l.01.16v.56l.01.2v.66m-19.62 29.25h-1.01l-.23-.01h-.34l-.15-.01h-.13l-.12-.01h-.1l-.07-.01h-.08l-.02-.01h-.02m-70.46-70.79h-.01v-.05l-.01-.04v-.1l-.01-.07v-.24l-.01-.19v-.21l-.01-.22v-.47l-.01-.25v-1.31m18.42-18.41h1.55l.24.01h.46l.21.01h.27l.08.01h.14l.06.01h.08l.03.01h.03m0 92.3h-.01 0-.02l-.03.01h-.08l-.06.01H248l-.08.01h-.27l-.21.01h-.46l-.24.01h-1.55m-18.42-18.41v-1.31l.01-.25v-.47l.01-.22v-.21l.01-.19v-.24l.01-.07v-.1l.01-.04v-.05h.01" class="cls-1"/><path d="M274.77 299.4v.16l-.2.59-.03.08v9.87c0 .85-.69 1.54-1.56 1.54s-1.55-.69-1.55-1.54v-9.43l-.01-.04v-.38h-.01l-.02-.08-.2-.6v-.16h3.59Z" class="cls-6"/><path d="M271.18 299.4h3.59m-3.37.83-.02-.07m0-.01-.2-.59m.24 2.25-.01-1.15m-.23-1.1v-.16m.24 2.41v8.28m3.11 0v-8.28m.24-2.25v-.16m-.24 2.41.01-1.15m.03-.51.2-.59m-.23.67.03-.07m-1.6 11.47c.87 0 1.56-.69 1.56-1.54m-3.11 0c0 .85.69 1.54 1.55 1.54m1.57-11.4v.43m-3.14-.43v.02l.01.02v.39m-154.61-.58v.01h0v.01l-.01.02v.04h0v.37m-3.13-.45v.01h0v.07h0v.37m57.07-44.79v.07l.01.28.01.27.02.27.01.11.04.26.03.26.05.26.01.07.05.25.06.25.07.24.07.23.08.23.08.23.09.21m0 0 .09.2.1.19.1.19.11.19.12.19.12.18.14.18.14.18.14.18.16.17.16.17.17.17.17.16.06.06.18.15.19.15.19.14.15.1.2.14.2.12.2.12.21.11.21.1.22.1.21.09.22.08.22.07m1.73-2.94-.1-.05-.29-.14-.24-.13-.22-.12-.03-.02-.2-.12-.18-.12-.06-.04-.17-.12-.17-.13-.07-.06-.15-.13-.14-.13-.09-.09-.13-.13-.12-.14-.09-.11-.1-.14-.1-.14-.08-.14-.08-.14-.07-.14m0 0-.06-.13-.05-.14-.05-.14-.02-.08-.05-.16-.02-.09-.04-.2-.01-.06-.02-.1-.03-.21-.02-.21-.01-.11-.01-.2v-.21m0 0v-.45l-.01-.11v-.56m12.68-6.37h-.26l-.25.02-.18.01-.25.03-.26.03-.25.05-.21.04-.24.06-.25.06-.24.07-.23.09-.23.08-.23.1-.22.1-.22.11-.22.12-.19.12-.21.13-.19.13-.2.14-.19.15-.19.16-.19.17-.17.17-.17.17-.17.19-.16.18-.15.2-.14.18-.14.2-.12.19-.13.22-.12.21-.11.22-.1.23-.1.22-.09.23-.08.23-.07.24-.07.24-.06.24-.04.22-.05.25-.03.25-.02.19-.02.25-.02.26v.25m0 0v.25l.02.26.02.25.02.19.03.25.05.25.04.21.06.25.07.24.07.24.08.23.09.23.1.22.1.23.11.22.12.21.13.21.12.2.14.2.14.18.15.19.16.19.17.18.17.18.17.17.19.17.19.15.19.16.2.14.19.13.21.13.19.11.22.12.22.11.22.11.23.09.23.09.23.08.24.08.25.06.24.06.21.04.25.05.26.03.25.03.18.01.25.01.26.01m0 0 .25-.01.26-.01.18-.01.25-.03.26-.03.25-.05.21-.04.24-.06.25-.06.23-.08.24-.08.23-.09.23-.09.22-.11.22-.11.22-.12.19-.11.21-.13.19-.13.2-.14.19-.16.19-.15.18-.17.18-.17.17-.18.17-.18.16-.19.15-.19.13-.18.15-.2.12-.2.13-.21.12-.21.11-.22.1-.23.1-.22.09-.23.08-.23.07-.24.07-.24.06-.25.04-.21.04-.25.04-.25.02-.19.02-.25.01-.26.01-.25m0 0-.01-.25-.01-.26-.02-.25-.02-.19-.04-.25-.04-.25-.04-.21-.06-.25-.07-.24-.07-.24-.08-.23-.09-.23-.1-.22-.1-.23-.11-.22-.12-.21-.13-.22-.12-.19-.15-.2-.13-.18-.15-.2-.16-.18-.17-.19-.17-.17-.18-.17-.18-.17-.19-.16-.19-.15-.2-.14-.19-.13-.21-.13-.19-.12-.22-.12-.22-.11-.22-.1-.23-.1-.23-.08-.24-.09-.23-.07-.25-.06-.24-.06-.21-.04-.25-.05-.26-.03-.25-.03-.18-.01-.26-.02h-.25m0 3.26h.17l.17.02.18.01.17.03.05.01.17.04.17.04.16.05.17.06.16.06.15.07.16.08.15.08.15.1.14.1.14.1.14.11.13.12.03.02.12.13.12.13.12.13.11.14.1.15.01.01.1.15.09.15.08.16.08.16.07.16.06.16.05.17.05.17.04.18.04.17.02.18.01.01.01.17.02.18v.18m0 0v.18l-.02.17-.01.18-.01.01-.02.18-.04.17-.04.18-.05.17-.05.17-.06.16-.07.16-.08.16-.08.16-.09.15-.1.15-.01.01-.1.15-.11.14-.12.13-.12.13-.12.12-.03.03-.13.12-.14.11-.14.1-.14.1-.15.09-.15.09-.16.08-.15.07-.16.06-.17.06-.16.05-.17.04-.17.04-.05.01-.17.02-.18.02-.17.01-.17.01m0 0-.17-.01-.17-.01-.18-.02-.17-.02-.05-.01-.17-.04-.17-.04-.16-.05-.17-.06-.16-.06-.15-.07-.16-.08-.15-.09-.15-.09-.14-.1-.14-.1-.14-.11-.13-.12-.03-.03-.12-.12-.12-.13-.12-.13-.11-.14-.1-.15-.01-.01-.1-.15-.09-.15-.08-.16-.08-.16-.07-.16-.06-.16-.05-.17-.05-.17-.04-.18-.04-.17-.03-.18v-.01l-.02-.18-.01-.17v-.18m0 0v-.18l.01-.18.02-.17v-.01l.03-.18.04-.17.04-.18.05-.17.05-.17.06-.16.07-.16.08-.16.08-.16.09-.15.1-.15.01-.01.1-.15.11-.14.12-.13.12-.13.12-.13.03-.02.13-.12.14-.11.14-.1.14-.1.15-.1.15-.08.16-.08.15-.07.16-.06.17-.06.16-.05.17-.04.17-.04.05-.01.17-.03.18-.01.17-.02h.17m11.56-9.56h-.13l-.12.01-.13.02-.13.03-.12.03-.13.04-.11.05-.12.05-.12.06-.11.07-.11.07-.1.08-.1.08-.09.09-.09.1-.08.1-.08.1-.07.11-.07.12-.05.12-.05.11-.04.1-.04.12-.03.13-.03.13-.02.14-.01.13v.12m0 0v.13l.01.12.02.13.03.12.03.13.04.12.04.11.05.11.06.11.07.12.07.11.08.1.08.1.09.09.09.08.1.08.11.08.11.07.11.06.12.06.11.05.08.03.13.04.13.04.13.02.13.02.13.01.13.01m-20.96 13.75v.01h-.02 0-.01l-.01.01h0-.01 0-.01m32.57-.45h-.17l-.17-.01-.18-.02-.17-.03-.06-.01-.17-.04-.17-.04-.17-.05-.16-.06-.16-.06-.16-.07-.15-.08-.16-.09-.14-.09-.15-.1-.14-.1-.14-.12-.13-.11-.04-.03-.12-.13-.12-.13-.12-.13-.11-.14-.1-.15-.02-.02-.09-.15-.09-.15-.09-.16-.07-.16-.07-.16-.07-.17-.05-.17-.05-.17-.04-.17-.04-.18-.03-.18v-.02l-.02-.17-.01-.18v-.18m0 0v-.18l.01-.18.02-.18v-.01l.03-.18.04-.18.04-.17.05-.17.05-.17.07-.17.07-.16.07-.16.09-.16.09-.15.09-.15.02-.02.1-.15.11-.14.12-.13.12-.13.12-.13.04-.03.13-.12.14-.11.14-.1.15-.1.14-.1.16-.08.15-.08.16-.07.16-.07.16-.05.17-.05.17-.05.17-.03.06-.01.17-.03.18-.02.17-.01h.17m0 0h.18l.17.01.17.02.18.03.05.01.17.03.17.05.17.05.17.06.16.06.15.07.16.08.15.08.15.1.15.1.14.1.14.11.13.12.03.03.13.13.12.13.11.13.11.14.11.15.01.02.1.15.09.15.08.16.08.16.07.16.06.17.06.17.05.17.04.17.03.18.03.18v.01l.02.18.01.18.01.18m0 0-.01.18-.01.18-.02.17v.02l-.03.18-.03.18-.04.17-.05.17-.06.17-.06.17-.07.16-.08.16-.08.16-.09.15-.1.15-.01.02-.11.15-.11.14-.11.13-.12.13-.13.13-.03.03-.13.11-.14.12-.14.1-.15.1-.15.09-.15.09-.16.08-.15.07-.16.06-.17.06-.17.05-.17.04-.17.04-.05.01-.18.03-.17.02-.17.01h-.18m-7.38-4.18v.25l.01.25.03.25.02.19.03.25.05.25.04.21.06.25.06.24.08.23.08.23.09.23.09.22.1.23.12.21.11.22.13.21.12.19.14.2.14.18.15.2.16.18.16.18.17.18.18.17.18.16.19.16.19.15.2.15.19.12.2.13.2.12.21.11.22.11.22.11.23.09.23.09.23.08.24.07.24.07.24.06.21.04.25.04.25.04.25.02.19.02.25.01h.25m0 0h.26l.25-.01.18-.02.25-.02.26-.04.25-.04.2-.04.25-.06.24-.07.23-.07.24-.08.23-.09.22-.09.22-.11.22-.11.22-.11.19-.12.21-.13.18-.12.2-.15.2-.15.18-.16.19-.16.17-.17.17-.18.17-.18.16-.18.15-.2.13-.18.14-.2.13-.19.12-.21.12-.22.11-.21.11-.23.09-.22.09-.23.08-.23.07-.23.07-.24.06-.25.04-.21.04-.25.04-.25.02-.19.02-.25.01-.25.01-.25" class="cls-1"/><path d="m217.42 255.56-.01-.25-.01-.25-.02-.26-.02-.18-.04-.25-.04-.25-.04-.21-.06-.25-.07-.24-.07-.23-.08-.23-.09-.23-.09-.23-.11-.22-.11-.22-.12-.21-.12-.21-.13-.19-.14-.2-.13-.19-.15-.19-.16-.18-.17-.19-.17-.17-.17-.17-.19-.16-.18-.16-.2-.15-.2-.15-.18-.12-.21-.14-.19-.11-.22-.12-.22-.11-.22-.1-.22-.1-.23-.08-.24-.08-.23-.08-.24-.06-.25-.06-.2-.04-.25-.04-.26-.04-.25-.03-.18-.01-.25-.01-.26-.01m0 0-.25.01-.25.01-.19.01-.25.03-.25.04-.25.04-.21.04-.24.06-.24.06-.24.08-.23.08-.23.08-.23.1-.22.1-.22.11-.21.12-.2.11-.2.14-.19.12-.2.15-.19.15-.19.16-.18.16-.18.17-.17.17-.16.19-.16.18-.15.19-.14.19-.14.2-.12.19-.13.21-.11.21-.12.22-.1.22-.09.23-.09.23-.08.23-.08.23-.06.24-.06.25-.04.21-.05.25-.03.25-.02.18-.03.26-.01.25v.25m-6.41-11.39v.13l.02.12.01.12.03.13.03.12.05.13.04.1.04.09.06.12.06.11.08.11.07.1.09.09.08.09.09.09.1.08.11.07.04.03.11.07.12.06.12.06.04.01.03.02.13.04.13.04.12.03.05.01.13.02.13.01h.13" class="cls-1"/><path d="M198.48 246.37h.12l.13-.01.13-.02.05-.01.13-.03.12-.04.13-.04.03-.02.04-.01.12-.06.12-.06.11-.07.05-.03.1-.07.1-.08.09-.09.09-.09.08-.09.08-.1.07-.11.06-.11.06-.12.04-.09.05-.1.04-.13.03-.12.03-.13.02-.12.01-.12v-.13m0 0v-.12l-.01-.13-.02-.13-.01-.06-.03-.13-.04-.12-.04-.13-.02-.04-.02-.04-.05-.12-.06-.12-.07-.11-.03-.05-.08-.11-.08-.09-.09-.1-.09-.08-.09-.09-.11-.07-.1-.08-.12-.06-.12-.07-.09-.04-.11-.04-.13-.05-.12-.03-.13-.03-.13-.02-.12-.01h-.12m0 0h-.13l-.12.01-.13.02-.12.03-.13.03-.12.05-.11.04-.1.04-.12.07-.11.06-.11.08-.1.07-.1.09-.09.08-.09.1-.08.09-.07.11-.04.05-.06.11-.07.12-.05.12-.02.04-.01.04-.05.13-.04.12-.03.13-.01.06-.01.13-.02.13v.12m-5.22 11.39v.18l-.01.18-.02.17v.02l-.03.18-.03.18-.05.17-.05.17-.05.17-.06.17-.07.16-.08.16-.08.16-.09.15-.1.15-.02.02-.1.15-.11.14-.12.13-.12.13-.12.13-.04.03-.13.11-.14.12-.14.1-.14.1-.15.09-.15.09-.16.08-.16.07-.16.06-.16.06-.17.05-.17.04-.17.04-.06.01-.17.03-.17.02-.18.01h-.17m0 0h-.17l-.18-.01-.17-.02-.17-.03-.06-.01-.17-.04-.17-.04-.17-.05-.16-.06-.16-.06-.16-.07-.16-.08-.15-.09-.15-.09-.14-.1-.15-.1-.13-.12-.14-.11-.03-.03-.13-.13-.12-.13-.11-.13-.11-.14-.11-.15-.01-.02-.1-.15-.09-.15-.08-.16-.08-.16-.07-.16-.06-.17-.06-.17-.05-.17-.04-.17-.03-.18-.03-.18v-.02l-.02-.17-.01-.18v-.18m0 0v-.18l.01-.18.02-.18v-.01l.03-.18.03-.18.04-.17.05-.17.06-.17.06-.17.07-.16.08-.16.08-.16.09-.15.1-.15.01-.02.11-.15.11-.14.11-.13.12-.13.13-.13.03-.03.14-.12.13-.11.15-.1.14-.1.15-.1.15-.08.16-.08.16-.07.16-.07.16-.05.17-.05.17-.05.17-.03.06-.01.17-.03.17-.02.18-.01h.17m0 0h.17l.18.01.17.02.17.03.06.01.17.03.17.05.17.05.16.05.16.07.16.07.16.08.15.08.15.1.14.1.14.1.14.11.13.12.04.03.12.13.12.13.12.13.11.14.1.15.02.02.1.15.09.15.08.16.08.16.07.16.06.17.05.17.05.17.05.17.03.18.03.18v.01l.02.18.01.18v.18m-11.49 0 .01.25.01.25.02.25.02.19.04.25.04.25.05.21.05.25.07.24.07.23.08.23.09.23.1.22.1.23.11.21.12.22.13.21.12.19.14.2.13.18.16.2.15.18.17.18.17.18.18.17.18.16.19.16.19.15.2.15.18.12.21.13.19.12.22.11.22.11.22.11.23.09.23.09.23.08.24.07.24.07.24.06.21.04.25.04.25.04.25.02.18.02.26.01h.25m0 0h.25l.26-.01.18-.02.25-.02.25-.04.25-.04.21-.04.24-.06.24-.07.24-.07.23-.08.23-.09.23-.09.22-.11.22-.11.22-.11.19-.12.21-.13.18-.12.2-.15.19-.15.19-.16.18-.16.18-.17.17-.18.16-.18.16-.18.16-.2.13-.18.14-.2.12-.19.13-.21.12-.22.11-.21.1-.23.1-.22.08-.23.09-.23.07-.23.06-.24.06-.25.05-.21.04-.25.04-.25.02-.19.02-.25.01-.25v-.25" class="cls-1"/><path d="M194.3 255.56v-.25l-.01-.25-.02-.26-.02-.18-.04-.25-.04-.25-.05-.21-.06-.25-.06-.24-.07-.23-.09-.23-.08-.23-.1-.23-.1-.22-.11-.22-.12-.21-.13-.21-.12-.19-.14-.2-.13-.19-.16-.19-.16-.18-.16-.19-.17-.17-.18-.17-.18-.16-.19-.16-.19-.15-.2-.15-.18-.12-.21-.14-.19-.11-.22-.12-.22-.11-.22-.1-.23-.1-.23-.08-.23-.08-.24-.08-.24-.06-.24-.06-.21-.04-.25-.04-.25-.04-.25-.03-.18-.01-.26-.01-.25-.01m0 0-.25.01-.26.01-.18.01-.25.03-.25.04-.25.04-.21.04-.24.06-.24.06-.24.08-.23.08-.23.08-.23.1-.22.1-.22.11-.22.12-.19.11-.21.14-.18.12-.2.15-.19.15-.19.16-.18.16-.18.17-.17.17-.17.19-.15.18-.16.19-.13.19-.14.2-.12.19-.13.21-.12.21-.11.22-.1.22-.1.23-.09.23-.08.23-.07.23-.07.24-.05.25-.05.21-.04.25-.04.25-.02.18-.02.26-.01.25-.01.25m-8.75.18v.35l.02.27.02.27.01.1.03.26.04.26.04.26.01.06.06.26.06.24.06.24.07.24.08.23.09.22.09.22m0 0 .08.19.1.19.1.19.11.19.12.18.12.19.13.18.14.18.15.18.16.17.16.17.16.16.18.16.04.04.18.15.18.15.19.14.13.09.19.13.21.13.2.12.21.11.21.11.21.09.21.09.22.09.22.07m1.69-2.87-.12-.06-.28-.14-.24-.12-.22-.13-.03-.02-.19-.12-.18-.12-.06-.04-.17-.12-.16-.13-.07-.05-.15-.13-.14-.14-.08-.08-.13-.13-.12-.14-.09-.11-.1-.14-.1-.14-.08-.14-.08-.14-.07-.14m0 0-.06-.13-.05-.14-.05-.15-.03-.08-.04-.16-.02-.09-.04-.2-.01-.06-.02-.1-.03-.21-.02-.21-.01-.12-.01-.2-.01-.21m0 0v-1.01l-.01-.11m24.29-8.11.12-.01.13-.01.13-.02.13-.02.13-.04.13-.04.08-.03.11-.05.12-.06.11-.06.11-.07.11-.08.1-.08.09-.08.09-.09.08-.1.08-.1.07-.11.07-.12.06-.11.05-.11.04-.11.04-.12.04-.13.02-.12.02-.13.01-.12.01-.13" class="cls-1"/><path d="m200.76 244.17-.01-.12-.01-.13-.02-.14-.02-.13-.04-.13-.04-.12-.04-.1-.04-.11-.06-.12-.07-.12-.07-.11-.08-.1-.08-.1-.08-.1-.1-.09-.09-.08-.11-.08-.11-.07-.11-.07-.12-.06-.11-.05-.12-.05-.12-.04-.13-.03-.13-.03-.12-.02-.13-.01h-.12m11.55 6.3h-.25l-.26.02-.18.01-.25.03-.25.03-.26.05-.2.04-.25.06-.24.06-.24.07-.24.09-.23.08-.22.1-.23.1-.22.11-.22.12-.19.12-.21.13-.18.13-.2.14-.2.15-.19.16-.18.17-.18.17-.17.17-.17.19-.16.18-.15.2-.13.18-.14.2-.13.19-.12.22-.12.21-.12.22-.1.23-.1.22-.08.23-.09.23-.07.24-.07.24-.05.24-.05.22-.04.25-.04.25-.02.19-.02.25-.01.26-.01.25m0 0 .01.25.01.26.02.25.02.19.04.25.04.25.05.21.05.25.07.24.07.24.09.23.08.23.1.22.1.23.12.22.12.21.12.21.13.2.14.2.13.18.15.19.16.19.17.18.17.18.18.17.18.17.19.15.2.16.2.14.18.13.21.13.19.11.22.12.22.11.23.11.22.09.23.09.24.08.24.08.24.06.25.06.2.04.26.05.25.03.25.03.18.01.26.01.25.01m0 0 .26-.01.25-.01.18-.01.26-.03.25-.03.25-.05.21-.04.25-.06.24-.06.24-.08.23-.08.23-.09.23-.09.22-.11.22-.11.22-.12.19-.11.21-.13.19-.13.2-.14.19-.16.19-.15.19-.17.17-.17.18-.18.16-.18.16-.19.15-.19.14-.18.14-.2.12-.2.13-.21.12-.21.11-.22.11-.23.09-.22.09-.23.08-.23.08-.24.06-.24.06-.25.04-.21.05-.25.03-.25.03-.19.02-.25.01-.26v-.25m0 0v-.25l-.01-.26-.02-.25-.03-.19-.03-.25-.05-.25-.04-.22-.06-.24-.06-.24-.08-.24-.08-.23-.09-.23-.09-.22-.11-.23-.11-.22-.12-.21-.13-.22-.12-.19-.14-.2-.14-.18-.15-.2-.16-.18-.16-.19-.18-.17-.17-.17-.19-.17-.19-.16-.19-.15-.2-.14-.19-.13-.21-.13-.19-.12-.22-.12-.22-.11-.22-.1-.23-.1-.23-.08-.23-.09-.24-.07-.24-.06-.25-.06-.21-.04-.25-.05-.25-.03-.26-.03-.18-.01-.25-.02h-.26m4.06 7.4v.18l-.01.17-.02.18v.01l-.03.18-.03.17-.05.18-.04.17-.06.17-.06.16-.07.16-.08.16-.08.16-.09.15-.1.15-.01.01-.1.15-.11.14-.11.13-.12.13-.13.12-.03.03-.13.12-.13.11-.15.1-.14.1-.15.09-.15.09-.15.08-.16.07-.16.06-.16.06-.17.05-.17.04-.17.04-.05.01-.17.02-.17.02-.18.01-.17.01m0 0-.17-.01-.17-.01-.17-.02-.18-.02-.04-.01-.18-.04-.16-.04-.17-.05-.16-.06-.16-.06-.16-.07-.15-.08-.16-.09-.14-.09-.15-.1-.14-.1-.14-.11-.13-.12-.02-.03-.13-.12-.12-.13-.12-.13-.11-.14-.1-.15-.01-.01-.09-.15-.09-.15-.09-.16-.07-.16-.07-.16-.07-.16-.05-.17-.05-.17-.04-.18-.04-.17-.02-.18v-.01l-.02-.18-.01-.17-.01-.18m0 0 .01-.18.01-.18.02-.17v-.01l.02-.18.04-.17.04-.18.05-.17.05-.17.07-.16.07-.16.07-.16.09-.16.09-.15.09-.15.01-.01.1-.15.11-.14.12-.13.12-.13.13-.13.02-.02.13-.12.14-.11.14-.1.15-.1.14-.1.16-.08.15-.08.16-.07.16-.06.16-.06.17-.05.16-.04.18-.04.04-.01.18-.03.17-.01.17-.02h.17m0 0h.17l.18.02.17.01.17.03.05.01.17.04.17.04.17.05.16.06.16.06.16.07.15.08.15.08.15.1.15.1.14.1.13.11.13.12.03.02.13.13.12.13.11.13.11.14.1.15.01.01.1.15.09.15.08.16.08.16.07.16.06.16.06.17.04.17.05.18.03.17.03.18v.01l.02.17.01.18v.18m-36.57 4.61-.15-.07-.28-.14-.24-.13-.21-.12-.2-.12-.19-.12-.17-.12-.03-.02-.16-.13-.16-.13-.14-.13-.14-.13-.13-.14-.13-.13-.11-.14-.11-.14-.09-.14-.09-.15-.08-.14-.07-.14M69.02 210.86v14.73m0 55.58v14.73m.19-67.1v49.16m44.42 22.05V300m3.19.01V300m-47.61-71.2 21.43-21.44m0 92.04-21.43-21.44M113.63 300l-.2-.6m-22.79 0-.05.13m49.22-92.17.05-.13m-49.22.13-.05-.13m48.83 92.17v-27.22m5 3.59v18.15m-27.6 6.08.2-.6m22.4 0 .13.13m15.93-5.61v-18.15m5.76-7.84V228.8m.19 67.1v-25.57m0-44.74v-14.73m-.19 17.94.13-.06m-.13 39.19.13.13m-92.16 9.9-.13.06m88.67 21.56h-15.94m-69.1 0h14.73m3.2-.18h22.79m3.59 0h22.4m5-5.48h11.06M69.21 228.8l-.13-.06m70.73-21.38 21.43 21.44m-5.76 46.97h-11.06m16.82-7.84h-17.57m-3.86-60.57H90.64m67.11-.18h-14.74m-55.57 0H72.71" class="cls-1"/><path d="M121.04 289.95c0-3.21-2.6-5.81-5.81-5.81s-5.81 2.6-5.81 5.81 2.6 5.81 5.81 5.81 5.81-2.6 5.81-5.81" style="stroke-width:.75px;stroke:#9f9e9f;stroke-miterlimit:10;fill:#b5b4b5"/><path d="M140.66 269.18c-.8.8-1.24 1.88-1.24 3.01m4.25-4.26c-1.13 0-2.21.45-3.01 1.24m-67.95-61.99c-2.04 0-3.68 1.65-3.68 3.68m-.01 85.04c0 2.04 1.65 3.68 3.68 3.68m85.05 0c2.04 0 3.68-1.65 3.68-3.68m0-85.04c0-2.04-1.65-3.68-3.68-3.68m-17.89.05h.03l.03-.01h.08l.06-.01h.14l.08-.01h.27l.21-.01h.46l.24-.01h1.55m18.42 18.41v1.31l-.01.25v.47l-.01.22v.21l-.01.19v.24l-.01.07v.1l-.01.04v.05h-.01 0m0 39.32.01.01v.05l.01.02v.11l.01.1v.11l.01.14v.15l.01.16v.34l.01.22v.86m-19.62 29.25h-1.01l-.23-.01h-.34l-.15-.01h-.13l-.12-.01h-.09l-.08-.01h-.08l-.02-.01h-.01 0m-70.47-70.79-.01-.01v-.08l-.01-.05v-.12l-.01-.07v-.17l-.01-.19v-.21l-.01-.22v-.72l-.01-.26v-1.05m18.42-18.41h1.55l.25.01h.45l.21.01h.27l.08.01h.14l.06.01h.09l.02.01h.03m0 92.3h-.03l-.02.01h-.09l-.06.01h-.14l-.08.01h-.27l-.21.01h-.45l-.25.01h-1.55m-18.42-18.41v-1.05l.01-.26v-.72l.01-.22v-.21l.01-.19v-.17l.01-.07v-.12l.01-.05v-.08l.01-.01h0" class="cls-1"/><path d="M117.03 299.4v.15l-.2.6h-.01l-.02.08v.3l-.01.05v9.53c0 .86-.7 1.54-1.56 1.54s-1.56-.68-1.56-1.54v-9.44l-.01-.04v-.39l-.03-.09-.2-.6v-.15z" class="cls-6"/><path d="M113.43 299.4h3.6m-3.37.83-.03-.08m0 0-.2-.6m.24 2.26-.01-1.14m-.23-1.12v-.15m.24 2.41v8.3m3.12 0v-8.3m.24-2.26v-.15m-.24 2.41v-1.14m.04-.52.2-.6m-.23.68.02-.08m-1.59 11.5c.86 0 1.56-.68 1.56-1.54m-3.12 0c0 .86.7 1.54 1.56 1.54m1.57-11.42v.26l-.01.04v.14m-3.13-.44v.44" class="cls-1"/></g><g id="_レイヤー_3" data-name="レイヤー 3"><path d="m115.22 219.54 24.62-33.63H90.61l24.62 33.63Z" class="cls-8"/><path d="M102.66 118.59h25.13v72.01h-25.13z" class="cls-8"/><path d="M72.79 15.03h84.86c1.57 0 2.85 1.27 2.85 2.85v84.86c0 1.57-1.27 2.85-2.85 2.85H72.79c-1.57 0-2.85-1.27-2.85-2.85V17.87c0-1.57 1.27-2.85 2.85-2.85Z" class="cls-7"/><path d="M144.91 44.42h8.54c1.78 0 3.22 1.44 3.22 3.22v2.72c0 .86-.34 1.68-.95 2.28l-3.6 3.6c-.47.46-.73 1.09-.72 1.75v4.62c0 .66.26 1.29.72 1.75l3.6 3.6c.61.6.95 1.42.94 2.28v2.72c0 1.78-1.44 3.22-3.22 3.22h-8.54c-1.78 0-3.22-1.44-3.22-3.22v-2.72c0-.86.34-1.68.94-2.28l3.6-3.6c.46-.46.72-1.09.72-1.75v-4.62c0-.66-.26-1.29-.72-1.75l-3.6-3.6c-.61-.6-.95-1.42-.95-2.28v-2.72c0-1.78 1.44-3.22 3.22-3.22Zm8.55 31.01c1.36 0 2.47-1.11 2.47-2.47v-2.72c0-.66-.26-1.29-.72-1.75l-3.6-3.6c-.61-.6-.95-1.42-.95-2.28v-4.62c0-.86.34-1.68.95-2.28l3.6-3.6c.47-.46.73-1.09.72-1.75v-2.72c0-1.36-1.11-2.47-2.47-2.47h-8.54c-1.36 0-2.47 1.11-2.47 2.47v2.72c0 .66.26 1.29.72 1.75l3.6 3.6c.61.6.95 1.42.95 2.28v4.62c0 .85-.34 1.67-.95 2.28l-3.6 3.6c-.46.46-.73 1.09-.72 1.75v2.72c0 1.36 1.11 2.47 2.47 2.47zM76.99 44.42h8.54c1.78 0 3.22 1.44 3.22 3.22v2.72c0 .86-.34 1.68-.94 2.28l-3.6 3.6c-.46.46-.73 1.09-.72 1.75v4.62c0 .66.26 1.29.72 1.75l3.6 3.6c.61.6.95 1.42.94 2.28v2.72c0 1.78-1.44 3.22-3.22 3.22h-8.54c-1.78 0-3.22-1.44-3.22-3.22v-2.72c0-.86.34-1.68.94-2.28l3.6-3.6c.46-.46.72-1.09.72-1.75v-4.62c0-.66-.26-1.29-.72-1.75l-3.6-3.6c-.61-.6-.95-1.43-.94-2.28v-2.72c0-1.78 1.44-3.22 3.22-3.22m8.55 31.01c1.36 0 2.47-1.11 2.47-2.47v-2.72c0-.66-.26-1.29-.72-1.75l-3.6-3.6c-.61-.6-.95-1.42-.95-2.28v-4.62c0-.86.34-1.68.95-2.28l3.6-3.6c.46-.46.72-1.09.72-1.75v-2.72c0-1.36-1.11-2.47-2.47-2.47H77c-1.36 0-2.47 1.11-2.47 2.47v2.72c0 .66.26 1.28.72 1.75l3.6 3.6c.61.6.95 1.42.94 2.28v4.62c0 .86-.34 1.68-.94 2.28l-3.6 3.6c-.46.46-.73 1.09-.72 1.75v2.72c0 1.36 1.11 2.47 2.47 2.47zm17.03 11.34h2.72c.86 0 1.68.34 2.28.94l3.6 3.6c.46.46 1.09.72 1.75.72h4.62c.66 0 1.28-.26 1.75-.72l3.6-3.6c.6-.61 1.42-.95 2.28-.94h2.72c1.78 0 3.22 1.44 3.22 3.22v8.54c0 1.78-1.44 3.22-3.22 3.22h-2.72c-.86 0-1.68-.34-2.28-.94l-3.6-3.6c-.46-.46-1.09-.72-1.75-.72h-4.62c-.66 0-1.28.26-1.75.72l-3.6 3.6c-.6.61-1.42.95-2.28.94h-2.72c-1.78 0-3.22-1.44-3.22-3.22v-8.54c0-1.78 1.44-3.22 3.22-3.22m14.96 6.02h-4.62c-.85 0-1.67-.34-2.28-.95l-3.6-3.6c-.46-.46-1.09-.73-1.75-.72h-2.72c-1.36 0-2.47 1.11-2.47 2.47v8.54c0 1.36 1.11 2.47 2.47 2.47h2.72c.65 0 1.28-.26 1.75-.72l3.6-3.6c.61-.6 1.43-.94 2.28-.94h4.62c.86 0 1.68.34 2.28.94l3.6 3.6c.46.46 1.09.72 1.75.72h2.72c1.36 0 2.47-1.11 2.47-2.47v-8.54c0-1.36-1.11-2.47-2.47-2.47h-2.72c-.66 0-1.29.26-1.75.72l-3.6 3.6c-.6.61-1.42.95-2.28.95m7.63-73.94h2.72c1.78 0 3.22 1.44 3.22 3.22v8.54c0 1.78-1.44 3.22-3.22 3.22h-2.72c-.86 0-1.68-.34-2.28-.95-.14-.14-.28-.27-.41-.41l-2.2-2.2c-.61-.6-.95-1.42-.95-2.28v-3.34c0-.86.34-1.68.95-2.28l2.6-2.6c.6-.61 1.42-.95 2.28-.95Zm2.72 14.24c1.36 0 2.47-1.11 2.47-2.47v-8.54c0-1.36-1.11-2.47-2.47-2.47h-2.72c-.66 0-1.29.26-1.75.72l-2.6 2.6c-.47.46-.73 1.09-.72 1.75v3.34c0 .66.26 1.29.72 1.75l2.6 2.6c.46.47 1.09.73 1.75.73h2.72Zm-25.31-14.24h2.72c.86 0 1.68.34 2.28.94l2.6 2.6c.61.6.95 1.42.95 2.28v3.34c0 .86-.34 1.68-.95 2.28l-2.2 2.2c-.2.2-.33.33-.41.4-.6.61-1.42.95-2.28.95h-2.72c-1.78 0-3.22-1.44-3.22-3.22v-8.54c0-1.78 1.44-3.22 3.22-3.22Zm4.47 13.51c.08-.07 1.73-1.73 2.6-2.6.47-.46.73-1.09.73-1.75v-3.34c0-.66-.26-1.29-.73-1.75l-2.6-2.6c-.46-.47-1.09-.73-1.75-.72h-2.72c-1.36 0-2.47 1.11-2.47 2.47v8.54c0 1.36 1.11 2.47 2.47 2.47h2.72c.65 0 1.28-.26 1.75-.72" class="cls-9"/><path d="M72.79 14.52h84.86c1.85 0 3.35 1.5 3.35 3.35v84.86c0 1.85-1.5 3.35-3.35 3.35H72.79a3.35 3.35 0 0 1-3.35-3.35V17.87c0-1.85 1.5-3.35 3.35-3.35m84.87 90.56c1.29 0 2.34-1.05 2.35-2.34V17.87c0-1.29-1.05-2.34-2.35-2.34H72.8c-1.29 0-2.34 1.05-2.34 2.34v84.86c0 1.29 1.05 2.34 2.34 2.34h84.86Z" class="cls-5"/><path d="M72.79 16.2h84.86c.92 0 1.67.75 1.68 1.67v84.86c0 .92-.75 1.67-1.67 1.68H72.79c-.92 0-1.67-.75-1.67-1.68V17.87c0-.92.75-1.67 1.67-1.67m84.87 87.71c.65 0 1.17-.53 1.17-1.17V17.87c0-.65-.53-1.17-1.17-1.17H72.8c-.65 0-1.17.52-1.17 1.17v84.86c0 .65.52 1.17 1.17 1.17h84.86Z" class="cls-9"/><path d="M144.91 45.4h8.54c1.24 0 2.24 1.01 2.24 2.24v2.72c0 .6-.23 1.17-.66 1.59l-3.6 3.6c-.65.65-1.01 1.52-1.01 2.44v4.62c0 .92.36 1.8 1.01 2.44l3.6 3.6c.42.42.66.99.66 1.59v2.72c0 1.24-1 2.24-2.24 2.25h-8.54c-1.24 0-2.24-1-2.25-2.24v-2.72c0-.6.24-1.17.66-1.59l3.6-3.6c.65-.65 1.01-1.52 1.01-2.44V58c0-.92-.36-1.79-1.01-2.44l-3.6-3.6c-.42-.42-.66-.99-.66-1.59v-2.72a2.26 2.26 0 0 1 2.25-2.25m8.55 29.3c.96 0 1.74-.78 1.74-1.74v-2.72c0-.46-.18-.9-.51-1.23l-3.6-3.6a3.96 3.96 0 0 1-1.16-2.79V58c0-1.05.41-2.06 1.16-2.8l3.6-3.6c.33-.33.51-.77.51-1.23v-2.72c0-.96-.78-1.74-1.74-1.74h-8.54c-.96 0-1.74.78-1.74 1.74v2.72c0 .46.18.91.51 1.23l3.6 3.6c.74.74 1.16 1.75 1.16 2.79v4.62c0 1.05-.41 2.06-1.16 2.8l-3.6 3.6c-.33.33-.51.77-.51 1.23v2.72c0 .96.78 1.74 1.74 1.74zM76.99 45.4h8.54c1.24 0 2.24 1 2.25 2.24v2.72c0 .6-.23 1.17-.66 1.59l-3.6 3.6c-.65.65-1.01 1.52-1.01 2.44v4.62c0 .92.36 1.8 1.01 2.44l3.6 3.6c.42.42.65.99.66 1.59v2.72c0 1.24-1 2.24-2.24 2.25H77c-1.24 0-2.24-1-2.25-2.24v-2.72c0-.6.24-1.17.66-1.59l3.6-3.6c.65-.65 1.01-1.53 1.01-2.44V58c0-.91-.36-1.79-1.01-2.44l-3.6-3.6c-.42-.42-.66-.99-.66-1.59v-2.72A2.26 2.26 0 0 1 77 45.4Zm8.55 29.3c.96 0 1.74-.78 1.74-1.74v-2.72c0-.46-.18-.9-.51-1.23l-3.6-3.6a3.96 3.96 0 0 1-1.16-2.79V58c0-1.05.41-2.06 1.16-2.8l3.6-3.6c.33-.33.51-.77.51-1.23v-2.72c0-.96-.78-1.74-1.74-1.74H77c-.96 0-1.74.78-1.74 1.74v2.72c0 .46.18.91.51 1.23l3.6 3.6c.74.74 1.15 1.75 1.16 2.79v4.62c0 1.05-.41 2.06-1.16 2.8l-3.6 3.6c-.33.33-.51.77-.51 1.23v2.72c0 .96.78 1.74 1.74 1.74zm17.03 13.05h2.72c.6 0 1.17.24 1.59.66l3.6 3.6c.65.65 1.52 1.01 2.44 1.01h4.62c.92 0 1.79-.36 2.44-1.01l3.6-3.6c.42-.42.99-.66 1.59-.66h2.72a2.26 2.26 0 0 1 2.25 2.25v8.54a2.26 2.26 0 0 1-2.25 2.25h-2.72c-.6 0-1.17-.24-1.59-.66l-3.6-3.6a3.5 3.5 0 0 0-2.44-1.01h-4.62c-.91 0-1.79.37-2.44 1.01l-3.6 3.6c-.42.42-.99.66-1.59.66h-2.72c-1.24 0-2.24-1-2.25-2.24v-8.54a2.26 2.26 0 0 1 2.25-2.25Zm14.96 5.77h-4.62c-1.05 0-2.05-.41-2.79-1.16l-3.6-3.6c-.33-.32-.77-.51-1.23-.51h-2.72c-.96 0-1.74.78-1.74 1.74v8.54c0 .96.78 1.74 1.74 1.74h2.72c.46 0 .9-.19 1.23-.51l3.6-3.6a4 4 0 0 1 2.8-1.16h4.62c1.05 0 2.05.42 2.79 1.16l3.6 3.6c.33.33.77.51 1.23.51h2.72c.96 0 1.74-.78 1.74-1.74v-8.54c0-.96-.78-1.74-1.74-1.74h-2.72c-.46 0-.91.18-1.23.51l-3.6 3.6c-.74.74-1.75 1.16-2.79 1.16Zm7.63-73.69h2.72a2.26 2.26 0 0 1 2.25 2.25v8.54a2.26 2.26 0 0 1-2.25 2.25h-2.72c-.59 0-1.15-.23-1.58-.65h-.01l-2.6-2.61c-.42-.42-.66-.99-.66-1.59v-3.34c0-.6.23-1.17.66-1.59l2.2-2.2c.22-.22.34-.34.41-.4.42-.42.99-.66 1.59-.66Zm2.72 12.53c.96 0 1.74-.78 1.74-1.74v-8.54c0-.96-.78-1.74-1.74-1.74h-2.72c-.46 0-.9.18-1.23.51l-2.6 2.6c-.33.33-.51.77-.51 1.23v3.34c0 .46.18.91.51 1.23l2.59 2.59h.01c.33.34.77.52 1.23.52zm-25.31-12.53h2.72c.59 0 1.17.24 1.59.66.08.07.19.19.41.41l2.2 2.2c.42.42.66.99.66 1.59v3.34c0 .6-.23 1.17-.66 1.59l-2.6 2.6-.02.02c-.42.41-.98.64-1.57.64h-2.72a2.26 2.26 0 0 1-2.25-2.25v-8.54a2.26 2.26 0 0 1 2.25-2.25Zm3.95 1.02c-.33-.33-.77-.51-1.23-.51h-2.72c-.96 0-1.74.78-1.74 1.74v8.54c0 .96.78 1.74 1.74 1.74h2.72c.46 0 .9-.18 1.23-.51l.02-.02 2.59-2.59c.33-.33.51-.77.51-1.23v-3.34c0-.46-.18-.91-.51-1.23l-2.6-2.6Z" class="cls-9"/><path d="m272.97 219.54 24.62-33.63h-49.23l24.62 33.63Z" class="cls-8"/><path d="M260.41 118.59h25.13v72.01h-25.13z" class="cls-8"/><path d="M230.54 15.03h84.86c1.57 0 2.85 1.27 2.85 2.85v84.86c0 1.57-1.27 2.85-2.85 2.85h-84.86c-1.57 0-2.85-1.27-2.85-2.85V17.87c0-1.57 1.27-2.85 2.85-2.85Z" class="cls-7"/><path d="M302.66 44.42h8.54c1.78 0 3.22 1.44 3.22 3.22v2.72c0 .86-.34 1.68-.95 2.28l-3.6 3.6c-.47.46-.73 1.09-.72 1.75v4.62c0 .66.26 1.29.72 1.75l3.6 3.6c.61.6.95 1.42.94 2.28v2.72c0 1.78-1.44 3.22-3.22 3.22h-8.54c-1.78 0-3.22-1.44-3.22-3.22v-2.72c0-.86.34-1.68.94-2.28l3.6-3.6c.46-.46.72-1.09.72-1.75v-4.62c0-.66-.26-1.29-.72-1.75l-3.6-3.6c-.61-.6-.95-1.42-.95-2.28v-2.72c0-1.78 1.44-3.22 3.22-3.22Zm8.54 31.01c1.36 0 2.47-1.11 2.47-2.47v-2.72c0-.66-.26-1.29-.72-1.75l-3.6-3.6c-.61-.6-.95-1.42-.95-2.28v-4.62c0-.86.34-1.68.95-2.28l3.6-3.6c.47-.46.73-1.09.72-1.75v-2.72c0-1.36-1.11-2.47-2.47-2.47h-8.54c-1.36 0-2.47 1.11-2.47 2.47v2.72c0 .66.26 1.29.72 1.75l3.6 3.6c.61.6.95 1.42.95 2.28v4.62c0 .85-.34 1.67-.95 2.28l-3.6 3.6c-.46.46-.73 1.09-.72 1.75v2.72c0 1.36 1.11 2.47 2.47 2.47zm-76.46-31.01h8.54c1.78 0 3.22 1.44 3.22 3.22v2.72c0 .86-.34 1.68-.94 2.28l-3.6 3.6c-.46.46-.73 1.09-.72 1.75v4.62c0 .66.26 1.29.72 1.75l3.6 3.6c.61.6.95 1.42.94 2.28v2.72c0 1.78-1.44 3.22-3.22 3.22h-8.54c-1.78 0-3.22-1.44-3.22-3.22v-2.72c0-.86.34-1.68.94-2.28l3.6-3.6c.46-.46.72-1.09.72-1.75v-4.62c0-.66-.26-1.29-.72-1.75l-3.6-3.6c-.61-.6-.95-1.43-.94-2.28v-2.72c0-1.78 1.44-3.22 3.22-3.22m8.54 31.01c1.36 0 2.47-1.11 2.47-2.47v-2.72c0-.66-.26-1.29-.72-1.75l-3.6-3.6c-.61-.6-.95-1.42-.95-2.28v-4.62c0-.86.34-1.68.95-2.28l3.6-3.6c.46-.46.72-1.09.72-1.75v-2.72c0-1.36-1.11-2.47-2.47-2.47h-8.54c-1.36 0-2.47 1.11-2.47 2.47v2.72c0 .66.26 1.28.72 1.75l3.6 3.6c.61.6.95 1.42.94 2.28v4.62c0 .86-.34 1.68-.94 2.28l-3.6 3.6c-.46.46-.73 1.09-.72 1.75v2.72c0 1.36 1.11 2.47 2.47 2.47zm17.04 11.34h2.72c.86 0 1.68.34 2.28.94l3.6 3.6c.46.46 1.09.72 1.75.72h4.62c.66 0 1.28-.26 1.75-.72l3.6-3.6c.6-.61 1.42-.95 2.28-.94h2.72c1.78 0 3.22 1.44 3.22 3.22v8.54c0 1.78-1.44 3.22-3.22 3.22h-2.72c-.86 0-1.68-.34-2.28-.94l-3.6-3.6c-.46-.46-1.09-.72-1.75-.72h-4.62c-.66 0-1.28.26-1.75.72l-3.6 3.6c-.6.61-1.42.95-2.28.94h-2.72c-1.78 0-3.22-1.44-3.22-3.22v-8.54c0-1.78 1.44-3.22 3.22-3.22m14.96 6.02h-4.62c-.85 0-1.67-.34-2.28-.95l-3.6-3.6c-.46-.46-1.09-.73-1.75-.72h-2.72c-1.36 0-2.47 1.11-2.47 2.47v8.54c0 1.36 1.11 2.47 2.47 2.47h2.72c.65 0 1.28-.26 1.75-.72l3.6-3.6c.61-.6 1.43-.94 2.28-.94h4.62c.86 0 1.68.34 2.28.94l3.6 3.6c.46.46 1.09.72 1.75.72h2.72c1.36 0 2.47-1.11 2.47-2.47v-8.54c0-1.36-1.11-2.47-2.47-2.47h-2.72c-.66 0-1.29.26-1.75.72l-3.6 3.6c-.6.61-1.42.95-2.28.95m7.63-73.94h2.72c1.78 0 3.22 1.44 3.22 3.22v8.54c0 1.78-1.44 3.22-3.22 3.22h-2.72c-.86 0-1.68-.34-2.28-.95-.14-.14-.28-.27-.41-.41l-2.2-2.2c-.61-.6-.95-1.42-.95-2.28v-3.34c0-.86.34-1.68.95-2.28l2.6-2.6c.6-.61 1.42-.95 2.28-.95Zm2.72 14.24c1.36 0 2.47-1.11 2.47-2.47v-8.54c0-1.36-1.11-2.47-2.47-2.47h-2.72c-.66 0-1.29.26-1.75.72l-2.6 2.6c-.47.46-.73 1.09-.72 1.75v3.34c0 .66.26 1.29.72 1.75l2.6 2.6c.46.47 1.09.73 1.75.73h2.72Zm-25.31-14.24h2.72c.86 0 1.68.34 2.28.94l2.6 2.6c.61.6.95 1.42.95 2.28v3.34c0 .86-.34 1.68-.95 2.28l-2.2 2.2c-.2.2-.33.33-.41.4-.6.61-1.42.95-2.28.95h-2.72c-1.78 0-3.22-1.44-3.22-3.22v-8.54c0-1.78 1.44-3.22 3.22-3.22Zm4.47 13.51c.08-.07 1.73-1.73 2.6-2.6.47-.46.73-1.09.73-1.75v-3.34c0-.66-.26-1.29-.73-1.75l-2.6-2.6c-.46-.47-1.09-.73-1.75-.72h-2.72c-1.36 0-2.47 1.11-2.47 2.47v8.54c0 1.36 1.11 2.47 2.47 2.47h2.72c.65 0 1.28-.26 1.75-.72" class="cls-9"/><path d="M230.54 14.52h84.86c1.85 0 3.35 1.5 3.35 3.35v84.86c0 1.85-1.5 3.35-3.35 3.35h-84.86a3.35 3.35 0 0 1-3.35-3.35V17.87c0-1.85 1.5-3.35 3.35-3.35m84.86 90.56c1.29 0 2.34-1.05 2.35-2.34V17.87c0-1.29-1.05-2.34-2.35-2.34h-84.86c-1.29 0-2.34 1.05-2.34 2.34v84.86c0 1.29 1.05 2.34 2.34 2.34h84.86Z" class="cls-5"/><path d="M230.54 16.2h84.86c.92 0 1.67.75 1.68 1.67v84.86c0 .92-.75 1.67-1.67 1.68h-84.87c-.92 0-1.67-.75-1.67-1.68V17.87c0-.92.75-1.67 1.67-1.67m84.86 87.71c.65 0 1.17-.53 1.17-1.17V17.87c0-.65-.53-1.17-1.17-1.17h-84.86c-.65 0-1.17.52-1.17 1.17v84.86c0 .65.52 1.17 1.17 1.17h84.86Z" class="cls-9"/><path d="M302.66 45.4h8.54c1.24 0 2.24 1.01 2.24 2.24v2.72c0 .6-.23 1.17-.66 1.59l-3.6 3.6c-.65.65-1.01 1.52-1.01 2.44v4.62c0 .92.36 1.8 1.01 2.44l3.6 3.6c.42.42.66.99.66 1.59v2.72c0 1.24-1 2.24-2.24 2.25h-8.54c-1.24 0-2.24-1-2.25-2.24v-2.72c0-.6.24-1.17.66-1.59l3.6-3.6c.65-.65 1.01-1.52 1.01-2.44V58c0-.92-.36-1.79-1.01-2.44l-3.6-3.6c-.42-.42-.66-.99-.66-1.59v-2.72a2.26 2.26 0 0 1 2.25-2.25m8.54 29.3c.96 0 1.74-.78 1.74-1.74v-2.72c0-.46-.18-.9-.51-1.23l-3.6-3.6a3.96 3.96 0 0 1-1.16-2.79V58c0-1.05.41-2.06 1.16-2.8l3.6-3.6c.33-.33.51-.77.51-1.23v-2.72c0-.96-.78-1.74-1.74-1.74h-8.54c-.96 0-1.74.78-1.74 1.74v2.72c0 .46.18.91.51 1.23l3.6 3.6c.74.74 1.16 1.75 1.16 2.79v4.62c0 1.05-.41 2.06-1.16 2.8l-3.6 3.6c-.33.33-.51.77-.51 1.23v2.72c0 .96.78 1.74 1.74 1.74zm-76.46-29.3h8.54c1.24 0 2.24 1 2.25 2.24v2.72c0 .6-.23 1.17-.66 1.59l-3.6 3.6c-.65.65-1.01 1.52-1.01 2.44v4.62c0 .92.36 1.8 1.01 2.44l3.6 3.6c.42.42.65.99.66 1.59v2.72c0 1.24-1 2.24-2.24 2.25h-8.54c-1.24 0-2.24-1-2.25-2.24v-2.72c0-.6.24-1.17.66-1.59l3.6-3.6c.65-.65 1.01-1.53 1.01-2.44V58c0-.91-.36-1.79-1.01-2.44l-3.6-3.6c-.42-.42-.66-.99-.66-1.59v-2.72a2.26 2.26 0 0 1 2.25-2.25Zm8.54 29.3c.96 0 1.74-.78 1.74-1.74v-2.72c0-.46-.18-.9-.51-1.23l-3.6-3.6a3.96 3.96 0 0 1-1.16-2.79V58c0-1.05.41-2.06 1.16-2.8l3.6-3.6c.33-.33.51-.77.51-1.23v-2.72c0-.96-.78-1.74-1.74-1.74h-8.54c-.96 0-1.74.78-1.74 1.74v2.72c0 .46.18.91.51 1.23l3.6 3.6c.74.74 1.15 1.75 1.16 2.79v4.62c0 1.05-.41 2.06-1.16 2.8l-3.6 3.6c-.33.33-.51.77-.51 1.23v2.72c0 .96.78 1.74 1.74 1.74zm17.04 13.05h2.72c.6 0 1.17.24 1.59.66l3.6 3.6c.65.65 1.52 1.01 2.44 1.01h4.62c.92 0 1.79-.36 2.44-1.01l3.6-3.6c.42-.42.99-.66 1.59-.66h2.72a2.26 2.26 0 0 1 2.25 2.25v8.54a2.26 2.26 0 0 1-2.25 2.25h-2.72c-.6 0-1.17-.24-1.59-.66l-3.6-3.6a3.5 3.5 0 0 0-2.44-1.01h-4.62c-.91 0-1.79.37-2.44 1.01l-3.6 3.6c-.42.42-.99.66-1.59.66h-2.72c-1.24 0-2.24-1-2.25-2.24v-8.54a2.26 2.26 0 0 1 2.25-2.25Zm14.96 5.77h-4.62c-1.05 0-2.05-.41-2.79-1.16l-3.6-3.6c-.33-.32-.77-.51-1.23-.51h-2.72c-.96 0-1.74.78-1.74 1.74v8.54c0 .96.78 1.74 1.74 1.74h2.72c.46 0 .9-.19 1.23-.51l3.6-3.6a4 4 0 0 1 2.8-1.16h4.62c1.05 0 2.05.42 2.79 1.16l3.6 3.6c.33.33.77.51 1.23.51h2.72c.96 0 1.74-.78 1.74-1.74v-8.54c0-.96-.78-1.74-1.74-1.74h-2.72c-.46 0-.91.18-1.23.51l-3.6 3.6c-.74.74-1.75 1.16-2.79 1.16Zm7.63-73.69h2.72a2.26 2.26 0 0 1 2.25 2.25v8.54a2.26 2.26 0 0 1-2.25 2.25h-2.72c-.59 0-1.15-.23-1.58-.65h-.01l-2.6-2.61c-.42-.42-.66-.99-.66-1.59v-3.34c0-.6.23-1.17.66-1.59l2.2-2.2c.22-.22.34-.34.41-.4.42-.42.99-.66 1.59-.66Zm2.72 12.53c.96 0 1.74-.78 1.74-1.74v-8.54c0-.96-.78-1.74-1.74-1.74h-2.72c-.46 0-.9.18-1.23.51l-2.6 2.6c-.33.33-.51.77-.51 1.23v3.34c0 .46.18.91.51 1.23l2.59 2.59h.01c.33.34.77.52 1.23.52zm-25.31-12.53h2.72c.59 0 1.17.24 1.59.66.08.07.19.19.41.41l2.2 2.2c.42.42.66.99.66 1.59v3.34c0 .6-.23 1.17-.66 1.59l-2.6 2.6-.02.02c-.42.41-.98.64-1.57.64h-2.72a2.26 2.26 0 0 1-2.25-2.25v-8.54a2.26 2.26 0 0 1 2.25-2.25Zm3.95 1.02c-.33-.33-.77-.51-1.23-.51h-2.72c-.96 0-1.74.78-1.74 1.74v8.54c0 .96.78 1.74 1.74 1.74h2.72c.46 0 .9-.18 1.23-.51l.02-.02 2.59-2.59c.33-.33.51-.77.51-1.23v-3.34c0-.46-.18-.91-.51-1.23l-2.6-2.6Z" class="cls-9"/></g></svg>