<svg xmlns="http://www.w3.org/2000/svg" viewBox="-190.623925 0 555 173.75215"><defs><style>.cls-1{fill:#fff;}.cls-2{fill:#9e9e9f;}.cls-3{fill:#c8c9ca;}.cls-4{fill:#dc8f76;}.cls-5{fill:#ddd583;}.cls-6{fill:#3e3a39;}.cls-7{fill:#231815;}.cls-8{fill:none;}</style></defs><title>アセット 1401</title><g id="レイヤー_2" data-name="レイヤー 2"><g id="レイヤー_2-2" data-name="レイヤー 2"><path class="cls-1" d="M23.52192,19.27025H150.23023a4.25234,4.25234,0,0,1,4.25234,4.25234V150.23165a4.25025,4.25025,0,0,1-4.25025,4.25025H23.52117a4.2516,4.2516,0,0,1-4.2516-4.2516V23.5226A4.25235,4.25235,0,0,1,23.52192,19.27025Z"/><path class="cls-2" d="M150.23023,152.30585H23.52117a2.07824,2.07824,0,0,1-2.0757-2.0763V23.5205a2.07772,2.07772,0,0,1,2.0757-2.0757H150.23023a2.07756,2.07756,0,0,1,2.07494,2.0757V150.22955A2.07807,2.07807,0,0,1,150.23023,152.30585ZM23.52117,22.1948a1.32726,1.32726,0,0,0-1.3257,1.3257V150.22955a1.32778,1.32778,0,0,0,1.3257,1.3263H150.23023a1.32713,1.32713,0,0,0,1.32494-1.3263V23.5205a1.32661,1.32661,0,0,0-1.32494-1.3257Z"/><path class="cls-2" d="M52.43352,86.88155a.37524.37524,0,0,1-.375-.375V54.9305a.375.375,0,0,1,.75,0V86.50655A.37523.37523,0,0,1,52.43352,86.88155Z"/><path class="cls-2" d="M52.43352,87.06905H34.26507a.56213.56213,0,0,1-.5625-.5625V54.9305a.56165.56165,0,0,1,.5625-.5625H52.43352l.03375.0006.1956.01185a.58225.58225,0,0,1,.063.0072l.1947.03375a.6653.6653,0,0,1,.06675.016l.19335.05865c.01756.00585.0351.0117.05265.01905l.1971.08205a.52835.52835,0,0,1,.05715.02775l.19545.1092a.38675.38675,0,0,1,.05565.0351l.1935.1392c.01456.011.0285.02205.04245.0345l.19485.17055c.01455.0132.02926.0279.0432.04245l.1911.2088c.0117.0132.0234.02715.03375.0411l.18675.2475c.011.0153.0219.03075.0315.0468l.17715.2916c.00885.0153.0177.03075.0249.046l.1656.3399.01905.0447.15015.39255c.00585.01545.011.03.0153.04545l.129.446c.00435.01545.008.0315.011.04695l.1011.50835c.00285.0153.0051.03.0066.04455l.06585.56835a.43549.43549,0,0,1,.003.044l.0234.63285.05205,3.8994.0285,3.88635.0081,3.78-.0081,3.78225-.0285,3.8847-.0513,3.88995-.02415.6438a.40669.40669,0,0,1-.003.0432l-.06585.56985c-.0015.0153-.0045.03-.00734.0453l-.10036.5076c-.003.01545-.0066.03075-.011.0462l-.129.44745a.46186.46186,0,0,1-.0153.04545l-.15015.39105c-.00585.01545-.01245.03-.01905.0447l-.1656.3399a.42236.42236,0,0,1-.0249.04605l-.17715.2916a.564.564,0,0,1-.0315.0468l-.18675.24765c-.0111.01455-.02279.0285-.03525.04245l-.1911.2073a.53516.53516,0,0,1-.04035.0402l-.19485.1722c-.01455.013-.03.0249-.0453.0366l-.19335.1377a.43447.43447,0,0,1-.0513.03285l-.19635.1107c-.0183.0102-.03735.01905-.0564.02775l-.197.0828a.50626.50626,0,0,1-.0594.0213l-.19335.05715a.4704.4704,0,0,1-.063.0153l-.1947.03375a.44019.44019,0,0,1-.063.0072l-.1956.01185Zm-17.60595-1.125H52.41673l.14714-.0087.1311-.0234.13185-.03885.1392-.05865.1413-.0798.145-.10335.1509-.13395.15315-.16635.15225-.202.14865-.2454.14355-.29445.1326-.34635.1158-.4014.0915-.46215.06015-.52515.02265-.60945.0513-3.8715.0285-3.87975.0081-3.77625-.0081-3.77415-.0285-3.8811-.0513-3.8811-.02265-.5985-.06015-.52365-.0915-.4629-.1158-.40065-.1332-.34785-.14295-.29445-.14865-.24465-.153-.20355-.1524-.16635-.1509-.1332-.145-.1041-.13905-.07755-.14145-.05865-.1332-.0402-.12975-.0228-.14714-.0087H34.82757Z"/><path class="cls-2" d="M58.81227,144.0149a9.94223,9.94223,0,1,1,9.94335-9.94185A9.95276,9.95276,0,0,1,58.81227,144.0149Zm0-19.13445a9.19223,9.19223,0,1,0,9.19335,9.1926A9.202,9.202,0,0,0,58.81227,124.88045Z"/><path class="cls-2" d="M41.80467,149.755h-14.031a3.78134,3.78134,0,0,1-3.7779-3.77565V122.16755a3.7823,3.7823,0,0,1,3.7779-3.7779h14.031a3.78165,3.78165,0,0,1,3.77715,3.7779V145.9793A3.78069,3.78069,0,0,1,41.80467,149.755Zm-14.031-30.6153a3.03135,3.03135,0,0,0-3.0279,3.0279V145.9793a3.03039,3.03039,0,0,0,3.0279,3.02565h14.031a3.02975,3.02975,0,0,0,3.02715-3.02565V122.16755a3.03071,3.03071,0,0,0-3.02715-3.0279Z"/><path class="cls-2" d="M86.875,150.1805A14.84825,14.84825,0,0,1,72.04347,135.349V132.7964a14.83185,14.83185,0,0,1,29.6637,0V135.349A14.84837,14.84837,0,0,1,86.875,150.1805Zm0-31.4649a14.097,14.097,0,0,0-14.08155,14.0808V135.349a14.08185,14.08185,0,0,0,28.1637,0V132.7964A14.09717,14.09717,0,0,0,86.875,118.7156Z"/><path class="cls-2" d="M86.875,49.17065A13.31835,13.31835,0,1,1,100.19473,35.8523,13.33294,13.33294,0,0,1,86.875,49.17065Zm0-25.5117A12.19335,12.19335,0,1,0,99.06973,35.8523,12.20618,12.20618,0,0,0,86.875,23.659Z"/><path class="cls-2" d="M121.31487,86.88155a.37572.37572,0,0,1-.375-.375V54.9305a.375.375,0,0,1,.75,0V86.50655A.37523.37523,0,0,1,121.31487,86.88155Z"/><path class="cls-2" d="M139.48482,87.06905h-18.17l-.0336-.00135-.1941-.01185a.43532.43532,0,0,1-.063-.0072l-.19485-.03375a.476.476,0,0,1-.063-.0153l-.19335-.05715a.50626.50626,0,0,1-.0594-.0213l-.197-.0828c-.01905-.0087-.0381-.01755-.05639-.02775l-.19636-.1107a.42009.42009,0,0,1-.05114-.03285l-.19336-.1377c-.01545-.0117-.0309-.02355-.04545-.0366l-.19485-.1722a.535.535,0,0,1-.04034-.0402l-.19111-.2073c-.01245-.01395-.02415-.0279-.0351-.04245l-.18675-.24765a.50213.50213,0,0,1-.0315-.0468l-.1773-.2916a.44972.44972,0,0,1-.0249-.04605l-.1656-.3399c-.0066-.0147-.01305-.02925-.01905-.0447l-.15015-.39105a.46186.46186,0,0,1-.0153-.04545l-.12885-.44745c-.0045-.01545-.0081-.03075-.0111-.0462l-.10035-.5076c-.00285-.0153-.00585-.03-.0072-.0453l-.066-.56985a.407.407,0,0,1-.00285-.0432l-.02355-.63135-.0519-3.9009L118.12152,74.5l-.0081-3.7821.0081-3.7794.02865-3.8862.05115-3.88845.0243-.6453a.435.435,0,0,1,.00285-.044l.066-.56835c.00135-.01455.0036-.02925.00645-.04455l.1011-.50835c.003-.01545.0066-.0315.0111-.04695l.12885-.446c.00435-.01545.00945-.03.0153-.04545l.15015-.39255.01905-.0447.1656-.3399c.00735-.0153.016-.03075.0249-.046l.1773-.2916c.00946-.016.0204-.0315.0315-.0468l.18675-.2475c.01021-.014.0219-.0279.0336-.0411l.19125-.2088c.0138-.01455.0285-.02925.0432-.04245l.19485-.17055c.01381-.01245.02775-.02355.04245-.0345l.19336-.1392a.3861.3861,0,0,1,.05564-.0351l.1956-.1092a.52926.52926,0,0,1,.05715-.02775l.197-.08205c.01755-.00735.0351-.0132.0528-.01905l.19336-.05865a.6616.6616,0,0,1,.06659-.016l.19485-.03375a.57375.57375,0,0,1,.063-.0072l.1941-.01185.0336-.0006h18.17a.56165.56165,0,0,1,.5625.5625V86.50655A.56213.56213,0,0,1,139.48482,87.06905Zm-18.1524-1.125h17.5899V55.493h-17.5899l-.1464.0087-.1296.0228-.13335.0402-.1413.05865-.1392.07755-.14505.1041-.1509.1332-.15225.16635-.15314.20355-.14866.24465-.1428.29445-.13335.34785-.11565.40065-.09165.4629-.06.52365-.0228.61095-.05115,3.87-.02865,3.8811-.0081,3.77355.0081,3.777.02865,3.87975.05115,3.88245.0228.597.06.52515.09165.46215.11565.4014.1326.34635.14355.29445.14866.2454.15239.202.153.16635.1509.13395.14505.10335.1413.0798.1392.05865.13185.03885.1311.0234Z"/><path class="cls-3" d="M40.65177,89.9366a2.89,2.89,0,0,0-.98354-.17145c-.40441,0-.81886.13995-.81886.5874,0,.3618.2388.53535.90015.7947.8034.3405,1.2678.6525,1.2678,1.40625,0,.9141-.78075,1.2891-1.59959,1.2891A3.79166,3.79166,0,0,1,38.043,93.614l.1677-.6321a3.19546,3.19546,0,0,0,1.19535.2733c.52725,0,.88245-.2169.88245-.6483,0-.38745-.34485-.59985-.99524-.85755-.7545-.30255-1.18441-.6834-1.18441-1.3323,0-.88695.78585-1.25985,1.52341-1.25985a3.58326,3.58326,0,0,1,1.16459.178Zm2.4852,3.906a1.75348,1.75348,0,1,0-1.6392-1.74975A1.5652,1.5652,0,0,0,43.137,93.8426m0-2.94885c.62476,0,.91335.4995.91335,1.1991,0,.71475-.28859,1.2129-.91335,1.2129-.6174,0-.90674-.49815-.90674-1.2129,0-.6996.28124-1.1991.90674-1.1991m2.187-.4767V93.7964h.72135V91.91555c0-.74415.42705-1.0218.8262-1.0218.545,0,.6915.3597.6915.94125v1.9614h.74115V91.5596a1.14262,1.14262,0,0,0-1.23555-1.2165,1.12831,1.12831,0,0,0-1.02405.5448h-.0138v-.47085Zm4.0671,0h-.7968l1.33515,3.2775-.54719,1.31985h.75809l1.8348-4.59735h-.76245l-.9075,2.4807h-.00885Zm35.4411,3.37935h2.6874V93.165h-1.9374v-1.4136h1.719V91.1399h-1.719v-1.297h1.87725V89.237H84.83217Zm3.2733-3.37935V93.7964h.72435V91.91555c0-.74415.41235-1.0218.8262-1.0218.5514,0,.69721.3597.69721.94125v1.9614h.71564V91.5596a1.22811,1.22811,0,0,0-2.24864-.6717h-.00946v-.47085Zm-32.86155,0V93.7964h.736V91.91555c0-.74415.42255-1.0218.81735-1.0218.55665,0,.7083.3597.7083.94125v1.9614h.72511V91.5596a1.13522,1.13522,0,0,0-1.22326-1.2165,1.15575,1.15575,0,0,0-1.0392.5448h-.0096v-.47085Zm36.18525.5508h.5595V92.864c0,.61965.13845.95505.89656.95505.19634,0,.408-.011.5595-.02265v-.55515a2.45,2.45,0,0,1-.34276.027c-.34785,0-.39255-.0798-.39255-.54045v-1.76h.73831v-.5508h-.73831V89.5418h-.72075v.87525h-.5595Zm5.39356,1.338v-.309c0-1.0056-.49516-1.65375-1.467-1.65375a1.58888,1.58888,0,0,0-1.58641,1.75995,1.64258,1.64258,0,0,0,1.793,1.73955,2.68907,2.68907,0,0,0,1.0143-.1524l-.0945-.53685a2.36228,2.36228,0,0,1-.84884.1524,1.04185,1.04185,0,0,1-1.1565-.9999Zm-2.346-.5316a.90162.90162,0,0,1,.879-.91335.78485.78485,0,0,1,.78734.89565v.0177H94.47673m4.60184-1.4253a1.14957,1.14957,0,0,0-.126-.00585.87079.87079,0,0,0-.87015.5178h-.01755v-.44385h-.7053V93.7964H98.092V92.0027c0-.81375.35671-1.08915.7968-1.08915.06375,0,.1128,0,.15465.0015Zm-40.48455.6189h.5529V92.864c0,.61965.14431.95505.92281.95505.1875,0,.40289-.011.53909-.02265v-.55515a2.23815,2.23815,0,0,1-.32595.027c-.35295,0-.3888-.0798-.3888-.54045v-1.76h.717v-.5508h-.717V89.5418h-.74715v.87525H58.594Zm14.0895,0h.57285V92.864c0,.61965.123.95505.90736.95505.19124,0,.39479-.011.55454-.02265v-.55515a2.46505,2.46505,0,0,1-.3435.027c-.35085,0-.3927-.0798-.3927-.54045v-1.76h.737v-.5508h-.737V89.5418h-.7257v.87525h-.57285Zm-8.688,1.338v-.309c0-1.0056-.4995-1.65375-1.45679-1.65375a1.58813,1.58813,0,0,0-1.601,1.75995A1.6393,1.6393,0,0,0,62.727,93.8426a2.66292,2.66292,0,0,0,1.0137-.1524l-.0966-.53685a2.425,2.425,0,0,1-.85334.1524,1.04342,1.04342,0,0,1-1.14256-.9999Zm-2.34735-.5316a.90457.90457,0,0,1,.89056-.91335.7805.7805,0,0,1,.76979.89565v.0177H61.64817m21.25635.5316v-.309c0-1.0056-.4944-1.65375-1.4517-1.65375a1.59572,1.59572,0,0,0-1.60695,1.75995,1.64805,1.64805,0,0,0,1.8048,1.73955,2.60149,2.60149,0,0,0,1.0011-.1524l-.10245-.53685a2.2302,2.2302,0,0,1-.82845.1524,1.05647,1.05647,0,0,1-1.17555-.9999Zm-2.3592-.5316a.91913.91913,0,0,1,.9075-.91335.78947.78947,0,0,1,.78.89565v.0177h-1.6875M66.28152,90.349c-.0645-.00375-.09165-.00585-.13695-.00585a.87642.87642,0,0,0-.8826.5178h-.0096v-.44385h-.7053V93.7964h.7185V92.0027c0-.81375.3714-1.08915.816-1.08915.063,0,.1017,0,.14716.0015Zm33.28845.6189h.4746V92.864c0,.61965.14655.95505.90466.95505.19919,0,.41234-.011.56684-.02265v-.55515a2.3706,2.3706,0,0,1-.34784.027c-.32821,0-.39856-.0798-.39856-.54045v-1.76h.756v-.5508h-.756V89.5418h-.7251v.87525H99.57Zm4.41076.7008c-1.14631,0-2.12116.18165-2.12116,1.1565,0,.77565.5874,1.01745,1.15575,1.01745a1.08363,1.08363,0,0,0,1.01955-.52155h.01605a2.33969,2.33969,0,0,0,.0741.47535h.63721a6.44012,6.44012,0,0,1-.04186-.78375v-1.4259c0-.81225-.49364-1.24365-1.467-1.24365a3.35184,3.35184,0,0,0-1.0635.1947l.15165.5376a2.44763,2.44763,0,0,1,.865-.18165c.5397,0,.77416.24615.77416.693Zm0,.4746v.266a.8309.8309,0,0,1-.87166.91185.49484.49484,0,0,1-.5559-.5274c0-.52515.61306-.6504,1.2906-.6504Zm-35.37091-.4746c-1.13309,0-2.1138.18165-2.1138,1.1565,0,.77565.57871,1.01745,1.16385,1.01745a1.10361,1.10361,0,0,0,1.01955-.52155h.01245a2.99471,2.99471,0,0,0,.0681.47535h.635a4.77081,4.77081,0,0,1-.0549-.78375v-1.4259c0-.81225-.4746-1.24365-1.43985-1.24365a3.203,3.203,0,0,0-1.062.1947l.14206.5376a2.43709,2.43709,0,0,1,.859-.18165c.53985,0,.77055.24615.77055.693Zm0,.4746v.266a.82422.82422,0,0,1-.85185.91185.50246.50246,0,0,1-.575-.5274c0-.52515.62115-.6504,1.29571-.6504ZM106.227,89.1338h-.733v.67605h.733Zm-.0117,1.28325h-.72135V93.7964h.72135Zm-30.153-1.28325h-.74415v.67605h.74415Zm-.0177,1.28325h-.72645V93.7964h.72645Zm30.9441,0V93.7964h.7245V91.91555c0-.74415.4269-1.0218.82606-1.0218.54719,0,.69284.3597.69284.94125v1.9614h.72885V91.5596a1.12846,1.12846,0,0,0-1.221-1.2165,1.15983,1.15983,0,0,0-1.0386.5448h-.00585v-.47085Zm3.7179,0V93.7964h.73305V91.8818c0-.7104.35895-.98805.75585-.98805.5472,0,.65265.3399.65265.9024V93.7964h.72435V91.72955a.73432.73432,0,0,1,.7398-.8358c.531,0,.6408.3831.6408.94125v1.9614h.7383V91.5596a1.108,1.108,0,0,0-1.21064-1.2165,1.1399,1.1399,0,0,0-1.04746.5448h-.0285a.98542.98542,0,0,0-.991-.5448,1.05205,1.05205,0,0,0-.97846.5565h-.019v-.48255Zm8.55166,1.8888v-.309c0-1.0056-.49291-1.65375-1.44721-1.65375a1.5942,1.5942,0,0,0-1.60545,1.75995,1.64334,1.64334,0,0,0,1.80616,1.73955,2.63631,2.63631,0,0,0,.99824-.1524l-.09735-.53685a2.32671,2.32671,0,0,1-.8541.1524,1.05574,1.05574,0,0,1-1.15275-.9999Zm-2.35246-.5316a.91859.91859,0,0,1,.90525-.91335.79351.79351,0,0,1,.7734.89565v.0177h-1.67865m2.9025-1.3572V93.7964h.7098V91.91555c0-.74415.416-1.0218.82905-1.0218.57061,0,.69795.3597.69795.94125v1.9614h.73245V91.5596a1.23956,1.23956,0,0,0-2.266-.6717H120.496v-.47085Zm3.32085.5508h.5508V92.864c0,.61965.13981.95505.90225.95505.20145,0,.41025-.011.5589-.02265v-.55515a2.40137,2.40137,0,0,1-.33255.027c-.33255,0-.389-.0798-.389-.54045v-1.76h.7215v-.5508h-.7215V89.5418h-.73965v.87525h-.5508Zm3.73245,2.82855h.76755V89.237h-.76755Zm-73.11105,0h.736V89.237h-.736Zm74.62785-3.37935V93.7964h.7215V91.91555c0-.74415.4182-1.0218.826-1.0218.56475,0,.6951.3597.6951.94125v1.9614h.734V91.5596a1.23488,1.23488,0,0,0-2.25885-.6717h-.0183v-.47085Zm6.0279.05055a2.05306,2.05306,0,0,0-.7698-.1245,1.65479,1.65479,0,0,0-1.752,1.75995,1.61688,1.61688,0,0,0,1.7556,1.73955,1.71159,1.71159,0,0,0,.7662-.13845l-.1173-.52515a1.195,1.195,0,0,1-.5991.12675,1.21371,1.21371,0,0,1-.02414-2.412,1.47532,1.47532,0,0,1,.60419.11865Zm-62.02965,0a2.10722,2.10722,0,0,0-.77565-.1245,1.65867,1.65867,0,0,0-1.7607,1.75995A1.62131,1.62131,0,0,0,71.601,93.8426a1.74949,1.74949,0,0,0,.77565-.13845L72.25,93.179a1.2094,1.2094,0,0,1-.6051.12675,1.21426,1.21426,0,0,1-.01169-2.412,1.48876,1.48876,0,0,1,.59774.11865Zm62.63745,3.3288h.83205v-.8445h-.83205Z"/><polygon class="cls-3" points="78.535 93.798 79.801 90.407 79.021 90.407 78.147 93.132 78.133 93.132 77.244 90.407 76.437 90.407 77.707 93.798 78.535 93.798"/><path class="cls-3" d="M115.88623,59.14985a4.82645,4.82645,0,1,0-4.82371,4.7571A4.79738,4.79738,0,0,0,115.88623,59.14985Zm-.64231,0a4.18452,4.18452,0,1,1-4.1814-4.2699A4.20014,4.20014,0,0,1,115.24392,59.14985Z"/><path class="cls-3" d="M72.80082,61.29005a2.89158,2.89158,0,0,1-.86355-2.1342,3.10189,3.10189,0,0,1,.86355-2.24055,3.54912,3.54912,0,0,1,4.64415,0,3.10236,3.10236,0,0,1,.85185,2.24055,2.80937,2.80937,0,0,1-.85185,2.1342,3.125,3.125,0,0,1-2.32395.969A3.18389,3.18389,0,0,1,72.80082,61.29005Zm6.67515.56475a3.95906,3.95906,0,0,0,1.14855-2.69895A3.6919,3.6919,0,0,0,79.476,56.3879a6.17933,6.17933,0,0,0-4.355-1.4751,6.81016,6.81016,0,0,0-4.3359,1.4715,3.69459,3.69459,0,0,0-1.18365,2.77155,3.74356,3.74356,0,0,0,1.18365,2.69895,6.61109,6.61109,0,0,0,4.3359,1.4787A6.525,6.525,0,0,0,79.476,61.8548Z"/><path class="cls-3" d="M62.664,54.91505a6.56074,6.56074,0,0,0-2.81685.58455,2.15961,2.15961,0,0,0-1.4766,1.96875,2.06988,2.06988,0,0,0,.5508,1.3806,2.61192,2.61192,0,0,0,1.60545.76755,22.53654,22.53654,0,0,0,2.34015.3867c.93165.1077,1.8669.2073,2.2536.3069.27405.08205.78735.197.78735.6951a.897.897,0,0,1-.621.84,4.12561,4.12561,0,0,1-1.86914.3669,7.254,7.254,0,0,1-2.22076-.42765,2.90991,2.90991,0,0,1-1.29855-.87525,1.37372,1.37372,0,0,1-.266-.83565h-1.0194V62.9996h1.133v-.42855c0-.05205.05055-.1326.24615-.12675a11.96147,11.96147,0,0,0,1.697.567,6.661,6.661,0,0,0,1.73445.23205,7.08175,7.08175,0,0,0,2.3298-.3456,6.91238,6.91238,0,0,0,1.40625-.6387A2.0683,2.0683,0,0,0,67.90017,60.71a2.03909,2.03909,0,0,0-.59775-1.5198,2.35043,2.35043,0,0,0-.74775-.55,5.36292,5.36292,0,0,0-.9222-.34065,17.27847,17.27847,0,0,0-2.5722-.39255,19.478,19.478,0,0,1-2.299-.26505.59791.59791,0,0,1-.43141-.56625.70654.70654,0,0,1,.39841-.62325,5.08465,5.08465,0,0,1,2.10719-.3618,6.72388,6.72388,0,0,1,2.45145.405,2.25143,2.25143,0,0,1,.58815.375,2.06881,2.06881,0,0,1,.57195.9858h.93526V55.2725H66.33207v.32085c0,.1032-.09015.24015-.28575.1266A7.42429,7.42429,0,0,0,62.664,54.91505Z"/><path class="cls-3" d="M85.38673,55.38815l5.04854,4.62675.01755-3.1113c-.0153-.42555-.0879-.5721-.52365-.5721h-.95655v-.94335h4.32795v.94335H92.371c-.4497,0-.4767.12675-.4827.5721l.0177,5.9355H90.43527l-5.81835-5.2068v3.67755c.00585.4299.01981.6291.4395.6291h1.02165v.90015H81.84762V61.939h.9822c.37275,0,.35745-.3771.35745-.6489v-4.3572c0-.30825-.0432-.60135-.6036-.60135h-.8181v-.94335Z"/><path class="cls-3" d="M98.17917,61.939c.0351,0,.219-.00585.2622-.014a.39325.39325,0,0,0,.1911-.1911.99082.99082,0,0,0,.01545-.21315V60.05c0-.0351,0-.0468-.06225-.1383-.0645-.09015-2.6367-3.0492-2.75025-3.206a1.10048,1.10048,0,0,0-.8064-.37425h-.87885v-.94335h5.0529v.94335h-.6174c-.1326,0-.2307.11505-.10185.2454,0,0,1.70145,2.11605,1.72275,2.1336.0138.027.0315.03285.0432.0036.0234-.01755,1.75185-2.11305,1.7658-2.1306.0798-.09375.01905-.252-.15225-.252h-.64455v-.94335h4.17915v.94335h-.9411a.83368.83368,0,0,0-.73245.3048c-.1194.1443-2.71875,3.18525-2.79855,3.27315a.19748.19748,0,0,0-.03525.14055v1.47075a1.10449,1.10449,0,0,0,.0213.21315.34589.34589,0,0,0,.20145.1911,2.53264,2.53264,0,0,0,.2577.014h.953v.90015h-5.0355V61.939Z"/><path class="cls-3" d="M112.35882,61.80785c.0432-.03885.03735-.03885.03735-.03885a7.313,7.313,0,0,1-.18165-1.3359c-.0762-.48855-.23429-.87885-.86129-.87885h-1.56811l.0798.0813v2.1393l.05865.033h-.90015l.05415-.03885V56.4056l-.05415-.0447h2.35545a2.62776,2.62776,0,0,1,.73395.0915,1.5511,1.5511,0,0,1,.41445,2.795,2.48508,2.48508,0,0,1-.41445.0234c.76965,0,.86715.4512.94185,1.3674a3.29438,3.29438,0,0,0,.25335,1.1052l.10185.0645Zm-.98805-4.70865h-1.58565l.0798.0681v1.73655l-.0798.0645h1.56811a.98817.98817,0,0,0,1.092-1.03725C112.44523,57.46835,112.10323,57.0992,111.37077,57.0992Z"/><path class="cls-4" d="M100.05717,135.349a13.18178,13.18178,0,0,1-26.36355,0V132.7964a13.18178,13.18178,0,0,1,26.36355,0Z"/><path class="cls-2" d="M86.875,149.09135a13.75871,13.75871,0,0,1-13.7439-13.7424V132.7964a13.74428,13.74428,0,0,1,27.48855,0V135.349A13.759,13.759,0,0,1,86.875,149.09135Zm0-28.91235a12.63244,12.63244,0,0,0-12.6189,12.6174V135.349a12.61928,12.61928,0,0,0,25.23855,0V132.7964A12.63269,12.63269,0,0,0,86.875,120.179Z"/><path class="cls-2" d="M41.80467,148.21175h-14.031a2.23662,2.23662,0,0,1-2.2347-2.23245V122.16755a2.23678,2.23678,0,0,1,2.2347-2.2332h14.031a2.236,2.236,0,0,1,2.2338,2.2332V145.9793A2.23585,2.23585,0,0,1,41.80467,148.21175Zm-14.031-27.1524a1.1105,1.1105,0,0,0-1.1097,1.1082V145.9793a1.11044,1.11044,0,0,0,1.1097,1.10745h14.031a1.10966,1.10966,0,0,0,1.1088-1.10745V122.16755a1.10972,1.10972,0,0,0-1.1088-1.1082Z"/><path class="cls-2" d="M31.60062,126.882H37.977a1.2378,1.2378,0,0,1,1.2378,1.2378v1.2759a1.23855,1.23855,0,0,1-1.23855,1.23855H31.59987a1.237,1.237,0,0,1-1.237-1.237v-1.2774A1.2378,1.2378,0,0,1,31.60062,126.882Z"/><path class="cls-2" d="M37.977,131.1968h-6.3771a1.80213,1.80213,0,0,1-1.79955-1.80105v-1.2759a1.802,1.802,0,0,1,1.79955-1.8003H37.977a1.80223,1.80223,0,0,1,1.8003,1.8003v1.2759A1.80239,1.80239,0,0,1,37.977,131.1968Zm-6.3771-3.75225a.67532.67532,0,0,0-.67455.6753v1.2759a.676.676,0,0,0,.67455.67605H37.977a.67611.67611,0,0,0,.6753-.67605v-1.2759a.67547.67547,0,0,0-.6753-.6753Z"/><path class="cls-2" d="M31.60062,137.511H37.977a1.2378,1.2378,0,0,1,1.2378,1.2378v1.27575a1.23855,1.23855,0,0,1-1.23855,1.23855H31.59987a1.237,1.237,0,0,1-1.237-1.237v-1.27725A1.2378,1.2378,0,0,1,31.60062,137.511Z"/><path class="cls-2" d="M37.977,141.82565h-6.3771a1.802,1.802,0,0,1-1.79955-1.80105v-1.27575a1.80188,1.80188,0,0,1,1.79955-1.8003H37.977a1.80213,1.80213,0,0,1,1.8003,1.8003v1.27575A1.80229,1.80229,0,0,1,37.977,141.82565Zm-6.3771-3.7521a.67522.67522,0,0,0-.67455.6753v1.27575a.67586.67586,0,0,0,.67455.67605H37.977a.676.676,0,0,0,.6753-.67605v-1.27575a.67537.67537,0,0,0-.6753-.6753Z"/><rect class="cls-5" x="31.11282" y="127.5677" width="7.3542" height="2.38035"/><path class="cls-2" d="M38.467,130.51055h-7.3542a.56213.56213,0,0,1-.5625-.5625V127.5677a.562.562,0,0,1,.5625-.5625H38.467a.56261.56261,0,0,1,.5625.5625v2.38035A.56271.56271,0,0,1,38.467,130.51055Zm-6.7917-1.125h6.2292V128.1302h-6.2292Z"/><rect class="cls-5" x="31.11282" y="138.19655" width="7.3542" height="2.38035"/><path class="cls-2" d="M38.467,141.1394h-7.3542a.56213.56213,0,0,1-.5625-.5625v-2.38035a.56213.56213,0,0,1,.5625-.5625H38.467a.56271.56271,0,0,1,.5625.5625v2.38035A.56271.56271,0,0,1,38.467,141.1394Zm-6.7917-1.125h6.2292v-1.25535h-6.2292Z"/><path class="cls-2" d="M58.81227,142.9265a8.85353,8.85353,0,1,1,8.85346-8.85345A8.86387,8.86387,0,0,1,58.81227,142.9265Zm0-16.58205a7.72853,7.72853,0,1,0,7.72846,7.7286A7.73686,7.73686,0,0,0,58.81227,126.34445Z"/><path class="cls-2" d="M58.81227,140.6999a6.62693,6.62693,0,1,1,6.62685-6.62685A6.63446,6.63446,0,0,1,58.81227,140.6999Zm0-12.12885a5.50193,5.50193,0,1,0,5.50185,5.502A5.50783,5.50783,0,0,0,58.81227,128.57105Z"/><path class="cls-2" d="M60.16423,131.30225a3.08318,3.08318,0,1,1-2.70331,0l-.3354-.68775a3.85082,3.85082,0,1,0,3.37425,0Z"/><rect class="cls-2" x="58.39842" y="129.1577" width="0.82981" height="4.7652"/><path class="cls-2" d="M126.63223,149.54255a15.46913,15.46913,0,1,1,15.4695-15.4695A15.48806,15.48806,0,0,1,126.63223,149.54255Zm0-30.18825a14.71913,14.71913,0,1,0,14.7195,14.71875A14.73686,14.73686,0,0,0,126.63223,119.3543Z"/><path class="cls-6" d="M140.45082,134.07305a13.8189,13.8189,0,1,0-13.81859,13.8186,13.81982,13.81982,0,0,0,13.81859-13.8186Z"/><path class="cls-2" d="M126.63223,148.45415a14.38185,14.38185,0,1,1,14.38109-14.3811A14.39773,14.39773,0,0,1,126.63223,148.45415Zm0-27.6387a13.25685,13.25685,0,1,0,13.25609,13.2576A13.27226,13.27226,0,0,0,126.63223,120.81545Z"/><path class="cls-2" d="M126.63223,139.60505a5.53238,5.53238,0,1,1,5.532-5.532A5.53943,5.53943,0,0,1,126.63223,139.60505Zm0-9.93975a4.40738,4.40738,0,1,0,4.407,4.40775A4.41331,4.41331,0,0,0,126.63223,129.6653Z"/><path class="cls-2" d="M126.63223,135.896a1.82333,1.82333,0,1,1,1.82309-1.82295A1.82627,1.82627,0,0,1,126.63223,135.896Zm0-2.52165a.69833.69833,0,1,0,.69809.6987A.70015.70015,0,0,0,126.63223,133.37435Z"/><polygon class="cls-7" points="27.175 91.57 26.971 91.245 26.787 90.884 26.625 90.484 26.49 90.048 26.386 89.577 26.386 51.86 26.49 51.39 26.625 50.953 26.787 50.554 26.971 50.191 27.175 49.866 27.348 49.638 27.348 91.798 27.175 91.57"/><polygon class="cls-7" points="33.475 91.57 33.679 91.245 33.864 90.884 34.026 90.484 34.16 90.048 34.265 89.577 34.265 51.86 34.16 51.39 34.026 50.953 33.864 50.554 33.679 50.191 33.475 49.866 33.301 49.638 33.301 91.798 33.475 91.57"/><polygon class="cls-3" points="30.963 93.016 31.23 93.003 31.494 92.962 31.759 92.894 32.022 92.798 32.28 92.673 32.535 92.518 32.783 92.331 33.025 92.112 33.257 91.858 33.301 91.798 33.301 49.638 33.257 49.577 33.025 49.324 32.783 49.106 32.535 48.919 32.28 48.763 32.022 48.638 31.759 48.544 31.494 48.474 31.23 48.435 30.963 48.421 29.688 48.421 29.42 48.435 29.156 48.474 28.891 48.544 28.629 48.638 28.371 48.763 28.116 48.919 27.867 49.106 27.625 49.324 27.394 49.577 27.348 49.638 27.348 91.798 27.394 91.858 27.625 92.112 27.867 92.331 28.116 92.518 28.371 92.673 28.629 92.798 28.891 92.894 29.156 92.962 29.42 93.003 29.688 93.016 30.963 93.016"/><path class="cls-2" d="M30.96342,93.5789h-1.2759l-.02715-.00075-.2673-.0132a.501.501,0,0,1-.05865-.00585l-.26505-.04095c-.01845-.003-.036-.0066-.05355-.0111l-.26505-.0681a.44629.44629,0,0,1-.0543-.0168l-.26145-.096c-.01755-.0066-.03435-.01395-.05129-.0219l-.25846-.12525c-.0162-.0081-.03225-.0162-.0477-.02565l-.2541-.1545c-.0147-.0096-.03-.01905-.04395-.03015l-.24975-.186c-.0147-.011-.0279-.02265-.0417-.03435l-.24105-.219c-.0132-.01245-.0264-.0249-.03885-.03885l-.2307-.2541c-.0102-.01185-.0204-.02355-.03-.03675l-.0462-.05925a.5649.5649,0,0,1-.11565-.342V49.6379a.5629.5629,0,0,1,.1128-.33765l.04545-.06075c.011-.0147.02265-.0285.03436-.0417l.23144-.25275a.46569.46569,0,0,1,.0381-.03885l.24165-.2175c.01245-.0117.02565-.02265.03885-.03285l.24975-.1875a.467.467,0,0,1,.04395-.0294l.2541-.156c.01695-.0102.03375-.01905.0513-.02775l.2586-.1239c.0168-.008.0336-.0153.0513-.0219l.26146-.0945c.016-.00585.033-.01095.04979-.0153l.26505-.0696a.46552.46552,0,0,1,.0579-.0117l.2652-.04035c.01756-.00225.03585-.00435.05415-.0051l.2673-.014.0294-.00075h1.2759l.03.00075.26581.014c.01829.00075.03584.00285.05414.0051l.2652.04035a.49484.49484,0,0,1,.0579.0117l.26505.0696a.37121.37121,0,0,1,.04921.01455l.26219.09525c.01831.0066.03585.014.0534.0219l.25785.1245c.01606.0081.033.017.0483.0264l.2556.156a.48343.48343,0,0,1,.0462.0315l.24825.1875c.01321.0096.02565.02055.0381.0315l.24165.2175c.01246.01185.02565.0243.03735.03735l.2322.2535a.61638.61638,0,0,1,.0396.0483l.044.06075a.55754.55754,0,0,1,.1083.3318V91.7984a.56093.56093,0,0,1-.1113.33615l-.0447.06c-.01094.0147-.02265.0294-.0351.0432l-.2322.25425c-.0117.01245-.02414.02565-.03735.03735l-.24165.219c-.01245.0117-.0264.02265-.04035.0336l-.24825.18615c-.01545.01095-.03.02115-.0462.0315l-.2556.1545c-.01455.0087-.03.0168-.0453.02415l-.25785.126c-.017.008-.0345.0153-.0528.0219l-.2622.096a.48706.48706,0,0,1-.0534.0168l-.26519.0681c-.01756.0045-.03586.0081-.05341.0111l-.2652.04095a.51848.51848,0,0,1-.0585.00585l-.266.0132Zm-1.26269-1.125h1.2495l.22259-.011.2088-.03225.2109-.0543.20865-.0768.20956-.1011.20939-.1275.2052-.15375.202-.18315.1113-.123V49.84445l-.11055-.12075-.2028-.1839-.20655-.156-.208-.12675-.20731-.0996-.2109-.0762-.2109-.0549-.2088-.0315-.22409-.0117H29.70207l-.22484.0117-.20866.0315-.2103.0549-.2109.0762-.20805.0996-.20655.12675-.2079.15675-.20295.1824-.1113.12225V91.59035l.1128.12375.20145.18315.20655.15375.2079.1275.2103.1011.20865.0768.2103.0543.20866.03225Z"/><path class="cls-2" d="M30.96342,93.5789h-1.2759l-.02715-.00075-.2673-.0132a.501.501,0,0,1-.05865-.00585l-.26505-.04095c-.01845-.003-.036-.0066-.05355-.0111l-.26505-.0681a.44629.44629,0,0,1-.0543-.0168l-.26145-.096c-.01755-.0066-.03435-.01395-.05129-.0219l-.25846-.12525c-.0162-.0081-.03225-.0162-.0477-.02565l-.2541-.1545c-.0147-.0096-.03-.01905-.04395-.03015l-.24975-.186c-.0147-.011-.0279-.02265-.0417-.03435l-.24105-.219c-.0132-.01245-.0264-.0249-.03885-.03885l-.2307-.2541c-.011-.01185-.02115-.0249-.0315-.03735l-.219-.2886c-.0102-.0132-.0198-.02715-.0285-.0411l-.2037-.32445a.50762.50762,0,0,1-.0255-.0447l-.1839-.36255a.43329.43329,0,0,1-.0198-.0432l-.16184-.3999a.43292.43292,0,0,1-.01531-.0447l-.13485-.43575c-.0051-.01455-.00884-.03-.01245-.0447l-.104-.47085a.56889.56889,0,0,1-.0132-.12165V51.86015a.57062.57062,0,0,1,.0132-.1224l.104-.4695c.00361-.0153.00735-.03.0117-.0438l.13485-.4374c.0051-.0153.0102-.03075.0168-.04605l.1611-.3984c.00585-.01395.01245-.02865.0198-.0426l.1839-.36315a.50762.50762,0,0,1,.0255-.0447l.2037-.3252.02776-.04035.219-.28935.033-.03945.23144-.25275a.46569.46569,0,0,1,.0381-.03885l.24165-.2175c.01245-.0117.02565-.02265.03885-.03285l.24975-.1875a.467.467,0,0,1,.04395-.0294l.2541-.156c.01695-.0102.03375-.01905.0513-.02775l.2586-.1239c.0168-.008.0336-.0153.0513-.0219l.26146-.0945c.016-.00585.033-.01095.04979-.0153l.26505-.0696a.46552.46552,0,0,1,.0579-.0117l.2652-.04035c.01756-.00225.03585-.00435.05415-.0051l.2673-.014.0294-.00075h1.2759l.03.00075.26581.014c.01829.00075.03584.00285.05414.0051l.2652.04035a.49484.49484,0,0,1,.0579.0117l.26505.0696a.37121.37121,0,0,1,.04921.01455l.26219.09525c.01831.0066.03585.014.0534.0219l.25785.1245c.01606.0081.033.017.0483.0264l.2556.156a.48343.48343,0,0,1,.0462.0315l.24825.1875c.01321.0096.02565.02055.0381.0315l.24165.2175c.01246.01185.02565.0243.03735.03735l.2322.2535c.0117.0132.02341.02715.0345.0417l.21825.28935c.00945.01245.0183.02565.027.03885l.2037.3252c.0087.0138.0168.0285.0249.0432l.18525.3633c.00735.01455.014.02925.01981.04395l.16184.3984c.00585.0153.0117.03075.0162.04605l.1347.4374c.00435.0138.0081.0285.0117.0438l.10395.4695a.527.527,0,0,1,.014.1224V89.5769a.52523.52523,0,0,1-.014.12165l-.10395.47085c-.0036.0147-.00735.03015-.0117.0447l-.1347.43575c-.00525.01545-.01035.03015-.0162.0447l-.16184.3999a.46682.46682,0,0,1-.02056.0447l-.18525.36255c-.00735.0147-.01545.02865-.02415.0432l-.2037.32445c-.0087.014-.0183.02715-.02775.0396l-.21825.2886c-.01034.01395-.0213.027-.033.0402l-.2322.25425c-.0117.01245-.02414.02565-.03735.03735l-.24165.219c-.01245.0117-.0264.02265-.04035.0336l-.24825.18615c-.01545.01095-.03.02115-.0462.0315l-.2556.1545c-.01455.0087-.03.0168-.0453.02415l-.25785.126c-.017.008-.0345.0153-.0528.0219l-.2622.096a.48706.48706,0,0,1-.0534.0168l-.26519.0681c-.01756.0045-.03586.0081-.05341.0111l-.2652.04095a.51848.51848,0,0,1-.0585.00585l-.266.0132Zm-1.26269-1.125h1.2495l.22259-.011.2088-.03225.2109-.0543.20865-.0768.20956-.1011.20939-.1275.2052-.15375.202-.18315.19636-.216.18824-.24765.17715-.28335.16261-.31785.14354-.3546.1209-.39105.0864-.3882V51.92165l-.0864-.38745-.1209-.39255-.14354-.3531-.16261-.31935-.17789-.28335-.1875-.249-.19561-.21315-.2028-.1839-.20655-.156-.208-.12675-.20731-.0996-.2109-.0762-.2109-.0549-.2088-.0315-.22409-.0117H29.70207l-.22484.0117-.20866.0315-.2103.0549-.2109.0762-.20805.0996-.20655.12675-.2079.15675-.20295.1824-.19485.2139-.18884.24975-.17731.28185-.1611.31935-.1443.35385-.1209.39255-.08565.38745V89.5154l.08565.3882.1209.39105.1443.3552.1611.318.17731.28185.18884.2484.19635.216.20145.18315.20655.15375.2079.1275.2103.1011.20865.0768.2103.0543.20866.03225Z"/><polygon class="cls-7" points="146.575 91.57 146.778 91.245 146.963 90.884 147.125 90.484 147.259 90.048 147.363 89.577 147.363 51.86 147.259 51.39 147.125 50.953 146.963 50.554 146.778 50.191 146.575 49.866 146.402 49.638 146.402 91.798 146.575 91.57"/><polygon class="cls-7" points="140.274 91.57 140.071 91.245 139.886 90.884 139.724 90.484 139.59 90.048 139.485 89.577 139.485 51.86 139.59 51.39 139.724 50.953 139.886 50.554 140.071 50.191 140.274 49.866 140.449 49.638 140.449 91.798 140.274 91.57"/><polygon class="cls-3" points="142.787 93.016 142.52 93.003 142.254 92.962 141.99 92.894 141.728 92.798 141.469 92.673 141.215 92.518 140.965 92.331 140.725 92.112 140.493 91.858 140.449 91.798 140.449 49.638 140.493 49.577 140.725 49.324 140.965 49.106 141.215 48.919 141.469 48.763 141.728 48.638 141.99 48.544 142.254 48.474 142.52 48.435 142.787 48.421 144.063 48.421 144.328 48.435 144.594 48.474 144.858 48.544 145.121 48.638 145.379 48.763 145.634 48.919 145.883 49.106 146.124 49.324 146.356 49.577 146.402 49.638 146.402 91.798 146.356 91.858 146.124 92.112 145.883 92.331 145.634 92.518 145.379 92.673 145.121 92.798 144.858 92.894 144.594 92.962 144.328 93.003 144.063 93.016 142.787 93.016"/><path class="cls-2" d="M144.06252,93.5789h-1.2759l-.02789-.00075-.26581-.0132a.51764.51764,0,0,1-.05865-.00585l-.2658-.04095c-.0183-.003-.0366-.0066-.0543-.0111l-.26355-.0681a.435.435,0,0,1-.05355-.0168l-.2622-.096c-.01755-.0066-.0351-.01395-.05205-.0219l-.2592-.12525c-.0162-.0081-.0315-.0162-.047-.02565l-.2541-.1545a.45441.45441,0,0,1-.04395-.03015l-.24975-.186a.47928.47928,0,0,1-.04245-.0351l-.2403-.21975a.41423.41423,0,0,1-.0366-.03585l-.2322-.25425c-.01245-.0138-.02415-.0285-.03585-.0432l-.04395-.06a.56191.56191,0,0,1-.11129-.33615V49.6379a.55667.55667,0,0,1,.10844-.3318l.0438-.06075a.61638.61638,0,0,1,.0396-.0483l.2322-.2535c.0117-.01245.02415-.0249.0366-.0366l.2403-.2175c.0132-.0117.02625-.02265.0402-.0336l.24975-.1875a.467.467,0,0,1,.04395-.0294l.25425-.156a.526.526,0,0,1,.05055-.02775l.2592-.1239c.0168-.008.0345-.0153.052-.0219l.2622-.09525c.01605-.00585.03225-.0102.0483-.01455l.2637-.0696a.52323.52323,0,0,1,.05925-.0117l.2667-.04035c.01755-.00225.0351-.00435.0534-.0051l.266-.014.03-.00075h1.2759l.03.00075.2658.014c.01755.00075.036.00285.05355.0051l.2658.04035a.51927.51927,0,0,1,.0594.0117l.2637.0696c.0168.00435.03285.0087.04905.01455l.2622.09525c.01755.0066.0351.014.0519.0219l.2586.1239c.01755.0087.0345.01755.0513.02775l.2541.156a.44828.44828,0,0,1,.04395.0294l.24975.1875c.01395.011.02715.0219.03961.0336l.24014.2175a.44568.44568,0,0,1,.03675.0366l.23205.2535c.01245.0132.0243.02775.036.04245l.0453.06075a.56185.56185,0,0,1,.1128.33765V91.7984a.5649.5649,0,0,1-.11565.342l-.0462.05925a.36863.36863,0,0,1-.0315.0381l-.23145.25425c-.0117.01245-.02415.0249-.0366.03585l-.24014.21975c-.014.01245-.02791.02415-.04261.0351l-.24975.186c-.0138.0111-.02925.02055-.04395.03015l-.2541.1545c-.0153.00945-.0315.01755-.04755.02565l-.2586.12525c-.01755.008-.03435.0153-.05205.0219l-.26295.096a.39209.39209,0,0,1-.05265.0168l-.2637.0681c-.01755.0045-.03585.0081-.0549.0111l-.266.04095a.49843.49843,0,0,1-.0585.00585l-.266.0132Zm-1.2627-1.125h1.2495l.2226-.011.20955-.03225.2094-.0543.21015-.0768.20955-.1011.20805-.1275.20655-.15375.2007-.18315.1134-.12375V49.846l-.1128-.123-.2013-.18315-.20805-.156-.20655-.12675-.208-.0996-.21165-.0762-.2094-.0549-.20955-.0315-.2241-.0117h-1.24665l-.2241.0117-.2094.0315-.20955.0549-.21239.0762-.20731.0996-.20715.12675-.2073.156-.2022.18315-.11054.1215V91.5911l.112.123.2007.18315.2058.15375.20865.1275.20955.1011.21015.0768.20955.0543.2094.03225Z"/><path class="cls-2" d="M144.06252,93.5789h-1.2759l-.02789-.00075-.26581-.0132a.51764.51764,0,0,1-.05865-.00585l-.2658-.04095c-.0183-.003-.0366-.0066-.0543-.0111l-.26355-.0681a.435.435,0,0,1-.05355-.0168l-.2622-.096c-.01755-.0066-.0351-.01395-.05205-.0219l-.2592-.12525c-.0162-.0081-.0315-.0162-.047-.02565l-.2541-.1545a.45441.45441,0,0,1-.04395-.03015l-.24975-.186a.47928.47928,0,0,1-.04245-.0351l-.2403-.21975a.41423.41423,0,0,1-.0366-.03585l-.2322-.25425c-.01095-.0132-.0219-.02565-.03225-.0387l-.219-.2886c-.0102-.01395-.0204-.0279-.02925-.04245l-.2028-.3246c-.00885-.0138-.0162-.02775-.02355-.0417l-.18524-.36255a.462.462,0,0,1-.02056-.0447l-.16185-.3999c-.00585-.01455-.011-.02925-.01605-.0447l-.13485-.43575c-.00435-.01455-.00795-.03-.01169-.0447l-.104-.47085a.52578.52578,0,0,1-.01395-.12165V51.86015a.52749.52749,0,0,1,.01395-.1224l.104-.4695c.00374-.0153.00734-.03.01169-.0438l.13485-.4374c.00435-.0153.0102-.03075.01605-.04605l.16185-.3984c.00585-.0147.01245-.0294.0198-.04395l.18526-.3633c.00734-.014.01544-.02865.02429-.04245l.2028-.3246c.00885-.0138.0183-.02775.02865-.0417l.219-.28935c.011-.0138.0219-.027.0336-.0402l.2322-.2535c.0117-.01245.02415-.0249.0366-.0366l.2403-.2175c.0132-.0117.02625-.02265.0402-.0336l.24975-.1875a.467.467,0,0,1,.04395-.0294l.25425-.156a.526.526,0,0,1,.05055-.02775l.2592-.1239c.0168-.008.0345-.0153.052-.0219l.2622-.09525c.01605-.00585.03225-.0102.0483-.01455l.2637-.0696a.52323.52323,0,0,1,.05925-.0117l.2667-.04035c.01755-.00225.0351-.00435.0534-.0051l.266-.014.03-.00075h1.2759l.03.00075.2658.014c.01755.00075.036.00285.05355.0051l.2658.04035a.51927.51927,0,0,1,.0594.0117l.2637.0696c.0168.00435.03285.0087.04905.01455l.2622.09525c.01755.0066.0351.014.0519.0219l.2586.1239c.01755.0087.0345.01755.0513.02775l.2541.156a.44828.44828,0,0,1,.04395.0294l.24975.1875c.01395.011.02715.0219.03961.0336l.24014.2175a.44568.44568,0,0,1,.03675.0366l.23205.2535c.01245.0132.02356.0264.0345.0402l.219.28935c.0102.014.0198.0279.0285.0417l.203.3246c.00811.0138.01605.0285.0234.04245l.18525.3633c.00735.01455.014.02925.02055.04395l.1611.3984c.0066.0153.0117.03075.017.04605l.1347.4374c.00435.0138.0081.0285.0117.0438l.1041.4695a.58015.58015,0,0,1,.013.1224V89.5769a.57842.57842,0,0,1-.013.12165l-.1041.47085c-.0036.0147-.00735.03015-.01245.0447l-.1347.43575c-.0045.01545-.0096.03015-.01545.0447l-.16185.3999a.46432.46432,0,0,1-.02055.0447l-.18525.36255-.0234.0417-.203.3246c-.00944.01455-.019.0285-.02925.04245l-.219.2886c-.01019.01305-.0213.0255-.033.0387l-.23145.25425c-.0117.01245-.02415.0249-.0366.03585l-.24014.21975c-.014.01245-.02791.02415-.04261.0351l-.24975.186c-.0138.0111-.02925.02055-.04395.03015l-.2541.1545c-.0153.00945-.0315.01755-.04755.02565l-.2586.12525c-.01755.008-.03435.0153-.05205.0219l-.26295.096a.39209.39209,0,0,1-.05265.0168l-.2637.0681c-.01755.0045-.03585.0081-.0549.0111l-.266.04095a.49843.49843,0,0,1-.0585.00585l-.266.0132Zm-1.2627-1.125h1.2495l.2226-.011.20955-.03225.2094-.0543.21015-.0768.20955-.1011.20805-.1275.20655-.15375.2007-.18315.1977-.216.18825-.24765.1758-.2826.1632-.3186.1437-.3546.12075-.39105.08565-.3882V51.92165l-.08565-.38745-.12075-.39255-.1437-.3531-.1632-.3201-.17655-.2826-.1875-.2484-.1971-.2145-.2013-.18315-.20805-.156-.20655-.12675-.208-.0996-.21165-.0762-.2094-.0549-.20955-.0315-.2241-.0117h-1.24665l-.2241.0117-.2094.0315-.20955.0549-.21239.0762-.20731.0996-.20715.12675-.2073.156-.2022.18315-.1962.2145-.18825.2484-.1758.2826-.16335.3201-.14355.3531-.12089.39255-.08641.38745V89.5154l.08641.3882.12089.39105.14355.3546.1626.3186.17655.2826.18825.24765.1977.216.2007.18315.2058.15375.20865.1275.20955.1011.21015.0768.20955.0543.2094.03225Z"/><path class="cls-7" d="M150.23023,155.2319H23.52117a5.00751,5.00751,0,0,1-5.0016-5.00235V23.5205a5.0061,5.0061,0,0,1,5.0016-5.00025H150.23023a5.00674,5.00674,0,0,1,5.00234,5.00025V150.22955A5.00815,5.00815,0,0,1,150.23023,155.2319ZM23.52117,20.02025a3.50459,3.50459,0,0,0-3.5016,3.50025V150.22955a3.5059,3.5059,0,0,0,3.5016,3.50235H150.23023a3.50606,3.50606,0,0,0,3.50234-3.50235V23.5205a3.50475,3.50475,0,0,0-3.50234-3.50025Z"/><rect class="cls-8" width="173.75215" height="173.75215"/></g></g></svg>