<svg xmlns="http://www.w3.org/2000/svg" viewBox="-173.414655 0 555 275.34398"><defs><style>.cls-1{fill:#fff;}.cls-2{fill:#9e9e9f;}.cls-3{fill:#c8c9ca;}.cls-4{fill:#e5e5e6;}.cls-5{fill:#ddd583;}.cls-6{fill:#3e3a39;}.cls-7{fill:#231815;}.cls-8{fill:#bfd833;}.cls-9{fill:none;}</style></defs><title>アセット 1601</title><g id="レイヤー_2" data-name="レイヤー 2"><g id="レイヤー_2-2" data-name="レイヤー 2"><path class="cls-1" d="M69.841,9.59107H196.55a4.25234,4.25234,0,0,1,4.25234,4.25234V140.55247a4.25025,4.25025,0,0,1-4.25025,4.25025H69.841a4.2516,4.2516,0,0,1-4.2516-4.2516V13.84267A4.2516,4.2516,0,0,1,69.841,9.59107Z"/><path class="cls-2" d="M196.55,142.62667H69.841a2.07824,2.07824,0,0,1-2.0757-2.0763V13.84132a2.07772,2.07772,0,0,1,2.0757-2.0757H196.55a2.07756,2.07756,0,0,1,2.07494,2.0757V140.55037A2.07807,2.07807,0,0,1,196.55,142.62667ZM69.841,12.51562a1.32726,1.32726,0,0,0-1.3257,1.3257V140.55037a1.32777,1.32777,0,0,0,1.3257,1.3263H196.55a1.32713,1.32713,0,0,0,1.32494-1.3263V13.84132a1.32661,1.32661,0,0,0-1.32494-1.3257Z"/><path class="cls-2" d="M98.75332,77.20237a.37523.37523,0,0,1-.375-.375v-31.576a.375.375,0,1,1,.75,0V76.82737A.37523.37523,0,0,1,98.75332,77.20237Z"/><path class="cls-2" d="M98.75332,77.38987H80.58487a.56213.56213,0,0,1-.5625-.5625v-31.576a.56165.56165,0,0,1,.5625-.5625H98.75332l.03375.0006.1956.01185a.58225.58225,0,0,1,.063.0072l.1947.03375a.6653.6653,0,0,1,.06675.016l.19335.05865c.01755.00585.0351.0117.05265.01905l.1971.082a.52926.52926,0,0,1,.05715.02775l.19545.1092a.38675.38675,0,0,1,.05565.0351l.1935.1392c.01455.011.0285.02205.04245.0345l.19485.17055c.01455.0132.02925.0279.0432.04245l.1911.2088c.0117.0132.0234.02715.03375.0411l.18675.2475c.011.0153.0219.03075.0315.0468l.17715.2916c.00885.0153.0177.03075.0249.04605l.1656.3399.019.0447.15015.39255c.00585.01545.01095.03.0153.04545l.129.44595c.00435.01545.00795.0315.01095.047l.1011.50835c.00285.0153.0051.03.0066.04455l.06585.56835a.43549.43549,0,0,1,.003.044l.0234.63285.052,3.8994.0285,3.88635.0081,3.78-.0081,3.78225-.0285,3.8847-.0513,3.88995-.02415.6438a.40669.40669,0,0,1-.003.0432l-.06585.56985c-.0015.0153-.0045.03-.00735.0453l-.10035.5076c-.003.01545-.0066.03075-.01095.0462l-.129.44745a.46186.46186,0,0,1-.0153.04545l-.15015.39105c-.00585.01545-.01245.03-.019.0447l-.1656.3399a.42236.42236,0,0,1-.0249.04605l-.17715.2916c-.0096.016-.02055.0321-.0315.0468l-.18675.24765c-.0111.01455-.0228.0285-.03525.04245l-.1911.2073a.537.537,0,0,1-.04035.0402l-.19485.1722c-.01455.01305-.03.0249-.0453.0366l-.19335.1377a.43447.43447,0,0,1-.0513.03285l-.19635.1107c-.0183.0102-.03735.019-.0564.02775l-.19695.0828a.50626.50626,0,0,1-.0594.0213l-.19335.05715a.4704.4704,0,0,1-.063.0153l-.1947.03375a.44019.44019,0,0,1-.063.0072l-.1956.01185Zm-17.606-1.125H98.73652l.14715-.0087.1311-.0234.13185-.03885.1392-.05865.1413-.0798.145-.10335.1509-.13395.15315-.16635.15225-.202.14865-.2454.14355-.29445.1326-.34635.1158-.4014.0915-.46215.06015-.52515.02265-.60945.0513-3.8715.0285-3.87975.0081-3.77625-.0081-3.77415-.0285-3.8811-.0513-3.8811-.02265-.5985-.06015-.52365-.0915-.4629-.1158-.40065-.1332-.34785-.14295-.29445-.14865-.24465-.153-.20355-.1524-.16635-.1509-.1332-.145-.1041-.139-.07755-.14145-.05865-.1332-.0402-.12975-.0228-.14715-.0087H81.14737Z"/><path class="cls-2" d="M105.13207,134.33572a9.94223,9.94223,0,1,1,9.94335-9.94185A9.95276,9.95276,0,0,1,105.13207,134.33572Zm0-19.13445a9.19223,9.19223,0,1,0,9.19335,9.1926A9.202,9.202,0,0,0,105.13207,115.20127Z"/><path class="cls-2" d="M88.12447,140.07577h-14.031a3.78134,3.78134,0,0,1-3.7779-3.77565V112.48837a3.7823,3.7823,0,0,1,3.7779-3.7779h14.031a3.78165,3.78165,0,0,1,3.77715,3.7779v23.81175A3.7807,3.7807,0,0,1,88.12447,140.07577Zm-14.031-30.6153a3.03135,3.03135,0,0,0-3.0279,3.0279v23.81175a3.03039,3.03039,0,0,0,3.0279,3.02565h14.031a3.02975,3.02975,0,0,0,3.02715-3.02565V112.48837a3.03071,3.03071,0,0,0-3.02715-3.0279Z"/><path class="cls-2" d="M133.19481,140.50132a14.84824,14.84824,0,0,1-14.83154-14.83155v-2.55255a14.83185,14.83185,0,0,1,29.66369,0v2.55255A14.84837,14.84837,0,0,1,133.19481,140.50132Zm0-31.4649a14.097,14.097,0,0,0-14.08154,14.0808v2.55255a14.08185,14.08185,0,0,0,28.16369,0v-2.55255A14.09717,14.09717,0,0,0,133.19481,109.03642Z"/><path class="cls-2" d="M133.19481,39.49147a13.31835,13.31835,0,1,1,13.31971-13.31835A13.33294,13.33294,0,0,1,133.19481,39.49147Zm0-25.5117a12.19335,12.19335,0,1,0,12.19471,12.19335A12.20618,12.20618,0,0,0,133.19481,13.97977Z"/><path class="cls-2" d="M167.63466,77.20237a.37572.37572,0,0,1-.375-.375v-31.576a.375.375,0,1,1,.75,0V76.82737A.37523.37523,0,0,1,167.63466,77.20237Z"/><path class="cls-2" d="M185.80461,77.38987H167.63466l-.0336-.00135-.1941-.01185a.43532.43532,0,0,1-.063-.0072l-.19485-.03375a.476.476,0,0,1-.063-.0153l-.19335-.05715a.50626.50626,0,0,1-.0594-.0213l-.19695-.0828c-.01905-.0087-.0381-.01755-.05639-.02775l-.19636-.1107a.42009.42009,0,0,1-.05114-.03285l-.19336-.1377c-.01545-.0117-.0309-.02355-.04545-.0366l-.19485-.1722a.535.535,0,0,1-.04034-.0402l-.19111-.2073c-.01245-.014-.02415-.0279-.0351-.04245l-.18675-.24765a.50213.50213,0,0,1-.0315-.0468l-.1773-.2916a.44972.44972,0,0,1-.0249-.04605l-.1656-.3399c-.0066-.0147-.013-.02925-.019-.0447l-.15015-.39105a.46186.46186,0,0,1-.0153-.04545l-.12885-.44745c-.0045-.01545-.0081-.03075-.0111-.0462l-.10035-.5076c-.00285-.0153-.00585-.03-.0072-.0453l-.066-.56985a.407.407,0,0,1-.00285-.0432l-.02355-.63135-.0519-3.9009-.02865-3.8856-.0081-3.7821.0081-3.7794.02865-3.8862.05115-3.88845.0243-.6453a.435.435,0,0,1,.00285-.044l.066-.56835c.00135-.01455.0036-.02925.00645-.04455l.1011-.50835c.003-.01545.0066-.0315.0111-.047l.12885-.44595c.00435-.01545.00945-.03.0153-.04545l.15015-.39255.019-.0447.1656-.3399c.00735-.0153.01605-.03075.0249-.04605l.1773-.2916c.00946-.016.0204-.0315.0315-.0468l.18675-.2475c.01021-.014.0219-.0279.0336-.0411l.19125-.2088c.0138-.01455.0285-.02925.0432-.04245l.19485-.17055c.01381-.01245.02775-.02355.04245-.0345l.19336-.1392a.3861.3861,0,0,1,.05564-.0351l.1956-.1092a.52926.52926,0,0,1,.05715-.02775l.197-.082c.01755-.00735.0351-.0132.0528-.01905l.19336-.05865a.6616.6616,0,0,1,.06659-.016l.19485-.03375a.57375.57375,0,0,1,.063-.0072l.1941-.01185.0336-.0006h18.17a.56165.56165,0,0,1,.5625.5625V76.82737A.56213.56213,0,0,1,185.80461,77.38987Zm-18.1524-1.125h17.5899v-30.451h-17.5899l-.1464.0087-.1296.0228-.13335.0402-.1413.05865-.1392.07755-.145.1041-.1509.1332-.15225.16635-.15314.20355-.14866.24465-.1428.29445-.13335.34785-.11565.40065-.09165.4629-.06.52365-.0228.611-.05115,3.87-.02865,3.8811-.0081,3.77355.0081,3.777.02865,3.87975.05115,3.88245.0228.597.06.52515.09165.46215.11565.4014.1326.34635.14355.29445.14866.2454.15239.202.153.16635.1509.13395.145.10335.1413.0798.1392.05865.13185.03885.1311.0234Z"/><path class="cls-3" d="M86.97157,80.25742A2.89,2.89,0,0,0,85.988,80.086c-.4044,0-.81885.13995-.81885.5874,0,.3618.2388.53535.90015.7947.8034.3405,1.2678.6525,1.2678,1.40625,0,.9141-.78075,1.2891-1.5996,1.2891a3.79164,3.79164,0,0,1-1.37475-.2286l.1677-.6321a3.19542,3.19542,0,0,0,1.19535.2733c.52725,0,.88245-.2169.88245-.6483,0-.38745-.34485-.59985-.99525-.85755-.7545-.30255-1.1844-.6834-1.1844-1.3323,0-.88695.78585-1.25985,1.5234-1.25985a3.58333,3.58333,0,0,1,1.1646.178Zm2.4852,3.906a1.75348,1.75348,0,1,0-1.6392-1.74975,1.5652,1.5652,0,0,0,1.6392,1.74975m0-2.94885c.62475,0,.91335.4995.91335,1.1991,0,.71475-.2886,1.2129-.91335,1.2129-.6174,0-.90675-.49815-.90675-1.2129,0-.6996.28125-1.1991.90675-1.1991m2.187-.4767v3.37935h.72135V82.23637c0-.74415.427-1.0218.8262-1.0218.545,0,.6915.3597.6915.94125v1.9614H94.624v-2.2368a1.14262,1.14262,0,0,0-1.23555-1.2165,1.1283,1.1283,0,0,0-1.02405.5448h-.0138v-.47085Zm4.0671,0h-.7968l1.33515,3.2775-.5472,1.31985h.7581l1.8348-4.59735h-.76245l-.9075,2.4807h-.00885Zm35.4411,3.37935h2.68739v-.63135H131.902v-1.4136h1.719v-.61155h-1.719v-1.297h1.87724v-.60585H131.152Zm3.27329-3.37935v3.37935h.72435V82.23637c0-.74415.41235-1.0218.8262-1.0218.5514,0,.69721.3597.69721.94125v1.9614h.71564v-2.2368a1.22811,1.22811,0,0,0-2.24864-.6717h-.00946v-.47085Zm-32.86154,0v3.37935h.736V82.23637c0-.74415.42255-1.0218.81735-1.0218.55665,0,.7083.3597.7083.94125v1.9614h.7251v-2.2368a1.13521,1.13521,0,0,0-1.22325-1.2165,1.15575,1.15575,0,0,0-1.0392.5448h-.0096v-.47085Zm36.18524.5508h.5595v1.89615c0,.61965.13845.95505.89656.95505.19634,0,.408-.011.5595-.02265v-.55515a2.45,2.45,0,0,1-.34276.027c-.34785,0-.39255-.0798-.39255-.54045v-1.76h.73831v-.5508h-.73831v-.87525h-.72075v.87525h-.5595Zm5.39356,1.338v-.309c0-1.0056-.49516-1.65375-1.467-1.65375a1.58888,1.58888,0,0,0-1.58641,1.75995,1.64258,1.64258,0,0,0,1.79295,1.73955,2.68907,2.68907,0,0,0,1.0143-.1524l-.0945-.53685a2.36228,2.36228,0,0,1-.84884.1524,1.04185,1.04185,0,0,1-1.1565-.9999Zm-2.346-.5316a.90162.90162,0,0,1,.879-.91335.78485.78485,0,0,1,.78734.89565v.0177h-1.66634m4.60184-1.4253a1.14957,1.14957,0,0,0-.126-.00585.87079.87079,0,0,0-.87015.5178h-.01755v-.44385h-.7053v3.37935h.73245v-1.7937c0-.81375.35671-1.08915.7968-1.08915.06375,0,.1128,0,.15465.0015Zm-40.48454.6189h.5529v1.89615c0,.61965.1443.95505.9228.95505.1875,0,.4029-.011.5391-.02265v-.55515a2.23815,2.23815,0,0,1-.32595.027c-.353,0-.3888-.0798-.3888-.54045v-1.76h.717v-.5508h-.717v-.87525h-.74715v.87525h-.5529Zm14.0895,0h.57285v1.89615c0,.61965.123.95505.90735.95505.19125,0,.3948-.011.55455-.02265v-.55515a2.46505,2.46505,0,0,1-.3435.027c-.35085,0-.3927-.0798-.3927-.54045v-1.76h.737v-.5508h-.737v-.87525h-.7257v.87525h-.57285Zm-8.688,1.338v-.309c0-1.0056-.4995-1.65375-1.4568-1.65375a1.58813,1.58813,0,0,0-1.60095,1.75995,1.6393,1.6393,0,0,0,1.7892,1.73955,2.663,2.663,0,0,0,1.0137-.1524l-.0966-.53685a2.425,2.425,0,0,1-.85335.1524,1.04341,1.04341,0,0,1-1.14255-.9999Zm-2.34735-.5316a.90457.90457,0,0,1,.89055-.91335.7805.7805,0,0,1,.7698.89565v.0177H107.968m21.25635.5316v-.309c0-1.0056-.4944-1.65375-1.4517-1.65375a1.59572,1.59572,0,0,0-1.60695,1.75995,1.64805,1.64805,0,0,0,1.8048,1.73955,2.60149,2.60149,0,0,0,1.0011-.1524l-.10245-.53685a2.2302,2.2302,0,0,1-.82845.1524,1.05647,1.05647,0,0,1-1.17555-.9999Zm-2.3592-.5316a.91912.91912,0,0,1,.9075-.91335.78947.78947,0,0,1,.78.89565v.0177h-1.6875m-14.2638-1.4253c-.0645-.00375-.09165-.00585-.13695-.00585a.87642.87642,0,0,0-.8826.5178h-.0096v-.44385h-.7053v3.37935h.7185v-1.7937c0-.81375.3714-1.08915.816-1.08915.063,0,.1017,0,.14715.0015Zm33.28844.6189h.4746v1.89615c0,.61965.14655.95505.90466.95505.19919,0,.41234-.011.56684-.02265v-.55515a2.3706,2.3706,0,0,1-.34784.027c-.32821,0-.39856-.0798-.39856-.54045v-1.76h.756v-.5508h-.756v-.87525h-.7251v.87525h-.4746Zm4.41076.7008c-1.14631,0-2.12116.18165-2.12116,1.1565,0,.77565.5874,1.01745,1.15575,1.01745a1.08363,1.08363,0,0,0,1.01955-.52155h.01605a2.33969,2.33969,0,0,0,.0741.47535h.63721a6.44012,6.44012,0,0,1-.04186-.78375v-1.4259c0-.81225-.49364-1.24365-1.467-1.24365a3.35184,3.35184,0,0,0-1.0635.1947l.15165.5376a2.44763,2.44763,0,0,1,.86505-.18165c.5397,0,.77416.24615.77416.693Zm0,.4746V82.73a.8309.8309,0,0,1-.87166.91185.49484.49484,0,0,1-.5559-.5274c0-.52515.61306-.6504,1.2906-.6504Zm-35.3709-.4746c-1.1331,0-2.1138.18165-2.1138,1.1565,0,.77565.5787,1.01745,1.16385,1.01745a1.10362,1.10362,0,0,0,1.01955-.52155h.01245a2.99356,2.99356,0,0,0,.0681.47535h.635a4.77081,4.77081,0,0,1-.0549-.78375v-1.4259c0-.81225-.4746-1.24365-1.43985-1.24365a3.203,3.203,0,0,0-1.062.1947l.142.5376a2.43718,2.43718,0,0,1,.859-.18165c.53985,0,.77055.24615.77055.693Zm0,.4746V82.73a.82422.82422,0,0,1-.85185.91185.50246.50246,0,0,1-.575-.5274c0-.52515.62115-.6504,1.2957-.6504Zm37.61714-3.00945h-.73305v.676h.73305Zm-.0117,1.28325h-.72135v3.37935h.72135Zm-30.153-1.28325h-.74415v.676h.74415Zm-.0177,1.28325h-.72645v3.37935h.72645Zm30.94409,0v3.37935h.7245V82.23637c0-.74415.4269-1.0218.82606-1.0218.54719,0,.69284.3597.69284.94125v1.9614h.72885v-2.2368a1.12846,1.12846,0,0,0-1.221-1.2165,1.15983,1.15983,0,0,0-1.0386.5448h-.00585v-.47085Zm3.7179,0v3.37935h.733v-1.9146c0-.7104.35895-.98805.75585-.98805.5472,0,.65265.3399.65265.9024v2.00025h.72435V82.05037a.73432.73432,0,0,1,.7398-.8358c.531,0,.6408.3831.6408.94125v1.9614h.7383v-2.2368a1.108,1.108,0,0,0-1.21064-1.2165,1.1399,1.1399,0,0,0-1.04746.5448h-.0285a.98542.98542,0,0,0-.991-.5448,1.05205,1.05205,0,0,0-.97846.5565h-.019v-.48255Zm8.55166,1.8888v-.309c0-1.0056-.49291-1.65375-1.44721-1.65375a1.5942,1.5942,0,0,0-1.60545,1.75995,1.64334,1.64334,0,0,0,1.80616,1.73955,2.63631,2.63631,0,0,0,.99824-.1524l-.09735-.53685a2.32671,2.32671,0,0,1-.8541.1524,1.05574,1.05574,0,0,1-1.15275-.9999Zm-2.35246-.5316a.91859.91859,0,0,1,.90525-.91335.79351.79351,0,0,1,.7734.89565v.0177h-1.67865m2.9025-1.3572v3.37935h.7098V82.23637c0-.74415.41595-1.0218.829-1.0218.57061,0,.69795.3597.69795.94125v1.9614h.73245v-2.2368a1.23956,1.23956,0,0,0-2.26605-.6717h-.01545v-.47085Zm3.32085.5508h.5508v1.89615c0,.61965.13981.95505.90225.95505.20145,0,.41025-.011.5589-.02265v-.55515a2.40137,2.40137,0,0,1-.33255.027c-.33255,0-.38895-.0798-.38895-.54045v-1.76h.7215v-.5508h-.7215v-.87525h-.73965v.87525h-.5508Zm3.73245,2.82855h.76755v-4.5594h-.76755Zm-73.111,0h.73605v-4.5594h-.73605Zm74.62784-3.37935v3.37935h.7215V82.23637c0-.74415.4182-1.0218.82605-1.0218.56475,0,.6951.3597.6951.94125v1.9614h.73395v-2.2368a1.23488,1.23488,0,0,0-2.25885-.6717h-.0183v-.47085Zm6.0279.05055a2.05306,2.05306,0,0,0-.7698-.1245,1.65479,1.65479,0,0,0-1.752,1.75995,1.61688,1.61688,0,0,0,1.7556,1.73955,1.71159,1.71159,0,0,0,.7662-.13845l-.1173-.52515a1.195,1.195,0,0,1-.5991.12675,1.21371,1.21371,0,0,1-.02414-2.412,1.47532,1.47532,0,0,1,.60419.11865Zm-62.02964,0a2.10722,2.10722,0,0,0-.77565-.1245,1.65867,1.65867,0,0,0-1.7607,1.75995,1.62131,1.62131,0,0,0,1.7607,1.73955,1.74949,1.74949,0,0,0,.77565-.13845l-.1266-.52515a1.2094,1.2094,0,0,1-.6051.12675,1.21426,1.21426,0,0,1-.0117-2.412,1.48877,1.48877,0,0,1,.59775.11865Zm62.63744,3.3288h.83205v-.8445h-.83205Z"/><polygon class="cls-3" points="124.855 84.119 126.121 80.728 125.341 80.728 124.466 83.453 124.453 83.453 123.564 80.728 122.757 80.728 124.027 84.119 124.855 84.119"/><path class="cls-3" d="M162.206,49.47067a4.82645,4.82645,0,1,0-4.82371,4.7571A4.79738,4.79738,0,0,0,162.206,49.47067Zm-.64231,0a4.18452,4.18452,0,1,1-4.1814-4.2699A4.20014,4.20014,0,0,1,161.56371,49.47067Z"/><path class="cls-3" d="M119.12062,51.61087a2.89158,2.89158,0,0,1-.86355-2.1342,3.10189,3.10189,0,0,1,.86355-2.24055,3.54912,3.54912,0,0,1,4.64415,0,3.10236,3.10236,0,0,1,.85185,2.24055,2.80937,2.80937,0,0,1-.85185,2.1342,3.125,3.125,0,0,1-2.32395.969A3.18387,3.18387,0,0,1,119.12062,51.61087Zm6.67515.56475a3.95906,3.95906,0,0,0,1.14855-2.699,3.6919,3.6919,0,0,0-1.14855-2.76795,6.17933,6.17933,0,0,0-4.355-1.4751,6.81016,6.81016,0,0,0-4.3359,1.4715,3.69459,3.69459,0,0,0-1.18365,2.77155,3.74356,3.74356,0,0,0,1.18365,2.699,6.61107,6.61107,0,0,0,4.3359,1.4787A6.525,6.525,0,0,0,125.79577,52.17562Z"/><path class="cls-3" d="M108.98377,45.23587a6.56071,6.56071,0,0,0-2.81685.58455,2.15959,2.15959,0,0,0-1.4766,1.96875,2.06988,2.06988,0,0,0,.5508,1.3806,2.61192,2.61192,0,0,0,1.60545.76755,22.53654,22.53654,0,0,0,2.34015.3867c.93165.1077,1.8669.2073,2.2536.3069.27405.082.78735.19695.78735.6951a.897.897,0,0,1-.621.84,4.12568,4.12568,0,0,1-1.86915.3669,7.254,7.254,0,0,1-2.22075-.42765,2.90986,2.90986,0,0,1-1.29855-.87525,1.37372,1.37372,0,0,1-.266-.83565h-1.0194v2.926h1.133v-.42855c0-.052.05055-.1326.24615-.12675a11.96147,11.96147,0,0,0,1.697.567,6.661,6.661,0,0,0,1.73445.232,7.08175,7.08175,0,0,0,2.3298-.3456,6.91262,6.91262,0,0,0,1.40625-.6387,2.0683,2.0683,0,0,0,.74055-1.54905,2.03909,2.03909,0,0,0-.59775-1.5198,2.35043,2.35043,0,0,0-.74775-.55,5.36292,5.36292,0,0,0-.9222-.34065,17.27847,17.27847,0,0,0-2.5722-.39255,19.47847,19.47847,0,0,1-2.29905-.26505.59792.59792,0,0,1-.4314-.56625.70655.70655,0,0,1,.3984-.62325,5.08474,5.08474,0,0,1,2.1072-.3618,6.72388,6.72388,0,0,1,2.45145.405,2.25143,2.25143,0,0,1,.58815.375,2.06881,2.06881,0,0,1,.57195.9858h.93525v-2.5839h-1.05015v.32085c0,.1032-.09015.24015-.28575.1266A7.42429,7.42429,0,0,0,108.98377,45.23587Z"/><path class="cls-3" d="M131.70652,45.709l5.04854,4.62675.01755-3.1113c-.0153-.42555-.0879-.5721-.52365-.5721h-.95655V45.709h4.328v.94335h-.92955c-.4497,0-.4767.12675-.4827.5721l.0177,5.9355h-1.47075l-5.81834-5.2068v3.67755c.00585.4299.0198.6291.4395.6291h1.02165v.90015h-4.23045v-.90015h.9822c.37275,0,.35745-.3771.35745-.6489v-4.3572c0-.30825-.0432-.60135-.6036-.60135h-.8181V45.709Z"/><path class="cls-3" d="M144.499,52.25977c.0351,0,.219-.00585.2622-.014a.39325.39325,0,0,0,.1911-.1911.99082.99082,0,0,0,.01545-.21315V50.37082c0-.0351,0-.0468-.06225-.1383-.0645-.09015-2.6367-3.0492-2.75025-3.206a1.10048,1.10048,0,0,0-.8064-.37425H140.47V45.709h5.0529v.94335h-.6174c-.1326,0-.2307.115-.10185.2454,0,0,1.70145,2.11605,1.72275,2.1336.0138.027.0315.03285.0432.0036.0234-.01755,1.75185-2.11305,1.7658-2.1306.0798-.09375.019-.252-.15225-.252h-.64455V45.709h4.17915v.94335h-.9411a.83368.83368,0,0,0-.73245.3048c-.1194.1443-2.71875,3.18525-2.79855,3.27315a.19748.19748,0,0,0-.03525.14055v1.47075a1.10449,1.10449,0,0,0,.0213.21315.34589.34589,0,0,0,.20145.1911,2.53264,2.53264,0,0,0,.2577.014h.95295v.90015h-5.0355v-.90015Z"/><path class="cls-3" d="M158.67861,52.12867c.0432-.03885.03735-.03885.03735-.03885a7.313,7.313,0,0,1-.18165-1.3359c-.0762-.48855-.23429-.87885-.86129-.87885h-1.56811l.0798.0813v2.1393l.05865.033h-.90015l.05415-.03885v-5.3634l-.05415-.0447h2.35545a2.62776,2.62776,0,0,1,.734.0915,1.5511,1.5511,0,0,1,.41445,2.795,2.48508,2.48508,0,0,1-.41445.0234c.76965,0,.86715.4512.94185,1.3674a3.29438,3.29438,0,0,0,.25335,1.1052l.10185.0645Zm-.988-4.70865h-1.58565l.0798.0681v1.73655l-.0798.0645H157.673a.98817.98817,0,0,0,1.092-1.03725C158.765,47.78917,158.423,47.42,157.69056,47.42Z"/><path class="cls-4" d="M146.377,125.66977a13.18177,13.18177,0,0,1-26.36354,0v-2.55255a13.18177,13.18177,0,0,1,26.36354,0Z"/><path class="cls-2" d="M133.19481,139.41217a13.75871,13.75871,0,0,1-13.74389-13.7424v-2.55255a13.74427,13.74427,0,0,1,27.48854,0v2.55255A13.759,13.759,0,0,1,133.19481,139.41217Zm0-28.91235a12.63243,12.63243,0,0,0-12.61889,12.6174v2.55255a12.61927,12.61927,0,0,0,25.23854,0v-2.55255A12.63269,12.63269,0,0,0,133.19481,110.49982Z"/><path class="cls-2" d="M88.12447,138.53257h-14.031a2.23662,2.23662,0,0,1-2.2347-2.23245V112.48837a2.23678,2.23678,0,0,1,2.2347-2.2332h14.031a2.236,2.236,0,0,1,2.2338,2.2332v23.81175A2.23585,2.23585,0,0,1,88.12447,138.53257Zm-14.031-27.1524a1.1105,1.1105,0,0,0-1.1097,1.1082v23.81175a1.11044,1.11044,0,0,0,1.1097,1.10745h14.031a1.10967,1.10967,0,0,0,1.1088-1.10745V112.48837a1.10973,1.10973,0,0,0-1.1088-1.1082Z"/><path class="cls-2" d="M77.92042,117.20287h6.37635a1.2378,1.2378,0,0,1,1.2378,1.2378v1.2759a1.23855,1.23855,0,0,1-1.23855,1.23855H77.91967a1.237,1.237,0,0,1-1.237-1.237v-1.2774A1.2378,1.2378,0,0,1,77.92042,117.20287Z"/><path class="cls-2" d="M84.29677,121.51762h-6.3771a1.80213,1.80213,0,0,1-1.79955-1.801v-1.2759a1.802,1.802,0,0,1,1.79955-1.8003h6.3771a1.80223,1.80223,0,0,1,1.8003,1.8003v1.2759A1.80239,1.80239,0,0,1,84.29677,121.51762Zm-6.3771-3.75225a.67531.67531,0,0,0-.67455.6753v1.2759a.676.676,0,0,0,.67455.676h6.3771a.67611.67611,0,0,0,.6753-.676v-1.2759a.67547.67547,0,0,0-.6753-.6753Z"/><path class="cls-2" d="M77.92042,127.83187h6.37635a1.2378,1.2378,0,0,1,1.2378,1.2378v1.27575A1.23855,1.23855,0,0,1,84.296,131.584H77.91967a1.237,1.237,0,0,1-1.237-1.237v-1.27725A1.2378,1.2378,0,0,1,77.92042,127.83187Z"/><path class="cls-2" d="M84.29677,132.14647h-6.3771a1.802,1.802,0,0,1-1.79955-1.80105v-1.27575a1.80188,1.80188,0,0,1,1.79955-1.8003h6.3771a1.80213,1.80213,0,0,1,1.8003,1.8003v1.27575A1.80229,1.80229,0,0,1,84.29677,132.14647Zm-6.3771-3.7521a.67521.67521,0,0,0-.67455.6753v1.27575a.67586.67586,0,0,0,.67455.67605h6.3771a.676.676,0,0,0,.6753-.67605v-1.27575a.67537.67537,0,0,0-.6753-.6753Z"/><rect class="cls-5" x="77.43262" y="117.88852" width="7.3542" height="2.38035"/><path class="cls-2" d="M84.78682,120.83137h-7.3542a.56213.56213,0,0,1-.5625-.5625v-2.38035a.562.562,0,0,1,.5625-.5625h7.3542a.56261.56261,0,0,1,.5625.5625v2.38035A.56271.56271,0,0,1,84.78682,120.83137Zm-6.7917-1.125h6.2292V118.451h-6.2292Z"/><rect class="cls-5" x="77.43262" y="128.51737" width="7.3542" height="2.38035"/><path class="cls-2" d="M84.78682,131.46022h-7.3542a.56213.56213,0,0,1-.5625-.5625v-2.38035a.56213.56213,0,0,1,.5625-.5625h7.3542a.56271.56271,0,0,1,.5625.5625v2.38035A.56271.56271,0,0,1,84.78682,131.46022Zm-6.7917-1.125h6.2292v-1.25535h-6.2292Z"/><path class="cls-2" d="M105.13207,133.24732a8.85353,8.85353,0,1,1,8.85345-8.85345A8.86387,8.86387,0,0,1,105.13207,133.24732Zm0-16.582a7.72853,7.72853,0,1,0,7.72845,7.7286A7.73686,7.73686,0,0,0,105.13207,116.66527Z"/><path class="cls-2" d="M105.13207,131.02072a6.62693,6.62693,0,1,1,6.62685-6.62685A6.63446,6.63446,0,0,1,105.13207,131.02072Zm0-12.12885a5.50193,5.50193,0,1,0,5.50185,5.502A5.50783,5.50783,0,0,0,105.13207,118.89187Z"/><path class="cls-2" d="M106.484,121.62307a3.08317,3.08317,0,1,1-2.7033,0l-.3354-.68775a3.85082,3.85082,0,1,0,3.37425,0Z"/><rect class="cls-2" x="104.71822" y="119.47852" width="0.82981" height="4.7652"/><path class="cls-2" d="M172.952,139.86337a15.46913,15.46913,0,1,1,15.4695-15.4695A15.48806,15.48806,0,0,1,172.952,139.86337Zm0-30.18825a14.71913,14.71913,0,1,0,14.7195,14.71875A14.73686,14.73686,0,0,0,172.952,109.67512Z"/><path class="cls-6" d="M186.77061,124.39387a13.8189,13.8189,0,1,0-13.81859,13.8186,13.81982,13.81982,0,0,0,13.81859-13.8186Z"/><path class="cls-2" d="M172.952,138.775a14.38185,14.38185,0,1,1,14.38109-14.3811A14.39773,14.39773,0,0,1,172.952,138.775Zm0-27.6387a13.25685,13.25685,0,1,0,13.25609,13.2576A13.27226,13.27226,0,0,0,172.952,111.13627Z"/><path class="cls-2" d="M172.952,129.92587a5.53238,5.53238,0,1,1,5.532-5.532A5.53943,5.53943,0,0,1,172.952,129.92587Zm0-9.93975a4.40738,4.40738,0,1,0,4.407,4.40775A4.41331,4.41331,0,0,0,172.952,119.98612Z"/><path class="cls-2" d="M172.952,126.21682a1.82333,1.82333,0,1,1,1.82309-1.82295A1.82627,1.82627,0,0,1,172.952,126.21682Zm0-2.52165a.69833.69833,0,1,0,.69809.6987A.70015.70015,0,0,0,172.952,123.69517Z"/><polygon class="cls-7" points="73.495 81.891 73.291 81.566 73.107 81.204 72.945 80.804 72.81 80.369 72.706 79.898 72.706 42.181 72.81 41.711 72.945 41.273 73.107 40.875 73.291 40.512 73.495 40.187 73.668 39.959 73.668 82.119 73.495 81.891"/><polygon class="cls-7" points="79.795 81.891 79.999 81.566 80.183 81.204 80.345 80.804 80.48 80.369 80.585 79.898 80.585 42.181 80.48 41.711 80.345 41.273 80.183 40.875 79.999 40.512 79.795 40.187 79.621 39.959 79.621 82.119 79.795 81.891"/><polygon class="cls-3" points="77.283 83.337 77.55 83.324 77.814 83.283 78.079 83.215 78.341 83.119 78.599 82.994 78.855 82.839 79.103 82.652 79.345 82.433 79.577 82.179 79.621 82.119 79.621 39.959 79.577 39.898 79.345 39.645 79.103 39.427 78.855 39.239 78.599 39.083 78.341 38.959 78.079 38.864 77.814 38.795 77.55 38.755 77.283 38.741 76.007 38.741 75.74 38.755 75.476 38.795 75.21 38.864 74.949 38.959 74.69 39.083 74.435 39.239 74.186 39.427 73.945 39.645 73.714 39.898 73.668 39.959 73.668 82.119 73.714 82.179 73.945 82.433 74.186 82.652 74.435 82.839 74.69 82.994 74.949 83.119 75.21 83.215 75.476 83.283 75.74 83.324 76.007 83.337 77.283 83.337"/><path class="cls-2" d="M77.28322,83.89972h-1.2759l-.02715-.00075-.2673-.0132a.501.501,0,0,1-.05865-.00585l-.26505-.04095c-.01845-.003-.036-.0066-.05355-.0111l-.26505-.0681a.44629.44629,0,0,1-.0543-.0168l-.26145-.096c-.01755-.0066-.03435-.01395-.0513-.0219l-.25845-.12525c-.0162-.0081-.03225-.0162-.0477-.02565l-.2541-.1545c-.0147-.0096-.03-.01905-.04395-.03015l-.24975-.186c-.0147-.011-.0279-.02265-.0417-.03435l-.241-.219c-.0132-.01245-.0264-.0249-.03885-.03885l-.2307-.2541c-.0102-.01185-.0204-.02355-.03-.03675l-.0462-.05925a.5649.5649,0,0,1-.11565-.342V39.95872a.56283.56283,0,0,1,.1128-.33765l.04545-.06075c.01095-.0147.02265-.0285.03435-.0417l.23145-.25275a.46569.46569,0,0,1,.0381-.03885l.24165-.2175c.01245-.0117.02565-.02265.03885-.03285l.24975-.1875a.467.467,0,0,1,.04395-.0294l.2541-.156c.01695-.0102.03375-.01905.0513-.02775l.2586-.1239c.0168-.008.0336-.0153.0513-.0219l.26145-.0945c.01605-.00585.033-.011.0498-.0153l.26505-.0696a.46552.46552,0,0,1,.0579-.0117l.2652-.04035c.01755-.00225.03585-.00435.05415-.0051l.2673-.01395.0294-.00075h1.2759l.03.00075.2658.01395c.0183.00075.03585.00285.05415.0051l.2652.04035a.49484.49484,0,0,1,.0579.0117l.26505.0696a.37062.37062,0,0,1,.0492.01455l.2622.09525c.0183.0066.03585.014.0534.0219l.25785.1245c.01605.0081.033.017.0483.0264l.2556.156a.48343.48343,0,0,1,.0462.0315l.24825.1875c.0132.0096.02565.02055.0381.0315l.24165.2175c.01245.01185.02565.0243.03735.03735l.2322.2535a.61638.61638,0,0,1,.0396.0483l.04395.06075a.55754.55754,0,0,1,.1083.3318v42.1605a.56093.56093,0,0,1-.1113.33615l-.0447.06c-.01095.0147-.02265.0294-.0351.0432l-.2322.25425c-.0117.01245-.02415.02565-.03735.03735l-.24165.219c-.01245.0117-.0264.02265-.04035.0336l-.24825.18615c-.01545.01095-.03.02115-.0462.0315l-.2556.1545c-.01455.0087-.03.0168-.0453.02415l-.25785.126c-.01695.008-.0345.0153-.0528.0219l-.2622.096a.48706.48706,0,0,1-.0534.0168l-.2652.0681c-.01755.0045-.03585.0081-.0534.0111l-.2652.04095a.51848.51848,0,0,1-.0585.00585l-.266.0132Zm-1.2627-1.125H77.27l.2226-.011.2088-.03225.2109-.0543.20865-.0768.20955-.1011.2094-.1275.2052-.15375.202-.18315.1113-.123V40.16527l-.11055-.12075-.2028-.1839-.20655-.156-.20805-.12675-.2073-.0996-.2109-.0762-.2109-.0549-.2088-.0315-.2241-.0117H76.02187l-.22485.0117-.20865.0315-.2103.0549-.2109.0762-.20805.0996-.20655.12675-.2079.15675-.203.1824-.1113.12225V81.91117l.1128.12375.20145.18315.20655.15375.2079.1275.2103.1011.20865.0768.2103.0543.20865.03225Z"/><path class="cls-2" d="M77.28322,83.89972h-1.2759l-.02715-.00075-.2673-.0132a.501.501,0,0,1-.05865-.00585l-.26505-.04095c-.01845-.003-.036-.0066-.05355-.0111l-.26505-.0681a.44629.44629,0,0,1-.0543-.0168l-.26145-.096c-.01755-.0066-.03435-.01395-.0513-.0219l-.25845-.12525c-.0162-.0081-.03225-.0162-.0477-.02565l-.2541-.1545c-.0147-.0096-.03-.01905-.04395-.03015l-.24975-.186c-.0147-.011-.0279-.02265-.0417-.03435l-.241-.219c-.0132-.01245-.0264-.0249-.03885-.03885l-.2307-.2541c-.01095-.01185-.02115-.0249-.0315-.03735l-.219-.2886c-.0102-.0132-.0198-.02715-.0285-.0411l-.2037-.32445a.5051.5051,0,0,1-.0255-.0447l-.1839-.36255a.43329.43329,0,0,1-.0198-.0432l-.16185-.3999a.43527.43527,0,0,1-.0153-.0447l-.13485-.43575c-.0051-.01455-.00885-.03-.01245-.0447l-.10395-.47085a.56889.56889,0,0,1-.0132-.12165V42.181a.57062.57062,0,0,1,.0132-.1224l.10395-.4695c.0036-.0153.00735-.03.0117-.0438l.13485-.4374c.0051-.0153.0102-.03075.0168-.04605l.1611-.3984c.00585-.014.01245-.02865.0198-.0426l.1839-.36315a.5051.5051,0,0,1,.0255-.0447l.2037-.3252.02775-.04035.219-.28935.033-.03945.23145-.25275a.46569.46569,0,0,1,.0381-.03885l.24165-.2175c.01245-.0117.02565-.02265.03885-.03285l.24975-.1875a.467.467,0,0,1,.04395-.0294l.2541-.156c.01695-.0102.03375-.01905.0513-.02775l.2586-.1239c.0168-.008.0336-.0153.0513-.0219l.26145-.0945c.01605-.00585.033-.011.0498-.0153l.26505-.0696a.46552.46552,0,0,1,.0579-.0117l.2652-.04035c.01755-.00225.03585-.00435.05415-.0051l.2673-.01395.0294-.00075h1.2759l.03.00075.2658.01395c.0183.00075.03585.00285.05415.0051l.2652.04035a.49484.49484,0,0,1,.0579.0117l.26505.0696a.37062.37062,0,0,1,.0492.01455l.2622.09525c.0183.0066.03585.014.0534.0219l.25785.1245c.01605.0081.033.017.0483.0264l.2556.156a.48343.48343,0,0,1,.0462.0315l.24825.1875c.0132.0096.02565.02055.0381.0315l.24165.2175c.01245.01185.02565.0243.03735.03735l.2322.2535c.0117.0132.0234.02715.0345.0417l.21825.28935c.00945.01245.0183.02565.027.03885l.2037.3252c.0087.0138.0168.0285.0249.0432l.18525.3633c.00735.01455.01395.02925.0198.044l.16185.3984c.00585.0153.0117.03075.0162.04605l.1347.4374c.00435.0138.0081.0285.0117.0438l.10395.4695a.52749.52749,0,0,1,.01395.1224V79.89772a.52578.52578,0,0,1-.01395.12165l-.10395.47085c-.0036.0147-.00735.03015-.0117.0447l-.1347.43575c-.00525.01545-.01035.03015-.0162.0447l-.16185.3999a.46432.46432,0,0,1-.02055.0447l-.18525.36255c-.00735.0147-.01545.02865-.02415.0432l-.2037.32445c-.0087.014-.0183.02715-.02775.0396l-.21825.2886c-.01035.01395-.0213.027-.033.0402l-.2322.25425c-.0117.01245-.02415.02565-.03735.03735l-.24165.219c-.01245.0117-.0264.02265-.04035.0336l-.24825.18615c-.01545.01095-.03.02115-.0462.0315l-.2556.1545c-.01455.0087-.03.0168-.0453.02415l-.25785.126c-.01695.008-.0345.0153-.0528.0219l-.2622.096a.48706.48706,0,0,1-.0534.0168l-.2652.0681c-.01755.0045-.03585.0081-.0534.0111l-.2652.04095a.51848.51848,0,0,1-.0585.00585l-.266.0132Zm-1.2627-1.125H77.27l.2226-.011.2088-.03225.2109-.0543.20865-.0768.20955-.1011.2094-.1275.2052-.15375.202-.18315.19635-.216.18825-.24765.17715-.28335.1626-.31785.14355-.3546.1209-.39105.0864-.3882V42.24247L79.936,41.855l-.1209-.39255-.14355-.3531-.1626-.31935-.1779-.28335-.1875-.249-.1956-.21315-.2028-.1839-.20655-.156-.20805-.12675-.2073-.0996-.2109-.0762-.2109-.0549-.2088-.0315-.2241-.0117H76.02187l-.22485.0117-.20865.0315-.2103.0549-.2109.0762-.20805.0996-.20655.12675-.2079.15675-.203.1824-.19485.2139-.18885.24975-.1773.28185-.1611.31935-.1443.35385-.1209.39255-.08565.38745V79.83622l.08565.3882.1209.39105.1443.3552.1611.318.1773.28185.18885.2484.19635.216.20145.18315.20655.15375.2079.1275.2103.1011.20865.0768.2103.0543.20865.03225Z"/><polygon class="cls-7" points="192.895 81.891 193.097 81.566 193.283 81.204 193.445 80.804 193.579 80.369 193.683 79.898 193.683 42.181 193.579 41.711 193.445 41.273 193.283 40.875 193.097 40.512 192.895 40.187 192.722 39.959 192.722 82.119 192.895 81.891"/><polygon class="cls-7" points="186.593 81.891 186.391 81.566 186.206 81.204 186.044 80.804 185.909 80.369 185.805 79.898 185.805 42.181 185.909 41.711 186.044 41.273 186.206 40.875 186.391 40.512 186.593 40.187 186.769 39.959 186.769 82.119 186.593 81.891"/><polygon class="cls-3" points="189.106 83.337 188.84 83.324 188.574 83.283 188.31 83.215 188.048 83.119 187.789 82.994 187.535 82.839 187.285 82.652 187.045 82.433 186.812 82.179 186.769 82.119 186.769 39.959 186.812 39.898 187.045 39.645 187.285 39.427 187.535 39.239 187.789 39.083 188.048 38.959 188.31 38.864 188.574 38.795 188.84 38.755 189.106 38.741 190.382 38.741 190.648 38.755 190.914 38.795 191.178 38.864 191.441 38.959 191.699 39.083 191.954 39.239 192.203 39.427 192.443 39.645 192.676 39.898 192.722 39.959 192.722 82.119 192.676 82.179 192.443 82.433 192.203 82.652 191.954 82.839 191.699 82.994 191.441 83.119 191.178 83.215 190.914 83.283 190.648 83.324 190.382 83.337 189.106 83.337"/><path class="cls-2" d="M190.38231,83.89972h-1.2759l-.02789-.00075-.26581-.0132a.51764.51764,0,0,1-.05865-.00585l-.2658-.04095c-.0183-.003-.0366-.0066-.0543-.0111l-.26355-.0681a.435.435,0,0,1-.05355-.0168l-.2622-.096c-.01755-.0066-.0351-.01395-.05205-.0219l-.2592-.12525c-.0162-.0081-.0315-.0162-.04695-.02565l-.2541-.1545a.45441.45441,0,0,1-.04395-.03015l-.24975-.186a.47928.47928,0,0,1-.04245-.0351l-.2403-.21975a.41423.41423,0,0,1-.0366-.03585l-.2322-.25425c-.01245-.0138-.02415-.0285-.03585-.0432l-.04395-.06a.56191.56191,0,0,1-.11129-.33615V39.95872a.55667.55667,0,0,1,.10844-.3318l.0438-.06075a.61638.61638,0,0,1,.0396-.0483l.2322-.2535c.0117-.01245.02415-.0249.0366-.0366l.2403-.2175c.0132-.0117.02625-.02265.0402-.0336l.24975-.1875a.467.467,0,0,1,.04395-.0294l.25425-.156a.526.526,0,0,1,.05055-.02775l.2592-.1239c.0168-.008.0345-.0153.05205-.0219l.2622-.09525c.01605-.00585.03225-.0102.0483-.01455l.2637-.0696a.52323.52323,0,0,1,.05925-.0117l.2667-.04035c.01755-.00225.0351-.00435.0534-.0051l.266-.01395.03-.00075h1.2759l.03.00075.2658.01395c.01755.00075.036.00285.05355.0051l.2658.04035a.51927.51927,0,0,1,.0594.0117l.2637.0696c.0168.00435.03285.0087.049.01455l.2622.09525c.01755.0066.0351.014.0519.0219l.2586.1239c.01755.0087.0345.01755.0513.02775l.2541.156a.44828.44828,0,0,1,.04395.0294l.24975.1875c.01395.011.02715.0219.03961.0336l.24014.2175a.44568.44568,0,0,1,.03675.0366l.232.2535c.01245.0132.0243.02775.036.04245l.0453.06075a.56185.56185,0,0,1,.1128.33765v42.1605a.5649.5649,0,0,1-.11565.342l-.0462.05925a.36863.36863,0,0,1-.0315.0381l-.23145.25425c-.0117.01245-.02415.0249-.0366.03585l-.24014.21975c-.014.01245-.02791.02415-.04261.0351l-.24975.186c-.0138.0111-.02925.02055-.04395.03015l-.2541.1545c-.0153.00945-.0315.01755-.04755.02565l-.2586.12525c-.01755.008-.03435.0153-.05205.0219l-.26295.096a.39209.39209,0,0,1-.05265.0168l-.2637.0681c-.01755.0045-.03585.0081-.0549.0111l-.266.04095a.49843.49843,0,0,1-.0585.00585l-.266.0132Zm-1.2627-1.125h1.2495l.2226-.011.20955-.03225.2094-.0543.21015-.0768.20955-.1011.208-.1275.20655-.15375.2007-.18315.1134-.12375V40.16677l-.1128-.123-.2013-.18315-.208-.156-.20655-.12675-.20805-.0996-.21165-.0762-.2094-.0549-.20955-.0315-.2241-.0117H189.121l-.2241.0117-.2094.0315-.20955.0549-.21239.0762-.20731.0996-.20715.12675-.2073.156-.2022.18315-.11054.1215V81.91192l.112.123.2007.18315.2058.15375.20865.1275.20955.1011.21015.0768.20955.0543.2094.03225Z"/><path class="cls-2" d="M190.38231,83.89972h-1.2759l-.02789-.00075-.26581-.0132a.51764.51764,0,0,1-.05865-.00585l-.2658-.04095c-.0183-.003-.0366-.0066-.0543-.0111l-.26355-.0681a.435.435,0,0,1-.05355-.0168l-.2622-.096c-.01755-.0066-.0351-.01395-.05205-.0219l-.2592-.12525c-.0162-.0081-.0315-.0162-.04695-.02565l-.2541-.1545a.45441.45441,0,0,1-.04395-.03015l-.24975-.186a.47928.47928,0,0,1-.04245-.0351l-.2403-.21975a.41423.41423,0,0,1-.0366-.03585l-.2322-.25425c-.011-.0132-.0219-.02565-.03225-.0387l-.219-.2886c-.0102-.01395-.0204-.0279-.02925-.04245l-.2028-.3246c-.00885-.0138-.0162-.02775-.02355-.0417L185.705,81.46a.462.462,0,0,1-.02056-.0447l-.16185-.3999c-.00585-.01455-.01095-.02925-.016-.0447l-.13485-.43575c-.00435-.01455-.00795-.03-.01169-.0447l-.104-.47085a.52578.52578,0,0,1-.01395-.12165V42.181a.52749.52749,0,0,1,.01395-.1224l.104-.4695c.00374-.0153.00734-.03.01169-.0438l.13485-.4374c.00435-.0153.0102-.03075.016-.04605l.16185-.3984c.00585-.0147.01245-.0294.0198-.044l.18526-.3633c.00734-.01395.01544-.02865.02429-.04245l.2028-.3246c.00885-.0138.0183-.02775.02865-.0417l.219-.28935c.011-.0138.0219-.027.0336-.0402l.2322-.2535c.0117-.01245.02415-.0249.0366-.0366l.2403-.2175c.0132-.0117.02625-.02265.0402-.0336l.24975-.1875a.467.467,0,0,1,.04395-.0294l.25425-.156a.526.526,0,0,1,.05055-.02775l.2592-.1239c.0168-.008.0345-.0153.05205-.0219l.2622-.09525c.01605-.00585.03225-.0102.0483-.01455l.2637-.0696a.52323.52323,0,0,1,.05925-.0117l.2667-.04035c.01755-.00225.0351-.00435.0534-.0051l.266-.01395.03-.00075h1.2759l.03.00075.2658.01395c.01755.00075.036.00285.05355.0051l.2658.04035a.51927.51927,0,0,1,.0594.0117l.2637.0696c.0168.00435.03285.0087.049.01455l.2622.09525c.01755.0066.0351.014.0519.0219l.2586.1239c.01755.0087.0345.01755.0513.02775l.2541.156a.44828.44828,0,0,1,.04395.0294l.24975.1875c.01395.011.02715.0219.03961.0336l.24014.2175a.44568.44568,0,0,1,.03675.0366l.232.2535c.01245.0132.02356.0264.0345.0402l.219.28935c.0102.014.0198.0279.0285.0417l.20295.3246c.00811.0138.01605.0285.0234.04245l.18525.3633c.00735.01455.014.02925.02055.044l.1611.3984c.0066.0153.0117.03075.01695.04605l.1347.4374c.00435.0138.0081.0285.0117.0438l.1041.4695a.58015.58015,0,0,1,.013.1224V79.89772a.57842.57842,0,0,1-.013.12165l-.1041.47085c-.0036.0147-.00735.03015-.01245.0447l-.1347.43575c-.0045.01545-.0096.03015-.01545.0447l-.16185.3999a.46432.46432,0,0,1-.02055.0447l-.18525.36255-.0234.0417-.20295.3246c-.00944.01455-.019.0285-.02925.04245l-.219.2886c-.01019.01305-.0213.0255-.033.0387l-.23145.25425c-.0117.01245-.02415.0249-.0366.03585l-.24014.21975c-.014.01245-.02791.02415-.04261.0351l-.24975.186c-.0138.0111-.02925.02055-.04395.03015l-.2541.1545c-.0153.00945-.0315.01755-.04755.02565l-.2586.12525c-.01755.008-.03435.0153-.05205.0219l-.26295.096a.39209.39209,0,0,1-.05265.0168l-.2637.0681c-.01755.0045-.03585.0081-.0549.0111l-.266.04095a.49843.49843,0,0,1-.0585.00585l-.266.0132Zm-1.2627-1.125h1.2495l.2226-.011.20955-.03225.2094-.0543.21015-.0768.20955-.1011.208-.1275.20655-.15375.2007-.18315.1977-.216.18825-.24765.1758-.2826.1632-.3186.1437-.3546.12075-.39105.08565-.3882V42.24247l-.08565-.38745-.12075-.39255-.1437-.3531-.1632-.3201-.17655-.2826-.1875-.2484-.1971-.2145-.2013-.18315-.208-.156-.20655-.12675-.20805-.0996-.21165-.0762-.2094-.0549-.20955-.0315-.2241-.0117H189.121l-.2241.0117-.2094.0315-.20955.0549-.21239.0762-.20731.0996-.20715.12675-.2073.156-.2022.18315-.1962.2145-.18825.2484-.1758.2826-.16335.3201-.14355.3531-.12089.39255-.08641.38745V79.83622l.08641.3882.12089.39105.14355.3546.1626.3186.17655.2826.18825.24765.1977.216.2007.18315.2058.15375.20865.1275.20955.1011.21015.0768.20955.0543.2094.03225Z"/><path class="cls-7" d="M196.55,145.55272H69.841a5.00751,5.00751,0,0,1-5.0016-5.00235V13.84132A5.0061,5.0061,0,0,1,69.841,8.84107H196.55a5.00674,5.00674,0,0,1,5.00234,5.00025V140.55037A5.00815,5.00815,0,0,1,196.55,145.55272ZM69.841,10.34107a3.50459,3.50459,0,0,0-3.5016,3.50025V140.55037a3.5059,3.5059,0,0,0,3.5016,3.50235H196.55a3.50606,3.50606,0,0,0,3.50234-3.50235V13.84132A3.50475,3.50475,0,0,0,196.55,10.34107Z"/><rect class="cls-1" x="6.61833" y="174.03908" width="139.66724" height="92.46382" rx="17.67144"/><path class="cls-8" d="M128.61407,267.0028H24.28985A18.19223,18.19223,0,0,1,6.11846,248.83141V191.71032a18.19224,18.19224,0,0,1,18.17139-18.17139H128.61407a18.19223,18.19223,0,0,1,18.17138,18.17139v57.12109A18.19222,18.19222,0,0,1,128.61407,267.0028ZM24.28985,174.53893A17.19094,17.19094,0,0,0,7.11846,191.71032v57.12109A17.19093,17.19093,0,0,0,24.28985,266.0028H128.61407a17.19092,17.19092,0,0,0,17.17138-17.17139V191.71032a17.19093,17.19093,0,0,0-17.17138-17.17139Z"/><path class="cls-2" d="M77.2793,241.55389a21.42142,21.42142,0,1,1,21.42118-21.42117A21.44578,21.44578,0,0,1,77.2793,241.55389Zm0-39.20629a17.78488,17.78488,0,1,0,17.78464,17.78512A17.804,17.804,0,0,0,77.2793,202.3476Z"/><path class="cls-2" d="M81.64948,211.17616a9.96631,9.96631,0,1,1-8.73839,0L71.82691,208.953a12.4477,12.4477,0,1,0,10.90721,0Z"/><rect class="cls-2" x="75.94154" y="204.24394" width="2.68234" height="15.40342"/><rect class="cls-1" x="97.88076" y="173.75215" width="13.74503" height="6.31828"/><polyline class="cls-1" points="111.457 174.007 104.63 133.228 97.802 174.007"/><path class="cls-8" d="M111.45635,174.5072a.5002.5002,0,0,1-.49267-.41748l-6.334-37.833-6.334,37.833a.5.5,0,0,1-.98633-.165l6.82715-40.77881a.5.5,0,0,1,.98633,0L111.95,173.92468a.49994.49994,0,0,1-.41065.57568A.48023.48023,0,0,1,111.45635,174.5072Z"/><rect class="cls-9" width="208.17069" height="275.34398"/></g></g></svg>