<svg xmlns="http://www.w3.org/2000/svg" viewBox="-46.05144 0 555 313.91874"><defs><style>.cls-1{fill:#fff;}.cls-2{fill:#9e9e9f;}.cls-3{fill:#231815;}.cls-4{fill:#b4b4b5;}.cls-5{fill:#c8c9ca;}.cls-6{fill:#8a9593;}.cls-7{fill:gray;}.cls-8{fill:#bfd833;}.cls-9{fill:none;}</style></defs><title>アセット 1501</title><g id="レイヤー_2" data-name="レイヤー 2"><g id="レイヤー_2-2" data-name="レイヤー 2"><path class="cls-1" d="M355.45727,303.656l3.08145-.04783,3.11891-.14831,3.10936-.24551,3.10209-.34426,3.08945-.44156,3.07508-.54367,3.05434-.63679,2.48522-.59459.059-.01837.08685-.02873.11075-.04138.12594-.051.14667-.06064.169-.07012.192.04147,2.80966-.78591,2.91723-.907,2.8854-.9995,2.85347-1.09043,2.81758-1.17646,2.78255-1.26412,2.871-1.41641.52766.51575a1.1565,1.1565,0,1,0,2.04284-1.0848l-.13312-.72772,2.78093-1.58618,2.60161-1.59892,2.54822-1.681,2.502-1.75432,2.44458-1.8348,2.37764-1.909,2.22779-1.89217.00482-.004.02391-.02391.02547-.02237.02554-.0271.02392-.02709.02546-.03184.0271-.03827.02555-.03828.02628-.043.02628-.04783.02555-.05419.02073-.06138.01273-.06693.008-.07256v-.07255l-.008-.0733-.01436-.07411-.0271-.07337-.02073-.03983,1.00269-.88639.28215-.25179.26943-.24714.28216-.24233.27815-.23433.26543-.22951.26942-.22.26461-.21367.24869-.204.2527-.19523.23752-.18577.2264-.17532.22078-.16421.57068-.43038.30444-.2296.12275-.09565.10766-.086.09239-.07338.07093-.06056.04464-.04464,1.71694-1.8157,2.08349-2.325,2.00457-2.38964,1.93208-2.45331,1.85-2.51476,1.7695-2.57051,1.68976-2.62471,1.60373-2.67816,1.51754-2.72747,1.43-2.77382,1.34223-2.81757,1.25138-2.86148L447.317,240.422l1.06807-2.93323.97559-2.96506.87993-2.99615.78273-3.0217.6887-3.04317.58978-3.06545.4942-3.08307.39455-3.09573.15222-1.46188.00318-.02228.00955-.18569.00164-.208-.00636-.2407-.01438-.26787-.02072-.29489-.0271-.32044-.03347-.34908-.03828-.37463-.08447-.81856-.0462-.44083-.04628-.45747-.04464-.47666-.04465-.49575-.03983-.49739-.03827-.51011-.03428-.52131-.02784-.53362-.02391-.53-.01919-.53444-.0111-.54831-.00718-.53885v-.5404l.00718-.54995.0111-.53967.01919-.53321.02391-.54122.02784-.52481.03428-.5173.03827-.52089.03983-.49862.04465-.48857.04464-.47265.04628-.46066.13067-1.26142.03828-.37382.03347-.34631.0271-.324.02072-.29807.01438-.2642.00636-.24037-.00164-.21115-.00955-.18258-.00318-.02146-.15222-1.463-.39455-3.09581-.4942-3.08259-.58978-3.06357-.6887-3.04595-.78273-3.02047-.87993-2.99534-.97241-2.96506-1.07043-2.9324-1.159-2.89928-1.25212-2.8587-1.33986-2.8188-1.43233-2.77374-1.51763-2.72755-1.60528-2.67653-1.68576-2.62511-1.77187-2.57337-1.85079-2.51068-1.92972-2.45461-2.0062-2.39-2.08349-2.327-2.1505-2.25726-2.23015-2.1891-2.286-2.119-2.36246-2.04284-2.42148-1.968-2.48366-1.88981-2.54742-1.80933-2.5976-1.72763-2.65181-1.64634-2.70444-1.561-2.75146-1.47053-2.79529-1.387-2.84312-1.29676-2.87813-1.20478-2.91568-1.11271-2.95-1.01983-2.981-.925-3.00889-.831-3.03361-.73563-3.05435-.63925-3.07508-.54121-3.08863-.44238-3.10291-.34549-3.11017-.24437-3.1181-.14781-3.08463-.04864h-247.587l-3.08145.04864-3.11768.14781-3.11091.24355-3.10381.34631-3.089.44156-3.07385.542-3.05509.63843-3.03247.73571-3.01084.83015-2.98024.92572-2.94955,1.01983-2.91445,1.11353-2.88132,1.204-2.83953,1.296-2.7961,1.38492-2.7535,1.4733-2.70159,1.561-2.653,1.64356-2.59965,1.72885-2.54341,1.81089-2.4844,1.88989-2.42352,1.9671-2.35928,2.04366-2.29431,2.11662-2.22338,2.1887-2.15491,2.2593-2.08031,2.3254-2.0066,2.39-1.93127,2.4538L27.776,148.25855l-1.77187,2.57174L24.31673,153.457,22.7134,156.1343l-1.52,2.72755-1.42752,2.773-1.34663,2.8188L17.169,167.31228,16.00734,170.21l-1.06285,2.93477-.97959,2.96432-.87716,2.99412-.78517,3.02088L11.61231,185.17l-.58618,3.06431-.49062,3.08144-.39609,3.09581-.30052,3.10773-.19605,3.11932L9.54,203.75v3.12323l.10284,3.12332.19605,3.11335.30052,3.10455.39609,3.09736.49062,3.083.58618,3.06471.68952,3.04317.7851,3.02251.878,2.99534.97959,2.96587,1.06285,2.93233,1.15972,2.89658,1.25057,2.86066,1.3459,2.81758,1.42792,2.77374,1.5204,2.72754,1.60243,2.67972,1.689,2.62315,1.7691,2.573,1.85,2.51232,1.93242,2.45412,2.00382,2.39038,2.08235,2.32426.38059.4081.04187.04538.07052.06382.08807.07493.108.086.12357.10047.14226.11321.72176.569.216.1674.226.18177.2371.19123.24388.20087.13589.114-.141,1.63238-.0036.07248.00441.07256.01078.06619.01632.06138.0191.05419.02073.04857.02228.04383.02392.04072.02513.03665.02474.03183.02432.03192.0235.02628.02629.02636.02513.0271.02588.02546,2.12772,2.007,2.31986,2.05958,2.37928,1.98473,2.44376,1.91135,2.49917,1.83162,2.55615,1.75513L55.45945,289.89l1.47062.895-.15826.7198a1.15791,1.15791,0,0,0,2.00546,1.15809l.54676-.49739,1.50441.82656,2.755,1.42278,2.79773,1.335,2.83872,1.249,2.87258,1.16054,2.91249,1.06889,1.54946.52521.00677.00319.01.01118.01241.01192.01232.01518.01436.0191.01274.02073.01118.02554.00677.03028.00359.02865v.03428l-.00081.01837a1.15725,1.15725,0,0,0,2.18233.6918l.008-.0151.01869-.0271.02155-.0231.02309-.01918.02318-.01428.02588-.012.02114-.00718.01869-.00473.01714-.00082.012-.004h.00792l1.73041.5093.03591.00955.0351.00882.035.00955.03428.008.0391.00555.04179.00318.04391.004.04774.00081.04751-.00081.05337-.00718.055-.00874.06056-.01836.06456-.0231.06456-.03191.06219-.03747,1.34459-.94131.16577.06056.295.11084.28453.10839.2682.10439.25506.10039.66593.26943.35431.14267.15066.05664.12953.04938.10758.03828.0897.02791.061.01829.58863.13475,3.05549.63679,3.07353.54367,3.09018.44156,3.10332.34426,3.11213.24551,3.11573.14831,3.085.04783h22.5373l.06815-.00164.12635-.00636.15059-.01274.16862-.02073.192-.02073.21009-.0271.73726-.098.28053-.03591.29774-.0382.31326-.03355.32876-.03664.33953-.03428.35195-.0311.363-.02865.37022-.02628.373-.02.375-.01746.37422-.012.37023-.00873.36149-.00082h28.2299l.369.00082.37349.00873.375.012.377.01746.37226.02.369.02628.36068.02865.35031.0311.34435.03591.328.035.3144.03355.2953.03983.27783.03428.732.09566.20927.02946.19287.02073.17221.02073.14978.01274.12675.00636.069.00164h17.30381l.07133-.00164.12676-.00636.149-.01274.16855-.02073.18894-.02073.21156-.0271.7389-.098.28175-.03591.29848-.0382.31211-.03355.32835-.03664.34117-.03428.35186-.0311.36108-.02865.37063-.02628.37423-.02.37463-.01746.37577-.012.37072-.00873.361-.00082h74.50651l.3686.00082.37267.00873.3774.012.37423.01746.37422.02.36818.02628.35791.02865.35308.0311.34476.03591.32917.035.31088.03355.29808.03983.277.03428.73049.09566.21.02946.19368.02073.1714.02073.14986.01274.12789.00636.06774.00164h17.307l.06733-.00164.12913-.00636.14625-.01274.17181-.02073.18928-.02073.20845-.0271.74127-.098.28019-.03591.29848-.0382.314-.03355.32485-.03664.3419-.03428.35194-.0311.36263-.02865.3695-.02628.37618-.02.37381-.01746.375-.012.36982-.00873.36149-.00082H326.7619l.3694.00082.37064.00873.37708.012.37536.01746.37382.02.36908.02628.36109.02865.35226.0311.34272.03591.32917.035.31325.03355.29334.03983.27734.03428.73335.09566.20878.02946.19213.02073.1714.02073.153.01274.12749.00636.06856.00164Z"/><path class="cls-2" d="M79.08041,300.85907a.311.311,0,0,1-.09247-.01436l-2.52595-.79946a.306.306,0,0,1,.185-.58341l2.52587.79946a.306.306,0,0,1-.0924.59777Z"/><path class="cls-2" d="M59.37782,292.37037a.30013.30013,0,0,1-.30607-.29889l.05542-.00237.06211-.20568-.19564.23515L57.146,291.03214l-.01273-.3268-.043.15458.04938.09248a.32644.32644,0,0,1-.08366.0311l-.00481.01673-.00278-.01592a.30494.30494,0,0,1-.20919-.56513l.01029-.00555a.3007.3007,0,0,1,.09051-.03191.50839.50839,0,0,1,.116-.00637c.01.00155.08848.01592.09844.01828l.0737.02074.1283.04309,2.02856,1.17083c.00833.00718.116.0981.12357.106.00955.00955.08089.08611.08921.09729a.62082.62082,0,0,1,.05461.08847.41739.41739,0,0,1,.0315.137A.31235.31235,0,0,1,59.37782,292.37037Z"/><path class="cls-2" d="M215.33794,157.08206a.30043.30043,0,0,1-.10479-.01877l-.75523-.29889-.74844-.40491-.70144-.4942-.6336-.573-.54563-.62569-.44474-.65483-.338-.66675-.304-.84043-.21718-.94694-.11721-1.0222-.01673-.53012V139.31555a.30613.30613,0,0,1,.30248-.30607l3.20893-.03664a.28589.28589,0,0,1,.21882.08847.30567.30567,0,0,1,.09085.2176v3.97566h3.24525a.30618.30618,0,0,1,.30607.30607v3.17915a.30618.30618,0,0,1-.30607.30607H214.232l.10243,3.87413.23678.75873.35185.57035.54677.57509.50816.38932.6763.40132.424.21a.30615.30615,0,0,1,.12675.4316l-1.60447,2.67694A.30645.30645,0,0,1,215.33794,157.08206Zm-4.31487-17.464.01551,10.88309.10921.95249.20127.8779.279.77162.3033.59892.40287.59182.49616.56913.58031.5253.64243.45193.68348.36981.46865.192,1.30444-2.17637-.53126-.28893-.64561-.434-.50261-.44-.39569-.44629-.41568-.67434-.23515-.67833-.1514-1.11786-.01241-1.26615v-2.14005a.30613.30613,0,0,1,.30607-.30608h3.24526v-2.567h-3.24526a.30612.30612,0,0,1-.30607-.30607v-3.97215Z"/><path class="cls-2" d="M236.34489,141.6772l-.014-.00041-.56194-.07052-.57109-.21759-.48458-.33758-.3814-.44752-.26779-.53762-.12553-.57264-.008-.185.07174-.59623.21842-.577.34549-.49421.45633-.39013.54277-.2682.58267-.12635.18169-.00955.58186.07174.56872.22233.48866.34158.38295.45347.27016.55322.12994.60014.00841.19613-.06816.56546-.21963.56236-.33954.48261-.4467.37781-.54726.26706-.59018.12667-.19009.00955Zm-.01518-4.21921-.5675.10365-.536.29285-.38418.43242-.20209.42287-.09762.59778.1008.56072.2882.52212.42523.38214.412.19653.57549.09558.45274-.05779.55754-.24665.42606-.39259.27774-.52521.09093-.558-.059-.4436-.25106-.57183-.39936-.434-.53363-.28052Z"/><path class="cls-2" d="M237.93581,156.65364h-3.18029a.30618.30618,0,0,1-.30607-.30607V143.56064a.30618.30618,0,0,1,.30607-.30607h3.18029a.30613.30613,0,0,1,.30607.30607v12.78693A.30613.30613,0,0,1,237.93581,156.65364Zm-2.87422-.61214h2.56815V143.86671h-2.56815Z"/><path class="cls-2" d="M225.65394,156.98159h-.01037l-.87283-.0542-.87757-.1554-.83406-.25669-.78036-.34868-.73686-.44-.67352-.52489-.605-.60014-.52767-.67475-.44237-.73285-.34795-.774-.25579-.82933-.16022-.86834-.05264-.88435.0506-.88475.15908-.87242.253-.82656.34671-.77554.4392-.73164.52489-.67352.60373-.60381.67157-.526.73849-.44433.77872-.35.83088-.25824.87961-.1594.89145-.05338.89234.05142.87838.157.83129.2562.78191.34876.73653.44156.67434.52407.605.60219.52726.67311.442.72967.34908.77555.25669.82819.15777.86875.05623.88475-.05386.88671-.15622.86883-.25343.82738-.34753.77627-.44156.73335-.52408.67426-.60341.60259-.6727.52644-.73727.4436-.77954.35031-.83129.25784-.87716.15826-.89112.05615Zm-.00922-13.69111-.82011.04906-.80509.14585-.762.2371-.71017.31922-.67507.40613-.61377.48057-.55036.55077-.479.615-.40091.6687-.316.7078-.23115.75482-.14585.79946-.04628.813.04824.8126.14708.79546.2331.75677.3188.70862.403.66715.4822.61729.55158.54677.61574.47983.67352.40173.71294.31881.76159.234.80623.14267.811.04979.82933-.05183.80542-.145.75963-.236.71253-.32.6723-.40483.61532-.48147.55044-.54995.47821-.61532.403-.66953.31758-.709.23155-.756.14308-.79782.049-.813-.05142-.81138-.14511-.7979-.23392-.75522-.31963-.70936-.40409-.66633-.48066-.61419-.5519-.54872-.61574-.479-.67311-.40377-.71384-.31758-.76273-.23515-.80305-.14348Zm.02,10.67341-.56872-.039-.56635-.12275-.53681-.20127-.50531-.27539-.46629-.35031-.41568-.41682-.35308-.47152-.28339-.51926-.20559-.552-.12717-.58259-.043-.59305.03983-.59182.12471-.58545.20209-.554.2802-.51812.35186-.47584.63647-.60137.489-.318.51893-.24037.55354-.165.85047-.09566a.14958.14958,0,0,1,.0271,0l.82851.09084.55518.16226.52048.23833.485.31162.44278.38336.38818.44719.3184.49731.24469.53689.16863.5679.08488.59256.01151.2957-.0422.595-.12316.58268-.20282.55117-.279.51926-.35349.47625-.4125.41846-.46825.35349-.501.27824-.536.20323-.564.12553Zm-.01036-7.65734-.73572.08129-.6887.23352-.63042.37781-.544.51494-.42686.62169-.2833.69784-.13231.75481-.00759.25147.0817.758.23907.71694.38458.646.51371.55436.607.42328.67107.277.723.12872.23914.00751.72331-.08089.68821-.23351.63051-.37945.54521-.51485.426-.62129.28543-.69865.13271-.75327.00832-.25147-.08325-.76077-.24037-.71735-.38336-.64683-.51249-.546-.609-.42605-.67237-.27856-.72094-.12676Z"/><path class="cls-2" d="M247.03707,156.98159h-.01037l-.87357-.0542-.87716-.1554-.83414-.25669-.7811-.34868-.7349-.44082-.67433-.5244-.60374-.60023-.52889-.67434-.44278-.73171-.35031-.77473-.25506-.8277-.159-.86843-.055-.88515.05265-.88631.15744-.86916.25261-.82737.34876-.77677.44033-.73212.52685-.67425.6026-.60341.67393-.52726.73408-.44311.77913-.35.831-.25824.87952-.1594.89234-.05338.89153.05142.87871.157.83251.2562.78159.34876.73726.44156.67352.52407.60415.60219.52766.67311.4432.73049.34867.77709.25784.825.15785.87.053.886-.051.88394-.15541.87-.25628.82811-.3459.77554-.44238.73335-.52521.67311-.60219.6026-.67238.52726-.73522.44351-.78159.35072-.83251.25824-.87757.15786-.8903.05615Zm-.00915-13.69111-.821.04906-.8046.14585-.76281.2371-.711.31922-.66994.40532-.61491.48065-.55036.55109-.48106.61541-.40247.66993-.31807.70853-.23033.75441-.14471.79946-.04783.8126.05028.811.14627.79824.2331.75644.31921.70576.40491.66838.483.61606.55118.54759.61573.47943.67156.40254.71294.31807.76282.23474.80542.14226.81178.04979.82851-.05183.80623-.145.76045-.236.71416-.32035.67108-.40492.61418-.48188.54954-.55035.47984-.61451.40369-.66952.3157-.7078.23433-.758.14185-.79668.04661-.81138-.04856-.81341-.14431-.7975-.23637-.75359-.318-.709-.40533-.66829-.48139-.61419-.55117-.54913-.61573-.479-.67312-.403-.71335-.318-.76362-.23515-.8042-.14348Zm.01992,10.67341-.56831-.039-.56636-.12275-.53754-.20127-.505-.27579-.46588-.34868-.41642-.41765-.35512-.47388-.28175-.51452-.2065-.554-.12586-.585-.045-.59018.0426-.595.12235-.58308.2025-.55436.28093-.51844.35268-.47625.41446-.41691.46392-.3539.5053-.27816.53249-.20241.56749-.124.56473-.04424a.14947.14947,0,0,1,.02709,0l.827.09084.55632.16226.51893.23751.48735.312.44123.381.3885.44956.3193.49657.24469.5364.16814.56994.08448.595.01077.29366-.039.59141-.12479.58505-.20282.55321-.2802.51885-.34909.47266-.41683.42164-.46792.35309-.50294.27816-.53321.2029-.56513.12553Zm-.01037-7.65734-.73571.08129-.68821.23352-.62928.37781-.54685.51534-.42679.6217-.28452.69784-.132.75636-.00873.25074.08366.7584.23914.71776.38377.64561.51535.55272.60773.42328.67034.27619.7229.12913.23955.00751.72176-.08089.68739-.2331.63492-.38018.5448-.51494.426-.6221.28379-.697.13108-.75081.00759-.25351-.08088-.76-.24-.71817-.38573-.64879-.32876-.381-.58146-.46588-.65083-.32566-.71017-.1785Z"/><path class="cls-2" d="M380.27142,300.68931a.30628.30628,0,0,1-.11957-.58823l4.63728-1.76787,2.88734-.96131,2.85071-1.05207,2.81757-1.13981,2.78215-1.22347,2.74-1.31276,2.70045-1.39487,2.65417-1.48016,2.608-1.56145,2.55778-1.63875,2.506-1.71767,2.45615-1.79579,2.39356-1.86989,2.32941-1.94563,2.27921-2.01575a.30635.30635,0,0,1,.40573.45911l-2.286,2.02137-2.34378,1.95756-2.40915,1.88189-2.47167,1.80688-2.52145,1.728-2.5737,1.64911-2.624,1.571-2.671,1.4889-2.71717,1.40368-2.757,1.32068-2.7997,1.23147-2.83471,1.147L387.8793,297.949l-6.64665,2.35928-.84174.35708A.31676.31676,0,0,1,380.27142,300.68931Z"/><path class="cls-2" d="M107.87023,268.0967A62.78052,62.78052,0,1,1,170.65192,205.313,62.85309,62.85309,0,0,1,107.87023,268.0967Zm0-124.94889A62.16838,62.16838,0,1,0,170.03978,205.313,62.23689,62.23689,0,0,0,107.87023,143.14781Z"/><path class="cls-2" d="M142.57984,244.946H109.14275a.204.204,0,0,1,0-.4081h33.43709a4.52065,4.52065,0,0,0,4.51455-4.51614V170.607a4.518,4.518,0,0,0-4.51455-4.511H73.16222a4.5168,4.5168,0,0,0-4.51256,4.511v69.4148a4.51941,4.51941,0,0,0,4.51256,4.51614h33.43589a.204.204,0,0,1,0,.4081H73.16222a4.92782,4.92782,0,0,1-4.92065-4.92424V170.607a4.92547,4.92547,0,0,1,4.92065-4.9191h69.41762a4.92641,4.92641,0,0,1,4.92265,4.9191v69.4148A4.92875,4.92875,0,0,1,142.57984,244.946Z"/><path class="cls-3" d="M159.58675,147.46791a1.96716,1.96716,0,1,0-1.96678,1.96873,1.96807,1.96807,0,0,0,1.96678-1.96873Z"/><path class="cls-2" d="M157.62,149.74271a2.27383,2.27383,0,1,1,2.27285-2.2748A2.27683,2.27683,0,0,1,157.62,149.74271Zm0-3.9355a1.66168,1.66168,0,1,0,1.66071,1.6607A1.66283,1.66283,0,0,0,157.62,145.80721Z"/><path class="cls-3" d="M159.58675,141.22169a1.96716,1.96716,0,1,0-1.96678,1.96514,1.96745,1.96745,0,0,0,1.96678-1.96514Z"/><path class="cls-2" d="M157.62,143.4929a2.2724,2.2724,0,1,1,2.27285-2.27121A2.275,2.275,0,0,1,157.62,143.4929Zm0-3.93265a1.66026,1.66026,0,1,0,1.66071,1.66144A1.66325,1.66325,0,0,0,157.62,139.56025Z"/><path class="cls-3" d="M164.996,144.345a1.96653,1.96653,0,1,0-1.96433,1.96678A1.964,1.964,0,0,0,164.996,144.345Z"/><path class="cls-2" d="M163.03164,146.61785a2.27244,2.27244,0,1,1,2.2704-2.27285A2.27646,2.27646,0,0,1,163.03164,146.61785Zm0-3.93273a1.66029,1.66029,0,1,0,1.65826,1.65988A1.66312,1.66312,0,0,0,163.03164,142.68512Z"/><path class="cls-3" d="M164.996,150.59237a1.96653,1.96653,0,1,0-1.96433,1.96555,1.96512,1.96512,0,0,0,1.96433-1.96555Z"/><path class="cls-2" d="M163.03164,152.864a2.272,2.272,0,1,1,2.2704-2.27162A2.27588,2.27588,0,0,1,163.03164,152.864Zm0-3.93192a1.65989,1.65989,0,1,0,1.65826,1.6603A1.66348,1.66348,0,0,0,163.03164,148.93207Z"/><path class="cls-3" d="M159.58675,153.716a1.96716,1.96716,0,1,0-1.96678,1.96718,1.967,1.967,0,0,0,1.96678-1.96718Z"/><path class="cls-2" d="M157.62,155.98926a2.273,2.273,0,1,1,2.27285-2.27325A2.276,2.276,0,0,1,157.62,155.98926Zm0-3.93387a1.66087,1.66087,0,1,0,1.66071,1.66062A1.66282,1.66282,0,0,0,157.62,152.05539Z"/><path class="cls-3" d="M154.17588,150.59237a1.96795,1.96795,0,1,0-1.96874,1.96555,1.96711,1.96711,0,0,0,1.96874-1.96555Z"/><path class="cls-2" d="M152.20714,152.864a2.272,2.272,0,1,1,2.27481-2.27162A2.275,2.275,0,0,1,152.20714,152.864Zm0-3.93192a1.65989,1.65989,0,1,0,1.66267,1.6603A1.66266,1.66266,0,0,0,152.20714,148.93207Z"/><path class="cls-3" d="M154.17588,144.345a1.96795,1.96795,0,1,0-1.96874,1.96678,1.966,1.966,0,0,0,1.96874-1.96678Z"/><path class="cls-2" d="M152.20714,146.61785A2.27244,2.27244,0,1,1,154.482,144.345,2.2756,2.2756,0,0,1,152.20714,146.61785Zm0-3.93273a1.66029,1.66029,0,1,0,1.66267,1.65988A1.66231,1.66231,0,0,0,152.20714,142.68512Z"/><path class="cls-2" d="M247.86044,269.70753h-32.397a8.85893,8.85893,0,0,1,0-17.71786h32.397a8.85893,8.85893,0,1,1,0,17.71786Zm-32.397-17.30977a8.45084,8.45084,0,0,0,0,16.90168h32.397a8.45084,8.45084,0,1,0,0-16.90168Z"/><path class="cls-2" d="M82.67549,300.278a.29922.29922,0,0,1-.10439-.01837l-2.39438-.78982-2.96106-.9254-2.93436-1.02187L71.37958,296.413l-2.867-1.20674-2.82516-1.292-2.78533-1.38287-2.74069-1.469-2.69008-1.5519-2.64193-1.63875-2.58879-1.72L49.70784,284.352l-2.47526-1.87944-2.41388-1.95845-2.35251-2.03166-4.16943-3.78288a.30638.30638,0,0,1,.39292-.47021l1.907,1.70012,2.27676,2.09541,2.33822,2.01983,2.3987,1.94637,2.45976,1.86752,2.51713,1.7886,2.57288,1.70967,2.62552,1.62847,2.67335,1.54227,2.724,1.46025,2.76779,1.37414,2.80769,1.284,2.84908,1.19882,2.88376,1.10226,2.91641,1.01551L82.78,299.68425a.30607.30607,0,0,1-.10447.59378Z"/><path class="cls-2" d="M282.10812,244.84245H181.22094a5.51839,5.51839,0,0,1-5.51288-5.51173V171.3a5.51787,5.51787,0,0,1,5.51288-5.51051H282.10812A5.51641,5.51641,0,0,1,287.61781,171.3v68.0307A5.51693,5.51693,0,0,1,282.10812,244.84245Zm-100.88718-78.4408A4.90509,4.90509,0,0,0,176.3202,171.3v68.0307a4.90588,4.90588,0,0,0,4.90074,4.89959H282.10812a4.90441,4.90441,0,0,0,4.89755-4.89959V171.3a4.90363,4.90363,0,0,0-4.89755-4.89837Z"/><path class="cls-3" d="M307.67471,147.46791a1.96678,1.96678,0,1,0-1.96555,1.96873,1.96733,1.96733,0,0,0,1.96555-1.96873Z"/><path class="cls-2" d="M305.70916,149.74271a2.27383,2.27383,0,1,1,2.27162-2.2748A2.27718,2.27718,0,0,1,305.70916,149.74271Zm0-3.9355a1.66168,1.66168,0,1,0,1.65948,1.6607A1.6632,1.6632,0,0,0,305.70916,145.80721Z"/><path class="cls-3" d="M307.67471,141.22169a1.96678,1.96678,0,1,0-1.96555,1.96514,1.96671,1.96671,0,0,0,1.96555-1.96514Z"/><path class="cls-2" d="M305.70916,143.4929a2.2724,2.2724,0,1,1,2.27162-2.27121A2.27538,2.27538,0,0,1,305.70916,143.4929Zm0-3.93265a1.66026,1.66026,0,1,0,1.65948,1.66144A1.66362,1.66362,0,0,0,305.70916,139.56025Z"/><path class="cls-3" d="M302.26582,144.345a1.96755,1.96755,0,1,0-1.96792,1.96678,1.96663,1.96663,0,0,0,1.96792-1.96678Z"/><path class="cls-2" d="M300.2979,146.61785a2.27244,2.27244,0,1,1,2.274-2.27285A2.2756,2.2756,0,0,1,300.2979,146.61785Zm0-3.93273a1.66029,1.66029,0,1,0,1.66185,1.65988A1.66232,1.66232,0,0,0,300.2979,142.68512Z"/><path class="cls-3" d="M302.26582,150.59237a1.96755,1.96755,0,1,0-1.96792,1.96555,1.96771,1.96771,0,0,0,1.96792-1.96555Z"/><path class="cls-2" d="M300.2979,152.864a2.272,2.272,0,1,1,2.274-2.27162A2.275,2.275,0,0,1,300.2979,152.864Zm0-3.93192a1.65989,1.65989,0,1,0,1.66185,1.6603A1.66268,1.66268,0,0,0,300.2979,148.93207Z"/><path class="cls-3" d="M307.67471,153.716a1.96678,1.96678,0,1,0-1.96555,1.96718,1.96627,1.96627,0,0,0,1.96555-1.96718Z"/><path class="cls-2" d="M305.70916,155.98926a2.273,2.273,0,1,1,2.27162-2.27325A2.27633,2.27633,0,0,1,305.70916,155.98926Zm0-3.93387a1.66087,1.66087,0,1,0,1.65948,1.66062A1.66319,1.66319,0,0,0,305.70916,152.05539Z"/><path class="cls-3" d="M313.08589,150.59237a1.96612,1.96612,0,1,0-1.96832,1.96555,1.96774,1.96774,0,0,0,1.96832-1.96555Z"/><path class="cls-2" d="M311.11757,152.864a2.272,2.272,0,1,1,2.27439-2.27162A2.27328,2.27328,0,0,1,311.11757,152.864Zm0-3.93192a1.65989,1.65989,0,1,0,1.66225,1.6603A1.66094,1.66094,0,0,0,311.11757,148.93207Z"/><path class="cls-3" d="M313.08589,144.345a1.96612,1.96612,0,1,0-1.96832,1.96678,1.96666,1.96666,0,0,0,1.96832-1.96678Z"/><path class="cls-2" d="M311.11757,146.61785A2.27244,2.27244,0,1,1,313.392,144.345,2.27386,2.27386,0,0,1,311.11757,146.61785Zm0-3.93273a1.66029,1.66029,0,1,0,1.66225,1.65988A1.66058,1.66058,0,0,0,311.11757,142.68512Z"/><path class="cls-2" d="M142.57984,243.33756H129.57216c-1.94278,0-1.9711-.03183-2.07712-.14985l-.00359-.00319H88.00268c-.10521.153-.438.153-2.81365.153H73.16222a3.31883,3.31883,0,0,1-3.31463-3.31577V227.99734c0-2.33618,0-2.702.1527-2.81283v-39.737c-.1527-.10448-.1527-.4312-.1527-2.81129V170.607a3.31751,3.31751,0,0,1,3.31463-3.313H85.189c2.36091,0,2.70167,0,2.81088.14945h39.74741c.11957-.14945.45756-.14945,2.80411-.14945h12.02841a3.31749,3.31749,0,0,1,3.31457,3.313v12.02918c0,2.3601,0,2.70126-.15224,2.81006l.01714,31.6433c.10242.08774.1351.11557.1351,2.06047v20.87179A3.31881,3.31881,0,0,1,142.57984,243.33756Zm-14.71254-.64242c.20682.01436.79742.03028,1.70486.03028h13.00768a2.70628,2.70628,0,0,0,2.70243-2.70363V219.15c0-.90948-.01674-1.50171-.03108-1.70576l-.03468-.03583a.30442.30442,0,0,1-.08648-.21286V185.24814a.30663.30663,0,0,1,.12235-.24469c.01435-.31285.02989-1.12145.02989-2.36728V170.607a2.70464,2.70464,0,0,0-2.70243-2.70085H130.55143c-1.2447,0-2.05289.01469-2.36769.02824a.30575.30575,0,0,1-.244.1212H87.80141a.30559.30559,0,0,1-.24388-.1212c-.31489-.01355-1.12308-.02824-2.3685-.02824H73.16222a2.70467,2.70467,0,0,0-2.70249,2.70085v12.02918c0,1.24542.016,2.054.03028,2.36728a.30606.30606,0,0,1,.12243.24469v40.13641a.30536.30536,0,0,1-.12243.2447c-.01469.31325-.03028,1.12226-.03028,2.36809v12.02445a2.70632,2.70632,0,0,0,2.70249,2.70363H85.189c1.24387,0,2.05166-.0151,2.36646-.02947a.30655.30655,0,0,1,.24592-.12357h39.816a.30544.30544,0,0,1,.21605.08929Z"/><path class="cls-4" d="M109.338,242.87845l-.16413.49576-.02155.06382c-.00163.00792-.00359.14741-.00522.36427l-.00433.93968v6.85078a1.27232,1.27232,0,1,1-2.54464,0V244.742l-.004-.93968c-.00236-.21686-.00318-.35635-.006-.36427l-.02073-.06382-.16462-.49576Z"/><path class="cls-2" d="M107.87023,253.17168a1.58039,1.58039,0,0,1-1.57819-1.57892l-.00522-7.90367c-.00115-.11794-.002-.19768-.00319-.224l-.17131-.4902a.30581.30581,0,0,1,.29048-.40255H109.338a.30591.30591,0,0,1,.29057.40255l-.16422.49575a2.49363,2.49363,0,0,0-.01118.334l-.00433,7.78809A1.58073,1.58073,0,0,1,107.87023,253.17168Zm-1.04334-9.98716.0311.0933a.95664.95664,0,0,1,.041.40491l.00522,1.0577v6.85233a.96625.96625,0,1,0,1.9325,0l.00432-7.79209c.002-.25188.00923-.41365.01119-.42246.00236-.01274.0275-.08929.0315-.102l.03069-.09166Z"/><path class="cls-2" d="M70.30637,185.55421a.306.306,0,0,1-.21646-.52244L87.585,167.53305a.306.306,0,1,1,.43274.43283l-17.495,17.49872A.305.305,0,0,1,70.30637,185.55421Z"/><path class="cls-2" d="M87.80141,243.18452a.304.304,0,0,1-.21637-.08929L70.08991,225.60142a.30635.30635,0,0,1,.43283-.43365l17.495,17.4939a.30607.30607,0,0,1-.21637.52285Z"/><rect class="cls-5" x="131.70315" y="223.59514" width="9.02388" height="14.80945"/><path class="cls-2" d="M140.727,238.71066h-9.02389a.30618.30618,0,0,1-.30607-.30607V223.59514a.30618.30618,0,0,1,.30607-.30607H140.727a.30613.30613,0,0,1,.30607.30607v14.80945A.30613.30613,0,0,1,140.727,238.71066Zm-8.71782-.61214H140.421V223.90121h-8.41174Z"/><path class="cls-2" d="M145.4361,185.55421a.30484.30484,0,0,1-.2164-.08961l-17.49629-17.49872a.30605.30605,0,1,1,.43282-.43283l17.49627,17.49872a.306.306,0,0,1-.2164.52244Z"/><rect class="cls-3" x="133.20641" y="226.48772" width="6.01818" height="3.23922"/><path class="cls-2" d="M139.22459,230.033h-6.01818a.30608.30608,0,0,1-.30607-.30607v-3.23921a.30613.30613,0,0,1,.30607-.30607h6.01818a.30618.30618,0,0,1,.30607.30607v3.23921A.30613.30613,0,0,1,139.22459,230.033Zm-5.71211-.61214h5.406v-2.62707h-5.406Z"/><rect class="cls-3" x="133.20641" y="232.27279" width="6.01818" height="3.23848"/><path class="cls-2" d="M139.22459,235.81734h-6.01818a.30613.30613,0,0,1-.30607-.30607v-3.23848a.30608.30608,0,0,1,.30607-.30607h6.01818a.30613.30613,0,0,1,.30607.30607v3.23848A.30618.30618,0,0,1,139.22459,235.81734Zm-5.71211-.61214h5.406v-2.62634h-5.406Z"/><path class="cls-4" d="M112.61352,235.16374a4.74309,4.74309,0,1,0-4.74329,4.74484,4.74169,4.74169,0,0,0,4.74329-4.74484Z"/><path class="cls-2" d="M107.87023,240.21465a5.049,5.049,0,1,1,5.04936-5.05091A5.05569,5.05569,0,0,1,107.87023,240.21465Zm0-9.48576a4.43681,4.43681,0,1,0,4.43722,4.43485A4.44075,4.44075,0,0,0,107.87023,230.72889Z"/><path class="cls-2" d="M127.61738,243.18452a.30612.30612,0,0,1-.30607-.30607V220.666a3.78108,3.78108,0,0,1,3.77766-3.77651H145.4361a.30607.30607,0,1,1,0,.61214H131.089a3.16854,3.16854,0,0,0-3.16551,3.16437v22.21246A.30608.30608,0,0,1,127.61738,243.18452Z"/><path class="cls-2" d="M355.45572,268.0967A62.78052,62.78052,0,1,1,418.23783,205.313,62.85273,62.85273,0,0,1,355.45572,268.0967Zm0-124.94889a62.16838,62.16838,0,1,0,62.17,62.16515A62.23648,62.23648,0,0,0,355.45572,143.14781Z"/><path class="cls-2" d="M390.1661,244.946H356.72857a.20405.20405,0,0,1,0-.4081H390.1661a4.52068,4.52068,0,0,0,4.51459-4.51614V170.607a4.51807,4.51807,0,0,0-4.51459-4.511H320.748a4.51685,4.51685,0,0,0-4.51255,4.511v69.4148a4.51946,4.51946,0,0,0,4.51255,4.51614h33.43557a.204.204,0,0,1,0,.4081H320.748a4.92782,4.92782,0,0,1-4.92065-4.92424V170.607a4.92547,4.92547,0,0,1,4.92065-4.9191H390.1661a4.92643,4.92643,0,0,1,4.92269,4.9191v69.4148A4.92878,4.92878,0,0,1,390.1661,244.946Z"/><path class="cls-2" d="M390.1661,243.33756h-13.008c-1.94523,0-1.97355-.03183-2.07876-.1514l-.00155-.00164H335.58614c-.10994.153-.44434.153-2.81161.153H320.748a3.31882,3.31882,0,0,1-3.31455-3.31577V227.99734c0-2.33618,0-2.702.15263-2.81283v-39.737c-.15263-.10448-.15263-.4312-.15263-2.81129V170.607a3.3175,3.3175,0,0,1,3.31455-3.313h12.02649c2.38042,0,2.7024,0,2.81047.14945h39.74978c.12153-.14945.4587-.14945,2.80206-.14945H390.1661a3.31742,3.31742,0,0,1,3.31422,3.313v12.02918c0,2.35691,0,2.70126-.1523,2.81047l.01714,31.64289c.102.08529.13516.114.13516,2.06047v20.87179A3.31874,3.31874,0,0,1,390.1661,243.33756Zm-14.713-.64242c.20724.01436.79832.03028,1.70495.03028h13.008a2.70623,2.70623,0,0,0,2.70208-2.70363V219.15c0-.91111-.01681-1.50252-.03069-1.70576l-.03509-.03583a.30437.30437,0,0,1-.08652-.21286V185.24814a.30623.30623,0,0,1,.12275-.2451c.01437-.30966.02955-1.10667.02955-2.36687V170.607a2.70459,2.70459,0,0,0-2.70208-2.70085H378.13684c-1.24461,0-2.05239.01469-2.36728.02824a.30559.30559,0,0,1-.24388.1212H335.38732a.30575.30575,0,0,1-.244-.1212c-.31522-.01355-1.12341-.02824-2.36883-.02824H320.748a2.70466,2.70466,0,0,0-2.70241,2.70085v12.02918c0,1.24542.01592,2.054.03029,2.36728a.306.306,0,0,1,.12234.24469v40.13641a.30528.30528,0,0,1-.12234.2447c-.01478.31325-.03029,1.12226-.03029,2.36809v12.02445a2.70631,2.70631,0,0,0,2.70241,2.70363h12.02649c1.24379,0,2.05165-.0151,2.36687-.02947a.30642.30642,0,0,1,.24592-.12357H375.2037a.30549.30549,0,0,1,.21637.08929Z"/><path class="cls-4" d="M356.92389,242.87845l-.16422.49576-.02147.06382c-.00163.00792-.004.14741-.00562.36427l-.004.93968v6.85078a1.27248,1.27248,0,1,1-2.545,0V244.742l-.00318-.93968c-.00319-.21686-.00319-.35635-.00637-.36427l-.02073-.06382-.16422-.49576Z"/><path class="cls-2" d="M355.45572,253.17168a1.58038,1.58038,0,0,1-1.57818-1.57892l-.008-8.12445-.00677.00237-.16422-.49575a.30591.30591,0,0,1,.29056-.40255h2.93478a.30582.30582,0,0,1,.29048.40255l-.16414.49575a2.45959,2.45959,0,0,0-.01158.334l-.004,7.78809A1.58075,1.58075,0,0,1,355.45572,253.17168Zm-1.043-9.98716.0311.0933a.74041.74041,0,0,1,.04024.33235l.00564,1.131v6.8516a.96641.96641,0,1,0,1.93281,0l.004-7.79209c.002-.25188.00954-.41365.01158-.42246.00237-.01274.02751-.08929.03151-.102l.0306-.09166Z"/><path class="cls-2" d="M317.89219,185.55421a.306.306,0,0,1-.21637-.52244l17.495-17.49872a.30606.30606,0,1,1,.43283.43283l-17.495,17.49872A.305.305,0,0,1,317.89219,185.55421Z"/><path class="cls-2" d="M335.38732,243.18452a.30433.30433,0,0,1-.21646-.08929l-17.495-17.49381a.30634.30634,0,0,1,.43282-.43365l17.495,17.4939a.30607.30607,0,0,1-.21637.52285Z"/><rect class="cls-5" x="379.28938" y="223.59514" width="9.02356" height="14.80945"/><path class="cls-2" d="M388.31294,238.71066h-9.02356a.30618.30618,0,0,1-.30607-.30607V223.59514a.30618.30618,0,0,1,.30607-.30607h9.02356a.30618.30618,0,0,1,.30607.30607v14.80945A.30618.30618,0,0,1,388.31294,238.71066Zm-8.71749-.61214h8.41142V223.90121h-8.41142Z"/><path class="cls-2" d="M393.022,185.55421a.3047.3047,0,0,1-.21637-.08961l-17.49627-17.49872a.306.306,0,1,1,.43275-.43283l17.49634,17.49872a.306.306,0,0,1-.21645.52244Z"/><rect class="cls-3" x="380.79264" y="226.48772" width="6.01785" height="3.23922"/><path class="cls-2" d="M386.8105,230.033h-6.01786a.30613.30613,0,0,1-.30607-.30607v-3.23921a.30618.30618,0,0,1,.30607-.30607h6.01786a.30618.30618,0,0,1,.30607.30607v3.23921A.30613.30613,0,0,1,386.8105,230.033Zm-5.71179-.61214h5.40572v-2.62707h-5.40572Z"/><rect class="cls-3" x="380.79264" y="232.27279" width="6.01785" height="3.23848"/><path class="cls-2" d="M386.8105,235.81734h-6.01786a.30618.30618,0,0,1-.30607-.30607v-3.23848a.30613.30613,0,0,1,.30607-.30607h6.01786a.30613.30613,0,0,1,.30607.30607v3.23848A.30618.30618,0,0,1,386.8105,235.81734Zm-5.71179-.61214h5.40572v-2.62634h-5.40572Z"/><path class="cls-4" d="M360.19983,235.16374a4.74333,4.74333,0,1,0-4.74411,4.74484,4.74212,4.74212,0,0,0,4.74411-4.74484Z"/><path class="cls-2" d="M355.45572,240.21465a5.049,5.049,0,1,1,5.05018-5.05091A5.05561,5.05561,0,0,1,355.45572,240.21465Zm0-9.48576a4.43681,4.43681,0,1,0,4.438,4.43485A4.44074,4.44074,0,0,0,355.45572,230.72889Z"/><path class="cls-2" d="M375.2037,243.18452a.30607.30607,0,0,1-.30607-.30607V220.666a3.78093,3.78093,0,0,1,3.77724-3.77651H393.022a.30607.30607,0,1,1,0,.61214H378.67487a3.1684,3.1684,0,0,0-3.1651,3.16437v22.21246A.30612.30612,0,0,1,375.2037,243.18452Z"/><path class="cls-3" d="M355.45727,304.06409H332.9212c-.00678,0-.08211-.00163-.08889-.00245l-.88948-.09321-4.82108-.41446-.36067-.00081-30.06315.05819-2.61312.26224-1.61809.18805c-.00637.00082-.08048.00245-.08725.00245h-17.307c-.00677,0-.08129-.00163-.08806-.00245l-.88948-.09321-4.82067-.41446-.35986-.00081-75.22779.00954-3.72827.31089-1.61483.18805-.08252.00245H170.948c-.00678,0-.08252-.00163-.08929-.00245l-.88753-.09321L165.149,303.554l-.36026-.00081-30.06111.05819-2.61524.26224-1.61638.18805c-.00678.00082-.0817.00245-.08848.00245h-22.5373l-3.09141-.04783-3.12886-.149-3.12446-.24633-3.11654-.34517-3.10291-.44311-3.08667-.546-3.66445-.77554c-.00882-.00155-.07852-.02229-.08734-.02547l-.86679-.3268-1.72241-.67589-1.17009.81856c-.00759.00555-.07729.04783-.0857.05264-.014.0071-.12275.06212-.13753.06693-.00636.00237-.07729.02791-.08366.02947-.01795.00563-.09647.02791-.11475.03109-.01918.00237-.14626.01992-.16544.02073-.01714-.00163-.12431-.00081-.13908-.00163-.00718-.00073-.1-.00873-.10676-.00955-.01159-.00155-.09647-.01755-.10766-.01991-.00432-.00082-.07884-.02073-.08284-.02155l-1.571-.46147a1.56642,1.56642,0,0,1-2.89054-.91822l-1.34949-.45511-2.922-1.07206-2.885-1.16528L66.217,296.1237l-2.80925-1.34059-4.02472-2.1194-.28819.26224a1.60512,1.60512,0,0,1-2.10186.51412,1.56951,1.56951,0,0,1-.60732-2.07958l.08325-.37863-1.22143-.74363-2.61761-1.67939L50.063,286.79652l-2.50914-1.8388-2.45412-1.91935-2.38923-1.99265-2.32941-2.06757-2.13695-2.01575c-.00637-.00563-.06375-.06537-.07011-.07174-.00873-.00955-.06734-.07256-.07493-.08292-.00441-.00474-.05738-.07411-.06138-.08048-.01-.01437-.06774-.10684-.07574-.12276-.00832-.01591-.05852-.1243-.06456-.14185-.00359-.00955-.02587-.07411-.02865-.08447-.00318-.01355-.02236-.08775-.02473-.10129-.002-.01355-.01436-.09321-.01518-.10676-.00114-.01518-.00555-.10284-.00473-.11721l.00473-.08766.12276-1.42033-2.162-1.73685c-.00914-.00874-.05975-.06293-.06815-.07167l-.379-.40654-2.0879-2.32982-2.01264-2.40074-1.94041-2.46367-1.858-2.52276-1.7766-2.58406-1.6958-2.63344-1.60961-2.6909-1.52644-2.73872L19.40081,249.18l-1.35137-2.82794-1.25619-2.8734-1.16487-2.90849L14.56064,237.625l-.9831-2.97623-.88239-3.00889-.78827-3.03443-.6927-3.0559-.589-3.07827-.49257-3.09581-.39814-3.10927-.30174-3.11736-.19727-3.12683-.10317-3.13523L9.13191,203.75l.10317-3.12487.19654-3.13123.30166-3.12177.39732-3.10813.49257-3.09377.58823-3.07663.69311-3.05958.78828-3.03361.88034-3.00611.984-2.97738,1.06643-2.946,1.16691-2.91046,1.255-2.87021,1.35218-2.8312,1.43274-2.78411,1.52676-2.739,1.60929-2.68854,1.69416-2.63743L27.44,148.027l1.856-2.52268,1.93919-2.46408,2.015-2.4,2.08871-2.33536,2.16356-2.26885,2.2326-2.19792,2.304-2.12577,2.36883-2.052,2.43339-1.97551,2.49444-1.89781,2.55378-1.81847,2.61034-1.73644,2.66421-1.65067,2.71236-1.56749,2.765-1.47967,2.80729-1.39087,2.85144-1.30126,2.89339-1.20951,2.92637-1.11826,2.96147-1.02424,2.99256-.9298,3.02366-.83374,3.0448-.73882,3.0679-.64128,3.08617-.5448,3.10218-.44352,3.11614-.34794,3.12445-.2447,3.13009-.14863,3.09459-.049H355.45727l3.091.04865,3.13131.14822,3.12242.2451,3.11614.34672,3.10136.444,3.08781.54359,3.06749.6416,3.04594.73849,3.0217.83415,2.993.92858,2.96228,1.02383,2.928,1.117,2.89013,1.20959,2.855,1.302,2.80728,1.39283,2.76265,1.47616,2.716,1.56741,2.663,1.65311,2.60839,1.73441,2.55778,1.81651,2.49435,1.89781,2.43184,1.97591,2.3721,2.05084,2.29635,2.12855,2.23849,2.1971,2.16,2.26722,2.09231,2.33618,2.0146,2.4,1.938,2.46448,1.8583,2.52072,1.77946,2.58406,1.69335,2.6363,1.61165,2.6869,1.5244,2.73905,1.4383,2.78493,1.34581,2.83079,1.25742,2.87021,1.16405,2.91168,1.07484,2.94392.97682,2.97779.88353,3.00733.78632,3.03321.6918,3.05835.59264,3.07622.49616,3.0954.56635,5.03541-.14226,1.89144-.448,5.79267-.01787,1.61524.381,6.0425.22714,2.69727-.01159.42564-.15736,1.50563-.39536,3.10535-.49617,3.09582-.59181,3.07826-.69148,3.0559-.78591,3.03361-.88353,3.00889-.97918,2.97787-1.07248,2.94514-1.16527,2.90768-1.2562,2.8734-1.34777,2.82957-1.43552,2.78566-1.52358,2.73872-1.6101,2.68927-1.69694,2.63589-1.77628,2.58087-1.85748,2.52513-1.9405,2.46449-2.01215,2.39919-2.09231,2.33537-1.72444,1.82369c-.01.01037-.065.06538-.07607.07411l-.71776.56113-3.64184,2.97224-.80819.71417.00163.01118c.00155.01429.01036.10276.01036.11713,0,.01518-.00081.102-.00244.1172-.00114.01037-.01078.09321-.01274.10439-.00359.01837-.02114.10366-.02709.12112-.00482.01437-.0315.09011-.03788.10448-.004.00791-.03305.06929-.03746.07647-.00277.00563-.0586.102-.06178.10766-.00474.00792-.06252.09239-.06816.09957-.00832.012-.0426.055-.05215.0662l-.0586.06374c-.01119.012-.073.07011-.0857.08048l-2.22894,1.89307-2.38646,1.91609-2.45493,1.84279-2.51273,1.76232-2.55778,1.68739-2.61279,1.6061-2.54095,1.4498.07051.385a1.565,1.565,0,0,1-.67711,2.05647,1.60342,1.60342,0,0,1-2.0839-.589l-.279-.27261-2.612,1.288-2.79447,1.26975-2.82883,1.18127-2.865,1.09508-2.89772,1.00433-2.92962.911-2.82076.78909a.41739.41739,0,0,1-.19613.00637l-.06734-.0151-.54995.2136c-.01077.004-.08088.02554-.09207.02791l-2.48521.59459-3.06594.63924-3.08741.546-3.10258.444-3.11491.3459-3.12209.24633-3.13164.149-3.09459.04864Zm-272.6383-4.446a.40464.40464,0,0,1,.1399.02473l2.74746,1.06243.61973.14512,3.04758.63524,3.06112.54122,3.077.43919,3.09058.34272,3.099.24469,3.10332.14741,3.07189.04709,23.39455-.08611,4.91747-.424.37022-.00082,30.11931.05975,2.6678.26706,1.55345.18331,17.35246.00082.86442-.08611,4.9218-.424.36989-.00082,75.25807.00955,3.80557.31726,1.55345.18331,17.35442.00082.85961-.08611,4.92269-.424.37022-.00082h28.23627l4.54847.32681,1.55623.18331,22.58154.00082,3.07785-.04783,3.10577-.14748,3.09655-.2447,3.08944-.34353,3.07663-.44,3.06194-.54114,3.04194-.6345,3.11018-.84247a.42108.42108,0,0,1,.24265-.02237l.09329.02073,2.71236-.75881,2.90613-.90385,2.873-.99551,2.84116-1.08561,2.806-1.17246,2.77138-1.25856,2.85911-1.41079a.40459.40459,0,0,1,.46588.07411l.52767.51567a.40617.40617,0,0,1,.07493.10047.763.763,0,0,0,1.01346.31007.74845.74845,0,0,0,.30926-1.0115.40145.40145,0,0,1-.04147-.11876l-.13312-.72771a.40777.40777,0,0,1,.19923-.428l2.781-1.58619,2.59-1.59173,2.537-1.67376,2.4924-1.748,2.4338-1.82688,2.36728-1.901,2.21906-1.88508.34394.23351-.28215-.29725.41046.11875-.35749-.19613.40932.09411-.3659-.19213.40736-.08129-.41373-.02947a.46784.46784,0,0,1,.07338-.53722l4.12674-3.47117,1.24738-.95813,1.73008-1.83079,2.0759-2.31709,1.99583-2.37919,1.9245-2.44384,1.84165-2.50358,1.76191-2.56015,1.683-2.61434,1.59655-2.667,1.51118-2.71637,1.42393-2.76264,1.33667-2.80565,1.24583-2.84949,1.15533-2.88376,1.06373-2.92123.97119-2.95314.87634-2.98334.77914-3.009.68551-3.03117.587-3.0528.49216-3.07026.556-4.91225-.13834-1.803-.45111-5.84286-.01869-1.64234.33912-5.68828.269-3.07818-.01077-.3619-.15345-1.46343-.39373-3.08658-.49216-3.06945-.5879-3.05076-.68585-3.03321-.77954-3.00815-.87675-2.9826-.96841-2.95314-1.06611-2.9196-1.1545-2.88776-1.247-2.8463-1.33471-2.80721-1.42638-2.76182-1.51158-2.71645-1.59851-2.66494-1.6794-2.61475-1.76427-2.56219-1.84321-2.50031-1.92212-2.44425-1.99787-2.38-2.07517-2.31708L425.238,136.6027l-2.22061-2.17915-2.27758-2.111-2.3521-2.0333-2.41192-1.96-2.47331-1.8818-2.53663-1.80142-2.58725-1.72045-2.6411-1.63956-2.69327-1.55427-2.73987-1.46416-2.78411-1.38133-2.8312-1.2908-2.86622-1.19964-2.90368-1.10789-2.938-1.01543-2.96833-.921-2.99648-.82737-3.02129-.73253-3.042-.63646-3.06186-.53836-3.07589-.44042-3.09018-.34394-3.097-.24306-3.10576-.14708-3.07149-.04824H107.87023l-3.07508.04865-3.10455.14748-3.09858.24266-3.09018.34516-3.07671.43993-3.06072.53966-3.04275.63606-3.01966.73286-2.99852.827-2.96751.92222-2.93714,1.01583-2.90246,1.10912-2.86948,1.19915-2.82753,1.29088L63.01485,118.26l-2.74191,1.46743-2.69009,1.55468-2.64225,1.63712-2.58847,1.72167-2.53263,1.80337-2.47412,1.88222-2.41348,1.95918L42.58258,132.321l-2.28484,2.10822-2.21384,2.17955-2.14568,2.25007-2.07149,2.31586-1.99828,2.38-1.92287,2.44384-1.84083,2.50195-1.76469,2.56137-1.6798,2.61557L23.06371,156.344l-1.514,2.71677-1.42115,2.761-1.341,2.80762-1.24461,2.8463L16.386,170.36189l-1.0577,2.922-.976,2.95314-.87284,2.981-.78191,3.009-.68707,3.03321L11.427,188.3109l-.48857,3.069-.39422,3.08348-.2993,3.09532-.19482,3.10536-.10244,3.0994.00041,3.10969.10243,3.10977.19564,3.10136.2993,3.091.395,3.08463L11.429,222.331l.58431,3.052L12.7,228.41262l.78191,3.0097.87471,2.98342.97527,2.95225,1.05925,2.922,1.155,2.88376,1.24534,2.84875,1.34027,2.80484,1.42238,2.76338,1.514,2.71563,1.59647,2.66853,1.68184,2.612,1.76232,2.5626,1.84238,2.50113,1.9245,2.44376,1.99583,2.38083,2.9782,3.15882,1.789,1.43151a.40679.40679,0,0,1,.1443.34745l-.14112,1.63239-.40565.11.41365.00081-.34672.22952.38614-.141.0586.07892-.24943.32681.31244-.26469,2.12136,2.00064,2.31064,2.05084,2.36973,1.97674,2.43379,1.90335,2.48881,1.8237,2.54619,1.748,4.06063,2.55778a.407.407,0,0,1,.18658.436l-.15826.71972a.40211.40211,0,0,1-.045.11638.75234.75234,0,0,0,.2762,1.025.768.768,0,0,0,1.023-.27579.38662.38662,0,0,1,.07811-.09721l.54685-.49739a.41007.41007,0,0,1,.471-.05575l1.50448.82656,2.74583,1.418L66.557,295.3817l2.8272,1.24339,2.8614,1.15572,4.44008,1.58619a.71483.71483,0,0,1,.17972.11794c.00792.00881.0502.05582.057.06537.0076.00955.04188.05975.04824.07093a.83647.83647,0,0,1,.03746.07574c.00278.01273.03624.12994.03788.14267.00195.01673.00677.09721.00677.11394a.67153.67153,0,0,1-.006.08374.75175.75175,0,0,0,.6221.85839.76788.76788,0,0,0,.79105-.41128c.00874-.01828.04579-.07811.057-.09484.01119-.01591.04506-.05419.05861-.06938.01436-.01191.09125-.0781.10716-.08765.014-.00874.07779-.043.09288-.0502.00955-.00318.08089-.02946.09126-.03191a.72794.72794,0,0,1,.07451-.01429.42742.42742,0,0,1,.19728.00874l1.73048.5093-.00922.41928.09207-.39773.10365.01191.112.39937-.00922-.4121.25392.33-.1483-.38737,1.32116-.92539A.40809.40809,0,0,1,82.819,299.61806Z"/><path class="cls-2" d="M247.882,268.31829H215.491a7.47884,7.47884,0,0,1,0-14.95767h32.391a7.47884,7.47884,0,0,1,0,14.95767Zm-32.391-14.34552a6.86669,6.86669,0,0,0,0,13.73338h32.391a6.86669,6.86669,0,0,0,0-13.73338Z"/><rect class="cls-6" x="183.21636" y="173.26875" width="96.94016" height="64.08687" rx="1.85079"/><path class="cls-7" d="M278.30573,237.66169H185.06715a2.15939,2.15939,0,0,1-2.15686-2.15686V175.12028a2.15981,2.15981,0,0,1,2.15686-2.1576h93.23858a2.15976,2.15976,0,0,1,2.15686,2.1576v60.38455A2.15934,2.15934,0,0,1,278.30573,237.66169Zm-93.23858-64.08687a1.547,1.547,0,0,0-1.54472,1.54546v60.38455a1.54635,1.54635,0,0,0,1.54472,1.54472h93.23858a1.5463,1.5463,0,0,0,1.54472-1.54472V175.12028a1.547,1.547,0,0,0-1.54472-1.54546Z"/><polygon class="cls-8" points="107.222 176.418 127.222 149.097 87.222 149.097 107.222 176.418"/><rect class="cls-8" x="97.01545" y="94.40492" width="20.41345" height="58.5064"/><polygon class="cls-8" points="355.719 176.418 375.719 149.097 335.719 149.097 355.719 176.418"/><rect class="cls-8" x="345.51195" y="94.40492" width="20.41345" height="58.5064"/><path class="cls-1" d="M321.246,10.31791h68.94582a2.31341,2.31341,0,0,1,2.31341,2.31341V81.57721a2.31341,2.31341,0,0,1-2.31341,2.31341H321.24565a2.31349,2.31349,0,0,1-2.31349-2.31349V12.63172A2.31381,2.31381,0,0,1,321.246,10.31791Z"/><path class="cls-2" d="M379.83752,34.20107h6.94162a2.62268,2.62268,0,0,1,2.61956,2.61955v2.21144a2.60091,2.60091,0,0,1-.76681,1.85237l-2.92441,2.92442a1.99351,1.99351,0,0,0-.58864,1.42v3.75176a1.98985,1.98985,0,0,0,.58823,1.41874l2.92482,2.92522a2.60261,2.60261,0,0,1,.76681,1.85284v2.21138a2.62231,2.62231,0,0,1-2.61956,2.61916h-6.94162a2.62194,2.62194,0,0,1-2.61875-2.61916V55.17737a2.60556,2.60556,0,0,1,.76722-1.85243l2.92523-2.92523a2.02119,2.02119,0,0,0,.58822-1.41914V45.22881a1.99622,1.99622,0,0,0-.58822-1.42l-2.92482-2.92442a2.60408,2.60408,0,0,1-.76763-1.85237V36.82062A2.6223,2.6223,0,0,1,379.83752,34.20107Zm6.94162,25.1947a2.00952,2.00952,0,0,0,2.00741-2.007V55.17737a1.99487,1.99487,0,0,0-.58781-1.42l-2.924-2.92482a2.5971,2.5971,0,0,1-.768-1.852V45.22881a2.60034,2.60034,0,0,1,.768-1.85277l2.924-2.92441a1.99392,1.99392,0,0,0,.58781-1.41957V36.82062a2.00988,2.00988,0,0,0-2.00741-2.00741h-6.94162a2.0095,2.0095,0,0,0-2.00661,2.00741v2.21144a1.998,1.998,0,0,0,.58864,1.42l2.92441,2.924a2.605,2.605,0,0,1,.76763,1.85277v3.75176a2.63751,2.63751,0,0,1-.76763,1.852l-2.92482,2.92482a1.99858,1.99858,0,0,0-.58823,1.42v2.21138a2.00915,2.00915,0,0,0,2.00661,2.007Z"/><path class="cls-2" d="M324.65823,34.20107h6.9408a2.62282,2.62282,0,0,1,2.62,2.61955v2.21144a2.60091,2.60091,0,0,1-.76681,1.85237l-2.92482,2.92442a1.99486,1.99486,0,0,0-.58823,1.42v3.75176a1.9915,1.9915,0,0,0,.58823,1.41914l2.92482,2.92482a2.60261,2.60261,0,0,1,.76681,1.85284v2.21138a2.62245,2.62245,0,0,1-2.62,2.61916h-6.9408a2.62167,2.62167,0,0,1-2.61875-2.61916V55.17737a2.60507,2.60507,0,0,1,.7664-1.85243l2.926-2.92523a2.02067,2.02067,0,0,0,.58742-1.41914V45.22881a1.99584,1.99584,0,0,0-.58782-1.42l-2.92523-2.924a2.6055,2.6055,0,0,1-.76673-1.85277V36.82062A2.622,2.622,0,0,1,324.65823,34.20107Zm6.9408,25.1947a2.00968,2.00968,0,0,0,2.00783-2.007V55.17737a1.9942,1.9942,0,0,0-.5875-1.42l-2.92481-2.92482a2.59933,2.59933,0,0,1-.76755-1.852V45.22881a2.60323,2.60323,0,0,1,.76755-1.85277l2.92481-2.92441a1.99325,1.99325,0,0,0,.5875-1.41957V36.82062a2.01,2.01,0,0,0-2.00783-2.00741h-6.9408a2.00919,2.00919,0,0,0-2.00661,2.00741v2.21144a1.99718,1.99718,0,0,0,.58742,1.42l2.92522,2.924a2.60421,2.60421,0,0,1,.76714,1.85277v3.75176a2.60149,2.60149,0,0,1-.76673,1.852L323.239,53.75736a1.99639,1.99639,0,0,0-.58742,1.42v2.21138a2.00883,2.00883,0,0,0,2.00661,2.007Z"/><path class="cls-2" d="M345.43517,68.605h2.21147a2.59852,2.59852,0,0,1,1.85161.76681l2.92514,2.92482a2.02009,2.02009,0,0,0,1.4192.58822h3.7526a1.99149,1.99149,0,0,0,1.41911-.58822l2.92481-2.92482A2.6,2.6,0,0,1,363.792,68.605h2.21065a2.62322,2.62322,0,0,1,2.6203,2.62v6.9408a2.62271,2.62271,0,0,1-2.6203,2.61875H363.792a2.60276,2.60276,0,0,1-1.85284-.76681l-2.92481-2.92564a2.02068,2.02068,0,0,0-1.41911-.58741h-3.7526a2.021,2.021,0,0,0-1.4192.58741l-2.92514,2.92564a2.60132,2.60132,0,0,1-1.85161.76681h-2.21147a2.62235,2.62235,0,0,1-2.61989-2.61875V71.225A2.62286,2.62286,0,0,1,345.43517,68.605Zm12.16,4.892h-3.7526a2.63471,2.63471,0,0,1-1.85194-.76763L349.065,69.80456a1.9901,1.9901,0,0,0-1.41837-.58741h-2.21147a2.01,2.01,0,0,0-2.00775,2.00783v6.9408a2.00956,2.00956,0,0,0,2.00775,2.0066h2.21147a1.99125,1.99125,0,0,0,1.41837-.58749l2.92564-2.92555a2.637,2.637,0,0,1,1.85194-.76681h3.7526a2.60065,2.60065,0,0,1,1.85193.76681l2.92523,2.92555a1.99254,1.99254,0,0,0,1.4196.58749h2.21065a2.00991,2.00991,0,0,0,2.00815-2.0066V71.225a2.01038,2.01038,0,0,0-2.00815-2.00783H363.792a1.99284,1.99284,0,0,0-1.4196.587l-2.92523,2.92523A2.599,2.599,0,0,1,357.59519,73.497Z"/><path class="cls-2" d="M363.792,13.42449h2.21065a2.6235,2.6235,0,0,1,2.6203,2.6203v6.9408a2.62265,2.62265,0,0,1-2.6203,2.61875H363.792a2.603,2.603,0,0,1-1.85284-.76673l.004-.004c-.06856-.06056-.16895-.161-.33431-.3264l-1.78468-1.7846a2.60334,2.60334,0,0,1-.76795-1.85275V18.15978a2.60056,2.60056,0,0,1,.76795-1.85275l2.11466-2.115A2.60062,2.60062,0,0,1,363.792,13.42449ZM366.0026,24.9922a2.00986,2.00986,0,0,0,2.00815-2.00661v-6.9408a2.01071,2.01071,0,0,0-2.00815-2.00816H363.792a1.99292,1.99292,0,0,0-1.42042.58823l-2.11458,2.115a1.9934,1.9934,0,0,0-.58864,1.41992v2.71008a1.99653,1.99653,0,0,0,.58864,1.41993l2.11221,2.11222.00319.00277a1.99417,1.99417,0,0,0,1.4196.58742Z"/><path class="cls-2" d="M345.43517,13.42449h2.21147a2.60315,2.60315,0,0,1,1.85275.76755l2.11426,2.115a2.601,2.601,0,0,1,.76836,1.85275v2.71008a2.60373,2.60373,0,0,1-.76836,1.85275l-1.78469,1.7846c-.16576.16537-.26615.26584-.33471.32681l.004.00359a2.60157,2.60157,0,0,1-1.85161.76673h-2.21147a2.6223,2.6223,0,0,1-2.61989-2.61875v-6.9408A2.62315,2.62315,0,0,1,345.43517,13.42449Zm3.63466,10.97556c.06138-.06024,1.40483-1.40369,2.111-2.11026a1.99526,1.99526,0,0,0,.589-1.41993V18.15978a1.99222,1.99222,0,0,0-.589-1.41952l-2.11459-2.1154a1.99479,1.99479,0,0,0-1.4196-.58823h-2.21147a2.01037,2.01037,0,0,0-2.00775,2.00816v6.9408a2.00951,2.00951,0,0,0,2.00775,2.00661h2.21147a1.99288,1.99288,0,0,0,1.41837-.58742Z"/><path class="cls-3" d="M321.246,9.90981h68.94582a2.72466,2.72466,0,0,1,2.72151,2.72159V81.57721a2.72464,2.72464,0,0,1-2.72151,2.72151H321.246a2.725,2.725,0,0,1-2.7219-2.72151V12.6314A2.725,2.725,0,0,1,321.246,9.90981Zm68.94582,73.57272a1.90758,1.90758,0,0,0,1.90532-1.90532V12.6314a1.90765,1.90765,0,0,0-1.90532-1.9054H321.246a1.90772,1.90772,0,0,0-1.90571,1.9054V81.57721a1.90765,1.90765,0,0,0,1.90571,1.90532Z"/><path class="cls-2" d="M321.246,11.27122h68.94582a1.36217,1.36217,0,0,1,1.361,1.36018V81.57721a1.36262,1.36262,0,0,1-1.361,1.36133H321.246a1.36227,1.36227,0,0,1-1.36058-1.36133V12.6314A1.36181,1.36181,0,0,1,321.246,11.27122Zm68.94582,71.25922a.95427.95427,0,0,0,.9529-.95323V12.6314a.95377.95377,0,0,0-.9529-.95209H321.246a.95343.95343,0,0,0-.95249.95209V81.57721a.95392.95392,0,0,0,.95249.95323Z"/><path class="cls-2" d="M379.83752,34.99694h6.94162a1.82583,1.82583,0,0,1,1.82369,1.82368v2.21144a1.8114,1.8114,0,0,1-.534,1.28925l-2.92441,2.92521a2.78126,2.78126,0,0,0-.82215,1.98229v3.75176a2.78407,2.78407,0,0,0,.82215,1.98232l2.92441,2.92481a1.836,1.836,0,0,1,.534,1.28967v2.21138a1.82582,1.82582,0,0,1-1.82369,1.8237h-6.94162a1.8258,1.8258,0,0,1-1.82362-1.8237V55.17737a1.83222,1.83222,0,0,1,.536-1.29007l2.924-2.92441a2.78513,2.78513,0,0,0,.8206-1.98232V45.22881a2.7822,2.7822,0,0,0-.8206-1.98229l-2.92441-2.92521a1.80709,1.80709,0,0,1-.53559-1.28925V36.82062A1.82582,1.82582,0,0,1,379.83752,34.99694Zm6.94162,23.80741a1.41721,1.41721,0,0,0,1.4156-1.4156V55.17737a1.42584,1.42584,0,0,0-.41447-1.00114l-2.92441-2.92482a3.18773,3.18773,0,0,1-.94172-2.27084V45.22881a3.1865,3.1865,0,0,1,.94172-2.27123l2.92441-2.92481a1.40779,1.40779,0,0,0,.41447-1.00071V36.82062a1.417,1.417,0,0,0-1.4156-1.41559h-6.94162a1.4172,1.4172,0,0,0-1.41552,1.41559v2.21144a1.40414,1.40414,0,0,0,.4156,1.00071l2.92482,2.92521a3.18773,3.18773,0,0,1,.94017,2.27083v3.75176a3.19126,3.19126,0,0,1-.94017,2.27084L378.838,54.17623a1.42143,1.42143,0,0,0-.416,1.00114v2.21138a1.41745,1.41745,0,0,0,1.41552,1.4156Z"/><path class="cls-2" d="M324.65823,34.99694h6.9408a1.82588,1.82588,0,0,1,1.82369,1.82368v2.21144a1.81167,1.81167,0,0,1-.53362,1.28925l-2.92482,2.92521a2.7826,2.7826,0,0,0-.82141,1.98229v3.75176a2.7853,2.7853,0,0,0,.82141,1.98232l2.92482,2.92481a1.83591,1.83591,0,0,1,.53362,1.28967v2.21138a1.82587,1.82587,0,0,1-1.82369,1.8237h-6.9408a1.82582,1.82582,0,0,1-1.8237-1.8237V55.17737a1.83437,1.83437,0,0,1,.53485-1.28967l2.92482-2.92481a2.78756,2.78756,0,0,0,.82092-1.98232V45.22881a2.82229,2.82229,0,0,0-.82092-1.98229l-2.92482-2.92521a1.80912,1.80912,0,0,1-.53485-1.28925V36.82062A1.82583,1.82583,0,0,1,324.65823,34.99694Zm6.9408,23.80741a1.41751,1.41751,0,0,0,1.41559-1.4156V55.17737a1.42568,1.42568,0,0,0-.41412-1.00114l-2.92482-2.92482a3.19033,3.19033,0,0,1-.94091-2.27084V45.22881a3.1884,3.1884,0,0,1,.94091-2.27123l2.92482-2.92481a1.40511,1.40511,0,0,0,.41412-1.00071V36.82062A1.41726,1.41726,0,0,0,331.599,35.405h-6.9408a1.417,1.417,0,0,0-1.4156,1.41559v2.21144a1.4051,1.4051,0,0,0,.41487,1.00071l2.92522,2.92521a3.2324,3.2324,0,0,1,.9405,2.27083v3.75176a3.19183,3.19183,0,0,1-.9405,2.27084l-2.92482,2.92482a1.42246,1.42246,0,0,0-.41527,1.00114v2.21138a1.4172,1.4172,0,0,0,1.4156,1.4156Z"/><path class="cls-2" d="M345.43517,69.40128h2.21147a1.8359,1.8359,0,0,1,1.28966.53363l2.924,2.92482a2.78558,2.78558,0,0,0,1.98229.82133h3.7526a2.78487,2.78487,0,0,0,1.98228-.82133l2.92482-2.92482a1.83588,1.83588,0,0,1,1.28966-.53363h2.21065a1.8258,1.8258,0,0,1,1.82361,1.8237v6.9408a1.82585,1.82585,0,0,1-1.82361,1.8237H363.792a1.83433,1.83433,0,0,1-1.28966-.53485l-2.92482-2.92482a2.82426,2.82426,0,0,0-1.98228-.821h-3.7526a2.82556,2.82556,0,0,0-1.98229.821l-2.924,2.92482a1.83433,1.83433,0,0,1-1.28966.53485h-2.21147a1.82585,1.82585,0,0,1-1.82361-1.8237V71.225A1.8258,1.8258,0,0,1,345.43517,69.40128Zm12.16,4.68787h-3.7526a3.1897,3.1897,0,0,1-2.27081-.9409l-2.924-2.92482a1.42678,1.42678,0,0,0-1.00114-.414h-2.21147a1.41719,1.41719,0,0,0-1.41552,1.4156v6.9408a1.41724,1.41724,0,0,0,1.41552,1.4156h2.21147a1.42337,1.42337,0,0,0,1.00073-.41528l2.92441-2.92482a3.235,3.235,0,0,1,2.27081-.94057h3.7526a3.235,3.235,0,0,1,2.2708.94057l2.92482,2.92482a1.425,1.425,0,0,0,1.00114.41528h2.21065a1.417,1.417,0,0,0,1.41552-1.4156V71.225a1.41692,1.41692,0,0,0-1.41552-1.4156H363.792a1.42662,1.42662,0,0,0-1.00114.414L359.866,73.14825A3.18914,3.18914,0,0,1,357.59519,74.08915Z"/><path class="cls-2" d="M363.792,14.22117h2.21065a1.82578,1.82578,0,0,1,1.82361,1.82362v6.9408a1.8258,1.8258,0,0,1-1.82361,1.8237H363.792a1.83572,1.83572,0,0,1-1.28012-.52522l-.00995-.00963-2.115-2.11459a1.8155,1.8155,0,0,1-.53362-1.29V18.15978a1.81683,1.81683,0,0,1,.53321-1.29l1.785-1.78427c.177-.177.27384-.27334.3348-.32639l-.004-.00392A1.83346,1.83346,0,0,1,363.792,14.22117Zm2.21065,10.18a1.41719,1.41719,0,0,0,1.41552-1.4156v-6.9408a1.41691,1.41691,0,0,0-1.41552-1.41552H363.792a1.42253,1.42253,0,0,0-1.00073.41446l-.00237.00237c-.04228.04146-1.39887,1.39764-2.11344,2.11222a1.40992,1.40992,0,0,0-.41406,1.00146v2.71008a1.4116,1.4116,0,0,0,.41406,1.00188l2.10585,2.105.01.00914a1.423,1.423,0,0,0,1.00073.41528Z"/><path class="cls-2" d="M345.43517,14.22117h2.21147a1.82956,1.82956,0,0,1,1.28885.53436l-.004.004c.061.05265.15785.14945.33439.326l1.78542,1.78427a1.81727,1.81727,0,0,1,.53362,1.29v2.71008a1.81854,1.81854,0,0,1-.53322,1.29l-2.1154,2.11459-.01477.01322a1.82943,1.82943,0,0,1-1.27489.52163h-2.21147a1.8258,1.8258,0,0,1-1.82361-1.8237v-6.9408A1.82578,1.82578,0,0,1,345.43517,14.22117Zm3.21457.82615-.004-.004a1.41734,1.41734,0,0,0-.9991-.414h-2.21147a1.41717,1.41717,0,0,0-1.41552,1.41552v6.9408a1.41745,1.41745,0,0,0,1.41552,1.4156h2.21147a1.41784,1.41784,0,0,0,.9991-.41487l.01477-.01355,2.10226-2.10144a1.41166,1.41166,0,0,0,.41406-1.00147V18.15978a1.412,1.412,0,0,0-.41446-1.00187C350.0526,16.44856,348.70352,15.09989,348.64974,15.04732Z"/><path class="cls-1" d="M72.74947,10.26274h68.94582a2.31341,2.31341,0,0,1,2.31341,2.31341V81.522a2.31341,2.31341,0,0,1-2.31341,2.31341H72.74915A2.31349,2.31349,0,0,1,70.43566,81.522V12.57656A2.31381,2.31381,0,0,1,72.74947,10.26274Z"/><path class="cls-2" d="M131.341,34.1459h6.94162a2.62269,2.62269,0,0,1,2.61956,2.61955v2.21144a2.60091,2.60091,0,0,1-.76681,1.85237L137.211,43.75368a1.99358,1.99358,0,0,0-.58864,1.42v3.75176a1.98987,1.98987,0,0,0,.58823,1.41873l2.92482,2.92523a2.60259,2.60259,0,0,1,.76681,1.85283v2.21139a2.62231,2.62231,0,0,1-2.61956,2.61915H131.341a2.62193,2.62193,0,0,1-2.61875-2.61915V55.1222a2.60553,2.60553,0,0,1,.76722-1.85242l2.92523-2.92523a2.02117,2.02117,0,0,0,.58823-1.41914V45.17365a1.99621,1.99621,0,0,0-.58823-1.42l-2.92482-2.92442a2.60408,2.60408,0,0,1-.76763-1.85237V36.76545A2.62231,2.62231,0,0,1,131.341,34.1459Zm6.94162,25.1947a2.00953,2.00953,0,0,0,2.00742-2.007V55.1222a1.99479,1.99479,0,0,0-.58782-1.42l-2.924-2.92482a2.59708,2.59708,0,0,1-.768-1.852V45.17365a2.60028,2.60028,0,0,1,.768-1.85277l2.924-2.92442a1.99385,1.99385,0,0,0,.58782-1.41957V36.76545a2.00988,2.00988,0,0,0-2.00742-2.0074H131.341a2.0095,2.0095,0,0,0-2.0066,2.0074v2.21144a1.998,1.998,0,0,0,.58863,1.42l2.92441,2.924a2.605,2.605,0,0,1,.76763,1.85277v3.75176a2.63748,2.63748,0,0,1-.76763,1.852l-2.92481,2.92482a1.99857,1.99857,0,0,0-.58823,1.42v2.21139a2.00914,2.00914,0,0,0,2.0066,2.007Z"/><path class="cls-2" d="M76.16172,34.1459h6.9408a2.62282,2.62282,0,0,1,2.62,2.61955v2.21144a2.60087,2.60087,0,0,1-.76681,1.85237l-2.92481,2.92442a1.99484,1.99484,0,0,0-.58823,1.42v3.75176a1.99147,1.99147,0,0,0,.58823,1.41914l2.92481,2.92482a2.60254,2.60254,0,0,1,.76681,1.85283v2.21139a2.62244,2.62244,0,0,1-2.62,2.61915h-6.9408A2.62166,2.62166,0,0,1,73.543,57.33359V55.1222a2.605,2.605,0,0,1,.76641-1.85242l2.926-2.92523a2.0207,2.0207,0,0,0,.58741-1.41914V45.17365a1.99586,1.99586,0,0,0-.58782-1.42l-2.92523-2.924a2.6055,2.6055,0,0,1-.76673-1.85277V36.76545A2.622,2.622,0,0,1,76.16172,34.1459Zm6.9408,25.1947a2.00967,2.00967,0,0,0,2.00783-2.007V55.1222a1.99415,1.99415,0,0,0-.58749-1.42L81.598,50.77738a2.59934,2.59934,0,0,1-.76755-1.852V45.17365a2.60319,2.60319,0,0,1,.76755-1.85277l2.92482-2.92442a1.99321,1.99321,0,0,0,.58749-1.41957V36.76545a2.01,2.01,0,0,0-2.00783-2.0074h-6.9408a2.00918,2.00918,0,0,0-2.0066,2.0074v2.21144a1.99713,1.99713,0,0,0,.58741,1.42l2.92523,2.924a2.60421,2.60421,0,0,1,.76713,1.85277v3.75176a2.60151,2.60151,0,0,1-.76673,1.852L74.74253,53.7022a1.99638,1.99638,0,0,0-.58741,1.42v2.21139a2.00883,2.00883,0,0,0,2.0066,2.007Z"/><path class="cls-2" d="M96.93867,68.54984h2.21146a2.5985,2.5985,0,0,1,1.85161.76681l2.92515,2.92482a2.02005,2.02005,0,0,0,1.41919.58823h3.7526a1.99145,1.99145,0,0,0,1.41911-.58823l2.92482-2.92482a2.59993,2.59993,0,0,1,1.85283-.76681h2.21065a2.62322,2.62322,0,0,1,2.6203,2.62v6.94081a2.62269,2.62269,0,0,1-2.6203,2.61874h-2.21065a2.60272,2.60272,0,0,1-1.85283-.76681l-2.92482-2.92563a2.02068,2.02068,0,0,0-1.41911-.58741h-3.7526a2.021,2.021,0,0,0-1.41919.58741l-2.92515,2.92563a2.6013,2.6013,0,0,1-1.85161.76681H96.93867a2.62234,2.62234,0,0,1-2.61989-2.61874V71.16981A2.62287,2.62287,0,0,1,96.93867,68.54984Zm12.16,4.892h-3.7526a2.63476,2.63476,0,0,1-1.85194-.76762L100.5685,69.7494a1.99008,1.99008,0,0,0-1.41837-.58741H96.93867a2.01,2.01,0,0,0-2.00775,2.00782v6.94081a2.00956,2.00956,0,0,0,2.00775,2.0066h2.21146a1.99121,1.99121,0,0,0,1.41837-.58749l2.92564-2.92556a2.637,2.637,0,0,1,1.85194-.76681h3.7526a2.60069,2.60069,0,0,1,1.85194.76681l2.92522,2.92556a1.99254,1.99254,0,0,0,1.4196.58749h2.21065a2.00992,2.00992,0,0,0,2.00816-2.0066V71.16981a2.01038,2.01038,0,0,0-2.00816-2.00782h-2.21065a1.99285,1.99285,0,0,0-1.4196.587l-2.92522,2.92523A2.59906,2.59906,0,0,1,109.09868,73.44184Z"/><path class="cls-2" d="M115.29544,13.36933h2.21065a2.62349,2.62349,0,0,1,2.6203,2.62029v6.94081a2.62264,2.62264,0,0,1-2.6203,2.61874h-2.21065a2.603,2.603,0,0,1-1.85283-.76673l.004-.004c-.06856-.06057-.169-.161-.33431-.3264l-1.78469-1.7846a2.60342,2.60342,0,0,1-.768-1.85275V18.10462a2.6006,2.6006,0,0,1,.768-1.85275l2.11467-2.115A2.60058,2.60058,0,0,1,115.29544,13.36933Zm2.21065,11.5677a2.00986,2.00986,0,0,0,2.00816-2.0066V15.98962a2.01071,2.01071,0,0,0-2.00816-2.00815h-2.21065a1.99287,1.99287,0,0,0-1.42041.58823l-2.11459,2.115a1.99349,1.99349,0,0,0-.58864,1.41993V20.8147a1.99651,1.99651,0,0,0,.58864,1.41992l2.11222,2.11222.00318.00278a1.99416,1.99416,0,0,0,1.4196.58741Z"/><path class="cls-2" d="M96.93867,13.36933h2.21146a2.60314,2.60314,0,0,1,1.85276.76754l2.11426,2.115a2.601,2.601,0,0,1,.76835,1.85275V20.8147a2.6038,2.6038,0,0,1-.76835,1.85275l-1.78469,1.7846c-.16576.16536-.26616.26583-.33472.3268l.004.00359a2.60155,2.60155,0,0,1-1.85161.76673H96.93867a2.62229,2.62229,0,0,1-2.61989-2.61874V15.98962A2.62314,2.62314,0,0,1,96.93867,13.36933Zm3.63465,10.97555c.06138-.06023,1.40483-1.40368,2.111-2.11026a1.99524,1.99524,0,0,0,.589-1.41992V18.10462a1.99222,1.99222,0,0,0-.589-1.41952l-2.11459-2.1154a1.99479,1.99479,0,0,0-1.4196-.58823H96.93867a2.01036,2.01036,0,0,0-2.00775,2.00815v6.94081a2.00951,2.00951,0,0,0,2.00775,2.0066h2.21146a1.99283,1.99283,0,0,0,1.41837-.58741Z"/><path class="cls-3" d="M72.74947,9.85465h68.94581a2.72465,2.72465,0,0,1,2.72151,2.72158V81.522a2.72463,2.72463,0,0,1-2.72151,2.7215H72.74947a2.725,2.725,0,0,1-2.72191-2.7215V12.57623A2.725,2.725,0,0,1,72.74947,9.85465Zm68.94581,73.57271A1.90757,1.90757,0,0,0,143.6006,81.522V12.57623a1.90764,1.90764,0,0,0-1.90532-1.90539H72.74947a1.90773,1.90773,0,0,0-1.90572,1.90539V81.522a1.90765,1.90765,0,0,0,1.90572,1.90531Z"/><path class="cls-2" d="M72.74947,11.216h68.94581a1.36217,1.36217,0,0,1,1.361,1.36018V81.522a1.36262,1.36262,0,0,1-1.361,1.36132H72.74947A1.36228,1.36228,0,0,1,71.38888,81.522V12.57623A1.36183,1.36183,0,0,1,72.74947,11.216Zm68.94581,71.25923a.95428.95428,0,0,0,.95291-.95323V12.57623a.95377.95377,0,0,0-.95291-.95208H72.74947a.95343.95343,0,0,0-.9525.95208V81.522a.95394.95394,0,0,0,.9525.95323Z"/><path class="cls-2" d="M131.341,34.94177h6.94162a1.82583,1.82583,0,0,1,1.8237,1.82368v2.21144a1.81138,1.81138,0,0,1-.534,1.28925l-2.92441,2.92521a2.78131,2.78131,0,0,0-.82215,1.9823v3.75176a2.78409,2.78409,0,0,0,.82215,1.98231l2.92441,2.92482a1.836,1.836,0,0,1,.534,1.28966v2.21139a1.82582,1.82582,0,0,1-1.8237,1.8237H131.341a1.8258,1.8258,0,0,1-1.82361-1.8237V55.1222a1.83222,1.83222,0,0,1,.536-1.29007l2.924-2.92441a2.78508,2.78508,0,0,0,.8206-1.98231V45.17365a2.78218,2.78218,0,0,0-.8206-1.9823L130.053,40.26614a1.80709,1.80709,0,0,1-.53558-1.28925V36.76545A1.82581,1.82581,0,0,1,131.341,34.94177Zm6.94162,23.80742a1.4172,1.4172,0,0,0,1.4156-1.4156V55.1222a1.42591,1.42591,0,0,0-.41446-1.00114l-2.92441-2.92481a3.1877,3.1877,0,0,1-.94172-2.27084V45.17365a3.18644,3.18644,0,0,1,.94172-2.27123l2.92441-2.92482a1.40782,1.40782,0,0,0,.41446-1.00071V36.76545a1.417,1.417,0,0,0-1.4156-1.41558H131.341a1.41719,1.41719,0,0,0-1.41552,1.41558v2.21144a1.40411,1.40411,0,0,0,.41561,1.00071l2.92481,2.92522a3.18772,3.18772,0,0,1,.94017,2.27083v3.75176a3.19127,3.19127,0,0,1-.94017,2.27084l-2.92441,2.92481a1.42149,1.42149,0,0,0-.416,1.00114v2.21139a1.41745,1.41745,0,0,0,1.41552,1.4156Z"/><path class="cls-2" d="M76.16172,34.94177h6.9408a1.82588,1.82588,0,0,1,1.82369,1.82368v2.21144a1.81159,1.81159,0,0,1-.53362,1.28925l-2.92481,2.92521a2.78262,2.78262,0,0,0-.82142,1.9823v3.75176a2.78527,2.78527,0,0,0,.82142,1.98231l2.92481,2.92482a1.8359,1.8359,0,0,1,.53362,1.28966v2.21139a1.82586,1.82586,0,0,1-1.82369,1.8237h-6.9408a1.82581,1.82581,0,0,1-1.82369-1.8237V55.1222a1.83432,1.83432,0,0,1,.53485-1.28966l2.92481-2.92482a2.78753,2.78753,0,0,0,.82093-1.98231V45.17365a2.82234,2.82234,0,0,0-.82093-1.9823l-2.92481-2.92521a1.80908,1.80908,0,0,1-.53485-1.28925V36.76545A1.82583,1.82583,0,0,1,76.16172,34.94177Zm6.9408,23.80742a1.41752,1.41752,0,0,0,1.4156-1.4156V55.1222a1.42565,1.42565,0,0,0-.41413-1.00114l-2.92482-2.92481a3.19035,3.19035,0,0,1-.9409-2.27084V45.17365a3.18837,3.18837,0,0,1,.9409-2.27123L84.104,39.9776a1.40507,1.40507,0,0,0,.41413-1.00071V36.76545a1.41726,1.41726,0,0,0-1.4156-1.41558h-6.9408a1.417,1.417,0,0,0-1.4156,1.41558v2.21144A1.4051,1.4051,0,0,0,75.161,39.9776l2.92523,2.92522a3.23239,3.23239,0,0,1,.94049,2.27083v3.75176a3.19188,3.19188,0,0,1-.94049,2.27084L75.1614,54.12106a1.42248,1.42248,0,0,0-.41528,1.00114v2.21139a1.4172,1.4172,0,0,0,1.4156,1.4156Z"/><path class="cls-2" d="M96.93867,69.34612h2.21146a1.836,1.836,0,0,1,1.28967.53362l2.924,2.92482a2.78549,2.78549,0,0,0,1.98228.82133h3.7526a2.78482,2.78482,0,0,0,1.98228-.82133l2.92482-2.92482a1.836,1.836,0,0,1,1.28966-.53362h2.21065a1.8258,1.8258,0,0,1,1.82362,1.82369v6.94081a1.82585,1.82585,0,0,1-1.82362,1.82369h-2.21065a1.83432,1.83432,0,0,1-1.28966-.53485L111.081,76.47464a2.82423,2.82423,0,0,0-1.98228-.821h-3.7526a2.82553,2.82553,0,0,0-1.98228.821l-2.924,2.92482a1.83433,1.83433,0,0,1-1.28967.53485H96.93867a1.82585,1.82585,0,0,1-1.82362-1.82369V71.16981A1.8258,1.8258,0,0,1,96.93867,69.34612Zm12.16,4.68787h-3.7526a3.18968,3.18968,0,0,1-2.27081-.94091l-2.924-2.92481a1.42679,1.42679,0,0,0-1.00114-.41406H96.93867a1.41719,1.41719,0,0,0-1.41552,1.4156v6.94081a1.41724,1.41724,0,0,0,1.41552,1.4156h2.21146a1.42339,1.42339,0,0,0,1.00073-.41528l2.92441-2.92482a3.235,3.235,0,0,1,2.27081-.94058h3.7526a3.23493,3.23493,0,0,1,2.2708.94058l2.92482,2.92482a1.42509,1.42509,0,0,0,1.00114.41528h2.21065a1.417,1.417,0,0,0,1.41552-1.4156V71.16981a1.41693,1.41693,0,0,0-1.41552-1.4156h-2.21065a1.42665,1.42665,0,0,0-1.00114.41406l-2.92482,2.92481A3.18909,3.18909,0,0,1,109.09868,74.034Z"/><path class="cls-2" d="M115.29544,14.166h2.21065a1.82578,1.82578,0,0,1,1.82362,1.82361v6.94081a1.8258,1.8258,0,0,1-1.82362,1.82369h-2.21065a1.83565,1.83565,0,0,1-1.28011-.52522l-.01-.00963-2.115-2.11458a1.81553,1.81553,0,0,1-.53363-1.29V18.10462a1.81683,1.81683,0,0,1,.53322-1.29l1.785-1.78427c.17695-.17695.27383-.27335.3348-.3264l-.004-.00392A1.83353,1.83353,0,0,1,115.29544,14.166Zm2.21065,10.18a1.41719,1.41719,0,0,0,1.41552-1.4156V15.98962a1.4169,1.4169,0,0,0-1.41552-1.41551h-2.21065a1.42253,1.42253,0,0,0-1.00073.41446l-.00237.00236c-.04228.04147-1.39887,1.39765-2.11344,2.11222a1.41,1.41,0,0,0-.41405,1.00147V20.8147a1.41157,1.41157,0,0,0,.41405,1.00187l2.10585,2.105.01.00914a1.42307,1.42307,0,0,0,1.00073.41528Z"/><path class="cls-2" d="M96.93867,14.166h2.21146a1.8295,1.8295,0,0,1,1.28885.53436l-.004.004c.061.05264.15785.14944.33439.326l1.78542,1.78427a1.81722,1.81722,0,0,1,.53363,1.29V20.8147a1.81856,1.81856,0,0,1-.53322,1.29l-2.1154,2.11458-.01478.01323a1.82946,1.82946,0,0,1-1.27489.52162H96.93867a1.8258,1.8258,0,0,1-1.82362-1.82369V15.98962A1.82578,1.82578,0,0,1,96.93867,14.166Zm3.21456.82615-.004-.004a1.41734,1.41734,0,0,0-.9991-.41405H96.93867a1.41717,1.41717,0,0,0-1.41552,1.41551v6.94081a1.41745,1.41745,0,0,0,1.41552,1.4156h2.21146a1.41786,1.41786,0,0,0,.9991-.41487l.01478-.01355,2.10226-2.10145a1.41167,1.41167,0,0,0,.414-1.00146V18.10462a1.412,1.412,0,0,0-.41446-1.00187C101.55609,16.39339,100.207,15.04472,100.15323,14.99216Z"/><rect class="cls-9" width="462.89712" height="313.91874"/></g></g></svg>