<svg xmlns="http://www.w3.org/2000/svg" viewBox="-120.541 0 555 300.617"><defs><style>.cls-2{fill:#9e9e9f}.cls-3{fill:#c8c9ca}.cls-5{fill:#ddd583}.cls-7{fill:#231815}.cls-8{fill:#bfd833}.cls-9{fill:#666}</style></defs><g id="レイヤー_2" data-name="レイヤー 2"><g id="レイヤー_2-2" data-name="レイヤー 2"><path d="M75.778 81.344h168.945a5.67 5.67 0 015.67 5.67v168.945a5.667 5.667 0 01-5.667 5.667H75.776a5.667 5.667 0 01-5.667-5.667V87.014a5.67 5.67 0 015.67-5.67z" fill="#fff"/><path class="cls-2" d="M244.723 258.725H75.777a2.771 2.771 0 01-2.767-2.769V87.011a2.77 2.77 0 012.767-2.768h168.946a2.77 2.77 0 012.766 2.768v168.945a2.77 2.77 0 01-2.766 2.769zM75.777 85.243a1.77 1.77 0 00-1.767 1.768v168.945a1.77 1.77 0 001.767 1.769h168.946a1.77 1.77 0 001.766-1.769V87.011a1.769 1.769 0 00-1.766-1.768z"/><path class="cls-2" d="M114.327 171.492a.5.5 0 01-.5-.5v-42.101a.5.5 0 011 0v42.101a.5.5 0 01-.5.5z"/><path class="cls-2" d="M114.327 171.742H90.103a.75.75 0 01-.75-.75v-42.101a.749.749 0 01.75-.75H114.372l.26.017a.776.776 0 01.085.01l.26.044a.887.887 0 01.089.022l.257.078a.986.986 0 01.07.025l.263.11a.705.705 0 01.077.037l.26.145a.516.516 0 01.074.047l.258.186a.86.86 0 01.057.046l.26.227c.02.018.039.037.057.057l.255.278a.828.828 0 01.045.055l.25.33c.014.02.028.04.041.062l.236.389a.84.84 0 01.034.061l.22.454c.01.02.018.04.026.06l.2.523a.72.72 0 01.02.06l.172.595c.006.02.01.042.015.062l.135.678.009.06.087.757a.58.58 0 01.004.059l.032.844.069 5.199.038 5.182.01 5.04-.01 5.043-.038 5.18-.068 5.186-.033.858a.542.542 0 01-.004.058l-.087.76c-.002.02-.006.04-.01.06l-.134.677a.763.763 0 01-.015.062l-.172.596a.616.616 0 01-.02.06l-.2.522-.026.06-.22.453a.563.563 0 01-.034.061l-.236.39a.753.753 0 01-.042.062l-.249.33a.948.948 0 01-.047.056l-.255.277a.714.714 0 01-.053.053l-.26.23a.991.991 0 01-.06.049l-.258.183a.58.58 0 01-.069.044l-.262.148c-.024.013-.05.025-.075.037l-.262.11a.675.675 0 01-.08.029l-.257.076a.627.627 0 01-.084.02l-.26.045a.587.587 0 01-.084.01l-.26.016-.046.001zm-23.474-1.5h23.452l.196-.011.175-.031.176-.052.185-.078.189-.107.193-.138.201-.178.204-.222.203-.27.199-.327.19-.392.178-.462.154-.535.122-.616.08-.7.03-.813.069-5.162.038-5.173.01-5.035-.01-5.032-.038-5.175-.068-5.175-.03-.798-.08-.698-.123-.617-.154-.535-.178-.463-.19-.393-.199-.326-.204-.272-.203-.221-.201-.178-.193-.139-.186-.103-.188-.078-.178-.054-.173-.03-.196-.012H90.853zM122.832 247.67a13.256 13.256 0 1113.258-13.256 13.27 13.27 0 01-13.258 13.256zm0-25.512a12.256 12.256 0 1012.258 12.256 12.27 12.27 0 00-12.258-12.256zM100.155 255.324H81.447a5.042 5.042 0 01-5.037-5.035V218.54a5.043 5.043 0 015.037-5.037h18.708a5.042 5.042 0 015.037 5.037v31.75a5.04 5.04 0 01-5.037 5.034zm-18.708-40.82a4.042 4.042 0 00-4.037 4.036v31.75a4.04 4.04 0 004.037 4.034h18.708a4.04 4.04 0 004.037-4.035V218.54a4.04 4.04 0 00-4.037-4.037zM160.25 255.891a19.798 19.798 0 01-19.776-19.775v-3.404a19.776 19.776 0 0139.551 0v3.404a19.798 19.798 0 01-19.776 19.775zm0-41.953a18.796 18.796 0 00-18.776 18.774v3.404a18.776 18.776 0 0037.551 0v-3.404a18.796 18.796 0 00-18.776-18.774zM160.25 121.211a17.758 17.758 0 1117.759-17.758 17.777 17.777 0 01-17.76 17.758zm0-34.015a16.258 16.258 0 1016.259 16.257 16.275 16.275 0 00-16.26-16.257zM206.169 171.492a.501.501 0 01-.5-.5v-42.101a.5.5 0 011 0v42.101a.5.5 0 01-.5.5z"/><path class="cls-2" d="M230.396 171.742h-24.227l-.045-.001-.259-.016a.58.58 0 01-.084-.01l-.26-.045a.635.635 0 01-.083-.02l-.258-.076a.675.675 0 01-.08-.029l-.262-.11a1.043 1.043 0 01-.075-.037l-.262-.148a.56.56 0 01-.068-.044l-.258-.183a.937.937 0 01-.06-.049l-.26-.23a.714.714 0 01-.054-.053l-.255-.277a.877.877 0 01-.047-.056l-.249-.33a.669.669 0 01-.042-.063l-.236-.389a.6.6 0 01-.033-.061l-.221-.453a1.24 1.24 0 01-.026-.06l-.2-.521a.616.616 0 01-.02-.06l-.172-.597a.688.688 0 01-.015-.062l-.134-.677-.01-.06-.087-.76a.543.543 0 01-.004-.058l-.031-.841-.07-5.202-.038-5.18-.01-5.043.01-5.04.038-5.181.069-5.185.032-.86a.58.58 0 01.004-.059l.088-.757a.654.654 0 01.008-.06l.135-.678a.709.709 0 01.015-.062l.172-.595a.72.72 0 01.02-.06l.2-.524.026-.06.22-.453a.923.923 0 01.034-.061l.236-.389a.794.794 0 01.042-.062l.25-.33a.769.769 0 01.044-.055l.255-.278c.018-.02.038-.04.058-.057l.26-.227a.77.77 0 01.056-.046l.258-.186a.515.515 0 01.074-.047l.26-.145a.706.706 0 01.077-.037l.263-.11a.958.958 0 01.07-.025l.258-.078a.882.882 0 01.089-.022l.26-.045a.765.765 0 01.083-.01l.26-.015.044-.001h24.227a.749.749 0 01.75.75v42.101a.75.75 0 01-.75.75zm-24.204-1.5h23.454v-40.601h-23.454l-.195.012-.173.03-.177.054-.189.078-.185.103-.194.139-.201.178-.203.221-.204.272-.198.326-.19.393-.179.463-.154.535-.122.617-.08.698-.03.815-.069 5.16-.038 5.174-.01 5.032.01 5.036.038 5.173.069 5.176.03.796.08.7.122.617.154.535.177.462.192.392.198.328.203.269.204.222.201.178.194.138.188.107.186.078.175.052.175.03z"/><path class="cls-3" d="M98.618 175.566a3.853 3.853 0 00-1.311-.229c-.54 0-1.092.187-1.092.783 0 .483.318.714 1.2 1.06 1.071.454 1.69.87 1.69 1.875 0 1.219-1.04 1.719-2.132 1.719a5.056 5.056 0 01-1.833-.305l.223-.843a4.26 4.26 0 001.594.365c.703 0 1.177-.29 1.177-.865 0-.516-.46-.8-1.327-1.143-1.006-.404-1.58-.911-1.58-1.777 0-1.182 1.048-1.68 2.032-1.68a4.778 4.778 0 011.553.238zm3.314 5.208a2.338 2.338 0 10-2.186-2.333 2.087 2.087 0 002.186 2.333m0-3.932c.833 0 1.218.666 1.218 1.599 0 .953-.385 1.617-1.218 1.617-.823 0-1.21-.664-1.21-1.617 0-.933.376-1.599 1.21-1.599m2.916-.636v4.506h.962v-2.508c0-.992.569-1.362 1.101-1.362.727 0 .922.48.922 1.255v2.615h.988v-2.982a1.524 1.524 0 00-1.647-1.622 1.504 1.504 0 00-1.365.726h-.019v-.628zm5.423 0h-1.063l1.78 4.37-.73 1.76h1.012l2.446-6.13h-1.017l-1.21 3.308h-.011zm47.254 4.506h3.584v-.842h-2.584v-1.884h2.292v-.816h-2.292v-1.73h2.503v-.807h-3.503zm4.365-4.506v4.506h.966v-2.508c0-.992.55-1.362 1.101-1.362.735 0 .93.48.93 1.255v2.615h.954v-2.982a1.637 1.637 0 00-2.998-.896h-.013v-.628zm-43.816 0v4.506h.982v-2.508c0-.992.563-1.362 1.09-1.362.742 0 .944.48.944 1.255v2.615h.967v-2.982a1.514 1.514 0 00-1.631-1.622 1.541 1.541 0 00-1.386.726h-.013v-.628zm48.247.735h.746v2.528c0 .826.185 1.273 1.196 1.273.262 0 .544-.014.746-.03v-.74a3.267 3.267 0 01-.457.036c-.464 0-.524-.106-.524-.72v-2.347h.985v-.735h-.985v-1.167h-.96v1.167h-.747zm7.192 1.784v-.412c0-1.341-.66-2.205-1.956-2.205a2.119 2.119 0 00-2.115 2.346 2.19 2.19 0 002.39 2.32 3.585 3.585 0 001.353-.203l-.126-.716a3.15 3.15 0 01-1.132.203 1.39 1.39 0 01-1.542-1.333zm-3.128-.709a1.202 1.202 0 011.172-1.218 1.046 1.046 0 011.05 1.194v.024h-2.222m6.136-1.9a1.533 1.533 0 00-.168-.008 1.161 1.161 0 00-1.16.69h-.024v-.592h-.94v4.506h.976v-2.391c0-1.085.476-1.453 1.063-1.453.085 0 .15 0 .206.002zm-53.98.825h.737v2.528c0 .826.193 1.273 1.23 1.273.25 0 .538-.014.72-.03v-.74a2.984 2.984 0 01-.435.036c-.47 0-.518-.106-.518-.72v-2.347h.956v-.735h-.956v-1.167h-.997v1.167h-.737zm18.786 0h.764v2.528c0 .826.164 1.273 1.21 1.273.255 0 .526-.014.74-.03v-.74a3.287 3.287 0 01-.459.036c-.468 0-.523-.106-.523-.72v-2.347h.982v-.735h-.982v-1.167h-.968v1.167h-.764zm-11.584 1.784v-.412c0-1.341-.666-2.205-1.942-2.205a2.118 2.118 0 00-2.135 2.346 2.186 2.186 0 002.386 2.32 3.55 3.55 0 001.351-.203l-.128-.716a3.233 3.233 0 01-1.138.203 1.391 1.391 0 01-1.524-1.333zm-3.13-.709a1.206 1.206 0 011.188-1.218 1.04 1.04 0 011.026 1.194v.024h-2.214m28.342.709v-.412c0-1.341-.66-2.205-1.935-2.205a2.128 2.128 0 00-2.143 2.346 2.197 2.197 0 002.406 2.32 3.469 3.469 0 001.335-.203l-.136-.716a2.974 2.974 0 01-1.105.203 1.409 1.409 0 01-1.567-1.333zm-3.145-.709a1.226 1.226 0 011.21-1.218 1.053 1.053 0 011.04 1.194v.024h-2.25m-19.019-1.9c-.086-.005-.122-.008-.182-.008a1.169 1.169 0 00-1.177.69h-.013v-.592h-.94v4.506h.958v-2.391c0-1.085.495-1.453 1.088-1.453.084 0 .135 0 .196.002zm44.385.825h.633v2.528c0 .826.195 1.273 1.206 1.273.265 0 .55-.014.756-.03v-.74a3.16 3.16 0 01-.464.036c-.438 0-.532-.106-.532-.72v-2.347h1.008v-.735h-1.008v-1.167h-.966v1.167h-.633zm5.88.934c-1.528 0-2.827.242-2.827 1.542 0 1.034.783 1.357 1.54 1.357a1.445 1.445 0 001.36-.696h.021a3.12 3.12 0 00.1.634h.849a8.588 8.588 0 01-.056-1.045v-1.901c0-1.083-.658-1.658-1.956-1.658a4.47 4.47 0 00-1.418.26l.202.716a3.264 3.264 0 011.154-.242c.72 0 1.032.328 1.032.924zm0 .633v.355a1.108 1.108 0 01-1.161 1.215.66.66 0 01-.742-.703c0-.7.818-.867 1.721-.867zm-47.16-.633c-1.511 0-2.819.242-2.819 1.542 0 1.034.772 1.357 1.552 1.357a1.471 1.471 0 001.36-.696h.016a3.993 3.993 0 00.09.634h.847a6.361 6.361 0 01-.073-1.045v-1.901c0-1.083-.633-1.658-1.92-1.658a4.27 4.27 0 00-1.416.26l.19.716a3.25 3.25 0 011.145-.242c.72 0 1.028.328 1.028.924zm0 .633v.355a1.099 1.099 0 01-1.136 1.215.67.67 0 01-.767-.703c0-.7.828-.867 1.728-.867zm50.156-4.013h-.978v.902h.978zm-.016 1.711h-.962v4.506h.962zm-40.204-1.71h-.992v.9h.992zm-.023 1.71h-.97v4.506h.97zm41.258 0v4.506h.966v-2.508c0-.992.57-1.362 1.102-1.362.73 0 .924.48.924 1.255v2.615h.971v-2.982a1.505 1.505 0 00-1.628-1.622 1.546 1.546 0 00-1.384.726h-.008v-.628zm4.958 0v4.506h.977v-2.553c0-.947.479-1.317 1.008-1.317.73 0 .87.453.87 1.203v2.667h.966v-2.756a.98.98 0 01.986-1.114c.708 0 .855.51.855 1.255v2.615h.984v-2.982a1.477 1.477 0 00-1.614-1.622 1.52 1.52 0 00-1.397.726h-.038a1.314 1.314 0 00-1.321-.726 1.403 1.403 0 00-1.305.742h-.025v-.644zm11.402 2.519v-.412c0-1.341-.657-2.205-1.93-2.205a2.126 2.126 0 00-2.14 2.346 2.191 2.191 0 002.408 2.32 3.515 3.515 0 001.33-.203l-.13-.716a3.102 3.102 0 01-1.138.203 1.408 1.408 0 01-1.537-1.333zm-3.137-.709a1.225 1.225 0 011.207-1.218 1.058 1.058 0 011.031 1.194v.024h-2.238m3.87-1.81v4.506h.947v-2.508c0-.992.554-1.362 1.105-1.362.76 0 .93.48.93 1.255v2.615h.977v-2.982a1.653 1.653 0 00-3.021-.896h-.02v-.628zm4.428.735h.734v2.528c0 .826.187 1.273 1.203 1.273.269 0 .547-.014.746-.03v-.74a3.202 3.202 0 01-.444.036c-.443 0-.518-.106-.518-.72v-2.347h.962v-.735h-.962v-1.167h-.987v1.167h-.734zm4.977 3.771h1.023v-6.079h-1.023zm-97.482 0h.982v-6.079h-.982zm99.504-4.506v4.506h.962v-2.508c0-.992.557-1.362 1.101-1.362.753 0 .927.48.927 1.255v2.615h.979v-2.982a1.647 1.647 0 00-3.012-.896h-.025v-.628zm8.037.068a2.737 2.737 0 00-1.026-.166 2.206 2.206 0 00-2.336 2.346 2.156 2.156 0 002.34 2.32 2.282 2.282 0 001.022-.185l-.156-.7a1.593 1.593 0 01-.8.169 1.618 1.618 0 01-.031-3.216 1.967 1.967 0 01.805.158zm-82.706 0a2.81 2.81 0 00-1.034-.166 2.212 2.212 0 00-2.348 2.346 2.162 2.162 0 002.348 2.32 2.333 2.333 0 001.034-.185l-.169-.7a1.613 1.613 0 01-.807.169 1.619 1.619 0 01-.015-3.216 1.985 1.985 0 01.797.158zm83.516 4.438h1.11v-1.126h-1.11zM149.129 180.714l1.688-4.52h-1.04l-1.166 3.632h-.018l-1.185-3.632h-1.076l1.693 4.52h1.104zM198.93 134.517a6.435 6.435 0 10-6.43 6.343 6.396 6.396 0 006.43-6.343zm-.856 0a5.58 5.58 0 11-5.575-5.693 5.6 5.6 0 015.575 5.693zM141.484 137.37a3.855 3.855 0 01-1.152-2.845 4.136 4.136 0 011.152-2.988 4.732 4.732 0 016.192 0 4.136 4.136 0 011.136 2.988 3.746 3.746 0 01-1.136 2.845 4.167 4.167 0 01-3.099 1.292 4.245 4.245 0 01-3.093-1.292zm8.9.753a5.279 5.279 0 001.531-3.598 4.923 4.923 0 00-1.531-3.69 8.24 8.24 0 00-5.807-1.968 9.08 9.08 0 00-5.781 1.962 4.926 4.926 0 00-1.578 3.696 4.991 4.991 0 001.578 3.598 8.815 8.815 0 005.781 1.972 8.7 8.7 0 005.807-1.972zM127.968 128.87a8.748 8.748 0 00-3.756.78 2.88 2.88 0 00-1.969 2.625 2.76 2.76 0 00.735 1.84 3.483 3.483 0 002.14 1.024 30.049 30.049 0 003.12.516c1.243.143 2.49.276 3.005.409.366.11 1.05.262 1.05.927a1.196 1.196 0 01-.828 1.12 5.5 5.5 0 01-2.492.489 9.672 9.672 0 01-2.961-.57 3.88 3.88 0 01-1.732-1.167 1.832 1.832 0 01-.354-1.115h-1.36v3.902h1.511v-.572c0-.069.068-.176.328-.169a15.949 15.949 0 002.263.756 8.881 8.881 0 002.313.31 9.442 9.442 0 003.106-.461 9.217 9.217 0 001.875-.852 2.758 2.758 0 00.987-2.065 2.719 2.719 0 00-.797-2.026 3.134 3.134 0 00-.997-.734 7.15 7.15 0 00-1.23-.454 23.038 23.038 0 00-3.429-.523 25.97 25.97 0 01-3.065-.354.797.797 0 01-.575-.755.942.942 0 01.53-.83 6.78 6.78 0 012.81-.483 8.965 8.965 0 013.269.54 3.002 3.002 0 01.784.5 2.758 2.758 0 01.763 1.314h1.247v-3.445h-1.4v.428c0 .137-.12.32-.381.169a9.9 9.9 0 00-4.51-1.074zM158.265 129.501l6.731 6.17.024-4.15c-.02-.567-.118-.762-.699-.762h-1.275v-1.258h5.77v1.258h-1.239c-.6 0-.635.169-.643.763l.023 7.914h-1.96l-7.759-6.943v4.904c.008.573.027.839.586.839h1.363v1.2h-5.641v-1.2h1.31c.497 0 .476-.503.476-.866v-5.81c0-.41-.057-.801-.805-.801h-1.09v-1.258zM175.321 138.236a4 4 0 00.35-.019.524.524 0 00.255-.255 1.321 1.321 0 00.02-.284v-1.961c0-.047 0-.062-.083-.184-.086-.12-3.515-4.066-3.667-4.275a1.467 1.467 0 00-1.075-.499h-1.172v-1.258h6.738v1.258h-.824c-.176 0-.307.153-.135.327 0 0 2.268 2.822 2.297 2.845.018.036.042.044.057.005.031-.024 2.336-2.818 2.355-2.841.106-.125.025-.336-.203-.336h-.86v-1.258h5.572v1.258h-1.254a1.112 1.112 0 00-.977.406c-.16.193-3.625 4.247-3.731 4.365a.263.263 0 00-.047.187v1.961a1.473 1.473 0 00.028.284.461.461 0 00.269.255 3.377 3.377 0 00.343.019h1.27v1.2h-6.713v-1.2z"/><path class="cls-3" d="M194.228 138.06c.057-.051.05-.051.05-.051a9.75 9.75 0 01-.243-1.781c-.101-.652-.312-1.172-1.148-1.172h-2.091l.106.108v2.853l.079.044h-1.2l.072-.052v-7.151l-.073-.06h3.14a3.504 3.504 0 01.98.122 2.068 2.068 0 01.552 3.727 3.313 3.313 0 01-.552.031c1.026 0 1.156.602 1.255 1.823a4.393 4.393 0 00.338 1.474l.136.086zm-1.318-6.277h-2.114l.106.09v2.316l-.106.086h2.09a1.318 1.318 0 001.457-1.383c0-.617-.456-1.11-1.433-1.11z"/><path d="M177.825 236.116a17.576 17.576 0 01-35.151 0v-3.404a17.576 17.576 0 0135.151 0z" fill="#e5e5e6"/><path class="cls-2" d="M160.25 254.439a18.345 18.345 0 01-18.326-18.323v-3.404a18.326 18.326 0 0136.651 0v3.404a18.345 18.345 0 01-18.326 18.323zm0-38.55a16.843 16.843 0 00-16.826 16.823v3.404a16.826 16.826 0 0033.651 0v-3.404a16.844 16.844 0 00-16.826-16.823zM100.155 253.266H81.447a2.982 2.982 0 01-2.98-2.977V218.54a2.982 2.982 0 012.98-2.977h18.708a2.981 2.981 0 012.979 2.977v31.75a2.981 2.981 0 01-2.979 2.976zm-18.708-36.203a1.48 1.48 0 00-1.48 1.477v31.75a1.48 1.48 0 001.48 1.476h18.708a1.48 1.48 0 001.479-1.477V218.54a1.48 1.48 0 00-1.479-1.477z"/><path class="cls-2" d="M86.549 224.826h8.503a1.65 1.65 0 011.65 1.65v1.703a1.65 1.65 0 01-1.65 1.65H86.55a1.651 1.651 0 01-1.651-1.651v-1.702a1.65 1.65 0 011.649-1.65z"/><path class="cls-2" d="M95.052 230.58h-8.503a2.403 2.403 0 01-2.4-2.402v-1.701a2.403 2.403 0 012.4-2.4h8.503a2.403 2.403 0 012.4 2.4v1.701a2.403 2.403 0 01-2.4 2.401zm-8.503-5.004a.9.9 0 00-.9.9v1.702a.901.901 0 00.9.901h8.503a.901.901 0 00.9-.901v-1.701a.9.9 0 00-.9-.9zM86.55 238.998h8.502a1.65 1.65 0 011.65 1.65v1.703a1.65 1.65 0 01-1.65 1.65h-8.503a1.65 1.65 0 01-1.65-1.65v-1.702a1.65 1.65 0 011.65-1.65z"/><path class="cls-2" d="M95.052 244.751h-8.503a2.403 2.403 0 01-2.4-2.401v-1.701a2.402 2.402 0 012.4-2.4h8.503a2.403 2.403 0 012.4 2.4v1.7a2.403 2.403 0 01-2.4 2.402zm-8.503-5.003a.9.9 0 00-.9.9v1.702a.901.901 0 00.9.901h8.503a.901.901 0 00.9-.901v-1.701a.9.9 0 00-.9-.9z"/><path class="cls-5" d="M85.9 225.741h9.806v3.174H85.9z"/><path class="cls-2" d="M95.705 229.664H85.9a.75.75 0 01-.75-.75v-3.173a.75.75 0 01.75-.75h9.805a.75.75 0 01.75.75v3.173a.75.75 0 01-.75.75zm-9.055-1.5h8.305v-1.673H86.65z"/><path class="cls-5" d="M85.9 239.912h9.806v3.174H85.9z"/><path class="cls-2" d="M95.705 243.836H85.9a.75.75 0 01-.75-.75v-3.174a.75.75 0 01.75-.75h9.805a.75.75 0 01.75.75v3.174a.75.75 0 01-.75.75zm-9.055-1.5h8.305v-1.674H86.65zM122.832 246.219a11.805 11.805 0 1111.805-11.805 11.819 11.819 0 01-11.805 11.805zm0-22.11a10.305 10.305 0 1010.305 10.305 10.316 10.316 0 00-10.305-10.304z"/><path class="cls-2" d="M122.832 243.25a8.836 8.836 0 118.836-8.836 8.846 8.846 0 01-8.836 8.836zm0-16.172a7.336 7.336 0 107.336 7.336 7.344 7.344 0 00-7.336-7.336z"/><path class="cls-2" d="M124.635 230.72a4.11 4.11 0 11-3.605 0l-.447-.917a5.134 5.134 0 104.5 0z"/><path class="cls-2" d="M122.28 227.861h1.106v6.354h-1.106zM213.259 255.04a20.625 20.625 0 1120.626-20.626 20.65 20.65 0 01-20.626 20.626zm0-40.25a19.625 19.625 0 1019.626 19.624 19.65 19.65 0 00-19.626-19.625z"/><path d="M231.684 234.414a18.425 18.425 0 10-18.425 18.425 18.426 18.426 0 0018.425-18.425z" fill="#3e3a39"/><path class="cls-2" d="M213.259 253.59a19.176 19.176 0 1119.175-19.176 19.197 19.197 0 01-19.175 19.175zm0-36.852a17.676 17.676 0 1017.675 17.676 17.696 17.696 0 00-17.675-17.676z"/><path class="cls-2" d="M213.259 241.79a7.377 7.377 0 117.376-7.376 7.386 7.386 0 01-7.376 7.376zm0-13.253a5.877 5.877 0 105.876 5.877 5.884 5.884 0 00-5.876-5.877z"/><path class="cls-2" d="M213.259 236.845a2.431 2.431 0 112.43-2.43 2.435 2.435 0 01-2.43 2.43zm0-3.362a.931.931 0 10.93.931.934.934 0 00-.93-.931z"/><path class="cls-7" d="M80.65 177.743l-.273-.432-.245-.483-.216-.533-.18-.581-.138-.628v-50.289l.138-.627.18-.583.216-.531.245-.484.273-.433.23-.305v56.214l-.23-.305zM89.049 177.743l.272-.432.246-.483.216-.533.18-.581.14-.628v-50.289l-.14-.627-.18-.583-.216-.531-.246-.484-.272-.433-.232-.305v56.214l.232-.305z"/><path class="cls-3" d="M85.7 179.672l.356-.017.352-.055.354-.091.349-.128.344-.167.341-.206.331-.249.322-.292.31-.339.058-.08v-56.214l-.058-.081-.31-.338-.322-.29-.331-.25-.341-.208-.344-.166-.349-.126-.354-.092-.352-.053-.356-.019h-1.701l-.356.019-.353.053-.353.092-.349.126-.345.166-.34.208-.332.25-.322.29-.307.338-.062.081v56.214l.062.08.307.339.322.292.332.249.34.206.345.167.349.128.353.091.353.055.356.017H85.7z"/><path class="cls-2" d="M85.7 180.422H83.963l-.356-.018a.668.668 0 01-.079-.008l-.353-.055a.805.805 0 01-.071-.015l-.354-.09a.595.595 0 01-.072-.023l-.349-.128a.934.934 0 01-.068-.029l-.345-.167a.845.845 0 01-.063-.034l-.34-.206c-.019-.013-.04-.026-.058-.04l-.333-.248c-.02-.015-.037-.03-.055-.046l-.322-.292c-.017-.017-.035-.033-.052-.052l-.307-.339c-.014-.016-.027-.031-.04-.049l-.062-.079a.753.753 0 01-.154-.456v-56.214a.75.75 0 01.15-.45l.06-.081a.844.844 0 01.047-.056l.308-.337a.62.62 0 01.051-.051l.322-.29a.706.706 0 01.052-.044l.333-.25a.623.623 0 01.059-.04l.339-.207a.942.942 0 01.068-.037l.345-.166a.867.867 0 01.068-.029l.349-.126a.73.73 0 01.066-.02l.354-.093a.62.62 0 01.077-.016l.353-.053a.842.842 0 01.073-.007l.356-.019h1.78l.355.019a.88.88 0 01.072.007l.354.053a.66.66 0 01.077.016l.353.093a.495.495 0 01.066.02l.35.126a.964.964 0 01.07.03l.344.165a.87.87 0 01.065.036l.34.208a.645.645 0 01.062.042l.331.25c.018.012.034.027.05.042l.323.29c.017.015.034.032.05.05l.31.337a.822.822 0 01.052.065l.059.08a.743.743 0 01.144.443v56.214a.748.748 0 01-.148.448l-.06.08a.793.793 0 01-.046.058l-.31.339a.777.777 0 01-.05.05l-.322.292-.054.045-.33.248-.062.042-.341.206a.759.759 0 01-.06.032l-.344.168a.824.824 0 01-.07.03l-.35.127a.65.65 0 01-.072.023l-.353.09a.902.902 0 01-.071.015l-.354.055a.691.691 0 01-.078.008l-.355.017zm-1.683-1.5h1.666l.297-.014.278-.043.281-.073.278-.102.28-.135.279-.17.274-.205.269-.244.148-.164V122.11l-.147-.161-.27-.246-.276-.208-.277-.169-.277-.132-.28-.102-.282-.073-.278-.042-.3-.016H84.02l-.3.016-.278.042-.28.073-.282.102-.277.132-.276.17-.277.208-.27.244-.15.163v55.66l.151.165.269.244.275.205.278.17.28.135.278.102.28.073.279.043z"/><path class="cls-2" d="M85.7 180.422H83.963l-.356-.018a.668.668 0 01-.079-.008l-.353-.055a.805.805 0 01-.071-.015l-.354-.09a.595.595 0 01-.072-.023l-.349-.128a.934.934 0 01-.068-.029l-.345-.167a.845.845 0 01-.063-.034l-.34-.206c-.019-.013-.04-.026-.058-.04l-.333-.248c-.02-.015-.037-.03-.055-.046l-.322-.292c-.017-.017-.035-.033-.052-.052l-.307-.339c-.015-.016-.028-.033-.042-.05l-.292-.384a.67.67 0 01-.038-.055l-.272-.433a.676.676 0 01-.034-.06l-.245-.483a.578.578 0 01-.026-.057l-.216-.534a.578.578 0 01-.02-.06l-.18-.58c-.007-.02-.012-.04-.017-.06l-.139-.628a.759.759 0 01-.017-.162v-50.289a.76.76 0 01.017-.163l.139-.626.016-.058.18-.584c.006-.02.013-.04.022-.061l.215-.531a.721.721 0 01.026-.057l.245-.484a.676.676 0 01.034-.06l.272-.433c.011-.018.024-.037.037-.054l.292-.386.044-.053.308-.337a.62.62 0 01.051-.051l.322-.29a.706.706 0 01.052-.044l.333-.25a.623.623 0 01.059-.04l.339-.207a.942.942 0 01.068-.037l.345-.166a.867.867 0 01.068-.029l.349-.126a.73.73 0 01.066-.02l.354-.093a.62.62 0 01.077-.016l.353-.053a.842.842 0 01.073-.007l.356-.019h1.78l.355.019a.88.88 0 01.072.007l.354.053a.66.66 0 01.077.016l.353.093a.495.495 0 01.066.02l.35.126a.964.964 0 01.07.03l.344.165a.87.87 0 01.065.036l.34.208a.645.645 0 01.062.042l.331.25c.018.012.034.027.05.042l.323.29c.017.015.034.032.05.05l.31.337a.98.98 0 01.046.056l.29.386a.953.953 0 01.037.052l.271.433c.012.019.023.038.033.058l.247.484.027.059.216.531.021.061.18.584c.006.018.01.038.015.058l.139.626a.703.703 0 01.019.163v50.29a.7.7 0 01-.02.161l-.138.628-.015.06-.18.58-.021.06-.216.534a.622.622 0 01-.028.06l-.247.483a.87.87 0 01-.032.057l-.271.433a.705.705 0 01-.037.053l-.291.384a.789.789 0 01-.044.054l-.31.339a.777.777 0 01-.05.05l-.322.292-.054.045-.33.248-.062.042-.341.206a.759.759 0 01-.06.032l-.344.168a.824.824 0 01-.07.03l-.35.127a.65.65 0 01-.072.023l-.353.09a.902.902 0 01-.071.015l-.354.055a.691.691 0 01-.078.008l-.355.017zm-1.683-1.5h1.666l.297-.014.278-.043.281-.073.278-.102.28-.135.279-.17.274-.205.269-.244.262-.288.25-.33.237-.378.217-.424.191-.473.161-.521.116-.518V124.88l-.116-.516-.16-.524-.192-.47-.217-.426-.237-.378-.25-.332-.261-.284-.27-.246-.276-.208-.277-.169-.277-.132-.28-.102-.282-.073-.278-.042-.3-.016H84.02l-.3.016-.278.042-.28.073-.282.102-.277.132-.276.17-.277.208-.27.244-.26.285-.252.333-.237.376-.214.425-.193.472-.161.524-.114.516v50.125l.114.518.161.521.193.474.214.424.237.376.252.33.261.289.269.244.275.205.278.17.28.135.278.102.28.073.279.043z"/><path class="cls-7" d="M239.849 177.743l.27-.432.247-.483.216-.533.18-.581.138-.628v-50.289l-.138-.627-.18-.583-.216-.531-.247-.484-.27-.433-.231-.305v56.214l.231-.305zM231.447 177.743l-.27-.432-.246-.483-.216-.533-.18-.581-.139-.628v-50.289l.139-.627.18-.583.216-.531.246-.484.27-.433.234-.305v56.214l-.234-.305z"/><path class="cls-3" d="M234.798 179.672l-.356-.017-.354-.055-.352-.091-.349-.128-.346-.167-.339-.206-.333-.249-.32-.292-.31-.339-.058-.08v-56.214l.058-.081.31-.338.32-.29.333-.25.339-.208.346-.166.349-.126.352-.092.354-.053.356-.019h1.701l.355.019.354.053.352.092.35.126.345.166.34.208.332.25.32.29.31.338.061.081v56.214l-.061.08-.31.339-.32.292-.332.249-.34.206-.345.167-.35.128-.352.091-.354.055-.355.017h-1.701z"/><path class="cls-2" d="M236.5 180.422H234.76l-.355-.018a.69.69 0 01-.078-.008l-.354-.055a.86.86 0 01-.073-.015l-.351-.09a.58.58 0 01-.071-.023l-.35-.128a.96.96 0 01-.07-.029l-.345-.167a.824.824 0 01-.063-.034l-.338-.206a.606.606 0 01-.06-.04l-.332-.248a.639.639 0 01-.057-.047l-.32-.293a.553.553 0 01-.049-.048l-.31-.339a1.216 1.216 0 01-.047-.058l-.059-.08a.75.75 0 01-.148-.448v-56.214a.742.742 0 01.144-.442l.059-.081a.822.822 0 01.053-.065l.31-.338c.015-.016.031-.033.048-.048l.32-.29.054-.045.333-.25a.623.623 0 01.059-.04l.339-.207a.701.701 0 01.067-.037l.346-.166a.924.924 0 01.069-.029l.35-.127c.02-.008.043-.013.064-.02l.352-.092a.698.698 0 01.079-.016l.355-.053a.818.818 0 01.071-.007l.355-.019H236.539l.355.019a.862.862 0 01.07.007l.355.053a.692.692 0 01.08.016l.351.093a.724.724 0 01.066.02l.35.126a.919.919 0 01.068.03l.345.165a.902.902 0 01.069.037l.338.208a.598.598 0 01.059.039l.333.25c.019.014.036.029.053.045l.32.29a.594.594 0 01.049.048l.31.338a.893.893 0 01.047.057l.06.081a.75.75 0 01.151.45v56.214a.753.753 0 01-.154.456l-.062.08a.492.492 0 01-.042.05l-.308.339a.731.731 0 01-.05.048l-.32.293a.834.834 0 01-.056.047l-.333.248c-.018.014-.04.027-.059.04l-.338.206c-.02.012-.042.023-.064.034l-.345.167-.07.03-.35.127a.523.523 0 01-.07.023l-.351.09a.79.79 0 01-.074.015l-.354.055a.665.665 0 01-.078.008l-.355.017zm-1.684-1.5h1.666l.296-.014.28-.043.279-.073.28-.102.28-.135.277-.17.275-.205.268-.244.151-.165v-55.66l-.15-.163-.269-.245-.277-.208-.275-.169-.278-.132-.282-.102-.28-.073-.279-.042-.298-.016h-1.663l-.298.016-.28.042-.28.073-.282.102-.277.132-.276.17-.276.207-.27.245-.147.162v55.662l.15.164.267.244.274.205.278.17.28.135.28.102.28.073.279.043z"/><path class="cls-2" d="M236.5 180.422H234.76l-.355-.018a.69.69 0 01-.078-.008l-.354-.055a.86.86 0 01-.073-.015l-.351-.09a.58.58 0 01-.071-.023l-.35-.128a.96.96 0 01-.07-.029l-.345-.167a.824.824 0 01-.063-.034l-.338-.206a.606.606 0 01-.06-.04l-.332-.248a.639.639 0 01-.057-.047l-.32-.293a.553.553 0 01-.049-.048l-.31-.339c-.014-.018-.029-.034-.042-.052l-.292-.384c-.014-.019-.028-.038-.04-.057l-.27-.433c-.012-.018-.021-.037-.031-.055l-.247-.484a.614.614 0 01-.028-.06l-.216-.533a.993.993 0 01-.02-.06l-.18-.58c-.007-.02-.011-.04-.016-.06l-.139-.628a.701.701 0 01-.019-.162v-50.289a.703.703 0 01.02-.163l.138-.626.015-.058.18-.584a.747.747 0 01.021-.061l.216-.531a.723.723 0 01.027-.059l.247-.484a.765.765 0 01.032-.057l.27-.433a.988.988 0 01.039-.055l.292-.386a1.27 1.27 0 01.044-.054l.31-.338c.016-.016.032-.033.049-.048l.32-.29.054-.045.333-.25a.623.623 0 01.058-.04l.34-.207a.701.701 0 01.067-.037l.345-.166a.924.924 0 01.07-.029l.35-.127c.02-.008.042-.013.064-.02l.351-.092a.698.698 0 01.08-.016l.355-.053a.818.818 0 01.071-.007l.355-.019H236.539l.354.019a.862.862 0 01.072.007l.354.053a.692.692 0 01.08.016l.351.093a.724.724 0 01.065.02l.35.126a.919.919 0 01.07.03l.344.165a.902.902 0 01.068.037l.34.208a.598.598 0 01.058.039l.333.25c.018.014.036.029.053.045l.32.29a.594.594 0 01.049.048l.31.338a.81.81 0 01.045.054l.292.386a.983.983 0 01.038.055l.27.433c.012.019.022.038.032.057l.247.484.027.059.215.531c.01.02.016.041.023.061l.18.584.015.058.139.626a.774.774 0 01.017.163v50.29a.771.771 0 01-.017.161l-.139.628c-.005.02-.01.04-.017.06l-.18.58a.634.634 0 01-.02.06l-.216.534a.62.62 0 01-.027.06l-.247.483-.031.055-.27.433-.04.057-.292.384c-.013.018-.028.034-.044.052l-.308.339a.731.731 0 01-.05.048l-.32.293a.834.834 0 01-.056.047l-.333.248-.059.04-.339.206c-.02.012-.042.023-.063.034l-.345.167-.07.03-.35.127a.523.523 0 01-.07.023l-.352.09a.79.79 0 01-.073.015l-.354.055a.665.665 0 01-.078.008l-.355.017zm-1.684-1.5h1.666l.296-.014.28-.043.279-.073.28-.102.28-.135.277-.17.275-.205.268-.244.264-.288.25-.33.235-.377.218-.425.191-.473.161-.521.114-.518V124.88l-.114-.516-.16-.524-.192-.47-.218-.427-.235-.377-.25-.331-.263-.286-.269-.245-.277-.208-.275-.169-.278-.132-.282-.102-.28-.073-.279-.042-.298-.016h-1.663l-.298.016-.28.042-.28.073-.282.102-.277.132-.276.17-.276.207-.27.245-.261.286-.251.33-.235.378-.218.426-.191.471-.161.524-.115.516v50.125l.115.518.16.521.192.473.217.425.236.377.25.33.264.288.268.244.274.205.278.17.28.135.28.102.28.073.279.043z"/><path class="cls-7" d="M244.723 262.626H75.777a6.677 6.677 0 01-6.668-6.67V87.011a6.675 6.675 0 016.668-6.667h168.946a6.676 6.676 0 016.67 6.667v168.945a6.678 6.678 0 01-6.67 6.67zM75.777 82.344a4.673 4.673 0 00-4.668 4.667v168.945a4.675 4.675 0 004.668 4.67h168.946a4.675 4.675 0 004.67-4.67V87.011a4.673 4.673 0 00-4.67-4.667z"/><path class="cls-8" d="M282.43 171.491a.5.5 0 01-.456-.295l-4.066-9.053a.5.5 0 11.913-.41l3.609 8.038 3.61-8.037a.5.5 0 11.911.409l-4.065 9.053a.5.5 0 01-.456.295zM286.495 159.409a.5.5 0 01-.456-.296l-3.61-8.037-3.608 8.037a.5.5 0 11-.913-.409l4.066-9.053a.52.52 0 01.912 0l4.065 9.053a.5.5 0 01-.456.705z"/><path class="cls-8" d="M282.43 171.442a.5.5 0 01-.5-.5v-21.037a.5.5 0 011 0v21.037a.5.5 0 01-.5.5zM282.43 235.16a.5.5 0 01-.456-.296l-4.066-9.053a.5.5 0 11.913-.409l3.609 8.037 3.61-8.037a.5.5 0 11.911.41l-4.065 9.052a.5.5 0 01-.456.296zM286.495 181.862a.5.5 0 01-.456-.295l-3.61-8.038-3.608 8.038a.5.5 0 11-.913-.41l4.066-9.053a.52.52 0 01.912 0l4.065 9.053a.5.5 0 01-.456.705z"/><path class="cls-8" d="M282.43 235.11a.5.5 0 01-.5-.5v-62.251a.5.5 0 011 0v62.251a.5.5 0 01-.5.5zM169.331 289.46a.502.502 0 01-.205-.044l-9.053-4.065a.5.5 0 010-.912l9.053-4.066a.5.5 0 01.41.912l-8.037 3.61 8.037 3.609a.5.5 0 01-.205.956zM204.34 289.818a.5.5 0 01-.205-.956l8.038-3.609-8.038-3.61a.5.5 0 01.41-.911l9.054 4.065a.5.5 0 010 .912l-9.054 4.066a.502.502 0 01-.205.043z"/><path class="cls-8" d="M213.092 285.753h-.003l-52.764-.358a.5.5 0 01.003-1h.003l52.764.358a.5.5 0 01-.003 1z"/><path class="cls-9" d="M147.953 20.63a5.52 5.52 0 01-2.627-.61l.252-.613a4.817 4.817 0 002.387.576c1.344 0 2.35-.624 2.35-2.003 0-1.463-1.414-1.931-2.854-1.931h-.863V15.4h.863c1.451 0 2.58-.587 2.58-1.895 0-1.15-.84-1.75-2.051-1.75a4.269 4.269 0 00-2.196.575l-.24-.623a5.155 5.155 0 012.472-.6c1.606 0 2.77.876 2.77 2.35a2.23 2.23 0 01-1.907 2.232v.024a2.243 2.243 0 012.17 2.266c0 1.68-1.319 2.65-3.106 2.65zM154.302 20.475v-8.491l-1.991 1.355-.348-.54 2.267-1.535h.815v9.21zM157.782 20.475V19.43h.972v1.044zM163.722 20.63c-1.691 0-3.154-.803-3.154-2.566a2.393 2.393 0 011.99-2.363v-.024a2.146 2.146 0 01-1.679-2.17c0-1.62 1.38-2.399 2.83-2.399 1.476 0 2.867.78 2.867 2.398a2.065 2.065 0 01-1.655 2.135v.024a2.383 2.383 0 011.967 2.4c0 1.762-1.476 2.565-3.166 2.565zm0-4.617a2.145 2.145 0 00-2.399 1.991c0 1.38 1.068 1.979 2.399 1.979 1.343 0 2.41-.6 2.41-1.979a2.156 2.156 0 00-2.41-1.99zm-.013-4.258c-1.222 0-2.062.684-2.062 1.751a1.834 1.834 0 002.075 1.872 1.853 1.853 0 002.099-1.872c0-1.067-.84-1.75-2.112-1.75zM253.447 281.964v-12.81h2.015v.517h-1.367v11.777h1.367v.515zM266.365 279.445v-4.174c0-1.27-.418-2.183-1.774-2.183a1.87 1.87 0 00-1.883 2.063v4.294h-.731v-4.294c0-1.271-.372-2.063-1.703-2.063a2.03 2.03 0 00-1.968 2.315v4.042h-.732v-6.813h.708v1.188a2.327 2.327 0 012.171-1.343 1.925 1.925 0 012.051 1.295h.036a2.294 2.294 0 012.219-1.295 2.22 2.22 0 012.339 2.518v4.45zM278.137 279.445v-4.174c0-1.27-.419-2.183-1.774-2.183a1.87 1.87 0 00-1.883 2.063v4.294h-.732v-4.294c0-1.271-.372-2.063-1.703-2.063a2.03 2.03 0 00-1.968 2.315v4.042h-.731v-6.813h.708v1.188a2.327 2.327 0 012.17-1.343 1.925 1.925 0 012.052 1.295h.036a2.294 2.294 0 012.219-1.295 2.22 2.22 0 012.338 2.518v4.45zM280.902 281.964v-.516h1.367V269.67h-1.367v-.517h2.003v12.81zM144.216 46.413v-.684c4.006-3.73 4.797-4.785 4.797-6.2a1.854 1.854 0 00-2.063-1.836 3.21 3.21 0 00-2.182.9l-.348-.528a3.622 3.622 0 012.542-1.019c1.583 0 2.807.84 2.807 2.459 0 1.739-.863 2.722-4.606 6.26h4.726v.648zM154.342 46.568c-2.411 0-3.13-2.098-3.13-4.101 0-2.939.984-5.421 3.573-5.421a4.665 4.665 0 011.728.324l-.192.6a4.169 4.169 0 00-1.536-.277c-2.087 0-2.746 2.1-2.83 4.114h.025a2.892 2.892 0 015.324 1.667 2.907 2.907 0 01-2.962 3.094zm.06-5.444a2.245 2.245 0 00-2.387 2.074 2.445 2.445 0 002.29 2.723 2.226 2.226 0 002.256-2.447 2.136 2.136 0 00-2.16-2.35zM159.107 46.413v-1.044h.971v1.044zM165.142 46.568c-2.411 0-3.13-2.098-3.13-4.101 0-2.939.983-5.421 3.573-5.421a4.666 4.666 0 011.728.324l-.193.6a4.168 4.168 0 00-1.535-.277c-2.087 0-2.746 2.1-2.83 4.114h.025a2.892 2.892 0 015.324 1.667 2.907 2.907 0 01-2.962 3.094zm.06-5.444a2.245 2.245 0 00-2.387 2.074 2.445 2.445 0 002.29 2.723 2.226 2.226 0 002.256-2.447 2.136 2.136 0 00-2.16-2.35z"/><path class="cls-8" d="M78.937 31.77a.497.497 0 01-.204-.044l-9.054-4.065a.5.5 0 010-.912l9.054-4.066a.5.5 0 01.409.912l-8.038 3.61 8.038 3.61a.5.5 0 01-.205.955zM241.389 31.77a.5.5 0 01-.205-.956l8.038-3.61-8.038-3.609a.5.5 0 01.41-.912l9.054 4.066a.5.5 0 010 .912l-9.054 4.065a.502.502 0 01-.205.044z"/><path class="cls-8" d="M250.163 27.705H69.933a.5.5 0 010-1h180.23a.5.5 0 010 1zM93.625 56.378a.497.497 0 01-.204-.044l-9.054-4.065a.5.5 0 010-.912l9.054-4.066a.5.5 0 01.409.912l-8.037 3.61 8.037 3.609a.5.5 0 01-.205.956zM226.592 56.378a.5.5 0 01-.205-.956l8.038-3.61-8.038-3.609a.5.5 0 01.41-.912l9.054 4.066a.5.5 0 010 .912l-9.054 4.065a.502.502 0 01-.205.044z"/><path class="cls-8" d="M235.596 52.313H84.622a.5.5 0 010-1h150.974a.5.5 0 010 1zM250.393 82.776a.5.5 0 01-.5-.5V27.205a.5.5 0 011 0v55.071a.5.5 0 01-.5.5z"/><path class="cls-8" d="M235.596 180.548a.5.5 0 01-.5-.5V51.813a.5.5 0 011 0v128.235a.5.5 0 01-.5.5zM160.328 285.395a.5.5 0 01-.5-.5v-1.985a.5.5 0 011 0v1.985a.5.5 0 01-.5.5zm0-4.985a.502.502 0 11.5-.51v.01a.5.5 0 01-.5.5zm0-3.01a.5.5 0 01-.5-.5v-3a.5.5 0 011 0v3a.5.5 0 01-.5.5zm0-6a.503.503 0 11.5-.51v.01a.5.5 0 01-.5.5zm0-3.01a.5.5 0 01-.5-.5v-3a.5.5 0 011 0v3a.5.5 0 01-.5.5zm0-6a.502.502 0 11.5-.51v.01a.5.5 0 01-.5.5zm0-3.01a.5.5 0 01-.5-.5v-3a.5.5 0 011 0v3a.5.5 0 01-.5.5zm0-6a.502.502 0 11.5-.51v.01a.5.5 0 01-.5.5zm0-3.01a.5.5 0 01-.5-.5v-3a.5.5 0 011 0v3a.5.5 0 01-.5.5zm0-6a.502.502 0 11.5-.51v.01a.5.5 0 01-.5.5zm0-3.01a.5.5 0 01-.5-.5v-3a.5.5 0 011 0v3a.5.5 0 01-.5.5zm0-6a.502.502 0 11.5-.51v.01a.5.5 0 01-.5.5zm0-3.01a.5.5 0 01-.5-.5v-3a.5.5 0 011 0v3a.5.5 0 01-.5.5zm0-6a.502.502 0 11.5-.51v.01a.5.5 0 01-.5.5zm0-3.01a.5.5 0 01-.5-.5v-3a.5.5 0 111 0v3a.5.5 0 01-.5.5zm0-6a.503.503 0 11.5-.51v.01a.5.5 0 01-.5.5zm0-3.01a.5.5 0 01-.5-.5v-3a.5.5 0 111 0v3a.5.5 0 01-.5.5zm0-6a.502.502 0 11.5-.51v.01a.5.5 0 01-.5.5zm0-3.01a.5.5 0 01-.5-.5v-3a.5.5 0 011 0v3a.5.5 0 01-.5.5zm0-6a.502.502 0 11.5-.51v.01a.5.5 0 01-.5.5zm0-3.01a.5.5 0 01-.5-.5v-3a.5.5 0 011 0v3a.5.5 0 01-.5.5zm0-6a.502.502 0 11.5-.51v.01a.5.5 0 01-.5.5zm0-3.01a.5.5 0 01-.5-.5v-3a.5.5 0 011 0v3a.5.5 0 01-.5.5zm0-6a.502.502 0 11.5-.51v.01a.5.5 0 01-.5.5zm0-3.01a.5.5 0 01-.5-.5v-3a.5.5 0 111 0v3a.5.5 0 01-.5.5zm0-6a.502.502 0 11.5-.51v.01a.5.5 0 01-.5.5zm0-3.01a.5.5 0 01-.5-.5v-3a.5.5 0 011 0v3a.5.5 0 01-.5.5zm0-6a.503.503 0 11.5-.51v.01a.5.5 0 01-.5.5zm0-3.01a.5.5 0 01-.5-.5v-3a.5.5 0 011 0v3a.5.5 0 01-.5.5zm0-6a.502.502 0 11.5-.51v.01a.5.5 0 01-.5.5zm0-3.01a.5.5 0 01-.5-.5v-3a.5.5 0 011 0v3a.5.5 0 01-.5.5zm0-6a.502.502 0 11.5-.51v.01a.5.5 0 01-.5.5zm0-3.01a.5.5 0 01-.5-.5v-3a.5.5 0 111 0v3a.5.5 0 01-.5.5zm0-6a.502.502 0 11.5-.51v.01a.5.5 0 01-.5.5zm0-3.01a.5.5 0 01-.5-.5v-3a.5.5 0 111 0v3a.5.5 0 01-.5.5zm0-6a.502.502 0 11.5-.51v.01a.5.5 0 01-.5.5zm0-3.01a.5.5 0 01-.5-.5v-3a.5.5 0 011 0v3a.5.5 0 01-.5.5zm0-6a.502.502 0 11.5-.51v.01a.5.5 0 01-.5.5zm0-3.01a.5.5 0 01-.5-.5v-3a.5.5 0 111 0v3a.5.5 0 01-.5.5zm0-6a.503.503 0 11.5-.51v.01a.5.5 0 01-.5.5zm0-3.01a.5.5 0 01-.5-.5v-3a.5.5 0 011 0v3a.5.5 0 01-.5.5zm0-6a.502.502 0 11.5-.51v.01a.5.5 0 01-.5.5zm0-3.01a.5.5 0 01-.5-.5v-3a.5.5 0 011 0v3a.5.5 0 01-.5.5zm0-6a.502.502 0 11.5-.51v.01a.5.5 0 01-.5.5zm0-3.01a.5.5 0 01-.5-.5v-3a.5.5 0 011 0v3a.5.5 0 01-.5.5zm0-6a.502.502 0 11.5-.51v.01a.5.5 0 01-.5.5zm0-3.01a.5.5 0 01-.5-.5v-3a.5.5 0 011 0v3a.5.5 0 01-.5.5zm0-6a.502.502 0 11.5-.51v.01a.5.5 0 01-.5.5zm0-3.01a.5.5 0 01-.5-.5v-3a.5.5 0 011 0v3a.5.5 0 01-.5.5zm0-6a.502.502 0 11.5-.51v.01a.5.5 0 01-.5.5z"/><path class="cls-8" d="M286.513 172.382h-.01a.5.5 0 11.01 0zm-3.01 0h-3a.5.5 0 010-1h3a.5.5 0 010 1zm-6 0h-.01a.5.5 0 11.01 0zm-3.01 0h-3a.5.5 0 010-1h3a.5.5 0 010 1zm-6 0h-.01a.5.5 0 010-1 .505.505 0 01.506.5.496.496 0 01-.496.5zm-3.01 0h-3a.5.5 0 010-1h3a.5.5 0 010 1zm-6 0h-.01a.5.5 0 11.01 0zm-3.01 0h-3a.5.5 0 010-1h3a.5.5 0 010 1zm-6 0h-.01a.5.5 0 11.01 0zm-3.01 0h-3a.5.5 0 010-1h3a.5.5 0 010 1zm-6 0h-.01a.5.5 0 11.01 0zm-3.01 0h-3a.5.5 0 010-1h3a.5.5 0 010 1zm-6 0h-.01a.5.5 0 11.01 0zm-3.01 0h-3a.5.5 0 010-1h3a.5.5 0 010 1zm-6 0h-.01a.5.5 0 11.01 0zm-3.01 0h-3a.5.5 0 010-1h3a.5.5 0 010 1zm-6 0h-.01a.5.5 0 11.01 0zm-3.01 0h-3a.5.5 0 010-1h3a.5.5 0 010 1zm-6 0h-.01a.5.5 0 11.01 0zm-3.01 0h-3a.5.5 0 010-1h3a.5.5 0 010 1zm-6 0h-.01a.5.5 0 11.01 0zm-3.01 0h-3a.5.5 0 010-1h3a.5.5 0 010 1zm-6 0h-.01a.5.5 0 11.01 0zm-3.01 0h-3a.5.5 0 010-1h3a.5.5 0 010 1zm-6 0h-.01a.5.5 0 11.01 0zm-3.01 0h-3a.5.5 0 010-1h3a.5.5 0 010 1zm-6 0h-.01a.5.5 0 11.01 0zm-3.01 0h-3a.5.5 0 010-1h3a.5.5 0 010 1zm-6 0h-.01a.5.5 0 010-1 .505.505 0 01.505.5.496.496 0 01-.495.5zm-3.01 0h-3a.5.5 0 010-1h3a.5.5 0 010 1zm-6 0h-.01a.5.5 0 11.01 0zm-3.01 0h-3a.5.5 0 010-1h3a.5.5 0 010 1zm-6 0h-.01a.5.5 0 11.01 0zm-3.01 0h-3a.5.5 0 010-1h3a.5.5 0 010 1zm-6 0h-.01a.5.5 0 11.01 0zm-3.01 0h-3a.5.5 0 010-1h3a.5.5 0 010 1zm-6 0h-.01a.5.5 0 11.01 0zm-3.01 0h-3a.5.5 0 010-1h3a.5.5 0 110 1zm-6 0h-.01a.5.5 0 11.01 0zm-3.01 0h-3a.5.5 0 010-1h3a.5.5 0 110 1zm-6 0h-.01a.5.5 0 11.01 0zm-3.01 0h-3a.5.5 0 010-1h3a.5.5 0 110 1zm-6 0h-.01a.5.5 0 11.01 0zm-3.01 0h-3a.5.5 0 110-1h3a.5.5 0 010 1zm-6 0h-.01a.5.5 0 11.01 0zm-3.01 0h-3a.5.5 0 010-1h3a.5.5 0 010 1zm-6 0h-.01a.5.5 0 11.01 0zm-3.01 0h-3a.5.5 0 110-1h3a.5.5 0 010 1zm-6 0h-.01a.5.5 0 11.01 0zm-3.01 0h-3a.5.5 0 110-1h3a.5.5 0 010 1zm-6 0h-.01a.5.5 0 11.01 0zm-3.01 0h-3a.5.5 0 010-1h3a.5.5 0 010 1zm-6 0h-.01a.5.5 0 11.01 0zm-3.01 0h-1.43a.5.5 0 010-1h1.43a.5.5 0 010 1zM282.43 150.405H66.61a.5.5 0 010-1h215.82a.5.5 0 010 1z"/><path class="cls-9" d="M277.212 166.408a5.52 5.52 0 01-.611 2.627l-.612-.252a4.811 4.811 0 00.576-2.386c0-1.344-.624-2.351-2.003-2.351-1.464 0-1.932 1.415-1.932 2.855v.863h-.647v-.863c0-1.452-.588-2.58-1.895-2.58-1.151 0-1.75.84-1.75 2.051a4.273 4.273 0 00.574 2.195l-.623.24a5.15 5.15 0 01-.6-2.47c0-1.607.876-2.771 2.351-2.771a2.23 2.23 0 012.23 1.907h.025a2.243 2.243 0 012.267-2.171c1.678 0 2.65 1.32 2.65 3.106zM277.056 162.484h-1.043v-.971h1.043zM277.212 156.905c0 1.692-.804 3.155-2.566 3.155a2.393 2.393 0 01-2.364-1.99h-.023a2.147 2.147 0 01-2.17 1.678c-1.62 0-2.4-1.379-2.4-2.83 0-1.475.78-2.867 2.4-2.867a2.066 2.066 0 012.134 1.655h.023a2.385 2.385 0 012.4-1.967c1.762 0 2.566 1.476 2.566 3.166zm-8.875.013c0 1.223.684 2.063 1.751 2.063a1.835 1.835 0 001.871-2.076 1.854 1.854 0 00-1.87-2.098c-1.068 0-1.752.84-1.752 2.111zm4.258-.013a2.146 2.146 0 001.99 2.4c1.38 0 1.98-1.069 1.98-2.4 0-1.342-.6-2.41-1.98-2.41a2.156 2.156 0 00-1.99 2.41zM181.177 280.07a5.498 5.498 0 01-1.883-.324l.168-.624a5.338 5.338 0 001.692.3c2.098 0 2.77-2.11 2.841-4.114h-.023a2.9 2.9 0 01-5.337-1.667 2.91 2.91 0 012.974-3.094c2.4 0 3.13 2.099 3.13 4.102 0 2.926-.983 5.42-3.562 5.42zm.456-8.876a2.224 2.224 0 00-2.243 2.447 2.13 2.13 0 002.16 2.35 2.249 2.249 0 002.398-2.074 2.448 2.448 0 00-2.315-2.723zM186.661 279.914v-1.044h.972v1.044zM194.424 277.563v2.35h-.756v-2.35h-4.498v-.78l4.078-6.08h1.176v6.212h1.355v.648zm-.756-6.237h-.024l-3.742 5.59h3.766z"/><path class="cls-8" d="M282.43 235.233H121.635a.5.5 0 110-1H282.43a.5.5 0 010 1zM84.622 180.548a.5.5 0 01-.5-.5V51.813a.5.5 0 111 0v128.235a.5.5 0 01-.5.5zM69.933 82.776a.5.5 0 01-.5-.5V27.205a.5.5 0 111 0v55.071a.5.5 0 01-.5.5z"/><path class="cls-9" d="M33.397 184.607a5.52 5.52 0 01-.612 2.627l-.611-.252a4.817 4.817 0 00.575-2.387c0-1.344-.623-2.35-2.003-2.35-1.463 0-1.93 1.414-1.93 2.854v.863h-.648v-.863c0-1.451-.588-2.58-1.895-2.58-1.152 0-1.751.84-1.751 2.051a4.269 4.269 0 00.575 2.196l-.623.239a5.155 5.155 0 01-.6-2.47c0-1.607.876-2.771 2.35-2.771a2.23 2.23 0 012.232 1.907h.024a2.243 2.243 0 012.266-2.17c1.68 0 2.65 1.318 2.65 3.106zM33.241 178.258H24.75l1.355 1.991-.54.348-1.535-2.267v-.815h9.211zM33.241 174.777h-1.043v-.971h1.043zM33.397 168.838c0 1.691-.803 3.154-2.567 3.154a2.393 2.393 0 01-2.362-1.99h-.024a2.146 2.146 0 01-2.171 1.679c-1.62 0-2.399-1.38-2.399-2.83 0-1.476.78-2.867 2.399-2.867a2.065 2.065 0 012.134 1.655h.024a2.383 2.383 0 012.4-1.967c1.763 0 2.566 1.476 2.566 3.166zm-8.875.013c0 1.222.683 2.062 1.75 2.062a1.834 1.834 0 001.872-2.075 1.853 1.853 0 00-1.871-2.099c-1.068 0-1.751.84-1.751 2.112zm4.258-.013a2.145 2.145 0 001.99 2.398c1.38 0 1.98-1.067 1.98-2.398 0-1.343-.6-2.41-1.98-2.41a2.156 2.156 0 00-1.99 2.41zM277.056 212.67h-8.491l1.355 1.99-.54.348-1.535-2.267v-.815h9.21zM277.056 207.845h-8.491l1.355 1.991-.54.348-1.535-2.267v-.815h9.21zM277.056 204.364h-1.043v-.971h1.043zM277.056 199.612h-8.491l1.355 1.992-.54.347-1.535-2.266v-.816h9.21z"/><path class="cls-8" d="M39.971 263.006a.5.5 0 01-.456-.295l-4.065-9.054a.5.5 0 11.912-.41l3.609 8.038 3.61-8.037a.5.5 0 11.911.409l-4.065 9.054a.5.5 0 01-.456.295zM44.037 91.67a.5.5 0 01-.457-.295l-3.609-8.037-3.61 8.037a.5.5 0 01-.911-.41l4.065-9.052a.52.52 0 01.912 0l4.065 9.053a.5.5 0 01-.455.705z"/><path class="cls-8" d="M39.971 262.956a.5.5 0 01-.5-.5V82.167a.5.5 0 011 0v180.289a.5.5 0 01-.5.5z"/><path class="cls-8" d="M70.655 82.667H39.971a.5.5 0 010-1h30.684a.5.5 0 010 1zM70.655 263.126H39.971a.5.5 0 010-1h30.684a.5.5 0 110 1zM213.344 279.945a.5.5 0 01-.5-.5v-63.1a.5.5 0 011 0v63.1a.5.5 0 01-.5.5z"/><path class="cls-8" d="M213.344 285.753a.5.5 0 01-.5-.5v-50.48a.5.5 0 011 0v50.48a.5.5 0 01-.5.5z"/><path fill="none" d="M0 0h313.919v300.617H0z"/></g></g></svg>