<svg xmlns="http://www.w3.org/2000/svg" viewBox="0 0 555 202.707"><defs><style>.cls-1{fill:#666}.cls-2{fill:#bfd833}.cls-3{fill:#fff}.cls-4{fill:#e5e5e6}.cls-5{fill:#c8c9ca}.cls-6{fill:#9e9e9f}.cls-7{fill:#231815}</style></defs><g id="レイヤー_2" data-name="レイヤー 2"><g id="レイヤー_2-2" data-name="レイヤー 2"><path class="cls-1" d="M507.46 171.358v-12.809h2.016v.516h-1.367v11.777h1.367v.516zM520.38 168.84v-4.174c0-1.271-.42-2.183-1.775-2.183a1.87 1.87 0 00-1.883 2.063v4.294h-.731v-4.294c0-1.271-.372-2.063-1.703-2.063a2.03 2.03 0 00-1.968 2.314v4.042h-.732v-6.812h.708v1.188a2.327 2.327 0 012.171-1.344 1.925 1.925 0 012.051 1.296h.036a2.294 2.294 0 012.219-1.296 2.22 2.22 0 012.339 2.519v4.45zM532.15 168.84v-4.174c0-1.271-.418-2.183-1.774-2.183a1.87 1.87 0 00-1.882 2.063v4.294h-.732v-4.294c0-1.271-.372-2.063-1.703-2.063a2.03 2.03 0 00-1.968 2.314v4.042h-.731v-6.812h.708v1.188a2.327 2.327 0 012.17-1.344 1.925 1.925 0 012.052 1.296h.036a2.294 2.294 0 012.218-1.296 2.22 2.22 0 012.34 2.519v4.45zM534.916 171.358v-.516h1.367v-11.777h-1.367v-.516h2.002v12.81zM22.262 97.582h-.684c-3.73-4.006-4.785-4.797-6.2-4.797a1.854 1.854 0 00-1.836 2.063 3.21 3.21 0 00.9 2.182l-.528.348a3.622 3.622 0 01-1.019-2.542c0-1.583.84-2.807 2.459-2.807 1.739 0 2.722.864 6.26 4.606v-4.726h.648zM19.911 85.729h2.35v.756h-2.35v4.498h-.78l-6.08-4.079V85.73h6.212v-1.355h.648zm-6.237.756v.024l5.59 3.742v-3.766zM22.262 82.74h-1.044v-.972h1.044zM22.417 77.52a5.52 5.52 0 01-.61 2.627l-.613-.252a4.817 4.817 0 00.576-2.387c0-1.344-.624-2.35-2.003-2.35-1.463 0-1.931 1.414-1.931 2.854v.863h-.648v-.863c0-1.451-.587-2.58-1.895-2.58-1.15 0-1.75.84-1.75 2.052a4.269 4.269 0 00.575 2.195l-.623.24a5.155 5.155 0 01-.6-2.472c0-1.606.875-2.77 2.35-2.77a2.23 2.23 0 012.232 1.907h.023a2.243 2.243 0 012.267-2.17c1.68 0 2.65 1.319 2.65 3.106zM48.444 97.57h-.683c-3.73-4.005-4.785-4.796-6.2-4.796a1.854 1.854 0 00-1.836 2.062 3.21 3.21 0 00.9 2.183l-.528.347a3.622 3.622 0 01-1.02-2.542c0-1.583.84-2.806 2.46-2.806 1.738 0 2.722.863 6.26 4.605v-4.725h.647zM48.444 90.778h-.683c-3.73-4.005-4.785-4.796-6.2-4.796a1.855 1.855 0 00-1.836 2.062 3.21 3.21 0 00.9 2.183l-.528.347a3.622 3.622 0 01-1.02-2.542c0-1.583.84-2.806 2.46-2.806 1.738 0 2.722.863 6.26 4.605v-4.725h.647zM48.444 83.28h-1.043v-.972h1.043zM46.094 75.518h2.35v.755h-2.35v4.498h-.78l-6.08-4.078v-1.175h6.212v-1.356h.648zm-6.237.755v.024l5.589 3.742v-3.766zM307.684 93.005h-.683c-3.731-4.006-4.786-4.797-6.202-4.797a1.854 1.854 0 00-1.835 2.063 3.212 3.212 0 00.9 2.182l-.528.348a3.62 3.62 0 01-1.02-2.542c0-1.583.84-2.807 2.46-2.807 1.74 0 2.723.864 6.26 4.606v-4.726h.648zM307.84 83.767a5.684 5.684 0 01-.492 2.398l-.636-.24a4.943 4.943 0 00.48-2.147c0-1.45-.72-2.53-2.29-2.53-1.62 0-2.184 1.331-2.184 2.65a8.513 8.513 0 00.193 1.872l-4.438-.18v-4.57h.648v3.898l3.07.144a8.085 8.085 0 01-.108-1.284c0-1.762.887-3.286 2.77-3.286 1.991 0 2.986 1.44 2.986 3.275zM307.684 78.582h-1.044v-.972h1.044zM307.84 72.547c0 2.411-2.1 3.13-4.102 3.13-2.939 0-5.421-.984-5.421-3.573a4.655 4.655 0 01.324-1.728l.6.192a4.168 4.168 0 00-.277 1.536c0 2.087 2.1 2.746 4.115 2.83v-.025a2.892 2.892 0 011.667-5.324 2.907 2.907 0 013.093 2.962zm-5.445-.06a2.245 2.245 0 002.074 2.387 2.445 2.445 0 002.723-2.29 2.226 2.226 0 00-2.446-2.256 2.136 2.136 0 00-2.351 2.16z"/><path class="cls-2" d="M311.141 154.695a.5.5 0 01-.456-.295l-4.065-9.054a.5.5 0 11.912-.409l3.61 8.038 3.608-8.038a.5.5 0 11.913.41l-4.066 9.053a.5.5 0 01-.456.295zM315.207 17.432a.5.5 0 01-.456-.295l-3.61-8.038-3.61 8.038a.5.5 0 11-.911-.41l4.065-9.053a.52.52 0 01.912 0l4.066 9.054a.5.5 0 01-.456.704z"/><path class="cls-2" d="M311.141 154.646a.5.5 0 01-.5-.5V7.929a.5.5 0 011 0v146.217a.5.5 0 01-.5.5zM26.83 154.695a.5.5 0 01-.457-.295l-4.065-9.054a.5.5 0 01.912-.409l3.61 8.038 3.608-8.038a.5.5 0 01.913.41l-4.066 9.053a.5.5 0 01-.456.295zM30.895 24.77a.5.5 0 01-.457-.295l-3.609-8.037-3.61 8.037a.5.5 0 01-.911-.41l4.065-9.053a.52.52 0 01.912 0l4.066 9.054a.5.5 0 01-.456.704z"/><path class="cls-2" d="M26.83 154.646a.5.5 0 01-.5-.5V15.266a.5.5 0 111 0v138.88a.5.5 0 01-.5.5zM53.772 154.695a.5.5 0 01-.456-.294l-4.065-9.054a.5.5 0 01.912-.41l3.61 8.038 3.609-8.038a.5.5 0 01.912.41l-4.065 9.053a.5.5 0 01-.457.295zM57.838 35.365a.5.5 0 01-.456-.295l-3.61-8.038-3.61 8.038a.5.5 0 01-.911-.41l4.065-9.053a.52.52 0 01.913 0l4.065 9.054a.5.5 0 01-.456.704z"/><path class="cls-2" d="M53.772 154.646a.5.5 0 01-.5-.5V25.862a.5.5 0 111 0v128.284a.5.5 0 01-.5.5zM339.263 8.496h-50.697a.5.5 0 010-1h50.697a.5.5 0 110 1zM96.307 15.767H26.83a.5.5 0 010-1h69.478a.5.5 0 010 1z"/><path class="cls-2" d="M96.307 26.362H50.772a.5.5 0 010-1h45.535a.5.5 0 010 1zM537.49 154.578H18.109a.5.5 0 010-1H537.49a.5.5 0 010 1z"/><path class="cls-3" d="M87.381 141.739l-3.233-6.803h-.17V28.92l2.834-2.833H98.01v-3.119a1.703 1.703 0 00-1.702-1.701H92.34v-3.969a1.7 1.7 0 011.7-1.7h24.946a1.701 1.701 0 011.701 1.7l.229 8.79h22.106l.23-8.79a1.7 1.7 0 011.698-1.7h58.339a1.701 1.701 0 011.702 1.7l.23 8.79h22.1l.232-8.79a1.7 1.7 0 011.7-1.7h24.945a1.701 1.701 0 011.702 1.7v3.969h-3.969a1.703 1.703 0 00-1.702 1.701v3.12h11.2l2.831 2.832v106.016h-.17l-3.229 6.803h-1.703l-2.308 2.754a11.348 11.348 0 01-8.686 4.05h-12.027a11.337 11.337 0 01-8.682-4.05l-2.313-2.754-3.51.012q-.897.966-1.865 1.864a35.433 35.433 0 01-50.073-1.864l-39.963-.012-.006.414a2.867 2.867 0 01-.484 1.536l-2.625 3.89a12.471 12.471 0 01-10.34 5.5h-10.17a12.465 12.465 0 01-10.339-5.5l-2.625-3.89a2.82 2.82 0 01-.484-1.536l-.008-.414z"/><path class="cls-4" d="M129.731 141.739l-.006.414a2.867 2.867 0 01-.484 1.536l-2.625 3.89a12.471 12.471 0 01-10.34 5.5h-10.17a12.465 12.465 0 01-10.339-5.5l-2.625-3.89a2.82 2.82 0 01-.484-1.536l-.008-.414z"/><path class="cls-5" d="M221.632 141.751q-.897.966-1.865 1.864a35.433 35.433 0 01-50.073-1.864z"/><path class="cls-6" d="M260.861 142.489H87.381a.75.75 0 010-1.5h173.48a.75.75 0 010 1.5zM264.26 135.686H83.978a.75.75 0 010-1.5H264.26a.75.75 0 010 1.5zM264.26 99.403H83.978a.75.75 0 010-1.5H264.26a.75.75 0 010 1.5zM264.26 44.978H83.978a.75.75 0 010-1.5H264.26a.75.75 0 010 1.5zM264.26 29.67H83.978a.75.75 0 010-1.5H264.26a.75.75 0 010 1.5zM261.428 26.837H86.812a.75.75 0 010-1.5h174.616a.75.75 0 010 1.5zM204.99 23.468h-19.106a.5.5 0 010-1h19.107a.5.5 0 010 1zM162.356 23.468h-19.104a.5.5 0 010-1h19.104a.5.5 0 010 1zM189.892 21.767a.5.5 0 01-.5-.5v-3.993l.012-.222a.299.299 0 01.004-.043l.03-.219a.969.969 0 01.009-.052l.052-.21c.004-.014.007-.029.012-.042l.069-.2a.51.51 0 01.023-.055l.09-.185c.006-.015.014-.028.021-.042l.102-.167a.362.362 0 01.04-.055l.117-.147a.583.583 0 01.047-.05l.131-.123a.526.526 0 01.056-.046l.14-.097a.498.498 0 01.07-.041l.148-.072a.516.516 0 01.083-.032l.156-.043a.487.487 0 01.09-.017l.156-.014a.5.5 0 11.09.996l-.11.01-.07.02-.072.034-.078.055-.08.075-.077.095-.071.118-.066.136-.052.15-.04.162-.023.171-.009.189v3.956a.5.5 0 01-.5.5z"/><path class="cls-6" d="M182.725 26.587a.5.5 0 01-.5-.5v-8.813l.011-.222a.742.742 0 01.005-.047l.031-.219c.002-.015.006-.032.01-.048l.05-.21.012-.04.068-.199a.508.508 0 01.023-.058l.09-.185a.391.391 0 01.024-.045l.103-.167a.485.485 0 01.037-.052l.12-.147a.386.386 0 01.041-.045l.128-.124a.714.714 0 01.06-.05l.14-.097a.56.56 0 01.074-.043l.151-.072a.372.372 0 01.078-.029l.154-.044a.511.511 0 01.092-.017l.156-.014a.5.5 0 01.09.996l-.11.01-.07.02-.076.035-.074.052-.077.075-.079.098-.073.118-.064.133-.05.15-.042.166-.024.171-.009.187v8.776a.5.5 0 01-.5.5zM120.687 17.798H92.34a.5.5 0 010-1h28.347a.5.5 0 010 1z"/><path class="cls-6" d="M204.99 17.798h-61.738a.5.5 0 010-1h61.739a.5.5 0 010 1zM255.9 17.798h-28.347a.5.5 0 010-1H255.9a.5.5 0 010 1z"/><path class="cls-6" d="M158.346 21.767a.5.5 0 01-.5-.5l-.007-4.145-.025-.17-.038-.16-.055-.155-.061-.134-.074-.116-.079-.098-.079-.074-.077-.054-.075-.036-.065-.02-.112-.009a.5.5 0 01.088-.996l.16.014a.541.541 0 01.095.018l.151.044a.383.383 0 01.078.03l.15.07a.521.521 0 01.07.043l.14.097a.508.508 0 01.057.046l.131.123a.6.6 0 01.048.053l.117.146.032.044.106.167c.012.02.023.04.032.06l.085.185.016.039.071.2a.55.55 0 01.017.052l.05.21.008.045.032.22a.418.418 0 01.004.049l.01.222v3.99a.5.5 0 01-.5.5zM165.512 26.587a.5.5 0 01-.5-.5v-8.789l-.005-.179-.024-.166-.039-.162-.055-.154-.062-.134-.072-.116-.079-.097-.08-.075-.078-.054-.074-.036-.067-.02-.11-.009a.5.5 0 11.09-.996l.156.014a.603.603 0 01.093.017l.153.044a.468.468 0 01.079.03l.15.072a.521.521 0 01.07.042l.14.097a.508.508 0 01.057.046l.131.123a.429.429 0 01.046.05l.12.147a.48.48 0 01.035.05l.104.166a.477.477 0 01.03.055l.085.184.019.045.07.2.014.047.052.209a.514.514 0 01.008.048l.032.22a.369.369 0 01.004.056l.007.222v8.803a.5.5 0 01-.5.5z"/><path class="cls-6" d="M162.356 26.837a.75.75 0 01-.75-.75v-3.119a.953.953 0 00-.953-.951h-16.645l-.006.539a.75.75 0 01-1.5 0v-.394l.002-.02.014-.349.002-.037.015-.143.003-.03.017-.125a.923.923 0 01.017-.085l.026-.102a.801.801 0 01.036-.106l.035-.08a.838.838 0 01.066-.125l.041-.06a.746.746 0 01.187-.194l.05-.036a.738.738 0 01.286-.125l.061-.013a.725.725 0 01.15-.015h17.143a2.455 2.455 0 012.453 2.451v3.12a.75.75 0 01-.75.75zM185.884 26.837a.75.75 0 01-.75-.75v-3.119a2.453 2.453 0 012.45-2.451h17.144a.691.691 0 01.154.016l.06.012a.758.758 0 01.283.125l.05.036a.758.758 0 01.172.172l.044.06a.804.804 0 01.086.157l.032.082a.766.766 0 01.034.104l.025.103a.58.58 0 01.011.057l.02.125a.774.774 0 01.008.054l.012.144.002.03.014.348.001.02.001.19a.75.75 0 01-.743.756h-.007a.75.75 0 01-.75-.744l-.007-.347h-16.645a.952.952 0 00-.95.951v3.12a.75.75 0 01-.75.75z"/><path class="cls-7" d="M116.275 154.08h-10.169a13.446 13.446 0 01-11.168-5.942l-2.625-3.89a3.81 3.81 0 01-.603-1.51H87.38a.998.998 0 01-.903-.57l-3.036-6.387a1 1 0 01-.464-.845V28.92a.999.999 0 01.293-.707l2.834-2.833a1 1 0 01.707-.293H97.01v-2.119a.703.703 0 00-.702-.701H92.34a1 1 0 01-1-1v-3.969a2.703 2.703 0 012.7-2.7h24.946a2.704 2.704 0 012.701 2.685l.203 7.804h20.157l.205-7.804a2.702 2.702 0 012.698-2.685h58.339a2.705 2.705 0 012.702 2.685l.203 7.804h20.153l.206-7.804a2.703 2.703 0 012.7-2.685h24.945a2.704 2.704 0 012.702 2.7v3.969a1 1 0 01-1 1h-3.969a.703.703 0 00-.702.701v2.12h10.2a1 1 0 01.706.292l2.832 2.833a.999.999 0 01.293.707v106.016a1 1 0 01-.463.845l-3.033 6.386a1.001 1.001 0 01-.903.572h-1.236l-2.008 2.397a12.32 12.32 0 01-9.453 4.407h-12.027a12.304 12.304 0 01-9.449-4.407l-2.01-2.396-2.612.01a36.094 36.094 0 01-1.62 1.599 36.431 36.431 0 01-51.185-1.598l-38.59-.012a3.867 3.867 0 01-.6 1.507l-2.627 3.893a13.453 13.453 0 01-11.169 5.94zm-28.262-13.341h4.637a1 1 0 011 .981l.008.414a1.814 1.814 0 00.313.995l2.625 3.89a11.45 11.45 0 009.51 5.06h10.17a11.459 11.459 0 009.51-5.06l2.626-3.89a1.86 1.86 0 00.313-.996l.006-.41a1 1 0 011-.984l39.963.012a1.001 1.001 0 01.732.32 34.43 34.43 0 0048.66 1.811 34.885 34.885 0 001.814-1.811.999.999 0 01.73-.32l3.508-.012h.004a1 1 0 01.766.357l2.312 2.755a10.309 10.309 0 007.917 3.692h12.027a10.32 10.32 0 007.92-3.693l2.307-2.753a.997.997 0 01.767-.358h1.07l2.96-6.232a.977.977 0 01.072-.13V29.334l-2.246-2.247H250.23a1 1 0 01-1-1v-3.119a2.705 2.705 0 012.702-2.701h2.97v-2.969a.703.703 0 00-.703-.7h-24.945a.7.7 0 00-.7.7v.026l-.232 8.79a1 1 0 01-1 .973h-22.1a1 1 0 01-1-.973l-.23-8.79v-.026a.703.703 0 00-.702-.7h-58.34a.7.7 0 00-.697.7l-.001.026-.23 8.79a1 1 0 01-.999.973h-22.106a1 1 0 01-1-.973l-.228-8.79v-.026a.702.702 0 00-.702-.7H94.041a.702.702 0 00-.7.7v2.969h2.966a2.705 2.705 0 012.702 2.701v3.12a1 1 0 01-1 1H87.226l-2.248 2.246v105.043a1.058 1.058 0 01.073.129z"/><path class="cls-3" d="M339.748 141.739l-3.233-6.803h-.17V28.92l2.834-2.833h11.197v-3.119a1.703 1.703 0 00-1.702-1.701h-3.967v-3.969a1.7 1.7 0 011.7-1.7h24.946a1.701 1.701 0 011.7 1.7l.23 8.79h22.106l.23-8.79a1.7 1.7 0 011.697-1.7h58.34a1.701 1.701 0 011.701 1.7l.23 8.79h22.101l.232-8.79a1.7 1.7 0 011.7-1.7h24.944a1.701 1.701 0 011.703 1.7v3.969h-3.97a1.703 1.703 0 00-1.701 1.701v3.12h11.2l2.831 2.832v106.016h-.17l-3.23 6.803h-1.703l-2.307 2.754a11.348 11.348 0 01-8.687 4.05h-12.026a11.337 11.337 0 01-8.683-4.05l-2.312-2.754-3.51.012q-.898.966-1.865 1.864a35.433 35.433 0 01-50.073-1.864l-39.963-.012-.006.414a2.867 2.867 0 01-.485 1.536l-2.625 3.89a12.471 12.471 0 01-10.34 5.5h-10.17a12.465 12.465 0 01-10.338-5.5l-2.625-3.89a2.82 2.82 0 01-.485-1.536l-.007-.414z"/><path class="cls-4" d="M382.098 141.739l-.006.414a2.867 2.867 0 01-.485 1.536l-2.625 3.89a12.471 12.471 0 01-10.34 5.5h-10.17a12.465 12.465 0 01-10.338-5.5l-2.625-3.89a2.82 2.82 0 01-.485-1.536l-.007-.414z"/><path class="cls-5" d="M474 141.751q-.899.966-1.866 1.864a35.433 35.433 0 01-50.073-1.864z"/><path class="cls-6" d="M513.228 142.489h-173.48a.75.75 0 010-1.5h173.48a.75.75 0 010 1.5zM516.627 135.686H336.345a.75.75 0 010-1.5h180.282a.75.75 0 010 1.5zM516.627 99.403H336.345a.75.75 0 010-1.5h180.282a.75.75 0 010 1.5zM516.627 44.978H336.345a.75.75 0 010-1.5h180.282a.75.75 0 010 1.5zM516.627 29.67H336.345a.75.75 0 010-1.5h180.282a.75.75 0 010 1.5zM513.795 26.837H339.18a.75.75 0 010-1.5h174.616a.75.75 0 010 1.5zM457.357 23.468h-19.106a.5.5 0 010-1h19.106a.5.5 0 010 1zM414.723 23.468h-19.105a.5.5 0 010-1h19.105a.5.5 0 010 1zM442.259 21.767a.5.5 0 01-.5-.5v-3.993l.012-.222a.299.299 0 01.003-.043l.03-.219a.969.969 0 01.01-.052l.051-.21.013-.042.068-.2a.51.51 0 01.024-.055l.089-.185c.006-.015.014-.028.022-.042l.102-.167a.362.362 0 01.039-.055l.118-.147a.583.583 0 01.047-.05l.13-.123a.526.526 0 01.056-.046l.14-.097a.498.498 0 01.07-.041l.149-.072a.516.516 0 01.083-.032l.156-.043a.487.487 0 01.09-.017l.156-.014a.5.5 0 01.09.996l-.11.01-.07.02-.072.034-.078.055-.08.075-.077.095-.072.118-.065.136-.052.15-.04.162-.023.171-.01.189v3.956a.5.5 0 01-.5.5z"/><path class="cls-6" d="M435.092 26.587a.5.5 0 01-.5-.5v-8.813l.01-.222a.742.742 0 01.005-.047l.032-.219c.002-.015.006-.032.01-.048l.05-.21.012-.04.067-.199a.508.508 0 01.024-.058l.09-.185a.391.391 0 01.024-.045l.103-.167a.485.485 0 01.037-.052l.119-.147a.386.386 0 01.042-.045l.128-.124a.714.714 0 01.06-.05l.14-.097a.56.56 0 01.073-.043l.152-.072a.372.372 0 01.078-.029l.154-.044a.511.511 0 01.092-.017l.156-.014a.5.5 0 01.09.996l-.11.01-.07.02-.076.035-.074.052-.077.075-.08.098-.073.118-.063.133-.05.15-.042.166-.024.171-.01.187v8.776a.5.5 0 01-.5.5zM373.054 17.798h-28.347a.5.5 0 010-1h28.347a.5.5 0 010 1z"/><path class="cls-6" d="M457.357 17.798h-61.739a.5.5 0 010-1h61.74a.5.5 0 010 1zM508.267 17.798H479.92a.5.5 0 010-1h28.347a.5.5 0 010 1z"/><path class="cls-6" d="M410.713 21.767a.5.5 0 01-.5-.5l-.008-4.145-.024-.17-.038-.16-.055-.155-.062-.134-.074-.116-.078-.098-.079-.074-.077-.054-.075-.036-.066-.02-.111-.009a.5.5 0 01.088-.996l.16.014a.541.541 0 01.095.018l.151.044a.383.383 0 01.077.03l.15.07a.521.521 0 01.07.043l.141.097a.508.508 0 01.056.046l.132.123a.6.6 0 01.048.053l.117.146.031.044.107.167.032.06.085.185.016.039.07.2a.55.55 0 01.017.052l.05.21.01.045.03.22a.418.418 0 01.004.049l.01.222v3.99a.5.5 0 01-.5.5zM417.88 26.587a.5.5 0 01-.5-.5v-8.789l-.006-.179-.024-.166-.04-.162-.054-.154-.063-.134-.072-.116-.078-.097-.08-.075-.078-.054-.074-.036-.068-.02-.11-.009a.5.5 0 11.09-.996l.157.014a.603.603 0 01.093.017l.153.044a.468.468 0 01.078.03l.15.072a.521.521 0 01.07.042l.141.097a.508.508 0 01.056.046l.132.123a.429.429 0 01.046.05l.12.147a.48.48 0 01.034.05l.105.166a.477.477 0 01.03.055l.085.184.018.045.07.2c.006.015.01.031.014.047l.052.209a.514.514 0 01.01.048l.03.22a.369.369 0 01.005.056l.007.222v8.803a.5.5 0 01-.5.5z"/><path class="cls-6" d="M414.723 26.837a.75.75 0 01-.75-.75v-3.119a.953.953 0 00-.953-.951h-16.645l-.007.539a.75.75 0 11-1.5 0l.001-.394.001-.02.015-.349c0-.012 0-.024.002-.037l.014-.143.003-.03.018-.125a.923.923 0 01.016-.085l.027-.102a.801.801 0 01.036-.106l.034-.08a.838.838 0 01.067-.125l.04-.06a.746.746 0 01.187-.194l.05-.036a.738.738 0 01.287-.125l.06-.013a.725.725 0 01.151-.015h17.143a2.455 2.455 0 012.453 2.451v3.12a.75.75 0 01-.75.75zM438.251 26.837a.75.75 0 01-.75-.75v-3.119a2.453 2.453 0 012.45-2.451h17.144a.691.691 0 01.154.016l.06.012a.758.758 0 01.283.125l.05.036a.758.758 0 01.171.172l.044.06a.803.803 0 01.086.157l.033.082a.768.768 0 01.034.104l.024.103a.58.58 0 01.012.057l.02.125a.774.774 0 01.007.054l.013.144.002.03.014.348v.02l.002.19a.75.75 0 01-.744.756h-.006a.75.75 0 01-.75-.744l-.007-.347H439.95a.952.952 0 00-.95.951v3.12a.75.75 0 01-.75.75z"/><path class="cls-7" d="M368.642 154.08h-10.17a13.446 13.446 0 01-11.167-5.942l-2.625-3.89a3.81 3.81 0 01-.604-1.51h-4.328a.998.998 0 01-.903-.57l-3.036-6.387a1 1 0 01-.464-.845V28.92a.999.999 0 01.293-.707l2.834-2.833a1 1 0 01.707-.293h10.197v-2.119a.703.703 0 00-.702-.701h-3.967a1 1 0 01-1-1v-3.969a2.703 2.703 0 012.7-2.7h24.946a2.704 2.704 0 012.7 2.685l.204 7.804h20.157l.204-7.804a2.702 2.702 0 012.698-2.685h58.34a2.705 2.705 0 012.701 2.685l.204 7.804h20.153l.206-7.804a2.703 2.703 0 012.7-2.685h24.944a2.704 2.704 0 012.703 2.7v3.969a1 1 0 01-1 1h-3.97a.703.703 0 00-.701.701v2.12h10.2a1 1 0 01.706.292l2.832 2.833a.999.999 0 01.293.707v106.016a1 1 0 01-.464.845l-3.032 6.386a1.001 1.001 0 01-.903.572h-1.237l-2.008 2.397a12.32 12.32 0 01-9.453 4.407h-12.026a12.304 12.304 0 01-9.45-4.407l-2.01-2.396-2.611.01a36.094 36.094 0 01-1.62 1.599 36.431 36.431 0 01-51.185-1.598l-38.59-.012a3.867 3.867 0 01-.6 1.507l-2.627 3.893a13.453 13.453 0 01-11.17 5.94zm-28.262-13.341h4.637a1 1 0 011 .981l.007.414a1.814 1.814 0 00.314.995l2.625 3.89a11.45 11.45 0 009.51 5.06h10.169a11.459 11.459 0 009.511-5.06l2.625-3.89a1.86 1.86 0 00.314-.996l.006-.41a1 1 0 011-.984l39.963.012a1.001 1.001 0 01.732.32 34.43 34.43 0 0048.66 1.811 34.885 34.885 0 001.814-1.811.999.999 0 01.73-.32l3.508-.012h.004a1 1 0 01.765.357l2.313 2.755a10.309 10.309 0 007.917 3.692h12.026a10.32 10.32 0 007.921-3.693l2.307-2.753a.997.997 0 01.766-.358h1.07l2.96-6.232a.979.979 0 01.073-.13V29.334l-2.246-2.247h-10.785a1 1 0 01-1-1v-3.119a2.705 2.705 0 012.702-2.701h2.969v-2.969a.703.703 0 00-.703-.7H481.62a.7.7 0 00-.699.7v.026l-.232 8.79a1 1 0 01-1 .973h-22.1a1 1 0 01-1-.973l-.23-8.79v-.026a.703.703 0 00-.703-.7h-58.339a.7.7 0 00-.698.7v.026l-.23 8.79a1 1 0 01-1 .973h-22.106a1 1 0 01-1-.973l-.227-8.79-.001-.026a.702.702 0 00-.701-.7h-24.946a.702.702 0 00-.7.7v2.969h2.967a2.705 2.705 0 012.702 2.701v3.12a1 1 0 01-1 1h-10.783l-2.248 2.246v105.043a1.058 1.058 0 01.073.129z"/><g id="LINE"><path class="cls-3" d="M516.627 10.829l-2.833-2.833H339.263l-2.833 2.833v15.3h180.197v-15.3"/><path class="cls-7" d="M516.627 26.63H336.43a.5.5 0 01-.5-.5v-15.3a.5.5 0 01.147-.354l2.834-2.834a.5.5 0 01.353-.146h174.53a.5.5 0 01.354.146l2.834 2.834a.5.5 0 01.146.353v15.3a.5.5 0 01-.5.5zm-179.698-1h179.198V11.035l-2.54-2.54H339.47l-2.54 2.54z"/></g><path class="cls-6" d="M336.429 10.079h180.198v1.5H336.429z" id="LINE-2" data-name="LINE"/><path class="cls-7" d="M516.627 26.63H336.43a.5.5 0 01-.5-.5v-15.3a.5.5 0 01.147-.354l2.834-2.834a.5.5 0 01.353-.146h174.53a.5.5 0 01.354.146l2.834 2.834a.5.5 0 01.146.353v15.3a.5.5 0 01-.5.5zm-179.698-1h179.198V11.035l-2.54-2.54H339.47l-2.54 2.54z" id="LINE-3" data-name="LINE"/><path class="cls-1" d="M246.738 168.156v.912h-.743v-.912c-2.4-.072-4.258-1.164-4.258-3.982 0-2.59 1.619-3.85 4.258-3.946v-.911h.743v.911c2.746.108 4.258 1.475 4.258 3.946 0 2.734-1.776 3.898-4.258 3.982zm-.743-7.28c-2.16.024-3.49 1.055-3.49 3.322 0 2.219 1.222 3.298 3.49 3.322zm.743 0v6.644c2.35-.036 3.502-1.175 3.502-3.334 0-2.339-1.415-3.298-3.502-3.31zM254.936 168.84v-8.492l-1.991 1.355-.348-.54 2.267-1.534h.815v9.21zM257.71 168.84v-.684c4.005-3.73 4.796-4.785 4.796-6.2a1.855 1.855 0 00-2.062-1.836 3.21 3.21 0 00-2.183.9l-.347-.528a3.622 3.622 0 012.542-1.02c1.583 0 2.806.84 2.806 2.46 0 1.739-.863 2.722-4.605 6.26h4.725v.647zM265.209 168.84v-1.044h.971v1.043zM270.356 168.995a5.684 5.684 0 01-2.398-.491l.24-.636a4.937 4.937 0 002.146.48c1.451 0 2.53-.72 2.53-2.29 0-1.62-1.33-2.184-2.65-2.184a8.541 8.541 0 00-1.87.192l.179-4.437h4.57v.647h-3.898l-.144 3.07a8.076 8.076 0 011.283-.108c1.763 0 3.286.888 3.286 2.77 0 1.992-1.44 2.987-3.274 2.987z"/><path fill="none" d="M0 0h555v202.707H0z"/><path class="cls-2" d="M215.758 158.892a.5.5 0 01-.467-.322l-3.528-9.276a.5.5 0 01.645-.645l9.277 3.526a.5.5 0 01-.356.935l-8.235-3.13 3.131 8.235a.5.5 0 01-.467.677z"/><path class="cls-2" d="M279.48 174.71h-42.363l-25.204-25.205a.5.5 0 11.707-.707l24.911 24.912h41.949a.5.5 0 010 1z"/></g></g></svg>