<svg xmlns="http://www.w3.org/2000/svg" viewBox="0 0 555 202.70714"><defs><style>.cls-1{fill:#666;}.cls-2{fill:#bfd833;}.cls-3{fill:#fff;}.cls-4{fill:#e5e5e6;}.cls-5{fill:#c8c9ca;}.cls-6{fill:#9e9e9f;}.cls-7{fill:#231815;}.cls-8{fill:none;}</style></defs><title>アセット 1701</title><g id="レイヤー_2" data-name="レイヤー 2"><g id="レイヤー_2-2" data-name="レイヤー 2"><path class="cls-1" d="M507.46046,171.35805V158.549h2.01563v.51611H508.1089v11.77735h1.36719v.51562Z"/><path class="cls-1" d="M520.37941,168.8395v-4.17383c0-1.271-.41895-2.18262-1.77442-2.18262a1.86932,1.86932,0,0,0-1.88281,2.063v4.29346h-.73144V164.546c0-1.27149-.37208-2.063-1.70313-2.063a2.03009,2.03009,0,0,0-1.96777,2.31445v4.042h-.73145V162.027h.708v1.1875a2.32653,2.32653,0,0,1,2.1709-1.34327,1.92536,1.92536,0,0,1,2.05078,1.29541h.03613a2.29418,2.29418,0,0,1,2.21875-1.29541,2.22,2.22,0,0,1,2.33887,2.51856v4.44971Z"/><path class="cls-1" d="M532.15089,168.8395v-4.17383c0-1.271-.41894-2.18262-1.77441-2.18262a1.86932,1.86932,0,0,0-1.88282,2.063v4.29346h-.73144V164.546c0-1.27149-.37207-2.063-1.70313-2.063a2.03009,2.03009,0,0,0-1.96777,2.31445v4.042h-.73144V162.027h.708v1.1875a2.32653,2.32653,0,0,1,2.1709-1.34327,1.92534,1.92534,0,0,1,2.05078,1.29541h.03614a2.29418,2.29418,0,0,1,2.21875-1.29541,2.22,2.22,0,0,1,2.33886,2.51856v4.44971Z"/><path class="cls-1" d="M534.91554,171.35805v-.51562h1.36719V159.06508h-1.36719V158.549h2.00293v12.80908Z"/><path class="cls-1" d="M22.26173,97.58217h-.68359c-3.73-4.00586-4.78516-4.79687-6.20069-4.79687a1.85419,1.85419,0,0,0-1.835,2.0625,3.20958,3.20958,0,0,0,.89942,2.18261l-.52784.34766a3.62157,3.62157,0,0,1-1.019-2.542c0-1.583.83936-2.80664,2.4585-2.80664,1.73926,0,2.72265.86328,6.26074,4.60547V91.90932h.64746Z"/><path class="cls-1" d="M19.91115,85.72866h2.35058v.75586H19.91115v4.498h-.77979l-6.08057-4.07812V85.72866H19.2632v-1.3545h.64795Zm-6.23682.75586v.02441l5.58887,3.74219v-3.7666Z"/><path class="cls-1" d="M22.26173,82.7394H21.21827v-.97168h1.04346Z"/><path class="cls-1" d="M22.41749,77.51967a5.5205,5.5205,0,0,1-.61133,2.62695l-.61181-.25195A4.81658,4.81658,0,0,0,21.77,77.50795c0-1.34375-.62353-2.35058-2.00293-2.35058-1.46338,0-1.93115,1.415-1.93115,2.85449v.86328h-.64746v-.86328c0-1.45117-.58789-2.5791-1.895-2.5791-1.15137,0-1.751.83984-1.751,2.05078a4.26866,4.26866,0,0,0,.57569,2.19531l-.62354.23926a5.15468,5.15468,0,0,1-.59961-2.4707c0-1.60645.87549-2.77051,2.35059-2.77051a2.23026,2.23026,0,0,1,2.23095,1.90722h.02393a2.24332,2.24332,0,0,1,2.2666-2.17089C21.4463,74.41323,22.41749,75.73256,22.41749,77.51967Z"/><path class="cls-1" d="M48.44435,97.57045h-.6836c-3.73-4.00586-4.78515-4.79687-6.20068-4.79687a1.85419,1.85419,0,0,0-1.835,2.0625,3.20962,3.20962,0,0,0,.89941,2.18262l-.52783.34765a3.62157,3.62157,0,0,1-1.019-2.542c0-1.583.83935-2.80664,2.4585-2.80664,1.73925,0,2.72265.86328,6.26074,4.60547V91.8976h.64746Z"/><path class="cls-1" d="M48.44435,90.77846h-.6836c-3.73-4.00586-4.78515-4.79687-6.20068-4.79687a1.85469,1.85469,0,0,0-1.835,2.0625,3.20959,3.20959,0,0,0,.89941,2.18261l-.52783.34766a3.62157,3.62157,0,0,1-1.019-2.542c0-1.583.83935-2.80664,2.4585-2.80664,1.73925,0,2.72265.86328,6.26074,4.60547V85.10561h.64746Z"/><path class="cls-1" d="M48.44435,83.27944H47.40089v-.97168h1.04346Z"/><path class="cls-1" d="M46.09376,75.51772h2.35059v.75488H46.09376v4.49805H45.314l-6.08057-4.07813v-1.1748h6.2124V74.16225h.648ZM39.857,76.2726V76.297l5.58886,3.74218V76.2726Z"/><path class="cls-1" d="M307.68409,93.005h-.68359c-3.73047-4.00586-4.78516-4.79687-6.20117-4.79687a1.85419,1.85419,0,0,0-1.835,2.0625,3.21187,3.21187,0,0,0,.89941,2.18262l-.52734.34765a3.61986,3.61986,0,0,1-1.01953-2.542c0-1.583.83984-2.80664,2.459-2.80664,1.73926,0,2.72266.86328,6.26074,4.60547V87.33217h.64746Z"/><path class="cls-1" d="M307.83937,83.76674a5.684,5.684,0,0,1-.49121,2.39844l-.63575-.24023a4.94345,4.94345,0,0,0,.4795-2.14649c0-1.45117-.71973-2.53027-2.29-2.53027-1.61914,0-2.1836,1.33105-2.1836,2.65039a8.51268,8.51268,0,0,0,.19239,1.87109l-4.4375-.17969V81.01967h.64746v3.89844l3.07031.14355a8.0853,8.0853,0,0,1-.1084-1.2832c0-1.76269.8877-3.28613,2.77051-3.28613C306.84425,80.49233,307.83937,81.93178,307.83937,83.76674Z"/><path class="cls-1" d="M307.68409,78.58217h-1.04394v-.97168h1.04394Z"/><path class="cls-1" d="M307.83937,72.547c0,2.41113-2.09863,3.12988-4.10156,3.12988-2.93848,0-5.4209-.9834-5.4209-3.57324a4.65525,4.65525,0,0,1,.32422-1.72754l.59961.19238a4.16829,4.16829,0,0,0-.27637,1.53516c0,2.08691,2.09961,2.74609,4.11426,2.83007v-.02441a2.89171,2.89171,0,0,1,1.667-5.32422A2.907,2.907,0,0,1,307.83937,72.547Zm-5.44434-.05957a2.245,2.245,0,0,0,2.07422,2.38671,2.44457,2.44457,0,0,0,2.72266-2.291,2.22633,2.22633,0,0,0-2.44629-2.25488A2.13591,2.13591,0,0,0,302.395,72.48745Z"/><path class="cls-2" d="M311.14113,154.69545a.5.5,0,0,1-.45606-.29541l-4.06543-9.05371a.49984.49984,0,1,1,.91211-.40918l3.60938,8.0376,3.60937-8.0376a.49984.49984,0,1,1,.91211.40918L311.59718,154.4A.5.5,0,0,1,311.14113,154.69545Z"/><path class="cls-2" d="M315.20656,17.43227a.49968.49968,0,0,1-.45606-.29541l-3.60937-8.0376-3.60938,8.0376a.49984.49984,0,1,1-.91211-.40918L310.68507,7.674a.52059.52059,0,0,1,.91211,0l4.06543,9.05371a.4998.4998,0,0,1-.456.70459Z"/><path class="cls-2" d="M311.14113,154.64565a.49971.49971,0,0,1-.5-.5V7.92885a.5.5,0,0,1,1,0v146.2168A.49972.49972,0,0,1,311.14113,154.64565Z"/><path class="cls-2" d="M26.82911,154.69545a.5.5,0,0,1-.45605-.29541l-4.06543-9.05371a.49984.49984,0,0,1,.91211-.40918l3.60937,8.0376,3.60938-8.0376a.49984.49984,0,0,1,.91211.40918L27.28517,154.4A.5.5,0,0,1,26.82911,154.69545Z"/><path class="cls-2" d="M30.895,24.77016a.49984.49984,0,0,1-.45654-.29541l-3.60938-8.03711-3.60937,8.03711a.49984.49984,0,0,1-.91211-.40918l4.06543-9.05322a.52059.52059,0,0,1,.91211,0l4.06543,9.05322a.50017.50017,0,0,1-.45557.70459Z"/><path class="cls-2" d="M26.82911,154.64565a.49972.49972,0,0,1-.5-.5V15.26674a.5.5,0,1,1,1,0V154.14565A.49971.49971,0,0,1,26.82911,154.64565Z"/><path class="cls-2" d="M53.77247,154.69545a.50039.50039,0,0,1-.456-.29492l-4.06592-9.05371a.5.5,0,0,1,.91211-.41016l3.60986,8.03809,3.60938-8.0376a.49984.49984,0,0,1,.91211.40918L54.22853,154.4A.5.5,0,0,1,53.77247,154.69545Z"/><path class="cls-2" d="M57.83839,35.36537a.49984.49984,0,0,1-.45654-.29541l-3.60938-8.03759-3.60986,8.03808a.5.5,0,0,1-.91211-.41015l4.06592-9.05371a.52094.52094,0,0,1,.91211.00048L58.294,34.66078a.50016.50016,0,0,1-.45557.70459Z"/><path class="cls-2" d="M53.77247,154.64565a.49972.49972,0,0,1-.5-.5V25.862a.5.5,0,1,1,1,0V154.14565A.49971.49971,0,0,1,53.77247,154.64565Z"/><path class="cls-2" d="M339.2632,8.49575H288.56593a.5.5,0,0,1,0-1H339.2632a.5.5,0,1,1,0,1Z"/><path class="cls-2" d="M96.30714,15.76674h-69.478a.5.5,0,0,1,0-1h69.478a.5.5,0,0,1,0,1Z"/><path class="cls-2" d="M96.30714,26.362H50.77247a.5.5,0,0,1,0-1H96.30714a.5.5,0,0,1,0,1Z"/><path class="cls-2" d="M537.49074,154.57827H18.10792a.5.5,0,0,1,0-1H537.49074a.5.5,0,0,1,0,1Z"/><path class="cls-3" d="M87.38146,141.73856l-3.2334-6.8028h-.1698V28.92016l2.834-2.833h11.1972V22.968a1.70276,1.70276,0,0,0-1.7022-1.7012h-3.9668V17.298a1.69968,1.69968,0,0,1,1.7002-1.7002h24.9454a1.70117,1.70117,0,0,1,1.7012,1.7002l.2284,8.7892h22.1064l.2296-8.7892a1.69926,1.69926,0,0,1,1.6982-1.7002h58.3388a1.70126,1.70126,0,0,1,1.7022,1.7002l.2296,8.7892h22.1014l.2316-8.7892a1.69934,1.69934,0,0,1,1.6992-1.7002h24.9452a1.70126,1.70126,0,0,1,1.7022,1.7002v3.9688h-3.9688a1.70271,1.70271,0,0,0-1.702,1.7012v3.1192h11.1992l2.832,2.833v106.0156h-.17l-3.2294,6.8028h-1.7032l-2.3076,2.7548a11.34776,11.34776,0,0,1-8.6866,4.0498h-12.0262a11.33651,11.33651,0,0,1-8.6826-4.0498l-2.3126-2.7548-3.5098.0126q-.8979.9654-1.8652,1.8642a35.43274,35.43274,0,0,1-50.0732-1.8642l-39.963-.0126-.0058.414a2.86725,2.86725,0,0,1-.4844,1.5362l-2.625,3.8906a12.47112,12.47112,0,0,1-10.3408,5.5h-10.169a12.46546,12.46546,0,0,1-10.3388-5.5l-2.625-3.8906a2.82033,2.82033,0,0,1-.4844-1.5362l-.0078-.414Z"/><path class="cls-4" d="M129.73106,141.73856l-.0058.414a2.86725,2.86725,0,0,1-.4844,1.5362l-2.625,3.8906a12.47112,12.47112,0,0,1-10.3408,5.5h-10.169a12.46546,12.46546,0,0,1-10.3388-5.5l-2.625-3.8906a2.82033,2.82033,0,0,1-.4844-1.5362l-.0078-.414Z"/><path class="cls-5" d="M221.63246,141.75116q-.8979.9654-1.8652,1.8642a35.43274,35.43274,0,0,1-50.0732-1.8642Z"/><path class="cls-6" d="M260.86106,142.48856H87.38146a.75.75,0,0,1,0-1.5h173.4796a.75.75,0,0,1,0,1.5Z"/><path class="cls-6" d="M264.26046,135.68576H83.97826a.75.75,0,0,1,0-1.5h180.2822a.75.75,0,0,1,0,1.5Z"/><path class="cls-6" d="M264.26046,99.40256H83.97826a.75.75,0,0,1,0-1.5h180.2822a.75.75,0,0,1,0,1.5Z"/><path class="cls-6" d="M264.26046,44.97776H83.97826a.75.75,0,0,1,0-1.5h180.2822a.75.75,0,0,1,0,1.5Z"/><path class="cls-6" d="M264.26046,29.67016H83.97826a.75.75,0,0,1,0-1.5h180.2822a.75.75,0,0,1,0,1.5Z"/><path class="cls-6" d="M261.42846,26.83716H86.81226a.75.75,0,0,1,0-1.5h174.6162a.75.75,0,0,1,0,1.5Z"/><path class="cls-6" d="M204.99086,23.468h-19.1064a.5.5,0,0,1,0-1h19.1064a.5.5,0,0,1,0,1Z"/><path class="cls-6" d="M162.35606,23.468h-19.1044a.5.5,0,0,1,0-1h19.1044a.5.5,0,0,1,0,1Z"/><path class="cls-6" d="M189.89226,21.76676a.49967.49967,0,0,1-.5-.5v-3.9932l.0118-.2216a.29892.29892,0,0,1,.0038-.043l.0294-.2188c.0028-.0176.0058-.035.0096-.0526l.0518-.209c.004-.0146.0078-.0294.0128-.043l.0684-.2002a.5094.5094,0,0,1,.0234-.0546l.0888-.1846c.0068-.0148.0146-.0284.0224-.042l.1016-.167a.36231.36231,0,0,1,.0392-.0548l.118-.1474a.58332.58332,0,0,1,.047-.0498l.1308-.123a.52585.52585,0,0,1,.0556-.046l.1406-.0976a.49761.49761,0,0,1,.0694-.041l.1484-.0714a.51635.51635,0,0,1,.083-.0322l.1564-.043a.48665.48665,0,0,1,.0898-.0166l.1562-.0146a.50012.50012,0,1,1,.0898.9962l-.1102.0098-.0694.0194-.0722.0352-.0782.0546-.08.0752-.0772.0948-.0714.1182-.0654.1358-.0518.1502-.04.1622-.0234.171-.0088.1884v3.956A.49967.49967,0,0,1,189.89226,21.76676Z"/><path class="cls-6" d="M182.72526,26.58716a.49967.49967,0,0,1-.5-.5v-8.8136l.0108-.2216c.001-.0156.0028-.0312.0048-.0468l.0312-.2188c.002-.0156.006-.0322.0098-.0488l.0508-.209.0118-.04.0674-.1994a.50777.50777,0,0,1,.0234-.0584l.0898-.1846a.39125.39125,0,0,1,.0244-.045l.1026-.167a.48466.48466,0,0,1,.037-.0518l.1192-.1474a.38623.38623,0,0,1,.042-.045l.128-.124a.71427.71427,0,0,1,.0596-.0498l.1406-.0976a.56087.56087,0,0,1,.0732-.043l.1514-.0712a.37179.37179,0,0,1,.078-.0294l.1544-.044a.511.511,0,0,1,.0918-.0166l.1562-.0146a.50012.50012,0,0,1,.0898.9962l-.1102.0098-.0694.0194-.0762.0362-.0742.0518-.0772.0752-.079.0976-.0734.1182-.0634.1328-.0508.1504-.041.166-.0244.1708-.0088.1866v8.7764A.50031.50031,0,0,1,182.72526,26.58716Z"/><path class="cls-6" d="M120.68726,17.798H92.34046a.5.5,0,0,1,0-1h28.3468a.5.5,0,0,1,0,1Z"/><path class="cls-6" d="M204.99086,17.798h-61.7392a.5.5,0,0,1,0-1h61.7392a.5.5,0,0,1,0,1Z"/><path class="cls-6" d="M255.90006,17.798h-28.3466a.5.5,0,0,1,0-1h28.3466a.5.5,0,0,1,0,1Z"/><path class="cls-6" d="M158.34646,21.76676a.50031.50031,0,0,1-.5-.5l-.0078-4.1444-.0246-.171-.038-.1602-.0546-.1542-.0616-.1338-.0742-.1162-.0782-.0978-.079-.0742-.0772-.0536-.0752-.0362-.0654-.0194-.1114-.0098a.5.5,0,0,1,.088-.9962l.16.0146a.541.541,0,0,1,.0948.0176l.1514.044a.38254.38254,0,0,1,.0772.0294l.1504.0712a.521.521,0,0,1,.0702.042l.1406.0976a.50847.50847,0,0,1,.0558.046l.1318.123a.59909.59909,0,0,1,.0478.0528l.1172.1464c.0108.0146.0214.0284.0312.044l.1064.167c.0118.0194.0226.04.0324.0604l.0848.1846c.006.0128.0108.0254.0158.0382l.0712.2002a.54931.54931,0,0,1,.0166.0526l.0498.21.0088.045.0312.2188a.41772.41772,0,0,1,.004.0498l.0098.2216v3.9902A.4998.4998,0,0,1,158.34646,21.76676Z"/><path class="cls-6" d="M165.51246,26.58716a.49967.49967,0,0,1-.5-.5V17.298l-.005-.1786-.0244-.166-.039-.1622-.0548-.1542-.0624-.1338-.0722-.1162-.0782-.0968-.08-.0752-.0782-.0536-.0742-.0362-.0674-.0194-.1094-.0098a.50012.50012,0,1,1,.0898-.9962l.1564.0146a.60284.60284,0,0,1,.0926.0166l.1534.044a.4681.4681,0,0,1,.0782.0304l.1504.0712a.521.521,0,0,1,.0702.042l.1406.0976a.50847.50847,0,0,1,.0558.046l.1318.123a.429.429,0,0,1,.0458.0498l.1192.1474a.48072.48072,0,0,1,.0352.0488l.1044.167a.47653.47653,0,0,1,.0294.0548l.0858.1836c.007.0156.0128.0302.0186.0458l.0704.2002c.0048.0148.0098.0304.0136.046l.0518.209c.0038.0166.0068.0332.0088.0488l.0312.2188a.3686.3686,0,0,1,.0048.0566l.007.2226v8.8028A.4998.4998,0,0,1,165.51246,26.58716Z"/><path class="cls-6" d="M162.35606,26.83716a.75027.75027,0,0,1-.75-.75V22.968a.95329.95329,0,0,0-.953-.9512h-16.6446l-.0068.539a.75.75,0,0,1-1.5,0l.001-.3934.001-.0206.0146-.3486c0-.0126.001-.0244.002-.0372l.0146-.1434.003-.0294.0174-.125c.004-.0282.0098-.0566.0166-.085l.0264-.1024a.80147.80147,0,0,1,.0362-.1056l.0342-.081a.8381.8381,0,0,1,.0664-.124l.041-.0606a.746.746,0,0,1,.1866-.1934l.0498-.036a.73751.73751,0,0,1,.287-.125l.0606-.0128a.72479.72479,0,0,1,.1504-.0156h17.1426a2.455,2.455,0,0,1,2.453,2.4512v3.1192A.75015.75015,0,0,1,162.35606,26.83716Z"/><path class="cls-6" d="M185.88446,26.83716a.75027.75027,0,0,1-.75-.75V22.968a2.45312,2.45312,0,0,1,2.4502-2.4512h17.1436a.691.691,0,0,1,.1542.0166l.0596.0118a.75842.75842,0,0,1,.2832.125l.0498.036a.75787.75787,0,0,1,.1718.172l.044.0606a.80351.80351,0,0,1,.086.1562l.0322.082a.76616.76616,0,0,1,.0342.1036l.0244.1034c.0048.0186.0088.0372.0118.0566l.0204.125c.003.0176.005.0362.0068.0548l.0128.1436.002.0292.0136.3486.001.0206.001.1894a.74944.74944,0,0,1-.7432.7558h-.0068a.75069.75069,0,0,1-.75-.744l-.0068-.3468h-16.6456a.95154.95154,0,0,0-.9502.9512v3.1192A.75027.75027,0,0,1,185.88446,26.83716Z"/><path class="cls-7" d="M116.27506,154.07936h-10.169a13.44558,13.44558,0,0,1-11.1678-5.9414l-2.625-3.8898a3.80944,3.80944,0,0,1-.6036-1.5096h-4.3282a.9983.9983,0,0,1-.9032-.5704l-3.0362-6.3876a.99927.99927,0,0,1-.4638-.8448V28.92016a.99868.99868,0,0,1,.293-.707l2.834-2.833a1.00008,1.00008,0,0,1,.707-.293h10.1972V22.968a.70265.70265,0,0,0-.7022-.7012h-3.9668a1.00011,1.00011,0,0,1-1-1V17.298a2.70287,2.70287,0,0,1,2.7002-2.7002h24.9454a2.70376,2.70376,0,0,1,2.7012,2.6856l.203,7.8038h20.1572l.2042-7.8038a2.70247,2.70247,0,0,1,2.6982-2.6856h58.3388a2.70462,2.70462,0,0,1,2.7022,2.6856l.2032,7.8038h20.1532l.2062-7.8038a2.70268,2.70268,0,0,1,2.6992-2.6856h24.9452a2.70381,2.70381,0,0,1,2.7022,2.7002v3.9688a1.00062,1.00062,0,0,1-1,1h-3.9688a.70261.70261,0,0,0-.702.7012v2.1192h10.1992a1.00077,1.00077,0,0,1,.707.293l2.832,2.833a.99868.99868,0,0,1,.293.707v106.0156a.99927.99927,0,0,1-.4638.8448l-3.0324,6.3866a1.00119,1.00119,0,0,1-.9032.5714h-1.2364l-2.0078,2.3974a12.31962,12.31962,0,0,1-9.4532,4.4072h-12.0262a12.30414,12.30414,0,0,1-9.4492-4.4072l-2.0108-2.3956-2.6114.0088c-.5244.5518-1.0674,1.088-1.6192,1.5996a36.43123,36.43123,0,0,1-51.1854-1.5976l-38.5898-.0126a3.86675,3.86675,0,0,1-.6006,1.5078l-2.627,3.8926A13.453,13.453,0,0,1,116.27506,154.07936Zm-28.2616-13.3408h4.6366a1.00057,1.00057,0,0,1,1,.9814l.0078.414a1.81448,1.81448,0,0,0,.3136.9952l2.625,3.8906a11.45093,11.45093,0,0,0,9.5096,5.0596h10.169a11.45878,11.45878,0,0,0,9.5118-5.0596l2.625-3.8906a1.86061,1.86061,0,0,0,.3134-.9962l.0058-.4092a1.00014,1.00014,0,0,1,1-.9852h0l39.963.0126a1.00123,1.00123,0,0,1,.7324.3194,34.43079,34.43079,0,0,0,48.6602,1.8114c.621-.5762,1.2314-1.1854,1.8134-1.8114a.99886.99886,0,0,1,.7296-.3194l3.5088-.0126h.0038a1.00025,1.00025,0,0,1,.7656.3574l2.3126,2.7548a10.30885,10.30885,0,0,0,7.917,3.6924h12.0262a10.32079,10.32079,0,0,0,7.921-3.6934l2.3066-2.7528a.99722.99722,0,0,1,.7666-.3584h1.0704l2.959-6.2316a.97739.97739,0,0,1,.0732-.1298V29.33416l-2.2462-2.247h-10.785a1.00062,1.00062,0,0,1-1-1V22.968a2.70462,2.70462,0,0,1,2.702-2.7012h2.9688V17.298a.70257.70257,0,0,0-.7022-.7002h-24.9452a.70064.70064,0,0,0-.6992.7002l-.001.0264-.2314,8.7892a.99914.99914,0,0,1-.9992.9736h-22.1014a1.00037,1.00037,0,0,1-1-.9736l-.2296-8.7892V17.298a.70257.70257,0,0,0-.7022-.7002h-58.3388a.70043.70043,0,0,0-.6982.7002l-.001.0264-.2294,8.7892a.99914.99914,0,0,1-.9992.9736h-22.1064a1.00037,1.00037,0,0,1-1-.9736l-.2274-8.7892-.001-.0264a.70184.70184,0,0,0-.7012-.7002H94.04066a.70163.70163,0,0,0-.7002.7002v2.9688h2.9668a2.70479,2.70479,0,0,1,2.7022,2.7012v3.1192a1.00062,1.00062,0,0,1-1,1H87.22626l-2.248,2.247v105.043a1.05848,1.05848,0,0,1,.0732.1288Z"/><path class="cls-3" d="M339.74808,141.73856l-3.2334-6.8028h-.1698V28.92016l2.834-2.833h11.1972V22.968a1.70276,1.70276,0,0,0-1.7022-1.7012h-3.9668V17.298a1.69968,1.69968,0,0,1,1.7002-1.7002h24.9454a1.70117,1.70117,0,0,1,1.7012,1.7002l.2284,8.7892h22.1064l.2296-8.7892a1.69926,1.69926,0,0,1,1.6982-1.7002h58.33879a1.70126,1.70126,0,0,1,1.7022,1.7002l.2296,8.7892h22.1014l.2316-8.7892a1.69934,1.69934,0,0,1,1.6992-1.7002h24.9452a1.70126,1.70126,0,0,1,1.7022,1.7002v3.9688h-3.9688a1.70271,1.70271,0,0,0-1.702,1.7012v3.1192h11.1992l2.832,2.833v106.0156h-.17l-3.22939,6.8028h-1.70321l-2.3076,2.7548a11.34774,11.34774,0,0,1-8.6866,4.0498h-12.0262a11.33651,11.33651,0,0,1-8.6826-4.0498l-2.3126-2.7548-3.5098.0126q-.8979.9654-1.8652,1.8642a35.43273,35.43273,0,0,1-50.07319-1.8642l-39.963-.0126-.0058.414a2.86725,2.86725,0,0,1-.4844,1.5362l-2.625,3.8906a12.47112,12.47112,0,0,1-10.3408,5.5h-10.169a12.46546,12.46546,0,0,1-10.3388-5.5l-2.625-3.8906a2.82033,2.82033,0,0,1-.4844-1.5362l-.0078-.414Z"/><path class="cls-4" d="M382.09768,141.73856l-.0058.414a2.86725,2.86725,0,0,1-.4844,1.5362l-2.625,3.8906a12.47112,12.47112,0,0,1-10.3408,5.5h-10.169a12.46546,12.46546,0,0,1-10.3388-5.5l-2.625-3.8906a2.82033,2.82033,0,0,1-.4844-1.5362l-.0078-.414Z"/><path class="cls-5" d="M473.99907,141.75116q-.8979.9654-1.8652,1.8642a35.43273,35.43273,0,0,1-50.07319-1.8642Z"/><path class="cls-6" d="M513.22768,142.48856H339.74808a.75.75,0,0,1,0-1.5h173.4796a.75.75,0,0,1,0,1.5Z"/><path class="cls-6" d="M516.62707,135.68576H336.34488a.75.75,0,0,1,0-1.5H516.62707a.75.75,0,0,1,0,1.5Z"/><path class="cls-6" d="M516.62707,99.40256H336.34488a.75.75,0,0,1,0-1.5H516.62707a.75.75,0,0,1,0,1.5Z"/><path class="cls-6" d="M516.62707,44.97776H336.34488a.75.75,0,0,1,0-1.5H516.62707a.75.75,0,0,1,0,1.5Z"/><path class="cls-6" d="M516.62707,29.67016H336.34488a.75.75,0,0,1,0-1.5H516.62707a.75.75,0,0,1,0,1.5Z"/><path class="cls-6" d="M513.79507,26.83716H339.17888a.75.75,0,0,1,0-1.5H513.79507a.75.75,0,0,1,0,1.5Z"/><path class="cls-6" d="M457.35747,23.468H438.25108a.5.5,0,0,1,0-1h19.10639a.5.5,0,0,1,0,1Z"/><path class="cls-6" d="M414.72268,23.468h-19.1044a.5.5,0,0,1,0-1h19.1044a.5.5,0,0,1,0,1Z"/><path class="cls-6" d="M442.25888,21.76676a.49967.49967,0,0,1-.5-.5v-3.9932l.0118-.2216a.29892.29892,0,0,1,.0038-.043l.0294-.2188c.0028-.0176.0058-.035.0096-.0526l.0518-.209c.004-.0146.0078-.0294.0128-.043l.0684-.2002a.5094.5094,0,0,1,.0234-.0546l.0888-.1846c.0068-.0148.0146-.0284.0224-.042l.1016-.167a.36231.36231,0,0,1,.0392-.0548l.118-.1474a.58332.58332,0,0,1,.047-.0498l.1308-.123a.52585.52585,0,0,1,.0556-.046l.1406-.0976a.49761.49761,0,0,1,.0694-.041l.1484-.0714a.51635.51635,0,0,1,.083-.0322l.1564-.043a.48665.48665,0,0,1,.0898-.0166l.1562-.0146a.50012.50012,0,0,1,.0898.9962l-.1102.0098-.0694.0194-.0722.0352-.0782.0546-.08.0752-.0772.0948-.0714.1182-.0654.1358-.0518.1502-.04.1622-.0234.171-.0088.1884v3.956A.49967.49967,0,0,1,442.25888,21.76676Z"/><path class="cls-6" d="M435.09188,26.58716a.49967.49967,0,0,1-.5-.5v-8.8136l.0108-.2216c.001-.0156.0028-.0312.0048-.0468l.0312-.2188c.002-.0156.006-.0322.0098-.0488l.0508-.209.0118-.04.0674-.1994a.50777.50777,0,0,1,.0234-.0584l.0898-.1846a.39125.39125,0,0,1,.0244-.045l.1026-.167a.48466.48466,0,0,1,.037-.0518l.1192-.1474a.38623.38623,0,0,1,.042-.045l.128-.124a.71427.71427,0,0,1,.0596-.0498l.1406-.0976a.56087.56087,0,0,1,.0732-.043l.1514-.0712a.37179.37179,0,0,1,.078-.0294l.1544-.044a.511.511,0,0,1,.0918-.0166l.1562-.0146a.50012.50012,0,0,1,.0898.9962l-.1102.0098-.0694.0194-.0762.0362-.0742.0518-.0772.0752-.079.0976-.0734.1182-.0634.1328-.0508.1504-.041.166-.0244.1708-.0088.1866v8.7764A.50031.50031,0,0,1,435.09188,26.58716Z"/><path class="cls-6" d="M373.05388,17.798h-28.3468a.5.5,0,0,1,0-1h28.3468a.5.5,0,0,1,0,1Z"/><path class="cls-6" d="M457.35747,17.798H395.61828a.5.5,0,0,1,0-1h61.73919a.5.5,0,0,1,0,1Z"/><path class="cls-6" d="M508.26667,17.798h-28.3466a.5.5,0,0,1,0-1h28.3466a.5.5,0,0,1,0,1Z"/><path class="cls-6" d="M410.71308,21.76676a.50031.50031,0,0,1-.5-.5l-.0078-4.1444-.0246-.171-.038-.1602-.0546-.1542-.0616-.1338-.0742-.1162-.0782-.0978-.079-.0742-.0772-.0536-.0752-.0362-.0654-.0194-.1114-.0098a.5.5,0,0,1,.088-.9962l.16.0146a.541.541,0,0,1,.0948.0176l.1514.044a.38254.38254,0,0,1,.0772.0294l.1504.0712a.521.521,0,0,1,.0702.042l.1406.0976a.50847.50847,0,0,1,.0558.046l.1318.123a.59909.59909,0,0,1,.0478.0528l.1172.1464c.0108.0146.0214.0284.0312.044l.1064.167c.0118.0194.0226.04.0324.0604l.0848.1846c.006.0128.0108.0254.0158.0382l.0712.2002a.54931.54931,0,0,1,.0166.0526l.0498.21.0088.045.0312.2188a.41772.41772,0,0,1,.004.0498l.0098.2216v3.9902A.4998.4998,0,0,1,410.71308,21.76676Z"/><path class="cls-6" d="M417.87908,26.58716a.49967.49967,0,0,1-.5-.5V17.298l-.005-.1786-.0244-.166-.039-.1622-.0548-.1542-.0624-.1338-.0722-.1162-.0782-.0968-.08-.0752-.0782-.0536-.0742-.0362-.0674-.0194-.1094-.0098a.50012.50012,0,1,1,.0898-.9962l.1564.0146a.60284.60284,0,0,1,.0926.0166l.1534.044a.4681.4681,0,0,1,.0782.0304l.1504.0712a.521.521,0,0,1,.0702.042l.1406.0976a.50847.50847,0,0,1,.0558.046l.1318.123a.429.429,0,0,1,.0458.0498l.1192.1474a.48072.48072,0,0,1,.0352.0488l.1044.167a.47653.47653,0,0,1,.0294.0548l.0858.1836c.007.0156.0128.0302.0186.0458l.0704.2002c.0048.0148.0098.0304.0136.046l.0518.209c.0038.0166.0068.0332.0088.0488l.0312.2188a.3686.3686,0,0,1,.0048.0566l.007.2226v8.8028A.4998.4998,0,0,1,417.87908,26.58716Z"/><path class="cls-6" d="M414.72268,26.83716a.75027.75027,0,0,1-.75-.75V22.968a.95329.95329,0,0,0-.953-.9512h-16.6446l-.0068.539a.75.75,0,1,1-1.5,0l.001-.3934.001-.0206.0146-.3486c0-.0126.001-.0244.002-.0372l.0146-.1434.003-.0294.0174-.125c.004-.0282.0098-.0566.0166-.085l.0264-.1024a.80147.80147,0,0,1,.0362-.1056l.0342-.081a.8381.8381,0,0,1,.0664-.124l.041-.0606a.746.746,0,0,1,.1866-.1934l.0498-.036a.73751.73751,0,0,1,.287-.125l.0606-.0128a.72479.72479,0,0,1,.1504-.0156h17.1426a2.455,2.455,0,0,1,2.453,2.4512v3.1192A.75015.75015,0,0,1,414.72268,26.83716Z"/><path class="cls-6" d="M438.25108,26.83716a.75027.75027,0,0,1-.75-.75V22.968a2.45312,2.45312,0,0,1,2.4502-2.4512h17.14359a.691.691,0,0,1,.1542.0166l.0596.0118a.75842.75842,0,0,1,.2832.125l.04981.036a.75782.75782,0,0,1,.17179.172l.044.0606a.803.803,0,0,1,.086.1562l.03221.082a.76752.76752,0,0,1,.03419.1036l.0244.1034c.0048.0186.0088.0372.0118.0566l.0204.125c.003.0176.005.0362.0068.0548l.0128.1436.002.0292.01361.3486.001.0206.001.1894a.74946.74946,0,0,1-.74321.7558h-.00679a.75068.75068,0,0,1-.75-.744l-.00681-.3468H439.95128a.95154.95154,0,0,0-.9502.9512v3.1192A.75027.75027,0,0,1,438.25108,26.83716Z"/><path class="cls-7" d="M368.64168,154.07936h-10.169a13.44558,13.44558,0,0,1-11.1678-5.9414l-2.625-3.8898a3.80944,3.80944,0,0,1-.6036-1.5096h-4.3282a.9983.9983,0,0,1-.9032-.5704l-3.0362-6.3876a.99927.99927,0,0,1-.4638-.8448V28.92016a.99868.99868,0,0,1,.293-.707l2.834-2.833a1.00008,1.00008,0,0,1,.707-.293h10.1972V22.968a.70265.70265,0,0,0-.7022-.7012h-3.9668a1.00011,1.00011,0,0,1-1-1V17.298a2.70287,2.70287,0,0,1,2.7002-2.7002h24.9454a2.70376,2.70376,0,0,1,2.7012,2.6856l.203,7.8038h20.1572l.2042-7.8038a2.70247,2.70247,0,0,1,2.6982-2.6856h58.33879a2.70461,2.70461,0,0,1,2.7022,2.6856l.2032,7.8038h20.1532l.2062-7.8038a2.70268,2.70268,0,0,1,2.6992-2.6856h24.9452a2.70381,2.70381,0,0,1,2.7022,2.7002v3.9688a1.00062,1.00062,0,0,1-1,1h-3.9688a.70261.70261,0,0,0-.702.7012v2.1192h10.1992a1.00076,1.00076,0,0,1,.707.293l2.832,2.833a.99864.99864,0,0,1,.293.707v106.0156a.99927.99927,0,0,1-.4638.8448l-3.0324,6.3866a1.00119,1.00119,0,0,1-.90319.5714h-1.23641l-2.0078,2.3974a12.3196,12.3196,0,0,1-9.4532,4.4072h-12.0262a12.30416,12.30416,0,0,1-9.4492-4.4072l-2.0108-2.3956-2.6114.0088c-.5244.5518-1.0674,1.088-1.6192,1.5996a36.43122,36.43122,0,0,1-51.18539-1.5976l-38.5898-.0126a3.86675,3.86675,0,0,1-.6006,1.5078l-2.627,3.8926A13.453,13.453,0,0,1,368.64168,154.07936Zm-28.2616-13.3408h4.6366a1.00057,1.00057,0,0,1,1,.9814l.0078.414a1.81448,1.81448,0,0,0,.3136.9952l2.625,3.8906a11.45093,11.45093,0,0,0,9.5096,5.0596h10.169a11.45878,11.45878,0,0,0,9.5118-5.0596l2.625-3.8906a1.86061,1.86061,0,0,0,.3134-.9962l.0058-.4092a1.00014,1.00014,0,0,1,1-.9852h0l39.963.0126a1.00123,1.00123,0,0,1,.7324.3194,34.43078,34.43078,0,0,0,48.66019,1.8114c.621-.5762,1.2314-1.1854,1.8134-1.8114a.99886.99886,0,0,1,.7296-.3194l3.5088-.0126h.0038a1.00025,1.00025,0,0,1,.7656.3574l2.3126,2.7548a10.30887,10.30887,0,0,0,7.917,3.6924h12.0262a10.32077,10.32077,0,0,0,7.921-3.6934l2.3066-2.7528a.99722.99722,0,0,1,.7666-.3584h1.0704l2.959-6.2316a.97851.97851,0,0,1,.0732-.1298V29.33416l-2.2462-2.247h-10.785a1.00062,1.00062,0,0,1-1-1V22.968a2.70462,2.70462,0,0,1,2.702-2.7012h2.9688V17.298a.70257.70257,0,0,0-.7022-.7002h-24.9452a.70064.70064,0,0,0-.6992.7002l-.001.0264-.23139,8.7892a.99916.99916,0,0,1-.99921.9736h-22.1014a1.00038,1.00038,0,0,1-1-.9736l-.2296-8.7892V17.298a.70257.70257,0,0,0-.7022-.7002H397.31648a.70043.70043,0,0,0-.6982.7002l-.001.0264-.2294,8.7892a.99914.99914,0,0,1-.9992.9736h-22.1064a1.00037,1.00037,0,0,1-1-.9736l-.2274-8.7892-.001-.0264a.70184.70184,0,0,0-.7012-.7002h-24.9454a.70163.70163,0,0,0-.7002.7002v2.9688h2.9668a2.70479,2.70479,0,0,1,2.7022,2.7012v3.1192a1.00062,1.00062,0,0,1-1,1h-10.7832l-2.248,2.247v105.043a1.05848,1.05848,0,0,1,.0732.1288Z"/><g id="LINE"><polyline class="cls-3" points="516.627 10.829 513.794 7.996 339.263 7.996 336.43 10.829 336.43 26.129 516.627 26.129 516.627 10.829"/><path class="cls-7" d="M516.62745,26.62905H336.42921a.49972.49972,0,0,1-.5-.5V10.82924a.49963.49963,0,0,1,.14649-.35351l2.834-2.8335a.49963.49963,0,0,1,.35352-.14648H513.79347a.49965.49965,0,0,1,.35352.14648l2.834,2.8335a.49962.49962,0,0,1,.14648.35351V26.12905A.49972.49972,0,0,1,516.62745,26.62905Zm-179.69824-1H516.12745V11.03627l-2.541-2.54052H339.47023l-2.541,2.54052Z"/></g><g id="LINE-2" data-name="LINE"><rect class="cls-6" x="336.42921" y="10.07924" width="180.19824" height="1.5"/></g><g id="LINE-3" data-name="LINE"><path class="cls-7" d="M516.62745,26.62905H336.42921a.49972.49972,0,0,1-.5-.5V10.82924a.49963.49963,0,0,1,.14649-.35351l2.834-2.8335a.49963.49963,0,0,1,.35352-.14648H513.79347a.49965.49965,0,0,1,.35352.14648l2.834,2.8335a.49962.49962,0,0,1,.14648.35351V26.12905A.49972.49972,0,0,1,516.62745,26.62905Zm-179.69824-1H516.12745V11.03627l-2.541-2.54052H339.47023l-2.541,2.54052Z"/></g><path class="cls-1" d="M246.73781,168.1559v.91162h-.74317v-.91162c-2.39941-.07178-4.25781-1.16357-4.25781-3.98193,0-2.59033,1.61914-3.84961,4.25781-3.9458v-.91162h.74317v.91162c2.74609.10791,4.25781,1.4751,4.25781,3.9458C250.99562,166.90834,249.22023,168.07192,246.73781,168.1559Zm-.74317-7.28027c-2.15918.02441-3.49023,1.05566-3.49023,3.32226,0,2.21875,1.22265,3.29834,3.49023,3.32227Zm.74317,0v6.64453c2.35058-.03613,3.50195-1.17529,3.50195-3.334C250.23976,161.84731,248.82472,160.88784,246.73781,160.87563Z"/><path class="cls-1" d="M254.93605,168.8395v-8.49122l-1.99121,1.355-.34766-.53956,2.2666-1.53515h.81543v9.21094Z"/><path class="cls-1" d="M257.70949,168.8395v-.6836c4.00585-3.73,4.79687-4.78515,4.79687-6.20068a1.85469,1.85469,0,0,0-2.0625-1.835,3.2096,3.2096,0,0,0-2.18262.89941l-.34765-.52783a3.62151,3.62151,0,0,1,2.542-1.019c1.583,0,2.80664.83935,2.80664,2.45849,0,1.73926-.86328,2.72266-4.60547,6.26074h4.72559v.64747Z"/><path class="cls-1" d="M265.20851,168.8395V167.796h.97168v1.04346Z"/><path class="cls-1" d="M270.356,168.99526a5.68411,5.68411,0,0,1-2.39844-.4917l.24024-.63574a4.93691,4.93691,0,0,0,2.14648.48c1.45117,0,2.53027-.71973,2.53027-2.29053,0-1.61914-1.33105-2.18311-2.65039-2.18311a8.541,8.541,0,0,0-1.87109.1919l.17969-4.4375H273.103v.64746H269.2046l-.14355,3.07031a8.07587,8.07587,0,0,1,1.2832-.10791c1.7627,0,3.28613.8877,3.28613,2.77051C273.63038,168.00014,272.19093,168.99526,270.356,168.99526Z"/><rect class="cls-8" width="555" height="202.70714"/><path class="cls-2" d="M215.75782,158.89223a.49941.49941,0,0,1-.46728-.32227l-3.52734-9.27636a.49994.49994,0,0,1,.645-.645l9.27636,3.52685a.49994.49994,0,0,1-.35547.93457l-8.23535-3.13086,3.13135,8.23536a.50006.50006,0,0,1-.46729.67773Z"/><path class="cls-2" d="M279.48,174.70961H237.1172l-25.20459-25.20508a.49995.49995,0,1,1,.707-.707l24.91162,24.91211H279.48a.5.5,0,0,1,0,1Z"/></g></g></svg>