<svg xmlns="http://www.w3.org/2000/svg" viewBox="-93.782 0 555 235.439"><defs><style>.cls-2{fill:#9e9e9f}.cls-3{fill:#c8c9ca}.cls-5{fill:#ddd583}.cls-7{fill:#231815}.cls-8{fill:#bfd833}.cls-9{fill:#666}</style></defs><g id="レイヤー_2" data-name="レイヤー 2"><g id="レイヤー_2-2" data-name="レイヤー 2"><path d="M94.504 11.044h168.944a5.67 5.67 0 015.67 5.67v168.942a5.67 5.67 0 01-5.67 5.67H94.501a5.667 5.667 0 01-5.667-5.667V16.714a5.67 5.67 0 015.67-5.67z" fill="#fff"/><path class="cls-2" d="M263.448 188.425H94.503a2.771 2.771 0 01-2.768-2.769V16.711a2.77 2.77 0 012.768-2.768h168.945a2.77 2.77 0 012.767 2.768v168.945a2.77 2.77 0 01-2.767 2.769zM94.503 14.943a1.77 1.77 0 00-1.768 1.768v168.945a1.77 1.77 0 001.768 1.769h168.945a1.77 1.77 0 001.767-1.769V16.711a1.769 1.769 0 00-1.767-1.768z"/><path class="cls-2" d="M133.053 101.192a.5.5 0 01-.5-.5v-42.1a.5.5 0 011 0v42.1a.5.5 0 01-.5.5z"/><path class="cls-2" d="M133.053 101.442h-24.225a.75.75 0 01-.75-.75v-42.1a.749.749 0 01.75-.75H133.098l.26.016a.776.776 0 01.084.01l.26.044a.887.887 0 01.089.022l.258.078a.986.986 0 01.07.025l.263.11a.705.705 0 01.076.037l.26.145a.516.516 0 01.075.047l.258.186a.86.86 0 01.056.046l.26.227c.02.018.04.037.058.057l.255.278a.828.828 0 01.045.055l.249.33c.014.02.029.04.042.062l.236.39a.84.84 0 01.033.06l.22.454c.01.02.018.04.026.06l.2.523a.72.72 0 01.02.06l.173.595c.006.02.01.042.014.062l.135.678.009.06.088.757a.58.58 0 01.004.06l.03.843.07 5.2.038 5.18.011 5.04-.01 5.044-.039 5.18-.068 5.186-.032.858a.542.542 0 01-.004.058l-.088.76c-.002.02-.006.04-.01.06l-.134.677a.763.763 0 01-.014.062l-.172.596a.616.616 0 01-.02.06l-.2.522-.026.06-.221.453a.563.563 0 01-.033.061l-.236.39a.753.753 0 01-.042.062l-.25.33a.948.948 0 01-.046.056l-.255.277a.714.714 0 01-.054.053l-.26.23a.991.991 0 01-.06.049l-.258.183a.58.58 0 01-.068.044l-.262.148-.075.037-.263.11a.675.675 0 01-.08.029l-.257.076a.627.627 0 01-.084.02l-.26.045a.587.587 0 01-.084.01l-.26.016-.045.001zm-23.475-1.5h23.452l.196-.011.175-.031.176-.052.186-.078.188-.107.193-.138.202-.178.204-.222.203-.27.198-.327.191-.392.177-.462.155-.535.122-.616.08-.7.03-.813.068-5.162.038-5.173.011-5.035-.01-5.032-.039-5.175-.068-5.175-.03-.798-.08-.698-.122-.617-.155-.535-.177-.463-.191-.393-.198-.326-.204-.272-.203-.221-.202-.178-.193-.139-.185-.103-.19-.078-.177-.054-.173-.03-.196-.012h-23.452zM141.558 177.37a13.256 13.256 0 1113.257-13.256 13.27 13.27 0 01-13.257 13.256zm0-25.512a12.256 12.256 0 1012.257 12.256 12.27 12.27 0 00-12.257-12.256zM118.88 185.024h-18.707a5.042 5.042 0 01-5.037-5.035V148.24a5.043 5.043 0 015.037-5.037h18.708a5.042 5.042 0 015.036 5.037v31.75a5.04 5.04 0 01-5.036 5.034zm-18.707-40.82a4.042 4.042 0 00-4.037 4.036v31.75a4.04 4.04 0 004.037 4.034h18.708a4.04 4.04 0 004.036-4.035V148.24a4.04 4.04 0 00-4.036-4.037zM178.975 185.591a19.798 19.798 0 01-19.776-19.775v-3.404a19.776 19.776 0 0139.552 0v3.404a19.798 19.798 0 01-19.776 19.775zm0-41.953a18.796 18.796 0 00-18.776 18.774v3.404a18.776 18.776 0 0037.552 0v-3.404a18.796 18.796 0 00-18.776-18.774zM178.975 50.911a17.758 17.758 0 1117.76-17.758 17.777 17.777 0 01-17.76 17.758zm0-34.015a16.258 16.258 0 1016.26 16.257 16.275 16.275 0 00-16.26-16.257zM224.894 101.192a.501.501 0 01-.5-.5v-42.1a.5.5 0 011 0v42.1a.5.5 0 01-.5.5z"/><path class="cls-2" d="M249.12 101.442h-24.226l-.044-.001-.26-.016a.58.58 0 01-.083-.01l-.26-.045a.635.635 0 01-.084-.02l-.258-.076a.675.675 0 01-.08-.029l-.262-.11a1.045 1.045 0 01-.075-.037l-.262-.148a.56.56 0 01-.068-.044l-.258-.183a.937.937 0 01-.06-.049l-.26-.23a.714.714 0 01-.054-.053l-.255-.277a.877.877 0 01-.046-.056l-.25-.33a.669.669 0 01-.041-.063l-.237-.389a.6.6 0 01-.033-.06l-.22-.454a1.24 1.24 0 01-.026-.06l-.2-.521a.616.616 0 01-.02-.06l-.173-.597a.688.688 0 01-.014-.062l-.134-.677c-.004-.02-.008-.04-.01-.06l-.088-.76a.543.543 0 01-.004-.058l-.031-.841-.07-5.202-.037-5.18-.011-5.043.01-5.04.039-5.18.068-5.186.032-.86a.58.58 0 01.004-.059l.088-.757a.654.654 0 01.009-.06l.135-.678a.709.709 0 01.014-.062l.172-.595a.72.72 0 01.02-.06l.2-.524.026-.06.22-.453a.923.923 0 01.034-.06l.237-.39a.794.794 0 01.042-.062l.249-.33a.769.769 0 01.044-.055l.255-.278c.019-.02.038-.04.058-.057l.26-.227a.77.77 0 01.056-.046l.258-.186a.515.515 0 01.074-.047l.261-.145a.706.706 0 01.076-.037l.263-.11a.958.958 0 01.07-.025l.258-.078a.882.882 0 01.089-.022l.26-.045a.765.765 0 01.084-.01l.259-.015h24.271a.749.749 0 01.75.75v42.1a.75.75 0 01-.75.75zm-24.202-1.5h23.453v-40.6h-23.453l-.195.01-.173.031-.178.054-.188.078-.186.103-.193.14-.202.177-.203.221-.204.272-.198.326-.19.393-.178.463-.154.535-.123.617-.08.698-.03.815-.068 5.16-.038 5.174-.011 5.032.01 5.036.039 5.173.068 5.176.03.796.08.7.123.617.154.535.177.462.19.392.2.328.202.27.204.22.202.18.193.137.188.107.186.078.176.052.175.03z"/><path class="cls-3" d="M117.344 105.266a3.853 3.853 0 00-1.312-.229c-.54 0-1.092.187-1.092.783 0 .483.319.714 1.2 1.06 1.072.454 1.69.87 1.69 1.875 0 1.219-1.04 1.719-2.132 1.719a5.056 5.056 0 01-1.833-.305l.224-.843a4.26 4.26 0 001.594.365c.703 0 1.176-.29 1.176-.865 0-.516-.46-.8-1.327-1.143-1.006-.404-1.58-.911-1.58-1.777 0-1.182 1.049-1.68 2.032-1.68a4.778 4.778 0 011.553.238zm3.313 5.208a2.338 2.338 0 10-2.185-2.333 2.087 2.087 0 002.185 2.333m0-3.932c.833 0 1.218.666 1.218 1.599 0 .953-.385 1.617-1.218 1.617-.823 0-1.209-.664-1.209-1.617 0-.933.375-1.599 1.21-1.599m2.915-.636v4.506h.962v-2.508c0-.992.57-1.362 1.102-1.362.726 0 .922.48.922 1.255v2.615h.988v-2.982a1.524 1.524 0 00-1.648-1.622 1.504 1.504 0 00-1.365.726h-.018v-.628zm5.423 0h-1.062l1.78 4.37-.73 1.76h1.01l2.447-6.13h-1.016l-1.21 3.308h-.012zm47.255 4.506h3.583v-.842h-2.583v-1.884h2.292v-.816h-2.292v-1.73h2.503v-.807h-3.503zm4.364-4.506v4.506h.966v-2.508c0-.992.55-1.362 1.102-1.362.735 0 .93.48.93 1.255v2.615h.953v-2.982a1.637 1.637 0 00-2.998-.896h-.012v-.628zm-43.815 0v4.506h.981v-2.508c0-.992.564-1.362 1.09-1.362.742 0 .944.48.944 1.255v2.615h.967v-2.982a1.514 1.514 0 00-1.63-1.622 1.541 1.541 0 00-1.386.726h-.013v-.628zm48.247.735h.746v2.528c0 .826.184 1.273 1.195 1.273.262 0 .544-.014.746-.03v-.74a3.267 3.267 0 01-.457.036c-.464 0-.523-.106-.523-.72v-2.347h.984v-.735h-.984v-1.167h-.961v1.167h-.746zm7.191 1.784v-.412c0-1.34-.66-2.205-1.956-2.205a2.119 2.119 0 00-2.115 2.346 2.19 2.19 0 002.39 2.32 3.585 3.585 0 001.353-.203l-.126-.716a3.15 3.15 0 01-1.132.203 1.39 1.39 0 01-1.542-1.333zm-3.128-.709a1.202 1.202 0 011.172-1.218 1.046 1.046 0 011.05 1.194v.024h-2.222m6.136-1.9a1.533 1.533 0 00-.168-.008 1.161 1.161 0 00-1.16.69h-.024v-.592h-.94v4.506h.977v-2.391c0-1.085.475-1.453 1.062-1.453.085 0 .15 0 .206.002zm-53.98.825h.738v2.528c0 .826.192 1.273 1.23 1.273.25 0 .537-.014.719-.03v-.74a2.984 2.984 0 01-.435.036c-.47 0-.518-.106-.518-.72v-2.347h.956v-.735H143v-1.167h-.996v1.167h-.737zm18.787 0h.763v2.528c0 .826.164 1.273 1.21 1.273.255 0 .527-.014.74-.03v-.74a3.287 3.287 0 01-.458.036c-.468 0-.524-.106-.524-.72v-2.347h.983v-.735h-.983v-1.167h-.968v1.167h-.763zm-11.584 1.784v-.412c0-1.34-.666-2.205-1.943-2.205a2.118 2.118 0 00-2.134 2.346 2.186 2.186 0 002.385 2.32 3.55 3.55 0 001.352-.203l-.13-.716a3.233 3.233 0 01-1.137.203 1.391 1.391 0 01-1.523-1.333zm-3.13-.709a1.206 1.206 0 011.187-1.218 1.04 1.04 0 011.027 1.194v.024h-2.214m28.342.709v-.412c0-1.34-.66-2.205-1.936-2.205a2.128 2.128 0 00-2.143 2.346 2.197 2.197 0 002.407 2.32 3.469 3.469 0 001.335-.203l-.137-.716a2.974 2.974 0 01-1.105.203 1.409 1.409 0 01-1.567-1.333zm-3.146-.709a1.226 1.226 0 011.21-1.218 1.053 1.053 0 011.04 1.194v.024h-2.25m-19.018-1.9c-.086-.005-.123-.008-.183-.008a1.169 1.169 0 00-1.177.69h-.013v-.592h-.94v4.506h.958v-2.391c0-1.085.495-1.453 1.088-1.453.084 0 .136 0 .196.002zm44.384.825h.633v2.528c0 .826.195 1.273 1.206 1.273.266 0 .55-.014.756-.03v-.74a3.16 3.16 0 01-.464.036c-.437 0-.531-.106-.531-.72v-2.347h1.008v-.735H197.5v-1.167h-.967v1.167h-.633zm5.881.934c-1.528 0-2.828.242-2.828 1.542 0 1.034.783 1.357 1.54 1.357a1.445 1.445 0 001.36-.696h.022a3.12 3.12 0 00.099.634h.85a8.588 8.588 0 01-.057-1.045v-1.9c0-1.084-.658-1.66-1.956-1.66a4.47 4.47 0 00-1.418.26l.203.717a3.264 3.264 0 011.153-.242c.72 0 1.032.328 1.032.924zm0 .633v.355a1.108 1.108 0 01-1.162 1.215.66.66 0 01-.741-.703c0-.7.817-.867 1.72-.867zm-47.161-.633c-1.51 0-2.818.242-2.818 1.542 0 1.034.771 1.357 1.551 1.357a1.471 1.471 0 001.36-.696h.016a3.993 3.993 0 00.091.634h.847a6.361 6.361 0 01-.073-1.045v-1.9c0-1.084-.633-1.66-1.92-1.66a4.27 4.27 0 00-1.416.26l.19.717a3.25 3.25 0 011.145-.242c.72 0 1.027.328 1.027.924zm0 .633v.355a1.099 1.099 0 01-1.136 1.215.67.67 0 01-.766-.703c0-.7.828-.867 1.727-.867zm50.156-4.013h-.977v.902h.977zm-.015 1.711h-.962v4.506h.962zm-40.204-1.71h-.993v.9h.993zm-.024 1.71h-.969v4.506h.969zm41.259 0v4.506h.966v-2.508c0-.992.569-1.362 1.101-1.362.73 0 .924.48.924 1.255v2.615h.972v-2.982a1.505 1.505 0 00-1.628-1.622 1.546 1.546 0 00-1.385.726h-.008v-.628zm4.957 0v4.506h.977v-2.553c0-.947.479-1.317 1.008-1.317.73 0 .87.453.87 1.203v2.667h.966v-2.756a.98.98 0 01.987-1.114c.708 0 .854.51.854 1.255v2.615h.984v-2.982a1.477 1.477 0 00-1.614-1.622 1.52 1.52 0 00-1.396.726h-.038a1.314 1.314 0 00-1.322-.726 1.403 1.403 0 00-1.304.742h-.026v-.644zm11.402 2.519v-.412c0-1.34-.657-2.205-1.93-2.205a2.126 2.126 0 00-2.14 2.346 2.191 2.191 0 002.408 2.32 3.515 3.515 0 001.331-.203l-.13-.716a3.102 3.102 0 01-1.138.203 1.408 1.408 0 01-1.537-1.333zm-3.136-.709a1.225 1.225 0 011.207-1.218 1.058 1.058 0 011.03 1.194v.024h-2.237m3.87-1.81v4.506h.946v-2.508c0-.992.555-1.362 1.105-1.362.761 0 .93.48.93 1.255v2.615h.978v-2.982a1.653 1.653 0 00-3.022-.896h-.02v-.628zm4.427.735h.735v2.528c0 .826.186 1.273 1.203 1.273.268 0 .547-.014.745-.03v-.74a3.202 3.202 0 01-.443.036c-.444 0-.52-.106-.52-.72v-2.347h.963v-.735h-.962v-1.167h-.986v1.167h-.735zm4.977 3.771h1.023v-6.079h-1.023zm-97.481 0h.98v-6.079h-.98zm99.503-4.506v4.506h.962v-2.508c0-.992.558-1.362 1.102-1.362.753 0 .927.48.927 1.255v2.615h.978v-2.982a1.647 1.647 0 00-3.012-.896h-.024v-.628zm8.038.068a2.737 2.737 0 00-1.027-.166 2.206 2.206 0 00-2.336 2.346 2.156 2.156 0 002.34 2.32 2.282 2.282 0 001.023-.185l-.157-.7a1.593 1.593 0 01-.799.17 1.618 1.618 0 01-.032-3.217 1.967 1.967 0 01.806.158zm-82.707 0a2.81 2.81 0 00-1.034-.166 2.212 2.212 0 00-2.347 2.346 2.162 2.162 0 002.347 2.32 2.333 2.333 0 001.034-.185l-.168-.7a1.613 1.613 0 01-.807.17 1.619 1.619 0 01-.016-3.217 1.985 1.985 0 01.797.158zm83.517 4.438h1.11v-1.126h-1.11zM167.854 110.414l1.689-4.52h-1.04l-1.166 3.632h-.019l-1.184-3.632h-1.076l1.693 4.52h1.103zM217.656 64.217a6.435 6.435 0 10-6.431 6.343 6.396 6.396 0 006.431-6.343zm-.856 0a5.58 5.58 0 11-5.575-5.693 5.6 5.6 0 015.575 5.693zM160.209 67.07a3.855 3.855 0 01-1.151-2.845 4.136 4.136 0 011.15-2.988 4.732 4.732 0 016.193 0 4.136 4.136 0 011.136 2.988 3.746 3.746 0 01-1.136 2.845 4.167 4.167 0 01-3.098 1.292 4.245 4.245 0 01-3.094-1.292zm8.9.753a5.279 5.279 0 001.532-3.598 4.923 4.923 0 00-1.532-3.69 8.24 8.24 0 00-5.806-1.968 9.08 9.08 0 00-5.782 1.962 4.926 4.926 0 00-1.578 3.696 4.991 4.991 0 001.578 3.598 8.815 8.815 0 005.782 1.972 8.7 8.7 0 005.806-1.972zM146.693 58.57a8.748 8.748 0 00-3.756.78 2.88 2.88 0 00-1.968 2.625 2.76 2.76 0 00.734 1.84 3.483 3.483 0 002.14 1.024 30.049 30.049 0 003.12.516c1.243.143 2.49.276 3.006.409.365.11 1.05.262 1.05.927a1.196 1.196 0 01-.829 1.12 5.5 5.5 0 01-2.492.489 9.672 9.672 0 01-2.96-.57 3.88 3.88 0 01-1.732-1.167 1.832 1.832 0 01-.355-1.115h-1.36v3.902h1.512v-.572c0-.069.067-.176.328-.169a15.949 15.949 0 002.262.756 8.881 8.881 0 002.313.31 9.442 9.442 0 003.106-.46 9.217 9.217 0 001.875-.853 2.758 2.758 0 00.988-2.065 2.719 2.719 0 00-.797-2.026 3.134 3.134 0 00-.997-.734 7.15 7.15 0 00-1.23-.454 23.038 23.038 0 00-3.43-.523 25.97 25.97 0 01-3.065-.354.797.797 0 01-.575-.755.942.942 0 01.531-.83 6.78 6.78 0 012.81-.483 8.965 8.965 0 013.268.54 3.002 3.002 0 01.785.5 2.758 2.758 0 01.762 1.314h1.247v-3.445h-1.4v.428c0 .137-.12.32-.381.169a9.9 9.9 0 00-4.51-1.074zM176.99 59.201l6.732 6.17.023-4.15c-.02-.567-.117-.762-.698-.762h-1.276v-1.258h5.77v1.258h-1.238c-.6 0-.636.17-.644.763l.024 7.914h-1.961l-7.758-6.943v4.904c.008.573.026.839.586.839h1.362v1.2h-5.64v-1.2h1.309c.497 0 .477-.503.477-.866v-5.81c0-.41-.058-.8-.805-.8h-1.091V59.2zM194.047 67.936a4 4 0 00.35-.019.524.524 0 00.254-.255 1.321 1.321 0 00.02-.284v-1.96c0-.048 0-.063-.082-.185-.086-.12-3.516-4.066-3.667-4.275a1.467 1.467 0 00-1.075-.499h-1.172v-1.258h6.737v1.258h-.823c-.177 0-.308.153-.136.327 0 0 2.269 2.822 2.297 2.845.018.036.042.044.058.005.03-.024 2.335-2.818 2.354-2.84.106-.126.025-.337-.203-.337h-.86v-1.258h5.573v1.258h-1.255a1.112 1.112 0 00-.977.406c-.159.193-3.625 4.247-3.731 4.365a.263.263 0 00-.047.187v1.961a1.473 1.473 0 00.028.284.461.461 0 00.269.255 3.377 3.377 0 00.344.019h1.27v1.2h-6.714v-1.2z"/><path class="cls-3" d="M212.953 67.76c.058-.05.05-.05.05-.05a9.75 9.75 0 01-.242-1.782c-.102-.652-.313-1.172-1.149-1.172h-2.09l.106.108v2.853l.078.044h-1.2l.072-.052v-7.151l-.072-.06h3.14a3.504 3.504 0 01.979.122 2.068 2.068 0 01.553 3.727 3.313 3.313 0 01-.553.031c1.026 0 1.156.602 1.256 1.823a4.393 4.393 0 00.338 1.474l.135.086zm-1.317-6.277h-2.115l.107.09v2.316l-.107.086h2.091a1.318 1.318 0 001.456-1.383c0-.617-.456-1.11-1.432-1.11z"/><path d="M196.55 165.816a17.576 17.576 0 01-35.15 0v-3.404a17.576 17.576 0 0135.15 0z" fill="#e5e5e6"/><path class="cls-2" d="M178.975 184.139a18.345 18.345 0 01-18.326-18.323v-3.404a18.326 18.326 0 0136.652 0v3.404a18.345 18.345 0 01-18.326 18.323zm0-38.55a16.843 16.843 0 00-16.826 16.823v3.404a16.826 16.826 0 0033.652 0v-3.404a16.844 16.844 0 00-16.826-16.823zM118.88 182.966h-18.707a2.982 2.982 0 01-2.98-2.977V148.24a2.982 2.982 0 012.98-2.977h18.708a2.981 2.981 0 012.978 2.977v31.75a2.981 2.981 0 01-2.978 2.976zm-18.707-36.203a1.48 1.48 0 00-1.48 1.477v31.75a1.48 1.48 0 001.48 1.476h18.708a1.48 1.48 0 001.478-1.477V148.24a1.48 1.48 0 00-1.478-1.477z"/><path class="cls-2" d="M105.275 154.526h8.502a1.65 1.65 0 011.65 1.65v1.702a1.651 1.651 0 01-1.65 1.651h-8.503a1.65 1.65 0 01-1.65-1.649v-1.703a1.65 1.65 0 011.651-1.65z"/><path class="cls-2" d="M113.777 160.28h-8.503a2.403 2.403 0 01-2.4-2.402v-1.701a2.403 2.403 0 012.4-2.4h8.503a2.403 2.403 0 012.4 2.4v1.701a2.403 2.403 0 01-2.4 2.401zm-8.503-5.004a.9.9 0 00-.9.9v1.702a.901.901 0 00.9.901h8.503a.901.901 0 00.9-.9v-1.702a.9.9 0 00-.9-.9zM105.275 168.698h8.502a1.65 1.65 0 011.65 1.65v1.702a1.651 1.651 0 01-1.65 1.651h-8.503a1.65 1.65 0 01-1.65-1.65v-1.702a1.65 1.65 0 011.651-1.65z"/><path class="cls-2" d="M113.777 174.451h-8.503a2.403 2.403 0 01-2.4-2.401v-1.701a2.402 2.402 0 012.4-2.4h8.503a2.403 2.403 0 012.4 2.4v1.7a2.403 2.403 0 01-2.4 2.402zm-8.503-5.003a.9.9 0 00-.9.9v1.702a.901.901 0 00.9.901h8.503a.901.901 0 00.9-.901v-1.701a.9.9 0 00-.9-.9z"/><path class="cls-5" d="M104.625 155.441h9.806v3.174h-9.806z"/><path class="cls-2" d="M114.43 159.364h-9.805a.75.75 0 01-.75-.75v-3.173a.75.75 0 01.75-.75h9.806a.75.75 0 01.75.75v3.173a.75.75 0 01-.75.75zm-9.055-1.5h8.306v-1.673h-8.306z"/><path class="cls-5" d="M104.625 169.612h9.806v3.174h-9.806z"/><path class="cls-2" d="M114.43 173.536h-9.805a.75.75 0 01-.75-.75v-3.174a.75.75 0 01.75-.75h9.806a.75.75 0 01.75.75v3.174a.75.75 0 01-.75.75zm-9.055-1.5h8.306v-1.674h-8.306zM141.558 175.92a11.805 11.805 0 1111.804-11.806 11.819 11.819 0 01-11.804 11.805zm0-22.11a10.305 10.305 0 1010.304 10.304 10.316 10.316 0 00-10.304-10.304z"/><path class="cls-2" d="M141.558 172.95a8.836 8.836 0 118.835-8.836 8.846 8.846 0 01-8.835 8.836zm0-16.172a7.336 7.336 0 107.335 7.336 7.344 7.344 0 00-7.335-7.336z"/><path class="cls-2" d="M143.36 160.42a4.11 4.11 0 11-3.604 0l-.447-.917a5.134 5.134 0 104.499 0z"/><path class="cls-2" d="M141.006 157.561h1.106v6.354h-1.106zM231.984 184.74a20.625 20.625 0 1120.626-20.626 20.65 20.65 0 01-20.626 20.626zm0-40.25a19.625 19.625 0 1019.626 19.624 19.65 19.65 0 00-19.626-19.625z"/><path d="M250.409 164.114a18.425 18.425 0 10-18.425 18.425 18.426 18.426 0 0018.425-18.425z" fill="#3e3a39"/><path class="cls-2" d="M231.984 183.29a19.176 19.176 0 1119.175-19.176 19.197 19.197 0 01-19.175 19.175zm0-36.852a17.676 17.676 0 1017.675 17.676 17.696 17.696 0 00-17.675-17.676z"/><path class="cls-2" d="M231.984 171.49a7.377 7.377 0 117.376-7.376 7.386 7.386 0 01-7.376 7.376zm0-13.253a5.877 5.877 0 105.876 5.877 5.884 5.884 0 00-5.876-5.877z"/><path class="cls-2" d="M231.984 166.545a2.431 2.431 0 112.43-2.43 2.435 2.435 0 01-2.43 2.43zm0-3.362a.931.931 0 10.93.931.934.934 0 00-.93-.931z"/><path class="cls-7" d="M99.375 107.443l-.273-.432-.245-.483-.215-.533-.18-.581-.139-.628V54.497l.139-.627.18-.583.215-.531.245-.484.273-.433.23-.305v56.214l-.23-.305zM107.774 107.443l.273-.432.246-.483.216-.533.179-.581.14-.628V54.497l-.14-.627-.179-.583-.216-.531-.246-.484-.273-.433-.231-.305v56.214l.231-.305z"/><path class="cls-3" d="M104.426 109.372l.355-.017.353-.055.353-.091.35-.128.344-.167.34-.206.331-.249.323-.292.309-.339.059-.08V51.534l-.059-.081-.309-.338-.323-.29-.331-.25-.34-.208-.344-.166-.35-.126-.353-.092-.353-.053-.355-.019h-1.701l-.357.019-.352.053-.354.092-.349.126-.344.166-.34.208-.332.25-.322.29-.308.338-.062.081v56.214l.062.08.308.339.322.292.332.249.34.206.344.167.349.128.354.091.352.055.357.017h1.701z"/><path class="cls-2" d="M104.426 110.122h-1.738l-.356-.018a.668.668 0 01-.078-.008l-.354-.055a.805.805 0 01-.071-.015l-.353-.09a.595.595 0 01-.073-.023l-.348-.128a.934.934 0 01-.069-.029l-.344-.167a.845.845 0 01-.064-.034l-.339-.206c-.02-.013-.04-.026-.058-.04l-.333-.248c-.02-.015-.038-.03-.056-.046l-.321-.292c-.018-.017-.036-.033-.052-.052l-.308-.339c-.013-.016-.027-.031-.04-.049l-.061-.079a.753.753 0 01-.155-.456V51.534a.75.75 0 01.15-.45l.061-.08a.844.844 0 01.046-.057l.309-.337a.62.62 0 01.05-.051l.323-.29a.706.706 0 01.052-.044l.333-.25a.623.623 0 01.058-.04l.339-.207a.942.942 0 01.068-.037l.345-.166a.867.867 0 01.069-.029l.348-.126a.73.73 0 01.067-.02l.353-.093a.62.62 0 01.077-.016l.354-.053a.842.842 0 01.072-.007l.356-.019h1.78l.355.019a.88.88 0 01.072.007l.354.053a.66.66 0 01.077.016l.354.093a.495.495 0 01.065.02l.35.126a.964.964 0 01.07.03l.345.165a.87.87 0 01.064.036l.34.208a.645.645 0 01.063.042l.33.25c.018.012.035.027.051.042l.323.29c.016.015.034.032.05.05l.309.337a.822.822 0 01.053.065l.058.08a.743.743 0 01.145.443v56.214a.748.748 0 01-.149.448l-.06.08a.793.793 0 01-.046.058l-.31.34a.777.777 0 01-.05.049l-.322.292c-.016.015-.035.03-.053.045l-.331.248-.062.042-.34.206a.759.759 0 01-.061.032l-.344.168a.824.824 0 01-.07.03l-.35.127a.65.65 0 01-.071.023l-.354.09a.902.902 0 01-.071.015l-.354.055a.691.691 0 01-.078.008l-.354.017zm-1.684-1.5h1.666l.297-.014.278-.043.282-.073.278-.102.28-.135.278-.17.274-.205.27-.244.148-.164V51.81l-.148-.161-.27-.246-.275-.208-.278-.169-.276-.132-.281-.102-.282-.073-.278-.042-.299-.016h-1.662l-.3.016-.278.042-.28.073-.282.102-.277.132-.275.17-.278.208-.27.244-.149.163v55.66l.15.165.27.244.275.205.277.17.28.135.279.102.28.073.278.043z"/><path class="cls-2" d="M104.426 110.122h-1.738l-.356-.018a.668.668 0 01-.078-.008l-.354-.055a.805.805 0 01-.071-.015l-.353-.09a.595.595 0 01-.073-.023l-.348-.128a.934.934 0 01-.069-.029l-.344-.167a.845.845 0 01-.064-.034l-.339-.206c-.02-.013-.04-.026-.058-.04l-.333-.248c-.02-.015-.038-.03-.056-.046l-.321-.292c-.018-.017-.036-.033-.052-.052l-.308-.339-.042-.05-.292-.384a.67.67 0 01-.038-.055l-.271-.433a.676.676 0 01-.034-.06l-.246-.483a.578.578 0 01-.026-.057l-.216-.534a.578.578 0 01-.02-.06l-.18-.58c-.007-.02-.012-.04-.017-.06l-.138-.628a.759.759 0 01-.018-.162V54.497a.76.76 0 01.018-.163l.138-.626.016-.058.18-.584c.007-.02.013-.04.022-.06l.215-.532a.721.721 0 01.026-.057l.246-.484a.676.676 0 01.034-.06l.271-.433.037-.054.292-.386.044-.053.309-.337a.62.62 0 01.05-.051l.323-.29a.706.706 0 01.052-.044l.333-.25a.623.623 0 01.058-.04l.339-.207a.942.942 0 01.068-.037l.345-.166a.867.867 0 01.069-.029l.348-.126a.73.73 0 01.067-.02l.353-.093a.62.62 0 01.077-.016l.354-.053a.842.842 0 01.072-.007l.356-.019h1.78l.355.019a.88.88 0 01.072.007l.354.053a.66.66 0 01.077.016l.354.093a.495.495 0 01.065.02l.35.126a.964.964 0 01.07.03l.345.165a.87.87 0 01.064.036l.34.208a.645.645 0 01.063.042l.33.25c.018.012.035.027.051.042l.323.29c.016.015.034.032.05.05l.309.337a.98.98 0 01.046.056l.29.386a.953.953 0 01.037.052l.272.433.033.058.247.484c.01.02.018.04.026.059l.216.531c.008.02.016.041.022.061l.18.584.015.058.138.626a.703.703 0 01.019.163v50.29a.7.7 0 01-.019.161l-.138.628-.016.06-.18.58c-.006.021-.013.041-.021.06l-.216.534a.622.622 0 01-.027.06l-.247.483a.87.87 0 01-.032.057l-.272.433a.705.705 0 01-.037.053l-.291.384a.789.789 0 01-.044.054l-.31.34a.777.777 0 01-.05.049l-.322.292c-.016.015-.035.03-.053.045l-.331.248-.062.042-.34.206a.759.759 0 01-.061.032l-.344.168a.824.824 0 01-.07.03l-.35.127a.65.65 0 01-.071.023l-.354.09a.902.902 0 01-.071.015l-.354.055a.691.691 0 01-.078.008l-.354.017zm-1.684-1.5h1.666l.297-.014.278-.043.282-.073.278-.102.28-.135.278-.17.274-.205.27-.244.261-.288.251-.33.236-.378.217-.424.192-.473.16-.521.116-.518V54.58l-.115-.516-.161-.524-.192-.47-.217-.426-.237-.378-.25-.332-.26-.284-.271-.246-.275-.208-.278-.169-.276-.132-.281-.102-.282-.073-.278-.042-.299-.016h-1.662l-.3.016-.278.042-.28.073-.282.102-.277.132-.275.17-.278.208-.27.244-.26.285-.252.333-.236.376-.215.425-.192.472-.162.524-.114.516v50.125l.114.518.162.521.192.474.215.424.236.376.252.33.262.289.268.244.276.205.277.17.28.135.279.102.28.073.278.043z"/><path class="cls-7" d="M258.574 107.443l.271-.432.247-.483.216-.533.179-.581.139-.628V54.497l-.139-.627-.179-.583-.216-.531-.247-.484-.271-.433-.23-.305v56.214l.23-.305zM250.173 107.443l-.271-.432-.246-.483-.216-.533-.179-.581-.14-.628V54.497l.14-.627.179-.583.216-.531.246-.484.271-.433.233-.305v56.214l-.233-.305z"/><path class="cls-3" d="M253.523 109.372l-.355-.017-.355-.055-.351-.091-.35-.128-.345-.167-.339-.206-.333-.249-.321-.292-.309-.339-.059-.08V51.534l.059-.081.309-.338.321-.29.333-.25.339-.208.345-.166.35-.126.351-.092.355-.053.355-.019h1.702l.354.019.355.053.351.092.351.126.344.166.34.208.332.25.321.29.309.338.062.081v56.214l-.062.08-.309.339-.321.292-.332.249-.34.206-.344.167-.351.128-.351.091-.355.055-.354.017h-1.702z"/><path class="cls-2" d="M255.225 110.122H253.486l-.354-.018a.69.69 0 01-.078-.008l-.355-.055a.86.86 0 01-.072-.015l-.352-.09a.58.58 0 01-.071-.023l-.35-.128a.96.96 0 01-.07-.029l-.345-.167a.824.824 0 01-.062-.034l-.34-.206a.606.606 0 01-.058-.04l-.333-.248a.639.639 0 01-.056-.047l-.32-.293a.552.552 0 01-.05-.048l-.31-.339a1.216 1.216 0 01-.047-.058l-.058-.08a.75.75 0 01-.149-.448V51.534a.742.742 0 01.145-.442l.058-.081a.822.822 0 01.053-.065l.31-.338.048-.048.32-.29.054-.045.333-.25a.623.623 0 01.059-.04l.339-.207a.701.701 0 01.067-.037l.346-.166a.924.924 0 01.07-.029l.349-.127c.021-.008.043-.013.064-.02l.352-.092a.698.698 0 01.079-.016l.356-.053a.818.818 0 01.07-.007l.355-.019h1.782l.354.019a.862.862 0 01.071.007l.355.053a.692.692 0 01.079.016l.352.093a.724.724 0 01.065.02l.35.126a.919.919 0 01.069.03l.345.165a.902.902 0 01.068.037l.339.208a.598.598 0 01.058.039l.333.25a.78.78 0 01.053.045l.32.29a.594.594 0 01.05.048l.309.338a.893.893 0 01.048.057l.06.081a.75.75 0 01.15.45v56.214a.753.753 0 01-.154.456l-.061.08a.492.492 0 01-.042.05l-.309.34a.731.731 0 01-.049.047l-.32.293a.831.831 0 01-.057.047l-.333.248c-.018.014-.039.027-.058.04l-.34.206-.062.034-.345.167-.07.03-.35.127a.523.523 0 01-.07.023l-.352.09a.79.79 0 01-.073.015l-.355.055a.665.665 0 01-.078.008l-.354.017zm-1.684-1.5h1.666l.297-.014.28-.043.278-.073.28-.102.28-.135.277-.17.276-.205.267-.244.152-.165V51.81l-.15-.163-.27-.245-.277-.208-.275-.169-.277-.132-.283-.102-.279-.073-.28-.042-.298-.016h-1.662l-.3.016-.278.042-.28.073-.283.102-.276.132-.276.17-.277.207-.27.245-.147.162v55.662l.15.164.267.244.275.205.278.17.28.135.28.102.279.073.279.043z"/><path class="cls-2" d="M255.225 110.122H253.486l-.354-.018a.69.69 0 01-.078-.008l-.355-.055a.86.86 0 01-.072-.015l-.352-.09a.58.58 0 01-.071-.023l-.35-.128a.96.96 0 01-.07-.029l-.345-.167a.824.824 0 01-.062-.034l-.34-.206a.606.606 0 01-.058-.04l-.333-.248a.639.639 0 01-.056-.047l-.32-.293a.552.552 0 01-.05-.048l-.31-.339-.042-.052-.292-.384-.04-.057-.27-.433c-.011-.018-.021-.037-.03-.055l-.248-.484a.617.617 0 01-.027-.06l-.216-.533a.993.993 0 01-.021-.06l-.18-.58-.016-.06-.138-.628a.701.701 0 01-.02-.162V54.497a.703.703 0 01.02-.163l.138-.626.016-.058.18-.584a.747.747 0 01.02-.06l.217-.532a.723.723 0 01.026-.059l.247-.484a.77.77 0 01.032-.057l.27-.433a.988.988 0 01.04-.055l.291-.386a1.27 1.27 0 01.045-.054l.31-.338.048-.048.32-.29.054-.045.333-.25a.623.623 0 01.059-.04l.339-.207a.701.701 0 01.067-.037l.346-.166a.924.924 0 01.07-.029l.349-.127c.021-.008.043-.013.064-.02l.352-.092a.698.698 0 01.079-.016l.355-.053a.818.818 0 01.072-.007l.354-.019H255.264l.355.019a.862.862 0 01.071.007l.355.053a.692.692 0 01.079.016l.351.093a.724.724 0 01.066.02l.35.126a.919.919 0 01.069.03l.345.165a.902.902 0 01.068.037l.339.208a.598.598 0 01.058.039l.333.25a.78.78 0 01.053.045l.32.29a.594.594 0 01.05.048l.309.338a.813.813 0 01.046.054l.292.386a.983.983 0 01.038.055l.27.433.032.057.247.484.027.059.215.531c.009.02.015.041.022.061l.18.584.016.058.138.626a.774.774 0 01.018.163v50.29a.771.771 0 01-.018.161l-.138.628c-.005.02-.01.04-.017.06l-.18.58a.634.634 0 01-.02.06l-.216.534a.62.62 0 01-.027.06l-.247.483c-.01.018-.02.037-.032.055l-.27.433-.04.057-.291.384-.044.052-.309.34a.731.731 0 01-.049.047l-.32.293a.831.831 0 01-.057.047l-.333.248c-.018.014-.039.027-.058.04l-.34.206-.062.034-.345.167-.07.03-.35.127a.523.523 0 01-.07.023l-.352.09a.79.79 0 01-.073.015l-.355.055a.665.665 0 01-.078.008l-.354.017zm-1.684-1.5h1.666l.297-.014.28-.043.278-.073.28-.102.28-.135.277-.17.276-.205.267-.244.264-.288.25-.33.235-.377.218-.425.192-.473.16-.521.115-.518V54.58l-.114-.516-.161-.524-.192-.47-.218-.427-.235-.377-.25-.331-.263-.286-.268-.245-.278-.208-.275-.169-.277-.132-.283-.102-.279-.073-.28-.042-.298-.016h-1.662l-.3.016-.278.042-.28.073-.283.102-.276.132-.276.17-.277.207-.27.245-.261.286-.251.33-.234.378-.218.426-.192.471-.16.524-.116.516v50.125l.115.518.161.521.192.473.217.425.235.377.25.33.265.288.267.244.275.205.278.17.28.135.28.102.279.073.279.043z"/><path class="cls-7" d="M263.448 192.326H94.503a6.677 6.677 0 01-6.67-6.67V16.711a6.675 6.675 0 016.67-6.667h168.945a6.676 6.676 0 016.67 6.667v168.945a6.678 6.678 0 01-6.67 6.67zM94.503 12.044a4.673 4.673 0 00-4.67 4.667v168.945a4.675 4.675 0 004.67 4.67h168.945a4.675 4.675 0 004.67-4.67V16.711a4.673 4.673 0 00-4.67-4.667z"/><circle class="cls-8" cx="255.177" cy="78.656" r="5.2"/><path class="cls-8" d="M254.677 77.656h81.693v2h-81.693z"/><circle class="cls-8" cx="248.177" cy="164.656" r="5.2"/><path class="cls-8" d="M247.677 163.656h88.693v2h-88.693z"/><circle class="cls-8" cx="179.837" cy="173.656" r="5.2"/><path class="cls-8" d="M336.371 219.656H178.677v-46.5h2v44.5h155.694v2z"/><circle class="cls-8" cx="141.705" cy="173.656" r="5.2"/><path class="cls-8" d="M142.677 219.656H30.452v-2h110.225v-44.5h2v46.5z"/><circle class="cls-8" cx="103.177" cy="78.656" r="5.2"/><path class="cls-8" d="M30.452 77.656h73.226v2H30.452z"/><path class="cls-9" d="M353.47 220.418c0-1.783-1.745-2.251-3.384-2.251a22.07 22.07 0 00-2.593.198l.414-7.508h7.742v2.268h-5.239l-.216 2.917a10 10 0 011.17-.054c2.665 0 4.915 1.513 4.915 4.286 0 3.115-2.394 4.645-5.257 4.645a10.665 10.665 0 01-4.25-.846l.685-2.161a8.171 8.171 0 003.277.738c1.422 0 2.737-.558 2.737-2.232zM355.722 157.857v8.679h1.512v2.268h-1.512v2.88h-2.827v-2.88h-6.392v-2.737l5.293-8.21zm-2.827 8.679v-6.14h-.037l-3.78 6.14zM356.118 84.416v2.269h-9.273V84.38c4.916-4.321 6.265-5.887 6.265-7.562a1.934 1.934 0 00-2.142-1.927 6.064 6.064 0 00-3.17 1.062l-.88-2.016a7.793 7.793 0 014.267-1.314c2.844 0 4.753 1.458 4.753 4.141 0 2.467-1.548 4.16-5.581 7.652zM16.237 72.857v13.828H13.41V75.522l-2.593 1.53-.99-2.106 3.528-2.09zM11.97 218.761v-2.268h1.512c1.621 0 2.97-.45 2.97-1.891 0-1.152-.899-1.71-2.196-1.71a6.769 6.769 0 00-3.06.756l-.702-2.197a9.849 9.849 0 014.07-.828c2.52 0 4.716 1.08 4.716 3.637a3.173 3.173 0 01-2.377 3.205v.036a3.206 3.206 0 012.701 3.223c0 2.916-2.358 4.195-5.258 4.195a9.824 9.824 0 01-4.213-.918l.666-2.143a8.172 8.172 0 003.421.792c1.495 0 2.575-.63 2.575-1.998 0-1.513-1.585-1.89-3.35-1.89z"/><path fill="none" d="M0 0h367.436v235.439H0z"/></g></g></svg>