<svg xmlns="http://www.w3.org/2000/svg" viewBox="-120.54063 0 555 300.6171"><defs><style>.cls-1{fill:#fff;}.cls-2{fill:#9e9e9f;}.cls-3{fill:#c8c9ca;}.cls-4{fill:#e5e5e6;}.cls-5{fill:#ddd583;}.cls-6{fill:#3e3a39;}.cls-7{fill:#231815;}.cls-8{fill:#bfd833;}.cls-9{fill:#666;}.cls-10{fill:none;}</style></defs><title>アセット 1601</title><g id="レイヤー_2" data-name="レイヤー 2"><g id="レイヤー_2-2" data-name="レイヤー 2"><path class="cls-1" d="M75.77832,81.344h168.9444a5.6698,5.6698,0,0,1,5.6698,5.6698V255.9592a5.667,5.667,0,0,1-5.667,5.667h-168.95a5.667,5.667,0,0,1-5.667-5.667V87.0138A5.6698,5.6698,0,0,1,75.77832,81.344Z"/><path class="cls-2" d="M244.72273,258.7248H75.77732a2.771,2.771,0,0,1-2.7676-2.7684V87.011a2.7703,2.7703,0,0,1,2.7676-2.7676H244.72273a2.77008,2.77008,0,0,1,2.76658,2.7676V255.9564A2.77077,2.77077,0,0,1,244.72273,258.7248ZM75.77732,85.2434a1.76968,1.76968,0,0,0-1.7676,1.7676V255.9564a1.77037,1.77037,0,0,0,1.7676,1.7684H244.72273a1.7695,1.7695,0,0,0,1.76658-1.7684V87.011a1.76882,1.76882,0,0,0-1.76658-1.7676Z"/><path class="cls-2" d="M114.32712,171.4924a.50032.50032,0,0,1-.5-.5V128.891a.5.5,0,0,1,1,0v42.1014A.50031.50031,0,0,1,114.32712,171.4924Z"/><path class="cls-2" d="M114.32712,171.7424H90.10252a.74951.74951,0,0,1-.75-.75V128.891a.74887.74887,0,0,1,.75-.75h24.2246c.0148,0,.0304,0,.045.0008l.2608.0158a.77633.77633,0,0,1,.084.0096l.2596.045a.88707.88707,0,0,1,.089.0214l.2578.0782c.02341.0078.0468.0156.0702.0254l.2628.1094a.70477.70477,0,0,1,.0762.037l.2606.1456a.51567.51567,0,0,1,.0742.0468l.258.1856c.01941.0146.038.0294.0566.046l.2598.2274c.0194.0176.039.0372.0576.0566l.2548.2784c.0156.0176.0312.0362.045.0548l.249.33c.01461.0204.0292.041.042.0624l.2362.3888c.0118.0204.0236.041.0332.0614l.2208.4532c.0088.0196.0176.04.0254.0596l.2002.5234c.0078.0206.0146.04.0204.0606l.172.5946c.0058.0206.0106.042.0146.0626l.1348.6778c.0038.0204.0068.04.0088.0594l.0878.7578a.58065.58065,0,0,1,.004.0586l.0312.8438.0694,5.1992.038,5.1818.0108,5.04-.0108,5.043-.038,5.1796-.0684,5.1866-.0322.8584a.54226.54226,0,0,1-.004.0576l-.0878.7598c-.002.0204-.006.04-.00979.0604l-.13381.6768c-.004.0206-.0088.041-.0146.0616l-.172.5966a.61582.61582,0,0,1-.0204.0606l-.2002.5214c-.0078.0206-.0166.04-.0254.0596l-.2208.4532a.56315.56315,0,0,1-.0332.0614l-.2362.3888c-.0128.0214-.02739.0428-.042.0624l-.249.3302c-.0148.0194-.03039.038-.047.0566l-.2548.2764a.71417.71417,0,0,1-.0538.0536l-.2598.2296c-.0194.0174-.04.0332-.0604.0488l-.2578.1836a.57929.57929,0,0,1-.0684.0438l-.2618.1476c-.0244.0136-.0498.0254-.0752.037l-.2626.1104a.675.675,0,0,1-.0792.0284l-.2578.0762a.6272.6272,0,0,1-.084.0204l-.2596.045a.58692.58692,0,0,1-.084.0096l-.2608.0158C114.35752,171.7414,114.34192,171.7424,114.32712,171.7424Zm-23.4746-1.5h23.45221l.19619-.0116.1748-.0312.1758-.0518.1856-.0782.1884-.1064.1934-.1378.2012-.1786.2042-.2218.203-.2694.1982-.3272.1914-.3926.1768-.4618.1544-.5352.122-.6162.0802-.7002.0302-.8126.0684-5.162.038-5.173.0108-5.035-.0108-5.0322-.038-5.1748-.0684-5.1748-.0302-.798-.0802-.6982-.122-.6172-.1544-.5342-.1776-.4638-.1906-.3926-.1982-.3262-.204-.2714-.2032-.2218-.2012-.1776-.1934-.1388-.1854-.1034-.1886-.0782-.1776-.0536-.173-.0304-.19619-.0116H90.85252Z"/><path class="cls-2" d="M122.83212,247.6702a13.2563,13.2563,0,1,1,13.2578-13.2558A13.27035,13.27035,0,0,1,122.83212,247.6702Zm0-25.5126a12.2563,12.2563,0,1,0,12.2578,12.2568A12.2693,12.2693,0,0,0,122.83212,222.1576Z"/><path class="cls-2" d="M100.15532,255.3236h-18.708a5.04178,5.04178,0,0,1-5.0372-5.0342v-31.749a5.04306,5.04306,0,0,1,5.0372-5.0372h18.708a5.0422,5.0422,0,0,1,5.0362,5.0372v31.749A5.04092,5.04092,0,0,1,100.15532,255.3236Zm-18.708-40.8204a4.0418,4.0418,0,0,0-4.0372,4.0372v31.749a4.04052,4.04052,0,0,0,4.0372,4.0342h18.708a4.03966,4.03966,0,0,0,4.0362-4.0342v-31.749a4.04094,4.04094,0,0,0-4.0362-4.0372Z"/><path class="cls-2" d="M160.24912,255.891a19.79767,19.79767,0,0,1-19.7754-19.7754v-3.4034a19.7758,19.7758,0,0,1,39.5516,0v3.4034A19.79783,19.79783,0,0,1,160.24912,255.891Zm0-41.9532a18.79605,18.79605,0,0,0-18.7754,18.7744v3.4034a18.7758,18.7758,0,0,0,37.5516,0v-3.4034A18.79622,18.79622,0,0,0,160.24912,213.9378Z"/><path class="cls-2" d="M160.24912,121.2112a17.7578,17.7578,0,1,1,17.75961-17.7578A17.77725,17.77725,0,0,1,160.24912,121.2112Zm0-34.0156a16.2578,16.2578,0,1,0,16.25961,16.2578A16.27491,16.27491,0,0,0,160.24912,87.1956Z"/><path class="cls-2" d="M206.16891,171.4924a.501.501,0,0,1-.5-.5V128.891a.5.5,0,0,1,1,0v42.1014A.50031.50031,0,0,1,206.16891,171.4924Z"/><path class="cls-2" d="M230.39551,171.7424h-24.2266c-.0146,0-.0292-.001-.0448-.0018l-.2588-.0158a.58043.58043,0,0,1-.084-.0096l-.2598-.045a.63472.63472,0,0,1-.084-.0204l-.2578-.0762a.675.675,0,0,1-.0792-.0284l-.2626-.1104c-.0254-.0116-.0508-.0234-.07518-.037l-.26181-.1476a.56041.56041,0,0,1-.06819-.0438l-.25781-.1836c-.0206-.0156-.0412-.0314-.0606-.0488l-.2598-.2296a.714.714,0,0,1-.05379-.0536l-.25481-.2764c-.0166-.0186-.0322-.0372-.0468-.0566l-.249-.3302a.66885.66885,0,0,1-.042-.0624l-.2364-.3888a.59963.59963,0,0,1-.0332-.0614l-.2208-.4532c-.0088-.0196-.0174-.039-.0254-.0596l-.2002-.5214a.61582.61582,0,0,1-.0204-.0606l-.1718-.5966c-.006-.0206-.0108-.041-.0148-.0616l-.1338-.6768c-.0038-.0204-.0078-.04-.0096-.0604l-.088-.7598a.54261.54261,0,0,1-.0038-.0576l-.0314-.8418-.0692-5.2012-.0382-5.1808-.0108-5.0428.0108-5.0392.0382-5.1816.0682-5.1846.0324-.8604a.58006.58006,0,0,1,.0038-.0586l.088-.7578c.0018-.0194.0048-.039.0086-.0594l.1348-.6778c.004-.0206.0088-.042.0148-.0626l.1718-.5946c.0058-.0206.0126-.04.0204-.0606l.2002-.5234c.008-.0196.0166-.04.0254-.0596l.2208-.4532c.0098-.0204.0214-.041.0332-.0614l.2364-.3888c.01261-.0214.0272-.042.042-.0624l.249-.33c.01361-.0186.0292-.0372.0448-.0548l.255-.2784c.0184-.0194.038-.039.0576-.0566l.2598-.2274c.01841-.0166.037-.0314.0566-.046l.25781-.1856a.515.515,0,0,1,.07419-.0468l.26079-.1456a.70568.70568,0,0,1,.0762-.037l.2626-.1094c.0234-.0098.0468-.0176.0704-.0254l.25782-.0782a.88158.88158,0,0,1,.08878-.0214l.2598-.045a.765.765,0,0,1,.084-.0096l.2588-.0158c.0156-.0008.0302-.0008.0448-.0008h24.2266a.74887.74887,0,0,1,.75.75v42.1014A.74951.74951,0,0,1,230.39551,171.7424Zm-24.2032-1.5h23.4532V129.641h-23.4532l-.1952.0116-.1728.0304-.1778.0536-.1884.0782-.1856.1034-.1934.1388-.2012.1776-.203.2218-.20418.2714-.19821.3262-.1904.3926-.1778.4638-.1542.5342-.1222.6172-.08.6982-.0304.8146-.0682,5.16-.0382,5.1748-.0108,5.0314.0108,5.036.0382,5.173.0682,5.1766.0304.796.08.7002.1222.6162.1542.5352.1768.4618.1914.3926.19821.3272.20318.2694.204.2218.2012.1786.1934.1378.1884.1064.1856.0782.1758.0518.1748.0312Z"/><path class="cls-3" d="M98.61812,175.5658a3.85332,3.85332,0,0,0-1.31139-.2286c-.53921,0-1.09181.1866-1.09181.7832,0,.4824.3184.7138,1.2002,1.0596,1.0712.454,1.6904.87,1.6904,1.875,0,1.2188-1.041,1.7188-2.13279,1.7188a5.05554,5.05554,0,0,1-1.833-.3048l.2236-.8428a4.2606,4.2606,0,0,0,1.5938.3644c.703,0,1.1766-.2892,1.1766-.8644,0-.5166-.4598-.7998-1.327-1.1434-1.006-.4034-1.57921-.9112-1.57921-1.7764,0-1.1826,1.0478-1.6798,2.03121-1.6798a4.77771,4.77771,0,0,1,1.55279.2374Zm3.3136,5.208a2.338,2.338,0,1,0-2.1856-2.333,2.08693,2.08693,0,0,0,2.1856,2.333m0-3.9318c.833,0,1.2178.666,1.2178,1.5988,0,.953-.38479,1.6172-1.2178,1.6172-.8232,0-1.209-.6642-1.209-1.6172,0-.9328.375-1.5988,1.209-1.5988m2.916-.6356v4.5058h.9618v-2.5078c0-.9922.5694-1.3624,1.1016-1.3624.7266,0,.922.4796.922,1.255v2.6152h.9882v-2.9824a1.5235,1.5235,0,0,0-1.6474-1.622,1.50441,1.50441,0,0,0-1.3654.7264h-.0184v-.6278Zm5.4228,0h-1.0624l1.7802,4.37-.72959,1.7598h1.01079l2.4464-6.1298h-1.0166l-1.21,3.3076h-.0118Zm47.2548,4.5058h3.5832v-.8418h-2.5832v-1.8848h2.292v-.8154h-2.292v-1.7294h2.503v-.8078h-3.503Zm4.3644-4.5058v4.5058h.9658v-2.5078c0-.9922.5498-1.3624,1.1016-1.3624.7352,0,.92961.4796.92961,1.255v2.6152h.95419v-2.9824a1.63748,1.63748,0,0,0-2.99819-.8956h-.01261v-.6278Zm-43.8154,0v4.5058h.9814v-2.5078c0-.9922.5634-1.3624,1.0898-1.3624.7422,0,.9444.4796.9444,1.255v2.6152h.96681v-2.9824a1.51362,1.51362,0,0,0-1.631-1.622,1.541,1.541,0,0,0-1.3856.7264h-.0128v-.6278Zm48.247.7344h.746v2.5282c0,.8262.1846,1.2734,1.19541,1.2734.26179,0,.544-.0146.746-.0302v-.7402a3.26668,3.26668,0,0,1-.457.036c-.4638,0-.5234-.1064-.5234-.7206v-2.3466h.98441v-.7344h-.98441v-1.167h-.961v1.167h-.746Zm7.19141,1.784v-.412c0-1.3408-.66021-2.205-1.956-2.205a2.11851,2.11851,0,0,0-2.11521,2.3466,2.1901,2.1901,0,0,0,2.3906,2.3194,3.58543,3.58543,0,0,0,1.3524-.2032l-.126-.7158a3.14971,3.14971,0,0,1-1.13179.2032,1.38914,1.38914,0,0,1-1.542-1.3332Zm-3.128-.7088a1.20217,1.20217,0,0,1,1.172-1.2178,1.04646,1.04646,0,0,1,1.04979,1.1942v.0236h-2.22179m6.13579-1.9004a1.53276,1.53276,0,0,0-.168-.0078,1.16105,1.16105,0,0,0-1.1602.6904h-.0234v-.5918h-.9404v4.5058h.9766v-2.3916c0-1.085.47561-1.4522,1.0624-1.4522.085,0,.1504,0,.2062.002Zm-53.9794.8252h.7372v2.5282c0,.8262.19241,1.2734,1.23041,1.2734.25,0,.53719-.0146.71879-.0302v-.7402a2.9842,2.9842,0,0,1-.4346.036c-.4706,0-.5184-.1064-.5184-.7206v-2.3466h.956v-.7344h-.956v-1.167h-.9962v1.167h-.7372Zm18.786,0h.7638v2.5282c0,.8262.164,1.2734,1.20981,1.2734.255,0,.52639-.0146.73939-.0302v-.7402a3.28674,3.28674,0,0,1-.458.036c-.4678,0-.5236-.1064-.5236-.7206v-2.3466h.9826v-.7344h-.9826v-1.167h-.9676v1.167h-.7638Zm-11.584,1.784v-.412c0-1.3408-.666-2.205-1.94239-2.205a2.11751,2.11751,0,0,0-2.13461,2.3466,2.18574,2.18574,0,0,0,2.3856,2.3194,3.55057,3.55057,0,0,0,1.3516-.2032l-.1288-.7158a3.23328,3.23328,0,0,1-1.13779.2032,1.39122,1.39122,0,0,1-1.52341-1.3332Zm-3.1298-.7088a1.2061,1.2061,0,0,1,1.18741-1.2178,1.04067,1.04067,0,0,1,1.02639,1.1942v.0236h-2.2138m28.3418.7088v-.412c0-1.3408-.6592-2.205-1.9356-2.205a2.12762,2.12762,0,0,0-2.1426,2.3466,2.1974,2.1974,0,0,0,2.4064,2.3194,3.46865,3.46865,0,0,0,1.3348-.2032l-.1366-.7158a2.9736,2.9736,0,0,1-1.1046.2032,1.40863,1.40863,0,0,1-1.5674-1.3332Zm-3.1456-.7088a1.2255,1.2255,0,0,1,1.21-1.2178,1.05263,1.05263,0,0,1,1.04,1.1942v.0236h-2.25m-19.0184-1.9004c-.086-.005-.1222-.0078-.1826-.0078a1.16857,1.16857,0,0,0-1.1768.6904h-.0128v-.5918h-.9404v4.5058h.958v-2.3916c0-1.085.4952-1.4522,1.088-1.4522.084,0,.1356,0,.19621.002Zm44.3846.8252h.6328v2.5282c0,.8262.1954,1.2734,1.20621,1.2734.26559,0,.54979-.0146.75579-.0302v-.7402a3.16081,3.16081,0,0,1-.46379.036c-.43761,0-.53141-.1064-.53141-.7206v-2.3466h1.008v-.7344h-1.008v-1.167h-.9668v1.167h-.6328Zm5.881.9344c-1.52841,0-2.82821.2422-2.82821,1.542,0,1.0342.7832,1.3566,1.541,1.3566a1.44484,1.44484,0,0,0,1.3594-.6954h.0214a3.11958,3.11958,0,0,0,.0988.6338h.84961a8.58752,8.58752,0,0,1-.05581-1.045V177.766c0-1.083-.65819-1.6582-1.956-1.6582a4.46912,4.46912,0,0,0-1.418.2596l.2022.7168a3.26351,3.26351,0,0,1,1.1534-.2422c.7196,0,1.03221.3282,1.03221.924Zm0,.6328v.3546a1.10787,1.10787,0,0,1-1.16221,1.2158.65979.65979,0,0,1-.7412-.7032c0-.7002.81741-.8672,1.7208-.8672Zm-47.16121-.6328c-1.51079,0-2.8184.2422-2.8184,1.542,0,1.0342.77161,1.3566,1.5518,1.3566a1.47148,1.47148,0,0,0,1.3594-.6954h.0166a3.99256,3.99256,0,0,0,.0908.6338h.8466a6.36108,6.36108,0,0,1-.0732-1.045V177.766c0-1.083-.6328-1.6582-1.9198-1.6582a4.27072,4.27072,0,0,0-1.416.2596l.18941.7168a3.24948,3.24948,0,0,1,1.14539-.2422c.7198,0,1.0274.3282,1.0274.924Zm0,.6328v.3546a1.099,1.099,0,0,1-1.1358,1.2158.67.67,0,0,1-.7666-.7032c0-.7002.8282-.8672,1.72761-.8672Zm50.1562-4.0126h-.9774v.9014h.9774Zm-.0156,1.711h-.9618v4.5058h.9618Zm-40.204-1.711h-.9922v.9014h.9922Zm-.0236,1.711h-.9686v4.5058h.9686Zm41.2588,0v4.5058h.966v-2.5078c0-.9922.5692-1.3624,1.10141-1.3624.72959,0,.92379.4796.92379,1.255v2.6152h.9718v-2.9824a1.50461,1.50461,0,0,0-1.628-1.622,1.54643,1.54643,0,0,0-1.3848.7264h-.0078v-.6278Zm4.9572,0v4.5058h.9774v-2.5528c0-.9472.4786-1.3174,1.0078-1.3174.7296,0,.8702.4532.8702,1.2032v2.667h.9658v-2.7558a.97909.97909,0,0,1,.9864-1.1144c.708,0,.8544.5108.8544,1.255v2.6152h.9844v-2.9824a1.47731,1.47731,0,0,0-1.61419-1.622,1.51987,1.51987,0,0,0-1.39661.7264h-.038a1.3139,1.3139,0,0,0-1.32139-.7264,1.40274,1.40274,0,0,0-1.30461.742h-.02539v-.6434Zm11.40221,2.5184v-.412c0-1.3408-.65721-2.205-1.92961-2.205a2.1256,2.1256,0,0,0-2.1406,2.3466,2.19112,2.19112,0,0,0,2.40821,2.3194,3.51508,3.51508,0,0,0,1.331-.2032l-.1298-.7158a3.1023,3.1023,0,0,1-1.1388.2032,1.40765,1.40765,0,0,1-1.537-1.3332Zm-3.13661-.7088a1.22479,1.22479,0,0,1,1.207-1.2178,1.058,1.058,0,0,1,1.0312,1.1942v.0236h-2.2382m3.87-1.8096v4.5058h.94639v-2.5078c0-.9922.5546-1.3624,1.1054-1.3624.76082,0,.9306.4796.9306,1.255v2.6152h.9766v-2.9824a1.65275,1.65275,0,0,0-3.0214-.8956h-.0206v-.6278Zm4.42779.7344h.7344v2.5282c0,.8262.18642,1.2734,1.203,1.2734.2686,0,.547-.0146.7452-.0302v-.7402a3.20183,3.20183,0,0,1-.4434.036c-.4434,0-.5186-.1064-.5186-.7206v-2.3466h.962v-.7344h-.962v-1.167h-.9862v1.167h-.7344Zm4.9766,3.7714h1.0234V174.633h-1.0234Zm-97.48139,0h.9814V174.633h-.9814Zm99.50379-4.5058v4.5058h.962v-2.5078c0-.9922.5576-1.3624,1.1014-1.3624.753,0,.9268.4796.9268,1.255v2.6152h.9786v-2.9824a1.6465,1.6465,0,0,0-3.0118-.8956h-.0244v-.6278Zm8.0372.0674a2.73742,2.73742,0,0,0-1.0264-.166,2.20638,2.20638,0,0,0-2.336,2.3466,2.15585,2.15585,0,0,0,2.3408,2.3194,2.28212,2.28212,0,0,0,1.0216-.1846l-.1564-.7002a1.59336,1.59336,0,0,1-.7988.169,1.61828,1.61828,0,0,1-.03218-3.216,1.96708,1.96708,0,0,1,.80558.1582Zm-82.70619,0a2.80963,2.80963,0,0,0-1.0342-.166,2.21156,2.21156,0,0,0-2.3476,2.3466,2.16175,2.16175,0,0,0,2.3476,2.3194,2.33265,2.33265,0,0,0,1.0342-.1846l-.1688-.7002a1.61253,1.61253,0,0,1-.8068.169,1.619,1.619,0,0,1-.01559-3.216,1.985,1.985,0,0,1,.797.1582Zm83.51659,4.4384h1.1094v-1.126h-1.1094Z"/><polygon class="cls-3" points="149.129 180.714 150.817 176.194 149.777 176.194 148.611 179.826 148.593 179.826 147.408 176.194 146.332 176.194 148.025 180.714 149.129 180.714"/><path class="cls-3" d="M198.93073,134.5168a6.43527,6.43527,0,1,0-6.43161,6.3428A6.3965,6.3965,0,0,0,198.93073,134.5168Zm-.85641,0a5.57936,5.57936,0,1,1-5.5752-5.6932A5.60018,5.60018,0,0,1,198.07432,134.5168Z"/><path class="cls-3" d="M141.48352,137.3704a3.85544,3.85544,0,0,1-1.1514-2.8456,4.13585,4.13585,0,0,1,1.1514-2.9874,4.73217,4.73217,0,0,1,6.1922,0,4.13648,4.13648,0,0,1,1.1358,2.9874,3.74583,3.74583,0,0,1-1.1358,2.8456,4.1667,4.1667,0,0,1-3.0986,1.292A4.24518,4.24518,0,0,1,141.48352,137.3704Zm8.9002.753a5.27874,5.27874,0,0,0,1.5314-3.5986,4.92253,4.92253,0,0,0-1.5314-3.6906,8.23911,8.23911,0,0,0-5.8066-1.9668,9.08021,9.08021,0,0,0-5.7812,1.962,4.92612,4.92612,0,0,0-1.5782,3.6954,4.99142,4.99142,0,0,0,1.5782,3.5986,8.81478,8.81478,0,0,0,5.7812,1.9716A8.7,8.7,0,0,0,150.38372,138.1234Z"/><path class="cls-3" d="M127.96772,128.8704a8.74764,8.74764,0,0,0-3.7558.7794,2.87947,2.87947,0,0,0-1.9688,2.625,2.75985,2.75985,0,0,0,.7344,1.8408,3.48256,3.48256,0,0,0,2.1406,1.0234,30.04873,30.04873,0,0,0,3.1202.5156c1.2422.1436,2.4892.2764,3.0048.4092.3654.1094,1.0498.2626,1.0498.9268a1.196,1.196,0,0,1-.828,1.12,5.50084,5.50084,0,0,1-2.49219.4892,9.672,9.672,0,0,1-2.961-.5702,3.87987,3.87987,0,0,1-1.7314-1.167,1.83162,1.83162,0,0,1-.3546-1.1142h-1.3592v3.9014h1.5106v-.5714c0-.0694.0674-.1768.3282-.169a15.94863,15.94863,0,0,0,2.2626.756,8.88139,8.88139,0,0,0,2.3126.3094,9.44233,9.44233,0,0,0,3.1064-.4608,9.21659,9.21659,0,0,0,1.875-.8516,2.75773,2.75773,0,0,0,.9874-2.0654,2.71879,2.71879,0,0,0-.797-2.0264,3.13391,3.13391,0,0,0-.997-.7334,7.15056,7.15056,0,0,0-1.2296-.4542,23.038,23.038,0,0,0-3.4296-.5234,25.97085,25.97085,0,0,1-3.06539-.3534.79722.79722,0,0,1-.57521-.755.94205.94205,0,0,1,.53121-.831,6.77956,6.77956,0,0,1,2.80959-.4824,8.96518,8.96518,0,0,1,3.2686.54,3.00191,3.00191,0,0,1,.7842.5,2.75841,2.75841,0,0,1,.7626,1.3144h1.247V129.347h-1.40021v.4278c0,.1376-.1202.3202-.381.1688A9.89906,9.89906,0,0,0,127.96772,128.8704Z"/><path class="cls-3" d="M158.26473,129.5012l6.73139,6.169.0234-4.1484c-.0204-.5674-.1172-.7628-.6982-.7628h-1.2754v-1.2578h5.7706v1.2578h-1.2394c-.5996,0-.6356.169-.6436.7628l.0236,7.914h-1.961l-7.7578-6.9424v4.9034c.0078.5732.02641.8388.586.8388h1.3622v1.2002h-5.6406v-1.2002h1.3096c.497,0,.4766-.5028.4766-.8652v-5.8096c0-.411-.0576-.8018-.8048-.8018h-1.0908v-1.2578Z"/><path class="cls-3" d="M175.32132,138.2356c.0468,0,.292-.0078.3496-.0186a.52433.52433,0,0,0,.2548-.2548,1.3211,1.3211,0,0,0,.0206-.2842v-1.961c0-.0468,0-.0624-.083-.1844-.086-.1202-3.5156-4.0656-3.667-4.2746a1.46731,1.46731,0,0,0-1.0752-.499h-1.1718v-1.2578h6.7372v1.2578h-.8232c-.1768,0-.3076.1534-.1358.3272,0,0,2.2686,2.8214,2.297,2.8448.0184.036.042.0438.0576.0048.0312-.0234,2.3358-2.8174,2.3544-2.8408.1064-.125.0254-.336-.203-.336h-.8594v-1.2578h5.5722v1.2578h-1.2548a1.11157,1.11157,0,0,0-.9766.4064c-.1592.1924-3.625,4.247-3.7314,4.3642a.2633.2633,0,0,0-.047.1874v1.961a1.47266,1.47266,0,0,0,.0284.2842.46119.46119,0,0,0,.2686.2548,3.37685,3.37685,0,0,0,.3436.0186h1.2706v1.2002h-6.714v-1.2002Z"/><path class="cls-3" d="M194.22752,138.0608c.0576-.0518.0498-.0518.0498-.0518a9.75065,9.75065,0,0,1-.2422-1.7812c-.1016-.6514-.31239-1.1718-1.14839-1.1718h-2.09081l.1064.1084v2.8524l.0782.044h-1.2002l.0722-.0518v-7.1512l-.0722-.0596h3.1406a3.50368,3.50368,0,0,1,.9786.122,2.06814,2.06814,0,0,1,.5526,3.7266,3.31346,3.31346,0,0,1-.5526.0312c1.0262,0,1.1562.6016,1.2558,1.8232a4.39251,4.39251,0,0,0,.3378,1.4736l.1358.086Zm-1.3174-6.2782h-2.1142l.1064.0908v2.3154l-.1064.086h2.09081a1.31755,1.31755,0,0,0,1.456-1.383C194.34273,132.2748,193.88673,131.7826,192.91012,131.7826Z"/><path class="cls-4" d="M177.82532,236.1156a17.5757,17.5757,0,0,1-35.1514,0v-3.4034a17.5757,17.5757,0,0,1,35.1514,0Z"/><path class="cls-2" d="M160.24912,254.4388a18.345,18.345,0,0,1-18.3252-18.3232v-3.4034a18.3257,18.3257,0,0,1,36.6514,0v3.4034A18.34529,18.34529,0,0,1,160.24912,254.4388Zm0-38.5498a16.84325,16.84325,0,0,0-16.8252,16.8232v3.4034a16.8257,16.8257,0,0,0,33.6514,0v-3.4034A16.84359,16.84359,0,0,0,160.24912,215.889Z"/><path class="cls-2" d="M100.15532,253.266h-18.708a2.98216,2.98216,0,0,1-2.9796-2.9766v-31.749a2.98237,2.98237,0,0,1,2.9796-2.9776h18.708a2.98134,2.98134,0,0,1,2.9784,2.9776v31.749A2.98113,2.98113,0,0,1,100.15532,253.266Zm-18.708-36.2032a1.48066,1.48066,0,0,0-1.4796,1.4776v31.749a1.48058,1.48058,0,0,0,1.4796,1.4766h18.708a1.47955,1.47955,0,0,0,1.4784-1.4766v-31.749a1.47963,1.47963,0,0,0-1.4784-1.4776Z"/><path class="cls-2" d="M86.54892,224.8264h8.5028a1.6504,1.6504,0,0,1,1.6504,1.6504v1.7022a1.6504,1.6504,0,0,1-1.6504,1.6504h-8.5008a1.6514,1.6514,0,0,1-1.6514-1.6514v-1.7022A1.6494,1.6494,0,0,1,86.54892,224.8264Z"/><path class="cls-2" d="M95.05172,230.5794h-8.5028a2.40284,2.40284,0,0,1-2.3994-2.4014v-1.7012a2.40263,2.40263,0,0,1,2.3994-2.4004h8.5028a2.403,2.403,0,0,1,2.4004,2.4004v1.7012A2.40318,2.40318,0,0,1,95.05172,230.5794Zm-8.5028-5.003a.90042.90042,0,0,0-.8994.9004v1.7012a.90128.90128,0,0,0,.8994.9014h8.5028a.90148.90148,0,0,0,.9004-.9014v-1.7012a.90063.90063,0,0,0-.9004-.9004Z"/><path class="cls-2" d="M86.54992,238.9984h8.5018a1.6504,1.6504,0,0,1,1.6504,1.6504v1.702a1.6504,1.6504,0,0,1-1.6504,1.6504h-8.5028a1.6494,1.6494,0,0,1-1.6494-1.6494v-1.703A1.6504,1.6504,0,0,1,86.54992,238.9984Z"/><path class="cls-2" d="M95.05172,244.7512h-8.5028a2.40271,2.40271,0,0,1-2.3994-2.4014v-1.701a2.4025,2.4025,0,0,1,2.3994-2.4004h8.5028a2.40284,2.40284,0,0,1,2.4004,2.4004v1.701A2.40305,2.40305,0,0,1,95.05172,244.7512Zm-8.5028-5.0028a.90029.90029,0,0,0-.8994.9004v1.701a.90115.90115,0,0,0,.8994.9014h8.5028a.90135.90135,0,0,0,.9004-.9014v-1.701a.9005.9005,0,0,0-.9004-.9004Z"/><rect class="cls-5" x="85.89952" y="225.7406" width="9.8056" height="3.1738"/><path class="cls-2" d="M95.70512,229.6644h-9.8056a.74951.74951,0,0,1-.75-.75v-3.1738a.74938.74938,0,0,1,.75-.75h9.8056a.75015.75015,0,0,1,.75.75v3.1738A.75027.75027,0,0,1,95.70512,229.6644Zm-9.0556-1.5h8.3056v-1.6738h-8.3056Z"/><rect class="cls-5" x="85.89952" y="239.9124" width="9.8056" height="3.1738"/><path class="cls-2" d="M95.70512,243.8362h-9.8056a.74951.74951,0,0,1-.75-.75v-3.1738a.74951.74951,0,0,1,.75-.75h9.8056a.75027.75027,0,0,1,.75.75v3.1738A.75027.75027,0,0,1,95.70512,243.8362Zm-9.0556-1.5h8.3056v-1.6738h-8.3056Z"/><path class="cls-2" d="M122.83212,246.219a11.8047,11.8047,0,1,1,11.80461-11.8046A11.8185,11.8185,0,0,1,122.83212,246.219Zm0-22.1094a10.3047,10.3047,0,1,0,10.30461,10.3048A10.31581,10.31581,0,0,0,122.83212,224.1096Z"/><path class="cls-2" d="M122.83212,243.2502a8.8359,8.8359,0,1,1,8.8358-8.8358A8.84595,8.84595,0,0,1,122.83212,243.2502Zm0-16.1718a7.3359,7.3359,0,1,0,7.3358,7.336A7.34377,7.34377,0,0,0,122.83212,227.0784Z"/><path class="cls-2" d="M124.63473,230.72a4.1109,4.1109,0,1,1-3.60441,0l-.4472-.917a5.13442,5.13442,0,1,0,4.499,0Z"/><rect class="cls-2" x="122.28032" y="227.8606" width="1.10641" height="6.3536"/><path class="cls-2" d="M213.25873,255.0404a20.6255,20.6255,0,1,1,20.626-20.626A20.65075,20.65075,0,0,1,213.25873,255.0404Zm0-40.251a19.6255,19.6255,0,1,0,19.626,19.625A19.64914,19.64914,0,0,0,213.25873,214.7894Z"/><path class="cls-6" d="M231.68351,234.4144a18.4252,18.4252,0,1,0-18.42478,18.4248,18.42642,18.42642,0,0,0,18.42478-18.4248Z"/><path class="cls-2" d="M213.25873,253.5892a19.1758,19.1758,0,1,1,19.17478-19.1748A19.197,19.197,0,0,1,213.25873,253.5892Zm0-36.8516a17.6758,17.6758,0,1,0,17.67478,17.6768A17.69634,17.69634,0,0,0,213.25873,216.7376Z"/><path class="cls-2" d="M213.25873,241.7904a7.3765,7.3765,0,1,1,7.376-7.376A7.3859,7.3859,0,0,1,213.25873,241.7904Zm0-13.253a5.8765,5.8765,0,1,0,5.876,5.877A5.88441,5.88441,0,0,0,213.25873,228.5374Z"/><path class="cls-2" d="M213.25873,236.845a2.4311,2.4311,0,1,1,2.43078-2.4306A2.435,2.435,0,0,1,213.25873,236.845Zm0-3.3622a.9311.9311,0,1,0,.93078.9316A.93354.93354,0,0,0,213.25873,233.4828Z"/><polygon class="cls-7" points="80.65 177.743 80.377 177.311 80.132 176.828 79.916 176.295 79.736 175.714 79.598 175.086 79.598 124.797 79.736 124.17 79.916 123.587 80.132 123.056 80.377 122.572 80.65 122.139 80.88 121.834 80.88 178.048 80.65 177.743"/><polygon class="cls-7" points="89.049 177.743 89.321 177.311 89.567 176.828 89.783 176.295 89.963 175.714 90.103 175.086 90.103 124.797 89.963 124.17 89.783 123.587 89.567 123.056 89.321 122.572 89.049 122.139 88.817 121.834 88.817 178.048 89.049 177.743"/><polygon class="cls-3" points="85.7 179.672 86.056 179.655 86.408 179.6 86.762 179.509 87.111 179.381 87.455 179.214 87.796 179.008 88.127 178.759 88.449 178.467 88.759 178.128 88.817 178.048 88.817 121.834 88.759 121.753 88.449 121.415 88.127 121.125 87.796 120.875 87.455 120.667 87.111 120.501 86.762 120.375 86.408 120.283 86.056 120.23 85.7 120.211 83.999 120.211 83.643 120.23 83.29 120.283 82.937 120.375 82.588 120.501 82.243 120.667 81.903 120.875 81.571 121.125 81.249 121.415 80.942 121.753 80.88 121.834 80.88 178.048 80.942 178.128 81.249 178.467 81.571 178.759 81.903 179.008 82.243 179.214 82.588 179.381 82.937 179.509 83.29 179.6 83.643 179.655 83.999 179.672 85.7 179.672"/><path class="cls-2" d="M85.70032,180.4222h-1.7012l-.0362-.001-.3564-.0176a.668.668,0,0,1-.0782-.0078l-.3534-.0546c-.0246-.004-.048-.0088-.0714-.0148l-.3534-.0908a.595.595,0,0,1-.0724-.0224l-.3486-.128c-.0234-.0088-.0458-.0186-.06839-.0292l-.34461-.167c-.0216-.0108-.043-.0216-.0636-.0342l-.3388-.206c-.0196-.0128-.04-.0254-.0586-.0402l-.333-.248c-.0196-.0146-.0372-.0302-.0556-.0458l-.3214-.292c-.0176-.0166-.0352-.0332-.0518-.0518l-.3076-.3388c-.0136-.0158-.0272-.0314-.04-.049l-.0616-.079a.7532.7532,0,0,1-.1542-.456v-56.214a.75051.75051,0,0,1,.1504-.4502l.0606-.081c.0146-.0196.0302-.038.04581-.0556l.30859-.337a.62091.62091,0,0,1,.0508-.0518l.3222-.29c.0166-.0156.0342-.0302.0518-.0438l.333-.25a.62263.62263,0,0,1,.0586-.0392l.3388-.208c.0226-.0136.045-.0254.0684-.037l.3448-.1652c.0224-.0106.0448-.0204.0684-.0292l.34861-.126c.02139-.0078.044-.0146.06639-.0204l.3534-.0928a.62069.62069,0,0,1,.0772-.0156l.3536-.0538c.02341-.003.0478-.0058.0722-.0068l.3564-.0186c.01281-.001.0254-.001.0392-.001h1.7012c.0136,0,.0262,0,.04.001l.35441.0186c.02439.001.04779.0038.07219.0068l.3536.0538a.65979.65979,0,0,1,.0772.0156l.3534.0928a.49475.49475,0,0,1,.06561.0194l.34959.127c.02441.0088.0478.0186.0712.0292l.3438.166c.02141.0108.044.0226.0644.0352l.3408.208a.64458.64458,0,0,1,.0616.042l.331.25c.01761.0128.0342.0274.0508.042l.3222.29c.01661.0158.0342.0324.0498.0498l.3096.338a.82184.82184,0,0,1,.0528.0644l.0586.081a.74339.74339,0,0,1,.1444.4424v56.214a.74791.74791,0,0,1-.1484.4482l-.0596.08c-.01459.0196-.0302.0392-.0468.0576l-.3096.339c-.0156.0166-.03219.0342-.0498.0498l-.3222.292c-.0166.0156-.0352.0302-.0538.0448l-.331.2482c-.0206.0146-.04.0282-.0616.042l-.3408.206c-.0194.0116-.04.0224-.0604.0322l-.3438.168c-.0226.0106-.046.0204-.0704.0292l-.3496.128a.64942.64942,0,0,1-.0712.0224l-.35359.0908c-.02341.006-.04781.0108-.07121.0148l-.3536.0546a.69131.69131,0,0,1-.078.0078l-.3546.0176Zm-1.68359-1.5h1.666l.29679-.0146.2784-.043.2812-.0724.2782-.1024.27941-.1348.27919-.17.2736-.205.2694-.2442.1484-.164V122.1096l-.1474-.161-.2704-.2452-.2754-.208-.27739-.169-.27641-.1328-.2812-.1016-.2812-.0732-.2784-.042-.29879-.0156H84.01852l-.29979.0156-.27821.042-.2804.0732-.2812.1016-.2774.1328-.2754.169-.2772.209-.2706.2432-.1484.163v55.6602l.1504.165.2686.2442.2754.205.2772.17.2804.1348.2782.1024.2804.0724.27821.043Z"/><path class="cls-2" d="M85.70032,180.4222h-1.7012l-.0362-.001-.3564-.0176a.668.668,0,0,1-.0782-.0078l-.3534-.0546c-.0246-.004-.048-.0088-.0714-.0148l-.3534-.0908a.595.595,0,0,1-.0724-.0224l-.3486-.128c-.0234-.0088-.0458-.0186-.06839-.0292l-.34461-.167c-.0216-.0108-.043-.0216-.0636-.0342l-.3388-.206c-.0196-.0128-.04-.0254-.0586-.0402l-.333-.248c-.0196-.0146-.0372-.0302-.0556-.0458l-.3214-.292c-.0176-.0166-.0352-.0332-.0518-.0518l-.3076-.3388c-.0146-.0158-.0282-.0332-.042-.0498l-.292-.3848c-.0136-.0176-.0264-.0362-.038-.0548l-.2716-.4326a.676.676,0,0,1-.034-.0596l-.2452-.4834a.57773.57773,0,0,1-.0264-.0576l-.21579-.5332a.578.578,0,0,1-.02041-.0596l-.1798-.581c-.0068-.0194-.01179-.04-.0166-.0596l-.1386-.6278a.75853.75853,0,0,1-.0176-.1622v-50.289a.76083.76083,0,0,1,.0176-.1632l.1386-.626c.00481-.0204.0098-.04.0156-.0584l.1798-.5832c.0068-.0204.0136-.041.0224-.0614l.2148-.5312c.0078-.0186.0166-.0382.0264-.0568l.2452-.4842a.676.676,0,0,1,.034-.0596l.2716-.4336c.0116-.0176.0244-.0362.037-.0538l.292-.3858.044-.0526.30859-.337a.62091.62091,0,0,1,.0508-.0518l.3222-.29c.0166-.0156.0342-.0302.0518-.0438l.333-.25a.62263.62263,0,0,1,.0586-.0392l.3388-.208c.0226-.0136.045-.0254.0684-.037l.3448-.1652c.0224-.0106.0448-.0204.0684-.0292l.34861-.126c.02139-.0078.044-.0146.06639-.0204l.3534-.0928a.62069.62069,0,0,1,.0772-.0156l.3536-.0538c.02341-.003.0478-.0058.0722-.0068l.3564-.0186c.01281-.001.0254-.001.0392-.001h1.7012c.0136,0,.0262,0,.04.001l.35441.0186c.02439.001.04779.0038.07219.0068l.3536.0538a.65979.65979,0,0,1,.0772.0156l.3534.0928a.49475.49475,0,0,1,.06561.0194l.34959.127c.02441.0088.0478.0186.0712.0292l.3438.166c.02141.0108.044.0226.0644.0352l.3408.208a.64458.64458,0,0,1,.0616.042l.331.25c.01761.0128.0342.0274.0508.042l.3222.29c.01661.0158.0342.0324.0498.0498l.3096.338c.0156.0176.03121.0362.046.0556l.291.3858c.0126.0166.0244.0342.036.0518l.2716.4336c.0116.0184.0224.038.0332.0576l.247.4844c.0098.0194.0186.039.02641.0586l.21579.5312c.0078.0204.0156.041.0216.0614l.1796.5832c.0058.0184.0108.038.0156.0584l.1386.626a.70278.70278,0,0,1,.0186.1632v50.289a.70049.70049,0,0,1-.0186.1622l-.1386.6278c-.0048.0196-.0098.0402-.0156.0596l-.1796.581c-.007.0206-.0138.0402-.0216.0596l-.21579.5332a.62159.62159,0,0,1-.02741.0596l-.247.4834c-.0098.0196-.0206.0382-.0322.0576l-.2716.4326c-.0116.0186-.0244.0362-.037.0528l-.291.3848c-.01379.0186-.0284.036-.044.0536l-.3096.339c-.0156.0166-.03219.0342-.0498.0498l-.3222.292c-.0166.0156-.0352.0302-.0538.0448l-.331.2482c-.0206.0146-.04.0282-.0616.042l-.3408.206c-.0194.0116-.04.0224-.0604.0322l-.3438.168c-.0226.0106-.046.0204-.0704.0292l-.3496.128a.64942.64942,0,0,1-.0712.0224l-.35359.0908c-.02341.006-.04781.0108-.07121.0148l-.3536.0546a.69131.69131,0,0,1-.078.0078l-.3546.0176Zm-1.68359-1.5h1.666l.29679-.0146.2784-.043.2812-.0724.2782-.1024.27941-.1348.27919-.17.2736-.205.2694-.2442.26181-.288.251-.3302.2362-.3778.21681-.4238.19139-.4728.1612-.5214.1152-.5176v-50.125l-.1152-.5166-.1612-.5234-.19139-.4708-.21681-.4258-.23719-.3778-.25-.332-.26081-.2842-.2704-.2452-.2754-.208-.27739-.169-.27641-.1328-.2812-.1016-.2812-.0732-.2784-.042-.29879-.0156H84.01852l-.29979.0156-.27821.042-.2804.0732-.2812.1016-.2774.1328-.2754.169-.2772.209-.2706.2432-.2598.2852-.25179.333-.23641.3758-.2148.4258-.1924.4718-.1612.5234-.1142.5166v50.125l.1142.5176.1612.5214.1924.4736.2148.424.23641.3758.25179.3312.2618.288.2686.2442.2754.205.2772.17.2804.1348.2782.1024.2804.0724.27821.043Z"/><polygon class="cls-7" points="239.849 177.743 240.119 177.311 240.366 176.828 240.582 176.295 240.762 175.714 240.9 175.086 240.9 124.797 240.762 124.17 240.582 123.587 240.366 123.056 240.119 122.572 239.849 122.139 239.618 121.834 239.618 178.048 239.849 177.743"/><polygon class="cls-7" points="231.447 177.743 231.177 177.311 230.931 176.828 230.715 176.295 230.535 175.714 230.396 175.086 230.396 124.797 230.535 124.17 230.715 123.587 230.931 123.056 231.177 122.572 231.447 122.139 231.681 121.834 231.681 178.048 231.447 177.743"/><polygon class="cls-3" points="234.798 179.672 234.442 179.655 234.088 179.6 233.736 179.509 233.387 179.381 233.041 179.214 232.702 179.008 232.369 178.759 232.049 178.467 231.739 178.128 231.681 178.048 231.681 121.834 231.739 121.753 232.049 121.415 232.369 121.125 232.702 120.875 233.041 120.667 233.387 120.501 233.736 120.375 234.088 120.283 234.442 120.23 234.798 120.211 236.499 120.211 236.854 120.23 237.208 120.283 237.56 120.375 237.91 120.501 238.255 120.667 238.595 120.875 238.927 121.125 239.247 121.415 239.557 121.753 239.618 121.834 239.618 178.048 239.557 178.128 239.247 178.467 238.927 178.759 238.595 179.008 238.255 179.214 237.91 179.381 237.56 179.509 237.208 179.6 236.854 179.655 236.499 179.672 234.798 179.672"/><path class="cls-2" d="M236.49911,180.4222h-1.7012l-.03718-.001-.35442-.0176a.69019.69019,0,0,1-.0782-.0078l-.3544-.0546c-.0244-.004-.0488-.0088-.0724-.0148l-.3514-.0908a.58.58,0,0,1-.0714-.0224l-.3496-.128c-.0234-.0088-.0468-.0186-.0694-.0292l-.3456-.167c-.0216-.0108-.042-.0216-.0626-.0342l-.3388-.206a.60588.60588,0,0,1-.0586-.0402l-.333-.248a.639.639,0,0,1-.0566-.0468l-.3204-.293a.55322.55322,0,0,1-.0488-.0478l-.3096-.339c-.0166-.0184-.0322-.038-.0478-.0576l-.0586-.08a.74921.74921,0,0,1-.14838-.4482v-56.214a.74222.74222,0,0,1,.14458-.4424l.0584-.081a.82184.82184,0,0,1,.0528-.0644l.3096-.338c.0156-.0166.0322-.0332.0488-.0488l.3204-.29c.0176-.0156.035-.0302.0536-.0448l.333-.25a.62263.62263,0,0,1,.0586-.0392l.339-.208a.70127.70127,0,0,1,.0674-.037l.3456-.1652c.0224-.0106.046-.0204.0694-.0292l.3496-.127c.0214-.0078.043-.0136.0644-.0194l.3516-.0928a.69764.69764,0,0,1,.079-.0156l.3556-.0538c.0234-.003.0468-.0058.0712-.0068l.3546-.0186c.0136-.001.0262-.001.04-.001h1.7012c.01362,0,.0262,0,.04.001l.3544.0186c.0234.001.048.0038.0714.0068l.3544.0538a.69236.69236,0,0,1,.0792.0156l.3516.0928c.0224.0058.0438.0116.0654.0194l.3496.127c.0234.0088.0468.0186.0692.0292l.3448.1652c.0234.0116.046.0234.0684.037l.3388.208a.5977.5977,0,0,1,.0586.0392l.333.25c.0186.0146.0362.0292.05282.0448l.32018.29a.59425.59425,0,0,1,.049.0488l.3094.338c.0166.0176.0324.037.048.0566l.0604.081a.74913.74913,0,0,1,.1504.4502v56.214a.7532.7532,0,0,1-.1542.456l-.0616.079a.49151.49151,0,0,1-.042.0508l-.3086.339c-.0156.0166-.0322.0332-.0488.0478l-.32018.293c-.01862.0166-.03722.0322-.05682.0468l-.333.248c-.0184.0148-.039.0274-.0586.0402l-.3388.206c-.0204.0126-.042.0234-.0634.0342l-.3448.167c-.0234.0106-.0458.0204-.0694.0292l-.3506.128a.52279.52279,0,0,1-.0702.0224l-.3516.0908c-.0234.006-.0478.0108-.0732.0148l-.3546.0546a.66458.66458,0,0,1-.078.0078l-.3546.0176Zm-1.6836-1.5h1.666l.2968-.0146.2794-.043.2792-.0724.2802-.1024.2794-.1348.2774-.17.2754-.205.2676-.2442.1512-.165V122.1116l-.1504-.164-.2684-.2442-.2774-.208-.2754-.169-.2774-.1328-.2822-.1016-.2792-.0732-.2794-.042-.2988-.0156h-1.6622l-.2988.0156-.2792.042-.2794.0732-.28318.1016-.27642.1328-.2762.169-.2764.208-.2696.2442-.14738.162v55.6622l.14938.164.2676.2442.2744.205.2782.17.2794.1348.2802.1024.2794.0724.2792.043Z"/><path class="cls-2" d="M236.49911,180.4222h-1.7012l-.03718-.001-.35442-.0176a.69019.69019,0,0,1-.0782-.0078l-.3544-.0546c-.0244-.004-.0488-.0088-.0724-.0148l-.3514-.0908a.58.58,0,0,1-.0714-.0224l-.3496-.128c-.0234-.0088-.0468-.0186-.0694-.0292l-.3456-.167c-.0216-.0108-.042-.0216-.0626-.0342l-.3388-.206a.60588.60588,0,0,1-.0586-.0402l-.333-.248a.639.639,0,0,1-.0566-.0468l-.3204-.293a.55322.55322,0,0,1-.0488-.0478l-.3096-.339c-.0146-.0176-.0292-.0342-.043-.0516l-.292-.3848c-.0136-.0186-.0272-.0372-.039-.0566l-.2704-.4328c-.0118-.0184-.0216-.037-.0314-.0556l-.247-.4834a.61442.61442,0,0,1-.02742-.0596l-.2158-.5332c-.0078-.0194-.0146-.039-.0214-.0596l-.1798-.581c-.0058-.0194-.0106-.04-.01558-.0596l-.13862-.6278a.701.701,0,0,1-.0186-.1622v-50.289a.70332.70332,0,0,1,.0186-.1632l.13862-.626c.005-.0204.00978-.04.01558-.0584l.1798-.5832c.0058-.0204.0136-.041.0214-.0614l.2158-.5312c.0078-.0196.0166-.0392.0264-.0586l.247-.4844c.00978-.0186.02058-.0382.03238-.0566l.2704-.4328c.0118-.0184.0244-.037.0382-.0556l.292-.3858c.0146-.0184.0292-.036.0448-.0536l.3096-.338c.0156-.0166.0322-.0332.0488-.0488l.3204-.29c.0176-.0156.035-.0302.0536-.0448l.333-.25a.62263.62263,0,0,1,.0586-.0392l.339-.208a.70127.70127,0,0,1,.0674-.037l.3456-.1652c.0224-.0106.046-.0204.0694-.0292l.3496-.127c.0214-.0078.043-.0136.0644-.0194l.3516-.0928a.69764.69764,0,0,1,.079-.0156l.3556-.0538c.0234-.003.0468-.0058.0712-.0068l.3546-.0186c.0136-.001.0262-.001.04-.001h1.7012c.01362,0,.0262,0,.04.001l.3544.0186c.0234.001.048.0038.0714.0068l.3544.0538a.69236.69236,0,0,1,.0792.0156l.3516.0928c.0224.0058.0438.0116.0654.0194l.3496.127c.0234.0088.0468.0186.0692.0292l.3448.1652c.0234.0116.046.0234.0684.037l.3388.208a.5977.5977,0,0,1,.0586.0392l.333.25c.0186.0146.0362.0292.05282.0448l.32018.29a.59425.59425,0,0,1,.049.0488l.3094.338c.0166.0176.03142.0352.046.0536l.292.3858c.0136.0186.0264.0372.038.0556l.2706.4328c.01082.0184.0214.038.0312.0566l.247.4844c.0098.0194.01862.039.0274.0586l.2148.5312c.0088.0204.0156.041.0226.0614l.1796.5832c.0058.0184.0108.038.0156.0584l.1388.626a.77353.77353,0,0,1,.0174.1632v50.289a.77123.77123,0,0,1-.0174.1622l-.1388.6278c-.0048.0196-.0098.0402-.0166.0596l-.1796.581c-.006.0206-.0128.0402-.0206.0596l-.2158.5332a.61909.61909,0,0,1-.0274.0596l-.247.4834c-.0098.0186-.02038.0372-.0312.0556l-.2706.4328c-.01258.0194-.0254.038-.039.0566l-.292.3848c-.01358.0174-.0284.034-.044.0516l-.3086.339c-.0156.0166-.0322.0332-.0488.0478l-.32018.293c-.01862.0166-.03722.0322-.05682.0468l-.333.248c-.0184.0148-.039.0274-.0586.0402l-.3388.206c-.0204.0126-.042.0234-.0634.0342l-.3448.167c-.0234.0106-.0458.0204-.0694.0292l-.3506.128a.52279.52279,0,0,1-.0702.0224l-.3516.0908c-.0234.006-.0478.0108-.0732.0148l-.3546.0546a.66458.66458,0,0,1-.078.0078l-.3546.0176Zm-1.6836-1.5h1.666l.2968-.0146.2794-.043.2792-.0724.2802-.1024.2794-.1348.2774-.17.2754-.205.2676-.2442.2636-.288.251-.3302.2344-.3768.2176-.4248.1916-.4728.161-.5214.1142-.5176v-50.125l-.1142-.5166-.161-.5234-.1916-.4708-.2176-.4268-.2354-.3768-.25-.3312-.2628-.286-.2684-.2442-.2774-.208-.2754-.169-.2774-.1328-.2822-.1016-.2792-.0732-.2794-.042-.2988-.0156h-1.6622l-.2988.0156-.2792.042-.2794.0732-.28318.1016-.27642.1328-.2762.169-.2764.208-.2696.2442-.2616.286-.251.3312-.2344.3768-.2178.4268-.1914.4708-.16118.5234-.11522.5166v50.125l.11522.5176.16118.5214.1914.4728.2168.4248.2354.3768.251.3302.2636.288.2676.2442.2744.205.2782.17.2794.1348.2802.1024.2794.0724.2792.043Z"/><path class="cls-7" d="M244.72273,262.6262H75.77732a6.67668,6.67668,0,0,1-6.6688-6.6698V87.011a6.6748,6.6748,0,0,1,6.6688-6.667H244.72273a6.67565,6.67565,0,0,1,6.66978,6.667V255.9564A6.67753,6.67753,0,0,1,244.72273,262.6262ZM75.77732,82.344a4.67279,4.67279,0,0,0-4.6688,4.667V255.9564a4.67454,4.67454,0,0,0,4.6688,4.6698H244.72273a4.67475,4.67475,0,0,0,4.66978-4.6698V87.011a4.673,4.673,0,0,0-4.66978-4.667Z"/><path class="cls-8" d="M282.42993,171.49133a.5.5,0,0,1-.45605-.29541l-4.06543-9.05323a.49984.49984,0,1,1,.91211-.40917l3.60937,8.0371,3.60938-8.0371a.49984.49984,0,1,1,.91211.40917l-4.06543,9.05323A.50006.50006,0,0,1,282.42993,171.49133Z"/><path class="cls-8" d="M286.49536,159.40881a.49969.49969,0,0,1-.45605-.29541l-3.60938-8.03711-3.60937,8.03711a.49984.49984,0,1,1-.91211-.40918l4.06543-9.05322a.52059.52059,0,0,1,.91211,0l4.06543,9.05322a.4998.4998,0,0,1-.45606.70459Z"/><path class="cls-8" d="M282.42993,171.44152a.49972.49972,0,0,1-.5-.5V149.90539a.5.5,0,0,1,1,0v21.03613A.49971.49971,0,0,1,282.42993,171.44152Z"/><path class="cls-8" d="M282.42993,235.15978a.5.5,0,0,1-.45605-.29541l-4.06543-9.05322a.49984.49984,0,1,1,.91211-.40918l3.60937,8.03711,3.60938-8.03711a.49984.49984,0,1,1,.91211.40918l-4.06543,9.05322A.5.5,0,0,1,282.42993,235.15978Z"/><path class="cls-8" d="M286.49536,181.86193a.49967.49967,0,0,1-.45605-.29541l-3.60938-8.03711-3.60937,8.03711a.49984.49984,0,1,1-.91211-.40918l4.06543-9.05322a.5206.5206,0,0,1,.91211,0l4.06543,9.05322a.49979.49979,0,0,1-.45606.70459Z"/><path class="cls-8" d="M282.42993,235.11a.49972.49972,0,0,1-.5-.5V172.35852a.5.5,0,0,1,1,0V234.61A.49971.49971,0,0,1,282.42993,235.11Z"/><path class="cls-8" d="M169.3313,289.46008a.50185.50185,0,0,1-.20508-.04395l-9.05273-4.06543a.50007.50007,0,0,1,0-.91211l9.05273-4.06543a.5.5,0,0,1,.41016.91211l-8.03711,3.60938,8.03711,3.60937a.50007.50007,0,0,1-.20508.95606Z"/><path class="cls-8" d="M204.34009,289.81848a.50007.50007,0,0,1-.20508-.95606l8.03809-3.60937-8.03809-3.60938a.5.5,0,0,1,.41016-.91211l9.05371,4.06543a.50007.50007,0,0,1,0,.91211l-9.05371,4.06543A.50185.50185,0,0,1,204.34009,289.81848Z"/><path class="cls-8" d="M213.092,285.753h-.00293l-52.76367-.3584a.5.5,0,0,1,.00293-1h.00293l52.76367.3584a.5.5,0,0,1-.00293,1Z"/><path class="cls-9" d="M147.95337,20.63049a5.5205,5.5205,0,0,1-2.62695-.61133l.25195-.61182a4.81651,4.81651,0,0,0,2.38672.57569c1.34375,0,2.35059-.62354,2.35059-2.00293,0-1.46338-1.415-1.93116-2.8545-1.93116h-.86328v-.64746h.86328c1.45118,0,2.57911-.58789,2.57911-1.895,0-1.15136-.83985-1.751-2.05079-1.751a4.26875,4.26875,0,0,0-2.19531.57568l-.23926-.62353a5.15457,5.15457,0,0,1,2.47071-.59961c1.60644,0,2.7705.87549,2.7705,2.35058a2.23027,2.23027,0,0,1-1.90722,2.231v.02393a2.24332,2.24332,0,0,1,2.1709,2.2666C151.05982,19.6593,149.74048,20.63049,147.95337,20.63049Z"/><path class="cls-9" d="M154.302,20.47473V11.98352l-1.99121,1.355-.34765-.53956,2.2666-1.53515h.81543v9.21094Z"/><path class="cls-9" d="M157.78247,20.47473V19.43127h.97168v1.04346Z"/><path class="cls-9" d="M163.72193,20.63049c-1.69141,0-3.1543-.80322-3.1543-2.56641a2.39256,2.39256,0,0,1,1.99023-2.36279v-.02393a2.14636,2.14636,0,0,1-1.67871-2.1709c0-1.61914,1.37891-2.39843,2.83008-2.39843,1.47559,0,2.86719.77929,2.86719,2.39843a2.06484,2.06484,0,0,1-1.65528,2.13477v.02393a2.38311,2.38311,0,0,1,1.9668,2.39892C166.88794,19.82727,165.41236,20.63049,163.72193,20.63049Zm0-4.61719a2.14544,2.14544,0,0,0-2.39844,1.99072c0,1.3794,1.06738,1.979,2.39844,1.979,1.34277,0,2.41015-.59961,2.41015-1.979A2.15644,2.15644,0,0,0,163.72193,16.0133Zm-.0127-4.25781c-1.22266,0-2.0625.68359-2.0625,1.751a1.83429,1.83429,0,0,0,2.0752,1.8711,1.85344,1.85344,0,0,0,2.09863-1.8711C165.82056,12.43908,164.98071,11.75549,163.70923,11.75549Z"/><path class="cls-9" d="M253.44654,281.9635V269.15441h2.01562v.51612H254.095v11.77734h1.36719v.51563Z"/><path class="cls-9" d="M266.36548,279.44494v-4.17383c0-1.271-.41894-2.18261-1.77441-2.18261a1.86932,1.86932,0,0,0-1.88282,2.063v4.29346h-.73144v-4.29346c0-1.27148-.37207-2.063-1.70313-2.063a2.03009,2.03009,0,0,0-1.96777,2.31445v4.042h-.73145v-6.8125h.708v1.1875a2.32653,2.32653,0,0,1,2.1709-1.34326,1.92533,1.92533,0,0,1,2.05078,1.29541h.03614a2.29418,2.29418,0,0,1,2.21875-1.29541,2.22,2.22,0,0,1,2.33886,2.51855v4.44971Z"/><path class="cls-9" d="M278.137,279.44494v-4.17383c0-1.271-.41894-2.18261-1.77441-2.18261a1.86931,1.86931,0,0,0-1.88281,2.063v4.29346h-.73145v-4.29346c0-1.27148-.37207-2.063-1.70312-2.063a2.03009,2.03009,0,0,0-1.96778,2.31445v4.042H269.346v-6.8125h.708v1.1875a2.32652,2.32652,0,0,1,2.1709-1.34326,1.92534,1.92534,0,0,1,2.05078,1.29541h.03613a2.29418,2.29418,0,0,1,2.21875-1.29541,2.22,2.22,0,0,1,2.33887,2.51855v4.44971Z"/><path class="cls-9" d="M280.90161,281.9635v-.51563h1.36719V269.67053h-1.36719v-.51612h2.00293V281.9635Z"/><path class="cls-9" d="M144.21607,46.41271v-.68359c4.00586-3.73,4.79687-4.78516,4.79687-6.20068a1.85419,1.85419,0,0,0-2.0625-1.835,3.2096,3.2096,0,0,0-2.18262.89941l-.34765-.52783a3.62151,3.62151,0,0,1,2.542-1.019c1.583,0,2.80664.83935,2.80664,2.45849,0,1.73926-.86328,2.72266-4.60547,6.26074h4.72559v.64746Z"/><path class="cls-9" d="M154.342,46.56848c-2.41113,0-3.12988-2.09864-3.12988-4.10157,0-2.93847.9834-5.42089,3.57324-5.42089a4.66546,4.66546,0,0,1,1.72754.32373l-.19238.5996a4.16851,4.16851,0,0,0-1.53516-.27587c-2.08691,0-2.74609,2.09912-2.83008,4.11377h.02442a2.89171,2.89171,0,0,1,5.32422,1.667A2.90716,2.90716,0,0,1,154.342,46.56848Zm.05957-5.44483a2.24534,2.24534,0,0,0-2.38672,2.07471,2.44483,2.44483,0,0,0,2.291,2.72266,2.22649,2.22649,0,0,0,2.25488-2.44678A2.13616,2.13616,0,0,0,154.40161,41.12365Z"/><path class="cls-9" d="M159.10669,46.41271V45.36926h.97168v1.04345Z"/><path class="cls-9" d="M165.14185,46.56848c-2.41114,0-3.12989-2.09864-3.12989-4.10157,0-2.93847.9834-5.42089,3.57325-5.42089a4.66554,4.66554,0,0,1,1.72754.32373l-.19239.5996a4.1685,4.1685,0,0,0-1.53515-.27587c-2.08692,0-2.7461,2.09912-2.83008,4.11377h.02441a2.89171,2.89171,0,0,1,5.32422,1.667A2.90715,2.90715,0,0,1,165.14185,46.56848Zm.05957-5.44483a2.24534,2.24534,0,0,0-2.38672,2.07471,2.44482,2.44482,0,0,0,2.291,2.72266,2.22649,2.22649,0,0,0,2.25489-2.44678A2.13616,2.13616,0,0,0,165.20142,41.12365Z"/><path class="cls-8" d="M78.93677,31.77014a.49736.49736,0,0,1-.2041-.044L69.679,27.66076a.49973.49973,0,0,1,0-.91211l9.05371-4.06543a.49984.49984,0,0,1,.40918.91211l-8.0376,3.60938,8.0376,3.60937a.5.5,0,0,1-.20508.95606Z"/><path class="cls-8" d="M241.38892,31.77014a.50007.50007,0,0,1-.20508-.95606l8.03809-3.60937-8.03809-3.60938a.5.5,0,0,1,.41016-.91211l9.05371,4.06543a.50007.50007,0,0,1,0,.91211L241.594,31.72619A.50185.50185,0,0,1,241.38892,31.77014Z"/><path class="cls-8" d="M250.16333,27.70471h-180.23a.5.5,0,0,1,0-1h180.23a.5.5,0,0,1,0,1Z"/><path class="cls-8" d="M93.62476,56.37805a.49736.49736,0,0,1-.2041-.044l-9.05323-4.06543a.49973.49973,0,0,1,0-.91211l9.05323-4.06543a.49984.49984,0,0,1,.40918.91211l-8.03711,3.60938L93.82984,55.422a.5.5,0,0,1-.20508.95606Z"/><path class="cls-8" d="M226.592,56.37805a.50007.50007,0,0,1-.20508-.95606l8.03809-3.60937L226.387,48.20324a.5.5,0,0,1,.41016-.91211l9.05371,4.06543a.50007.50007,0,0,1,0,.91211l-9.05371,4.06543A.50185.50185,0,0,1,226.592,56.37805Z"/><path class="cls-8" d="M235.596,52.31262H84.62183a.5.5,0,0,1,0-1H235.596a.5.5,0,0,1,0,1Z"/><path class="cls-8" d="M250.39282,82.77648a.49972.49972,0,0,1-.5-.5V27.20471a.5.5,0,0,1,1,0V82.27648A.49971.49971,0,0,1,250.39282,82.77648Z"/><path class="cls-8" d="M235.596,180.548a.49971.49971,0,0,1-.5-.5V51.81262a.5.5,0,0,1,1,0V180.048A.49971.49971,0,0,1,235.596,180.548Z"/><path class="cls-8" d="M160.32837,285.39465a.49971.49971,0,0,1-.5-.5v-1.98438a.5.5,0,0,1,1,0v1.98438A.49971.49971,0,0,1,160.32837,285.39465Zm0-4.98438a.50245.50245,0,1,1,.5-.50976v.00976A.49971.49971,0,0,1,160.32837,280.41027Zm0-3.00976a.49972.49972,0,0,1-.5-.5v-3a.5.5,0,0,1,1,0v3A.49972.49972,0,0,1,160.32837,277.40051Zm0-6a.50269.50269,0,1,1,.5-.51026v.01026A.49972.49972,0,0,1,160.32837,271.40051Zm0-3.01026a.49971.49971,0,0,1-.5-.5v-3a.5.5,0,0,1,1,0v3A.49971.49971,0,0,1,160.32837,268.39025Zm0-6a.50245.50245,0,1,1,.5-.50976v.00976A.49971.49971,0,0,1,160.32837,262.39025Zm0-3.00976a.49972.49972,0,0,1-.5-.5v-3a.5.5,0,0,1,1,0v3A.49972.49972,0,0,1,160.32837,259.38049Zm0-6a.50245.50245,0,1,1,.5-.51026v.01026A.49972.49972,0,0,1,160.32837,253.38049Zm0-3.01026a.49971.49971,0,0,1-.5-.5v-3a.5.5,0,0,1,1,0v3A.49971.49971,0,0,1,160.32837,250.37023Zm0-6a.50245.50245,0,1,1,.5-.50976v.00976A.49971.49971,0,0,1,160.32837,244.37023Zm0-3.00976a.49971.49971,0,0,1-.5-.5v-3a.5.5,0,0,1,1,0v3A.49971.49971,0,0,1,160.32837,241.36047Zm0-6a.50245.50245,0,1,1,.5-.51026v.01026A.49971.49971,0,0,1,160.32837,235.36047Zm0-3.01026a.49971.49971,0,0,1-.5-.5v-3a.5.5,0,0,1,1,0v3A.49971.49971,0,0,1,160.32837,232.35021Zm0-6a.50245.50245,0,1,1,.5-.50976v.00976A.49971.49971,0,0,1,160.32837,226.35021Zm0-3.00976a.49971.49971,0,0,1-.5-.5v-3a.5.5,0,1,1,1,0v3A.49971.49971,0,0,1,160.32837,223.34045Zm0-6a.50269.50269,0,1,1,.5-.51026v.01026A.49971.49971,0,0,1,160.32837,217.34045Zm0-3.01026a.49971.49971,0,0,1-.5-.5v-3a.5.5,0,1,1,1,0v3A.49971.49971,0,0,1,160.32837,214.33019Zm0-6a.50245.50245,0,1,1,.5-.50976v.00976A.49971.49971,0,0,1,160.32837,208.33019Zm0-3.00976a.49971.49971,0,0,1-.5-.5v-3a.5.5,0,0,1,1,0v3A.49971.49971,0,0,1,160.32837,205.32043Zm0-6a.50245.50245,0,1,1,.5-.51025v.01025A.49971.49971,0,0,1,160.32837,199.32043Zm0-3.01025a.49972.49972,0,0,1-.5-.5v-3a.5.5,0,0,1,1,0v3A.49972.49972,0,0,1,160.32837,196.31018Zm0-6a.50245.50245,0,1,1,.5-.50977v.00977A.49972.49972,0,0,1,160.32837,190.31018Zm0-3.00977a.49971.49971,0,0,1-.5-.5v-3a.5.5,0,0,1,1,0v3A.49971.49971,0,0,1,160.32837,187.30041Zm0-6a.50245.50245,0,1,1,.5-.51025v.01025A.49971.49971,0,0,1,160.32837,181.30041Zm0-3.01025a.49972.49972,0,0,1-.5-.5v-3a.5.5,0,1,1,1,0v3A.49972.49972,0,0,1,160.32837,178.29016Zm0-6a.50245.50245,0,1,1,.5-.50977v.00977A.49972.49972,0,0,1,160.32837,172.29016Zm0-3.00977a.49971.49971,0,0,1-.5-.5v-3a.5.5,0,0,1,1,0v3A.49971.49971,0,0,1,160.32837,169.28039Zm0-6a.50269.50269,0,1,1,.5-.51025v.01025A.49971.49971,0,0,1,160.32837,163.28039Zm0-3.01025a.49972.49972,0,0,1-.5-.5v-3a.5.5,0,0,1,1,0v3A.49972.49972,0,0,1,160.32837,160.27014Zm0-6a.50245.50245,0,1,1,.5-.50977v.00977A.49972.49972,0,0,1,160.32837,154.27014Zm0-3.00977a.49971.49971,0,0,1-.5-.5v-3a.5.5,0,0,1,1,0v3A.49971.49971,0,0,1,160.32837,151.26037Zm0-6a.50245.50245,0,1,1,.5-.51025v.01025A.49971.49971,0,0,1,160.32837,145.26037Zm0-3.01025a.49972.49972,0,0,1-.5-.5v-3a.5.5,0,1,1,1,0v3A.49972.49972,0,0,1,160.32837,142.25012Zm0-6a.50245.50245,0,1,1,.5-.50977v.00977A.49972.49972,0,0,1,160.32837,136.25012Zm0-3.00977a.49971.49971,0,0,1-.5-.5v-3a.5.5,0,1,1,1,0v3A.49971.49971,0,0,1,160.32837,133.24035Zm0-6a.50245.50245,0,1,1,.5-.51025v.01025A.49971.49971,0,0,1,160.32837,127.24035Zm0-3.01025a.49972.49972,0,0,1-.5-.5v-3a.5.5,0,0,1,1,0v3A.49972.49972,0,0,1,160.32837,124.2301Zm0-6a.50245.50245,0,1,1,.5-.50977v.00977A.49972.49972,0,0,1,160.32837,118.2301Zm0-3.00977a.49971.49971,0,0,1-.5-.5v-3a.5.5,0,1,1,1,0v3A.49971.49971,0,0,1,160.32837,115.22033Zm0-6a.50269.50269,0,1,1,.5-.51025v.01025A.49971.49971,0,0,1,160.32837,109.22033Zm0-3.01025a.49972.49972,0,0,1-.5-.5v-3a.5.5,0,0,1,1,0v3A.49972.49972,0,0,1,160.32837,106.21008Zm0-6a.50245.50245,0,1,1,.5-.50977v.00977A.49972.49972,0,0,1,160.32837,100.21008Zm0-3.00977a.49971.49971,0,0,1-.5-.5v-3a.5.5,0,0,1,1,0v3A.49971.49971,0,0,1,160.32837,97.20031Zm0-6a.50245.50245,0,1,1,.5-.51025v.01025A.49971.49971,0,0,1,160.32837,91.20031Zm0-3.01025a.49971.49971,0,0,1-.5-.5v-3a.5.5,0,0,1,1,0v3A.49971.49971,0,0,1,160.32837,88.19006Zm0-6a.50245.50245,0,1,1,.5-.50977v.00977A.49971.49971,0,0,1,160.32837,82.19006Zm0-3.00977a.49971.49971,0,0,1-.5-.5v-3a.5.5,0,0,1,1,0v3A.49971.49971,0,0,1,160.32837,79.18029Zm0-6a.50245.50245,0,1,1,.5-.51025v.01025A.49971.49971,0,0,1,160.32837,73.18029Zm0-3.01025a.49971.49971,0,0,1-.5-.5v-3a.5.5,0,0,1,1,0v3A.49971.49971,0,0,1,160.32837,70.17Zm0-6a.50245.50245,0,1,1,.5-.50977V63.67A.49971.49971,0,0,1,160.32837,64.17Z"/><path class="cls-8" d="M286.51294,172.38244h-.00976a.5.5,0,1,1,.00976,0Zm-3.00976,0h-3a.5.5,0,0,1,0-1h3a.5.5,0,0,1,0,1Zm-6,0h-.00977a.5.5,0,1,1,.00977,0Zm-3.00977,0h-3a.5.5,0,0,1,0-1h3a.5.5,0,0,1,0,1Zm-6,0h-.01074a.5.5,0,0,1,0-1,.50474.50474,0,0,1,.50586.5A.49557.49557,0,0,1,268.49341,172.38244Zm-3.01074,0h-3a.5.5,0,0,1,0-1h3a.5.5,0,0,1,0,1Zm-6,0h-.00977a.5.5,0,1,1,.00977,0Zm-3.00977,0h-3a.5.5,0,0,1,0-1h3a.5.5,0,0,1,0,1Zm-6,0h-.00976a.5.5,0,1,1,.00976,0Zm-3.00976,0h-3a.5.5,0,0,1,0-1h3a.5.5,0,0,1,0,1Zm-6,0h-.00977a.5.5,0,1,1,.00977,0Zm-3.00977,0h-3a.5.5,0,0,1,0-1h3a.5.5,0,0,1,0,1Zm-6,0h-.01074a.49951.49951,0,1,1,.01074,0Zm-3.01074,0h-3a.5.5,0,0,1,0-1h3a.5.5,0,0,1,0,1Zm-6,0h-.00977a.5.5,0,1,1,.00977,0Zm-3.00977,0h-3a.5.5,0,0,1,0-1h3a.5.5,0,0,1,0,1Zm-6,0h-.00976a.5.5,0,1,1,.00976,0Zm-3.00976,0h-3a.5.5,0,0,1,0-1h3a.5.5,0,0,1,0,1Zm-6,0h-.00977a.5.5,0,1,1,.00977,0Zm-3.00977,0h-3a.5.5,0,0,1,0-1h3a.5.5,0,0,1,0,1Zm-6,0h-.01074a.49951.49951,0,1,1,.01074,0Zm-3.01074,0h-3a.5.5,0,0,1,0-1h3a.5.5,0,0,1,0,1Zm-6,0h-.00977a.5.5,0,1,1,.00977,0Zm-3.00977,0h-3a.5.5,0,0,1,0-1h3a.5.5,0,0,1,0,1Zm-6,0h-.00976a.5.5,0,1,1,.00976,0Zm-3.00976,0h-3a.5.5,0,0,1,0-1h3a.5.5,0,0,1,0,1Zm-6,0h-.00977a.5.5,0,1,1,.00977,0Zm-3.00977,0h-3a.5.5,0,0,1,0-1h3a.5.5,0,0,1,0,1Zm-6,0h-.01074a.5.5,0,0,1,0-1,.50474.50474,0,0,1,.50586.5A.49557.49557,0,0,1,160.37329,172.38244Zm-3.01074,0h-3a.5.5,0,0,1,0-1h3a.5.5,0,0,1,0,1Zm-6,0h-.00976a.5.5,0,1,1,.00976,0Zm-3.00976,0h-3a.5.5,0,0,1,0-1h3a.5.5,0,0,1,0,1Zm-6,0H142.343a.5.5,0,1,1,.00977,0Zm-3.00977,0h-3a.5.5,0,0,1,0-1h3a.5.5,0,0,1,0,1Zm-6,0h-.01025a.50025.50025,0,1,1,.01025,0Zm-3.01025,0h-3a.5.5,0,0,1,0-1h3a.5.5,0,0,1,0,1Zm-6,0H124.323a.5.5,0,1,1,.00977,0Zm-3.00977,0h-3a.5.5,0,0,1,0-1h3a.5.5,0,1,1,0,1Zm-6,0h-.01025a.49976.49976,0,1,1,.01025,0Zm-3.01025,0h-3a.5.5,0,0,1,0-1h3a.5.5,0,1,1,0,1Zm-6,0H106.303a.5.5,0,1,1,.00977,0Zm-3.00977,0h-3a.5.5,0,0,1,0-1h3a.5.5,0,1,1,0,1Zm-6,0h-.01025a.50025.50025,0,1,1,.01025,0Zm-3.01025,0h-3a.5.5,0,1,1,0-1h3a.5.5,0,0,1,0,1Zm-6,0H88.283a.5.5,0,1,1,.00977,0Zm-3.00977,0h-3a.5.5,0,0,1,0-1h3a.5.5,0,0,1,0,1Zm-6,0h-.01025a.49976.49976,0,1,1,.01025,0Zm-3.01025,0h-3a.5.5,0,1,1,0-1h3a.5.5,0,0,1,0,1Zm-6,0h-.00977a.5.5,0,1,1,.00977,0Zm-3.00977,0h-3a.5.5,0,1,1,0-1h3a.5.5,0,0,1,0,1Zm-6,0h-.01025a.49976.49976,0,1,1,.01025,0Zm-3.01025,0h-3a.5.5,0,0,1,0-1h3a.5.5,0,0,1,0,1Zm-6,0h-.00977a.5.5,0,1,1,.00977,0Zm-3.00977,0H47.81323a.5.5,0,0,1,0-1h1.42969a.5.5,0,0,1,0,1Z"/><path class="cls-8" d="M282.42993,150.40539H66.6106a.5.5,0,0,1,0-1H282.42993a.5.5,0,0,1,0,1Z"/><path class="cls-9" d="M277.21216,166.40832a5.5205,5.5205,0,0,1-.61133,2.62695l-.6123-.25195a4.81149,4.81149,0,0,0,.57617-2.38672c0-1.34375-.624-2.35058-2.00293-2.35058-1.46387,0-1.93164,1.415-1.93164,2.85449v.86328h-.64746v-.86328c0-1.45117-.58789-2.5791-1.89453-2.5791-1.15137,0-1.751.83984-1.751,2.05078a4.27288,4.27288,0,0,0,.5752,2.19531l-.623.23926a5.14909,5.14909,0,0,1-.59961-2.47071c0-1.60644.875-2.7705,2.35059-2.7705a2.22978,2.22978,0,0,1,2.23046,1.90722h.02442a2.24269,2.24269,0,0,1,2.2666-2.1709C276.24048,163.30187,277.21216,164.62121,277.21216,166.40832Z"/><path class="cls-9" d="M277.05591,162.48449h-1.043v-.97168h1.043Z"/><path class="cls-9" d="M277.21216,156.90539c0,1.69141-.80371,3.1543-2.56641,3.1543a2.3935,2.3935,0,0,1-2.36328-1.99024H272.259a2.14717,2.14717,0,0,1-2.1709,1.67871c-1.61914,0-2.39844-1.3789-2.39844-2.83007,0-1.47559.7793-2.86719,2.39844-2.86719a2.06557,2.06557,0,0,1,2.13476,1.65527h.02344a2.38492,2.38492,0,0,1,2.39941-1.9668C276.40845,153.73937,277.21216,155.215,277.21216,156.90539Zm-8.875.0127c0,1.22265.68359,2.0625,1.751,2.0625a1.83454,1.83454,0,0,0,1.87109-2.0752,1.8537,1.8537,0,0,0-1.87109-2.09863C269.02075,154.80676,268.33716,155.6466,268.33716,156.91809Zm4.25781-.0127a2.14625,2.14625,0,0,0,1.99024,2.39941c1.37988,0,1.97949-1.06836,1.97949-2.39941,0-1.34277-.59961-2.41016-1.97949-2.41016A2.1564,2.1564,0,0,0,272.595,156.90539Z"/><path class="cls-9" d="M181.177,280.06945a5.498,5.498,0,0,1-1.88281-.32373l.168-.62353a5.33841,5.33841,0,0,0,1.69141.2998c2.09863,0,2.7705-2.11084,2.84179-4.11377h-.02343a2.8997,2.8997,0,0,1-5.33692-1.667,2.90975,2.90975,0,0,1,2.97363-3.09424c2.39942,0,3.13086,2.09863,3.13086,4.10156C184.7395,277.57482,183.75611,280.06945,181.177,280.06945Zm.45606-8.875a2.22411,2.22411,0,0,0-2.24317,2.44678,2.12978,2.12978,0,0,0,2.15918,2.35059,2.24851,2.24851,0,0,0,2.39844-2.07471A2.44788,2.44788,0,0,0,181.63306,271.19445Z"/><path class="cls-9" d="M186.66138,279.91369v-1.04346h.97168v1.04346Z"/><path class="cls-9" d="M194.42407,277.5631v2.35059h-.75586V277.5631h-4.498v-.77978l4.07812-6.08057h1.17578v6.21241h1.3545v.64794Zm-.75586-6.23681h-.02441l-3.74219,5.58887h3.7666Z"/><path class="cls-8" d="M282.42993,235.23254H121.63452a.5.5,0,1,1,0-1H282.42993a.5.5,0,0,1,0,1Z"/><path class="cls-8" d="M84.62183,180.548a.49971.49971,0,0,1-.5-.5V51.81262a.5.5,0,1,1,1,0V180.048A.49971.49971,0,0,1,84.62183,180.548Z"/><path class="cls-8" d="M69.93335,82.77648a.49971.49971,0,0,1-.5-.5V27.20471a.5.5,0,1,1,1,0V82.27648A.49971.49971,0,0,1,69.93335,82.77648Z"/><path class="cls-9" d="M33.39673,184.60656a5.52057,5.52057,0,0,1-.61133,2.627l-.61181-.252a4.81658,4.81658,0,0,0,.57568-2.38672c0-1.34375-.62354-2.35058-2.00293-2.35058-1.46338,0-1.93115,1.415-1.93115,2.85449v.86328h-.64746v-.86328c0-1.45117-.58789-2.5791-1.895-2.5791-1.15137,0-1.751.83984-1.751,2.05078a4.26875,4.26875,0,0,0,.57568,2.19531l-.62353.23926a5.15456,5.15456,0,0,1-.59961-2.4707c0-1.60645.87549-2.77051,2.35059-2.77051a2.23027,2.23027,0,0,1,2.231,1.90723h.02393a2.24331,2.24331,0,0,1,2.2666-2.1709C32.42554,181.50012,33.39673,182.81945,33.39673,184.60656Z"/><path class="cls-9" d="M33.241,178.25793H24.74976l1.355,1.99121-.53955.34766L24.03,178.33019v-.81542H33.241Z"/><path class="cls-9" d="M33.241,174.77746H32.19751v-.97168H33.241Z"/><path class="cls-9" d="M33.39673,168.838c0,1.6914-.80322,3.15429-2.56641,3.15429a2.39256,2.39256,0,0,1-2.36279-1.99023h-.02392a2.14637,2.14637,0,0,1-2.1709,1.67871c-1.61914,0-2.39844-1.37891-2.39844-2.83008,0-1.47558.7793-2.86718,2.39844-2.86718a2.06482,2.06482,0,0,1,2.13476,1.65527h.02393a2.38312,2.38312,0,0,1,2.39892-1.9668C32.59351,165.672,33.39673,167.14758,33.39673,168.838Zm-8.875.01269c0,1.22266.68359,2.0625,1.751,2.0625A1.83428,1.83428,0,0,0,28.1438,168.838a1.85345,1.85345,0,0,0-1.87109-2.09864C25.20532,166.73937,24.52173,167.57922,24.52173,168.8507Zm4.25781-.01269a2.14543,2.14543,0,0,0,1.99073,2.39843c1.37939,0,1.979-1.06738,1.979-2.39843,0-1.34278-.59961-2.41016-1.979-2.41016A2.15645,2.15645,0,0,0,28.77954,168.838Z"/><path class="cls-9" d="M277.05591,212.66906H268.5647l1.35547,1.99121-.54.34766-1.53516-2.2666v-.81543h9.21094Z"/><path class="cls-9" d="M277.05591,207.84484H268.5647l1.35547,1.99121-.54.34766-1.53516-2.2666v-.81543h9.21094Z"/><path class="cls-9" d="M277.05591,204.36437h-1.043v-.97168h1.043Z"/><path class="cls-9" d="M277.05591,199.61242H268.5647l1.35547,1.99121-.54.34766-1.53516-2.2666v-.81543h9.21094Z"/><path class="cls-8" d="M39.971,263.006a.50006.50006,0,0,1-.45606-.29541l-4.06543-9.05372a.49984.49984,0,1,1,.91211-.40917l3.60938,8.03759,3.60937-8.03759a.49984.49984,0,1,1,.91211.40917L40.427,262.71057A.5.5,0,0,1,39.971,263.006Z"/><path class="cls-8" d="M44.03687,91.67053a.49987.49987,0,0,1-.45655-.29541L39.971,83.338l-3.60938,8.03711a.49984.49984,0,0,1-.91211-.40918l4.06543-9.05323a.5206.5206,0,0,1,.91211,0l4.06543,9.05323a.50016.50016,0,0,1-.45556.70459Z"/><path class="cls-8" d="M39.971,262.95568a.49971.49971,0,0,1-.5-.5V82.16711a.5.5,0,0,1,1,0V262.45568A.49971.49971,0,0,1,39.971,262.95568Z"/><path class="cls-8" d="M70.655,82.66711H39.971a.5.5,0,0,1,0-1H70.655a.5.5,0,0,1,0,1Z"/><path class="cls-8" d="M70.655,263.12609H39.971a.5.5,0,0,1,0-1H70.655a.5.5,0,1,1,0,1Z"/><path class="cls-8" d="M213.344,279.94494a.49971.49971,0,0,1-.5-.5V216.34582a.5.5,0,0,1,1,0v63.09912A.49972.49972,0,0,1,213.344,279.94494Z"/><path class="cls-8" d="M213.344,285.753a.49972.49972,0,0,1-.5-.5v-50.48a.5.5,0,0,1,1,0v50.48A.49972.49972,0,0,1,213.344,285.753Z"/><rect class="cls-10" width="313.91874" height="300.6171"/></g></g></svg>