<svg xmlns="http://www.w3.org/2000/svg" viewBox="-93.781905 0 555 235.43905"><defs><style>.cls-1{fill:#fff;}.cls-2{fill:#9e9e9f;}.cls-3{fill:#c8c9ca;}.cls-4{fill:#e5e5e6;}.cls-5{fill:#ddd583;}.cls-6{fill:#3e3a39;}.cls-7{fill:#231815;}.cls-8{fill:#bfd833;}.cls-9{fill:#666;}.cls-10{fill:none;}</style></defs><title>アセット 1201</title><g id="レイヤー_2" data-name="レイヤー 2"><g id="レイヤー_2-2" data-name="レイヤー 2"><path class="cls-1" d="M94.50372,11.04407H263.44813a5.66979,5.66979,0,0,1,5.66979,5.66979V185.65648a5.66979,5.66979,0,0,1-5.66979,5.66979H94.50092a5.667,5.667,0,0,1-5.667-5.667V16.71387A5.6698,5.6698,0,0,1,94.50372,11.04407Z"/><path class="cls-2" d="M263.44813,188.42487H94.50272a2.771,2.771,0,0,1-2.7676-2.7684V16.71107a2.7703,2.7703,0,0,1,2.7676-2.7676H263.44813a2.77008,2.77008,0,0,1,2.76659,2.7676v168.9454A2.77077,2.77077,0,0,1,263.44813,188.42487ZM94.50272,14.94347a1.76968,1.76968,0,0,0-1.7676,1.7676v168.9454a1.77037,1.77037,0,0,0,1.7676,1.7684H263.44813a1.7695,1.7695,0,0,0,1.76659-1.7684V16.71107a1.76882,1.76882,0,0,0-1.76659-1.7676Z"/><path class="cls-2" d="M133.05252,101.19247a.50032.50032,0,0,1-.5-.5V58.59107a.5.5,0,0,1,1,0v42.1014A.50031.50031,0,0,1,133.05252,101.19247Z"/><path class="cls-2" d="M133.05252,101.44247h-24.2246a.74951.74951,0,0,1-.75-.75V58.59107a.74887.74887,0,0,1,.75-.75h24.2246c.0148,0,.0304,0,.045.0008l.2608.0158a.77633.77633,0,0,1,.084.0096l.2596.045a.88707.88707,0,0,1,.089.0214l.2578.0782c.02341.0078.0468.0156.0702.0254l.2628.1094a.70477.70477,0,0,1,.0762.037l.2606.1456a.51567.51567,0,0,1,.0742.0468l.258.1856c.01941.0146.038.0294.0566.046l.2598.2274c.0194.0176.039.0372.0576.0566l.2548.2784c.0156.0176.0312.0362.045.0548l.249.33c.01461.0204.0292.041.042.0624l.2362.3888c.0118.0204.0236.041.0332.0614l.2208.4532c.0088.0196.0176.04.0254.0596l.2002.5234c.0078.0206.0146.04.0204.0606l.172.5946c.0058.0206.0106.042.0146.0626l.1348.6778c.0038.0204.0068.04.0088.0594l.0878.7578a.58065.58065,0,0,1,.004.0586l.0312.8438.0694,5.1992.038,5.1818.0108,5.04-.0108,5.043-.038,5.1796-.0684,5.1866-.0322.8584a.54226.54226,0,0,1-.004.0576l-.0878.7598c-.002.0204-.006.04-.00979.0604l-.13381.6768c-.004.0206-.0088.041-.0146.0616l-.172.5966a.61582.61582,0,0,1-.0204.0606l-.2002.5214c-.0078.0206-.0166.04-.0254.0596l-.2208.4532a.56315.56315,0,0,1-.0332.0614l-.2362.3888c-.0128.0214-.02739.0428-.042.0624l-.249.3302c-.0148.0194-.03039.038-.047.0566l-.2548.2764a.71417.71417,0,0,1-.0538.0536l-.2598.2296c-.0194.0174-.04.0332-.0604.0488l-.2578.1836a.57929.57929,0,0,1-.0684.0438l-.2618.1476c-.0244.0136-.0498.0254-.0752.037l-.2626.1104a.675.675,0,0,1-.0792.0284l-.2578.0762a.6272.6272,0,0,1-.084.0204l-.2596.045a.58692.58692,0,0,1-.084.0096l-.2608.0158C133.08292,101.44147,133.06732,101.44247,133.05252,101.44247Zm-23.4746-1.5h23.45221l.19619-.0116.1748-.0312.1758-.0518.1856-.0782.1884-.1064.1934-.1378.2012-.1786.2042-.2218.203-.2694.1982-.3272.1914-.3926.1768-.4618.1544-.5352.122-.6162.0802-.7002.0302-.8126.0684-5.162.038-5.173.0108-5.035-.0108-5.0322-.038-5.1748-.0684-5.1748-.0302-.798-.0802-.6982-.122-.6172-.1544-.5342-.1776-.4638-.1906-.3926-.1982-.3262-.204-.2714-.2032-.2218-.2012-.1776-.1934-.1388-.1854-.1034-.1886-.0782-.1776-.0536-.173-.0304-.19619-.0116H109.57792Z"/><path class="cls-2" d="M141.55752,177.37027a13.2563,13.2563,0,1,1,13.2578-13.2558A13.27035,13.27035,0,0,1,141.55752,177.37027Zm0-25.5126a12.2563,12.2563,0,1,0,12.2578,12.2568A12.2693,12.2693,0,0,0,141.55752,151.85767Z"/><path class="cls-2" d="M118.88072,185.02367h-18.708a5.04178,5.04178,0,0,1-5.0372-5.0342v-31.749a5.04306,5.04306,0,0,1,5.0372-5.0372h18.708a5.0422,5.0422,0,0,1,5.0362,5.0372v31.749A5.04092,5.04092,0,0,1,118.88072,185.02367Zm-18.708-40.8204a4.0418,4.0418,0,0,0-4.0372,4.0372v31.749a4.04052,4.04052,0,0,0,4.0372,4.0342h18.708a4.03966,4.03966,0,0,0,4.0362-4.0342v-31.749a4.04094,4.04094,0,0,0-4.0362-4.0372Z"/><path class="cls-2" d="M178.97452,185.59107a19.79767,19.79767,0,0,1-19.7754-19.7754v-3.4034a19.7758,19.7758,0,0,1,39.5516,0v3.4034A19.79783,19.79783,0,0,1,178.97452,185.59107Zm0-41.9532a18.79605,18.79605,0,0,0-18.7754,18.7744v3.4034a18.7758,18.7758,0,0,0,37.5516,0v-3.4034A18.79622,18.79622,0,0,0,178.97452,143.63787Z"/><path class="cls-2" d="M178.97452,50.91127a17.7578,17.7578,0,1,1,17.75961-17.7578A17.77725,17.77725,0,0,1,178.97452,50.91127Zm0-34.0156a16.2578,16.2578,0,1,0,16.25961,16.2578A16.27491,16.27491,0,0,0,178.97452,16.89567Z"/><path class="cls-2" d="M224.89432,101.19247a.501.501,0,0,1-.5-.5V58.59107a.5.5,0,0,1,1,0v42.1014A.50031.50031,0,0,1,224.89432,101.19247Z"/><path class="cls-2" d="M249.12092,101.44247h-24.2266c-.0146,0-.0292-.001-.0448-.0018l-.2588-.0158a.58043.58043,0,0,1-.084-.0096l-.2598-.045a.63472.63472,0,0,1-.084-.0204l-.2578-.0762a.675.675,0,0,1-.0792-.0284l-.2626-.1104c-.0254-.0116-.0508-.0234-.07519-.037l-.26181-.1476a.56041.56041,0,0,1-.06819-.0438l-.25781-.1836c-.0206-.0156-.0412-.0314-.0606-.0488l-.2598-.2296a.714.714,0,0,1-.05379-.0536l-.25481-.2764c-.0166-.0186-.0322-.0372-.0468-.0566l-.249-.3302a.66885.66885,0,0,1-.042-.0624l-.2364-.3888a.59963.59963,0,0,1-.0332-.0614l-.2208-.4532c-.0088-.0196-.0174-.039-.0254-.0596l-.2002-.5214a.61582.61582,0,0,1-.0204-.0606l-.1718-.5966c-.006-.0206-.0108-.041-.0148-.0616l-.1338-.6768c-.0038-.0204-.0078-.04-.0096-.0604l-.088-.7598a.54261.54261,0,0,1-.0038-.0576l-.0314-.8418-.0692-5.2012-.0382-5.1808-.0108-5.0428.0108-5.0392.0382-5.1816.0682-5.1846.0324-.8604a.58006.58006,0,0,1,.0038-.0586l.088-.7578c.0018-.0194.0048-.039.0086-.0594l.1348-.6778c.004-.0206.0088-.042.0148-.0626l.1718-.5946c.0058-.0206.0126-.04.0204-.0606l.2002-.5234c.008-.0196.0166-.04.0254-.0596l.2208-.4532c.0098-.0204.0214-.041.0332-.0614l.2364-.3888c.01261-.0214.0272-.042.042-.0624l.249-.33c.01361-.0186.0292-.0372.0448-.0548l.255-.2784c.0184-.0194.038-.039.0576-.0566l.2598-.2274c.01841-.0166.037-.0314.0566-.046l.25781-.1856a.515.515,0,0,1,.07419-.0468l.2608-.1456a.70568.70568,0,0,1,.0762-.037l.2626-.1094c.0234-.0098.0468-.0176.0704-.0254l.25781-.0782a.88242.88242,0,0,1,.08879-.0214l.2598-.045a.765.765,0,0,1,.084-.0096l.2588-.0158c.0156-.0008.0302-.0008.0448-.0008h24.2266a.74887.74887,0,0,1,.75.75v42.1014A.74951.74951,0,0,1,249.12092,101.44247Zm-24.2032-1.5h23.4532V59.34107h-23.4532l-.1952.0116-.1728.0304-.1778.0536-.1884.0782-.1856.1034-.1934.1388-.2012.1776-.203.2218-.20419.2714-.19821.3262-.1904.3926-.1778.4638-.1542.5342-.1222.6172-.08.6982-.0304.8146-.0682,5.16-.0382,5.1748-.0108,5.0314.0108,5.036.0382,5.173.0682,5.1766.0304.796.08.7002.1222.6162.1542.5352.1768.4618.1914.3926.19821.3272.20319.2694.204.2218.2012.1786.1934.1378.1884.1064.1856.0782.1758.0518.1748.0312Z"/><path class="cls-3" d="M117.34352,105.26587a3.85332,3.85332,0,0,0-1.31139-.2286c-.53921,0-1.09181.1866-1.09181.7832,0,.4824.3184.7138,1.2002,1.0596,1.0712.454,1.6904.87,1.6904,1.875,0,1.2188-1.041,1.7188-2.13279,1.7188a5.05554,5.05554,0,0,1-1.833-.3048l.2236-.8428a4.2606,4.2606,0,0,0,1.5938.3644c.703,0,1.1766-.2892,1.1766-.8644,0-.5166-.4598-.7998-1.327-1.1434-1.006-.4034-1.57921-.9112-1.57921-1.7764,0-1.1826,1.0478-1.6798,2.03121-1.6798a4.77771,4.77771,0,0,1,1.55279.2374Zm3.3136,5.208a2.338,2.338,0,1,0-2.1856-2.333,2.08693,2.08693,0,0,0,2.1856,2.333m0-3.9318c.833,0,1.2178.666,1.2178,1.5988,0,.953-.38479,1.6172-1.2178,1.6172-.8232,0-1.209-.6642-1.209-1.6172,0-.9328.375-1.5988,1.209-1.5988m2.916-.6356v4.5058h.9618v-2.5078c0-.9922.5694-1.3624,1.1016-1.3624.7266,0,.922.4796.922,1.255v2.6152h.9882v-2.9824a1.5235,1.5235,0,0,0-1.6474-1.622,1.50441,1.50441,0,0,0-1.3654.7264h-.0184v-.6278Zm5.4228,0h-1.0624l1.7802,4.37-.72959,1.7598h1.01079l2.4464-6.1298h-1.0166l-1.21,3.3076h-.0118Zm47.2548,4.5058h3.5832v-.8418h-2.5832v-1.8848h2.292v-.8154h-2.292v-1.7294h2.503v-.8078h-3.503Zm4.3644-4.5058v4.5058h.9658v-2.5078c0-.9922.5498-1.3624,1.1016-1.3624.7352,0,.92961.4796.92961,1.255v2.6152h.95419v-2.9824a1.63748,1.63748,0,0,0-2.99819-.8956h-.01261v-.6278Zm-43.8154,0v4.5058h.9814v-2.5078c0-.9922.5634-1.3624,1.0898-1.3624.7422,0,.9444.4796.9444,1.255v2.6152h.96681v-2.9824a1.51362,1.51362,0,0,0-1.631-1.622,1.541,1.541,0,0,0-1.3856.7264h-.0128v-.6278Zm48.247.7344h.746v2.5282c0,.8262.1846,1.2734,1.19541,1.2734.26179,0,.544-.0146.746-.0302v-.7402a3.26668,3.26668,0,0,1-.457.036c-.4638,0-.5234-.1064-.5234-.7206v-2.3466h.98441v-.7344h-.98441v-1.167h-.961v1.167h-.746Zm7.19141,1.784v-.412c0-1.3408-.66021-2.205-1.956-2.205a2.11851,2.11851,0,0,0-2.11521,2.3466,2.1901,2.1901,0,0,0,2.3906,2.3194,3.58543,3.58543,0,0,0,1.3524-.2032l-.126-.7158a3.14971,3.14971,0,0,1-1.13179.2032,1.38914,1.38914,0,0,1-1.542-1.3332Zm-3.128-.7088a1.20217,1.20217,0,0,1,1.172-1.2178,1.04646,1.04646,0,0,1,1.04979,1.1942v.0236h-2.22179m6.13579-1.9004a1.53276,1.53276,0,0,0-.168-.0078,1.16105,1.16105,0,0,0-1.1602.6904h-.0234v-.5918h-.9404v4.5058h.9766v-2.3916c0-1.085.47561-1.4522,1.0624-1.4522.085,0,.1504,0,.2062.002Zm-53.9794.8252h.7372v2.5282c0,.8262.19241,1.2734,1.23041,1.2734.25,0,.53719-.0146.71879-.0302v-.7402a2.9842,2.9842,0,0,1-.4346.036c-.4706,0-.5184-.1064-.5184-.7206v-2.3466h.956v-.7344h-.956v-1.167h-.9962v1.167h-.7372Zm18.786,0h.7638v2.5282c0,.8262.164,1.2734,1.20981,1.2734.255,0,.52639-.0146.73939-.0302v-.7402a3.28674,3.28674,0,0,1-.458.036c-.4678,0-.5236-.1064-.5236-.7206v-2.3466h.9826v-.7344h-.9826v-1.167h-.9676v1.167h-.7638Zm-11.584,1.784v-.412c0-1.3408-.666-2.205-1.94239-2.205a2.11751,2.11751,0,0,0-2.13461,2.3466,2.18574,2.18574,0,0,0,2.3856,2.3194,3.55057,3.55057,0,0,0,1.3516-.2032l-.1288-.7158a3.23328,3.23328,0,0,1-1.13779.2032,1.39122,1.39122,0,0,1-1.52341-1.3332Zm-3.1298-.7088a1.2061,1.2061,0,0,1,1.18741-1.2178,1.04067,1.04067,0,0,1,1.02639,1.1942v.0236h-2.2138m28.3418.7088v-.412c0-1.3408-.6592-2.205-1.9356-2.205a2.12762,2.12762,0,0,0-2.1426,2.3466,2.1974,2.1974,0,0,0,2.4064,2.3194,3.46865,3.46865,0,0,0,1.3348-.2032l-.1366-.7158a2.9736,2.9736,0,0,1-1.1046.2032,1.40863,1.40863,0,0,1-1.5674-1.3332Zm-3.1456-.7088a1.2255,1.2255,0,0,1,1.21-1.2178,1.05263,1.05263,0,0,1,1.04,1.1942v.0236h-2.25m-19.0184-1.9004c-.086-.005-.1222-.0078-.1826-.0078a1.16857,1.16857,0,0,0-1.1768.6904h-.0128v-.5918h-.9404v4.5058h.958v-2.3916c0-1.085.4952-1.4522,1.088-1.4522.084,0,.1356,0,.19621.002Zm44.3846.8252h.6328v2.5282c0,.8262.1954,1.2734,1.20621,1.2734.26559,0,.54979-.0146.75579-.0302v-.7402a3.16081,3.16081,0,0,1-.46379.036c-.43761,0-.53141-.1064-.53141-.7206v-2.3466h1.008v-.7344h-1.008v-1.167h-.9668v1.167h-.6328Zm5.881.9344c-1.52841,0-2.82821.2422-2.82821,1.542,0,1.0342.7832,1.3566,1.541,1.3566a1.44484,1.44484,0,0,0,1.3594-.6954h.0214a3.11958,3.11958,0,0,0,.0988.6338h.84961a8.58752,8.58752,0,0,1-.05581-1.045v-1.9012c0-1.083-.65819-1.6582-1.956-1.6582a4.46912,4.46912,0,0,0-1.418.2596l.2022.7168a3.26351,3.26351,0,0,1,1.1534-.2422c.7196,0,1.03221.3282,1.03221.924Zm0,.6328v.3546a1.10787,1.10787,0,0,1-1.16221,1.2158.65979.65979,0,0,1-.7412-.7032c0-.7002.81741-.8672,1.7208-.8672Zm-47.16121-.6328c-1.51079,0-2.8184.2422-2.8184,1.542,0,1.0342.77161,1.3566,1.5518,1.3566a1.47148,1.47148,0,0,0,1.3594-.6954h.0166a3.99256,3.99256,0,0,0,.0908.6338h.8466a6.36108,6.36108,0,0,1-.0732-1.045v-1.9012c0-1.083-.6328-1.6582-1.9198-1.6582a4.27072,4.27072,0,0,0-1.416.2596l.18941.7168a3.24948,3.24948,0,0,1,1.14539-.2422c.7198,0,1.0274.3282,1.0274.924Zm0,.6328v.3546a1.099,1.099,0,0,1-1.1358,1.2158.67.67,0,0,1-.7666-.7032c0-.7002.8282-.8672,1.72761-.8672Zm50.1562-4.0126h-.9774v.9014h.9774Zm-.0156,1.711h-.9618v4.5058h.9618Zm-40.204-1.711h-.9922v.9014h.9922Zm-.0236,1.711h-.9686v4.5058h.9686Zm41.2588,0v4.5058h.966v-2.5078c0-.9922.5692-1.3624,1.10141-1.3624.72959,0,.92379.4796.92379,1.255v2.6152h.9718v-2.9824a1.50461,1.50461,0,0,0-1.628-1.622,1.54643,1.54643,0,0,0-1.3848.7264h-.0078v-.6278Zm4.9572,0v4.5058h.9774v-2.5528c0-.9472.4786-1.3174,1.0078-1.3174.7296,0,.8702.4532.8702,1.2032v2.667h.9658v-2.7558a.97909.97909,0,0,1,.9864-1.1144c.708,0,.8544.5108.8544,1.255v2.6152h.9844v-2.9824a1.47731,1.47731,0,0,0-1.61419-1.622,1.51987,1.51987,0,0,0-1.39661.7264h-.038a1.3139,1.3139,0,0,0-1.32139-.7264,1.40274,1.40274,0,0,0-1.30461.742h-.02539v-.6434Zm11.40221,2.5184v-.412c0-1.3408-.65721-2.205-1.92961-2.205a2.1256,2.1256,0,0,0-2.1406,2.3466,2.19112,2.19112,0,0,0,2.40821,2.3194,3.51508,3.51508,0,0,0,1.331-.2032l-.1298-.7158a3.1023,3.1023,0,0,1-1.1388.2032,1.40765,1.40765,0,0,1-1.537-1.3332Zm-3.13661-.7088a1.22479,1.22479,0,0,1,1.207-1.2178,1.058,1.058,0,0,1,1.0312,1.1942v.0236h-2.2382m3.87-1.8096v4.5058h.9464v-2.5078c0-.9922.5546-1.3624,1.1054-1.3624.76081,0,.9306.4796.9306,1.255v2.6152h.9766v-2.9824a1.65275,1.65275,0,0,0-3.0214-.8956h-.0206v-.6278Zm4.4278.7344h.7344v2.5282c0,.8262.18641,1.2734,1.203,1.2734.2686,0,.547-.0146.7452-.0302v-.7402a3.20183,3.20183,0,0,1-.4434.036c-.4434,0-.5186-.1064-.5186-.7206v-2.3466h.962v-.7344h-.962v-1.167h-.9862v1.167h-.7344Zm4.9766,3.7714h1.0234v-6.0792h-1.0234Zm-97.4814,0h.9814v-6.0792h-.9814Zm99.5038-4.5058v4.5058h.962v-2.5078c0-.9922.5576-1.3624,1.1014-1.3624.753,0,.9268.4796.9268,1.255v2.6152h.9786v-2.9824a1.6465,1.6465,0,0,0-3.0118-.8956h-.0244v-.6278Zm8.0372.0674a2.73742,2.73742,0,0,0-1.0264-.166,2.20638,2.20638,0,0,0-2.336,2.3466,2.15584,2.15584,0,0,0,2.3408,2.3194,2.28212,2.28212,0,0,0,1.0216-.1846l-.1564-.7002a1.59336,1.59336,0,0,1-.7988.169,1.61828,1.61828,0,0,1-.03219-3.216,1.9671,1.9671,0,0,1,.80559.1582Zm-82.7062,0a2.80963,2.80963,0,0,0-1.0342-.166,2.21156,2.21156,0,0,0-2.3476,2.3466,2.16175,2.16175,0,0,0,2.3476,2.3194,2.33265,2.33265,0,0,0,1.0342-.1846l-.1688-.7002a1.61253,1.61253,0,0,1-.8068.169,1.619,1.619,0,0,1-.01559-3.216,1.985,1.985,0,0,1,.797.1582Zm83.5166,4.4384h1.1094v-1.126h-1.1094Z"/><polygon class="cls-3" points="167.854 110.414 169.543 105.894 168.503 105.894 167.337 109.526 167.318 109.526 166.134 105.894 165.058 105.894 166.751 110.414 167.854 110.414"/><path class="cls-3" d="M217.65613,64.21687a6.43527,6.43527,0,1,0-6.43161,6.3428A6.3965,6.3965,0,0,0,217.65613,64.21687Zm-.85641,0a5.57936,5.57936,0,1,1-5.5752-5.6932A5.60018,5.60018,0,0,1,216.79972,64.21687Z"/><path class="cls-3" d="M160.20892,67.07047a3.85544,3.85544,0,0,1-1.1514-2.8456,4.13585,4.13585,0,0,1,1.1514-2.9874,4.73217,4.73217,0,0,1,6.1922,0,4.13648,4.13648,0,0,1,1.1358,2.9874,3.74583,3.74583,0,0,1-1.1358,2.8456,4.1667,4.1667,0,0,1-3.0986,1.292A4.24518,4.24518,0,0,1,160.20892,67.07047Zm8.9002.753a5.27874,5.27874,0,0,0,1.5314-3.5986,4.92253,4.92253,0,0,0-1.5314-3.6906,8.23911,8.23911,0,0,0-5.8066-1.9668,9.08021,9.08021,0,0,0-5.7812,1.962,4.92612,4.92612,0,0,0-1.5782,3.6954,4.99142,4.99142,0,0,0,1.5782,3.5986,8.81478,8.81478,0,0,0,5.7812,1.9716A8.7,8.7,0,0,0,169.10912,67.82347Z"/><path class="cls-3" d="M146.69312,58.57047a8.74764,8.74764,0,0,0-3.7558.7794,2.87947,2.87947,0,0,0-1.9688,2.625,2.75985,2.75985,0,0,0,.7344,1.8408,3.48256,3.48256,0,0,0,2.1406,1.0234,30.04873,30.04873,0,0,0,3.1202.5156c1.2422.1436,2.4892.2764,3.0048.4092.3654.1094,1.0498.2626,1.0498.9268a1.196,1.196,0,0,1-.828,1.12,5.50084,5.50084,0,0,1-2.49219.4892,9.672,9.672,0,0,1-2.961-.5702,3.87987,3.87987,0,0,1-1.7314-1.167,1.83162,1.83162,0,0,1-.3546-1.1142h-1.3592v3.9014h1.5106v-.5714c0-.0694.0674-.1768.3282-.169a15.94863,15.94863,0,0,0,2.2626.756,8.88139,8.88139,0,0,0,2.3126.3094,9.44233,9.44233,0,0,0,3.1064-.4608,9.21659,9.21659,0,0,0,1.875-.8516,2.75773,2.75773,0,0,0,.9874-2.0654,2.71879,2.71879,0,0,0-.797-2.0264,3.13391,3.13391,0,0,0-.997-.7334,7.15056,7.15056,0,0,0-1.2296-.4542,23.038,23.038,0,0,0-3.4296-.5234,25.97085,25.97085,0,0,1-3.06539-.3534.79722.79722,0,0,1-.57521-.755.94205.94205,0,0,1,.53121-.831,6.77956,6.77956,0,0,1,2.80959-.4824,8.96518,8.96518,0,0,1,3.2686.54,3.00191,3.00191,0,0,1,.7842.5,2.75841,2.75841,0,0,1,.7626,1.3144h1.247v-3.4452h-1.40021v.4278c0,.1376-.1202.3202-.381.1688A9.89906,9.89906,0,0,0,146.69312,58.57047Z"/><path class="cls-3" d="M176.99013,59.20127l6.73139,6.169.0234-4.1484c-.0204-.5674-.1172-.7628-.6982-.7628h-1.2754v-1.2578h5.7706v1.2578h-1.2394c-.5996,0-.6356.169-.6436.7628l.0236,7.914h-1.961l-7.7578-6.9424v4.9034c.0078.5732.02641.8388.586.8388h1.3622v1.2002h-5.6406v-1.2002h1.3096c.497,0,.4766-.5028.4766-.8652v-5.8096c0-.411-.0576-.8018-.8048-.8018h-1.0908v-1.2578Z"/><path class="cls-3" d="M194.04672,67.93567c.0468,0,.292-.0078.3496-.0186a.52433.52433,0,0,0,.2548-.2548,1.3211,1.3211,0,0,0,.0206-.2842v-1.961c0-.0468,0-.0624-.083-.1844-.086-.1202-3.5156-4.0656-3.667-4.2746a1.46731,1.46731,0,0,0-1.0752-.499h-1.1718v-1.2578h6.7372v1.2578h-.8232c-.1768,0-.3076.1534-.1358.3272,0,0,2.2686,2.8214,2.297,2.8448.0184.036.042.0438.0576.0048.0312-.0234,2.3358-2.8174,2.3544-2.8408.1064-.125.0254-.336-.203-.336h-.8594v-1.2578h5.5722v1.2578h-1.2548a1.11157,1.11157,0,0,0-.9766.4064c-.1592.1924-3.625,4.247-3.7314,4.3642a.2633.2633,0,0,0-.047.1874v1.961a1.47266,1.47266,0,0,0,.0284.2842.46119.46119,0,0,0,.2686.2548,3.37685,3.37685,0,0,0,.3436.0186h1.2706v1.2002h-6.714v-1.2002Z"/><path class="cls-3" d="M212.95292,67.76087c.0576-.0518.0498-.0518.0498-.0518a9.75065,9.75065,0,0,1-.2422-1.7812c-.1016-.6514-.31239-1.1718-1.14839-1.1718h-2.09081l.1064.1084v2.8524l.0782.044h-1.2002l.0722-.0518v-7.1512l-.0722-.0596h3.1406a3.50368,3.50368,0,0,1,.9786.122,2.06814,2.06814,0,0,1,.5526,3.7266,3.31346,3.31346,0,0,1-.5526.0312c1.0262,0,1.1562.6016,1.2558,1.8232a4.39251,4.39251,0,0,0,.3378,1.4736l.1358.086Zm-1.3174-6.2782h-2.1142l.1064.0908v2.3154l-.1064.086h2.09081a1.31755,1.31755,0,0,0,1.456-1.383C213.06813,61.97487,212.61213,61.48267,211.63552,61.48267Z"/><path class="cls-4" d="M196.55072,165.81567a17.5757,17.5757,0,0,1-35.1514,0v-3.4034a17.5757,17.5757,0,0,1,35.1514,0Z"/><path class="cls-2" d="M178.97452,184.13887a18.345,18.345,0,0,1-18.3252-18.3232v-3.4034a18.3257,18.3257,0,0,1,36.6514,0v3.4034A18.34529,18.34529,0,0,1,178.97452,184.13887Zm0-38.5498a16.84325,16.84325,0,0,0-16.8252,16.8232v3.4034a16.8257,16.8257,0,0,0,33.6514,0v-3.4034A16.84359,16.84359,0,0,0,178.97452,145.58907Z"/><path class="cls-2" d="M118.88072,182.96607h-18.708a2.98216,2.98216,0,0,1-2.9796-2.9766v-31.749a2.98237,2.98237,0,0,1,2.9796-2.9776h18.708a2.98134,2.98134,0,0,1,2.9784,2.9776v31.749A2.98113,2.98113,0,0,1,118.88072,182.96607Zm-18.708-36.2032a1.48066,1.48066,0,0,0-1.4796,1.4776v31.749a1.48058,1.48058,0,0,0,1.4796,1.4766h18.708a1.47955,1.47955,0,0,0,1.4784-1.4766v-31.749a1.47963,1.47963,0,0,0-1.4784-1.4776Z"/><path class="cls-2" d="M105.27532,154.52647h8.5018a1.6504,1.6504,0,0,1,1.6504,1.6504v1.7012a1.6514,1.6514,0,0,1-1.6514,1.6514h-8.5018a1.6494,1.6494,0,0,1-1.6494-1.6494v-1.7032A1.6504,1.6504,0,0,1,105.27532,154.52647Z"/><path class="cls-2" d="M113.77712,160.27947h-8.5028a2.40284,2.40284,0,0,1-2.3994-2.4014v-1.7012a2.40263,2.40263,0,0,1,2.3994-2.4004h8.5028a2.403,2.403,0,0,1,2.4004,2.4004v1.7012A2.40318,2.40318,0,0,1,113.77712,160.27947Zm-8.5028-5.003a.90042.90042,0,0,0-.8994.9004v1.7012a.90128.90128,0,0,0,.8994.9014h8.5028a.90148.90148,0,0,0,.9004-.9014v-1.7012a.90063.90063,0,0,0-.9004-.9004Z"/><path class="cls-2" d="M105.27532,168.69847h8.5018a1.6504,1.6504,0,0,1,1.6504,1.6504v1.701a1.6514,1.6514,0,0,1-1.6514,1.6514h-8.5018a1.6494,1.6494,0,0,1-1.6494-1.6494v-1.703A1.6504,1.6504,0,0,1,105.27532,168.69847Z"/><path class="cls-2" d="M113.77712,174.45127h-8.5028a2.40271,2.40271,0,0,1-2.3994-2.4014v-1.701a2.4025,2.4025,0,0,1,2.3994-2.4004h8.5028a2.40284,2.40284,0,0,1,2.4004,2.4004v1.701A2.40305,2.40305,0,0,1,113.77712,174.45127Zm-8.5028-5.0028a.90029.90029,0,0,0-.8994.9004v1.701a.90115.90115,0,0,0,.8994.9014h8.5028a.90135.90135,0,0,0,.9004-.9014v-1.701a.9005.9005,0,0,0-.9004-.9004Z"/><rect class="cls-5" x="104.62492" y="155.44067" width="9.8056" height="3.1738"/><path class="cls-2" d="M114.43052,159.36447h-9.8056a.74951.74951,0,0,1-.75-.75v-3.1738a.74938.74938,0,0,1,.75-.75h9.8056a.75015.75015,0,0,1,.75.75v3.1738A.75027.75027,0,0,1,114.43052,159.36447Zm-9.0556-1.5h8.3056v-1.6738h-8.3056Z"/><rect class="cls-5" x="104.62492" y="169.61247" width="9.8056" height="3.1738"/><path class="cls-2" d="M114.43052,173.53627h-9.8056a.74951.74951,0,0,1-.75-.75v-3.1738a.74951.74951,0,0,1,.75-.75h9.8056a.75027.75027,0,0,1,.75.75v3.1738A.75027.75027,0,0,1,114.43052,173.53627Zm-9.0556-1.5h8.3056v-1.6738h-8.3056Z"/><path class="cls-2" d="M141.55752,175.91907a11.8047,11.8047,0,1,1,11.80461-11.8046A11.8185,11.8185,0,0,1,141.55752,175.91907Zm0-22.1094a10.3047,10.3047,0,1,0,10.30461,10.3048A10.31581,10.31581,0,0,0,141.55752,153.80967Z"/><path class="cls-2" d="M141.55752,172.95027a8.8359,8.8359,0,1,1,8.8358-8.8358A8.84595,8.84595,0,0,1,141.55752,172.95027Zm0-16.1718a7.3359,7.3359,0,1,0,7.3358,7.336A7.34377,7.34377,0,0,0,141.55752,156.77847Z"/><path class="cls-2" d="M143.36013,160.42007a4.1109,4.1109,0,1,1-3.60441,0l-.4472-.917a5.13442,5.13442,0,1,0,4.499,0Z"/><rect class="cls-2" x="141.00572" y="157.56067" width="1.10641" height="6.3536"/><path class="cls-2" d="M231.98413,184.74047a20.6255,20.6255,0,1,1,20.626-20.626A20.65075,20.65075,0,0,1,231.98413,184.74047Zm0-40.251a19.6255,19.6255,0,1,0,19.626,19.625A19.64914,19.64914,0,0,0,231.98413,144.48947Z"/><path class="cls-6" d="M250.40892,164.11447a18.4252,18.4252,0,1,0-18.42479,18.4248,18.42642,18.42642,0,0,0,18.42479-18.4248Z"/><path class="cls-2" d="M231.98413,183.28927a19.1758,19.1758,0,1,1,19.17479-19.1748A19.197,19.197,0,0,1,231.98413,183.28927Zm0-36.8516a17.6758,17.6758,0,1,0,17.67479,17.6768A17.69634,17.69634,0,0,0,231.98413,146.43767Z"/><path class="cls-2" d="M231.98413,171.49047a7.3765,7.3765,0,1,1,7.376-7.376A7.3859,7.3859,0,0,1,231.98413,171.49047Zm0-13.253a5.8765,5.8765,0,1,0,5.876,5.877A5.88441,5.88441,0,0,0,231.98413,158.23747Z"/><path class="cls-2" d="M231.98413,166.54507a2.4311,2.4311,0,1,1,2.43079-2.4306A2.435,2.435,0,0,1,231.98413,166.54507Zm0-3.3622a.9311.9311,0,1,0,.93079.9316A.93354.93354,0,0,0,231.98413,163.18287Z"/><polygon class="cls-7" points="99.375 107.443 99.102 107.011 98.857 106.528 98.642 105.995 98.462 105.414 98.323 104.786 98.323 54.497 98.462 53.87 98.642 53.287 98.857 52.756 99.102 52.272 99.375 51.839 99.605 51.534 99.605 107.748 99.375 107.443"/><polygon class="cls-7" points="107.774 107.443 108.047 107.011 108.293 106.528 108.509 105.995 108.688 105.414 108.828 104.786 108.828 54.497 108.688 53.87 108.509 53.287 108.293 52.756 108.047 52.272 107.774 51.839 107.543 51.534 107.543 107.748 107.774 107.443"/><polygon class="cls-3" points="104.426 109.372 104.781 109.355 105.134 109.3 105.487 109.209 105.837 109.081 106.181 108.914 106.521 108.708 106.852 108.459 107.175 108.167 107.484 107.828 107.543 107.748 107.543 51.534 107.484 51.453 107.175 51.115 106.852 50.825 106.521 50.575 106.181 50.367 105.837 50.201 105.487 50.075 105.134 49.983 104.781 49.93 104.426 49.911 102.725 49.911 102.368 49.93 102.016 49.983 101.662 50.075 101.313 50.201 100.969 50.367 100.629 50.575 100.297 50.825 99.975 51.115 99.667 51.453 99.605 51.534 99.605 107.748 99.667 107.828 99.975 108.167 100.297 108.459 100.629 108.708 100.969 108.914 101.313 109.081 101.662 109.209 102.016 109.3 102.368 109.355 102.725 109.372 104.426 109.372"/><path class="cls-2" d="M104.42572,110.12227h-1.7012l-.0362-.001-.3564-.0176a.668.668,0,0,1-.0782-.0078l-.3534-.0546c-.0246-.004-.048-.0088-.0714-.0148l-.3534-.0908a.595.595,0,0,1-.0724-.0224l-.3486-.128c-.0234-.0088-.0458-.0186-.06839-.0292l-.34461-.167c-.0216-.0108-.043-.0216-.0636-.0342l-.3388-.206c-.0196-.0128-.04-.0254-.0586-.0402l-.333-.248c-.0196-.0146-.0372-.0302-.0556-.0458l-.3214-.292c-.0176-.0166-.0352-.0332-.0518-.0518l-.3076-.3388c-.0136-.0158-.0272-.0314-.04-.049l-.0616-.079a.7532.7532,0,0,1-.1542-.456v-56.214a.75051.75051,0,0,1,.1504-.4502l.0606-.081c.0146-.0196.0302-.038.04581-.0556l.30859-.337a.62091.62091,0,0,1,.0508-.0518l.3222-.29c.0166-.0156.0342-.0302.0518-.0438l.333-.25a.62263.62263,0,0,1,.0586-.0392l.3388-.208c.0226-.0136.045-.0254.0684-.037l.3448-.1652c.0224-.0106.0448-.0204.0684-.0292l.34861-.126c.02139-.0078.044-.0146.06639-.0204l.3534-.0928a.62069.62069,0,0,1,.0772-.0156l.3536-.0538c.02341-.003.0478-.0058.0722-.0068l.3564-.0186c.01281-.001.0254-.001.0392-.001h1.7012c.0136,0,.0262,0,.04.001l.35441.0186c.02439.001.04779.0038.07219.0068l.3536.0538a.65979.65979,0,0,1,.0772.0156l.3534.0928a.49475.49475,0,0,1,.06561.0194l.34959.127c.02441.0088.0478.0186.0712.0292l.3438.166c.02141.0108.044.0226.0644.0352l.3408.208a.64458.64458,0,0,1,.0616.042l.331.25c.01761.0128.0342.0274.0508.042l.3222.29c.01661.0158.0342.0324.0498.0498l.3096.338a.82184.82184,0,0,1,.0528.0644l.0586.081a.74339.74339,0,0,1,.1444.4424v56.214a.74791.74791,0,0,1-.1484.4482l-.0596.08c-.01459.0196-.0302.0392-.0468.0576l-.3096.339c-.0156.0166-.03219.0342-.0498.0498l-.3222.292c-.0166.0156-.0352.0302-.0538.0448l-.331.2482c-.0206.0146-.04.0282-.0616.042l-.3408.206c-.0194.0116-.04.0224-.0604.0322l-.3438.168c-.0226.0106-.046.0204-.0704.0292l-.3496.128a.64942.64942,0,0,1-.0712.0224l-.35359.0908c-.02341.006-.04781.0108-.07121.0148l-.3536.0546a.69131.69131,0,0,1-.078.0078l-.3546.0176Zm-1.68359-1.5h1.666l.29679-.0146.2784-.043.2812-.0724.2782-.1024.27941-.1348.27919-.17.2736-.205.2694-.2442.1484-.164V51.80967l-.1474-.161-.2704-.2452-.2754-.208-.27739-.169-.27641-.1328-.2812-.1016-.2812-.0732-.2784-.042-.29879-.0156h-1.66221l-.29979.0156-.27821.042-.2804.0732-.2812.1016-.2774.1328-.2754.169-.2772.209-.2706.2432-.1484.163v55.6602l.1504.165.2686.2442.2754.205.2772.17.2804.1348.2782.1024.2804.0724.27821.043Z"/><path class="cls-2" d="M104.42572,110.12227h-1.7012l-.0362-.001-.3564-.0176a.668.668,0,0,1-.0782-.0078l-.3534-.0546c-.0246-.004-.048-.0088-.0714-.0148l-.3534-.0908a.595.595,0,0,1-.0724-.0224l-.3486-.128c-.0234-.0088-.0458-.0186-.06839-.0292l-.34461-.167c-.0216-.0108-.043-.0216-.0636-.0342l-.3388-.206c-.0196-.0128-.04-.0254-.0586-.0402l-.333-.248c-.0196-.0146-.0372-.0302-.0556-.0458l-.3214-.292c-.0176-.0166-.0352-.0332-.0518-.0518l-.3076-.3388c-.0146-.0158-.0282-.0332-.042-.0498l-.292-.3848c-.0136-.0176-.0264-.0362-.038-.0548l-.2716-.4326a.676.676,0,0,1-.034-.0596l-.2452-.4834a.57773.57773,0,0,1-.0264-.0576l-.21579-.5332a.578.578,0,0,1-.02041-.0596l-.1798-.581c-.0068-.0194-.01179-.04-.0166-.0596l-.1386-.6278a.75853.75853,0,0,1-.0176-.1622v-50.289a.76083.76083,0,0,1,.0176-.1632l.1386-.626c.00481-.0204.0098-.04.0156-.0584l.1798-.5832c.0068-.0204.0136-.041.0224-.0614l.2148-.5312c.0078-.0186.0166-.0382.0264-.0568l.2452-.4842a.676.676,0,0,1,.034-.0596l.2716-.4336c.0116-.0176.0244-.0362.037-.0538l.292-.3858.044-.0526.30859-.337a.62091.62091,0,0,1,.0508-.0518l.3222-.29c.0166-.0156.0342-.0302.0518-.0438l.333-.25a.62263.62263,0,0,1,.0586-.0392l.3388-.208c.0226-.0136.045-.0254.0684-.037l.3448-.1652c.0224-.0106.0448-.0204.0684-.0292l.34861-.126c.02139-.0078.044-.0146.06639-.0204l.3534-.0928a.62069.62069,0,0,1,.0772-.0156l.3536-.0538c.02341-.003.0478-.0058.0722-.0068l.3564-.0186c.01281-.001.0254-.001.0392-.001h1.7012c.0136,0,.0262,0,.04.001l.35441.0186c.02439.001.04779.0038.07219.0068l.3536.0538a.65979.65979,0,0,1,.0772.0156l.3534.0928a.49475.49475,0,0,1,.06561.0194l.34959.127c.02441.0088.0478.0186.0712.0292l.3438.166c.02141.0108.044.0226.0644.0352l.3408.208a.64458.64458,0,0,1,.0616.042l.331.25c.01761.0128.0342.0274.0508.042l.3222.29c.01661.0158.0342.0324.0498.0498l.3096.338c.0156.0176.03121.0362.046.0556l.291.3858c.0126.0166.0244.0342.036.0518l.2716.4336c.0116.0184.0224.038.0332.0576l.247.4844c.0098.0194.0186.039.02641.0586l.21579.5312c.0078.0204.0156.041.0216.0614l.1796.5832c.0058.0184.0108.038.0156.0584l.1386.626a.70278.70278,0,0,1,.0186.1632v50.289a.70049.70049,0,0,1-.0186.1622l-.1386.6278c-.0048.0196-.0098.0402-.0156.0596l-.1796.581c-.007.0206-.0138.0402-.0216.0596l-.21579.5332a.62159.62159,0,0,1-.02741.0596l-.247.4834c-.0098.0196-.0206.0382-.0322.0576l-.2716.4326c-.0116.0186-.0244.0362-.037.0528l-.291.3848c-.01379.0186-.0284.036-.044.0536l-.3096.339c-.0156.0166-.03219.0342-.0498.0498l-.3222.292c-.0166.0156-.0352.0302-.0538.0448l-.331.2482c-.0206.0146-.04.0282-.0616.042l-.3408.206c-.0194.0116-.04.0224-.0604.0322l-.3438.168c-.0226.0106-.046.0204-.0704.0292l-.3496.128a.64942.64942,0,0,1-.0712.0224l-.35359.0908c-.02341.006-.04781.0108-.07121.0148l-.3536.0546a.69131.69131,0,0,1-.078.0078l-.3546.0176Zm-1.68359-1.5h1.666l.29679-.0146.2784-.043.2812-.0724.2782-.1024.27941-.1348.27919-.17.2736-.205.2694-.2442.26181-.288.251-.3302.2362-.3778.21681-.4238.19139-.4728.1612-.5214.1152-.5176v-50.125l-.1152-.5166-.1612-.5234-.19139-.4708-.21681-.4258-.23719-.3778-.25-.332-.26081-.2842-.2704-.2452-.2754-.208-.27739-.169-.27641-.1328-.2812-.1016-.2812-.0732-.2784-.042-.29879-.0156h-1.66221l-.29979.0156-.27821.042-.2804.0732-.2812.1016-.2774.1328-.2754.169-.2772.209-.2706.2432-.2598.2852-.25179.333-.23641.3758-.2148.4258-.1924.4718-.1612.5234-.1142.5166v50.125l.1142.5176.1612.5214.1924.4736.2148.424.23641.3758.25179.3312.2618.288.2686.2442.2754.205.2772.17.2804.1348.2782.1024.2804.0724.27821.043Z"/><polygon class="cls-7" points="258.574 107.443 258.845 107.011 259.092 106.528 259.308 105.995 259.487 105.414 259.626 104.786 259.626 54.497 259.487 53.87 259.308 53.287 259.092 52.756 258.845 52.272 258.574 51.839 258.344 51.534 258.344 107.748 258.574 107.443"/><polygon class="cls-7" points="250.173 107.443 249.902 107.011 249.656 106.528 249.44 105.995 249.261 105.414 249.121 104.786 249.121 54.497 249.261 53.87 249.44 53.287 249.656 52.756 249.902 52.272 250.173 51.839 250.406 51.534 250.406 107.748 250.173 107.443"/><polygon class="cls-3" points="253.523 109.372 253.168 109.355 252.813 109.3 252.462 109.209 252.112 109.081 251.767 108.914 251.428 108.708 251.095 108.459 250.774 108.167 250.465 107.828 250.406 107.748 250.406 51.534 250.465 51.453 250.774 51.115 251.095 50.825 251.428 50.575 251.767 50.367 252.112 50.201 252.462 50.075 252.813 49.983 253.168 49.93 253.523 49.911 255.225 49.911 255.579 49.93 255.934 49.983 256.285 50.075 256.636 50.201 256.98 50.367 257.32 50.575 257.652 50.825 257.973 51.115 258.282 51.453 258.344 51.534 258.344 107.748 258.282 107.828 257.973 108.167 257.652 108.459 257.32 108.708 256.98 108.914 256.636 109.081 256.285 109.209 255.934 109.3 255.579 109.355 255.225 109.372 253.523 109.372"/><path class="cls-2" d="M255.22452,110.12227h-1.7012l-.03719-.001-.35441-.0176a.69019.69019,0,0,1-.0782-.0078l-.3544-.0546c-.0244-.004-.0488-.0088-.0724-.0148l-.3514-.0908a.58.58,0,0,1-.0714-.0224l-.3496-.128c-.0234-.0088-.0468-.0186-.0694-.0292l-.3456-.167c-.0216-.0108-.042-.0216-.0626-.0342l-.3388-.206a.60588.60588,0,0,1-.0586-.0402l-.333-.248a.639.639,0,0,1-.0566-.0468l-.3204-.293a.55185.55185,0,0,1-.0488-.0478l-.3096-.339c-.0166-.0184-.0322-.038-.0478-.0576l-.0586-.08a.74922.74922,0,0,1-.14839-.4482v-56.214a.74223.74223,0,0,1,.14459-.4424l.0584-.081a.82184.82184,0,0,1,.0528-.0644l.3096-.338c.0156-.0166.0322-.0332.0488-.0488l.3204-.29c.0176-.0156.035-.0302.0536-.0448l.333-.25a.62263.62263,0,0,1,.0586-.0392l.339-.208a.70127.70127,0,0,1,.0674-.037l.3456-.1652c.0224-.0106.046-.0204.0694-.0292l.3496-.127c.0214-.0078.043-.0136.0644-.0194l.3516-.0928a.69764.69764,0,0,1,.079-.0156l.3556-.0538c.0234-.003.0468-.0058.0712-.0068l.3546-.0186c.0136-.001.0262-.001.04-.001h1.7012c.01361,0,.0262,0,.04.001l.3544.0186c.0234.001.048.0038.0714.0068l.3544.0538a.69236.69236,0,0,1,.0792.0156l.3516.0928c.0224.0058.0438.0116.0654.0194l.3496.127c.0234.0088.0468.0186.0692.0292l.3448.1652c.0234.0116.046.0234.0684.037l.3388.208a.5977.5977,0,0,1,.0586.0392l.333.25c.0186.0146.0362.0292.05281.0448l.32019.29a.59425.59425,0,0,1,.049.0488l.3094.338c.0166.0176.0324.037.048.0566l.0604.081a.74913.74913,0,0,1,.1504.4502v56.214a.7532.7532,0,0,1-.1542.456l-.0616.079a.49151.49151,0,0,1-.042.0508l-.3086.339c-.0156.0166-.0322.0332-.0488.0478l-.32019.293c-.01861.0166-.03721.0322-.05681.0468l-.333.248c-.0184.0148-.039.0274-.0586.0402l-.3388.206c-.0204.0126-.042.0234-.0634.0342l-.3448.167c-.0234.0106-.0458.0204-.0694.0292l-.3506.128a.52279.52279,0,0,1-.0702.0224l-.3516.0908c-.0234.006-.0478.0108-.0732.0148l-.3546.0546a.66458.66458,0,0,1-.078.0078l-.3546.0176Zm-1.6836-1.5h1.666l.2968-.0146.2794-.043.2792-.0724.2802-.1024.2794-.1348.2774-.17.2754-.205.2676-.2442.1512-.165V51.81167l-.1504-.164-.2684-.2442-.2774-.208-.2754-.169-.2774-.1328-.2822-.1016-.2792-.0732-.2794-.042-.2988-.0156h-1.6622l-.2988.0156-.2792.042-.2794.0732-.28319.1016-.27641.1328-.2762.169-.2764.208-.2696.2442-.14739.162v55.6622l.14939.164.2676.2442.2744.205.2782.17.2794.1348.2802.1024.2794.0724.2792.043Z"/><path class="cls-2" d="M255.22452,110.12227h-1.7012l-.03719-.001-.35441-.0176a.69019.69019,0,0,1-.0782-.0078l-.3544-.0546c-.0244-.004-.0488-.0088-.0724-.0148l-.3514-.0908a.58.58,0,0,1-.0714-.0224l-.3496-.128c-.0234-.0088-.0468-.0186-.0694-.0292l-.3456-.167c-.0216-.0108-.042-.0216-.0626-.0342l-.3388-.206a.60588.60588,0,0,1-.0586-.0402l-.333-.248a.639.639,0,0,1-.0566-.0468l-.3204-.293a.55185.55185,0,0,1-.0488-.0478l-.3096-.339c-.0146-.0176-.0292-.0342-.043-.0516l-.292-.3848c-.0136-.0186-.0272-.0372-.039-.0566l-.2704-.4328c-.0118-.0184-.0216-.037-.0314-.0556l-.247-.4834a.61674.61674,0,0,1-.02741-.0596l-.2158-.5332c-.0078-.0194-.0146-.039-.0214-.0596l-.1798-.581c-.0058-.0194-.0106-.04-.01559-.0596l-.13861-.6278a.701.701,0,0,1-.0186-.1622v-50.289a.70332.70332,0,0,1,.0186-.1632l.13861-.626c.005-.0204.00979-.04.01559-.0584l.1798-.5832c.0058-.0204.0136-.041.0214-.0614l.2158-.5312c.0078-.0196.0166-.0392.0264-.0586l.247-.4844c.00979-.0186.02059-.0382.03239-.0566l.2704-.4328c.0118-.0184.0244-.037.0382-.0556l.292-.3858c.0146-.0184.0292-.036.0448-.0536l.3096-.338c.0156-.0166.0322-.0332.0488-.0488l.3204-.29c.0176-.0156.035-.0302.0536-.0448l.333-.25a.62263.62263,0,0,1,.0586-.0392l.339-.208a.70127.70127,0,0,1,.0674-.037l.3456-.1652c.0224-.0106.046-.0204.0694-.0292l.3496-.127c.0214-.0078.043-.0136.0644-.0194l.3516-.0928a.69764.69764,0,0,1,.079-.0156l.3556-.0538c.0234-.003.0468-.0058.0712-.0068l.3546-.0186c.0136-.001.0262-.001.04-.001h1.7012c.01361,0,.0262,0,.04.001l.3544.0186c.0234.001.048.0038.0714.0068l.3544.0538a.69236.69236,0,0,1,.0792.0156l.3516.0928c.0224.0058.0438.0116.0654.0194l.3496.127c.0234.0088.0468.0186.0692.0292l.3448.1652c.0234.0116.046.0234.0684.037l.3388.208a.5977.5977,0,0,1,.0586.0392l.333.25c.0186.0146.0362.0292.05281.0448l.32019.29a.59425.59425,0,0,1,.049.0488l.3094.338c.0166.0176.03141.0352.046.0536l.292.3858c.0136.0186.0264.0372.038.0556l.2706.4328c.01081.0184.0214.038.0312.0566l.247.4844c.0098.0194.01861.039.0274.0586l.2148.5312c.0088.0204.0156.041.0226.0614l.1796.5832c.0058.0184.0108.038.0156.0584l.1388.626a.77353.77353,0,0,1,.0174.1632v50.289a.77123.77123,0,0,1-.0174.1622l-.1388.6278c-.0048.0196-.0098.0402-.0166.0596l-.1796.581c-.006.0206-.0128.0402-.0206.0596l-.2158.5332a.61909.61909,0,0,1-.0274.0596l-.247.4834c-.0098.0186-.02039.0372-.0312.0556l-.2706.4328c-.01259.0194-.0254.038-.039.0566l-.292.3848c-.01359.0174-.0284.034-.044.0516l-.3086.339c-.0156.0166-.0322.0332-.0488.0478l-.32019.293c-.01861.0166-.03721.0322-.05681.0468l-.333.248c-.0184.0148-.039.0274-.0586.0402l-.3388.206c-.0204.0126-.042.0234-.0634.0342l-.3448.167c-.0234.0106-.0458.0204-.0694.0292l-.3506.128a.52279.52279,0,0,1-.0702.0224l-.3516.0908c-.0234.006-.0478.0108-.0732.0148l-.3546.0546a.66458.66458,0,0,1-.078.0078l-.3546.0176Zm-1.6836-1.5h1.666l.2968-.0146.2794-.043.2792-.0724.2802-.1024.2794-.1348.2774-.17.2754-.205.2676-.2442.2636-.288.251-.3302.2344-.3768.2176-.4248.1916-.4728.161-.5214.1142-.5176v-50.125l-.1142-.5166-.161-.5234-.1916-.4708-.2176-.4268-.2354-.3768-.25-.3312-.2628-.286-.2684-.2442-.2774-.208-.2754-.169-.2774-.1328-.2822-.1016-.2792-.0732-.2794-.042-.2988-.0156h-1.6622l-.2988.0156-.2792.042-.2794.0732-.28319.1016-.27641.1328-.2762.169-.2764.208-.2696.2442-.2616.286-.251.3312-.2344.3768-.2178.4268-.1914.4708-.16119.5234-.11521.5166v50.125l.11521.5176.16119.5214.1914.4728.2168.4248.2354.3768.251.3302.2636.288.2676.2442.2744.205.2782.17.2794.1348.2802.1024.2794.0724.2792.043Z"/><path class="cls-7" d="M263.44813,192.32627H94.50272a6.67668,6.67668,0,0,1-6.6688-6.6698V16.71107a6.6748,6.6748,0,0,1,6.6688-6.667H263.44813a6.67565,6.67565,0,0,1,6.66979,6.667v168.9454A6.67753,6.67753,0,0,1,263.44813,192.32627ZM94.50272,12.04407a4.67279,4.67279,0,0,0-4.6688,4.667v168.9454a4.67454,4.67454,0,0,0,4.6688,4.6698H263.44813a4.67475,4.67475,0,0,0,4.66979-4.6698V16.71107a4.673,4.673,0,0,0-4.66979-4.667Z"/><circle class="cls-8" cx="255.17733" cy="78.65562" r="5.2"/><rect class="cls-8" x="254.67733" y="77.65562" width="81.69336" height="2"/><circle class="cls-8" cx="248.17733" cy="164.65562" r="5.2"/><rect class="cls-8" x="247.67733" y="163.65562" width="88.69336" height="2"/><circle class="cls-8" cx="179.83664" cy="173.65562" r="5.2"/><polygon class="cls-8" points="336.371 219.656 178.677 219.656 178.677 173.156 180.677 173.156 180.677 217.656 336.371 217.656 336.371 219.656"/><circle class="cls-8" cx="141.70515" cy="173.65562" r="5.2"/><polygon class="cls-8" points="142.677 219.656 30.452 219.656 30.452 217.656 140.677 217.656 140.677 173.156 142.677 173.156 142.677 219.656"/><circle class="cls-8" cx="103.17733" cy="78.65562" r="5.2"/><rect class="cls-8" x="30.45174" y="77.65562" width="73.22559" height="2"/><path class="cls-9" d="M353.47078,220.41783c0-1.78271-1.74609-2.251-3.38476-2.251a22.07027,22.07027,0,0,0-2.59278.19825l.41407-7.5083h7.74218v2.26855h-5.23925l-.21582,2.917a10.00026,10.00026,0,0,1,1.16992-.0542c2.665,0,4.915,1.5127,4.915,4.28565,0,3.11474-2.39454,4.645-5.25684,4.645a10.66468,10.66468,0,0,1-4.25-.84619l.68457-2.16065a8.17144,8.17144,0,0,0,3.27734.73828C352.15633,222.65025,353.47078,222.09215,353.47078,220.41783Z"/><path class="cls-9" d="M355.72176,157.8568v8.67871h1.51269v2.26855h-1.51269v2.88086h-2.82715v-2.88086H346.503v-2.73681l5.293-8.21045Zm-2.82715,8.67871v-6.14014h-.03613l-3.78125,6.14014Z"/><path class="cls-9" d="M356.11824,84.41637v2.26855h-9.27343V84.38023c4.916-4.32129,6.26562-5.88769,6.26562-7.5625a1.93375,1.93375,0,0,0-2.14258-1.92627,6.06389,6.06389,0,0,0-3.16894,1.062l-.88184-2.01661a7.7934,7.7934,0,0,1,4.26758-1.314c2.84473,0,4.75293,1.4585,4.75293,4.14111,0,2.4668-1.54785,4.15918-5.58106,7.65235Z"/><path class="cls-9" d="M16.2369,72.8568V86.68492H13.41072V75.52184L10.818,77.05211l-.99023-2.10645L13.356,72.8568Z"/><path class="cls-9" d="M11.97029,218.76109v-2.26855H13.482c1.6211,0,2.97071-.4502,2.97071-1.89063,0-1.15234-.89942-1.71045-2.19629-1.71045a6.76876,6.76876,0,0,0-3.06055.75635l-.70215-2.19678a9.84854,9.84854,0,0,1,4.06934-.82812c2.52051,0,4.71679,1.08008,4.71679,3.63672a3.17313,3.17313,0,0,1-2.377,3.20508v.03613a3.20635,3.20635,0,0,1,2.70117,3.22314c0,2.91651-2.3584,4.19483-5.25781,4.19483a9.82428,9.82428,0,0,1-4.21289-.918l.666-2.14258a8.17247,8.17247,0,0,0,3.42089.792c1.49512,0,2.5752-.63037,2.5752-1.99853,0-1.5127-1.585-1.89063-3.34961-1.89063Z"/><rect class="cls-10" width="367.43619" height="235.43905"/></g></g></svg>