<svg xmlns="http://www.w3.org/2000/svg" viewBox="0 0 133.787 133.785"><defs><clipPath clipPathUnits="userSpaceOnUse" id="a"><path d="M0 0h100.34v100.339H0z"/></clipPath><clipPath clipPathUnits="userSpaceOnUse" id="b"><path d="M39.071 97.637c-20.005 0-36.369-16.366-36.369-36.369V39.072c0-20.005 16.364-36.37 36.369-36.37h22.197c20.005 0 36.371 16.365 36.371 36.37v22.196c0 20.003-16.366 36.369-36.371 36.369z"/></clipPath><clipPath clipPathUnits="userSpaceOnUse" id="c"><path d="M63.81 51.17h8.703v-8.833H63.81z"/></clipPath><clipPath clipPathUnits="userSpaceOnUse" id="d"><path d="M63.809 42.338h8.704v8.833h-8.704z"/></clipPath><clipPath clipPathUnits="userSpaceOnUse" id="e"><path d="M-70.195 64.052h81.863v-50.55h-81.863z"/></clipPath><clipPath clipPathUnits="userSpaceOnUse" id="f"><path d="M-70.195 13.502h81.863v50.55h-81.863z"/></clipPath><clipPath clipPathUnits="userSpaceOnUse" id="g"><path d="M7.872 63.99H92.27V12.651H7.872z"/></clipPath><clipPath clipPathUnits="userSpaceOnUse" id="h"><path d="M7.872 12.652h84.397v51.336H7.872z"/></clipPath><clipPath clipPathUnits="userSpaceOnUse" id="i"><path d="M80.699 106.139h80.97V60.637h-80.97z"/></clipPath><clipPath clipPathUnits="userSpaceOnUse" id="j"><path d="M80.699 60.637h80.971v45.501H80.699z"/></clipPath><clipPath clipPathUnits="userSpaceOnUse" id="k"><path d="M5.307 105.593h78.676V60.705H5.307z"/></clipPath><clipPath clipPathUnits="userSpaceOnUse" id="l"><path d="M5.307 60.705h78.676v44.888H5.307z"/></clipPath><clipPath clipPathUnits="userSpaceOnUse" id="m"><path d="M10.758 16.448h91.061v-59.423H10.758z"/></clipPath><clipPath clipPathUnits="userSpaceOnUse" id="n"><path d="M10.758-42.975h91.061v59.423H10.758z"/></clipPath><clipPath clipPathUnits="userSpaceOnUse" id="o"><path d="M89.498 64.946h87.057V12.792H89.498z"/></clipPath><clipPath clipPathUnits="userSpaceOnUse" id="p"><path d="M89.498 12.792h87.058v52.154H89.498z"/></clipPath><clipPath clipPathUnits="userSpaceOnUse" id="q"><path d="M63.81 51.17h8.703v-8.833H63.81z"/></clipPath><clipPath clipPathUnits="userSpaceOnUse" id="r"><path d="M63.809 42.338h8.704v8.833h-8.704z"/></clipPath><clipPath clipPathUnits="userSpaceOnUse" id="s"><path d="M0 0h100.34v100.339H0z"/></clipPath></defs><g clip-path="url(#a)" transform="matrix(1.33333 0 0 -1.33333 0 133.785)"><path d="M97.64 39.071c0-20.004-16.368-36.369-36.373-36.369H39.071c-20.003 0-36.37 16.365-36.37 36.37v22.194c0 20.004 16.367 36.371 36.37 36.371h22.196c20.005 0 36.372-16.367 36.372-36.37z" fill="#fff"/></g><g clip-path="url(#b)" transform="matrix(1.33333 0 0 -1.33333 0 133.785)"><g clip-path="url(#c)"><g clip-path="url(#d)" opacity=".5"><path d="M71.471 46.07c-.77 1.946-2.104 4.06-2.104 4.06-1.52-.19-3.458-1.584-4.185-3.037-.664-1.328-.4-3.453 1.433-3.7 1.835-.247 4.856 2.676 4.856 2.676" fill="#36b868"/><path d="M71.471 46.07c-.77 1.946-2.104 4.06-2.104 4.06-1.52-.19-3.458-1.584-4.185-3.037-.664-1.328-.4-3.453 1.433-3.7 1.835-.247 4.856 2.676 4.856 2.676z" fill="none" stroke="#36b868" stroke-width="2.083" stroke-linecap="round" stroke-linejoin="round" stroke-miterlimit="10"/></g></g><g clip-path="url(#e)"><g clip-path="url(#f)" opacity=".15"><path d="M10.026 39.435l-39.406-24.29-39.173 24.709 38.8 22.556z" fill="#36b868"/><path d="M10.026 39.435l-39.406-24.29-39.173 24.709 38.8 22.556z" fill="none" stroke="#fff" stroke-width="3.284" stroke-linecap="round" stroke-linejoin="round" stroke-miterlimit="10"/></g></g><path d="M47.205 62.347L10.026 39.435-29.752 62.41 6.95 83.743z" fill="#fff"/><path d="M47.205 62.347L10.026 39.435-29.752 62.41 6.95 83.743z" fill="none" stroke="#fff" stroke-width="3.284" stroke-linecap="round" stroke-linejoin="round" stroke-miterlimit="10"/><path d="M82.341 83.999L47.205 62.347 6.95 83.744l34.765 20.207z" fill="#fff"/><path d="M82.341 83.999L47.205 62.347 6.95 83.744l34.765 20.207z" fill="none" stroke="#fff" stroke-width="3.284" stroke-linecap="round" stroke-linejoin="round" stroke-miterlimit="10"/><path d="M115.595 104.496L82.341 83.998 41.714 103.95l32.976 19.172z" fill="#fff"/><path d="M115.595 104.496L82.341 83.998 41.714 103.95l32.976 19.172z" fill="none" stroke="#fff" stroke-width="3.284" stroke-linecap="round" stroke-linejoin="round" stroke-miterlimit="10"/><path d="M53.548 14.295L13.595-11.966l-42.976 27.11 39.407 24.29z" fill="#fff"/><path d="M53.548 14.295L13.595-11.966l-42.976 27.11 39.407 24.29z" fill="none" stroke="#fff" stroke-width="3.284" stroke-linecap="round" stroke-linejoin="round" stroke-miterlimit="10"/><path d="M91.14 38.998L53.547 14.295l-43.522 25.14 37.178 22.912z" fill="#fff"/><path d="M91.14 38.998L53.547 14.295l-43.522 25.14 37.178 22.912z" fill="none" stroke="#fff" stroke-width="3.284" stroke-linecap="round" stroke-linejoin="round" stroke-miterlimit="10"/><g clip-path="url(#g)"><g clip-path="url(#h)" opacity=".75"><path d="M90.626 38.998l-37.59-24.703-43.522 25.14 37.178 22.912z" fill="#36b868"/><path d="M90.626 38.998l-37.59-24.703-43.522 25.14 37.178 22.912z" fill="none" stroke="#fff" stroke-width="3.284" stroke-linecap="round" stroke-linejoin="round" stroke-miterlimit="10"/></g></g><g clip-path="url(#i)"><g clip-path="url(#j)" opacity=".15"><path d="M160.027 84.27l-33.454-21.992-44.232 21.72 33.254 20.498z" fill="#36b868"/><path d="M160.027 84.27l-33.454-21.992-44.232 21.72 33.254 20.498z" fill="none" stroke="#fff" stroke-width="3.284" stroke-linecap="round" stroke-linejoin="round" stroke-miterlimit="10"/></g></g><path d="M101.372-13.33L60.96-41.845 13.596-11.966l39.952 26.26z" fill="#fff"/><path d="M101.372-13.33L60.96-41.845 13.596-11.966l39.952 26.26z" fill="none" stroke="#fff" stroke-width="3.284" stroke-linecap="round" stroke-linejoin="round" stroke-miterlimit="10"/><g clip-path="url(#k)"><g clip-path="url(#l)" opacity=".2"><path d="M82.341 83.999L47.205 62.347 6.95 83.744l34.765 20.207z" fill="#36b868"/><path d="M82.341 83.999L47.205 62.347 6.95 83.744l34.765 20.207z" fill="none" stroke="#fff" stroke-width="3.284" stroke-linecap="round" stroke-linejoin="round" stroke-miterlimit="10"/></g></g><g clip-path="url(#m)"><g clip-path="url(#n)" opacity=".35"><path d="M100.176-12.817L59.764-41.333 12.4-11.453l39.952 26.26z" fill="#36b868"/><path d="M100.176-12.817L59.764-41.333 12.4-11.453l39.952 26.26z" fill="none" stroke="#fff" stroke-width="3.284" stroke-linecap="round" stroke-linejoin="round" stroke-miterlimit="10"/></g></g><g clip-path="url(#o)"><g clip-path="url(#p)" opacity=".15"><path d="M174.913 39.571L139.28 14.433 91.14 40.021l35.432 23.283z" fill="#36b868"/><path d="M174.913 39.571L139.28 14.433 91.14 40.021l35.432 23.283z" fill="none" stroke="#fff" stroke-width="3.284" stroke-linecap="round" stroke-linejoin="round" stroke-miterlimit="10"/></g></g><path d="M59.463 57.734l11.147 9.88a7.854 7.854 0 002.247 1.396l17.69 7.204-1.726 11.538-22.553-8L51.13 61.608z" fill="#fff"/><path d="M59.463 57.734l11.147 9.88a7.854 7.854 0 002.247 1.396l17.69 7.204-1.726 11.538-22.553-8L51.13 61.608z" fill="none" stroke="#36b868" stroke-width="2.083" stroke-linecap="round" stroke-linejoin="round" stroke-miterlimit="10"/><path d="M57.981 60.592l9.694 11.31a7.874 7.874 0 002.035 1.69l16.541 9.55-3.284 11.194-21.25-11.004-12.521-20.038z" fill="#fff"/><path d="M57.981 60.592l9.694 11.31a7.874 7.874 0 002.035 1.69l16.541 9.55-3.284 11.194-21.25-11.004-12.521-20.038z" fill="none" stroke="#36b868" stroke-width="2.083" stroke-linecap="round" stroke-linejoin="round" stroke-miterlimit="10"/><path d="M53.428 62.442l10.687 13.646a5.26 5.26 0 001.698 1.415l18.541 9.72-7.02 9.297L51.72 84.093l-8.158-14.498z" fill="#fff"/><path d="M53.428 62.442l10.687 13.646a5.26 5.26 0 001.698 1.415l18.541 9.72-7.02 9.297L51.72 84.093l-8.158-14.498z" fill="none" stroke="#36b868" stroke-width="2.083" stroke-linecap="round" stroke-linejoin="round" stroke-miterlimit="10"/><path d="M49.806 63.545c1.026 2.292 6.236 11.83 7.658 14.425.242.443.53.852.863 1.231.712.807 7.12 3.701 11.382 5.571a4.961 4.961 0 006.113-1.784l5.792-8.643c1.731-3.343 1.371-9.69-2.829-12.053-4.59-2.585-12.657-6.953-13.594-8.559-1.327-2.276-4.553-6.83-3.794-8.916.76-2.087 2.823-3.284 5.494-2.4 2.671.881 8.925 6.004 10.822 6.194 1.898.19 31.132 13.434 32.092 13.313.96-.12-1.312 42-1.312 42L69.56 100.56l-21.163-14.44a6.31 6.31 0 01-1.588-2.79l-4.524-17.008.52-4.927z" fill="#fff"/><path d="M49.806 63.545c1.026 2.292 6.236 11.83 7.658 14.425.242.443.53.852.863 1.231.712.807 7.12 3.701 11.382 5.571a4.961 4.961 0 006.113-1.784l5.792-8.643c1.731-3.343 1.371-9.69-2.829-12.053-4.59-2.585-12.657-6.953-13.594-8.559-1.327-2.276-4.553-6.83-3.794-8.916.76-2.087 2.823-3.284 5.494-2.4 2.671.881 8.925 6.004 10.822 6.194 1.898.19 31.132 13.434 32.092 13.313.96-.12-1.312 42-1.312 42L69.56 100.56l-21.163-14.44a6.31 6.31 0 01-1.588-2.79l-4.524-17.008.52-4.927z" fill="none" stroke="#36b868" stroke-width="2.083" stroke-linecap="round" stroke-linejoin="round" stroke-miterlimit="10"/><path d="M43.402 29.81c2.962.573 4.721 4.44 3.925 8.638-.792 4.195-3.837 7.13-6.8 6.556-2.962-.571-4.72-4.438-3.925-8.632.793-4.2 3.838-7.135 6.8-6.562" fill="#fff"/><path d="M43.402 29.81c2.962.573 4.721 4.44 3.925 8.638-.792 4.195-3.837 7.13-6.8 6.556-2.962-.571-4.72-4.438-3.925-8.632.793-4.2 3.838-7.135 6.8-6.562z" fill="none" stroke="#36b868" stroke-width="2.083" stroke-linecap="round" stroke-linejoin="round" stroke-miterlimit="10"/><path d="M74.947 40.848L53.809 51.57l-1.37 20.33 22.508-11.39z" fill="#fff"/><path d="M74.947 40.848L53.809 51.57l-1.37 20.33 22.508-11.39z" fill="none" stroke="#36b868" stroke-width="2.083" stroke-linecap="round" stroke-linejoin="round" stroke-miterlimit="10"/><path d="M51.757 25.594L29.57 38.522v20.273l22.187-12.53z" fill="#fff"/><path d="M51.757 25.594L29.57 38.522v20.273l22.187-12.53z" fill="none" stroke="#36b868" stroke-width="2.083" stroke-linecap="round" stroke-linejoin="round" stroke-miterlimit="10"/><path d="M74.947 40.848l-23.19-15.262v20.94l23.19 13.984z" fill="#fff"/><path d="M74.947 40.848l-23.19-15.262v20.94l23.19 13.984z" fill="none" stroke="#36b868" stroke-width="2.083" stroke-linecap="round" stroke-linejoin="round" stroke-miterlimit="10"/><path d="M51.757 46.526L29.57 58.796 52.44 71.9 74.945 60.51z" fill="#fff"/><path d="M51.757 46.526L29.57 58.796 52.44 71.9 74.945 60.51z" fill="none" stroke="#36b868" stroke-width="2.083" stroke-linecap="round" stroke-linejoin="round" stroke-miterlimit="10"/><path d="M79.928 63.016s-12.725-7.58-14.737-9.282c-2.467-2.087-4.554-6.831-3.795-8.917.761-2.086 2.824-3.283 5.495-2.401 2.671.883 8.925 6.006 10.822 6.196 1.9.189 16.232 7.14 17.192 7.02" fill="#fff" stroke="#36b868" stroke-width="2.083" stroke-linecap="round" stroke-linejoin="round" stroke-miterlimit="10"/><g><g clip-path="url(#q)"><g clip-path="url(#r)" opacity=".5"><path d="M71.471 46.07c-.77 1.946-2.104 4.06-2.104 4.06-1.52-.19-3.458-1.584-4.185-3.037-.664-1.328-.4-3.453 1.433-3.7 1.835-.247 4.856 2.676 4.856 2.676" fill="#36b868"/><path d="M71.471 46.07c-.77 1.946-2.104 4.06-2.104 4.06-1.52-.19-3.458-1.584-4.185-3.037-.664-1.328-.4-3.453 1.433-3.7 1.835-.247 4.856 2.676 4.856 2.676z" fill="none" stroke="#36b868" stroke-width="2.083" stroke-linecap="round" stroke-linejoin="round" stroke-miterlimit="10"/></g></g></g><g><path d="M71.471 46.07c-.77 1.946-2.104 4.06-2.104 4.06-1.52-.19-3.458-1.584-4.185-3.037-.664-1.328-.4-3.453 1.433-3.7 1.835-.247 4.856 2.676 4.856 2.676z" fill="none" stroke="#36b868" stroke-width="2.083" stroke-linecap="round" stroke-linejoin="round" stroke-miterlimit="10"/></g><g><path d="M18.195 52.229s2.784-5.853-5.092-6.542c0 0 8.229-4.026 2.569-11.268 4.519 2.642 9.23-.56 10.172-6.568" fill="none" stroke="#36b868" stroke-width="2.083" stroke-linecap="round" stroke-linejoin="round" stroke-miterlimit="10"/></g><g><path d="M83.311 42.451s-4.405-4.757 2.905-7.766c0 0-9.054-1.382-5.817-9.985-3.524 3.87-8.977 2.224-11.67-3.23" fill="none" stroke="#36b868" stroke-width="2.083" stroke-linecap="round" stroke-linejoin="round" stroke-miterlimit="10"/></g><g><path d="M19.236 69.426c.373.113.69.285.956.518.265.232.468.499.61.8.143.3.227.628.252.98.026.35-.015.704-.122 1.057l-.008.028a2.9 2.9 0 01-.485.947A2.647 2.647 0 0118.7 74.77a2.46 2.46 0 01-1.085-.092 2.484 2.484 0 01-.947-.515 2.543 2.543 0 01-.612-.8 2.562 2.562 0 01-.251-.98 2.998 2.998 0 01.129-1.056l.009-.027c.106-.353.268-.668.484-.947.216-.28.47-.505.762-.681a2.497 2.497 0 012.047-.246m.717-2.441a5.64 5.64 0 00-2.207-.235 5.35 5.35 0 00-1.983.577 5.197 5.197 0 00-1.577 1.268 5.122 5.122 0 00-.991 1.842l-.008.028a5.19 5.19 0 00.418 4.038c.334.604.78 1.133 1.34 1.592.56.458 1.217.8 1.968 1.028a5.66 5.66 0 002.207.237 5.389 5.389 0 001.983-.578 5.201 5.201 0 002.568-3.111l.008-.028a5.175 5.175 0 00-.418-4.038 5.473 5.473 0 00-1.341-1.592 5.67 5.67 0 00-1.967-1.028" fill="#36b868"/></g><g><path d="M23.192 78.813l2.7.817 1.196-3.953 2.157 4.969 3.2.969-2.419-5.305 5.495-4.398-3.243-.982-3.544 2.877-.656-1.399.763-2.519-2.699-.818z" fill="#36b868"/></g><g><path d="M36.154 74.686l2.755.835.717-2.367-2.755-.834zm-2 6.154l-.358 1.183 3.005.911.358-1.184.824-5.629-1.392-.42z" fill="#36b868"/></g></g><g clip-path="url(#s)" transform="matrix(1.33333 0 0 -1.33333 0 133.785)"><path d="M97.64 39.071c0-20.004-16.368-36.369-36.373-36.369H39.071c-20.003 0-36.37 16.365-36.37 36.37v22.194c0 20.004 16.367 36.371 36.37 36.371h22.196c20.005 0 36.372-16.367 36.372-36.37z" fill="none" stroke="#36b868" stroke-width="5.403" stroke-linecap="round" stroke-linejoin="round" stroke-miterlimit="10"/></g></svg>