<svg xmlns="http://www.w3.org/2000/svg" viewBox="0 0 133.789 133.787"><defs><clipPath clipPathUnits="userSpaceOnUse" id="a"><path d="M0 0h100.342v100.34H0z"/></clipPath><clipPath clipPathUnits="userSpaceOnUse" id="b"><path d="M39.072 97.638c-20.005 0-36.37-16.366-36.37-36.37V39.07c0-20.004 16.365-36.369 36.37-36.369h22.197c20.006 0 36.371 16.365 36.371 36.369v22.198c0 20.004-16.365 36.37-36.371 36.37z"/></clipPath><clipPath clipPathUnits="userSpaceOnUse" id="c"><path d="M0 100.34h100.342V0H0z"/></clipPath></defs><g clip-path="url(#a)" transform="matrix(1.33333 0 0 -1.33333 0 133.787)"><path d="M97.64 39.07c0-20.004-16.365-36.368-36.37-36.368H39.071c-20.003 0-36.369 16.364-36.369 36.368v22.197c0 20.004 16.366 36.372 36.37 36.372H61.27c20.005 0 36.37-16.368 36.37-36.372z" fill="#fff"/></g><g clip-path="url(#b)" transform="matrix(1.33333 0 0 -1.33333 0 133.787)"><path d="M83.052 44.2c-2.506.52-3.992 4.006-3.32 7.788.671 3.783 3.247 6.883 5.753 6.365 2.504-.516 3.992-4.454 3.321-8.237-.673-3.783-3.248-6.433-5.754-5.916" fill="#4b93d6"/><path d="M83.052 44.2c-2.506.52-3.992 4.006-3.32 7.788.671 3.783 3.247 6.883 5.753 6.365 2.504-.516 3.992-4.454 3.321-8.237-.673-3.783-3.248-6.433-5.754-5.916z" fill="none" stroke="#4b93d6" stroke-width="2.083" stroke-linecap="round" stroke-linejoin="round" stroke-miterlimit="10"/><path d="M20.78 16.365c2.505.52 3.992 4.007 3.32 7.787-.671 3.783-3.246 6.885-5.753 6.366-2.504-.516-3.992-4.455-3.32-8.237.67-3.783 3.247-6.433 5.753-5.916" fill="#4b93d6"/><path d="M20.78 16.365c2.505.52 3.992 4.007 3.32 7.787-.671 3.783-3.246 6.885-5.753 6.366-2.504-.516-3.992-4.455-3.32-8.237.67-3.783 3.247-6.433 5.753-5.916z" fill="none" stroke="#4b93d6" stroke-width="2.083" stroke-linecap="round" stroke-linejoin="round" stroke-miterlimit="10"/><path d="M96.949 54.261l-21.315 4.465-2.255 28.51 23.57-13.865z" fill="#fff"/><path d="M96.949 54.261l-21.315 4.465-2.255 28.51 23.57-13.865z" fill="none" stroke="#4b93d6" stroke-width="2.083" stroke-linecap="round" stroke-linejoin="round" stroke-miterlimit="10"/><path d="M73.564 38.059L50.314 53.38v19.768l23.25-15.087z" fill="#fff"/><path d="M73.564 38.059L50.314 53.38v19.768l23.25-15.087z" fill="none" stroke="#4b93d6" stroke-width="2.083" stroke-linecap="round" stroke-linejoin="round" stroke-miterlimit="10"/><path d="M96.949 54.261L73.564 38.083v20.261l23.385 15.027z" fill="#fff"/><path d="M96.949 54.261L73.564 38.083v20.261l23.385 15.027z" fill="none" stroke="#4b93d6" stroke-width="2.083" stroke-linecap="round" stroke-linejoin="round" stroke-miterlimit="10"/><path d="M73.564 58.344L50.314 73.15l23.063 14.087L96.95 73.371z" fill="#fff"/><path d="M73.564 58.344L50.314 73.15l23.063 14.087L96.95 73.371z" fill="none" stroke="#4b93d6" stroke-width="2.083" stroke-linecap="round" stroke-linejoin="round" stroke-miterlimit="10"/><path d="M80.014 78.996l3.014-2.027-12.034-7.077-2.96 1.822z" fill="#4b93d6"/><path d="M80.014 78.996l3.014-2.027-12.034-7.077-2.96 1.822z" fill="none" stroke="#4b93d6" stroke-width="2.083" stroke-linecap="round" stroke-linejoin="round" stroke-miterlimit="10"/><path d="M66.303 74.86l9.634-5.995-10.157-.304z" fill="#4b93d6"/><path d="M66.303 74.86l9.634-5.995-10.157-.304z" fill="none" stroke="#4b93d6" stroke-width="2.083" stroke-linecap="round" stroke-linejoin="round" stroke-miterlimit="10"/><path d="M65.779 67.319l10.157.305v1.24l-3.25.783 10.34 6.08v1.24l-3.012.788-10.297-6.26-3.414 2.123-.524-5.057z" fill="#4b93d6"/><path d="M65.779 67.319l10.157.305v1.24l-3.25.783 10.34 6.08v1.24l-3.012.788-10.297-6.26-3.414 2.123-.524-5.057z" fill="none" stroke="#4b93d6" stroke-width="2.083" stroke-linecap="round" stroke-linejoin="round" stroke-miterlimit="10"/><path d="M34.395 63.354c4.081-.877 3.581 5.708 3.581 5.708s1.816-4.724 5.14-4.203c3.327.521 3.486 4.656 3.486 4.656s.364-4.807 3.067-6.807c2.703-2 5.66.281 5.66.281s-1.107-4.735 1.542-8.032c2.65-3.297 5.147-2.25 5.147-2.25s-2.208-2.812-2.116-6.778c.059-2.445 1.583-4.222 1.583-4.222" fill="#fff" stroke="#4b93d6" stroke-width="2.083" stroke-linecap="round" stroke-linejoin="round" stroke-miterlimit="10"/><path d="M52.84 28.05l-21.316 4.467-2.255 28.51L52.84 47.16z" fill="#fff"/><path d="M52.84 28.05l-21.316 4.467-2.255 28.51L52.84 47.16z" fill="none" stroke="#4b93d6" stroke-width="2.083" stroke-linecap="round" stroke-linejoin="round" stroke-miterlimit="10"/><path d="M29.456 11.849L6.206 27.17V46.94l23.25-15.088z" fill="#fff"/><path d="M29.456 11.849L6.206 27.17V46.94l23.25-15.088z" fill="none" stroke="#4b93d6" stroke-width="2.083" stroke-linecap="round" stroke-linejoin="round" stroke-miterlimit="10"/><path d="M52.84 28.05L29.455 11.874v20.26L52.84 47.162z" fill="#fff"/><path d="M52.84 28.05L29.455 11.874v20.26L52.84 47.162z" fill="none" stroke="#4b93d6" stroke-width="2.083" stroke-linecap="round" stroke-linejoin="round" stroke-miterlimit="10"/><path d="M29.456 32.134L6.206 46.94 29.27 61.027 52.84 47.16z" fill="#fff"/><path d="M29.456 32.134L6.206 46.94 29.27 61.027 52.84 47.16z" fill="none" stroke="#4b93d6" stroke-width="2.083" stroke-linecap="round" stroke-linejoin="round" stroke-miterlimit="10"/><path d="M35.906 41.108l3.013 2.028v1.243l-12.033 5.834-2.961-1.822z" fill="#4b93d6"/><path d="M35.906 41.108l3.013 2.028v1.243l-12.033 5.834-2.961-1.822z" fill="none" stroke="#4b93d6" stroke-width="2.083" stroke-linecap="round" stroke-linejoin="round" stroke-miterlimit="10"/><path d="M22.194 45.244l9.633 5.996v1.241l-10.157.306v-1.242z" fill="#4b93d6"/><path d="M22.194 45.244l9.633 5.996v1.241l-10.157.306v-1.242z" fill="none" stroke="#4b93d6" stroke-width="2.083" stroke-linecap="round" stroke-linejoin="round" stroke-miterlimit="10"/><path d="M21.67 52.787l10.157-.306-3.249-2.022 10.341-6.08-3.014-2.03-10.298 6.261-3.413-2.124z" fill="#fff"/><path d="M21.67 52.787l10.157-.306-3.249-2.022 10.341-6.08-3.014-2.03-10.298 6.261-3.413-2.124z" fill="none" stroke="#4b93d6" stroke-width="2.083" stroke-linecap="round" stroke-linejoin="round" stroke-miterlimit="10"/><path d="M21.67 52.787l10.157-.306-3.249-2.022 10.341-6.08-3.014-2.03-10.298 6.261-3.413-2.124z" fill="#fff"/><path d="M21.67 52.787l10.157-.306-3.249-2.022 10.341-6.08-3.014-2.03-10.298 6.261-3.413-2.124z" fill="none" stroke="#4b93d6" stroke-width="2.083" stroke-linecap="round" stroke-linejoin="round" stroke-miterlimit="10"/><path d="M21.67 52.787l10.157-.306-3.249-2.022 10.341-6.08-3.014-2.03-10.298 6.261-3.413-2.124z" fill="#4b93d6"/><path d="M21.67 52.787l10.157-.306-3.249-2.022 10.341-6.08-3.014-2.03-10.298 6.261-3.413-2.124z" fill="none" stroke="#4b93d6" stroke-width="2.083" stroke-linecap="round" stroke-linejoin="round" stroke-miterlimit="10"/></g><g clip-path="url(#c)" transform="matrix(1.33333 0 0 -1.33333 0 133.787)"><path d="M97.64 39.07c0-20.004-16.365-36.368-36.37-36.368H39.071c-20.003 0-36.369 16.364-36.369 36.368v22.197c0 20.004 16.366 36.372 36.37 36.372H61.27c20.005 0 36.37-16.368 36.37-36.372z" fill="none" stroke="#4b93d6" stroke-width="5.403" stroke-linecap="round" stroke-linejoin="round" stroke-miterlimit="10"/><path d="M48.707 82.24c-1.625.011-3.949-.485-5.243-3.58M45.437 85.19c-.727-.03-1.811-.298-2.514-1.515M26.285 69.389c-1.625.012-3.949-.484-5.243-3.58M23.015 72.34c-.727-.03-1.81-.298-2.514-1.515M52.67 18.936c1.622.09 3.91.73 5.01 3.9M56.119 16.196c.723.074 1.788.41 2.414 1.668M74.819 30.1c1.622.09 3.91.73 5.01 3.899M78.268 27.36c.724.073 1.787.41 2.414 1.667" fill="none" stroke="#4b93d6" stroke-width="2.083" stroke-linecap="round" stroke-linejoin="round" stroke-miterlimit="10"/></g></svg>