<svg xmlns="http://www.w3.org/2000/svg" viewBox="0 0 75 75"><defs><style>.cls-1{fill:none;}.cls-2{fill:#fff;}.cls-3{fill:#666;}.cls-4{fill:#00afca;}</style></defs><title>アセット 3302</title><g id="レイヤー_2" data-name="レイヤー 2"><g id="レイヤー_2-2" data-name="レイヤー 2"><g id="ARC"><path class="cls-1" d="M8.3623,0H66.6377A8.3623,8.3623,0,0,1,75,8.3623V66.6377A8.3623,8.3623,0,0,1,66.6377,75H8.36133A8.36133,8.36133,0,0,1,0,66.63867V8.3623A8.3623,8.3623,0,0,1,8.3623,0Z"/><rect class="cls-2" x="4.99981" y="5.00029" width="65" height="65" rx="3.36207"/><path class="cls-3" d="M66.6377,70.125H8.3623A3.49049,3.49049,0,0,1,4.875,66.63867V8.3623A3.49132,3.49132,0,0,1,8.3623,4.875H66.6377A3.49132,3.49132,0,0,1,70.125,8.3623V66.63867A3.49049,3.49049,0,0,1,66.6377,70.125Zm-58.2754-65A3.24084,3.24084,0,0,0,5.125,8.3623V66.63867A3.24064,3.24064,0,0,0,8.3623,69.875H66.6377a3.24064,3.24064,0,0,0,3.2373-3.23633V8.3623A3.24084,3.24084,0,0,0,66.6377,5.125Z"/></g><path class="cls-4" d="M46.68975,20.26488a3.6709,3.6709,0,0,1,3.67479,3.65867V40.09686a7.06181,7.06181,0,0,1-1.97745,4.914l-8.2676,8.60864a3.64976,3.64976,0,0,1-2.6197,1.11623V28.24178l2.85145-2.96914L44.0769,21.3933a3.55252,3.55252,0,0,1,2.61285-1.12842m0-3.95354a7.51922,7.51922,0,0,0-5.46431,2.34343l-3.72565,3.87935-3.72566-3.87937a7.51926,7.51926,0,0,0-5.464-2.34339,7.6431,7.6431,0,0,0-5.22831,2.059,7.50811,7.50811,0,0,0-2.40031,5.55323V40.097a10.99692,10.99692,0,0,0,3.07935,7.65224l8.26769,8.60874a7.58581,7.58581,0,0,0,10.94252,0l8.2675-8.60859a10.997,10.997,0,0,0,3.07953-7.65246V23.92355a7.62894,7.62894,0,0,0-7.62833-7.61221Z"/><path class="cls-4" d="M64.53009,65.44332a.64212.64212,0,1,1,.642.65449.64905.64905,0,0,1-.642-.65449m-.53293,0a1.175,1.175,0,1,0,1.17493-1.17026,1.1601,1.1601,0,0,0-1.17493,1.17026"/><path class="cls-4" d="M61.51687,66.09778a.65461.65461,0,1,1,.642-.65446.64907.64907,0,0,1-.642.65446m0-1.82471a1.17025,1.17025,0,1,0,1.17494,1.17025,1.16013,1.16013,0,0,0-1.17494-1.17025"/><path class="cls-4" d="M59.51166,64.91514h.6077v-.54326h-.6077v-.73209h-.55435v1.83176a1.41155,1.41155,0,0,0,.1076.55307,1.14749,1.14749,0,0,0,.6913.6136l.27456-.4649a.92171.92171,0,0,1-.45645-.39336.83259.83259,0,0,1-.06144-.32159c0-.05663-.00122-.17788-.00122-.17788Z"/><path class="cls-4" d="M62.98381,63.64286a.36073.36073,0,0,0,.72135,0,.36072.36072,0,1,0-.72135,0"/><rect class="cls-4" x="63.07285" y="64.37186" width="0.54326" height="2.1858"/><polygon class="cls-4" points="66.284 66.407 66.207 66.407 66.207 66.381 66.39 66.381 66.39 66.407 66.314 66.407 66.314 66.614 66.284 66.614 66.284 66.407"/><polygon class="cls-4" points="66.513 66.614 66.45 66.425 66.45 66.614 66.419 66.614 66.419 66.381 66.462 66.381 66.528 66.579 66.596 66.381 66.638 66.381 66.638 66.614 66.607 66.614 66.607 66.425 66.544 66.614 66.513 66.614"/></g></g></svg>