<svg xmlns="http://www.w3.org/2000/svg" viewBox="0 0 75 75"><defs><style>.cls-1{fill:none;}.cls-2{fill:#fff;}.cls-3{fill:#666;}.cls-4{fill:#00afca;}</style></defs><title>アセット 2902</title><g id="レイヤー_2" data-name="レイヤー 2"><g id="レイヤー_2-2" data-name="レイヤー 2"><g id="ARC"><path class="cls-1" d="M8.3623,0H66.63818A8.36182,8.36182,0,0,1,75,8.36182V66.6377A8.3623,8.3623,0,0,1,66.6377,75H8.3623A8.3623,8.3623,0,0,1,0,66.6377V8.3623A8.3623,8.3623,0,0,1,8.3623,0Z"/><rect class="cls-2" x="4.99981" y="4.99978" width="65" height="65" rx="3.36207"/><path class="cls-3" d="M66.6377,70.125H8.3623A3.49132,3.49132,0,0,1,4.875,66.6377V8.36182A3.4909,3.4909,0,0,1,8.3623,4.875H66.6377A3.4909,3.4909,0,0,1,70.125,8.36182V66.6377A3.49132,3.49132,0,0,1,66.6377,70.125Zm-58.2754-65A3.24074,3.24074,0,0,0,5.125,8.36182V66.6377A3.24084,3.24084,0,0,0,8.3623,69.875H66.6377a3.24084,3.24084,0,0,0,3.2373-3.2373V8.36182A3.24074,3.24074,0,0,0,66.6377,5.125Z"/></g><path class="cls-4" d="M42.73256,22.38566,54.41641,15.193a.86293.86293,0,0,1,1.30049.57561l2.5318,13.48468a.86292.86292,0,0,1-1.19737.94832l-14.21565-6.292A.86293.86293,0,0,1,42.73256,22.38566Z"/><rect class="cls-4" x="22.60399" y="39.33496" width="40.77882" height="6.84611" rx="0.86293" transform="translate(-13.50703 64.76668) rotate(-66.12517)"/><path class="cls-4" d="M27.66213,33.15913l-13.70178-.7125a.86294.86294,0,0,1-.74377-1.2122l5.57173-12.538a.86293.86293,0,0,1,1.52409-.10086l8.13006,13.25054A.86293.86293,0,0,1,27.66213,33.15913Z"/><rect class="cls-4" x="19.97271" y="17.59322" width="22.51467" height="6.84611" rx="0.86293" transform="translate(-6.3798 19.43548) rotate(-31.53179)"/><rect class="cls-4" x="30.24486" y="25.59157" width="6.84611" height="40.86979" rx="0.86293" transform="translate(-21.51498 60.40742) rotate(-68.42159)"/><path class="cls-2" d="M16.40942,35.58453a.86053.86053,0,0,1,.31714.06073L53.1272,50.04138a.86287.86287,0,0,1,.48486,1.11981L51.729,55.92261a.86188.86188,0,0,1-1.11962.485L14.20874,42.01154a.863.863,0,0,1-.48511-1.11982l1.88306-4.76141a.86331.86331,0,0,1,.80273-.54578m0-2.37213h-.00024a3.21827,3.21827,0,0,0-3.0083,2.04547l-1.88306,4.76148a3.23483,3.23483,0,0,0,1.81861,4.19806L49.73706,58.61353a3.23384,3.23384,0,0,0,4.19775-1.81843l1.88306-4.76153a3.23845,3.23845,0,0,0-1.81811-4.198L17.59888,33.43939a3.21992,3.21992,0,0,0-1.18946-.227Z"/><path class="cls-4" d="M54.05576,44.96625l7.655,11.38626a.86293.86293,0,0,1-.523,1.32251l-13.3724,3.07009a.86293.86293,0,0,1-.99555-1.15841l5.71737-14.45636A.86293.86293,0,0,1,54.05576,44.96625Z"/><path class="cls-4" d="M64.53009,65.44281a.64212.64212,0,1,1,.642.65449.649.649,0,0,1-.642-.65449m-.53293,0a1.175,1.175,0,1,0,1.17493-1.17026,1.1601,1.1601,0,0,0-1.17493,1.17026"/><path class="cls-4" d="M61.51687,66.09728a.65462.65462,0,1,1,.642-.65446.64907.64907,0,0,1-.642.65446m0-1.82472a1.17025,1.17025,0,1,0,1.17494,1.17026,1.16013,1.16013,0,0,0-1.17494-1.17026"/><path class="cls-4" d="M59.51166,64.91464h.6077v-.54326h-.6077v-.73209h-.55435v1.83176a1.41154,1.41154,0,0,0,.1076.55306,1.14743,1.14743,0,0,0,.6913.6136l.27456-.46489a.92174.92174,0,0,1-.45645-.39337.83259.83259,0,0,1-.06144-.32159c0-.05663-.00122-.17788-.00122-.17788Z"/><path class="cls-4" d="M62.98381,63.64235a.36073.36073,0,0,0,.72135,0,.36072.36072,0,1,0-.72135,0"/><rect class="cls-4" x="63.07285" y="64.37136" width="0.54326" height="2.1858"/><polygon class="cls-4" points="66.284 66.407 66.207 66.407 66.207 66.38 66.39 66.38 66.39 66.407 66.314 66.407 66.314 66.613 66.284 66.613 66.284 66.407"/><polygon class="cls-4" points="66.513 66.613 66.45 66.424 66.45 66.613 66.419 66.613 66.419 66.38 66.462 66.38 66.528 66.578 66.596 66.38 66.638 66.38 66.638 66.613 66.607 66.613 66.607 66.424 66.544 66.613 66.513 66.613"/></g></g></svg>