<svg xmlns="http://www.w3.org/2000/svg" viewBox="0 0 75 74.99951"><defs><style>.cls-1{fill:none;}.cls-2{fill:#f0f8fa;}.cls-3{fill:#666;}.cls-4{fill:#00afca;}</style></defs><title>アセット 3402</title><g id="レイヤー_2" data-name="レイヤー 2"><g id="レイヤー_2-2" data-name="レイヤー 2"><path class="cls-1" d="M8.36255-.00024H66.63794a8.36182,8.36182,0,0,1,8.36182,8.36182V66.63745a8.3623,8.3623,0,0,1-8.3623,8.3623H8.36206A8.36182,8.36182,0,0,1,.00024,66.63794V8.36206A8.3623,8.3623,0,0,1,8.36255-.00024Z" transform="translate(74.99976 -0.00024) rotate(90)"/><rect class="cls-2" x="5" y="4.99998" width="64.99981" height="64.99961" rx="3.36204" transform="translate(74.99969 -0.00011) rotate(90)"/><path class="cls-3" d="M66.6377,70.12451H8.3623A3.4909,3.4909,0,0,1,4.875,66.6377V8.36182A3.4909,3.4909,0,0,1,8.3623,4.875H66.6377A3.4909,3.4909,0,0,1,70.125,8.36182V66.6377A3.4909,3.4909,0,0,1,66.6377,70.12451ZM8.3623,5.125A3.24074,3.24074,0,0,0,5.125,8.36182V66.6377a3.24074,3.24074,0,0,0,3.2373,3.23681H66.6377A3.24074,3.24074,0,0,0,69.875,66.6377V8.36182A3.24074,3.24074,0,0,0,66.6377,5.125Z"/><path class="cls-4" d="M25.98642,13.20933a.034.034,0,0,0-.056.03008.6764.6764,0,0,1,.00178.18793c-.09675.779-1.48464,1.26134-3.304,1.17792a7.86469,7.86469,0,0,1-1.54613-.205.03374.03374,0,0,0-.02848.05976,4.23022,4.23022,0,0,0,2.42991.63032c1.56089.00109,2.82664-.57321,2.82714-1.28273A.806.806,0,0,0,25.98642,13.20933Z"/><path class="cls-4" d="M23.55391,15.60481c-1.55126.1236-2.85537-.36068-2.91282-1.08167a.62728.62728,0,0,1,.01007-.17111.03375.03375,0,0,0-.06012-.02654.99306.99306,0,0,0-.24418.8374c.18323.76042,1.55064,1.08316,3.0542.72086a5.27273,5.27273,0,0,0,.96494-.33152.03384.03384,0,0,0-.0213-.06381A5.89491,5.89491,0,0,1,23.55391,15.60481Z"/><path class="cls-4" d="M26.16609,12.19458c-.09964-.65395-1.39739-1.12352-2.97915-.889-1.14322.16886-2.00778.71361-1.9326,1.20705.06384.42184.796.67245,1.72138.6271.065-.00478.13126-.01194.19809-.02208.6086-.09248,1.06863-.38365,1.02865-.65037-.02583-.16885-.24608-.28708-.5587-.32795a.034.034,0,0,0-.02338.062.17864.17864,0,0,1,.097.14367c.01313.142-.24642.28282-.58055.31444a1.12317,1.12317,0,0,1-.43437-.0346c-.142-.04833-.23032-.11814-.244-.20586-.02208-.14618.17243-.30847.48926-.43854a2.60538,2.60538,0,0,1,1.38964-.16707c.497.07458.83235.24762.86994.49285.06623.43556-.83474.93437-2.01912,1.12233l-.037.00477c-1.497.20406-2.78106-.14618-2.86758-.78163a.517.517,0,0,1,.00626-.17076l-.00041-.00017.00289-.00949a.63053.63053,0,0,1,.03684-.11368,1.44807,1.44807,0,0,1,.18017-.35579.034.034,0,0,0-.04553-.04873c-.52784.33824-.825.73741-.76853,1.12106.11516.78163,1.67424,1.20944,3.45589.9469C24.928,13.75068,26.27826,12.93325,26.16609,12.19458Z"/><path class="cls-4" d="M29.65936,13.58742a5.37937,5.37937,0,0,1-.60153.627l-.49342-.45751a5.77681,5.77681,0,0,0,1.54744-2.30764h.7297c-.05675.16448-.11814.32895-.19034.49844h1.88642c-.26717,1.96364-1.08954,3.39756-2.73967,3.99368l-.344-.54979a3.21928,3.21928,0,0,0,1.444-1.00228A6.09828,6.09828,0,0,0,29.65936,13.58742Zm1.60882.24671a4.21491,4.21491,0,0,0,.44207-1.27988H30.35856c-.10309.17992-.21081.35984-.32895.52933A9.21356,9.21356,0,0,1,31.26818,13.83413Z"/><path class="cls-4" d="M35.72941,15.87962v-2.169a8.39477,8.39477,0,0,1-1.686.81233l-.334-.60654a8.38215,8.38215,0,0,0,3.5771-2.42077l.53975.46755a7.39165,7.39165,0,0,1-1.34127,1.239v2.67751Z"/><path class="cls-4" d="M40.26747,15.83869l-.33435-.627a2.81744,2.81744,0,0,0,2.42115-2.5752h-2.94V11.9786h3.83423C43.01718,14.02447,42.23574,15.40705,40.26747,15.83869Z"/><path class="cls-4" d="M44.73874,14.16308v-.72469h4.08132v.72469Z"/><path class="cls-4" d="M51.91879,13.40248a6.3934,6.3934,0,0,0-1.50072-.96637l.42161-.58608a7.49568,7.49568,0,0,1,1.55207.91Zm-1.12042,2.40031-.22625-.68878a3.95779,3.95779,0,0,0,3.35625-2.42617l.53975.50384A4.56268,4.56268,0,0,1,50.79837,15.80279Z"/><path class="cls-4" d="M19.11726,63.4285a9.60808,9.60808,0,0,0-1.6513-1.3737c-.11389-.07837-.15674-.14594-.15674-.22084,0-.06756.032-.13513.15327-.22393a11.81446,11.81446,0,0,0,1.54087-1.33856l.24556.21737a14.212,14.212,0,0,1-1.45555,1.242c-.06409.04633-.08919.071-.08919.09961,0,.032.02162.04633.07838.08532a10.03519,10.03519,0,0,1,1.56983,1.2849Z"/><path class="cls-4" d="M21.48358,63.40379c-.50538,0-.82236-.21-.82236-.5162,0-.249.23127-.44477.58029-.44477a.777.777,0,0,1,.75441.61928.64749.64749,0,0,0,.46292-.59071c0-.349-.28841-.58376-.81155-.58376a1.46171,1.46171,0,0,0-.6301.13513,4.0191,4.0191,0,0,0-.83279.60847l-.18493-.22045c.24169-.19575.59419-.47335.83279-.69419.2525-.23126.71889-.6548.993-.92892H20.47281v-.26679h1.808v.23474c-.32045.30617-.8046.73666-1.03934.96445a1.3654,1.3654,0,0,1,.47334-.08533c.67256,0,1.03587.33474,1.03587.82932C22.75072,63.01577,22.22757,63.40379,21.48358,63.40379Zm-.25288-.72237c-.2027,0-.30964.09228-.30964.217,0,.16023.19574.25984.53048.25984a1.48039,1.48039,0,0,0,.28841-.0251A.54489.54489,0,0,0,21.2307,62.68142Z"/><path class="cls-4" d="M25.30855,63.4285a9.60847,9.60847,0,0,0-1.6513-1.3737c-.11389-.07837-.15675-.14594-.15675-.22084,0-.06756.03205-.13513.15328-.22393a11.81512,11.81512,0,0,0,1.54087-1.33856l.24555.21737a14.20985,14.20985,0,0,1-1.45555,1.242c-.06409.04633-.08918.071-.08918.09961,0,.032.02162.04633.07837.08532a10.03472,10.03472,0,0,1,1.56983,1.2849Z"/><path class="cls-4" d="M27.67487,63.40379c-.50539,0-.82236-.21-.82236-.5162,0-.249.23126-.44477.58028-.44477a.777.777,0,0,1,.75442.61928.64749.64749,0,0,0,.46291-.59071c0-.349-.2884-.58376-.81155-.58376a1.46166,1.46166,0,0,0-.63009.13513,4.01883,4.01883,0,0,0-.83279.60847l-.18494-.22045c.24169-.19575.59419-.47335.83279-.69419.2525-.23126.7189-.6548.993-.92892H26.6641v-.26679h1.808v.23474c-.32045.30617-.80461.73666-1.03935.96445a1.36545,1.36545,0,0,1,.47335-.08533c.67256,0,1.03587.33474,1.03587.82932C28.942,63.01577,28.41886,63.40379,27.67487,63.40379Zm-.25289-.72237c-.20269,0-.30964.09228-.30964.217,0,.16023.19575.25984.53048.25984a1.48025,1.48025,0,0,0,.28841-.0251A.54488.54488,0,0,0,27.422,62.68142Z"/><path class="cls-4" d="M30.00529,63.23275v.18185h-.28146V60.42822h2.84739V63.4146h-.29536v-.18185Zm2.27057-.27373V60.70234H30.00529V62.959Zm-.46253-1.79762v1.32775H30.457V61.1614Zm-1.08915,1.07139h.815v-.815h-.815Z"/><path class="cls-4" d="M33.70245,63.28256l-.0498-.25984c1.06753,0,1.53392-.25945,1.53392-.76869,0-.32007-.22779-.57643-.68337-.57643a6.79552,6.79552,0,0,0-1.33123.26678l-.07451-.27412a8.39715,8.39715,0,0,1,1.45207-.26331.83.83,0,0,1,.93973.84013C35.48926,62.88412,34.98388,63.28256,33.70245,63.28256Z"/><path class="cls-4" d="M38.34244,61.00117a.70511.70511,0,0,0-.31311.13166,1.5164,1.5164,0,0,0-.76523,1.17486c0,.46948.4162.72584,1.25285.73318l-.0498.28455c-1.0073-.01429-1.50574-.40578-1.50574-1.00383a1.69,1.69,0,0,1,.79032-1.31694l-1.705.07143-.01428-.28108,2.82615-.11389.01043.28107C38.66984,60.96913,38.46329,60.98341,38.34244,61.00117Z"/><path class="cls-4" d="M39.37329,62.76675l-.19574-.20656a4.68546,4.68546,0,0,0,.65519-1.33122H39.249v-.26332H39.847v-.76174h.288v.76174h.47721V61.229H40.135v.10694c.178.25636.37721.56214.48763.75094l-.18146.23127c-.071-.16718-.18494-.40578-.30617-.63357v1.79376h-.288V61.795A5.39538,5.39538,0,0,1,39.37329,62.76675Zm1.65863.49458v.19227h-.28454V60.35332h1.5733V63.4536h-.29574v-.19227Zm.993-2.64084h-.993v.605h.993Zm0,1.48065v-.61929h-.993v.61929Zm0,.8934v-.637h-.993v.637Z"/><path class="cls-4" d="M44.27351,62.0548v-.51619H43.08127v-.28107h1.19224v-.5162a11.0852,11.0852,0,0,1-1.11425.08918l-.1139-.27759a10.17352,10.17352,0,0,0,2.49181-.34555l.1637.2637a9.0294,9.0294,0,0,1-1.1212.23126v.5552h1.19224v.28107H44.57967v.51619h1.48065v.28108H44.57967v.72622c0,.23475-.06756.37026-.29921.40231a4.701,4.701,0,0,1-.605.00695l-.06757-.30964a4.4108,4.4108,0,0,0,.52315.00694c.1139-.00694.14247-.0637.14247-.15984v-.67294h-1.4876V62.0548Z"/><path class="cls-4" d="M48.32317,62.12584c.01042.1139.0139.24556.0139.39883v.28107h-.288v-.27759c0-.09961,0-.18494-.00386-.25984-.35945.19575-.59767.39883-.59767.57681,0,.20617.21.28108.72585.28108a7.95887,7.95887,0,0,0,.89688-.04981v.27026c-.24169.02162-.58724.03591-.893.03591-.712,0-1.01811-.15675-1.01811-.5162,0-.32045.34863-.61928.854-.88646-.039-.19574-.11389-.2525-.23474-.2525a1.25187,1.25187,0,0,0-.6799.28455,2.98545,2.98545,0,0,0-.47681.46639l-.22085-.18879a3.71926,3.71926,0,0,0,.7938-1.19571h-.62276V60.841h.71889a3.96485,3.96485,0,0,0,.139-.53743h.31312a4.47143,4.47143,0,0,1-.139.53743h1.0822v.25289h-1.171a3.13876,3.13876,0,0,1-.29536.59071,1.27565,1.27565,0,0,1,.64052-.217c.21351,0,.349.09613.42006.38068.2776-.12818.58724-.249.90036-.35945l.11042.26717A8.40274,8.40274,0,0,0,48.32317,62.12584Z"/><path class="cls-4" d="M50.17986,62.47834V60.89461H49.671V60.6313h1.29918v.26331H50.4756V62.393c.18494-.05367.36292-.10695.51234-.15328l.02509.25289c-.38454.13513-.97178.3274-1.30651.43048l-.07452-.29883C49.77061,62.58876,49.96983,62.539,50.17986,62.47834Zm2.78716.74052-.22084.256a2.43851,2.43851,0,0,1-.88993-.68337,3.24053,3.24053,0,0,1-.98916.68337l-.20655-.24208a2.93906,2.93906,0,0,0,1.01772-.68337,3.64372,3.64372,0,0,1-.44477-1.03548,3.6423,3.6423,0,0,1-.28107.44477l-.23513-.18146a3.36631,3.36631,0,0,0,.63743-1.57678l.29536.04981a5.03565,5.03565,0,0,1-.139.59071h1.41307v.27065h-.356a3.01478,3.01478,0,0,1-.5162,1.44512A2.204,2.204,0,0,0,52.967,63.21886Zm-1.09649-.915a2.66092,2.66092,0,0,0,.388-1.19223h-.82584A3.53548,3.53548,0,0,0,51.87053,62.30383Z"/><path class="cls-4" d="M54.68858,62.79146v-.22779H53.51024v-.18146h1.17834v-.21c-.33126.02162-.66561.02857-.93626.02162l-.06023-.18185a10.86025,10.86025,0,0,0,2.14239-.14942l.09266.17451a9.17137,9.17137,0,0,1-.93239.1139v.23127h1.21v.18146h-1.21v.22779h1.49106v.18146H54.99475v.2386c0,.14942-.04633.23513-.1888.25636a3.979,3.979,0,0,1-.52315.00695l-.03938-.22045c.12471.007.317.007.37026.00347.05714-.00347.0749-.02857.0749-.07837v-.20656H53.21141v-.18146Zm-.78685-1.16714v-.1498h-.56214v-.78994h.56214v-.14594h-.65132v-.1637h.65132v-.171h.26718v.171h.65132v.1637h-.65132v.14594h.58376v.78994h-.58376v.1498h.66561v.1637h-.66561v.15289h-.26718V61.788h-.68684v-.1637Zm-.33087-.61234h.33087v-.17451h-.33087Zm0,.30965h.33087v-.18146h-.33087Zm.93626-.30965v-.17451h-.33821V61.012Zm0,.30965v-.18146h-.33821v.18146Zm1.39145-1.0463h.12124v.23822c0,.08571.01042.10347.05675.10347h.13166c.0498,0,.05328-.01081.05714-.18532l.23474.04285c-.02124.32393-.06757.36292-.26679.3664H56.048c-.23127-.00695-.2776-.06757-.2776-.3274v-.04633h-.43048v.01814a.52115.52115,0,0,1-.28841.45558l-.23474-.12818c.2027-.10694.27412-.21.27412-.33821v-.19922h.80769Zm.58029,1.46983-.14246.2027a2.86,2.86,0,0,1-.72623-.24555,2.8851,2.8851,0,0,1-.59766.24207l-.16023-.18146a2.28969,2.28969,0,0,0,.54438-.18879,1.44148,1.44148,0,0,1-.356-.34864l.19575-.0749h-.28455V60.9587h1.10344c.01042.00348.02123.00695.18493.04595a1.22009,1.22009,0,0,1-.42006.55558A2.55522,2.55522,0,0,0,56.47886,61.74516Zm-.87217-.29535a1.0521,1.0521,0,0,0,.29188-.29922h-.637A1.23353,1.23353,0,0,0,55.60669,61.44981Z"/><path class="cls-4" d="M57.21822,63.5034a.43069.43069,0,1,1,.434-.42354A.43468.43468,0,0,1,57.21822,63.5034Zm0-.71194a.28474.28474,0,1,0,.28454.2884A.28419.28419,0,0,0,57.21822,62.79146Z"/><path class="cls-4" d="M30.57361,58.93136a1.98763,1.98763,0,0,0-.58531-.327c-.00232.29883-.09729.44786-.40809.44786-.3081,0-.52392-.14208-.52392-.34362s.20655-.33667.56214-.33667a1.26333,1.26333,0,0,1,.166.00966c-.00271-.09266-.005-.20154-.00734-.32509h-.68994v-.1776h.68763c-.00232-.10424-.00464-.2135-.00464-.32972h-.73047v-.17528h.72816c-.00271-.12586-.00271-.256-.00271-.39111h.20154c0,.13513,0,.26525.0027.39111h.70886v.17528H29.9717c0,.11622.00232.22548.00463.32972h.6521v.1776h-.64978c.00463.14015.00733.26331.00733.36524a2.0738,2.0738,0,0,1,.69921.3579Zm-.97912-.3911c-.22509,0-.3579.06641-.3579.17065,0,.10694.13513.17065.3247.17065.18262,0,.22547-.06139.22547-.29613v-.03089A1.28933,1.28933,0,0,0,29.59449,58.54026Z"/><path class="cls-4" d="M31.54693,59.04989v-.74206c-.10424.11853-.21775.25868-.34361.41968l-.14942-.13513c.18725-.23474.34864-.42431.493-.576v-.29883h-.45519v-.17529h.45519v-.54515h.19922v.82468a1.07845,1.07845,0,0,1,.73975-.3413.63118.63118,0,0,1,.62353.69457c0,.45056-.32934.72546-.98877.7992l-.05444-.1803c.58569-.06409.83935-.27258.83935-.62585a.449.449,0,0,0-.434-.493c-.20385,0-.41466.10192-.72546.417v.95788Z"/><path class="cls-4" d="M40.67672,59.06186l-.05212-.17065c.47412-.05444.71388-.23011.71388-.517a.418.418,0,0,0-.31312-.40539,1.33353,1.33353,0,0,1-1.05247.98413.33409.33409,0,0,1-.35559-.35828.88927.88927,0,0,1,.59033-.72314c.00463-.11853.0139-.244.0305-.37451h-.51427V57.3264h.53821c.01891-.12084.04015-.24169.0664-.3579H40.53c-.02625.11621-.0498.23706-.06872.3579h.9768v.17065H40.43735c-.012.10695-.02355.20887-.02818.30347a1.43613,1.43613,0,0,1,.35288-.04479c.04285,0,.083.00232.12123.00463.007-.04285.01158-.08532.0166-.13049h.19189c-.00464.05675-.012.11157-.02124.166a.58594.58594,0,0,1,.46678.576C41.53731,58.76071,41.2269,58.99777,40.67672,59.06186Zm-.87448-.46948a.1595.1595,0,0,0,.1776.18262.63226.63226,0,0,0,.32006-.11158,1.65128,1.65128,0,0,1-.09729-.60191A.67849.67849,0,0,0,39.80224,58.59238Zm.93394-.6687a1.10773,1.10773,0,0,0-.33435.05251v.02586a1.78007,1.78007,0,0,0,.06177.53589,1.376,1.376,0,0,0,.37914-.60924C40.80954,57.92638,40.774,57.92368,40.73618,57.92368Z"/><path class="cls-4" d="M42.61526,58.94333c-.31311,0-.55712-.55712-.55712-1.28489,0-.13513.00232-.249.00927-.36524h.20617c-.01159.11853-.0139.23474-.0139.3579,0,.64747.19883,1.06946.339,1.06946.06371,0,.18262-.18493.26524-.44825l.166.09961C42.91873,58.68736,42.767,58.94333,42.61526,58.94333Zm1.09031-.41272A1.62681,1.62681,0,0,0,43.26,57.355l.1444-.11621a1.77779,1.77779,0,0,1,.51,1.29185Z"/><path class="cls-4" d="M45.80743,57.44956a.47029.47029,0,0,0-.20849.088,1.00913,1.00913,0,0,0-.50963.78221c0,.31312.27721.48377.83433.4884l-.0332.18957c-.671-.00927-1.00267-.27026-1.00267-.66832a1.12442,1.12442,0,0,1,.52624-.87718l-1.13587.0471-.00927-.18725,1.88256-.07568.007.18726C46.02557,57.42833,45.88812,57.438,45.80743,57.44956Z"/><path class="cls-4" d="M50.51691,58.95993c-.61387,0-.89147-.173-.89147-.44554a.77207.77207,0,0,1,.29883-.51929l.13745.10888a.60477.60477,0,0,0-.23706.38416c0,.16833.16833.28686.69959.28686a5.30125,5.30125,0,0,0,.6826-.04517l.01892.18725A5.93807,5.93807,0,0,1,50.51691,58.95993Zm-.05907-1.14976-.1305-.11853c.15174-.10193.31775-.20656.43628-.2776h-.96753v-.1776h1.29957v.161A7.237,7.237,0,0,0,50.45784,57.81017Z"/><path class="cls-4" d="M51.85046,59.05491l-.04749-.18262c.70885-.05945,1.03123-.28454,1.03123-.64245a.375.375,0,0,0-.41234-.39844,6.60157,6.60157,0,0,0-.88915.0973l-.03784-.19227a6.75075,6.75075,0,0,1,.939-.09691.55565.55565,0,0,1,.61387.59032C53.0477,58.69894,52.61143,59.00009,51.85046,59.05491Zm.88182-1.669a4.19117,4.19117,0,0,0-.89379-.22548l.04517-.18261a4.55981,4.55981,0,0,1,.91039.22779Z"/><path class="cls-4" d="M53.58939,58.94333a3.53767,3.53767,0,0,1-.12123-.91734,6.05239,6.05239,0,0,1,.06911-.9629l.19883.005a5.79655,5.79655,0,0,0-.06872.95055,3.6565,3.6565,0,0,0,.11621.88684Zm.839.1139-.10888-.1471c.38416-.21814.41234-.41968.41234-.96483,0-.04981,0-.107-.00232-.17065h-.749V57.599h.74669c-.00464-.19922-.00927-.41968-.01892-.59033h.19188c.00966.17065.01931.39111.02626.59033h.41736v.17567H54.931c.00232.06139.00232.11853.00232.16563C54.93336,58.53061,54.86463,58.81785,54.42836,59.05723ZM55.109,57.4237a1.57819,1.57819,0,0,0-.1471-.35791l.11158-.05945a1.56775,1.56775,0,0,1,.15868.36292Zm.26061-.15637a1.56136,1.56136,0,0,0-.161-.35327l.11351-.05946a1.56383,1.56383,0,0,1,.16833.35791Z"/><path class="cls-4" d="M56.83136,58.04723a2.93728,2.93728,0,0,0,.14478.31041l-.19227.06409a3.27661,3.27661,0,0,1-.16331-.3745h-.99842v-.173h.93664c-.03783-.1139-.07335-.23474-.10424-.36061h-.72777v-.173h.68491c-.02857-.12085-.05212-.24671-.07335-.37451h.20617c.01892.12548.04285.25135.071.37451h.6521v.173h-.60925c.03089.12587.06873.24671.10888.36061h.62855v.173Zm-.071,1.00768c-.63318,0-.927-.15443-.927-.40076a.671.671,0,0,1,.07567-.29149l.18493.03552a.56641.56641,0,0,0-.06138.232c0,.166.25366.24207.7158.24207.05946,0,.15907-.00231.25829-.005v.18262C56.92132,59.05221,56.82441,59.05491,56.76032,59.05491Z"/><rect class="cls-4" x="46.84477" y="30.49143" width="0.31633" height="5.55522" transform="translate(-5.3121 57.33649) rotate(-59.99588)"/><path class="cls-4" d="M33.83887,30.0874l-.15821-.27441,3.748-2.16309a.16032.16032,0,0,1,.1582.00049L41.334,29.813l-.1582.27392-3.668-2.11718Z"/><path class="cls-4" d="M25.68848,34.79492l-.07813-.13525-.15918.00146V34.6582a.15793.15793,0,0,1,.0791-.13672L30.335,31.74414l.1582.27441Z"/><path class="cls-4" d="M25.76758,38.98633h-.31641v-4.3252a.15821.15821,0,0,1,.23731-.13672l3.74511,2.16114-.1582.27441-3.50781-2.0249Z"/><path class="cls-4" d="M37.50781,52.07471a.15787.15787,0,0,1-.0791-.02149L25.53027,45.18213a.15793.15793,0,0,1-.0791-.13672V42.84766a.15821.15821,0,1,1,.31641,0V44.9541l11.582,6.68848v-4.127a.15821.15821,0,0,1,.31641,0V51.9165a.15892.15892,0,0,1-.15821.15821Z"/><path class="cls-4" d="M37.50781,42.77393a.15849.15849,0,0,1-.1582-.15821v-.99511l-4.72949-2.73a.15795.15795,0,1,1,.1582-.27343l4.80859,2.7749a.15871.15871,0,0,1,.07911.13721v1.08642A.15849.15849,0,0,1,37.50781,42.77393Z"/><rect class="cls-4" x="37.13635" y="39.98511" width="5.54467" height="0.31591" transform="translate(-14.73832 25.38251) rotate(-30.05245)"/><path class="cls-4" d="M37.58691,52.05371l-.1582-.27441L49.25,44.9541V42.85059h.31641v2.19482a.15733.15733,0,0,1-.07911.13672Z"/><path class="cls-4" d="M49.56641,38.98682H49.25V34.93213L45.74219,36.957l-.15821-.27344,3.74512-2.16211a.15821.15821,0,0,1,.23731.13672Z"/><path class="cls-4" d="M54.36523,45.89307l-17.0791-9.852c-.5459-.31592-.57129-1.25977-.05761-2.14893.51367-.88965,1.34472-1.3374,1.88964-1.02441l17.07911,9.85253-.15821.27442L38.96,33.14209c-.374-.21924-1.04687.19629-1.458.9082-.41015.71143-.43652,1.49756-.05761,1.7168l17.0791,9.85156Z"/><path class="cls-4" d="M54.75293,45.99316a.76768.76768,0,0,1-.3877-.10009c-.54589-.31543-.57128-1.25879-.05761-2.14893a2.55488,2.55488,0,0,1,.89453-.94092.87586.87586,0,0,1,1.4209.82032,2.56358,2.56358,0,0,1-.36817,1.24511h0A1.98291,1.98291,0,0,1,54.75293,45.99316ZM55.80859,42.936a.918.918,0,0,0-.44824.14111,2.2457,2.2457,0,0,0-.7793.82519c-.41015.71143-.43652,1.49756-.05761,1.71631.377.22266,1.04883-.19726,1.458-.9082h0a2.24417,2.24417,0,0,0,.32519-1.08691.68328.68328,0,0,0-.26758-.62891A.45193.45193,0,0,0,55.80859,42.936Z"/><path class="cls-4" d="M34.083,34.18213l-15.2627-8.81152c-.5459-.31543-.57129-1.25879-.05761-2.14844s1.34179-1.33692,1.88964-1.02393l16.93457,9.7793-.1582.27344L20.49414,22.47217c-.37793-.21973-1.04785.19775-1.458.9082-.41015.71143-.43652,1.49756-.05761,1.7168l15.26269,8.81152Z"/><rect class="cls-4" x="19.26383" y="40.71119" width="19.54657" height="0.31591" transform="translate(-16.56343 20.03571) rotate(-30.05245)"/><path class="cls-4" d="M18.97852,42.99414l-.15821-.27344,35.54492-20.522c.54688-.31494,1.376.13428,1.88965,1.02344.51367.88965.48828,1.833-.05761,2.14844L40.9248,34.188l-.1582-.27344,15.27246-8.81738c.37891-.21924.35254-1.00537-.05761-1.7168-.40918-.71045-1.08106-1.13037-1.458-.90771Z"/><path class="cls-4" d="M20.26465,45.99316a1.98291,1.98291,0,0,1-1.502-1.12451,2.56358,2.56358,0,0,1-.36817-1.24511.87586.87586,0,0,1,1.4209-.82032,2.555,2.555,0,0,1,.89453.94092c.51367.89014.48828,1.8335-.05762,2.14844A.76312.76312,0,0,1,20.26465,45.99316ZM19.209,42.936a.45656.45656,0,0,0-.23046.0581.68474.68474,0,0,0-.26758.6294,2.24417,2.24417,0,0,0,.32519,1.08691h0c.41114.7124,1.084,1.12988,1.458.9082.37891-.21875.35254-1.00488-.05762-1.71631a2.2456,2.2456,0,0,0-.77929-.82519A.91806.91806,0,0,0,19.209,42.936Z"/><path class="cls-4" d="M45.12012,25.38232a.16886.16886,0,0,1-.041-.00537l-.23633-.062a.159.159,0,0,1-.11328-.19287.15526.15526,0,0,1,.19336-.11377l.23828.063a.15816.15816,0,0,1-.041.311Z"/><path class="cls-4" d="M43.89453,25.0835a.17089.17089,0,0,1-.03418-.00391q-.24609-.05346-.49512-.104a.15833.15833,0,0,1-.124-.186.15248.15248,0,0,1,.18652-.12353q.252.05054.501.105a.15814.15814,0,0,1-.03418.3125ZM31.2793,25.04834a.15832.15832,0,0,1-.03321-.313q.2505-.05273.502-.10156a.15534.15534,0,0,1,.18554.12549.15775.15775,0,0,1-.125.18506q-.249.04833-.49609.10058A.1599.1599,0,0,1,31.2793,25.04834Zm11.11816-.25049a.14876.14876,0,0,1-.02539-.002c-.165-.02735-.331-.05322-.499-.07715a.15775.15775,0,0,1-.13379-.1792.15211.15211,0,0,1,.17871-.13428q.25488.03736.50488.07813a.15824.15824,0,0,1-.02539.31445Zm-9.61719-.02637a.15817.15817,0,0,1-.02441-.31445c.167-.02588.33594-.05127.50586-.07471a.15821.15821,0,0,1,.043.31348c-.168.02344-.335.04785-.5.07373Zm8.10743-.17919-.01758-.001c-.167-.01856-.335-.03565-.50293-.05127a.15784.15784,0,0,1-.14258-.17188.16288.16288,0,0,1,.17187-.14306c.16993.01611.33985.0332.50879.05176a.1582.1582,0,0,1-.01757.31543ZM34.291,24.57422a.15816.15816,0,0,1-.01661-.31543c.16895-.01758.33887-.03418.50977-.04883a.15293.15293,0,0,1,.1709.144.15814.15814,0,0,1-.14356.17139c-.16894.01465-.33691.03027-.5039.04785Zm5.07812-.11035-.00976-.00049q-.2505-.01539-.50391-.02588a.15864.15864,0,0,1-.15137-.165.16183.16183,0,0,1,.165-.15137q.25635.01173.50977.02686a.1581.1581,0,0,1-.00977.31592Zm-3.55762-.00977a.158.158,0,0,1-.00781-.31592q.25342-.0139.50977-.02343h.00586a.15825.15825,0,0,1,.00586.3164c-.169.00635-.33692.01416-.50586.02246Zm2.03418-.04346h-.001l-.33887-.002-.168.00049h-.001a.15821.15821,0,0,1-.001-.31641l.1709-.00048.33984.002a.1582.1582,0,0,1-.001.3164Z"/><path class="cls-4" d="M30.04785,25.3418a.15817.15817,0,0,1-.041-.311l.23925-.062a.1552.1552,0,0,1,.19239.11475.15838.15838,0,0,1-.11426.19189l-.23535.061A.16935.16935,0,0,1,30.04785,25.3418Z"/><path class="cls-4" d="M31.40332,26.16064a.19683.19683,0,0,1-.09863-.02636l-1.35352-.7749a.2008.2008,0,0,1-.09375-.12647.198.198,0,0,1,.02832-.15527l.8711-1.29346a.19772.19772,0,0,1,.32812.2207L30.333,25.12207l1.16894.66943a.19768.19768,0,0,1-.09863.36914Z"/><path class="cls-4" d="M53.8457,39.21045a.15594.15594,0,0,1-.09863-.03467.1583.1583,0,0,1-.02441-.22266c.05078-.06347.10058-.127.15039-.19091a.15773.15773,0,1,1,.25.19238c-.04981.06592-.10157.13135-.1543.19678A.15873.15873,0,0,1,53.8457,39.21045Z"/><path class="cls-4" d="M54.56152,38.186a.16316.16316,0,0,1-.08105-.022.1586.1586,0,0,1-.05469-.21679q.126-.21314.23731-.43067a.15789.15789,0,1,1,.28125.14356c-.07618.15088-.15918.30029-.24707.44824A.15763.15763,0,0,1,54.56152,38.186Zm.63282-1.36231a.16755.16755,0,0,1-.05079-.0083.15764.15764,0,0,1-.09863-.20068q.07764-.23219.13965-.46924a.15379.15379,0,0,1,.19336-.11328.15851.15851,0,0,1,.11328.19238q-.06446.2483-.14746.4917A.15649.15649,0,0,1,55.19434,36.82373Zm.3125-1.46777-.01368-.00049a.15814.15814,0,0,1-.14355-.17139c.01367-.16211.02148-.3247.02246-.48779a.1586.1586,0,0,1,.1582-.15723h.001a.15881.15881,0,0,1,.15723.15918c-.001.17188-.00879.34326-.02442.51319A.15779.15779,0,0,1,55.50684,35.356Zm-.05274-1.49951a.159.159,0,0,1-.15625-.13331c-.02539-.16064-.05762-.32031-.09668-.478a.158.158,0,1,1,.30664-.07617q.06153.24975.10254.50439a.15808.15808,0,0,1-.13086.18115A.15559.15559,0,0,1,55.4541,33.85645Zm-.4082-1.44385a.15912.15912,0,0,1-.14649-.09766c-.06152-.15039-.12988-.29932-.20214-.44726a.15788.15788,0,1,1,.2832-.13965c.07617.15381.14648.30957.21191.46582a.15806.15806,0,0,1-.08593.20654A.15426.15426,0,0,1,55.0459,32.4126Zm-.71-1.32324a.159.159,0,0,1-.13184-.07032q-.13476-.20287-.28418-.40234a.15762.15762,0,1,1,.252-.18945q.15526.2058.29589.416a.15858.15858,0,0,1-.13183.2461Z"/><path class="cls-4" d="M53.39941,29.90918a.15819.15819,0,0,1-.11523-.05029c-.05566-.0586-.11035-.11768-.167-.17578a.15815.15815,0,1,1,.22656-.22071c.05859.06006.11523.12012.1709.18067a.15769.15769,0,0,1-.11524.26611Z"/><path class="cls-4" d="M53.20215,31.33447h-.00293a.19746.19746,0,0,1-.19434-.20068l.02344-1.55957a.196.196,0,0,1,.21484-.19385l1.55372.13623a.19824.19824,0,0,1,.17968.21387.19235.19235,0,0,1-.21484.17969l-1.3418-.11768-.02051,1.34717A.19713.19713,0,0,1,53.20215,31.33447Z"/><path class="cls-4" d="M28.73535,43.90674a.16249.16249,0,0,1-.04785-.00733l-.23438-.07714a.15876.15876,0,0,1-.10058-.2002.15571.15571,0,0,1,.20019-.09961l.23047.0752a.15832.15832,0,0,1-.04785.30908Z"/><path class="cls-4" d="M37.50684,45.22412l-.33789-.00146a.15821.15821,0,0,1,.001-.31641h.001l.33594.00146.167-.00048h.001a.1582.1582,0,0,1,.001.3164Zm1.17675-.022a.15826.15826,0,0,1-.00586-.31641c.168-.00635.335-.01416.501-.02246a.145.145,0,0,1,.167.14942.15821.15821,0,0,1-.14941.166q-.252.01392-.50684.02344Zm-2.52246-.00635H36.1543c-.169-.00781-.33789-.0166-.50489-.02637a.15808.15808,0,0,1-.14941-.167.15387.15387,0,0,1,.167-.14844c.167.00977.334.01856.501.02539a.15828.15828,0,0,1-.00684.31641Zm4.03125-.08691a.15828.15828,0,0,1-.01367-.31592c.167-.01465.333-.03027.5-.04736a.16662.16662,0,0,1,.17285.14111.15833.15833,0,0,1-.1416.17334c-.167.01709-.335.03369-.50391.04834Zm-5.54-.01465-.01464-.001q-.25342-.02343-.50391-.05078A.1582.1582,0,0,1,34.169,44.728q.24754.02709.498.05078a.15806.15806,0,0,1-.01465.31543Zm7.043-.1543a.15824.15824,0,0,1-.02148-.31494c.166-.023.331-.04688.49609-.07275a.14958.14958,0,0,1,.18067.13183.15831.15831,0,0,1-.13184.18067c-.167.02587-.334.05078-.502.07373Zm-8.54394-.02344-.02246-.00146q-.252-.03663-.501-.07666a.15883.15883,0,0,1-.13086-.18164.14869.14869,0,0,1,.18164-.13086q.24609.04027.49512.07568a.1583.1583,0,0,1-.02246.31494Zm10.03711-.22216a.15811.15811,0,0,1-.0293-.31348c.165-.03174.32812-.06445.49023-.09912a.15371.15371,0,0,1,.1875.12207.15761.15761,0,0,1-.12109.1875q-.24609.052-.498.1001A.14922.14922,0,0,1,43.18848,44.69434ZM31.66113,44.6626a.15919.15919,0,0,1-.03027-.00293c-.167-.03321-.332-.06738-.49707-.10352a.15771.15771,0,0,1-.12012-.188.1534.1534,0,0,1,.18848-.1206q.2417.05273.48926.10156a.15819.15819,0,0,1-.03028.31348Zm13.00293-.29395a.15809.15809,0,0,1-.03808-.31152c.16308-.041.32519-.083.48437-.12647a.15824.15824,0,0,1,.082.30567c-.16113.04346-.32519.08642-.49023.12744A.14553.14553,0,0,1,44.66406,44.36865Zm-14.47754-.042a.15288.15288,0,0,1-.03906-.00488q-.24609-.06372-.48926-.13135a.15787.15787,0,0,1-.11035-.19482.15513.15513,0,0,1,.19434-.10987q.24022.06666.4834.1294a.15819.15819,0,0,1-.03907.31152Z"/><path class="cls-4" d="M46.12793,43.95508a.15832.15832,0,0,1-.04785-.30908l.2334-.07471a.15829.15829,0,0,1,.0957.30176l-.2334.0747A.16249.16249,0,0,1,46.12793,43.95508Z"/><path class="cls-4" d="M45.55273,45.24951a.20066.20066,0,0,1-.10253-.02832.19809.19809,0,0,1-.06641-.27148l.69531-1.15283-1.20117-.61036a.19785.19785,0,0,1,.17969-.35254l1.39062.70655a.19679.19679,0,0,1,.0791.27832l-.80566,1.335A.19759.19759,0,0,1,45.55273,45.24951Z"/><path class="cls-4" d="M21.72461,29.793a.15656.15656,0,0,1-.1084-.043.15862.15862,0,0,1-.00683-.22363c.05664-.06055.11621-.12012.17578-.17969a.15813.15813,0,0,1,.22265.22461c-.05761.05664-.11328.11426-.168.17187A.15765.15765,0,0,1,21.72461,29.793Z"/><path class="cls-4" d="M20.37305,38.04932a.15829.15829,0,0,1-.1377-.08057c-.085-.1499-.16308-.30078-.2373-.45313a.15833.15833,0,1,1,.28515-.13769q.10548.21972.22754.43555a.15784.15784,0,0,1-.05957.21533A.16389.16389,0,0,1,20.37305,38.04932Zm-.60254-1.376a.15908.15908,0,0,1-.15137-.11133q-.07617-.24683-.13379-.49609a.15825.15825,0,1,1,.3086-.07031q.05419.238.12793.47265a.15886.15886,0,0,1-.1045.19776A.15646.15646,0,0,1,19.77051,36.67334Zm-.27442-1.47559a.159.159,0,0,1-.1582-.14843c-.00781-.13037-.01172-.26026-.01172-.39112l.001-.124a.158.158,0,0,1,.1582-.1543h.00391a.15884.15884,0,0,1,.15429.16211l-.001.11621q0,.186.01172.37159a.1587.1587,0,0,1-.14844.16748Zm.09082-1.498a.18553.18553,0,0,1-.02832-.00244.15885.15885,0,0,1-.12695-.18457q.04688-.25269.11426-.502a.1579.1579,0,1,1,.30469.083q-.06445.23584-.1084.47656A.15745.15745,0,0,1,19.58691,33.69971Zm.44434-1.43409a.161.161,0,0,1-.06445-.01367.15845.15845,0,0,1-.08008-.20849q.10254-.23292.22168-.46192a.15856.15856,0,0,1,.28125.14649c-.07715.14648-.14746.29394-.21387.44336A.15833.15833,0,0,1,20.03125,32.26562Zm.7373-1.30957a.16179.16179,0,0,1-.09082-.02832.15872.15872,0,0,1-.03906-.22021q.145-.20727.30274-.41064a.15832.15832,0,0,1,.25.19433c-.10157.13086-.2002.26367-.293.397A.15814.15814,0,0,1,20.76855,30.95605Z"/><path class="cls-4" d="M21.07031,39.08691a.15856.15856,0,0,1-.125-.061c-.05176-.0669-.10254-.1333-.15136-.2002a.15831.15831,0,0,1,.25585-.18652c.04688.064.09571.12842.14551.19238a.15806.15806,0,0,1-.02832.22217A.1548.1548,0,0,1,21.07031,39.08691Z"/><path class="cls-4" d="M21.07715,39.12158a.22259.22259,0,0,1-.04-.0039l-1.52832-.3125a.19732.19732,0,0,1-.15332-.2334.19515.19515,0,0,1,.2334-.1543l1.31933.27.17285-1.33594a.19383.19383,0,0,1,.22168-.17041.19753.19753,0,0,1,.1709.22119l-.20019,1.54688a.19824.19824,0,0,1-.19629.17236Z"/><path class="cls-4" d="M16.42383,52.90137a.15855.15855,0,0,1-.15821-.16211c.0459-1.91162-.168-2.894-.73828-3.3916-.56543-.49414-1.54492-.57471-3.374-.27881a.158.158,0,0,1-.13184-.27295c1.36914-1.251,1.91407-2.0669,1.87891-2.81641-.03516-.75586-.67187-1.53418-2.19824-2.6875a.15817.15817,0,0,1,.0957-.28418h.00391c1.917.04932,2.89551-.168,3.3916-.73828.49414-.56543.57422-1.543.2793-3.374a.15838.15838,0,0,1,.27343-.13184c1.10743,1.2124,1.86817,1.77051,2.544,1.86572a.15774.15774,0,0,1,.13379.17872.15391.15391,0,0,1-.17871.13476,4.54039,4.54039,0,0,1-2.38574-1.5957c.21582,1.61963.085,2.54394-.42774,3.13037-.52539.603-1.42676.85254-3.14648.85254h-.01661c1.35743,1.07471,1.91016,1.83252,1.94825,2.63476.03613.77735-.43653,1.58252-1.61231,2.71729,1.623-.21484,2.544-.084,3.13086.42725.60449.52783.85449,1.43261.85254,3.16259,1.07422-1.35595,1.832-1.90918,2.63379-1.94677.793-.03077,1.584.436,2.71777,1.61181-.21484-1.61914-.084-2.54346.42774-3.13037.52636-.60352,1.42773-.853,3.14941-.853h.01367a7.73965,7.73965,0,0,1-1.48242-1.44336.158.158,0,1,1,.25586-.18554,8.63963,8.63963,0,0,0,1.793,1.667.15817.15817,0,0,1-.0957.28418h-.00391c-1.919-.04688-2.89551.16846-3.3916.73877-.49317.56543-.57422,1.543-.2793,3.374a.1589.1589,0,0,1-.08789.168.16267.16267,0,0,1-.18555-.03613c-1.21289-1.32862-2.01757-1.88086-2.748-1.88086q-.03516,0-.06739.00146c-.75585.03516-1.53418.67188-2.6875,2.19727A.15676.15676,0,0,1,16.42383,52.90137Z"/></g></g></svg>