<svg xmlns="http://www.w3.org/2000/svg" viewBox="0 0 75 75"><defs><style>.cls-1{fill:none;}.cls-2{fill:#fff;}.cls-3{fill:#666;}.cls-4{fill:#00afca;}</style></defs><title>アセット 2702</title><g id="レイヤー_2" data-name="レイヤー 2"><g id="レイヤー_2-2" data-name="レイヤー 2"><g id="ARC"><path class="cls-1" d="M8.3623,0H66.6377A8.3623,8.3623,0,0,1,75,8.3623V66.6377A8.3623,8.3623,0,0,1,66.6377,75H8.36182A8.36182,8.36182,0,0,1,0,66.63818V8.3623A8.3623,8.3623,0,0,1,8.3623,0Z"/><rect class="cls-2" x="4.99981" y="5.00001" width="65" height="65" rx="3.36207"/><path class="cls-3" d="M66.6377,70.125H8.3623A3.4909,3.4909,0,0,1,4.875,66.63818V8.3623A3.49132,3.49132,0,0,1,8.3623,4.875H66.6377A3.49132,3.49132,0,0,1,70.125,8.3623V66.63818A3.4909,3.4909,0,0,1,66.6377,70.125Zm-58.2754-65A3.24084,3.24084,0,0,0,5.125,8.3623V66.63818A3.24074,3.24074,0,0,0,8.3623,69.875H66.6377a3.24074,3.24074,0,0,0,3.2373-3.23682V8.3623A3.24084,3.24084,0,0,0,66.6377,5.125Z"/></g><polygon class="cls-4" points="37.213 12.719 38.552 15.572 40.996 13.582 40.964 16.734 44.029 16.001 42.633 18.827 45.712 19.497 43.228 21.437 45.712 23.377 42.633 24.047 44.029 26.872 40.964 26.14 40.996 29.291 38.552 27.301 37.213 30.155 35.875 27.301 33.431 29.291 33.463 26.14 30.397 26.872 31.794 24.047 28.714 23.377 31.198 21.437 28.714 19.497 31.794 18.827 30.397 16.001 33.463 16.734 33.431 13.582 35.875 15.572 37.213 12.719"/><polygon class="cls-4" points="21.735 24.371 23.074 27.224 25.518 25.234 25.486 28.386 28.551 27.653 27.155 30.479 30.234 31.149 27.75 33.089 30.234 35.029 27.155 35.699 28.551 38.524 25.486 37.792 25.518 40.943 23.074 38.953 21.735 41.807 20.397 38.953 17.953 40.943 17.985 37.792 14.919 38.524 16.315 35.699 13.236 35.029 15.72 33.089 13.236 31.149 16.315 30.479 14.919 27.653 17.985 28.386 17.953 25.234 20.397 27.224 21.735 24.371"/><polygon class="cls-4" points="53.265 24.371 54.603 27.224 57.047 25.234 57.015 28.386 60.08 27.653 58.684 30.479 61.764 31.149 59.28 33.089 61.764 35.029 58.684 35.699 60.08 38.524 57.015 37.792 57.047 40.943 54.603 38.953 53.265 41.807 51.926 38.953 49.482 40.943 49.514 37.792 46.449 38.524 47.845 35.699 44.765 35.029 47.249 33.089 44.765 31.149 47.845 30.479 46.449 27.653 49.514 28.386 49.482 25.234 51.926 27.224 53.265 24.371"/><path class="cls-4" d="M31.44224,41.67773l5.28867-7.69262a.58524.58524,0,0,1,.96453,0l5.28867,7.69262a.58523.58523,0,0,1-.48226.91679H31.9245A.58524.58524,0,0,1,31.44224,41.67773Z"/><path class="cls-4" d="M42.98411,54.3346l-5.28867,7.69262a.58524.58524,0,0,1-.96453,0L31.44224,54.3346a.58524.58524,0,0,1,.48226-.91679H42.50185A.58523.58523,0,0,1,42.98411,54.3346Z"/><path class="cls-4" d="M34.88546,54.57569V40.76216c0-.19639.262-.3556.58524-.3556h3.485c.32322,0,.58524.15921.58524.3556V54.57569c0,.1964-.262.35561-.58524.35561h-3.485C35.14748,54.9313,34.88546,54.77209,34.88546,54.57569Z"/><path class="cls-4" d="M64.53009,65.44305a.64212.64212,0,1,1,.642.65449.64905.64905,0,0,1-.642-.65449m-.53293,0a1.175,1.175,0,1,0,1.17493-1.17026,1.1601,1.1601,0,0,0-1.17493,1.17026"/><path class="cls-4" d="M61.51687,66.09751a.65461.65461,0,1,1,.642-.65446.64907.64907,0,0,1-.642.65446m0-1.82471a1.17024,1.17024,0,1,0,1.17494,1.17025,1.16013,1.16013,0,0,0-1.17494-1.17025"/><path class="cls-4" d="M59.51166,64.91487h.6077v-.54326h-.6077v-.73209h-.55435v1.83176a1.41159,1.41159,0,0,0,.1076.55307,1.14749,1.14749,0,0,0,.6913.6136l.27456-.4649a.92177.92177,0,0,1-.45645-.39336.8326.8326,0,0,1-.06144-.3216c0-.05662-.00122-.17787-.00122-.17787Z"/><path class="cls-4" d="M62.98381,63.64258a.36073.36073,0,0,0,.72135,0,.36072.36072,0,1,0-.72135,0"/><rect class="cls-4" x="63.07285" y="64.37159" width="0.54326" height="2.1858"/><polygon class="cls-4" points="66.284 66.407 66.207 66.407 66.207 66.38 66.39 66.38 66.39 66.407 66.314 66.407 66.314 66.613 66.284 66.613 66.284 66.407"/><polygon class="cls-4" points="66.513 66.613 66.45 66.424 66.45 66.613 66.419 66.613 66.419 66.381 66.462 66.381 66.528 66.578 66.596 66.381 66.638 66.381 66.638 66.613 66.607 66.613 66.607 66.424 66.544 66.613 66.513 66.613"/></g></g></svg>