<svg xmlns="http://www.w3.org/2000/svg" viewBox="0 0 75 74.999"><defs><style>.cls-2{fill:#f0f8fa}.cls-4{fill:#00afca}</style></defs><g id="レイヤー_2" data-name="レイヤー 2"><g id="レイヤー_2-2" data-name="レイヤー 2"><path d="M8.363 0h58.275A8.361 8.361 0 0175 8.36v58.277A8.362 8.362 0 0166.637 75H8.362A8.361 8.361 0 010 66.638V8.362A8.362 8.362 0 018.363 0z" transform="rotate(90 37.5 37.5)" fill="none"/><path class="cls-2" d="M8.363 5h58.275A3.362 3.362 0 0170 8.36v58.276A3.362 3.362 0 0166.638 70H8.362A3.362 3.362 0 015 66.637V8.362a3.362 3.362 0 013.363-3.363z" transform="rotate(90 37.5 37.5)"/><path d="M66.638 70.124H8.362a3.49 3.49 0 01-3.487-3.486V8.36a3.49 3.49 0 013.487-3.486h58.276a3.49 3.49 0 013.487 3.486v58.277a3.49 3.49 0 01-3.487 3.486zM8.362 5.125a3.24 3.24 0 00-3.237 3.236v58.277a3.24 3.24 0 003.237 3.236h58.276a3.24 3.24 0 003.237-3.236V8.36a3.24 3.24 0 00-3.237-3.236z" fill="#666"/><path class="cls-4" d="M10.973 63.24a1.614 1.614 0 01-.717-.146l.092-.27a1.369 1.369 0 00.621.138.575.575 0 00.64-.609c0-.434-.356-.576-.718-.576a2.595 2.595 0 00-.512.05l.054-1.367h1.332v.274H10.71l-.038.786a1.961 1.961 0 01.28-.02.866.866 0 01.974.835.876.876 0 01-.953.905zm2.757-1.011l-.175.22a8.78 8.78 0 00-.287-.53v1.559h-.28v-1.441a5.087 5.087 0 01-.403.822l-.197-.214a4.452 4.452 0 00.59-1.203h-.543v-.26h.553v-.494a3.56 3.56 0 01-.46.085l-.103-.242a3.386 3.386 0 001.144-.327l.157.22a3.108 3.108 0 01-.458.185v.573h.451v.26h-.45v.146c.167.22.355.48.46.64zm.566-1.385a2.968 2.968 0 01-.396 1.11l-.242-.113a2.624 2.624 0 00.386-1.043zm1.117 1.157a2.2 2.2 0 01-1.513 1.473l-.219-.22a1.93 1.93 0 001.459-1.339zm-.601-1.798v1.83c0 .164-.045.256-.188.281a2.207 2.207 0 01-.39.007l-.044-.267a2.437 2.437 0 00.27.004c.055-.004.072-.029.072-.075v-1.78zm.457.556a4.994 4.994 0 01.342 1.057l-.27.075a4.874 4.874 0 00-.314-1.06zm1.019-.449h.97v1.214h-.97v1.954h-.28V60.31h.28zm.697.498v-.284h-.697v.284zm-.697.2v.295h.697v-.295zm1.79.78v1.227h-1.34v-1.227zm-1.083.515h.816v-.302h-.816zm0 .499h.816v-.317h-.816zm1.714-2.492h.12v2.798c0 .206-.052.327-.243.36a3.314 3.314 0 01-.468.003l-.048-.281a3.42 3.42 0 00.363.007c.088-.007.112-.05.112-.132v-1.541h-.993V60.31h1.157zm-.164.498v-.284h-.717v.284zm-.717.2v.295h.717v-.295zm2.074 2.488a4.313 4.313 0 00-.69-.712l.181-.178a4.429 4.429 0 01.714.701zm.506-1.331v-1.659h.304v1.659zm.648 1.213l-.146-.256a1.304 1.304 0 001.072-1.445v-1.256h.31v1.26a1.576 1.576 0 01-1.236 1.697zm2.85-1.822a4.669 4.669 0 00-.997-.658l.174-.257a5.614 5.614 0 011.024.637zm-.82 1.708l-.092-.298a2.672 2.672 0 002.25-1.723l.225.213a2.918 2.918 0 01-2.383 1.808zm3.825-2.394h1.325a3.006 3.006 0 01-1.868 2.508l-.146-.238a2.564 2.564 0 001.638-2h-1.089a4.698 4.698 0 01-.88 1.131l-.212-.199a4.2 4.2 0 001.085-1.609h.308a4.94 4.94 0 01-.16.406zm1.198-.068a2.337 2.337 0 00-.249-.566l.168-.086a2.252 2.252 0 01.266.57zm.468-.058a2.265 2.265 0 00-.242-.565l.167-.09a2.435 2.435 0 01.26.58zm1.688 2.552l-.109-.256a1.137 1.137 0 001.045-1.185.94.94 0 00-.929-.982c-.14 1.267-.416 2.17-.894 2.17-.359 0-.642-.483-.642-.996a1.454 1.454 0 011.458-1.441 1.197 1.197 0 011.3 1.242 1.42 1.42 0 01-1.229 1.448zm-1.25-1.256c0 .363.172.68.356.68.232 0 .485-.666.601-1.833a1.159 1.159 0 00-.956 1.153zm5.971 1.146l-.178.288a1.677 1.677 0 01-1.427-.89c-.188.45-.574.72-1.386.89l-.174-.256c.846-.146 1.188-.402 1.328-.847h-1.284v-.263h1.345c.017-.118.027-.25.034-.392l.294.007a4.13 4.13 0 01-.038.385h1.445v.263h-1.366a1.443 1.443 0 001.407.815zm-1.154-1.872c0 .125.024.15.126.153.092.004.256.004.355 0 .113-.003.12-.018.126-.21l.26.046c-.027.37-.082.42-.358.424-.124 0-.308.003-.414 0-.303-.003-.368-.082-.368-.413v-.512h-.393c-.072.569-.297.893-1.021 1.089l-.16-.225c.669-.146.856-.412.915-.864h-.639v.384h-.28v-.637h1.27v-.345h.294v.345h1.294v.637h-.29v-.384h-.717zm3.29.584a4.484 4.484 0 00.208.466l-.277.096a4.923 4.923 0 01-.235-.562H35.38v-.26h1.349a7.05 7.05 0 01-.15-.541H35.53v-.26h.987a9.256 9.256 0 01-.106-.562h.297c.027.188.062.377.103.562h.939v.26h-.878c.045.189.1.37.157.54h.905v.26zm-.103 1.512c-.912 0-1.335-.23-1.335-.601a1.044 1.044 0 01.109-.438l.266.054a.874.874 0 00-.088.348c0 .25.365.364 1.03.364.086 0 .23-.004.373-.008v.274a14.68 14.68 0 01-.355.007zm1.708-.932v-1.584h-.488v-.263h1.247v.263h-.475v1.499c.177-.054.348-.107.492-.154l.023.253c-.368.135-.932.328-1.253.43l-.072-.298c.134-.036.325-.085.526-.146zm2.674.74l-.212.256a2.352 2.352 0 01-.853-.683 3.118 3.118 0 01-.95.683l-.198-.242a2.821 2.821 0 00.977-.683 3.712 3.712 0 01-.427-1.035 3.607 3.607 0 01-.27.444l-.225-.181a3.446 3.446 0 00.611-1.577l.284.05a5.36 5.36 0 01-.134.59h1.356v.271h-.341a3.1 3.1 0 01-.496 1.445 2.121 2.121 0 00.878.662zm-1.052-.915a2.74 2.74 0 00.372-1.192h-.792a3.628 3.628 0 00.42 1.192zm2.706.488v-.228h-1.13v-.181h1.13v-.21c-.317.021-.638.028-.898.021l-.058-.181a10.004 10.004 0 002.056-.15l.088.175a8.434 8.434 0 01-.894.114v.23h1.16v.182h-1.16v.228h1.43v.181h-1.43v.24c0 .148-.045.234-.181.255a3.672 3.672 0 01-.502.007l-.038-.22c.12.007.304.007.355.003.055-.003.072-.028.072-.078v-.207h-1.417v-.181zm-.755-1.167v-.15h-.539v-.79h.54v-.146h-.625v-.164h.624v-.17h.256v.17h.626v.164h-.626v.146h.56v.79h-.56v.15h.639v.164h-.639v.152H42.3v-.152h-.659v-.164zm-.317-.612h.317v-.175h-.317zm0 .31h.317v-.182h-.317zm.898-.31v-.175h-.325v.175zm0 .31v-.182h-.325v.181zm1.335-1.047h.116v.238c0 .086.01.104.055.104h.126c.048 0 .051-.011.055-.186l.225.043c-.02.324-.065.363-.256.366h-.178c-.222-.007-.266-.067-.266-.327v-.046h-.413v.018a.524.524 0 01-.276.456l-.226-.129c.195-.107.263-.21.263-.338v-.199h.775zm.557 1.47l-.137.202a2.673 2.673 0 01-.697-.245 2.705 2.705 0 01-.573.242l-.154-.182a2.138 2.138 0 00.523-.188 1.41 1.41 0 01-.342-.349l.188-.075h-.273v-.192h1.058c.01.004.02.007.178.046a1.218 1.218 0 01-.403.556 2.371 2.371 0 00.632.185zm-.837-.296a1.038 1.038 0 00.28-.299h-.611a1.197 1.197 0 00.33.3zm2.217-.306h.229c.502 0 .683.228.683.765a2.558 2.558 0 01-.219 1.164.437.437 0 01-.454.26 1.24 1.24 0 01-.481-.107l.034-.249a1.175 1.175 0 00.41.093.243.243 0 00.239-.121 2.195 2.195 0 00.19-1.04c0-.36-.115-.508-.443-.508-.071 0-.154 0-.243.003a6.899 6.899 0 01-.72 1.933l-.242-.143a6.188 6.188 0 00.676-1.783c-.209.004-.437.014-.676.025l-.014-.256c.273-.015.522-.022.744-.029a7.045 7.045 0 00.11-.79h.29c-.024.257-.061.52-.113.783zm1.257-.242a2.268 2.268 0 00-.246-.587l.167-.089a2.33 2.33 0 01.267.598zm.3 1.712a2.585 2.585 0 00-.46-1.488l.221-.142a2.816 2.816 0 01.53 1.63zm.147-1.83a2.158 2.158 0 00-.25-.572l.168-.093a2.423 2.423 0 01.267.584zm1.443.994h.133c-.041 1.014-.092 1.545-.212 1.64a.361.361 0 01-.211.06c-.096.005-.298-.003-.42-.006l-.038-.278c.11.004.297.011.382.007a.124.124 0 00.079-.024 3.356 3.356 0 00.13-1.143h-.451a6.66 6.66 0 01-.03.203l-.254-.014c.052-.285.113-.801.14-1.15h.615v-.513h-.738v-.252h1.011v1.014h-.652l-.054.456h.57zm1.092 1.302v-.551h-.747v-1.011h.747V61.2c-.297.022-.584.04-.792.054l-.055-.257c.076 0 .161-.003.26-.007a5.669 5.669 0 00.41-.787l.273.082a7.534 7.534 0 01-.39.691c.325-.014.694-.032.994-.05a5.371 5.371 0 00-.33-.399l.2-.128a3.637 3.637 0 01.612.79l-.232.136a3.209 3.209 0 00-.103-.185c-.167.014-.365.028-.567.042v.335h.779v1.01h-.779v.535c.164-.011.321-.021.465-.032a4.667 4.667 0 00-.222-.356l.208-.1a3.467 3.467 0 01.454.797l-.239.104a1.921 1.921 0 00-.085-.214 80.98 80.98 0 01-1.663.146l-.069-.274c.216-.01.54-.032.871-.054zm-.484-.772h.484v-.57h-.484zm1.273 0v-.57h-.509v.57zm3.402-1.253h.15a6.312 6.312 0 01-.287 2.32.42.42 0 01-.276.09c-.123.003-.39 0-.546-.007l-.052-.3c.154.011.407.015.523.011a.177.177 0 00.126-.042 5.748 5.748 0 00.198-1.79h-.997a2.63 2.63 0 01-1.294 2.128l-.232-.224a2.299 2.299 0 001.24-1.904h-1.162v-.282h1.192c.024-.281.028-.566.03-.843l.294.003a11.64 11.64 0 01-.037.84h1.13zm.831 2.206a6.338 6.338 0 01-.112-1.287 9.478 9.478 0 01.109-1.396h.287a10.736 10.736 0 00-.11 1.389 6.595 6.595 0 00.11 1.249zm1.748-.099c-.816 0-1.123-.17-1.123-.505a1.066 1.066 0 01.284-.648l.235.117a.835.835 0 00-.239.492c0 .185.232.274.843.274.165 0 .342-.004.53-.022v.271a5.486 5.486 0 01-.53.021zm-1.051-2.014v-.267h1.56v.267zm3.016-.193h.598v.26h-.663a6.06 6.06 0 01-.666 1.627l-.26-.153a5.309 5.309 0 00.626-1.474h-.588v-.26h.649a5.275 5.275 0 00.11-.65h.303a7 7 0 01-.11.65zm1.7 2.168a2.09 2.09 0 00-.55-.363v.043c0 .438-.174.598-.583.598-.393 0-.704-.207-.704-.51 0-.305.287-.505.735-.505a1.469 1.469 0 01.28.025v-.978h.272v1.05a2.311 2.311 0 01.707.416zm-1.116-.487c-.273 0-.471.092-.471.26 0 .16.194.26.426.26.25 0 .339-.079.339-.35v-.138a1.359 1.359 0 00-.294-.032zm1.188-1.3a2.892 2.892 0 00-.922-.387l.096-.253a3.412 3.412 0 01.952.384zm1.654 2.068c-.484 0-.788-.21-.788-.516 0-.249.222-.445.556-.445a.754.754 0 01.724.62.644.644 0 00.444-.591c0-.349-.277-.584-.779-.584a1.354 1.354 0 00-.604.135 3.859 3.859 0 00-.799.609l-.177-.22c.232-.196.57-.474.798-.695.243-.231.69-.655.953-.929h-1.297v-.267h1.734v.235c-.307.306-.772.737-.997.965a1.265 1.265 0 01.454-.086c.646 0 .994.335.994.83 0 .551-.502.94-1.216.94zm-.242-.722c-.195 0-.297.092-.297.217 0 .16.188.26.509.26a1.358 1.358 0 00.276-.025c-.078-.267-.239-.452-.488-.452zm2.166.822a.43.43 0 11.416-.424.425.425 0 01-.416.424zm0-.712a.285.285 0 10.273.288.279.279 0 00-.273-.288zm-31.493-3.9l-.038-.19c.901-.002 1.28-.246 1.28-.673 0-.265-.18-.498-.576-.498a5.133 5.133 0 00-1.078.197l-.053-.194a6.122 6.122 0 011.16-.2.685.685 0 01.763.693c0 .524-.424.865-1.458.865zm5.784.069c-.614 0-.891-.173-.891-.446a.772.772 0 01.299-.519l.137.109a.605.605 0 00-.237.384c0 .168.168.287.7.287a5.307 5.307 0 00.682-.045l.019.187a5.938 5.938 0 01-.709.043zm-.06-1.15l-.13-.118c.152-.102.318-.207.436-.278h-.967v-.178h1.3v.161a7.238 7.238 0 00-.638.413zm1.346 1.245l-.047-.183c.709-.06 1.031-.284 1.031-.642a.375.375 0 00-.413-.399 6.597 6.597 0 00-.889.098l-.038-.193a6.756 6.756 0 01.94-.097.556.556 0 01.614.59c0 .47-.437.771-1.198.826zm.882-1.67a4.197 4.197 0 00-.894-.225l.045-.182a4.567 4.567 0 01.91.228zm.857 1.558a3.555 3.555 0 01-.121-.917 6.054 6.054 0 01.069-.963l.199.005a5.797 5.797 0 00-.069.95 3.638 3.638 0 00.116.887zm.84.114l-.11-.147c.384-.218.413-.42.413-.965 0-.05 0-.107-.003-.17h-.75v-.176h.748c-.005-.2-.01-.42-.02-.59h.193c.01.17.019.39.026.59h.417v.176h-.412c.002.061.002.118.002.165 0 .59-.069.878-.505 1.117zm.68-1.633a1.595 1.595 0 00-.147-.358l.11-.06a1.586 1.586 0 01.16.363zm.26-.157a1.563 1.563 0 00-.161-.353l.114-.06a1.58 1.58 0 01.168.358zm1.462.78a2.937 2.937 0 00.145.31l-.192.065a3.277 3.277 0 01-.164-.375h-.998v-.173h.937a4.701 4.701 0 01-.105-.36h-.727v-.173h.684a5.686 5.686 0 01-.073-.375h.206a5.1 5.1 0 00.071.375h.652v.173h-.609c.031.125.069.246.109.36h.629v.173zm-.07 1.008c-.634 0-.928-.155-.928-.4a.671.671 0 01.076-.292l.185.035a.566.566 0 00-.062.232c0 .166.254.242.716.242.06 0 .16-.002.258-.005v.183c-.085.002-.182.005-.246.005zm3.28-1.008a2.937 2.937 0 00.145.31l-.192.065a3.21 3.21 0 01-.163-.375h-.999v-.173h.937a4.701 4.701 0 01-.104-.36h-.728v-.173h.685a5.686 5.686 0 01-.074-.375h.207a5.1 5.1 0 00.07.375h.653v.173h-.61c.031.125.07.246.11.36h.628v.173zm-.07 1.008c-.634 0-.928-.155-.928-.4a.671.671 0 01.076-.292l.185.035a.566.566 0 00-.061.232c0 .166.253.242.715.242.06 0 .16-.002.259-.005v.183c-.086.002-.183.005-.247.005zm1.954-.097a1.47 1.47 0 00-.493-.295c-.005.287-.095.39-.363.39-.263 0-.434-.136-.434-.302 0-.173.176-.296.467-.296a.97.97 0 01.147.01c-.007-.243-.021-.603-.021-1.063h.182c0 .143.003.278.003.4h.618v.165h-.614c.005.215.01.396.012.533a1.64 1.64 0 01.595.325zm-.835-.349c-.192 0-.291.054-.291.145 0 .085.107.144.256.144.163 0 .196-.057.196-.277a1.164 1.164 0 00-.16-.012zm1.561.446l-.047-.183c.708-.06 1.03-.284 1.03-.642a.375.375 0 00-.412-.399 6.602 6.602 0 00-.889.098l-.038-.193a6.75 6.75 0 01.94-.097.556.556 0 01.613.59c0 .47-.436.771-1.197.826zm.882-1.67a4.19 4.19 0 00-.894-.225l.045-.182a4.56 4.56 0 01.91.228zm.843.932h-.197a2.41 2.41 0 01-.06-.54 3.913 3.913 0 01.065-.648h.199a3.72 3.72 0 00-.064.64 1.66 1.66 0 00.026.31c.083-.103.197-.236.303-.364l.098.166c-.124.14-.254.294-.37.436zm.315.745l-.12-.162a1.05 1.05 0 00.708-1.156c0-.14-.01-.406-.03-.66h.205c.024.25.034.5.034.657a1.238 1.238 0 01-.797 1.32zm2.215-.104a1.465 1.465 0 00-.493-.295c-.005.287-.095.39-.362.39-.264 0-.434-.136-.434-.302 0-.173.175-.296.467-.296a.962.962 0 01.146.01c-.007-.243-.02-.603-.02-1.063h.182l.002.4h.619v.165h-.614c.005.215.01.396.012.533a1.64 1.64 0 01.595.325zm-.834-.349c-.192 0-.292.054-.292.145 0 .085.107.144.256.144.164 0 .197-.057.197-.277a1.173 1.173 0 00-.161-.012zm2.367.457a6.388 6.388 0 00-1.1-.915c-.076-.052-.104-.097-.104-.147 0-.044.02-.09.102-.149a7.877 7.877 0 001.026-.891l.163.144a9.44 9.44 0 01-.969.828c-.043.03-.06.047-.06.066 0 .021.015.03.053.057a6.683 6.683 0 011.045.856zM20.188 13.9a9.252 9.252 0 00-.56-1.655l.622-.24a11.391 11.391 0 01.632 1.644zm.53 1.99l-.381-.602c1.784-.38 2.462-1.69 2.55-3.35h.74a3.911 3.911 0 01-2.91 3.952zm.765-2.19a9.746 9.746 0 00-.54-1.655l.617-.242a13.493 13.493 0 01.622 1.65zm6.322.833l.159 1.362-.714.066-.154-1.367-1.758.144-.052-.611 1.737-.134-.102-.92-1.475.113-.052-.612 1.455-.113-.113-1.007.704-.067.118 1.023 1.434-.108.041.601-1.403.113.108.92 1.563-.123.036.596zm3.361 1.233l-.596-.432a4.95 4.95 0 001.239-3.294h.724a6.08 6.08 0 01-1.367 3.726zm3.449 0a6.071 6.071 0 01-1.388-3.726h.73a4.642 4.642 0 001.27 3.207zm.144-3.29a.62.62 0 010-1.238.62.62 0 110 1.239zm.005-.924a.309.309 0 10.303.308.306.306 0 00-.303-.308zm3.089 4.348l-.283-.601a2.407 2.407 0 002.148-2.71h-2.23v1.265h-.72v-1.901H40.5c0 2.328-.72 3.572-2.647 3.947zm4.357-1.737v-.725h4.082v.725zm8.296.046l-.349-.545a1.522 1.522 0 001.038-1.182H47.87v-.612h4.21a2.623 2.623 0 01-1.574 2.339zm-1.891 1.712l-.36-.556c.992-.37 1.162-.868 1.162-1.85v-.699h.72v.704a2.184 2.184 0 01-1.522 2.4zm5.417-1.589a8.4 8.4 0 00-.447-1.347l.555-.215a9.126 9.126 0 01.514 1.336zm.483 1.624l-.334-.54a2.574 2.574 0 002.051-2.693h.668a3.22 3.22 0 01-2.385 3.233zm.57-1.788a7.68 7.68 0 00-.441-1.342l.56-.22a8.972 8.972 0 01.504 1.335zm4.303 1.691l-.34-.622a2.75 2.75 0 002.447-2.483h-2.853v-.647h3.418a.61.61 0 11.478.231.543.543 0 01-.185-.03c-.267 1.952-1.11 3.15-2.965 3.55zm3.155-4.43a.3.3 0 10.298.297.3.3 0 00-.298-.298zm-46.481-.457l.69-1.004a.076.076 0 01.127 0l.69 1.004a.076.076 0 01-.063.12h-1.38a.076.076 0 01-.064-.12z"/><rect class="cls-4" x="16.512" y="10.806" width=".608" height="2.223" rx=".076"/><path class="cls-4" d="M11.949 14.188a1.52 1.52 0 01.163-.183.576.576 0 00-.279.093.812.812 0 00-.321.587.37.37 0 00.06.286.215.215 0 00.117.06 1.304 1.304 0 01.26-.843zm.301 1.111a.657.657 0 01-.014-.224 1.56 1.56 0 01.51-1.1.435.435 0 00-.108-.014h-.016c-.131.006-.295.013-.539.33a1.09 1.09 0 00-.212.818.252.252 0 00.105.176.322.322 0 00.274.014zm.805-.764a1.36 1.36 0 01.39-.53.7.7 0 00-.223-.04.5.5 0 00-.209.044 1.248 1.248 0 00-.609 1.083.374.374 0 00.149.372.37.37 0 00.373-.003 1 1 0 01-.024-.384 1.956 1.956 0 01.153-.542zm2.885-.18c-.095-.18-.395-.18-.61-.06-.148.084-.322.273-.472.793-.13.454-.356.436-.603.536-.309.125-.69.29-.734.68h-.002a4.99 4.99 0 00-.018.107.085.085 0 01-.167-.023v-.007l.001-.002.002-.01c.004-.03.014-.092.024-.143a1.79 1.79 0 01-1.15-.71.062.062 0 00-.054-.024l-.032.001h-.001a.065.065 0 00-.055.105q.073.094.153.18v.5a.945.945 0 00.27.497c.091.11.285.196.285.242v.19a.136.136 0 00.135.135h1.559a.136.136 0 00.135-.138c0-.283.107-.314.216-.378.045-.027.091-.054.137-.084a1.462 1.462 0 00.613-1.079c.05-.2.082-.384.128-.577.07-.29.36-.5.24-.73zm-4.455-1.044a3.272 3.272 0 01.798-2.32 1.902 1.902 0 011.378-.563c1.05 0 2.115 1.039 2.116 3.026 0 .06-.002.12-.005.18a2.1 2.1 0 01-1.19-.208 2.51 2.51 0 00-.573-1.745.844.844 0 00-.595-.287.98.98 0 00-.845.612 3.152 3.152 0 00-.293 1.416 2.5 2.5 0 00.025.336.08.08 0 00.103.067h.001a.082.082 0 00.058-.09 2.313 2.313 0 01-.024-.313 2.988 2.988 0 01.275-1.34.836.836 0 01.7-.524.686.686 0 01.477.238 2.352 2.352 0 01.528 1.646l-.001.038-.006.108v.01q-.004.056-.01.11v.005l-.015.115-.001.005-.015.093-.012.06-.006.03-.005.021a.764.764 0 00-.536-.035.982.982 0 00-.603.605 1.788 1.788 0 00-.139.488.683.683 0 00.057.41.276.276 0 00.221.135c.182.02.291-.067.333-.265a2.803 2.803 0 00.055-.547.084.084 0 01.084-.082h.002a.085.085 0 01.083.086 4.488 4.488 0 01-.009.207l-.004.052-.005.064-.016.12a1.867 1.867 0 00.501-.743 2.307 2.307 0 00.364.16.081.081 0 00.1-.042v-.002a.08.08 0 00-.047-.11 2.128 2.128 0 01-.36-.162 3.162 3.162 0 00.147-.775 2.264 2.264 0 001.185.2 3.355 3.355 0 01-.02.17.082.082 0 00.062.09.08.08 0 00.101-.066 3.971 3.971 0 00.036-.542c0-2.094-1.147-3.19-2.28-3.19a2.062 2.062 0 00-1.493.612 3.388 3.388 0 00-.846 2.436 3.932 3.932 0 00.088.789.08.08 0 00.142.032l.001-.002a.08.08 0 00.016-.066 3.806 3.806 0 01-.083-.753zm1.97 44.376a3.737 3.737 0 00-.503-.157 2.008 2.008 0 01.128.7.708.708 0 01-.73.78.652.652 0 01-.692-.702 1.69 1.69 0 01.28-.894h-.506v-.17h.74v.134a1.588 1.588 0 00-.327.923.474.474 0 00.502.526c.337 0 .546-.23.546-.619a1.929 1.929 0 00-.161-.76l.097-.126c.26.064.498.137.687.199zm-.36-.38a1.62 1.62 0 00-.178-.38l.116-.058a1.685 1.685 0 01.19.386zm.317-.033a1.448 1.448 0 00-.173-.374l.116-.062a1.651 1.651 0 01.185.384zm1.255 1.684a1.47 1.47 0 00-.493-.295c-.005.287-.095.39-.363.39-.263 0-.434-.136-.434-.302 0-.173.176-.296.467-.296a.97.97 0 01.147.01c-.007-.243-.02-.603-.02-1.063h.181c0 .143.003.278.003.4h.619v.165h-.614l.012.533a1.64 1.64 0 01.595.325zm-.835-.349c-.192 0-.291.054-.291.145 0 .085.107.144.256.144.164 0 .197-.057.197-.277a1.164 1.164 0 00-.162-.012zm1.514.446l-.047-.183c.709-.06 1.031-.284 1.031-.642a.375.375 0 00-.413-.399 6.597 6.597 0 00-.889.098l-.038-.193a6.756 6.756 0 01.94-.097.556.556 0 01.614.59c0 .47-.437.771-1.198.826zm.882-1.67a4.197 4.197 0 00-.894-.225l.045-.182a4.567 4.567 0 01.91.228zm1.232.131c.054-.002.109-.002.156-.002.353 0 .484.156.484.519a1.693 1.693 0 01-.157.794.306.306 0 01-.32.175.923.923 0 01-.339-.073l.024-.17a.874.874 0 00.29.061.167.167 0 00.165-.08 1.434 1.434 0 00.135-.705c0-.244-.08-.343-.31-.343-.05 0-.107 0-.169.002a4.623 4.623 0 01-.507 1.311l-.176-.095a4.083 4.083 0 00.48-1.211c-.147.002-.309.01-.477.016l-.012-.177.526-.02a4.535 4.535 0 00.074-.526h.208a5.27 5.27 0 01-.075.524zm1.09.977a1.687 1.687 0 00-.325-1.008l.16-.097a1.854 1.854 0 01.372 1.105zm1.64.509a.385.385 0 01-.422-.353c-.017-.102-.029-.201-.038-.27-.017-.104-.05-.161-.128-.161a.524.524 0 00-.316.242 1.264 1.264 0 00-.099.18c-.06.125-.105.22-.178.386l-.175-.07a191.6 191.6 0 00.772-1.888l.193.064c-.188.448-.332.78-.441 1.06a.458.458 0 01.303-.164c.154 0 .223.107.251.266.017.1.029.182.045.286.026.18.112.238.242.238.204 0 .377-.23.441-.688l.17.064c-.07.489-.279.808-.62.808zm-.691-30.406l-.158-.274 11.516-6.65a.153.153 0 01.159 0l11.513 6.65-.158.274-11.434-6.604z"/><path class="cls-4" d="M34.304 23.913a.156.156 0 01-.08-.021l-6.793-3.924a.158.158 0 01-.058-.216.155.155 0 01.216-.058l6.794 3.924a.158.158 0 01-.08.295zm-2.241.634a.156.156 0 01-.079-.022l-8.6-4.966a.158.158 0 01-.057-.216.156.156 0 01.216-.058l8.6 4.967a.158.158 0 01-.08.295zm-3.915-.97a.156.156 0 01-.079-.021l-2.348-1.357a.158.158 0 01-.058-.216.156.156 0 01.216-.057l2.349 1.356a.158.158 0 01-.08.295zm-2.07 5.041a.156.156 0 01-.079-.021l-12.182-7.035a.158.158 0 01-.057-.216.155.155 0 01.216-.058l12.181 7.035a.158.158 0 01-.079.295zm-.364-2.043a.156.156 0 01-.08-.021l-8.643-4.992a.158.158 0 01-.057-.216.155.155 0 01.215-.058l8.644 4.992a.158.158 0 01-.08.295zm5.223 18.743a.153.153 0 01-.08-.021.158.158 0 01-.079-.137V35.108a.158.158 0 01.08-.136l11.513-6.647a.153.153 0 01.158 0 .158.158 0 01.08.137v9.404a.158.158 0 01-.317 0v-9.13l-11.197 6.463v9.687l8.59-4.96a.158.158 0 01.158.273l-8.827 5.098a.153.153 0 01-.08.021z"/><path class="cls-4" d="M30.857 45.297l-11.516-6.65a.158.158 0 01-.08-.136V28.459a.158.158 0 01.08-.137.153.153 0 01.158 0l11.517 6.65-.159.273-11.279-6.513v9.688l11.438 6.603z"/><path class="cls-4" d="M22.3 30.28a.156.156 0 01-.08-.021l-8.637-4.988a.158.158 0 01-.058-.215.156.156 0 01.216-.058l8.638 4.987a.158.158 0 01-.08.295zm0 1.59a.156.156 0 01-.08-.021l-5.225-3.018a.158.158 0 01-.058-.216.156.156 0 01.216-.057l5.226 3.017a.158.158 0 01-.08.295zm-.215 8.338a.156.156 0 01-.08-.021l-6.87-3.967a.158.158 0 01-.057-.216.156.156 0 01.216-.058l6.87 3.967a.158.158 0 01-.079.295zm-.957-2.992a.156.156 0 01-.08-.022l-4.955-2.862a.158.158 0 01-.058-.216.155.155 0 01.216-.057l4.956 2.862a.158.158 0 01-.08.295zm-.955.633a.156.156 0 01-.08-.022l-3.045-1.759a.158.158 0 01-.058-.215.156.156 0 01.216-.058l3.046 1.759a.158.158 0 01-.08.295zm-.753-5.919a.156.156 0 01-.08-.022l-2.292-1.324a.158.158 0 01-.058-.216.156.156 0 01.216-.057l2.293 1.324a.158.158 0 01-.08.295zm31.8 14.93l-15.37-8.887a.952.952 0 01-.414-.878 2.69 2.69 0 011.223-2.12.953.953 0 01.968-.08l15.372 8.887-.158.274-15.372-8.888a.66.66 0 00-.652.08 2.38 2.38 0 00-1.066 1.847.659.659 0 00.257.604l15.372 8.888z"/><path class="cls-4" d="M51.598 46.958a.744.744 0 01-.377-.098.952.952 0 01-.414-.878 2.686 2.686 0 011.223-2.12.852.852 0 011.382.798 2.485 2.485 0 01-.356 1.208 1.925 1.925 0 01-1.458 1.09zM52.619 44a.885.885 0 00-.43.136 2.376 2.376 0 00-1.067 1.846.66.66 0 00.257.605c.363.213 1.008-.191 1.403-.877a2.18 2.18 0 00.315-1.05.659.659 0 00-.257-.604.436.436 0 00-.22-.056zm1.111-11.82a.153.153 0 01-.079-.02l-.213-.124a.158.158 0 11.159-.273l.213.123a.158.158 0 01-.08.295zm-1.077-.621a.153.153 0 01-.079-.022l-.431-.25a.158.158 0 11.158-.273l.431.25a.158.158 0 01-.079.295zm-1.296-.75a.156.156 0 01-.079-.02l-.432-.25a.158.158 0 01-.058-.216.156.156 0 01.216-.057l.433.249a.158.158 0 01-.08.295zm-1.295-.747a.153.153 0 01-.08-.022l-.432-.25a.158.158 0 01-.058-.216.156.156 0 01.216-.057l.433.25a.158.158 0 01-.08.295zm-1.296-.75a.153.153 0 01-.08-.02l-.432-.25a.158.158 0 01-.058-.217.156.156 0 01.216-.057l.433.25a.158.158 0 01-.08.295zm-1.297-.748a.156.156 0 01-.08-.022l-.431-.249a.158.158 0 01-.058-.216.156.156 0 01.216-.057l.432.249a.158.158 0 01-.08.295zm-1.296-.748a.153.153 0 01-.08-.022l-.43-.25a.157.157 0 01-.059-.216.156.156 0 01.216-.057l.432.25a.158.158 0 01-.08.295zm-1.296-.75a.153.153 0 01-.08-.02l-.43-.25a.158.158 0 11.157-.274l.432.25a.158.158 0 01-.08.295zm-1.296-.748a.156.156 0 01-.08-.022l-.43-.249a.158.158 0 01-.058-.216.155.155 0 01.216-.057l.431.249a.158.158 0 01-.079.295zm-1.296-.75a.156.156 0 01-.079-.021l-.214-.123a.158.158 0 01-.057-.216.156.156 0 01.215-.058l.214.123a.158.158 0 01-.079.295z"/><path class="cls-4" d="M52.21 32.567a.197.197 0 01-.044-.39l1.314-.3-.397-1.288a.198.198 0 11.378-.115l.458 1.49a.197.197 0 01-.145.25l-1.52.348a.168.168 0 01-.044.005z"/><path d="M45.537 44.127c-.234.99-1.25 1.848-3.115 2.9 4.457.3 5.215 1.438 4.099 5.794 3.449-2.885 5.69-2.192 7.882 1.7.3-4.457.552-5.716 4.908-4.6-2.885-3.449-2.692-4.803 1.2-6.996-4.458-.3-5.216-1.438-4.1-5.794-3.449 2.885-4.803 2.692-6.996-1.2-.16 2.381-.56 3.707-1.56 4.255" stroke="#00afca" stroke-linecap="round" stroke-linejoin="round" stroke-width=".316" fill="none"/><path class="cls-2" d="M50.414 52.401a.972.972 0 01-.14-.01.99.99 0 01-.835-.812c-.217-1.28-.483-2.017-.789-2.194-.304-.178-1.05-.044-2.224.386a.989.989 0 01-1.135-1.516c.746-1.005 1.082-1.686 1-2.025-.084-.343-.718-.806-1.884-1.376a.988.988 0 01.269-1.863c1.28-.218 2.017-.483 2.194-.789.175-.3.045-1.049-.387-2.223A.989.989 0 0148 38.844c1.005.746 1.691 1.08 2.024.999.344-.084.807-.717 1.377-1.883a.988.988 0 011.863.268c.217 1.279.483 2.018.789 2.195.303.177 1.049.046 2.224-.387a.989.989 0 011.135 1.517c-.746 1.005-1.082 1.685-1 2.024.084.344.718.807 1.884 1.377a.988.988 0 01-.269 1.862c-1.279.218-2.018.484-2.195.79-.175.301-.045 1.05.387 2.223a.989.989 0 01-1.517 1.135c-1.004-.745-1.672-1.089-2.024-1-.343.084-.806.718-1.376 1.884a.988.988 0 01-.888.553zm-2.135-5.065a2.665 2.665 0 011.363.338 2.807 2.807 0 011.124 1.3 2.796 2.796 0 011.445-.93 2.766 2.766 0 011.577.117 2.766 2.766 0 01.333-1.547 2.8 2.8 0 011.302-1.124 2.793 2.793 0 01-.93-1.445 2.76 2.76 0 01.116-1.578 2.755 2.755 0 01-1.547-.333 2.807 2.807 0 01-1.124-1.3 2.802 2.802 0 01-1.446.93 2.77 2.77 0 01-1.578-.117 2.756 2.756 0 01-.333 1.546 2.796 2.796 0 01-1.3 1.124 2.79 2.79 0 01.93 1.446 2.76 2.76 0 01-.117 1.578c.062-.003.124-.005.185-.005z"/><path class="cls-4" d="M50.414 51.571l-.022-.002a.159.159 0 01-.134-.13c-.28-1.641-.624-2.445-1.192-2.773-.563-.327-1.41-.231-2.926.326a.158.158 0 01-.182-.243c.963-1.297 1.293-2.084 1.14-2.715-.156-.637-.83-1.194-2.326-1.927a.158.158 0 01.043-.297c1.642-.28 2.446-.624 2.774-1.19.326-.563.231-1.411-.326-2.928a.158.158 0 01.242-.181c1.297.962 2.08 1.297 2.717 1.138.635-.155 1.193-.829 1.925-2.325a.153.153 0 01.165-.087.159.159 0 01.133.13c.28 1.643.624 2.446 1.192 2.775.561.326 1.41.231 2.926-.327a.159.159 0 01.182.054.157.157 0 010 .189c-.963 1.297-1.293 2.085-1.14 2.715.156.637.83 1.195 2.326 1.927a.158.158 0 01-.043.298c-1.643.28-2.447.624-2.775 1.191-.325.562-.231 1.41.326 2.926a.158.158 0 01-.242.182c-1.298-.963-2.079-1.296-2.716-1.139-.635.154-1.193.828-1.925 2.324a.158.158 0 01-.142.09zm-2.128-3.407a1.822 1.822 0 01.94.229c.604.35.971 1.075 1.258 2.529.688-1.315 1.244-1.905 1.923-2.071.66-.16 1.42.101 2.569.897-.44-1.325-.476-2.13-.136-2.718.35-.604 1.075-.971 2.53-1.259-1.314-.687-1.906-1.243-2.071-1.922-.16-.659.101-1.421.897-2.57-1.326.44-2.132.477-2.717.136-.606-.35-.973-1.075-1.26-2.53-.687 1.314-1.243 1.906-1.923 2.072-.655.156-1.42-.1-2.57-.898.44 1.327.476 2.132.136 2.718-.35.606-1.074.972-2.529 1.26 1.314.687 1.906 1.242 2.071 1.922.16.658-.101 1.42-.897 2.57a5.876 5.876 0 011.78-.365z"/></g></g></svg>