<svg xmlns="http://www.w3.org/2000/svg" viewBox="0 0 75 75"><defs><style>.cls-1{fill:none;}.cls-2{fill:#f0f8fa;}.cls-3{fill:#666;}.cls-4{fill:#00afca;}</style></defs><title>アセット 3702</title><g id="レイヤー_2" data-name="レイヤー 2"><g id="レイヤー_2-2" data-name="レイヤー 2"><rect class="cls-1" width="75" height="75" rx="8.3623" transform="translate(75) rotate(90)"/><rect class="cls-2" x="5.00009" y="5.00011" width="64.99961" height="64.99961" rx="3.36204" transform="translate(74.99982 0.00002) rotate(90)"/><path class="cls-3" d="M66.6377,70.125H8.3623A3.49132,3.49132,0,0,1,4.875,66.6377V8.3623A3.49132,3.49132,0,0,1,8.3623,4.875H66.6377A3.49132,3.49132,0,0,1,70.125,8.3623V66.6377A3.49132,3.49132,0,0,1,66.6377,70.125Zm-58.2754-65A3.24084,3.24084,0,0,0,5.125,8.3623V66.6377A3.24084,3.24084,0,0,0,8.3623,69.875H66.6377a3.24084,3.24084,0,0,0,3.2373-3.2373V8.3623A3.24084,3.24084,0,0,0,66.6377,5.125Z"/><path class="cls-4" d="M25.97378,11.476l1.6691-1.0275a.12327.12327,0,0,1,.18578.08223l.36168,1.92635a.12327.12327,0,0,1-.171.13548l-2.03078-.89885A.12328.12328,0,0,1,25.97378,11.476Z"/><rect class="cls-4" x="23.09831" y="13.89727" width="5.82547" height="0.978" rx="0.12327" transform="translate(2.32807 32.3489) rotate(-66.12517)"/><path class="cls-4" d="M23.82089,13.015l-1.95737-.10178a.12328.12328,0,0,1-.10625-.17317l.796-1.79113a.12327.12327,0,0,1,.21772-.0144l1.16143,1.8929A.12328.12328,0,0,1,23.82089,13.015Z"/><rect class="cls-4" x="22.72242" y="10.79135" width="3.21634" height="0.978" rx="0.12327" transform="translate(-2.30689 14.38975) rotate(-31.53179)"/><rect class="cls-4" x="24.18985" y="11.93396" width="0.978" height="5.83846" rx="0.12327" transform="translate(1.7904 32.3398) rotate(-68.42159)"/><path class="cls-2" d="M22.21338,13.36151a.12322.12322,0,0,1,.04541.00867l5.19995,2.05655a.12349.12349,0,0,1,.06934.16l-.269.68021a.1231.1231,0,0,1-.15991.0693l-5.20019-2.05658a.12346.12346,0,0,1-.06934-.16l.269-.68018a.12359.12359,0,0,1,.11475-.078m0-.33887a.45988.45988,0,0,0-.42969.29172l-.26929.68067a.46335.46335,0,0,0,.25977.5997l5.20044,2.05661.05981.02374.10987.00867A.45985.45985,0,0,0,27.574,16.392l.26929-.68067a.46316.46316,0,0,0-.25976-.59964l-5.2002-2.05664-.05981-.02374-.11011-.00867Z"/><path class="cls-4" d="M27.59136,14.70173l1.09356,1.62659a.12327.12327,0,0,1-.07472.18892l-1.91032.43858a.12327.12327,0,0,1-.14221-.16548l.81675-2.06517A.12328.12328,0,0,1,27.59136,14.70173Z"/><path class="cls-4" d="M32.69477,15.91574l-.23629-.60615c1.34127-.144,2.07638-.80692,2.22541-1.75785H31.50755v-.63743h4.02418A3.00385,3.00385,0,0,1,32.69477,15.91574Zm-.64245-3.59253v-.63743h2.9192v.63743Z"/><path class="cls-4" d="M38.86212,13.40271a6.3933,6.3933,0,0,0-1.50072-.96638l.4216-.58608a7.49542,7.49542,0,0,1,1.55207.91ZM37.74169,15.803l-.22624-.68878a3.95779,3.95779,0,0,0,3.35625-2.42617l.53975.50384A4.56266,4.56266,0,0,1,37.74169,15.803Z"/><path class="cls-4" d="M43.77044,13.61853a6.39647,6.39647,0,0,1-.69882.73511l-.49342-.4525a6.25,6.25,0,0,0,1.61886-2.32848h.71967c-.05135.15443-.11313.31388-.17992.46793h1.84511a4.4095,4.4095,0,0,1-2.80608,3.901l-.34439-.52932a3.47555,3.47555,0,0,0,1.51616-1.02815A6.46073,6.46073,0,0,0,43.77044,13.61853Zm1.55245.23628a3.75845,3.75845,0,0,0,.45211-1.2181H44.43875c-.09266.16447-.19536.32895-.30308.4884A8.52,8.52,0,0,1,45.32289,13.85481Zm.89418-1.86055a2.7166,2.7166,0,0,0-.34439-.67835l.37025-.18494a2.53645,2.53645,0,0,1,.38029.6884Zm.75055.02047a2.40246,2.40246,0,0,0-.33435-.70925l.36524-.19536a2.58947,2.58947,0,0,1,.37489.73009Z"/><path class="cls-4" d="M48.16989,15.74123l-.09227-.65789c.144-.01042.293-.01544.43666-.02587.4525-1.19223.81735-2.34856,1.11039-3.42806h.78105c-.334,1.13587-.68878,2.24085-1.12544,3.37671.65789-.04633,1.3208-.10269,1.92734-.15906a5.37722,5.37722,0,0,0-.66831-1.03317l.55017-.329a6.836,6.836,0,0,1,1.2181,2.23043l-.68376.22624q-.06138-.23918-.15405-.49342C50.36981,15.56634,49.25981,15.66942,48.16989,15.74123Z"/><path class="cls-4" d="M11.35808,63.24012a1.74468,1.74468,0,0,1-.74747-.14594l.09614-.27065a1.47483,1.47483,0,0,0,.64747.139.5889.5889,0,0,0,.66561-.60886c0-.434-.36987-.57642-.74746-.57642a2.81418,2.81418,0,0,0-.53358.0498l.05676-1.36674h1.388v.27412H11.084l-.03939.78646a2.13121,2.13121,0,0,1,.29189-.02124c.527,0,1.01463.27065,1.01463.83626A.89834.89834,0,0,1,11.35808,63.24012Z"/><path class="cls-4" d="M14.37187,62.22935l-.18146.22045c-.071-.1386-.18146-.33821-.29883-.5301v1.55864H13.5997V62.03707a5.03938,5.03938,0,0,1-.42007.822l-.20655-.2135a4.374,4.374,0,0,0,.61581-1.203h-.566v-.25984h.57682v-.49457a3.86387,3.86387,0,0,1-.48068.08532l-.10656-.24207a3.64571,3.64571,0,0,0,1.19223-.32741l.1637.22085a3.32816,3.32816,0,0,1-.47681.18493v.57295h.46948v.25984h-.46948v.14594C14.0657,61.80928,14.26145,62.06912,14.37187,62.22935Zm.59071-1.38451a2.8907,2.8907,0,0,1-.41272,1.11038l-.25251-.11389a2.55474,2.55474,0,0,0,.40192-1.04282Zm1.164,1.15671a2.25316,2.25316,0,0,1-1.57677,1.47331l-.2278-.22045a1.97984,1.97984,0,0,0,1.51964-1.33857ZM15.5,60.20393V62.0336c0,.1637-.04594.256-.19574.28107a2.39193,2.39193,0,0,1-.40539.007l-.04633-.26679a2.64573,2.64573,0,0,0,.28107.00348c.05675-.00348.0749-.02857.0749-.07452V60.20393Zm.47721.5552a4.86026,4.86026,0,0,1,.356,1.0571l-.28146.0749a4.70762,4.70762,0,0,0-.3274-1.06058Z"/><path class="cls-4" d="M17.03664,60.31088h1.01077v1.21347H17.03664v1.954h-.29188V60.31088h.29188Zm.72623.498v-.28454h-.72623v.28454Zm-.72623.19961v.29536h.72623v-.29536Zm1.86518.77951V63.0158H17.50651V61.78805Zm-1.12814.51581h.85055v-.30231h-.85055Zm0,.49844h.85055v-.317h-.85055Zm1.78642-2.49142h.12471v2.79758c0,.20617-.05328.32741-.25289.35945a3.59548,3.59548,0,0,1-.48763.00348l-.0498-.28108a3.71234,3.71234,0,0,0,.37759.007c.09228-.007.11737-.0498.11737-.13165V61.52435H18.35358V60.31088H19.5601Zm-.17065.498v-.28454H18.642v.28454Zm-.74746.19961v.29536h.74746v-.29536Z"/><path class="cls-4" d="M20.87241,63.49648a4.39243,4.39243,0,0,0-.71889-.71194l.18879-.178a4.54353,4.54353,0,0,1,.74361.70114Z"/><path class="cls-4" d="M23.104,63.30769a7.74632,7.74632,0,0,0-1.45593-1.24591l.18879-.22045a7.61131,7.61131,0,0,1,.75442.55867A3.1305,3.1305,0,0,0,23.748,60.99773H21.296v-.2776h2.90067a3.70705,3.70705,0,0,1-1.3737,1.87909c.18841.171.3664.33821.51581.495Z"/><path class="cls-4" d="M24.78308,62.2861a5.76878,5.76878,0,0,0-.32006-.92545l.24555-.09961a7.306,7.306,0,0,1,.34863.92545Zm.2386,1.10691-.14941-.24208a1.8766,1.8766,0,0,0,1.46983-1.92541H26.634A2.15956,2.15956,0,0,1,25.02168,63.393Zm.47682-1.21347a5.17848,5.17848,0,0,0-.30964-.922l.24941-.09962a6.994,6.994,0,0,1,.33435.92545Z"/><path class="cls-4" d="M27.38067,63.36483V60.32517h.31312v1.08529a8.73289,8.73289,0,0,1,1.65129.776l-.17412.2776a7.43786,7.43786,0,0,0-1.47717-.72971v1.63045Z"/><path class="cls-4" d="M31.41952,63.29687l-.11389-.256a1.15327,1.15327,0,0,0,1.08915-1.18529.95766.95766,0,0,0-.96792-.98259c-.14594,1.26714-.43435,2.17135-.93279,2.17135-.37373,0-.66908-.48415-.66908-.99649a1.48593,1.48593,0,0,1,1.52-1.44164,1.22458,1.22458,0,0,1,1.35594,1.242A1.43722,1.43722,0,0,1,31.41952,63.29687Zm-1.30265-1.25632c0,.36292.178.6799.37025.6799.24208,0,.50539-.66562.62624-1.83314A1.1718,1.1718,0,0,0,30.11687,62.04055Z"/><path class="cls-4" d="M34.43988,63.0158V60.20046h.30964v1.0961h1.29223V61.578H34.74952V63.0158h1.559v.28107H33.06271V63.0158Z"/><path class="cls-4" d="M38.58915,62.12587c.01081.1139.01429.24555.01429.39883v.28107H38.315v-.27759c0-.09961,0-.18494-.00347-.25984-.35945.19575-.59805.39883-.59805.57681,0,.20617.21.28107.72623.28107a7.96651,7.96651,0,0,0,.89688-.0498v.27026c-.24208.02162-.58724.03591-.89341.03591-.71194,0-1.01811-.15676-1.01811-.5162,0-.32045.349-.61928.85441-.88646-.039-.19574-.11389-.2525-.23474-.2525a1.25187,1.25187,0,0,0-.6799.28455,2.98562,2.98562,0,0,0-.47721.46639l-.22045-.1888a3.73188,3.73188,0,0,0,.7938-1.19571h-.62315V60.841h.71928a4.02176,4.02176,0,0,0,.13861-.53744h.31311a4.54627,4.54627,0,0,1-.1386.53744h1.08181v.25288h-1.171a3.11527,3.11527,0,0,1-.29535.59072,1.27677,1.27677,0,0,1,.6409-.217c.21351,0,.34864.09613.41968.38068.27759-.12818.58723-.249.90074-.35945l.11042.26717A8.43739,8.43739,0,0,0,38.58915,62.12587Z"/><path class="cls-4" d="M40.55626,63.31116v.16718h-.29883V60.695h.90383a3.427,3.427,0,0,0,.178-.498l.349.06061c-.05367.1278-.12471.28455-.20308.43744H42.7168v2.7833h-.30964v-.16718Zm1.8509-1.84356v-.49844h-1.8509v.49844Zm0,.783v-.5162h-1.8509v.5162Zm0,.79032v-.527h-1.8509v.527Z"/><path class="cls-4" d="M44.21752,63.037v-.2776h-.71541v-.21h.71541v-.22393H43.5272V61.20776h.69032v-.21h-.815v-.21351h.815v-.20308a6.633,6.633,0,0,1-.67256.03938l-.09266-.2135a5.93039,5.93039,0,0,0,1.60882-.20309l.14247.19575a4.99571,4.99571,0,0,1-.70461.14594v.2386h.77217v.21351H44.499v.21h.70461v1.11772H44.499v.22393h.70113v.21H44.499v.25636c.249-.01776.49458-.03552.68685-.05328l.00347.1637a3.59943,3.59943,0,0,0,.47335-1.83661H45.314V61.0263h.35945q.01043-.40075.0108-.82237h.2776c0,.2776-.00386.5552-.01428.82237h.65828a8.04934,8.04934,0,0,1-.2027,2.37752.32087.32087,0,0,1-.22432.07452c-.07837,0-.249,0-.349-.007l-.03166-.27065a2.868,2.868,0,0,0,.29883.00733.09662.09662,0,0,0,.08185-.02857,7.81853,7.81853,0,0,0,.13861-1.88989h-.38068a3.44618,3.44618,0,0,1-.66562,2.19259l-.26678-.12818c.05328-.05715.10308-.11737.14941-.178-.50886.05328-1.28489.12818-1.72271.1637l-.04286-.249C43.59477,63.07989,43.90093,63.05866,44.21752,63.037ZM43.794,61.67415h.42353V61.407H43.794Zm0,.45172h.42353v-.27759H43.794Zm1.132-.45172V61.407h-.427v.26717Zm0,.45172v-.27759h-.427v.27759Z"/><path class="cls-4" d="M49.28144,60.96568a.70514.70514,0,0,0-.31312.13166,1.56157,1.56157,0,0,0-.76522,1.203c0,.48415.427.73317,1.25285.74051l-.04981.28455c-1.01463-.01429-1.50574-.41273-1.50574-1.01078a1.73772,1.73772,0,0,1,.79032-1.34551l-1.705.07142-.01428-.28145,2.82615-.1139.01043.28146C49.60884,60.93364,49.40228,60.94792,49.28144,60.96568Zm.1247,1.0073a2.20879,2.20879,0,0,0-.25636-.58376l.17065-.08532a2.28111,2.28111,0,0,1,.2776.59071Zm.434-.178a2.11,2.11,0,0,0-.256-.566l.17412-.0888a2.59132,2.59132,0,0,1,.27412.57643Z"/><path class="cls-4" d="M51.78637,63.005V61.64211H50.32v-.27065h1.46288v-.45558H50.65436v-.27065h1.12853v-.44477h.30964v.44477H53.2562v.27065H52.09253v.45558h1.47331v.27065H52.09253v.51233h1.178v.27413h-1.178v.66908a2.01729,2.01729,0,0,0,.36987.03552c.16023.00386.961,0,1.13548-.00695l-.05675.28841c-.17451.00348-.954.00695-1.132.00348a1.46987,1.46987,0,0,1-1.37022-.70847,2.51355,2.51355,0,0,1-.48415.76522l-.27412-.15636a2.33,2.33,0,0,0,.68337-1.53045l.28841.04247a3.07573,3.07573,0,0,1-.09614.534A1.29376,1.29376,0,0,0,51.78637,63.005Z"/><path class="cls-4" d="M54.526,62.30386h-.29536a3.57749,3.57749,0,0,1-.08919-.81155,5.89552,5.89552,0,0,1,.09614-.9714h.29883a5.55681,5.55681,0,0,0-.09613.961,2.47726,2.47726,0,0,0,.03938.46253c.12432-.15289.29535-.35211.45558-.54438l.14594.249C54.89591,61.85909,54.70016,62.09035,54.526,62.30386Zm.47334,1.11772-.18146-.24208a1.576,1.576,0,0,0,1.06405-1.737c0-.21-.01428-.60847-.04633-.98915h.30964c.03552.37373.04981.75094.04981.98568A1.85859,1.85859,0,0,1,54.99938,63.42158Z"/><path class="cls-4" d="M57.27613,63.23278v.18185h-.28107V60.42825h2.84739v2.98638h-.29536v-.18185Zm2.271-.27373V60.70237h-2.271v2.25668Zm-.46291-1.79762v1.32775H57.72824V61.16143ZM57.995,62.23282h.815v-.815h-.815Z"/><path class="cls-4" d="M61.70648,63.40382c-.50539,0-.822-.21-.822-.5162,0-.249.23126-.44477.5799-.44477a.77706.77706,0,0,1,.7548.61928.64708.64708,0,0,0,.46253-.59071c0-.349-.288-.58376-.81155-.58376a1.46121,1.46121,0,0,0-.62971.13513,4.019,4.019,0,0,0-.83318.60847l-.18493-.22045c.24207-.19575.59457-.47335.83279-.69419.25288-.23126.71889-.6548.993-.92892H60.6957v-.26679h1.808v.23474c-.32006.30617-.80421.73666-1.03934.96445a1.36929,1.36929,0,0,1,.47373-.08533c.67256,0,1.03548.33474,1.03548.82932C62.97361,63.0158,62.45046,63.40382,61.70648,63.40382Zm-.25251-.72237c-.20308,0-.30964.09228-.30964.217,0,.16023.19575.25984.5301.25984a1.47494,1.47494,0,0,0,.28841-.0251A.54449.54449,0,0,0,61.454,62.68145Z"/><path class="cls-4" d="M63.994,63.50343a.43069.43069,0,1,1,.434-.42354A.43468.43468,0,0,1,63.994,63.50343Zm0-.71194a.28474.28474,0,1,0,.28454.2884A.28419.28419,0,0,0,63.994,62.79149Z"/><path class="cls-4" d="M33.19552,59.05533l-.04749-.18262c.70886-.05946,1.03124-.28455,1.03124-.64245a.37515.37515,0,0,0-.41273-.39844,6.59687,6.59687,0,0,0-.88877.09729l-.03822-.19227a6.7579,6.7579,0,0,1,.939-.09691.556.556,0,0,1,.61427.59033C34.39278,58.69936,33.9565,59.0005,33.19552,59.05533Zm.88182-1.66906a4.19684,4.19684,0,0,0-.89379-.22547l.04518-.18262a4.56745,4.56745,0,0,1,.91039.22779Z"/><path class="cls-4" d="M36.22669,59.00552c-.35327,0-.41736-.0498-.46253-.22316-.01429-.05212-.02819-.12084-.04247-.1776-.02857-.11389-.05714-.15906-.13282-.15906a.37151.37151,0,0,0-.23242.10463c-.04247.03552-.09729.08764-.15405.13976-.11853.11389-.21582.2135-.37682.3745l-.14247-.13513c.33436-.32238.82044-.82043,1.15711-1.17331H34.78736v-.18031h1.349v.1444c-.2108.21814-.40037.415-.55944.58106a.26366.26366,0,0,1,.10927-.02625c.10887,0,.17065.06177.20617.2135.01428.05444.03088.12818.04015.17065.04054.15907.06409.16834.31775.16834.08764,0,.20154-.00464.32007-.01661v.18031C36.44213,59.00282,36.33788,59.00552,36.22669,59.00552Zm-.19459-1.65747a4.0419,4.0419,0,0,0-.8629-.20617l.04247-.1803a4.10981,4.10981,0,0,1,.88452.20887Z"/><path class="cls-4" d="M41.38017,59.02405c-.41041,0-.6521-.18725-.6521-.671v-1.3015h.20617v1.28489c0,.37219.15637.49072.4552.49072a.77527.77527,0,0,0,.69959-.53821l.16331.11158A.94972.94972,0,0,1,41.38017,59.02405Zm.2915-1.29454a1.57666,1.57666,0,0,0-.17567-.39613l.11891-.06139a1.524,1.524,0,0,1,.18957.40539Zm.3081-.1139a1.47937,1.47937,0,0,0-.17529-.39111l.11853-.06177a1.61052,1.61052,0,0,1,.18957.39844Z"/><path class="cls-4" d="M43.55307,58.99317c-.612,0-.91541-.1305-.91541-.45288,0-.22509.22045-.44323.56446-.64013a2.228,2.228,0,0,1-.1637-.89379h.20887a2.25791,2.25791,0,0,0,.12548.80151,5.91559,5.91559,0,0,1,.7324-.29651l.07374.18725c-.77757.249-1.3347.55249-1.3347.82738,0,.20386.19652.27991.70886.27991.21543,0,.48106-.012.678-.03088v.19188C44.03877,58.98351,43.78511,58.99317,43.55307,58.99317Zm.37914-1.58836a1.41893,1.41893,0,0,0-.17065-.38648l.11621-.05945a1.6097,1.6097,0,0,1,.18262.3938Zm.30346-.07838a1.36047,1.36047,0,0,0-.16833-.37682l.11389-.05946a1.5038,1.5038,0,0,1,.18262.38416Z"/><path class="cls-4" d="M45.00282,59.05494l-.04748-.18262c.70885-.05946,1.03123-.28454,1.03123-.64245a.37515.37515,0,0,0-.41272-.39844,6.59709,6.59709,0,0,0-.88878.0973l-.03822-.19227a6.75636,6.75636,0,0,1,.939-.09691.556.556,0,0,1,.61427.59032C46.20008,58.699,45.7638,59.00012,45.00282,59.05494Zm.88183-1.669a4.19714,4.19714,0,0,0-.89379-.22548l.04517-.18262a4.56726,4.56726,0,0,1,.91039.2278Z"/><path class="cls-4" d="M50.36248,58.96962a4.285,4.285,0,0,1-.07567-.8965,8.46867,8.46867,0,0,1,.06138-.96251h.20154a7.88344,7.88344,0,0,0-.06409.96522,4.23042,4.23042,0,0,0,.07143.85556Zm1.69029-.13784a1.335,1.335,0,0,0-.3413-.23474c-.01429.28455-.1305.39613-.40771.39613-.27992,0-.48377-.1305-.48377-.33435,0-.19421.19459-.32239.47643-.32239a1.14487,1.14487,0,0,1,.22316.02124c-.00232-.166-.00734-.39806-.00965-.66137H50.7891v-.173h.71851c-.00232-.14015-.00232-.28455-.00232-.43165h.19189c0,.14478,0,.28918.00232.43165h.42469v.173h-.422c.00463.28918.00927.54747.01158.71581a1.49712,1.49712,0,0,1,.45288.27991Zm-.76793-.334c-.1803,0-.2942.05907-.2942.161,0,.10926.12587.17065.29883.17065.166,0,.23243-.06641.23243-.30115A.89546.89546,0,0,0,51.28484,58.49782Z"/><path class="cls-4" d="M53.26315,59.02405c-.41234,0-.65674-.19-.65674-.67565V57.04189h.21119v1.29223c0,.37218.15637.49071.45752.49071a.77219.77219,0,0,0,.69958-.54052l.16564.1139A.95805.95805,0,0,1,53.26315,59.02405Z"/><path class="cls-4" d="M58.08189,58.93139a1.98747,1.98747,0,0,0-.5853-.327c-.00232.29883-.0973.44786-.4081.44786-.30809,0-.52392-.14208-.52392-.34362s.20656-.33667.56215-.33667a1.26317,1.26317,0,0,1,.166.00966c-.0027-.09267-.005-.20154-.00733-.32509h-.68994v-.1776h.68762c-.00232-.10424-.00463-.2135-.00463-.32972H56.548v-.17528h.72816c-.0027-.12586-.0027-.256-.0027-.39111H57.475c0,.13513,0,.26525.0027.39111h.70885v.17528H57.48c0,.11622.00231.22548.00463.32972h.6521v.1776h-.64979c.00464.14015.00734.26331.00734.36524a2.07376,2.07376,0,0,1,.6992.3579Zm-.97911-.3911c-.22509,0-.3579.0664-.3579.17065,0,.10694.13513.17065.3247.17065.18261,0,.22547-.06139.22547-.29613v-.03089A1.28933,1.28933,0,0,0,57.10278,58.54029Z"/><path class="cls-4" d="M58.96024,59.04992v-.74206c-.10424.11853-.21775.25868-.34362.41968l-.14941-.13513c.18725-.23474.34864-.42431.493-.576v-.29883h-.45519v-.17529h.45519V56.9971h.19922v.82468a1.0784,1.0784,0,0,1,.73974-.3413.63118.63118,0,0,1,.62353.69457c0,.45056-.32933.72546-.98876.7992l-.05444-.1803c.58568-.06409.83935-.27258.83935-.62585a.449.449,0,0,0-.434-.493c-.20385,0-.41466.10192-.72546.417v.95788Z"/><path class="cls-4" d="M13.67189,57.687a3.72,3.72,0,0,0-.50268-.15637,1.99989,1.99989,0,0,1,.12818.69959.70833.70833,0,0,1-.73009.77989.65242.65242,0,0,1-.69264-.7019,1.68976,1.68976,0,0,1,.27991-.89379h-.505v-.17065h.73974v.13513a1.58785,1.58785,0,0,0-.327.92236.47381.47381,0,0,0,.5023.52624c.33667,0,.54554-.23011.54554-.6189a1.9231,1.9231,0,0,0-.16139-.761l.0973-.12548c.26061.06409.49766.13745.68762.19922Zm-.36021-.37914a1.62316,1.62316,0,0,0-.178-.37952l.11621-.05908a1.65393,1.65393,0,0,1,.18957.38648Zm.31774-.0332a1.449,1.449,0,0,0-.17335-.37451l.11621-.06177a1.62063,1.62063,0,0,1,.18494.38415Z"/><path class="cls-4" d="M14.88459,58.958a1.47054,1.47054,0,0,0-.49342-.29419c-.00463.28686-.09459.38878-.36253.38878-.26331,0-.434-.13513-.434-.30076,0-.17335.17528-.29651.46716-.29651a.96178.96178,0,0,1,.14671.00965c-.007-.24208-.02123-.60229-.02123-1.06212h.18262c0,.14208.00232.27721.00232.40037h.61889v.1637h-.61426c.005.21582.00965.39612.012.53357a1.63958,1.63958,0,0,1,.595.3247Zm-.83472-.34863c-.19188,0-.29149.05444-.29149.14478,0,.08532.10656.1444.256.1444.1637,0,.19691-.05676.19691-.27721A1.17118,1.17118,0,0,0,14.04987,58.6094Z"/><path class="cls-4" d="M15.56333,59.05533l-.04749-.18262c.70886-.05946,1.03124-.28455,1.03124-.64245a.375.375,0,0,0-.41234-.39844,6.60143,6.60143,0,0,0-.88916.09729l-.03783-.19227a6.752,6.752,0,0,1,.939-.09691.55567.55567,0,0,1,.61388.59033C16.76059,58.69936,16.32431,59.0005,15.56333,59.05533Zm.88182-1.66906a4.19087,4.19087,0,0,0-.89379-.22547l.04518-.18262a4.56066,4.56066,0,0,1,.91039.22779Z"/><path class="cls-4" d="M17.67677,57.51639c.05482-.00232.10926-.00232.15675-.00232.35327,0,.48338.15636.48338.51929a1.6933,1.6933,0,0,1-.15636.79418.307.307,0,0,1-.32007.17528.921.921,0,0,1-.339-.07336l.02355-.17065a.876.876,0,0,0,.28918.06178.16657.16657,0,0,0,.166-.0807,1.42915,1.42915,0,0,0,.13514-.70422c0-.244-.08031-.34361-.31042-.34361-.0498,0-.10656,0-.16833.00231a4.63395,4.63395,0,0,1-.50732,1.31115l-.17567-.095a4.093,4.093,0,0,0,.47913-1.21154c-.1471.00232-.30809.00966-.47643.01661l-.012-.1776c.19421-.00734.36988-.01429.52624-.01931a4.45367,4.45367,0,0,0,.07336-.52623h.20887A5.27607,5.27607,0,0,1,17.67677,57.51639Zm1.0907.97679a1.6894,1.6894,0,0,0-.3247-1.00768l.15868-.09691a1.85451,1.85451,0,0,1,.37219,1.10459Z"/><path class="cls-4" d="M20.40718,59.00282a.385.385,0,0,1-.422-.35288c-.0166-.10232-.02857-.20154-.03822-.27026-.0166-.10463-.04981-.16139-.12779-.16139a.52186.52186,0,0,0-.31544.24169,1.26416,1.26416,0,0,0-.09961.1803c-.05907.12548-.10424.22046-.1776.38648l-.17567-.071c.21583-.517.517-1.25208.77295-1.88719l.19188.06409c-.18725.44786-.33164.77989-.44091,1.05942a.45865.45865,0,0,1,.30347-.16332c.154,0,.22277.10656.25134.26524.0166.09961.02857.18262.04517.28687.02587.1803.11119.23744.24169.23744.20386,0,.37682-.23011.44091-.68762l.17065.06409C20.957,58.68314,20.74848,59.00282,20.40718,59.00282Z"/><path class="cls-4" d="M49.01465,31.751a.16.16,0,0,1-.12305-.0586l-6.82031-8.43994a.1585.1585,0,0,1,.09863-.25586l10.71973-1.6875a.16045.16045,0,0,1,.14746.05664l6.81836,8.439a.15739.15739,0,0,1,.02344.1582.16149.16149,0,0,1-.123.1001l-10.7168,1.686A.13669.13669,0,0,1,49.01465,31.751ZM42.48926,23.2666l6.59082,8.15576,10.3584-1.62988-6.58985-8.15674Z"/><path class="cls-4" d="M46.06836,39.40625a.15779.15779,0,0,1-.14746-.21484l2.94629-7.65528.29492.11328-2.84766,7.39991,10.35547-1.63184L59.584,29.8501l.29493.11328-2.94629,7.65283a.159.159,0,0,1-.123.09961L46.09277,39.4043A.13761.13761,0,0,1,46.06836,39.40625Z"/><rect class="cls-4" x="42.52479" y="29.6741" width="0.31662" height="10.77094" transform="translate(-12.55121 34.62265) rotate(-38.9462)"/><rect class="cls-4" x="39.31998" y="24.96826" width="4.22919" height="0.31593" transform="matrix(0.35856, -0.9335, 0.9335, 0.35856, 3.12214, 54.79622)"/><path class="cls-4" d="M27.36816,38.22266a.15789.15789,0,0,1-.0791-.02149l-9.27441-5.35351a.15733.15733,0,0,1-.0791-.13672.16049.16049,0,0,1,.0791-.13867l9.27441-5.356a.15793.15793,0,0,1,.15821,0l9.27539,5.356a.1577.1577,0,0,1,0,.27343l-9.27539,5.35547A.1579.1579,0,0,1,27.36816,38.22266Zm-8.96-5.5127,8.96,5.17188,8.959-5.17286-8.959-5.17334Z"/><rect class="cls-4" x="17.93555" y="32.71094" width="0.31641" height="7.39111"/><path class="cls-4" d="M27.36816,46.31934a.15789.15789,0,0,1-.0791-.02149l-7.27344-4.20019.15821-.27344,7.03613,4.063V38.06445h.31641v8.09668a.1589.1589,0,0,1-.15821.15821Z"/><path class="cls-4" d="M27.44727,46.29785l-.15821-.27344,9.19629-5.31054V32.709h.31641v8.0962a.15732.15732,0,0,1-.0791.13671Z"/><path class="cls-4" d="M36.46,32.69336l-.1582-.27344,5.44629-3.144a.52773.52773,0,0,0,.1914-.46045,1.88372,1.88372,0,0,0-.84277-1.46045.53166.53166,0,0,0-.49414-.06494l-6.752,3.89795-.15821-.27442,6.752-3.89746a.80181.80181,0,0,1,.81054.06494,2.19949,2.19949,0,0,1,1.001,1.73438.796.796,0,0,1-.34961.73389Z"/><path class="cls-4" d="M15.16992,44.98535l-.1582-.27344,8.15723-4.71a.52773.52773,0,0,0,.1914-.46045,1.72107,1.72107,0,0,0-.249-.83007c-.33789-.58545-.84668-.832-1.08887-.69532l-8.15723,4.71-.1582-.27343,8.15723-4.71c.44043-.25733,1.11035.10058,1.52051.81054a2.03,2.03,0,0,1,.292.98828.79741.79741,0,0,1-.34961.73438Z"/><path class="cls-4" d="M14.85156,45.06836a1.57969,1.57969,0,0,1-1.20215-.89356,2.03,2.03,0,0,1-.292-.98828.7974.7974,0,0,1,.34961-.73437c.44043-.25293,1.10938.09961,1.52051.811a2.0299,2.0299,0,0,1,.292.98828.796.796,0,0,1-.34961.73389A.62751.62751,0,0,1,14.85156,45.06836ZM14.02148,42.688a.30649.30649,0,0,0-.15625.03857.52637.52637,0,0,0-.1914.46,1.72108,1.72108,0,0,0,.249.83008c.33789.58545.84863.83594,1.08887.69531a.52773.52773,0,0,0,.1914-.46045,1.721,1.721,0,0,0-.249-.83007A1.29552,1.29552,0,0,0,14.02148,42.688Z"/><path class="cls-2" d="M47.209,31.47949A.98878.98878,0,0,1,46.5752,31.25a4.04276,4.04276,0,0,0-1.85743-1.10547.98829.98829,0,0,1,.00489-1.97656h.00488a2.88949,2.88949,0,0,1,1.10058.23486,2.723,2.723,0,0,1,.418-1.4956A2.76823,2.76823,0,0,1,47.585,25.87207a2.76469,2.76469,0,0,1-.8291-1.47461,2.73321,2.73321,0,0,1,.19922-1.54394,2.72767,2.72767,0,0,1-1.499-.41748,2.775,2.775,0,0,1-1.03515-1.33887,2.76788,2.76788,0,0,1-1.47461.8291,2.72722,2.72722,0,0,1-1.54395-.19971,2.72783,2.72783,0,0,1-.418,1.49951,2.76792,2.76792,0,0,1-1.33985,1.03516c.02539.02539.04981.05029.07324.0752a.98848.98848,0,1,1-1.43359,1.36132,6.82459,6.82459,0,0,0-1.53027-1.064.98856.98856,0,0,1,.375-1.84424c1.27246-.14209,2.01367-.36084,2.20507-.65039.1875-.28516.10059-1.02881-.25781-2.21045a.98819.98819,0,0,1,1.5791-1.0459c.94825.791,1.6045,1.16016,1.9336,1.09912.34082-.0625.832-.66015,1.46-1.77685a.98833.98833,0,0,1,1.84375.37451c.14258,1.273.36133,2.01465.65039,2.20508.28515.189,1.03027.10058,2.21-.25781a.98829.98829,0,0,1,1.0459,1.5791c-.791.94775-1.16113,1.59814-1.09961,1.93408.06348.34082.66113.832,1.77734,1.459a.98863.98863,0,0,1-.374,1.84424c-1.27344.14209-2.01563.36133-2.20606.65088-.1875.28516-.10058,1.02881.25782,2.21a.98739.98739,0,0,1-.94532,1.27539Z"/><path class="cls-4" d="M47.209,30.64941a.15835.15835,0,0,1-.10156-.03662,4.28879,4.28879,0,0,0-2.38574-1.29834.1582.1582,0,0,1,.001-.3164h.001A3.86378,3.86378,0,0,1,46.919,30.05273c-.3584-1.333-.34766-2.12939.0205-2.689.37989-.57813,1.11621-.89941,2.56641-1.10156-1.25684-.752-1.80859-1.33448-1.93359-2.01514-.1211-.65869.17968-1.39648,1.02929-2.48389-1.333.3584-2.1289.34815-2.68945-.021-.57715-.38037-.89844-1.11573-1.10059-2.56641-.752,1.25684-1.335,1.80908-2.01562,1.93408-.65918.12354-1.39649-.18115-2.48438-1.02978.3584,1.333.34766,2.12988-.0205,2.68945-.37989.57813-1.11622.89893-2.56641,1.10108a6.468,6.468,0,0,1,1.39062,1.03759.15783.15783,0,1,1-.22851.21778,7.46536,7.46536,0,0,0-1.72559-1.21631.157.157,0,0,1-.07812-.16895.15872.15872,0,0,1,.13769-.126c1.63672-.18311,2.4502-.478,2.80664-1.019.35254-.53662.30762-1.3789-.15722-2.9082a.15845.15845,0,0,1,.25293-.16748c1.22754,1.0249,1.98633,1.39258,2.61621,1.27881.63672-.11719,1.22558-.75049,2.0332-2.187a.15824.15824,0,0,1,.29492.06006c.18262,1.6372.47852,2.45019,1.01856,2.80615.53711.35351,1.3789.30713,2.9082-.15674a.16407.16407,0,0,1,.17774.064.15773.15773,0,0,1-.01075.189c-1.02343,1.22656-1.39355,1.98437-1.27832,2.61621.11719.63672.751,1.22559,2.18653,2.03271a.15787.15787,0,0,1-.05957.29493c-1.6377.1831-2.4502.47851-2.80665,1.01953-.35253.53613-.30761,1.3789.15723,2.90771a.15867.15867,0,0,1-.15137.2041Z"/><path class="cls-2" d="M11.39258,55.417a.98843.98843,0,0,1-.26172-1.9414l27.94629-7.69483L31.207,40.24316A.988.988,0,1,1,32.34375,38.627l9.20215,6.47412,20.73437-5.71a.98874.98874,0,0,1,.99121,1.62159L51.707,53.61426a.98885.98885,0,0,1-1.29687.14062L41.1709,47.25439,11.65625,55.38184A.9844.9844,0,0,1,11.39258,55.417Zm32.24707-8.84228,7.19726,5.064,8.65235-9.42822Z"/><path class="cls-4" d="M11.39355,54.58691a.15813.15813,0,0,1-.042-.31054l.23731-.06543a.158.158,0,1,1,.084.30468l-.2373.06543A.15545.15545,0,0,1,11.39355,54.58691Z"/><path class="cls-4" d="M12.57812,54.26074a.15813.15813,0,0,1-.042-.31054l.47364-.13086a.158.158,0,1,1,.084.30468l-.47363.13086A.15545.15545,0,0,1,12.57812,54.26074Zm1.4209-.3916a.15813.15813,0,0,1-.042-.31055l.47363-.12988a.15373.15373,0,0,1,.19434.11035.1577.1577,0,0,1-.11035.19434l-.47363.12988A.16094.16094,0,0,1,13.999,53.86914Zm1.4209-.39062a.15813.15813,0,0,1-.042-.31055l.47363-.13086a.158.158,0,1,1,.084.30469l-.47364.13086A.15583.15583,0,0,1,15.41992,53.47852Zm1.4209-.39161a.15813.15813,0,0,1-.042-.31054l.47363-.12989a.156.156,0,0,1,.19434.11036.1577.1577,0,0,1-.11035.19433l-.47364.12988A.16092.16092,0,0,1,16.84082,53.08691Zm1.41992-.39062a.15813.15813,0,0,1-.042-.31055l.47363-.13086a.15991.15991,0,0,1,.19434.11035.15813.15813,0,0,1-.11035.19434l-.47364.13086A.15544.15544,0,0,1,18.26074,52.69629Zm1.4209-.3916a.15813.15813,0,0,1-.042-.31055l.47363-.13086a.158.158,0,1,1,.084.30469l-.47364.13086A.15583.15583,0,0,1,19.68164,52.30469Zm1.4209-.3916a.15813.15813,0,0,1-.042-.31055l.47363-.12988a.156.156,0,0,1,.19434.11035.1577.1577,0,0,1-.11036.19433l-.47363.12989A.16134.16134,0,0,1,21.10254,51.91309Zm1.4209-.39063a.15813.15813,0,0,1-.042-.31055l.47363-.13086a.15989.15989,0,0,1,.19433.11036.15812.15812,0,0,1-.11035.19433l-.47363.13086A.15544.15544,0,0,1,22.52344,51.52246Zm1.4209-.3916a.15813.15813,0,0,1-.042-.31055l.47364-.12988a.158.158,0,0,1,.084.30469l-.47363.12988A.16092.16092,0,0,1,23.94434,51.13086Zm1.42089-.39063a.15813.15813,0,0,1-.042-.31054l.47364-.13086a.158.158,0,0,1,.084.30469l-.47363.13086A.15589.15589,0,0,1,25.36523,50.74023Zm1.4209-.3916a.15813.15813,0,0,1-.042-.31054l.47363-.13086a.1599.1599,0,0,1,.19434.11035.15812.15812,0,0,1-.11035.19433l-.47364.13086A.15544.15544,0,0,1,26.78613,50.34863Zm1.4209-.3916a.15813.15813,0,0,1-.042-.31055l.47266-.12988a.158.158,0,0,1,.084.30469l-.47266.12988A.15544.15544,0,0,1,28.207,49.957Zm1.41992-.39062a.15813.15813,0,0,1-.042-.31055l.47363-.13086a.1599.1599,0,0,1,.19434.11035.15813.15813,0,0,1-.11035.19434l-.47363.13086A.156.156,0,0,1,29.627,49.56641Zm1.4209-.39161a.15813.15813,0,0,1-.042-.31054l.47363-.12988a.155.155,0,0,1,.19434.11035.15769.15769,0,0,1-.11035.19433l-.47364.12989A.16126.16126,0,0,1,31.04785,49.1748Zm1.4209-.3916a.15813.15813,0,0,1-.042-.31054l.47363-.12989a.15527.15527,0,0,1,.19434.11035.1577.1577,0,0,1-.11035.19434l-.47364.12988A.16092.16092,0,0,1,32.46875,48.7832Zm1.4209-.39062a.15813.15813,0,0,1-.042-.31055l.47363-.13086a.15989.15989,0,0,1,.19433.11035.15813.15813,0,0,1-.11035.19434l-.47363.13086A.15583.15583,0,0,1,33.88965,48.39258Zm1.4209-.3916a.15813.15813,0,0,1-.042-.31055l.47364-.13037a.158.158,0,0,1,.084.30469l-.47363.13037A.15583.15583,0,0,1,35.31055,48.001Zm1.4209-.39112a.15813.15813,0,0,1-.042-.31054l.47364-.13037a.158.158,0,0,1,.084.30468l-.47363.13037A.15544.15544,0,0,1,36.73145,47.60986Zm1.42089-.39111a.15813.15813,0,0,1-.042-.31055l.47363-.13037a.158.158,0,0,1,.084.30469l-.47363.13037A.15551.15551,0,0,1,38.15234,47.21875Zm1.41993-.39111a.15813.15813,0,0,1-.042-.31055l.47364-.13037a.158.158,0,0,1,.084.30469l-.47363.13037A.15583.15583,0,0,1,39.57227,46.82764Zm1.42089-.39112a.15813.15813,0,0,1-.042-.31054l.47363-.13037a.158.158,0,1,1,.084.30468l-.47363.13037A.15551.15551,0,0,1,40.99316,46.43652Zm1.4209-.3916a.15813.15813,0,0,1-.042-.31054l.47363-.13038a.158.158,0,0,1,.084.30469l-.47364.13037A.15544.15544,0,0,1,42.41406,46.04492Zm1.4209-.39111a.15813.15813,0,0,1-.042-.31055l.47363-.13037a.158.158,0,0,1,.084.30469L43.877,45.648A.15544.15544,0,0,1,43.835,45.65381Zm1.4209-.39111a.15813.15813,0,0,1-.042-.31055l.47363-.13037a.158.158,0,1,1,.084.30468l-.47363.13038A.15583.15583,0,0,1,45.25586,45.2627Zm1.4209-.39112a.15812.15812,0,0,1-.042-.31054l.47363-.13038a.158.158,0,0,1,.084.30469l-.47363.13037A.15544.15544,0,0,1,46.67676,44.87158Zm1.4209-.3916a.15813.15813,0,0,1-.042-.31055l.47364-.13037a.158.158,0,0,1,.084.30469l-.47363.13037A.15544.15544,0,0,1,48.09766,44.48Zm1.42089-.39111a.15813.15813,0,0,1-.042-.31055l.47266-.13037a.158.158,0,0,1,.084.30469l-.47265.13037A.15585.15585,0,0,1,49.51855,44.08887Zm1.41993-.39112a.15813.15813,0,0,1-.042-.31054l.47364-.13037a.158.158,0,1,1,.084.30468l-.47363.13037A.15544.15544,0,0,1,50.93848,43.69775Zm1.4209-.39111a.15813.15813,0,0,1-.042-.31055l.47364-.13037a.158.158,0,0,1,.084.30469l-.47363.13037A.15544.15544,0,0,1,52.35938,43.30664Zm1.42089-.39111a.15813.15813,0,0,1-.042-.31055l.47363-.13037a.158.158,0,0,1,.084.30469l-.47363.13037A.1559.1559,0,0,1,53.78027,42.91553Zm1.4209-.3916a.15813.15813,0,0,1-.042-.31055l.47363-.13037a.158.158,0,0,1,.084.30469l-.47364.13037A.15583.15583,0,0,1,55.20117,42.52393Zm1.4209-.39112a.15813.15813,0,0,1-.042-.31054l.47363-.13038a.158.158,0,0,1,.084.30469l-.47364.13037A.15544.15544,0,0,1,56.62207,42.13281Zm1.4209-.39111a.15813.15813,0,0,1-.042-.31055l.47363-.13037a.158.158,0,1,1,.084.30469l-.47363.13037A.15544.15544,0,0,1,58.043,41.7417Zm1.4209-.39111a.15813.15813,0,0,1-.042-.31055l.47363-.13037a.158.158,0,0,1,.084.30469l-.47363.13037A.15583.15583,0,0,1,59.46387,41.35059Zm1.41992-.39161a.15813.15813,0,0,1-.042-.31054l.47363-.13037a.158.158,0,1,1,.084.30468l-.47363.13037A.15544.15544,0,0,1,60.88379,40.959Z"/><path class="cls-4" d="M62.376,40.68359a.1572.1572,0,0,1-.10743-.042.15893.15893,0,0,1-.0498-.10058.15441.15441,0,0,1-.06543-.09034.1574.1574,0,0,1,.11035-.19384l.23731-.06495a.15437.15437,0,0,1,.17675.07032.15757.15757,0,0,1-.01855.18945l-.167.18115A.15738.15738,0,0,1,62.376,40.68359Z"/><path class="cls-4" d="M51.78711,52.22363a.15485.15485,0,0,1-.10645-.042.15664.15664,0,0,1-.00976-.22266l.32031-.3496a.15759.15759,0,1,1,.23242.21289l-.32031.34961A.15661.15661,0,0,1,51.78711,52.22363Zm.96289-1.0498a.15485.15485,0,0,1-.10645-.042.15664.15664,0,0,1-.00976-.22266l.32031-.34961a.15759.15759,0,1,1,.23242.21289l-.32031.34961A.15659.15659,0,0,1,52.75,51.17383Zm.96191-1.04883a.1582.1582,0,0,1-.11621-.26562l.32129-.34961a.15825.15825,0,1,1,.23242.21484l-.32129.34961A.15921.15921,0,0,1,53.71191,50.125Zm.96289-1.04883a.1582.1582,0,0,1-.11621-.26562l.32129-.34961a.15825.15825,0,1,1,.23242.21484l-.32128.34961A.15925.15925,0,0,1,54.6748,49.07617Zm.9629-1.0498a.15768.15768,0,0,1-.11622-.26465l.32032-.34961a.15792.15792,0,1,1,.23242.21387l-.32031.34961A.15559.15559,0,0,1,55.6377,48.02637Zm.96289-1.04834a.1582.1582,0,0,1-.11621-.26514l.32031-.34961a.15792.15792,0,1,1,.23242.21387l-.32031.34961A.15609.15609,0,0,1,56.60059,46.978Zm.96191-1.04932a.158.158,0,0,1-.11621-.26514l.32129-.34961A.15792.15792,0,1,1,58,45.52783l-.32129.34961A.15608.15608,0,0,1,57.5625,45.92871Zm.96289-1.04883a.158.158,0,0,1-.11621-.26513l.32129-.34961a.15792.15792,0,1,1,.23242.21386l-.32129.34961A.15608.15608,0,0,1,58.52539,44.87988Zm.96289-1.04931a.15821.15821,0,0,1-.11621-.26514l.32031-.34961a.15792.15792,0,1,1,.23242.21387l-.32031.34961A.15608.15608,0,0,1,59.48828,43.83057Zm.96289-1.04883a.15821.15821,0,0,1-.11621-.26514l.32031-.34961a.15793.15793,0,1,1,.23243.21387l-.32032.34961A.15608.15608,0,0,1,60.45117,42.78174Zm.96192-1.04932a.158.158,0,0,1-.11621-.26513l.32128-.34961a.15792.15792,0,1,1,.23243.21386l-.32129.34961A.15609.15609,0,0,1,61.41309,41.73242Z"/><path class="cls-4" d="M50.97852,53.10449a.15706.15706,0,0,1-.09082-.02929l-.20118-.14161a.15769.15769,0,0,1,.18164-.25781l.08789.06152.07325-.08007a.15825.15825,0,0,1,.23242.21484l-.167.18164A.15766.15766,0,0,1,50.97852,53.10449Z"/><path class="cls-4" d="M49.98242,52.40332a.1571.1571,0,0,1-.09082-.0293l-.39746-.27929a.15769.15769,0,1,1,.18164-.25782l.39746.2793a.1581.1581,0,0,1-.09082.28711Zm-1.1914-.83887a.15706.15706,0,0,1-.09082-.02929l-.39747-.2793a.15769.15769,0,0,1,.18165-.25781l.39746.27929a.15811.15811,0,0,1-.09082.28711Zm-1.19239-.83789a.15709.15709,0,0,1-.09082-.02929l-.39648-.2793a.15769.15769,0,1,1,.18164-.25781l.39648.27929a.1581.1581,0,0,1-.09082.28711Zm-1.1914-.83886a.15708.15708,0,0,1-.09082-.0293l-.39746-.27832a.15829.15829,0,0,1-.03809-.2207.156.156,0,0,1,.21973-.03809l.39746.2793a.15811.15811,0,0,1-.09082.28711Zm-1.19141-.83887a.15708.15708,0,0,1-.09082-.0293l-.39746-.2793a.15769.15769,0,1,1,.18164-.25781l.39746.2793a.1581.1581,0,0,1-.09082.28711Zm-1.19238-.83789a.15708.15708,0,0,1-.09082-.0293l-.39746-.2793a.15809.15809,0,0,1,.18164-.25879l.39746.28028a.15811.15811,0,0,1-.09082.28711ZM42.832,47.37207a.15652.15652,0,0,1-.09082-.02881l-.39746-.2793a.15808.15808,0,0,1,.18164-.25878l.39746.27929a.15764.15764,0,0,1,.03809.22022A.15593.15593,0,0,1,42.832,47.37207Zm-1.19141-.83838a.15656.15656,0,0,1-.09082-.02881l-.39746-.27929a.15809.15809,0,0,1,.18164-.25879l.39747.27929a.15765.15765,0,0,1,.03808.22022A.15592.15592,0,0,1,41.64062,46.53369Zm-1.19238-.83838a.15647.15647,0,0,1-.09082-.02881L39.96,45.38672a.15809.15809,0,0,1,.18164-.25879l.39746.27978a.15764.15764,0,0,1,.03809.22022A.15589.15589,0,0,1,40.44824,45.69531Zm-1.1914-.83838a.15645.15645,0,0,1-.09082-.02881l-.39747-.27978a.15809.15809,0,0,1,.18165-.25879l.39746.27979a.15763.15763,0,0,1,.03808.22021A.15589.15589,0,0,1,39.25684,44.85693Zm-1.19141-.83886a.15652.15652,0,0,1-.09082-.02881l-.39746-.2793a.15809.15809,0,0,1,.18164-.25879l.39746.2793a.15763.15763,0,0,1,.03809.22021A.15593.15593,0,0,1,38.06543,44.01807Zm-1.19238-.83838a.15652.15652,0,0,1-.09082-.02881l-.39746-.2793a.15809.15809,0,0,1,.18164-.25879l.39746.2793a.15763.15763,0,0,1,.03808.22021A.1559.1559,0,0,1,36.87305,43.17969Zm-1.19141-.83838a.15652.15652,0,0,1-.09082-.02881l-.39746-.27979a.15808.15808,0,0,1,.18164-.25878l.39746.27978a.15764.15764,0,0,1,.03809.22022A.15593.15593,0,0,1,35.68164,42.34131Zm-1.19238-.83838a.15652.15652,0,0,1-.09082-.02881l-.39649-.27978a.15809.15809,0,0,1,.18164-.25879l.39649.27978a.15829.15829,0,0,1,.03808.22071A.1567.1567,0,0,1,34.48926,41.50293Zm-1.19141-.83887a.15647.15647,0,0,1-.09082-.02881l-.39746-.27929a.15809.15809,0,0,1,.18164-.25879l.39746.27929a.158.158,0,0,1-.09082.2876Z"/><path class="cls-4" d="M32.10645,39.82568a.15656.15656,0,0,1-.09083-.0288l-.20117-.14161a.15809.15809,0,0,1,.18164-.25879l.20118.14161a.15764.15764,0,0,1,.03808.22021A.15589.15589,0,0,1,32.10645,39.82568Z"/><path class="cls-4" d="M32.22852,41.24951a.19768.19768,0,0,1-.19336-.15674l-.32325-1.52588a.1967.1967,0,0,1,.167-.23681l1.54492-.21143a.19276.19276,0,0,1,.22265.16895.198.198,0,0,1-.16992.22265l-1.334.18262.2793,1.31787a.19791.19791,0,0,1-.15235.23438A.19517.19517,0,0,1,32.22852,41.24951Z"/></g></g></svg>