<svg xmlns="http://www.w3.org/2000/svg" viewBox="0 0 75 75"><defs><style>.cls-4{fill:#00afca}</style></defs><g id="レイヤー_2" data-name="レイヤー 2"><g id="レイヤー_2-2" data-name="レイヤー 2"><g id="ARC"><path d="M8.362 0h58.276A8.362 8.362 0 0175 8.362v58.276A8.362 8.362 0 0166.638 75H8.362A8.362 8.362 0 010 66.638V8.362A8.362 8.362 0 018.362 0z" fill="none"/><rect x="5" y="5" width="65" height="65" rx="3.362" fill="#fff"/><path d="M66.638 70.125H8.362a3.49 3.49 0 01-3.487-3.487V8.362a3.491 3.491 0 013.487-3.487h58.276a3.491 3.491 0 013.487 3.487v58.276a3.49 3.49 0 01-3.487 3.487zm-58.276-65a3.24 3.24 0 00-3.237 3.237v58.276a3.24 3.24 0 003.237 3.237h58.276a3.24 3.24 0 003.237-3.237V8.362a3.24 3.24 0 00-3.237-3.237z" fill="#666"/></g><path class="cls-4" d="M37.213 12.719l1.339 2.853 2.444-1.99-.032 3.152 3.065-.733-1.396 2.826 3.079.67-2.484 1.94 2.484 1.94-3.079.67 1.396 2.825-3.065-.732.032 3.151-2.444-1.99-1.339 2.854-1.338-2.854-2.444 1.99.032-3.151-3.066.732 1.397-2.825-3.08-.67 2.484-1.94-2.484-1.94 3.08-.67-1.397-2.826 3.066.733-.032-3.152 2.444 1.99 1.338-2.853zM21.735 24.371l1.339 2.853 2.444-1.99-.032 3.152 3.065-.733-1.396 2.826 3.079.67-2.484 1.94 2.484 1.94-3.079.67 1.396 2.825-3.065-.732.032 3.151-2.444-1.99-1.339 2.854-1.338-2.854-2.444 1.99.032-3.151-3.066.732 1.396-2.825-3.079-.67 2.484-1.94-2.484-1.94 3.079-.67-1.396-2.826 3.066.733-.032-3.152 2.444 1.99 1.338-2.853zM53.265 24.371l1.338 2.853 2.444-1.99-.032 3.152 3.065-.733-1.396 2.826 3.08.67-2.484 1.94 2.484 1.94-3.08.67 1.396 2.825-3.065-.732.032 3.151-2.444-1.99-1.338 2.854-1.339-2.854-2.444 1.99.032-3.151-3.065.732 1.396-2.825-3.08-.67 2.484-1.94-2.484-1.94 3.08-.67-1.396-2.826 3.065.733-.032-3.152 2.444 1.99 1.339-2.853zM31.442 41.678l5.289-7.693a.585.585 0 01.964 0l5.29 7.693a.585.585 0 01-.483.917H31.924a.585.585 0 01-.482-.917zM42.984 54.335l-5.289 7.692a.585.585 0 01-.964 0l-5.289-7.692a.585.585 0 01.483-.917h10.577a.585.585 0 01.482.917z"/><path class="cls-4" d="M34.885 54.576V40.762c0-.196.262-.355.586-.355h3.485c.323 0 .585.159.585.355v13.814c0 .196-.262.355-.585.355H35.47c-.324 0-.586-.159-.586-.355zM64.53 65.443a.642.642 0 11.642.655.649.649 0 01-.642-.655m-.533 0a1.175 1.175 0 101.175-1.17 1.16 1.16 0 00-1.175 1.17M61.517 66.098a.655.655 0 11.642-.655.65.65 0 01-.642.655m0-1.825a1.17 1.17 0 101.175 1.17 1.16 1.16 0 00-1.175-1.17M59.512 64.915h.607v-.543h-.607v-.732h-.555v1.831a1.412 1.412 0 00.108.553 1.147 1.147 0 00.691.614l.275-.465a.922.922 0 01-.457-.393.833.833 0 01-.061-.322l-.001-.178zM62.984 63.643a.36.36 0 00.721 0 .36.36 0 10-.721 0M63.073 64.372h.543v2.186h-.543zM66.284 66.407h-.077v-.027h.183v.027h-.076v.206h-.03v-.206zM66.513 66.613l-.063-.189v.189h-.031v-.232h.043l.066.197.068-.197h.042v.232h-.031v-.189l-.063.189h-.031z"/></g></g></svg>