<svg xmlns="http://www.w3.org/2000/svg" viewBox="0 0 75 75"><defs><style>.cls-4{fill:#00afca}</style></defs><g id="レイヤー_2" data-name="レイヤー 2"><g id="レイヤー_2-2" data-name="レイヤー 2"><g id="ARC"><path d="M8.362 0H66.64A8.361 8.361 0 0175 8.361v58.277A8.362 8.362 0 0166.638 75H8.362A8.362 8.362 0 010 66.638V8.362A8.362 8.362 0 018.362 0z" fill="none"/><rect x="5" y="5" width="65" height="65" rx="3.362" fill="#fff"/><path d="M66.638 70.125H8.362a3.491 3.491 0 01-3.487-3.487V8.36a3.49 3.49 0 013.487-3.486h58.276a3.49 3.49 0 013.487 3.486v58.277a3.491 3.491 0 01-3.487 3.487zm-58.276-65a3.24 3.24 0 00-3.237 3.236v58.277a3.24 3.24 0 003.237 3.237h58.276a3.24 3.24 0 003.237-3.237V8.36a3.24 3.24 0 00-3.237-3.236z" fill="#666"/></g><path class="cls-4" d="M19.33 49.405a8.554 8.554 0 01.399-1.323 3.244 3.244 0 00-1.202 1.14 4.57 4.57 0 00-.244 3.76 2.088 2.088 0 00.983 1.318 1.214 1.214 0 00.744.03 7.34 7.34 0 01-.68-4.925zm4.182 4.956a3.698 3.698 0 01-.607-1.112c-.92-2.672-.914-5.042-.01-6.826a2.451 2.451 0 00-.588.184 2.204 2.204 0 00-.081.04c-.658.34-1.476.765-1.964 2.965a6.14 6.14 0 00.86 4.679 1.422 1.422 0 00.96.65 1.81 1.81 0 001.43-.58zm2.292-5.817a7.655 7.655 0 01.723-3.632 3.939 3.939 0 00-1.228.33 2.814 2.814 0 00-.96.719c-1.35 1.577-1.539 4.055-.532 6.977a2.107 2.107 0 001.642 1.542 2.082 2.082 0 001.897-.904 5.626 5.626 0 01-1.037-1.898 11.014 11.014 0 01-.505-3.134zm14.294-7.781c-.912-.698-2.445.015-3.255 1.146-.558.778-.996 2.154-.522 5.169.413 2.627-.781 3.068-1.804 4.167-1.277 1.371-2.834 3.125-2.127 5.224l-.009.003c.079.292.163.58.164.584a.477.477 0 01-.91.283l-.005-.013-.007-.025-.004-.012-.015-.053-.002-.005a23.408 23.408 0 01-.212-.783 10.081 10.081 0 01-7.563-.883.351.351 0 00-.33 0 2.351 2.351 0 01-.161.083l-.007.003a.368.368 0 00-.03.664q.598.307 1.213.556l1.19 2.551c.434.932 1.822 1.552 2.554 1.897s1.923.318 2.034.557l.54 1.159a.862.862 0 00.78.497l9.72.01a.862.862 0 00.761-1.267l-1.798-3.362c-.98-1.808-.463-2.237-.022-2.88.168-.245.339-.491.5-.757h.001c.709-1.1 1.522-2.957.559-6.963l-.001-.003c-.217-1.144-.496-2.155-.717-3.25-.332-1.643.652-3.404-.515-4.297zm-25.223 5.27c-2.308-4.899-2.837-9.908-1.45-13.742a10.71 10.71 0 015.693-6.151c5.363-2.501 13.268.27 18 10.408.146.313.28.62.406.926a11.822 11.822 0 01-6.564 1.772c-1.614-3.611-4.32-6.493-7.083-7.535a4.751 4.751 0 00-3.716-.053c-1.737.81-2.753 2.634-2.86 5.136a17.747 17.747 0 001.875 7.926 14.076 14.076 0 00.926 1.655.452.452 0 00.685.094l.007-.006a.46.46 0 00.08-.594 13.016 13.016 0 01-.863-1.539 16.826 16.826 0 01-1.79-7.496c.066-1.515.523-3.498 2.329-4.34a3.865 3.865 0 013.002.08c2.566.967 5.1 3.705 6.611 7.146.029.065.055.13.083.195q.12.282.23.569l.02.054q.112.29.213.584l.008.024q.106.31.2.622l.007.029a17.39 17.39 0 01.227.844l.039.163c.01.041.016.082.025.124a4.302 4.302 0 00-2.818 1.092c-1.201 1.172-1.63 2.356-1.64 4.528a10.07 10.07 0 00.455 2.819 3.846 3.846 0 001.262 1.955 1.557 1.557 0 001.455.167 1.592 1.592 0 001.067-2.144 15.79 15.79 0 00-1.023-2.926.471.471 0 01.237-.62l.01-.004a.476.476 0 01.629.244 25.248 25.248 0 01.551 1.352 16.7 16.7 0 01.33.991 10.512 10.512 0 00.79-4.986 12.989 12.989 0 002.236-.048.457.457 0 00.41-.455v-.01a.455.455 0 00-.505-.45 11.985 11.985 0 01-2.225.033 17.805 17.805 0 00-1.095-4.305 12.75 12.75 0 006.522-1.804c.11.304.21.609.304.913a.463.463 0 00.532.317l.009-.001a.453.453 0 00.349-.58 22.359 22.359 0 00-1.104-2.848C32.966 25.473 24.507 22.61 18.728 25.304a11.612 11.612 0 00-6.17 6.673c-1.49 4.123-.965 9.255 1.483 14.448a22.137 22.137 0 002.326 3.814.451.451 0 00.8-.171l.003-.013a.455.455 0 00-.076-.375 21.435 21.435 0 01-2.219-3.648z"/><path d="M56.779 25.773a11.612 11.612 0 00-9.078-.437 17.716 17.716 0 00-8.776 7.887.46.46 0 00-.008.454l.005.01a.454.454 0 00.787.024 17.077 17.077 0 018.31-7.51 10.71 10.71 0 018.37.407c5.363 2.501 8.321 10.34 3.597 20.48-.145.313-.296.613-.448.906a11.822 11.822 0 01-5.577-3.89c1.729-3.557 2.198-7.482 1.22-10.268a4.751 4.751 0 00-2.349-2.881c-1.737-.81-3.787-.416-5.773 1.11a17.748 17.748 0 00-4.866 6.531 10.52 10.52 0 00-.262.62.458.458 0 00.146.525.46.46 0 00.71-.193c.077-.195.158-.383.242-.563a16.827 16.827 0 014.592-6.19c1.202-.923 3.015-1.847 4.82-1.005h.002a3.865 3.865 0 011.868 2.351c.908 2.588.44 6.288-1.225 9.658-.031.064-.064.125-.096.188q-.14.274-.288.542l-.028.052q-.152.272-.312.537l-.013.022q-.17.28-.348.552l-.017.025c-.097.148-.197.293-.299.437q-.1.142-.202.28l-.1.134c-.025.034-.052.065-.078.098a4.302 4.302 0 00-2.648-1.456c-1.67-.167-2.853.266-4.523 1.655a9.176 9.176 0 00-.9.89l-.002.01a14.541 14.541 0 01.456 4.942 2.047 2.047 0 001.028-.798 15.789 15.789 0 001.584-2.664.471.471 0 01.627-.216l.01.004a.476.476 0 01.217.639 25.236 25.236 0 01-.682 1.291 14.131 14.131 0 01-.547.89 10.513 10.513 0 004.328-2.6 12.993 12.993 0 001.473 1.682.458.458 0 00.613.021l.007-.006a.455.455 0 00.02-.676 11.983 11.983 0 01-1.455-1.683 17.81 17.81 0 002.594-3.606 12.75 12.75 0 005.574 3.836c-.162.28-.33.553-.504.82a.463.463 0 00.099.611l.007.006a.453.453 0 00.668-.104 22.356 22.356 0 001.473-2.677c4.98-10.689 1.735-19.01-4.043-21.704zM42.99 46.623c.19-.19.373-.358.533-.491a7.655 7.655 0 013.247-1.781 3.939 3.939 0 00-1.042-.73 2.814 2.814 0 00-1.168-.273 4.703 4.703 0 00-2.02.452 3.261 3.261 0 00.01.868c.094.468.2.921.312 1.401l.128.554zm12.712 3.7c-.955.073-2.29.621-4.295 2.922-1.747 2.006-2.853 1.375-4.352 1.297a8.446 8.446 0 00-3.911.436 8.03 8.03 0 01-.71 1.368l-.004.006c-.082.132-.164.258-.244.379l-.427.663a4.363 4.363 0 00.269.573c.109.199 1.598 2.871 2.458 4.408a.741.741 0 001.18.157 1.842 1.842 0 011.42-.504c.295-.03.594-.057.901-.103 1.299-.164 3.244-.735 5.694-4.048l.001-.002c.737-.902 1.333-1.765 2.03-2.638 1.045-1.311 3.026-1.69 2.96-3.157-.052-1.147-1.583-1.864-2.97-1.757z" fill="#a9d8e5"/><path class="cls-4" d="M29.926 21.653l-7.074-.079a.444.444 0 01-.408-.607l2.607-6.577a.444.444 0 01.78-.084l4.468 6.656a.444.444 0 01-.373.69z"/><path class="cls-4" d="M27.696 19.964l-2.047-2.875a20.247 20.247 0 0123.7 0l-2.046 2.875a16.719 16.719 0 00-19.607 0z"/><path class="cls-4" d="M45.074 21.653l7.074-.079a.444.444 0 00.407-.607L49.95 14.39a.444.444 0 00-.781-.084L44.7 20.962a.444.444 0 00.374.69zM64.53 65.443a.642.642 0 11.642.654.649.649 0 01-.642-.654m-.533 0a1.175 1.175 0 101.175-1.17 1.16 1.16 0 00-1.175 1.17M61.517 66.097a.655.655 0 11.642-.654.65.65 0 01-.642.654m0-1.825a1.17 1.17 0 101.175 1.17 1.16 1.16 0 00-1.175-1.17M59.512 64.915h.607v-.544h-.607v-.732h-.555v1.832a1.412 1.412 0 00.108.553 1.147 1.147 0 00.691.614l.275-.465a.922.922 0 01-.457-.394.833.833 0 01-.061-.321l-.001-.178zM62.984 63.642a.36.36 0 00.721 0 .36.36 0 10-.721 0M63.073 64.371h.543v2.186h-.543zM66.284 66.407h-.077v-.027h.183v.027h-.076v.206h-.03v-.206zM66.513 66.613l-.063-.189v.189h-.031v-.233h.043l.066.198.068-.198h.042v.233h-.031v-.189l-.063.189h-.031z"/></g></g></svg>