<svg xmlns="http://www.w3.org/2000/svg" viewBox="0 0 75 75"><defs><style>.cls-4{fill:#00afca}</style></defs><g id="レイヤー_2" data-name="レイヤー 2"><g id="レイヤー_2-2" data-name="レイヤー 2"><g id="ARC"><rect width="75" height="75" rx="8.362" fill="none"/><rect x="5" y="5" width="65" height="65" rx="3.362" fill="#fff"/><path d="M66.638 70.125H8.362a3.49 3.49 0 01-3.487-3.486V8.362a3.491 3.491 0 013.487-3.487h58.276a3.491 3.491 0 013.487 3.487V66.64a3.49 3.49 0 01-3.487 3.486zm-58.276-65a3.24 3.24 0 00-3.237 3.237V66.64a3.24 3.24 0 003.237 3.236h58.276a3.24 3.24 0 003.237-3.236V8.362a3.24 3.24 0 00-3.237-3.237z" fill="#666"/></g><path class="cls-4" d="M52.737 17.866l4.834-7.03a.535.535 0 01.881 0l4.834 7.03a.535.535 0 01-.44.838h-9.668a.535.535 0 01-.44-.838z"/><rect class="cls-4" x="55.884" y="16.704" width="4.255" height="15.558" rx=".535"/><path class="cls-4" d="M23.944 40.378a10.633 10.633 0 011.144-1.281 4.032 4.032 0 00-1.953.653 5.681 5.681 0 00-2.25 4.108 2.596 2.596 0 00.414 2.001 1.51 1.51 0 00.823.425 9.125 9.125 0 011.822-5.906zm2.107 7.78a4.597 4.597 0 01-.1-1.571c.367-3.494 1.619-6.16 3.574-7.695a3.047 3.047 0 00-.758-.103c-.037 0-.075 0-.112.002-.92.04-2.066.088-3.77 2.31a7.633 7.633 0 00-1.49 5.723 1.767 1.767 0 00.74 1.238 2.251 2.251 0 001.916.096zm5.638-5.349a9.516 9.516 0 012.722-3.712 4.896 4.896 0 00-1.557-.274 3.498 3.498 0 00-1.46.305c-2.348 1.069-3.862 3.761-4.264 7.583a2.619 2.619 0 001.041 2.599 2.588 2.588 0 002.611-.022 6.993 6.993 0 01-.17-2.683 13.69 13.69 0 011.077-3.796zm20.19-1.257c-.66-1.265-2.762-1.267-4.268-.419-1.037.584-2.254 1.903-3.304 5.549-.914 3.177-2.492 3.047-4.222 3.747-2.159.874-4.833 2.032-5.14 4.768l-.01-.001c-.067.37-.123.739-.123.745a.592.592 0 01-1.174-.16v-.018l.006-.031.002-.015.01-.07.002-.005c.032-.208.102-.64.172-.994a12.532 12.532 0 01-8.057-4.968.437.437 0 00-.372-.173 2.953 2.953 0 01-.225.009h-.01a.458.458 0 00-.38.732q.51.66 1.072 1.264v3.498c0 1.28 1.238 2.707 1.882 3.48.643.773 1.999 1.368 1.999 1.695v1.323a.949.949 0 00.948.948h10.91a.954.954 0 00.949-.963c.003-1.981.744-2.197 1.507-2.647.318-.188.64-.375.962-.59v.001c1.376-.867 3.269-2.532 4.287-7.551l.001-.003c.356-1.404.574-2.69.9-4.039.489-2.026 2.523-3.493 1.677-5.112zm-31.183-7.314c-.027-6.731 2.008-12.651 5.585-16.243a13.312 13.312 0 019.645-3.94c7.356 0 14.806 7.277 14.811 21.183 0 .43-.011.847-.029 1.257a14.695 14.695 0 01-8.326-1.452c.079-4.917-1.455-9.585-4.02-12.21a5.906 5.906 0 00-4.16-2.012h-.001c-2.381 0-4.484 1.521-5.92 4.283a22.06 22.06 0 00-2.05 9.915 17.498 17.498 0 00.174 2.35.562.562 0 00.722.466l.01-.003a.572.572 0 00.402-.627 16.18 16.18 0 01-.162-2.187 20.916 20.916 0 011.921-9.385c.87-1.673 2.426-3.666 4.903-3.666h.001a4.805 4.805 0 013.34 1.667c2.383 2.438 3.798 6.853 3.694 11.524-.002.088-.007.175-.01.263q-.013.381-.04.762l-.004.072q-.028.386-.069.77l-.003.03q-.044.405-.102.806l-.006.036c-.032.218-.069.434-.107.65q-.039.212-.081.421-.02.102-.042.203c-.011.052-.025.101-.037.153a5.348 5.348 0 00-3.748-.249c-1.969.688-3.075 1.798-4.226 4.24a12.516 12.516 0 00-.97 3.414 4.781 4.781 0 00.396 2.866 1.935 1.935 0 001.552.952c1.272.133 2.036-.473 2.328-1.855a19.628 19.628 0 00.385-3.834.586.586 0 01.592-.573h.013a.592.592 0 01.58.605 31.382 31.382 0 01-.088 1.814 17.486 17.486 0 01-.15 1.29 13.068 13.068 0 003.51-5.204 16.145 16.145 0 002.543 1.122.569.569 0 00.702-.298l.005-.01a.565.565 0 00-.333-.773 14.897 14.897 0 01-2.523-1.132 22.133 22.133 0 001.028-5.425 15.849 15.849 0 008.295 1.393c-.036.401-.082.797-.137 1.189a.576.576 0 00.432.637l.011.003a.563.563 0 00.698-.47 27.792 27.792 0 00.253-3.788c-.005-14.659-8.031-22.328-15.957-22.328a14.435 14.435 0 00-10.456 4.276c-3.847 3.862-5.95 9.92-5.92 17.057a27.517 27.517 0 00.617 5.519.561.561 0 00.992.226l.01-.012a.565.565 0 00.11-.463 26.645 26.645 0 01-.583-5.275zM64.53 65.443a.642.642 0 11.642.655.649.649 0 01-.642-.655m-.533 0a1.175 1.175 0 101.175-1.17 1.16 1.16 0 00-1.175 1.17M61.517 66.098a.655.655 0 11.642-.655.65.65 0 01-.642.655m0-1.825a1.17 1.17 0 101.175 1.17 1.16 1.16 0 00-1.175-1.17M59.512 64.915h.607v-.543h-.607v-.732h-.555v1.832a1.412 1.412 0 00.108.553 1.147 1.147 0 00.691.613l.275-.465a.922.922 0 01-.457-.393.833.833 0 01-.061-.322l-.001-.177zM62.984 63.643a.36.36 0 00.721 0 .36.36 0 10-.721 0M63.073 64.372h.543v2.186h-.543zM66.284 66.407h-.077v-.026h.183v.026h-.076v.207h-.03v-.207zM66.513 66.614l-.063-.189v.189h-.031v-.233h.043l.066.198.068-.198h.042v.233h-.031v-.189l-.063.189h-.031z"/></g></g></svg>