<svg xmlns="http://www.w3.org/2000/svg" viewBox="0 0 75 75"><defs><style>.cls-1{fill:none;}.cls-2{fill:#fff;}.cls-3{fill:#666;}.cls-4{fill:#00afca;}.cls-5{fill:#a9d8e5;}</style></defs><title>アセット 3202</title><g id="レイヤー_2" data-name="レイヤー 2"><g id="レイヤー_2-2" data-name="レイヤー 2"><g id="ARC"><path class="cls-1" d="M8.3623,0H66.63867A8.36133,8.36133,0,0,1,75,8.36133V66.6377A8.3623,8.3623,0,0,1,66.6377,75H8.3623A8.3623,8.3623,0,0,1,0,66.6377V8.3623A8.3623,8.3623,0,0,1,8.3623,0Z"/><rect class="cls-2" x="4.99981" y="4.99967" width="65" height="65" rx="3.36207"/><path class="cls-3" d="M66.6377,70.125H8.3623A3.49132,3.49132,0,0,1,4.875,66.6377V8.36133A3.49049,3.49049,0,0,1,8.3623,4.875H66.6377A3.49049,3.49049,0,0,1,70.125,8.36133V66.6377A3.49132,3.49132,0,0,1,66.6377,70.125Zm-58.2754-65A3.24064,3.24064,0,0,0,5.125,8.36133V66.6377A3.24084,3.24084,0,0,0,8.3623,69.875H66.6377a3.24084,3.24084,0,0,0,3.2373-3.2373V8.36133A3.24064,3.24064,0,0,0,66.6377,5.125Z"/></g><path class="cls-4" d="M19.33072,49.40487a8.55424,8.55424,0,0,1,.39823-1.32321,3.24376,3.24376,0,0,0-1.20153,1.14022,4.57046,4.57046,0,0,0-.24425,3.76009,2.08848,2.08848,0,0,0,.98294,1.31787,1.21405,1.21405,0,0,0,.74418.03032A7.34092,7.34092,0,0,1,19.33072,49.40487Zm4.18163,4.95593a3.69842,3.69842,0,0,1-.60765-1.11167c-.92017-2.67186-.91386-5.04169-.01021-6.82567a2.45108,2.45108,0,0,0-.58762.18305c-.027.0126-.05407.02589-.08085.03975-.65754.34123-1.47626.766-1.96377,2.96526a6.14074,6.14074,0,0,0,.8599,4.67942,1.42166,1.42166,0,0,0,.96067.65057A1.81088,1.81088,0,0,0,23.51235,54.3608ZM25.80392,48.544a7.65544,7.65544,0,0,1,.72261-3.632,3.93865,3.93865,0,0,0-1.22793.32956,2.81411,2.81411,0,0,0-.9605.719c-1.3492,1.57723-1.53772,4.05532-.531,6.97779a2.10691,2.10691,0,0,0,1.64229,1.54127,2.082,2.082,0,0,0,1.89669-.90359,5.62572,5.62572,0,0,1-1.03665-1.89826A11.01383,11.01383,0,0,1,25.80392,48.544Zm14.29377-7.78131c-.91174-.69761-2.44491.01529-3.25493,1.14607-.55754.77837-.996,2.154-.5219,5.16883.4132,2.62734-.78087,3.06884-1.80413,4.16747C33.23957,52.61632,31.683,54.36958,32.39,56.46857l-.0085.00326c.07821.29265.16257.58014.1639.58445a.47654.47654,0,0,1-.91007.28273l-.00549-.01344-.00717-.02455-.00339-.01168-.01558-.05382-.0014-.00483c-.04668-.16222-.1427-.501-.21216-.78258a10.08125,10.08125,0,0,1-7.56363-.88326.35144.35144,0,0,0-.32965.00007c-.05147.029-.10494.05678-.16106.08294l-.00719.00334a.36824.36824,0,0,0-.029.66337q.59708.30718,1.21218.55667l1.18948,2.55085c.43479.9324,1.82252,1.55241,2.55467,1.89737s1.92262.3178,2.03384.55631l.54034,1.15877a.86206.86206,0,0,0,.78038.49773l9.71936.01021a.86151.86151,0,0,0,.76152-1.26775c-.72417-1.35307-1.76944-3.30882-1.79811-3.36166-.98089-1.80793-.46343-2.23742-.02209-2.88052.16793-.24473.33862-.49088.50072-.75656l.00028.00062c.70834-1.10064,1.52207-2.95784.55856-6.96356L41.33,48.31049c-.21727-1.14428-.49574-2.15541-.717-3.25039C40.28077,43.4167,41.265,41.656,40.09769,40.76272ZM14.875,46.03244c-2.30814-4.89838-2.83667-9.9071-1.4497-13.74185a10.70909,10.70909,0,0,1,5.69251-6.15089c5.36331-2.50095,13.26845.27123,18.00029,10.40839.14594.3126.27961.62076.40609.926a11.82151,11.82151,0,0,1-6.56429,1.772c-1.61386-3.61123-4.31922-6.49339-7.08258-7.53472a4.75129,4.75129,0,0,0-3.71633-.053l-.00084.0004c-1.73626.80963-2.75188,2.6333-2.86,5.13526a17.74723,17.74723,0,0,0,1.87581,7.92591,14.07638,14.07638,0,0,0,.9262,1.65481.45213.45213,0,0,0,.68461.09407l.00684-.00621a.46.46,0,0,0,.07955-.5936A13.01593,13.01593,0,0,1,20.01123,44.33a16.826,16.826,0,0,1-1.79-7.49642c.06536-1.51489.52242-3.49723,2.32849-4.33941l.00084-.00039a3.86507,3.86507,0,0,1,3.00178.08021c2.566.96691,5.09913,3.70487,6.611,7.14555.02865.0651.05455.13019.08225.1953q.12018.28254.23035.56876l.021.0546q.111.29071.21163.5843l.00821.02348q.10573.31.19948.62216l.008.02848c.05065.16962.09737.33962.14257.50969.02946.112.05725.22364.0841.33505q.01985.08113.0388.16222c.00961.04174.01586.08233.02515.12394a4.3019,4.3019,0,0,0-2.81757,1.09275c-1.20158,1.17134-1.6306,2.35615-1.63949,4.5279a10.06955,10.06955,0,0,0,.45379,2.81857,3.84617,3.84617,0,0,0,1.26275,1.9554,1.557,1.557,0,0,0,1.45508.16676A1.59206,1.59206,0,0,0,30.996,51.345,15.79007,15.79007,0,0,0,29.97332,48.419a.4711.4711,0,0,1,.23716-.61923l.00964-.00432a.476.476,0,0,1,.62871.24367c.1709.38779.31629.73983.4457,1.07414.03634.09373.07224.18708.10583.278.04252.11526.08347.229.12194.3407.07638.2213.1454.43693.20766.65038a10.51245,10.51245,0,0,0,.78974-4.98674,12.98882,12.98882,0,0,0,2.23592-.04723.45748.45748,0,0,0,.41023-.45533l-.00006-.00935a.45491.45491,0,0,0-.50529-.44991,11.98506,11.98506,0,0,1-2.22463.03207,17.80516,17.80516,0,0,0-1.0948-4.30438,12.74955,12.74955,0,0,0,6.5217-1.80467c.11058.30466.21091.609.3041.91311a.46322.46322,0,0,0,.53174.3175l.00926-.0017a.453.453,0,0,0,.34892-.5788,22.359,22.359,0,0,0-1.10338-2.84866c-4.98753-10.68551-13.44671-13.54856-19.22522-10.854a11.61224,11.61224,0,0,0-6.16984,6.67282c-1.49128,4.12329-.96485,9.25465,1.48272,14.44836a22.137,22.137,0,0,0,2.32642,3.81389.45148.45148,0,0,0,.8002-.17181l.00281-.01242a.45464.45464,0,0,0-.07638-.375A21.43519,21.43519,0,0,1,14.875,46.03244Z"/><path class="cls-5" d="M56.77868,25.773a11.61245,11.61245,0,0,0-9.07761-.43717,17.7161,17.7161,0,0,0-8.77579,7.88728.46032.46032,0,0,0-.00878.45348l.00511.00958a.45381.45381,0,0,0,.78779.02489,17.0773,17.0773,0,0,1,8.30874-7.50957,10.70912,10.70912,0,0,1,8.371.407c5.36325,2.501,8.32107,10.33858,3.59709,20.47941-.14565.31273-.29584.6132-.44834.90629A11.82152,11.82152,0,0,1,53.961,44.10466c1.729-3.55753,2.19791-7.48258,1.21937-10.26879a4.75146,4.75146,0,0,0-2.34819-2.881l-.00087-.00038c-1.73624-.80963-3.78608-.41541-5.77221,1.11a17.74806,17.74806,0,0,0-4.86587,6.53165c-.09222.19794-.179.406-.26242.62a.45756.45756,0,0,0,.1465.525h0a.45932.45932,0,0,0,.70951-.19344c.07753-.1945.15819-.38238.242-.56221a16.82716,16.82716,0,0,1,4.592-6.18982c1.20247-.92369,3.01486-1.84779,4.82089-1.00561l.00087.00041a3.86525,3.86525,0,0,1,1.86808,2.351c.90866,2.58723.43957,6.28762-1.22438,9.6574-.03146.0638-.06467.12548-.09671.18856q-.13914.27368-.28764.542l-.02838.05118q-.15129.27193-.31147.5377l-.01274.02138q-.16954.28026-.34845.55273l-.0166.02447c-.09739.14785-.19758.2929-.29883.43684q-.10034.14192-.2026.27979-.04938.06736-.09932.134c-.02578.03419-.0529.06508-.07877.09893a4.30206,4.30206,0,0,0-2.64818-1.456c-1.66963-.16753-2.853.26542-4.52244,1.65456a9.17569,9.17569,0,0,0-.90018.88982l-.00238.00961a14.541,14.541,0,0,1,.45682,4.94238,2.04743,2.04743,0,0,0,1.02738-.79742,15.789,15.789,0,0,0,1.58422-2.66425.471.471,0,0,1,.62672-.21635l.00955.0046a.476.476,0,0,1,.21747.63826c-.18726.38017-.36341.71786-.53638,1.03187-.04836.08807-.09681.17559-.14488.25978-.061.10666-.12181.21112-.18262.3124-.12046.20076-.2413.39224-.36475.57715a10.51275,10.51275,0,0,0,4.32766-2.60045,12.993,12.993,0,0,0,1.47341,1.68245.45753.45753,0,0,0,.61253.02158l.00714-.00606a.45494.45494,0,0,0,.01979-.67628,11.98289,11.98289,0,0,1-1.45449-1.68354,17.80945,17.80945,0,0,0,2.59364-3.60546A12.74953,12.74953,0,0,0,59.07928,48.821c-.16225.28054-.33088.553-.50394.81989a.46329.46329,0,0,0,.09855.61142l.00724.006a.45291.45291,0,0,0,.66764-.10475,22.35647,22.35647,0,0,0,1.473-2.67631C65.80146,36.788,62.55716,28.46758,56.77868,25.773ZM42.991,46.62348c.19083-.19027.37316-.3588.53319-.49188a7.65524,7.65524,0,0,1,3.24671-1.78105,3.93877,3.93877,0,0,0-1.04176-.72881A2.81382,2.81382,0,0,0,44.561,43.3481a4.703,4.703,0,0,0-2.01944.45225,3.26111,3.26111,0,0,0,.009.86812c.0945.46758.20057.92092.31283,1.40085C42.90575,46.25052,42.94832,46.43794,42.991,46.62348Zm12.71177,3.69933c-.9547.07321-2.29028.62153-4.295,2.92264-1.74705,2.00537-2.85281,1.37445-4.35218,1.29675a8.44585,8.44585,0,0,0-3.91108.43611,8.03086,8.03086,0,0,1-.71,1.368l-.00357.00565c-.08156.132-.1637.25851-.2441.37906l-.42653.6626a4.36277,4.36277,0,0,0,.26843.573c.1091.19937,1.59826,2.87161,2.45778,4.40885a.74134.74134,0,0,0,1.18142.15648,1.84186,1.84186,0,0,1,1.41913-.50436c.29536-.02869.59361-.05615.90132-.10274l-.00019.00062c1.29842-.16486,3.24411-.7353,5.69336-4.04823l.00154-.00215c.737-.902,1.33249-1.76524,2.02909-2.63857,1.04533-1.31084,3.02683-1.68866,2.96072-3.157C58.62119,50.93268,57.08957,50.21647,55.70275,50.32281Z"/><path class="cls-4" d="M29.926,21.65287l-7.07428-.07879a.44352.44352,0,0,1-.40738-.60692l2.60679-6.57695a.44353.44353,0,0,1,.78058-.08376l4.46749,6.65574A.44353.44353,0,0,1,29.926,21.65287Z"/><path class="cls-4" d="M27.69629,19.96387l-2.04688-2.875a20.24689,20.24689,0,0,1,23.7002,0l-2.04688,2.875a16.71852,16.71852,0,0,0-19.60644,0Z"/><path class="cls-4" d="M45.07363,21.65287l7.07428-.07879a.44352.44352,0,0,0,.40738-.60692L49.9485,14.39021a.44353.44353,0,0,0-.78058-.08376l-4.46749,6.65574A.44352.44352,0,0,0,45.07363,21.65287Z"/><path class="cls-4" d="M64.53009,65.4427a.64212.64212,0,1,1,.642.65449.649.649,0,0,1-.642-.65449m-.53293,0a1.175,1.175,0,1,0,1.17493-1.17025,1.1601,1.1601,0,0,0-1.17493,1.17025"/><path class="cls-4" d="M61.51687,66.09717a.65462.65462,0,1,1,.642-.65446.64907.64907,0,0,1-.642.65446m0-1.82472a1.17025,1.17025,0,1,0,1.17494,1.17026,1.16013,1.16013,0,0,0-1.17494-1.17026"/><path class="cls-4" d="M59.51166,64.91453h.6077v-.54326h-.6077v-.73209h-.55435v1.83176a1.41154,1.41154,0,0,0,.1076.55306,1.14743,1.14743,0,0,0,.6913.6136l.27456-.46489a.92174.92174,0,0,1-.45645-.39337.83259.83259,0,0,1-.06144-.32159c0-.05663-.00122-.17788-.00122-.17788Z"/><path class="cls-4" d="M62.98381,63.64224a.36073.36073,0,0,0,.72135,0,.36072.36072,0,1,0-.72135,0"/><rect class="cls-4" x="63.07285" y="64.37125" width="0.54326" height="2.1858"/><polygon class="cls-4" points="66.284 66.407 66.207 66.407 66.207 66.38 66.39 66.38 66.39 66.407 66.314 66.407 66.314 66.613 66.284 66.613 66.284 66.407"/><polygon class="cls-4" points="66.513 66.613 66.45 66.424 66.45 66.613 66.419 66.613 66.419 66.38 66.462 66.38 66.528 66.578 66.596 66.38 66.638 66.38 66.638 66.613 66.607 66.613 66.607 66.424 66.544 66.613 66.513 66.613"/></g></g></svg>