<svg xmlns="http://www.w3.org/2000/svg" viewBox="0 0 75 74.99951"><defs><style>.cls-1{fill:none;}.cls-2{fill:#f0f8fa;}.cls-3{fill:#666;}.cls-4{fill:#00afca;}</style></defs><title>アセット 3602</title><g id="レイヤー_2" data-name="レイヤー 2"><g id="レイヤー_2-2" data-name="レイヤー 2"><path class="cls-1" d="M8.36255-.00024H66.63794a8.36182,8.36182,0,0,1,8.36182,8.36182V66.63745a8.3623,8.3623,0,0,1-8.3623,8.3623H8.36206A8.36182,8.36182,0,0,1,.00024,66.63794V8.36206A8.3623,8.3623,0,0,1,8.36255-.00024Z" transform="translate(74.99976 -0.00024) rotate(90)"/><path class="cls-2" d="M8.36242,4.99978H66.63776A3.36224,3.36224,0,0,1,70,8.362V66.63754a3.36224,3.36224,0,0,1-3.36224,3.36224H8.36223a3.362,3.362,0,0,1-3.362-3.362V8.362A3.36224,3.36224,0,0,1,8.36242,4.99978Z" transform="translate(74.99987 -0.00031) rotate(90)"/><path class="cls-3" d="M66.6377,70.12451H8.3623A3.4909,3.4909,0,0,1,4.875,66.6377V8.36182A3.4909,3.4909,0,0,1,8.3623,4.875H66.6377A3.4909,3.4909,0,0,1,70.125,8.36182V66.6377A3.4909,3.4909,0,0,1,66.6377,70.12451ZM8.3623,5.125A3.24074,3.24074,0,0,0,5.125,8.36182V66.6377a3.24074,3.24074,0,0,0,3.2373,3.23681H66.6377A3.24074,3.24074,0,0,0,69.875,66.6377V8.36182A3.24074,3.24074,0,0,0,66.6377,5.125Z"/><polygon class="cls-4" points="17.106 9.796 17.386 10.393 17.898 9.977 17.891 10.636 18.533 10.483 18.24 11.075 18.885 11.215 18.365 11.621 18.885 12.027 18.24 12.167 18.533 12.759 17.891 12.606 17.898 13.265 17.386 12.849 17.106 13.446 16.826 12.849 16.314 13.265 16.321 12.606 15.679 12.759 15.971 12.167 15.327 12.027 15.847 11.621 15.327 11.215 15.971 11.075 15.679 10.483 16.321 10.636 16.314 9.977 16.826 10.393 17.106 9.796"/><path class="cls-4" d="M15.26789,13.98623l1.74648-1.7397a.12968.12968,0,0,1,.183,0l1.74647,1.7397a.12967.12967,0,0,1-.09151.22155h-3.493A.12968.12968,0,0,1,15.26789,13.98623Z"/><path class="cls-2" d="M17.106,12.20874a.12983.12983,0,0,1,.09155.03778l1.74634,1.73972a.12965.12965,0,0,1-.09156.22155H15.35938a.12971.12971,0,0,1-.09156-.22155l1.74658-1.73972a.129.129,0,0,1,.09156-.03778m0-.28241a.4097.4097,0,0,0-.291.12024L15.0686,13.78616a.412.412,0,0,0,.29078.704h3.49291a.412.412,0,0,0,.29078-.70413l-1.74634-1.73956a.41008.41008,0,0,0-.29077-.12015Z"/><path class="cls-4" d="M16.35665,16.93062v.55l.74921-.74631.74926.74635v-.55l-.74926-.74634Zm0-.94867V16.532l.74921-.74631.74926.74635V15.982l-.74926-.74634Zm0-2.37666v1.978l.74921-.74631.74926.74635V13.60529Z"/><path class="cls-4" d="M22.06684,15.4273l-.44748-.49882a5.25832,5.25832,0,0,0,1.80418-1.95823H21.75295v-.61157h2.4057v-.91463h.71426v.91463h1.0073v.61157h-1.0073V15.0111c0,.58569-.25172.86831-.81232.86831a5.08569,5.08569,0,0,1-.86329-.07683v-.60153a4.682,4.682,0,0,0,.70422.05135c.2054,0,.25713-.06177.25713-.25172V13.06291A6.48422,6.48422,0,0,1,22.06684,15.4273Z"/><path class="cls-4" d="M27.40641,14.16287v-.72469h4.08094v.72469Z"/><path class="cls-4" d="M33.67685,15.90528V11.44906h.71928v1.50072a12.78512,12.78512,0,0,1,2.32347,1.08954l-.40076.64283a9.08655,9.08655,0,0,0-1.92271-.98181v2.20494Z"/><path class="cls-4" d="M39.3612,13.58721a5.34821,5.34821,0,0,1-.60152.627l-.49342-.45752a5.77278,5.77278,0,0,0,1.54743-2.30764h.72971c-.05637.16448-.11814.329-.19.49844h1.88642c-.26756,1.96364-1.08992,3.39756-2.73967,3.99368l-.34439-.54978a3.21941,3.21941,0,0,0,1.444-1.00229A6.09836,6.09836,0,0,0,39.3612,13.58721Zm1.60882.24671a4.21437,4.21437,0,0,0,.44207-1.27988H40.0604c-.10308.17992-.2108.35984-.32894.52933A9.19,9.19,0,0,1,40.97,13.83392Z"/><path class="cls-4" d="M44.3672,14.33236a8.397,8.397,0,0,0-.44709-1.34667l.55519-.21582a9.1268,9.1268,0,0,1,.51389,1.33624Zm.48338,1.62427-.33435-.53975a2.57356,2.57356,0,0,0,2.05089-2.69334h.66793A3.21879,3.21879,0,0,1,44.85058,15.95663Zm.57064-1.78874a7.714,7.714,0,0,0-.44246-1.34127l.5606-.22123a9.01269,9.01269,0,0,1,.50346,1.33625Z"/><path class="cls-4" d="M50.89979,12.11738h1.9478c-.37025,1.98371-1.18721,3.25317-2.72384,3.80836l-.34439-.56021A3.30569,3.30569,0,0,0,51.93759,12.739H50.57586a6.40183,6.40183,0,0,1-1.20266,1.4957l-.51427-.45211a5.38288,5.38288,0,0,0,1.50613-2.21536h.74553C51.04881,11.75214,50.977,11.93746,50.89979,12.11738Z"/><path class="cls-4" d="M54.81084,15.83848l-.45249-.5243a2.24208,2.24208,0,0,0,1.11038-2.17946V11.72164h.71967V13.1297A2.88927,2.88927,0,0,1,54.81084,15.83848Zm2.04008-.04131V11.71122H57.581v3.15587a2.16422,2.16422,0,0,0,1.23355-1.1154l.35443.60152A3.11567,3.11567,0,0,1,56.85092,15.79717Z"/><path class="cls-4" d="M13.76366,63.31112v.16717h-.29883V60.695h.90382a3.42617,3.42617,0,0,0,.178-.498l.349.06062c-.05366.12779-.12509.28454-.20308.43743H15.9242v2.7833h-.30964v-.16717Zm1.8509-1.84357v-.49844h-1.8509v.49844Zm0,.783v-.5162h-1.8509v.5162Zm0,.79032v-.527h-1.8509v.527Z"/><path class="cls-4" d="M17.42492,63.037V62.7594H16.7095v-.21h.71542v-.22393h-.69071V61.20772h.69071v-.21h-.815v-.2135h.815V60.5811a6.6363,6.6363,0,0,1-.67257.03938l-.09266-.21351a5.93053,5.93053,0,0,0,1.60883-.20308l.14208.19575a4.979,4.979,0,0,1-.70423.14594v.2386h.77218v.2135h-.77218v.21h.70423v1.11772h-.70423v.22393h.70114v.21h-.70114v.25636c.24864-.01776.49458-.03552.68647-.05328l.00386.1637A3.60331,3.60331,0,0,0,18.87,61.28957h-.349v-.26331h.35983q.01043-.40077.01042-.82237h.2776c0,.2776-.00347.55519-.0139.82237h.65828a8.04934,8.04934,0,0,1-.2027,2.37752.32121.32121,0,0,1-.2247.07451c-.078,0-.24864,0-.34864-.007l-.032-.27064a2.87261,2.87261,0,0,0,.29883.00733.09616.09616,0,0,0,.08185-.02857,7.80464,7.80464,0,0,0,.139-1.88989h-.38068a3.44847,3.44847,0,0,1-.66561,2.19258l-.26717-.12818a2.30153,2.30153,0,0,0,.1498-.178c-.50887.05328-1.2849.12818-1.72272.1637l-.04286-.249C16.80216,63.07985,17.10794,63.05862,17.42492,63.037Zm-.42354-1.36288h.42354v-.26717h-.42354Zm0,.45172h.42354v-.2776h-.42354Zm1.132-.45172v-.26717h-.427v.26717Zm0,.45172v-.2776h-.427v.2776Z"/><path class="cls-4" d="M22.48844,60.96564a.70558.70558,0,0,0-.31273.13166,1.56154,1.56154,0,0,0-.76522,1.203c0,.48415.427.73318,1.25246.74052l-.04942.28454c-1.01463-.01428-1.50573-.41273-1.50573-1.01077a1.73827,1.73827,0,0,1,.78993-1.34552l-1.705.07143-.0139-.28146,2.82616-.11389.01042.28145C22.81623,60.93359,22.60967,60.94788,22.48844,60.96564Zm.12509,1.0073a2.2343,2.2343,0,0,0-.25636-.58376l.17065-.08533a2.2939,2.2939,0,0,1,.2776.59071Zm.434-.178a2.11159,2.11159,0,0,0-.25637-.566l.17452-.0888a2.59155,2.59155,0,0,1,.27412.57643Z"/><path class="cls-4" d="M23.66215,62.76673l-.19575-.20655a4.68553,4.68553,0,0,0,.65519-1.33123h-.58376v-.26331h.59766v-.76175h.2884v.76175h.47682V61.229h-.47682v.107c.178.25636.37721.56214.48763.75094l-.18146.23126c-.071-.16717-.18532-.40578-.30617-.63357v1.79376h-.2884V61.795A5.37145,5.37145,0,0,1,23.66215,62.76673Zm1.65862.49458v.19227h-.28493V60.35331h1.57369v3.10027h-.29574v-.19227Zm.993-2.64083h-.993v.605h.993Zm0,1.48064v-.61928h-.993v.61928Zm0,.8934v-.637h-.993v.637Z"/><path class="cls-4" d="M28.56236,62.05479v-.5162H27.37012v-.28107h1.19224v-.5162a11.08516,11.08516,0,0,1-1.11425.08919l-.11389-.2776a10.16743,10.16743,0,0,0,2.49141-.34554l.1637.26369a9.01209,9.01209,0,0,1-1.12119.23127v.55519h1.19262v.28107H28.86814v.5162h1.481v.28107h-1.481v.72623c0,.23474-.06718.37026-.29883.4023a4.70232,4.70232,0,0,1-.605.00695l-.06757-.30964a4.40906,4.40906,0,0,0,.52315.00695c.1139-.00695.14247-.0637.14247-.15984v-.673h-1.488v-.28107Z"/><path class="cls-4" d="M31.03486,63.26131a6.08714,6.08714,0,0,1-.11737-1.28837,9.08053,9.08053,0,0,1,.11389-1.39532h.29922a10.3079,10.3079,0,0,0-.11428,1.38837,6.282,6.282,0,0,0,.11428,1.249Zm1.82233-.09961c-.85055,0-1.171-.17065-1.171-.50539a1.04644,1.04644,0,0,1,.29536-.64785l.24555.11737a.82181.82181,0,0,0-.249.49149c0,.18493.24207.27373.87912.27373.17065,0,.356-.00347.55171-.02123v.27065C33.217,63.15823,33.0317,63.1617,32.85719,63.1617Zm-1.0961-2.0146v-.26679h1.62658v.26679Z"/><path class="cls-4" d="M36.79643,60.80541h.18146v2.31c0,.20308-.06062.32045-.256.349a4.06681,4.06681,0,0,1-.51967.00695l-.05367-.2884a3.33152,3.33152,0,0,0,.41659.00386c.08533-.00734.10656-.04981.10656-.12471V61.08687h-2.2671v2.39142h-.29883V60.80541h1.08876a5.02878,5.02878,0,0,0,.23166-.60847l.33435.05676c-.06409.16022-.14942.35944-.24555.55171h1.28142Zm-1.705.673h1.15324v1.249H35.09147V62.927h-.27065v-1.4486h.27065Zm.87564,1.00344v-.76175h-.87564v.76175Z"/><path class="cls-4" d="M38.63536,61.10077c.08185-.00347.1637-.00347.23512-.00347.5301,0,.72623.23512.72623.7795a2.54124,2.54124,0,0,1-.23512,1.19224.46076.46076,0,0,1-.48068.2637,1.391,1.391,0,0,1-.50886-.11042l.03552-.25637a1.32292,1.32292,0,0,0,.43434.09267.2505.2505,0,0,0,.249-.12124,2.14527,2.14527,0,0,0,.20308-1.0571c0-.3664-.12123-.51581-.46639-.51581-.0749,0-.15984,0-.2525.00347a6.95858,6.95858,0,0,1-.76175,1.96827l-.26331-.14246a6.14279,6.14279,0,0,0,.71889-1.81886c-.22045.00348-.46292.01429-.71542.0251l-.01776-.26717c.29188-.01043.5552-.02124.78994-.02819a6.80935,6.80935,0,0,0,.11042-.79032h.3135A7.86688,7.86688,0,0,1,38.63536,61.10077Zm1.63739,1.46636a2.53326,2.53326,0,0,0-.48763-1.5123l.23861-.14595a2.78009,2.78009,0,0,1,.55866,1.65825Z"/><path class="cls-4" d="M41.54606,63.28255l-.0498-.25984c1.06792,0,1.53392-.25945,1.53392-.7687,0-.32007-.22779-.57643-.68337-.57643a6.787,6.787,0,0,0-1.33084.26679l-.0749-.27412a8.40337,8.40337,0,0,1,1.45207-.26331.83.83,0,0,1,.93973.84012C43.33287,62.8841,42.82749,63.28255,41.54606,63.28255Z"/><path class="cls-4" d="M46.18644,61.00116a.70809.70809,0,0,0-.3135.13166,1.51736,1.51736,0,0,0-.76523,1.17486c0,.46948.41659.72584,1.25324.73318l-.05019.28454c-1.00691-.01428-1.50535-.40578-1.50535-1.00382a1.69,1.69,0,0,1,.79032-1.31695l-1.705.07143-.01429-.28107,2.82577-.1139.01081.28107C46.51384,60.96911,46.30728,60.9834,46.18644,61.00116Z"/><path class="cls-4" d="M47.49141,63.47829V61.64554a4.306,4.306,0,0,1-.32354.466l-.16756-.2525a4.60329,4.60329,0,0,0,.81542-1.65862l.28454.06756a5.19666,5.19666,0,0,1-.317.83665v2.37366Zm1.7621-.61928v.61928h-.29574V62.859h-.47643v-.27026h.47643v-.96831a4.399,4.399,0,0,1-.93587,1.31l-.217-.22431a3.89022,3.89022,0,0,0,1.03935-1.40227h-.90035v-.27412h1.01386v-.82584h.29574v.82584h1.08915v.27412h-.97178a4.18377,4.18377,0,0,0,1.03549,1.37756l-.22779.23126a4.767,4.767,0,0,1-.92507-1.33122v1.0073H49.716V62.859Z"/><path class="cls-4" d="M53.26032,63.05475v-.53357h-2.193v-.26369h2.193v-.49111H50.872v-.26331h1.22775V60.20042h.30617v1.30265h1.15671v1.97522h-.3023v-.15636H50.83261v-.26718Zm-2.12155-2.65859a3.57712,3.57712,0,0,1,.55172.88646l-.25984.13165a3.40683,3.40683,0,0,0-.53743-.883Zm2.56246.12818a8.24985,8.24985,0,0,1-.637.90383l-.249-.12779a7.30736,7.30736,0,0,0,.5911-.90769Z"/><path class="cls-4" d="M55.29847,60.91236h.76522v.25984h-.80808a8.40558,8.40558,0,0,1-.68337,2.19606l-.29188-.12471a7.22944,7.22944,0,0,0,.66214-2.07135h-.63357v-.25984h.67642c.02857-.20308.04981-.40578.06023-.59457h.32432C55.35522,60.51006,55.33052,60.70928,55.29847,60.91236Zm1.29223,2.381c-.74746,0-1.13586-.17452-1.13586-.48763a.89251.89251,0,0,1,.29921-.56948l.22046.12123c-.1637.18494-.22046.30231-.22046.39844,0,.178.26331.27065.83279.27065a5.11888,5.11888,0,0,0,.5162-.0251v.27065C56.92505,63.28641,56.76483,63.29336,56.5907,63.29336Zm-.87217-1.51269-.0359-.26331a12.99527,12.99527,0,0,1,1.38489-.06409v.26678A11.79022,11.79022,0,0,0,55.71853,61.78067Z"/><path class="cls-4" d="M58.19142,62.30382h-.29575a3.59787,3.59787,0,0,1-.08879-.81156,5.93288,5.93288,0,0,1,.09574-.97139h.29922a5.55663,5.55663,0,0,0-.09613.961,2.4774,2.4774,0,0,0,.03938.46253c.12432-.15289.295-.35211.45558-.54438l.14594.249C58.56129,61.859,58.36554,62.09031,58.19142,62.30382Zm.47334,1.11772-.18146-.24208a1.57637,1.57637,0,0,0,1.06405-1.737c0-.21-.01428-.60848-.04633-.98916h.30964c.03552.37373.04981.75094.04981.98568A1.8586,1.8586,0,0,1,58.66476,63.42154Z"/><path class="cls-4" d="M60.89866,63.50339a.4307.4307,0,1,1,.43434-.42354A.43495.43495,0,0,1,60.89866,63.50339Zm0-.712a.28474.28474,0,1,0,.28493.28841A.28712.28712,0,0,0,60.89866,62.79144Z"/><path class="cls-4" d="M14.47406,59.0242c-.41,0-.6521-.18725-.6521-.671V57.05169h.20655v1.28489c0,.37219.15637.49072.4552.49072a.77519.77519,0,0,0,.6992-.53821l.1637.11158A.95059.95059,0,0,1,14.47406,59.0242Zm.29149-1.29455a1.58939,1.58939,0,0,0-.17528-.39612l.11853-.06139a1.50077,1.50077,0,0,1,.18957.40539Zm.30849-.11389a1.46849,1.46849,0,0,0-.17567-.39111l.11852-.06177a1.62552,1.62552,0,0,1,.19.39844Z"/><path class="cls-4" d="M16.74193,58.99332c-.612,0-.91541-.1305-.91541-.45288,0-.22509.22045-.44323.56446-.64014a2.228,2.228,0,0,1-.1637-.89379h.20887a2.258,2.258,0,0,0,.12548.80152,5.91467,5.91467,0,0,1,.7324-.29651l.07375.18725c-.77758.249-1.33471.55249-1.33471.82738,0,.20386.19652.27991.70886.27991.21544,0,.48106-.012.678-.03088v.19188C17.22763,58.98366,16.974,58.99332,16.74193,58.99332Zm.37914-1.58836a1.41862,1.41862,0,0,0-.17065-.38648l.11621-.05945a1.60953,1.60953,0,0,1,.18262.3938Zm.30346-.07838a1.36018,1.36018,0,0,0-.16833-.37682l.11389-.05946a1.50364,1.50364,0,0,1,.18262.38416Z"/><path class="cls-4" d="M18.23917,59.05509l-.04749-.18262c.70886-.05946,1.03124-.28454,1.03124-.64245a.37515.37515,0,0,0-.41272-.39844,6.59709,6.59709,0,0,0-.88878.0973l-.03822-.19228a6.75768,6.75768,0,0,1,.939-.0969.556.556,0,0,1,.61427.59032C19.43643,58.69912,19.00015,59.00027,18.23917,59.05509Zm.88183-1.669a4.19708,4.19708,0,0,0-.8938-.22548l.04518-.18262a4.56744,4.56744,0,0,1,.91039.2278Z"/><path class="cls-4" d="M47.8385,57.39067h.50964v.173h-.53821a5.57712,5.57712,0,0,1-.45519,1.46288l-.1942-.083a4.81928,4.81928,0,0,0,.44091-1.37987h-.422v-.173H47.63c.01892-.13513.0332-.27026.04015-.39612H47.886C47.87634,57.12273,47.85974,57.25554,47.8385,57.39067Zm.86059,1.586c-.498,0-.75634-.11621-.75634-.32469a.59514.59514,0,0,1,.19922-.37953l.1471.08069c-.10926.12317-.1471.20154-.1471.26563,0,.11853.17528.17992.55481.17992a3.36413,3.36413,0,0,0,.34361-.0166v.1803C48.92186,58.97208,48.8153,58.97671,48.69909,58.97671ZM48.11842,57.969l-.02394-.17528a8.64061,8.64061,0,0,1,.92236-.04286v.178A7.84194,7.84194,0,0,0,48.11842,57.969Z"/><path class="cls-4" d="M49.88554,58.94351c-.31273,0-.55713-.55712-.55713-1.2849,0-.13513.00232-.249.00965-.36523h.20618a3.5232,3.5232,0,0,0-.01429.3579c0,.64747.19922,1.06946.339,1.06946.06409,0,.18262-.18494.26563-.44825l.166.09961C50.189,58.68754,50.03727,58.94351,49.88554,58.94351Zm1.09069-.41273a1.62543,1.62543,0,0,0-.44593-1.17563l.14478-.11621a1.77748,1.77748,0,0,1,.50964,1.29184Z"/><path class="cls-4" d="M52.59664,59.062l-.05213-.17065c.47412-.05444.71388-.23011.71388-.517a.418.418,0,0,0-.31312-.40539,1.33353,1.33353,0,0,1-1.05247.98413.3341.3341,0,0,1-.35559-.35829.88929.88929,0,0,1,.59033-.72314c.00463-.11852.0139-.244.0305-.3745h-.51427v-.17065H52.182c.01892-.12084.04015-.24169.06641-.3579h.20153c-.02625.11621-.0498.23706-.06872.3579h.9768v.17065H52.35726c-.012.10695-.02355.20887-.02818.30346a1.43661,1.43661,0,0,1,.35288-.04478c.04286,0,.083.00232.12123.00463.00695-.04285.01158-.08532.0166-.1305h.19189c-.00463.05676-.012.11158-.02124.166a.58594.58594,0,0,1,.46678.576C53.45722,58.76089,53.14681,58.998,52.59664,59.062Zm-.87449-.46948a.1595.1595,0,0,0,.1776.18262.63229.63229,0,0,0,.32007-.11158,1.6511,1.6511,0,0,1-.0973-.60191A.67849.67849,0,0,0,51.72215,58.59256Zm.93394-.6687a1.10809,1.10809,0,0,0-.33435.0525v.02587a1.77973,1.77973,0,0,0,.06178.53589,1.3761,1.3761,0,0,0,.37913-.60924C52.72945,57.92656,52.69393,57.92386,52.65609,57.92386Z"/><path class="cls-4" d="M25.04125,59.062l-.05174-.17065c.47412-.05444.71349-.23011.71349-.517a.41768.41768,0,0,0-.31273-.40539,1.33443,1.33443,0,0,1-1.05286.98413.33429.33429,0,0,1-.35558-.35829.88928.88928,0,0,1,.59032-.72314c.00464-.11852.01429-.244.0305-.3745h-.51426v-.17065h.5382c.01892-.12084.04015-.24169.06641-.3579h.20153c-.02625.11621-.0498.23706-.06872.3579h.9768v.17065H24.80187c-.01158.10695-.02355.20887-.02818.30346a1.43978,1.43978,0,0,1,.35327-.04478c.04247,0,.08262.00232.12084.00463.00734-.04285.012-.08532.01661-.1305h.19227c-.005.05676-.01236.11158-.02162.166a.5863.5863,0,0,1,.46716.576C25.90222,58.76089,25.59181,58.998,25.04125,59.062Zm-.87449-.46948a.15961.15961,0,0,0,.178.18262.6311.6311,0,0,0,.31968-.11158,1.6511,1.6511,0,0,1-.0973-.60191A.67849.67849,0,0,0,24.16676,58.59256Zm.93394-.6687a1.11,1.11,0,0,0-.33435.0525v.02587a1.77973,1.77973,0,0,0,.06178.53589,1.37257,1.37257,0,0,0,.37913-.60924C25.17406,57.92656,25.13854,57.92386,25.1007,57.92386Z"/><path class="cls-4" d="M26.79022,58.94351c-.31312,0-.55751-.55712-.55751-1.2849,0-.13513.00232-.249.00965-.36523h.20617a3.52323,3.52323,0,0,0-.01428.3579c0,.64747.19922,1.06946.339,1.06946.06409,0,.183-.18494.26563-.44825l.166.09961C27.09368,58.68754,26.94157,58.94351,26.79022,58.94351Zm1.09031-.41273a1.62675,1.62675,0,0,0-.44555-1.17563l.1444-.11621a1.77748,1.77748,0,0,1,.50964,1.29184Z"/><path class="cls-4" d="M29.79243,57.44974a.47029.47029,0,0,0-.20849.088,1.01012,1.01012,0,0,0-.50963.78221c0,.31312.27721.48377.83472.4884l-.03321.18957c-.671-.00927-1.00305-.27026-1.00305-.66832a1.12549,1.12549,0,0,1,.52624-.87719l-1.13548.04711-.00966-.18725,1.88256-.07568.00695.18725C30.011,57.42851,29.87312,57.43816,29.79243,57.44974Z"/><path class="cls-4" d="M35.07332,58.60221c-.20887,0-.33937-.13745-.33937-.40771,0-.249.12818-.41041.33937-.41041a.33253.33253,0,0,1,.16332.04054v-.24671h-.48377v-.17528h.48377v-.40539h.19188v.40539h.46485v.17528h-.46485v.6189c0,.166-.04942.28184-.04942.43126,0,.166.12548.23011.42663.23011.351,0,.54515-.06873.54515-.28455a2.10946,2.10946,0,0,0-.06138-.44091h.18686a2.03411,2.03411,0,0,1,.06178.45288c0,.3247-.2583.45018-.74438.45018-.43164,0-.60461-.1278-.60461-.36022a.631.631,0,0,1,.007-.095A.333.333,0,0,1,35.07332,58.60221Zm0-.66175c-.112,0-.178.09729-.178.254,0,.16563.06872.251.178.251.10888,0,.1776-.09691.1776-.251C35.25092,58.03775,35.1822,57.94046,35.07332,57.94046Zm1.62852-.071a2.13851,2.13851,0,0,0-.52161-.35559l.10425-.14439a2.29789,2.29789,0,0,1,.53087.35327Z"/><path class="cls-4" d="M40.77441,29.74268a.15948.15948,0,0,1-.06543-.01416,3.95344,3.95344,0,0,0-2.43945-.57471.15824.15824,0,0,1-.082-.30567,3.55091,3.55091,0,0,1,2.19238.39161c-.63281-1.08789-.81347-1.79688-.623-2.38477.19824-.60742.7705-1.07324,1.998-1.60449-1.28808-.36182-1.918-.74658-2.19531-1.32227a3.02312,3.02312,0,0,1,.29785-2.44629,3.0247,3.0247,0,0,1-2.38476.62256c-.60743-.19775-1.07325-.76953-1.6045-1.99756-.3623,1.28809-.74707,1.91748-1.32324,2.19483a3.018,3.018,0,0,1-2.44531-.29737c.63281,1.0879.81348,1.79639.623,2.38428-.19825.60742-.77051,1.07324-1.998,1.605a6.01918,6.01918,0,0,1,1.4668.57764.15819.15819,0,1,1-.16407.27051,6.88644,6.88644,0,0,0-1.834-.66162.1579.1579,0,0,1-.02051-.3003c1.41309-.5625,2.06445-1.023,2.249-1.58935.18261-.561-.06446-1.29883-.85059-2.54639a.15825.15825,0,0,1,.19922-.22852c1.34082.61231,2.10254.75831,2.63769.50147.53614-.25879.90528-.96582,1.27344-2.44141a.15752.15752,0,0,1,.14258-.11963.15178.15178,0,0,1,.15723.09913c.5625,1.41308,1.02343,2.06445,1.58886,2.24853.56446.18555,1.30176-.06445,2.54785-.8501a.15762.15762,0,0,1,.22754.19922c-.6123,1.34229-.75683,2.10645-.501,2.63819.25879.53613.96582.90478,2.4414,1.27294a.1579.1579,0,0,1,.02051.3003c-1.41309.5625-2.06445,1.02295-2.249,1.58886-.18262.56153.06445,1.29932.85058,2.54688a.15828.15828,0,0,1-.13379.24268Z"/><path class="cls-4" d="M24.791,38.36963a.1688.1688,0,0,1-.041-.00537L12.77832,35.16992a.15773.15773,0,0,1-.10547-.09424.16309.16309,0,0,1,.0332-.17285l8.75293-8.772a.1619.1619,0,0,1,.15332-.041l11.97461,3.19629a.15718.15718,0,0,1,.11133.11182.15987.15987,0,0,1-.04.15283l-8.75488,8.77246A.16148.16148,0,0,1,24.791,38.36963ZM13.12207,34.93408l11.62109,3.10108L33.24023,29.521,21.61914,26.419Z"/><path class="cls-4" d="M27.22461,47.4165a.16892.16892,0,0,1-.041-.00537L15.21094,44.21436a.15718.15718,0,0,1-.11133-.11182L12.667,35.05811l.30469-.082,2.40918,8.95606L27.001,47.03467l-2.36231-8.78223.30469-.082L27.377,47.21729a.15987.15987,0,0,1-.04.15283A.16152.16152,0,0,1,27.22461,47.4165Z"/><polygon class="cls-4" points="27.337 47.37 27.112 47.146 33.522 40.723 33.747 40.946 27.337 47.37"/><rect class="cls-4" x="34.08393" y="29.34702" width="0.31554" height="5.35771" transform="matrix(0.96568, -0.25974, 0.25974, 0.96568, -7.14314, 9.99303)"/><path class="cls-4" d="M44.36621,41.7168a.15787.15787,0,0,1-.0791-.02149L33.55664,35.501a.15733.15733,0,0,1-.0791-.13672.16129.16129,0,0,1,.0791-.13916l10.73047-6.19727a.15791.15791,0,0,1,.1582,0L55.17773,35.2251a.1577.1577,0,0,1,0,.27344L44.44531,41.69531A.15787.15787,0,0,1,44.36621,41.7168Zm-10.416-6.354,10.416,6.01319,10.416-6.01416-10.416-6.01465Z"/><path class="cls-4" d="M44.36621,51.08545a.15787.15787,0,0,1-.0791-.02149L33.55664,44.8667a.15732.15732,0,0,1-.0791-.13672V35.36426H33.794v9.27441L44.208,50.65332V41.55859h.3164v9.36866a.1589.1589,0,0,1-.1582.1582Z"/><path class="cls-4" d="M44.44531,51.064l-.1582-.27343,10.65332-6.15186V35.36182h.31641V44.73a.15733.15733,0,0,1-.07911.13672Z"/><path class="cls-2" d="M57.43652,52.98535a4.72236,4.72236,0,0,1-2.51172-.77295A6.066,6.066,0,0,1,52.585,48.95117a9.50519,9.50519,0,0,0-3.32031-4.54248.98809.98809,0,1,1,1.18555-1.581,11.31867,11.31867,0,0,1,3.96,5.36621,4.39894,4.39894,0,0,0,1.55175,2.33594c1.47168.90771,2.457.395,3.94043-.51709a5.067,5.067,0,0,1,3.41993-1.0879.98835.98835,0,1,1-.31055,1.95215,3.54437,3.54437,0,0,0-2.0752.81983A6.72663,6.72663,0,0,1,57.43652,52.98535Z"/><path class="cls-4" d="M63.167,50.05908l-.02441-.002a1.85576,1.85576,0,0,0-.22559-.022.15892.15892,0,0,1-.15234-.16407.15568.15568,0,0,1,.16406-.15234,2.32245,2.32245,0,0,1,.2627.02588.15818.15818,0,0,1-.02442.31445Z"/><path class="cls-4" d="M57.44434,52.15332a.15821.15821,0,0,1-.001-.31641,3.20224,3.20224,0,0,0,.4707-.03564.158.158,0,1,1,.04688.3125A3.41784,3.41784,0,0,1,57.44434,52.15332Zm-.97852-.15039a.16054.16054,0,0,1-.0459-.00684,4.04678,4.04678,0,0,1-.4834-.1831.15893.15893,0,0,1-.0791-.209.15594.15594,0,0,1,.21-.0791,3.79276,3.79276,0,0,0,.44434.16846.15817.15817,0,0,1-.0459.30957Zm2.4248-.15967a.158.158,0,0,1-.06054-.3042q.22266-.09228.43847-.20312a.15854.15854,0,0,1,.14454.28222c-.15137.07666-.30567.14844-.46192.21289A.15405.15405,0,0,1,58.89062,51.84326Zm-3.74316-.51709a.15657.15657,0,0,1-.0957-.03271,3.45866,3.45866,0,0,1-.3877-.34424.15851.15851,0,0,1,.22852-.21973,3.177,3.177,0,0,0,.35058.313.15779.15779,0,0,1-.0957.28369Zm5.05762-.18164a.15836.15836,0,0,1-.082-.29346l.42187-.25878a.15828.15828,0,0,1,.166.26953l-.42383.25976A.15562.15562,0,0,1,60.20508,51.14453Zm1.28808-.74658a.15824.15824,0,0,1-.07031-.29981,4.53854,4.53854,0,0,1,.47266-.20263.15832.15832,0,0,1,.10742.29785,4.20906,4.20906,0,0,0-.43945.188A.158.158,0,0,1,61.49316,50.398Zm-7.30859-.19238a.15789.15789,0,0,1-.13672-.07862q-.126-.21606-.23828-.44873a.15833.15833,0,1,1,.28516-.13769q.10694.22119.22656.42724a.15788.15788,0,0,1-.13672.2378Zm-.63379-1.34571a.15711.15711,0,0,1-.14551-.09716l-.1914-.4585a.1585.1585,0,0,1,.293-.12109l.18945.45751a.15753.15753,0,0,1-.085.207A.15422.15422,0,0,1,53.55078,48.85986Zm-.5957-1.36474a.15819.15819,0,0,1-.14258-.08936q-.104-.21532-.22266-.436a.15838.15838,0,0,1,.2793-.14942q.12159.22632.22852.44776a.15822.15822,0,0,1-.07422.21142A.15236.15236,0,0,1,52.95508,47.49512Zm-.73926-1.29053a.1575.1575,0,0,1-.13086-.06934q-.1333-.19774-.28418-.39648a.15821.15821,0,0,1,.25195-.19141c.1045.1377.20118.27442.294.41016a.15821.15821,0,0,1-.13086.24707Zm-.93066-1.16016a.15768.15768,0,0,1-.11524-.0498c-.1084-.11572-.22363-.23145-.34277-.34766a.15814.15814,0,0,1,.2207-.22656c.12305.11914.24024.23877.35254.35742a.15863.15863,0,0,1-.00684.22363A.15654.15654,0,0,1,51.28516,45.04443Z"/><path class="cls-4" d="M50.17871,44.02588a.1591.1591,0,0,1-.09961-.03516c-.0625-.05078-.12695-.10058-.19238-.15136a.158.158,0,1,1,.19336-.25c.06738.05175.13379.10351.19824.15527a.15821.15821,0,0,1-.09961.28125Z"/><path class="cls-4" d="M50.19238,45.46094a.19818.19818,0,0,1-.19629-.1709l-.21289-1.54492a.20266.20266,0,0,1,.043-.15186.199.199,0,0,1,.14063-.07226l1.55664-.09912.01269-.00049a.19772.19772,0,0,1,.0127.395l-1.34473.08545.18457,1.33447a.1983.1983,0,0,1-.16894.22265A.17961.17961,0,0,1,50.19238,45.46094Z"/></g></g></svg>