<svg xmlns="http://www.w3.org/2000/svg" viewBox="0 0 75 75"><defs><style>.cls-1{fill:none;}.cls-2{fill:#f0f8fa;}.cls-3{fill:#666;}.cls-4{fill:#00afca;}.cls-5{fill:#a9d8e5;}</style></defs><title>アセット 4102</title><g id="レイヤー_2" data-name="レイヤー 2"><g id="レイヤー_2-2" data-name="レイヤー 2"><rect class="cls-1" width="75" height="75" rx="8.3623" transform="translate(75) rotate(90)"/><path class="cls-2" d="M8.36252,5.00009H66.63786a3.362,3.362,0,0,1,3.362,3.362V66.63786a3.36224,3.36224,0,0,1-3.36224,3.36224H8.36233a3.362,3.362,0,0,1-3.362-3.362V8.36233A3.36224,3.36224,0,0,1,8.36252,5.00009Z" transform="translate(75.00018 0) rotate(90)"/><path class="cls-3" d="M66.6377,70.125H8.3623A3.49132,3.49132,0,0,1,4.875,66.6377V8.3623A3.49132,3.49132,0,0,1,8.3623,4.875H66.6377A3.49132,3.49132,0,0,1,70.125,8.3623V66.6377A3.49132,3.49132,0,0,1,66.6377,70.125Zm-58.2754-65A3.24084,3.24084,0,0,0,5.125,8.3623V66.6377A3.24084,3.24084,0,0,0,8.3623,69.875H66.6377a3.24084,3.24084,0,0,0,3.2373-3.2373V8.3623A3.24084,3.24084,0,0,0,66.6377,5.125Z"/><path class="cls-4" d="M35.28181,51.243a1.40847,1.40847,0,0,1-.21351-.01892v-.17065a1.38471,1.38471,0,0,0,.21351.0166c.30578,0,.44786-.14941.44786-.36524,0-.2108-.161-.34593-.46948-.34593a1.32084,1.32084,0,0,0-.40771.06872v.5c0,.23976-.09227.35327-.28686.35327a.49983.49983,0,0,1-.47643-.40308c0-.1942.23937-.41929.56639-.55712v-.44786H34.139v-.17567h.51659v-.45983h.1969v.45983h.493v.17567h-.493v.37682a1.59664,1.59664,0,0,1,.43628-.06409c.39844,0,.63781.19459.63781.51465C35.92657,51.0249,35.70843,51.243,35.28181,51.243Zm-1.00305-.36987c0,.11621.17065.23011.27026.23011.083,0,.10656-.04981.10656-.17065v-.4247C34.43512,50.61719,34.27876,50.762,34.27876,50.87317Zm1.669-.91039a1.79693,1.79693,0,0,0-.49767-.38184l.09691-.13745a1.87805,1.87805,0,0,1,.51929.37952Z"/><path class="cls-4" d="M38.62184,51.1388l-.03783-.18957c.90112-.00271,1.28026-.24671,1.28026-.67334,0-.26563-.1803-.498-.576-.498a5.13318,5.13318,0,0,0-1.07873.1969l-.05212-.19458a6.12166,6.12166,0,0,1,1.15942-.19922.68466.68466,0,0,1,.76329.69264C40.08009,50.7975,39.65578,51.1388,38.62184,51.1388Z"/><path class="cls-4" d="M40.68355,51.15771l-.03823-.18956c.8965-.00232,1.27563-.23706,1.27563-.66137,0-.26563-.1803-.49805-.57372-.49805a5.11717,5.11717,0,0,0-1.07641.1969L40.221,49.811a5.96756,5.96756,0,0,1,1.15246-.1969.68172.68172,0,0,1,.761.68762C42.13446,50.82336,41.71015,51.15771,40.68355,51.15771Zm1.16405-1.51037a1.39579,1.39579,0,0,0-.17335-.3911l.11891-.05907a1.54594,1.54594,0,0,1,.18455.39574Zm.315-.06872a1.50257,1.50257,0,0,0-.17065-.38145l.11622-.05946a1.56964,1.56964,0,0,1,.18493.38879Z"/><path class="cls-4" d="M42.64525,51.1886a3.89436,3.89436,0,0,1-.09961-.92,7.63,7.63,0,0,1,.05676-.96715h.20153a7.76022,7.76022,0,0,0-.05907.9602,3.86347,3.86347,0,0,0,.09923.88915Zm.86059.11621-.10926-.1471c.38415-.22045.41967-.422.41967-.97216,0-.05212,0-.11621-.00231-.18725h-.75866v-.1776h.75634c-.00232-.19459-.00965-.40771-.01892-.57373h.19884c.00965.166.0193.37914.02393.57373h.41v.1776h-.40771c.00232.06872.00232.13049.00232.18493C44.02011,50.77356,43.94675,51.06274,43.50584,51.30481Z"/><path class="cls-4" d="M51.03144,51.19092c-.31273,0-.55712-.55713-.55712-1.2849,0-.13513.00231-.249.00965-.36524h.20617a3.52331,3.52331,0,0,0-.01428.35791c0,.64746.19922,1.06946.339,1.06946.06409,0,.18262-.18494.26563-.44825l.166.09961C51.3349,50.93494,51.18317,51.19092,51.03144,51.19092Zm1.0907-.41273a1.62543,1.62543,0,0,0-.44593-1.17563l.14478-.11621a1.77748,1.77748,0,0,1,.50963,1.29184Z"/><path class="cls-4" d="M53.55066,51.24072c-.612,0-.91542-.13049-.91542-.45288,0-.22509.22046-.44322.56446-.64013a2.22814,2.22814,0,0,1-.1637-.89379h.20888a2.25829,2.25829,0,0,0,.12547.80152,5.91637,5.91637,0,0,1,.73241-.29652l.07374.18725c-.77758.249-1.3347.55249-1.3347.82739,0,.20385.19652.27991.70886.27991.21543,0,.48106-.012.678-.03089v.19189C54.03635,51.23107,53.78269,51.24072,53.55066,51.24072Zm.37913-1.58836a1.41812,1.41812,0,0,0-.17065-.38647l.11621-.05946a1.609,1.609,0,0,1,.18262.39381Zm.30347-.07837a1.36037,1.36037,0,0,0-.16834-.37682l.1139-.05946a1.504,1.504,0,0,1,.18262.38416Z"/><path class="cls-4" d="M54.95254,51.3025l-.04749-.18262c.70885-.05946,1.03124-.28455,1.03124-.64245a.375.375,0,0,0-.41235-.39844,6.60131,6.60131,0,0,0-.88915.09729L54.597,49.984a6.75229,6.75229,0,0,1,.939-.09691.55567.55567,0,0,1,.61388.59033C56.14979,50.94652,55.71351,51.24767,54.95254,51.3025Zm.88182-1.66906a4.19058,4.19058,0,0,0-.89379-.22547l.04517-.18262a4.55981,4.55981,0,0,1,.91039.22779Z"/><path class="cls-4" d="M36.54238,59.18484c-.61388,0-.89147-.173-.89147-.44554a.77205.77205,0,0,1,.29883-.51929l.13745.10888a.60475.60475,0,0,0-.23706.38415c0,.16834.16833.28687.69959.28687a5.30123,5.30123,0,0,0,.6826-.04518l.01892.18726A5.94017,5.94017,0,0,1,36.54238,59.18484Zm-.05907-1.14976-.1305-.11853c.15174-.10193.31775-.20656.43628-.2776h-.96753v-.1776h1.29957v.161A7.237,7.237,0,0,0,36.48331,58.03508Z"/><path class="cls-4" d="M37.781,59.27982l-.04749-.18262c.70885-.05946,1.03124-.28455,1.03124-.64245a.375.375,0,0,0-.41234-.39844,6.60291,6.60291,0,0,0-.88916.09729l-.03784-.19227a6.75229,6.75229,0,0,1,.939-.09691.55567.55567,0,0,1,.61388.59033C38.9782,58.92385,38.54192,59.225,37.781,59.27982Zm.88182-1.669a4.191,4.191,0,0,0-.89379-.22548l.04517-.18262a4.56049,4.56049,0,0,1,.91039.22779Z"/><path class="cls-4" d="M39.47239,59.16824a3.53767,3.53767,0,0,1-.12123-.91734,6.05357,6.05357,0,0,1,.06911-.9629l.19884.005a5.79541,5.79541,0,0,0-.06873.95054,3.65644,3.65644,0,0,0,.11621.88684Zm.839.1139-.10888-.1471c.38416-.21814.41234-.41968.41234-.96483,0-.04981,0-.10695-.00231-.17065h-.749v-.17567h.74669c-.00463-.19922-.00927-.41968-.01892-.59033h.19189c.00965.17065.01892.39111.02625.59033h.41736v.17567H40.814c.00232.06138.00232.11852.00232.16563C40.81636,58.75551,40.74764,59.04276,40.31136,59.28214ZM40.992,57.6486a1.57812,1.57812,0,0,0-.1471-.3579l.11158-.05946a1.56793,1.56793,0,0,1,.15868.36292Zm.26061-.15636a1.56136,1.56136,0,0,0-.161-.35327l.11351-.05946a1.56354,1.56354,0,0,1,.16833.3579Z"/><path class="cls-4" d="M42.71475,58.27213a2.93747,2.93747,0,0,0,.14478.31042l-.19227.06409a3.20942,3.20942,0,0,1-.16331-.37451h-.99842v-.173h.93664c-.03783-.1139-.07335-.23475-.10424-.36061h-.72777v-.173h.68491c-.02857-.12084-.05212-.24671-.07335-.3745h.20617c.01891.12548.04285.25134.071.3745h.6521v.173h-.60925c.03089.12586.06873.24671.10888.36061h.62855v.173Zm-.071,1.00769c-.63318,0-.927-.15444-.927-.40076a.671.671,0,0,1,.07568-.29149l.18493.03552a.56637.56637,0,0,0-.06138.232c0,.166.25365.24208.7158.24208.05946,0,.15907-.00232.25829-.005v.18262C42.80471,59.27712,42.7078,59.27982,42.64371,59.27982Z"/><path class="cls-4" d="M46.771,57.74088c.05444-.00232.10888-.00232.15637-.00232.35327,0,.48377.15637.48377.51929a1.69274,1.69274,0,0,1-.15675.79418.30646.30646,0,0,1-.32007.17528.92251.92251,0,0,1-.339-.07336l.02393-.17065a.87409.87409,0,0,0,.28918.06178.16724.16724,0,0,0,.166-.08069,1.43375,1.43375,0,0,0,.13513-.70423c0-.244-.08069-.34361-.3108-.34361-.04981,0-.10656,0-.16833.00231A4.62292,4.62292,0,0,1,46.22312,59.23l-.17529-.095a4.08236,4.08236,0,0,0,.47875-1.21154c-.14671.00231-.3081.00965-.47643.0166l-.012-.1776c.19459-.00734.36987-.01429.52662-.01931a4.53423,4.53423,0,0,0,.07336-.52623h.20849A5.27,5.27,0,0,1,46.771,57.74088Zm1.09031.9768a1.68666,1.68666,0,0,0-.3247-1.00769l.15907-.09691a1.85448,1.85448,0,0,1,.37219,1.1046Z"/><path class="cls-4" d="M49.54848,59.22731a.385.385,0,0,1-.422-.35288c-.0166-.10232-.02857-.20154-.03822-.27026-.0166-.10463-.04981-.16139-.1278-.16139a.52184.52184,0,0,0-.31543.24169,1.26333,1.26333,0,0,0-.09961.18031c-.05907.12547-.10424.22045-.1776.38647l-.17567-.071c.21582-.517.517-1.25208.773-1.88719l.19188.06409c-.18725.44786-.33165.77989-.44091,1.05942a.45868.45868,0,0,1,.30346-.16332c.154,0,.22278.10656.25135.26525.0166.09961.02857.18261.04517.28686.02587.1803.11119.23744.24169.23744.20385,0,.37682-.23011.44091-.68762l.17065.06409C50.09827,58.90763,49.88978,59.22731,49.54848,59.22731Z"/><path class="cls-4" d="M51.00017,57.6154h.51v.173H50.972a5.60651,5.60651,0,0,1-.45519,1.46288l-.19459-.083a4.80718,4.80718,0,0,0,.44091-1.37987h-.422v-.173h.45056c.01892-.13513.0332-.27026.04015-.39613h.21583C51.03839,57.34745,51.02179,57.48027,51.00017,57.6154Zm.861,1.586c-.498,0-.75634-.11621-.75634-.3247a.59418.59418,0,0,1,.19883-.37952l.1471.08069c-.10888.12316-.1471.20154-.1471.26563,0,.11853.17567.17992.55481.17992a3.37454,3.37454,0,0,0,.344-.0166v.1803C52.08391,59.19681,51.977,59.20144,51.86114,59.20144Zm-.58106-1.00768-.02355-.17529a8.64074,8.64074,0,0,1,.922-.04285v.178A7.85036,7.85036,0,0,0,51.28008,58.19376Z"/><path class="cls-4" d="M53.79428,59.22731a.38519.38519,0,0,1-.422-.35288c-.0166-.10232-.02857-.20154-.03783-.27026-.0166-.10463-.04981-.16139-.12818-.16139a.52387.52387,0,0,0-.31544.24169,1.26389,1.26389,0,0,0-.09922.18031c-.05946.12547-.10463.22045-.178.38647l-.17528-.071c.21544-.517.51658-1.25208.77256-1.88719l.19227.06409c-.18725.44786-.332.77989-.44091,1.05942a.45788.45788,0,0,1,.30346-.16332c.154,0,.22278.10656.25135.26525.0166.09961.02818.18261.04478.28686.02626.1803.11158.23744.24208.23744.20385,0,.37682-.23011.44091-.68762l.17065.06409C54.34445,58.90763,54.13558,59.22731,53.79428,59.22731Z"/><path class="cls-4" d="M55.89382,58.2841c-.351.12548-.55249.3247-.55249.50462,0,.17567.18725.29419.70653.30346l-.02355.171c-.62816-.00734-.87255-.20888-.87255-.46485a.68806.68806,0,0,1,.43859-.53821l-1.06212.07606-.01429-.171.39111-.02587c.30848-.20617.62353-.44091.84669-.61658h-.92v-.16563h1.23509l-.00231.149c-.26061.1969-.54747.40809-.83434.60963l1.17564-.08069.00965.16833A1.882,1.882,0,0,0,55.89382,58.2841Z"/><path class="cls-4" d="M56.94513,59.27982l-.04749-.18262c.70886-.05946,1.03124-.28455,1.03124-.64245a.37515.37515,0,0,0-.41273-.39844,6.59834,6.59834,0,0,0-.88877.09729l-.03822-.19227a6.75776,6.75776,0,0,1,.939-.09691.556.556,0,0,1,.61426.59033C58.14238,58.92385,57.70611,59.225,56.94513,59.27982Zm.88182-1.669a4.19683,4.19683,0,0,0-.89379-.22548l.04517-.18262a4.56738,4.56738,0,0,1,.9104.22779Z"/><path class="cls-4" d="M59.452,57.89493a3.20925,3.20925,0,0,0,.26794.61194l-.19458.07336a3.39645,3.39645,0,0,1-.28687-.6853h-.89379v-.1776h.84438a4.05471,4.05471,0,0,1-.10232-.51466h.20656a3.83427,3.83427,0,0,0,.10424.51466h.761v.1776Zm.01892,1.37292c-.59959,0-.93626-.15405-.93626-.42663a.77126.77126,0,0,1,.083-.32276l.18725.0332a.63883.63883,0,0,0-.07374.26563c0,.18493.27759.26562.72816.26562.06138,0,.16331-.00231.25365-.00463v.18223C59.625,59.26322,59.52535,59.26785,59.47091,59.26785Z"/><path class="cls-4" d="M27.0489,59.10415l-.17335-.09729a1.96672,1.96672,0,0,0,.31774-.69921l.18262.04517A2.17762,2.17762,0,0,1,27.0489,59.10415Zm.76329.13745a.93977.93977,0,0,1-.44323-.1112l.04016-.16833a.76246.76246,0,0,0,.37682.10424c.1803,0,.28223-.07335.28223-.21119,0-.12316-.05213-.21543-.26795-.41465a.38458.38458,0,0,1-.15868-.28223.63025.63025,0,0,1,.15173-.38648l.173.06873a.44005.44005,0,0,0-.12779.29651c0,.078.04478.1305.13976.21814.22509.20849.29149.33435.29149.50964C28.2697,59.09218,28.10369,59.2416,27.81219,59.2416Zm.46485-1.55284a2.97323,2.97323,0,0,0-.83472-.249l.04749-.1776a3.39139,3.39139,0,0,1,.86059.249Zm.493,1.4011a2.72013,2.72013,0,0,0-.33435-.7324l.166-.07606a3.41178,3.41178,0,0,1,.35327.73511Z"/><path class="cls-4" d="M16.96933,55.1873l-.22431-.17451a1.97418,1.97418,0,0,0,.58376-1.10344l.28455.03591A2.33216,2.33216,0,0,1,16.96933,55.1873Zm1.12815.27026V53.48968H16.83382v-.27412h1.26366v-.78685h.30964v.78685h1.27061v.27412H18.40712v1.96788Zm1.43084-.28107A2.73429,2.73429,0,0,1,18.909,53.9414l.27413-.039a2.11871,2.11871,0,0,0,.58723,1.08182Zm-.23474-2.17444a2.356,2.356,0,0,0-.25984-.58376l.17412-.08919a2.299,2.299,0,0,1,.2776.59457Zm.46986-.12818a2.33729,2.33729,0,0,0-.25983-.56948l.17412-.09266a2.50886,2.50886,0,0,1,.2776.58376Z"/><path class="cls-4" d="M20.81939,53.76341a3.4063,3.4063,0,0,1-.46292.49149l-.217-.19961A4.026,4.026,0,0,0,21.23212,52.443h.32045a3.19915,3.19915,0,0,1-.14247.35944h1.36675A3.06981,3.06981,0,0,1,20.887,55.47571l-.14942-.24208a2.41575,2.41575,0,0,0,1.10691-.80808A5.64507,5.64507,0,0,0,20.81939,53.76341Zm1.18876.42007a3.27813,3.27813,0,0,0,.40925-1.11386h-1.139a3.98649,3.98649,0,0,1-.29188.47334A6.68224,6.68224,0,0,1,22.00815,54.18348Z"/><path class="cls-4" d="M24.31386,53.64952a4.8845,4.8845,0,0,0-1.03934-.65828l.18146-.25636a5.91739,5.91739,0,0,1,1.06791.637ZM23.45945,55.358l-.09614-.29883a2.77039,2.77039,0,0,0,2.34548-1.72272l.23513.21351A3.027,3.027,0,0,1,23.45945,55.358Z"/><path class="cls-4" d="M27.8396,55.28691V52.87l-.58376.39883-.14942-.23127.70461-.48415h.356v2.73349Z"/><path class="cls-4" d="M31.62634,54.219c.01043.11389.0139.24555.0139.39882v.28107h-.288V54.6213c0-.09961,0-.18494-.00386-.25984-.35945.19575-.59766.39883-.59766.57681,0,.20617.21.28108.72584.28108a7.95874,7.95874,0,0,0,.89688-.04981v.27026c-.24169.02162-.58724.03591-.893.03591-.71194,0-1.01811-.15675-1.01811-.5162,0-.32045.34864-.61928.854-.88646-.039-.19574-.11389-.2525-.23474-.2525a1.2519,1.2519,0,0,0-.6799.28455,2.98589,2.98589,0,0,0-.47681.46639L29.704,54.3827a3.71938,3.71938,0,0,0,.79379-1.19571h-.62276V52.9341h.7189a3.9678,3.9678,0,0,0,.139-.53743h.31311a4.47143,4.47143,0,0,1-.139.53743h1.0822V53.187h-1.171a3.13879,3.13879,0,0,1-.29535.59071,1.27559,1.27559,0,0,1,.64051-.217c.21351,0,.349.09613.42007.38068.27759-.12818.58723-.249.90035-.35945l.11042.26717A8.40089,8.40089,0,0,0,31.62634,54.219Z"/><path class="cls-4" d="M33.4367,54.01282v-.77255h-.46292V52.97h.46292v-.67294h.28455V52.97H34.056v.27027h-.33473v.68684c.11737-.03552.23126-.071.3274-.10308,0,.01081.00347.02123.02509.25636-.10347.03552-.22431.08185-.35249.12471v1.0212c0,.19227-.04981.30616-.23127.33473a2.42935,2.42935,0,0,1-.40925.00695l-.04981-.28107c.11.007.25984.007.30965.00348.07451-.00348.09613-.04247.09613-.11043v-.87525c-.16409.05328-.32045.10656-.43782.14594l-.06409-.29575C33.05911,54.12286,33.24443,54.06958,33.4367,54.01282Zm1.8258.32741v1.23161h-.29188V54.34023h-.53395v.19227h-.28108V52.42871h1.95746V54.5325h-.2884v-.19227Zm-.29188-1.08915v-.55867h-.53395v.55867Zm0,.82584v-.58029h-.53395v.58029Zm.854-.82584v-.55867H35.2625v.55867Zm0,.82584v-.58029H35.2625v.58029Z"/><path class="cls-4" d="M37.87747,55.45756c-.61928,0-.98607-.28454-.98607-1.01425V52.48238h.317v1.9397c0,.55866.23474.73665.68685.73665a1.15963,1.15963,0,0,0,1.05016-.81155l.249.171A1.43835,1.43835,0,0,1,37.87747,55.45756Z"/><path class="cls-4" d="M40.06542,54.358a3.31171,3.31171,0,0,1-.22045.93587l-.22779-.0888a2.86581,2.86581,0,0,0,.217-.88645Zm.41659,1.21385h-.26679v-1.488c-.1996.0251-.39882.04286-.54129.05715l-.05328-.24942c.06062-.00347.13513-.007.21351-.01428.10308-.13513.20655-.2776.30269-.41968a3.19214,3.19214,0,0,0-.48763-.495c.12432-.18146.13166-.19227.13861-.19922.04633.03552.08918.0749.13165.11042a4.37182,4.37182,0,0,0,.32393-.57681l.24207.09961a5.84673,5.84673,0,0,1-.4023.63743c.0749.07451.139.14555.19575.2135.14594-.23165.27412-.44516.36331-.61928l.24555.11a11.3607,11.3607,0,0,1-.75094,1.11772c.17065-.01081.34863-.02471.50539-.03552a1.92516,1.92516,0,0,0-.18146-.28107L40.667,53.436a2.69207,2.69207,0,0,1,.30964.54477v-.2776h1.88294v.605h-.25636v-.37026h-1.3737v.37026h-.25288v-.22779a1.6698,1.6698,0,0,0-.18494.0888,1.44937,1.44937,0,0,0-.05328-.14208c-.07837.00695-.1637.01776-.25636.02818Zm.37026-1.27447a3.59917,3.59917,0,0,1,.17065.72275c-.10309.02471-.16718.04247-.23474.05676a3.27557,3.27557,0,0,0-.1637-.71889Zm.86136-.11042c-.04633.66947-.178,1.12506-.74747,1.39184l-.19227-.19922c.5301-.22084.64052-.61928.66909-1.19957Zm.05328-.97525v-.31312h-.83279V52.6565h.83279v-.36292h.28454v.36292h.86522v.24208h-.86522v.31312h.69419v.23512H41.1121V53.2117Zm.48415.93973v.94321c0,.13513.01776.15328.09227.15675h.22085c.07837-.00347.08532-.01776.08879-.34516l.25637.04247c-.02471.5162-.07452.56948-.32393.57681-.08185.00348-.20617.00348-.27412,0-.27026-.00733-.33088-.08185-.33088-.43087v-.94321Z"/><path class="cls-4" d="M43.64522,55.33324a5.85962,5.85962,0,0,1-.14942-1.381,11.38763,11.38763,0,0,1,.08533-1.45207h.30269a11.58081,11.58081,0,0,0-.08919,1.44126,5.80112,5.80112,0,0,0,.14942,1.3347Zm1.29184.17451-.1637-.22084c.57682-.33088.6301-.63357.6301-1.45941,0-.078,0-.17412-.00348-.28107H44.261v-.26678h1.13548c-.00386-.29189-.01429-.61234-.02857-.86136h.29883c.01428.249.02857.56947.03552.86136h.61581v.26678h-.612c.00347.10309.00347.19575.00347.2776C45.70962,54.71048,45.5992,55.14444,44.93706,55.50775Z"/><path class="cls-4" d="M48.901,53.09432a.70511.70511,0,0,0-.31311.13166,1.517,1.517,0,0,0-.76523,1.17486c0,.46948.41621.72584,1.25286.73318l-.04981.28455c-1.0073-.01429-1.50574-.40578-1.50574-1.00383a1.69,1.69,0,0,1,.79032-1.31694l-1.705.07143-.01428-.28108,2.82615-.11389.01043.28107C49.22842,53.06228,49.02186,53.07656,48.901,53.09432Z"/><path class="cls-4" d="M51.089,54.30471l-.17065.24169c-.07143-.14556-.18185-.34864-.30269-.54439v1.56983h-.29189V54.1051a4.9084,4.9084,0,0,1-.427.86522l-.15327-.29188A3.89387,3.89387,0,0,0,50.306,53.543h-.51967v-.26331h.53743v-.50539a3.61016,3.61016,0,0,1-.44477.078l-.10347-.24169a3.70579,3.70579,0,0,0,1.16753-.3135l.16022.22084a2.87469,2.87469,0,0,1-.48762.18146v.58029h.46986V53.543h-.46986v.12084C50.79014,53.88464,50.98241,54.14448,51.089,54.30471Zm.70113.13513a3.184,3.184,0,0,1,.4413.26678,1.82437,1.82437,0,0,0,.42354-.61928h-.59767a3.598,3.598,0,0,1-.72275.60152l-.21-.18493a2.77088,2.77088,0,0,0,.97873-.94321c.29188.02857.30616.02857.32045.032a2.03329,2.03329,0,0,1-.16023.24208h.57682l.18146.06409a2.46409,2.46409,0,0,1-1.82581,1.67291l-.2135-.2386a3.03273,3.03273,0,0,0,1.039-.45558,2.755,2.755,0,0,0-.41273-.26717A1.93185,1.93185,0,0,0,51.7901,54.43984Zm-.15636-1.38451a2.80785,2.80785,0,0,1,.36292.217,1.99557,1.99557,0,0,0,.39844-.50886h-.58724a3.127,3.127,0,0,1-.59071.53048l-.22084-.16409a2.32684,2.32684,0,0,0,.80808-.83278l.30269.02857a1.858,1.858,0,0,1-.1139.19227h.60848l.178.07837a2.75008,2.75008,0,0,1-1.559,1.48412l-.18841-.22779a3.03743,3.03743,0,0,0,.75789-.40925,2.24172,2.24172,0,0,0-.33821-.22084Z"/><path class="cls-4" d="M54.156,55.13016v-.2776h-.71542v-.21H54.156V54.4186h-.69071V53.30088H54.156v-.21h-.815v-.21351h.815v-.20308a6.63942,6.63942,0,0,1-.67256.03938l-.09266-.2135a5.93291,5.93291,0,0,0,1.60882-.20308l.14208.19574a4.98425,4.98425,0,0,1-.70461.14594v.2386h.77256v.21351h-.77256v.21h.70461V54.4186h-.70461v.22393h.70113v.21h-.70113v.25636c.249-.01776.495-.03552.68685-.05328l.00386.16371a3.60715,3.60715,0,0,0,.47334-1.83662h-.349v-.26331h.35945q.011-.40075.01081-.82236H55.9c0,.27759-.00347.55519-.01428.82236h.65866a8.04087,8.04087,0,0,1-.20308,2.37752.32136.32136,0,0,1-.22432.0749c-.078,0-.249,0-.34863-.00733l-.03205-.27065a2.86814,2.86814,0,0,0,.29883.00734.09619.09619,0,0,0,.08185-.02857,7.805,7.805,0,0,0,.139-1.8899h-.38069a3.45074,3.45074,0,0,1-.66561,2.19259l-.26717-.12818a2.21006,2.21006,0,0,0,.14941-.178c-.50886.05328-1.28489.12818-1.72233.1637l-.04285-.249C53.53328,55.173,53.83906,55.15178,54.156,55.13016Zm-.42354-1.36289H54.156V53.5001H53.7325Zm0,.45173H54.156v-.2776H53.7325Zm1.13162-.45173V53.5001h-.427v.26717Zm0,.45173v-.2776h-.427v.2776Z"/><path class="cls-4" d="M57.63931,55.5896a4.39243,4.39243,0,0,0-.71889-.71194l.1888-.178a4.56014,4.56014,0,0,1,.7436.70114Z"/><path class="cls-4" d="M13.51425,62.16543V60.5068h.31659v1.65863Zm.67642,1.21347-.15328-.256a1.31137,1.31137,0,0,0,1.11772-1.44512V60.42148H15.479v1.2598A1.58357,1.58357,0,0,1,14.19067,63.3789Z"/><path class="cls-4" d="M17.3006,61.55657a4.88472,4.88472,0,0,0-1.03935-.65828l.18146-.25636a5.91751,5.91751,0,0,1,1.06792.637ZM16.44619,63.265l-.09614-.29883a2.77038,2.77038,0,0,0,2.34548-1.72271l.23512.2135A3.02692,3.02692,0,0,1,16.44619,63.265Z"/><path class="cls-4" d="M20.57423,60.86972h1.381a3.02582,3.02582,0,0,1-1.947,2.50918l-.15289-.23822a2.59071,2.59071,0,0,0,1.70844-2.00031H20.42828a4.72375,4.72375,0,0,1-.9185,1.13162l-.22045-.19922A4.18853,4.18853,0,0,0,20.421,60.464h.32045A4.25443,4.25443,0,0,1,20.57423,60.86972Zm1.24937-.06756a2.30988,2.30988,0,0,0-.25983-.566l.17412-.08533a2.198,2.198,0,0,1,.2776.56948Zm.48763-.05676a2.21925,2.21925,0,0,0-.25289-.566l.17451-.08919a2.38153,2.38153,0,0,1,.27026.58029Z"/><path class="cls-4" d="M24.549,62.12605c.01042.11389.0139.24555.0139.39883V62.806h-.288v-.2776c0-.09961,0-.18493-.00387-.25983-.35944.19574-.59766.39882-.59766.57681,0,.20617.21.28107.72585.28107a7.95855,7.95855,0,0,0,.89687-.04981v.27027c-.24169.02162-.58723.0359-.893.0359-.712,0-1.01811-.15675-1.01811-.5162,0-.32045.34863-.61928.854-.88645-.039-.19575-.1139-.2525-.23474-.2525a1.25184,1.25184,0,0,0-.6799.28454,2.986,2.986,0,0,0-.47682.4664l-.22084-.1888a3.71915,3.71915,0,0,0,.7938-1.19571H22.7977v-.25289h.71889a3.96485,3.96485,0,0,0,.139-.53743h.31312a4.47233,4.47233,0,0,1-.139.53743h1.0822V61.094h-1.171a3.13845,3.13845,0,0,1-.29536.59071,1.27575,1.27575,0,0,1,.64052-.217c.21351,0,.349.09614.42006.38068.2776-.12818.58724-.249.90036-.35944l.11042.26717A8.40091,8.40091,0,0,0,24.549,62.12605Z"/><path class="cls-4" d="M26.34159,61.91254V61.1369h-.44477v-.2637h.44477v-.66909h.28454v.66909h.27412v.2637h-.27412v.68684c.09614-.032.1888-.06061.27065-.08918l.0251.24555c-.08919.0359-.1888.0749-.29575.11389v1.04668c0,.18842-.05328.29884-.22779.32741a2.32054,2.32054,0,0,1-.39844.007l-.0498-.2776c.10656.00734.24555.01081.29535.00734.0749-.00734.09614-.04286.09614-.10695v-.90035c-.16023.05328-.30964.10656-.42007.14594l-.06409-.28494C25.97867,62.023,26.15665,61.96968,26.34159,61.91254Zm1.203,1.22814V61.78436h-.24555a3.37316,3.37316,0,0,1-.38454,1.65516l-.2525-.15289a3.04752,3.04752,0,0,0,.36292-1.63392V60.30025h2.11769v.25983H27.30256v.97178h1.84009v.2525h-.82932a3.47421,3.47421,0,0,0,.16023.59805,4.08538,4.08538,0,0,0,.4911-.4413l.19227.18146a5.346,5.346,0,0,1-.58376.47335,1.39536,1.39536,0,0,0,.62276.6409l-.19923.24208a2.25062,2.25062,0,0,1-.93973-1.69454h-.24555v1.31c.21737-.04285.44516-.08532.61581-.12123l.02509.2386c-.3274.07838-.82584.1888-1.11424.24556l-.07452-.26679C27.34155,63.1762,27.43769,63.16192,27.54463,63.14068Zm1.33818-2.23544v.24555H27.49135v-.24555Z"/><path class="cls-4" d="M30.06732,63.28276l-.0498-.25945c1.06753,0,1.53392-.25983,1.53392-.76908,0-.32007-.22779-.57643-.68337-.57643a6.795,6.795,0,0,0-1.33123.26679l-.07451-.27412a8.397,8.397,0,0,1,1.45207-.26331.83.83,0,0,1,.93973.84012C31.85413,62.88432,31.34874,63.28276,30.06732,63.28276Z"/><path class="cls-4" d="M34.70731,61.00138a.70508.70508,0,0,0-.31311.13165A1.517,1.517,0,0,0,33.629,62.3079c0,.46948.4162.72584,1.25285.73317l-.0498.28455c-1.0073-.01428-1.50574-.40578-1.50574-1.00382a1.69,1.69,0,0,1,.79032-1.317l-1.705.07143-.01428-.28107,2.82615-.1139.01042.28107C35.03471,60.96933,34.82816,60.98362,34.70731,61.00138Z"/><path class="cls-4" d="M36.11923,62.47855V60.89482h-.50886v-.2637h1.29918v.2637H36.415v1.4984c.18494-.05328.36292-.10694.51234-.15328l.0251.25289c-.38455.13513-.97178.3274-1.30652.43049l-.07452-.29883C35.71,62.589,35.9092,62.53916,36.11923,62.47855Zm2.78716.74051-.22084.256a2.43862,2.43862,0,0,1-.88993-.68338,3.24062,3.24062,0,0,1-.98915.68338l-.20656-.24208a2.93911,2.93911,0,0,0,1.01772-.68337,3.64367,3.64367,0,0,1-.44477-1.03549,3.63956,3.63956,0,0,1-.28107.44477l-.23513-.18146a3.36622,3.36622,0,0,0,.63743-1.57677l.29536.0498a5.03365,5.03365,0,0,1-.139.59071h1.41307v.27065h-.356a3.01474,3.01474,0,0,1-.51619,1.44512A2.20386,2.20386,0,0,0,38.90639,63.21906Zm-1.09649-.915a2.66092,2.66092,0,0,0,.388-1.19224h-.82584A3.53545,3.53545,0,0,0,37.8099,62.304Z"/><path class="cls-4" d="M40.628,62.79166v-.22779H39.44961v-.18146H40.628v-.21c-.33126.02162-.66561.02857-.93626.02162l-.06023-.18185a10.86045,10.86045,0,0,0,2.1424-.14941l.09266.17451a9.17515,9.17515,0,0,1-.9324.11389v.23127h1.21v.18146h-1.21v.22779h1.49106v.18146H40.93412v.2386c0,.14942-.04633.23513-.1888.25637a3.98247,3.98247,0,0,1-.52315.007l-.03938-.22046c.12471.007.317.007.37026.00348.05714-.00348.0749-.02858.0749-.07838v-.20656H39.15078v-.18146Zm-.78684-1.16714v-.1498H39.279v-.78993h.56215v-.14594h-.65133v-.1637h.65133v-.171h.26717v.171h.65133v.1637h-.65133v.14594H40.692v.78993h-.58376v.1498h.66561v.1637h-.66561v.15289h-.26717v-.15289h-.68685v-.1637Zm-.33088-.61233h.33088v-.17451h-.33088Zm0,.30964h.33088v-.18146h-.33088Zm.93626-.30964v-.17451h-.33821v.17451Zm0,.30964v-.18146h-.33821v.18146ZM41.838,60.27554h.12123v.23821c0,.08571.01042.10347.05675.10347h.13166c.0498,0,.05328-.01081.05714-.18532l.23474.04286c-.02124.32392-.06757.36292-.26679.36639h-.18532c-.23126-.00695-.27759-.06756-.27759-.3274v-.04633h-.43049v.01815a.52118.52118,0,0,1-.28841.45558l-.23474-.12818c.2027-.10695.27412-.21.27412-.33821v-.19922h.8077Zm.58028,1.46983-.14246.20269a2.85962,2.85962,0,0,1-.72623-.24555,2.86433,2.86433,0,0,1-.59766.24208l-.16023-.18146a2.273,2.273,0,0,0,.54438-.1888,1.44144,1.44144,0,0,1-.356-.34863l.19575-.07491h-.28455v-.19188H41.9947c.01042.00347.02123.00695.18493.04594a1.22009,1.22009,0,0,1-.42006.55558A2.55563,2.55563,0,0,0,42.41823,61.74537ZM41.54606,61.45a1.05188,1.05188,0,0,0,.29189-.29922H41.2009A1.23353,1.23353,0,0,0,41.54606,61.45Z"/><path class="cls-4" d="M44.42125,63.29705l-.11389-.256a1.15327,1.15327,0,0,0,1.08915-1.18528.95775.95775,0,0,0-.96831-.98259c-.14594,1.26713-.43435,2.17135-.9324,2.17135-.37373,0-.66909-.48415-.66909-.99649a1.48585,1.48585,0,0,1,1.51964-1.44165,1.22438,1.22438,0,0,1,1.35594,1.242A1.43688,1.43688,0,0,1,44.42125,63.29705ZM43.1186,62.04072c0,.36293.1776.6799.36987.6799.24207,0,.50538-.66561.62662-1.83314A1.17181,1.17181,0,0,0,43.1186,62.04072Z"/><path class="cls-4" d="M47.40956,60.88053l-.26331.07838a1.36664,1.36664,0,0,0-.15636-.32779h-.28841a1.9438,1.9438,0,0,1-.356.349l-.23127-.12818a1.64,1.64,0,0,0,.55867-.64785l.25636.06062a1.34349,1.34349,0,0,1-.08185.15675h.91811v.20964h-.48376A1.49891,1.49891,0,0,1,47.40956,60.88053Zm-.77565.10309h.94669v.96444h-.94669V63.4789H46.342V60.98362h.29188Zm.676.395v-.20617h-.676v.20617Zm-.676.1637v.21736h.676v-.21736Zm.712.63356h1.07486V63.1762H47.34586v.14942H47.093V62.17585h.25289Zm.81117.40964v-.21736h-.81117v.21736Zm-.81117.16718v.23126H48.157v-.23126Zm1.67639-1.87214-.27065.08185a1.78872,1.78872,0,0,0-.19922-.33126h-.356a1.8249,1.8249,0,0,1-.3027.32045l-.23474-.12432a1.4843,1.4843,0,0,0,.4803-.62314l.25983.05714c-.02123.05328-.04633.10656-.071.16023h1.07139v.20964h-.534A1.81646,1.81646,0,0,1,49.02225,60.88053Zm.06756.10309H49.186V63.1762c0,.16718-.04633.26332-.19961.28841a2.94187,2.94187,0,0,1-.41968.01043l-.04285-.256c.09961.00348.24207.007.2884.00348.06023-.00734.078-.03552.078-.08919V61.94806h-.97873v-.96444h1.17834Zm-.19961.395v-.20617h-.7046v.20617Zm-.7046.1637v.21736h.7046v-.21736Z"/><path class="cls-4" d="M51.14958,62.57468V62.2828H50.08167V60.95891h1.81538a5.52282,5.52282,0,0,0,.52662-.74746l.27412.13513a6.06113,6.06113,0,0,1-.46987.61233h.3274V62.2828H51.45189v.29188h1.50226v.25984H51.45189v.64438h-.30231v-.64438H49.68323v-.25984Zm-.95749-2.32424a2.52472,2.52472,0,0,1,.356.57681l-.27412.12085a2.2256,2.2256,0,0,0-.317-.57643Zm.178,1.26714h.77951V61.201h-.77951Zm0,.52314h.77951v-.3274h-.77951Zm.783-1.84008a2.49076,2.49076,0,0,1,.30964.60152l-.28493.11042a2.16144,2.16144,0,0,0-.27026-.59805Zm1.09957,1.31694V61.201h-.80074v.31659Zm0,.52314v-.3274h-.80074v.3274Z"/><path class="cls-4" d="M53.62208,61.93416v-.79379h-.3772v-.26331h.3772v-.673h.28455v.673h.30269v.26331h-.30269v.70113c.09266-.032.178-.06409.25288-.08918l.02858.24941c-.08572.032-.18147.071-.28146.11042V63.155c0,.178-.04981.28107-.21351.30964a1.83592,1.83592,0,0,1-.356.00695c-.0139-.07837-.032-.15675-.0498-.27412a2.03748,2.03748,0,0,0,.25636.00347c.06409-.00347.07837-.03552.07837-.09227v-.88993c-.13165.04981-.25636.09614-.35249.12818L53.202,62.062C53.31244,62.03377,53.46186,61.984,53.62208,61.93416Zm2.95048,1.24552-.18494.22779a3.30542,3.30542,0,0,1-.92892-.75441v.822h-.28494V62.6851a2.79292,2.79292,0,0,1-.91116.73318l-.18146-.23126a2.38157,2.38157,0,0,0,.95054-.68338h-.88993V62.2577h1.032v-.26331h-.91463v-.80074h.9432v.776h.22432v-.776h.98954v.80074H55.4587v.26331h1.05363v.24594h-.89341A2.884,2.884,0,0,0,56.57256,63.17968Zm-2.07136-1.388h.45211v-.395H54.5012ZM56.15249,60.279v.73318H54.512V60.279Zm-1.36288.534h1.07486v-.33474H54.78961Zm.88259.97873h.48763v-.395H55.6722Z"/><path class="cls-4" d="M57.60379,63.4789h-.29535V61.63842a5.25731,5.25731,0,0,1-.356.51272l-.19575-.24555a4.68093,4.68093,0,0,0,.85055-1.70495l.30269.071a5.8149,5.8149,0,0,1-.30617.815Zm2.35282-1.13548v.26331h-.91117v.87217h-.30269V61.0867h-.28841a4.2354,4.2354,0,0,1-.50886.82584l-.22779-.19227a3.77176,3.77176,0,0,0,.73318-1.51963l.29535.06061a4.36039,4.36039,0,0,1-.178.55519H60.0705v.27026H59.04544v.48763h.861v.2637h-.861v.50539Z"/><path class="cls-4" d="M60.806,63.50361a.4307.4307,0,1,1,.43434-.42354A.43469.43469,0,0,1,60.806,63.50361Zm0-.712a.28474.28474,0,1,0,.28493.28841A.28428.28428,0,0,0,60.806,62.79166Z"/><path class="cls-4" d="M18.76346,11.17661a.52444.52444,0,0,1,.525.52269v2.3106a1.00891,1.00891,0,0,1-.28251.702L17.8248,15.94181a.52141.52141,0,0,1-.37427.15947v-3.785l.40737-.42419.53227-.55422a.50751.50751,0,0,1,.37329-.16121m0-.56483a1.07421,1.07421,0,0,0-.78066.3348l-.53227.55422-.53227-.55423a1.07419,1.07419,0,0,0-.78061-.33478,1.09189,1.09189,0,0,0-.74695.29415,1.07265,1.07265,0,0,0-.34292.79336v2.31062a1.57111,1.57111,0,0,0,.43993,1.09324l1.18117,1.22989a1.08374,1.08374,0,0,0,1.5633,0l1.18114-1.22987a1.57107,1.57107,0,0,0,.44-1.09327V11.6993a1.08991,1.08991,0,0,0-1.08982-1.08752Z"/><path class="cls-4" d="M24.64358,15.87982v-2.169a8.39137,8.39137,0,0,1-1.68566.81232l-.33435-.60654a8.38326,8.38326,0,0,0,3.57748-2.42076l.53975.46755a7.38186,7.38186,0,0,1-1.34165,1.239v2.67751Z"/><path class="cls-4" d="M27.79405,14.16328V13.4386h4.08132v.72468Z"/><path class="cls-4" d="M34.74824,14.13239a7.62355,7.62355,0,0,0-1.44976-.7297l.3135-.56021a9.54087,9.54087,0,0,1,1.47524.66291Zm-.9046,1.73739-.19536-.66831a3.76419,3.76419,0,0,0,3.274-2.38988l.54979.43666A4.39206,4.39206,0,0,1,33.84364,15.86978Zm1.55206-2.89912a7.51755,7.51755,0,0,0-1.44936-.72971l.3135-.56021a9.10413,9.10413,0,0,1,1.47523.66832Zm1.20266-.41118a3.034,3.034,0,0,0-.39072-.83241l.3803-.19034a2.82406,2.82406,0,0,1,.42663.84322Zm.68376-.28764a2.86692,2.86692,0,0,0-.3857-.8019l.3803-.20038a3.14585,3.14585,0,0,1,.42161.82738Z"/><path class="cls-4" d="M38.89558,14.16328V13.4386h4.08094v.72468Z"/><path class="cls-4" d="M46.45593,14.08606v.58106c0,.30308.07722.39574.37026.43667a4.12927,4.12927,0,0,0,.53936.02586c.139,0,.30346,0,.46292-.0054.17991-.005.35442-.02046.50886-.03089v.63743c-.25212.02046-.5606.03089-.8741.03089-.2054,0-.483,0-.60114-.005-.84283-.02587-1.13587-.29806-1.13587-1.059v-.61156H44.44133v-.622h1.28489v-.90962H44.70348v-.61658h3.54621v.61658H46.45593v.90962h2.11768v.622Z"/><path class="cls-4" d="M49.99711,14.16328V13.4386h4.08094v.72468Z"/><path class="cls-4" d="M55.73282,15.90569V11.50585h.70962v1.48566a12.62746,12.62746,0,0,1,2.33853,1.1l-.39072.627a9.57455,9.57455,0,0,0-1.94781-.98684v2.17406Zm2.159-3.28444a3.22206,3.22206,0,0,0-.3857-.8687l.39072-.195a3.3954,3.3954,0,0,1,.43165.87873Zm.73473-.29806a2.92129,2.92129,0,0,0-.40076-.82738l.39072-.21081a3.479,3.479,0,0,1,.43666.85827Z"/><path class="cls-5" d="M44.3623,42.79a9.85528,9.85528,0,0,1-1.51757-.11816c-6.03809-.94239-10.07422-7.32813-8.9961-14.23438a13.57153,13.57153,0,0,1,4.58106-8.34863,10.36594,10.36594,0,0,1,8.32422-2.4668c5.34375.834,9.19726,5.89941,9.16992,12.04883l.002.02441a14.67072,14.67072,0,0,1-.1748,2.16114h0c-.07422.46875-.16993.93261-.28418,1.37793C54.00977,38.91992,49.39258,42.79,44.3623,42.79Zm.8711-24.96973a10.24181,10.24181,0,0,0-6.60059,2.51074,13.25331,13.25331,0,0,0-4.47168,8.15528c-1.05078,6.7334,2.86621,12.957,8.73242,13.87305,5.44434.85351,10.70606-3.10938,12.26661-9.20313.1123-.43652.20605-.89063.27832-1.34863a14.3869,14.3869,0,0,0,.1709-2.09082l-.002-.02344c.03613-6.00293-3.708-10.94824-8.90234-11.75879A9.58761,9.58761,0,0,0,45.2334,17.82031Z"/><path class="cls-5" d="M44.3623,42.79a9.85528,9.85528,0,0,1-1.51757-.11816c-6.03809-.94239-10.07422-7.32813-8.9961-14.23438a13.57153,13.57153,0,0,1,4.58106-8.34863,10.36594,10.36594,0,0,1,8.32422-2.4668c5.34375.834,9.19726,5.89941,9.16992,12.04883l.002.02441a14.67072,14.67072,0,0,1-.1748,2.16114h0c-.07422.46875-.16993.93261-.28418,1.37793C54.00977,38.91992,49.39258,42.79,44.3623,42.79Zm.8711-24.96973a10.24181,10.24181,0,0,0-6.60059,2.51074,13.25331,13.25331,0,0,0-4.47168,8.15528c-1.05078,6.7334,2.86621,12.957,8.73242,13.87305,5.44434.85351,10.70606-3.10938,12.26661-9.20313.1123-.43652.20605-.89063.27832-1.34863a14.3869,14.3869,0,0,0,.1709-2.09082l-.002-.02344c.03613-6.00293-3.708-10.94824-8.90234-11.75879A9.58761,9.58761,0,0,0,45.2334,17.82031Z"/><path class="cls-5" d="M43.24121,41.21582a8.20488,8.20488,0,0,1-1.25879-.09766c-5.20508-.81347-8.66015-6.4707-7.70117-12.6123a12.30125,12.30125,0,0,1,3.9834-7.43652,8.56535,8.56535,0,0,1,13.36719,2.08593,12.29922,12.29922,0,0,1,1.52832,8.29688C52.2793,37.09668,47.97363,41.21582,43.24121,41.21582Zm.94531-22.15723a8.71184,8.71184,0,0,0-5.71484,2.25,11.98586,11.98586,0,0,0-3.87793,7.2461c-.93262,5.96875,2.4043,11.46484,7.4375,12.251,5.02539.78418,9.88477-3.43261,10.81641-9.40234h0a11.98323,11.98323,0,0,0-1.48536-8.083,8.5165,8.5165,0,0,0-5.95214-4.167A7.95432,7.95432,0,0,0,44.18652,19.05859Z"/><path class="cls-5" d="M44.15234,37.9248a5.6205,5.6205,0,0,1-.86425-.06738c-3.61817-.56543-6.0127-4.543-5.33692-8.86719a8.734,8.734,0,0,1,2.77539-5.2373,6.0918,6.0918,0,0,1,5.00977-1.583c3.61719.56543,6.01172,4.54395,5.33691,8.86817h0C50.45215,35.0166,47.44531,37.9248,44.15234,37.9248ZM44.86328,22.418a5.94318,5.94318,0,0,0-3.92773,1.57226,8.41566,8.41566,0,0,0-2.67188,5.04883c-.64844,4.15137,1.627,7.96778,5.07324,8.50586,3.45215.543,6.77539-2.40332,7.42383-6.55566h0c.64746-4.15235-1.62793-7.96875-5.07324-8.50684A5.32616,5.32616,0,0,0,44.86328,22.418Z"/><path class="cls-5" d="M55.8921,29.87746a.19813.19813,0,0,0-.15126-.20417c-.48726-.1189-1.09567-.23582-1.61914-.31752a16.73231,16.73231,0,0,0-1.89481-.18984.19855.19855,0,0,0-.2053.20473,10.69822,10.69822,0,0,1-.37209,2.9483.19784.19784,0,0,0,.17757.25207,16.86543,16.86543,0,0,1,1.77265.226c.53513.09582,1.14855.22647,1.647.36078a.2027.2027,0,0,0,.25113-.14652q.13768-.569.23-1.16076C55.817,31.28,55.87277,30.27144,55.8921,29.87746Z"/><path class="cls-5" d="M55.30078,33.32324a.39883.39883,0,0,1-.09473-.01172c-.46093-.125-1.05664-.25586-1.63476-.35937a16.5888,16.5888,0,0,0-1.75488-.22266.36015.36015,0,0,1-.26758-.15039.35638.35638,0,0,1-.05176-.30078,10.60257,10.60257,0,0,0,.36621-2.90527.364.364,0,0,1,.11035-.2666.36882.36882,0,0,1,.25977-.09864,17.04881,17.04881,0,0,1,1.91308.19141c.55372.08691,1.16309.20605,1.63184.32031a.35716.35716,0,0,1,.27246.36524v.001c-.02539.50781-.08105,1.44043-.167,1.98926-.0625.40137-.14063.79688-.23242,1.17383a.36135.36135,0,0,1-.35059.27441Zm-3.46289-.91015a16.97951,16.97951,0,0,1,1.79.22851c.58594.10449,1.19141.23731,1.66016.36426l.21.00586-.15332-.03711c.08886-.36914.165-.75488.22656-1.14844.08691-.55371.14355-1.55176.16309-1.95508a.04215.04215,0,0,0-.03126-.04492c-.46-.11133-1.06054-.22949-1.60546-.31445a16.60811,16.60811,0,0,0-1.877-.1875l-.19922.04687.15821-.00195a10.92139,10.92139,0,0,1-.12891,1.82129,10.71892,10.71892,0,0,1-.249,1.16992l.02539.21094Z"/><path class="cls-2" d="M54.31277,40.29386a11.70571,11.70571,0,0,0,1.46171-4.67357c.38037-2.19752.78754-3.23495-.00641-3.5863-.79167-.35032-1.56286.01244-2.028,1.82079-.52881,2.05572-.99161,3.0185-1.29055,3.1201a2.30692,2.30692,0,0,1-2.08143-.56746,2.72086,2.72086,0,0,1-.63092-2.11387l-.12411-.05286c.18825-.34365.3014-.5463.38742-.71454a1.33945,1.33945,0,0,0-1.42066-.06657,1.7944,1.7944,0,0,0-.73216,1.22348l-.02221-.0338a1.13289,1.13289,0,0,0-1.07221.39263,1.62427,1.62427,0,0,0-.38857.82066l-.02008-.0157a1.29794,1.29794,0,0,0-1.08919.42306,1.67627,1.67627,0,0,0-.41685.97311,1.07688,1.07688,0,0,0-.90953.35741c-.4347.48812-.34108,1.87226.01059,3.03336a3.9312,3.9312,0,0,0,2.189,2.35446c.97.43442,3.04049.92829,3.14734,3.00718l4.47359-.16443A8.71173,8.71173,0,0,1,54.31277,40.29386Z"/><path class="cls-5" d="M48.46875,37.5498a.16016.16016,0,0,1-.12891-.0664,4.78055,4.78055,0,0,1-.69336-2.085,2.23663,2.23663,0,0,1,.84961-2.07227,1.54963,1.54963,0,0,1,1.71485.15235.15931.15931,0,0,1,.02539.22265.16092.16092,0,0,1-.22266.02539,1.24082,1.24082,0,0,0-1.34961-.13281,1.92421,1.92421,0,0,0-.70117,1.7832,4.463,4.463,0,0,0,.63477,1.92285.15818.15818,0,0,1-.12891.25Z"/><path class="cls-5" d="M46.74316,38.60156a.158.158,0,0,1-.14746-.10058c-.47265-1.20215-.71-2.77051.042-3.56739a1.27757,1.27757,0,0,1,1.22949-.43652.15813.15813,0,0,1,.11035.19434.16.16,0,0,1-.19336.11035.97934.97934,0,0,0-.916.34863c-.53613.56836-.52734,1.83789.02246,3.23535a.15858.15858,0,0,1-.08984.20508A.16712.16712,0,0,1,46.74316,38.60156Z"/><path class="cls-5" d="M45.24512,39.8291a.158.158,0,0,1-.14746-.10058c-.47754-1.21192-.71582-2.78614.04492-3.56934a1.43654,1.43654,0,0,1,1.23047-.46777.15711.15711,0,0,1,.127.18359.16.16,0,0,1-.18262.12793,1.143,1.143,0,0,0-.94824.377c-.54.55567-.53125,1.8252.02344,3.2334a.15859.15859,0,0,1-.08985.20508A.16711.16711,0,0,1,45.24512,39.8291Z"/><path class="cls-5" d="M49.27637,46.15332a.15859.15859,0,0,1-.15821-.15039c-.08691-1.69141-1.53613-2.26367-2.59375-2.68164-.16894-.06641-.32519-.12793-.46-.18848a4.0959,4.0959,0,0,1-2.27636-2.45312c-.34375-1.13574-.4834-2.61621.02246-3.18457a1.23643,1.23643,0,0,1,1.05957-.40723.15807.15807,0,0,1-.04785.3125.91177.91177,0,0,0-.77539.30566c-.35254.39551-.334,1.63477.04394,2.88184a3.77448,3.77448,0,0,0,2.10254,2.25586c.13086.05859.2832.11914.44726.18359,1.07325.42383,2.69532,1.06543,2.794,2.96a.159.159,0,0,1-.15039.166Z"/><path class="cls-5" d="M53.75,45.98926a.159.159,0,0,1-.15625-.13184l-.01367-.083a8.83789,8.83789,0,0,1,.5918-5.55273,10.54372,10.54372,0,0,0,1.35058-4.06152l.0957-.56739c.07325-.42089.14746-.7998.21387-1.13965.2832-1.45214.37793-2.0498-.12793-2.27441a.92663.92663,0,0,0-.80566-.02539c-.42285.2041-.76074.79-1.00489,1.74023-.35546,1.37891-.88476,3.05762-1.39355,3.23047a2.47164,2.47164,0,0,1-2.25-.61132,2.86228,2.86228,0,0,1-.667-2.25489.15847.15847,0,0,1,.30859.07227,2.54844,2.54844,0,0,0,.59473,1.97168,2.15557,2.15557,0,0,0,1.91211.52344c.01855-.00684.46191-.18653,1.18847-3.00977a2.81541,2.81541,0,0,1,1.17383-1.94727,1.22871,1.22871,0,0,1,1.07227.02149c.75586.335.59765,1.14844.30957,2.624-.06641.33789-.13965.71485-.21192,1.13379l-.09668.56445a10.882,10.882,0,0,1-1.38086,4.1543,8.41064,8.41064,0,0,0-.56152,5.35449l.01465.084a.15889.15889,0,0,1-.12988.18261Z"/><path class="cls-5" d="M56.041,34.25684a3.59347,3.59347,0,0,1-1.48438-.35645.15836.15836,0,0,1-.08594-.16016c.00684-.05371.16407-1.31347.98731-1.34179l.05859-.001a.79587.79587,0,0,1,.8457.47168l-.29492.11328c-.02734-.07031-.09961-.29492-.59961-.26758-.4375.01465-.61132.6836-.66406.95215a3.3684,3.3684,0,0,0,1.24024.27344h.001l.00293.31641Z"/><path class="cls-2" d="M33.53418,47.61621a12.62934,12.62934,0,0,1-7.36816-2.458,15.7508,15.7508,0,0,1-6.05957-9.24707,15.75313,15.75313,0,0,1,1.27832-10.98047,12.29959,12.29959,0,0,1,8.05664-6.42773c6.23242-1.46973,12.7041,2.31152,15.38476,9.001a16.72932,16.72932,0,0,1,.75586,2.38671v.002c.12695.54.22754,1.07715.29688,1.59765,1.02246,7.47168-3.11817,14.26954-9.63184,15.8086A11.804,11.804,0,0,1,33.53418,47.61621ZM32.14746,20.95508a8.9611,8.9611,0,0,0-2.06934.24121A9.57054,9.57054,0,0,0,23.833,26.22168,13.44615,13.44615,0,0,0,27.77637,42.9082a9.5745,9.5745,0,0,0,7.834,1.69727c5.11914-1.21,8.35449-6.6875,7.52637-12.74317-.0586-.43457-.1416-.88378-.248-1.33691a14.02339,14.02339,0,0,0-.62988-1.99121C40.39648,23.8877,36.35156,20.95508,32.14746,20.95508Z"/><path class="cls-2" d="M33.53418,47.61621a12.62934,12.62934,0,0,1-7.36816-2.458,15.7508,15.7508,0,0,1-6.05957-9.24707,15.75313,15.75313,0,0,1,1.27832-10.98047,12.29959,12.29959,0,0,1,8.05664-6.42773c6.23242-1.46973,12.7041,2.31152,15.38476,9.001a16.72932,16.72932,0,0,1,.75586,2.38671v.002c.12695.54.22754,1.07715.29688,1.59765,1.02246,7.47168-3.11817,14.26954-9.63184,15.8086A11.804,11.804,0,0,1,33.53418,47.61621ZM32.14746,20.95508a8.9611,8.9611,0,0,0-2.06934.24121A9.57054,9.57054,0,0,0,23.833,26.22168,13.44615,13.44615,0,0,0,27.77637,42.9082a9.5745,9.5745,0,0,0,7.834,1.69727c5.11914-1.21,8.35449-6.6875,7.52637-12.74317-.0586-.43457-.1416-.88378-.248-1.33691a14.02339,14.02339,0,0,0-.62988-1.99121C40.39648,23.8877,36.35156,20.95508,32.14746,20.95508Z"/><path class="cls-2" d="M32.47656,46.37305c-5.36523,0-10.43652-4.32032-11.91308-10.56836A14.39485,14.39485,0,0,1,21.6084,25.9873a10.6499,10.6499,0,0,1,7.041-5.752c6.13672-1.45019,12.51368,3.16992,14.19922,10.30176s-1.9414,14.11621-8.085,15.56934A9.94793,9.94793,0,0,1,32.47656,46.37305ZM30.9502,22.73438a7.22243,7.22243,0,0,0-1.66407.19433,7.92951,7.92951,0,0,0-5.21,4.31055,11.6319,11.6319,0,0,0-.81933,7.92871c1.335,5.64746,6.208,9.34765,10.87011,8.24512,4.65918-1.10157,7.36328-6.5918,6.02832-12.23926C38.97949,26.19824,35.05371,22.73438,30.9502,22.73438Z"/><path class="cls-2" d="M33.085,42.53711c-3.90723,0-7.60449-3.165-8.68457-7.73633a10.5679,10.5679,0,0,1,.73145-7.13867,7.73872,7.73872,0,0,1,5.13769-4.23535c4.46777-1.05176,9.1084,2.32715,10.34082,7.543,1.23242,5.21484-1.40137,10.31738-5.87012,11.374A7.26088,7.26088,0,0,1,33.085,42.53711ZM31.94141,26a4.50439,4.50439,0,0,0-1.03516.12012,5.02007,5.02007,0,0,0-3.29785,2.77636,7.8038,7.8038,0,0,0-.51465,5.26758c.87988,3.73047,4.03418,6.18848,7.00977,5.48633,2.98437-.70605,4.69531-4.31445,3.81347-8.04394h0C37.1377,28.30664,34.58594,26,31.94141,26Z"/><path class="cls-2" d="M40.72852,33.86035a1.59512,1.59512,0,0,1-1.583-1.40527,10.15834,10.15834,0,0,0-.72363-2.7041,1.59665,1.59665,0,0,1,.92382-2.127,19.19461,19.19461,0,0,1,2.10938-.623c.63086-.14942,1.30566-.28125,1.85156-.36133a1.59945,1.59945,0,0,1,1.73926,1.0498h0c.1875.53418.52539,1.52539.67578,2.168.10742.44922.19434.90332.2627,1.35352a1.60127,1.60127,0,0,1-1.39161,1.82812c-.46289.05762-1.085.165-1.6582.28711a16.75416,16.75416,0,0,0-1.709.4541A1.58055,1.58055,0,0,1,40.72852,33.86035Zm1.16308-1.74512v0Zm1.35645-.49121v0Zm-2.875-.47656-.01075.00391Zm1.03515-1.27734c.08887.2832.167.56933.23438.85547l.01269.05566c.23243-.05762.4668-.1123.70411-.16211.2207-.04687.44531-.0918.668-.13281-.05175-.21875-.14843-.54492-.27441-.9375-.22168.04492-.44531.09472-.66113.14551C41.86035,29.749,41.63184,29.80762,41.4082,29.87012Zm2.84766.42187-.00879.001Zm-.54-.915-.01074.001Zm-2.74707-.709.00391.00976Z"/><path class="cls-2" d="M43.01855,48.6377l-.5791-1.23536c-.375-.80175-1.10644-.91113-2.5459-.91406-.21582.00195-.41308.00391-.58789-.002a5.53545,5.53545,0,0,1-4.15039-1.96192c-.49023-.60449-2.04492-2.70605-1.46484-4.33984a2.51235,2.51235,0,0,1,.59766-.95019,2.80834,2.80834,0,0,1,.20019-.96,2.92648,2.92648,0,0,1,.81543-1.13574,2.85385,2.85385,0,0,1,.97461-1.81543,2.95345,2.95345,0,0,1,.53223-1.47265,2.78577,2.78577,0,0,1,2.791-1.06348L40.85352,33l-.1045,1.26562c-.00488.05958-.01074.123-.01855.19336l.05469.34278a1.65337,1.65337,0,0,0,.7207.81543.86059.86059,0,0,0,.52344-.00489,15.04154,15.04154,0,0,0-.1875-2.46,4.04265,4.04265,0,0,1,.67968-3.38379,2.61115,2.61115,0,0,1,2.00977-.81152c1.85449.05469,2.19434,1.7832,2.52246,3.45508.07031.35449.14746.75.24317,1.18652l.13183.59571a12.81174,12.81174,0,0,1,.334,5.0498h0a7.913,7.913,0,0,0,1.42675,4.79l.833,1.3418-1.38965.72949Zm-2.83593-4.919a5.31672,5.31672,0,0,1,3.98926,1.3623l1.9375-.874A9.71757,9.71757,0,0,1,45.00684,39h0a9.81512,9.81512,0,0,0-.207-3.88184c.03907,1.50586-.23925,2.11231-.69921,2.51075a3.81817,3.81817,0,0,1-3.80762.47656,3.98011,3.98011,0,0,1-.9082-.61914l.35449,1.72851-1.58008-1.0664.34863,1.76758-1.43652-.42579a.786.786,0,0,0,.01855.08106l.35645,1.34961-1.06543.27246a5.40263,5.40263,0,0,0,.9248,1.58887,2.822,2.822,0,0,0,2.09375.93847c.13965.00391.293.00293.46485.001C39.96191,43.71973,40.06934,43.71875,40.18262,43.71875Z"/><path class="cls-2" d="M39.41113,39.98926a1.37036,1.37036,0,0,1-.73925-.21582,6.34466,6.34466,0,0,1-1.96973-2.27832,3.56026,3.56026,0,0,1,.10937-3.64551,2.84228,2.84228,0,0,1,3.0918-.99512,1.38383,1.38383,0,0,1-.75293,2.66309.43.43,0,0,0-.15723-.00293,2.273,2.273,0,0,0,.19336.76074,3.72625,3.72625,0,0,0,.96778,1.16211,1.3838,1.3838,0,0,1-.74317,2.55176Z"/><path class="cls-2" d="M38.126,41.72949a1.38344,1.38344,0,0,1-1.001-.42773c-1.57129-1.64551-2.18945-3.45313-1.65332-4.835a2.59235,2.59235,0,0,1,2.03223-1.69629,1.38374,1.38374,0,0,1,.55761,2.70019,3.08874,3.08874,0,0,0,1.06543,1.919,1.38377,1.38377,0,0,1-1.001,2.33984Zm-.24121-4.21875c-.01856.00293-.03809.00586-.05665.00781C37.84082,37.51758,37.86133,37.51465,37.88477,37.51074Z"/><path class="cls-2" d="M37.13672,43.55371a1.37741,1.37741,0,0,1-1.001-.42871c-1.58691-1.66309-2.20312-3.47656-1.64746-4.85156a2.78888,2.78888,0,0,1,1.90527-1.69532,1.38384,1.38384,0,0,1,.69629,2.67579c-.083.26757.18946,1.06054,1.04786,1.96093a1.3838,1.3838,0,0,1-1.001,2.33887Zm-.165-4.26953-.002.001Zm.002,0h0Z"/><path class="cls-2" d="M43.69336,48.19922a1.38394,1.38394,0,0,1-1.25391-.79688c-.375-.80175-1.10449-.91113-2.5459-.91406-.21582.00195-.41308.00391-.58789-.002a5.53545,5.53545,0,0,1-4.15039-1.96192c-.49023-.60449-2.04492-2.70605-1.46484-4.33984a2.54423,2.54423,0,0,1,1.75-1.6084,1.38378,1.38378,0,0,1,.93066,2.58789,5.342,5.342,0,0,0,.93457,1.61817,2.822,2.822,0,0,0,2.09375.93847c.13965.00391.293.00293.46485.001,1.26074-.0127,3.88769-.041,5.081,2.50684a1.384,1.384,0,0,1-1.252,1.9707Zm-7.55957-6.94434-.05469.01465C36.09668,41.26465,36.11523,41.26074,36.13379,41.25488Z"/><path class="cls-2" d="M46.88672,45.57129l1.17676-.72754-1.22559.64941A10.59642,10.59642,0,0,1,45.00684,39a9.81512,9.81512,0,0,0-.207-3.88184c.03907,1.50293-.23828,2.10938-.69726,2.50879a3.81692,3.81692,0,0,1-3.80957.47852,4.297,4.297,0,0,1-2.24024-2.86817,1.38346,1.38346,0,0,1,2.73243-.43554,1.65337,1.65337,0,0,0,.7207.81543.85757.85757,0,0,0,.52246-.00489,14.99361,14.99361,0,0,0-.18652-2.46,4.04265,4.04265,0,0,1,.67968-3.38379,2.61115,2.61115,0,0,1,2.00977-.81152c1.85449.05469,2.19434,1.7832,2.52246,3.45508.07031.35449.14746.75.24317,1.18652l.13183.59571a12.81174,12.81174,0,0,1,.334,5.0498,7.913,7.913,0,0,0,1.42675,4.79l-1.126.80957Z"/><path class="cls-2" d="M44.29,33.9043c-.11231,0-.22754-.00391-.34375-.01368a1.3826,1.3826,0,0,1-1.22363-1.00878A2.55287,2.55287,0,0,1,43.834,29.71777a2.08933,2.08933,0,0,1,2.46875.37891l-1.1582,1.08789.98731,2.36914A5.18044,5.18044,0,0,1,44.29,33.9043Z"/><path class="cls-4" d="M33.23145,46.92383c-5.291,0-10.41407-3.96387-12.25-9.96C18.791,29.81055,22.09766,22.43164,28.35156,20.5166c5.53516-1.69726,11.61817,1.38574,14.46582,7.32422l.00782.01465a15.50811,15.50811,0,0,1,.84277,2.16308c.14648.4795.27148.97071.37109,1.46,1.37989,6.7705-1.94824,13.21386-7.74218,14.9873A10.42947,10.42947,0,0,1,33.23145,46.92383ZM31.44434,20.37012a10.21051,10.21051,0,0,0-3.001.44922c-6.08691,1.86425-9.29883,9.06543-7.15918,16.05273,2.13867,6.98731,8.83008,11.15234,14.9209,9.291,5.63672-1.72559,8.87109-8.01172,7.52344-14.62207-.09668-.4795-.21875-.96-.36329-1.43067h0a15.27939,15.27939,0,0,0-.81835-2.10351l-.00782-.01465C40.27246,23.252,35.9043,20.37012,31.44434,20.37012Z"/><path class="cls-4" d="M33.23145,46.92383c-5.291,0-10.41407-3.96387-12.25-9.96C18.791,29.81055,22.09766,22.43164,28.35156,20.5166c5.53516-1.69726,11.61817,1.38574,14.46582,7.32422l.00782.01465a15.50811,15.50811,0,0,1,.84277,2.16308c.14648.4795.27148.97071.37109,1.46,1.37989,6.7705-1.94824,13.21386-7.74218,14.9873A10.42947,10.42947,0,0,1,33.23145,46.92383ZM31.44434,20.37012a10.21051,10.21051,0,0,0-3.001.44922c-6.08691,1.86425-9.29883,9.06543-7.15918,16.05273,2.13867,6.98731,8.83008,11.15234,14.9209,9.291,5.63672-1.72559,8.87109-8.01172,7.52344-14.62207-.09668-.4795-.21875-.96-.36329-1.43067h0a15.27939,15.27939,0,0,0-.81835-2.10351l-.00782-.01465C40.27246,23.252,35.9043,20.37012,31.44434,20.37012Z"/><path class="cls-4" d="M32.15234,45.75879a9.9143,9.9143,0,0,1-5.37207-1.65625,13.16338,13.16338,0,0,1-5.34961-7.27442c-1.94824-6.36132.85254-12.87988,6.24317-14.53124a9.45136,9.45136,0,0,1,7.959,1.26953,13.1656,13.1656,0,0,1,5.34961,7.27539c1.94824,6.36132-.85254,12.8789-6.24316,14.53027A8.82048,8.82048,0,0,1,32.15234,45.75879ZM30.25977,22.22656a8.48809,8.48809,0,0,0-2.49415.373C22.543,24.19922,19.83594,30.541,21.7334,36.73633a12.84676,12.84676,0,0,0,5.21875,7.10058,9.13006,9.13006,0,0,0,7.69531,1.23243c5.22363-1.59961,7.92969-7.94043,6.03223-14.13575h0A12.84909,12.84909,0,0,0,35.46094,23.832,9.60291,9.60291,0,0,0,30.25977,22.22656Z"/><path class="cls-4" d="M32.71,41.88086c-3.208,0-6.3584-2.52051-7.5166-6.30371a9.35044,9.35044,0,0,1,.22461-6.33887A6.52986,6.52986,0,0,1,29.499,25.376c3.74121-1.14551,7.90723,1.56445,9.27832,6.042h0a9.35038,9.35038,0,0,1-.22558,6.33887,6.52664,6.52664,0,0,1-4.08008,3.86132A6.0047,6.0047,0,0,1,32.71,41.88086ZM31.26172,25.42969a5.68548,5.68548,0,0,0-1.6709.249A6.21965,6.21965,0,0,0,25.71,29.36133a9.0263,9.0263,0,0,0-.21387,6.124c1.31934,4.30957,5.30371,6.92578,8.88379,5.83008a6.21788,6.21788,0,0,0,3.88086-3.68164,9.026,9.026,0,0,0,.21387-6.124h0C37.35742,27.86328,34.333,25.42969,31.26172,25.42969Z"/><path class="cls-4" d="M42.88906,28.04156a.21226.21226,0,0,0-.24131-.126c-.52523.1134-1.16628.28538-1.709.45157a17.9244,17.9244,0,0,0-1.91492.7036.2127.2127,0,0,0-.10206.29336,11.4622,11.4622,0,0,1,1.02086,3.01548.21194.21194,0,0,0,.28907.15985,18.07168,18.07168,0,0,1,1.81414-.61156c.56055-.158,1.21287-.31913,1.75609-.42291a.21714.21714,0,0,0,.17346-.25871q-.13353-.61282-.32139-1.2263C43.47284,29.42837,43.05477,28.4303,42.88906,28.04156Z"/><path class="cls-4" d="M40.15039,32.71289a.36324.36324,0,0,1-.17676-.04492.37039.37039,0,0,1-.18652-.25879,11.27959,11.27959,0,0,0-1.00684-2.97363.38109.38109,0,0,1-.01855-.29785.36228.36228,0,0,1,.19824-.21192,18.36878,18.36878,0,0,1,1.93164-.71c.5791-.17676,1.22266-.34668,1.72266-.4541a.37058.37058,0,0,1,.41992.21875c.13379.3125.581,1.373.77148,1.99219.126.415.23536.832.32422,1.24023a.37247.37247,0,0,1-.05273.28516.38453.38453,0,0,1-.2461.16211c-.5.0957-1.13476.248-1.74218.41992a18.05835,18.05835,0,0,0-1.79883.60547A.36672.36672,0,0,1,40.15039,32.71289Zm2.54395-4.64355-.0127.001c-.49219.10645-1.127.27344-1.69726.44824a18.07755,18.07755,0,0,0-1.89747.69629.04939.04939,0,0,0-.02734.03028.05672.05672,0,0,0,.00391.04785,11.6059,11.6059,0,0,1,1.03418,3.05762.05821.05821,0,0,0,.02832.04.05959.05959,0,0,0,.04687.002,18.352,18.352,0,0,1,1.83008-.61719c.61523-.17383,1.26074-.3291,1.76953-.42578a.06907.06907,0,0,0,.041-.02637.05819.05819,0,0,0,.00781-.043c-.08691-.40039-.19434-.80859-.31836-1.21484-.18555-.60449-.62891-1.6543-.75977-1.96094v-.001A.05176.05176,0,0,0,42.69434,28.06934Z"/><path class="cls-2" d="M46.24068,38.81921a12.54052,12.54052,0,0,0-.778-5.188c-.66161-2.29581-.75461-3.48613-1.68416-3.45326-.92687.03279-1.50037.74323-1.10256,2.70365.45221,2.22861.45666,3.373.2161,3.61079a2.47142,2.47142,0,0,1-2.27147.427,2.91493,2.91493,0,0,1-1.5971-1.742l-.14434.00713c.02064-.41927.03487-.66752.03906-.8699a1.43494,1.43494,0,0,0-1.40029.60055,1.92229,1.92229,0,0,0-.13317,1.52168l-.03722-.02217a1.21369,1.21369,0,0,0-.84963.88006,1.74009,1.74009,0,0,0,.0095.97271l-.0267-.00573a1.39047,1.39047,0,0,0-.85175.91733,1.79573,1.79573,0,0,0,.05357,1.13286,1.1537,1.1537,0,0,0-.70933.77c-.19055.6738.5473,1.964,1.42948,2.9184A4.21148,4.21148,0,0,0,39.614,45.24515c1.13808-.03517,3.36458-.528,4.44024,1.42555l4.23445-2.25161A9.33293,9.33293,0,0,1,46.24068,38.81921Z"/><path class="cls-4" d="M39.251,38.915a.14919.14919,0,0,1-.0752-.01953,5.10411,5.10411,0,0,1-1.63965-1.68067,2.386,2.386,0,0,1-.15234-2.38379,1.64538,1.64538,0,0,1,1.71289-.64941.15829.15829,0,0,1,.11914.18848.161.161,0,0,1-.18848.12011,1.343,1.343,0,0,0-1.376.50879,2.07615,2.07615,0,0,0,.1582,2.05762,4.82874,4.82874,0,0,0,1.5166,1.56152.15807.15807,0,0,1-.07519.29688Z"/><path class="cls-4" d="M38.08008,40.73535a.15892.15892,0,0,1-.10742-.042c-1.01563-.93359-1.97657-2.33008-1.625-3.44629a1.36092,1.36092,0,0,1,.97168-.9873.15171.15171,0,0,1,.18359.12695.15744.15744,0,0,1-.126.18359,1.05973,1.05973,0,0,0-.72851.77246c-.25293.80274.35156,2.02637,1.53906,3.11817a.1582.1582,0,0,1-.10742.27441Z"/><path class="cls-4" d="M37.21094,42.62012a.15889.15889,0,0,1-.10742-.042c-1.0254-.94238-1.99024-2.34277-1.625-3.44921a1.54263,1.54263,0,0,1,.959-1.01953.15842.15842,0,0,1,.08691.30468h0a1.226,1.226,0,0,0-.74511.81446c-.2627.793.34179,2.0166,1.53906,3.11718a.15821.15821,0,0,1-.10742.27442Z"/><path class="cls-4" d="M44.05469,46.8291a.1581.1581,0,0,1-.13867-.082c-.87891-1.59668-2.54981-1.47168-3.76563-1.377-.19434.01465-.373.02832-.53125.0332a4.43123,4.43123,0,0,1-3.333-1.2959c-.86035-.93164-1.68652-2.28906-1.46484-3.06836a1.31323,1.31323,0,0,1,.82324-.88086.15832.15832,0,0,1,.09277.30274h0a.992.992,0,0,0-.61132.66406c-.15625.5498.44238,1.73926,1.39257,2.76758a4.04076,4.04076,0,0,0,3.09083,1.19433c.15429-.00488.32812-.01757.5166-.03222,1.23632-.0918,3.09082-.23438,4.06738,1.54a.15873.15873,0,0,1-.0625.21484A.16357.16357,0,0,1,44.05469,46.8291Z"/><path class="cls-4" d="M48.28906,44.57715a.16015.16015,0,0,1-.1289-.06641l-.05371-.07519A9.46209,9.46209,0,0,1,46.082,38.81543a11.299,11.299,0,0,0-.59961-4.55078l-.17187-.58985c-.127-.44238-.2334-.84277-.3291-1.20214-.40723-1.53614-.59083-2.17286-1.19727-2.13672a1.007,1.007,0,0,0-.79688.35644,2.74553,2.74553,0,0,0-.15625,2.15821c.30274,1.49218.57813,3.35449.17188,3.7539a2.63153,2.63153,0,0,1-2.44238.46094,3.05431,3.05431,0,0,1-1.69141-1.85254.15806.15806,0,0,1,.11914-.18945.15543.15543,0,0,1,.18945.11914,2.74322,2.74322,0,0,0,1.502,1.62988,2.31094,2.31094,0,0,0,2.10058-.39258c.1377-.13574.23731-1.01758-.25976-3.46679a3.00922,3.00922,0,0,1,.21875-2.417,1.30825,1.30825,0,0,1,1.0332-.47656l.04492-.001c.84082,0,1.06641.85059,1.46973,2.373.09473.35742.20117.75586.32812,1.19531l.1709.58887a11.6501,11.6501,0,0,1,.61231,4.64746A9.025,9.025,0,0,0,48.36426,44.252l.05371.0752a.15809.15809,0,0,1-.03711.2207A.16.16,0,0,1,48.28906,44.57715Z"/><path class="cls-4" d="M43.52832,32.53223a.18756.18756,0,0,1-.19043-.10645c-.01855-.05371-.45508-1.334.31836-1.74023a.86365.86365,0,0,1,1.07813.02636l-.21485.23243c-.0625-.05762-.249-.22559-.71582.0205-.42578.22364-.27344.97071-.19824,1.25a3.60726,3.60726,0,0,0,1.33594-.31836l.14062.28321A3.85077,3.85077,0,0,1,43.52832,32.53223Z"/><path class="cls-2" d="M36.51758,24.93262a.98834.98834,0,0,1-.63379-1.748,14.33171,14.33171,0,0,1,7.48828-3.28711,13.91737,13.91737,0,0,1,6.05469.64063.98821.98821,0,0,1-.625,1.875,11.961,11.961,0,0,0-5.19922-.55274,12.18736,12.18736,0,0,0-6.45313,2.84375A.98681.98681,0,0,1,36.51758,24.93262Z"/><path class="cls-2" d="M48.85059,23.48047A.98822.98822,0,0,1,48.5,21.56836l.46387-.17676-.21-.45019a.98872.98872,0,0,1,1.793-.834l.6582,1.41406a.98782.98782,0,0,1-.5459,1.34082l-1.458.55372A.98013.98013,0,0,1,48.85059,23.48047Z"/><path class="cls-2" d="M37.50977,25.48242h-.03028l-1.55859-.04687a.98959.98959,0,0,1-.9541-1.09082l.16113-1.55176a.98873.98873,0,0,1,1.9668.20508l-.05176.49316.49512.01465a.98849.98849,0,0,1-.02832,1.97656Z"/><path class="cls-4" d="M36.92383,23.77441a.159.159,0,0,1-.125-.06152.15736.15736,0,0,1,.02832-.22168c.13769-.10547.27637-.21.417-.31152a.158.158,0,0,1,.18555.25586c-.13867.09961-.27539.20215-.40918.30566A.15681.15681,0,0,1,36.92383,23.77441Zm1.27148-.88086a.15809.15809,0,0,1-.082-.293c.14844-.09082.29883-.17969.44922-.26563a.16.16,0,0,1,.21582.05957.15829.15829,0,0,1-.05957.21582c-.14844.084-.29492.1709-.44141.25977A.15625.15625,0,0,1,38.19531,22.89355Zm1.36328-.73437a.158.158,0,0,1-.06738-.30078c.1582-.0752.31738-.14551.47754-.21289a.158.158,0,0,1,.123.291c-.15625.06543-.31153.13379-.46582.207A.15118.15118,0,0,1,39.55859,22.15918Zm9.55567-.52539a.17664.17664,0,0,1-.04981-.00781q-.24169-.082-.48535-.15137a.15829.15829,0,0,1,.08594-.30469c.168.04785.334.10059.499.15528a.15829.15829,0,0,1-.0498.30859Zm-8.11719-.04688a.15829.15829,0,0,1-.0498-.30859c.166-.05469.332-.10547.5-.15332a.15829.15829,0,1,1,.08593.30469c-.16406.0459-.32617.09668-.48632.14941A.1767.1767,0,0,1,40.99707,21.58691Zm6.623-.35937a.18013.18013,0,0,1-.03223-.00293q-.249-.05274-.502-.0957a.15862.15862,0,1,1,.05468-.3125c.1709.03027.3418.0625.51172.09863a.158.158,0,0,1-.03222.3125Zm-5.127-.03418a.1582.1582,0,0,1-.03027-.31348c.16992-.0332.3418-.06445.51465-.09082a.15212.15212,0,0,1,.18066.13184.158.158,0,0,1-.13183.18066q-.25343.03956-.50293.08887A.1593.1593,0,0,1,42.49316,21.19336Zm3.59668-.19434-.01464-.001c-.168-.01563-.3379-.02637-.50782-.03418a.15828.15828,0,0,1,.00684-.31641h.00683c.17579.00781.34961.02051.52344.03613a.15806.15806,0,0,1-.01465.31543Zm-2.06347-.01367a.158.158,0,0,1-.0127-.31543c.17481-.01465.34863-.02344.52246-.0293a.15831.15831,0,1,1,.01172.31641c-.16992.00586-.33984.01465-.50879.02735Z"/><path class="cls-4" d="M48.85059,22.68945a.19735.19735,0,0,1-.07032-.38183L50.04,21.8291l-.56934-1.22168a.19807.19807,0,0,1,.09668-.26269.20046.20046,0,0,1,.2627.09668l.6582,1.41406a.1999.1999,0,0,1,.00391.15723.2027.2027,0,0,1-.11328.11035l-1.458.55371A.19831.19831,0,0,1,48.85059,22.68945Z"/><path class="cls-4" d="M37.50879,24.69141h-.00586l-1.55859-.04688a.19262.19262,0,0,1-.14258-.06738.19625.19625,0,0,1-.04785-.15039L35.915,22.875a.19886.19886,0,0,1,.2168-.17578.19677.19677,0,0,1,.17578.2168L36.169,24.25586l1.3457.041a.19731.19731,0,0,1-.00586.39453Z"/></g></g></svg>