<svg xmlns="http://www.w3.org/2000/svg" viewBox="0 0 75 75"><defs><style>.cls-2{fill:#f0f8fa}.cls-4{fill:#00afca}</style></defs><g id="レイヤー_2" data-name="レイヤー 2"><g id="レイヤー_2-2" data-name="レイヤー 2"><rect width="75" height="75" rx="8.362" transform="rotate(90 37.5 37.5)" fill="none"/><path class="cls-2" d="M8.362 5h58.276A3.362 3.362 0 0170 8.362v58.276A3.362 3.362 0 0166.638 70H8.362A3.362 3.362 0 015 66.638V8.362A3.362 3.362 0 018.362 5z" transform="rotate(90 37.5 37.5)"/><path d="M66.638 70.125H8.362a3.491 3.491 0 01-3.487-3.487V8.362a3.491 3.491 0 013.487-3.487h58.276a3.491 3.491 0 013.487 3.487v58.276a3.491 3.491 0 01-3.487 3.487zm-58.276-65a3.24 3.24 0 00-3.237 3.237v58.276a3.24 3.24 0 003.237 3.237h58.276a3.24 3.24 0 003.237-3.237V8.362a3.24 3.24 0 00-3.237-3.237z" fill="#666"/><path class="cls-4" d="M18.854 58.994c-.578 0-.744-.15-.759-.562l-.012-.645h-.493v-.173h.489c-.002-.211-.005-.41-.005-.522h.2l.004.522h.766c0-.18-.003-.415-.01-.562h.192c.005.137.007.379.007.562h.486v.173h-.486c-.002.566-.04.666-.289.666a1.943 1.943 0 01-.272-.019v-.161a1.88 1.88 0 00.239.014c.12 0 .133-.03.133-.5h-.764c.003.29.007.566.01.633.012.315.109.396.564.396.183 0 .341-.005.489-.014v.18c-.133.01-.304.012-.489.012zm.584-1.551a1.482 1.482 0 00-.157-.365l.114-.06a1.603 1.603 0 01.166.37zm.26-.164a1.56 1.56 0 00-.166-.355l.116-.062a1.472 1.472 0 01.171.363zM21.271 59.003a.385.385 0 01-.422-.353c-.016-.102-.028-.202-.038-.27-.016-.105-.05-.162-.128-.162a.522.522 0 00-.315.242 1.263 1.263 0 00-.1.18c-.059.126-.104.22-.177.387l-.176-.071c.216-.517.517-1.252.773-1.887l.192.064c-.187.448-.332.78-.441 1.06a.459.459 0 01.303-.164c.155 0 .223.106.252.265l.045.287c.026.18.111.237.242.237.204 0 .377-.23.44-.687l.171.064c-.07.488-.28.808-.62.808zM22.891 59.024c-.412 0-.656-.19-.656-.675v-1.307h.21v1.293c0 .372.157.49.458.49a.772.772 0 00.7-.54l.166.114a.958.958 0 01-.878.625zM25.328 59.003a.385.385 0 01-.422-.353c-.017-.102-.029-.202-.038-.27-.017-.105-.05-.162-.128-.162a.522.522 0 00-.315.242 1.263 1.263 0 00-.1.18c-.06.126-.104.22-.178.387l-.175-.071c.216-.517.517-1.252.773-1.887l.192.064c-.188.448-.332.78-.441 1.06a.459.459 0 01.303-.164c.154 0 .223.106.251.265l.046.287c.025.18.11.237.241.237.204 0 .377-.23.441-.687l.17.064c-.07.488-.279.808-.62.808zM38.914 58.892l-.038-.19c.901-.003 1.28-.247 1.28-.673 0-.266-.18-.498-.576-.498a5.133 5.133 0 00-1.078.197l-.052-.195a6.122 6.122 0 011.159-.2.685.685 0 01.763.693c0 .524-.424.866-1.458.866zM48.104 59.1v-.685c-.128.142-.254.291-.37.431l-.142-.128c.154-.187.334-.394.512-.588v-.386h-.472v-.176h.472v-.528h.2v.88c.118-.124.227-.233.317-.319a.75.75 0 01.488-.267c.164 0 .244.125.244.362 0 .129-.023.873-.023.98s.023.142.142.142a.93.93 0 00.266-.045v.187a1.366 1.366 0 01-.302.04c-.23 0-.305-.08-.305-.31 0-.119.02-.849.02-.956 0-.144-.03-.192-.084-.192-.071 0-.185.071-.342.22a9.317 9.317 0 00-.422.432v.906zM51.266 59.052a.385.385 0 01-.422-.353c-.017-.102-.029-.201-.038-.27-.017-.105-.05-.161-.128-.161a.522.522 0 00-.316.241 1.265 1.265 0 00-.1.18c-.058.126-.104.221-.177.387l-.176-.07c.216-.518.517-1.253.773-1.888l.192.064c-.187.448-.331.78-.44 1.06a.459.459 0 01.303-.164c.154 0 .223.107.251.265.017.1.029.183.045.287.026.18.112.238.242.238.204 0 .377-.23.441-.688l.17.064c-.07.489-.279.808-.62.808zM52.189 59.02a4.407 4.407 0 01-.073-.892 8.392 8.392 0 01.06-.958h.198a8.198 8.198 0 00-.062.96 4.4 4.4 0 00.069.851zm1.683-.138a1.425 1.425 0 00-.339-.232c-.014.281-.133.393-.408.393-.277 0-.479-.13-.479-.332 0-.194.192-.322.474-.322a1.17 1.17 0 01.223.02l-.011-.644h-.717v-.173h.714c-.002-.142-.002-.291-.002-.44h.19c0 .146 0 .295.002.44h.424v.173h-.422c.005.285.012.536.015.7a1.534 1.534 0 01.45.28zm-.766-.332c-.177 0-.291.059-.291.161 0 .11.125.17.296.17.166 0 .232-.063.235-.3a.916.916 0 00-.24-.031zm.75-1.11a.268.268 0 11.265-.268.268.268 0 01-.265.268zm0-.436a.168.168 0 10.168.168.169.169 0 00-.168-.168zM54.701 58.941l-.038-.19c.901-.002 1.28-.246 1.28-.673 0-.265-.18-.498-.576-.498a5.138 5.138 0 00-1.079.197l-.052-.195a6.122 6.122 0 011.16-.199.684.684 0 01.763.693c0 .524-.424.865-1.458.865zM25.162 10.098l.192.408.349-.284-.005.45.438-.105-.199.404.439.096-.354.277.354.277-.439.096.199.403-.438-.104.005.45-.349-.284-.192.407-.191-.407-.349.284.005-.45-.438.104.199-.403-.44-.096.355-.277-.355-.277.44-.096-.199-.404.438.105-.005-.45.349.284.191-.408zM22.951 11.763l.191.408.349-.285-.004.451.438-.105-.2.404.44.095-.355.277.355.278-.44.095.2.404-.438-.105.004.45-.349-.284-.191.408-.191-.408-.349.284.004-.45-.438.105.2-.404-.44-.095.355-.278-.355-.277.44-.095-.2-.404.438.105-.004-.451.349.285.191-.408zM27.455 11.763l.192.408.349-.285-.005.451.438-.105-.199.404.44.095-.355.277.355.278-.44.095.199.404-.438-.105.005.45-.349-.284-.192.408-.191-.408-.349.284.005-.45-.438.105.199-.404-.44-.095.355-.278-.355-.277.44-.095-.199-.404.438.105-.005-.451.349.285.191-.408zM24.338 14.235l.755-1.099a.084.084 0 01.138 0l.756 1.1a.084.084 0 01-.07.13h-1.51a.084.084 0 01-.07-.13zM25.987 16.044l-.756 1.098a.084.084 0 01-.138 0l-.755-1.098a.084.084 0 01.069-.131h1.51a.084.084 0 01.07.13z"/><path class="cls-4" d="M24.83 16.078v-1.973c0-.028.037-.051.083-.051h.498c.046 0 .084.023.084.05v1.974c0 .028-.038.05-.084.05h-.498c-.046 0-.083-.022-.083-.05zM32.397 15.916l-.237-.606c1.342-.144 2.077-.807 2.226-1.758h-3.177v-.638h4.025a3.004 3.004 0 01-2.837 3.002zm-.643-3.593v-.637h2.92v.637zM37.654 14.333a8.397 8.397 0 00-.447-1.347l.555-.216a9.083 9.083 0 01.514 1.337zm.484 1.624l-.334-.54a2.574 2.574 0 002.05-2.693h.668a3.22 3.22 0 01-2.384 3.233zm.57-1.789a7.71 7.71 0 00-.442-1.34l.56-.222a9.011 9.011 0 01.504 1.336zM44.017 14.107a7.718 7.718 0 00-1.47-.735l.314-.57a9.156 9.156 0 011.496.673zm-.92 1.763l-.195-.679a3.806 3.806 0 003.315-2.42l.56.446a4.468 4.468 0 01-3.68 2.653zm1.578-2.94a8.406 8.406 0 00-1.475-.74l.319-.566a10.137 10.137 0 011.496.673zM48.355 15.674v-.596h2.169l.113-1.63h-1.799v-.595h2.529l-.165 2.225h.807v.596zM18.934 60.767a2.149 2.149 0 00-.253-.467c.114-.042.192-.067.27-.092a2.277 2.277 0 01.292.551l-.021.008h.822a4.285 4.285 0 00.32-.563l.303.1a4.869 4.869 0 01-.299.463h.925v.252H18.02v-.252zm-.374 1.936v.772h-.281v-2.174h1.22v1.9c0 .153-.042.239-.177.264a2.45 2.45 0 01-.374.01l-.043-.249c.085.004.203.004.242.004.053-.007.068-.029.068-.075v-.452zm.655-.815v-.342h-.655v.342zm0 .584v-.36h-.655v.36zm.972-1.14v1.563h-.285v-1.562zm.85-.12v1.96c0 .168-.05.264-.206.293a3.025 3.025 0 01-.449.007l-.046-.26c.114.007.274.007.324.003a.077.077 0 00.082-.089v-1.915zM23.19 63.158c.387.01 1.252.007 1.686-.01l-.05.277c-.423.011-1.27.011-1.683 0a1.124 1.124 0 01-.9-.391c-.21.185-.396.327-.566.455a3.258 3.258 0 00-.132-.292 4.72 4.72 0 00.541-.388v-.893h-.488v-.27h.77v1.128a.971.971 0 00.822.384zm-1.332-2.893a3.05 3.05 0 01.594.616l-.249.167a2.808 2.808 0 00-.558-.62zm2.926 2.342v.234h-2.008v-1.466a3.302 3.302 0 01-.23.274l-.21-.181a3.076 3.076 0 00.747-1.264l.274.064a3.995 3.995 0 01-.207.513h.467a5.517 5.517 0 00.195-.566l.3.06a5.349 5.349 0 01-.21.506h.814v.228h-.758v.377h.63v.224h-.63v.381h.63v.224h-.63v.392zm-1.114-1.221v-.377h-.602v.377zm0 .605v-.38h-.602v.38zm0 .616v-.392h-.602v.392zM26.498 63.365c-.619 0-.985-.285-.985-1.015v-1.96h.316v1.94c0 .558.235.736.687.736a1.16 1.16 0 001.05-.812l.25.171a1.439 1.439 0 01-1.318.94zM29.406 60.955h.622v.26h-.69a5.949 5.949 0 01-.694 1.626l-.27-.152a5.2 5.2 0 00.65-1.474h-.611v-.26h.676a5.101 5.101 0 00.113-.651h.317a6.823 6.823 0 01-.113.651zm1.772 2.168a2.195 2.195 0 00-.573-.363v.043c0 .437-.182.598-.609.598-.41 0-.733-.207-.733-.51 0-.305.299-.505.765-.505a1.593 1.593 0 01.292.025v-.979h.285v1.05a2.434 2.434 0 01.737.417zm-1.164-.488c-.285 0-.491.093-.491.26 0 .16.203.26.445.26.26 0 .352-.078.352-.349v-.139a1.473 1.473 0 00-.306-.032zm1.239-1.299a3.078 3.078 0 00-.961-.388l.1-.253a3.64 3.64 0 01.992.385zM32.829 61.144h.238c.523 0 .712.228.712.765a2.469 2.469 0 01-.228 1.164.459.459 0 01-.473.26 1.34 1.34 0 01-.502-.107l.035-.25a1.268 1.268 0 00.428.093.256.256 0 00.249-.12 2.12 2.12 0 00.199-1.04c0-.36-.121-.509-.463-.509-.075 0-.16 0-.253.004a6.735 6.735 0 01-.75 1.932l-.253-.142a6.035 6.035 0 00.705-1.783c-.218.003-.456.014-.705.025l-.014-.257c.284-.014.544-.02.775-.028a6.724 6.724 0 00.114-.79h.303a7.79 7.79 0 01-.117.783zm1.31-.242a2.23 2.23 0 00-.257-.587l.174-.09a2.284 2.284 0 01.278.598zm.312 1.712a2.51 2.51 0 00-.48-1.488l.231-.142a2.74 2.74 0 01.552 1.63zm.154-1.83a2.11 2.11 0 00-.26-.573l.174-.092a2.376 2.376 0 01.278.584zM36.24 63.4a4.096 4.096 0 01-.412-.021v-.267a3.88 3.88 0 00.41.021c.814 0 1.241-.238 1.241-.622 0-.267-.231-.456-.616-.456a1.758 1.758 0 00-1.156.505l-.281-.07a6.827 6.827 0 01.277-1.46l.285.046a4.527 4.527 0 00-.228 1.096 1.934 1.934 0 011.136-.388c.562 0 .897.317.897.72 0 .57-.573.897-1.552.897zm1.012-2.423a5.525 5.525 0 00-1.446-.328l.065-.267a5.63 5.63 0 011.466.324zM41.621 63.187l-.185.288a1.756 1.756 0 01-1.487-.89c-.196.449-.598.72-1.445.89l-.182-.256c.883-.146 1.239-.402 1.385-.847h-1.339v-.264h1.403c.018-.117.028-.249.035-.391l.306.007a3.963 3.963 0 01-.039.384h1.506v.264h-1.424a1.514 1.514 0 001.466.815zm-1.203-1.872c0 .124.025.15.132.153.096.003.267.003.37 0 .118-.004.125-.018.132-.21l.27.046c-.028.37-.085.42-.373.424-.128 0-.32.003-.43 0-.318-.004-.385-.082-.385-.413v-.513h-.41c-.074.57-.31.894-1.064 1.09l-.167-.225c.697-.146.893-.413.954-.865h-.666v.385h-.292v-.638h1.324v-.345h.306v.345h1.35v.638h-.303v-.385h-.748zM43.845 61.898a4.329 4.329 0 00.217.467l-.288.096a4.916 4.916 0 01-.246-.563H42.03v-.26h1.406a7.036 7.036 0 01-.157-.54h-1.092v-.26h1.028a8.666 8.666 0 01-.11-.562h.31c.028.188.063.377.106.562h.979v.26h-.915a5.516 5.516 0 00.164.54h.943v.26zm-.107 1.513c-.95 0-1.391-.231-1.391-.602a1.004 1.004 0 01.114-.437l.277.053a.84.84 0 00-.092.349c0 .249.38.363 1.074.363.09 0 .24-.004.388-.007v.274a15.73 15.73 0 01-.37.007zM47.04 62.126c.011.114.015.246.015.399v.281h-.289v-.278c0-.1 0-.185-.003-.26-.36.196-.598.4-.598.577 0 .207.21.281.726.281a7.966 7.966 0 00.897-.05v.27c-.242.023-.587.037-.894.037-.711 0-1.018-.157-1.018-.516 0-.32.35-.62.855-.887-.04-.196-.114-.252-.235-.252a1.252 1.252 0 00-.68.284 2.986 2.986 0 00-.477.467l-.22-.19a3.732 3.732 0 00.793-1.195h-.623v-.253h.72a4.022 4.022 0 00.138-.537h.313a4.546 4.546 0 01-.138.537h1.081v.253h-1.17a3.116 3.116 0 01-.296.59 1.277 1.277 0 01.64-.216c.214 0 .35.096.42.38.278-.128.588-.249.901-.359l.11.267a8.431 8.431 0 00-.968.37zM49.958 63.18c.391.01 1.27.01 1.708-.007l-.046.249c-.427.01-1.285.014-1.701.003a1.145 1.145 0 01-.911-.384c-.204.181-.385.32-.552.445l-.121-.264a5.231 5.231 0 00.501-.363v-.929h-.452v-.263h.734v1.139a1.017 1.017 0 00.84.374zm-1.303-2.887a2.98 2.98 0 01.502.644l-.263.146a2.85 2.85 0 00-.463-.651zm1.616 2.171v-.263h-.794v-1.228h.794v-.246h-.954v-.234h.954v-.289h.292v.289h.996v.234h-.996v.246h.832V62.2h-.832v.263h1.06v.239h-1.06v.384h-.292v-.384h-1.008v-.239zm-.516-.971h.516v-.306h-.516zm0 .495h.516v-.317h-.516zm1.352-.495v-.306h-.544v.306zm0 .495v-.317h-.544v.317zM52.971 62.176v-.491h-.277v-.128a3.137 3.137 0 01-.634.377c-.075-.089-.128-.15-.178-.206a2.68 2.68 0 00.769-.463 3.012 3.012 0 00-.445-.41l.17-.16a3.371 3.371 0 01.456.388 1.784 1.784 0 00.324-.502h-.946v-.249h1.103l.196.057a2.328 2.328 0 01-.67 1.047h1.463a2.748 2.748 0 01-.726-1.147l.253-.088a2.505 2.505 0 00.232.512 3.95 3.95 0 00.501-.448l.196.174a5.102 5.102 0 01-.566.466 1.896 1.896 0 00.22.253 4.059 4.059 0 00.51-.434l.2.185a5.56 5.56 0 01-.524.413 2.314 2.314 0 00.658.356l-.195.235a2.622 2.622 0 01-.62-.36v.132h-.31v.49h.915v.254h-.914v.49c0 .182.032.214.153.218h.409c.124-.004.139-.021.146-.345l.281.05c-.035.512-.089.573-.402.58-.14.003-.342.003-.463 0-.334-.007-.42-.1-.42-.502v-.491h-.577c-.039.402-.32.758-1.003 1.05l-.21-.21c.623-.232.876-.516.918-.84h-.882v-.253zm.865 0v-.491h-.573v.49zM55.935 63.504a.43.43 0 11.434-.424.435.435 0 01-.434.424zm0-.712a.285.285 0 10.285.288.284.284 0 00-.285-.288z"/><path class="cls-4" transform="rotate(-59.991 58.94 26.995)" d="M58.782 24.218h.316v5.554h-.316z"/><path class="cls-4" d="M37.626 28.52l-.158-.273 11.897-6.871a.16.16 0 01.158 0l3.748 2.163-.159.274-3.668-2.118z"/><path class="cls-4" d="M37.705 32.712h-.316v-4.325a.158.158 0 01.237-.137l3.744 2.162-.158.274-3.507-2.025zM49.444 45.8a.158.158 0 01-.079-.02l-11.897-6.872a.157.157 0 01-.08-.137v-2.197a.158.158 0 01.317 0v2.106l11.581 6.689V35.346l-4.728-2.729a.158.158 0 01.158-.274l4.807 2.775a.159.159 0 01.08.137v10.388a.159.159 0 01-.159.158z"/><path class="cls-4" d="M49.523 45.78l-.158-.274 11.822-6.826V28.658l-11.664 6.734-.158-.274 11.9-6.87a.158.158 0 01.238.136V38.77a.157.157 0 01-.08.137zM24.66 44.212l-.158-.274 33.092-19.127a.529.529 0 00.233-.338 2.27 2.27 0 00-1.339-2.319.519.519 0 00-.409.032L22.986 41.313l-.158-.273 33.093-19.127a.832.832 0 01.65-.064 2.57 2.57 0 011.562 2.706.844.844 0 01-.381.53z"/><path class="cls-4" d="M24.273 44.313a1.232 1.232 0 01-.608-.184 2.775 2.775 0 01-1.263-2.186.981.981 0 01.426-.903.841.841 0 01.65-.064 2.243 2.243 0 011.24 1.088 2.564 2.564 0 01.368 1.245.981.981 0 01-.426.903.767.767 0 01-.387.101zm-1.058-3.057a.449.449 0 00-.229.057.685.685 0 00-.267.63 2.244 2.244 0 00.325 1.087 2.244 2.244 0 00.78.825.569.569 0 00.946-.546 2.244 2.244 0 00-.326-1.087 1.964 1.964 0 00-1.048-.94.697.697 0 00-.181-.026zM22.3 37.092a.158.158 0 01-.08-.295l.215-.123a.158.158 0 01.158.274l-.214.123a.16.16 0 01-.08.021zM23.367 36.476a.158.158 0 01-.079-.295l.427-.246a.158.158 0 01.158.273l-.427.247a.153.153 0 01-.079.021zm1.28-.74a.158.158 0 01-.079-.295l.427-.246a.158.158 0 11.158.273l-.426.247a.156.156 0 01-.08.021zm1.28-.739a.158.158 0 01-.078-.295l.426-.246a.158.158 0 11.159.273l-.427.247a.153.153 0 01-.08.021zm1.281-.74a.158.158 0 01-.08-.295l.428-.246a.158.158 0 01.158.273l-.427.247a.153.153 0 01-.079.021zm1.28-.74a.158.158 0 01-.079-.294l.427-.247a.158.158 0 01.158.274l-.427.246a.156.156 0 01-.079.022zm1.28-.74a.158.158 0 01-.079-.295l.427-.246a.158.158 0 01.158.275l-.426.246a.16.16 0 01-.08.02zm1.28-.738a.158.158 0 01-.078-.295l.426-.247a.158.158 0 01.159.274l-.427.246a.153.153 0 01-.08.022zm1.281-.74a.158.158 0 01-.079-.295l.427-.247a.158.158 0 01.158.274l-.427.246a.153.153 0 01-.079.022zM33.61 30.56a.158.158 0 01-.08-.295l.213-.124a.158.158 0 11.158.274l-.213.123a.153.153 0 01-.079.022z"/><path class="cls-4" d="M23.82 37.48a.192.192 0 01-.044-.005l-1.52-.348a.198.198 0 01-.144-.251l.458-1.49a.197.197 0 11.377.115l-.395 1.288 1.312.3a.198.198 0 01-.044.391zM33.364 31.967a.192.192 0 01-.057-.009.197.197 0 01-.131-.247l.395-1.288-1.313-.3a.198.198 0 01.088-.386l1.52.348a.198.198 0 01.145.251l-.458 1.491a.196.196 0 01-.189.14z"/><path class="cls-2" d="M33.826 44.55a.989.989 0 01-.495-1.844l11.796-6.815a.988.988 0 01.988 1.712L34.32 44.417a.982.982 0 01-.493.133z"/><path class="cls-4" d="M33.962 43.64a.158.158 0 01-.08-.294l.214-.123a.158.158 0 01.158.273l-.213.123a.153.153 0 01-.08.022zM35.03 43.024a.158.158 0 01-.08-.295l.427-.246a.158.158 0 01.158.273l-.427.247a.153.153 0 01-.079.021zm1.28-.74a.158.158 0 01-.08-.294l.427-.247a.158.158 0 01.158.274l-.426.246a.156.156 0 01-.08.022zm1.28-.739a.158.158 0 01-.08-.295l.428-.246a.158.158 0 11.158.273l-.427.247a.153.153 0 01-.08.021zm1.28-.74a.158.158 0 01-.079-.294l.427-.247a.158.158 0 01.158.274l-.427.246a.153.153 0 01-.079.022zm1.28-.74a.158.158 0 01-.079-.294l.427-.247a.158.158 0 01.158.274l-.427.246a.156.156 0 01-.079.022zm1.28-.739a.158.158 0 01-.078-.295l.426-.246a.158.158 0 01.159.274l-.427.246a.16.16 0 01-.08.021zm1.28-.74a.158.158 0 01-.078-.294l.427-.247a.158.158 0 01.158.274l-.427.246a.153.153 0 01-.08.022zm1.281-.739a.158.158 0 01-.079-.295l.427-.246a.158.158 0 01.158.273l-.427.247a.153.153 0 01-.079.021zM45.27 37.108a.158.158 0 01-.079-.296l.214-.122a.158.158 0 01.158.274l-.213.123a.16.16 0 01-.08.02z"/><path class="cls-4" d="M35.482 44.028a.192.192 0 01-.044-.005l-1.52-.347a.197.197 0 01-.127-.094.201.201 0 01-.019-.157l.458-1.491a.198.198 0 01.378.116l-.395 1.287 1.313.3a.198.198 0 01-.044.391zM45.026 38.515a.192.192 0 01-.057-.009.197.197 0 01-.131-.247l.395-1.287-1.313-.3a.198.198 0 01-.149-.237.2.2 0 01.237-.15l1.52.349a.198.198 0 01.145.25l-.458 1.492a.196.196 0 01-.189.14zM18.049 50.837a.163.163 0 01-.06-.012.157.157 0 01-.097-.159c.106-1.367-.006-2.077-.39-2.45-.379-.368-1.072-.463-2.396-.322a.161.161 0 01-.162-.096.158.158 0 01.045-.184c1.03-.842 1.451-1.401 1.456-1.93.004-.535-.422-1.113-1.47-1.998a.158.158 0 01-.043-.181.148.148 0 01.159-.098c1.366.107 2.076-.005 2.448-.388.37-.38.463-1.074.323-2.396a.158.158 0 01.28-.117c.747.913 1.268 1.343 1.743 1.436a.159.159 0 01.125.186.156.156 0 01-.186.124 3.166 3.166 0 01-1.604-1.166 2.7 2.7 0 01-.454 2.154 2.86 2.86 0 01-2.23.512c.751.678 1.23 1.284 1.225 1.934-.004.557-.355 1.11-1.19 1.85a2.7 2.7 0 012.153.454 2.86 2.86 0 01.512 2.232 2.877 2.877 0 011.923-1.226h.01c.557.004 1.11.355 1.852 1.19a2.7 2.7 0 01.453-2.153 2.853 2.853 0 012.232-.513 5.259 5.259 0 01-.93-1.029.158.158 0 11.265-.17 6.236 6.236 0 001.223 1.266.157.157 0 01.045.181.143.143 0 01-.16.098c-1.365-.108-2.077.005-2.448.388-.37.38-.463 1.074-.323 2.396a.158.158 0 01-.28.117c-.842-1.03-1.402-1.451-1.931-1.455h-.008c-.532 0-1.11.426-1.989 1.469a.16.16 0 01-.121.056zM17.11 37.321a.172.172 0 01-.036-.004.158.158 0 01-.122-.14c-.092-1.01-.259-1.511-.577-1.73-.313-.214-.842-.195-1.777.068a.158.158 0 01-.162-.256c.636-.732.882-1.203.822-1.576-.062-.382-.444-.748-1.317-1.264a.158.158 0 01.066-.294c1.01-.09 1.512-.258 1.731-.577.215-.311.195-.842-.068-1.776a.158.158 0 01.256-.162c.732.636 1.187.883 1.577.822.38-.061.747-.443 1.263-1.317a.164.164 0 01.17-.073.158.158 0 01.123.14c.091 1.01.258 1.51.577 1.73.311.214.842.195 1.777-.068a.158.158 0 01.162.256c-.637.732-.883 1.203-.822 1.577.061.381.443.747 1.316 1.262a.158.158 0 01-.065.294c-1.01.092-1.512.26-1.732.578-.214.311-.194.842.069 1.776a.158.158 0 01-.256.162c-.732-.637-1.195-.883-1.577-.822-.381.061-.747.443-1.263 1.317a.157.157 0 01-.136.077zm-1.308-2.337a1.274 1.274 0 01.752.202 2.057 2.057 0 01.662 1.503c.39-.599.771-.998 1.242-1.075a1.944 1.944 0 011.458.585 1.945 1.945 0 01.096-1.568 2.06 2.06 0 011.504-.662c-.6-.39-1-.771-1.076-1.242a1.947 1.947 0 01.585-1.458 1.942 1.942 0 01-1.568-.096 2.057 2.057 0 01-.662-1.504c-.39.6-.772.999-1.242 1.076a1.948 1.948 0 01-1.458-.585 1.945 1.945 0 01-.096 1.568 2.06 2.06 0 01-1.504.662c.6.39 1 .771 1.075 1.242a1.945 1.945 0 01-.585 1.458 3.813 3.813 0 01.817-.106zM32.92 53.408a.157.157 0 01-.124-.06c-.56-.709-.947-1.015-1.297-1.024h-.017c-.353 0-.75.288-1.362.987a.158.158 0 01-.276-.12c.09-.939.024-1.426-.227-1.68-.246-.249-.735-.32-1.635-.242a.17.17 0 01-.16-.1.159.159 0 01.05-.182c.707-.559 1.014-.946 1.023-1.296.01-.357-.277-.757-.987-1.379a.158.158 0 01-.04-.182.146.146 0 01.16-.094c.94.09 1.425.024 1.68-.228.248-.246.32-.735.242-1.634a.158.158 0 01.281-.112c.56.709.948 1.015 1.297 1.024h.017c.353 0 .75-.288 1.362-.986a.159.159 0 01.182-.041.157.157 0 01.095.16c-.091.94-.025 1.426.226 1.68.247.248.735.32 1.635.242a.167.167 0 01.161.1.159.159 0 01-.05.182c-.708.559-1.014.946-1.023 1.296-.01.358.276.757.986 1.38a.158.158 0 01.041.18.152.152 0 01-.161.096c-.941-.092-1.426-.025-1.68.227-.248.246-.32.735-.242 1.634a.158.158 0 01-.098.161.166.166 0 01-.06.011zm-1.438-1.4h.026a1.8 1.8 0 011.225.771 1.798 1.798 0 01.364-1.402 1.91 1.91 0 011.474-.351 1.906 1.906 0 01-.755-1.315 1.797 1.797 0 01.772-1.226 1.786 1.786 0 01-1.402-.363 1.906 1.906 0 01-.351-1.475 1.943 1.943 0 01-1.29.756h-.025a1.8 1.8 0 01-1.226-.772 1.798 1.798 0 01-.363 1.402 1.895 1.895 0 01-1.475.351 1.906 1.906 0 01.755 1.315 1.797 1.797 0 01-.772 1.226 1.794 1.794 0 011.403.364 1.906 1.906 0 01.35 1.474 1.943 1.943 0 011.29-.756z"/></g></g></svg>