<svg xmlns="http://www.w3.org/2000/svg" viewBox="0 0 75 75"><defs><style>.cls-2{fill:#f0f8fa}.cls-4{fill:#00afca}.cls-5{fill:#a9d8e5}</style></defs><g id="レイヤー_2" data-name="レイヤー 2"><g id="レイヤー_2-2" data-name="レイヤー 2"><rect width="75" height="75" rx="8.362" transform="rotate(90 37.5 37.5)" fill="none"/><path class="cls-2" d="M8.363 5h58.275A3.362 3.362 0 0170 8.362v58.276A3.362 3.362 0 0166.638 70H8.362A3.362 3.362 0 015 66.638V8.362A3.362 3.362 0 018.363 5z" transform="rotate(90 37.5 37.5)"/><path d="M66.638 70.125H8.362a3.491 3.491 0 01-3.487-3.487V8.362a3.491 3.491 0 013.487-3.487h58.276a3.491 3.491 0 013.487 3.487v58.276a3.491 3.491 0 01-3.487 3.487zm-58.276-65a3.24 3.24 0 00-3.237 3.237v58.276a3.24 3.24 0 003.237 3.237h58.276a3.24 3.24 0 003.237-3.237V8.362a3.24 3.24 0 00-3.237-3.237z" fill="#666"/><path class="cls-4" d="M35.282 51.243a1.408 1.408 0 01-.214-.019v-.17a1.385 1.385 0 00.214.016c.306 0 .448-.15.448-.365 0-.211-.161-.346-.47-.346a1.32 1.32 0 00-.408.069v.5c0 .24-.092.353-.286.353a.5.5 0 01-.477-.403c0-.194.24-.42.567-.557v-.448h-.517v-.176h.517v-.46h.196v.46h.493v.176h-.493v.377a1.597 1.597 0 01.437-.064c.398 0 .638.194.638.514 0 .325-.219.543-.645.543zm-1.003-.37c0 .116.17.23.27.23.083 0 .107-.05.107-.17v-.425c-.22.11-.377.254-.377.365zm1.669-.91a1.797 1.797 0 00-.498-.382l.097-.138a1.878 1.878 0 01.52.38zM38.622 51.139l-.038-.19c.901-.002 1.28-.246 1.28-.673 0-.266-.18-.498-.576-.498a5.133 5.133 0 00-1.078.197l-.053-.195a6.122 6.122 0 011.16-.199.685.685 0 01.763.693c0 .523-.424.865-1.458.865zM40.684 51.158l-.039-.19c.897-.002 1.276-.237 1.276-.661 0-.266-.18-.498-.574-.498a5.117 5.117 0 00-1.076.197l-.05-.195a5.968 5.968 0 011.152-.197.682.682 0 01.761.688c0 .521-.424.856-1.45.856zm1.164-1.51a1.396 1.396 0 00-.174-.392l.12-.059a1.546 1.546 0 01.184.396zm.315-.07a1.503 1.503 0 00-.171-.38l.116-.06a1.57 1.57 0 01.185.389zM42.645 51.189a3.894 3.894 0 01-.1-.92 7.63 7.63 0 01.057-.968h.202a7.76 7.76 0 00-.06.96 3.863 3.863 0 00.1.89zm.86.116l-.108-.147c.384-.22.42-.422.42-.972 0-.053 0-.117-.003-.188h-.759v-.177h.757c-.003-.195-.01-.408-.02-.574h.2c.01.166.019.38.023.574h.41v.177h-.407c.002.069.002.13.002.185 0 .59-.073.88-.514 1.122zM51.031 51.19c-.312 0-.557-.556-.557-1.284 0-.135.003-.249.01-.365h.206a3.523 3.523 0 00-.014.358c0 .647.2 1.07.339 1.07.064 0 .182-.186.265-.45l.166.1c-.111.316-.263.572-.415.572zm1.091-.412a1.625 1.625 0 00-.446-1.175l.145-.117a1.777 1.777 0 01.51 1.292zM53.55 51.24c-.611 0-.915-.13-.915-.452 0-.225.22-.443.565-.64a2.228 2.228 0 01-.164-.894h.209a2.258 2.258 0 00.125.801 5.916 5.916 0 01.733-.296l.074.187c-.778.25-1.335.553-1.335.828 0 .203.196.28.709.28.215 0 .48-.013.678-.031v.191a8.455 8.455 0 01-.678.027zm.38-1.588a1.418 1.418 0 00-.17-.386l.115-.06a1.609 1.609 0 01.183.394zm.303-.078a1.36 1.36 0 00-.168-.377l.114-.06a1.504 1.504 0 01.182.385zM54.953 51.303l-.048-.183c.709-.06 1.031-.285 1.031-.643a.375.375 0 00-.412-.398 6.601 6.601 0 00-.89.097l-.037-.192a6.752 6.752 0 01.939-.097.556.556 0 01.614.59c0 .47-.436.77-1.197.826zm.881-1.67a4.19 4.19 0 00-.893-.225l.045-.183a4.56 4.56 0 01.91.228zM36.542 59.185c-.614 0-.891-.173-.891-.446a.772.772 0 01.299-.519l.137.109a.605.605 0 00-.237.384c0 .168.168.287.7.287a5.301 5.301 0 00.682-.045l.02.187a5.94 5.94 0 01-.71.043zm-.059-1.15l-.13-.118c.152-.102.318-.207.436-.278h-.967v-.178h1.3v.161a7.237 7.237 0 00-.639.413zM37.781 59.28l-.047-.183c.708-.06 1.03-.284 1.03-.642a.375.375 0 00-.412-.399 6.603 6.603 0 00-.889.098l-.038-.193a6.752 6.752 0 01.94-.097.556.556 0 01.613.59c0 .47-.436.771-1.197.826zm.882-1.67a4.191 4.191 0 00-.894-.225l.045-.182a4.56 4.56 0 01.91.228zM39.472 59.168a3.538 3.538 0 01-.12-.917 6.054 6.054 0 01.068-.963l.2.005a5.795 5.795 0 00-.07.95 3.656 3.656 0 00.117.887zm.84.114l-.11-.147c.385-.218.413-.42.413-.965 0-.05 0-.107-.002-.17h-.75v-.176h.747c-.004-.2-.009-.42-.019-.59h.192c.01.17.02.39.026.59h.418V58h-.413c.002.06.002.118.002.165 0 .59-.068.878-.505 1.117zm.68-1.633a1.578 1.578 0 00-.147-.358l.111-.06a1.568 1.568 0 01.16.363zm.26-.157a1.561 1.561 0 00-.16-.353l.113-.06a1.564 1.564 0 01.168.358zM42.715 58.272a2.937 2.937 0 00.145.31l-.193.065a3.21 3.21 0 01-.163-.375h-.998V58.1h.936a4.703 4.703 0 01-.104-.36h-.728v-.173h.685a5.686 5.686 0 01-.073-.375h.206c.019.125.043.251.07.375h.653v.173h-.61c.032.125.07.246.11.36h.628v.173zm-.071 1.008c-.633 0-.927-.155-.927-.4a.671.671 0 01.075-.292l.185.035a.566.566 0 00-.061.232c0 .166.254.242.716.242.06 0 .159-.002.258-.005v.183c-.085.002-.182.005-.246.005zM46.771 57.74l.156-.001c.354 0 .484.156.484.519a1.693 1.693 0 01-.157.794.306.306 0 01-.32.175.923.923 0 01-.339-.073l.024-.17a.874.874 0 00.29.061.167.167 0 00.165-.08 1.434 1.434 0 00.136-.705c0-.244-.081-.343-.311-.343-.05 0-.107 0-.169.002a4.623 4.623 0 01-.507 1.311l-.175-.095a4.082 4.082 0 00.479-1.212c-.147.003-.309.01-.477.017l-.012-.178.527-.019a4.534 4.534 0 00.073-.526h.209a5.27 5.27 0 01-.076.524zm1.09.978a1.687 1.687 0 00-.324-1.008l.159-.097a1.854 1.854 0 01.372 1.105zM49.548 59.227a.385.385 0 01-.422-.353c-.016-.102-.028-.201-.038-.27-.016-.104-.05-.161-.128-.161a.522.522 0 00-.315.241 1.263 1.263 0 00-.1.18c-.059.126-.104.221-.177.387l-.176-.07c.216-.518.517-1.253.773-1.888l.192.064c-.187.448-.332.78-.44 1.06a.459.459 0 01.303-.164c.154 0 .222.107.25.266.018.1.03.182.046.286.026.18.111.238.242.238.204 0 .377-.23.44-.688l.171.064c-.07.489-.28.808-.62.808zM51 57.615h.51v.173h-.538a5.607 5.607 0 01-.455 1.463l-.195-.083a4.807 4.807 0 00.441-1.38h-.422v-.173h.45c.02-.135.034-.27.04-.396h.217c-.01.128-.026.261-.048.396zm.861 1.586c-.498 0-.756-.116-.756-.324a.594.594 0 01.199-.38l.147.08c-.11.124-.147.202-.147.266 0 .119.175.18.554.18a3.375 3.375 0 00.344-.016v.18c-.118.01-.225.014-.34.014zm-.58-1.007l-.024-.176a8.64 8.64 0 01.922-.042v.178a7.85 7.85 0 00-.899.04zM53.794 59.227a.385.385 0 01-.422-.353c-.016-.102-.028-.201-.038-.27-.016-.104-.05-.161-.128-.161a.524.524 0 00-.315.241 1.264 1.264 0 00-.1.18c-.059.126-.104.221-.177.387l-.176-.07c.216-.518.517-1.253.773-1.888l.192.064c-.187.448-.332.78-.44 1.06a.458.458 0 01.303-.164c.154 0 .222.107.251.266.017.1.028.182.045.286.026.18.111.238.242.238.204 0 .377-.23.44-.688l.171.064c-.07.489-.28.808-.62.808zM55.894 58.284c-.351.126-.553.325-.553.505 0 .175.188.294.707.303l-.024.171c-.628-.007-.872-.209-.872-.465a.688.688 0 01.438-.538l-1.062.076-.014-.17.391-.027c.309-.206.624-.44.847-.616h-.92v-.166h1.235l-.002.15c-.261.196-.548.407-.835.609l1.176-.081.01.168a1.882 1.882 0 00-.522.081zM56.945 59.28l-.047-.183c.708-.06 1.03-.284 1.03-.642a.375.375 0 00-.412-.399 6.598 6.598 0 00-.889.098l-.038-.193a6.758 6.758 0 01.94-.097.556.556 0 01.613.59c0 .47-.436.771-1.197.826zm.882-1.67a4.197 4.197 0 00-.894-.225l.045-.182a4.567 4.567 0 01.91.228zM59.452 57.895a3.21 3.21 0 00.268.612l-.195.073a3.396 3.396 0 01-.287-.685h-.893v-.178h.844a4.055 4.055 0 01-.102-.514h.206a3.834 3.834 0 00.105.514h.76v.178zm.019 1.373c-.6 0-.936-.154-.936-.427a.771.771 0 01.083-.323l.187.034a.639.639 0 00-.074.265c0 .185.278.266.728.266.062 0 .164-.002.254-.005v.183c-.088.002-.188.007-.242.007zM27.049 59.104l-.173-.097a1.967 1.967 0 00.317-.7l.183.046a2.178 2.178 0 01-.327.751zm.763.138a.94.94 0 01-.443-.112l.04-.168a.762.762 0 00.377.104c.18 0 .282-.073.282-.21 0-.124-.052-.216-.268-.416a.385.385 0 01-.158-.282.63.63 0 01.151-.386l.173.068a.44.44 0 00-.128.297c0 .078.045.13.14.218.225.209.292.334.292.51 0 .227-.166.377-.458.377zm.465-1.553a2.973 2.973 0 00-.835-.25l.048-.177a3.391 3.391 0 01.86.25zm.493 1.4a2.72 2.72 0 00-.334-.732l.166-.076a3.412 3.412 0 01.353.736zM16.97 55.187l-.225-.174a1.974 1.974 0 00.584-1.104l.284.036a2.332 2.332 0 01-.644 1.242zm1.127.27V53.49h-1.263v-.274h1.263v-.787h.31v.787h1.27v.274h-1.27v1.968zm1.431-.28a2.734 2.734 0 01-.619-1.236l.274-.039a2.119 2.119 0 00.587 1.082zm-.234-2.175a2.356 2.356 0 00-.26-.584l.174-.089a2.299 2.299 0 01.277.595zm.47-.128a2.337 2.337 0 00-.26-.57l.174-.092a2.509 2.509 0 01.277.583zM20.82 53.763a3.406 3.406 0 01-.464.492l-.217-.2a4.026 4.026 0 001.093-1.612h.32a3.2 3.2 0 01-.142.36h1.367a3.07 3.07 0 01-1.89 2.673l-.15-.242a2.416 2.416 0 001.107-.808 5.645 5.645 0 00-1.025-.663zm1.188.42a3.278 3.278 0 00.41-1.113h-1.14a3.986 3.986 0 01-.291.473 6.682 6.682 0 011.021.64zM24.314 53.65a4.885 4.885 0 00-1.04-.659l.182-.256a5.917 5.917 0 011.068.637zm-.855 1.708l-.096-.299a2.77 2.77 0 002.346-1.723l.235.214a3.027 3.027 0 01-2.485 1.808zM27.84 55.287V52.87l-.584.399-.15-.231.705-.485h.356v2.734zM31.626 54.219c.01.114.014.246.014.399v.28h-.288v-.277c0-.1 0-.185-.004-.26-.36.196-.597.4-.597.577 0 .206.21.281.726.281a7.959 7.959 0 00.896-.05v.27c-.241.022-.587.037-.893.037-.711 0-1.018-.157-1.018-.516 0-.32.349-.62.854-.887-.039-.196-.114-.252-.234-.252a1.252 1.252 0 00-.68.284 2.986 2.986 0 00-.477.466l-.221-.188a3.72 3.72 0 00.794-1.196h-.623v-.253h.719a3.968 3.968 0 00.139-.537h.313a4.471 4.471 0 01-.139.537h1.082v.253h-1.17a3.139 3.139 0 01-.296.59 1.276 1.276 0 01.64-.216c.214 0 .35.096.42.38.278-.128.588-.249.9-.36l.111.268a8.4 8.4 0 00-.968.37zM33.437 54.013v-.773h-.463v-.27h.463v-.673h.284v.673h.335v.27h-.335v.687c.118-.035.232-.07.328-.103l.025.256c-.104.036-.225.082-.353.125v1.021c0 .193-.05.306-.231.335a2.43 2.43 0 01-.41.007l-.05-.281c.11.007.26.007.31.003.075-.003.097-.042.097-.11v-.875c-.164.053-.32.106-.438.146l-.064-.296c.124-.032.31-.085.502-.142zm1.826.327v1.232h-.292V54.34h-.534v.192h-.281V52.43h1.957v2.103h-.288v-.192zm-.292-1.089v-.559h-.534v.56zm0 .826v-.58h-.534v.58zm.854-.826v-.559h-.563v.56zm0 .826v-.58h-.563v.58zM37.877 55.458c-.619 0-.986-.285-.986-1.015v-1.96h.317v1.94c0 .558.235.736.687.736a1.16 1.16 0 001.05-.812l.25.171a1.438 1.438 0 01-1.318.94zM40.065 54.358a3.312 3.312 0 01-.22.936l-.228-.089a2.866 2.866 0 00.217-.886zm.417 1.214h-.267v-1.488c-.2.025-.399.043-.541.057l-.053-.25c.06-.003.135-.006.213-.014.103-.135.207-.277.303-.42a3.192 3.192 0 00-.488-.494c.125-.182.132-.193.139-.2.046.036.089.075.131.11a4.372 4.372 0 00.324-.576l.242.1a5.847 5.847 0 01-.402.637c.075.075.14.146.196.214.146-.232.274-.446.363-.62l.246.11a11.36 11.36 0 01-.751 1.118c.17-.01.348-.025.505-.036a1.925 1.925 0 00-.181-.28l.206-.104a2.692 2.692 0 01.31.545v-.278h1.883v.605h-.257v-.37H41.23v.37h-.253v-.228a1.67 1.67 0 00-.185.09 1.45 1.45 0 00-.054-.143c-.078.007-.163.018-.256.028zm.37-1.275a3.6 3.6 0 01.17.723c-.102.025-.166.043-.234.057a3.276 3.276 0 00-.164-.719zm.862-.11c-.047.67-.178 1.125-.748 1.392l-.192-.2c.53-.22.64-.619.669-1.199zm.053-.975v-.313h-.833v-.242h.833v-.363h.284v.363h.866v.242h-.866v.313h.695v.235h-1.634v-.235zm.484.94v.943c0 .135.018.153.092.156h.221c.079-.003.086-.017.089-.345l.256.043c-.024.516-.074.57-.324.577a3.595 3.595 0 01-.274 0c-.27-.008-.33-.082-.33-.431v-.944zM43.645 55.333a5.86 5.86 0 01-.15-1.38 11.388 11.388 0 01.086-1.453h.303a11.58 11.58 0 00-.09 1.441 5.801 5.801 0 00.15 1.335zm1.292.175l-.164-.221c.577-.331.63-.634.63-1.46 0-.077 0-.174-.003-.28h-1.139v-.267h1.135a20.893 20.893 0 00-.028-.862h.299c.014.25.028.57.035.862h.616v.266h-.612c.004.104.004.196.004.278 0 .886-.11 1.32-.773 1.684zM48.901 53.094a.705.705 0 00-.313.132 1.517 1.517 0 00-.765 1.175c0 .47.416.726 1.253.733l-.05.285c-1.008-.015-1.506-.406-1.506-1.004a1.69 1.69 0 01.79-1.317l-1.705.071-.014-.28 2.826-.115.01.281c-.199.007-.405.022-.526.04zM51.089 54.305l-.17.241a6.839 6.839 0 00-.303-.544v1.57h-.292v-1.467a4.908 4.908 0 01-.427.865l-.154-.292a3.894 3.894 0 00.563-1.135h-.52v-.263h.538v-.506a3.61 3.61 0 01-.445.078l-.103-.241a3.706 3.706 0 001.167-.314l.16.221a2.875 2.875 0 01-.487.181v.58h.47v.264h-.47v.12c.174.222.366.481.473.642zm.701.135a3.184 3.184 0 01.441.267 1.824 1.824 0 00.424-.62h-.598a3.598 3.598 0 01-.722.602l-.21-.185a2.77 2.77 0 00.978-.943c.292.028.306.028.32.032a2.033 2.033 0 01-.16.242h.577l.182.064a2.464 2.464 0 01-1.826 1.673l-.214-.239a3.033 3.033 0 001.04-.455 2.755 2.755 0 00-.413-.268 1.932 1.932 0 00.181-.17zm-.156-1.385a2.808 2.808 0 01.363.217 1.996 1.996 0 00.398-.509h-.587a3.127 3.127 0 01-.59.53l-.222-.163a2.327 2.327 0 00.808-.833l.303.029a1.858 1.858 0 01-.114.192h.609l.178.078a2.75 2.75 0 01-1.56 1.484l-.188-.227a3.037 3.037 0 00.758-.41 2.242 2.242 0 00-.338-.22zM54.156 55.13v-.277h-.715v-.21h.715v-.224h-.69V53.3h.69v-.21h-.815v-.214h.815v-.203a6.64 6.64 0 01-.673.04l-.092-.214A5.933 5.933 0 0055 52.297l.142.196a4.984 4.984 0 01-.705.146v.238h.773v.214h-.773v.21h.705v1.118h-.705v.224h.701v.21h-.7v.256c.248-.018.494-.036.686-.053l.004.163a3.607 3.607 0 00.473-1.836h-.349v-.264h.36q.01-.4.01-.822h.278c0 .278-.003.555-.014.822h.658a8.04 8.04 0 01-.203 2.378.321.321 0 01-.224.075c-.078 0-.249 0-.349-.008l-.032-.27a2.868 2.868 0 00.3.007.096.096 0 00.081-.028 7.805 7.805 0 00.139-1.89h-.38a3.45 3.45 0 01-.666 2.192l-.267-.128a2.21 2.21 0 00.149-.178c-.509.053-1.285.128-1.722.164l-.043-.25c.206-.01.512-.031.829-.053zm-.424-1.363h.424V53.5h-.423zm0 .452h.424v-.278h-.423zm1.132-.452V53.5h-.427v.267zm0 .452v-.278h-.427v.278zM57.64 55.59a4.392 4.392 0 00-.72-.712l.19-.178a4.56 4.56 0 01.743.7zM13.514 62.165v-1.658h.317v1.658zm.677 1.214l-.154-.256a1.311 1.311 0 001.118-1.445V60.42h.324v1.26a1.584 1.584 0 01-1.288 1.698zM17.3 61.557a4.885 4.885 0 00-1.039-.659l.182-.256a5.918 5.918 0 011.068.637zm-.854 1.708l-.096-.299a2.77 2.77 0 002.346-1.723l.235.214a3.027 3.027 0 01-2.485 1.808zM20.574 60.87h1.381a3.026 3.026 0 01-1.947 2.509l-.153-.238a2.59 2.59 0 001.709-2h-1.136a4.724 4.724 0 01-.918 1.131l-.22-.2a4.189 4.189 0 001.131-1.608h.32a4.254 4.254 0 01-.167.406zm1.25-.068a2.31 2.31 0 00-.26-.566l.174-.085a2.198 2.198 0 01.277.57zm.487-.057a2.22 2.22 0 00-.253-.566l.175-.089a2.382 2.382 0 01.27.58zM24.549 62.126c.01.114.014.246.014.399v.281h-.288v-.278c0-.1 0-.185-.004-.26-.36.196-.598.4-.598.577 0 .207.21.281.726.281a7.959 7.959 0 00.897-.05v.27c-.242.023-.587.037-.893.037-.712 0-1.018-.157-1.018-.516 0-.32.349-.62.854-.887-.039-.196-.114-.252-.235-.252a1.252 1.252 0 00-.68.284 2.986 2.986 0 00-.476.467l-.221-.19a3.72 3.72 0 00.793-1.195h-.622v-.253h.719a3.965 3.965 0 00.139-.537h.313a4.472 4.472 0 01-.14.537h1.083v.253H23.74a3.138 3.138 0 01-.295.59 1.276 1.276 0 01.64-.216c.214 0 .35.096.42.38.278-.128.587-.249.9-.359l.11.267a8.4 8.4 0 00-.967.37zM26.342 61.913v-.776h-.445v-.264h.445v-.669h.284v.67h.274v.263h-.274v.687c.096-.032.189-.06.27-.09l.026.246c-.09.036-.189.075-.296.114v1.047c0 .188-.053.299-.228.327a2.32 2.32 0 01-.398.007l-.05-.278c.107.008.246.011.295.008.075-.008.097-.043.097-.107v-.9c-.16.053-.31.106-.42.145l-.065-.284.485-.146zm1.203 1.228v-1.357h-.246a3.373 3.373 0 01-.385 1.656l-.252-.153a3.048 3.048 0 00.363-1.634V60.3h2.118v.26h-1.84v.972h1.84v.252h-.83a3.474 3.474 0 00.16.598 4.085 4.085 0 00.492-.44l.192.18a5.346 5.346 0 01-.584.474 1.395 1.395 0 00.623.64l-.2.243a2.25 2.25 0 01-.939-1.695h-.246v1.31c.218-.042.446-.085.616-.12l.025.238c-.327.078-.826.189-1.114.245l-.074-.266c.078-.015.174-.03.28-.05zm1.338-2.236v.246H27.49v-.246zM30.067 63.283l-.05-.26c1.068 0 1.534-.26 1.534-.769 0-.32-.227-.576-.683-.576a6.795 6.795 0 00-1.331.267l-.075-.275a8.397 8.397 0 011.452-.263.83.83 0 01.94.84c0 .637-.505 1.036-1.787 1.036zM34.707 61.001a.705.705 0 00-.313.132 1.517 1.517 0 00-.765 1.175c0 .47.416.726 1.253.733l-.05.285c-1.007-.015-1.506-.406-1.506-1.004a1.69 1.69 0 01.79-1.317l-1.704.071-.015-.28 2.827-.115.01.281a5.56 5.56 0 00-.527.04zM36.12 62.479v-1.584h-.51v-.264h1.3v.264h-.495v1.498c.185-.053.363-.107.512-.153l.025.253c-.384.135-.971.327-1.306.43l-.075-.299c.139-.035.338-.085.548-.145zm2.786.74l-.22.256a2.439 2.439 0 01-.89-.683 3.24 3.24 0 01-.99.683l-.206-.242a2.94 2.94 0 001.018-.683 3.644 3.644 0 01-.445-1.036 3.64 3.64 0 01-.281.445l-.235-.182a3.366 3.366 0 00.637-1.576l.295.05a5.034 5.034 0 01-.139.59h1.414v.27h-.356a3.015 3.015 0 01-.517 1.446 2.204 2.204 0 00.915.662zm-1.096-.915a2.66 2.66 0 00.388-1.192h-.826a3.535 3.535 0 00.438 1.192zM40.628 62.792v-.228H39.45v-.182h1.178v-.21c-.331.022-.666.029-.936.022l-.06-.182a10.86 10.86 0 002.142-.15l.093.175a9.175 9.175 0 01-.933.114v.231h1.21v.182h-1.21v.228h1.491v.181h-1.49v.239c0 .15-.047.235-.19.256a3.982 3.982 0 01-.523.007l-.04-.22c.125.007.318.007.371.003.057-.003.075-.028.075-.078v-.207h-1.477v-.181zm-.787-1.167v-.15h-.562v-.79h.562v-.146h-.651v-.164h.651v-.17h.267v.17h.652v.164h-.652v.146h.584v.79h-.584v.15h.666v.163h-.666v.153h-.267v-.153h-.687v-.163zm-.33-.613h.33v-.174h-.33zm0 .31h.33v-.182h-.33zm.936-.31v-.174h-.339v.174zm0 .31v-.182h-.339v.182zm1.391-1.046h.121v.238c0 .085.01.103.057.103h.132c.05 0 .053-.01.057-.185l.235.043c-.022.324-.068.363-.267.366h-.186c-.23-.007-.277-.067-.277-.327v-.047h-.43v.019a.521.521 0 01-.29.455l-.234-.128c.203-.107.274-.21.274-.338v-.2h.808zm.58 1.47l-.142.202a2.86 2.86 0 01-.726-.245 2.864 2.864 0 01-.598.242l-.16-.182a2.273 2.273 0 00.544-.189 1.441 1.441 0 01-.356-.348l.196-.075h-.285v-.192h1.104c.01.003.02.007.185.046a1.22 1.22 0 01-.42.555 2.556 2.556 0 00.658.185zm-.872-.296a1.052 1.052 0 00.292-.3H41.2a1.234 1.234 0 00.345.3zM44.421 63.297l-.114-.256a1.153 1.153 0 001.09-1.185.958.958 0 00-.969-.983c-.146 1.267-.434 2.172-.932 2.172-.374 0-.67-.485-.67-.997a1.486 1.486 0 011.52-1.442 1.224 1.224 0 011.356 1.242 1.437 1.437 0 01-1.28 1.449zm-1.302-1.256c0 .363.177.68.37.68.242 0 .505-.666.626-1.834a1.172 1.172 0 00-.996 1.154zM47.41 60.88l-.264.079a1.367 1.367 0 00-.156-.328H46.7a1.944 1.944 0 01-.356.35l-.23-.13a1.64 1.64 0 00.558-.647l.256.06a1.343 1.343 0 01-.082.157h.918v.21h-.483a1.499 1.499 0 01.128.25zm-.776.104h.947v.964h-.947v1.53h-.292v-2.494h.292zm.676.395v-.207h-.676v.207zm-.676.163v.218h.676v-.218zm.712.634h1.075v1h-1.075v.15h-.253v-1.15h.253zm.811.41v-.218h-.811v.218zm-.811.167v.231h.811v-.231zm1.676-1.872l-.27.081a1.789 1.789 0 00-.2-.33h-.356a1.825 1.825 0 01-.302.32l-.235-.125a1.484 1.484 0 00.48-.623l.26.057c-.021.054-.046.107-.07.16h1.07v.21h-.533a1.816 1.816 0 01.156.25zm.068.103h.096v2.192c0 .167-.046.264-.2.289a2.942 2.942 0 01-.42.01l-.042-.256c.1.004.242.007.288.004.06-.008.078-.036.078-.09v-1.185h-.978v-.964h1.178zm-.2.395v-.207h-.704v.207zm-.704.163v.218h.704v-.218zM51.15 62.575v-.292h-1.068v-1.324h1.815a5.523 5.523 0 00.527-.748l.274.136a6.061 6.061 0 01-.47.612h.327v1.324h-1.103v.292h1.502v.26h-1.502v.644h-.302v-.644h-1.467v-.26zm-.958-2.325a2.525 2.525 0 01.356.577l-.274.121a2.226 2.226 0 00-.317-.576zm.178 1.268h.78V61.2h-.78zm0 .523h.78v-.328h-.78zm.783-1.84a2.49 2.49 0 01.31.601l-.285.11a2.161 2.161 0 00-.27-.597zm1.1 1.317V61.2h-.801v.317zm0 .523v-.328h-.801v.328zM53.622 61.934v-.794h-.377v-.263h.377v-.673h.285v.673h.302v.263h-.302v.701c.092-.032.178-.064.253-.089l.028.25c-.086.032-.181.07-.281.11v1.043c0 .178-.05.281-.214.31a1.836 1.836 0 01-.356.007c-.014-.079-.032-.157-.05-.275a2.037 2.037 0 00.257.004c.064-.004.078-.036.078-.092v-.89c-.132.05-.256.096-.352.128l-.068-.285c.11-.028.26-.078.42-.128zm2.95 1.246l-.184.227a3.305 3.305 0 01-.93-.754v.822h-.284v-.79a2.793 2.793 0 01-.911.733l-.182-.231a2.382 2.382 0 00.95-.683h-.89v-.246h1.033v-.264h-.915v-.8h.943v.776h.225v-.776h.99v.8h-.958v.264h1.053v.246h-.893a2.884 2.884 0 00.954.676zm-2.07-1.388h.451v-.395h-.452zm1.65-1.513v.733h-1.64v-.733zm-1.362.534h1.074v-.335H54.79zm.882.979h.488v-.395h-.488zM57.604 63.479h-.296v-1.84a5.257 5.257 0 01-.356.512l-.195-.245a4.68 4.68 0 00.85-1.705l.303.07a5.815 5.815 0 01-.306.816zm2.353-1.136v.264h-.912v.872h-.302v-2.392h-.289a4.235 4.235 0 01-.509.826l-.227-.193a3.772 3.772 0 00.733-1.52l.295.061a4.36 4.36 0 01-.178.555h1.503v.27h-1.026v.488h.861v.264h-.86v.505zM60.806 63.504a.43.43 0 11.434-.424.435.435 0 01-.434.424zm0-.712a.285.285 0 10.285.288.284.284 0 00-.285-.288zM18.763 11.177a.524.524 0 01.525.522v2.31a1.009 1.009 0 01-.282.703l-1.181 1.23a.521.521 0 01-.374.16v-3.786l.407-.424.532-.554a.508.508 0 01.373-.161m0-.565a1.074 1.074 0 00-.78.335l-.532.554-.533-.554a1.074 1.074 0 00-.78-.335 1.092 1.092 0 00-.747.294 1.073 1.073 0 00-.343.793v2.311a1.571 1.571 0 00.44 1.093l1.18 1.23a1.084 1.084 0 001.564 0l1.181-1.23a1.571 1.571 0 00.44-1.093V11.7a1.09 1.09 0 00-1.09-1.088zM24.644 15.88v-2.17a8.391 8.391 0 01-1.686.813l-.334-.606a8.383 8.383 0 003.577-2.421l.54.467a7.382 7.382 0 01-1.342 1.24v2.677zM27.794 14.163v-.724h4.081v.724zM34.748 14.132a7.624 7.624 0 00-1.45-.73l.314-.56a9.54 9.54 0 011.475.663zm-.904 1.738l-.196-.669a3.764 3.764 0 003.274-2.39l.55.437a4.392 4.392 0 01-3.628 2.622zm1.552-2.9a7.518 7.518 0 00-1.45-.73l.314-.56a9.104 9.104 0 011.475.67zm1.202-.41a3.034 3.034 0 00-.39-.833l.38-.19a2.824 2.824 0 01.427.843zm.684-.288a2.867 2.867 0 00-.386-.802l.38-.2a3.146 3.146 0 01.422.827zM38.896 14.163v-.724h4.08v.724zM46.456 14.086v.581c0 .303.077.396.37.437a4.13 4.13 0 00.54.026c.139 0 .303 0 .462-.006.18-.005.355-.02.51-.03v.637c-.253.02-.561.03-.875.03-.205 0-.483 0-.6-.004-.844-.026-1.137-.298-1.137-1.06v-.61h-1.285v-.623h1.285v-.91h-1.023v-.616h3.547v.616h-1.794v.91h2.118v.622zM49.997 14.163v-.724h4.081v.724zM55.733 15.906v-4.4h.71v1.486a12.627 12.627 0 012.338 1.1l-.39.627a9.575 9.575 0 00-1.949-.987v2.174zm2.159-3.285a3.222 3.222 0 00-.386-.868l.39-.195a3.395 3.395 0 01.432.878zm.735-.298a2.921 2.921 0 00-.401-.827l.39-.211a3.479 3.479 0 01.437.858z"/><path class="cls-5" d="M44.362 42.79a9.855 9.855 0 01-1.517-.118c-6.038-.943-10.074-7.328-8.996-14.235a13.572 13.572 0 014.58-8.348 10.366 10.366 0 018.325-2.467c5.344.834 9.197 5.9 9.17 12.049l.002.024a14.67 14.67 0 01-.175 2.161c-.074.47-.17.933-.284 1.378-1.457 5.686-6.074 9.556-11.105 9.556zm.871-24.97a10.242 10.242 0 00-6.6 2.511 13.253 13.253 0 00-4.472 8.155c-1.05 6.734 2.866 12.957 8.733 13.873 5.444.854 10.706-3.109 12.266-9.203.112-.436.206-.89.278-1.348a14.387 14.387 0 00.171-2.091l-.002-.024c.037-6.003-3.708-10.948-8.902-11.758a9.588 9.588 0 00-1.472-.115z"/><path class="cls-5" d="M44.362 42.79a9.855 9.855 0 01-1.517-.118c-6.038-.943-10.074-7.328-8.996-14.235a13.572 13.572 0 014.58-8.348 10.366 10.366 0 018.325-2.467c5.344.834 9.197 5.9 9.17 12.049l.002.024a14.67 14.67 0 01-.175 2.161c-.074.47-.17.933-.284 1.378-1.457 5.686-6.074 9.556-11.105 9.556zm.871-24.97a10.242 10.242 0 00-6.6 2.511 13.253 13.253 0 00-4.472 8.155c-1.05 6.734 2.866 12.957 8.733 13.873 5.444.854 10.706-3.109 12.266-9.203.112-.436.206-.89.278-1.348a14.387 14.387 0 00.171-2.091l-.002-.024c.037-6.003-3.708-10.948-8.902-11.758a9.588 9.588 0 00-1.472-.115z"/><path class="cls-5" d="M43.241 41.216a8.205 8.205 0 01-1.259-.098c-5.205-.813-8.66-6.47-7.7-12.612a12.301 12.301 0 013.983-7.437 8.565 8.565 0 0113.367 2.086 12.3 12.3 0 011.528 8.297c-.88 5.645-5.186 9.764-9.919 9.764zm.946-22.157a8.712 8.712 0 00-5.715 2.25 11.986 11.986 0 00-3.878 7.246c-.933 5.968 2.404 11.465 7.437 12.25 5.026.785 9.885-3.432 10.817-9.402a11.983 11.983 0 00-1.486-8.083 8.517 8.517 0 00-5.952-4.167 7.954 7.954 0 00-1.223-.094z"/><path class="cls-5" d="M44.152 37.925a5.62 5.62 0 01-.864-.068c-3.618-.565-6.013-4.543-5.337-8.867a8.734 8.734 0 012.776-5.237 6.092 6.092 0 015.01-1.583c3.617.565 6.011 4.544 5.336 8.868-.62 3.979-3.628 6.887-6.92 6.887zm.711-15.507a5.943 5.943 0 00-3.927 1.572 8.416 8.416 0 00-2.672 5.05c-.649 4.15 1.627 7.967 5.073 8.505 3.452.543 6.775-2.403 7.424-6.556.647-4.152-1.628-7.968-5.073-8.507a5.326 5.326 0 00-.825-.064zM55.892 29.877a.198.198 0 00-.151-.204 20.88 20.88 0 00-1.62-.317 16.732 16.732 0 00-1.894-.19.199.199 0 00-.205.205 10.698 10.698 0 01-.373 2.948.198.198 0 00.178.252 16.865 16.865 0 011.773.226c.535.096 1.148.227 1.647.36a.203.203 0 00.25-.146q.139-.569.23-1.16c.09-.571.146-1.58.165-1.974z"/><path class="cls-5" d="M55.3 33.323a.399.399 0 01-.094-.011 20.195 20.195 0 00-1.635-.36 16.589 16.589 0 00-1.755-.223.36.36 0 01-.267-.15.356.356 0 01-.052-.3 10.603 10.603 0 00.366-2.906.364.364 0 01.11-.267.369.369 0 01.26-.098 17.049 17.049 0 011.913.191c.554.087 1.164.206 1.632.32a.357.357 0 01.273.366c-.026.509-.081 1.441-.167 1.99-.063.401-.14.797-.233 1.174a.361.361 0 01-.35.274zm-3.462-.91a16.98 16.98 0 011.79.229c.586.104 1.191.237 1.66.364l.21.006-.153-.037a14.5 14.5 0 00.226-1.149c.087-.554.144-1.552.163-1.955a.042.042 0 00-.03-.045 21.12 21.12 0 00-1.606-.314 16.608 16.608 0 00-1.877-.188l-.2.047.159-.002a10.921 10.921 0 01-.13 1.821 10.719 10.719 0 01-.248 1.17l.025.211z"/><path class="cls-2" d="M54.313 40.294a11.706 11.706 0 001.461-4.674c.38-2.197.788-3.235-.006-3.586-.792-.35-1.563.012-2.028 1.82-.529 2.057-.992 3.02-1.29 3.12a2.307 2.307 0 01-2.082-.567 2.72 2.72 0 01-.63-2.113l-.125-.053c.188-.344.301-.547.387-.715a1.34 1.34 0 00-1.42-.066 1.794 1.794 0 00-.732 1.223l-.023-.034a1.133 1.133 0 00-1.072.393 1.624 1.624 0 00-.388.82l-.02-.015a1.298 1.298 0 00-1.09.423 1.676 1.676 0 00-.416.973 1.077 1.077 0 00-.91.357c-.435.489-.341 1.873.01 3.034a3.931 3.931 0 002.19 2.354c.97.435 3.04.929 3.147 3.007l4.474-.164a8.712 8.712 0 01.563-5.537z"/><path class="cls-5" d="M48.469 37.55a.16.16 0 01-.13-.067 4.78 4.78 0 01-.693-2.085 2.237 2.237 0 01.85-2.072 1.55 1.55 0 011.715.152.16.16 0 01.025.223.16.16 0 01-.222.026 1.24 1.24 0 00-1.35-.133 1.924 1.924 0 00-.701 1.783 4.463 4.463 0 00.635 1.923.158.158 0 01-.13.25z"/><path class="cls-5" d="M46.743 38.602a.158.158 0 01-.147-.101c-.473-1.202-.71-2.77.042-3.567a1.278 1.278 0 011.23-.437.158.158 0 01.11.194.16.16 0 01-.194.11.98.98 0 00-.916.35c-.536.568-.527 1.837.023 3.235a.159.159 0 01-.09.205.167.167 0 01-.058.01z"/><path class="cls-5" d="M45.245 39.83a.158.158 0 01-.147-.101c-.478-1.212-.716-2.787.045-3.57a1.437 1.437 0 011.23-.468.157.157 0 01.127.184.16.16 0 01-.183.128 1.143 1.143 0 00-.948.377c-.54.556-.531 1.825.024 3.233a.159.159 0 01-.09.205.167.167 0 01-.058.011z"/><path class="cls-5" d="M49.276 46.153a.159.159 0 01-.158-.15c-.087-1.691-1.536-2.264-2.594-2.682a10.93 10.93 0 01-.46-.188 4.096 4.096 0 01-2.276-2.453c-.344-1.136-.483-2.617.023-3.185a1.236 1.236 0 011.06-.407.158.158 0 01-.049.312.912.912 0 00-.775.306c-.353.396-.334 1.635.044 2.882a3.774 3.774 0 002.102 2.256c.131.058.284.119.448.183 1.073.424 2.695 1.066 2.794 2.96a.159.159 0 01-.15.166zM53.75 45.99a.159.159 0 01-.156-.133l-.014-.083a8.838 8.838 0 01.592-5.552 10.544 10.544 0 001.35-4.062l.096-.567c.073-.421.148-.8.214-1.14.283-1.452.378-2.05-.128-2.274a.927.927 0 00-.806-.026c-.422.204-.76.79-1.004 1.74-.356 1.38-.885 3.058-1.394 3.231a2.472 2.472 0 01-2.25-.611 2.862 2.862 0 01-.667-2.255.158.158 0 01.309.072 2.548 2.548 0 00.594 1.972 2.156 2.156 0 001.912.523c.019-.007.462-.186 1.189-3.01a2.815 2.815 0 011.174-1.947 1.229 1.229 0 011.072.022c.756.335.598 1.148.31 2.624-.067.338-.14.715-.212 1.133l-.097.565a10.882 10.882 0 01-1.38 4.154 8.41 8.41 0 00-.562 5.355l.014.084a.159.159 0 01-.13.182z"/><path class="cls-5" d="M56.041 34.257a3.593 3.593 0 01-1.484-.357.158.158 0 01-.086-.16c.007-.053.164-1.313.987-1.342h.059a.796.796 0 01.845.471l-.295.113c-.027-.07-.1-.295-.6-.267-.437.014-.61.683-.663.952a3.368 3.368 0 001.24.273l.004.317z"/><path class="cls-2" d="M33.534 47.616a12.63 12.63 0 01-7.368-2.458 15.75 15.75 0 01-6.06-9.247 15.753 15.753 0 011.279-10.98 12.3 12.3 0 018.056-6.428c6.233-1.47 12.705 2.311 15.385 9a16.73 16.73 0 01.756 2.388v.002c.127.54.228 1.077.297 1.597C46.9 38.962 42.76 45.76 36.247 47.3a11.804 11.804 0 01-2.713.317zm-1.387-26.66a8.961 8.961 0 00-2.069.24 9.57 9.57 0 00-6.245 5.026 13.446 13.446 0 003.943 16.686 9.575 9.575 0 007.834 1.697c5.12-1.21 8.355-6.687 7.527-12.743a14.136 14.136 0 00-.248-1.337 14.023 14.023 0 00-.63-1.99c-1.863-4.647-5.907-7.58-10.112-7.58z"/><path class="cls-2" d="M33.534 47.616a12.63 12.63 0 01-7.368-2.458 15.75 15.75 0 01-6.06-9.247 15.753 15.753 0 011.279-10.98 12.3 12.3 0 018.056-6.428c6.233-1.47 12.705 2.311 15.385 9a16.73 16.73 0 01.756 2.388v.002c.127.54.228 1.077.297 1.597C46.9 38.962 42.76 45.76 36.247 47.3a11.804 11.804 0 01-2.713.317zm-1.387-26.66a8.961 8.961 0 00-2.069.24 9.57 9.57 0 00-6.245 5.026 13.446 13.446 0 003.943 16.686 9.575 9.575 0 007.834 1.697c5.12-1.21 8.355-6.687 7.527-12.743a14.136 14.136 0 00-.248-1.337 14.023 14.023 0 00-.63-1.99c-1.863-4.647-5.907-7.58-10.112-7.58z"/><path class="cls-2" d="M32.477 46.373c-5.366 0-10.437-4.32-11.914-10.568a14.395 14.395 0 011.045-9.818 10.65 10.65 0 017.041-5.752c6.137-1.45 12.514 3.17 14.2 10.302s-1.942 14.116-8.085 15.57a9.948 9.948 0 01-2.287.266zM30.95 22.734a7.222 7.222 0 00-1.664.195 7.93 7.93 0 00-5.21 4.31 11.632 11.632 0 00-.82 7.929c1.336 5.647 6.209 9.348 10.87 8.245 4.66-1.101 7.364-6.592 6.03-12.24-1.177-4.975-5.102-8.439-9.206-8.439z"/><path class="cls-2" d="M33.085 42.537c-3.907 0-7.604-3.165-8.685-7.736a10.568 10.568 0 01.732-7.139 7.739 7.739 0 015.138-4.235c4.467-1.052 9.108 2.327 10.34 7.543 1.233 5.215-1.401 10.317-5.87 11.374a7.26 7.26 0 01-1.655.193zM31.941 26a4.504 4.504 0 00-1.035.12 5.02 5.02 0 00-3.298 2.776 7.804 7.804 0 00-.514 5.268c.88 3.73 4.034 6.189 7.01 5.486 2.984-.706 4.695-4.314 3.813-8.044-.78-3.3-3.331-5.606-5.976-5.606z"/><path class="cls-2" d="M40.729 33.86a1.595 1.595 0 01-1.583-1.405 10.158 10.158 0 00-.724-2.704 1.597 1.597 0 01.924-2.127 19.195 19.195 0 012.11-.623c.63-.15 1.305-.281 1.85-.361a1.6 1.6 0 011.74 1.05c.187.534.525 1.525.676 2.167.107.45.194.904.262 1.354a1.601 1.601 0 01-1.391 1.828c-.463.058-1.085.165-1.658.287a16.754 16.754 0 00-1.71.454 1.58 1.58 0 01-.496.08zm1.163-1.745zm1.356-.491zm-2.875-.477l-.01.004zm1.035-1.277c.09.283.167.57.235.856l.012.055a25.202 25.202 0 011.372-.295 13.903 13.903 0 00-.274-.937 21.847 21.847 0 00-1.345.321zm2.848.422l-.009.001zm-.54-.915l-.01.001zm-2.747-.709l.004.01z"/><path class="cls-2" d="M43.019 48.638l-.58-1.236c-.375-.801-1.106-.91-2.545-.914-.216.002-.414.004-.588-.002a5.535 5.535 0 01-4.15-1.962c-.491-.604-2.046-2.706-1.466-4.34a2.512 2.512 0 01.598-.95 2.808 2.808 0 01.2-.96 2.926 2.926 0 01.816-1.135 2.854 2.854 0 01.974-1.816 2.953 2.953 0 01.533-1.472 2.786 2.786 0 012.79-1.064l1.253.213-.105 1.266c-.005.06-.01.123-.019.193l.055.343a1.653 1.653 0 00.72.815.86.86 0 00.524-.005 15.042 15.042 0 00-.187-2.46 4.043 4.043 0 01.68-3.383 2.611 2.611 0 012.01-.812c1.854.055 2.194 1.783 2.522 3.455.07.355.147.75.243 1.187l.132.595a12.812 12.812 0 01.334 5.05 7.913 7.913 0 001.426 4.79l.833 1.342-1.39.73zm-2.836-4.92a5.317 5.317 0 013.989 1.363l1.937-.874A9.718 9.718 0 0145.007 39a9.815 9.815 0 00-.207-3.882c.039 1.506-.24 2.112-.7 2.51a3.818 3.818 0 01-3.807.477 3.98 3.98 0 01-.908-.619l.354 1.729-1.58-1.067.349 1.768-1.437-.426a.786.786 0 00.019.081l.356 1.35-1.065.272a5.403 5.403 0 00.925 1.59 2.822 2.822 0 002.093.938c.14.004.293.003.465 0l.319-.002z"/><path class="cls-2" d="M39.411 39.99a1.37 1.37 0 01-.74-.217 6.345 6.345 0 01-1.969-2.278 3.56 3.56 0 01.11-3.645 2.842 2.842 0 013.091-.996 1.384 1.384 0 01-.753 2.664.43.43 0 00-.157-.003 2.273 2.273 0 00.194.76 3.726 3.726 0 00.967 1.162 1.384 1.384 0 01-.743 2.552z"/><path class="cls-2" d="M38.126 41.73a1.383 1.383 0 01-1.001-.428c-1.571-1.646-2.19-3.453-1.653-4.835a2.592 2.592 0 012.032-1.697 1.384 1.384 0 01.558 2.7 3.089 3.089 0 001.065 1.92 1.384 1.384 0 01-1.001 2.34zm-.241-4.22z"/><path class="cls-2" d="M37.137 43.554a1.377 1.377 0 01-1.001-.429c-1.587-1.663-2.203-3.477-1.648-4.852a2.789 2.789 0 011.906-1.695 1.384 1.384 0 01.696 2.676c-.083.267.19 1.06 1.048 1.96a1.384 1.384 0 01-1.001 2.34zm-.165-4.27l-.002.001zm.002 0z"/><path class="cls-2" d="M43.693 48.2a1.384 1.384 0 01-1.254-.798c-.375-.801-1.104-.91-2.545-.914-.216.002-.414.004-.588-.002a5.535 5.535 0 01-4.15-1.962c-.491-.604-2.046-2.706-1.466-4.34a2.544 2.544 0 011.75-1.608 1.384 1.384 0 01.931 2.588 5.342 5.342 0 00.935 1.618 2.822 2.822 0 002.093.939c.14.004.293.003.465 0 1.261-.012 3.888-.04 5.081 2.507a1.384 1.384 0 01-1.252 1.971zm-7.56-6.945l-.054.015.055-.015zM46.887 45.571l1.176-.727-1.225.65A10.596 10.596 0 0145.007 39a9.815 9.815 0 00-.207-3.882c.039 1.503-.238 2.11-.697 2.509a3.817 3.817 0 01-3.81.478 4.297 4.297 0 01-2.24-2.868 1.383 1.383 0 012.732-.435 1.653 1.653 0 00.72.815.858.858 0 00.523-.005 14.994 14.994 0 00-.186-2.46 4.043 4.043 0 01.68-3.383 2.611 2.611 0 012.01-.812c1.854.055 2.194 1.783 2.522 3.455.07.355.147.75.243 1.187l.132.595a12.812 12.812 0 01.334 5.05 7.913 7.913 0 001.427 4.79l-1.126.81z"/><path class="cls-2" d="M44.29 33.904c-.112 0-.228-.004-.344-.013a1.383 1.383 0 01-1.223-1.01 2.553 2.553 0 011.111-3.163 2.09 2.09 0 012.469.379l-1.158 1.088.987 2.369a5.18 5.18 0 01-1.842.35z"/><path class="cls-4" d="M33.231 46.924c-5.29 0-10.414-3.964-12.25-9.96-2.19-7.153 1.117-14.532 7.37-16.447 5.536-1.698 11.619 1.385 14.466 7.324l.008.014a15.508 15.508 0 01.843 2.164c.146.48.271.97.371 1.46 1.38 6.77-1.948 13.213-7.742 14.987a10.43 10.43 0 01-3.066.458zM31.444 20.37a10.21 10.21 0 00-3 .45c-6.088 1.864-9.3 9.065-7.16 16.052 2.139 6.987 8.83 11.152 14.921 9.291 5.637-1.726 8.871-8.012 7.524-14.622-.097-.48-.22-.96-.364-1.43a15.28 15.28 0 00-.818-2.104l-.008-.015c-2.267-4.74-6.635-7.622-11.095-7.622z"/><path class="cls-4" d="M33.231 46.924c-5.29 0-10.414-3.964-12.25-9.96-2.19-7.153 1.117-14.532 7.37-16.447 5.536-1.698 11.619 1.385 14.466 7.324l.008.014a15.508 15.508 0 01.843 2.164c.146.48.271.97.371 1.46 1.38 6.77-1.948 13.213-7.742 14.987a10.43 10.43 0 01-3.066.458zM31.444 20.37a10.21 10.21 0 00-3 .45c-6.088 1.864-9.3 9.065-7.16 16.052 2.139 6.987 8.83 11.152 14.921 9.291 5.637-1.726 8.871-8.012 7.524-14.622-.097-.48-.22-.96-.364-1.43a15.28 15.28 0 00-.818-2.104l-.008-.015c-2.267-4.74-6.635-7.622-11.095-7.622z"/><path class="cls-4" d="M32.152 45.759a9.914 9.914 0 01-5.372-1.656 13.163 13.163 0 01-5.35-7.275c-1.948-6.361.853-12.88 6.244-14.531a9.451 9.451 0 017.959 1.27 13.166 13.166 0 015.35 7.275c1.948 6.361-.853 12.879-6.244 14.53a8.82 8.82 0 01-2.587.387zM30.26 22.227a8.488 8.488 0 00-2.494.373c-5.223 1.6-7.93 7.941-6.033 14.136a12.847 12.847 0 005.22 7.1 9.13 9.13 0 007.694 1.233c5.224-1.6 7.93-7.94 6.033-14.135a12.85 12.85 0 00-5.22-7.102 9.603 9.603 0 00-5.2-1.605z"/><path class="cls-4" d="M32.71 41.88c-3.208 0-6.358-2.52-7.517-6.303a9.35 9.35 0 01.225-6.339 6.53 6.53 0 014.081-3.862c3.741-1.146 7.907 1.564 9.278 6.042a9.35 9.35 0 01-.225 6.339 6.527 6.527 0 01-4.08 3.861 6.005 6.005 0 01-1.762.263zm-1.448-16.45a5.685 5.685 0 00-1.671.249 6.22 6.22 0 00-3.881 3.682 9.026 9.026 0 00-.214 6.124c1.32 4.31 5.304 6.926 8.884 5.83a6.218 6.218 0 003.88-3.681 9.026 9.026 0 00.215-6.124c-1.118-3.647-4.142-6.08-7.213-6.08zM42.89 28.042a.212.212 0 00-.242-.126 22.37 22.37 0 00-1.71.451 17.924 17.924 0 00-1.914.704.213.213 0 00-.102.293 11.462 11.462 0 011.02 3.016.212.212 0 00.29.16 18.072 18.072 0 011.814-.612c.56-.158 1.213-.32 1.756-.423a.217.217 0 00.173-.259q-.133-.613-.321-1.226c-.181-.592-.6-1.59-.765-1.978z"/><path class="cls-4" d="M40.15 32.713a.363.363 0 01-.176-.045.37.37 0 01-.187-.259 11.28 11.28 0 00-1.007-2.973.381.381 0 01-.018-.298.362.362 0 01.198-.212 18.369 18.369 0 011.932-.71c.579-.177 1.222-.347 1.722-.454a.37.37 0 01.42.218c.134.313.581 1.373.772 1.993.126.415.235.832.324 1.24a.372.372 0 01-.053.285.385.385 0 01-.246.162c-.5.096-1.135.248-1.742.42a18.058 18.058 0 00-1.799.606.367.367 0 01-.14.027zm2.544-4.644l-.012.001c-.493.107-1.127.274-1.698.449a18.078 18.078 0 00-1.897.696.05.05 0 00-.027.03.057.057 0 00.003.048 11.606 11.606 0 011.035 3.058.058.058 0 00.028.04.06.06 0 00.047.002 18.352 18.352 0 011.83-.618 21.99 21.99 0 011.77-.425.07.07 0 00.04-.027.058.058 0 00.008-.043c-.087-.4-.194-.808-.318-1.215-.186-.604-.629-1.654-.76-1.96v-.001a.052.052 0 00-.049-.035z"/><path class="cls-2" d="M46.24 38.82a12.54 12.54 0 00-.777-5.189c-.662-2.296-.755-3.486-1.684-3.453-.927.033-1.5.743-1.103 2.704.452 2.228.457 3.373.216 3.61a2.471 2.471 0 01-2.271.427 2.915 2.915 0 01-1.598-1.742l-.144.008c.02-.42.035-.668.04-.87a1.435 1.435 0 00-1.401.6 1.922 1.922 0 00-.133 1.522l-.037-.022a1.214 1.214 0 00-.85.88 1.74 1.74 0 00.01.972l-.027-.005a1.39 1.39 0 00-.852.917 1.796 1.796 0 00.054 1.133 1.154 1.154 0 00-.71.77c-.19.674.547 1.964 1.43 2.918a4.211 4.211 0 003.211 1.245c1.138-.035 3.365-.528 4.44 1.426l4.235-2.252a9.333 9.333 0 01-2.048-5.6z"/><path class="cls-4" d="M39.251 38.915a.15.15 0 01-.075-.02 5.104 5.104 0 01-1.64-1.68 2.386 2.386 0 01-.152-2.384 1.645 1.645 0 011.713-.65.158.158 0 01.119.19.161.161 0 01-.189.12 1.343 1.343 0 00-1.376.508 2.076 2.076 0 00.159 2.058 4.829 4.829 0 001.516 1.561.158.158 0 01-.075.297z"/><path class="cls-4" d="M38.08 40.735a.159.159 0 01-.107-.042c-1.016-.933-1.977-2.33-1.625-3.446a1.36 1.36 0 01.971-.987.152.152 0 01.184.127.157.157 0 01-.126.183 1.06 1.06 0 00-.729.773c-.253.803.352 2.026 1.54 3.118a.158.158 0 01-.108.274z"/><path class="cls-4" d="M37.21 42.62a.159.159 0 01-.106-.042c-1.026-.942-1.99-2.343-1.625-3.45a1.543 1.543 0 01.959-1.019.158.158 0 01.086.305 1.226 1.226 0 00-.745.815c-.262.793.342 2.016 1.54 3.117a.158.158 0 01-.108.274z"/><path class="cls-4" d="M44.055 46.83a.158.158 0 01-.139-.083c-.879-1.597-2.55-1.472-3.766-1.377-.194.015-.373.028-.53.033a4.431 4.431 0 01-3.334-1.296c-.86-.931-1.686-2.289-1.465-3.068a1.313 1.313 0 01.824-.88.158.158 0 01.092.302.992.992 0 00-.611.664c-.156.55.442 1.74 1.393 2.768a4.04 4.04 0 003.09 1.194c.155-.005.329-.018.517-.032 1.236-.092 3.09-.235 4.067 1.54a.159.159 0 01-.062.215.164.164 0 01-.076.02zM48.29 44.577a.16.16 0 01-.13-.066l-.054-.075a9.462 9.462 0 01-2.024-5.62 11.299 11.299 0 00-.6-4.551l-.171-.59c-.127-.443-.234-.843-.33-1.202-.407-1.536-.59-2.173-1.197-2.137a1.007 1.007 0 00-.797.356 2.746 2.746 0 00-.156 2.159c.303 1.492.578 3.354.172 3.753a2.632 2.632 0 01-2.442.461 3.054 3.054 0 01-1.692-1.852.158.158 0 01.12-.19.155.155 0 01.189.12 2.743 2.743 0 001.502 1.63 2.31 2.31 0 002.1-.393c.138-.136.238-1.018-.26-3.467a3.01 3.01 0 01.22-2.417 1.308 1.308 0 011.032-.476l.045-.001c.841 0 1.067.85 1.47 2.373.095.357.201.755.328 1.195l.171.589a11.65 11.65 0 01.612 4.647 9.025 9.025 0 001.966 5.429l.054.075a.158.158 0 01-.037.22.16.16 0 01-.092.03z"/><path class="cls-4" d="M43.528 32.532a.188.188 0 01-.19-.106c-.019-.054-.455-1.334.318-1.74a.864.864 0 011.078.026l-.214.232c-.063-.057-.25-.225-.716.02-.426.224-.274.972-.199 1.25a3.607 3.607 0 001.336-.318l.141.284a3.85 3.85 0 01-1.554.352z"/><path class="cls-2" d="M36.518 24.933a.988.988 0 01-.634-1.748 14.332 14.332 0 017.488-3.287 13.917 13.917 0 016.055.64.988.988 0 01-.625 1.875 11.961 11.961 0 00-5.2-.553 12.187 12.187 0 00-6.453 2.844.987.987 0 01-.631.229z"/><path class="cls-2" d="M48.85 23.48a.988.988 0 01-.35-1.912l.464-.176-.21-.45a.989.989 0 011.793-.835l.658 1.414a.988.988 0 01-.546 1.341l-1.458.554a.98.98 0 01-.35.064zM37.51 25.482h-.03l-1.56-.046a.99.99 0 01-.953-1.091l.16-1.552a.989.989 0 011.968.205l-.052.493.495.015a.988.988 0 01-.028 1.976z"/><path class="cls-4" d="M36.924 23.774a.159.159 0 01-.125-.061.157.157 0 01.028-.222c.138-.105.277-.21.417-.311a.158.158 0 01.186.256c-.139.1-.276.202-.41.305a.157.157 0 01-.096.033zm1.271-.88a.158.158 0 01-.082-.293c.149-.091.3-.18.45-.266a.16.16 0 01.215.06.158.158 0 01-.06.215c-.148.084-.294.171-.44.26a.156.156 0 01-.083.024zm1.364-.735a.158.158 0 01-.068-.3c.158-.076.318-.146.478-.213a.158.158 0 01.123.29c-.157.066-.312.134-.466.208a.151.151 0 01-.067.015zm9.555-.525a.177.177 0 01-.05-.008q-.241-.082-.485-.151a.158.158 0 01.086-.305c.168.048.334.1.499.155a.158.158 0 01-.05.309zm-8.117-.047a.158.158 0 01-.05-.309c.166-.054.332-.105.5-.153a.158.158 0 11.086.305 11.24 11.24 0 00-.486.15.177.177 0 01-.05.007zm6.623-.36a.18.18 0 01-.032-.002q-.25-.053-.502-.096a.159.159 0 11.055-.313c.17.03.341.063.511.099a.158.158 0 01-.032.313zm-5.127-.034a.158.158 0 01-.03-.313c.17-.033.342-.065.514-.09a.152.152 0 01.181.13.158.158 0 01-.132.182q-.253.04-.503.088a.16.16 0 01-.03.003zM46.09 21l-.015-.001a10.889 10.889 0 00-.508-.034.158.158 0 01.007-.317h.007c.176.008.35.02.523.037a.158.158 0 01-.014.315zm-2.064-.014a.158.158 0 01-.012-.315c.174-.015.348-.024.522-.03a.158.158 0 11.012.317c-.17.006-.34.015-.509.027z"/><path class="cls-4" d="M48.85 22.69a.197.197 0 01-.07-.382l1.26-.479-.57-1.222a.198.198 0 01.097-.262.2.2 0 01.263.096l.658 1.414a.2.2 0 01.004.158.203.203 0 01-.113.11l-1.458.554a.198.198 0 01-.07.012zM37.509 24.691h-.006l-1.559-.046a.193.193 0 01-.142-.068.196.196 0 01-.048-.15l.161-1.552a.199.199 0 01.217-.176.197.197 0 01.176.217l-.139 1.34 1.346.04a.197.197 0 01-.006.395z"/></g></g></svg>