<svg xmlns="http://www.w3.org/2000/svg" viewBox="0 0 75 74.99902"><defs><style>.cls-1,.cls-5{fill:none;}.cls-2{fill:#f0f8fa;}.cls-3{fill:#666;}.cls-4{fill:#00afca;}.cls-5{stroke:#00afca;stroke-linecap:round;stroke-linejoin:round;stroke-width:0.31628px;}</style></defs><title>アセット 3802</title><g id="レイヤー_2" data-name="レイヤー 2"><g id="レイヤー_2-2" data-name="レイヤー 2"><path class="cls-1" d="M8.36279-.00049H66.63818a8.36133,8.36133,0,0,1,8.36133,8.36133V66.63721a8.3623,8.3623,0,0,1-8.3623,8.3623H8.36182A8.36133,8.36133,0,0,1,.00049,66.63818V8.36182A8.3623,8.3623,0,0,1,8.36279-.00049Z" transform="translate(74.99951 -0.00049) rotate(90)"/><path class="cls-2" d="M8.36252,4.99947H66.63786a3.362,3.362,0,0,1,3.362,3.362V66.63724a3.36224,3.36224,0,0,1-3.36224,3.36224H8.36233a3.362,3.362,0,0,1-3.362-3.362V8.36171A3.36224,3.36224,0,0,1,8.36252,4.99947Z" transform="translate(74.99957 -0.00062) rotate(90)"/><path class="cls-3" d="M66.6377,70.124H8.3623A3.49048,3.49048,0,0,1,4.875,66.6377V8.36133A3.49049,3.49049,0,0,1,8.3623,4.875H66.6377A3.49049,3.49049,0,0,1,70.125,8.36133V66.6377A3.49048,3.49048,0,0,1,66.6377,70.124ZM8.3623,5.125A3.24064,3.24064,0,0,0,5.125,8.36133V66.6377A3.24063,3.24063,0,0,0,8.3623,69.874H66.6377A3.24063,3.24063,0,0,0,69.875,66.6377V8.36133A3.24064,3.24064,0,0,0,66.6377,5.125Z"/><path class="cls-4" d="M10.973,63.23968a1.61434,1.61434,0,0,1-.717-.14595l.09189-.27064a1.36884,1.36884,0,0,0,.6216.139.57478.57478,0,0,0,.63859-.60886c0-.434-.3552-.57643-.71735-.57643a2.59527,2.59527,0,0,0-.512.04981l.05443-1.36675h1.33162V60.734H10.7101l-.03784.78646a1.9613,1.9613,0,0,1,.2803-.02123.86561.86561,0,0,1,.97294.83626A.87638.87638,0,0,1,10.973,63.23968Z"/><path class="cls-4" d="M13.7293,62.2289l-.17413.22046c-.06834-.13861-.17412-.33822-.28686-.5301v1.55863H12.9884V62.03663a5.08748,5.08748,0,0,1-.40308.822l-.19768-.21351a4.45245,4.45245,0,0,0,.59072-1.203h-.54323v-.25984h.55327v-.49458a3.55979,3.55979,0,0,1-.461.08533l-.10232-.24208a3.3863,3.3863,0,0,0,1.14359-.3274l.15714.22084a3.10764,3.10764,0,0,1-.45751.18494v.57295h.451v.25984h-.451V61.588C13.43587,61.80884,13.62351,62.06867,13.7293,62.2289Zm.56677-1.38451A2.96788,2.96788,0,0,1,13.9,61.95478l-.24247-.1139a2.62413,2.62413,0,0,0,.38609-1.04282Zm1.11656,1.15672A2.20081,2.20081,0,0,1,13.9,63.47442l-.21853-.22046a1.92927,1.92927,0,0,0,1.45825-1.33856Zm-.60075-1.79762v1.82966c0,.16371-.0444.256-.188.28108a2.20656,2.20656,0,0,1-.38918.00695l-.0444-.26679a2.43671,2.43671,0,0,0,.26988.00347c.05444-.00347.07142-.02857.07142-.07451V60.20349Zm.45751.55519a4.99441,4.99441,0,0,1,.34131,1.05711l-.26988.0749a4.87448,4.87448,0,0,0-.31389-1.06058Z"/><path class="cls-4" d="M16.28828,60.31044h.96946v1.21347h-.96946v1.954h-.27992V60.31044h.27992Zm.6965.498v-.28455h-.6965v.28455Zm-.6965.1996v.29536h.6965v-.29536Zm1.78912.77951v1.22776H16.73884V61.7876Zm-1.0822.51582h.8158v-.30231h-.8158Zm0,.49843h.8158v-.317h-.8158ZM18.709,60.31044h.11969V63.108c0,.20617-.05135.3274-.24246.35945a3.31416,3.31416,0,0,1-.46794.00347l-.04788-.28107a3.41945,3.41945,0,0,0,.36215.007c.0888-.007.11274-.04981.11274-.13166V61.52391h-.99379V60.31044H18.709Zm-.1637.498v-.28455H17.828v.28455Zm-.71735.1996v.29536h.71735v-.29536Z"/><path class="cls-4" d="M19.90205,63.496a4.31331,4.31331,0,0,0-.68955-.712l.18069-.178a4.4287,4.4287,0,0,1,.71387.70113Z"/><path class="cls-4" d="M20.40782,62.16481V60.50618h.30385v1.65863Zm.64863,1.21347-.14672-.256a1.30441,1.30441,0,0,0,1.07217-1.44513V60.42086h.3108v1.2598A1.57611,1.57611,0,0,1,21.05645,63.37828Z"/><path class="cls-4" d="M23.90577,61.556a4.66886,4.66886,0,0,0-.99727-.65828l.17413-.25636a5.61449,5.61449,0,0,1,1.02429.63705Zm-.81967,1.70843-.09227-.29883a2.67177,2.67177,0,0,0,2.25011-1.72271l.22548.2135A2.91788,2.91788,0,0,1,23.0861,63.26438Z"/><path class="cls-4" d="M26.91106,60.8691h1.32505a3.00559,3.00559,0,0,1-1.86788,2.50918l-.14672-.23821a2.56437,2.56437,0,0,0,1.63894-2.00032H26.7713a4.69762,4.69762,0,0,1-.881,1.13162l-.21157-.19922a4.19939,4.19939,0,0,0,1.08567-1.60882h.30733C27.02728,60.595,26.97245,60.734,26.91106,60.8691Zm1.19842-.06756a2.33662,2.33662,0,0,0-.249-.566l.16718-.08533a2.2515,2.2515,0,0,1,.2664.56948Zm.46793-.05714a2.26491,2.26491,0,0,0-.24246-.56562l.16718-.08919a2.43525,2.43525,0,0,1,.25945.58029Z"/><path class="cls-4" d="M30.26539,63.29643l-.10927-.256a1.1375,1.1375,0,0,0,1.04475-1.18528.94019.94019,0,0,0-.92853-.98259c-.14015,1.26713-.41659,2.17135-.89457,2.17135-.35867,0-.64206-.48415-.64206-.99649A1.45421,1.45421,0,0,1,30.194,60.60579a1.19742,1.19742,0,0,1,1.30073,1.242A1.41979,1.41979,0,0,1,30.26539,63.29643ZM29.01562,62.0401c0,.36293.171.6799.3552.6799.23243,0,.48493-.66561.60114-1.83314A1.1587,1.1587,0,0,0,29.01562,62.0401Z"/><path class="cls-4" d="M34.98568,63.1864l-.1776.288a1.67707,1.67707,0,0,1-1.427-.88955c-.188.44825-.57372.7189-1.38643.88955l-.17413-.256c.84669-.14594,1.18838-.4023,1.32814-.84746H31.86494v-.26331h1.34551c.017-.11737.027-.249.034-.39149l.29381.00733c-.007.13861-.02085.26679-.03783.38416h1.44435V62.371H33.57917A1.44251,1.44251,0,0,0,34.98568,63.1864Zm-1.154-1.87214c0,.12432.02394.14942.12625.15289.09227.00348.25636.00348.3552,0,.11274-.00347.11968-.01776.12625-.21l.25945.04633c-.027.37026-.08185.42006-.35829.42354-.12316,0-.30733.00347-.41311,0-.30385-.00348-.36872-.08185-.36872-.41273v-.51272h-.39265c-.07181.56948-.29728.8934-1.02119,1.08915l-.16023-.22432c.66909-.14594.85673-.41272.915-.86483h-.63858v.38454h-.27992v-.63743h1.27023v-.34516h.29343v.34516H34.839v.63743h-.29034v-.38454h-.717Z"/><path class="cls-4" d="M37.12151,61.89764a4.48356,4.48356,0,0,0,.2081.46639l-.27644.09614a4.92253,4.92253,0,0,1-.23551-.56253H35.37988V61.6378h1.349c-.05482-.17065-.10617-.35211-.15057-.54091H35.53006v-.25983h.98684c-.04092-.18146-.0749-.37026-.10579-.56214h.29729c.027.18841.06139.3772.10231.56214h.939v.25983H36.8721c.0444.1888.09922.37026.15714.54091h.9046v.25984Zm-.1027,1.51269c-.91155,0-1.33508-.23127-1.33508-.60153A1.04444,1.04444,0,0,1,35.793,62.371l.2664.05367a.8735.8735,0,0,0-.0888.34863c0,.249.36562.36331,1.03124.36331.08532,0,.22894-.00386.37218-.00734v.27413C37.25124,63.40685,37.11109,63.41033,37.01881,63.41033Z"/><path class="cls-4" d="M38.72725,62.47793V60.8942h-.488v-.26331h1.24629v.26331h-.47489v1.4984c.1776-.05366.34825-.10694.49188-.15328l.02394.25289c-.36872.13513-.9324.3274-1.25324.43049l-.07181-.29883C38.3346,62.58835,38.5261,62.53854,38.72725,62.47793Zm2.67365.74051-.21158.256a2.35161,2.35161,0,0,1-.85364-.68338,3.11815,3.11815,0,0,1-.94938.68338l-.19807-.24208a2.82108,2.82108,0,0,0,.9768-.68337,3.71182,3.71182,0,0,1-.427-1.03549,3.60745,3.60745,0,0,1-.26987.44477l-.22509-.18146A3.44611,3.44611,0,0,0,39.85423,60.2l.28339.0498a5.36075,5.36075,0,0,1-.1332.59071H41.36v.27065h-.3413a3.09969,3.09969,0,0,1-.49535,1.44512A2.12112,2.12112,0,0,0,41.4009,63.21844Zm-1.0517-.915a2.73951,2.73951,0,0,0,.37218-1.19224h-.79225A3.62806,3.62806,0,0,0,40.3492,62.30342Z"/><path class="cls-4" d="M43.05528,62.791v-.22779H41.92482v-.18146h1.13046v-.21c-.31775.02162-.63859.02857-.898.02162l-.0583-.18185a10.00419,10.00419,0,0,0,2.05553-.14941l.0888.17451a8.43391,8.43391,0,0,1-.89457.1139v.23126h1.161v.18146h-1.161V62.791h1.43084v.18146H43.3487v.2386c0,.14942-.0444.23513-.18069.25637a3.67154,3.67154,0,0,1-.50229.007l-.03745-.22046c.11968.007.30385.007.3552.00348.05443-.00348.07181-.02858.07181-.07838V62.9725H41.63834V62.791Zm-.7548-1.16714v-.1498h-.53937v-.78993h.53937v-.14594h-.62469v-.1637h.62469v-.171h.256v.171h.62508v.1637h-.62508v.14594h.56022v.78993h-.56022v.1498H43.195v.1637h-.63859v.15289h-.256V61.7876h-.65905v-.1637Zm-.31737-.61233h.31737v-.17451h-.31737Zm0,.30964h.31737v-.18146h-.31737Zm.898-.30964v-.17451h-.3247v.17451Zm0,.30964v-.18146h-.3247v.18146Zm1.33509-1.04629h.11583v.23821c0,.08571.01042.10347.05482.10347h.12625c.04788,0,.05135-.01081.05444-.18532l.22547.04286c-.02046.32392-.06486.36292-.256.36639h-.1776c-.222-.007-.2664-.06756-.2664-.3274V60.4668H43.68V60.485a.524.524,0,0,1-.27644.45558l-.22548-.12818c.19459-.107.26293-.21.26293-.33821v-.19922h.77526Zm.55635,1.46983-.13667.20269a2.67261,2.67261,0,0,1-.6965-.24555,2.7052,2.7052,0,0,1-.57373.24208l-.15366-.18146a2.13774,2.13774,0,0,0,.52276-.1888,1.40937,1.40937,0,0,1-.34169-.34863l.188-.07491h-.27335v-.19188h1.05865c.01.00347.02046.007.1776.04594a1.21755,1.21755,0,0,1-.40308.55558A2.37112,2.37112,0,0,0,44.77259,61.74475Zm-.83665-.29536a1.03836,1.03836,0,0,0,.2803-.29922h-.61118A1.197,1.197,0,0,0,43.93594,61.44939Z"/><path class="cls-4" d="M46.15324,61.14323h.22856c.5023,0,.683.22779.683.76522a2.55788,2.55788,0,0,1-.21853,1.164.43681.43681,0,0,1-.454.25984,1.2401,1.2401,0,0,1-.48145-.107l.034-.249a1.1747,1.1747,0,0,0,.41.09228.24273.24273,0,0,0,.239-.12085,2.19474,2.19474,0,0,0,.19111-1.03934c0-.35945-.11621-.50886-.444-.50886-.07142,0-.15366,0-.24246.00347a6.89853,6.89853,0,0,1-.72044,1.93275l-.24207-.14247a6.18766,6.18766,0,0,0,.676-1.78333c-.20849.00386-.437.01429-.676.0251l-.0139-.25637c.27335-.01428.52237-.02123.74437-.02857a7.04459,7.04459,0,0,0,.10927-.78993H46.266C46.242,60.6166,46.20459,60.87991,46.15324,61.14323Zm1.25632-.24208a2.268,2.268,0,0,0-.24555-.58724l.16718-.0888a2.33054,2.33054,0,0,1,.2664.59766Zm.30076,1.71191a2.58479,2.58479,0,0,0-.461-1.48759l.222-.14247a2.81636,2.81636,0,0,1,.52893,1.63006Zm.14672-1.82928a2.15835,2.15835,0,0,0-.24942-.57295l.16757-.09266a2.423,2.423,0,0,1,.2664.58376Z"/><path class="cls-4" d="M49.29946,61.77679h.1332c-.04093,1.01425-.09189,1.54474-.21158,1.64087a.36142.36142,0,0,1-.21157.06023c-.09575.00386-.29729-.00347-.42007-.007l-.03745-.2776c.10927.00348.2969.01082.38223.007a.12355.12355,0,0,0,.07876-.0247,3.35575,3.35575,0,0,0,.12973-1.14244h-.45095c-.01.07452-.02047.14208-.0305.2027l-.25289-.01429c.05135-.28454.11274-.80074.14015-1.14937h.61465v-.51273h-.73781V60.307h1.01077v1.01425H48.784c-.017.14942-.03745.30617-.05444.45558h.56987Zm1.09262,1.30266v-.55172h-.74746V61.517h.74746V61.2c-.2969.02162-.58376.03938-.79186.05367l-.05483-.25637c.07529,0,.16062-.00347.25945-.007a5.669,5.669,0,0,0,.41-.78684l.273.08185a7.534,7.534,0,0,1-.38917.69071c.32431-.01429.693-.032.9934-.04981-.09537-.12818-.2081-.26369-.33088-.39882l.20115-.12818a3.63733,3.63733,0,0,1,.61118.79032l-.232.13513c-.03089-.06062-.06486-.12085-.10231-.18494-.16757.01429-.36563.02857-.56678.04247V61.517h.77835v1.01077h-.77835v.534c.1637-.01081.32084-.02124.46408-.032-.06487-.11737-.13977-.23512-.22162-.356l.2081-.09961a3.46737,3.46737,0,0,1,.454.79727l-.239.10309a1.92131,1.92131,0,0,0-.08532-.21351c-.49149.04981-1.24281.1139-1.66288.14594l-.06833-.27412C49.73651,63.12231,50.06121,63.10068,50.39208,63.07945Zm-.48454-.77217h.48454V61.7378h-.48454Zm1.27332,0V61.7378h-.50848v.56948Z"/><path class="cls-4" d="M54.58305,61.05443h.15019a6.31216,6.31216,0,0,1-.28686,2.32038.41965.41965,0,0,1-.27644.08918c-.12316.00348-.38918,0-.54631-.00733l-.05135-.29883c.15366.01042.40655.01428.52237.01042a.177.177,0,0,0,.12664-.04247A5.74825,5.74825,0,0,0,54.419,61.3355h-.99687A2.63015,2.63015,0,0,1,52.12793,63.464l-.232-.22431a2.299,2.299,0,0,0,1.23934-1.90418h-1.161v-.28107h1.19185c.02394-.28146.02742-.566.0305-.8436l.29382.00347c-.00348.2776-.01352.55867-.03745.84013h1.13007Z"/><path class="cls-4" d="M55.4143,63.26091a6.33764,6.33764,0,0,1-.11274-1.28837,9.47794,9.47794,0,0,1,.10926-1.39532h.28686a10.73569,10.73569,0,0,0-.10926,1.38837,6.59479,6.59479,0,0,0,.10926,1.249Zm1.7482-.09961c-.81619,0-1.12313-.17065-1.12313-.50539a1.06583,1.06583,0,0,1,.28339-.64785l.23551.11737a.835.835,0,0,0-.239.49149c0,.18493.232.27373.84322.27373.16408,0,.3413-.00347.52932-.02123v.27065C57.50727,63.15783,57.32967,63.1613,57.1625,63.1613Zm-1.0517-2.0146v-.26679h1.56056v.26679Z"/><path class="cls-4" d="M59.12691,60.95443h.59766v.25983H59.062a6.0602,6.0602,0,0,1-.666,1.62659l-.25945-.15289a5.30883,5.30883,0,0,0,.62508-1.4737h-.58724v-.25983h.64863a5.2751,5.2751,0,0,0,.10926-.65133h.30385C59.21223,60.50966,59.17478,60.7305,59.12691,60.95443Zm1.70032,2.16788a2.08925,2.08925,0,0,0-.54979-.36331v.04285c0,.43783-.17412.59805-.58376.59805-.39265,0-.70345-.20656-.70345-.50925,0-.30578.28686-.50538.73434-.50538a1.46878,1.46878,0,0,1,.27991.02509v-.97873h.273V62.4814a2.31116,2.31116,0,0,1,.70693.41659Zm-1.11656-.48763c-.273,0-.471.09227-.471.25983,0,.15984.19459.25984.42663.25984.24941,0,.33821-.07838.33821-.349v-.13861A1.35873,1.35873,0,0,0,59.71067,62.63468ZM60.899,61.3355a2.89228,2.89228,0,0,0-.922-.388l.09575-.25289a3.41174,3.41174,0,0,1,.95247.38454Z"/><path class="cls-4" d="M62.55342,63.40338c-.48492,0-.78877-.21-.78877-.5162,0-.249.222-.44477.55635-.44477a.75376.75376,0,0,1,.72391.61928.64387.64387,0,0,0,.444-.59071c0-.349-.27644-.58377-.77873-.58377a1.35385,1.35385,0,0,0-.60423.13513,3.85873,3.85873,0,0,0-.79881.60848l-.1776-.22046c.232-.19574.57025-.47334.79881-.69418.24246-.23127.68994-.65481.95286-.92893H61.58357v-.26678h1.73469v.23474c-.30732.30616-.77179.73665-.99726.96444a1.265,1.265,0,0,1,.45442-.08532c.64515,0,.9934.33473.9934.82931C63.76882,63.01536,63.26691,63.40338,62.55342,63.40338ZM62.311,62.681c-.19459,0-.29729.09227-.29729.217,0,.16022.188.25984.50887.25984a1.35787,1.35787,0,0,0,.27644-.0251C62.7206,62.86594,62.56,62.681,62.311,62.681Z"/><path class="cls-4" d="M64.47691,63.503a.43092.43092,0,1,1,.41659-.42354A.42549.42549,0,0,1,64.47691,63.503Zm0-.71195a.285.285,0,1,0,.273.28841A.27855.27855,0,0,0,64.47691,62.791Z"/><path class="cls-4" d="M32.98382,58.89118l-.03783-.18957c.90112-.0027,1.28026-.24671,1.28026-.67333,0-.26563-.1803-.498-.576-.498a5.13318,5.13318,0,0,0-1.07873.1969l-.05212-.19459a6.12166,6.12166,0,0,1,1.15942-.19922.68467.68467,0,0,1,.76329.69264C34.44207,58.54988,34.01776,58.89118,32.98382,58.89118Z"/><path class="cls-4" d="M38.76817,58.95991c-.61426,0-.89147-.173-.89147-.44555a.77207.77207,0,0,1,.29883-.51929l.13745.10888a.60479.60479,0,0,0-.23706.38416c0,.16833.16833.28686.6992.28686a5.30737,5.30737,0,0,0,.683-.04517l.01892.18725A5.93788,5.93788,0,0,1,38.76817,58.95991Zm-.05946-1.14977-.13049-.11853c.15173-.10193.31775-.20656.43627-.2776h-.96714v-.1776h1.29918v.161A7.23846,7.23846,0,0,0,38.70871,57.81014Z"/><path class="cls-4" d="M40.05423,59.05488l-.04749-.18262c.70885-.05945,1.03123-.28454,1.03123-.64244a.37515.37515,0,0,0-.41272-.39845,6.5968,6.5968,0,0,0-.88877.0973l-.03823-.19227a6.75648,6.75648,0,0,1,.939-.09691.556.556,0,0,1,.61426.59033C41.25148,58.69891,40.8152,59.00006,40.05423,59.05488Zm.88182-1.669a4.19655,4.19655,0,0,0-.89379-.22547l.04517-.18262a4.56659,4.56659,0,0,1,.91039.22779Z"/><path class="cls-4" d="M41.79277,58.9433a3.55469,3.55469,0,0,1-.12084-.91734,6.05418,6.05418,0,0,1,.06872-.9629l.19922.005a5.79655,5.79655,0,0,0-.06872.95055,3.63792,3.63792,0,0,0,.11621.88684Zm.83936.1139-.10927-.1471c.38416-.21814.41273-.41968.41273-.96483,0-.04981,0-.10695-.00232-.17065h-.74939V57.599H42.931c-.005-.19922-.00965-.41968-.01931-.59033h.19227c.00927.17065.01892.39111.02587.59033h.41736v.17567h-.41234c.00232.06139.00232.11853.00232.16563C43.13713,58.53058,43.0684,58.81783,42.63213,59.0572Zm.68028-1.63353a1.59454,1.59454,0,0,0-.14671-.35791l.11119-.05945a1.58631,1.58631,0,0,1,.15907.36292Zm.261-.15637A1.56326,1.56326,0,0,0,43.412,56.914l.1139-.05946a1.58,1.58,0,0,1,.16833.35791Z"/><path class="cls-4" d="M45.03513,58.0472a2.93728,2.93728,0,0,0,.14478.31041l-.19227.06409a3.27661,3.27661,0,0,1-.16331-.3745h-.99842v-.173h.93664c-.03783-.1139-.07335-.23474-.10424-.36061h-.72777v-.173h.68491c-.02857-.12085-.05212-.24671-.07335-.37451h.20617c.01892.12548.04285.25135.071.37451h.6521v.173h-.60925c.03089.12587.06873.24671.10888.36061h.62855v.173Zm-.071,1.00768c-.63318,0-.927-.15443-.927-.40076a.671.671,0,0,1,.07567-.29149l.18493.03552a.56641.56641,0,0,0-.06138.232c0,.166.25366.24207.7158.24207.05946,0,.15907-.00231.25829-.005v.18262C45.12509,59.05218,45.02818,59.05488,44.96409,59.05488Z"/><path class="cls-4" d="M48.24544,58.0472a2.93728,2.93728,0,0,0,.14478.31041l-.19227.06409a3.21094,3.21094,0,0,1-.16331-.3745h-.99842v-.173h.93664c-.03783-.1139-.07335-.23474-.10424-.36061h-.72777v-.173h.68491c-.02857-.12085-.05212-.24671-.07335-.37451h.20617c.01892.12548.04285.25135.071.37451h.6521v.173h-.60925c.03089.12587.06873.24671.10888.36061h.62855v.173Zm-.071,1.00768c-.63318,0-.927-.15443-.927-.40076a.671.671,0,0,1,.07567-.29149l.18493.03552a.56641.56641,0,0,0-.06138.232c0,.166.25366.24207.7158.24207.05946,0,.15907-.00231.25829-.005v.18262C48.3354,59.05218,48.23849,59.05488,48.1744,59.05488Z"/><path class="cls-4" d="M50.12877,58.95759a1.4691,1.4691,0,0,0-.493-.2942c-.005.28686-.095.38879-.36292.38879-.26293,0-.434-.13513-.434-.30076,0-.17335.17567-.29652.46717-.29652a.97033.97033,0,0,1,.1471.00966c-.00734-.24208-.02124-.6023-.02124-1.06213h.18224c0,.14208.0027.27721.0027.40037h.61851v.1637h-.61388c.00464.21583.00927.39613.012.53358a1.63947,1.63947,0,0,1,.595.32469Zm-.83472-.34864c-.19188,0-.29149.05444-.29149.14478,0,.08533.10694.1444.256.1444.1637,0,.19691-.05675.19691-.27721A1.1638,1.1638,0,0,0,49.29405,58.609Z"/><path class="cls-4" d="M50.855,59.05488l-.04749-.18262c.70886-.05945,1.03124-.28454,1.03124-.64244a.375.375,0,0,0-.41234-.39845,6.60153,6.60153,0,0,0-.88916.0973l-.03784-.19227a6.75073,6.75073,0,0,1,.939-.09691.55566.55566,0,0,1,.61387.59033C52.05225,58.69891,51.616,59.00006,50.855,59.05488Zm.88182-1.669a4.19043,4.19043,0,0,0-.89379-.22547l.04517-.18262a4.55981,4.55981,0,0,1,.91039.22779Z"/><path class="cls-4" d="M52.57965,58.31746h-.19691a2.41026,2.41026,0,0,1-.05907-.54052,3.91288,3.91288,0,0,1,.06409-.64747h.19884a3.72,3.72,0,0,0-.06371.64013,1.66087,1.66087,0,0,0,.02587.30848c.083-.10192.19691-.23474.30347-.36292l.09729.166C52.82636,58.02094,52.69586,58.175,52.57965,58.31746Zm.31543.74437-.12084-.16138a1.04962,1.04962,0,0,0,.70885-1.15672c0-.13976-.00965-.40539-.03089-.65905h.20617c.02356.24864.03321.5.03321.65674A1.2381,1.2381,0,0,1,52.89508,59.06183Z"/><path class="cls-4" d="M55.11006,58.95759a1.46535,1.46535,0,0,0-.493-.2942c-.00464.28686-.09459.38879-.36254.38879-.26331,0-.434-.13513-.434-.30076,0-.17335.17528-.29652.46717-.29652a.96185.96185,0,0,1,.14671.00966c-.00695-.24208-.02124-.6023-.02124-1.06213h.18262c0,.14208.00232.27721.00232.40037h.6189v.1637h-.61427c.005.21583.00965.39613.012.53358a1.63947,1.63947,0,0,1,.595.32469Zm-.83433-.34864c-.19189,0-.2915.05444-.2915.14478,0,.08533.10656.1444.256.1444.1637,0,.1969-.05675.1969-.27721A1.17271,1.17271,0,0,0,54.27573,58.609Z"/><path class="cls-4" d="M56.64282,59.06647a6.38829,6.38829,0,0,0-1.1-.915c-.07606-.05212-.10424-.09729-.10424-.1471,0-.04479.02123-.09.10193-.14941a7.87748,7.87748,0,0,0,1.02621-.89109l.16371.14439a9.44023,9.44023,0,0,1-.96947.82739c-.04285.03088-.05946.04749-.05946.0664,0,.02124.01429.03089.05213.05715a6.68325,6.68325,0,0,1,1.04552.85556Z"/><path class="cls-4" d="M20.18775,13.90051a9.25188,9.25188,0,0,0-.56021-1.65516l.622-.2413a11.391,11.391,0,0,1,.63241,1.64473Zm.52971,1.98912-.38068-.60153c1.78372-.38029,2.46208-1.69067,2.54933-3.35084h.74013A3.91114,3.91114,0,0,1,20.71746,15.88963Zm.76561-2.1895a9.746,9.746,0,0,0-.53975-1.65516l.617-.24169a13.49329,13.49329,0,0,1,.622,1.65014Z"/><path class="cls-4" d="M27.80486,14.53253l.15906,1.36211-.71426.0668-.154-1.36714-1.75785.144-.05135-.61157,1.737-.13358-.1027-.92-1.47524.11313-.05135-.612,1.45478-.11312-.11313-1.0073.70422-.0668.11815,1.02275,1.43392-.10772.04093.60114-1.403.11312.1081.92,1.5625-.12316.0359.59612Z"/><path class="cls-4" d="M31.16613,15.76608,30.57,15.33443A4.94964,4.94964,0,0,0,31.80857,12.04h.72469A6.07932,6.07932,0,0,1,31.16613,15.76608Zm3.44891,0a6.07128,6.07128,0,0,1-1.388-3.72612h.73009a4.64248,4.64248,0,0,0,1.26945,3.20722Zm.14362-3.28946a.61929.61929,0,0,1,0-1.23857.61929.61929,0,1,1,0,1.23857Zm.00541-.92506a.30853.30853,0,1,0,.30307.30848A.30617.30617,0,0,0,34.76407,11.55156Z"/><path class="cls-4" d="M37.85276,15.90005l-.28262-.60152a2.40732,2.40732,0,0,0,2.14819-2.70879H37.48791v1.26444h-.71967V11.9527h3.73153C40.49977,14.2808,39.7801,15.52477,37.85276,15.90005Z"/><path class="cls-4" d="M42.21091,14.16266V13.438h4.08132v.72468Z"/><path class="cls-4" d="M50.50636,14.209l-.34941-.54477a1.52222,1.52222,0,0,0,1.03819-1.1822H47.86978v-.61156h4.2095A2.62311,2.62311,0,0,1,50.50636,14.209Zm-1.89144,1.71152-.35983-.55519c.99224-.36987,1.16174-.8687,1.16174-1.85013V12.816h.71966v.70422A2.18353,2.18353,0,0,1,48.61492,15.92051Z"/><path class="cls-4" d="M54.03211,14.33215a8.39935,8.39935,0,0,0-.44709-1.34667l.55519-.21582a9.12637,9.12637,0,0,1,.51388,1.33625Zm.483,1.62427-.334-.53975A2.57356,2.57356,0,0,0,56.232,12.72333H56.9A3.21914,3.21914,0,0,1,54.5151,15.95642Zm.57064-1.78874a7.67944,7.67944,0,0,0-.44207-1.34127l.56021-.22122a8.97238,8.97238,0,0,1,.50384,1.33624Z"/><path class="cls-4" d="M59.38751,15.85874l-.33937-.622a2.74906,2.74906,0,0,0,2.44663-2.48253h-2.8524v-.64747h3.418a.61092.61092,0,1,1,.478.23126.54261.54261,0,0,1-.18532-.03088C62.08587,14.26034,61.24305,15.458,59.38751,15.85874Zm3.15588-4.43035a.30058.30058,0,1,0,.298.29806A.29935.29935,0,0,0,62.54339,11.42839Z"/><path class="cls-4" d="M16.06228,10.97188l.69049-1.00435a.07641.07641,0,0,1,.12593,0l.69049,1.00435a.07641.07641,0,0,1-.063.1197h-1.381A.07641.07641,0,0,1,16.06228,10.97188Z"/><rect class="cls-4" x="16.51183" y="10.80591" width="0.60782" height="2.22254" rx="0.07641"/><path class="cls-4" d="M11.94894,14.18786a1.51924,1.51924,0,0,1,.1634-.18307.576.576,0,0,0-.279.09333.81164.81164,0,0,0-.3215.58683.37085.37085,0,0,0,.0593.28586.2155.2155,0,0,0,.11749.06073A1.30357,1.30357,0,0,1,11.94894,14.18786ZM12.25,15.2993a.65661.65661,0,0,1-.01437-.22452,1.5605,1.5605,0,0,1,.51061-1.0993.43529.43529,0,0,0-.10831-.01464l-.016.00033c-.13143.00557-.29508.0125-.53859.32986a1.09045,1.09045,0,0,0-.21278.81764.25247.25247,0,0,0,.10578.1768A.32158.32158,0,0,0,12.25,15.2993Zm.80534-.76418a1.35938,1.35938,0,0,1,.38887-.53031.6995.6995,0,0,0-.22236-.03911.49989.49989,0,0,0-.20854.04362,1.24828,1.24828,0,0,0-.60913,1.08317.37414.37414,0,0,0,.14864.3713.36974.36974,0,0,0,.37307-.00308.99906.99906,0,0,1-.02438-.38331A1.95615,1.95615,0,0,1,13.05535,14.53512Zm2.88443-.17962c-.09439-.18069-.39464-.181-.60987-.05982-.14814.08343-.32195.27191-.4719.79271-.13068.45385-.356.4353-.60312.53532-.30846.12484-.69056.29019-.73429.68106l-.00162-.00011c-.00937.053-.01737.10557-.01748.10636a.08462.08462,0,0,1-.16769-.0228l.00013-.00257.00069-.00449L13.335,16.379l.00153-.00983.00014-.00089c.00466-.02961.01463-.09133.02458-.14187a1.7902,1.7902,0,0,1-1.151-.70979.06241.06241,0,0,0-.05306-.02473l-.03214.00127h-.00141a.06539.06539,0,0,0-.05446.10459q.073.09425.15331.18056v.4998a.94465.94465,0,0,0,.26876.49709c.092.11046.28558.19544.28558.24217v.18892a.13553.13553,0,0,0,.13553.13554h1.55857a.13631.13631,0,0,0,.13546-.13759c.00051-.28305.10636-.31388.21538-.3782.04539-.02678.09133-.05359.13736-.08418V16.742a1.46249,1.46249,0,0,0,.6125-1.07881l0-.00029c.051-.20063.082-.38427.12858-.5771C15.77007,14.79638,16.06061,14.58687,15.93978,14.3555Zm-4.45486-1.0448a3.2725,3.2725,0,0,1,.798-2.32042,1.9017,1.9017,0,0,1,1.37777-.56272c1.05086,0,2.11508,1.03942,2.11585,3.026,0,.06127-.00158.12089-.00413.17951a2.09927,2.09927,0,0,1-1.18945-.20746,2.50913,2.50913,0,0,0-.57441-1.74418.84378.84378,0,0,0-.59413-.28744h-.00017a.97954.97954,0,0,0-.84569.61184,3.15154,3.15154,0,0,0-.29293,1.41638,2.50045,2.50045,0,0,0,.02488.33583.08029.08029,0,0,0,.10312.06652l.00157-.00049a.08168.08168,0,0,0,.05735-.08956,2.313,2.313,0,0,1-.02322-.31236,2.98811,2.98811,0,0,1,.27451-1.34082.836.836,0,0,1,.70041-.52364h.00017a.68638.68638,0,0,1,.47709.23819,2.35246,2.35246,0,0,1,.52772,1.64616l-.00142.0376q-.00186.05449-.00561.10882l-.00072.01037q-.00394.05511-.00979.10992l-.00044.00439q-.00624.05782-.01459.1151l-.00084.00519c-.00457.0311-.00981.062-.0153.09273l-.01161.06024-.00593.029-.00526.02183a.76391.76391,0,0,0-.53547-.03558.98169.98169,0,0,0-.60367.60568,1.78826,1.78826,0,0,0-.13849.48768.683.683,0,0,0,.05648.40947.27645.27645,0,0,0,.22166.136c.18179.019.29089-.06765.33253-.265a2.80347,2.80347,0,0,0,.055-.54768.08367.08367,0,0,1,.08465-.08186l.00187,0a.08453.08453,0,0,1,.0829.0864c-.0016.07524-.00462.14281-.00888.20632l-.00383.05269-.00595.064c-.00431.04135-.00939.08123-.01539.12026a1.86673,1.86673,0,0,0,.50135-.7433,2.3069,2.3069,0,0,0,.3634.1602.08125.08125,0,0,0,.10019-.0425l.00069-.00151a.08078.08078,0,0,0-.04756-.11033,2.128,2.128,0,0,1-.36044-.16179,3.16152,3.16152,0,0,0,.14684-.77491,2.264,2.264,0,0,0,1.18505.199c-.00507.05733-.01176.11385-.01959.16978a.08227.08227,0,0,0,.06175.091l.00108.00028a.08055.08055,0,0,0,.10014-.06683,3.97117,3.97117,0,0,0,.0362-.54127c-.00077-2.094-1.14733-3.18967-2.27955-3.18967a2.06207,2.06207,0,0,0-1.49377.6109,3.38773,3.38773,0,0,0-.84569,2.43661,3.93158,3.93158,0,0,0,.08819.7884.08018.08018,0,0,0,.14168.0324l.00139-.00178a.08077.08077,0,0,0,.01585-.06609A3.80628,3.80628,0,0,1,11.48492,13.3107Z"/><path class="cls-4" d="M13.45479,57.68659a3.73684,3.73684,0,0,0-.50269-.15636,2.00757,2.00757,0,0,1,.1278.69959.70834.70834,0,0,1-.73009.77989.65213.65213,0,0,1-.69226-.70191,1.68978,1.68978,0,0,1,.27992-.89379h-.505v-.17065h.73935v.13513a1.58785,1.58785,0,0,0-.327.92237.4739.4739,0,0,0,.50268.52623c.33667,0,.54516-.23011.54516-.6189a1.92868,1.92868,0,0,0-.161-.761l.09691-.12548c.261.06409.49805.13745.68762.19922Zm-.36061-.37914a1.62083,1.62083,0,0,0-.1776-.37952l.11622-.05907a1.68483,1.68483,0,0,1,.18956.38647Zm.31775-.0332a1.4478,1.4478,0,0,0-.173-.3745l.11621-.06178a1.65112,1.65112,0,0,1,.18493.38416Z"/><path class="cls-4" d="M14.6671,58.95759a1.4691,1.4691,0,0,0-.493-.2942c-.005.28686-.095.38879-.36292.38879-.26293,0-.434-.13513-.434-.30076,0-.17335.17567-.29652.46717-.29652a.97033.97033,0,0,1,.1471.00966c-.00734-.24208-.02124-.6023-.02124-1.06213h.18224c0,.14208.0027.27721.0027.40037h.61851v.1637h-.61388c.00464.21583.00927.39613.012.53358a1.63947,1.63947,0,0,1,.595.32469Zm-.83472-.34864c-.19188,0-.29149.05444-.29149.14478,0,.08533.10694.1444.256.1444.1637,0,.1969-.05675.1969-.27721A1.16366,1.16366,0,0,0,13.83238,58.609Z"/><path class="cls-4" d="M15.34623,59.05488l-.04749-.18262c.70885-.05945,1.03123-.28454,1.03123-.64244a.37515.37515,0,0,0-.41272-.39845,6.5968,6.5968,0,0,0-.88877.0973l-.03823-.19227a6.75648,6.75648,0,0,1,.939-.09691.556.556,0,0,1,.61426.59033C16.54348,58.69891,16.1072,59.00006,15.34623,59.05488Zm.88182-1.669a4.19655,4.19655,0,0,0-.89379-.22547l.04517-.18262a4.56659,4.56659,0,0,1,.91039.22779Z"/><path class="cls-4" d="M17.45966,57.51594c.05444-.00232.10888-.00232.15637-.00232.35327,0,.48377.15637.48377.51929a1.6926,1.6926,0,0,1-.15676.79418.30642.30642,0,0,1-.32006.17528.92277.92277,0,0,1-.339-.07335l.02394-.17065a.87429.87429,0,0,0,.28918.06177.16722.16722,0,0,0,.166-.08069,1.43371,1.43371,0,0,0,.13513-.70422c0-.244-.08069-.34362-.3108-.34362-.04981,0-.10656,0-.16833.00232a4.623,4.623,0,0,1-.50732,1.31115l-.17529-.095a4.08263,4.08263,0,0,0,.47875-1.21154c-.14671.00232-.3081.00965-.47643.0166l-.012-.1776c.19459-.00733.36987-.01428.52662-.0193a4.5347,4.5347,0,0,0,.07336-.52624h.20849A5.27,5.27,0,0,1,17.45966,57.51594Zm1.09031.9768a1.6867,1.6867,0,0,0-.3247-1.00769l.15907-.0969a1.85445,1.85445,0,0,1,.37219,1.10459Z"/><path class="cls-4" d="M20.18968,59.00237a.38518.38518,0,0,1-.422-.35288c-.0166-.10231-.02857-.20154-.03784-.27026-.0166-.10463-.0498-.16138-.12818-.16138a.52384.52384,0,0,0-.31543.24169,1.26374,1.26374,0,0,0-.09922.1803c-.05946.12548-.10463.22045-.178.38647l-.17528-.071c.21543-.517.51658-1.25208.77256-1.88719l.19227.06409c-.18725.44786-.332.7799-.44091,1.05942a.45782.45782,0,0,1,.30346-.16331c.15405,0,.22277.10656.25134.26524.0166.09961.02819.18262.04479.28686.02625.1803.11158.23745.24208.23745.20385,0,.37682-.23011.44091-.68763l.17065.0641C20.73986,58.68269,20.531,59.00237,20.18968,59.00237Z"/><path class="cls-4" d="M19.499,28.5957l-.1582-.27343,11.5166-6.64942a.15335.15335,0,0,1,.1582,0L42.5293,28.32227l-.15821.27343L30.93652,21.99219Z"/><path class="cls-4" d="M34.30371,23.91309a.15558.15558,0,0,1-.0791-.02149l-6.79395-3.92383a.1579.1579,0,0,1-.05761-.21582.155.155,0,0,1,.21582-.05761l6.79394,3.92382a.15814.15814,0,0,1-.0791.29493Z"/><path class="cls-4" d="M32.06348,24.54688a.15556.15556,0,0,1-.0791-.02149l-8.59961-4.9668a.15812.15812,0,0,1-.05762-.21582.15578.15578,0,0,1,.21582-.05761L32.14258,24.252a.15814.15814,0,0,1-.0791.29493Z"/><path class="cls-4" d="M28.14844,23.57715a.15556.15556,0,0,1-.0791-.02149L25.7207,22.19922a.1579.1579,0,0,1-.05761-.21582.156.156,0,0,1,.21582-.05762l2.34863,1.35645a.15813.15813,0,0,1-.0791.29492Z"/><path class="cls-4" d="M26.07812,28.61816a.15557.15557,0,0,1-.0791-.02148L13.81738,21.56152a.1579.1579,0,0,1-.05761-.21582.15519.15519,0,0,1,.21582-.05761l12.18164,7.03515a.15814.15814,0,0,1-.07911.29492Z"/><path class="cls-4" d="M25.71387,26.5752a.15556.15556,0,0,1-.0791-.02149l-8.64356-4.99219a.15791.15791,0,0,1-.05762-.21582.15519.15519,0,0,1,.21582-.05761L25.793,26.28027a.15814.15814,0,0,1-.0791.29493Z"/><path class="cls-4" d="M30.93652,45.31836a.15314.15314,0,0,1-.0791-.02148.15792.15792,0,0,1-.0791-.13672V35.1084a.15791.15791,0,0,1,.0791-.13672L42.37109,28.3252a.15337.15337,0,0,1,.15821,0,.15792.15792,0,0,1,.0791.13671v9.4043a.15821.15821,0,0,1-.31641,0V28.73535L31.09473,35.19922v9.68652l8.58984-4.96a.158.158,0,0,1,.1582.27344l-8.82715,5.09766A.15309.15309,0,0,1,30.93652,45.31836Z"/><path class="cls-4" d="M30.85742,45.29688l-11.5166-6.64942a.15791.15791,0,0,1-.0791-.13672V28.459a.1579.1579,0,0,1,.0791-.13671.15335.15335,0,0,1,.1582,0l11.5166,6.64941-.1582.27344-11.2793-6.5127v9.6875l11.4375,6.60352Z"/><path class="cls-4" d="M22.2998,30.28027a.15557.15557,0,0,1-.0791-.02148L13.583,25.27148a.1579.1579,0,0,1-.05762-.21582.156.156,0,0,1,.21582-.05761l8.6377,4.9873a.15814.15814,0,0,1-.07911.29492Z"/><path class="cls-4" d="M22.2998,31.87012a.15558.15558,0,0,1-.0791-.02149l-5.22558-3.01758a.15789.15789,0,0,1-.05762-.21582.15579.15579,0,0,1,.21582-.05761l5.22559,3.01758a.15814.15814,0,0,1-.07911.29492Z"/><path class="cls-4" d="M22.085,40.208a.15558.15558,0,0,1-.0791-.02149l-6.87012-3.96679a.15792.15792,0,0,1-.05762-.21582.156.156,0,0,1,.21583-.05762l6.87011,3.9668a.15813.15813,0,0,1-.0791.29492Z"/><path class="cls-4" d="M21.12793,37.21582a.15567.15567,0,0,1-.0791-.02148L16.09277,34.332a.15813.15813,0,0,1-.05761-.21582.155.155,0,0,1,.21582-.05762L21.207,36.9209a.15813.15813,0,0,1-.0791.29492Z"/><path class="cls-4" d="M20.17285,37.84863a.15557.15557,0,0,1-.0791-.02148l-3.0459-1.75879a.15792.15792,0,0,1-.05762-.21582.15579.15579,0,0,1,.21582-.05762l3.0459,1.75879a.15813.15813,0,0,1-.0791.29492Z"/><path class="cls-4" d="M19.41992,31.92969a.15558.15558,0,0,1-.0791-.02149l-2.293-1.32422a.15791.15791,0,0,1-.05762-.21582.15578.15578,0,0,1,.21582-.05761l2.293,1.32422a.15813.15813,0,0,1-.0791.29492Z"/><path class="cls-4" d="M51.2207,46.86035,35.84863,37.97266a.95177.95177,0,0,1-.41406-.87793,2.6895,2.6895,0,0,1,1.22363-2.12012.95306.95306,0,0,1,.96778-.08008l15.37207,8.8877-.15821.27343L37.46777,35.168a.66078.66078,0,0,0-.65136.08008A2.38006,2.38006,0,0,0,35.75,37.09473a.65879.65879,0,0,0,.25684.60449l15.37207,8.88769Z"/><path class="cls-4" d="M51.59766,46.958a.74354.74354,0,0,1-.377-.09766.95177.95177,0,0,1-.41406-.87793,2.68553,2.68553,0,0,1,1.22363-2.12012.85187.85187,0,0,1,1.38184.79786,2.485,2.485,0,0,1-.35645,1.208h0A1.92466,1.92466,0,0,1,51.59766,46.958ZM52.61914,44a.88528.88528,0,0,0-.43066.13574,2.376,2.376,0,0,0-1.06641,1.84668.65989.65989,0,0,0,.25684.60449c.36328.21289,1.00781-.1914,1.40332-.877a2.17943,2.17943,0,0,0,.31445-1.0498.65881.65881,0,0,0-.25684-.6045A.436.436,0,0,0,52.61914,44Z"/><path class="cls-4" d="M53.73047,32.18066a.153.153,0,0,1-.0791-.02148l-.21289-.123a.15795.15795,0,1,1,.1582-.27343l.21289.123a.15813.15813,0,0,1-.0791.29492Z"/><path class="cls-4" d="M52.65332,31.55859a.153.153,0,0,1-.0791-.02148l-.43164-.25a.158.158,0,1,1,.1582-.27344l.43164.25a.15813.15813,0,0,1-.0791.29492Zm-1.2959-.749a.15567.15567,0,0,1-.0791-.02148l-.43262-.249a.15767.15767,0,0,1-.05761-.21582.156.156,0,0,1,.21582-.05762l.43261.249a.15813.15813,0,0,1-.0791.29492Zm-1.2959-.748a.153.153,0,0,1-.0791-.02148l-.43262-.25a.15813.15813,0,0,1-.05761-.21582.15645.15645,0,0,1,.21582-.05762l.43261.25a.15813.15813,0,0,1-.0791.29492Zm-1.2959-.749a.15314.15314,0,0,1-.0791-.02148l-.43261-.25a.15813.15813,0,0,1-.05762-.21582.15584.15584,0,0,1,.21582-.05762l.43262.25a.15814.15814,0,0,1-.07911.29492Zm-1.29687-.749a.15558.15558,0,0,1-.0791-.02149l-.43164-.249a.15768.15768,0,0,1-.05762-.21582.156.156,0,0,1,.21582-.05762l.43164.249a.15814.15814,0,0,1-.0791.29493Zm-1.2959-.748a.15311.15311,0,0,1-.0791-.02148l-.43164-.25a.1573.1573,0,0,1-.05762-.21583.15563.15563,0,0,1,.21582-.05761l.43164.25a.15813.15813,0,0,1-.0791.29492Zm-1.2959-.749a.15306.15306,0,0,1-.0791-.02149l-.43164-.25a.158.158,0,1,1,.1582-.27344l.43164.25a.15814.15814,0,0,1-.0791.29493Zm-1.2959-.749a.15557.15557,0,0,1-.0791-.02148l-.43164-.249a.15768.15768,0,0,1-.05761-.21583.1552.1552,0,0,1,.21582-.05761l.43164.249a.15814.15814,0,0,1-.07911.29492Z"/><path class="cls-4" d="M42.28516,25.56836a.1557.1557,0,0,1-.07911-.02148l-.21386-.12305a.15767.15767,0,0,1-.05762-.21582.156.156,0,0,1,.21582-.05762l.21387.123a.15813.15813,0,0,1-.0791.29492Z"/><path class="cls-4" d="M52.21,32.56738a.1973.1973,0,0,1-.04394-.38965l1.31347-.30078L53.083,30.58887a.19755.19755,0,1,1,.37793-.11524l.458,1.49121a.197.197,0,0,1-.14454.25l-1.5205.34766A.16845.16845,0,0,1,52.21,32.56738Z"/><path class="cls-5" d="M45.5371,44.12742c-.23361.98918-1.24924,1.84779-3.11527,2.89923,4.45686.29987,5.21491,1.4384,4.099,5.79463,3.44895-2.8856,5.68978-2.19234,7.88257,1.69934.29989-4.45686.55173-5.71531,4.90795-4.59943-2.88559-3.449-2.69271-4.80309,1.199-6.99589-4.45686-.29988-5.21491-1.43841-4.099-5.79464-3.44894,2.8856-4.80308,2.69273-6.99587-1.19895-.1602,2.38077-.55969,3.70608-1.56113,4.25412"/><path class="cls-2" d="M50.41406,52.40137a.9719.9719,0,0,1-.14062-.00977.98982.98982,0,0,1-.834-.8125c-.21777-1.2793-.4834-2.01758-.78906-2.19433-.30469-.17774-1.05078-.044-2.22461.38671a.98863.98863,0,0,1-1.13476-1.5166c.74609-1.00488,1.082-1.68554,1-2.02441-.084-.34375-.71778-.80664-1.88379-1.37695a.98848.98848,0,0,1,.26855-1.86231c1.2793-.21777,2.01758-.4834,2.19434-.78906.1748-.30078.04492-1.04883-.38672-2.22363A.98864.98864,0,0,1,48,38.84375c1.00488.74609,1.69141,1.08008,2.02441.999.34375-.084.80664-.71679,1.377-1.88281a.98816.98816,0,0,1,1.8623.26758c.21778,1.2793.4834,2.01855.78906,2.19531.30274.17676,1.04883.0459,2.22461-.38672a.98864.98864,0,0,1,1.13477,1.5166c-.74609,1.00489-1.082,1.68555-1,2.02442.084.34375.71777.80664,1.88379,1.37695a.98848.98848,0,0,1-.26856,1.86231c-1.27929.21777-2.01855.48339-2.19531.78906-.1748.30176-.04492,1.0498.38672,2.22363a.98864.98864,0,0,1-1.5166,1.13477c-1.00391-.74512-1.67188-1.08887-2.02442-.999-.34277.083-.80566.7168-1.376,1.88282A.98806.98806,0,0,1,50.41406,52.40137ZM48.2793,47.33594a2.6652,2.6652,0,0,1,1.3623.33789,2.80682,2.80682,0,0,1,1.124,1.30078,2.7957,2.7957,0,0,1,1.44532-.93066,2.76593,2.76593,0,0,1,1.57715.11718,2.76626,2.76626,0,0,1,.333-1.54687,2.79919,2.79919,0,0,1,1.30176-1.124,2.79346,2.79346,0,0,1-.93066-1.44531,2.75955,2.75955,0,0,1,.11719-1.57812,2.75505,2.75505,0,0,1-1.54786-.333,2.80686,2.80686,0,0,1-1.124-1.30078,2.80183,2.80183,0,0,1-1.44531.93066,2.76987,2.76987,0,0,1-1.57813-.11719,2.7562,2.7562,0,0,1-.333,1.54688,2.79591,2.79591,0,0,1-1.30078,1.124,2.78963,2.78963,0,0,1,.93067,1.44532,2.75965,2.75965,0,0,1-.11719,1.57812C48.15625,47.33789,48.21777,47.33594,48.2793,47.33594Z"/><path class="cls-4" d="M50.41406,51.57129l-.02246-.002a.1586.1586,0,0,1-.13379-.12989c-.27929-1.6416-.624-2.44531-1.1914-2.77343-.56348-.32715-1.41114-.23145-2.92676.32617A.15826.15826,0,0,1,45.958,48.749c.96289-1.29687,1.293-2.084,1.13965-2.71484-.15528-.63672-.82911-1.19434-2.3252-1.92676a.15815.15815,0,0,1,.043-.29785c1.6416-.2793,2.44531-.624,2.77344-1.19043.32617-.5625.23144-1.41016-.32617-2.92676a.15784.15784,0,0,1,.24218-.18164c1.29688.96192,2.08008,1.29688,2.7168,1.13867.63574-.15527,1.19336-.8291,1.92578-2.32519a.15323.15323,0,0,1,.16406-.08692.1586.1586,0,0,1,.13379.12989c.2793,1.64258.624,2.44629,1.19141,2.77441.56152.32617,1.41113.23145,2.92676-.32617a.15881.15881,0,0,1,.18164.05371.15675.15675,0,0,1,0,.18848c-.96289,1.29785-1.293,2.085-1.13965,2.71582.15527.63672.8291,1.19433,2.32519,1.92676a.15815.15815,0,0,1-.043.29785c-1.64258.27929-2.44629.624-2.77442,1.1914-.32519.56153-.23144,1.41016.32617,2.92578a.15785.15785,0,0,1-.24218.18165c-1.29786-.9629-2.07911-1.2959-2.71582-1.13868-.63575.1543-1.19336.82813-1.92579,2.32422A.15761.15761,0,0,1,50.41406,51.57129Zm-2.12793-3.40723a1.82163,1.82163,0,0,1,.93946.22852c.60449.35058.97168,1.07519,1.25879,2.5293.6875-1.31446,1.24316-1.90528,1.92285-2.07129.66015-.16016,1.41992.10156,2.56836.89746-.43946-1.3252-.47559-2.13086-.13575-2.71778.35059-.60449,1.0752-.97168,2.53028-1.25879-1.31446-.6875-1.90625-1.24316-2.07129-1.92285-.16016-.6582.10156-1.4209.89746-2.56933-1.32617.43945-2.13184.47656-2.71777.13574-.60547-.35059-.97266-1.0752-1.25977-2.53027-.68652,1.31445-1.24316,1.90625-1.92285,2.07226-.65528.15625-1.41992-.10058-2.56934-.89844.43946,1.32715.47559,2.13282.13574,2.71875-.35058.60547-1.07421.97168-2.52929,1.25879,1.31445.6875,1.90625,1.24317,2.07129,1.92285.16015.65821-.10157,1.4209-.89746,2.56934A5.87608,5.87608,0,0,1,48.28613,48.16406Z"/></g></g></svg>