<svg xmlns="http://www.w3.org/2000/svg" viewBox="0 0 75 75"><defs><style>.cls-2{fill:#fff}.cls-4{fill:#00afca}</style></defs><g id="レイヤー_2" data-name="レイヤー 2"><g id="レイヤー_2-2" data-name="レイヤー 2"><g id="ARC"><rect width="75" height="75" rx="8.362" fill="none"/><rect class="cls-2" x="5" y="5" width="65" height="65" rx="3.362"/><path d="M66.638 70.125H8.362a3.491 3.491 0 01-3.487-3.487V8.362a3.491 3.491 0 013.487-3.487h58.276a3.491 3.491 0 013.487 3.487v58.276a3.491 3.491 0 01-3.487 3.487zm-58.276-65a3.24 3.24 0 00-3.237 3.237v58.276a3.24 3.24 0 003.237 3.237h58.276a3.24 3.24 0 003.237-3.237V8.362a3.24 3.24 0 00-3.237-3.237z" fill="#666"/></g><path class="cls-4" d="M38.289 24.184l-4.181 1.961 2.916 3.582-4.618-.047 1.073 4.492-4.14-2.046-.982 4.513-2.843-3.64-2.843 3.64-.982-4.513-4.14 2.046 1.073-4.492-4.618.047 2.916-3.582-4.181-1.961 4.181-1.962-2.916-3.581 4.618.047-1.073-4.492 4.14 2.046.982-4.513 2.843 3.64 2.843-3.64.982 4.513 4.14-2.046-1.073 4.492 4.618-.047-2.916 3.581 4.181 1.962z"/><path class="cls-2" d="M40.125 13.9a2.43 2.43 0 00-1.382.431L27.342 22.17a2.444 2.444 0 000 4.029l11.401 7.838a2.443 2.443 0 003.83-2.014V16.345a2.45 2.45 0 00-2.448-2.446z"/><path class="cls-4" d="M29.128 56.38H25.64l5.002 3.439-5.023 3.452h3.398l5.068-3.484zm6.19 0h-3.399l4.957 3.407-5.067 3.484h3.488l5.022-3.452zm8.836-35.408a21.386 21.386 0 00-3.163-.233v-4.394a.863.863 0 00-1.352-.71l-11.401 7.838a.863.863 0 000 1.422l11.401 7.838a.863.863 0 001.352-.711V27.63a14.378 14.378 0 011.019 28.719 14.74 14.74 0 01-1.02.03h-2.881l5.002 3.44-5.023 3.452h2.902c.549 0 1.101-.013 1.66-.055a21.272 21.272 0 001.504-42.244zM64.53 65.443a.642.642 0 11.642.655.649.649 0 01-.642-.655m-.533 0a1.175 1.175 0 101.175-1.17 1.16 1.16 0 00-1.175 1.17M61.517 66.098a.655.655 0 11.642-.655.65.65 0 01-.642.655m0-1.825a1.17 1.17 0 101.175 1.17 1.16 1.16 0 00-1.175-1.17M59.512 64.915h.607v-.543h-.607v-.732h-.555v1.831a1.412 1.412 0 00.108.553 1.147 1.147 0 00.691.614l.275-.465a.922.922 0 01-.457-.393.833.833 0 01-.061-.322l-.001-.178zM62.984 63.643a.36.36 0 00.721 0 .36.36 0 10-.721 0M63.073 64.372h.543v2.186h-.543zM66.284 66.407h-.077v-.026h.183v.026h-.076v.206h-.03v-.206zM66.513 66.613l-.063-.189v.189h-.031v-.232h.043l.066.197.068-.197h.042v.232h-.031v-.189l-.063.189h-.031z"/></g></g></svg>