<svg xmlns="http://www.w3.org/2000/svg" viewBox="0 0 75 75"><defs><style>.cls-1{fill:none;}.cls-2{fill:#fff;}.cls-3{fill:#666;}.cls-4{fill:#00afca;}</style></defs><title>アセット 3102</title><g id="レイヤー_2" data-name="レイヤー 2"><g id="レイヤー_2-2" data-name="レイヤー 2"><g id="ARC"><rect class="cls-1" width="75" height="75" rx="8.3623"/><rect class="cls-2" x="4.99981" y="5.00003" width="65" height="65" rx="3.36207"/><path class="cls-3" d="M66.6377,70.125H8.3623A3.49132,3.49132,0,0,1,4.875,66.6377V8.3623A3.49132,3.49132,0,0,1,8.3623,4.875H66.6377A3.49132,3.49132,0,0,1,70.125,8.3623V66.6377A3.49132,3.49132,0,0,1,66.6377,70.125Zm-58.2754-65A3.24084,3.24084,0,0,0,5.125,8.3623V66.6377A3.24084,3.24084,0,0,0,8.3623,69.875H66.6377a3.24084,3.24084,0,0,0,3.2373-3.2373V8.3623A3.24084,3.24084,0,0,0,66.6377,5.125Z"/></g><polygon class="cls-4" points="38.289 24.184 34.108 26.145 37.024 29.727 32.406 29.68 33.479 34.172 29.339 32.126 28.357 36.639 25.514 32.999 22.671 36.639 21.689 32.126 17.549 34.172 18.622 29.68 14.004 29.727 16.92 26.145 12.739 24.184 16.92 22.222 14.004 18.641 18.622 18.688 17.549 14.196 21.689 16.242 22.671 11.729 25.514 15.369 28.357 11.729 29.339 16.242 33.479 14.196 32.406 18.688 37.024 18.641 34.108 22.222 38.289 24.184"/><path class="cls-2" d="M40.1251,13.89945a2.43024,2.43024,0,0,0-1.3821.43166L27.34181,22.1694a2.44438,2.44438,0,0,0,0,4.02848l11.40128,7.83838A2.44271,2.44271,0,0,0,42.57222,32.022V16.34528a2.44923,2.44923,0,0,0-2.44712-2.44583Z"/><path class="cls-4" d="M29.12805,56.37959H25.63984L30.642,59.81852l-5.02263,3.45289h3.398l5.0674-3.484Zm6.18928,0H31.91927l4.95689,3.40785-5.0676,3.484H35.297l5.02233-3.45289Zm8.83631-35.40753a21.38588,21.38588,0,0,0-3.16284-.23327V16.34527a.86291.86291,0,0,0-1.35179-.71108L28.23773,23.47256a.86294.86294,0,0,0,0,1.42218L39.639,32.7331a.86293.86293,0,0,0,1.35179-.7111V27.62981A14.37754,14.37754,0,0,1,42.01,56.34863c-.34294.02374-.68251.031-1.02043.031h-2.8809l5.00207,3.43893-5.02243,3.45289h2.90126c.5493.00007,1.1016-.01328,1.65969-.05579a21.27246,21.27246,0,0,0,1.5044-42.24356Z"/><path class="cls-4" d="M64.53009,65.44306a.64212.64212,0,1,1,.642.6545.649.649,0,0,1-.642-.6545m-.53293,0a1.175,1.175,0,1,0,1.17493-1.17025,1.16009,1.16009,0,0,0-1.17493,1.17025"/><path class="cls-4" d="M61.51687,66.09753a.65462.65462,0,1,1,.642-.65446.64907.64907,0,0,1-.642.65446m0-1.82472a1.17025,1.17025,0,1,0,1.17494,1.17026,1.16013,1.16013,0,0,0-1.17494-1.17026"/><path class="cls-4" d="M59.51166,64.91489h.6077v-.54326h-.6077v-.73209h-.55435V65.4713a1.41154,1.41154,0,0,0,.1076.55306,1.14743,1.14743,0,0,0,.6913.6136l.27456-.46489a.92177.92177,0,0,1-.45645-.39336.83267.83267,0,0,1-.06144-.3216c0-.05663-.00122-.17787-.00122-.17787Z"/><path class="cls-4" d="M62.98381,63.6426a.36073.36073,0,0,0,.72135,0,.36072.36072,0,1,0-.72135,0"/><rect class="cls-4" x="63.07285" y="64.37161" width="0.54326" height="2.1858"/><polygon class="cls-4" points="66.284 66.407 66.207 66.407 66.207 66.381 66.39 66.381 66.39 66.407 66.314 66.407 66.314 66.613 66.284 66.613 66.284 66.407"/><polygon class="cls-4" points="66.513 66.613 66.45 66.424 66.45 66.613 66.419 66.613 66.419 66.381 66.462 66.381 66.528 66.578 66.596 66.381 66.638 66.381 66.638 66.613 66.607 66.613 66.607 66.424 66.544 66.613 66.513 66.613"/></g></g></svg>