<svg xmlns="http://www.w3.org/2000/svg" viewBox="0 0 75 75"><defs><style>.cls-1{fill:none;}.cls-2{fill:#fff;}.cls-3{fill:#666;}.cls-4{fill:#00afca;}</style></defs><title>アセット 2802</title><g id="レイヤー_2" data-name="レイヤー 2"><g id="レイヤー_2-2" data-name="レイヤー 2"><g id="ARC"><path class="cls-1" d="M8.3623,0H66.6377A8.3623,8.3623,0,0,1,75,8.3623V66.6377A8.3623,8.3623,0,0,1,66.6377,75H8.36182A8.36182,8.36182,0,0,1,0,66.63818V8.3623A8.3623,8.3623,0,0,1,8.3623,0Z"/><rect class="cls-2" x="4.99981" y="5.00014" width="65" height="65" rx="3.36207"/><path class="cls-3" d="M66.6377,70.125H8.3623A3.4909,3.4909,0,0,1,4.875,66.63818V8.3623A3.49132,3.49132,0,0,1,8.3623,4.875H66.6377A3.49132,3.49132,0,0,1,70.125,8.3623V66.63818A3.4909,3.4909,0,0,1,66.6377,70.125Zm-58.2754-65A3.24084,3.24084,0,0,0,5.125,8.3623V66.63818A3.24074,3.24074,0,0,0,8.3623,69.875H66.6377a3.24074,3.24074,0,0,0,3.2373-3.23682V8.3623A3.24084,3.24084,0,0,0,66.6377,5.125Z"/></g><polygon class="cls-4" points="37.5 10.604 39.461 14.785 43.043 11.869 42.996 16.487 47.488 15.414 45.442 19.554 49.955 20.536 46.315 23.379 49.955 26.222 45.442 27.204 47.488 31.344 42.996 30.271 43.043 34.889 39.461 31.973 37.5 36.154 35.538 31.973 31.957 34.889 32.004 30.271 27.512 31.344 29.558 27.204 25.045 26.222 28.685 23.379 25.045 20.536 29.558 19.554 27.512 15.414 32.004 16.487 31.957 11.869 35.538 14.785 37.5 10.604"/><path class="cls-4" d="M24.63382,39.93533,36.85918,27.75744a.90775.90775,0,0,1,1.28126,0L50.36579,39.93533a.90776.90776,0,0,1-.64063,1.55089H25.27446A.90776.90776,0,0,1,24.63382,39.93533Z"/><path class="cls-2" d="M37.49976,27.49283a.90523.90523,0,0,1,.64062.26462L50.36572,39.93533a.90772.90772,0,0,1-.64062,1.55088H25.27441a.90777.90777,0,0,1-.64062-1.55088L36.85913,27.75745a.90525.90525,0,0,1,.64063-.26462m0-1.97678a2.86642,2.86642,0,0,0-2.03565.84079l-12.22534,12.178A2.88448,2.88448,0,0,0,25.27441,43.463H49.7251a2.88438,2.88438,0,0,0,2.0354-4.92834L39.5354,26.35693a2.86624,2.86624,0,0,0-2.03564-.84088Z"/><path class="cls-4" d="M32.25514,60.54616v3.85027l5.24448-5.22419,5.24486,5.22445V60.5464L37.49962,55.322Zm0-6.64072V57.7559l5.24448-5.22418,5.24486,5.22445V53.90568l-5.24486-5.22442Zm0-16.63667V51.11518L37.49962,45.891l5.24486,5.22445V37.26877Z"/><path class="cls-4" d="M64.53009,65.44317a.64212.64212,0,1,1,.642.65449.649.649,0,0,1-.642-.65449m-.53293,0a1.175,1.175,0,1,0,1.17493-1.17025,1.1601,1.1601,0,0,0-1.17493,1.17025"/><path class="cls-4" d="M61.51687,66.09764a.65462.65462,0,1,1,.642-.65446.64907.64907,0,0,1-.642.65446m0-1.82472a1.17025,1.17025,0,1,0,1.17494,1.17026,1.16013,1.16013,0,0,0-1.17494-1.17026"/><path class="cls-4" d="M59.51166,64.915h.6077v-.54326h-.6077v-.73209h-.55435v1.83176a1.41154,1.41154,0,0,0,.1076.55306,1.14743,1.14743,0,0,0,.6913.6136l.27456-.46489a.92174.92174,0,0,1-.45645-.39337.83259.83259,0,0,1-.06144-.32159c0-.05663-.00122-.17788-.00122-.17788Z"/><path class="cls-4" d="M62.98381,63.64271a.36073.36073,0,0,0,.72135,0,.36072.36072,0,1,0-.72135,0"/><rect class="cls-4" x="63.07285" y="64.37172" width="0.54326" height="2.1858"/><polygon class="cls-4" points="66.284 66.407 66.207 66.407 66.207 66.381 66.39 66.381 66.39 66.407 66.314 66.407 66.314 66.613 66.284 66.613 66.284 66.407"/><polygon class="cls-4" points="66.513 66.613 66.45 66.424 66.45 66.613 66.419 66.613 66.419 66.381 66.462 66.381 66.528 66.579 66.596 66.381 66.638 66.381 66.638 66.613 66.607 66.613 66.607 66.424 66.544 66.613 66.513 66.613"/></g></g></svg>