<svg xmlns="http://www.w3.org/2000/svg" viewBox="0 0 75 75"><defs><style>.cls-1{fill:none;}.cls-2{fill:#fff;}.cls-3{fill:#666;}.cls-4{fill:#00afca;}</style></defs><title>アセット 3002</title><g id="レイヤー_2" data-name="レイヤー 2"><g id="レイヤー_2-2" data-name="レイヤー 2"><g id="ARC"><rect class="cls-1" width="75" height="75" rx="8.3623"/><rect class="cls-2" x="4.99981" y="5.00039" width="65" height="65" rx="3.36207"/><path class="cls-3" d="M66.6377,70.125H8.3623A3.49049,3.49049,0,0,1,4.875,66.63867V8.3623A3.49132,3.49132,0,0,1,8.3623,4.875H66.6377A3.49132,3.49132,0,0,1,70.125,8.3623V66.63867A3.49049,3.49049,0,0,1,66.6377,70.125Zm-58.2754-65A3.24084,3.24084,0,0,0,5.125,8.3623V66.63867A3.24064,3.24064,0,0,0,8.3623,69.875H66.6377a3.24064,3.24064,0,0,0,3.2373-3.23633V8.3623A3.24084,3.24084,0,0,0,66.6377,5.125Z"/></g><path class="cls-4" d="M52.73734,17.86621l4.83348-7.03052a.53487.53487,0,0,1,.88151,0l4.83348,7.03052a.53487.53487,0,0,1-.44075.83789h-9.667A.53487.53487,0,0,1,52.73734,17.86621Z"/><rect class="cls-4" x="55.8842" y="16.70437" width="4.25475" height="15.55792" rx="0.53487"/><path class="cls-4" d="M23.94372,40.37826a10.63272,10.63272,0,0,1,1.14379-1.28152,4.03214,4.03214,0,0,0-1.95264.65335,5.68133,5.68133,0,0,0-2.25051,4.10779,2.59614,2.59614,0,0,0,.415,2.0011,1.50925,1.50925,0,0,0,.82247.4251A9.12525,9.12525,0,0,1,23.94372,40.37826Zm2.10746,7.78011a4.59729,4.59729,0,0,1-.10057-1.57162c.367-3.49352,1.61906-6.16,3.57431-7.69515a3.047,3.047,0,0,0-.75818-.10248c-.03707,0-.07452.00077-.112.00232-.92.039-2.06557.08745-3.77015,2.309A7.63336,7.63336,0,0,0,23.39509,46.824a1.7672,1.7672,0,0,0,.74052,1.23761A2.251,2.251,0,0,0,26.05118,48.15837Zm5.63747-5.3493a9.51621,9.51621,0,0,1,2.72212-3.71216,4.89588,4.89588,0,0,0-1.55652-.27381,3.49844,3.49844,0,0,0-1.4598.30539c-2.34857,1.06812-3.86281,3.76089-4.264,7.5822A2.619,2.619,0,0,0,28.171,49.30983a2.588,2.588,0,0,0,2.6115-.02157,6.99312,6.99312,0,0,1-.17065-2.68317A13.69054,13.69054,0,0,1,31.68865,42.80907Zm20.19116-1.25729c-.66069-1.2649-2.76246-1.26719-4.26907-.41879-1.037.584-2.25369,1.90339-3.30337,5.549-.91474,3.177-2.49191,3.04712-4.22188,3.74727-2.1592.87389-4.83392,2.03136-5.14009,4.76749l-.01129-.00079c-.06563.37079-.12162.739-.12239.74454a.59236.59236,0,0,1-1.1738-.15957c.00067-.00606-.0001-.01195.00086-.018l.00483-.03142.00232-.01493.01071-.06882.001-.00618c.03262-.20728.10241-.63936.17209-.99312a12.53161,12.53161,0,0,1-8.05714-4.96855.43689.43689,0,0,0-.37143-.17311c-.07319.00558-.148.00884-.225.00884l-.00985,0a.45774.45774,0,0,0-.38122.73208q.51129.65976,1.0732,1.264v3.49866c0,1.27884,1.2377,2.70638,1.88131,3.47964.6438.77324,1.99907,1.36806,1.99907,1.69519v1.32245a.94876.94876,0,0,0,.94876.94877h10.91a.95414.95414,0,0,0,.94825-.96309c.00355-1.98138.74455-2.19723,1.50765-2.64743.31775-.1875.63936-.37514.96156-.58929v.00084c1.37621-.86785,3.26862-2.53269,4.28751-7.55169l.00057-.00324c.35636-1.40328.57383-2.68872.89978-4.03855C50.69182,44.63792,52.72564,43.17134,51.87981,41.55178ZM20.69556,34.2381c-.027-6.73106,2.00882-12.65153,5.58593-16.24312A13.31207,13.31207,0,0,1,35.926,14.05592c7.35614,0,14.80571,7.276,14.81112,21.18235.00019.42884-.0111.84623-.029,1.25654A14.69462,14.69462,0,0,1,42.382,35.04262c.07895-4.91623-1.45478-9.5845-4.02092-12.20937a5.90622,5.90622,0,0,0-4.15894-2.0121h-.00116c-2.38139,0-4.48364,1.521-5.91989,4.28288a22.06094,22.06094,0,0,0-2.05052,9.91475,17.49849,17.49849,0,0,0,.17411,2.35087.562.562,0,0,0,.72187.46563l.011-.00341a.57178.57178,0,0,0,.40147-.627,16.17966,16.17966,0,0,1-.1625-2.18653A20.91585,20.91585,0,0,1,29.298,25.63258c.86947-1.67234,2.4258-3.66552,4.90294-3.66552h.00116a4.80464,4.80464,0,0,1,3.33966,1.66732c2.38294,2.43738,3.79834,6.85268,3.69409,11.52319-.00193.08839-.007.17534-.00994.26324q-.013.38143-.03928.76178l-.005.07254q-.02766.38584-.06853.76945l-.00309.03076q-.04373.40478-.10212.80572l-.00589.03632c-.032.2177-.06872.43377-.10714.64911q-.03851.21258-.08127.42165-.02027.10182-.04151.20314c-.0111.05207-.02538.10108-.03677.15284a5.34763,5.34763,0,0,0-3.74834-.2491c-1.969.68839-3.07481,1.79782-4.22573,4.23983a12.51619,12.51619,0,0,0-.96947,3.41379,4.781,4.781,0,0,0,.39535,2.86632,1.93542,1.93542,0,0,0,1.55169.95229c1.27255.133,2.03623-.47354,2.32773-1.855a19.6279,19.6279,0,0,0,.38508-3.83376.58559.58559,0,0,1,.59249-.573l.01313.00019a.59168.59168,0,0,1,.5803.6048c-.01119.52667-.03233.99966-.06217,1.44428-.0083.12468-.01689.24871-.02683.36881-.01265.15219-.02626.30182-.0416.44788-.03022.28945-.06574.56864-.10772.84182a13.06774,13.06774,0,0,0,3.50944-5.20317,16.14518,16.14518,0,0,0,2.5438,1.12141.56867.56867,0,0,0,.70137-.29746l.00485-.01057a.56548.56548,0,0,0-.33291-.77231,14.89707,14.89707,0,0,1-2.5231-1.13256,22.13271,22.13271,0,0,0,1.02786-5.42444,15.84869,15.84869,0,0,0,8.2954,1.393c-.03547.40131-.08234.79692-.1371,1.18845a.57582.57582,0,0,0,.43226.637l.01133.003a.56305.56305,0,0,0,.69716-.46878,27.79236,27.79236,0,0,0,.25345-3.78894C51.87759,20.57946,43.85159,12.91,35.926,12.91a14.43474,14.43474,0,0,0-10.45643,4.27631c-3.84621,3.86185-5.94885,9.91938-5.91989,17.05642a27.5167,27.5167,0,0,0,.61735,5.51888.56122.56122,0,0,0,.99176.22682l.00969-.01251a.56518.56518,0,0,0,.111-.46261A26.64521,26.64521,0,0,1,20.69556,34.2381Z"/><path class="cls-4" d="M64.53009,65.44342a.64212.64212,0,1,1,.642.6545.649.649,0,0,1-.642-.6545m-.53293,0a1.175,1.175,0,1,0,1.17493-1.17025,1.1601,1.1601,0,0,0-1.17493,1.17025"/><path class="cls-4" d="M61.51687,66.09789a.65461.65461,0,1,1,.642-.65446.64907.64907,0,0,1-.642.65446m0-1.82471a1.17024,1.17024,0,1,0,1.17494,1.17025,1.16013,1.16013,0,0,0-1.17494-1.17025"/><path class="cls-4" d="M59.51166,64.91525h.6077V64.372h-.6077V63.6399h-.55435v1.83176a1.41159,1.41159,0,0,0,.1076.55307,1.14749,1.14749,0,0,0,.6913.6136l.27456-.4649a.92177.92177,0,0,1-.45645-.39336.83264.83264,0,0,1-.06144-.3216c0-.05662-.00122-.17787-.00122-.17787Z"/><path class="cls-4" d="M62.98381,63.643a.36073.36073,0,0,0,.72135,0,.36072.36072,0,1,0-.72135,0"/><rect class="cls-4" x="63.07285" y="64.37197" width="0.54326" height="2.1858"/><polygon class="cls-4" points="66.284 66.407 66.207 66.407 66.207 66.381 66.39 66.381 66.39 66.407 66.314 66.407 66.314 66.614 66.284 66.614 66.284 66.407"/><polygon class="cls-4" points="66.513 66.614 66.45 66.425 66.45 66.614 66.419 66.614 66.419 66.381 66.462 66.381 66.528 66.579 66.596 66.381 66.638 66.381 66.638 66.614 66.607 66.614 66.607 66.425 66.544 66.614 66.513 66.614"/></g></g></svg>