<svg xmlns="http://www.w3.org/2000/svg" viewBox="0 0 75 75"><defs><style>.cls-2{fill:#f0f8fa}.cls-4{fill:#00afca}</style></defs><g id="レイヤー_2" data-name="レイヤー 2"><g id="レイヤー_2-2" data-name="レイヤー 2"><rect width="75" height="75" rx="8.362" transform="rotate(90 37.5 37.5)" fill="none"/><path class="cls-2" d="M8.362 5h58.276A3.362 3.362 0 0170 8.362v58.276A3.362 3.362 0 0166.638 70H8.362A3.362 3.362 0 015 66.638V8.362A3.362 3.362 0 018.362 5z" transform="rotate(90 37.5 37.5)"/><path d="M66.638 70.125H8.362a3.491 3.491 0 01-3.487-3.487V8.362a3.491 3.491 0 013.487-3.487h58.276a3.491 3.491 0 013.487 3.487v58.276a3.491 3.491 0 01-3.487 3.487zm-58.276-65a3.24 3.24 0 00-3.237 3.237v58.276a3.24 3.24 0 003.237 3.237h58.276a3.24 3.24 0 003.237-3.237V8.362a3.24 3.24 0 00-3.237-3.237z" fill="#666"/><path class="cls-4" d="M17.604 11.736l-.597.281.416.511-.659-.007.153.642-.591-.292-.141.645-.406-.52-.406.52-.14-.645-.592.292.154-.642-.66.007.416-.511-.597-.281.597-.28-.416-.512.66.007-.154-.642.592.293.14-.645.406.52.406-.52.141.645.591-.293-.153.642.659-.007-.416.512.597.28z"/><path class="cls-2" d="M17.866 10.267a.347.347 0 00-.197.062l-1.629 1.12a.35.35 0 000 .575l1.629 1.12a.349.349 0 00.547-.288v-2.24a.35.35 0 00-.35-.349z"/><path class="cls-4" d="M16.295 16.336h-.498l.715.491-.718.493h.486l.724-.497zm.885 0h-.486l.708.487-.724.497h.499l.717-.493zm1.262-5.058a3.055 3.055 0 00-.452-.034v-.627a.123.123 0 00-.193-.102l-1.629 1.12a.123.123 0 000 .203l1.629 1.12a.123.123 0 00.193-.102v-.627a2.054 2.054 0 01.146 4.102 2.1 2.1 0 01-.146.005h-.412l.715.491-.718.493h.415a3.1 3.1 0 00.237-.008 3.039 3.039 0 00.215-6.035zM24.601 14.405v-1.157h-.863v-.627h.863v-1.13h.715v1.13h1.27v-1.11h.714v1.11h.94v.627h-.94v.401c0 1.27-.55 1.964-2.046 2.267l-.267-.602c1.187-.226 1.598-.673 1.598-1.66v-.406h-1.27v1.157zM31.39 15.88v-2.17a8.392 8.392 0 01-1.685.813l-.334-.606a8.386 8.386 0 003.577-2.421l.54.467a7.382 7.382 0 01-1.342 1.24v2.677zM35.549 15.906v-4.4h.709v1.485a12.643 12.643 0 012.339 1.1l-.391.627a9.588 9.588 0 00-1.948-.986v2.174zm2.158-3.285a3.221 3.221 0 00-.385-.869l.39-.195a3.396 3.396 0 01.432.88zm.735-.298a2.921 2.921 0 00-.4-.827l.39-.211a3.479 3.479 0 01.437.858zM42.94 14.21l-.35-.545a1.523 1.523 0 001.038-1.182h-3.326v-.612h4.21a2.624 2.624 0 01-1.573 2.339zm-1.892 1.711l-.36-.555c.992-.37 1.162-.869 1.162-1.85v-.7h.72v.705a2.184 2.184 0 01-1.522 2.4zM46.804 13.588a5.348 5.348 0 01-.601.627l-.494-.458a5.773 5.773 0 001.548-2.308h.73a7.472 7.472 0 01-.19.499h1.886c-.268 1.963-1.09 3.397-2.74 3.994l-.344-.55a3.22 3.22 0 001.444-1.003 6.098 6.098 0 00-1.239-.801zm1.609.246a4.215 4.215 0 00.442-1.28h-1.352c-.103.18-.21.36-.329.53a9.189 9.189 0 011.239.75zM51.502 14.333a8.436 8.436 0 00-.447-1.347l.555-.216a9.123 9.123 0 01.514 1.336zm.483 1.624l-.334-.54a2.574 2.574 0 002.05-2.693h.669a3.22 3.22 0 01-2.385 3.233zm.57-1.789a7.642 7.642 0 00-.441-1.341l.56-.221a9.015 9.015 0 01.504 1.336zM57.828 12.118h1.949c-.37 1.983-1.188 3.253-2.725 3.808l-.344-.56a3.307 3.307 0 002.159-2.627h-1.362a6.382 6.382 0 01-1.203 1.496l-.514-.452a5.382 5.382 0 001.506-2.215h.745a7.14 7.14 0 01-.21.55zM11.515 59.025c-.41 0-.652-.188-.652-.671v-1.302h.206v1.285c0 .372.157.49.456.49a.775.775 0 00.699-.538l.164.112a.95.95 0 01-.873.624zm.291-1.295a1.59 1.59 0 00-.175-.396l.119-.062a1.5 1.5 0 01.19.406zm.309-.114a1.468 1.468 0 00-.176-.391l.119-.062a1.626 1.626 0 01.19.399zM13.688 58.994c-.612 0-.915-.13-.915-.453 0-.225.22-.443.564-.64a2.23 2.23 0 01-.163-.894h.208a2.267 2.267 0 00.126.801 5.9 5.9 0 01.732-.296l.074.187c-.778.25-1.335.553-1.335.827 0 .204.197.28.709.28.216 0 .481-.012.678-.03v.191a8.437 8.437 0 01-.678.027zm.38-1.589a1.43 1.43 0 00-.171-.386l.116-.06a1.595 1.595 0 01.182.394zm.303-.078a1.372 1.372 0 00-.168-.377l.113-.06a1.492 1.492 0 01.183.385zM15.09 59.055l-.047-.182c.709-.06 1.03-.285 1.03-.643a.375.375 0 00-.411-.398 6.601 6.601 0 00-.89.097l-.037-.192a6.75 6.75 0 01.939-.097.556.556 0 01.613.59c0 .47-.436.77-1.197.825zm.882-1.669a4.19 4.19 0 00-.894-.225l.045-.183a4.56 4.56 0 01.91.228zM21.27 59.062l-.053-.17c.475-.055.714-.23.714-.517a.418.418 0 00-.313-.406 1.334 1.334 0 01-1.053.984.334.334 0 01-.355-.358.89.89 0 01.59-.723c.005-.118.014-.244.03-.374h-.514v-.171h.538c.02-.12.04-.242.067-.358h.201a5.48 5.48 0 00-.068.358h.976v.17h-1c-.012.108-.024.21-.028.304a1.44 1.44 0 01.353-.045c.042 0 .082.003.12.005.008-.043.013-.085.017-.13h.193a2.06 2.06 0 01-.022.165.586.586 0 01.467.576c0 .39-.31.626-.86.69zm-.875-.47a.16.16 0 00.178.184.631.631 0 00.32-.112 1.651 1.651 0 01-.098-.602.678.678 0 00-.4.53zm.934-.668a1.11 1.11 0 00-.335.053v.026a1.78 1.78 0 00.062.535 1.373 1.373 0 00.38-.609c-.034-.002-.07-.005-.107-.005zM22.97 58.944c-.313 0-.557-.557-.557-1.285 0-.135.003-.25.01-.365h.206a3.64 3.64 0 00-.014.358c0 .647.199 1.07.339 1.07.064 0 .182-.186.265-.45l.166.1c-.111.316-.263.572-.415.572zm1.09-.413a1.625 1.625 0 00-.445-1.176l.145-.116a1.778 1.778 0 01.51 1.292zM26.02 57.45a.47.47 0 00-.208.088 1.01 1.01 0 00-.51.782c0 .313.277.484.835.489l-.033.19c-.671-.01-1.003-.271-1.003-.67a1.125 1.125 0 01.526-.876l-1.136.047-.01-.187 1.883-.076.007.187c-.132.005-.27.014-.35.026zM31.35 58.937a2.041 2.041 0 00-.604-.356c-.007.334-.111.465-.424.465-.315 0-.524-.154-.524-.349 0-.204.211-.353.562-.353a1.7 1.7 0 01.187.012c-.007-.28-.026-.759-.026-1.361h.2c0 .192.001.372.004.538h.73v.178h-.728c.007.287.014.522.017.688a2.049 2.049 0 01.723.39zm-1.007-.422c-.23 0-.363.073-.363.184 0 .107.129.174.325.174.192 0 .242-.067.244-.342a1.218 1.218 0 00-.206-.016zM32.8 58.96c-.614 0-.89-.173-.89-.445a.772.772 0 01.298-.52l.138.11a.605.605 0 00-.237.384c0 .168.168.287.699.287a5.307 5.307 0 00.683-.046l.019.188a5.938 5.938 0 01-.71.042zm-.059-1.15l-.13-.118c.152-.102.318-.206.436-.277h-.967v-.178h1.3v.161a7.238 7.238 0 00-.639.413zM37.41 58.931a1.99 1.99 0 00-.585-.327c-.002.3-.097.448-.408.448-.308 0-.524-.142-.524-.343s.206-.337.562-.337a1.26 1.26 0 01.166.01 53.182 53.182 0 01-.007-.325h-.69v-.178h.687a14.618 14.618 0 01-.004-.33h-.73v-.175h.727c-.002-.126-.002-.256-.002-.391h.202c0 .135 0 .265.002.391h.709v.175h-.707c0 .116.003.226.005.33h.652v.178h-.65c.005.14.008.263.008.365a2.067 2.067 0 01.699.358zm-.978-.39c-.226 0-.358.066-.358.17 0 .107.135.17.324.17.183 0 .225-.06.225-.295v-.031a1.284 1.284 0 00-.191-.015zM38.384 59.05v-.742a9.322 9.322 0 00-.344.42l-.149-.135a8.76 8.76 0 01.493-.576v-.3h-.455v-.175h.455v-.545h.2v.825a1.078 1.078 0 01.739-.341.631.631 0 01.623.694c0 .45-.33.726-.988.8l-.055-.18c.586-.065.84-.273.84-.627a.449.449 0 00-.434-.493c-.204 0-.415.102-.726.417v.958zM52.738 57.39h.51v.174h-.538a5.577 5.577 0 01-.455 1.462l-.195-.083a4.795 4.795 0 00.441-1.38h-.421v-.172h.45c.02-.136.033-.27.04-.397h.216a4.8 4.8 0 01-.048.397zm.861 1.587c-.498 0-.756-.117-.756-.325a.594.594 0 01.199-.38l.147.081c-.109.123-.147.202-.147.266 0 .118.175.18.555.18a3.372 3.372 0 00.344-.017v.18c-.119.01-.226.015-.342.015zm-.58-1.008l-.024-.175a8.64 8.64 0 01.922-.043v.178a7.839 7.839 0 00-.898.04zM54.786 58.943c-.313 0-.557-.557-.557-1.284 0-.136.002-.25.009-.366h.206a3.638 3.638 0 00-.014.358c0 .648.2 1.07.34 1.07.063 0 .182-.185.265-.449l.166.1c-.112.315-.264.571-.415.571zm1.09-.412a1.627 1.627 0 00-.446-1.176l.145-.116a1.779 1.779 0 01.51 1.292zM57.45 59.062l-.053-.17c.474-.055.714-.23.714-.518a.418.418 0 00-.313-.405 1.334 1.334 0 01-1.053.984.334.334 0 01-.355-.358.89.89 0 01.59-.723c.004-.119.014-.244.03-.375h-.514v-.17h.539c.018-.121.04-.242.066-.358h.202a5.23 5.23 0 00-.07.358h.978v.17H57.21c-.012.107-.024.209-.029.304a1.442 1.442 0 01.354-.045c.042 0 .083.002.12.004.008-.042.012-.085.017-.13h.192a2.079 2.079 0 01-.02.166.586.586 0 01.466.576c0 .389-.31.626-.86.69zm-.876-.47a.16.16 0 00.178.183.632.632 0 00.32-.111 1.651 1.651 0 01-.097-.602.679.679 0 00-.4.53zm.935-.668a1.108 1.108 0 00-.335.052v.026a1.768 1.768 0 00.062.536 1.376 1.376 0 00.38-.61c-.034-.002-.07-.004-.107-.004zM10.717 63.311v.167h-.293v-2.783h.886a3.56 3.56 0 00.174-.498l.341.06a6.51 6.51 0 01-.198.438h1.206v2.783h-.303v-.167zm1.813-1.843v-.499h-1.813v.499zm0 .783v-.517h-1.813v.517zm0 .79v-.527h-1.813v.527zM14.096 63.037v-.277h-.701v-.21h.7v-.224h-.676v-1.118h.677v-.21h-.799v-.214h.799v-.203a6.38 6.38 0 01-.66.04l-.09-.214a5.697 5.697 0 001.576-.203l.14.196a4.829 4.829 0 01-.69.146v.238h.756v.214h-.757v.21h.69v1.118h-.69v.223h.687v.21h-.687v.257c.244-.018.484-.036.673-.053l.004.163a3.662 3.662 0 00.463-1.836h-.341v-.264h.352q.01-.4.01-.822h.272c0 .278-.003.555-.014.822h.645a8.211 8.211 0 01-.199 2.378.31.31 0 01-.22.074c-.076 0-.243 0-.341-.007l-.031-.27a2.75 2.75 0 00.292.007.093.093 0 00.08-.028 7.99 7.99 0 00.137-1.89h-.373a3.495 3.495 0 01-.652 2.192l-.262-.128a2.249 2.249 0 00.146-.178c-.498.053-1.258.128-1.687.164l-.042-.25c.203-.01.502-.031.813-.053zm-.415-1.363h.415v-.267h-.415zm0 .452h.415v-.278h-.415zm1.108-.452v-.267h-.418v.267zm0 .452v-.278h-.418v.278zM18.918 60.966a.684.684 0 00-.307.131 1.565 1.565 0 00-.75 1.203c0 .485.419.734 1.228.741l-.05.284c-.993-.014-1.474-.412-1.474-1.01a1.745 1.745 0 01.775-1.346l-1.67.072-.015-.282 2.769-.114.01.282a5.358 5.358 0 00-.516.039zm.122 1.007a2.214 2.214 0 00-.251-.584l.167-.085a2.315 2.315 0 01.272.59zm.425-.178a2.128 2.128 0 00-.25-.566l.17-.089a2.588 2.588 0 01.269.577zM19.999 62.767l-.192-.207a4.726 4.726 0 00.642-1.33h-.572v-.264h.586v-.762h.282v.762h.468v.263h-.468v.107c.175.256.37.562.478.75l-.178.232a8.86 8.86 0 00-.3-.633v1.793h-.282v-1.683a5.415 5.415 0 01-.464.972zm1.625.494v.193h-.28v-3.1h1.542v3.1h-.29v-.193zm.973-2.64h-.973v.605h.973zm0 1.48v-.619h-.973v.62zm0 .894v-.637h-.973v.637zM24.8 62.055v-.516h-1.167v-.281H24.8v-.517a10.64 10.64 0 01-1.092.09l-.111-.278a9.773 9.773 0 002.44-.345l.16.263a8.664 8.664 0 01-1.097.231v.556h1.168v.28H25.1v.517h1.45v.281H25.1v.726c0 .235-.067.37-.293.403a4.513 4.513 0 01-.593.006l-.066-.31a4.235 4.235 0 00.512.008c.112-.007.14-.064.14-.16v-.673h-1.458v-.281zM28.368 63.297l-.112-.256a1.145 1.145 0 001.067-1.185.949.949 0 00-.948-.983c-.143 1.267-.426 2.171-.914 2.171-.366 0-.655-.484-.655-.996a1.47 1.47 0 011.488-1.442 1.21 1.21 0 011.329 1.242 1.428 1.428 0 01-1.255 1.449zm-1.277-1.256c0 .363.175.68.363.68.237 0 .495-.666.614-1.834a1.165 1.165 0 00-.977 1.154zM31.05 61.977l-.14.28a6.931 6.931 0 00-.223-.523v1.744h-.28v-1.54a5.079 5.079 0 01-.341.882l-.153-.295a4.658 4.658 0 00.49-1.306h-.435v-.26h.44v-.755h.279v.755h.327v.26h-.327v.153c.135.21.278.452.362.605zm.847.968a2.69 2.69 0 01-.726.53l-.279-.142a2.355 2.355 0 00.729-.502zm.034-1.37v-.239h-.878v-.246h.505v-.327h-.456v-.242h.456v-.32h.265v.32h.499v-.32h.269v.32h.505v.242h-.505v.327h.582v.246h-.966v.238h.84v1.221H31.13v-1.22zm-.533.512h.533v-.288h-.533zm0 .48h.533v-.295h-.533zm.924-1.477v-.327h-.499v.327zm.446.997v-.288h-.561v.288zm0 .48v-.295h-.561v.295zm-.271.25c.278.188.512.363.718.526l-.28.132a9.8 9.8 0 00-.68-.527zM33.78 63.261a6.197 6.197 0 01-.116-1.288 9.25 9.25 0 01.112-1.395h.293a10.572 10.572 0 00-.112 1.388 6.466 6.466 0 00.112 1.25zm1.785-.1c-.834 0-1.147-.17-1.147-.505a1.056 1.056 0 01.29-.647l.24.117a.828.828 0 00-.245.491c0 .185.237.274.862.274.167 0 .348-.003.54-.021v.27c-.188.018-.37.022-.54.022zm-1.074-2.014v-.267h1.593v.267zM37.075 63.233v.182h-.276v-2.987h2.79v2.987h-.29v-.182zm2.224-.274v-2.257h-2.224v2.257zm-.453-1.797v1.327h-1.328v-1.327zm-1.067 1.07h.798v-.814h-.798zM40.586 62.304h-.29a3.679 3.679 0 01-.087-.812 5.998 5.998 0 01.095-.97h.293a5.646 5.646 0 00-.095.96 2.51 2.51 0 00.039.463c.122-.153.289-.353.446-.545l.143.25c-.181.21-.373.44-.544.654zm.464 1.118l-.178-.242a1.58 1.58 0 001.043-1.737c0-.21-.015-.609-.046-.99h.304c.034.374.048.751.048.986a1.864 1.864 0 01-1.171 1.983zM44.216 63.269c-.903 0-1.311-.26-1.311-.67a1.165 1.165 0 01.439-.779l.202.164a.911.911 0 00-.348.576c0 .253.247.431 1.029.431a7.646 7.646 0 001.003-.068l.029.282a8.65 8.65 0 01-1.043.064zm-.087-1.726l-.192-.178c.223-.154.467-.31.642-.417h-1.423v-.267h1.91v.242a10.813 10.813 0 00-.937.62zM47.682 63.333a.57.57 0 01-.62-.53c-.025-.154-.042-.303-.056-.406-.025-.157-.074-.242-.189-.242a.772.772 0 00-.464.362 1.955 1.955 0 00-.146.271c-.087.189-.153.331-.262.58l-.257-.107c.317-.776.76-1.879 1.136-2.833l.283.096c-.276.673-.489 1.171-.649 1.592a.668.668 0 01.447-.246c.226 0 .327.16.369.398.024.15.042.275.066.431.039.27.164.356.356.356.3 0 .554-.345.649-1.032l.25.096c-.104.733-.411 1.214-.913 1.214zM50.789 60.966a.687.687 0 00-.307.131 1.566 1.566 0 00-.75 1.203c0 .485.419.734 1.228.741l-.049.284c-.994-.014-1.475-.412-1.475-1.01a1.746 1.746 0 01.774-1.346l-1.67.072-.014-.282 2.768-.114.011.282a5.327 5.327 0 00-.516.039zm.122 1.007a2.24 2.24 0 00-.251-.584l.167-.085a2.316 2.316 0 01.272.59zm.425-.178a2.13 2.13 0 00-.251-.566l.171-.089a2.603 2.603 0 01.268.577zM52.208 63.478v-1.832a4.317 4.317 0 01-.317.466l-.164-.253a4.636 4.636 0 00.799-1.658l.279.067a5.347 5.347 0 01-.31.837v2.373zm1.726-.619v.62h-.29v-.62h-.466v-.27h.467v-.968a4.407 4.407 0 01-.918 1.31l-.212-.225a3.88 3.88 0 001.018-1.402h-.882v-.274h.994v-.826h.29v.826H55v.274h-.952a4.17 4.17 0 001.015 1.378l-.223.23a4.764 4.764 0 01-.907-1.33v1.007h.454v.27zM57.86 63.055v-.534h-2.147v-.263h2.147v-.491h-2.34v-.264h1.203v-1.302h.3v1.302h1.134v1.975h-.297v-.156h-2.377v-.267zm-2.078-2.659a3.583 3.583 0 01.54.887l-.254.131a3.432 3.432 0 00-.526-.883zm2.51.128a8.201 8.201 0 01-.623.904l-.244-.127a7.282 7.282 0 00.578-.908zM59.65 60.912h.749v.26h-.791a8.54 8.54 0 01-.67 2.196l-.286-.124a7.358 7.358 0 00.649-2.072h-.62v-.26h.661c.028-.203.05-.405.06-.594h.317a7.468 7.468 0 01-.07.594zm1.265 2.381c-.732 0-1.112-.174-1.112-.487a.898.898 0 01.293-.57l.216.122a.669.669 0 00-.216.398c0 .178.257.27.816.27a4.92 4.92 0 00.505-.024v.27a5.965 5.965 0 01-.502.021zm-.854-1.512l-.035-.264a12.458 12.458 0 011.356-.064v.267a11.315 11.315 0 00-1.321.06zM62.345 62.304h-.29a3.658 3.658 0 01-.087-.812 6.042 6.042 0 01.094-.97h.293a5.686 5.686 0 00-.094.96 2.544 2.544 0 00.038.463c.122-.153.29-.353.447-.545l.142.25c-.181.21-.372.44-.543.654zm.463 1.118l-.177-.242a1.58 1.58 0 001.042-1.737c0-.21-.014-.609-.045-.99h.303c.035.374.049.751.049.986a1.863 1.863 0 01-1.172 1.983zM64.65 63.504a.43.43 0 11.425-.424.43.43 0 01-.425.424zm0-.712a.285.285 0 10.279.288.281.281 0 00-.28-.288zM41.86 35.527a.153.153 0 01-.079-.021l-10.885-6.284a.158.158 0 01-.08-.137.163.163 0 01.08-.14l10.885-6.287a.153.153 0 01.158 0l10.89 6.287a.158.158 0 010 .274l-10.89 6.287a.153.153 0 01-.079.021zm-10.572-6.444l10.572 6.104 10.573-6.105-10.573-6.104z"/><path class="cls-4" d="M30.816 29.085h.316v5.492h-.316zM41.86 45.031a.153.153 0 01-.079-.021l-6.833-3.946.158-.273 6.596 3.809v-2.625h.317v2.898a.158.158 0 01-.08.137.153.153 0 01-.079.021zM41.702 35.369h.316v2.743h-.316z"/><path class="cls-4" d="M41.94 45.01l-.159-.274 10.81-6.24v-2.798h.316v2.889a.158.158 0 01-.079.137zM52.591 29.082h.316v2.749h-.316z"/><path class="cls-4" d="M41.385 42.432l-.158-.274 14.391-8.296a.529.529 0 00.234-.339 2.268 2.268 0 00-1.34-2.318.515.515 0 00-.408.032L39.71 39.533l-.158-.273 14.392-8.296a.83.83 0 01.65-.065 2.569 2.569 0 011.561 2.706.834.834 0 01-.38.53z"/><path class="cls-4" d="M40.997 42.532a1.984 1.984 0 01-1.502-1.124c-.514-.89-.488-1.834.058-2.148.55-.318 1.376.135 1.89 1.023.513.89.488 1.834-.058 2.149a.763.763 0 01-.388.1zM39.77 41.25c.41.712 1.084 1.125 1.458.908.378-.219.352-1.005-.058-1.717-.411-.71-1.077-1.124-1.458-.908-.379.219-.353 1.005.058 1.717zM28.345 32.417l-.158-.273 2.708-1.562.158.273-2.708 1.562z"/><path class="cls-4" d="M30.127 34.366a2.285 2.285 0 00-.325-1.04c-.411-.713-1.083-1.123-1.457-.909-.268.155-.343.616-.188 1.15l-.302.087c-.202-.685-.07-1.278.332-1.51.547-.32 1.375.134 1.888 1.023a2.599 2.599 0 01.368 1.19z"/><path class="cls-4" d="M24.55 44.136a.156.156 0 01-.046-.007L12.506 40.38a.16.16 0 01-.062-.27l9.246-8.518a.152.152 0 01.155-.035l12 3.75a.159.159 0 01.061.267l-9.248 8.519a.16.16 0 01-.107.042zm-11.69-3.977l11.65 3.64 8.98-8.27-11.652-3.642z"/><path class="cls-4" d="M26.632 53.41a.156.156 0 01-.047-.007l-11.999-3.75a.16.16 0 01-.107-.118l-2.08-9.271.308-.069 2.06 9.182 11.651 3.643-2.021-9.008.308-.069 2.081 9.275a.158.158 0 01-.047.15.16.16 0 01-.107.042z"/><path class="cls-4" d="M26.739 53.368l-.215-.232 6.588-6.069.215.233-6.588 6.068zM35.703 44.666l-2.058-9.173.308-.068 2.059 9.173-.309.068z"/><path class="cls-4" d="M40.652 49.75l-10.539-3.403c-.582-.19-.798-1.081-.49-2.029.308-.947 1-1.542 1.588-1.353l10.539 3.403-.098.301-10.539-3.403c-.402-.127-.946.395-1.19 1.15-.244.753-.111 1.499.288 1.63l10.539 3.403z"/><path class="cls-4" d="M40.875 49.785a.726.726 0 01-.223-.035c-.583-.188-.798-1.08-.49-2.028a2.173 2.173 0 01.957-1.283.817.817 0 01.631-.07c.582.189.798 1.08.491 2.027-.27.83-.837 1.39-1.366 1.39zm.651-3.135a.586.586 0 00-.263.07 1.893 1.893 0 00-.801 1.1c-.244.753-.112 1.5.288 1.63.397.128.945-.397 1.19-1.151.245-.753.113-1.5-.288-1.63a.415.415 0 00-.126-.019zM42.98 54.438a.158.158 0 01-.047-.308l.234-.076a.16.16 0 01.2.101.158.158 0 01-.102.2l-.237.076a.163.163 0 01-.048.007zM44.142 54.05a.158.158 0 01-.052-.307c.155-.054.307-.107.46-.162a.158.158 0 01.106.299q-.23.082-.463.162a.16.16 0 01-.051.009zm1.379-.497a.158.158 0 01-.056-.307c.152-.057.305-.115.454-.174a.158.158 0 01.115.295l-.458.176a.16.16 0 01-.055.01zm1.363-.54a.158.158 0 01-.06-.304q.226-.092.447-.188a.158.158 0 01.125.291c-.149.064-.3.126-.452.19a.163.163 0 01-.06.012zm1.345-.58a.158.158 0 01-.065-.302q.224-.1.443-.202a.158.158 0 01.133.287l-.445.204a.175.175 0 01-.066.014zm1.326-.624a.158.158 0 01-.07-.3c.147-.072.291-.146.436-.218a.158.158 0 01.142.281q-.216.112-.439.22a.148.148 0 01-.07.017zm1.302-.671a.158.158 0 01-.075-.297c.145-.078.286-.156.428-.235a.16.16 0 01.215.063.158.158 0 01-.063.215q-.212.117-.43.234a.15.15 0 01-.075.02zm1.277-.721a.158.158 0 01-.08-.295c.14-.082.279-.166.417-.249a.158.158 0 01.217.053.157.157 0 01-.053.217q-.207.127-.421.253a.16.16 0 01-.08.021zm1.245-.773a.158.158 0 01-.086-.291l.405-.268a.158.158 0 11.176.262c-.134.09-.27.18-.41.271a.163.163 0 01-.085.026zm1.21-.825a.16.16 0 01-.128-.066.158.158 0 01.037-.22c.133-.095.265-.191.394-.286a.156.156 0 01.22.033.158.158 0 01-.033.221c-.13.097-.263.192-.397.289a.158.158 0 01-.092.03zm1.17-.882a.158.158 0 01-.097-.283q.192-.152.378-.304a.158.158 0 11.201.244c-.126.103-.254.207-.384.308a.153.153 0 01-.097.035zm1.126-.94a.158.158 0 01-.105-.277q.183-.161.36-.324a.158.158 0 01.215.233q-.18.165-.366.329a.158.158 0 01-.104.04zM57.958 46a.156.156 0 01-.112-.047.159.159 0 010-.224q.176-.172.343-.343a.155.155 0 01.224-.003.159.159 0 01.003.223c-.113.117-.23.233-.347.348a.16.16 0 01-.111.046zm1.014-1.058a.158.158 0 01-.118-.264q.165-.182.322-.364a.16.16 0 01.223-.016.159.159 0 01.017.223q-.16.185-.327.37a.159.159 0 01-.117.051zm.949-1.117a.158.158 0 01-.123-.257c.101-.127.201-.255.297-.381a.158.158 0 11.252.19c-.098.13-.2.26-.303.389a.158.158 0 01-.123.06zm.876-1.174a.153.153 0 01-.09-.028.157.157 0 01-.04-.22c.093-.133.185-.267.272-.401a.158.158 0 01.264.174q-.135.203-.276.407a.157.157 0 01-.13.068zm.794-1.231a.154.154 0 01-.081-.023.158.158 0 01-.055-.216c.083-.14.165-.28.244-.42a.162.162 0 01.216-.06.158.158 0 01.06.216c-.081.143-.163.284-.248.426a.157.157 0 01-.136.077zm.706-1.285a.154.154 0 01-.071-.018.157.157 0 01-.07-.212c.073-.145.144-.29.213-.435a.158.158 0 01.285.136q-.104.22-.216.442a.156.156 0 01-.141.087zm.61-1.333a.163.163 0 01-.06-.012.16.16 0 01-.086-.207q.093-.224.177-.45a.159.159 0 11.297.112c-.057.153-.119.306-.181.46a.159.159 0 01-.147.097zm.506-1.375a.17.17 0 01-.049-.008.158.158 0 01-.101-.2c.05-.155.097-.308.143-.462a.158.158 0 11.303.09q-.069.234-.146.47a.159.159 0 01-.15.11zm.396-1.411a.152.152 0 01-.037-.004.16.16 0 01-.118-.19c.038-.16.074-.317.105-.473a.158.158 0 01.31.062c-.033.16-.068.321-.106.483a.16.16 0 01-.154.122zm.277-1.44l-.023-.002a.159.159 0 01-.133-.18c.024-.16.045-.32.063-.479a.147.147 0 01.176-.139.159.159 0 01.139.176c-.019.161-.041.324-.066.49a.158.158 0 01-.156.134zm.151-1.458h-.01a.16.16 0 01-.148-.168c.01-.163.017-.324.02-.482a.177.177 0 01.163-.155.159.159 0 01.154.163c-.004.162-.01.327-.02.494a.158.158 0 01-.159.148zm.014-1.466a.159.159 0 01-.158-.151 14.959 14.959 0 00-.029-.483.16.16 0 01.147-.17.169.169 0 01.17.146c.012.162.021.327.028.493a.158.158 0 01-.151.165zm-.138-1.459a.158.158 0 01-.156-.133 12.295 12.295 0 00-.083-.476.158.158 0 01.125-.186.153.153 0 01.186.125c.03.159.06.32.085.488a.158.158 0 01-.132.18zm-.318-1.43a.158.158 0 01-.151-.112q-.072-.237-.153-.455a.158.158 0 01.094-.203.16.16 0 01.203.094q.084.227.158.473a.158.158 0 01-.105.197.154.154 0 01-.046.007zm-.563-1.35a.158.158 0 01-.137-.081 3.965 3.965 0 00-.255-.393.158.158 0 01.252-.189 3.972 3.972 0 01.278.426.159.159 0 01-.06.216.161.161 0 01-.078.02zm-.927-1.128a.152.152 0 01-.108-.043q-.173-.16-.361-.312a.16.16 0 01-.023-.223.161.161 0 01.222-.023c.132.107.258.215.377.328a.157.157 0 01.008.222.154.154 0 01-.115.051zm-1.168-.884a.16.16 0 01-.083-.023 8.56 8.56 0 00-.415-.242.158.158 0 01-.063-.215.155.155 0 01.215-.063c.147.08.29.164.429.25a.158.158 0 01-.083.293zm-10.303-.212a.158.158 0 01-.07-.3q.226-.11.45-.207a.154.154 0 01.208.08.157.157 0 01-.081.209q-.218.096-.438.203a.16.16 0 01-.069.015zm8.999-.456a.167.167 0 01-.06-.011q-.22-.091-.45-.172a.158.158 0 11.106-.299q.236.083.465.178a.158.158 0 01-.061.304zm-7.646-.106a.158.158 0 01-.053-.308c.157-.055.315-.106.471-.154a.156.156 0 01.198.106.158.158 0 01-.106.197 10.88 10.88 0 00-.458.15.166.166 0 01-.052.009zm6.254-.35a.17.17 0 01-.038-.004 9.991 9.991 0 00-.47-.105.158.158 0 01.063-.31c.163.033.325.068.483.108a.158.158 0 01-.038.311zm-4.844-.048a.158.158 0 01-.034-.313c.164-.035.327-.066.488-.095a.16.16 0 01.182.13.159.159 0 01-.13.183c-.157.026-.314.057-.473.09a.134.134 0 01-.033.005zm3.401-.2l-.017-.002a9.534 9.534 0 00-.479-.037.16.16 0 01-.15-.167.152.152 0 01.168-.15c.166.01.33.023.495.04a.158.158 0 01-.017.315zm-1.953-.016a.158.158 0 01-.013-.316c.166-.014.332-.024.495-.03a.153.153 0 01.164.152.159.159 0 01-.152.164c-.16.006-.32.016-.481.029zM49.74 25.784a.158.158 0 01-.083-.293c.058-.036.117-.07.176-.104l.038-.023a.158.158 0 11.16.274l-.039.022-.17.1a.156.156 0 01-.083.024z"/><path class="cls-4" d="M51.257 26.197a.191.191 0 01-.047-.005l-1.516-.369a.198.198 0 01-.141-.253l.48-1.484a.203.203 0 01.248-.128.198.198 0 01.128.249l-.414 1.282 1.309.319a.198.198 0 01-.047.39z"/><path class="cls-2" d="M23.463 38.401a.973.973 0 01-.074-.003.989.989 0 01-.887-.753c-.3-1.246-.61-1.955-.92-2.107-.308-.152-1.034.027-2.162.53a.988.988 0 01-1.234-1.436c.667-1.038.953-1.73.85-2.056-.104-.33-.76-.743-1.945-1.226a.988.988 0 01.141-1.876c1.246-.3 1.955-.61 2.107-.92.151-.307-.027-1.034-.53-2.16a.989.989 0 011.436-1.236c1.037.666 1.73.955 2.056.85.33-.106.743-.76 1.226-1.946a.974.974 0 01.99-.612.989.989 0 01.886.754c.3 1.245.61 1.954.921 2.107.308.154 1.033-.028 2.161-.53a.988.988 0 011.235 1.436 4.041 4.041 0 00-.866 1.981.989.989 0 01-1.963.237 2.89 2.89 0 01.096-1.123 2.701 2.701 0 01-1.536-.227 2.775 2.775 0 01-1.193-1.2 2.776 2.776 0 01-1.36 1.007 2.734 2.734 0 01-1.557-.006 2.743 2.743 0 01-.228 1.54 2.78 2.78 0 01-1.199 1.194 2.767 2.767 0 011.006 1.36 2.725 2.725 0 01-.006 1.556 2.578 2.578 0 012.734 1.429c.022-.029.043-.056.066-.082a.988.988 0 111.53 1.252 6.865 6.865 0 00-.866 1.65.988.988 0 01-.915.616z"/><path class="cls-4" d="M23.463 37.571h-.012a.157.157 0 01-.141-.12c-.387-1.602-.782-2.372-1.362-2.658s-1.408-.133-2.866.518a.163.163 0 01-.185-.041.159.159 0 01-.012-.189c.863-1.345 1.136-2.143.942-2.755-.195-.617-.897-1.123-2.423-1.745a.158.158 0 01.023-.3c1.601-.385 2.37-.78 2.657-1.361.284-.576.134-1.406-.518-2.865a.158.158 0 01.23-.198c1.347.864 2.143 1.135 2.756.942.617-.195 1.123-.898 1.744-2.423a.143.143 0 01.158-.098.157.157 0 01.142.12c.386 1.602.781 2.372 1.361 2.658.578.284 1.407.131 2.866-.518a.165.165 0 01.185.041.159.159 0 01.012.189 4.296 4.296 0 00-.99 2.53.159.159 0 01-.14.176.154.154 0 01-.175-.139 3.872 3.872 0 01.774-2.31c-1.277.52-2.068.612-2.672.315-.62-.306-1.03-.995-1.412-2.41-.589 1.341-1.098 1.962-1.758 2.17-.642.205-1.409-.004-2.593-.711.521 1.278.61 2.069.314 2.67-.306.622-.996 1.032-2.409 1.413 1.34.59 1.96 1.1 2.17 1.758.202.64-.005 1.409-.713 2.593 1.276-.52 2.068-.611 2.672-.314.62.305 1.031.995 1.412 2.409a6.606 6.606 0 01.856-1.51.158.158 0 01.245.201 7.426 7.426 0 00-.992 1.864.16.16 0 01-.146.098z"/></g></g></svg>