<svg xmlns="http://www.w3.org/2000/svg" viewBox="0 0 75 74.99902"><defs><style>.cls-1,.cls-6{fill:none;}.cls-2{fill:#f0f8fa;}.cls-3{fill:#666;}.cls-4{fill:#00afca;}.cls-5{fill:#a9d8e5;}.cls-6{stroke:#00afca;stroke-linecap:round;stroke-linejoin:round;stroke-width:0.31628px;}</style></defs><title>アセット 4002</title><g id="レイヤー_2" data-name="レイヤー 2"><g id="レイヤー_2-2" data-name="レイヤー 2"><path class="cls-1" d="M8.36279-.00049H66.63818a8.36133,8.36133,0,0,1,8.36133,8.36133V66.63721a8.3623,8.3623,0,0,1-8.3623,8.3623H8.36182A8.36133,8.36133,0,0,1,.00049,66.63818V8.36182A8.3623,8.3623,0,0,1,8.36279-.00049Z" transform="translate(74.99951 -0.00049) rotate(90)"/><rect class="cls-2" x="5.00009" y="4.99975" width="64.99961" height="64.99961" rx="3.36204" transform="translate(74.99946 -0.00034) rotate(90)"/><path class="cls-3" d="M66.6377,70.124H8.3623A3.49048,3.49048,0,0,1,4.875,66.6377V8.36133A3.49049,3.49049,0,0,1,8.3623,4.875H66.6377A3.49049,3.49049,0,0,1,70.125,8.36133V66.6377A3.49048,3.49048,0,0,1,66.6377,70.124ZM8.3623,5.125A3.24064,3.24064,0,0,0,5.125,8.36133V66.6377A3.24063,3.24063,0,0,0,8.3623,69.874H66.6377A3.24063,3.24063,0,0,0,69.875,66.6377V8.36133A3.24064,3.24064,0,0,0,66.6377,5.125Z"/><path class="cls-4" d="M33.0546,58.8793l-.173-.09729a1.97337,1.97337,0,0,0,.31775-.69921l.18262.04518A2.1779,2.1779,0,0,1,33.0546,58.8793Zm.76368.13745a.94012.94012,0,0,1-.44361-.1112l.04054-.16833a.76246.76246,0,0,0,.37682.10424c.1803,0,.28223-.07335.28223-.21119,0-.12316-.05213-.21543-.26795-.41465a.38512.38512,0,0,1-.15907-.28223.63017.63017,0,0,1,.15174-.38647l.17335.06872a.44086.44086,0,0,0-.12818.29651c0,.078.04517.1305.13976.21814.22548.20849.29188.33435.29188.50964C34.27579,58.86733,34.10978,59.01675,33.81828,59.01675Zm.46446-1.55284a2.96691,2.96691,0,0,0-.83433-.249l.0471-.1776a3.3871,3.3871,0,0,1,.86059.249Zm.493,1.40111a2.69674,2.69674,0,0,0-.33436-.73241l.166-.07606a3.39377,3.39377,0,0,1,.35327.73511Z"/><path class="cls-4" d="M13.49314,57.68668a3.7215,3.7215,0,0,0-.50269-.15637,1.99993,1.99993,0,0,1,.12818.69959.70834.70834,0,0,1-.73009.7799.65242.65242,0,0,1-.69264-.70191,1.68969,1.68969,0,0,1,.27992-.89379h-.505v-.17065h.73975v.13513a1.5878,1.5878,0,0,0-.327.92236.47381.47381,0,0,0,.5023.52624c.33667,0,.54554-.23011.54554-.6189a1.92317,1.92317,0,0,0-.16138-.761l.09729-.12548c.26061.06409.49767.13744.68762.19922Zm-.36022-.37914a1.62335,1.62335,0,0,0-.178-.37952l.11621-.05907a1.65347,1.65347,0,0,1,.18957.38647Zm.31775-.0332a1.44937,1.44937,0,0,0-.17336-.37451l.11622-.06177a1.621,1.621,0,0,1,.18493.38416Z"/><path class="cls-4" d="M14.70583,58.95768a1.47037,1.47037,0,0,0-.49341-.2942c-.00464.28686-.0946.38879-.36254.38879-.26331,0-.434-.13513-.434-.30076,0-.17336.17528-.29652.46716-.29652a.96327.96327,0,0,1,.14672.00965c-.00695-.24207-.02124-.60229-.02124-1.06212h.18262c0,.14208.00232.27721.00232.40037h.61889v.1637h-.61426c.005.21582.00965.39613.012.53357a1.63973,1.63973,0,0,1,.595.3247Zm-.83472-.34864c-.19188,0-.29149.05444-.29149.14478,0,.08533.10656.1444.256.1444.16371,0,.19691-.05676.19691-.27721A1.17118,1.17118,0,0,0,13.87111,58.609Z"/><path class="cls-4" d="M15.38457,59.055l-.04748-.18262c.70885-.05946,1.03123-.28454,1.03123-.64245a.375.375,0,0,0-.41234-.39844,6.60157,6.60157,0,0,0-.88915.0973l-.03784-.19228a6.75177,6.75177,0,0,1,.939-.0969.55566.55566,0,0,1,.61388.59032C16.58183,58.699,16.14555,59.00015,15.38457,59.055Zm.88183-1.669a4.19117,4.19117,0,0,0-.89379-.22548l.04517-.18262a4.56047,4.56047,0,0,1,.91039.2278Z"/><path class="cls-4" d="M17.498,57.516c.05483-.00232.10927-.00232.15675-.00232.35327,0,.48338.15637.48338.51929a1.6933,1.6933,0,0,1-.15636.79418.307.307,0,0,1-.32007.17528.92116.92116,0,0,1-.339-.07335l.02355-.17065a.8762.8762,0,0,0,.28918.06177.1666.1666,0,0,0,.166-.08069,1.42932,1.42932,0,0,0,.13513-.70422c0-.244-.08031-.34362-.31042-.34362-.0498,0-.10656,0-.16833.00231a4.63395,4.63395,0,0,1-.50732,1.31115l-.17567-.095a4.09346,4.09346,0,0,0,.47914-1.21154c-.1471.00231-.3081.00965-.47644.0166l-.012-.1776c.1942-.00734.36987-.01429.52623-.0193a4.45412,4.45412,0,0,0,.07336-.52624h.20887A5.27019,5.27019,0,0,1,17.498,57.516Zm1.0907.9768a1.68936,1.68936,0,0,0-.3247-1.00769l.15868-.09691a1.85448,1.85448,0,0,1,.37219,1.1046Z"/><path class="cls-4" d="M20.22842,59.00246a.385.385,0,0,1-.422-.35288c-.0166-.10231-.02857-.20154-.03822-.27026-.0166-.10463-.0498-.16139-.1278-.16139a.52187.52187,0,0,0-.31543.24169,1.26486,1.26486,0,0,0-.09961.18031c-.05907.12548-.10424.22045-.1776.38647l-.17567-.071c.21583-.517.517-1.25208.773-1.88719l.19189.06409c-.18726.44786-.33165.77989-.44092,1.05942a.45868.45868,0,0,1,.30347-.16331c.154,0,.22277.10656.25134.26524.0166.09961.02857.18262.04517.28686.02587.1803.1112.23744.24169.23744.20386,0,.37682-.2301.44091-.68762l.17065.06409C20.7782,58.68278,20.56972,59.00246,20.22842,59.00246Z"/><path class="cls-4" d="M38.54707,58.96c-.61388,0-.89147-.173-.89147-.44554a.77207.77207,0,0,1,.29883-.51929l.13744.10888a.60477.60477,0,0,0-.23705.38415c0,.16834.16833.28687.69958.28687a5.30153,5.30153,0,0,0,.68261-.04517l.01891.18725A5.93986,5.93986,0,0,1,38.54707,58.96ZM38.488,57.81023l-.1305-.11853c.15173-.10193.31775-.20656.43628-.2776h-.96753v-.1776h1.29956v.161A7.23683,7.23683,0,0,0,38.488,57.81023Z"/><path class="cls-4" d="M39.83312,59.055l-.04748-.18262c.70885-.05946,1.03123-.28454,1.03123-.64245a.375.375,0,0,0-.41234-.39844,6.60186,6.60186,0,0,0-.88916.0973l-.03783-.19228a6.75177,6.75177,0,0,1,.939-.0969.55566.55566,0,0,1,.61388.59032C41.03038,58.699,40.59409,59.00015,39.83312,59.055Zm.88183-1.669a4.19117,4.19117,0,0,0-.89379-.22548l.04517-.18262a4.56047,4.56047,0,0,1,.91039.2278Z"/><path class="cls-4" d="M41.57206,58.94339a3.53767,3.53767,0,0,1-.12123-.91734,6.05239,6.05239,0,0,1,.06911-.9629l.19883.005a5.79651,5.79651,0,0,0-.06872.95054,3.65644,3.65644,0,0,0,.11621.88684Zm.839.1139-.10887-.1471c.38415-.21814.41234-.41968.41234-.96483,0-.04981,0-.10695-.00232-.17065h-.749V57.599h.7467c-.00464-.19922-.00927-.41968-.01892-.59033h.19188c.00965.17065.01892.39111.02626.59033h.41736v.17567h-.41273c.00232.06138.00232.11853.00232.16563C42.916,58.53066,42.8473,58.81791,42.411,59.05729Zm.68068-1.63354a1.57812,1.57812,0,0,0-.1471-.3579l.11158-.05946a1.56843,1.56843,0,0,1,.15868.36293Zm.2606-.15636a1.56132,1.56132,0,0,0-.161-.35327l.1135-.05946a1.5636,1.5636,0,0,1,.16834.3579Z"/><path class="cls-4" d="M44.81441,58.04728a2.86254,2.86254,0,0,0,.1444.31042l-.19189.06409a3.21274,3.21274,0,0,1-.1637-.37451h-.998v-.173h.93626c-.03784-.1139-.07336-.23474-.10424-.36061h-.72778v-.173h.68531c-.02857-.12085-.05212-.24671-.07375-.37451h.20656c.01892.12548.04247.25134.071.37451h.65172v.173h-.60925a3.72586,3.72586,0,0,0,.10926.36061h.62817v.173ZM44.743,59.055c-.6328,0-.927-.15443-.927-.40076a.667.667,0,0,1,.07606-.29149l.18494.03552a.56189.56189,0,0,0-.06178.232c0,.166.25366.24208.71619.24208.05908,0,.15869-.00232.2583-.005V59.05C44.90437,59.05227,44.80708,59.055,44.743,59.055Z"/><path class="cls-4" d="M47.38189,58.04728a2.93654,2.93654,0,0,0,.14478.31042l-.19227.06409a3.21112,3.21112,0,0,1-.16331-.37451h-.99842v-.173h.93664c-.03783-.1139-.07335-.23474-.10424-.36061h-.72778v-.173h.68492c-.02857-.12085-.05212-.24671-.07335-.37451H47.095c.01892.12548.04285.25134.071.37451h.6521v.173h-.60925c.03089.12587.06873.24671.10888.36061h.62855v.173Zm-.071,1.00769c-.63318,0-.927-.15443-.927-.40076a.67094.67094,0,0,1,.07567-.29149l.18493.03552a.56637.56637,0,0,0-.06138.232c0,.166.25366.24208.7158.24208.05946,0,.15907-.00232.25829-.005V59.05C47.47185,59.05227,47.37494,59.055,47.31085,59.055Z"/><path class="cls-4" d="M49.26522,58.95768a1.4691,1.4691,0,0,0-.493-.2942c-.005.28686-.095.38879-.36292.38879-.26293,0-.434-.13513-.434-.30076,0-.17336.17567-.29652.46717-.29652a.97163.97163,0,0,1,.1471.00965c-.00734-.24207-.02124-.60229-.02124-1.06212h.18224c0,.14208.0027.27721.0027.40037h.61851v.1637H48.7579c.00464.21582.00927.39613.012.53357a1.63965,1.63965,0,0,1,.595.3247ZM48.4305,58.609c-.19188,0-.29149.05444-.29149.14478,0,.08533.10694.1444.256.1444.1637,0,.19691-.05676.19691-.27721A1.16226,1.16226,0,0,0,48.4305,58.609Z"/><path class="cls-4" d="M49.99145,59.055l-.04749-.18262c.70886-.05946,1.03124-.28454,1.03124-.64245a.375.375,0,0,0-.41234-.39844,6.60153,6.60153,0,0,0-.88916.0973l-.03784-.19228a6.752,6.752,0,0,1,.939-.0969.55566.55566,0,0,1,.61387.59032C51.1887,58.699,50.75243,59.00015,49.99145,59.055Zm.88181-1.669a4.19077,4.19077,0,0,0-.89378-.22548l.04517-.18262a4.56047,4.56047,0,0,1,.91039.2278Z"/><path class="cls-4" d="M51.7161,58.31754h-.19691a2.41014,2.41014,0,0,1-.05907-.54052,3.91277,3.91277,0,0,1,.06409-.64746h.19884a3.72,3.72,0,0,0-.06371.64013,1.66087,1.66087,0,0,0,.02587.30848c.083-.10193.19691-.23474.30347-.36292l.09729.166C51.96281,58.021,51.83231,58.17508,51.7161,58.31754Zm.31543.74438-.12084-.16138a1.04962,1.04962,0,0,0,.70885-1.15672c0-.13976-.00965-.40539-.03089-.65905h.20617c.02356.24864.03321.5.03321.65673A1.23811,1.23811,0,0,1,52.03153,59.06192Z"/><path class="cls-4" d="M54.24651,58.95768a1.46535,1.46535,0,0,0-.493-.2942c-.00464.28686-.09459.38879-.36254.38879-.26331,0-.434-.13513-.434-.30076,0-.17336.17528-.29652.46717-.29652a.96314.96314,0,0,1,.14671.00965c-.007-.24207-.02124-.60229-.02124-1.06212h.18262c0,.14208.00232.27721.00232.40037h.6189v.1637h-.61427c.005.21582.00965.39613.012.53357a1.63965,1.63965,0,0,1,.595.3247Zm-.83433-.34864c-.19189,0-.2915.05444-.2915.14478,0,.08533.10656.1444.256.1444.1637,0,.1969-.05676.1969-.27721A1.17115,1.17115,0,0,0,53.41218,58.609Z"/><path class="cls-4" d="M55.77927,59.06655a6.38869,6.38869,0,0,0-1.1-.915c-.07606-.05212-.10424-.0973-.10424-.1471,0-.04479.02123-.09.10193-.14942a7.876,7.876,0,0,0,1.02621-.89109l.16371.1444a9.44138,9.44138,0,0,1-.96947.82738c-.04285.03089-.05946.04749-.05946.06641,0,.02124.01429.03089.05213.05714a6.68322,6.68322,0,0,1,1.04552.85557Z"/><path class="cls-4" d="M11.09013,63.23976a1.61542,1.61542,0,0,1-.717-.14594l.09227-.27064a1.36731,1.36731,0,0,0,.62122.139.57478.57478,0,0,0,.63859-.60886c0-.434-.3552-.57643-.717-.57643a2.60171,2.60171,0,0,0-.51233.04981l.05482-1.36675h1.33161v.27412H10.82721l-.03745.78646a1.96067,1.96067,0,0,1,.27991-.02124.866.866,0,0,1,.97332.83627A.87648.87648,0,0,1,11.09013,63.23976Z"/><path class="cls-4" d="M13.84679,62.229l-.17412.22045c-.06834-.1386-.17413-.33821-.28687-.53009V63.478h-.27991V62.03672a5.11919,5.11919,0,0,1-.40307.822l-.19807-.21351a4.45237,4.45237,0,0,0,.59072-1.203h-.54284v-.25983h.55326v-.49458a3.57129,3.57129,0,0,1-.461.08533l-.1027-.24208a3.3861,3.3861,0,0,0,1.144-.3274l.15714.22084a3.12446,3.12446,0,0,1-.45752.18493v.573h.45057v.25983H13.3858v.14594C13.553,61.80893,13.74062,62.06876,13.84679,62.229Zm.56678-1.38451a2.98144,2.98144,0,0,1-.39613,1.11039L13.775,61.841a2.62384,2.62384,0,0,0,.3857-1.04282Zm1.11656,1.15672a2.20226,2.20226,0,0,1-1.51269,1.4733l-.21852-.22045a1.92874,1.92874,0,0,0,1.45786-1.33856ZM14.929,60.20358v1.82966c0,.1637-.0444.256-.18764.28107a2.21009,2.21009,0,0,1-.38956.007l-.044-.26678a2.42929,2.42929,0,0,0,.26949.00347c.05482-.00347.0718-.02857.0718-.07451V60.20358Zm.45751.55519a5.01951,5.01951,0,0,1,.34169,1.05711l-.26987.0749A4.87786,4.87786,0,0,0,15.144,60.8302Z"/><path class="cls-4" d="M16.40539,60.31052h.96985V61.524h-.96985v1.954h-.27992V60.31052h.27992Zm.6965.49806V60.524h-.6965v.28455Zm-.6965.1996v.29536h.6965v-.29536Zm1.78912.77951v1.22776H16.85634V61.78769Zm-1.0822.51581h.81619v-.3023h-.81619Zm0,.49844h.81619v-.317h-.81619Zm1.71423-2.49142h.1193v2.79759c0,.20617-.05135.3274-.24246.35944a3.3078,3.3078,0,0,1-.46756.00348L18.188,63.19a3.41351,3.41351,0,0,0,.36176.007c.0888-.007.11274-.04981.11274-.13166V61.524h-.9934V60.31052h1.15749Zm-.16409.49806V60.524h-.717v.28455Zm-.717.1996v.29536h.717v-.29536Z"/><path class="cls-4" d="M20.08788,63.49612a4.30072,4.30072,0,0,0-.68994-.71194l.18108-.178a4.44175,4.44175,0,0,1,.71349.70114Z"/><path class="cls-4" d="M20.59366,62.1649V60.50627h.30385V62.1649Zm.64862,1.21347-.14671-.256a1.30471,1.30471,0,0,0,1.07216-1.44512V60.42094h.31041v1.25981A1.57615,1.57615,0,0,1,21.24228,63.37837Z"/><path class="cls-4" d="M24.09121,61.556a4.668,4.668,0,0,0-.99726-.65828l.17413-.25636a5.61536,5.61536,0,0,1,1.02429.637Zm-.81966,1.70843-.09227-.29883a2.67178,2.67178,0,0,0,2.25011-1.72272l.22547.21351A2.91787,2.91787,0,0,1,23.27155,63.26447Z"/><path class="cls-4" d="M27.02856,60.86919h1.32466a3.00559,3.00559,0,0,1-1.86788,2.50918l-.14672-.23822a2.56435,2.56435,0,0,0,1.63894-2.00031H26.88841a4.68838,4.68838,0,0,1-.88105,1.13162l-.21157-.19922a4.195,4.195,0,0,0,1.08567-1.60883h.30733C27.14439,60.59507,27.09,60.73406,27.02856,60.86919Zm1.19841-.06756a2.35315,2.35315,0,0,0-.24941-.566l.16756-.08532a2.26324,2.26324,0,0,1,.266.56948Zm.46755-.05714a2.23635,2.23635,0,0,0-.24246-.56562l.16756-.08919a2.43485,2.43485,0,0,1,.25945.58029Z"/><path class="cls-4" d="M30.45122,63.29652l-.10926-.256a1.13781,1.13781,0,0,0,1.04475-1.18528.94026.94026,0,0,0-.92893-.98259c-.13976,1.26713-.41659,2.17135-.89456,2.17135-.35829,0-.64168-.48416-.64168-.99649a1.45412,1.45412,0,0,1,1.45787-1.44165,1.19741,1.19741,0,0,1,1.30072,1.242A1.41945,1.41945,0,0,1,30.45122,63.29652Zm-1.24976-1.25633c0,.36292.17065.6799.3552.6799.232,0,.48453-.66561.60075-1.83314A1.15834,1.15834,0,0,0,29.20146,62.04019Z"/><path class="cls-4" d="M32.46389,61.912v-.77565h-.427v-.26369h.427v-.66909h.273v.66909h.26293v.26369h-.26293v.68685c.09228-.032.18108-.06061.25945-.08918l.02394.24555c-.08533.0359-.18108.0749-.28339.11389v1.04668c0,.18841-.051.29883-.21852.3274a2.1332,2.1332,0,0,1-.38223.00695l-.04787-.27759a2.79211,2.79211,0,0,0,.28338.00733c.07182-.00733.09228-.04285.09228-.10694v-.90036c-.15366.05328-.29729.10656-.40308.14594l-.06138-.28493C32.11564,62.02243,32.28629,61.96915,32.46389,61.912Zm1.154,1.22814V61.78383h-.23551a3.49427,3.49427,0,0,1-.36871,1.65515l-.24247-.15289a3.15264,3.15264,0,0,0,.34825-1.63392V60.29971h2.03159v.25984H33.38548v.97178h1.76557v.2525h-.79572a3.56906,3.56906,0,0,0,.15366.59805,3.99371,3.99371,0,0,0,.47141-.4413l.18416.18146a5.1856,5.1856,0,0,1-.55982.47334,1.37,1.37,0,0,0,.59727.64091l-.19111.24169a2.2696,2.2696,0,0,1-.90151-1.69415h-.23551v1.31c.20848-.04285.427-.08532.59071-.12123l.02394.2386c-.31428.07838-.79225.1888-1.06869.24555L33.348,63.19C33.42331,63.17567,33.51559,63.16139,33.6179,63.14015Zm1.28374-2.23544v.24555H33.56655v-.24555Z"/><path class="cls-4" d="M36.06762,62.3035h-.28339a3.742,3.742,0,0,1-.08532-.81155,6.10473,6.10473,0,0,1,.09227-.9714h.28687a5.77972,5.77972,0,0,0-.09228.961,2.57962,2.57962,0,0,0,.03745.46254c.11969-.15289.28339-.35211.437-.54439l.14015.249C36.42282,61.85873,36.2348,62.09,36.06762,62.3035Zm.454,1.11772-.17413-.24207a1.58375,1.58375,0,0,0,1.02082-1.737c0-.21-.01352-.60847-.044-.98915h.2969c.034.37373.04788.75094.04788.98568A1.86936,1.86936,0,0,1,36.52166,63.42122Z"/><path class="cls-4" d="M38.67371,62.478V60.89429h-.488V60.631H39.432v.26331h-.47489v1.4984c.1776-.05367.34825-.107.49188-.15328l.02394.25289c-.36872.13513-.9324.3274-1.25324.43049l-.07181-.29884C38.28106,62.58843,38.47255,62.53863,38.67371,62.478Zm2.67365.74052-.21158.256a2.35148,2.35148,0,0,1-.85364-.68337,3.118,3.118,0,0,1-.94938.68337l-.19807-.24207a2.82106,2.82106,0,0,0,.9768-.68338,3.71175,3.71175,0,0,1-.427-1.03548,3.60942,3.60942,0,0,1-.26987.44477l-.22509-.18146a3.44611,3.44611,0,0,0,.61117-1.57678l.28339.04981a5.36075,5.36075,0,0,1-.1332.59071h1.35555v.27065h-.3413a3.09973,3.09973,0,0,1-.49535,1.44512A2.12106,2.12106,0,0,0,41.34736,63.21853Zm-1.0517-.915a2.73959,2.73959,0,0,0,.37218-1.19223h-.79225A3.628,3.628,0,0,0,40.29566,62.3035Z"/><path class="cls-4" d="M43.00174,62.79113v-.22779H41.87128v-.18146h1.13046v-.21c-.31775.02162-.63859.02857-.898.02162l-.0583-.18185a10.00424,10.00424,0,0,0,2.05553-.14941l.0888.17451a8.43159,8.43159,0,0,1-.89457.11389v.23127h1.161v.18146h-1.161v.22779H44.726v.18146H43.29516v.2386c0,.14942-.0444.23513-.18107.25636a3.66125,3.66125,0,0,1-.50191.00695l-.03745-.22045c.11968.007.30385.007.35519.00347.05444-.00347.07182-.02857.07182-.07837v-.20656H41.58441v-.18146Zm-.7548-1.16714v-.1498h-.53937v-.78993h.53937v-.14595h-.62469v-.1637h.62469v-.171h.256v.171H43.128v.1637h-.62508v.14595h.56021v.78993h-.56021v.1498h.63859v.1637h-.63859v.15289h-.256v-.15289h-.65905V61.624Zm-.31737-.61233h.31737v-.17451h-.31737Zm0,.30964h.31737v-.18146h-.31737Zm.898-.30964v-.17451h-.3247v.17451Zm0,.30964v-.18146h-.3247v.18146ZM44.1627,60.275h.11583v.23822c0,.08571.01042.10347.05482.10347h.12625c.04787,0,.05135-.01081.05444-.18532l.22547.04285c-.02046.32393-.06486.36293-.256.3664h-.1776c-.222-.007-.2664-.06756-.2664-.3274v-.04633h-.41312V60.485a.52473.52473,0,0,1-.27643.45559l-.22548-.12818c.19459-.107.26293-.21.26293-.33822V60.275h.77526Zm.55635,1.46984-.13667.20269a2.66757,2.66757,0,0,1-.6965-.24555,2.70506,2.70506,0,0,1-.57374.24208l-.15365-.18146a2.13774,2.13774,0,0,0,.52276-.1888,1.40941,1.40941,0,0,1-.34169-.34864l.188-.0749h-.27335v-.19188h1.05865c.01.00347.02046.007.1776.04594a1.21755,1.21755,0,0,1-.40308.55558A2.37112,2.37112,0,0,0,44.71905,61.74484Zm-.83665-.29536a1.03848,1.03848,0,0,0,.2803-.29922h-.61156A1.20408,1.20408,0,0,0,43.8824,61.44948Z"/><path class="cls-4" d="M46.0997,61.14331h.22856c.50191,0,.683.22779.683.76523a2.55791,2.55791,0,0,1-.21853,1.164.43682.43682,0,0,1-.454.25983,1.24007,1.24007,0,0,1-.48145-.10694l.034-.249a1.1747,1.1747,0,0,0,.41.09228.24273.24273,0,0,0,.239-.12085,2.19477,2.19477,0,0,0,.19111-1.03934c0-.35945-.11621-.50887-.444-.50887-.07142,0-.15366,0-.24246.00348a6.89864,6.89864,0,0,1-.72044,1.93275l-.24246-.14247a6.17631,6.17631,0,0,0,.67643-1.78333c-.20849.00386-.437.01428-.67643.02509l-.01351-.25636c.27335-.01428.52237-.02123.74437-.02857a7.04459,7.04459,0,0,0,.10927-.78993h.29033C46.1885,60.61669,46.15105,60.88,46.0997,61.14331Zm1.25632-.24207a2.26789,2.26789,0,0,0-.24555-.58724l.16718-.0888a2.33038,2.33038,0,0,1,.2664.59766Zm.30076,1.7119a2.58481,2.58481,0,0,0-.461-1.48759l.222-.14246a2.81632,2.81632,0,0,1,.52893,1.63005Zm.14672-1.82927a2.15855,2.15855,0,0,0-.24942-.573l.16757-.09266a2.42291,2.42291,0,0,1,.2664.58377Z"/><path class="cls-4" d="M49.2463,61.77688h.1332c-.04092,1.01425-.09227,1.54473-.212,1.64087a.35978.35978,0,0,1-.21158.06023c-.09536.00386-.2969-.00348-.42006-.007l-.03745-.2776c.10926.00348.29729.01081.38261.007a.12233.12233,0,0,0,.07838-.02471,3.35546,3.35546,0,0,0,.12972-1.14243H48.6386c-.01042.07452-.02046.14208-.03089.2027l-.2525-.01429c.051-.28454.11274-.80074.13977-1.14938h.61465v-.51272H48.3722v-.2525H49.383V61.3213h-.65249c-.017.14941-.03745.30617-.05444.45558h.57025Zm1.09263,1.30266v-.55172h-.74785V61.517h.74785v-.317c-.29729.02162-.58377.03938-.79225.05366l-.05444-.25636c.0749,0,.16023-.00347.25945-.00695a5.66316,5.66316,0,0,0,.40964-.78684l.27335.08185a7.547,7.547,0,0,1-.38956.69071c.32431-.01429.69341-.032.99378-.04981-.09575-.12818-.20848-.2637-.33126-.39883l.20154-.12818a3.65006,3.65006,0,0,1,.61117.79032l-.23242.13513c-.0305-.06061-.06486-.12084-.10231-.18493-.16718.01428-.36524.02857-.56678.04247V61.517h.77835v1.01078h-.77835v.534c.16409-.01081.32084-.02124.46446-.032-.06486-.11737-.14015-.23512-.222-.356l.2081-.09961a3.45666,3.45666,0,0,1,.45443.79727l-.239.10308a1.92049,1.92049,0,0,0-.08533-.2135c-.49187.0498-1.24319.11389-1.66287.14594l-.06834-.27412C49.68335,63.12239,50.00766,63.10077,50.33893,63.07954Zm-.48493-.77218h.48493v-.56947H49.854Zm1.2737,0v-.56947h-.50886v.56947Z"/><path class="cls-4" d="M54.52951,61.05451h.15058a6.312,6.312,0,0,1-.28687,2.32038.42.42,0,0,1-.27682.08919c-.12278.00347-.38918,0-.54631-.00734l-.051-.29883c.15367.01043.40617.01429.52238.01043a.1766.1766,0,0,0,.12625-.04247,5.74067,5.74067,0,0,0,.19806-1.79029h-.99688a2.63106,2.63106,0,0,1-1.29416,2.1285l-.23242-.22432a2.29943,2.29943,0,0,0,1.23972-1.90418h-1.161v-.28107h1.19146c.02394-.28145.02742-.566.03089-.8436l.29343.00348c-.00309.27759-.01352.55867-.03745.84012h1.13007Z"/><path class="cls-4" d="M55.29242,63.261a6.3377,6.3377,0,0,1-.11274-1.28837,9.47794,9.47794,0,0,1,.10926-1.39532h.28687a10.734,10.734,0,0,0-.10927,1.38837,6.59484,6.59484,0,0,0,.10927,1.249Zm1.7482-.09961c-.81619,0-1.12351-.17065-1.12351-.50539a1.06678,1.06678,0,0,1,.28377-.64785l.23551.11737a.8349.8349,0,0,0-.239.49149c0,.18493.232.27373.84321.27373.16409,0,.3413-.00347.52932-.02123v.27064C57.38539,63.15791,57.20779,63.16139,57.04062,63.16139Zm-1.0517-2.0146V60.88h1.56056v.26679Z"/><path class="cls-4" d="M59.005,60.95452h.59766v.25983h-.66253a6.06028,6.06028,0,0,1-.66561,1.62659l-.25945-.15289a5.32047,5.32047,0,0,0,.62469-1.4737h-.58724v-.25983h.64863a5.27164,5.27164,0,0,0,.10926-.65133h.30385C59.09074,60.50974,59.0529,60.73059,59.005,60.95452Zm1.70071,2.16787a2.10211,2.10211,0,0,0-.54979-.3633v.04285c0,.43782-.17412.59805-.58415.59805-.39265,0-.70306-.20656-.70306-.50925,0-.30578.28686-.50539.734-.50539a1.46594,1.46594,0,0,1,.27991.0251v-.97873H60.156v1.04977a2.30474,2.30474,0,0,1,.70654.41659Zm-1.11656-.48762c-.27335,0-.47142.09227-.47142.25983,0,.15984.19459.25984.427.25984.249,0,.33782-.07838.33782-.349v-.13861A1.35526,1.35526,0,0,0,59.58918,62.63477Zm1.188-1.29919a2.88661,2.88661,0,0,0-.92159-.388l.09536-.25289a3.40957,3.40957,0,0,1,.95286.38454Z"/><path class="cls-4" d="M62.49988,63.40346c-.48492,0-.78877-.21-.78877-.51619,0-.249.222-.44478.55635-.44478a.75377.75377,0,0,1,.72391.61929.64387.64387,0,0,0,.444-.59072c0-.349-.27682-.58376-.77874-.58376a1.35384,1.35384,0,0,0-.60422.13513,3.8586,3.8586,0,0,0-.79881.60847l-.1776-.22045c.232-.19575.57025-.47334.79881-.69418.24246-.23127.68994-.65481.95286-.92893H61.53v-.26679h1.73469v.23475c-.30732.30616-.77179.73665-.99726.96444a1.26448,1.26448,0,0,1,.454-.08533c.64553,0,.99378.33474.99378.82932C63.71528,63.01545,63.21337,63.40346,62.49988,63.40346Zm-.24246-.72236c-.19459,0-.29729.09227-.29729.217,0,.16022.188.25983.50887.25983a1.35772,1.35772,0,0,0,.27643-.02509C62.66706,62.866,62.50645,62.6811,62.25742,62.6811Z"/><path class="cls-4" d="M64.42337,63.50307a.43092.43092,0,1,1,.41658-.42353A.42549.42549,0,0,1,64.42337,63.50307Zm0-.71194a.285.285,0,1,0,.273.28841A.27855.27855,0,0,0,64.42337,62.79113Z"/><path class="cls-4" d="M20.88554,15.74068l-.60114-.437a5.152,5.152,0,0,0,1.22312-3.32034h.74013A6.211,6.211,0,0,1,20.88554,15.74068Zm3.50528-.005a6.2335,6.2335,0,0,1-1.38258-3.75237h.74013a4.92724,4.92724,0,0,0,1.26443,3.23309Z"/><path class="cls-4" d="M26.046,14.15773V11.72152h.7297v2.43621ZM27.2023,15.936l-.34941-.59611c1.27447-.36524,1.52118-.99225,1.52118-1.89685V11.593h.74515v1.85012A2.35925,2.35925,0,0,1,27.2023,15.936Z"/><path class="cls-4" d="M31.38092,15.9206l-.32393-.58608c1.15633-.24169,1.36713-.59612,1.393-1.61886H30.45045v-.63743h4.333v.63743H33.17969A1.95594,1.95594,0,0,1,31.38092,15.9206Zm-.30347-3.52072v-.63743h3.07866v.63743Z"/><path class="cls-4" d="M35.87767,15.76617l-.59612-.43165A4.94574,4.94574,0,0,0,36.52011,12.04h.72508A6.08211,6.08211,0,0,1,35.87767,15.76617Zm3.44891,0A6.06863,6.06863,0,0,1,37.939,12.04h.72971a4.64416,4.64416,0,0,0,1.26945,3.20722Zm.144-3.28946a.61929.61929,0,0,1,0-1.23857.61929.61929,0,1,1,0,1.23857Zm.005-.92507a.30853.30853,0,1,0,.30346.30849A.30642.30642,0,0,0,39.47561,11.55164Z"/><path class="cls-4" d="M42.05042,15.90014l-.28262-.60153a2.40734,2.40734,0,0,0,2.14858-2.70878H41.68557v1.26443H40.9659V11.95279h3.73153C44.69743,14.28089,43.97776,15.52486,42.05042,15.90014Z"/><path class="cls-4" d="M45.4835,14.16275v-.72469h4.08132v.72469Z"/><path class="cls-4" d="M52.8539,14.20908l-.34941-.54477a1.52222,1.52222,0,0,0,1.03818-1.1822H50.21731v-.61156h4.2095A2.62312,2.62312,0,0,1,52.8539,14.20908ZM50.96246,15.9206l-.35984-.55519c.99225-.36987,1.16174-.8687,1.16174-1.85013v-.6992H52.484v.70422A2.18353,2.18353,0,0,1,50.96246,15.9206Z"/><path class="cls-4" d="M55.66,14.33224a8.397,8.397,0,0,0-.44709-1.34667l.5552-.21582A9.08378,9.08378,0,0,1,56.282,14.106Zm.48338,1.62427-.334-.53975a2.5736,2.5736,0,0,0,2.0505-2.69334h.66832A3.21954,3.21954,0,0,1,56.14335,15.95651Zm.57064-1.78874a7.7104,7.7104,0,0,0-.44207-1.34127l.56021-.22123a9.01158,9.01158,0,0,1,.50346,1.33625Z"/><path class="cls-4" d="M60.3988,15.85883l-.33937-.622a2.74909,2.74909,0,0,0,2.44663-2.48254H59.65365v-.64746h3.418a.61091.61091,0,1,1,.478.23126.54269.54269,0,0,1-.18532-.03088C63.09716,14.26043,62.25433,15.45807,60.3988,15.85883Zm3.15587-4.43035a.30058.30058,0,1,0,.29806.29806A.29936.29936,0,0,0,63.55467,11.42848Z"/><path class="cls-4" d="M11.90965,15.17466a1.22309,1.22309,0,0,1,.05689-.189.4635.4635,0,0,0-.17164.16289.65293.65293,0,0,0-.0349.53715.29839.29839,0,0,0,.14042.18827.17335.17335,0,0,0,.10631.00433A1.04871,1.04871,0,0,1,11.90965,15.17466Zm.59738.708a.52823.52823,0,0,1-.08681-.15881,1.2554,1.2554,0,0,1-.00146-.97509.35.35,0,0,0-.08394.02615l-.01155.00568c-.09394.04874-.2109.10943-.28054.4236a.87725.87725,0,0,0,.12284.66849.20309.20309,0,0,0,.13724.09294A.25871.25871,0,0,0,12.507,15.88265Zm.32736-.831a1.09373,1.09373,0,0,1,.10323-.51886.563.563,0,0,0-.17542.04708.40214.40214,0,0,0-.13721.10271,1.00419,1.00419,0,0,0-.07586.99682.301.301,0,0,0,.23461.22018.2974.2974,0,0,0,.271-.12908.80361.80361,0,0,1-.14809-.27118A1.57341,1.57341,0,0,1,12.83439,15.05169Zm2.042-1.11162c-.13025-.09965-.34927.00219-.465.16373a.97106.97106,0,0,0-.07455.7384c.059.37533-.11156.4384-.25774.59535-.18245.19589-.40482.44635-.30382.74621l-.00121.00046c.01117.04181.02322.08288.02341.0835a.06807.06807,0,0,1-.13.04039l-.00079-.00192-.001-.00351-.00049-.00167-.00222-.00769-.0002-.00069c-.00667-.02317-.02039-.07156-.03031-.11179a1.44022,1.44022,0,0,1-1.08052-.12618.05016.05016,0,0,0-.04709,0l-.023.01185-.001.00047a.05261.05261,0,0,0-.00416.09477q.0853.04387.17317.07952l.16993.36441c.06211.1332.26036.22177.365.27105s.27466.0454.29055.07947l.07719.16554a.12316.12316,0,0,0,.11148.07111l1.38848.00145a.12306.12306,0,0,0,.10878-.1811c-.10345-.1933-.25277-.47269-.25687-.48024-.14013-.25827-.0662-.31963-.00315-.4115.024-.035.04837-.07012.07153-.10808l0,.00009a1.17652,1.17652,0,0,0,.07979-.99479l-.0001-.00037c-.031-.16346-.07082-.30791-.10243-.46434C14.90251,14.31921,15.04311,14.06768,14.87635,13.94007Zm-3.60323.75282a2.63266,2.63266,0,0,1-.2071-1.96311,1.52988,1.52988,0,0,1,.81321-.8787c.76619-.35728,1.89549.03875,2.57146,1.48691.02085.04465.04.08868.058.13228a1.68886,1.68886,0,0,1-.93776.25314A2.01849,2.01849,0,0,0,12.55916,12.647a.67875.67875,0,0,0-.5309-.00758l-.00012.00006a.788.788,0,0,0-.40858.73361,2.53535,2.53535,0,0,0,.268,1.13227,2.01152,2.01152,0,0,0,.13232.2364.06459.06459,0,0,0,.0978.01343l.001-.00088a.0657.0657,0,0,0,.01137-.0848,1.85912,1.85912,0,0,1-.12312-.21985,2.40379,2.40379,0,0,1-.25572-1.07091.67257.67257,0,0,1,.33264-.61992l.00012,0a.55215.55215,0,0,1,.42883.01146,1.89247,1.89247,0,0,1,.94442,1.02078l.01175.02791q.01717.04035.03291.08125l.003.0078q.01586.04152.03023.08347l.00118.00335q.01511.04428.02849.08888l.00115.00407c.00724.02423.01391.04852.02037.07281l.012.04787.00554.02317.00359.01771a.61452.61452,0,0,0-.40251.1561.78976.78976,0,0,0-.23421.64684,1.43822,1.43822,0,0,0,.06483.40265.54946.54946,0,0,0,.18039.27935.22243.22243,0,0,0,.20787.02382.22744.22744,0,0,0,.15235-.30626,2.25588,2.25588,0,0,0-.14609-.418.06729.06729,0,0,1,.03388-.08846l.00138-.00062a.068.068,0,0,1,.08981.03481c.02442.0554.04519.10569.06367.15345l.01512.03971.01742.04868c.01091.03161.02077.06241.02967.09291a1.50187,1.50187,0,0,0,.11282-.71239,1.85493,1.85493,0,0,0,.31941-.00675.06536.06536,0,0,0,.05861-.065v-.00133a.065.065,0,0,0-.07219-.06427,1.71246,1.71246,0,0,1-.3178.00458,2.54357,2.54357,0,0,0-.1564-.61491,1.82136,1.82136,0,0,0,.93167-.25781c.0158.04352.03013.087.04344.13044a.06617.06617,0,0,0,.076.04536l.00133-.00024a.06471.06471,0,0,0,.04984-.08269,3.19482,3.19482,0,0,0-.15762-.407c-.7125-1.52649-1.92095-1.9355-2.74645-1.55056a1.65887,1.65887,0,0,0-.8814.95325A2.72532,2.72532,0,0,0,11.154,14.749a3.16249,3.16249,0,0,0,.33235.54484.06449.06449,0,0,0,.11431-.02455l.0004-.00177a.06493.06493,0,0,0-.01091-.05357A3.06238,3.06238,0,0,1,11.27312,14.69289Z"/><path class="cls-5" d="M17.25934,11.7987a1.65893,1.65893,0,0,0-1.2968-.06246A2.531,2.531,0,0,0,14.70886,12.863a.06581.06581,0,0,0-.00125.06479l.00073.00137a.06483.06483,0,0,0,.11254.00355,2.43967,2.43967,0,0,1,1.187-1.07279,1.52984,1.52984,0,0,1,1.19585.05814c.76617.35728,1.18872,1.47693.51387,2.92562-.02081.04467-.04227.0876-.064.12947a1.68879,1.68879,0,0,1-.79669-.55565,2.0185,2.0185,0,0,0,.17419-1.467.67877.67877,0,0,0-.33545-.41157l-.00013,0a.788.788,0,0,0-.8246.15856,2.53558,2.53558,0,0,0-.69512.93309c-.01317.02828-.02557.058-.03748.08856a.06535.06535,0,0,0,.02092.075h0a.06561.06561,0,0,0,.10136-.02763c.01108-.02779.0226-.05463.03457-.08032a2.40384,2.40384,0,0,1,.656-.88425.67254.67254,0,0,1,.68869-.14366l.00013.00006a.55213.55213,0,0,1,.26686.33586,1.89245,1.89245,0,0,1-.17491,1.37962l-.01381.02694q-.01988.03909-.04109.07743l-.00406.00731q-.02161.03885-.04449.07682l-.00182.003q-.02423.04-.04978.079l-.00237.0035c-.01392.02112-.02823.04184-.04269.0624l-.02895.04-.01419.01915-.01125.01413a.61453.61453,0,0,0-.37831-.208.78979.78979,0,0,0-.64606.23637,1.31019,1.31019,0,0,0-.12859.12711l-.00034.00138a2.07757,2.07757,0,0,1,.06526.706.29247.29247,0,0,0,.14676-.11392,2.25442,2.25442,0,0,0,.22632-.38061.06728.06728,0,0,1,.08953-.0309l.00137.00066a.068.068,0,0,1,.03106.09117c-.02675.05431-.05191.10255-.07662.14741l-.0207.03712-.02609.04462c-.01721.02868-.03447.056-.05211.08245a1.50168,1.50168,0,0,0,.61824-.37149,1.85547,1.85547,0,0,0,.21049.24035.06535.06535,0,0,0,.0875.00308l.001-.00086a.065.065,0,0,0,.00283-.09661,1.71176,1.71176,0,0,1-.20779-.24051,2.54385,2.54385,0,0,0,.37052-.51506,1.82133,1.82133,0,0,0,.79635.548c-.02318.04008-.04727.079-.072.11713a.06618.06618,0,0,0,.01407.08734l.001.00086a.0647.0647,0,0,0,.09538-.015,3.19442,3.19442,0,0,0,.21043-.38232C18.54831,13.37226,18.08484,12.18363,17.25934,11.7987Zm-1.96966,2.97862c.02726-.02718.0533-.05125.07617-.07026a1.09357,1.09357,0,0,1,.46381-.25444.56277.56277,0,0,0-.14882-.10412.40211.40211,0,0,0-.16687-.03909.67192.67192,0,0,0-.28849.06461.466.466,0,0,0,.00128.124c.0135.06679.02865.13156.04469.20012Zm1.816.52848c-.13639.01046-.32718.08879-.61358.41751-.24958.28648-.40754.19635-.62174.18525a1.20666,1.20666,0,0,0-.55872.06231,1.14787,1.14787,0,0,1-.10143.19543l-.00051.0008c-.01165.01886-.02338.03693-.03487.05416l-.06093.09465a.62318.62318,0,0,0,.03834.08186c.01559.02849.22833.41023.35111.62984a.10592.10592,0,0,0,.16878.02235.26313.26313,0,0,1,.20273-.072c.04219-.0041.0848-.008.12876-.01468l0,.00009a1.17652,1.17652,0,0,0,.81334-.57831l.00022-.00031c.10527-.12885.19035-.25218.28986-.37694.14934-.18726.43241-.24123.423-.451C17.52256,15.39292,17.30375,15.2906,17.10564,15.3058Z"/><path class="cls-4" d="M13.42326,11.21011l-1.01061-.01126a.06336.06336,0,0,1-.0582-.0867l.3724-.93956a.06336.06336,0,0,1,.11151-.012l.63821.95082A.06336.06336,0,0,1,13.42326,11.21011Z"/><path class="cls-4" d="M15.90527,10.96875a2.423,2.423,0,0,0-2.7998,0l-.293-.41016a2.93583,2.93583,0,0,1,3.38574,0Z"/><path class="cls-4" d="M15.5872,11.21011l1.0106-.01126a.06336.06336,0,0,0,.0582-.0867l-.3724-.93956a.06336.06336,0,0,0-.11151-.012l-.63821.95082A.06336.06336,0,0,0,15.5872,11.21011Z"/><path class="cls-4" d="M35.20312,38.38867h-.3164V34.0625a.15791.15791,0,0,1,.0791-.13672.15335.15335,0,0,1,.1582,0l3.74512,2.16211-.1582.27344-3.50782-2.02539Z"/><rect class="cls-4" x="56.28004" y="29.89396" width="0.31591" height="5.55388" transform="translate(-0.07756 65.20745) rotate(-59.9952)"/><path class="cls-4" d="M35.124,34.19629l-.1582-.27344,11.89746-6.87109a.15335.15335,0,0,1,.1582,0l3.74707,2.16308-.1582.27344-3.668-2.11719Z"/><path class="cls-4" d="M46.94238,51.47656a.153.153,0,0,1-.0791-.02148L34.96582,44.584a.1579.1579,0,0,1-.0791-.13671V42.25a.1582.1582,0,0,1,.3164,0v2.10645L46.78418,51.044V41.02246L42.05566,38.293a.15767.15767,0,0,1-.05761-.21582.15579.15579,0,0,1,.21582-.05762L47.02148,40.794a.15791.15791,0,0,1,.07911.13671v10.3877a.15792.15792,0,0,1-.07911.13672A.153.153,0,0,1,46.94238,51.47656Z"/><path class="cls-4" d="M47.02148,51.45508l-.1582-.27344,11.82129-6.82519V34.334L55.251,36.31641l-.15821-.27344,3.6709-2.12012a.15337.15337,0,0,1,.15821,0,.15793.15793,0,0,1,.0791.13672v10.3877a.15792.15792,0,0,1-.0791.13671Z"/><rect class="cls-4" x="46.5647" y="39.36304" width="5.63915" height="0.31591" transform="translate(-13.15296 30.04419) rotate(-30.05245)"/><path class="cls-2" d="M53.49707,40.06445a.9723.9723,0,0,1-.49316-.13281l-6.48145-3.74219a.98792.98792,0,1,1,.98828-1.71093l6.48145,3.74218a.98819.98819,0,0,1-.49512,1.84375Z"/><path class="cls-2" d="M43.668,34.38965a.97236.97236,0,0,1-.49317-.13281L21.78223,21.9043c-.96485-.55664-1.12012-1.96778-.36231-3.28223.75977-1.31445,2.06055-1.88379,3.02442-1.32812L47.50879,30.6123a.98793.98793,0,1,1-.98828,1.71094l-22.918-13.23242a1.66356,1.66356,0,0,0-.68555,1.18652L44.16309,32.5459a.98819.98819,0,0,1-.49512,1.84375Z"/><path class="cls-2" d="M55.16992,37.166a.97231.97231,0,0,1-.49316-.13282l-4.80957-2.77734a.98793.98793,0,1,1,.98828-1.71094L55.665,35.32227a.98819.98819,0,0,1-.49512,1.84375Z"/><path class="cls-2" d="M53.80273,40.14453a1.58393,1.58393,0,0,1-.79882-.21191c-.96485-.55762-1.12012-1.96875-.36231-3.28321a3.39267,3.39267,0,0,1,1.19922-1.24511,1.69586,1.69586,0,0,1,2.666,1.53906,3.40743,3.40743,0,0,1-.47852,1.66113l-.001.001A2.75972,2.75972,0,0,1,53.80273,40.14453Zm1.36915-2.03418h0Z"/><path class="cls-4" d="M53.49805,39.23438a.15556.15556,0,0,1-.0791-.02149L46.9375,35.4707a.15791.15791,0,0,1-.05762-.21582.156.156,0,0,1,.21582-.05761l6.48145,3.74218a.15814.15814,0,0,1-.0791.29493Z"/><path class="cls-4" d="M43.669,33.55957a.15568.15568,0,0,1-.07911-.02148L22.19727,21.18555c-.5459-.31446-.57129-1.25879-.05762-2.14844s1.34473-1.33789,1.88965-1.02344L47.09375,31.33105a.158.158,0,1,1-.1582.27344L23.87109,18.28711c-.37793-.21582-1.04687.19824-1.458.9082-.41016.71192-.43653,1.498-.05762,1.7168L43.74805,33.26465a.15814.15814,0,0,1-.0791.29492Z"/><path class="cls-4" d="M55.1709,36.33594a.15556.15556,0,0,1-.0791-.02149l-4.80957-2.77734a.1579.1579,0,0,1-.05762-.21582.15579.15579,0,0,1,.21582-.05762L55.25,36.041a.15813.15813,0,0,1-.0791.29492Z"/><path class="cls-4" d="M53.80566,39.31348a.76212.76212,0,0,1-.38671-.10059c-.5459-.31445-.57129-1.25879-.05762-2.14844a2.55654,2.55654,0,0,1,.89453-.9414.87635.87635,0,0,1,1.4209.82031,2.567,2.567,0,0,1-.36817,1.24609h0A1.98649,1.98649,0,0,1,53.80566,39.31348Zm1.05664-3.05664a.92013.92013,0,0,0-.44921.14062,2.25151,2.25151,0,0,0-.77832.8252c-.41016.71191-.43653,1.498-.05762,1.71679.38086.21582,1.04687-.19824,1.458-.9082a2.24611,2.24611,0,0,0,.32519-1.08789.68477.68477,0,0,0-.26855-.62891A.46029.46029,0,0,0,54.8623,36.25684Zm.30958,1.85351h0Z"/><path class="cls-4" d="M32.1582,41.10254a.15722.15722,0,0,1-.10254-.03809,10.384,10.384,0,0,1-3.0791-4.18652.1567.1567,0,0,1,.0918-.20313.154.154,0,0,1,.20312.0918,10.08714,10.08714,0,0,0,2.98926,4.05762.15786.15786,0,0,1,.01758.22266A.15559.15559,0,0,1,32.1582,41.10254Z"/><path class="cls-4" d="M33.626,40.86914a.16.16,0,0,1-.09375-.03027c-2.58789-1.89844-3.95606-4.24219-3.95606-6.7793a7.201,7.201,0,0,1,1.23438-3.98242.15819.15819,0,1,1,.26562.17187,6.89848,6.89848,0,0,0-1.18359,3.81055c0,2.43262,1.32324,4.68848,3.82715,6.52344a.15827.15827,0,0,1-.09375.28613Z"/><path class="cls-4" d="M34.169,39.8457a.15638.15638,0,0,1-.09473-.03222c-2.209-1.65918-3.37695-3.64942-3.37695-5.75391a.1582.1582,0,0,1,.3164,0c0,2.001,1.124,3.90332,3.25,5.502a.15656.15656,0,0,1,.03125.22071A.15453.15453,0,0,1,34.169,39.8457Z"/><path class="cls-4" d="M35.24805,39.23438a.15609.15609,0,0,1-.08887-.02735,10.07363,10.07363,0,0,1-1.73145-1.47265q-.21972-.23584-.41113-.48243a.15786.15786,0,1,1,.24805-.19531c.124.15625.25488.31152.39551.46289a9.71553,9.71553,0,0,0,1.67675,1.42578.1582.1582,0,0,1-.08886.28907Z"/><path class="cls-4" d="M61.53027,37.3125a.16588.16588,0,0,1-.07129-.0166.15909.15909,0,0,1-.07031-.21289,6.56439,6.56439,0,0,0,.335-5.27637.15786.15786,0,0,1,.29688-.10742,6.90286,6.90286,0,0,1,.41992,2.36035,6.98782,6.98782,0,0,1-.76855,3.166A.16018.16018,0,0,1,61.53027,37.3125Z"/><path class="cls-4" d="M56.84375,40.50391a.15827.15827,0,0,1-.08008-.29493c2.7334-1.60351,4.23926-3.78808,4.23926-6.14941a5.759,5.759,0,0,0-.90918-3.06836.15828.15828,0,1,1,.26953-.166,6.07384,6.07384,0,0,1,.95606,3.23437c0,2.47852-1.56153,4.75977-4.39551,6.42285A.15907.15907,0,0,1,56.84375,40.50391Z"/><path class="cls-4" d="M59.625,36.11523a.166.166,0,0,1-.06445-.01367.15849.15849,0,0,1-.08008-.209,4.47394,4.47394,0,0,0,.40137-1.833,4.38922,4.38922,0,0,0-.21192-1.33984.158.158,0,0,1,.30078-.09668,4.68274,4.68274,0,0,1,.22754,1.43652,4.79815,4.79815,0,0,1-.42871,1.96191A.15867.15867,0,0,1,59.625,36.11523Z"/><path class="cls-4" d="M24.0293,48.78809l-.15821-.27344L55.0918,30.4873a.5286.5286,0,0,0,.2334-.33886,1.96226,1.96226,0,0,0-.29-1.377c-.41114-.71093-1.07715-1.127-1.458-.90918L22.35547,45.88965l-.1582-.27344L53.419,27.58887c.54882-.31739,1.376.13672,1.88964,1.02441a2.24665,2.24665,0,0,1,.32227,1.61719.83885.83885,0,0,1-.38086.53027Z"/><path class="cls-4" d="M23.6416,48.88867a1.98368,1.98368,0,0,1-1.502-1.124h0c-.51367-.88965-.48828-1.834.05762-2.14844.54492-.31641,1.376.13281,1.88964,1.02344.51368.88965.48829,1.834-.05761,2.14844A.76318.76318,0,0,1,23.6416,48.88867Zm-1.22851-1.28222c.41113.71,1.08007,1.125,1.458.9082.37891-.21875.35254-1.00488-.05761-1.7168-.41114-.71094-1.08008-1.12109-1.458-.9082-.37891.21875-.35254,1.00488.05762,1.7168Z"/><path class="cls-6" d="M30.05377,45.58722c.24041,1.018,1.28558,1.90155,3.20589,2.98356-4.5865.3086-5.3666,1.48025-4.21826,5.96319-3.54927-2.96953-5.85529-2.25611-8.11186,1.74878-.30861-4.58651-.56778-5.88156-5.05071-4.73323,2.96952-3.54927,2.771-4.9428-1.23385-7.19939,4.5865-.3086,5.3666-1.48025,4.21826-5.96319,3.54927,2.96954,4.9428,2.77106,7.19938-1.23383.16485,2.45.576,3.81389,1.60653,4.37787"/><path class="cls-2" d="M25.03516,54.07324a.988.988,0,0,1-.8877-.55371c-.2207-.45019-.88965-1.82031-1.43555-1.95312-.36328-.08887-1.06738.25976-2.10742,1.0332a.98864.98864,0,0,1-1.5166-1.13477c.44727-1.21679.58106-1.99511.39649-2.31347-.28126-.48633-1.78516-.74121-2.2793-.8252a.98841.98841,0,0,1-.26856-1.8623c.4502-.22071,1.82032-.89063,1.95313-1.43653.08691-.35742-.26074-1.0664-1.0332-2.10742a.98864.98864,0,0,1,1.13476-1.5166c1.21777.44824,1.99805.582,2.31348.39648.48633-.28125.74219-1.78515.82617-2.27929a.98816.98816,0,0,1,1.8623-.26758c.22071.45019.88965,1.82031,1.43555,1.95312q.542.126,2.10742-1.0332a.98864.98864,0,0,1,1.5166,1.13477c-.44726,1.21679-.58105,1.99414-.39648,2.3125.28125.48633,1.78516.74218,2.2793.82617a.98847.98847,0,0,1,.26855,1.8623c-.45117.22071-1.82129.89063-1.9541,1.43555-.08691.35742.26074,1.06641,1.0332,2.10742a.98863.98863,0,0,1-1.13476,1.5166c-1.2168-.44726-1.99707-.58105-2.3125-.3955-.48633.28125-.74219,1.78418-.82617,2.27832a.98983.98983,0,0,1-.834.8125A.97331.97331,0,0,1,25.03516,54.07324Zm-2.43164-4.49609a2.41322,2.41322,0,0,1,.57617.06836,2.88275,2.88275,0,0,1,1.502.98242,2.659,2.659,0,0,1,2.78223-1.70313,2.8287,2.8287,0,0,1-.13379-1.64746,2.87556,2.87556,0,0,1,.98242-1.50293,2.88016,2.88016,0,0,1-1.36719-1.16308,2.83468,2.83468,0,0,1-.33593-1.61914,2.833,2.833,0,0,1-1.64844.13476,2.88274,2.88274,0,0,1-1.502-.98242,2.88755,2.88755,0,0,1-1.16308,1.36621,2.83877,2.83877,0,0,1-1.61914.33594,2.82933,2.82933,0,0,1,.13379,1.64746,2.87558,2.87558,0,0,1-.98243,1.50293,2.87318,2.87318,0,0,1,1.36622,1.16309,2.83054,2.83054,0,0,1,.33691,1.62011A3.17676,3.17676,0,0,1,22.60352,49.57715Z"/><path class="cls-4" d="M25.03516,53.24316a.15765.15765,0,0,1-.14161-.08886c-.7539-1.541-1.3291-2.23438-1.98535-2.39453-.64648-.15625-1.46093.18066-2.79882,1.17285a.15785.15785,0,0,1-.24219-.18164c.57422-1.5625.67187-2.43555.33593-3.01563-.33886-.585-1.167-.94043-2.85839-1.22754a.15815.15815,0,0,1-.043-.29785c1.541-.75488,2.23535-1.33008,2.39551-1.98633.1582-.65136-.18165-1.46191-1.17383-2.79785a.1582.1582,0,0,1,0-.18945.15618.15618,0,0,1,.18164-.05371c1.56152.57324,2.43359.66894,3.01562.33593.585-.33886.94043-1.167,1.22852-2.85839a.15815.15815,0,0,1,.29785-.043c.75391,1.542,1.3291,2.23535,1.98535,2.39551.65625.15918,1.46094-.18067,2.79883-1.17286a.15785.15785,0,0,1,.24219.18164c-.57422,1.56153-.67188,2.43457-.33594,3.01465.33887.585,1.167.94043,2.8584,1.22852a.15815.15815,0,0,1,.043.29785c-1.541.75391-2.23535,1.3291-2.39551,1.98535-.1582.65137.18164,1.46192,1.17285,2.79883a.15675.15675,0,0,1,0,.18848.15962.15962,0,0,1-.18164.05371c-1.56152-.57422-2.43652-.67188-3.01562-.335-.584.33886-.94043,1.166-1.22754,2.85742a.15859.15859,0,0,1-.13379.12988Zm-2.44043-2.83691a1.64177,1.64177,0,0,1,.38867.0459c.69922.1709,1.27246.78223,1.98047,2.14062.29687-1.5039.67383-2.252,1.29687-2.6123.60449-.34961,1.43555-.31152,2.80664.14453-.82519-1.18652-1.0957-1.97363-.93066-2.65137.16992-.70019.78125-1.27343,2.14062-1.98144-1.5039-.29688-2.25195-.67383-2.61328-1.29688-.34961-.60449-.31152-1.43554.14551-2.80664-1.18555.82422-1.96777,1.09571-2.65234.93164-.69922-.1709-1.27246-.78222-1.98047-2.1416-.29688,1.50391-.67383,2.252-1.29688,2.61328-.60449.35156-1.43554.31153-2.80761-.14551.82519,1.18653,1.09668,1.97364.93164,2.65137-.16993.7002-.78125,1.27344-2.14063,1.98242,1.50391.2959,2.252.67285,2.61328,1.2959.34961.60449.31153,1.43555-.14551,2.80762A4.26265,4.26265,0,0,1,22.59473,50.40625Z"/><path class="cls-2" d="M22.27637,38.48828a.988.988,0,0,1-.94043-.68555,15.6257,15.6257,0,0,1-.03516-9.87207A15.19608,15.19608,0,0,1,25.96484,21.167a.9887.9887,0,1,1,1.2793,1.50781,13.2514,13.2514,0,0,0-4.07226,5.89063,13.68189,13.68189,0,0,0,.04492,8.63184.98707.98707,0,0,1-.6377,1.24316A.96083.96083,0,0,1,22.27637,38.48828Z"/><path class="cls-4" d="M26.418,22.24023a.15666.15666,0,0,1-.11817-.05273.15967.15967,0,0,1,.0127-.22363c.0625-.05567.125-.10938.18945-.16407a.16269.16269,0,0,1,.22364.01856.16.16,0,0,1-.01856.22363c-.0625.05274-.123.10449-.18359.15821A.16174.16174,0,0,1,26.418,22.24023Z"/><path class="cls-4" d="M21.91406,36.35352a.15914.15914,0,0,1-.15429-.12207c-.03614-.15333-.07032-.30957-.10254-.46583a.15881.15881,0,0,1,.124-.18652.15607.15607,0,0,1,.18652.124c.03028.15235.06446.30469.10059.45606a.15939.15939,0,0,1-.11816.19043A.15175.15175,0,0,1,21.91406,36.35352ZM21.65234,34.96a.15765.15765,0,0,1-.15625-.13574c-.02343-.1582-.043-.31543-.06054-.47363a.15809.15809,0,0,1,.13965-.17481.15413.15413,0,0,1,.1748.13965c.01758.1543.03711.30957.05859.46387a.157.157,0,0,1-.13379.17871Zm-.13379-1.41016a.15858.15858,0,0,1-.1582-.15039c-.00781-.16015-.01269-.31933-.01465-.47851a.15882.15882,0,0,1,.15625-.16016.14721.14721,0,0,1,.16016.15625c.002.15528.00684.31055.01465.4668a.15962.15962,0,0,1-.15039.166Zm.00293-1.418H21.5127a.159.159,0,0,1-.14942-.167c.00879-.1582.02051-.3164.03418-.47558a.15055.15055,0,0,1,.1709-.14356.15713.15713,0,0,1,.14355.1709c-.01367.15528-.02343.31152-.03222.46582A.15913.15913,0,0,1,21.52148,32.13184Zm.14649-1.40918-.02539-.002a.15935.15935,0,0,1-.13086-.18164c.02539-.15625.05273-.31347.082-.46972a.158.158,0,0,1,.31055.05859c-.0293.1543-.05469.30762-.08008.46191A.15816.15816,0,0,1,21.668,30.72266ZM21.957,29.335a.187.187,0,0,1-.04-.00488.15922.15922,0,0,1-.11328-.19336c.041-.1543.084-.30664.12988-.46a.15789.15789,0,1,1,.30274.08984c-.04395.14942-.08692.29981-.126.4502A.15833.15833,0,0,1,21.957,29.335Zm.43067-1.35058a.141.141,0,0,1-.05567-.01075.158.158,0,0,1-.09277-.20312q.085-.22413.17578-.44434a.16116.16116,0,0,1,.207-.08594.15913.15913,0,0,1,.08594.207c-.06055.14453-.11719.28906-.17285.43457A.15748.15748,0,0,1,22.3877,27.98438Zm.56542-1.29981a.16492.16492,0,0,1-.07031-.0166.15807.15807,0,0,1-.07129-.21192q.10693-.21386.22071-.42382a.15441.15441,0,0,1,.21386-.06348.15685.15685,0,0,1,.06348.21387q-.11133.20653-.21484.41406A.15929.15929,0,0,1,22.95312,26.68457Zm.69629-1.2334a.15527.15527,0,0,1-.084-.02441.1571.1571,0,0,1-.04981-.21778q.12746-.20361.2627-.40039a.15818.15818,0,0,1,.26172.17774q-.13184.19335-.25684.39062A.15779.15779,0,0,1,23.64941,25.45117Zm.81739-1.1582a.15811.15811,0,0,1-.125-.25586c.09765-.125.19922-.249.30175-.37109a.158.158,0,1,1,.24219.20312c-.10058.12012-.19824.24024-.29394.36328A.15808.15808,0,0,1,24.4668,24.293Zm.92773-1.07129a.15824.15824,0,0,1-.11426-.2666c.10938-.11621.22071-.22949.334-.3418a.15813.15813,0,0,1,.22265.22461q-.167.16552-.32812.334A.154.154,0,0,1,25.39453,23.22168Z"/><path class="cls-4" d="M22.22852,37.50684a.15846.15846,0,0,1-.15137-.11133l-.07129-.23731a.15789.15789,0,1,1,.30273-.08984l.07129.2334a.159.159,0,0,1-.10449.19824A.15576.15576,0,0,1,22.22852,37.50684Z"/><path class="cls-4" d="M22.2334,37.54492a.20017.20017,0,0,1-.10254-.02832l-1.333-.80957a.19763.19763,0,0,1,.20508-.33789l1.15137.69922.61328-1.19922a.19741.19741,0,1,1,.35156.17969l-.71,1.38867a.19932.19932,0,0,1-.12207.10059A.20274.20274,0,0,1,22.2334,37.54492Z"/></g></g></svg>