<svg xmlns="http://www.w3.org/2000/svg" viewBox="0 0 75 75"><g data-name="レイヤー 2"><path d="M8.362 0h58.276A8.362 8.362 0 0175 8.362v58.276A8.362 8.362 0 0166.638 75H8.36A8.361 8.361 0 010 66.639V8.362A8.362 8.362 0 018.362 0z" fill="none"/><rect x="5" y="5" width="65" height="65" rx="3.362" fill="#fff"/><path d="M66.638 70.125H8.362a3.49 3.49 0 01-3.487-3.486V8.362a3.491 3.491 0 013.487-3.487h58.276a3.491 3.491 0 013.487 3.487V66.64a3.49 3.49 0 01-3.487 3.486zm-58.276-65a3.24 3.24 0 00-3.237 3.237V66.64a3.24 3.24 0 003.237 3.236h58.276a3.24 3.24 0 003.237-3.236V8.362a3.24 3.24 0 00-3.237-3.237z" fill="#666"/><path d="M46.69 20.265a3.67 3.67 0 013.675 3.659v16.173a7.062 7.062 0 01-1.978 4.914l-8.268 8.608a3.65 3.65 0 01-2.62 1.117V28.242l2.852-2.97 3.726-3.879a3.553 3.553 0 012.613-1.128m0-3.954a7.52 7.52 0 00-5.465 2.344l-3.725 3.88-3.726-3.88a7.52 7.52 0 00-5.464-2.344 7.643 7.643 0 00-5.228 2.06 7.508 7.508 0 00-2.4 5.553v16.173a10.997 10.997 0 003.079 7.652l8.268 8.609a7.586 7.586 0 0010.942 0l8.268-8.609a10.997 10.997 0 003.08-7.652V23.924a7.629 7.629 0 00-7.63-7.613zm17.84 49.132a.642.642 0 11.642.655.649.649 0 01-.642-.655m-.533 0a1.175 1.175 0 101.175-1.17 1.16 1.16 0 00-1.175 1.17m-2.48.655a.655.655 0 11.642-.655.65.65 0 01-.642.655m0-1.825a1.17 1.17 0 101.175 1.17 1.16 1.16 0 00-1.175-1.17m-2.005.642h.607v-.543h-.607v-.732h-.555v1.832a1.412 1.412 0 00.108.553 1.147 1.147 0 00.691.613l.275-.465a.922.922 0 01-.457-.393.833.833 0 01-.061-.322l-.001-.178zm3.472-1.272a.36.36 0 00.721 0 .36.36 0 10-.721 0m.089.729h.543v2.186h-.543zm3.211 2.035h-.077v-.026h.183v.026h-.076v.207h-.03v-.207zm.229.207l-.063-.189v.189h-.031v-.233h.043l.066.198.068-.198h.042v.233h-.031v-.189l-.063.189h-.031z" fill="#00afca"/></g></svg>