<svg xmlns="http://www.w3.org/2000/svg" viewBox="0 0 75 75"><defs><style>.cls-4{fill:#00afca}</style></defs><g id="レイヤー_2" data-name="レイヤー 2"><g id="レイヤー_2-2" data-name="レイヤー 2"><g id="ARC"><path d="M8.362 0h58.276A8.362 8.362 0 0175 8.362v58.276A8.362 8.362 0 0166.638 75H8.362A8.362 8.362 0 010 66.638V8.362A8.362 8.362 0 018.362 0z" fill="none"/><rect x="5" y="5" width="65" height="65" rx="3.362" fill="#fff"/><path d="M66.638 70.125H8.362a3.491 3.491 0 01-3.487-3.487V8.362a3.49 3.49 0 013.487-3.487h58.276a3.49 3.49 0 013.487 3.487v58.276a3.491 3.491 0 01-3.487 3.487zm-58.276-65a3.24 3.24 0 00-3.237 3.237v58.276a3.24 3.24 0 003.237 3.237h58.276a3.24 3.24 0 003.237-3.237V8.362a3.24 3.24 0 00-3.237-3.237z" fill="#666"/></g><path class="cls-4" d="M58.408 34.497a.238.238 0 00-.392.21 4.737 4.737 0 01.013 1.316c-.677 5.452-10.393 8.83-23.128 8.245a55.047 55.047 0 01-10.823-1.434.236.236 0 00-.2.418c3.448 2.637 9.775 4.407 17.01 4.412 10.926.008 19.787-4.012 19.79-8.98a5.642 5.642 0 00-2.27-4.187z"/><path class="cls-4" d="M41.38 51.265c-10.859.865-19.988-2.525-20.39-7.572a4.391 4.391 0 01.07-1.197.236.236 0 00-.42-.186c-1.509 1.94-2.166 3.967-1.71 5.862 1.283 5.323 10.855 7.582 21.38 5.046a36.909 36.909 0 006.755-2.32.237.237 0 00-.15-.447 41.265 41.265 0 01-5.535.814zM59.666 27.393c-.698-4.577-9.782-7.864-20.855-6.223-8.002 1.182-14.054 4.995-13.528 8.45.447 2.952 5.572 4.707 12.05 4.39a18.05 18.05 0 001.387-.155c4.26-.648 7.48-2.686 7.2-4.553-.18-1.182-1.722-2.01-3.91-2.296a.238.238 0 00-.164.434 1.25 1.25 0 01.679 1.006c.092.994-1.725 1.98-4.064 2.201a7.861 7.861 0 01-3.041-.242c-.994-.339-1.612-.827-1.708-1.441-.155-1.024 1.207-2.16 3.425-3.07a18.238 18.238 0 019.727-1.17c3.48.522 5.827 1.734 6.09 3.45.463 3.05-5.843 6.541-14.134 7.857a4.855 4.855 0 01-.26.033c-10.479 1.429-19.467-1.023-20.072-5.471a3.619 3.619 0 01.043-1.196h-.003l.02-.067a4.408 4.408 0 01.259-.796 10.134 10.134 0 011.26-2.49.238.238 0 00-.318-.342c-3.695 2.368-5.775 5.162-5.38 7.848.806 5.471 11.72 8.466 24.192 6.628 12.438-1.892 21.89-7.614 21.105-12.785zM64.53 65.443a.642.642 0 11.642.654.649.649 0 01-.642-.654m-.533 0a1.175 1.175 0 101.175-1.17 1.16 1.16 0 00-1.175 1.17M61.517 66.097a.655.655 0 11.642-.654.65.65 0 01-.642.654m0-1.824a1.17 1.17 0 101.175 1.17 1.16 1.16 0 00-1.175-1.17M59.512 64.915h.607v-.544h-.607v-.732h-.555v1.832a1.412 1.412 0 00.108.553 1.147 1.147 0 00.691.614l.275-.465a.922.922 0 01-.457-.393.833.833 0 01-.061-.322l-.001-.178zM62.984 63.642a.36.36 0 00.721 0 .36.36 0 10-.721 0M63.073 64.371h.543v2.186h-.543zM66.284 66.407h-.077v-.027h.183v.027h-.076v.206h-.03v-.206zM66.513 66.613l-.063-.189v.189h-.031v-.233h.043l.066.198.068-.198h.042v.233h-.031v-.189l-.063.189h-.031z"/></g></g></svg>