<svg xmlns="http://www.w3.org/2000/svg" viewBox="0 0 75 75"><defs><style>.cls-2{fill:#f0f8fa}.cls-4{fill:#00afca}</style></defs><g id="レイヤー_2" data-name="レイヤー 2"><g id="レイヤー_2-2" data-name="レイヤー 2"><rect width="75" height="75" rx="8.362" transform="rotate(90 37.5 37.5)" fill="none"/><rect class="cls-2" x="5" y="5" width="65" height="65" rx="3.362" transform="rotate(90 37.5 37.5)"/><path d="M66.638 70.125H8.362a3.491 3.491 0 01-3.487-3.487V8.362a3.491 3.491 0 013.487-3.487h58.276a3.491 3.491 0 013.487 3.487v58.276a3.491 3.491 0 01-3.487 3.487zm-58.276-65a3.24 3.24 0 00-3.237 3.237v58.276a3.24 3.24 0 003.237 3.237h58.276a3.24 3.24 0 003.237-3.237V8.362a3.24 3.24 0 00-3.237-3.237z" fill="#666"/><path class="cls-4" d="M25.974 11.476l1.669-1.028a.123.123 0 01.186.083l.361 1.926a.123.123 0 01-.17.136l-2.031-.9a.123.123 0 01-.015-.217z"/><rect class="cls-4" x="23.098" y="13.897" width="5.825" height=".978" rx=".123" transform="rotate(-66.125 26.011 14.386)"/><path class="cls-4" d="M23.82 13.015l-1.956-.102a.123.123 0 01-.107-.173l.796-1.791a.123.123 0 01.218-.014l1.161 1.892a.123.123 0 01-.111.188z"/><rect class="cls-4" x="22.722" y="10.791" width="3.216" height=".978" rx=".123" transform="rotate(-31.532 24.33 11.28)"/><rect class="cls-4" x="24.19" y="11.934" width=".978" height="5.838" rx=".123" transform="rotate(-68.422 24.679 14.853)"/><path class="cls-2" d="M22.213 13.362a.123.123 0 01.046.008l5.2 2.057a.123.123 0 01.07.16l-.27.68a.123.123 0 01-.16.07l-5.2-2.057a.123.123 0 01-.07-.16l.27-.68a.124.124 0 01.114-.079m0-.338a.46.46 0 00-.43.291l-.269.681a.463.463 0 00.26.6l5.2 2.056.06.024.11.009a.46.46 0 00.43-.292l.27-.68a.463.463 0 00-.26-.6l-5.2-2.057-.06-.024-.11-.008z"/><path class="cls-4" d="M27.591 14.702l1.094 1.626a.123.123 0 01-.075.19l-1.91.438a.123.123 0 01-.142-.166l.816-2.065a.123.123 0 01.217-.023zM32.695 15.916l-.237-.606c1.342-.144 2.077-.807 2.226-1.758h-3.176v-.638h4.024a3.004 3.004 0 01-2.837 3.002zm-.643-3.593v-.637h2.92v.637zM38.862 13.403a6.393 6.393 0 00-1.5-.967l.421-.586a7.495 7.495 0 011.552.91zm-1.12 2.4l-.227-.689a3.958 3.958 0 003.357-2.426l.54.504a4.563 4.563 0 01-3.67 2.611zM43.77 13.619a6.396 6.396 0 01-.698.735l-.494-.453a6.25 6.25 0 001.62-2.328h.719a5.761 5.761 0 01-.18.468h1.845a4.41 4.41 0 01-2.806 3.9l-.345-.529a3.476 3.476 0 001.517-1.028 6.46 6.46 0 00-1.178-.765zm1.553.236a3.758 3.758 0 00.452-1.218h-1.336a7.134 7.134 0 01-.303.488 8.52 8.52 0 011.187.73zm.894-1.86a2.717 2.717 0 00-.344-.68l.37-.184a2.536 2.536 0 01.38.688zm.75.02a2.402 2.402 0 00-.334-.71L47 11.11a2.59 2.59 0 01.374.73zM48.17 15.741l-.092-.658c.144-.01.293-.015.436-.026a36.988 36.988 0 001.11-3.428h.782a43.375 43.375 0 01-1.126 3.377 87.58 87.58 0 001.928-.159 5.377 5.377 0 00-.669-1.033l.55-.33a6.836 6.836 0 011.219 2.231l-.684.227q-.062-.24-.154-.494c-1.1.118-2.21.221-3.3.293zM11.358 63.24a1.745 1.745 0 01-.747-.146l.096-.27a1.475 1.475 0 00.647.139.589.589 0 00.666-.61c0-.433-.37-.576-.748-.576a2.814 2.814 0 00-.533.05l.057-1.367h1.388v.274h-1.1l-.04.787a2.131 2.131 0 01.292-.021c.528 0 1.015.27 1.015.836a.898.898 0 01-.993.904zM14.372 62.23l-.182.22a8.617 8.617 0 00-.298-.53v1.558H13.6v-1.44a5.04 5.04 0 01-.42.821l-.207-.213a4.374 4.374 0 00.616-1.203h-.566v-.26h.577v-.495a3.864 3.864 0 01-.481.085l-.107-.242a3.646 3.646 0 001.193-.327l.163.22a3.328 3.328 0 01-.476.186v.573h.47v.26h-.47v.146c.174.22.37.48.48.64zm.59-1.385a2.89 2.89 0 01-.412 1.11l-.253-.114A2.555 2.555 0 0014.7 60.8zm1.165 1.157a2.253 2.253 0 01-1.577 1.473l-.228-.22a1.98 1.98 0 001.52-1.34zm-.627-1.798v1.83c0 .163-.046.256-.196.28a2.392 2.392 0 01-.405.008l-.046-.267a2.646 2.646 0 00.28.003c.057-.003.076-.028.076-.074v-1.78zm.477.555a4.86 4.86 0 01.356 1.057l-.281.075a4.708 4.708 0 00-.328-1.06zM17.037 60.31h1.01v1.214h-1.01v1.954h-.292v-3.167h.292zm.726.499v-.285h-.726v.285zm-.726.2v.295h.726v-.296zm1.865.779v1.228h-1.395v-1.228zm-1.128.516h.85V62h-.85zm0 .498h.85v-.317h-.85zm1.786-2.491h.125v2.797c0 .207-.053.328-.253.36a3.595 3.595 0 01-.488.003l-.05-.28a3.712 3.712 0 00.378.006c.092-.007.117-.05.117-.131v-1.542h-1.035v-1.213h1.206zm-.17.498v-.285h-.748v.285zm-.748.2v.295h.747v-.296zM20.872 63.496a4.392 4.392 0 00-.718-.711l.188-.178a4.544 4.544 0 01.744.7zM23.104 63.308a7.746 7.746 0 00-1.456-1.246l.189-.22a7.611 7.611 0 01.754.558 3.13 3.13 0 001.157-1.402h-2.452v-.278h2.9a3.707 3.707 0 01-1.373 1.88c.188.17.366.337.516.494zM24.783 62.286a5.769 5.769 0 00-.32-.925l.246-.1a7.306 7.306 0 01.348.925zm.239 1.107l-.15-.242a1.877 1.877 0 001.47-1.925h.292a2.16 2.16 0 01-1.612 2.167zm.477-1.213a5.178 5.178 0 00-.31-.922l.25-.1a6.994 6.994 0 01.334.925zM27.38 63.365v-3.04h.314v1.085a8.733 8.733 0 011.651.776l-.174.278a7.438 7.438 0 00-1.477-.73v1.63zM31.42 63.297l-.114-.256a1.153 1.153 0 001.089-1.185.958.958 0 00-.968-.983c-.146 1.267-.434 2.171-.933 2.171-.374 0-.669-.484-.669-.996a1.486 1.486 0 011.52-1.442 1.225 1.225 0 011.356 1.242 1.437 1.437 0 01-1.281 1.449zm-1.303-1.256c0 .362.178.68.37.68.242 0 .506-.666.626-1.834a1.172 1.172 0 00-.996 1.154zM34.44 63.016V60.2h.31v1.097h1.292v.281H34.75v1.438h1.559v.28h-3.246v-.28zM38.59 62.126c.01.114.013.245.013.399v.28h-.288v-.277c0-.1 0-.185-.003-.26-.36.196-.599.4-.599.577 0 .206.21.281.727.281a7.967 7.967 0 00.897-.05v.27c-.242.022-.588.037-.894.037-.712 0-1.018-.157-1.018-.517 0-.32.35-.619.854-.886-.039-.196-.113-.253-.234-.253a1.252 1.252 0 00-.68.285 2.986 2.986 0 00-.477.466l-.22-.188a3.732 3.732 0 00.793-1.196h-.623v-.253h.72a4.022 4.022 0 00.138-.537h.313a4.546 4.546 0 01-.139.537h1.082v.253h-1.171a3.115 3.115 0 01-.295.59 1.277 1.277 0 01.64-.216c.214 0 .35.096.42.38.278-.128.588-.249.901-.36l.11.268a8.437 8.437 0 00-.968.37zM40.556 63.311v.167h-.299v-2.783h.904a3.427 3.427 0 00.178-.498l.35.06a6.534 6.534 0 01-.204.438h1.232v2.783h-.31v-.167zm1.851-1.843v-.499h-1.85v.499zm0 .783v-.517h-1.85v.517zm0 .79v-.527h-1.85v.527zM44.218 63.037v-.278h-.716v-.21h.716v-.224h-.69v-1.117h.69v-.21h-.815v-.214h.815v-.203a6.633 6.633 0 01-.673.04l-.093-.214a5.93 5.93 0 001.61-.203l.142.196a4.996 4.996 0 01-.705.146v.238h.772v.214H44.5v.21h.705v1.117h-.705v.224h.701v.21H44.5v.257c.249-.018.495-.036.687-.054l.003.164a3.6 3.6 0 00.474-1.836h-.349v-.264h.36q.01-.4.01-.822h.278c0 .278-.004.555-.014.822h.658a8.05 8.05 0 01-.203 2.378.32.32 0 01-.224.074c-.079 0-.25 0-.35-.007l-.03-.27a2.868 2.868 0 00.298.007.097.097 0 00.082-.029 7.819 7.819 0 00.138-1.89h-.38a3.446 3.446 0 01-.666 2.193l-.267-.128c.054-.057.103-.117.15-.178-.51.053-1.285.128-1.723.164l-.043-.25c.207-.01.513-.031.83-.053zm-.424-1.363h.424v-.267h-.424zm0 .452h.424v-.278h-.424zm1.132-.452v-.267h-.427v.267zm0 .452v-.278h-.427v.278zM49.281 60.966a.705.705 0 00-.313.131 1.562 1.562 0 00-.765 1.203c0 .484.427.734 1.253.74l-.05.285c-1.014-.014-1.506-.412-1.506-1.01a1.738 1.738 0 01.79-1.346l-1.704.072-.015-.282 2.827-.114.01.282a5.56 5.56 0 00-.527.039zm.125 1.007a2.209 2.209 0 00-.256-.584l.17-.085a2.281 2.281 0 01.278.59zm.434-.178a2.11 2.11 0 00-.256-.566l.174-.089a2.591 2.591 0 01.274.577zM51.786 63.005v-1.363H50.32v-.27h1.463v-.456h-1.129v-.27h1.129V60.2h.31v.445h1.163v.27h-1.163v.456h1.473v.271h-1.473v.512h1.178v.275h-1.178v.669a2.017 2.017 0 00.37.035c.16.004.96 0 1.135-.007l-.057.289c-.174.003-.954.007-1.132.003a1.47 1.47 0 01-1.37-.708 2.514 2.514 0 01-.484.765l-.274-.157a2.33 2.33 0 00.683-1.53l.288.043a3.076 3.076 0 01-.096.534 1.294 1.294 0 00.63.64zM54.526 62.304h-.295a3.577 3.577 0 01-.09-.812 5.896 5.896 0 01.097-.971h.298a5.557 5.557 0 00-.096.96 2.477 2.477 0 00.04.463c.124-.152.295-.352.455-.544l.146.25c-.185.21-.38.44-.555.654zm.473 1.118l-.181-.242a1.576 1.576 0 001.064-1.738c0-.21-.014-.608-.046-.989h.31c.035.374.05.751.05.986a1.859 1.859 0 01-1.197 1.983zM57.276 63.233v.182h-.28v-2.987h2.846v2.987h-.295v-.182zm2.271-.274v-2.257h-2.27v2.257zm-.463-1.798v1.328h-1.356v-1.328zm-1.089 1.072h.815v-.815h-.815zM61.706 63.404c-.505 0-.822-.21-.822-.516 0-.25.232-.445.58-.445a.777.777 0 01.755.62.647.647 0 00.463-.592c0-.349-.288-.583-.812-.583a1.461 1.461 0 00-.63.135 4.019 4.019 0 00-.833.608l-.185-.22c.242-.196.595-.474.833-.694.253-.232.719-.655.993-.93h-1.352v-.266h1.808v.235c-.32.306-.805.736-1.04.964a1.37 1.37 0 01.474-.085c.673 0 1.036.335 1.036.83 0 .55-.524.939-1.268.939zm-.252-.723c-.203 0-.31.093-.31.217 0 .16.196.26.53.26a1.475 1.475 0 00.289-.025.544.544 0 00-.509-.452zM63.994 63.503a.43.43 0 11.434-.423.435.435 0 01-.434.423zm0-.712a.285.285 0 10.285.289.284.284 0 00-.285-.289zM33.196 59.055l-.048-.182c.709-.06 1.031-.285 1.031-.643a.375.375 0 00-.412-.398 6.597 6.597 0 00-.89.097l-.037-.192a6.758 6.758 0 01.939-.097.556.556 0 01.614.59c0 .47-.437.77-1.197.825zm.881-1.669a4.197 4.197 0 00-.893-.225l.045-.183a4.567 4.567 0 01.91.228zM36.227 59.006c-.354 0-.418-.05-.463-.224-.014-.052-.028-.12-.042-.177-.029-.114-.057-.16-.133-.16a.372.372 0 00-.233.105c-.042.036-.097.088-.154.14-.118.114-.215.214-.376.375l-.143-.136c.334-.322.82-.82 1.157-1.173h-1.053v-.18h1.35v.144l-.56.581a.264.264 0 01.11-.026c.108 0 .17.062.205.214.015.054.031.128.04.17.041.16.065.169.318.169.088 0 .202-.005.32-.017v.18a3.626 3.626 0 01-.343.015zm-.195-1.658a4.042 4.042 0 00-.863-.206l.043-.18a4.11 4.11 0 01.884.208zM41.38 59.024c-.41 0-.652-.187-.652-.67v-1.302h.206v1.284c0 .373.157.491.455.491a.775.775 0 00.7-.538l.163.112a.95.95 0 01-.872.623zm.292-1.294a1.577 1.577 0 00-.176-.397l.119-.061a1.524 1.524 0 01.19.405zm.308-.114a1.48 1.48 0 00-.176-.391l.119-.062a1.61 1.61 0 01.19.398zM43.553 58.993c-.612 0-.915-.13-.915-.453 0-.225.22-.443.564-.64a2.228 2.228 0 01-.164-.894h.21a2.258 2.258 0 00.125.802 5.916 5.916 0 01.732-.297l.074.188c-.778.249-1.335.552-1.335.827 0 .204.197.28.71.28.214 0 .48-.012.677-.031v.192a8.454 8.454 0 01-.678.026zm.38-1.588a1.419 1.419 0 00-.171-.387l.116-.06a1.61 1.61 0 01.182.395zm.303-.079a1.36 1.36 0 00-.169-.376l.114-.06a1.504 1.504 0 01.183.384zM45.003 59.055l-.048-.183c.71-.06 1.032-.284 1.032-.642a.375.375 0 00-.413-.399 6.597 6.597 0 00-.889.098l-.038-.193a6.756 6.756 0 01.939-.096.556.556 0 01.614.59c0 .469-.436.77-1.197.825zm.882-1.67a4.197 4.197 0 00-.894-.225l.045-.182a4.567 4.567 0 01.91.228zM50.362 58.97a4.285 4.285 0 01-.075-.897 8.469 8.469 0 01.061-.962h.202a7.883 7.883 0 00-.064.965 4.23 4.23 0 00.071.855zm1.69-.138a1.335 1.335 0 00-.34-.235c-.015.285-.131.396-.408.396-.28 0-.484-.13-.484-.334 0-.194.195-.323.476-.323a1.145 1.145 0 01.224.022c-.003-.166-.008-.398-.01-.662h-.72v-.173h.718c-.003-.14-.003-.284-.003-.431h.192c0 .144 0 .289.003.431h.424v.173h-.422l.012.716a1.497 1.497 0 01.453.28zm-.767-.334c-.18 0-.294.059-.294.16 0 .11.126.171.298.171.166 0 .233-.066.233-.3a.895.895 0 00-.237-.031zM53.263 59.024c-.412 0-.657-.19-.657-.676v-1.306h.212v1.292c0 .372.156.49.457.49a.772.772 0 00.7-.54l.165.114a.958.958 0 01-.877.626zM58.082 58.931a1.987 1.987 0 00-.585-.327c-.003.3-.098.448-.409.448-.308 0-.523-.142-.523-.343s.206-.337.562-.337a1.263 1.263 0 01.166.01 32.896 32.896 0 01-.008-.325h-.69v-.178h.688a14.558 14.558 0 01-.005-.33h-.73v-.175h.728c-.003-.126-.003-.256-.003-.391h.202c0 .135 0 .265.003.39h.709v.176h-.707c0 .116.002.226.005.33h.652v.178h-.65c.005.14.007.263.007.365a2.074 2.074 0 01.7.358zm-.98-.39c-.224 0-.357.066-.357.17 0 .107.135.17.325.17.182 0 .225-.06.225-.296v-.03a1.29 1.29 0 00-.192-.015zM58.96 59.05v-.742a9.606 9.606 0 00-.343.42l-.15-.136c.187-.234.349-.424.493-.576v-.298h-.455v-.176h.455v-.545h.2v.825a1.078 1.078 0 01.74-.342.631.631 0 01.623.695c0 .45-.33.726-.99.8l-.054-.181c.586-.064.84-.273.84-.626a.449.449 0 00-.434-.493c-.204 0-.415.102-.726.417v.958zM13.672 57.687a3.72 3.72 0 00-.503-.156 2 2 0 01.128.7.708.708 0 01-.73.78.652.652 0 01-.692-.703 1.69 1.69 0 01.28-.894h-.505v-.17h.74v.135a1.588 1.588 0 00-.328.922.474.474 0 00.503.526c.336 0 .545-.23.545-.618a1.923 1.923 0 00-.161-.761l.097-.126c.26.064.498.138.688.2zm-.36-.38a1.623 1.623 0 00-.178-.379l.116-.059a1.654 1.654 0 01.19.387zm.317-.032a1.449 1.449 0 00-.173-.375l.116-.062a1.62 1.62 0 01.185.385zM14.885 58.958a1.47 1.47 0 00-.494-.294c-.004.287-.094.389-.362.389-.264 0-.434-.136-.434-.301 0-.174.175-.297.467-.297a.962.962 0 01.147.01c-.007-.242-.022-.602-.022-1.062h.183l.002.4h.62v.164h-.615c.005.216.01.396.012.533a1.64 1.64 0 01.595.325zm-.835-.349c-.192 0-.292.055-.292.145 0 .085.107.145.256.145.164 0 .197-.057.197-.278a1.171 1.171 0 00-.161-.012zM15.563 59.055l-.047-.182c.709-.06 1.031-.285 1.031-.643a.375.375 0 00-.412-.398 6.601 6.601 0 00-.89.097l-.037-.192a6.752 6.752 0 01.939-.097.556.556 0 01.614.59c0 .47-.437.77-1.198.825zm.882-1.669a4.19 4.19 0 00-.894-.225l.046-.183a4.56 4.56 0 01.91.228zM17.677 57.516c.055-.002.109-.002.157-.002.353 0 .483.156.483.52a1.693 1.693 0 01-.156.794.307.307 0 01-.32.175.921.921 0 01-.34-.074l.024-.17a.876.876 0 00.29.062.167.167 0 00.165-.081 1.43 1.43 0 00.135-.704c0-.244-.08-.344-.31-.344-.05 0-.107 0-.168.002a4.634 4.634 0 01-.508 1.312l-.175-.095a4.093 4.093 0 00.479-1.212c-.147.002-.308.01-.477.017l-.012-.178.527-.02a4.454 4.454 0 00.073-.526h.209a5.276 5.276 0 01-.076.524zm1.09.977a1.69 1.69 0 00-.324-1.007l.158-.097a1.855 1.855 0 01.373 1.104zM20.407 59.003a.385.385 0 01-.422-.353c-.016-.102-.028-.202-.038-.27-.017-.105-.05-.162-.128-.162a.522.522 0 00-.315.242 1.264 1.264 0 00-.1.18c-.059.126-.104.22-.177.387l-.176-.071c.216-.517.517-1.252.773-1.887l.192.064c-.188.448-.332.78-.441 1.06a.459.459 0 01.303-.164c.154 0 .223.106.252.265l.045.287c.026.18.11.237.241.237.204 0 .377-.23.441-.687l.171.064c-.071.488-.28.808-.62.808zM49.015 31.751a.16.16 0 01-.123-.059l-6.82-8.44a.159.159 0 01.098-.255l10.72-1.688a.16.16 0 01.147.057l6.818 8.439a.157.157 0 01.024.158.161.161 0 01-.123.1l-10.717 1.686a.137.137 0 01-.024.002zm-6.526-8.484l6.591 8.155 10.358-1.63-6.59-8.156z"/><path class="cls-4" d="M46.068 39.406a.158.158 0 01-.147-.215l2.946-7.655.295.113-2.848 7.4 10.356-1.632 2.914-7.567.295.113-2.946 7.653a.159.159 0 01-.123.1l-10.717 1.688a.138.138 0 01-.025.002z"/><path class="cls-4" transform="rotate(-38.946 42.683 35.06)" d="M42.525 29.674h.317v10.771h-.317z"/><path class="cls-4" transform="rotate(-68.988 41.435 25.126)" d="M39.32 24.968h4.229v.316H39.32z"/><path class="cls-4" d="M27.368 38.223a.158.158 0 01-.079-.022l-9.274-5.353a.157.157 0 01-.08-.137.16.16 0 01.08-.139l9.274-5.356a.158.158 0 01.158 0l9.276 5.356a.158.158 0 010 .274L27.447 38.2a.158.158 0 01-.079.022zm-8.96-5.513l8.96 5.172 8.96-5.173-8.96-5.173z"/><path class="cls-4" d="M17.936 32.711h.316v7.391h-.316zM27.368 46.32a.158.158 0 01-.079-.022l-7.273-4.2.158-.274 7.036 4.063v-7.823h.316v8.097a.159.159 0 01-.158.158z"/><path class="cls-4" d="M27.447 46.298l-.158-.274 9.196-5.31v-8.005h.317v8.096a.157.157 0 01-.08.137zM36.46 32.693l-.158-.273 5.446-3.144a.528.528 0 00.191-.46 1.884 1.884 0 00-.842-1.461.532.532 0 00-.494-.065l-6.752 3.898-.159-.274 6.752-3.898a.802.802 0 01.81.065 2.2 2.2 0 011.002 1.734.796.796 0 01-.35.734zM15.17 44.985l-.158-.273 8.157-4.71a.528.528 0 00.191-.46 1.721 1.721 0 00-.249-.83c-.338-.586-.846-.833-1.089-.696l-8.157 4.71-.158-.273 8.157-4.71c.44-.258 1.11.1 1.52.81a2.03 2.03 0 01.293.988.797.797 0 01-.35.735z"/><path class="cls-4" d="M14.852 45.068a1.58 1.58 0 01-1.203-.893 2.03 2.03 0 01-.292-.988.797.797 0 01.35-.735c.44-.253 1.11.1 1.52.811a2.03 2.03 0 01.293.988.796.796 0 01-.35.734.628.628 0 01-.318.083zm-.83-2.38a.306.306 0 00-.157.039.526.526 0 00-.191.46 1.721 1.721 0 00.249.83c.338.585.848.836 1.089.695a.528.528 0 00.191-.46 1.721 1.721 0 00-.249-.83 1.296 1.296 0 00-.933-.734z"/><path class="cls-2" d="M47.209 31.48a.989.989 0 01-.634-.23 4.043 4.043 0 00-1.857-1.105.988.988 0 01.005-1.977h.005a2.89 2.89 0 011.1.235 2.723 2.723 0 01.418-1.496 2.768 2.768 0 011.339-1.035 2.765 2.765 0 01-.83-1.475 2.733 2.733 0 01.2-1.543 2.728 2.728 0 01-1.499-.418 2.775 2.775 0 01-1.035-1.339 2.768 2.768 0 01-1.475.83 2.727 2.727 0 01-1.544-.2 2.728 2.728 0 01-.418 1.5 2.768 2.768 0 01-1.34 1.034l.074.075a.988.988 0 11-1.434 1.362 6.825 6.825 0 00-1.53-1.064.989.989 0 01.375-1.844c1.272-.143 2.014-.361 2.205-.65.188-.286.1-1.03-.258-2.211a.988.988 0 011.58-1.046c.948.79 1.604 1.16 1.933 1.099.34-.063.832-.66 1.46-1.777a.988.988 0 011.844.375c.142 1.273.361 2.014.65 2.205.285.189 1.03.1 2.21-.258a.988.988 0 011.046 1.579c-.791.948-1.161 1.598-1.1 1.934.064.34.661.832 1.778 1.459a.989.989 0 01-.374 1.844c-1.274.142-2.016.362-2.206.651-.188.285-.101 1.029.257 2.21a.987.987 0 01-.945 1.276z"/><path class="cls-4" d="M47.209 30.65a.158.158 0 01-.102-.037 4.289 4.289 0 00-2.385-1.299.158.158 0 010-.316h.002a3.864 3.864 0 012.195 1.055c-.358-1.333-.348-2.13.02-2.69.38-.577 1.117-.899 2.567-1.1-1.257-.753-1.809-1.335-1.934-2.016-.12-.659.18-1.396 1.03-2.484-1.333.359-2.13.348-2.69-.02-.577-.381-.898-1.117-1.1-2.567-.752 1.257-1.335 1.809-2.016 1.934-.66.123-1.397-.181-2.484-1.03.358 1.333.347 2.13-.02 2.69-.38.578-1.117.898-2.567 1.1a6.468 6.468 0 011.39 1.038.158.158 0 11-.228.218 7.465 7.465 0 00-1.726-1.216.157.157 0 01-.078-.17.159.159 0 01.138-.125c1.636-.183 2.45-.478 2.806-1.02.353-.536.308-1.378-.157-2.908a.158.158 0 01.253-.167c1.228 1.025 1.986 1.393 2.616 1.279.637-.117 1.226-.75 2.034-2.187a.158.158 0 01.294.06c.183 1.637.479 2.45 1.019 2.806.537.354 1.379.307 2.908-.157a.164.164 0 01.178.064.158.158 0 01-.01.19c-1.024 1.226-1.394 1.984-1.28 2.615.118.637.752 1.226 2.187 2.033a.158.158 0 01-.06.295c-1.637.183-2.45.479-2.806 1.02-.352.536-.307 1.379.157 2.907a.159.159 0 01-.151.204z"/><path class="cls-2" d="M11.393 55.417a.988.988 0 01-.262-1.941l27.946-7.695-7.87-5.538a.988.988 0 111.137-1.616l9.202 6.474 20.734-5.71a.989.989 0 01.991 1.622L51.707 53.614a.989.989 0 01-1.297.14l-9.24-6.5-29.514 8.128a.984.984 0 01-.263.035zm32.247-8.842l7.197 5.064 8.652-9.429z"/><path class="cls-4" d="M11.394 54.587a.158.158 0 01-.042-.31l.237-.066a.158.158 0 11.084.305l-.237.065a.155.155 0 01-.042.006zM12.578 54.26a.158.158 0 01-.042-.31l.474-.13a.158.158 0 11.084.304l-.474.13a.155.155 0 01-.042.007zM14 53.87a.158.158 0 01-.042-.311l.474-.13a.154.154 0 01.194.11.158.158 0 01-.11.194l-.474.13a.16.16 0 01-.042.006zm1.42-.391a.158.158 0 01-.041-.311l.474-.13a.158.158 0 11.084.304l-.474.13a.156.156 0 01-.042.007zm1.422-.392a.158.158 0 01-.042-.31l.473-.13a.156.156 0 01.195.11.158.158 0 01-.11.194l-.474.13a.16.16 0 01-.042.006zm1.42-.39a.158.158 0 01-.042-.311l.473-.131a.16.16 0 01.195.11.158.158 0 01-.11.195l-.474.13a.155.155 0 01-.042.006zm1.42-.392a.158.158 0 01-.041-.31l.473-.132a.158.158 0 11.084.305l-.473.13a.156.156 0 01-.042.007zm1.422-.392a.158.158 0 01-.042-.31l.473-.13a.156.156 0 01.195.11.158.158 0 01-.11.194l-.474.13a.161.161 0 01-.042.006zm1.42-.39a.158.158 0 01-.042-.311l.474-.13a.16.16 0 01.194.11.158.158 0 01-.11.194l-.474.13a.155.155 0 01-.042.006zm1.421-.392a.158.158 0 01-.042-.31l.474-.13a.158.158 0 01.084.304l-.474.13a.16.16 0 01-.042.006zm1.421-.39a.158.158 0 01-.042-.311l.474-.131a.158.158 0 01.084.305l-.474.13a.156.156 0 01-.042.006zm1.421-.392a.158.158 0 01-.042-.31l.474-.132a.16.16 0 01.194.11.158.158 0 01-.11.195l-.474.13a.155.155 0 01-.042.007zm1.421-.392a.158.158 0 01-.042-.31l.473-.13a.158.158 0 01.084.304l-.473.13a.155.155 0 01-.042.006zm1.42-.39a.158.158 0 01-.042-.311l.474-.131a.16.16 0 01.194.11.158.158 0 01-.11.195l-.474.13a.156.156 0 01-.042.006zm1.42-.392a.158.158 0 01-.041-.31l.473-.13a.155.155 0 01.195.11.158.158 0 01-.11.194l-.474.13a.161.161 0 01-.042.006zm1.422-.392a.158.158 0 01-.042-.31l.473-.13a.155.155 0 01.195.11.158.158 0 01-.11.194l-.474.13a.16.16 0 01-.042.006zm1.42-.39a.158.158 0 01-.041-.311l.473-.13a.16.16 0 01.195.11.158.158 0 01-.11.194l-.474.13a.156.156 0 01-.042.007zM35.312 48a.158.158 0 01-.042-.31l.473-.13a.158.158 0 01.084.304l-.473.13a.156.156 0 01-.042.006zm1.42-.391a.158.158 0 01-.042-.31l.474-.131a.158.158 0 01.084.305l-.474.13a.155.155 0 01-.042.006zm1.421-.391a.158.158 0 01-.042-.31l.474-.131a.158.158 0 01.084.305l-.474.13a.156.156 0 01-.042.006zm1.42-.391a.158.158 0 01-.042-.31l.474-.131a.158.158 0 01.084.304l-.474.13a.156.156 0 01-.042.007zm1.421-.391a.158.158 0 01-.042-.311l.474-.13a.158.158 0 11.084.304l-.474.13a.156.156 0 01-.042.007zm1.421-.392a.158.158 0 01-.042-.31l.474-.131a.158.158 0 01.084.305l-.474.13a.155.155 0 01-.042.006zm1.421-.391a.158.158 0 01-.042-.31l.474-.131a.158.158 0 01.084.305l-.474.13a.155.155 0 01-.042.006zm1.42-.391a.158.158 0 01-.041-.31l.473-.131a.158.158 0 11.084.304l-.473.13a.156.156 0 01-.042.007zm1.422-.391a.158.158 0 01-.042-.311l.473-.13a.158.158 0 01.084.304l-.473.13a.155.155 0 01-.042.007zm1.42-.392a.158.158 0 01-.041-.31l.473-.13a.158.158 0 01.084.304l-.473.13a.155.155 0 01-.042.006zm1.422-.391a.158.158 0 01-.042-.31l.472-.131a.158.158 0 01.084.305l-.472.13a.156.156 0 01-.042.006zm1.42-.391a.158.158 0 01-.043-.31l.474-.131a.158.158 0 11.084.305l-.474.13a.155.155 0 01-.042.006zm1.42-.391a.158.158 0 01-.042-.31l.474-.131a.158.158 0 01.084.304l-.474.13a.155.155 0 01-.042.007zm1.421-.391a.158.158 0 01-.042-.311l.474-.13a.158.158 0 01.084.304l-.474.13a.156.156 0 01-.042.007zm1.421-.392a.158.158 0 01-.042-.31l.474-.131a.158.158 0 01.084.305l-.474.13a.156.156 0 01-.042.006zm1.421-.391a.158.158 0 01-.042-.31l.474-.131a.158.158 0 01.084.305l-.474.13a.155.155 0 01-.042.006zm1.421-.391a.158.158 0 01-.042-.31l.474-.131a.158.158 0 11.084.304l-.474.13a.155.155 0 01-.042.007zm1.42-.391a.158.158 0 01-.041-.311l.474-.13a.158.158 0 01.084.304l-.474.13a.156.156 0 01-.042.007zm1.42-.392a.158.158 0 01-.041-.31l.473-.13a.158.158 0 11.084.304l-.473.13a.155.155 0 01-.042.006zM62.376 40.684a.157.157 0 01-.107-.042.159.159 0 01-.05-.101.154.154 0 01-.066-.09.157.157 0 01.11-.194l.238-.065a.154.154 0 01.177.07.158.158 0 01-.019.19l-.167.18a.157.157 0 01-.116.052zM51.787 52.224a.155.155 0 01-.106-.042.157.157 0 01-.01-.223l.32-.35a.158.158 0 11.233.213l-.32.35a.157.157 0 01-.117.052zm.963-1.05a.155.155 0 01-.106-.042.157.157 0 01-.01-.223l.32-.35a.158.158 0 11.233.213l-.32.35a.157.157 0 01-.117.052zm.962-1.049a.158.158 0 01-.116-.266l.321-.35a.158.158 0 11.232.216l-.32.35a.16.16 0 01-.117.05zm.963-1.049a.158.158 0 01-.116-.265l.32-.35a.158.158 0 11.233.215l-.321.35a.16.16 0 01-.116.05zm.963-1.05a.158.158 0 01-.117-.264l.32-.35a.158.158 0 11.233.214l-.32.35a.156.156 0 01-.116.05zm.963-1.048a.158.158 0 01-.117-.265l.32-.35a.158.158 0 11.233.214l-.32.35a.156.156 0 01-.116.051zm.962-1.05a.158.158 0 01-.117-.264l.322-.35a.158.158 0 11.232.214l-.321.35a.156.156 0 01-.117.05zm.962-1.048a.158.158 0 01-.116-.265l.321-.35a.158.158 0 11.233.214l-.321.35a.156.156 0 01-.117.05zm.963-1.05a.158.158 0 01-.116-.265l.32-.35a.158.158 0 11.233.215l-.32.35a.156.156 0 01-.117.05zm.963-1.048a.158.158 0 01-.116-.265l.32-.35a.158.158 0 11.233.214l-.32.35a.156.156 0 01-.117.05zm.962-1.05a.158.158 0 01-.116-.265l.321-.35a.158.158 0 11.233.215l-.322.35a.156.156 0 01-.116.05zM50.979 53.104a.157.157 0 01-.091-.029l-.201-.141a.158.158 0 01.181-.258l.088.061.073-.08a.158.158 0 01.233.215l-.167.182a.158.158 0 01-.116.05z"/><path class="cls-4" d="M49.982 52.403a.157.157 0 01-.09-.029l-.398-.28a.158.158 0 11.182-.257l.397.28a.158.158 0 01-.09.286zm-1.191-.839a.157.157 0 01-.09-.029l-.398-.28a.158.158 0 01.181-.257l.398.28a.158.158 0 01-.091.286zm-1.192-.837a.157.157 0 01-.091-.03l-.397-.279a.158.158 0 11.182-.258l.396.28a.158.158 0 01-.09.287zm-1.192-.84a.157.157 0 01-.09-.029l-.398-.278a.158.158 0 01-.038-.22.156.156 0 01.22-.039l.397.28a.158.158 0 01-.09.287zm-1.191-.838a.157.157 0 01-.091-.03l-.397-.279a.158.158 0 11.181-.258l.398.28a.158.158 0 01-.091.287zm-1.193-.838a.157.157 0 01-.09-.03l-.398-.279a.158.158 0 01.182-.258l.397.28a.158.158 0 01-.09.287zm-1.191-.839a.157.157 0 01-.09-.029l-.398-.279a.158.158 0 01.181-.259l.398.28a.158.158 0 01.038.22.156.156 0 01-.129.067zm-1.191-.838a.157.157 0 01-.091-.03l-.398-.278a.158.158 0 01.182-.26l.397.28a.158.158 0 01.038.22.156.156 0 01-.128.068zm-1.193-.839a.156.156 0 01-.09-.029l-.398-.28a.158.158 0 01.182-.258l.397.28a.158.158 0 01.038.22.156.156 0 01-.129.067zm-1.191-.838a.156.156 0 01-.091-.029l-.397-.28a.158.158 0 01.181-.258l.398.28a.158.158 0 01.038.22.156.156 0 01-.13.067zm-1.192-.839a.157.157 0 01-.09-.029l-.398-.279a.158.158 0 01.182-.259l.397.28a.158.158 0 01.038.22.156.156 0 01-.129.067zm-1.192-.838a.157.157 0 01-.09-.03l-.398-.278a.158.158 0 01.181-.26l.398.28a.158.158 0 01.038.22.156.156 0 01-.129.068zm-1.191-.839a.157.157 0 01-.091-.029l-.398-.28a.158.158 0 01.182-.258l.397.28a.158.158 0 01.039.22.156.156 0 01-.13.067zm-1.193-.838a.157.157 0 01-.09-.029l-.397-.28a.158.158 0 01.182-.258l.396.28a.158.158 0 01.038.22.157.157 0 01-.129.067zm-1.191-.839a.156.156 0 01-.091-.029l-.397-.279a.158.158 0 01.181-.259l.398.28a.158.158 0 01-.091.287zM32.106 39.826a.157.157 0 01-.09-.03l-.202-.14a.158.158 0 01.182-.26l.201.142a.158.158 0 01.038.22.156.156 0 01-.129.068z"/><path class="cls-4" d="M32.229 41.25a.198.198 0 01-.194-.157l-.323-1.526a.197.197 0 01.167-.237l1.545-.211a.193.193 0 01.222.169.198.198 0 01-.17.222l-1.333.183.279 1.318a.198.198 0 01-.152.234.195.195 0 01-.041.005z"/></g></g></svg>