<svg xmlns="http://www.w3.org/2000/svg" viewBox="0 0 75 75"><defs><style>.cls-1{fill:none;}.cls-2{fill:#f0f8fa;}.cls-3{fill:#666;}.cls-4{fill:#00afca;}</style></defs><title>アセット 3502</title><g id="レイヤー_2" data-name="レイヤー 2"><g id="レイヤー_2-2" data-name="レイヤー 2"><rect class="cls-1" width="75" height="75" rx="8.3623" transform="translate(75) rotate(90)"/><path class="cls-2" d="M8.36233,5.00013H66.63766A3.36224,3.36224,0,0,1,69.9999,8.36236V66.63789a3.362,3.362,0,0,1-3.362,3.362H8.36213a3.362,3.362,0,0,1-3.362-3.362V8.36236A3.36224,3.36224,0,0,1,8.36233,5.00013Z" transform="translate(75.00002 0.00003) rotate(90)"/><path class="cls-3" d="M66.6377,70.125H8.3623A3.49132,3.49132,0,0,1,4.875,66.6377V8.3623A3.49132,3.49132,0,0,1,8.3623,4.875H66.6377A3.49132,3.49132,0,0,1,70.125,8.3623V66.6377A3.49132,3.49132,0,0,1,66.6377,70.125Zm-58.2754-65A3.24084,3.24084,0,0,0,5.125,8.3623V66.6377A3.24084,3.24084,0,0,0,8.3623,69.875H66.6377a3.24084,3.24084,0,0,0,3.2373-3.2373V8.3623A3.24084,3.24084,0,0,0,66.6377,5.125Z"/><path class="cls-4" d="M18.85415,58.99357c-.57836,0-.74437-.14942-.75866-.56176-.00232-.07142-.007-.35095-.012-.64515h-.493v-.173h.4884c-.00232-.2108-.00463-.41-.00463-.5216h.19883c0,.11158.0027.3108.005.5216h.76561c0-.1803-.00232-.415-.00927-.56175h.19189c.00463.13744.00695.37914.00695.56175h.48608v.173h-.48608c-.00232.56678-.04016.66639-.28918.66639a1.94312,1.94312,0,0,1-.27258-.01892v-.16139a1.87989,1.87989,0,0,0,.23938.01429c.12084,0,.13281-.03089.13281-.50037h-.76329c.00231.28957.00695.56678.00926.63318.012.31544.10926.39574.56446.39574.18262,0,.3413-.00463.4884-.0139v.17992C19.20974,58.99125,19.03909,58.99357,18.85415,58.99357Zm.58338-1.55053a1.48164,1.48164,0,0,0-.15675-.36523l.11389-.05908a1.6032,1.6032,0,0,1,.166.36988Zm.26061-.1637a1.56033,1.56033,0,0,0-.166-.35558l.11621-.06139a1.47172,1.47172,0,0,1,.17065.36253Z"/><path class="cls-4" d="M21.27144,59.00283a.385.385,0,0,1-.422-.35288c-.01661-.10231-.02857-.20154-.03823-.27026-.0166-.10463-.0498-.16138-.12779-.16138A.5218.5218,0,0,0,20.368,58.46a1.26318,1.26318,0,0,0-.09961.1803c-.05908.12548-.10425.22045-.1776.38647l-.17567-.071c.21582-.517.517-1.25208.77294-1.88719l.19189.06409c-.18725.44786-.33165.7799-.44091,1.05942a.45864.45864,0,0,1,.30346-.16331c.15405,0,.22277.10656.25134.26524.0166.09961.02857.18262.04517.28686.02587.1803.1112.23744.24169.23744.20386,0,.37683-.2301.44092-.68762l.17065.06409C21.82123,58.68315,21.61274,59.00283,21.27144,59.00283Z"/><path class="cls-4" d="M22.89146,59.02445c-.41234,0-.65673-.19-.65673-.67565V57.04229h.21118v1.29223c0,.37219.15637.49071.45752.49071a.77221.77221,0,0,0,.69959-.54052l.16563.1139A.958.958,0,0,1,22.89146,59.02445Z"/><path class="cls-4" d="M25.32805,59.00283a.385.385,0,0,1-.422-.35288c-.0166-.10231-.02857-.20154-.03822-.27026-.01661-.10463-.04981-.16138-.1278-.16138a.5218.5218,0,0,0-.31543.24169,1.26318,1.26318,0,0,0-.09961.1803c-.05907.12548-.10425.22045-.1776.38647l-.17567-.071c.21582-.517.517-1.25208.77294-1.88719l.19189.06409c-.18725.44786-.33165.7799-.44091,1.05942a.45866.45866,0,0,1,.30346-.16331c.15405,0,.22277.10656.25134.26524.01661.09961.02858.18262.04518.28686.02586.1803.11119.23744.24169.23744.20385,0,.37682-.2301.44091-.68762l.17065.06409C25.87784,58.68315,25.66935,59.00283,25.32805,59.00283Z"/><path class="cls-4" d="M38.91405,58.89164l-.03783-.18957c.90112-.0027,1.28026-.24671,1.28026-.67333,0-.26563-.1803-.498-.576-.498a5.13318,5.13318,0,0,0-1.07873.1969l-.05212-.19459a6.12166,6.12166,0,0,1,1.15942-.19922.68467.68467,0,0,1,.76329.69264C40.3723,58.55034,39.948,58.89164,38.91405,58.89164Z"/><path class="cls-4" d="M48.10407,59.09974v-.68492c-.12818.14208-.25366.2915-.36987.43126l-.14246-.12779c.154-.18725.33435-.39381.51233-.588v-.38647h-.47179v-.17567h.47179v-.52856h.19922v.87951c.11853-.12316.22741-.23243.31737-.31775a.74978.74978,0,0,1,.4884-.26756c.1637,0,.24439.12548.24439.36254,0,.12818-.02394.87255-.02394.97911s.02394.14247.14247.14247a.93015.93015,0,0,0,.26562-.04517V58.96a1.36641,1.36641,0,0,1-.30114.04015c-.23011,0-.30578-.0803-.30578-.31041,0-.11853.02123-.84862.02123-.95557,0-.14439-.03088-.19188-.08532-.19188-.071,0-.18494.071-.3413.22045-.12123.1139-.26795.26563-.422.43165v.90537Z"/><path class="cls-4" d="M51.26574,59.05225a.385.385,0,0,1-.422-.35288c-.0166-.10231-.02857-.20154-.03822-.27026-.0166-.10463-.0498-.16139-.12779-.16139a.52186.52186,0,0,0-.31544.24169,1.26486,1.26486,0,0,0-.09961.18031c-.05907.12548-.10424.22045-.1776.38647l-.17567-.071c.21583-.517.517-1.25208.773-1.88719l.19188.06409c-.18725.44786-.33164.77989-.44091,1.05942a.45868.45868,0,0,1,.30347-.16331c.154,0,.22277.10656.25134.26524.0166.09961.02857.18262.04517.28686.02587.1803.1112.23744.24169.23744.20386,0,.37682-.2301.44091-.68762l.17065.06409C51.81552,58.73257,51.607,59.05225,51.26574,59.05225Z"/><path class="cls-4" d="M52.18887,59.01944a4.4069,4.4069,0,0,1-.07336-.89148,8.39172,8.39172,0,0,1,.06139-.95788h.19691a8.19781,8.19781,0,0,0-.06178.9602,4.39965,4.39965,0,0,0,.06872.85093Zm1.68334-.13784a1.42455,1.42455,0,0,0-.339-.232c-.01428.28185-.13281.39343-.40809.39343-.27721,0-.47875-.1305-.47875-.332,0-.1942.19189-.32238.47412-.32238a1.16951,1.16951,0,0,1,.22277.02123c-.00232-.16331-.00695-.38878-.01158-.64476H52.6155v-.173h.71387c-.0027-.14246-.0027-.29149-.0027-.44091h.19c0,.14672,0,.29613.00232.44091h.42431v.173h-.422c.00464.28455.012.53589.01429.69959a1.53433,1.53433,0,0,1,.45056.27953Zm-.766-.33165c-.1776,0-.29149.05908-.29149.161,0,.10926.12547.17065.29651.17065.16563,0,.232-.0637.23474-.30115A.9159.9159,0,0,0,53.10621,58.55Zm.7494-1.10961a.268.268,0,1,1,.26562-.26794A.26759.26759,0,0,1,53.85561,57.44034Zm0-.43628a.16834.16834,0,1,0,.16833.16834A.16874.16874,0,0,0,53.85561,57.00406Z"/><path class="cls-4" d="M54.70114,58.94106l-.03784-.18957c.90074-.0027,1.28026-.24671,1.28026-.67333,0-.26563-.1803-.49806-.57643-.49806a5.13751,5.13751,0,0,0-1.07872.19691l-.05212-.19459a6.12153,6.12153,0,0,1,1.15942-.19922.68447.68447,0,0,1,.76329.69264C56.159,58.59976,55.73469,58.94106,54.70114,58.94106Z"/><polygon class="cls-4" points="25.162 10.098 25.354 10.506 25.703 10.222 25.698 10.672 26.136 10.567 25.937 10.971 26.376 11.067 26.022 11.344 26.376 11.621 25.937 11.717 26.136 12.12 25.698 12.016 25.703 12.466 25.354 12.182 25.162 12.589 24.971 12.182 24.622 12.466 24.627 12.016 24.189 12.12 24.388 11.717 23.948 11.621 24.303 11.344 23.948 11.067 24.388 10.971 24.189 10.567 24.627 10.672 24.622 10.222 24.971 10.506 25.162 10.098"/><polygon class="cls-4" points="22.951 11.763 23.142 12.171 23.491 11.886 23.487 12.337 23.925 12.232 23.725 12.636 24.165 12.731 23.81 13.008 24.165 13.286 23.725 13.381 23.925 13.785 23.487 13.68 23.491 14.13 23.142 13.846 22.951 14.254 22.76 13.846 22.411 14.13 22.415 13.68 21.977 13.785 22.177 13.381 21.737 13.286 22.092 13.008 21.737 12.731 22.177 12.636 21.977 12.232 22.415 12.337 22.411 11.886 22.76 12.171 22.951 11.763"/><polygon class="cls-4" points="27.455 11.763 27.647 12.171 27.996 11.886 27.991 12.337 28.429 12.232 28.23 12.636 28.67 12.731 28.315 13.008 28.67 13.286 28.23 13.381 28.429 13.785 27.991 13.68 27.996 14.13 27.647 13.846 27.455 14.254 27.264 13.846 26.915 14.13 26.92 13.68 26.482 13.785 26.681 13.381 26.241 13.286 26.596 13.008 26.241 12.731 26.681 12.636 26.482 12.232 26.92 12.337 26.915 11.886 27.264 12.171 27.455 11.763"/><path class="cls-4" d="M24.33787,14.23541l.75552-1.099a.08361.08361,0,0,1,.13779,0l.75552,1.099a.0836.0836,0,0,1-.06889.131H24.40676A.0836.0836,0,0,1,24.33787,14.23541Z"/><path class="cls-4" d="M25.9867,16.04353l-.75552,1.09895a.08361.08361,0,0,1-.13779,0l-.75552-1.09895a.0836.0836,0,0,1,.06889-.131h1.51105A.0836.0836,0,0,1,25.9867,16.04353Z"/><path class="cls-4" d="M24.82975,16.078V14.10461c0-.028.03743-.0508.08361-.0508h.49785c.04617,0,.08361.02275.08361.0508V16.078c0,.02806-.03744.05081-.08361.05081h-.49785C24.86718,16.12878,24.82975,16.106,24.82975,16.078Z"/><path class="cls-4" d="M32.39691,15.91576l-.23667-.60616c1.34165-.144,2.07637-.80692,2.2254-1.75785H31.20931v-.63743h4.02457A3.00415,3.00415,0,0,1,32.39691,15.91576Zm-.64283-3.59254v-.63743h2.91958v.63743Z"/><path class="cls-4" d="M37.65425,14.3328a8.39735,8.39735,0,0,0-.44709-1.34667l.5552-.21582a9.08345,9.08345,0,0,1,.51388,1.33625Zm.48338,1.62427-.334-.53975a2.57359,2.57359,0,0,0,2.0505-2.69334h.66832A3.21953,3.21953,0,0,1,38.13763,15.95707Zm.57064-1.78874a7.71031,7.71031,0,0,0-.44207-1.34126l.56021-.22123a9.01148,9.01148,0,0,1,.50346,1.33624Z"/><path class="cls-4" d="M44.01735,14.10656a7.718,7.718,0,0,0-1.46984-.73473l.31351-.57063a9.15567,9.15567,0,0,1,1.4957.67333Zm-.92005,1.76325-.19536-.67874a3.80585,3.80585,0,0,0,3.31533-2.42076l.56021.44709A4.46848,4.46848,0,0,1,43.0973,15.86981Zm1.57794-2.94A8.4059,8.4059,0,0,0,43.2,12.18964l.31891-.56523a10.13677,10.13677,0,0,1,1.4957.673Z"/><path class="cls-4" d="M48.355,15.67446v-.59612h2.169l.11313-1.62967H48.838v-.59612h2.52887l-.16447,2.22579h.80692v.59612Z"/><path class="cls-4" d="M18.93368,60.76667a2.14892,2.14892,0,0,0-.25288-.46639c.11389-.04247.19227-.06757.27064-.09266a2.27679,2.27679,0,0,1,.29189.55171l-.02162.00734h.82236a4.285,4.285,0,0,0,.32045-.56253l.30231.09961a4.86872,4.86872,0,0,1-.29883.46292h.92545v.2525H18.01866v-.2525ZM18.56,62.70289v.77218H18.2785V61.30063h1.2208V63.201c0,.15327-.04247.2386-.1776.26369a2.44963,2.44963,0,0,1-.37373.01043l-.04286-.249c.08533.00348.2027.00348.24207.00348.05329-.007.06758-.02857.06758-.07452v-.45211Zm.65481-.815v-.34169H18.56v.34169Zm0,.58376V62.1118H18.56v.35983Zm.97178-1.139v1.5625H19.9016v-1.5625Zm.85054-.12123v1.96132c0,.16718-.0498.26331-.20655.29188a3.02522,3.02522,0,0,1-.44825.00695l-.04633-.25983c.1139.00733.27412.00733.32393.00347a.07673.07673,0,0,0,.08185-.0888v-1.915Z"/><path class="cls-4" d="M23.18952,63.15848c.38763.01042,1.25285.007,1.68681-.01081l-.04981.27759c-.42353.01081-1.27061.01081-1.68333,0a1.12359,1.12359,0,0,1-.90074-.39149c-.21.18532-.395.3274-.56562.45558-.03591-.0888-.07143-.17451-.13166-.29188a4.71989,4.71989,0,0,0,.54091-.388v-.8934h-.48763v-.27026h.7687v1.12814A.97116.97116,0,0,0,23.18952,63.15848Zm-1.33123-2.89372a3.05086,3.05086,0,0,1,.59419.61581l-.249.16717a2.80831,2.80831,0,0,0-.55867-.61928Zm2.92577,2.342v.23474H22.7764V61.37514a3.3016,3.3016,0,0,1-.23126.27412l-.21-.18146a3.07616,3.07616,0,0,0,.74746-1.26366l.27412.06409a3.99543,3.99543,0,0,1-.20656.51273h.4664a5.5168,5.5168,0,0,0,.19575-.566l.29883.06062a5.34854,5.34854,0,0,1-.21.50539h.815v.22779h-.75788v.3772h.63009v.22432h-.63009V61.991h.63009v.22432h-.63009v.39149ZM23.66981,61.386v-.3772h-.60152v.3772Zm0,.605v-.38068h-.60152V61.991Zm0,.61581v-.39149h-.60152v.39149Z"/><path class="cls-4" d="M26.49828,63.365c-.61928,0-.98568-.28493-.98568-1.01463V60.38946h.31659v1.9397c0,.55867.23513.73666.68724.73666a1.15917,1.15917,0,0,0,1.04977-.81156l.249.171A1.43876,1.43876,0,0,1,26.49828,63.365Z"/><path class="cls-4" d="M29.40551,60.95508h.62276v.25984H29.338a5.94859,5.94859,0,0,1-.69419,1.62658l-.27064-.15289a5.19993,5.19993,0,0,0,.65132-1.47369H28.4125v-.25984h.676a5.10141,5.10141,0,0,0,.1139-.65133h.317C29.49431,60.51031,29.45532,60.73115,29.40551,60.95508ZM31.178,63.123a2.19452,2.19452,0,0,0-.57334-.36331v.04286c0,.43782-.18146.598-.60848.598-.40925,0-.73317-.20655-.73317-.50924,0-.30579.29883-.50539.76522-.50539a1.59329,1.59329,0,0,1,.29188.02509v-.97873h.28455v1.04977a2.43418,2.43418,0,0,1,.737.41659ZM30.014,62.63533c-.28454,0-.4911.09227-.4911.25984,0,.15984.2027.25983.44477.25983.25984,0,.3525-.07837.3525-.349v-.13861A1.47306,1.47306,0,0,0,30.014,62.63533Zm1.23857-1.29918a3.07828,3.07828,0,0,0-.961-.388l.09961-.25289a3.64019,3.64019,0,0,1,.993.38455Z"/><path class="cls-4" d="M32.82856,61.14388h.23821c.52315,0,.712.22779.712.76522a2.46873,2.46873,0,0,1-.2278,1.164.45892.45892,0,0,1-.47334.25984,1.33981,1.33981,0,0,1-.50191-.107l.03552-.249a1.268,1.268,0,0,0,.4274.09227.25625.25625,0,0,0,.249-.12084,2.11924,2.11924,0,0,0,.19922-1.03935c0-.35945-.12084-.50886-.46253-.50886-.0749,0-.16022,0-.25288.00347a6.735,6.735,0,0,1-.75094,1.93275l-.25289-.14246a6.03542,6.03542,0,0,0,.705-1.78334c-.21736.00386-.45558.01429-.705.0251l-.0139-.25636c.28455-.01429.54438-.02124.77565-.02857a6.72407,6.72407,0,0,0,.11389-.78994h.3027A7.78967,7.78967,0,0,1,32.82856,61.14388Zm1.3096-.24208a2.22935,2.22935,0,0,0-.25636-.58724l.17451-.0888a2.28449,2.28449,0,0,1,.2776.59767Zm.31312,1.71191a2.51091,2.51091,0,0,0-.48029-1.48759l.23126-.14247a2.74018,2.74018,0,0,1,.55172,1.63006Zm.15327-1.82928a2.11048,2.11048,0,0,0-.25983-.57295l.17451-.09266a2.3764,2.3764,0,0,1,.2776.58376Z"/><path class="cls-4" d="M36.24079,63.40055a4.096,4.096,0,0,1-.41273-.02162v-.26678a3.8791,3.8791,0,0,0,.40925.02123c.815,0,1.242-.23821,1.242-.62276,0-.26678-.23127-.45558-.61581-.45558a1.75846,1.75846,0,0,0-1.15672.50539l-.28107-.071a6.82723,6.82723,0,0,1,.2776-1.45941l.28493.04633a4.5265,4.5265,0,0,0-.22779,1.0961,1.9341,1.9341,0,0,1,1.13509-.388c.56253,0,.89727.317.89727.71928C37.79286,63.07315,37.21952,63.40055,36.24079,63.40055Zm1.01077-2.42385a5.52527,5.52527,0,0,0-1.44512-.3274l.06409-.26717a5.63043,5.63043,0,0,1,1.46675.32392Z"/><path class="cls-4" d="M41.62129,63.18705l-.18493.288a1.75564,1.75564,0,0,1-1.48759-.88955c-.19575.44825-.59805.7189-1.44513.88955l-.18146-.256c.8826-.14594,1.23857-.4023,1.38451-.84746H38.36813v-.26331h1.40265c.01776-.11737.02818-.249.03552-.39149l.30617.00734c-.00734.1386-.02162.26678-.03938.38415h1.50573v.26331H40.15494A1.51447,1.51447,0,0,0,41.62129,63.18705Zm-1.203-1.87214c0,.12432.02509.14942.132.15289.09575.00348.26678.00348.36987,0,.11776-.00347.12471-.01776.13166-.21l.27064.04633c-.02857.37026-.08532.42007-.37373.42354-.12818,0-.32045.00347-.43049,0-.317-.00347-.38454-.08185-.38454-.41273v-.51272h-.40925c-.0749.56948-.30964.8934-1.06444,1.08915l-.16718-.22432c.69766-.14594.89341-.41272.954-.86483h-.66561v.38454h-.29188V60.5493h1.32389v-.34516h.30617v.34516h1.349v.63743h-.30269v-.38454h-.74746Z"/><path class="cls-4" d="M43.84515,61.89829a4.3286,4.3286,0,0,0,.217.46639l-.2884.09614a4.916,4.916,0,0,1-.24556-.56253h-1.4984v-.25984h1.40574c-.05675-.17065-.11-.35211-.15636-.5409H42.18652v-.25984h1.02854c-.04286-.18146-.07838-.37026-.11042-.56214h.30964c.02857.18841.06409.3772.107.56214H44.5v.25984h-.91463a5.51636,5.51636,0,0,0,.1637.5409h.94321v.25984ZM43.73821,63.411c-.95016,0-1.39146-.23127-1.39146-.60153a1.0043,1.0043,0,0,1,.1139-.43782l.27759.05367a.83984.83984,0,0,0-.09266.34863c0,.249.38068.36331,1.07487.36331.0888,0,.2386-.00386.388-.00733V63.404C43.98028,63.4075,43.83434,63.411,43.73821,63.411Z"/><path class="cls-4" d="M47.0404,62.12608c.01082.1139.01429.24555.01429.39883V62.806h-.28841v-.2776c0-.09961,0-.18493-.00347-.25983-.35945.19574-.59805.39882-.59805.57681,0,.20617.21.28107.72623.28107a7.96624,7.96624,0,0,0,.89688-.0498v.27026c-.24208.02162-.58724.0359-.89341.0359-.71194,0-1.01811-.15675-1.01811-.51619,0-.32046.349-.61929.85441-.88646-.039-.19575-.11389-.2525-.23474-.2525a1.25182,1.25182,0,0,0-.6799.28455,2.98562,2.98562,0,0,0-.4772.46639l-.22045-.1888a3.73185,3.73185,0,0,0,.79379-1.19571h-.62314v-.25288h.71928a4.02247,4.02247,0,0,0,.1386-.53744h.31312a4.54625,4.54625,0,0,1-.13861.53744h1.08182v.25288h-1.171a3.11572,3.11572,0,0,1-.29536.59071,1.2769,1.2769,0,0,1,.6409-.217c.21351,0,.34864.09614.41968.38069.2776-.12819.58724-.249.90074-.35945l.11.26717A8.43109,8.43109,0,0,0,47.0404,62.12608Z"/><path class="cls-4" d="M49.95768,63.17971c.39149.01081,1.27061.01081,1.70843-.007l-.04633.249c-.427.01081-1.2849.01428-1.7011.00347a1.14488,1.14488,0,0,1-.91116-.38415c-.20309.18146-.38455.32006-.55172.44477l-.12123-.26331a5.23124,5.23124,0,0,0,.50191-.36331v-.92892h-.45211V61.667h.73318v1.139A1.01675,1.01675,0,0,0,49.95768,63.17971ZM48.655,60.29333a2.98022,2.98022,0,0,1,.50191.644l-.26331.14594a2.84943,2.84943,0,0,0-.46292-.65133Zm1.61577,2.171V62.201h-.79341V60.97284h.79341v-.24555h-.95363v-.23474h.95363v-.28841h.29188v.28841h.99649v.23474h-.99649v.24555h.83279V62.201h-.83279v.26331h1.06058v.2386H50.56267v.38416h-.29188v-.38416h-1.0073v-.2386Zm-.51581-.97178h.51581v-.30578H49.755Zm0,.495h.51581v-.317H49.755Zm1.35246-.495v-.30578h-.54477v.30578Zm0,.495v-.317h-.54477v.317Z"/><path class="cls-4" d="M52.97147,62.17589v-.49111h-.2776V61.5566a3.13739,3.13739,0,0,1-.63358.3776c-.07489-.08919-.12817-.14981-.178-.20656a2.68049,2.68049,0,0,0,.7687-.46292,3.01209,3.01209,0,0,0-.44478-.40925l.17065-.16023a3.37148,3.37148,0,0,1,.45559.388,1.7836,1.7836,0,0,0,.32392-.50191h-.94668v-.249h1.10343l.19575.05714a2.32825,2.32825,0,0,1-.66947,1.0463h1.46288a2.74782,2.74782,0,0,1-.72584-1.14629l.2525-.0888a2.5049,2.5049,0,0,0,.23165.51272,3.95013,3.95013,0,0,0,.50152-.44863l.19575.17451a5.10236,5.10236,0,0,1-.56562.466,1.89632,1.89632,0,0,0,.22046.25288,4.05891,4.05891,0,0,0,.50886-.43435l.19961.18533a5.56033,5.56033,0,0,1-.52315.41272,2.3137,2.3137,0,0,0,.65828.356l-.19575.23475a2.62154,2.62154,0,0,1-.61928-.35945v.13165h-.30964v.49111h.91464v.25288h-.91464v.49111c0,.18146.032.2135.15289.21736h.40925c.12471-.00386.139-.02162.14594-.34555l.28146.04981c-.03552.51272-.08919.57334-.4023.58029-.139.00347-.34169.00347-.46254,0-.33473-.007-.42006-.09961-.42006-.50191v-.49111h-.57681c-.039.40231-.32007.75828-1.00344,1.04977l-.21-.20964c.62276-.23165.87564-.5162.91811-.84013h-.88259v-.25288Zm.86483,0v-.49111h-.57295v.49111Z"/><path class="cls-4" d="M55.93507,63.50364a.4307.4307,0,1,1,.43435-.42354A.43468.43468,0,0,1,55.93507,63.50364Zm0-.71195a.28474.28474,0,1,0,.28493.28841A.28429.28429,0,0,0,55.93507,62.79169Z"/><rect class="cls-4" x="58.78199" y="24.21781" width="0.31591" height="5.55413" transform="translate(6.08572 64.53247) rotate(-59.99084)"/><path class="cls-4" d="M37.626,28.52051l-.15821-.27344L49.36523,21.376a.16031.16031,0,0,1,.15821-.00049l3.74707,2.16357-.15821.27344-3.668-2.11719Z"/><path class="cls-4" d="M37.70508,32.7124h-.31641V28.38672A.15821.15821,0,0,1,37.626,28.25l3.74414,2.16211-.15821.27344-3.50683-2.02491Z"/><path class="cls-4" d="M49.44434,45.80078a.15789.15789,0,0,1-.07911-.02148L37.46777,38.9082a.15734.15734,0,0,1-.0791-.13672V36.57373a.15821.15821,0,0,1,.31641,0v2.10645l11.581,6.68847V35.34619l-4.72851-2.729a.15838.15838,0,0,1,.1582-.27442l4.80762,2.77491a.15869.15869,0,0,1,.0791.1372v10.3877a.15888.15888,0,0,1-.1582.1582Z"/><path class="cls-4" d="M49.52344,45.7793l-.15821-.27344,11.82129-6.82568V28.65771L49.52344,35.3916l-.15821-.27344,11.90039-6.87109a.15821.15821,0,0,1,.23731.13672V38.77148a.15732.15732,0,0,1-.0791.13672Z"/><path class="cls-4" d="M24.66016,44.21191l-.15821-.27343,33.0918-19.127a.52856.52856,0,0,0,.2334-.33886,2.26928,2.26928,0,0,0-1.33887-2.31836.519.519,0,0,0-.40918.03222l-33.09277,19.127L22.82812,41.04,55.9209,21.91309a.83222.83222,0,0,1,.64941-.064,2.57073,2.57073,0,0,1,1.5625,2.70557.84379.84379,0,0,1-.38086.53076Z"/><path class="cls-4" d="M24.27344,44.313a1.23217,1.23217,0,0,1-.6084-.1836,2.77463,2.77463,0,0,1-1.2627-2.18652.98116.98116,0,0,1,.42578-.90332.84113.84113,0,0,1,.64942-.06348A2.24274,2.24274,0,0,1,24.71777,42.064a2.56362,2.56362,0,0,1,.36817,1.24512.98116.98116,0,0,1-.42578.90332A.76654.76654,0,0,1,24.27344,44.313Zm-1.0586-3.05713a.44887.44887,0,0,0-.22851.05762.68475.68475,0,0,0-.26758.62939,2.24415,2.24415,0,0,0,.3252,1.08692h0a2.24359,2.24359,0,0,0,.77929.82568.5687.5687,0,0,0,.94629-.54639,2.24417,2.24417,0,0,0-.32519-1.08691,1.96377,1.96377,0,0,0-1.04883-.94092A.69671.69671,0,0,0,23.21484,41.25586Z"/><path class="cls-4" d="M22.2998,37.09229a.15841.15841,0,0,1-.0791-.29541l.21387-.123a.15837.15837,0,0,1,.1582.27441l-.21386.123A.16.16,0,0,1,22.2998,37.09229Z"/><path class="cls-4" d="M23.36719,36.47607a.15813.15813,0,0,1-.0791-.29492l.42675-.24658a.158.158,0,0,1,.15821.27344l-.42676.24658A.153.153,0,0,1,23.36719,36.47607Zm1.28027-.73974a.15813.15813,0,0,1-.0791-.29492l.42676-.24659a.158.158,0,1,1,.1582.27344l-.42676.24658A.15558.15558,0,0,1,24.64746,35.73633Zm1.28027-.73926a.15814.15814,0,0,1-.0791-.29492l.42676-.24658a.15795.15795,0,1,1,.1582.27343l-.42675.24659A.15315.15315,0,0,1,25.92773,34.99707Zm1.28028-.73975a.15813.15813,0,0,1-.0791-.29492l.42675-.24658a.158.158,0,0,1,.15821.27344l-.42676.24658A.153.153,0,0,1,27.208,34.25732Zm1.28027-.73974a.15813.15813,0,0,1-.0791-.29492l.42676-.24659a.158.158,0,0,1,.1582.27344l-.42676.24658A.15558.15558,0,0,1,28.48828,33.51758Zm1.28027-.73975a.15841.15841,0,0,1-.0791-.29541l.42676-.24609a.15837.15837,0,0,1,.1582.27441l-.42675.2461A.16.16,0,0,1,29.76855,32.77783Zm1.28028-.73926a.15813.15813,0,0,1-.0791-.29492l.42675-.24658a.158.158,0,0,1,.15821.27344l-.42676.24658A.153.153,0,0,1,31.04883,32.03857Zm1.28027-.73974a.15813.15813,0,0,1-.0791-.29492l.42676-.24659a.158.158,0,0,1,.1582.27344l-.42676.24658A.153.153,0,0,1,32.3291,31.29883Z"/><path class="cls-4" d="M33.60938,30.55957a.158.158,0,0,1-.07911-.29492l.21289-.12354a.158.158,0,1,1,.15821.27344l-.21289.12354A.15314.15314,0,0,1,33.60938,30.55957Z"/><path class="cls-4" d="M23.82031,37.48a.1923.1923,0,0,1-.04394-.00488L22.25684,37.127a.198.198,0,0,1-.14454-.251l.458-1.49073a.19723.19723,0,1,1,.377.11621l-.39551,1.2876,1.3125.3003a.19784.19784,0,0,1-.044.39062Z"/><path class="cls-4" d="M33.36426,31.9668a.19178.19178,0,0,1-.05762-.00879.19749.19749,0,0,1-.13086-.24707l.39551-1.2876-1.31348-.30029a.19782.19782,0,0,1,.08789-.38575l1.52051.34815a.198.198,0,0,1,.14453.251l-.458,1.49072A.19626.19626,0,0,1,33.36426,31.9668Z"/><path class="cls-2" d="M33.82617,44.55029a.98872.98872,0,0,1-.49512-1.84472L45.127,35.89111a.98835.98835,0,0,1,.98828,1.71192L34.31934,44.41748A.98224.98224,0,0,1,33.82617,44.55029Z"/><path class="cls-4" d="M33.96191,43.64062a.15814.15814,0,0,1-.0791-.29492l.21289-.123a.158.158,0,0,1,.15821.27343l-.21289.123A.15305.15305,0,0,1,33.96191,43.64062Z"/><path class="cls-4" d="M35.0293,43.02441a.15813.15813,0,0,1-.0791-.29492l.42675-.24658a.158.158,0,0,1,.15821.27344l-.42676.24658A.153.153,0,0,1,35.0293,43.02441Zm1.28027-.73974a.15813.15813,0,0,1-.0791-.29492l.42676-.24659a.158.158,0,0,1,.1582.27344l-.42676.24658A.15558.15558,0,0,1,36.30957,42.28467Zm1.28027-.73926a.15813.15813,0,0,1-.0791-.29492l.42676-.24658a.15795.15795,0,1,1,.1582.27343l-.42675.24659A.15315.15315,0,0,1,37.58984,41.54541Zm1.28028-.73975a.15813.15813,0,0,1-.0791-.29492l.42675-.24658a.158.158,0,0,1,.15821.27344l-.42676.24658A.153.153,0,0,1,38.87012,40.80566Zm1.28027-.73974a.15813.15813,0,0,1-.0791-.29492l.42676-.24659a.158.158,0,0,1,.1582.27344l-.42676.24658A.15558.15558,0,0,1,40.15039,40.06592Zm1.28027-.73975a.15841.15841,0,0,1-.0791-.29541l.42676-.24609a.15837.15837,0,0,1,.1582.27441l-.42675.2461A.16.16,0,0,1,41.43066,39.32617Zm1.28028-.73926a.15813.15813,0,0,1-.0791-.29492l.42675-.24658a.158.158,0,0,1,.15821.27344l-.42676.24658A.153.153,0,0,1,42.71094,38.58691Zm1.28027-.73974a.15813.15813,0,0,1-.0791-.29492l.42676-.24659a.158.158,0,0,1,.1582.27344l-.42676.24658A.153.153,0,0,1,43.99121,37.84717Z"/><path class="cls-4" d="M45.27051,37.10791a.1584.1584,0,0,1-.0791-.29541l.21386-.123a.15838.15838,0,0,1,.15821.27442l-.21387.123A.16.16,0,0,1,45.27051,37.10791Z"/><path class="cls-4" d="M35.48242,44.02832a.19224.19224,0,0,1-.04394-.00488L33.918,43.67578A.19717.19717,0,0,1,33.791,43.582a.20131.20131,0,0,1-.01856-.15723l.458-1.49121a.1977.1977,0,0,1,.37793.11621l-.39551,1.2876,1.31348.3003a.19784.19784,0,0,1-.044.39062Z"/><path class="cls-4" d="M45.02637,38.51514a.19174.19174,0,0,1-.05762-.00879.19749.19749,0,0,1-.13086-.24707l.39551-1.2876-1.31348-.30029a.19757.19757,0,0,1-.14844-.23682.20045.20045,0,0,1,.23633-.14893l1.52051.34815a.198.198,0,0,1,.14453.251l-.458,1.49072A.19626.19626,0,0,1,45.02637,38.51514Z"/><path class="cls-4" d="M18.04883,50.83691a.16289.16289,0,0,1-.06055-.01171.1572.1572,0,0,1-.09668-.1587c.10645-1.36767-.00586-2.07714-.38867-2.4497-.37988-.36914-1.07324-.46338-2.39648-.32276a.16133.16133,0,0,1-.16211-.09619.15827.15827,0,0,1,.04492-.18359c1.03027-.8418,1.45117-1.40137,1.456-1.93067.00391-.53418-.42187-1.11279-1.46972-1.998a.1582.1582,0,0,1-.044-.18067.14806.14806,0,0,1,.15918-.09765c1.36621.10693,2.07617-.00537,2.44824-.38819.37012-.37939.46289-1.07373.32324-2.39648a.158.158,0,0,1,.2793-.1167c.74707.91309,1.26856,1.34277,1.74317,1.436a.15874.15874,0,0,1,.125.186.15565.15565,0,0,1-.18555.12451,3.16626,3.16626,0,0,1-1.60449-1.166,2.70056,2.70056,0,0,1-.45313,2.15332,2.86072,2.86072,0,0,1-2.23144.51269c.75195.67725,1.23144,1.28369,1.22558,1.9336-.0039.55664-.35449,1.10937-1.19043,1.85009a2.69951,2.69951,0,0,1,2.15332.4541,2.85987,2.85987,0,0,1,.5127,2.23145,2.87685,2.87685,0,0,1,1.92285-1.22607H20.169c.55664.00439,1.11035.355,1.85156,1.19091a2.70061,2.70061,0,0,1,.45312-2.15332,2.85329,2.85329,0,0,1,2.23242-.51269,5.2587,5.2587,0,0,1-.93066-1.0293.15793.15793,0,1,1,.26563-.1709,6.23623,6.23623,0,0,0,1.22265,1.26709.15706.15706,0,0,1,.04492.18067.14342.14342,0,0,1-.15918.09765c-1.36523-.10791-2.07714.00537-2.44824.38819-.37012.37939-.46289,1.07373-.32324,2.39648a.158.158,0,0,1-.2793.1167c-.84277-1.02979-1.40234-1.45117-1.93164-1.45508l-.00781-.00049c-.53223,0-1.10938.42676-1.98926,1.46924A.15979.15979,0,0,1,18.04883,50.83691Z"/><path class="cls-4" d="M17.10938,37.32129a.17247.17247,0,0,1-.03516-.00391.15792.15792,0,0,1-.12207-.14013c-.0918-1.00977-.25879-1.51123-.57715-1.73047-.3125-.21387-.8418-.19434-1.77734.06836a.15822.15822,0,0,1-.16211-.25635c.63672-.73145.88281-1.20264.82226-1.57617-.06152-.38184-.44336-.74756-1.3164-1.26319a.15823.15823,0,0,1,.06543-.29394c1.01074-.09131,1.51171-.25879,1.73144-.57715.21484-.31152.19434-.84277-.06836-1.77637a.15789.15789,0,0,1,.25586-.16211c.73242.63623,1.1875.88282,1.57715.82227.38086-.06152.74707-.44336,1.26269-1.3169a.1642.1642,0,0,1,.1709-.07373.15794.15794,0,0,1,.12207.14014c.0918,1.00977.25879,1.51123.57715,1.73047.31153.21435.8418.19482,1.77735-.06836a.15822.15822,0,0,1,.16211.25635c-.63672.73144-.88282,1.20312-.82227,1.57666.06152.38135.44336.74756,1.31641,1.26269a.15824.15824,0,0,1-.06543.294c-1.01075.09131-1.51172.25879-1.73145.57715-.21484.31152-.19434.84277.06836,1.77636a.15789.15789,0,0,1-.25586.16211c-.73242-.63672-1.19531-.88281-1.57715-.82226-.38086.06152-.74707.44336-1.26269,1.31689A.15733.15733,0,0,1,17.10938,37.32129Zm-1.30762-2.3374a1.27359,1.27359,0,0,1,.75195.20215,2.05657,2.05657,0,0,1,.66211,1.50292c.39063-.59863.77148-.998,1.24219-1.0747a1.944,1.944,0,0,1,1.458.585,1.945,1.945,0,0,1,.0957-1.56787,2.06087,2.06087,0,0,1,1.5039-.66211c-.5996-.39063-.999-.77149-1.07519-1.24219a1.94667,1.94667,0,0,1,.585-1.4585,1.94168,1.94168,0,0,1-1.56836-.0957,2.05691,2.05691,0,0,1-.66211-1.50342c-.39062.59912-.77148.99854-1.24219,1.0752a1.94839,1.94839,0,0,1-1.458-.585,1.945,1.945,0,0,1-.09571,1.56787,2.06085,2.06085,0,0,1-1.5039.66211c.59961.39111.999.77148,1.07519,1.24219a1.94538,1.94538,0,0,1-.585,1.45849A3.8128,3.8128,0,0,1,15.80176,34.98389Z"/><path class="cls-4" d="M32.91992,53.4082a.15727.15727,0,0,1-.124-.06006c-.55957-.709-.94727-1.01513-1.29688-1.02392l-.0166-.00049c-.35351,0-.75.28809-1.3623.98682a.15812.15812,0,0,1-.27637-.11914c.09082-.93946.02441-1.42627-.22656-1.68018-.2461-.249-.73535-.32031-1.63477-.24219a.17067.17067,0,0,1-.16113-.09961.1587.1587,0,0,1,.0498-.18213c.708-.55908,1.01465-.94628,1.02344-1.29638.00977-.35742-.27637-.75684-.98633-1.37891a.15784.15784,0,0,1-.041-.18164.14556.14556,0,0,1,.16113-.09473c.94043.08985,1.4248.02442,1.67969-.22753.248-.2461.32031-.73487.24219-1.63428a.15789.15789,0,0,1,.28125-.11182c.55957.709.94726,1.01514,1.29687,1.02393l.0166.00049c.35352,0,.75-.28809,1.36231-.98682a.15894.15894,0,0,1,.18164-.041.15667.15667,0,0,1,.09472.16016c-.09082.93945-.02441,1.42627.22657,1.68018.24707.248.73437.32031,1.63476.24218a.16707.16707,0,0,1,.16113.09961.15867.15867,0,0,1-.0498.18213c-.708.55908-1.01465.94629-1.02344,1.29639-.00976.35742.27637.75683.98633,1.3789a.15785.15785,0,0,1,.041.18165.15237.15237,0,0,1-.16114.09472c-.9414-.0918-1.42578-.0249-1.67968.22754-.248.24609-.32032.73486-.24219,1.63428a.15754.15754,0,0,1-.09863.16064A.16618.16618,0,0,1,32.91992,53.4082Zm-1.4375-1.40088.02539.00049a1.79992,1.79992,0,0,1,1.22559.77149,1.79778,1.79778,0,0,1,.36328-1.40186,1.91031,1.91031,0,0,1,1.47461-.35156,1.906,1.906,0,0,1-.75488-1.31494,1.79714,1.79714,0,0,1,.77148-1.22559,1.786,1.786,0,0,1-1.40234-.36377,1.90561,1.90561,0,0,1-.35059-1.47412,1.94274,1.94274,0,0,1-1.29.75537l-.02539-.00049a1.79988,1.79988,0,0,1-1.22558-.77148,1.79774,1.79774,0,0,1-.36329,1.40185,1.89548,1.89548,0,0,1-1.47461.35157,1.906,1.906,0,0,1,.75489,1.31494,1.79712,1.79712,0,0,1-.77149,1.22558,1.79445,1.79445,0,0,1,1.40235.36377,1.90569,1.90569,0,0,1,.35058,1.47413A1.94278,1.94278,0,0,1,31.48242,52.00732Z"/></g></g></svg>