<svg xmlns="http://www.w3.org/2000/svg" viewBox="0 0 75 75"><defs><style>.cls-2{fill:#f0f8fa}.cls-4{fill:#00afca}</style></defs><g id="レイヤー_2" data-name="レイヤー 2"><g id="レイヤー_2-2" data-name="レイヤー 2"><path d="M8.363 0h58.275A8.362 8.362 0 0175 8.362v58.275A8.362 8.362 0 0166.637 75H8.362A8.362 8.362 0 010 66.638V8.362A8.362 8.362 0 018.363 0z" transform="rotate(90 37.5 37.5)" fill="none"/><path class="cls-2" d="M8.362 5h58.276A3.362 3.362 0 0170 8.362v58.276A3.362 3.362 0 0166.638 70H8.362A3.362 3.362 0 015 66.638V8.362A3.362 3.362 0 018.362 5z" transform="rotate(90 37.5 37.5)"/><path d="M66.638 70.125H8.362a3.49 3.49 0 01-3.487-3.487V8.362a3.49 3.49 0 013.487-3.487h58.276a3.49 3.49 0 013.487 3.487v58.276a3.49 3.49 0 01-3.487 3.487zm-58.276-65a3.24 3.24 0 00-3.237 3.237v58.276a3.24 3.24 0 003.237 3.237h58.276a3.24 3.24 0 003.237-3.237V8.362a3.24 3.24 0 00-3.237-3.237z" fill="#666"/><path class="cls-4" d="M17.106 9.796l.28.597.512-.416-.007.659.642-.153-.293.592.645.14-.52.406.52.406-.645.14.293.592-.642-.153.007.659-.512-.416-.28.597-.28-.597-.512.416.007-.659-.642.153.292-.592-.644-.14.52-.406-.52-.406.644-.14-.292-.592.642.153-.007-.659.512.416.28-.597z"/><path class="cls-4" d="M15.268 13.986l1.746-1.74a.13.13 0 01.183 0l1.747 1.74a.13.13 0 01-.092.222H15.36a.13.13 0 01-.091-.222z"/><path class="cls-2" d="M17.106 12.209a.13.13 0 01.092.038l1.746 1.74a.13.13 0 01-.092.22H15.36a.13.13 0 01-.091-.22l1.746-1.74a.129.129 0 01.092-.038m0-.283a.41.41 0 00-.291.12l-1.746 1.74a.412.412 0 00.29.704h3.493a.412.412 0 00.291-.704l-1.746-1.74a.41.41 0 00-.291-.12z"/><path class="cls-4" d="M16.357 16.93v.55l.749-.746.75.747v-.55l-.75-.747zm0-.948v.55l.749-.746.75.746v-.55l-.75-.746zm0-2.377v1.978l.749-.746.75.746v-1.978zM22.067 15.427l-.448-.499a5.258 5.258 0 001.805-1.958h-1.671v-.611h2.406v-.915h.714v.915h1.007v.611h-1.007v2.041c0 .586-.252.868-.812.868a5.086 5.086 0 01-.864-.076V15.2a4.682 4.682 0 00.705.051c.205 0 .257-.061.257-.251v-1.938a6.484 6.484 0 01-2.092 2.364zM27.406 14.163v-.725h4.081v.725zM33.677 15.905V11.45h.72v1.5a12.785 12.785 0 012.323 1.09l-.401.643a9.087 9.087 0 00-1.923-.982v2.205zM39.361 13.587a5.348 5.348 0 01-.601.627l-.494-.457a5.773 5.773 0 001.548-2.308h.73a7.465 7.465 0 01-.19.498h1.886c-.268 1.964-1.09 3.398-2.74 3.994l-.344-.55A3.22 3.22 0 0040.6 14.39a6.098 6.098 0 00-1.239-.802zm1.609.247a4.214 4.214 0 00.442-1.28H40.06c-.103.18-.21.36-.329.53a9.19 9.19 0 011.239.75zM44.367 14.332a8.397 8.397 0 00-.447-1.346l.555-.216a9.127 9.127 0 01.514 1.336zm.484 1.625l-.335-.54a2.574 2.574 0 002.051-2.693h.668a3.219 3.219 0 01-2.384 3.233zm.57-1.79a7.714 7.714 0 00-.442-1.34l.56-.222a9.013 9.013 0 01.504 1.337zM50.9 12.117h1.948c-.37 1.984-1.188 3.254-2.724 3.809l-.345-.56a3.306 3.306 0 002.159-2.627h-1.362a6.402 6.402 0 01-1.203 1.496l-.514-.452a5.383 5.383 0 001.506-2.216h.746c-.062.185-.134.37-.211.55zM54.81 15.838l-.452-.524a2.242 2.242 0 001.11-2.18v-1.412h.72v1.408a2.89 2.89 0 01-1.377 2.708zm2.04-.04V11.71h.731v3.156a2.164 2.164 0 001.234-1.115l.354.601a3.116 3.116 0 01-2.318 1.444zM13.764 63.311v.167h-.3v-2.783h.905a3.426 3.426 0 00.178-.498l.349.06a6.727 6.727 0 01-.203.438h1.231v2.783h-.31v-.167zm1.85-1.843v-.499h-1.85v.499zm0 .783v-.517h-1.85v.517zm0 .79v-.527h-1.85v.527zM17.425 63.037v-.278h-.716v-.21h.716v-.224h-.69v-1.117h.69v-.21h-.815v-.214h.815v-.203a6.636 6.636 0 01-.673.04l-.092-.214a5.93 5.93 0 001.609-.203l.142.196a4.979 4.979 0 01-.705.146v.238h.773v.214h-.773v.21h.705v1.117h-.705v.224h.702v.21h-.702v.257c.249-.018.495-.036.687-.054l.004.164a3.603 3.603 0 00.473-1.836h-.349v-.264h.36q.01-.4.01-.822h.278c0 .277-.004.555-.014.822h.658a8.05 8.05 0 01-.202 2.378.321.321 0 01-.225.074c-.078 0-.249 0-.349-.007l-.032-.27a2.873 2.873 0 00.299.007.096.096 0 00.082-.029 7.805 7.805 0 00.139-1.89h-.38a3.448 3.448 0 01-.666 2.193l-.268-.128a2.302 2.302 0 00.15-.178c-.509.053-1.285.128-1.723.164l-.042-.25c.206-.01.512-.031.829-.053zM17 61.674h.424v-.267H17zm0 .452h.424v-.278H17zm1.132-.452v-.267h-.427v.267zm0 .452v-.278h-.427v.278zM22.488 60.966a.706.706 0 00-.312.131 1.562 1.562 0 00-.766 1.203c0 .484.427.733 1.253.74l-.05.285c-1.014-.014-1.505-.412-1.505-1.01a1.738 1.738 0 01.79-1.346l-1.705.071-.014-.281 2.826-.114.01.282c-.199.007-.405.02-.527.039zm.126 1.007a2.234 2.234 0 00-.257-.584l.17-.085a2.294 2.294 0 01.278.59zm.434-.178a2.112 2.112 0 00-.257-.566l.175-.089a2.592 2.592 0 01.274.577zM23.662 62.767l-.196-.207a4.686 4.686 0 00.656-1.331h-.584v-.263h.597v-.762h.289v.762h.477v.263h-.477v.107c.178.256.377.562.488.75l-.182.232a8.862 8.862 0 00-.306-.633v1.793h-.289v-1.683a5.371 5.371 0 01-.473.972zm1.659.494v.193h-.285v-3.1h1.574v3.1h-.296v-.193zm.993-2.64h-.993v.604h.993zm0 1.48v-.62h-.993v.62zm0 .894v-.637h-.993v.637zM28.562 62.055v-.516H27.37v-.281h1.192v-.517a11.085 11.085 0 01-1.114.09l-.114-.278a10.167 10.167 0 002.492-.346l.163.264a9.012 9.012 0 01-1.12.231v.556h1.192v.28h-1.193v.517h1.481v.28h-1.48v.727c0 .235-.068.37-.3.402a4.702 4.702 0 01-.605.007l-.067-.31a4.41 4.41 0 00.523.008c.114-.007.142-.064.142-.16v-.673h-1.488v-.281zM31.035 63.261a6.087 6.087 0 01-.118-1.288 9.08 9.08 0 01.114-1.395h.3a10.308 10.308 0 00-.115 1.388 6.282 6.282 0 00.115 1.249zm1.822-.1c-.85 0-1.17-.17-1.17-.505a1.046 1.046 0 01.295-.648l.245.118a.822.822 0 00-.249.491c0 .185.242.274.88.274.17 0 .355-.003.55-.021v.27a5.95 5.95 0 01-.55.022zm-1.096-2.014v-.267h1.627v.267zM36.796 60.805h.182v2.31c0 .203-.06.32-.256.35a4.067 4.067 0 01-.52.006l-.053-.288a3.332 3.332 0 00.416.004c.085-.008.107-.05.107-.125v-1.975h-2.267v2.391h-.3v-2.673h1.09a5.029 5.029 0 00.231-.608l.335.057c-.065.16-.15.36-.246.551h1.281zm-1.705.673h1.154v1.25H35.09v.199h-.27v-1.449h.27zm.876 1.004v-.762h-.876v.762zM38.635 61.1c.082-.003.164-.003.235-.003.53 0 .727.235.727.78a2.541 2.541 0 01-.235 1.192.46.46 0 01-.481.264 1.391 1.391 0 01-.509-.11l.036-.257a1.323 1.323 0 00.434.093.25.25 0 00.249-.122 2.145 2.145 0 00.203-1.057c0-.366-.121-.516-.466-.516-.075 0-.16 0-.253.004a6.959 6.959 0 01-.762 1.968l-.263-.142a6.143 6.143 0 00.719-1.82c-.22.004-.463.015-.715.026l-.018-.267c.292-.01.555-.021.79-.028a6.81 6.81 0 00.11-.79h.314a7.867 7.867 0 01-.115.786zm1.638 1.467a2.533 2.533 0 00-.488-1.512l.239-.146a2.78 2.78 0 01.558 1.658zM41.546 63.283l-.05-.26c1.068 0 1.534-.26 1.534-.769 0-.32-.228-.576-.683-.576a6.787 6.787 0 00-1.331.266l-.075-.274a8.403 8.403 0 011.452-.263.83.83 0 01.94.84c0 .637-.506 1.036-1.787 1.036zM46.186 61.001a.708.708 0 00-.313.132 1.517 1.517 0 00-.765 1.175c0 .47.416.726 1.253.733l-.05.284c-1.007-.014-1.506-.405-1.506-1.003a1.69 1.69 0 01.79-1.317l-1.704.071-.015-.281 2.826-.114.011.281c-.2.007-.406.021-.527.04zM47.491 63.478v-1.832a4.306 4.306 0 01-.323.466L47 61.859a4.603 4.603 0 00.816-1.659l.284.068a5.197 5.197 0 01-.317.837v2.373zm1.763-.619v.62h-.296v-.62h-.477v-.27h.477v-.969a4.399 4.399 0 01-.936 1.31l-.217-.224a3.89 3.89 0 001.04-1.402h-.901v-.274h1.014v-.826h.295v.826h1.09v.274h-.972a4.184 4.184 0 001.035 1.377l-.227.232a4.767 4.767 0 01-.926-1.332v1.008h.463v.27zM53.26 63.055v-.534h-2.193v-.264h2.193v-.49h-2.388v-.264H52.1V60.2h.306v1.303h1.157v1.975h-.303v-.156h-2.427v-.267zm-2.121-2.659a3.577 3.577 0 01.551.887l-.26.131a3.407 3.407 0 00-.537-.883zm2.562.128a8.25 8.25 0 01-.637.904l-.249-.128a7.307 7.307 0 00.591-.907zM55.298 60.912h.766v.26h-.808a8.406 8.406 0 01-.684 2.196l-.292-.124a7.23 7.23 0 00.663-2.072h-.634v-.26h.676c.029-.203.05-.405.06-.594h.325c-.015.192-.04.391-.072.594zm1.293 2.381c-.748 0-1.136-.174-1.136-.487a.893.893 0 01.299-.57l.22.121c-.163.185-.22.303-.22.399 0 .178.263.27.833.27a5.119 5.119 0 00.516-.025v.271a6.21 6.21 0 01-.512.021zm-.872-1.512l-.036-.264a12.995 12.995 0 011.385-.064v.267a11.79 11.79 0 00-1.35.06zM58.191 62.304h-.295a3.598 3.598 0 01-.09-.812 5.933 5.933 0 01.097-.971h.299a5.557 5.557 0 00-.096.96 2.477 2.477 0 00.04.463c.123-.152.294-.352.455-.544l.146.249c-.186.21-.381.441-.556.655zm.474 1.118l-.182-.243a1.576 1.576 0 001.064-1.737c0-.21-.014-.608-.046-.989h.31c.035.374.05.751.05.986a1.859 1.859 0 01-1.196 1.983zM60.899 63.503a.43.43 0 11.434-.423.435.435 0 01-.434.423zm0-.712a.285.285 0 10.285.289.287.287 0 00-.285-.289zM14.474 59.024c-.41 0-.652-.187-.652-.67v-1.302h.207v1.285c0 .372.156.49.455.49a.775.775 0 00.699-.538l.164.112a.95.95 0 01-.873.623zm.292-1.294a1.59 1.59 0 00-.176-.396l.119-.062a1.5 1.5 0 01.19.406zm.308-.114a1.468 1.468 0 00-.176-.391l.119-.062a1.626 1.626 0 01.19.398zM16.742 58.993c-.612 0-.915-.13-.915-.453 0-.225.22-.443.564-.64a2.228 2.228 0 01-.164-.893h.21a2.258 2.258 0 00.125.801 5.915 5.915 0 01.732-.296l.074.187c-.778.249-1.335.552-1.335.827 0 .204.197.28.709.28.215 0 .481-.012.678-.03v.191a8.453 8.453 0 01-.678.026zm.38-1.588a1.419 1.419 0 00-.172-.387l.117-.059a1.61 1.61 0 01.182.394zm.303-.078a1.36 1.36 0 00-.169-.377l.114-.06a1.504 1.504 0 01.183.384zM18.24 59.055l-.048-.183c.709-.059 1.03-.284 1.03-.642a.375.375 0 00-.412-.398 6.597 6.597 0 00-.889.097l-.038-.192a6.758 6.758 0 01.94-.097.556.556 0 01.613.59c0 .47-.436.77-1.197.825zm.881-1.669a4.197 4.197 0 00-.894-.225l.045-.183a4.567 4.567 0 01.91.228zM47.839 57.39h.51v.174h-.54a5.577 5.577 0 01-.454 1.463l-.194-.083a4.82 4.82 0 00.44-1.38h-.422v-.173h.451c.019-.135.033-.27.04-.396h.216c-.01.128-.026.26-.047.396zm.86 1.587c-.498 0-.756-.117-.756-.325a.595.595 0 01.199-.38l.147.081c-.11.123-.147.202-.147.266 0 .118.175.18.555.18a3.364 3.364 0 00.343-.017v.18a4.06 4.06 0 01-.34.015zm-.58-1.008l-.025-.175a8.64 8.64 0 01.923-.043v.178a7.842 7.842 0 00-.899.04zM49.886 58.944c-.313 0-.558-.558-.558-1.285 0-.136.003-.25.01-.366h.206a3.523 3.523 0 00-.014.358c0 .648.2 1.07.339 1.07.064 0 .183-.185.266-.449l.166.1c-.112.316-.264.572-.415.572zm1.09-.413a1.625 1.625 0 00-.446-1.176l.145-.116a1.777 1.777 0 01.51 1.292zM52.597 59.062l-.052-.17c.474-.055.713-.23.713-.518a.418.418 0 00-.313-.405 1.334 1.334 0 01-1.052.984.334.334 0 01-.356-.358.89.89 0 01.59-.723c.005-.119.014-.244.031-.375h-.514v-.17h.538c.019-.121.04-.242.066-.358h.202c-.026.116-.05.237-.069.358h.977v.17h-1c-.013.107-.024.209-.029.304a1.437 1.437 0 01.353-.045c.043 0 .083.002.121.004.007-.042.012-.085.017-.13h.192a1.918 1.918 0 01-.022.166.586.586 0 01.467.576c0 .389-.31.626-.86.69zm-.875-.47a.16.16 0 00.178.183.632.632 0 00.32-.111 1.651 1.651 0 01-.097-.602.678.678 0 00-.4.53zm.934-.668a1.108 1.108 0 00-.334.052v.026a1.78 1.78 0 00.062.536 1.376 1.376 0 00.379-.61c-.034-.001-.07-.004-.107-.004zM25.041 59.062l-.051-.17c.474-.055.713-.23.713-.518a.418.418 0 00-.313-.405 1.334 1.334 0 01-1.053.984.334.334 0 01-.355-.358.89.89 0 01.59-.723c.005-.119.014-.244.03-.375h-.514v-.17h.539c.019-.121.04-.242.066-.358h.202c-.027.116-.05.237-.07.358h.978v.17h-1.001c-.012.107-.024.209-.028.304a1.44 1.44 0 01.353-.045c.042 0 .083.002.12.004.008-.042.013-.085.017-.13h.193a2.064 2.064 0 01-.022.166.586.586 0 01.467.576c0 .389-.31.626-.86.69zm-.874-.47a.16.16 0 00.178.183.631.631 0 00.32-.111 1.651 1.651 0 01-.098-.602.678.678 0 00-.4.53zm.934-.668a1.11 1.11 0 00-.335.052v.026a1.78 1.78 0 00.062.536 1.373 1.373 0 00.38-.61c-.034-.001-.07-.004-.107-.004zM26.79 58.944c-.313 0-.557-.558-.557-1.285 0-.136.002-.25.01-.366h.206a3.523 3.523 0 00-.015.358c0 .648.2 1.07.34 1.07.063 0 .182-.185.265-.449l.166.1c-.111.316-.263.572-.415.572zm1.09-.413a1.627 1.627 0 00-.445-1.176l.144-.116a1.777 1.777 0 01.51 1.292zM29.792 57.45a.47.47 0 00-.208.088 1.01 1.01 0 00-.51.782c0 .313.278.484.835.488l-.033.19c-.671-.01-1.003-.27-1.003-.668a1.125 1.125 0 01.526-.878l-1.135.048-.01-.188 1.882-.075.007.187c-.132.005-.27.014-.35.026zM35.073 58.602c-.209 0-.339-.137-.339-.407 0-.25.128-.41.34-.41a.333.333 0 01.163.04v-.247h-.484v-.175h.484v-.406h.192v.406h.464v.175h-.464v.619c0 .166-.05.282-.05.431 0 .166.126.23.427.23.35 0 .545-.069.545-.284a2.11 2.11 0 00-.061-.441h.186a2.034 2.034 0 01.062.453c0 .324-.258.45-.744.45-.432 0-.605-.128-.605-.36a.631.631 0 01.007-.095.333.333 0 01-.123.021zm0-.662c-.112 0-.178.098-.178.254 0 .166.069.251.178.251.11 0 .178-.096.178-.25 0-.157-.069-.255-.178-.255zm1.629-.07a2.139 2.139 0 00-.522-.356l.104-.145a2.298 2.298 0 01.531.354zM40.774 29.743a.16.16 0 01-.065-.014 3.953 3.953 0 00-2.44-.575.158.158 0 01-.081-.306 3.55 3.55 0 012.192.392c-.633-1.088-.814-1.797-.623-2.385.198-.607.77-1.073 1.998-1.605-1.288-.361-1.918-.746-2.195-1.322a3.023 3.023 0 01.297-2.446 3.025 3.025 0 01-2.384.622c-.608-.197-1.074-.769-1.605-1.997-.362 1.288-.747 1.917-1.323 2.195a3.018 3.018 0 01-2.445-.298c.632 1.088.813 1.797.623 2.385-.199.607-.77 1.073-1.998 1.605a6.02 6.02 0 011.466.577.158.158 0 11-.164.27 6.886 6.886 0 00-1.834-.66.158.158 0 01-.02-.301c1.413-.563 2.064-1.023 2.249-1.59.182-.56-.065-1.298-.85-2.546a.158.158 0 01.198-.228c1.341.612 2.103.758 2.638.501.536-.259.905-.966 1.274-2.441a.158.158 0 01.142-.12.152.152 0 01.157.1c.563 1.412 1.024 2.064 1.59 2.248.564.185 1.301-.065 2.547-.85a.158.158 0 01.228.199c-.613 1.342-.757 2.106-.501 2.638.258.536.965.905 2.441 1.273a.158.158 0 01.02.3c-1.413.563-2.064 1.023-2.248 1.59-.183.56.064 1.298.85 2.546a.158.158 0 01-.134.243zM24.791 38.37a.169.169 0 01-.041-.006L12.778 35.17a.158.158 0 01-.105-.094.163.163 0 01.033-.173l8.753-8.772a.162.162 0 01.153-.041l11.975 3.196a.157.157 0 01.111.112.16.16 0 01-.04.153l-8.755 8.772a.161.161 0 01-.112.047zm-11.669-3.436l11.621 3.101 8.497-8.514-11.62-3.102z"/><path class="cls-4" d="M27.225 47.416a.169.169 0 01-.041-.005L15.21 44.214a.157.157 0 01-.111-.111l-2.433-9.045.305-.082 2.409 8.956L27 47.035l-2.362-8.783.304-.082 2.434 9.047a.16.16 0 01-.04.153.162.162 0 01-.112.047z"/><path class="cls-4" d="M27.337 47.37l-.225-.224 6.41-6.423.225.223-6.41 6.424z"/><path class="cls-4" transform="rotate(-15.054 34.242 32.026)" d="M34.084 29.347h.316v5.358h-.316z"/><path class="cls-4" d="M44.366 41.717a.158.158 0 01-.079-.022l-10.73-6.194a.157.157 0 01-.08-.137.161.161 0 01.08-.139l10.73-6.197a.158.158 0 01.158 0l10.733 6.197a.158.158 0 010 .274l-10.733 6.196a.158.158 0 01-.079.022zM33.95 35.363l10.416 6.013 10.416-6.014-10.416-6.015z"/><path class="cls-4" d="M44.366 51.085a.158.158 0 01-.079-.021l-10.73-6.197a.157.157 0 01-.08-.137v-9.366h.317v9.275l10.414 6.014V41.56h.316v9.368a.159.159 0 01-.158.158z"/><path class="cls-4" d="M44.445 51.064l-.158-.273 10.653-6.152v-9.277h.317v9.368a.157.157 0 01-.08.137z"/><path class="cls-2" d="M57.437 52.985a4.722 4.722 0 01-2.512-.773 6.066 6.066 0 01-2.34-3.26 9.505 9.505 0 00-3.32-4.543.988.988 0 111.185-1.581 11.319 11.319 0 013.96 5.366 4.399 4.399 0 001.552 2.336c1.472.908 2.457.395 3.94-.517a5.067 5.067 0 013.42-1.088.988.988 0 11-.31 1.952 3.544 3.544 0 00-2.075.82 6.727 6.727 0 01-3.5 1.288z"/><path class="cls-4" d="M63.167 50.06l-.024-.003a1.856 1.856 0 00-.226-.022.159.159 0 01-.152-.164.156.156 0 01.164-.152 2.322 2.322 0 01.262.026.158.158 0 01-.024.314zM57.444 52.153a.158.158 0 010-.316 3.202 3.202 0 00.47-.036.158.158 0 11.047.313 3.418 3.418 0 01-.517.04zm-.978-.15a.16.16 0 01-.046-.007 4.047 4.047 0 01-.483-.183.159.159 0 01-.08-.209.156.156 0 01.21-.08 3.793 3.793 0 00.445.17.158.158 0 01-.046.309zm2.425-.16a.158.158 0 01-.06-.304q.222-.092.438-.203a.159.159 0 01.144.282 6.57 6.57 0 01-.462.213.154.154 0 01-.06.012zm-3.744-.517a.157.157 0 01-.095-.033 3.459 3.459 0 01-.388-.344.159.159 0 01.229-.22 3.177 3.177 0 00.35.313.158.158 0 01-.096.284zm5.058-.181a.158.158 0 01-.082-.294l.422-.259a.158.158 0 01.166.27l-.424.26a.156.156 0 01-.082.023zm1.288-.747a.158.158 0 01-.07-.3 4.539 4.539 0 01.473-.202.158.158 0 01.107.297 4.21 4.21 0 00-.44.188.158.158 0 01-.07.017zm-7.308-.192a.158.158 0 01-.137-.08q-.126-.215-.238-.448a.158.158 0 11.285-.137q.107.22.226.427a.158.158 0 01-.136.238zm-.634-1.346a.157.157 0 01-.146-.097l-.191-.459a.159.159 0 01.293-.12l.19.457a.158.158 0 01-.086.207.154.154 0 01-.06.012zm-.596-1.365a.158.158 0 01-.143-.09q-.104-.215-.222-.435a.158.158 0 01.28-.15q.12.227.228.448a.158.158 0 01-.075.212.152.152 0 01-.068.015zm-.74-1.29a.158.158 0 01-.13-.07q-.133-.197-.284-.396a.158.158 0 01.252-.192c.104.138.2.275.294.41a.158.158 0 01-.131.248zm-.93-1.16a.158.158 0 01-.115-.05 10.878 10.878 0 00-.343-.348.158.158 0 01.22-.227c.124.12.241.24.353.358a.159.159 0 01-.006.223.157.157 0 01-.109.043zM50.179 44.026a.16.16 0 01-.1-.035c-.062-.051-.127-.1-.192-.152a.158.158 0 11.193-.25c.067.052.134.104.198.156a.158.158 0 01-.1.28z"/><path class="cls-4" d="M50.192 45.46a.198.198 0 01-.196-.17l-.213-1.545a.203.203 0 01.043-.152.199.199 0 01.14-.072l1.557-.1h.013a.198.198 0 01.013.395l-1.345.086.185 1.334a.198.198 0 01-.17.223.18.18 0 01-.027.002z"/></g></g></svg>