<svg xmlns="http://www.w3.org/2000/svg" viewBox="0 0 75 75"><defs><style>.cls-1{fill:none;}.cls-2{fill:#f0f8fa;}.cls-3{fill:#666;}.cls-4{fill:#00afca;}</style></defs><title>アセット 3902</title><g id="レイヤー_2" data-name="レイヤー 2"><g id="レイヤー_2-2" data-name="レイヤー 2"><rect class="cls-1" width="75" height="75" rx="8.3623" transform="translate(75) rotate(90)"/><path class="cls-2" d="M8.36242,5.0001H66.63776a3.362,3.362,0,0,1,3.362,3.362V66.63787a3.362,3.362,0,0,1-3.362,3.362H8.36223a3.362,3.362,0,0,1-3.362-3.362V8.36234A3.36224,3.36224,0,0,1,8.36242,5.0001Z" transform="translate(75 0.00001) rotate(90)"/><path class="cls-3" d="M66.6377,70.125H8.3623A3.49132,3.49132,0,0,1,4.875,66.6377V8.3623A3.49132,3.49132,0,0,1,8.3623,4.875H66.6377A3.49132,3.49132,0,0,1,70.125,8.3623V66.6377A3.49132,3.49132,0,0,1,66.6377,70.125Zm-58.2754-65A3.24084,3.24084,0,0,0,5.125,8.3623V66.6377A3.24084,3.24084,0,0,0,8.3623,69.875H66.6377a3.24084,3.24084,0,0,0,3.2373-3.2373V8.3623A3.24084,3.24084,0,0,0,66.6377,5.125Z"/><polygon class="cls-4" points="17.604 11.736 17.007 12.017 17.423 12.528 16.764 12.521 16.917 13.163 16.326 12.871 16.185 13.516 15.779 12.996 15.373 13.516 15.233 12.871 14.641 13.163 14.795 12.521 14.135 12.528 14.551 12.017 13.954 11.736 14.551 11.456 14.135 10.944 14.795 10.951 14.641 10.309 15.233 10.602 15.373 9.957 15.779 10.477 16.185 9.957 16.326 10.602 16.917 10.309 16.764 10.951 17.423 10.944 17.007 11.456 17.604 11.736"/><path class="cls-2" d="M17.86641,10.26714a.34719.34719,0,0,0-.19744.06167l-1.62874,1.11975a.3492.3492,0,0,0,0,.5755L17.669,13.14383a.349.349,0,0,0,.547-.28775V10.61655a.34989.34989,0,0,0-.34959-.34941Z"/><path class="cls-4" d="M16.2954,16.33573h-.49831l.71459.49128-.71751.49327h.48542l.72391-.49771Zm.88419,0h-.48544l.70813.48684-.724.49771h.49835l.71747-.49327Zm1.26233-5.05821a3.055,3.055,0,0,0-.45184-.03333v-.62764A.12327.12327,0,0,0,17.797,10.515l-1.62875,1.11977a.12328.12328,0,0,0,0,.20317L17.797,12.95766a.12327.12327,0,0,0,.19311-.10158v-.62746a2.05393,2.05393,0,0,1,.1456,4.10269c-.049.00339-.0975.00443-.14578.00442h-.41155l.71458.49128-.71749.49327h.41446c.07848,0,.15738-.0019.2371-.008a3.03892,3.03892,0,0,0,.21492-6.03479Z"/><path class="cls-4" d="M24.60105,14.40488V13.24817h-.86329v-.627h.86329V11.49031h.71465v1.13085h1.26945v-1.11h.71465v1.11h.94049v.627H27.2998v.40114c0,1.26945-.55018,1.96325-2.04549,2.26633l-.26756-.60114c1.18722-.22624,1.5984-.67333,1.5984-1.66017v-.40616H25.3157v1.15671Z"/><path class="cls-4" d="M31.39077,15.87973v-2.169a8.39156,8.39156,0,0,1-1.68565.81232l-.33436-.60654a8.38562,8.38562,0,0,0,3.57748-2.42076l.53975.46755a7.38153,7.38153,0,0,1-1.34165,1.239v2.67751Z"/><path class="cls-4" d="M35.54854,15.9056V11.50576h.70924v1.48566a12.64327,12.64327,0,0,1,2.33891,1.1l-.39072.627a9.588,9.588,0,0,0-1.94819-.98683v2.174Zm2.15861-3.28444a3.22107,3.22107,0,0,0-.38532-.86869l.39072-.195a3.39561,3.39561,0,0,1,.43165.87874Zm.73511-.29806a2.92129,2.92129,0,0,0-.40076-.82738l.39072-.2108a3.47862,3.47862,0,0,1,.43666.85827Z"/><path class="cls-4" d="M42.93939,14.20952l-.34979-.54477a1.52276,1.52276,0,0,0,1.03857-1.18219H40.30242V11.871h4.20989A2.62374,2.62374,0,0,1,42.93939,14.20952ZM41.048,15.921l-.35983-.55519c.99186-.36987,1.16174-.86869,1.16174-1.85013v-.6992h.71966v.70422A2.18392,2.18392,0,0,1,41.048,15.921Z"/><path class="cls-4" d="M46.80412,13.58754a5.3481,5.3481,0,0,1-.60152.627l-.49342-.45751a5.77284,5.77284,0,0,0,1.54743-2.30764h.72971c-.05637.16447-.11815.329-.19.49844h1.88642c-.26756,1.96363-1.08992,3.39756-2.73967,3.99368l-.34439-.54979a3.21939,3.21939,0,0,0,1.444-1.00228A6.09836,6.09836,0,0,0,46.80412,13.58754Zm1.60882.24671a4.21482,4.21482,0,0,0,.44207-1.27988H47.50332c-.10308.17992-.2108.35983-.32894.52932A9.189,9.189,0,0,1,48.41294,13.83425Z"/><path class="cls-4" d="M51.502,14.33268a8.43644,8.43644,0,0,0-.44709-1.34667l.5552-.21582a9.12267,9.12267,0,0,1,.51349,1.33625Zm.483,1.62427-.334-.53975a2.5739,2.5739,0,0,0,2.05089-2.69334h.66793A3.21911,3.21911,0,0,1,51.985,15.957Zm.57025-1.78874a7.64211,7.64211,0,0,0-.44169-1.34126l.56021-.22123a9.01508,9.01508,0,0,1,.50385,1.33624Z"/><path class="cls-4" d="M57.82844,12.11771h1.94819c-.36987,1.98371-1.18722,3.25316-2.72423,3.80835l-.34439-.56021a3.30731,3.30731,0,0,0,2.159-2.62655H57.5049a6.38184,6.38184,0,0,1-1.20266,1.4957l-.51388-.4521a5.382,5.382,0,0,0,1.50573-2.21537h.74515C57.97747,11.75247,57.90565,11.93779,57.82844,12.11771Z"/><path class="cls-4" d="M11.515,59.02453c-.41,0-.6521-.18725-.6521-.671V57.052h.20656v1.2849c0,.37218.15636.49071.45519.49071a.77516.77516,0,0,0,.6992-.5382l.16371.11158A.9506.9506,0,0,1,11.515,59.02453Zm.2915-1.29455a1.58933,1.58933,0,0,0-.17529-.39613l.11853-.06138a1.50049,1.50049,0,0,1,.18957.40539Zm.30848-.1139a1.46843,1.46843,0,0,0-.17567-.3911l.11853-.06178a1.62572,1.62572,0,0,1,.19.39845Z"/><path class="cls-4" d="M13.68793,58.99364c-.61157,0-.915-.1305-.915-.45288,0-.22509.22046-.44323.56407-.64013a2.22916,2.22916,0,0,1-.16331-.89379h.20848a2.26711,2.26711,0,0,0,.12548.80151,5.9,5.9,0,0,1,.7328-.29651l.07335.18725c-.77758.249-1.3347.55249-1.3347.82739,0,.20385.1969.27991.70886.27991.21582,0,.48145-.012.678-.03089v.19189C14.174,58.984,13.92035,58.99364,13.68793,58.99364Zm.37952-1.58836a1.4301,1.4301,0,0,0-.17065-.38647l.11582-.05946a1.59514,1.59514,0,0,1,.18262.39381Zm.30346-.07838a1.37183,1.37183,0,0,0-.16833-.37682l.11351-.05945a1.4915,1.4915,0,0,1,.18262.38415Z"/><path class="cls-4" d="M15.09019,59.05541l-.04749-.18261c.70886-.05946,1.03124-.28455,1.03124-.64245a.375.375,0,0,0-.41234-.39844,6.60143,6.60143,0,0,0-.88916.09729l-.03783-.19227a6.75046,6.75046,0,0,1,.939-.09691.55567.55567,0,0,1,.61388.59033C16.28745,58.69944,15.85117,59.00059,15.09019,59.05541Zm.88182-1.669a4.19043,4.19043,0,0,0-.89379-.22547l.04518-.18262a4.5597,4.5597,0,0,1,.91038.22779Z"/><path class="cls-4" d="M21.26912,59.06236l-.05173-.17065c.47411-.05443.71348-.2301.71348-.517a.41769.41769,0,0,0-.31273-.40539,1.33442,1.33442,0,0,1-1.05285.98414.33429.33429,0,0,1-.35559-.35829A.88925.88925,0,0,1,20.8,57.87206c.00463-.11853.01428-.244.0305-.3745h-.51427V57.3269h.53821c.01891-.12084.04015-.24169.0664-.3579h.20154c-.02625.11621-.04981.23706-.06872.3579h.9768v.17066H21.02975c-.01158.10694-.02355.20887-.02819.30346a1.43936,1.43936,0,0,1,.35327-.04479c.04247,0,.08263.00232.12085.00464.00733-.04286.012-.08533.0166-.1305h.19227c-.005.05675-.01235.11158-.02162.166a.58629.58629,0,0,1,.46717.576C22.1301,58.76122,21.81968,58.99827,21.26912,59.06236Zm-.87448-.46948a.1596.1596,0,0,0,.178.18262.631.631,0,0,0,.31968-.11158A1.65107,1.65107,0,0,1,20.795,58.062.67847.67847,0,0,0,20.39464,58.59288Zm.93394-.6687a1.10993,1.10993,0,0,0-.33435.05251v.02587a1.78,1.78,0,0,0,.06177.53588,1.37267,1.37267,0,0,0,.37914-.60924C21.40194,57.92688,21.36642,57.92418,21.32858,57.92418Z"/><path class="cls-4" d="M22.97022,58.94384c-.31273,0-.55674-.55713-.55674-1.2849,0-.13513.00232-.249.00927-.36524h.20617c-.01158.11853-.0139.23474-.0139.3579,0,.64747.19883,1.06946.339,1.06946.06371,0,.18224-.18493.26525-.44824l.166.09961C23.27368,58.68786,23.12234,58.94384,22.97022,58.94384Zm1.09069-.41273a1.62538,1.62538,0,0,0-.44593-1.17563l.14479-.11622a1.77779,1.77779,0,0,1,.51,1.29185Z"/><path class="cls-4" d="M26.0203,57.45007a.47028.47028,0,0,0-.20848.088,1.01014,1.01014,0,0,0-.50964.78222c0,.31311.27721.48376.83472.4884l-.0332.18956c-.671-.00926-1.003-.27026-1.003-.66831a1.12547,1.12547,0,0,1,.52623-.87719l-1.13548.0471-.00965-.18725,1.88256-.07567.00695.18725C26.23883,57.42883,26.101,57.43848,26.0203,57.45007Z"/><path class="cls-4" d="M31.35062,58.93689a2.04126,2.04126,0,0,0-.60423-.356c-.00733.33436-.11158.46485-.42469.46485-.315,0-.52392-.154-.52392-.34863,0-.20386.21119-.35327.56214-.35327a1.69919,1.69919,0,0,1,.18725.012c-.00734-.27953-.02625-.75866-.02625-1.361h.19922c0,.19227.00231.37219.00463.5382h.73048v.178h-.72816c.00733.28686.01428.5216.0166.68762a2.04856,2.04856,0,0,1,.72314.39111Zm-1.0073-.422c-.23011,0-.36293.07336-.36293.18455,0,.10695.12819.17336.3247.17336.19227,0,.24208-.06641.2444-.34169A1.218,1.218,0,0,0,30.34332,58.51489Z"/><path class="cls-4" d="M32.80076,58.96044c-.61427,0-.89148-.173-.89148-.44555a.7721.7721,0,0,1,.29883-.51928l.13745.10887a.60483.60483,0,0,0-.23706.38416c0,.16833.16834.28686.69921.28686a5.30721,5.30721,0,0,0,.683-.04517l.01892.18725A5.9377,5.9377,0,0,1,32.80076,58.96044Zm-.05946-1.14977-.1305-.11853c.15174-.10192.31775-.20655.43628-.27759h-.96715V57.237h1.29919v.161A7.23779,7.23779,0,0,0,32.7413,57.81067Z"/><path class="cls-4" d="M37.41063,58.93148a1.98906,1.98906,0,0,0-.58569-.327c-.00232.29883-.0973.44786-.40771.44786-.3081,0-.52392-.14208-.52392-.34362s.20617-.33667.56176-.33667a1.26089,1.26089,0,0,1,.166.00965c-.00231-.09266-.00463-.20153-.00694-.32508H35.9242V57.879h.68723c-.00231-.10424-.00463-.21351-.00463-.32972h-.73009V57.374h.72777c-.00231-.12587-.00231-.256-.00231-.39111h.20153c0,.13513,0,.26524.00232.39111h.70886v.17528h-.70654c0,.11621.00231.22548.00463.32972h.6521v.1776h-.6494c.00464.14015.007.26331.007.36524a2.06681,2.06681,0,0,1,.69921.3579Zm-.97911-.39111c-.22548,0-.35791.06641-.35791.17066,0,.10694.13513.17065.3247.17065.18262,0,.22509-.06139.22509-.29613v-.03089A1.28417,1.28417,0,0,0,36.43152,58.54037Z"/><path class="cls-4" d="M38.384,59.05V58.308c-.10425.11853-.21814.25868-.34362.41968l-.14942-.13513c.18726-.23474.34825-.42431.493-.576v-.29884h-.4552v-.17528h.4552v-.54515h.19922v.82468a1.07838,1.07838,0,0,1,.73974-.3413.6314.6314,0,0,1,.62353.69457c0,.45056-.32972.72545-.98877.7992l-.05444-.18031c.58531-.06409.83936-.27257.83936-.62584a.449.449,0,0,0-.434-.493c-.20385,0-.415.10193-.72545.417V59.05Z"/><path class="cls-4" d="M52.73827,57.39061h.51v.173h-.5382a5.57749,5.57749,0,0,1-.4552,1.46288l-.1946-.083a4.79482,4.79482,0,0,0,.44092-1.37987h-.4216v-.173h.45017c.01931-.13513.03321-.27026.04016-.39613h.21621C52.77649,57.12266,52.75989,57.25548,52.73827,57.39061Zm.861,1.586c-.498,0-.75634-.11621-.75634-.3247a.5942.5942,0,0,1,.19884-.37952l.14748.08069c-.10926.12316-.14748.20154-.14748.26563,0,.11853.17566.17992.55519.17992a3.37206,3.37206,0,0,0,.34361-.0166v.1803C53.822,58.972,53.71507,58.97665,53.59924,58.97665ZM53.01857,57.969l-.02394-.17529a8.64094,8.64094,0,0,1,.922-.04285v.178A7.839,7.839,0,0,0,53.01857,57.969Z"/><path class="cls-4" d="M54.78569,58.94345c-.31312,0-.55712-.55712-.55712-1.2849,0-.13513.00231-.249.00926-.36523H54.444c-.01159.11852-.0139.23474-.0139.3579,0,.64746.19922,1.06946.339,1.06946.06409,0,.18262-.18494.26562-.44825l.166.09961C55.08915,58.68747,54.93742,58.94345,54.78569,58.94345Zm1.09069-.41273a1.627,1.627,0,0,0-.44593-1.17563l.14479-.11621a1.779,1.779,0,0,1,.50963,1.29184Z"/><path class="cls-4" d="M57.4493,59.062l-.05212-.17065c.47411-.05444.71387-.23011.71387-.517a.418.418,0,0,0-.31311-.40539,1.334,1.334,0,0,1-1.05286.98413.334.334,0,0,1-.3552-.35829.88943.88943,0,0,1,.58994-.72314c.00463-.11853.01428-.244.03089-.3745h-.51427v-.17065h.5382c.01854-.12085.04016-.24169.0664-.3579h.20155c-.02626.11621-.05019.237-.06873.3579h.9768v.17065H57.20993c-.01159.10694-.02394.20887-.02857.30346a1.44214,1.44214,0,0,1,.35327-.04478c.04285,0,.083.00231.12084.00463.00734-.04286.012-.08533.017-.1305h.19188c-.005.05676-.012.11158-.02123.166a.58593.58593,0,0,1,.46678.576C58.30989,58.76083,57.99947,58.99789,57.4493,59.062Zm-.87487-.46948a.15976.15976,0,0,0,.178.18262.63226.63226,0,0,0,.32007-.11158,1.65111,1.65111,0,0,1-.09729-.60191A.679.679,0,0,0,56.57443,58.5925Zm.93433-.66871a1.108,1.108,0,0,0-.33435.05251v.02587a1.76773,1.76773,0,0,0,.06177.53589,1.376,1.376,0,0,0,.37914-.60925C57.58211,57.9265,57.54659,57.92379,57.50876,57.92379Z"/><path class="cls-4" d="M10.7166,63.31125v.16717H10.424v-2.7833h.88568a3.56007,3.56007,0,0,0,.17451-.49805l.3413.06062c-.05212.12779-.122.28454-.19845.43743h1.20614v2.7833h-.30346v-.16717Zm1.81307-1.84357v-.49843H10.7166v.49843Zm0,.783v-.5162H10.7166v.5162Zm0,.79032v-.527H10.7166v.527Z"/><path class="cls-4" d="M14.09563,63.03713v-.2776H13.3945v-.21h.70113v-.22393h-.67642V61.20785h.67642v-.21h-.79842v-.21351h.79842v-.20308a6.37982,6.37982,0,0,1-.65905.03938l-.09073-.21351a5.69729,5.69729,0,0,0,1.576-.20308l.13976.19575a4.829,4.829,0,0,1-.69032.14594v.2386h.75634v.21351H14.3713v.21h.69032v1.11772H14.3713v.22393h.68646v.21H14.3713v.25636c.244-.01776.48415-.03552.67256-.05328l.00386.1637A3.66221,3.66221,0,0,0,15.511,61.2897h-.3413v-.26331h.35211q.01043-.40077.01-.82237h.27219c0,.2776-.00348.55519-.0139.82237h.64515a8.211,8.211,0,0,1-.19884,2.37752.30911.30911,0,0,1-.21968.07451c-.07645,0-.244,0-.34169-.007l-.03127-.27064a2.75055,2.75055,0,0,0,.29265.00733.09334.09334,0,0,0,.08031-.02857,7.9897,7.9897,0,0,0,.1359-1.88989h-.373a3.49539,3.49539,0,0,1-.6521,2.19258l-.26138-.12818a2.249,2.249,0,0,0,.14633-.178c-.49844.05328-1.25864.12818-1.68759.1637l-.04169-.249C13.48562,63.08,13.78522,63.05875,14.09563,63.03713Zm-.415-1.36289h.415v-.26717h-.415Zm0,.45172h.415v-.27759h-.415Zm1.10884-.45172v-.26717H14.3713v.26717Zm0,.45172v-.27759H14.3713V62.126Z"/><path class="cls-4" d="M18.91785,60.96577a.68362.68362,0,0,0-.30655.13166,1.56529,1.56529,0,0,0-.74978,1.203c0,.48416.41852.73318,1.22737.74052l-.049.28454c-.99379-.01428-1.47485-.41272-1.47485-1.01077a1.74537,1.74537,0,0,1,.77449-1.34551l-1.67021.07142-.0139-.28146,2.76824-.11389.01042.28146C19.23908,60.93373,19.03677,60.948,18.91785,60.96577Zm.122,1.0073a2.21419,2.21419,0,0,0-.251-.58376l.16756-.08533a2.31509,2.31509,0,0,1,.27181.59072Zm.42547-.178a2.128,2.128,0,0,0-.251-.566l.17065-.0888a2.58833,2.58833,0,0,1,.26872.57643Z"/><path class="cls-4" d="M19.9989,62.76687l-.1915-.20656a4.72626,4.72626,0,0,0,.64167-1.33123h-.57218v-.26331H20.463V60.204h.28223v.76175h.46755v.26331H20.7452V61.336c.17451.25636.36949.56214.47758.75094l-.17759.23126c-.0695-.16717-.18146-.40577-.3-.63357v1.79376H20.463V61.79509A5.41455,5.41455,0,0,1,19.9989,62.76687Zm1.625.49457v.19227H21.3448V60.35344h1.54125v3.10027h-.28918v-.19227Zm.97293-2.64083h-.97293v.605h.97293Zm0,1.48064V61.482h-.97293v.61928Zm0,.89341v-.63705h-.97293v.63705Z"/><path class="cls-4" d="M24.80066,62.05492v-.5162H23.63274v-.28107h1.16792v-.5162a10.64,10.64,0,0,1-1.09147.08919l-.11158-.2776a9.77311,9.77311,0,0,0,2.44084-.34554l.16023.26369a8.6639,8.6639,0,0,1-1.098.23127v.55519h1.16791v.28107H25.10065v.5162h1.45014V62.336H25.10065v.72623c0,.23474-.06641.37026-.293.4023a4.51317,4.51317,0,0,1-.59265.00695l-.0664-.30964a4.2353,4.2353,0,0,0,.51272.00695c.11119-.00695.13938-.0637.13938-.15984v-.673H23.34318v-.28107Z"/><path class="cls-4" d="M28.36771,63.297l-.11158-.256a1.145,1.145,0,0,0,1.06676-1.18529.94853.94853,0,0,0-.94823-.98259c-.14285,1.26714-.42547,2.17135-.91348,2.17135-.366,0-.65558-.48415-.65558-.99649a1.46962,1.46962,0,0,1,1.48875-1.44165,1.21088,1.21088,0,0,1,1.32853,1.24205A1.42791,1.42791,0,0,1,28.36771,63.297Zm-1.2764-1.25632c0,.36292.17451.67989.36292.67989.23706,0,.495-.66561.61349-1.83313A1.16521,1.16521,0,0,0,27.09131,62.04064Z"/><path class="cls-4" d="M31.04947,61.97655l-.13976.28107c-.05251-.13861-.13243-.33435-.22316-.52315v1.74395h-.27876V61.93755a5.0788,5.0788,0,0,1-.34207.8826l-.15289-.29536a4.65814,4.65814,0,0,0,.4911-1.30613h-.4355v-.25984h.43936V60.204h.27876v.7548h.32778v.25984h-.32778v.15289C30.82245,61.58158,30.9653,61.82366,31.04947,61.97655Zm.84707.9683a2.69021,2.69021,0,0,1-.72507.5301l-.27914-.14208a2.35452,2.35452,0,0,0,.72855-.50191Zm.03475-1.37061V61.336h-.87873v-.24555h.50577v-.3274h-.45674V60.521h.45674v-.32045h.26486V60.521H32.322v-.32045h.26872V60.521h.50538v.24208h-.50538v.3274H33.173V61.336h-.966v.23821h.84012v1.22081H31.12939V61.57424Zm-.53357.51273h.53357v-.28841h-.53357Zm0,.48029h.53357V62.2719h-.53357Zm.92429-1.47678v-.3274h-.49882v.3274Zm.44632.99649v-.28841H32.207V62.087Zm0,.48029V62.2719H32.207v.29536Zm-.27181.24941c.27876.18841.51234.36292.71812.52662l-.27875.13166c-.18146-.15637-.41157-.33435-.68029-.52662Z"/><path class="cls-4" d="M33.77949,63.26144a6.19671,6.19671,0,0,1-.11506-1.28837,9.25,9.25,0,0,1,.11158-1.39532h.29266a10.572,10.572,0,0,0-.1112,1.38837,6.46554,6.46554,0,0,0,.1112,1.249Zm1.78526-.09961c-.83356,0-1.14707-.17065-1.14707-.50539a1.0563,1.0563,0,0,1,.28957-.64785l.24015.11737a.82813.82813,0,0,0-.244.49149c0,.18494.23706.27374.86136.27374.16718,0,.34864-.00348.54052-.02124v.27065C35.91686,63.15836,35.73579,63.16183,35.56475,63.16183ZM34.491,61.14723v-.26678h1.593v.26678Z"/><path class="cls-4" d="M37.07474,63.23287v.18185h-.27567V60.42834h2.78986v2.98638h-.28956v-.18185Zm2.22463-.27373V60.70246H37.07474v2.25668Zm-.45327-1.79762v1.32775H37.51758V61.16152ZM37.779,62.23291h.79843v-.815H37.779Z"/><path class="cls-4" d="M40.58581,62.304h-.28957a3.679,3.679,0,0,1-.08687-.81156,5.99811,5.99811,0,0,1,.09421-.97139h.293a5.64589,5.64589,0,0,0-.09421.961,2.50983,2.50983,0,0,0,.03823.46253c.122-.15289.28918-.35211.44631-.54438l.14285.249C40.94873,61.85918,40.75684,62.09044,40.58581,62.304Zm.46407,1.11772-.178-.24208a1.57979,1.57979,0,0,0,1.04282-1.737c0-.21-.01429-.60847-.04556-.98916h.30346c.03475.37374.04865.75094.04865.98568A1.86363,1.86363,0,0,1,41.04988,63.42167Z"/><path class="cls-4" d="M44.21579,63.26878c-.90268,0-1.31115-.25984-1.31115-.66948a1.165,1.165,0,0,1,.43937-.77912l.20231.1637a.91135.91135,0,0,0-.34825.57643c0,.25289.2471.43087,1.02854.43087a7.64608,7.64608,0,0,0,1.00382-.068l.02818.28146A8.65093,8.65093,0,0,1,44.21579,63.26878Zm-.08725-1.7262-.1915-.178c.22316-.15328.46717-.30964.64168-.41659H43.156v-.26678h1.91074v.24169A10.813,10.813,0,0,0,44.12854,61.54258Z"/><path class="cls-4" d="M47.68208,63.33287a.57018.57018,0,0,1-.62083-.53048c-.02432-.1529-.0417-.3027-.05559-.40578-.02471-.15675-.07336-.24208-.18841-.24208a.77234.77234,0,0,0-.46408.36292,1.95491,1.95491,0,0,0-.14594.27065c-.08726.1888-.15366.33088-.26177.58029l-.2579-.10695c.31736-.776.75982-1.87908,1.13664-2.8331l.28261.09613c-.27566.67257-.4884,1.171-.64862,1.59107A.66834.66834,0,0,1,46.9045,61.87c.22625,0,.3274.15984.36949.39844.02432.14941.04207.27412.066.43087.03861.27026.16408.35559.356.35559.2996,0,.55442-.34517.64863-1.032l.25095.09613C48.49093,62.85219,48.184,63.33287,47.68208,63.33287Z"/><path class="cls-4" d="M50.78892,60.96577a.68668.68668,0,0,0-.30694.13166,1.56631,1.56631,0,0,0-.74978,1.203c0,.48416.41852.73318,1.22776.74052l-.049.28454c-.99378-.01428-1.47485-.41272-1.47485-1.01077a1.746,1.746,0,0,1,.77411-1.34551L48.54,61.04067l-.0139-.28146,2.76824-.11389.01081.28146C51.10976,60.93373,50.90745,60.948,50.78892,60.96577Zm.122,1.0073a2.23987,2.23987,0,0,0-.25095-.58376l.16717-.08533a2.31589,2.31589,0,0,1,.27219.59072Zm.42547-.178a2.12912,2.12912,0,0,0-.25134-.566l.171-.0888a2.60345,2.60345,0,0,1,.26833.57643Z"/><path class="cls-4" d="M52.20817,63.47842V61.64567a4.31743,4.31743,0,0,1-.31736.466l-.16409-.2525a4.636,4.636,0,0,0,.79882-1.65863l.27914.06756a5.34744,5.34744,0,0,1-.31042.83665v2.37366Zm1.7262-.61928v.61928H53.6448v-.61928h-.46716v-.27026h.46716v-.96831a4.40656,4.40656,0,0,1-.91734,1.31l-.21235-.22432A3.88085,3.88085,0,0,0,53.53322,61.304H52.651v-.27412h.99378V60.204h.28957v.82584h1.06675V61.304h-.9517a4.17007,4.17007,0,0,0,1.01464,1.37756l-.22316.23127a4.76438,4.76438,0,0,1-.90653-1.33123v1.0073h.45326v.27026Z"/><path class="cls-4" d="M57.86048,63.05489v-.53358h-2.1478v-.26369h2.1478v-.49111H55.5208V61.5032h1.20266V60.20055h.30037V61.5032h1.13278v1.97522h-.29613v-.15636H55.48257v-.26717Zm-2.0783-2.6586a3.58254,3.58254,0,0,1,.54052.88646l-.25443.13165a3.4316,3.4316,0,0,0-.52662-.883Zm2.51033.12818a8.20113,8.20113,0,0,1-.62391.90383l-.244-.12779a7.28234,7.28234,0,0,0,.57874-.90769Z"/><path class="cls-4" d="M59.64922,60.91249H60.399v.25984h-.79148a8.53972,8.53972,0,0,1-.66947,2.19606l-.28609-.12471a7.35773,7.35773,0,0,0,.64863-2.07135h-.62045v-.25984h.66214c.02819-.20308.049-.40578.05907-.59457h.31737C59.70482,60.51019,59.68049,60.70941,59.64922,60.91249Zm1.26559,2.381c-.732,0-1.11193-.17451-1.11193-.48763a.89775.89775,0,0,1,.29266-.56948l.21621.12123a.66886.66886,0,0,0-.21621.39844c0,.178.2579.27065.81618.27065a4.92022,4.92022,0,0,0,.50539-.02509v.27064C61.2426,63.28654,61.08585,63.29349,60.91481,63.29349Zm-.854-1.51269-.03475-.26331A12.45825,12.45825,0,0,1,61.382,61.4534v.26678A11.31514,11.31514,0,0,0,60.06079,61.7808Z"/><path class="cls-4" d="M62.34488,62.304h-.28957a3.65812,3.65812,0,0,1-.08725-.81156,6.0424,6.0424,0,0,1,.0942-.97139h.29266a5.68616,5.68616,0,0,0-.09421.961,2.54419,2.54419,0,0,0,.03861.46253c.122-.15289.28957-.35211.44632-.54438l.14285.249C62.707,61.85918,62.51553,62.09044,62.34488,62.304Zm.4633,1.11772-.1776-.24208a1.5795,1.5795,0,0,0,1.04244-1.737c0-.21-.0139-.60847-.04518-.98916h.30308c.03514.37374.049.75094.049.98568A1.863,1.863,0,0,1,62.80818,63.42167Z"/><path class="cls-4" d="M64.64982,63.50352a.43071.43071,0,1,1,.42546-.42354A.43015.43015,0,0,1,64.64982,63.50352Zm0-.712a.2848.2848,0,1,0,.27875.28841A.28133.28133,0,0,0,64.64982,62.79157Z"/><path class="cls-4" d="M41.86035,35.52734a.153.153,0,0,1-.0791-.02148L30.89551,29.22168a.15791.15791,0,0,1-.0791-.13672.1627.1627,0,0,1,.0791-.13965L41.78125,22.6582a.15339.15339,0,0,1,.1582,0l10.88867,6.28711a.1577.1577,0,0,1,0,.27344L41.93945,35.50586A.153.153,0,0,1,41.86035,35.52734ZM31.28809,29.083l10.57226,6.10351L52.43262,29.082,41.86035,22.97754Z"/><rect class="cls-4" x="30.81641" y="29.08496" width="0.31641" height="5.49219"/><path class="cls-4" d="M41.86035,45.03125a.15311.15311,0,0,1-.0791-.02148l-6.833-3.94532.15821-.27343,6.5957,3.80859v-2.625h.3164v2.89844a.15791.15791,0,0,1-.0791.13672A.15309.15309,0,0,1,41.86035,45.03125Z"/><rect class="cls-4" x="41.70215" y="35.36914" width="0.31641" height="2.74316"/><path class="cls-4" d="M41.93945,45.00977l-.1582-.27344,10.80957-6.24024V35.69824h.31641v2.88867a.15792.15792,0,0,1-.07911.13672Z"/><rect class="cls-4" x="52.59082" y="29.08203" width="0.31641" height="2.74902"/><path class="cls-4" d="M41.38477,42.43164l-.15821-.27344,14.3916-8.2959a.52856.52856,0,0,0,.2334-.33886,2.26825,2.26825,0,0,0-1.33886-2.31836.51536.51536,0,0,0-.40918.03222L39.71094,39.5332l-.15821-.27343,14.39258-8.2959a.8292.8292,0,0,1,.64942-.06446,2.56856,2.56856,0,0,1,1.56152,2.70606.83421.83421,0,0,1-.37988.53027Z"/><path class="cls-4" d="M40.99707,42.53223a1.98367,1.98367,0,0,1-1.502-1.124h0c-.51367-.88965-.48828-1.834.05761-2.14843.54981-.31739,1.376.13476,1.88965,1.02343.51367.88965.48828,1.834-.05761,2.14844A.76319.76319,0,0,1,40.99707,42.53223ZM39.76855,41.25c.41114.71191,1.084,1.125,1.458.9082.37891-.21875.35254-1.00488-.05761-1.71679-.41114-.71-1.07715-1.124-1.458-.90821-.37891.21875-.35254,1.00489.05761,1.7168Z"/><polygon class="cls-4" points="28.345 32.417 28.187 32.144 30.895 30.582 31.053 30.855 28.345 32.417"/><path class="cls-4" d="M30.127,34.36621a2.2852,2.2852,0,0,0-.32519-1.041c-.41114-.71192-1.083-1.12208-1.457-.90821-.26758.15528-.34278.61621-.1875,1.14942l-.30274.08789c-.20117-.68555-.07031-1.27832.332-1.51075.54786-.31933,1.375.13477,1.88868,1.02344a2.59882,2.59882,0,0,1,.36816,1.18946Z"/><path class="cls-4" d="M24.55078,44.13574a.15575.15575,0,0,1-.04687-.00683l-11.99805-3.748a.16053.16053,0,0,1-.06152-.26953l9.24609-8.51856a.15207.15207,0,0,1,.1543-.03515l12.001,3.75a.15868.15868,0,0,1,.06055.26758l-9.248,8.51855A.16.16,0,0,1,24.55078,44.13574Zm-11.6914-3.97656L24.51074,43.7998l8.97949-8.27148-11.65234-3.6416Z"/><path class="cls-4" d="M26.63184,53.41016a.15582.15582,0,0,1-.04688-.00684l-11.999-3.751a.15919.15919,0,0,1-.10742-.11718l-2.08008-9.27149.30859-.06836L14.76758,49.377,26.418,53.01953l-2.02149-9.00781.3086-.06836,2.08105,9.27441a.15767.15767,0,0,1-.04687.15039A.16.16,0,0,1,26.63184,53.41016Z"/><polygon class="cls-4" points="26.739 53.368 26.524 53.136 33.112 47.067 33.327 47.3 26.739 53.368"/><polygon class="cls-4" points="35.703 44.666 33.645 35.493 33.953 35.425 36.012 44.598 35.703 44.666"/><path class="cls-4" d="M40.65234,49.75,30.11328,46.34668c-.582-.18945-.79785-1.08106-.49121-2.02832.30859-.94727,1.001-1.542,1.58887-1.35352L41.75,46.36816l-.09766.30079L31.11328,43.26562c-.40234-.127-.94629.39551-1.19043,1.1504-.24414.75293-.11133,1.499.28809,1.62988L40.75,49.44922Z"/><path class="cls-4" d="M40.875,49.78516a.72645.72645,0,0,1-.22266-.03516c-.583-.18848-.79882-1.08008-.49121-2.02832a2.17294,2.17294,0,0,1,.958-1.28223.81736.81736,0,0,1,.63086-.07031c.582.18848.79785,1.0791.49121,2.02734h0C41.97168,49.22559,41.4043,49.78516,40.875,49.78516Zm.65137-3.13477a.58636.58636,0,0,0-.26367.07031,1.89253,1.89253,0,0,0-.80079,1.09864c-.24414.7539-.1123,1.5.28809,1.62988.39746.1289.94531-.39649,1.19043-1.15039.24414-.75293.1123-1.499-.28809-1.62891A.41471.41471,0,0,0,41.52637,46.65039Z"/><path class="cls-4" d="M42.98047,54.43848a.15806.15806,0,0,1-.04785-.3086l.23437-.07617a.15964.15964,0,0,1,.19922.10156.158.158,0,0,1-.10156.19922l-.23633.07617A.16325.16325,0,0,1,42.98047,54.43848Z"/><path class="cls-4" d="M44.1416,54.05078a.15818.15818,0,0,1-.05176-.30762c.15528-.05371.30762-.10742.46094-.16211a.15845.15845,0,0,1,.10547.29883q-.23.082-.46289.16211A.16009.16009,0,0,1,44.1416,54.05078Zm1.37891-.49805a.15832.15832,0,0,1-.05567-.30664c.15235-.05664.30469-.11523.45411-.17382a.15832.15832,0,0,1,.11523.29492q-.22705.08789-.458.17578A.15945.15945,0,0,1,45.52051,53.55273Zm1.36328-.53906a.15831.15831,0,0,1-.06055-.30469q.22706-.09228.44824-.1875a.15836.15836,0,0,1,.125.291c-.14941.06348-.30078.126-.45214.18945A.16274.16274,0,0,1,46.88379,53.01367Zm1.3457-.58008a.15835.15835,0,0,1-.06543-.30273q.22413-.09961.44336-.20215a.15817.15817,0,0,1,.13281.28711c-.14648.06836-.29589.13574-.44531.2041A.1746.1746,0,0,1,48.22949,52.43359Zm1.3252-.625a.158.158,0,0,1-.06934-.2998c.14649-.07227.291-.14551.43555-.21777a.15766.15766,0,0,1,.14258.28125q-.21679.11131-.43946.21972A.14787.14787,0,0,1,49.55469,51.80859Zm1.30273-.67089a.15807.15807,0,0,1-.07519-.29688c.14453-.07812.28613-.15625.42773-.23437a.16021.16021,0,0,1,.21484.0625.15787.15787,0,0,1-.0625.21484q-.2124.11718-.42968.23437A.1491.1491,0,0,1,50.85742,51.1377Zm1.27637-.72071a.15826.15826,0,0,1-.08008-.29492c.14063-.082.2793-.166.417-.249a.15847.15847,0,0,1,.2168.05273.15656.15656,0,0,1-.05273.2168q-.20655.12744-.4209.25293A.15906.15906,0,0,1,52.13379,50.417Zm1.24512-.77344a.15819.15819,0,0,1-.08594-.291c.13672-.08887.27148-.17871.40527-.26758a.15764.15764,0,1,1,.17578.26172c-.13379.09082-.2705.18066-.40918.27148A.16279.16279,0,0,1,53.37891,49.64355Zm1.21093-.82421a.16016.16016,0,0,1-.1289-.06641.15809.15809,0,0,1,.03711-.2207c.13281-.09473.26465-.19043.39355-.28516a.15553.15553,0,0,1,.2207.0332.15763.15763,0,0,1-.0332.22071c-.13086.09668-.26269.19238-.39746.28906A.1578.1578,0,0,1,54.58984,48.81934Zm1.16993-.88282a.15815.15815,0,0,1-.09766-.28222q.1919-.15236.37793-.30469a.15817.15817,0,1,1,.20117.24414c-.126.10352-.25391.207-.38379.30859A.15277.15277,0,0,1,55.75977,47.93652Zm1.125-.93945a.15822.15822,0,0,1-.1045-.27734q.1831-.16115.36035-.32325a.15826.15826,0,0,1,.21485.23243q-.18018.16553-.36621.3291A.15813.15813,0,0,1,56.88477,46.99707ZM57.958,46a.15584.15584,0,0,1-.11231-.04688.15855.15855,0,0,1,.001-.22363q.17578-.17284.34277-.34375a.15516.15516,0,0,1,.22364-.00293.15858.15858,0,0,1,.00293.22364c-.11329.11621-.2295.23242-.34668.34765A.16.16,0,0,1,57.958,46Zm1.01367-1.05762a.15819.15819,0,0,1-.11719-.26465q.16407-.18163.32129-.36328a.16083.16083,0,0,1,.22363-.0166.159.159,0,0,1,.01661.22363q-.15968.18458-.32715.36914A.15867.15867,0,0,1,58.97168,44.94238Zm.94922-1.11718a.15831.15831,0,0,1-.12305-.25684c.10156-.127.20117-.25488.29688-.38184a.15821.15821,0,1,1,.252.19141c-.09766.12891-.19922.25879-.30273.38769A.15768.15768,0,0,1,59.9209,43.8252Zm.876-1.17383a.15307.15307,0,0,1-.08985-.02832.15741.15741,0,0,1-.04-.21973c.09278-.13379.18457-.26758.27246-.40137a.15791.15791,0,0,1,.26367.17383q-.13476.20361-.27636.40723A.15739.15739,0,0,1,60.79688,42.65137Zm.79394-1.23145a.15417.15417,0,0,1-.081-.02246.15775.15775,0,0,1-.05469-.2168c.083-.13964.165-.27929.24414-.41992a.16166.16166,0,0,1,.21582-.05957.15829.15829,0,0,1,.05957.21582c-.08106.14258-.16309.28418-.248.42578A.1571.1571,0,0,1,61.59082,41.41992Zm.70606-1.28515a.15388.15388,0,0,1-.07129-.01758.1565.1565,0,0,1-.06934-.21192c.07324-.1455.14355-.291.21289-.43554a.15812.15812,0,0,1,.28516.13672q-.104.21972-.2168.4414A.15581.15581,0,0,1,62.29688,40.13477Zm.61035-1.333a.1629.1629,0,0,1-.06055-.01172.15926.15926,0,0,1-.08594-.207q.09375-.22413.17774-.44922a.15853.15853,0,1,1,.29687.11133c-.05762.15234-.11914.30566-.18164.459A.15887.15887,0,0,1,62.90723,38.80176Zm.50586-1.375a.17.17,0,0,1-.04883-.00781.158.158,0,0,1-.10156-.19922c.05078-.15528.09765-.3086.14355-.46289a.15789.15789,0,1,1,.30273.08984q-.06883.23438-.1455.4707A.15888.15888,0,0,1,63.41309,37.42676Zm.3955-1.41114a.15171.15171,0,0,1-.03613-.0039.15939.15939,0,0,1-.11816-.19043c.03808-.15918.07324-.31641.10449-.47266a.15839.15839,0,0,1,.31055.0625c-.03321.16016-.06836.32129-.10645.48242A.15915.15915,0,0,1,63.80859,36.01562Zm.27735-1.43945-.02344-.002a.1585.1585,0,0,1-.13281-.17969c.02441-.16113.04492-.32031.06347-.47949a.14673.14673,0,0,1,.17579-.13867.159.159,0,0,1,.13867.17578c-.01856.16113-.041.32422-.06543.48926A.15838.15838,0,0,1,64.08594,34.57617Zm.15136-1.458h-.00976a.15913.15913,0,0,1-.14844-.168c.00977-.16309.0166-.32422.02051-.48243a.1766.1766,0,0,1,.16211-.15429.15885.15885,0,0,1,.1543.16211c-.00391.16211-.01075.32714-.02051.49414A.15828.15828,0,0,1,64.2373,33.11816Zm.01368-1.46582a.15877.15877,0,0,1-.15821-.15136c-.00683-.16407-.0166-.3252-.02832-.4834a.15987.15987,0,0,1,.14649-.16992.16864.16864,0,0,1,.16992.14648c.01172.16211.02148.32715.02832.49316a.15832.15832,0,0,1-.15137.165Zm-.1377-1.459a.15752.15752,0,0,1-.15625-.13379c-.02539-.16309-.05273-.32129-.083-.47559a.158.158,0,0,1,.125-.18554.15281.15281,0,0,1,.18555.125c.03027.1582.05957.32031.085.4873a.158.158,0,0,1-.13183.18067Zm-.31836-1.42969a.15759.15759,0,0,1-.15137-.1123q-.07177-.23732-.15234-.45508a.15811.15811,0,0,1,.09375-.20313.16.16,0,0,1,.20313.09375q.08349.22706.1582.47266a.1577.1577,0,0,1-.10547.19727A.154.154,0,0,1,63.79492,28.76367Zm-.5625-1.35156a.15778.15778,0,0,1-.13769-.08008,3.96544,3.96544,0,0,0-.25489-.39258.15762.15762,0,0,1,.252-.18945,3.97164,3.97164,0,0,1,.27832.42578.15876.15876,0,0,1-.05957.21582A.1611.1611,0,0,1,63.23242,27.41211Zm-.92773-1.12695a.15214.15214,0,0,1-.10742-.043q-.17286-.15968-.36133-.3125a.15915.15915,0,0,1-.02344-.22266.16117.16117,0,0,1,.22266-.02344c.13183.10743.25781.21582.377.32813a.15661.15661,0,0,1,.00781.22266A.15355.15355,0,0,1,62.30469,26.28516Zm-1.168-.88379a.15963.15963,0,0,1-.083-.02344c-.13476-.084-.27246-.16406-.415-.24219a.15848.15848,0,0,1-.0625-.21484.15528.15528,0,0,1,.21485-.0625c.14648.08008.29.16406.42871.25a.15823.15823,0,0,1-.083.293ZM50.834,25.18945a.15831.15831,0,0,1-.06933-.30078q.22558-.10986.44922-.207a.15435.15435,0,0,1,.208.08106.15719.15719,0,0,1-.08106.208q-.21827.09669-.4375.20313A.15946.15946,0,0,1,50.834,25.18945Zm8.999-.45605a.16674.16674,0,0,1-.06055-.01172q-.21972-.09082-.44922-.17188a.15844.15844,0,1,1,.10547-.29882q.23584.08349.46484.17773a.15831.15831,0,0,1-.06054.30469ZM52.18652,24.627a.15829.15829,0,0,1-.05273-.30761c.15723-.05567.31543-.10645.47168-.1543a.15584.15584,0,0,1,.19726.10547.15768.15768,0,0,1-.10546.19726c-.15235.0459-.30469.09668-.458.15039A.16591.16591,0,0,1,52.18652,24.627Zm6.25489-.34961a.16967.16967,0,0,1-.03809-.00488c-.1543-.03808-.31055-.07324-.46973-.10449a.15839.15839,0,0,1,.0625-.31055c.16309.0332.3252.06836.4834.1084a.15811.15811,0,0,1-.03808.31152Zm-4.84473-.04882a.158.158,0,0,1-.0332-.3125c.16308-.03516.32617-.06641.4873-.09473a.16079.16079,0,0,1,.18262.12988.15869.15869,0,0,1-.12988.18262c-.15723.02637-.31446.05762-.47364.09082A.13367.13367,0,0,1,53.59668,24.22852Zm3.40137-.2002-.0166-.001c-.15821-.0166-.31739-.02832-.4795-.03711a.1591.1591,0,0,1-.14941-.167.15223.15223,0,0,1,.167-.14941c.166.00879.33106.02246.49512.03906a.15816.15816,0,0,1-.0166.31543Zm-1.95313-.01562a.158.158,0,0,1-.01269-.31543c.166-.01465.332-.02442.49511-.03028a.15321.15321,0,0,1,.16407.15235.15892.15892,0,0,1-.15235.16406c-.15918.00586-.31933.01562-.48144.02832Z"/><path class="cls-4" d="M49.73926,25.78418a.15809.15809,0,0,1-.082-.293c.05761-.03613.11718-.07031.17578-.10449l.03808-.02246a.15845.15845,0,1,1,.16016.27344l-.03906.02246c-.05664.0332-.11426.0664-.1709.10058A.15617.15617,0,0,1,49.73926,25.78418Z"/><path class="cls-4" d="M51.25684,26.19727a.19115.19115,0,0,1-.04688-.00489l-1.51562-.36914a.19785.19785,0,0,1-.14161-.25293l.4795-1.48437a.20251.20251,0,0,1,.249-.12793.19838.19838,0,0,1,.12793.249l-.41406,1.28223,1.30859.31836a.19758.19758,0,0,1-.04687.38965Z"/><path class="cls-2" d="M23.46289,38.40137c-.02441,0-.04883-.001-.07422-.00293a.98879.98879,0,0,1-.88672-.75391c-.2998-1.24512-.60937-1.9541-.9209-2.10644-.30664-.15235-1.0332.02734-2.16113.53027a.98815.98815,0,0,1-1.23437-1.43652c.667-1.03809.95312-1.73047.84961-2.05567-.10352-.33008-.75879-.74316-1.94434-1.22656a.98836.98836,0,0,1,.1416-1.876c1.24512-.2998,1.9541-.60937,2.10645-.91992.15136-.30664-.02735-1.0332-.53028-2.16016a.98873.98873,0,0,1,1.43653-1.23535c1.03711.666,1.73047.95508,2.05566.84961.33106-.10547.74317-.75976,1.22656-1.94531a.97364.97364,0,0,1,.98926-.6123.98876.98876,0,0,1,.88672.7539c.2998,1.24512.60938,1.9541.9209,2.10645.30762.15429,1.0332-.02735,2.16113-.53028a.98816.98816,0,0,1,1.23438,1.43653,4.04114,4.04114,0,0,0-.86621,1.98144.98854.98854,0,0,1-1.9629.23633,2.89058,2.89058,0,0,1,.09668-1.12207,2.70141,2.70141,0,0,1-1.53613-.22754,2.77472,2.77472,0,0,1-1.19336-1.19922,2.77575,2.77575,0,0,1-1.36035,1.00586,2.73368,2.73368,0,0,1-1.55664-.00586,2.743,2.743,0,0,1-.22754,1.541,2.77991,2.77991,0,0,1-1.19922,1.19336,2.76743,2.76743,0,0,1,1.00586,1.35937,2.72528,2.72528,0,0,1-.00586,1.55664,2.57762,2.57762,0,0,1,2.73438,1.42871c.02148-.02832.043-.05566.06543-.082a.9882.9882,0,1,1,1.52929,1.252,6.86488,6.86488,0,0,0-.86523,1.65039A.98758.98758,0,0,1,23.46289,38.40137Z"/><path class="cls-4" d="M23.46289,37.57129l-.01172-.001a.157.157,0,0,1-.1416-.12011c-.38672-1.60157-.78125-2.3711-1.36133-2.65723s-1.4082-.13281-2.86621.51758a.1626.1626,0,0,1-.18457-.041.15865.15865,0,0,1-.01269-.18848c.86328-1.34472,1.13574-2.14355.94238-2.75488-.19531-.61719-.89746-1.123-2.42285-1.74512a.15806.15806,0,0,1,.02246-.2998c1.60156-.38574,2.37109-.78027,2.65722-1.36133.28418-.57617.13379-1.40625-.51757-2.86523a.15771.15771,0,0,1,.22949-.19727c1.34668.86328,2.14355,1.13477,2.75586.94141.61719-.19531,1.123-.89746,1.74414-2.42285a.1427.1427,0,0,1,.1582-.09766.157.157,0,0,1,.1416.12012C24.98242,26,25.377,26.76953,25.957,27.05566c.57813.28418,1.40723.13184,2.86621-.51757a.16506.16506,0,0,1,.18457.041.15866.15866,0,0,1,.0127.18848,4.29579,4.29579,0,0,0-.99121,2.53027.15884.15884,0,0,1-.13868.17578.15383.15383,0,0,1-.17578-.13867,3.87217,3.87217,0,0,1,.77442-2.30957c-1.27735.51953-2.06836.61133-2.67188.31445-.62011-.30566-1.03125-.99511-1.41211-2.40918-.58886,1.34082-1.09863,1.96094-1.75781,2.16993-.64258.2041-1.40918-.00489-2.59375-.71192.52149,1.27832.61035,2.06934.31445,2.6709-.30566.62109-.99609,1.03125-2.40918,1.41211,1.34082.58984,1.96094,1.09961,2.16993,1.75879.20214.63867-.00489,1.4082-.71289,2.59277,1.27636-.51953,2.06836-.61133,2.67187-.31445.62012.30566,1.03125.99512,1.41211,2.40918a6.6057,6.6057,0,0,1,.85645-1.50977.15818.15818,0,0,1,.24414.20118,7.42648,7.42648,0,0,0-.99121,1.86328A.1593.1593,0,0,1,23.46289,37.57129Z"/></g></g></svg>