<svg xmlns="http://www.w3.org/2000/svg" viewBox="0 0 75 75"><defs><style>.cls-1{fill:none;}.cls-2{fill:#fff;}.cls-3{fill:#666;}.cls-4{fill:#00afca;}</style></defs><title>アセット 2602</title><g id="レイヤー_2" data-name="レイヤー 2"><g id="レイヤー_2-2" data-name="レイヤー 2"><g id="ARC"><path class="cls-1" d="M8.3623,0H66.63818A8.36182,8.36182,0,0,1,75,8.36182V66.6377A8.3623,8.3623,0,0,1,66.6377,75H8.3623A8.3623,8.3623,0,0,1,0,66.6377V8.3623A8.3623,8.3623,0,0,1,8.3623,0Z"/><rect class="cls-2" x="4.99981" y="4.99989" width="65" height="65" rx="3.36207"/><path class="cls-3" d="M66.6377,70.125H8.3623A3.49132,3.49132,0,0,1,4.875,66.6377V8.36182A3.4909,3.4909,0,0,1,8.3623,4.875H66.6377A3.4909,3.4909,0,0,1,70.125,8.36182V66.6377A3.49132,3.49132,0,0,1,66.6377,70.125Zm-58.2754-65A3.24074,3.24074,0,0,0,5.125,8.36182V66.6377A3.24084,3.24084,0,0,0,8.3623,69.875H66.6377a3.24084,3.24084,0,0,0,3.2373-3.2373V8.36182A3.24074,3.24074,0,0,0,66.6377,5.125Z"/></g><path class="cls-4" d="M58.4081,34.49665a.23813.23813,0,0,0-.39177.21058,4.7371,4.7371,0,0,1,.01249,1.3155c-.67729,5.45275-10.39264,8.82951-23.12812,8.24554a55.04728,55.04728,0,0,1-10.82308-1.43472.23619.23619,0,0,0-.19932.41835c3.44793,2.63731,9.77446,4.40722,17.00959,4.41226,10.92636.00763,19.78674-4.01251,19.79023-8.97922A5.642,5.642,0,0,0,58.4081,34.49665Z"/><path class="cls-4" d="M41.38031,51.26523c-10.85894.86521-19.98785-2.5248-20.39-7.5718a4.39115,4.39115,0,0,1,.07049-1.19774.23627.23627,0,0,0-.42089-.18582c-1.50861,1.94-2.16583,3.9672-1.70929,5.86191,1.28263,5.323,10.85466,7.58218,21.37973,5.046A36.90856,36.90856,0,0,0,47.065,50.89714a.23685.23685,0,0,0-.14913-.44661A41.26471,41.26471,0,0,1,41.38031,51.26523Z"/><path class="cls-4" d="M59.66583,27.39333C58.96832,22.81564,49.884,19.52856,38.81149,21.17c-8.0026,1.182-14.05466,4.99536-13.52839,8.44949.44691,2.95294,5.57175,4.70716,12.04982,4.38973.45527-.03342.91888-.08354,1.38667-.15454,4.26025-.64738,7.48051-2.68562,7.20068-4.55263-.18083-1.182-1.72264-2.00964-3.91095-2.29572a.23818.23818,0,0,0-.16369.43377,1.25074,1.25074,0,0,1,.679,1.00573c.09187.99406-1.725,1.97976-4.064,2.20114A7.86138,7.86138,0,0,1,35.42,30.40472c-.99406-.33831-1.61221-.827-1.70829-1.441-.15453-1.02328,1.20708-2.15936,3.42491-3.06988a18.23821,18.23821,0,0,1,9.72757-1.16947c3.47921.52209,5.82652,1.73332,6.08965,3.45.46361,3.049-5.84322,6.54072-14.134,7.8564-.08354.01252-.17126.02506-.259.0334-10.47936,1.42845-19.46766-1.02328-20.07329-5.47149a3.61885,3.61885,0,0,1,.04382-1.19533l-.00288-.00114.02024-.06646a4.40838,4.40838,0,0,1,.25791-.79576,10.13365,10.13365,0,0,1,1.26119-2.49055.23789.23789,0,0,0-.31871-.34116C16.0542,28.07,13.97377,30.86422,14.36934,33.5498c.80611,5.47149,11.71987,8.46619,24.19153,6.62845C50.99914,38.28618,60.45105,32.5641,59.66583,27.39333Z"/><path class="cls-4" d="M64.53009,65.44292a.64212.64212,0,1,1,.642.65449.649.649,0,0,1-.642-.65449m-.53293,0a1.175,1.175,0,1,0,1.17493-1.17026,1.1601,1.1601,0,0,0-1.17493,1.17026"/><path class="cls-4" d="M61.51687,66.09738a.65461.65461,0,1,1,.642-.65445.64907.64907,0,0,1-.642.65445m0-1.82471a1.17025,1.17025,0,1,0,1.17494,1.17026,1.16013,1.16013,0,0,0-1.17494-1.17026"/><path class="cls-4" d="M59.51166,64.91474h.6077v-.54325h-.6077V63.6394h-.55435v1.83176a1.41154,1.41154,0,0,0,.1076.55306,1.14749,1.14749,0,0,0,.6913.6136l.27456-.46489a.92174.92174,0,0,1-.45645-.39337.83259.83259,0,0,1-.06144-.32159c0-.05663-.00122-.17788-.00122-.17788Z"/><path class="cls-4" d="M62.98381,63.64246a.36073.36073,0,0,0,.72135,0,.36072.36072,0,1,0-.72135,0"/><rect class="cls-4" x="63.07285" y="64.37146" width="0.54326" height="2.1858"/><polygon class="cls-4" points="66.284 66.407 66.207 66.407 66.207 66.38 66.39 66.38 66.39 66.407 66.314 66.407 66.314 66.613 66.284 66.613 66.284 66.407"/><polygon class="cls-4" points="66.513 66.613 66.45 66.424 66.45 66.613 66.419 66.613 66.419 66.38 66.462 66.38 66.528 66.578 66.596 66.38 66.638 66.38 66.638 66.613 66.607 66.613 66.607 66.424 66.544 66.613 66.513 66.613"/></g></g></svg>