<svg xmlns="http://www.w3.org/2000/svg" viewBox="0 0 315.51 187.85451"><defs><style>.cls-1{fill:#fff;}.cls-2{fill:#666;}.cls-3{fill:#00afca;}.cls-4{fill:#a9d8e5;}.cls-5{fill:#c7d932;}.cls-6{fill:none;}</style></defs><title>アセット 2302</title><g id="レイヤー_2" data-name="レイヤー 2"><g id="レイヤー_2-2" data-name="レイヤー 2"><g id="ARC"><rect class="cls-1" x="69.94397" y="9.67569" width="60.22034" height="60.22034" rx="3.11485"/><path class="cls-2" d="M127.04975,70.012H73.05854a3.23427,3.23427,0,0,1-3.23046-3.231V12.79032a3.23417,3.23417,0,0,1,3.23046-3.23047h53.99121a3.23418,3.23418,0,0,1,3.23047,3.23047V66.781A3.23428,3.23428,0,0,1,127.04975,70.012ZM73.05854,9.7913a3.00171,3.00171,0,0,0-2.998,2.999V66.781a3.00213,3.00213,0,0,0,2.998,2.99951h53.99121a3.00213,3.00213,0,0,0,2.998-2.99951V12.79032a3.00171,3.00171,0,0,0-2.998-2.999Z"/></g><path class="cls-3" d="M114.17121,21.59544l4.47806-6.51354a.49554.49554,0,0,1,.81669,0l4.47806,6.51354a.49554.49554,0,0,1-.40834.77628h-8.95612A.49554.49554,0,0,1,114.17121,21.59544Z"/><rect class="cls-3" x="117.08667" y="20.51904" width="3.94189" height="14.41389" rx="0.49554"/><path class="cls-3" d="M87.49488,42.45211a9.85067,9.85067,0,0,1,1.05968-1.18729,3.73566,3.73566,0,0,0-1.80906.60532,5.26356,5.26356,0,0,0-2.085,3.80572,2.40523,2.40523,0,0,0,.38452,1.85395,1.39823,1.39823,0,0,0,.762.39385A8.45422,8.45422,0,0,1,87.49488,42.45211Zm1.95249,7.208a4.25942,4.25942,0,0,1-.09318-1.45606c.34-3.23663,1.5-5.70707,3.31148-7.1293a2.82291,2.82291,0,0,0-.70243-.09494c-.03434,0-.069.00071-.10373.00214-.8524.03613-1.91368.081-3.49292,2.13921a7.07211,7.07211,0,0,0-1.38,5.3027,1.63731,1.63731,0,0,0,.68606,1.1466A2.08551,2.08551,0,0,0,89.44737,49.66013Zm5.22293-4.956a8.81637,8.81637,0,0,1,2.522-3.4392,4.536,4.536,0,0,0-1.44206-.25368,3.24118,3.24118,0,0,0-1.35246.28294c-2.17587.98957-3.57876,3.48434-3.95041,7.02465a2.42645,2.42645,0,0,0,.964,2.408,2.39773,2.39773,0,0,0,2.41947-.02,6.47906,6.47906,0,0,1-.1581-2.48587A12.68393,12.68393,0,0,1,94.6703,44.70418Zm18.70644-1.16485c-.61211-1.17188-2.55933-1.174-3.95515-.388-.96078.54107-2.088,1.76343-3.06047,5.141-.84747,2.94341-2.30867,2.82307-3.91142,3.47173-2.00043.80963-4.47847,1.882-4.76213,4.41692l-.01046-.00074c-.06081.34353-.11268.68466-.11339.6898a.5488.5488,0,0,1-1.08749-.14784c.00062-.00561-.00009-.01106.0008-.0167l.00447-.02911.00215-.01383.00993-.06376.00089-.00573c.03023-.192.09488-.59235.15944-.92009a11.61007,11.61007,0,0,1-7.46467-4.60319.40472.40472,0,0,0-.34412-.16038c-.06781.00517-.13716.00818-.20847.00818h-.00913a.42407.42407,0,0,0-.35319.67824q.4737.61125.99428,1.171v3.2414c0,1.1848,1.14669,2.50737,1.743,3.22377.59646.71638,1.85207,1.26746,1.85207,1.57054v1.22521a.879.879,0,0,0,.879.879h10.10779a.884.884,0,0,0,.87851-.89227c.00329-1.83569.68981-2.03566,1.3968-2.45276.29438-.17371.59235-.34755.89084-.546v.00078c1.275-.804,3.02828-2.34645,3.97224-6.99639l.00054-.003c.33015-1.30009.53163-2.491.83361-3.74158C112.27611,46.39855,114.16037,45.03981,113.37674,43.53933ZM84.48557,36.76346c-.025-6.23611,1.8611-11.72123,5.17517-15.04871a12.33318,12.33318,0,0,1,8.9353-3.64942c6.81522,0,13.717,6.741,13.722,19.62475.00018.39731-.01029.784-.02683,1.16415a13.6142,13.6142,0,0,1-7.71394-1.34542c.07315-4.55472-1.3478-8.87971-3.72524-11.31157a5.47192,5.47192,0,0,0-3.85313-1.86414h-.00107c-2.20628,0-4.15395,1.40915-5.48458,3.96794a20.43869,20.43869,0,0,0-1.89974,9.18569,16.21138,16.21138,0,0,0,.16131,2.178.5207.5207,0,0,0,.66879.43139l.01015-.00315a.52975.52975,0,0,0,.37195-.58085,14.98965,14.98965,0,0,1-.15055-2.02575,19.37792,19.37792,0,0,1,1.78026-8.69564c.80554-1.54937,2.24742-3.396,4.54241-3.396h.00107a4.45127,4.45127,0,0,1,3.09409,1.54471c2.20771,2.25815,3.519,6.34879,3.42246,10.67586-.00179.08189-.00644.16244-.00921.24388q-.01207.35339-.0364.70576l-.00465.0672q-.02562.35748-.06349.71287l-.00286.02851q-.04051.375-.09461.74647l-.00546.03365c-.02969.20169-.06367.40187-.09926.60137q-.03569.197-.0753.39066-.01878.09432-.03845.18819c-.01028.04824-.02352.09365-.03407.1416A4.95442,4.95442,0,0,0,99.579,41.2447c-1.82426.63778-2.84871,1.66562-3.915,3.92806a11.59617,11.59617,0,0,0-.89818,3.16277,4.42931,4.42931,0,0,0,.36628,2.65555,1.79307,1.79307,0,0,0,1.43759.88226c1.179.12323,1.8865-.43872,2.15656-1.71856a18.18469,18.18469,0,0,0,.35676-3.55186.54254.54254,0,0,1,.54893-.53089l.01216.00017a.54819.54819,0,0,1,.53763.56034c-.01037.48794-.03.92615-.0576,1.33807-.00769.11551-.01565.23042-.02486.34169-.01171.141-.02432.27963-.03854.41495-.028.26816-.0609.52682-.0998.77992a12.107,12.107,0,0,0,3.25139-4.82056,14.959,14.959,0,0,0,2.35674,1.03894.52687.52687,0,0,0,.6498-.27558l.00449-.0098a.52389.52389,0,0,0-.30843-.71552,13.80154,13.80154,0,0,1-2.33757-1.04928,20.50538,20.50538,0,0,0,.95228-5.02557,14.68331,14.68331,0,0,0,7.68541,1.29056c-.03286.3718-.07628.73832-.127,1.10106a.53346.53346,0,0,0,.40047.59019l.0105.00275a.52165.52165,0,0,0,.64589-.43432,25.74872,25.74872,0,0,0,.23481-3.51032c-.005-13.58054-7.44083-20.686-14.78365-20.686a13.37329,13.37329,0,0,0-9.68754,3.96186c-3.56339,3.57787-5.51141,9.19-5.48458,15.8022a25.4932,25.4932,0,0,0,.572,5.11307.52.52,0,0,0,.91884.21014l.009-.0116a.52358.52358,0,0,0,.1028-.42859A24.6854,24.6854,0,0,1,84.48557,36.76346Z"/><path class="cls-3" d="M125.0968,65.67416a.59491.59491,0,1,1,.5948.60636.60133.60133,0,0,1-.5948-.60636m-.49374,0A1.08856,1.08856,0,1,0,125.6916,64.59a1.0748,1.0748,0,0,0-1.08854,1.08421"/><path class="cls-3" d="M122.30516,66.2805a.60648.60648,0,1,1,.59482-.60634.60134.60134,0,0,1-.59482.60634m0-1.69054a1.08419,1.08419,0,1,0,1.08853,1.0842,1.07483,1.07483,0,0,0-1.08853-1.0842"/><path class="cls-3" d="M120.44739,65.18482h.563v-.50331h-.563v-.67826h-.51359v1.69707a1.30776,1.30776,0,0,0,.0997.51239,1.063,1.063,0,0,0,.64046.56848l.25438-.43071a.85385.85385,0,0,1-.42289-.36444.77127.77127,0,0,1-.05693-.29794c0-.05247-.00113-.1648-.00113-.1648Z"/><path class="cls-3" d="M123.66423,64.00609a.3342.3342,0,0,0,.6683,0,.3342.3342,0,1,0-.6683,0"/><rect class="cls-3" x="123.74672" y="64.68149" width="0.50331" height="2.02508"/><polygon class="cls-3" points="126.722 66.567 126.651 66.567 126.651 66.543 126.82 66.543 126.82 66.567 126.749 66.567 126.749 66.758 126.722 66.758 126.722 66.567"/><polygon class="cls-3" points="126.934 66.758 126.875 66.583 126.875 66.758 126.847 66.758 126.847 66.543 126.886 66.543 126.948 66.726 127.01 66.543 127.049 66.543 127.049 66.758 127.021 66.758 127.021 66.583 126.962 66.758 126.934 66.758"/><g id="ARC-2" data-name="ARC"><rect class="cls-1" x="79.20864" y="45.78223" width="60.22034" height="60.22034" rx="3.11485"/><path class="cls-2" d="M136.3144,106.11844H82.32319a3.23427,3.23427,0,0,1-3.23047-3.231V48.89725a3.23428,3.23428,0,0,1,3.23047-3.23095H136.3144a3.23428,3.23428,0,0,1,3.23047,3.231v53.99024A3.23427,3.23427,0,0,1,136.3144,106.11844ZM82.32319,45.89774a3.00213,3.00213,0,0,0-2.998,2.99951v53.99024a3.00213,3.00213,0,0,0,2.998,2.99951H136.3144a3.00214,3.00214,0,0,0,2.99805-2.99951V48.89725a3.00214,3.00214,0,0,0-2.99805-2.99951Z"/></g><polygon class="cls-3" points="110.05 63.555 106.176 65.372 108.878 68.691 104.6 68.647 105.594 72.809 101.758 70.913 100.848 75.094 98.214 71.722 95.581 75.094 94.671 70.913 90.835 72.809 91.829 68.647 87.551 68.691 90.252 65.372 86.379 63.555 90.252 61.738 87.551 58.42 91.829 58.463 90.835 54.302 94.671 56.197 95.581 52.016 98.214 55.388 100.848 52.016 101.758 56.197 105.594 54.302 104.6 58.463 108.878 58.42 106.176 61.738 110.05 63.555"/><path class="cls-1" d="M111.75105,54.02725a2.25161,2.25161,0,0,0-1.28047.39991L99.90776,61.68908a2.26464,2.26464,0,0,0,0,3.73225l10.56291,7.262a2.26308,2.26308,0,0,0,3.54756-1.86613v-14.524a2.26912,2.26912,0,0,0-2.26718-2.266Z"/><path class="cls-3" d="M101.56265,93.38368H98.33094l4.63434,3.18606-4.6533,3.199h3.1481l4.69479-3.22778Zm5.73417,0h-3.14819L108.741,96.541l-4.695,3.22778H107.278l4.653-3.199Zm8.18654-32.8039a19.8146,19.8146,0,0,0-2.93026-.21612V56.29322a.79946.79946,0,0,0-1.25239-.65879l-10.56291,7.262a.79948.79948,0,0,0,0,1.3176l10.56291,7.262a.79947.79947,0,0,0,1.25239-.65881V66.748a13.32031,13.32031,0,0,1,.94424,26.607c-.31773.022-.63233.02875-.9454.02868h-2.669l4.63424,3.18606-4.65311,3.199h2.68792c.50891.00006,1.0206-.0123,1.53765-.05169a19.70823,19.70823,0,0,0,1.39377-39.13726Z"/><path class="cls-3" d="M134.36147,101.78069a.59491.59491,0,1,1,.59479.60637.60132.60132,0,0,1-.59479-.60637m-.49374,0a1.08856,1.08856,0,1,0,1.08853-1.0842,1.0748,1.0748,0,0,0-1.08853,1.0842"/><path class="cls-3" d="M131.56983,102.387a.60648.60648,0,1,1,.59482-.60633.60134.60134,0,0,1-.59482.60633m0-1.69053a1.08419,1.08419,0,1,0,1.08853,1.0842,1.07483,1.07483,0,0,0-1.08853-1.0842"/><path class="cls-3" d="M129.71206,101.29136h.563v-.50331h-.563v-.67826h-.51359v1.69707a1.308,1.308,0,0,0,.09969.51239,1.06311,1.06311,0,0,0,.64047.56848l.25437-.43071a.85387.85387,0,0,1-.42288-.36444.77127.77127,0,0,1-.05693-.29794c0-.05247-.00113-.1648-.00113-.1648Z"/><path class="cls-3" d="M132.9289,100.11263a.3342.3342,0,0,0,.6683,0,.3342.3342,0,1,0-.6683,0"/><rect class="cls-3" x="133.01138" y="100.78803" width="0.50331" height="2.02508"/><polygon class="cls-3" points="135.986 102.674 135.915 102.674 135.915 102.649 136.085 102.649 136.085 102.674 136.014 102.674 136.014 102.865 135.986 102.865 135.986 102.674"/><polygon class="cls-3" points="136.199 102.865 136.14 102.69 136.14 102.865 136.112 102.865 136.112 102.649 136.151 102.649 136.213 102.833 136.275 102.649 136.314 102.649 136.314 102.865 136.286 102.865 136.286 102.69 136.227 102.865 136.199 102.865"/><g id="ARC-3" data-name="ARC"><rect class="cls-1" x="88.47331" y="81.88877" width="60.22034" height="60.22034" rx="3.11485"/><path class="cls-2" d="M145.57905,142.22489H91.58784a3.23418,3.23418,0,0,1-3.23047-3.23047V85.0037a3.23418,3.23418,0,0,1,3.23047-3.23047h53.99121a3.23418,3.23418,0,0,1,3.23047,3.23047v53.99072A3.23418,3.23418,0,0,1,145.57905,142.22489ZM91.58784,82.00468a3.00172,3.00172,0,0,0-2.99805,2.999v53.99072a3.00172,3.00172,0,0,0,2.99805,2.999h53.99121a3.00172,3.00172,0,0,0,2.99805-2.999V85.0037a3.00172,3.00172,0,0,0-2.99805-2.999Z"/></g><path class="cls-3" d="M101.75042,123.02872a7.92512,7.92512,0,0,1,.36895-1.22592,3.00514,3.00514,0,0,0-1.11317,1.05638,4.23435,4.23435,0,0,0-.2263,3.48359,1.93491,1.93491,0,0,0,.91066,1.221,1.12475,1.12475,0,0,0,.68946.02809A6.80116,6.80116,0,0,1,101.75042,123.02872Zm3.87414,4.5915a3.42652,3.42652,0,0,1-.563-1.02992,8.14159,8.14159,0,0,1-.00946-6.32377,2.27134,2.27134,0,0,0-.54442.16959c-.025.01168-.05009.024-.0749.03683-.60919.31614-1.36771.70969-1.81937,2.74722a5.68928,5.68928,0,0,0,.79667,4.33533,1.31716,1.31716,0,0,0,.89.60273A1.67772,1.67772,0,0,0,105.62456,127.62022Zm2.12307-5.389a7.0924,7.0924,0,0,1,.66947-3.36491,3.64924,3.64924,0,0,0-1.13764.30532,2.60733,2.60733,0,0,0-.88987.6661c-1.25,1.46125-1.42464,3.75712-.492,6.46469a1.952,1.952,0,0,0,1.52153,1.42793,1.92888,1.92888,0,0,0,1.75722-.83715,5.21211,5.21211,0,0,1-.96042-1.75867A10.20347,10.20347,0,0,1,107.74763,122.23117Zm13.24271-7.20912c-.84471-.64631-2.26513.01416-3.01559,1.0618-.51654.72113-.92279,1.99557-.48353,4.78874.38282,2.43414-.72344,2.84318-1.67147,3.861-1.18323,1.27041-2.62538,2.89474-1.97035,4.83938l-.00788.003c.07245.27114.15062.53749.15184.54148a.44149.44149,0,0,1-.84314.26194l-.00509-.01245-.00664-.02274-.00314-.01082-.01444-.04986-.00129-.00448c-.04325-.15029-.13221-.46414-.19657-.725a9.33988,9.33988,0,0,1-7.00744-.81831.32559.32559,0,0,0-.30542.00007c-.04768.02682-.09722.0526-.14921.07684l-.00666.00309a.34116.34116,0,0,0-.02692.61459q.55318.28459,1.123.51574l1.102,2.36328c.40282.86383,1.68851,1.43825,2.36682,1.75785s1.78124.29442,1.88428.5154l.50061,1.07356a.79866.79866,0,0,0,.723.46113l9.00466.00946a.79815.79815,0,0,0,.70552-1.17453c-.67092-1.25358-1.63932-3.06551-1.66588-3.11446-.90877-1.675-.42936-2.0729-.02047-2.66871.15558-.22674.31372-.45478.4639-.70093l.00026.00057c.65625-1.0197,1.41014-2.74034.51749-6.4515l-.00063-.00237c-.2013-1.06014-.45929-1.99692-.66429-3.01138C121.16,117.48087,122.07181,115.84961,120.99034,115.02205Zm-23.368,4.88222c-2.13842-4.53818-2.62809-9.1786-1.3431-12.73137a9.92157,9.92157,0,0,1,5.27392-5.69859c4.96893-2.31705,12.29278.25128,16.67667,9.643.13521.28962.25905.57511.37623.8579a10.95213,10.95213,0,0,1-6.08159,1.64166c-1.49519-3.34568-4.00162-6.01591-6.56178-6.98067a4.40194,4.40194,0,0,0-3.443-.04914l-.00079.00036c-1.60858.7501-2.54952,2.43967-2.64974,4.75766a16.44232,16.44232,0,0,0,1.73788,7.34309,13.04059,13.04059,0,0,0,.85809,1.53312.41888.41888,0,0,0,.63427.08716l.00633-.00576a.42614.42614,0,0,0,.07371-.55,12.05854,12.05854,0,0,1-.79848-1.42577,15.58882,15.58882,0,0,1-1.65838-6.94518c.06055-1.40351.484-3.24007,2.15726-4.02033l.00079-.00036a3.58087,3.58087,0,0,1,2.781.07431c2.37735.89582,4.72417,3.43244,6.12488,6.62012.02654.06031.05053.12062.0762.18094q.11135.26175.21341.52694l.01946.05058q.10285.26934.19607.54133l.0076.02176q.098.28719.18481.57641l.00746.02638c.04693.15715.09021.31465.13209.47221.02729.10382.053.2072.07791.31042q.01839.07516.03595.15029c.0089.03867.01469.07627.0233.11482a3.98565,3.98565,0,0,0-2.61039,1.0124,5.12175,5.12175,0,0,0-1.51893,4.19495,9.32889,9.32889,0,0,0,.42042,2.61131,3.56331,3.56331,0,0,0,1.1699,1.81161,1.44246,1.44246,0,0,0,1.34808.1545,1.475,1.475,0,0,0,.98806-1.98618,14.6286,14.6286,0,0,0-.94745-2.71093.43645.43645,0,0,1,.21972-.57369l.00893-.004a.441.441,0,0,1,.58248.22575c.15833.35928.293.68543.41293.99516.03366.08684.06693.17332.098.25758.0394.10678.07734.21215.113.31564.07076.205.13471.40481.19239.60256a9.7395,9.7395,0,0,0,.73166-4.62005,12.03334,12.03334,0,0,0,2.07151-.04376.42384.42384,0,0,0,.38007-.42184l-.00006-.00867a.42145.42145,0,0,0-.46814-.41682,11.10417,11.10417,0,0,1-2.061.02971,16.49572,16.49572,0,0,0-1.0143-3.98787,11.81212,11.81212,0,0,0,6.04214-1.672c.10245.28225.1954.56424.28174.846a.42916.42916,0,0,0,.49264.29415l.00858-.00157a.41964.41964,0,0,0,.32326-.53624,20.71416,20.71416,0,0,0-1.02224-2.63919c-4.62079-9.89977-12.45793-12.55229-17.81153-10.05586a10.75831,10.75831,0,0,0-5.71615,6.18215c-1.38163,3.82008-.89391,8.57412,1.37369,13.38592a20.50787,20.50787,0,0,0,2.15535,3.53345.41829.41829,0,0,0,.74136-.15918l.0026-.0115a.4212.4212,0,0,0-.07076-.34743A19.85906,19.85906,0,0,1,97.62232,119.90427Z"/><path class="cls-4" d="M136.44471,101.13459a10.75853,10.75853,0,0,0-8.4101-.405,16.41336,16.41336,0,0,0-8.13048,7.30731.42648.42648,0,0,0-.00814.42013l.00474.00888a.42044.42044,0,0,0,.72987.023,15.82146,15.82146,0,0,1,7.69777-6.95736,9.92163,9.92163,0,0,1,7.75543.37706c4.96887,2.317,7.70919,9.57834,3.33258,18.97348-.13494.28974-.27409.56812-.41538.83965a10.95213,10.95213,0,0,1-5.16677-3.60351c1.60186-3.29594,2.03629-6.93237,1.1297-9.5137a4.402,4.402,0,0,0-2.17552-2.66914l-.0008-.00036c-1.60857-.75009-3.50768-.38486-5.34777,1.02834a16.443,16.443,0,0,0-4.50806,6.05136c-.08544.18338-.16583.37617-.24312.57437a.42388.42388,0,0,0,.13573.48638h0a.42554.42554,0,0,0,.65733-.17921c.07183-.1802.14656-.35426.2242-.52087a15.58989,15.58989,0,0,1,4.25438-5.73466c1.11405-.85577,2.79317-1.71192,4.46639-.93167l.00081.00038a3.5811,3.5811,0,0,1,1.73072,2.17816c.84184,2.397.40724,5.82527-1.13435,8.94725-.02915.05911-.05992.11626-.08961.17469q-.12889.25356-.26648.50219l-.02629.04742q-.14018.25194-.28857.49816l-.01181.01981q-.15706.25965-.32282.51209l-.01538.02267c-.09023.137-.18305.27135-.27686.40471q-.093.13149-.1877.25922-.04575.0624-.092.12414c-.02388.03168-.049.0603-.073.09166a3.98576,3.98576,0,0,0-2.45345-1.34892,5.12192,5.12192,0,0,0-4.1899,1.53289,8.49992,8.49992,0,0,0-.834.82438l-.0022.00891a13.472,13.472,0,0,1,.42322,4.579,1.89688,1.89688,0,0,0,.95184-.73878,14.6276,14.6276,0,0,0,1.46772-2.46834.43636.43636,0,0,1,.58063-.20045l.00886.00427a.441.441,0,0,1,.20147.59132c-.17348.35222-.33668.66508-.49693.956-.0448.0816-.08969.16268-.13423.24068-.05651.09882-.11285.1956-.16919.28942-.1116.186-.22356.3634-.33793.53472a9.73958,9.73958,0,0,0,4.00943-2.40923,12.03844,12.03844,0,0,0,1.36507,1.55873.42389.42389,0,0,0,.56749.02l.00661-.00561a.42147.42147,0,0,0,.01833-.62655,11.10137,11.10137,0,0,1-1.34753-1.55975,16.49949,16.49949,0,0,0,2.40292-3.34034,11.812,11.812,0,0,0,5.16454,3.55382c-.15033.25991-.30655.51238-.46689.7596a.42923.42923,0,0,0,.0913.56646l.00671.00556a.4196.4196,0,0,0,.61855-.09705,20.71238,20.71238,0,0,0,1.36471-2.47951C144.804,111.33963,141.79829,103.631,136.44471,101.13459Zm-12.77384,19.31726c.17679-.17628.34572-.33242.494-.45571a7.09229,7.09229,0,0,1,3.008-1.65008,3.6491,3.6491,0,0,0-.96516-.67523,2.6069,2.6069,0,0,0-1.08221-.25351,4.35708,4.35708,0,0,0-1.87094.419,3.02112,3.02112,0,0,0,.00832.80429c.08754.43319.18582.8532.28982,1.29784C123.59191,120.10631,123.63134,120.28,123.67087,120.45185Zm11.777,3.4273c-.8845.06783-2.12187.57583-3.97921,2.70773-1.61859,1.85791-2.643,1.27338-4.03215,1.2014a7.82478,7.82478,0,0,0-3.62348.404,7.44141,7.44141,0,0,1-.65781,1.26744l-.00331.00523c-.07556.12226-.15166.2395-.22615.35119l-.39517.61388a4.042,4.042,0,0,0,.24869.53089c.10108.18471,1.48073,2.66045,2.27705,4.08465a.68683.68683,0,0,0,1.09455.145,1.70644,1.70644,0,0,1,1.31478-.46727c.27364-.02658.55-.052.835-.09519l-.00017.00058c1.20293-.15273,3.00555-.68123,5.2747-3.75055l.00143-.002c.68276-.83565,1.23451-1.63544,1.87988-2.44455.96847-1.21445,2.80426-1.56448,2.743-2.9249C138.15174,124.44418,136.73275,123.78063,135.4479,123.87915Z"/><path class="cls-3" d="M111.56659,97.3174l-6.55409-.073a.41091.41091,0,0,1-.37742-.56229l2.41511-6.09333a.41091.41091,0,0,1,.72318-.0776l4.139,6.16632A.41091.41091,0,0,1,111.56659,97.3174Z"/><path class="cls-3" d="M127.666,95.75272a15.487,15.487,0,0,0-18.165,0l-1.89649-2.66308a18.75517,18.75517,0,0,1,21.958,0Z"/><path class="cls-3" d="M125.60038,97.3174l6.55408-.073a.41091.41091,0,0,0,.37742-.56229l-2.4151-6.09333a.41091.41091,0,0,0-.72318-.0776l-4.139,6.16632A.41091.41091,0,0,0,125.60038,97.3174Z"/><path class="cls-3" d="M143.62614,137.88723a.5949.5949,0,1,1,.59479.60637.60132.60132,0,0,1-.59479-.60637m-.49374,0a1.08856,1.08856,0,1,0,1.08853-1.0842,1.07479,1.07479,0,0,0-1.08853,1.0842"/><path class="cls-3" d="M140.8345,138.49357a.60648.60648,0,1,1,.59482-.60633.60134.60134,0,0,1-.59482.60633m0-1.69053a1.08419,1.08419,0,1,0,1.08853,1.0842,1.07483,1.07483,0,0,0-1.08853-1.0842"/><path class="cls-3" d="M138.97673,137.3979h.563v-.50331h-.563v-.67826h-.51359v1.69706a1.30778,1.30778,0,0,0,.09969.5124,1.06311,1.06311,0,0,0,.64047.56848l.25437-.43071a.854.854,0,0,1-.42288-.36444.77129.77129,0,0,1-.05693-.29795c0-.05246-.00113-.16479-.00113-.16479Z"/><path class="cls-3" d="M142.19356,136.21917a.3342.3342,0,0,0,.66831,0,.3342.3342,0,1,0-.66831,0"/><rect class="cls-3" x="142.27605" y="136.89457" width="0.50331" height="2.02508"/><polygon class="cls-3" points="145.251 138.78 145.18 138.78 145.18 138.756 145.349 138.756 145.349 138.78 145.279 138.78 145.279 138.971 145.251 138.971 145.251 138.78"/><polygon class="cls-3" points="145.464 138.971 145.405 138.796 145.405 138.971 145.376 138.971 145.376 138.756 145.416 138.756 145.478 138.939 145.54 138.756 145.579 138.756 145.579 138.971 145.551 138.971 145.551 138.796 145.492 138.971 145.464 138.971"/><g id="ARC-4" data-name="ARC"><rect class="cls-1" x="4.19153" y="9.67569" width="60.22034" height="60.22034" rx="3.11485"/><path class="cls-2" d="M61.29683,70.012H7.30659a3.23511,3.23511,0,0,1-3.23144-3.231V12.79032A3.235,3.235,0,0,1,7.30659,9.55985H61.29683a3.235,3.235,0,0,1,3.23144,3.23047V66.781A3.23511,3.23511,0,0,1,61.29683,70.012ZM7.30659,9.7913a3.00192,3.00192,0,0,0-2.999,2.999V66.781a3.00233,3.00233,0,0,0,2.999,2.99951H61.29683a3.00234,3.00234,0,0,0,2.999-2.99951V12.79032a3.00192,3.00192,0,0,0-2.999-2.999Z"/></g><path class="cls-3" d="M53.67253,37.00346a.22062.22062,0,0,0-.363.1951,4.38864,4.38864,0,0,1,.01158,1.21877c-.62749,5.05178-9.62844,8.18025-21.42744,7.63922a50.99914,50.99914,0,0,1-10.02722-1.32923.21883.21883,0,0,0-.18467.3876c3.19439,2.44337,9.05571,4.08313,15.75882,4.0878,10.12291.00707,18.33176-3.71745,18.335-8.319A5.22712,5.22712,0,0,0,53.67253,37.00346Z"/><path class="cls-3" d="M37.89686,52.539c-10.06046.80159-18.51808-2.33915-18.89064-7.015a4.068,4.068,0,0,1,.06531-1.10966.2189.2189,0,0,0-.38994-.17216A6.4406,6.4406,0,0,0,17.098,49.673c1.18831,4.93156,10.05648,7.02463,19.80761,4.675a34.19446,34.19446,0,0,0,6.258-2.15.21944.21944,0,0,0-.13816-.41378A38.22915,38.22915,0,0,1,37.89686,52.539Z"/><path class="cls-3" d="M54.83778,30.42247c-.64621-4.24108-9.06257-7.28644-19.32085-5.7657-7.41415,1.0951-13.02118,4.628-12.53361,7.82817.414,2.7358,5.16205,4.361,11.16376,4.06694.42179-.031.85131-.07739,1.2847-.14317,3.947-.59978,6.93045-2.48814,6.6712-4.21786-.16754-1.09507-1.596-1.86187-3.62337-2.12691a.22066.22066,0,0,0-.15165.40187,1.15878,1.15878,0,0,1,.629.93178c.08512.921-1.59814,1.83418-3.76513,2.03928a7.28319,7.28319,0,0,1-2.81705-.22444c-.921-.31344-1.49365-.76617-1.58267-1.335-.14317-.948,1.11832-2.00057,3.17307-2.84413a16.89694,16.89694,0,0,1,9.01226-1.08348c3.22338.48369,5.39808,1.60586,5.64187,3.19628.42952,2.82479-5.41355,6.05976-13.09468,7.27869-.07739.0116-.15866.02322-.23993.03094-9.70879,1.32342-18.03615-.948-18.59724-5.06915a3.35245,3.35245,0,0,1,.0406-1.10743l-.00267-.00106.01875-.06157a4.08449,4.08449,0,0,1,.23894-.73724,9.38848,9.38848,0,0,1,1.16846-2.30742.22039.22039,0,0,0-.29527-.31607c-3.42326,2.19364-5.35071,4.78237-4.98422,7.27047.74683,5.06915,10.85806,7.84364,22.41265,6.141C46.80838,40.51434,55.56527,35.213,54.83778,30.42247Z"/><path class="cls-3" d="M59.34436,65.67416a.5949.5949,0,1,1,.59479.60636.60132.60132,0,0,1-.59479-.60636m-.49375,0A1.08856,1.08856,0,1,0,59.93915,64.59a1.0748,1.0748,0,0,0-1.08854,1.08421"/><path class="cls-3" d="M56.55271,66.2805a.60648.60648,0,1,1,.59483-.60634.60134.60134,0,0,1-.59483.60634m0-1.69054a1.08419,1.08419,0,1,0,1.08854,1.0842A1.07483,1.07483,0,0,0,56.55271,64.59"/><path class="cls-3" d="M54.695,65.18482h.563v-.50331h-.563v-.67826h-.51359v1.69707a1.30777,1.30777,0,0,0,.09969.51239,1.063,1.063,0,0,0,.64047.56848l.25437-.43071A.85389.85389,0,0,1,54.753,65.986a.77146.77146,0,0,1-.05692-.29794c0-.05247-.00113-.1648-.00113-.1648Z"/><path class="cls-3" d="M57.91178,64.00609a.3342.3342,0,0,0,.6683,0,.3342.3342,0,1,0-.6683,0"/><rect class="cls-3" x="57.99427" y="64.68149" width="0.50331" height="2.02508"/><polygon class="cls-3" points="60.969 66.567 60.898 66.567 60.898 66.543 61.067 66.543 61.067 66.567 60.997 66.567 60.997 66.758 60.969 66.758 60.969 66.567"/><polygon class="cls-3" points="61.182 66.758 61.123 66.583 61.123 66.758 61.095 66.758 61.095 66.543 61.134 66.543 61.196 66.726 61.258 66.543 61.297 66.543 61.297 66.758 61.269 66.758 61.269 66.583 61.21 66.758 61.182 66.758"/><g id="ARC-5" data-name="ARC"><rect class="cls-1" x="13.45619" y="45.78223" width="60.22034" height="60.22034" rx="3.11485"/><path class="cls-2" d="M70.56147,106.11844H16.57124a3.23511,3.23511,0,0,1-3.23145-3.231V48.89725a3.23512,3.23512,0,0,1,3.23145-3.23095H70.56147a3.23512,3.23512,0,0,1,3.23145,3.231v53.99024A3.23511,3.23511,0,0,1,70.56147,106.11844ZM16.57124,45.89774a3.00233,3.00233,0,0,0-2.999,2.99951v53.99024a3.00233,3.00233,0,0,0,2.999,2.99951H70.56147a3.00234,3.00234,0,0,0,2.999-2.99951V48.89725a3.00234,3.00234,0,0,0-2.999-2.99951Z"/></g><polygon class="cls-3" points="43.301 52.934 44.541 55.577 46.805 53.734 46.775 56.653 49.615 55.975 48.322 58.592 51.175 59.213 48.874 61.01 51.175 62.808 48.322 63.428 49.615 66.046 46.775 65.368 46.805 68.287 44.541 66.444 43.301 69.087 42.061 66.444 39.796 68.287 39.826 65.368 36.986 66.046 38.28 63.428 35.427 62.808 37.728 61.01 35.427 59.213 38.28 58.592 36.986 55.975 39.826 56.653 39.796 53.734 42.061 55.577 43.301 52.934"/><polygon class="cls-3" points="28.961 63.729 30.201 66.372 32.465 64.529 32.436 67.449 35.275 66.77 33.982 69.388 36.835 70.008 34.534 71.806 36.835 73.603 33.982 74.224 35.275 76.841 32.436 76.163 32.465 79.083 30.201 77.239 28.961 79.882 27.721 77.239 25.456 79.083 25.486 76.163 22.646 76.841 23.94 74.224 21.087 73.603 23.388 71.806 21.087 70.008 23.94 69.388 22.646 66.77 25.486 67.449 25.456 64.529 27.721 66.372 28.961 63.729"/><polygon class="cls-3" points="58.172 63.729 59.412 66.372 61.676 64.529 61.647 67.449 64.487 66.77 63.193 69.388 66.046 70.008 63.745 71.806 66.046 73.603 63.193 74.224 64.487 76.841 61.647 76.163 61.676 79.083 59.412 77.239 58.172 79.882 56.932 77.239 54.668 79.083 54.697 76.163 51.857 76.841 53.151 74.224 50.298 73.603 52.599 71.806 50.298 70.008 53.151 69.388 51.857 66.77 54.697 67.449 54.668 64.529 56.932 66.372 58.172 63.729"/><path class="cls-3" d="M37.95423,79.76291,42.854,72.636a.54221.54221,0,0,1,.8936,0l4.89978,7.127a.54221.54221,0,0,1-.4468.84939H38.401A.54221.54221,0,0,1,37.95423,79.76291Z"/><path class="cls-3" d="M48.64739,91.48909l-4.89978,7.127a.54221.54221,0,0,1-.8936,0l-4.89978-7.127a.54221.54221,0,0,1,.4468-.84938h9.79956A.5422.5422,0,0,1,48.64739,91.48909Z"/><path class="cls-3" d="M41.14426,91.71245V78.91468c0-.182.24275-.32946.5422-.32946h3.2287c.29945,0,.54221.1475.54221.32946V91.71245c0,.182-.24276.32946-.54221.32946h-3.2287C41.387,92.04191,41.14426,91.89441,41.14426,91.71245Z"/><path class="cls-3" d="M68.609,101.78069a.59491.59491,0,1,1,.5948.60637.60133.60133,0,0,1-.5948-.60637m-.49374,0a1.08856,1.08856,0,1,0,1.08854-1.0842,1.0748,1.0748,0,0,0-1.08854,1.0842"/><path class="cls-3" d="M65.81738,102.387a.60648.60648,0,1,1,.59483-.60633.60133.60133,0,0,1-.59483.60633m0-1.69053a1.08419,1.08419,0,1,0,1.08854,1.0842,1.07483,1.07483,0,0,0-1.08854-1.0842"/><path class="cls-3" d="M63.95962,101.29136h.563v-.50331h-.563v-.67826H63.446v1.69707a1.30777,1.30777,0,0,0,.09969.51239,1.06308,1.06308,0,0,0,.64047.56848l.25437-.43071a.85389.85389,0,0,1-.42289-.36444.77128.77128,0,0,1-.05692-.29794c0-.05247-.00113-.1648-.00113-.1648Z"/><path class="cls-3" d="M67.17645,100.11263a.3342.3342,0,0,0,.6683,0,.3342.3342,0,1,0-.6683,0"/><rect class="cls-3" x="67.25894" y="100.78803" width="0.50331" height="2.02508"/><polygon class="cls-3" points="70.234 102.674 70.163 102.674 70.163 102.649 70.332 102.649 70.332 102.674 70.262 102.674 70.262 102.865 70.234 102.865 70.234 102.674"/><polygon class="cls-3" points="70.446 102.865 70.388 102.69 70.388 102.865 70.359 102.865 70.359 102.649 70.399 102.649 70.46 102.833 70.523 102.649 70.562 102.649 70.562 102.865 70.533 102.865 70.533 102.69 70.475 102.865 70.446 102.865"/><g id="ARC-6" data-name="ARC"><rect class="cls-1" x="22.72086" y="81.88877" width="60.22034" height="60.22034" rx="3.11485"/><path class="cls-2" d="M79.82612,142.22489H25.83589a3.235,3.235,0,0,1-3.23145-3.23047V85.0037a3.235,3.235,0,0,1,3.23145-3.23047H79.82612a3.235,3.235,0,0,1,3.23145,3.23047v53.99072A3.235,3.235,0,0,1,79.82612,142.22489ZM25.83589,82.00468a3.00192,3.00192,0,0,0-2.999,2.999v53.99072a3.00192,3.00192,0,0,0,2.999,2.999H79.82612a3.00192,3.00192,0,0,0,2.999-2.999V85.0037a3.00192,3.00192,0,0,0-2.999-2.999Z"/></g><polygon class="cls-3" points="52.831 87.08 54.648 90.954 57.966 88.252 57.923 92.531 62.085 91.537 60.189 95.373 64.37 96.282 60.998 98.916 64.37 101.55 60.189 102.459 62.085 106.296 57.923 105.301 57.966 109.58 54.648 106.878 52.831 110.752 51.014 106.878 47.696 109.58 47.739 105.301 43.577 106.296 45.473 102.459 41.292 101.55 44.664 98.916 41.292 96.282 45.473 95.373 43.577 91.537 47.739 92.531 47.696 88.252 51.014 90.954 52.831 87.08"/><path class="cls-3" d="M40.91113,114.25506l11.32638-11.28241a.841.841,0,0,1,1.187,0l11.32638,11.28241a.841.841,0,0,1-.59352,1.43685H41.50465A.841.841,0,0,1,40.91113,114.25506Z"/><path class="cls-1" d="M52.831,102.72748a.8381.8381,0,0,1,.59351.24518l11.32642,11.28241a.841.841,0,0,1-.59351,1.43683H41.50459a.841.841,0,0,1-.59351-1.43683L52.2375,102.97266a.8381.8381,0,0,1,.5935-.24518m0-1.83142a2.65482,2.65482,0,0,0-1.886.77915L39.6186,112.95756a2.6725,2.6725,0,0,0,1.886,4.56576H64.15742a2.67238,2.67238,0,0,0,1.88574-4.56589L54.717,101.67515a2.655,2.655,0,0,0-1.886-.77909Z"/><path class="cls-3" d="M47.972,133.35032v3.56714l4.85884-4.84,4.85919,4.84028v-3.56716l-4.85919-4.84026Zm0-6.15241v3.56732l4.85884-4.84,4.85919,4.84028v-3.56735l-4.85919-4.84025Zm0-15.41333v12.82825l4.85884-4.84,4.85919,4.84028V111.78458Z"/><path class="cls-3" d="M77.87369,137.88723a.59491.59491,0,1,1,.5948.60637.60133.60133,0,0,1-.5948-.60637m-.49374,0a1.08856,1.08856,0,1,0,1.08854-1.0842,1.07479,1.07479,0,0,0-1.08854,1.0842"/><path class="cls-3" d="M75.08205,138.49357a.60648.60648,0,1,1,.59482-.60633.60133.60133,0,0,1-.59482.60633m0-1.69053a1.08419,1.08419,0,1,0,1.08853,1.0842,1.07483,1.07483,0,0,0-1.08853-1.0842"/><path class="cls-3" d="M73.22428,137.3979h.563v-.50331h-.563v-.67826h-.51359v1.69706a1.30778,1.30778,0,0,0,.0997.5124,1.06306,1.06306,0,0,0,.64046.56848l.25438-.43071a.854.854,0,0,1-.42289-.36444.77129.77129,0,0,1-.05692-.29795c0-.05246-.00114-.16479-.00114-.16479Z"/><path class="cls-3" d="M76.44112,136.21917a.3342.3342,0,0,0,.6683,0,.3342.3342,0,1,0-.6683,0"/><rect class="cls-3" x="76.52361" y="136.89457" width="0.50331" height="2.02508"/><polygon class="cls-3" points="79.499 138.78 79.427 138.78 79.427 138.756 79.597 138.756 79.597 138.78 79.526 138.78 79.526 138.971 79.499 138.971 79.499 138.78"/><polygon class="cls-3" points="79.711 138.971 79.652 138.796 79.652 138.971 79.624 138.971 79.624 138.756 79.663 138.756 79.725 138.939 79.787 138.756 79.826 138.756 79.826 138.971 79.798 138.971 79.798 138.796 79.739 138.971 79.711 138.971"/><g id="ARC-7" data-name="ARC"><rect class="cls-1" x="97.73798" y="117.99531" width="60.22034" height="60.22034" rx="3.11485"/><path class="cls-2" d="M154.8437,178.33134H100.85249a3.23418,3.23418,0,0,1-3.23047-3.23047V121.11014a3.23417,3.23417,0,0,1,3.23047-3.23046H154.8437a3.23417,3.23417,0,0,1,3.23047,3.23046v53.99073A3.23418,3.23418,0,0,1,154.8437,178.33134Zm-53.99121-60.22022a3.00172,3.00172,0,0,0-2.99805,2.999v53.99073a3.00172,3.00172,0,0,0,2.99805,2.999H154.8437a3.00172,3.00172,0,0,0,2.998-2.999V121.11014a3.00172,3.00172,0,0,0-2.998-2.999Z"/></g><path class="cls-3" d="M136.36233,132.13745a3.401,3.401,0,0,1,3.40457,3.38964v14.984a6.54254,6.54254,0,0,1-1.832,4.55262l-7.65966,7.97562a3.38137,3.38137,0,0,1-2.42707,1.03415V139.52778l2.64178-2.75081,3.45169-3.59408a3.2913,3.2913,0,0,1,2.42073-1.04544m0-3.66283a6.96623,6.96623,0,0,0-5.0625,2.17112l-3.4517,3.59408-3.4517-3.59411a6.96632,6.96632,0,0,0-5.06223-2.17107,7.08109,7.08109,0,0,0-4.84385,1.90756,6.956,6.956,0,0,0-2.22381,5.14489v14.98412a10.18829,10.18829,0,0,0,2.85291,7.08955l7.65974,7.97571a7.028,7.028,0,0,0,10.13788,0l7.65956-7.97557a10.18829,10.18829,0,0,0,2.85309-7.08975v-14.984a7.068,7.068,0,0,0-7.06739-7.05247Z"/><path class="cls-3" d="M152.89081,173.99377a.5949.5949,0,1,1,.59479.60637.60131.60131,0,0,1-.59479-.60637m-.49374,0a1.08856,1.08856,0,1,0,1.08853-1.0842,1.07479,1.07479,0,0,0-1.08853,1.0842"/><path class="cls-3" d="M150.09916,174.60011a.60648.60648,0,1,1,.59483-.60633.60134.60134,0,0,1-.59483.60633m0-1.69054a1.0842,1.0842,0,1,0,1.08854,1.08421,1.07483,1.07483,0,0,0-1.08854-1.08421"/><path class="cls-3" d="M148.2414,173.50443h.563v-.50331h-.563v-.67825h-.51359v1.69706a1.30782,1.30782,0,0,0,.09969.5124,1.06311,1.06311,0,0,0,.64047.56848l.25437-.43071a.854.854,0,0,1-.42288-.36444.77129.77129,0,0,1-.05693-.29795c0-.05246-.00113-.16479-.00113-.16479Z"/><path class="cls-3" d="M151.45823,172.3257a.3342.3342,0,0,0,.6683,0,.3342.3342,0,1,0-.6683,0"/><rect class="cls-3" x="151.54072" y="173.0011" width="0.50331" height="2.02508"/><polygon class="cls-3" points="154.516 174.887 154.445 174.887 154.445 174.862 154.614 174.862 154.614 174.887 154.543 174.887 154.543 175.078 154.516 175.078 154.516 174.887"/><polygon class="cls-3" points="154.728 175.078 154.669 174.903 154.669 175.078 154.641 175.078 154.641 174.862 154.68 174.862 154.742 175.046 154.804 174.862 154.843 174.862 154.843 175.078 154.815 175.078 154.815 174.903 154.756 175.078 154.728 175.078"/><g id="ARC-8" data-name="ARC"><rect class="cls-1" x="31.98553" y="117.99531" width="60.22034" height="60.22034" rx="3.11485"/><path class="cls-2" d="M89.09077,178.33134H35.10054a3.235,3.235,0,0,1-3.23145-3.23047V121.11014a3.235,3.235,0,0,1,3.23145-3.23046H89.09077a3.235,3.235,0,0,1,3.23145,3.23046v53.99073A3.235,3.235,0,0,1,89.09077,178.33134ZM35.10054,118.11112a3.00193,3.00193,0,0,0-2.999,2.999v53.99073a3.00192,3.00192,0,0,0,2.999,2.999H89.09077a3.00192,3.00192,0,0,0,2.999-2.999V121.11014a3.00192,3.00192,0,0,0-2.999-2.999Z"/></g><path class="cls-3" d="M66.94367,134.10275,77.76838,127.439a.79948.79948,0,0,1,1.20486.53329l2.34563,12.49311a.79948.79948,0,0,1-1.10933.87859l-13.17033-5.82936A.79948.79948,0,0,1,66.94367,134.10275Z"/><rect class="cls-3" x="48.29522" y="149.80571" width="37.78023" height="6.34269" rx="0.79948" transform="translate(-99.89435 152.49754) rotate(-66.12517)"/><path class="cls-3" d="M52.98142,144.084l-12.69425-.66011a.79948.79948,0,0,1-.68907-1.12306l5.162-11.61608a.79948.79948,0,0,1,1.412-.09344l7.53223,12.27619A.79948.79948,0,0,1,52.98142,144.084Z"/><rect class="cls-3" x="45.85743" y="129.66272" width="20.8591" height="6.34269" rx="0.79948" transform="translate(-61.15768 49.04943) rotate(-31.53179)"/><rect class="cls-3" x="55.37424" y="137.07292" width="6.34269" height="37.8645" rx="0.79948" transform="translate(-108.05754 153.07291) rotate(-68.42159)"/><path class="cls-1" d="M42.5561,146.33106a.79752.79752,0,0,1,.294.05624l33.72387,13.33756a.79948.79948,0,0,1,.44947,1.03748l-1.74463,4.41125a.79888.79888,0,0,1-1.0376.44943L40.51728,152.2855a.7995.7995,0,0,1-.44946-1.03748l1.74463-4.41128a.79992.79992,0,0,1,.74365-.50568m.00025-2.19769H42.5561a2.98152,2.98152,0,0,0-2.78735,1.89523l-1.74463,4.41116a2.997,2.997,0,0,0,1.68506,3.88944l33.72363,13.33749a2.99684,2.99684,0,0,0,3.88941-1.684l1.74487-4.41208a3.00069,3.00069,0,0,0-1.68506-3.88943L43.6584,144.34363a2.98541,2.98541,0,0,0-1.102-.21026Z"/><path class="cls-3" d="M77.43424,155.02291l7.09213,10.549a.79947.79947,0,0,1-.48458,1.22526l-12.38908,2.84434a.79948.79948,0,0,1-.92234-1.07323l5.297-13.39334A.79948.79948,0,0,1,77.43424,155.02291Z"/><path class="cls-3" d="M87.13836,173.99377a.59491.59491,0,1,1,.59479.60637.60132.60132,0,0,1-.59479-.60637m-.49374,0a1.08856,1.08856,0,1,0,1.08853-1.0842,1.07479,1.07479,0,0,0-1.08853,1.0842"/><path class="cls-3" d="M84.34672,174.60011a.60648.60648,0,1,1,.59482-.60633.60134.60134,0,0,1-.59482.60633m0-1.69054a1.0842,1.0842,0,1,0,1.08853,1.08421,1.07483,1.07483,0,0,0-1.08853-1.08421"/><path class="cls-3" d="M82.489,173.50443h.563v-.50331h-.563v-.67825h-.51359v1.69706a1.308,1.308,0,0,0,.09969.5124,1.06311,1.06311,0,0,0,.64047.56848l.25437-.43071a.854.854,0,0,1-.42288-.36444.77129.77129,0,0,1-.05693-.29795c0-.05246-.00113-.16479-.00113-.16479Z"/><path class="cls-3" d="M85.70579,172.3257a.3342.3342,0,0,0,.6683,0,.3342.3342,0,1,0-.6683,0"/><rect class="cls-3" x="85.78828" y="173.0011" width="0.50331" height="2.02508"/><polygon class="cls-3" points="88.763 174.887 88.692 174.887 88.692 174.862 88.861 174.862 88.861 174.887 88.791 174.887 88.791 175.078 88.763 175.078 88.763 174.887"/><polygon class="cls-3" points="88.976 175.078 88.917 174.903 88.917 175.078 88.889 175.078 88.889 174.862 88.928 174.862 88.99 175.046 89.052 174.862 89.091 174.862 89.091 175.078 89.063 175.078 89.063 174.903 89.004 175.078 88.976 175.078"/><g id="CIRCLE"><path class="cls-5" d="M164.80406,39.67462a30.11018,30.11018,0,1,1,30.11018,30.11017,30.11018,30.11018,0,0,1-30.11018-30.11017Z"/><path class="cls-2" d="M194.914,69.90067A30.22608,30.22608,0,1,1,225.14058,39.6746,30.26036,30.26036,0,0,1,194.914,69.90067Zm0-60.2207A29.99463,29.99463,0,1,0,224.90815,39.6746,30.02822,30.02822,0,0,0,194.914,9.68Z"/></g><path class="cls-1" d="M181.9465,19.91016a4.35652,4.35652,0,0,0,1.454,1.0062l-.3602.5226a5.02019,5.02019,0,0,1-1.46728-1.08955,4.629,4.629,0,0,1-1.62967,1.09384l-.32085-.48325a3.87818,3.87818,0,0,0,2.32825-2.34149h-1.90653v-.5226h2.71064A4.50487,4.50487,0,0,1,181.9465,19.91016Z"/><path class="cls-1" d="M186.31113,21.38638c-.25039,0-.57124-.00465-.73364-.01324-.75546-.04829-1.07631-.38238-1.07631-1.06308v-2.447h.61953v1.34423a7.99792,7.99792,0,0,0,1.99882-.61917l.2461.53154a10.89123,10.89123,0,0,1-2.24492.61917v.49649c0,.3999.07476.50507.50078.55335.10981.01324.39955.02647.57089.03077.16275,0,.33838,0,.53154-.00859.23751-.00429.47466-.02218.69429-.0397V21.351C187.0623,21.38173,186.69315,21.38638,186.31113,21.38638Zm.9268-2.89056a.5294.5294,0,1,1,.53154-.53154A.528.528,0,0,1,187.23793,18.49582Zm.00465-.79087a.26131.26131,0,1,0,.259.26362A.26138.26138,0,0,0,187.24258,17.705Z"/><path class="cls-1" d="M188.5539,19.96739v-.61953h3.48827v.61953Z"/><path class="cls-1" d="M193.72263,21.45649V17.696h.6063v1.26983a10.76121,10.76121,0,0,1,1.99846.94l-.33373.53583a8.20658,8.20658,0,0,0-1.66473-.84345v1.85824Zm1.845-2.80722a2.75612,2.75612,0,0,0-.32944-.74222l.33373-.16705a2.9128,2.9128,0,0,1,.36915.75117Zm.62812-.25468a2.49544,2.49544,0,0,0-.34268-.70717l.33374-.18028a2.96159,2.96159,0,0,1,.37343.73364Z"/><path class="cls-1" d="M199.60283,20.00674l-.29868-.46537a1.30029,1.30029,0,0,0,.88709-1.0105H197.349v-.523h3.59808A2.241,2.241,0,0,1,199.60283,20.00674Zm-1.61679,1.463-.30727-.47431c.84775-.31656.99262-.74258.99262-1.58174v-.59735h.61524v.602A1.866,1.866,0,0,1,197.986,21.46972Z"/><path class="cls-1" d="M202.443,20.11226a7.14659,7.14659,0,0,0-.382-1.15107l.47431-.18422a7.71326,7.71326,0,0,1,.43925,1.14213Zm.41314,1.38822-.2858-.46143a2.19971,2.19971,0,0,0,1.75308-2.30178h.57089A2.75156,2.75156,0,0,1,202.85609,21.50048Zm.48755-1.5288a6.57493,6.57493,0,0,0-.37773-1.14642l.4786-.18886a7.63545,7.63545,0,0,1,.43067,1.14213Z"/><path class="cls-1" d="M206.84729,21.41714l-.29009-.53154a2.34993,2.34993,0,0,0,2.0911-2.12186h-2.43807V18.21h2.92132a.52221.52221,0,1,1,.40849.19781.46133.46133,0,0,1-.1581-.02647C209.15337,20.05073,208.433,21.07447,206.84729,21.41714Zm2.697-3.787a.257.257,0,1,0,.255.255A.256.256,0,0,0,209.54433,17.63019Z"/><rect class="cls-1" x="181.92341" y="53.20897" width="25.98166" height="1.75816" rx="0.87908"/><polygon class="cls-1" points="205.301 33.17 205.301 38.713 194.914 32.003 184.527 38.713 184.527 33.17 194.914 26.459 205.301 33.17"/><polygon class="cls-1" points="194.914 37.546 205.301 44.257 205.301 49.801 194.914 43.09 184.527 49.801 184.527 44.257 194.914 37.546"/><path class="cls-1" d="M196.5194,65.56291a.59491.59491,0,1,1,.59479.60637.60132.60132,0,0,1-.59479-.60637m-.49374,0a1.08856,1.08856,0,1,0,1.08853-1.0842,1.07479,1.07479,0,0,0-1.08853,1.0842"/><path class="cls-1" d="M193.72776,66.16925a.60648.60648,0,1,1,.59482-.60633.60134.60134,0,0,1-.59482.60633m0-1.69054a1.0842,1.0842,0,1,0,1.08853,1.08421,1.07483,1.07483,0,0,0-1.08853-1.08421"/><path class="cls-1" d="M191.87,65.07357h.563v-.50331h-.563V63.892h-.51359v1.69706a1.308,1.308,0,0,0,.09969.5124,1.06311,1.06311,0,0,0,.64047.56848l.25438-.43071a.854.854,0,0,1-.42289-.36444.77129.77129,0,0,1-.05693-.298c0-.05246-.00113-.16479-.00113-.16479Z"/><path class="cls-1" d="M195.08683,63.89484a.3342.3342,0,0,0,.6683,0,.3342.3342,0,1,0-.6683,0"/><rect class="cls-1" x="195.16932" y="64.57024" width="0.50331" height="2.02508"/><polygon class="cls-1" points="198.144 66.456 198.073 66.456 198.073 66.431 198.242 66.431 198.242 66.456 198.172 66.456 198.172 66.647 198.144 66.647 198.144 66.456"/><polygon class="cls-1" points="198.357 66.647 198.298 66.472 198.298 66.647 198.27 66.647 198.27 66.431 198.309 66.431 198.371 66.615 198.433 66.431 198.472 66.431 198.472 66.647 198.444 66.647 198.444 66.472 198.385 66.647 198.357 66.647"/><g id="CIRCLE-2" data-name="CIRCLE"><path class="cls-5" d="M229.65674,39.67462a30.11018,30.11018,0,1,1,30.11018,30.11017,30.11018,30.11018,0,0,1-30.11018-30.11017Z"/><path class="cls-2" d="M259.76655,69.90067A30.22608,30.22608,0,1,1,289.99311,39.6746,30.26016,30.26016,0,0,1,259.76655,69.90067Zm0-60.2207A29.99463,29.99463,0,1,0,289.76069,39.6746,30.028,30.028,0,0,0,259.76655,9.68Z"/></g><path class="cls-1" d="M250.77348,21.33828l-.50972-.36914a4.22856,4.22856,0,0,0,1.05879-2.8158h.61935A5.19825,5.19825,0,0,1,250.77348,21.33828Zm2.94761,0a5.18952,5.18952,0,0,1-1.18612-3.18494h.62382a3.96746,3.96746,0,0,0,1.08508,2.741Zm.12305-2.8115a.5294.5294,0,0,1,0-1.05879.5294.5294,0,1,1,0,1.05879Zm.00429-.79087a.26366.26366,0,1,0,.25933.26362A.26155.26155,0,0,0,253.84843,17.73591Z"/><path class="cls-1" d="M255.36239,21.17982v-.59306h3.53191v.59306Zm.435-2.34113v-.59306h2.6577v.59306Z"/><path class="cls-1" d="M260.92209,20.11245a7.16724,7.16724,0,0,0-.3822-1.15107l.47449-.18421a7.75453,7.75453,0,0,1,.43925,1.14213Zm.413,1.38823-.28562-.46143a2.19958,2.19958,0,0,0,1.7529-2.30179h.57124A2.75149,2.75149,0,0,1,261.33505,21.50068Zm.48754-1.5288a6.55839,6.55839,0,0,0-.37773-1.14642l.47878-.18887a7.65137,7.65137,0,0,1,.43049,1.14213Z"/><path class="cls-1" d="M266.68407,18.21916h1.66508c-.31656,1.69549-1.01479,2.78074-2.32825,3.25505l-.29439-.4786a2.82715,2.82715,0,0,0,1.845-2.24491h-1.16431a5.46344,5.46344,0,0,1-1.02767,1.27841l-.43961-.38667a4.60168,4.60168,0,0,0,1.28736-1.8933h.63706C266.81141,17.90724,266.74988,18.06535,266.68407,18.21916Z"/><path class="cls-1" d="M259.70482,26.04873c-7.1986,0-9.51563,3.2685-9.51563,6.74375v.91012a2.64784,2.64784,0,0,0,2.64783,2.64783h.12419a2.64951,2.64951,0,0,0,2.64782-2.65029q.00162-3.10027,4.09579-3.10035c2.68932,0,4.09607,1.03432,4.09607,3.10281v1.24122a2.67637,2.67637,0,0,1-1.57215,2.52377l-3.8062,1.94445c-1.28256.62053-2.60661,1.40661-2.60661,3.72349v1.40661a2.43793,2.43793,0,0,0,.11417.738,2.791,2.791,0,0,0,5.35689,0,2.43762,2.43762,0,0,0,.11418-.738c0-1.32391.57918-1.7789,1.73755-2.31674l2.35823-1.07567c1.69635-.74472,3.84769-2.44107,3.84769-6.41281V32.79248C269.30343,29.31723,266.90371,26.04873,259.70482,26.04873Z"/><circle class="cls-1" cx="258.60855" cy="52.58446" r="2.79262"/><path class="cls-1" d="M261.3721,65.56292a.5949.5949,0,1,1,.59479.60637.60131.60131,0,0,1-.59479-.60637m-.49375,0a1.08856,1.08856,0,1,0,1.08854-1.0842,1.07479,1.07479,0,0,0-1.08854,1.0842"/><path class="cls-1" d="M258.58045,66.16926a.60648.60648,0,1,1,.59483-.60633.60134.60134,0,0,1-.59483.60633m0-1.69054a1.0842,1.0842,0,1,0,1.08854,1.08421,1.07484,1.07484,0,0,0-1.08854-1.08421"/><path class="cls-1" d="M256.72269,65.07358h.563v-.50331h-.563V63.892h-.51359v1.69706a1.30782,1.30782,0,0,0,.09969.5124,1.06308,1.06308,0,0,0,.64047.56848l.25437-.43071a.854.854,0,0,1-.42288-.36444.77129.77129,0,0,1-.05693-.298c0-.05246-.00113-.16479-.00113-.16479Z"/><path class="cls-1" d="M259.93952,63.89485a.3342.3342,0,0,0,.6683,0,.3342.3342,0,1,0-.6683,0"/><rect class="cls-1" x="260.02201" y="64.57025" width="0.50331" height="2.02508"/><polygon class="cls-1" points="262.997 66.456 262.926 66.456 262.926 66.431 263.095 66.431 263.095 66.456 263.025 66.456 263.025 66.647 262.997 66.647 262.997 66.456"/><polygon class="cls-1" points="263.209 66.647 263.151 66.472 263.151 66.647 263.122 66.647 263.122 66.431 263.162 66.431 263.224 66.615 263.286 66.431 263.325 66.431 263.325 66.647 263.296 66.647 263.296 66.472 263.238 66.647 263.209 66.647"/><g id="CIRCLE-3" data-name="CIRCLE"><path class="cls-5" d="M238.92141,93.92725a30.11018,30.11018,0,1,1,30.11017,30.11018,30.11018,30.11018,0,0,1-30.11017-30.11018Z"/><path class="cls-2" d="M269.0312,124.15311A30.22583,30.22583,0,1,1,299.25776,93.927,30.26016,30.26016,0,0,1,269.0312,124.15311Zm0-60.22021A29.99439,29.99439,0,1,0,299.02534,93.927,30.0279,30.0279,0,0,0,269.0312,63.9329Z"/></g><path class="cls-1" d="M264.41522,74.16279a4.35475,4.35475,0,0,0,1.454,1.00621l-.3602.52259a5.0178,5.0178,0,0,1-1.46728-1.08954,4.62987,4.62987,0,0,1-1.62985,1.09384l-.32067-.48325a3.87818,3.87818,0,0,0,2.32825-2.34149H262.513v-.5226h2.71046A4.50209,4.50209,0,0,1,264.41522,74.16279Z"/><path class="cls-1" d="M269.21946,75.639c-.25039,0-.57124-.00465-.73364-.01323-.75563-.04829-1.07631-.38238-1.07631-1.06308v-2.447h.61935v1.34423a7.99278,7.99278,0,0,0,1.99882-.61918l.2461.53154a10.89121,10.89121,0,0,1-2.24492.61918v.49648c0,.39991.07476.50507.50078.55336.10981.01323.39973.02647.57107.03076.16257,0,.33838,0,.53154-.00858.23733-.0043.47448-.02218.69411-.03971v.57983C269.97063,75.63436,269.60148,75.639,269.21946,75.639Zm.9268-2.89055a.5294.5294,0,1,1,.53154-.53154A.52789.52789,0,0,1,270.14626,72.74846Zm.00447-.79087a.2613.2613,0,1,0,.25915.26362A.26148.26148,0,0,0,270.15073,71.95759Z"/><path class="cls-1" d="M273.382,73.56973a5.48017,5.48017,0,0,0-1.2827-.82592l.3602-.50078a6.4073,6.4073,0,0,1,1.3267.77763Zm-.95755,2.05176-.19334-.58877a3.383,3.383,0,0,0,2.86856-2.07358l.46143.43067A3.89956,3.89956,0,0,1,272.42444,75.62149Z"/><path class="cls-1" d="M270.73042,110.282a16.15585,16.15585,0,0,1-16.166-16.16553,14.46728,14.46728,0,0,1,28.93457,0,12.76856,12.76856,0,0,1-25.53711,0,11.06983,11.06983,0,1,1,22.13965,0,9.37158,9.37158,0,0,1-18.74316,0,7.67334,7.67334,0,1,1,15.34668,0,5.97461,5.97461,0,0,1-11.94922,0,4.27588,4.27588,0,1,1,8.55176,0,2.57764,2.57764,0,0,1-5.15528,0,.87891.87891,0,0,1,1.75782,0,.81982.81982,0,0,0,1.63964,0,2.51807,2.51807,0,1,0-5.03613,0,4.2168,4.2168,0,0,0,8.4336,0,5.91553,5.91553,0,1,0-11.83106,0,7.61377,7.61377,0,0,0,15.22754,0,9.312,9.312,0,1,0-18.624,0,11.01074,11.01074,0,0,0,22.02148,0,12.70947,12.70947,0,1,0-25.41894,0,14.41074,14.41074,0,0,0,24.59765,10.18994.8794.8794,0,0,1,1.24414,1.24317A16.06366,16.06366,0,0,1,270.73042,110.282Z"/><path class="cls-1" d="M270.63675,119.81555a.5949.5949,0,1,1,.59479.60636.60133.60133,0,0,1-.59479-.60636m-.49374,0a1.08856,1.08856,0,1,0,1.08853-1.08421,1.07479,1.07479,0,0,0-1.08853,1.08421"/><path class="cls-1" d="M267.84511,120.42189a.60648.60648,0,1,1,.59482-.60634.60134.60134,0,0,1-.59482.60634m0-1.69054a1.08419,1.08419,0,1,0,1.08853,1.0842,1.07483,1.07483,0,0,0-1.08853-1.0842"/><path class="cls-1" d="M265.98734,119.32621h.563v-.50331h-.563v-.67826h-.51359v1.69707a1.30777,1.30777,0,0,0,.09969.51239,1.06308,1.06308,0,0,0,.64047.56848l.25437-.43071a.85387.85387,0,0,1-.42288-.36444.77127.77127,0,0,1-.05693-.29794c0-.05247-.00113-.1648-.00113-.1648Z"/><path class="cls-1" d="M269.20418,118.14748a.3342.3342,0,0,0,.6683,0,.3342.3342,0,1,0-.6683,0"/><rect class="cls-1" x="269.28666" y="118.82288" width="0.50331" height="2.02508"/><polygon class="cls-1" points="272.262 120.709 272.19 120.709 272.19 120.684 272.36 120.684 272.36 120.709 272.289 120.709 272.289 120.9 272.262 120.9 272.262 120.709"/><polygon class="cls-1" points="272.474 120.9 272.415 120.725 272.415 120.9 272.387 120.9 272.387 120.684 272.426 120.684 272.488 120.867 272.55 120.684 272.589 120.684 272.589 120.9 272.561 120.9 272.561 120.725 272.502 120.9 272.474 120.9"/><g id="CIRCLE-4" data-name="CIRCLE"><path class="cls-5" d="M248.18608,148.17989a30.11018,30.11018,0,1,1,30.11017,30.11017,30.11017,30.11017,0,0,1-30.11017-30.11017Z"/><path class="cls-2" d="M278.29585,178.40555A30.22583,30.22583,0,1,1,308.52241,148.18,30.26005,30.26005,0,0,1,278.29585,178.40555Zm0-60.22021A29.99439,29.99439,0,1,0,308.29,148.18,30.028,30.028,0,0,0,278.29585,118.18534Z"/></g><path class="cls-1" d="M270.38817,128.42438a6.57248,6.57248,0,0,0-1.25641-.62812l.26791-.4879a7.84921,7.84921,0,0,1,1.27842.57554Zm-.7864,1.50662-.167-.57983a3.25294,3.25294,0,0,0,2.8335-2.06892l.479.382A3.81865,3.81865,0,0,1,269.60177,129.931Zm1.3487-2.51283a7.1849,7.1849,0,0,0-1.26088-.63241l.27239-.48325a8.6601,8.6601,0,0,1,1.27841.57554Z"/><path class="cls-1" d="M274.56412,128.74487V128.253h1.72214v-.58877h-1.84072v-.50078h2.40731v2.6974h-2.42054v-.50078h1.854v-.61524Z"/><path class="cls-1" d="M279.4517,128.61753a7.16724,7.16724,0,0,0-.3822-1.15107l.47449-.18421a7.75229,7.75229,0,0,1,.43925,1.14213Zm.413,1.38823-.28563-.46143a2.19958,2.19958,0,0,0,1.7529-2.30179h.57107A2.75153,2.75153,0,0,1,279.86467,130.00576Zm.48754-1.5288a6.55923,6.55923,0,0,0-.37773-1.14642l.47878-.18887a7.65358,7.65358,0,0,1,.43049,1.14213Z"/><path class="cls-1" d="M285.21368,126.72424h1.66491c-.31639,1.69549-1.01479,2.78074-2.32826,3.255l-.29438-.4786a2.82684,2.82684,0,0,0,1.845-2.24491h-1.16413a5.46809,5.46809,0,0,1-1.02784,1.27841l-.43943-.38667a4.5994,4.5994,0,0,0,1.28717-1.8933h.63706C285.341,126.41233,285.2795,126.57043,285.21368,126.72424Z"/><path class="cls-1" d="M282.88081,160.3351H282.528a.41664.41664,0,0,1-.41664-.41663V159.714a.41663.41663,0,0,0-.41664-.41664h-.91941a.41663.41663,0,0,0-.41663.41664v.20446a.41664.41664,0,0,1-.41664.41663h-.35283a.41663.41663,0,0,1-.41664-.41663V159.714a.41664.41664,0,0,0-.41664-.41664h-.91939a.41664.41664,0,0,0-.41664.41664v.20446a.41663.41663,0,0,1-.41664.41663h-.35283a.41664.41664,0,0,1-.41664-.41663V159.714a.41663.41663,0,0,0-.41663-.41664h-.9194a.41663.41663,0,0,0-.41663.41664v.20446a.41664.41664,0,0,1-.41664.41663h-.35283a.41663.41663,0,0,1-.41664-.41663V159.714a.41664.41664,0,0,0-.41664-.41664H271.959a.41664.41664,0,0,0-.41664.41664v.1915a3.671,3.671,0,0,0,3.671,3.671h6.16589a3.671,3.671,0,0,0,3.671-3.671v-.1915a.41664.41664,0,0,0-.41664-.41664h-.91941a.41664.41664,0,0,0-.41664.41664v.20446A.41663.41663,0,0,1,282.88081,160.3351Zm-4.58457-25.47521c-6.34318,0-10.67846,3.60513-10.67846,8.80745v8.67055c0,1.91665,2.373,4.35245,3.92457,4.35245v1.0043a.41665.41665,0,0,0,.41664.41664h.91939a.41665.41665,0,0,0,.41664-.41664v-.20444a.41663.41663,0,0,1,.41664-.41664h.35283a.41664.41664,0,0,1,.41664.41664v.20444a.41664.41664,0,0,0,.41663.41664h.9194a.41664.41664,0,0,0,.41663-.41664v-.20444a.41664.41664,0,0,1,.41664-.41664h.35283a.41663.41663,0,0,1,.41664.41664v.20444a.41665.41665,0,0,0,.41664.41664h.91939a.41665.41665,0,0,0,.41664-.41664v-.20444a.41663.41663,0,0,1,.41664-.41664h.35283a.41664.41664,0,0,1,.41664.41664v.20444a.41664.41664,0,0,0,.41663.41664h.91941a.41664.41664,0,0,0,.41664-.41664v-.20444a.41664.41664,0,0,1,.41664-.41664h.35281a.41663.41663,0,0,1,.41664.41664v.20444a.41665.41665,0,0,0,.41664.41664h.91941a.41665.41665,0,0,0,.41664-.41664v-1.0043c1.55155,0,3.92459-2.4358,3.92459-4.35245v-8.67055C288.97473,138.465,284.63943,134.85989,278.29624,134.85989Z"/><path class="cls-5" d="M277.84076,151.511l-1.2111,2.09769a.526.526,0,0,0,.598.76928l.92616-.26061a.52592.52592,0,0,1,.28494,0l.92617.26061a.526.526,0,0,0,.598-.76928l-1.2111-2.09769A.526.526,0,0,0,277.84076,151.511Z"/><path class="cls-5" d="M275.30464,151.44071a.8773.8773,0,0,1-.62207-.25732l-3.2959-3.29639a.87939.87939,0,0,1,1.24414-1.24316l3.2959,3.29638a.8794.8794,0,0,1-.62207,1.50049Z"/><path class="cls-5" d="M272.00874,151.44071a.8794.8794,0,0,1-.62207-1.50049l3.2959-3.29638a.87939.87939,0,0,1,1.24414,1.24316l-3.2959,3.29639A.87732.87732,0,0,1,272.00874,151.44071Z"/><path class="cls-5" d="M284.58393,151.44071a.87345.87345,0,0,1-.62109-.25732L280.666,147.887a.8787.8787,0,1,1,1.24218-1.24316l3.29688,3.29638a.87842.87842,0,0,1-.6211,1.50049Z"/><path class="cls-5" d="M281.28706,151.44071a.87842.87842,0,0,1-.62109-1.50049l3.29687-3.29638A.8787.8787,0,1,1,285.205,147.887l-3.29688,3.29639A.87343.87343,0,0,1,281.28706,151.44071Z"/><path class="cls-1" d="M279.90142,174.06819a.5949.5949,0,1,1,.59479.60637.60132.60132,0,0,1-.59479-.60637m-.49374,0a1.08856,1.08856,0,1,0,1.08853-1.0842,1.07479,1.07479,0,0,0-1.08853,1.0842"/><path class="cls-1" d="M277.10977,174.67453a.60648.60648,0,1,1,.59483-.60633.60134.60134,0,0,1-.59483.60633m0-1.69054a1.0842,1.0842,0,1,0,1.08854,1.08421,1.07483,1.07483,0,0,0-1.08854-1.08421"/><path class="cls-1" d="M275.252,173.57885h.563v-.50331h-.563v-.67826h-.51359v1.69707a1.30782,1.30782,0,0,0,.09969.5124,1.06314,1.06314,0,0,0,.64047.56848l.25437-.43071a.854.854,0,0,1-.42288-.36444.77129.77129,0,0,1-.05693-.29795c0-.05246-.00113-.16479-.00113-.16479Z"/><path class="cls-1" d="M278.46884,172.40012a.3342.3342,0,0,0,.6683,0,.3342.3342,0,1,0-.6683,0"/><rect class="cls-1" x="278.55133" y="173.07552" width="0.50331" height="2.02508"/><polygon class="cls-1" points="281.526 174.961 281.455 174.961 281.455 174.937 281.624 174.937 281.624 174.961 281.554 174.961 281.554 175.152 281.526 175.152 281.526 174.961"/><polygon class="cls-1" points="281.739 175.152 281.68 174.977 281.68 175.152 281.652 175.152 281.652 174.937 281.691 174.937 281.753 175.12 281.815 174.937 281.854 174.937 281.854 175.152 281.826 175.152 281.826 174.977 281.767 175.152 281.739 175.152"/><g id="CIRCLE-5" data-name="CIRCLE"><path class="cls-5" d="M174.06873,93.92725a30.11018,30.11018,0,1,1,30.11018,30.11018,30.11018,30.11018,0,0,1-30.11018-30.11018Z"/><path class="cls-2" d="M204.17866,124.15311A30.22583,30.22583,0,1,1,234.40522,93.927,30.26036,30.26036,0,0,1,204.17866,124.15311Zm0-60.22021A29.99439,29.99439,0,1,0,234.1728,93.927,30.02812,30.02812,0,0,0,204.17866,63.9329Z"/></g><path class="cls-1" d="M191.21117,74.1628a4.35652,4.35652,0,0,0,1.454,1.0062l-.3602.5226a5.01988,5.01988,0,0,1-1.46728-1.08955,4.629,4.629,0,0,1-1.62967,1.09384l-.32085-.48325a3.87818,3.87818,0,0,0,2.32825-2.34149h-1.90653v-.5226h2.71064A4.50487,4.50487,0,0,1,191.21117,74.1628Z"/><path class="cls-1" d="M195.5758,75.639c-.25039,0-.57124-.00465-.73364-.01324-.75546-.04829-1.07631-.38238-1.07631-1.06307v-2.447h.61953v1.34423a7.99792,7.99792,0,0,0,1.99882-.61917l.24609.53154a10.891,10.891,0,0,1-2.24491.61917V74.488c0,.3999.07476.50507.50078.55336.10981.01323.39955.02647.57088.03076.16276,0,.33839,0,.53154-.00859.23751-.00429.47467-.02217.6943-.0397v.57983C196.327,75.63437,195.95782,75.639,195.5758,75.639Zm.9268-2.89056a.52939.52939,0,1,1,.53153-.53154A.528.528,0,0,1,196.5026,72.74846Zm.00465-.79087a.26131.26131,0,1,0,.259.26362A.26138.26138,0,0,0,196.50725,71.95759Z"/><path class="cls-1" d="M197.81857,74.22V73.6005h3.48827V74.22Z"/><path class="cls-1" d="M202.9873,75.70913V71.94865h.6063v1.26983a10.76121,10.76121,0,0,1,1.99846.94l-.33373.53583a8.20761,8.20761,0,0,0-1.66473-.84345v1.85824Zm1.845-2.80722a2.75643,2.75643,0,0,0-.32944-.74222l.33373-.167a2.91258,2.91258,0,0,1,.36915.75116Zm.62812-.25468a2.4957,2.4957,0,0,0-.34268-.70717l.33373-.18028a2.96129,2.96129,0,0,1,.37344.73364Z"/><path class="cls-1" d="M207.4528,73.75431a5.45419,5.45419,0,0,1-.59735.62812l-.42173-.38668a5.34767,5.34767,0,0,0,1.38394-1.98987h.61488c-.044.132-.09658.26792-.15381.39991h1.57709a3.76954,3.76954,0,0,1-2.39872,3.3341l-.294-.45249a2.976,2.976,0,0,0,1.29594-.8785A5.52185,5.52185,0,0,0,207.4528,73.75431Zm1.32671.2021a3.2136,3.2136,0,0,0,.38667-1.04126h-1.14213c-.079.14057-.167.28115-.25933.41743A7.2649,7.2649,0,0,1,208.77951,73.95641Zm.7644-1.59033a2.33384,2.33384,0,0,0-.29439-.57983l.31621-.1581a2.15651,2.15651,0,0,1,.32514.58877Zm.64135.01753a2.05644,2.05644,0,0,0-.28544-.6063l.31191-.16669a2.211,2.211,0,0,1,.3205.62383Z"/><path class="cls-1" d="M212.17334,75.71807l-.23715-.53154a1.84032,1.84032,0,0,0,1.8493-2.02958h-2.0074v1.00156h-.61953V72.634H212.428v-.75546h.62847V72.634h1.41005C214.41361,74.42642,213.92606,75.45015,212.17334,75.71807Z"/><path class="cls-1" d="M216.88065,73.56974a5.4804,5.4804,0,0,0-1.2827-.82593l.3602-.50078a6.41736,6.41736,0,0,1,1.3267.77764Zm-.95756,2.05175-.19351-.58877a3.38371,3.38371,0,0,0,2.86874-2.07357l.46107.43066A3.89873,3.89873,0,0,1,215.92309,75.62149Z"/><rect class="cls-1" x="191.18808" y="107.4616" width="25.98166" height="1.75816" rx="0.87908"/><polygon class="cls-1" points="193.792 97.343 193.792 91.799 204.179 98.51 214.566 91.799 214.566 97.343 204.179 104.054 193.792 97.343"/><polygon class="cls-1" points="204.179 92.966 193.792 86.255 193.792 80.711 204.179 87.422 214.566 80.711 214.566 86.255 204.179 92.966"/><path class="cls-1" d="M205.78407,119.81555a.59491.59491,0,1,1,.59479.60637.60132.60132,0,0,1-.59479-.60637m-.49374,0a1.08856,1.08856,0,1,0,1.08853-1.0842,1.0748,1.0748,0,0,0-1.08853,1.0842"/><path class="cls-1" d="M202.99243,120.42189a.60648.60648,0,1,1,.59482-.60633.60134.60134,0,0,1-.59482.60633m0-1.69053a1.08419,1.08419,0,1,0,1.08853,1.0842,1.07483,1.07483,0,0,0-1.08853-1.0842"/><path class="cls-1" d="M201.13466,119.32622h.563v-.50331h-.563v-.67826h-.51359v1.69707a1.308,1.308,0,0,0,.09969.51239,1.06311,1.06311,0,0,0,.64047.56848l.25437-.43071a.85387.85387,0,0,1-.42288-.36444.77127.77127,0,0,1-.05693-.29794c0-.05247-.00113-.1648-.00113-.1648Z"/><path class="cls-1" d="M204.3515,118.14749a.3342.3342,0,0,0,.6683,0,.3342.3342,0,1,0-.6683,0"/><rect class="cls-1" x="204.43398" y="118.82289" width="0.50331" height="2.02508"/><polygon class="cls-1" points="207.409 120.709 207.338 120.709 207.338 120.684 207.507 120.684 207.507 120.709 207.437 120.709 207.437 120.9 207.409 120.9 207.409 120.709"/><polygon class="cls-1" points="207.621 120.9 207.563 120.725 207.563 120.9 207.534 120.9 207.534 120.684 207.574 120.684 207.635 120.867 207.698 120.684 207.737 120.684 207.737 120.9 207.708 120.9 207.708 120.725 207.65 120.9 207.621 120.9"/><g id="CIRCLE-6" data-name="CIRCLE"><path class="cls-5" d="M183.3334,148.17989a30.11018,30.11018,0,1,1,30.11017,30.11017,30.11017,30.11017,0,0,1-30.11017-30.11017Z"/><path class="cls-2" d="M213.44331,178.40555A30.22583,30.22583,0,1,1,243.66987,148.18,30.26026,30.26026,0,0,1,213.44331,178.40555Zm0-60.22021A29.99439,29.99439,0,1,0,243.43745,148.18,30.02823,30.02823,0,0,0,213.44331,118.18534Z"/></g><path class="cls-1" d="M204.50755,129.73374l-.50954-.28581a3.55254,3.55254,0,0,0,.57536-1.29594l.536.13629A4.36381,4.36381,0,0,1,204.50755,129.73374Zm1.29147.23715a1.78145,1.78145,0,0,1-.83022-.2021l.10982-.48325a1.298,1.298,0,0,0,.64135.17563c.28562,0,.43049-.10552.43049-.30762,0-.20174-.09211-.35126-.43478-.6807a.753.753,0,0,1-.29886-.558,1.27829,1.27829,0,0,1,.27686-.74687l.50525.1978a.75752.75752,0,0,0-.20658.49649c0,.123.09229.21963.2461.36879a1.2462,1.2462,0,0,1,.50078.95326C206.73923,129.66327,206.40085,129.97089,205.799,129.97089Zm.83469-2.81616a5.47808,5.47808,0,0,0-1.54186-.44784l.14058-.52295a6.16865,6.16865,0,0,1,1.61214.45714Zm.82592,2.54824a4.83013,4.83013,0,0,0-.57553-1.38822l.48325-.21534a6.09255,6.09255,0,0,1,.63258,1.39681Z"/><path class="cls-1" d="M210.43639,130.01024a4.83857,4.83857,0,0,1-.5403-.03077v-.5183c.15381.01753.37344.02647.52707.02647.94021,0,1.375-.2461,1.375-.63277,0-.26791-.21963-.46536-.64135-.46536a1.8647,1.8647,0,0,0-1.28718.62346l-.55336-.14057a8.58046,8.58046,0,0,1,.3645-1.82283l.54924.08764a4.92323,4.92323,0,0,0-.26362,1.12925,2.24106,2.24106,0,0,1,1.26518-.39991c.7424,0,1.17736.435,1.17736.9665C212.40892,129.59316,211.6971,130.01024,210.43639,130.01024Zm1.23-2.91238a7.14988,7.14988,0,0,0-1.845-.391l.12305-.5183a7.25465,7.25465,0,0,1,1.88024.37773Z"/><path class="cls-1" d="M214.71339,129.75126l-.11-.55371c1.59014-.00859,2.20073-.45249,2.20073-1.10243,0-.46572-.29867-.8084-.96185-.8084a9.09881,9.09881,0,0,0-1.92852.382l-.14934-.57517a11.96119,11.96119,0,0,1,2.17015-.37344,1.32925,1.32925,0,0,1,1.50233,1.36176C217.4369,129.013,216.70756,129.75126,214.71339,129.75126Z"/><path class="cls-1" d="M221.16912,128.20028a4.949,4.949,0,0,0,.21963.45714l-.57089.17563a6.87275,6.87275,0,0,1-.27256-.63277h-1.78349v-.50507H220.374c-.04829-.16239-.09229-.32944-.13593-.50077h-1.2827v-.50507h1.16824c-.03935-.18887-.0744-.38667-.10981-.59307h.6063q.04614.30315.10552.59307h1.15965v.50507h-1.04555c.044.17133.09229.33838.14058.50077H222.127v.50507Zm-.21962,1.81461c-1.33994,0-1.82283-.32515-1.82283-.79517a1.29746,1.29746,0,0,1,.14057-.558l.54442.088a.92552.92552,0,0,0-.10087.39955c0,.23715.3602.32944,1.19936.32944.10981,0,.303,0,.50507-.00859v.53583C221.25712,130.01024,221.064,130.01489,220.9495,130.01489Z"/><path class="cls-1" d="M214.4912,141.88368l1.91764,2.23182a.578.578,0,0,0,.9972-.22883l2.37093-8.95949a.57807.57807,0,0,0-.62088-.72256l-9.21432.99466a.578.578,0,0,0-.3764.9514l1.91757,2.2318h0c-1.957,1.68129-4.3924,3.77366-4.3924,7.91651,0,4.14322,2.43541,6.23585,4.3924,7.9174,1.83005,1.57227,2.78487,2.48275,2.78487,4.4162,0,1.77391-.8039,2.68669-2.34991,4.03961a.57964.57964,0,0,0-.05964.8128l2.25541,2.62489a.57764.57764,0,0,0,.81767.06009c1.86309-1.62182,3.95233-3.70014,3.95233-7.53739,0-4.14322-2.43548-6.23586-4.39247-7.9174-1.83-1.57229-2.7848-2.48277-2.7848-4.4162C211.7064,144.36606,212.66122,143.45572,214.4912,141.88368Z"/><path class="cls-1" d="M215.04875,174.06818a.59491.59491,0,1,1,.5948.60637.60132.60132,0,0,1-.5948-.60637m-.49374,0a1.08856,1.08856,0,1,0,1.08854-1.0842,1.07479,1.07479,0,0,0-1.08854,1.0842"/><path class="cls-1" d="M212.25711,174.67452a.60648.60648,0,1,1,.59483-.60633.60133.60133,0,0,1-.59483.60633m0-1.69054a1.0842,1.0842,0,1,0,1.08854,1.08421,1.07483,1.07483,0,0,0-1.08854-1.08421"/><path class="cls-1" d="M210.39935,173.57884h.563v-.50331h-.563v-.67825h-.51359v1.69706a1.30782,1.30782,0,0,0,.09969.5124,1.06308,1.06308,0,0,0,.64047.56848l.25437-.43071a.854.854,0,0,1-.42289-.36444.77129.77129,0,0,1-.05692-.29795c0-.05246-.00113-.16479-.00113-.16479Z"/><path class="cls-1" d="M213.61618,172.40011a.3342.3342,0,0,0,.6683,0,.3342.3342,0,1,0-.6683,0"/><rect class="cls-1" x="213.69867" y="173.07551" width="0.50331" height="2.02508"/><polygon class="cls-1" points="216.674 174.961 216.603 174.961 216.603 174.937 216.772 174.937 216.772 174.961 216.701 174.961 216.701 175.152 216.674 175.152 216.674 174.961"/><polygon class="cls-1" points="216.886 175.152 216.827 174.977 216.827 175.152 216.799 175.152 216.799 174.937 216.838 174.937 216.9 175.12 216.962 174.937 217.001 174.937 217.001 175.152 216.973 175.152 216.973 174.977 216.914 175.152 216.886 175.152"/><rect class="cls-6" width="315.51" height="187.85451"/></g></g></svg>