<svg xmlns="http://www.w3.org/2000/svg" viewBox="0 0 74.94824 74.94824"><defs><style>.cls-1{fill:#fff;}.cls-2{fill:#c7d932;}.cls-3{fill:#6bb72d;}.cls-4{fill:none;}</style></defs><title>アセット 6302</title><g id="レイヤー_2" data-name="レイヤー 2"><g id="レイヤー_2-2" data-name="レイヤー 2"><path class="cls-1" d="M29.88153,4.99992h15.1856A24.88129,24.88129,0,0,1,69.94842,29.8812V45.0661a24.882,24.882,0,0,1-24.882,24.882H29.88224a24.882,24.882,0,0,1-24.882-24.882V29.8812A24.88129,24.88129,0,0,1,29.88153,4.99992Z"/><path class="cls-2" d="M32.70657,50.54847c-.20108,2.787-2.14947,4.44115-4.35006,3.695-2.19921-.74685-3.82111-3.61232-3.61863-6.39932s2.14947-4.44254,4.35006-3.695,3.82109,3.6123,3.61863,6.3993"/><path class="cls-3" d="M29.40137,54.90527a3.72516,3.72516,0,0,1-1.2002-.2041c-2.39355-.81152-4.16308-3.90429-3.94531-6.89258a4.81352,4.81352,0,0,1,1.93652-3.76269,3.416,3.416,0,0,1,3.05078-.35449c2.39258.8125,4.16309,3.90429,3.94629,6.89257a4.812,4.812,0,0,1-1.93359,3.76075A3.322,3.322,0,0,1,29.40137,54.90527ZM28.03906,44.45312a2.34985,2.34985,0,0,0-1.3125.39844,3.87139,3.87139,0,0,0-1.50586,3.02735c-.1875,2.57714,1.28907,5.22656,3.291,5.90625a2.4473,2.4473,0,0,0,2.209-.24707,3.86257,3.86257,0,0,0,1.50391-3.02442h0c.18652-2.57715-1.29-5.22656-3.292-5.90625A2.77117,2.77117,0,0,0,28.03906,44.45312Z"/><polygon class="cls-1" points="37.474 57.238 19.966 48.37 19.966 31.118 37.474 39.673 37.474 57.238"/><path class="cls-3" d="M37.47461,57.7207a.48036.48036,0,0,1-.21875-.05175L19.74707,48.80176a.48368.48368,0,0,1-.26465-.43164v-17.252a.48348.48348,0,0,1,.69531-.43457l17.50879,8.55469a.48228.48228,0,0,1,.27149.43457V57.2373a.483.483,0,0,1-.4834.4834ZM20.44922,48.07324l16.542,8.377V39.97461l-16.542-8.082Z"/><polygon class="cls-1" points="54.983 31.118 37.474 39.673 37.474 57.238 54.983 48.37 54.983 31.118"/><path class="cls-3" d="M37.47461,57.7207a.483.483,0,0,1-.4834-.4834V39.67285a.48228.48228,0,0,1,.27149-.43457l17.50878-8.55469a.48348.48348,0,0,1,.69532.43457v17.252a.48368.48368,0,0,1-.26465.43164L37.69336,57.669A.48039.48039,0,0,1,37.47461,57.7207Zm.4834-17.74609V56.4502l16.542-8.377V31.89258Z"/><polygon class="cls-1" points="37.474 39.673 54.983 31.117 37.474 22.688 19.966 31.117 37.474 39.673"/><path class="cls-3" d="M37.47461,40.15625a.47447.47447,0,0,1-.21191-.04883L19.75391,31.55176a.48358.48358,0,0,1,.00195-.87012L37.26465,22.252a.48016.48016,0,0,1,.41992,0l17.50879,8.42969a.48358.48358,0,0,1,.002.87012L37.68652,40.10742A.47447.47447,0,0,1,37.47461,40.15625ZM21.07422,31.12012l16.40039,8.01465L53.875,31.12012,37.47461,23.22461Z"/><path class="cls-1" d="M33.69458,18.33991a5.36356,5.36356,0,0,1,7.55951,0"/><path class="cls-3" d="M41.25391,18.82324a.48611.48611,0,0,1-.34082-.13965,4.8792,4.8792,0,0,0-6.87793,0,.48407.48407,0,1,1-.68164-.6875,5.85063,5.85063,0,0,1,8.24121,0,.4834.4834,0,0,1-.34082.82715Z"/><path class="cls-1" d="M42.96729,15.68119a8.47136,8.47136,0,0,0-10.98689,0"/><path class="cls-3" d="M42.96777,16.165a.47737.47737,0,0,1-.31347-.11524,7.98539,7.98539,0,0,0-10.36035,0,.48354.48354,0,1,1-.627-.73632,8.95335,8.95335,0,0,1,11.61426,0,.48341.48341,0,0,1-.31348.85156Z"/><path class="cls-1" d="M60.62217,47.65266a5.36318,5.36318,0,0,1-4.40191,6.14641"/><path class="cls-3" d="M56.21973,54.28223a.48333.48333,0,0,1-.07911-.96,4.88046,4.88046,0,0,0,4.00391-5.59278.48374.48374,0,0,1,.40039-.55469.49287.49287,0,0,1,.55469.4004,5.84489,5.84489,0,0,1-4.79883,6.70019A.44694.44694,0,0,1,56.21973,54.28223Z"/><path class="cls-1" d="M57.38474,56.741a8.47069,8.47069,0,0,0,6.39651-8.932"/><path class="cls-3" d="M57.38477,57.22461a.48371.48371,0,0,1-.11719-.95313,7.98627,7.98627,0,0,0,6.03125-8.42285.48408.48408,0,0,1,.96484-.08008A8.9569,8.9569,0,0,1,57.502,57.21094.486.486,0,0,1,57.38477,57.22461Z"/><path class="cls-1" d="M14.80508,47.65266a5.36435,5.36435,0,0,0,4.4026,6.14641"/><path class="cls-3" d="M19.209,54.28223a.44694.44694,0,0,1-.08105-.00684,5.84486,5.84486,0,0,1-4.80078-6.70019.48373.48373,0,1,1,.95508.15429,4.88043,4.88043,0,0,0,4.00586,5.59278.48333.48333,0,0,1-.07911.96Z"/><path class="cls-1" d="M18.04375,56.741a8.47214,8.47214,0,0,1-6.39723-8.932"/><path class="cls-3" d="M18.044,57.22461a.486.486,0,0,1-.11719-.01367,8.95641,8.95641,0,0,1-6.7627-9.44239.497.497,0,0,1,.52246-.44238.48509.48509,0,0,1,.44239.52246,7.98575,7.98575,0,0,0,6.03222,8.42285.48371.48371,0,0,1-.11718.95313Z"/><path class="cls-2" d="M45.06543,71.56152H29.87891A26.52439,26.52439,0,0,1,3.38477,45.06641V29.88086A26.52334,26.52334,0,0,1,29.87891,3.3877H45.06543A26.52231,26.52231,0,0,1,71.55762,29.88086V45.06641A26.52335,26.52335,0,0,1,45.06543,71.56152ZM29.87891,6.61328A23.29376,23.29376,0,0,0,6.61035,29.88086V45.06641A23.29481,23.29481,0,0,0,29.87891,68.33594H45.06543A23.29439,23.29439,0,0,0,68.332,45.06641V29.88086A23.29335,23.29335,0,0,0,45.06543,6.61328Z"/><path class="cls-4" d="M29.88086,0H45.06641A29.88184,29.88184,0,0,1,74.94824,29.88184V45.06641A29.88184,29.88184,0,0,1,45.06641,74.94824H29.88086A29.88086,29.88086,0,0,1,0,45.06738V29.88086A29.88086,29.88086,0,0,1,29.88086,0Z"/><rect class="cls-4" x="5.00046" y="5.0002" width="64.94817" height="64.94817" rx="24.88129"/></g></g></svg>