<svg version="1.1" id="レイヤー_1" xmlns="http://www.w3.org/2000/svg" xmlns:xlink="http://www.w3.org/1999/xlink" x="0" y="0" viewBox="0 0 74.936 74.948" xml:space="preserve"><style>.st0{fill:#fff}.st2{fill:#00afca}.st4{fill:none}.st5{fill:#d2ebf9}</style><g id="レイヤー_2-2"><path class="st0" d="M29.87 5h15.186c13.742 0 24.881 11.14 24.881 24.88v15.185c0 13.742-11.14 24.882-24.882 24.882H29.871c-13.742 0-24.882-11.14-24.882-24.882V29.881C4.989 16.139 16.129 5 29.869 5z"/><defs><path id="SVGID_1_" d="M29.87 5h15.186c13.741 0 24.88 11.14 24.88 24.88v15.186c0 13.742-11.14 24.882-24.88 24.882H29.87c-13.742 0-24.882-11.14-24.882-24.882V29.88c0-13.741 11.14-24.88 24.882-24.88z"/></defs><clipPath id="SVGID_2_"><use xlink:href="#SVGID_1_" overflow="visible"/></clipPath><g clip-path="url(#SVGID_2_)"><path class="st2" d="M15.55 41.747a1.944 1.944 0 002.19-2.609 4.54 4.54 0 00-3.792-3.038 1.945 1.945 0 00-2.19 2.609 4.539 4.539 0 003.792 3.038"/><path class="st2" d="M15.782 42.24c-.087 0-.176-.004-.266-.01a4.995 4.995 0 01-4.224-3.39 2.533 2.533 0 01.383-2.351 2.606 2.606 0 012.308-.872 4.992 4.992 0 014.223 3.389 2.399 2.399 0 01-2.424 3.233zm-2.064-5.665a1.441 1.441 0 00-1.495 2.002 4.084 4.084 0 003.362 2.688 1.674 1.674 0 001.488-.518c.307-.429.383-.982.202-1.477a4.085 4.085 0 00-3.361-2.688 2.682 2.682 0 00-.196-.007z"/><path class="st0" d="M21.504 44.392l13.162-3.215V29.498l-13.162 3.135z"/><path class="st2" d="M21.505 44.875a.484.484 0 01-.484-.483v-11.76c0-.223.154-.418.371-.47l13.161-3.135a.483.483 0 01.596.47v11.68a.483.483 0 01-.368.47L21.62 44.86a.49.49 0 01-.115.014zm.483-11.86v10.76l12.194-2.978V30.11l-12.194 2.905z"/><path class="st0" d="M7.748 36.055l13.756 8.337V32.525L7.748 24.631z"/><path class="st2" d="M21.504 44.876a.483.483 0 01-.251-.07L7.498 36.469a.483.483 0 01-.233-.414V24.631a.484.484 0 01.725-.42l13.755 7.894c.15.087.242.247.242.42v11.867a.484.484 0 01-.483.484zM8.232 35.783l12.788 7.75V32.805L8.232 25.466v10.317z"/><path class="st2" d="M21.504 32.525l13.162-3.027L21.1 21.993 7.748 24.63z"/><path class="st2" d="M21.505 33.009a.485.485 0 01-.242-.065L7.507 25.05a.484.484 0 01.148-.894l13.351-2.637a.484.484 0 01.329.051L34.9 29.074a.484.484 0 01-.126.895l-13.161 3.028a.512.512 0 01-.108.012zM9.11 24.854l12.47 7.157 11.745-2.702-12.305-6.807-11.91 2.352z"/><path class="st0" d="M34.666 26.56l-13.162 3.014 17.877 4.505z"/><path class="st2" d="M39.381 34.562a.49.49 0 01-.118-.014l-17.877-4.505a.484.484 0 01.01-.94l13.161-3.015c.201-.047.41.04.519.215l4.716 7.519a.484.484 0 01-.41.74zm-15.807-4.966l14.758 3.719-3.894-6.207-10.864 2.488z"/><path class="st0" d="M9.737 22.848l-1.989-1.156-8.428 1.634 22.184 6.368z"/><path class="st2" d="M21.504 30.178a.492.492 0 01-.134-.02L-.814 23.792a.484.484 0 01.042-.94l8.429-1.634a.482.482 0 01.335.057L9.98 22.43l11.767 6.846a.484.484 0 01-.243.902zM1.39 23.418l16.506 4.737-10.234-5.954-6.272 1.216z"/><path class="st0" d="M28.5 17.621l-7.4 1.434 13.566 7.505z"/><path class="st2" d="M34.666 27.044a.487.487 0 01-.235-.06l-13.566-7.505a.484.484 0 01.142-.899l7.4-1.434a.484.484 0 01.49.2l6.167 8.94a.484.484 0 01-.398.758zm-12.167-7.767l10.6 5.863-4.82-6.984-5.78 1.12zM21.504 32.539L-.68 26.264v-2.938l22.185 6.275z"/><path class="st2" d="M21.505 33.023a.49.49 0 01-.132-.019L-.812 26.73a.483.483 0 01-.351-.465v-2.938a.483.483 0 01.615-.465l22.184 6.275a.483.483 0 01.352.465v2.938a.483.483 0 01-.483.484zM-.197 25.898L21.021 31.9v-1.932L-.197 23.966v1.932z"/><path class="st2" d="M39.381 37.045l-17.877-4.521v-2.938l17.877 4.521z"/><path class="st2" d="M39.38 37.529a.483.483 0 01-.118-.015l-17.876-4.52a.484.484 0 01-.365-.47v-2.938a.484.484 0 01.602-.469l17.876 4.52a.484.484 0 01.365.47v2.938a.484.484 0 01-.483.484zm-17.392-5.382l16.91 4.276v-1.94l-16.91-4.275v1.94z"/><path fill="#8fd2ee" d="M34.666 26.56l-13.162 3.014-13.756-7.883L21.1 19.055z"/><path class="st2" d="M21.505 30.058a.483.483 0 01-.24-.064L7.506 22.11a.484.484 0 01.147-.894l13.352-2.636a.489.489 0 01.328.05L34.9 26.137a.484.484 0 01-.126.895l-13.161 3.014a.513.513 0 01-.108.013zM9.11 21.915l12.47 7.145 11.744-2.69-12.305-6.806-11.909 2.351z"/><path class="st0" d="M20.044 24.67l-6.58-4.114V8.278z"/><path class="st2" d="M20.045 25.153a.484.484 0 01-.257-.073l-6.58-4.114a.484.484 0 01-.227-.41V8.278a.484.484 0 01.933-.18l6.58 16.391a.484.484 0 01-.45.664zm-6.097-4.865l5.095 3.185-5.095-12.691v9.506z"/><path class="st0" d="M22.862 23.852l-2.818.818-6.586-16.392 2.86-.181z"/><path class="st2" d="M20.044 25.154a.484.484 0 01-.45-.304L13.01 8.458a.484.484 0 01.42-.663l2.858-.18c.205-.01.394.108.476.297l6.546 15.754a.482.482 0 01-.311.65l-2.82.818a.476.476 0 01-.134.02zM14.157 8.718l6.173 15.365 1.879-.545-6.206-14.936-1.846.116z"/><path class="st4" d="M28.499 17.621l10.882 16.486"/><path class="st2" d="M39.381 34.59a.483.483 0 01-.403-.216L28.095 17.888a.483.483 0 01.807-.534L39.785 33.84a.484.484 0 01-.404.75z"/><path class="st0" d="M47.745 37.911a6.05 6.05 0 013.228-7.646 5.253 5.253 0 01-4.814-3.746 6.682 6.682 0 01-.197-3.69c-.301.2-.62.37-.954.51-3.146 1.314-6.805-.443-8.243-4.032a6.85 6.85 0 01-4.124 6.11c-1.67.525-3.475.402-5.058-.344.112.206.213.418.302.635 1.305 3.19.061 7.077-2.97 8.364a5.953 5.953 0 01-2.516.466 4.677 4.677 0 012.225 2.32 4.517 4.517 0 01.01 3.606 6.707 6.707 0 015.554 4.007"/><path class="st2" d="M30.188 44.955a.483.483 0 01-.444-.293 6.25 6.25 0 00-5.157-3.717.484.484 0 01-.397-.673 4.01 4.01 0 00-.009-3.22 4.219 4.219 0 00-1.997-2.08.484.484 0 01.23-.917 5.496 5.496 0 002.312-.429c2.713-1.152 3.955-4.694 2.711-7.735a5.957 5.957 0 00-.28-.587.484.484 0 01.602-.681 6.353 6.353 0 004.699.347 6.34 6.34 0 003.824-5.687.484.484 0 01.932-.156 6.716 6.716 0 003.54 3.734 5.177 5.177 0 004.94-.437.484.484 0 01.74.512 6.184 6.184 0 00.182 3.424 4.757 4.757 0 004.358 3.42.484.484 0 01.195.926 5.589 5.589 0 00-2.968 7.042.484.484 0 01-.912.326 6.557 6.557 0 012.254-7.534 5.942 5.942 0 01-3.841-3.862 7.134 7.134 0 01-.37-2.952l-.138.06a6.189 6.189 0 01-4.814-.033 7.45 7.45 0 01-3.354-2.886 7.14 7.14 0 01-4.203 4.999 6.56 6.56 0 01-4.353.022c1.199 3.436-.286 7.321-3.365 8.63-.419.177-.856.31-1.303.394a5.153 5.153 0 011.266 1.752 4.959 4.959 0 01.223 3.404 7.196 7.196 0 015.341 4.212.483.483 0 01-.444.675zM47.077 62.57a1.944 1.944 0 002.19-2.609 4.54 4.54 0 00-3.793-3.039 1.945 1.945 0 00-2.19 2.609 4.54 4.54 0 003.793 3.04"/><path class="st2" d="M47.298 63.062c-.083 0-.168-.003-.254-.01a4.994 4.994 0 01-4.225-3.388 2.531 2.531 0 01.384-2.352 2.621 2.621 0 012.305-.873 4.994 4.994 0 014.225 3.39c.272.798.13 1.68-.382 2.35-.515.59-1.27.915-2.053.883zm-.186-.974a1.687 1.687 0 001.488-.52c.307-.427.383-.98.202-1.474a4.087 4.087 0 00-3.362-2.69 1.687 1.687 0 00-1.487.519 1.598 1.598 0 00-.203 1.476 4.087 4.087 0 003.362 2.689zM39.438 57.376l12.552-4.204V42.67l-12.552 3.317z"/><path class="st2" d="M39.438 57.86a.484.484 0 01-.483-.484v-11.39c0-.22.147-.411.36-.467l12.552-3.317a.484.484 0 01.607.468v10.502a.483.483 0 01-.33.458l-12.553 4.205a.472.472 0 01-.153.025zm.484-11.501v10.345l11.585-3.88v-9.526l-11.585 3.06z"/><path class="st0" d="M52.371 65.22l12.883-4.282V49.843l-12.883 3.148z"/><path class="st2" d="M52.37 65.704a.483.483 0 01-.483-.482V52.991c0-.222.152-.416.369-.47l12.883-3.148a.483.483 0 01.599.47v11.095a.483.483 0 01-.331.459l-12.884 4.282a.483.483 0 01-.152.025zm.484-12.333V64.55l11.917-3.961v-10.13l-11.917 2.912z"/><path class="st0" d="M39.438 57.376l12.933 7.752V52.899l-12.933-6.912z"/><path class="st2" d="M52.37 65.612a.486.486 0 01-.248-.069l-12.933-7.752a.484.484 0 01-.234-.415v-11.39a.483.483 0 01.712-.426l12.932 6.913a.484.484 0 01.255.426v12.23a.484.484 0 01-.483.483zm-12.448-8.51l11.965 7.172V53.19l-11.965-6.396v10.31z"/><path class="st2" d="M52.371 53.154l12.883-3.311L51.99 42.67l-12.552 3.316z"/><path class="st2" d="M52.37 53.638a.484.484 0 01-.234-.06L39.204 46.41a.484.484 0 01.11-.891l12.552-3.317a.479.479 0 01.354.043l13.265 7.172a.484.484 0 01-.11.894L52.49 53.623a.5.5 0 01-.12.015zm-11.645-7.492l11.712 6.492 11.502-2.956-12.01-6.495-11.204 2.96zM71.407 43.916L57.9 36.453c-1.99-1.099-4.244-.476-5.035 1.391a4.433 4.433 0 002.168 5.371l13.507 7.463c1.99 1.1 4.244.476 5.036-1.39a4.436 4.436 0 00-2.169-5.372"/><path class="st2" d="M70.567 51.703a4.7 4.7 0 01-2.262-.602l-13.507-7.463a4.93 4.93 0 01-2.378-5.983 3.582 3.582 0 012.154-2.013 4.415 4.415 0 013.56.388l13.507 7.463a4.934 4.934 0 012.38 5.983 3.585 3.585 0 01-2.155 2.014 3.972 3.972 0 01-1.299.213zM55.874 36.395a3.011 3.011 0 00-.985.161 2.63 2.63 0 00-1.579 1.477 3.946 3.946 0 001.957 4.758l13.507 7.463a3.45 3.45 0 002.776.321 2.631 2.631 0 001.58-1.476 3.95 3.95 0 00-1.957-4.76l-13.507-7.462a3.73 3.73 0 00-1.792-.482z"/><path class="st0" d="M34.543 41.433c-.5.339-.891.816-1.124 1.373a4.435 4.435 0 002.168 5.371l13.508 7.463a3.965 3.965 0 002.967.418l19.444-4.963a3.11 3.11 0 002.07-1.807 4.436 4.436 0 00-2.169-5.372L57.9 36.453a3.973 3.973 0 00-2.968-.417l-20.39 5.397z"/><path class="st2" d="M51.116 56.669a4.671 4.671 0 01-2.255-.605L35.353 48.6a4.933 4.933 0 01-2.38-5.983 3.609 3.609 0 011.3-1.586.497.497 0 01.146-.067l20.39-5.397a4.449 4.449 0 013.324.461l13.508 7.464a4.934 4.934 0 012.38 5.983 3.575 3.575 0 01-2.388 2.085l-19.45 4.965a4.014 4.014 0 01-1.067.143zm-16.367-14.79c-.393.283-.7.67-.885 1.117a3.948 3.948 0 001.958 4.758l13.508 7.463a3.47 3.47 0 002.603.374l19.452-4.965a2.62 2.62 0 001.746-1.527 3.95 3.95 0 00-1.958-4.76l-13.507-7.463a3.49 3.49 0 00-2.606-.374L34.75 41.878z"/><path class="st2" d="M51.962 48.878l-13.507-7.461c-1.99-1.1-4.243-.478-5.036 1.39a4.434 4.434 0 002.169 5.37l13.507 7.464c1.99 1.099 4.244.476 5.036-1.39a4.436 4.436 0 00-2.17-5.373"/><path class="st2" d="M51.123 56.666a4.693 4.693 0 01-2.261-.602L35.353 48.6a4.93 4.93 0 01-2.379-5.983 3.586 3.586 0 012.156-2.014 4.417 4.417 0 013.56.39l13.506 7.461a4.934 4.934 0 012.38 5.984 3.586 3.586 0 01-2.154 2.014 3.972 3.972 0 01-1.3.213zM36.427 41.358a3.008 3.008 0 00-.982.16 2.629 2.629 0 00-1.58 1.478 3.946 3.946 0 001.957 4.758l13.508 7.463a3.45 3.45 0 002.775.321 2.629 2.629 0 001.58-1.476 3.948 3.948 0 00-1.958-4.76L38.22 41.84a3.73 3.73 0 00-1.793-.482zM60.771 42.999a1.246 1.246 0 01-.438-.161L40.068 30.71l-2.216-2.669s3.374.913 3.095.826c-.28-.085 20.264 12.128 20.264 12.128.535.297.77.942.55 1.513a.91.91 0 01-.99.49"/><path class="st2" d="M60.94 43.496c-.081 0-.162-.007-.242-.02h-.002a1.713 1.713 0 01-.61-.222L39.82 31.125a.486.486 0 01-.124-.106l-2.217-2.668a.484.484 0 01.498-.776s2.625.71 3.04.814a.502.502 0 01.258.121c.917.603 14.817 8.88 20.184 12.07a1.7 1.7 0 01.739 2.136 1.37 1.37 0 01-1.258.78zm-.096-.975a.427.427 0 00.482-.222.75.75 0 00-.363-.89c0 .001-5.074-3.015-10.143-6.038-2.536-1.513-5.07-3.027-6.97-4.167-1.727-1.037-2.61-1.567-3.039-1.886l-.004.013.004-.013-.054-.04c-.317-.053-.803-.173-1.56-.374l1.19 1.433 20.194 12.085a.76.76 0 00.263.099z"/><path class="st5" d="M52.385 46.183l12.827-3.195v-6.684l-12.827 2.855z"/><path class="st2" d="M52.385 46.666a.483.483 0 01-.483-.482v-7.025c0-.226.157-.422.378-.472l12.827-2.855a.483.483 0 01.589.472v6.684a.484.484 0 01-.366.469l-12.827 3.195a.482.482 0 01-.118.014zm.484-7.12v6.017l11.86-2.953v-5.703l-11.86 2.64z"/><path class="st5" d="M44.326 41.689l8.06 4.436v-7.023l-8.06-4.183z"/><path class="st2" d="M52.385 46.608a.486.486 0 01-.233-.06l-8.06-4.436a.484.484 0 01-.25-.423v-6.77a.483.483 0 01.706-.43l8.06 4.184c.16.083.26.249.26.429v7.023a.484.484 0 01-.482.483zm-7.576-5.206l7.093 3.904v-5.91l-7.093-3.681v5.687z"/><path class="st5" d="M52.385 39.261l12.827-2.958-8.266-4.108-12.62 2.723z"/><path class="st2" d="M52.385 39.745a.482.482 0 01-.23-.058l-8.058-4.343a.484.484 0 01.128-.899l12.62-2.723a.482.482 0 01.316.04l8.266 4.108a.483.483 0 01-.106.904l-12.827 2.958a.477.477 0 01-.109.013zm-6.674-4.63l6.744 3.634 11.333-2.614-6.906-3.431-11.171 2.41z"/><path class="st4" d="M59.881 41.384l11.105 6.646"/><path class="st2" d="M70.986 48.514a.476.476 0 01-.248-.07L59.633 41.8a.484.484 0 11.497-.83l11.104 6.646a.484.484 0 01-.248.899zM61.462 29.55a.482.482 0 01-.37-.172 4.534 4.534 0 00-5.943-.962.484.484 0 11-.516-.819c.04-.026 4.106-2.518 7.199 1.158a.484.484 0 01-.37.796zM60.382 24.854a.483.483 0 01-.288-.094 2.963 2.963 0 00-2.734-.197.483.483 0 11-.396-.881 3.932 3.932 0 013.707.3.484.484 0 01-.289.872zM38.218 62.921a.492.492 0 01-.176-.033 5.605 5.605 0 01-3.631-6.415l.02-.187a.484.484 0 01.178-.65.561.561 0 01.548.005c.293.188.263.483.217.93-.125 1.218-.416 4.07 3.021 5.416a.484.484 0 01-.177.934zM33.024 62.924a.482.482 0 01-.227-.057 3.279 3.279 0 01-1.685-4.053.484.484 0 11.907.335 2.3 2.3 0 001.233 2.865.484.484 0 01-.228.91zM19.583 50.301a5.315 5.315 0 01-3.614-1.48.484.484 0 01.649-.719 4.346 4.346 0 005.243.66.484.484 0 11.42.871 6.199 6.199 0 01-2.698.668zM19.33 53.312a3.195 3.195 0 01-2.043-.753.484.484 0 01.613-.749c.604.519 1.44.674 2.19.407a.484.484 0 01.304.918 3.364 3.364 0 01-1.064.177zM32.822 15.729a.482.482 0 01-.389-.197 4.351 4.351 0 00-5.007-1.695.484.484 0 01-.238-.938 5.354 5.354 0 016.023 2.058.484.484 0 01-.102.676.479.479 0 01-.287.096zM32.293 11.821a.482.482 0 01-.375-.178 2.213 2.213 0 00-2.064-.837.484.484 0 01-.115-.96 3.173 3.173 0 012.929 1.186.484.484 0 01-.375.79z"/></g><path class="st2" d="M45.055 71.56H29.87C15.245 71.544 3.393 59.692 3.377 45.067V29.882C3.393 15.257 15.244 3.404 29.87 3.387h15.185c14.626.017 26.478 11.87 26.494 26.495v15.185c-.016 14.625-11.868 26.477-26.494 26.493zM29.87 6.613C17.025 6.628 6.616 17.037 6.602 29.882v15.185C6.617 57.91 17.025 68.32 29.87 68.334h15.185C57.9 68.32 68.31 57.912 68.324 45.067V29.882C68.31 17.037 57.9 6.627 45.055 6.612H29.87z"/><path class="st4" d="M29.87 0h15.184c16.504 0 29.882 13.379 29.882 29.882v15.183c0 16.504-13.379 29.883-29.882 29.883H29.869C13.366 74.948-.012 61.57-.012 45.067V29.882C-.012 13.379 13.366 0 29.87 0z"/><path class="st4" d="M29.87 5h15.186c13.741 0 24.88 11.14 24.88 24.88v15.186c0 13.742-11.14 24.882-24.88 24.882H29.87c-13.742 0-24.882-11.14-24.882-24.882V29.88c0-13.741 11.14-24.88 24.882-24.88z"/></g></svg>