<?xml version="1.0" encoding="utf-8"?>
<!-- Generator: Adobe Illustrator 23.0.2, SVG Export Plug-In . SVG Version: 6.00 Build 0)  -->
<svg version="1.1" id="レイヤー_1" xmlns="http://www.w3.org/2000/svg" xmlns:xlink="http://www.w3.org/1999/xlink" x="0px"
	 y="0px" viewBox="0 0 75.03479 75.080719" style="enable-background:new 0 0 75.03479 75.080719;" xml:space="preserve">
<style type="text/css">
	.st0{fill:#FFFFFF;}
	.st1{clip-path:url(#SVGID_2_);}
	.st2{clip-path:url(#SVGID_4_);}
	.st3{fill:#EAE6E1;}
	.st4{fill:#E7E2DD;}
	.st5{clip-path:url(#SVGID_6_);}
	.st6{fill:#D3CBC4;}
	.st7{fill:#E1D8D1;}
	.st8{fill:#F0F0F1;}
	.st9{clip-path:url(#SVGID_8_);}
	.st10{clip-path:url(#SVGID_10_);}
	.st11{fill:#C0B3A3;}
	.st12{clip-path:url(#SVGID_12_);}
	.st13{fill:#ECE8E3;}
	.st14{clip-path:url(#SVGID_14_);}
	.st15{fill:#AEA294;}
	.st16{fill:#F6F6F6;}
	.st17{clip-path:url(#SVGID_16_);}
	.st18{fill:#B68064;}
	.st19{fill:#93674F;}
	.st20{fill:#76644D;}
	.st21{fill:none;}
</style>
<title>アセット 6002</title>
<g>
	<g id="レイヤー_2-2">
		<path class="st0" d="M70.0050735,45.2022743c-0.039856,13.7252884-11.1567078,24.8418312-24.8820038,24.8812904H29.9381561
			C16.2131233,70.0437775,5.0966716,58.9273109,5.0569072,45.2022743V30.0174141
			C5.0968661,16.292347,16.213089,5.1757951,29.9381561,5.135426H45.123085
			c13.7253265,0.040041,24.8419571,11.1566696,24.8820038,24.882v15.1848488"/>
		<g>
			<defs>
				<path id="SVGID_1_" d="M29.9379807,5.1355462h15.1863098c13.7415543,0,24.8812866,11.1397343,24.8812866,24.8812885v15.1856232
					c0,13.741951-11.1400452,24.8820076-24.8819962,24.8820076h-0.0000076H29.9387054
					c-13.741951,0-24.882-11.1400566-24.882-24.8820076l0,0V30.0168152
					C5.0567012,16.2752762,16.1964149,5.1355519,29.9379578,5.1355462
					C29.9379654,5.1355462,29.937973,5.1355462,29.9379807,5.1355462z"/>
			</defs>
			<clipPath id="SVGID_2_">
				<use xlink:href="#SVGID_1_"  style="overflow:visible;"/>
			</clipPath>
			<g class="st1">
				<polygon class="st0" points="20.4441566,20.8942757 -7.6888433,38.2322769 -37.7888451,20.8472748 -10.0168438,4.7042756 				
					"/>
				<path class="st0" d="M20.4444466,20.8946648l0.2536201,0.4119987l-28.1334896,17.337841
					c-0.1513615,0.0928955-0.341404,0.0955811-0.4953308,0.0070038l-30.0993786-17.3855019
					c-0.2314186-0.1337891-0.3105621-0.4298439-0.1767731-0.6612587c0.0421524-0.0729141,0.1026001-0.133564,0.1753731-0.1759605
					l27.7719994-16.1426506C-10.1147442,4.202744-9.9373341,4.199307-9.789423,4.2770276l30.4608517,16.1902466
					c0.2359924,0.1255379,0.3255348,0.4186172,0.1999931,0.6546097c-0.0403595,0.0758705-0.100193,0.1396294-0.1733513,0.1847191
					l-0.2536201-0.4119987l-0.2270012,0.4273796L-10.0059433,5.2578664l-26.8177414,15.58778L-7.696753,37.6692772
					l27.8875599-17.1865501l0.2536392,0.4119415l-0.2270012,0.4273796l0.2270012-0.4273796"/>
				<polygon class="st0" points="47.0311584,4.5112767 20.4441566,20.8942757 -10.0168438,4.7042756 16.2891579,-10.5857239 				"/>
				<path class="st0" d="M47.0314102,4.5109563l0.2536163,0.4120007L20.6977654,21.3065643
					c-0.1462708,0.08955-0.3288994,0.0954056-0.4806099,0.015419L-10.2437439,5.1317067
					c-0.2359943-0.1257343-0.3253784-0.4189739-0.1996422-0.6549683c0.042284-0.0793648,0.105835-0.1453857,0.1835327-0.1906624
					l26.3055992-15.289999c0.1399956-0.081399,0.3114128-0.0874472,0.4567986-0.01612L47.2450867,4.0765862
					c0.2397995,0.1179867,0.3385468,0.4080257,0.2205582,0.6478214c-0.0402832,0.0818768-0.1028976,0.150692-0.1806183,0.1985092
					l-0.2536163-0.4120007l-0.2129974,0.4343891l-30.5100021-14.982439L-9.021183,4.6854253L20.4266357,20.337635
					L46.7777634,4.0990167l0.2536392,0.4119396l-0.2129974,0.4343891l0.2129974-0.4343891"/>
				<polygon class="st0" points="72.1941605,-10.9997234 47.0321579,4.5102754 16.2881584,-10.5857239 41.242157,-25.0937233 				
					"/>
				<path class="st0" d="M72.1940002-10.9991636l0.2536163,0.4119997L47.2860947,4.9228368
					c-0.1416016,0.0871754-0.3180237,0.095644-0.4673233,0.0224304L16.0755463-10.1514139
					c-0.2399063-0.1177025-0.3389702-0.4076004-0.2212677-0.6475048c0.0420723-0.0857496,0.1085815-0.1571283,0.1911469-0.2051449
					l24.9534454-14.5081301c0.1354904-0.0789623,0.3009262-0.0870571,0.4434814-0.0216999l30.9520035,14.0940504
					c0.2433014,0.1109428,0.3505936,0.3981123,0.2396545,0.6414108c-0.0398254,0.087328-0.1046982,0.1608505-0.1863937,0.2112293
					l-0.2536163-0.4119997l-0.2003784,0.4399996L41.2692947-24.5502529L17.3128052-10.6215334L47.0051575,3.9587562
					L71.940361-11.4111032L72.1940002-10.9991636l-0.2003784,0.4399996L72.1940002-10.9991636"/>
				<polygon class="st0" points="25.2441559,57.2562752 -4.987843,77.1252823 -37.5068436,56.612278 -7.6888433,38.2322769 				"/>
				<path class="st0" d="M25.2438774,57.2557793l0.2655296,0.4042664l-30.2318001,19.869854
					c-0.1582909,0.1044769-0.3631439,0.1063995-0.5233612,0.0048981l-32.519268-20.5130119
					c-0.2260246-0.1427078-0.2935638-0.4416275-0.150856-0.6676483c0.0393257-0.0622864,0.09235-0.1147766,0.1550331-0.1534653
					l29.8184624-18.3803978c0.1512623-0.0932388,0.3414955-0.0959282,0.4953308-0.007l32.9333191,19.0235519
					c0.2312775,0.1341476,0.3100128,0.4303894,0.1758614,0.6616592c-0.0376854,0.0649719-0.0899696,0.120285-0.1527214,0.1615601
					L25.2438774,57.2557793l-0.2417107,0.4189987L-7.6810536,38.7955437l-28.9118614,17.8219986l31.600071,19.9329033
					l29.9711723-19.6989098L25.2438774,57.2557793l-0.2417107,0.4189987L25.2438774,57.2557793"/>
				<polygon class="st0" points="53.6891556,38.5632744 25.2441559,57.2562752 -7.6888433,38.2322769 20.4441566,20.8942757 				"/>
				<path class="st0" d="M53.6889954,38.5630226l0.2655182,0.4042664L25.5092583,57.6601372
					c-0.1525726,0.1008072-0.3490791,0.1065063-0.5072403,0.0147095L-7.930613,38.6512718
					c-0.2314162-0.1337814-0.3105636-0.4298401-0.1767783-0.6612587c0.0400753-0.0693207,0.0967255-0.1276169,0.1648688-0.1696625
					l28.1334782-17.3378143c0.1462669-0.0895691,0.3289108-0.0954285,0.4806213-0.015419l33.2443924,17.6685486
					c0.2359467,0.1252136,0.3257141,0.4179878,0.2005005,0.6539345c-0.0381699,0.0719223-0.0938721,0.1330414-0.1619492,0.1776962
					l-0.2655182-0.4042664l-0.2269974,0.4273834L20.4627953,21.4521751l-27.2080002,16.766861l31.9728127,18.4686584
					l28.1958389-18.5289192L53.6889954,38.5630226L53.461998,38.990406L53.6889954,38.5630226"/>
			</g>
		</g>
		<g>
			<defs>
				<path id="SVGID_3_" d="M6.9966769,20.4115448c-1.2828712,3.0399475-1.9425659,6.3064499-1.9399986,9.605999v15.1856003
					C5.0535769,49.6117973,6.23175,53.9407616,8.4686584,57.7397728h45.3164978v-37.328228H6.9966769z"/>
			</defs>
			<clipPath id="SVGID_4_">
				<use xlink:href="#SVGID_3_"  style="overflow:visible;"/>
			</clipPath>
			<g class="st2">
				<polygon class="st3" points="20.2831573,21.5622749 5.0561557,30.9462738 5.0561557,45.036274 25.0211563,56.5682793 
					52.353157,38.6072731 				"/>
				<path class="st4" d="M5.0562282,45.0364189v0.1660004l0.000679,0.0574493l19.2582512,11.1249466l0.0077209-0.0007095h0.0322189
					c0.0796089,0.0029984,0.1572838,0.0253601,0.2262993,0.0651474l0.3306885,0.1912689l0.1092796-0.0714493L5.0562282,45.0364189
					 M20.074398,21.4519348L5.0562282,30.7069359v0.2389107l15.2262421-9.3832092l-0.2080688-0.1107101"/>
				<path class="st0" d="M19.2635689,20.8149338L5.060905,29.5682755c-0.002121,0.0805702-0.0028,0.1597404-0.0035095,0.2410011
					l6.0076795-3.7027016l8.4065704-5.1809998l-0.2080803-0.1107101"/>
				<path class="st0" d="M11.0653763,26.1064072l-6.0076985,3.7026901L11.0653763,26.1064072z"/>
				<path class="st0" d="M5.0749965,46.1640129c0.0028,0.0770798,0.0062904,0.1527405,0.0097885,0.2297974l18.2612724,10.548317
					l0.1807518-0.1190872L5.8631549,46.6194267l-0.7881813-0.4554062"/>
				<path class="st0" d="M5.0569072,45.2597542c0.0007095,0.302002,0.0063095,0.6046295,0.018219,0.9045029l0.7881813,0.4546814
					l17.6636505,10.203598l0.5464706-0.3587036c0.0721016-0.0474091,0.1555367-0.0747375,0.2417107-0.0791702L5.0569072,45.2597542
					 M19.4718552,20.9256439L19.4718552,20.9256439l-8.4065704,5.1809998l-6.0076718,3.7027016
					c-0.0007095,0.0686493-0.0014114,0.1394196-0.0014114,0.2087784v0.6893806l15.0181618-9.2556877l0.2080803,0.1107101
					l0.1800499-0.1107101l32.2782822,17.1549988L25.2273254,56.6880379l-0.2060013-0.1191101l-0.1092987,0.0714722
					l0.2417107,0.1394272c0.0295563-0.0056305,0.0595818-0.0084534,0.0896683-0.0084305
					c0.0851212,0.0001221,0.1687164,0.0225906,0.2424202,0.0651703l0.4736023,0.2732315l27.6073532-18.1421661l-0.2655182-0.404953
					l0.2655182,0.404953c0.1001129-0.0658035,0.1722641-0.1664047,0.2024765-0.2823334l-0.0805588-0.1226196l0.0805588,0.1226196
					c0.012291-0.0470734,0.0172577-0.0957565,0.0147095-0.1443405c-0.0027313-0.0609741-0.016983-0.1208801-0.0419998-0.1765518
					l-0.2802429-0.149231c-0.0948257-0.0502357-0.1702499-0.1305809-0.2143936-0.2283897L21.2373772,20.9739952
					l-0.5394592,0.3327904c-0.1462746,0.0897408-0.3291321,0.0953369-0.4806213,0.0147095L19.4718552,20.9256439"/>
				<polygon class="st0" points="20.4621582,21.4522743 20.2821579,21.5622749 52.3521576,38.6072731 25.0211563,56.5692787 
					25.2271576,56.6882744 52.7411575,38.6072731 				"/>
			</g>
		</g>
		<g>
			<defs>
				<path id="SVGID_5_" d="M46.5479279,21.4295044h21.9205246c-3.44384-9.2803755-12.039917-15.6540756-21.9205246-16.2533092
					V21.4295044z"/>
			</defs>
			<clipPath id="SVGID_6_">
				<use xlink:href="#SVGID_5_"  style="overflow:visible;"/>
			</clipPath>
			<g class="st5">
				<path class="st6" d="M56.0555649,7.681767c1.6928482,0.8356366,3.2858505,1.859879,4.7486877,3.0532422l0.0007019,0.0007019
					c-1.4628906-1.1938324-3.0561523-2.2183266-4.7493896-3.0539403"/>
				<path class="st7" d="M50.6862564,5.7668557l10.1181335,4.968699c-1.4627609-1.193676-3.0557785-2.2181625-4.7487106-3.0539403
					c-1.7097778-0.8436584-3.5116196-1.4862022-5.3694229-1.9147606"/>
				<path class="st8" d="M60.8044052,10.7352152c0.8633347,0.704155,1.6789932,1.4648285,2.4415894,2.2770004
					c-0.7625427-0.811985-1.5779648-1.5726433-2.4409103-2.2770004H60.8044052"/>
				<path class="st0" d="M47.4219284,5.2418351l15.8238602,7.7704415c-0.7624435-0.8123474-1.578125-1.5730286-2.4416351-2.2770004
					l-10.118103-4.9686704C49.6109619,5.5189309,48.5204773,5.3436151,47.4219284,5.2418351"/>
			</g>
		</g>
		<g>
			<defs>
				<path id="SVGID_7_" d="M29.9379807,5.1355462h15.1863098c13.7415543,0,24.8812866,11.1397343,24.8812866,24.8812885v15.1856232
					c0,13.741951-11.1400452,24.8820076-24.8819962,24.8820076h-0.0000076H29.9387054
					c-13.741951,0-24.882-11.1400566-24.882-24.8820076l0,0V30.0168152
					C5.0567012,16.2752762,16.1964149,5.1355519,29.9379578,5.1355462
					C29.9379654,5.1355462,29.937973,5.1355462,29.9379807,5.1355462z"/>
			</defs>
			<clipPath id="SVGID_8_">
				<use xlink:href="#SVGID_7_"  style="overflow:visible;"/>
			</clipPath>
			<g class="st9">
				<polygon class="st0" points="61.43116,78.1582794 30.8521576,99.7352829 -4.9868436,77.1252823 25.2441559,57.2552757 				"/>
				<path class="st0" d="M61.4314346,78.1587524l0.2788315,0.3951569l-30.5792999,21.5765228
					c-0.1595764,0.1128311-0.3714218,0.1183548-0.5366592,0.0139999L-5.2458425,77.534523
					c-0.225853-0.1424103-0.2935028-0.4409409-0.1510925-0.6667938c0.0369644-0.0586319,0.0861092-0.1086273,0.1440926-0.1465988
					l30.2311096-19.869854c0.152565-0.1008301,0.3490791-0.1065292,0.5072289-0.0147095l36.1876602,20.9032249
					c0.2313538,0.1332016,0.3109283,0.4287415,0.1777191,0.6600952c-0.0350952,0.0609589-0.0830688,0.1135254-0.1405792,0.1540222
					l-0.2788315-0.3951569l-0.2424088,0.4189987L25.2599182,57.8237495L-4.0940328,77.116951l34.9314575,22.0368271
					l30.3151627-21.3901672L61.4314346,78.1587524l-0.2424088,0.4189987L61.4314346,78.1587524"/>
			</g>
		</g>
		<g>
			<defs>
				<path id="SVGID_9_" d="M29.9379807,5.1355462C19.5397758,5.1664433,10.2485847,11.6364794,6.6127467,21.3783646h40.9020004
					V5.2504468c-0.7867737-0.0756607-1.5854721-0.1149006-2.3911591-0.1149006H29.9379807z"/>
			</defs>
			<clipPath id="SVGID_10_">
				<use xlink:href="#SVGID_9_"  style="overflow:visible;"/>
			</clipPath>
			<g class="st10">
				<path class="st11" d="M45.0954437,5.1358266H29.9378433C25.9843903,5.132792,22.08815,6.0802464,18.5775452,7.8983274
					c-3.2696609,1.6947789-6.1274223,4.0866475-8.3715286,7.006741l10.2204323,5.4325056L45.0954514,5.1358247"/>
				<path class="st0" d="M45.1234589,5.1358266H45.095459L20.4264259,20.337574l-10.2204285-5.4325056
					c-0.1989708,0.2585297-0.3925705,0.5207939-0.5807915,0.7867889l9.6382103,5.1228285l0.5394592-0.3320885
					c0.0733299-0.0448227,0.1571999-0.0694771,0.2431183-0.0714684h0.0209999c0.1202354,0.0532875,0.2573929,0.0532875,0.3776283,0
					c0.0791245-0.000248,0.1570892,0.0190048,0.2270012,0.0560608l0.7454414,0.3965187L46.8434296,5.1953969
					c-0.5681915-0.0392265-1.1415253-0.0590839-1.7200012-0.0595703"/>
				<path class="st0" d="M20.4447289,20.4109039c-0.0668221-0.0001831-0.1329384,0.0136642-0.1940689,0.0406494
					c0.0112,0.0048904,0.0224113,0.0098114,0.0329285,0.0154114l0.9535103,0.5072403l0.1800003-0.1106911l-0.7454414-0.3965492
					c-0.070034-0.0367355-0.1479187-0.0559692-0.2270012-0.0560608"/>
				<path class="st0" d="M20.0670357,20.4110565h-0.0209999c-0.0859146,0.0020065-0.1697731,0.0266647-0.2430992,0.0714798
					l-0.5394592,0.3320808l0.2080803,0.1114006l0.7195091-0.4434814c0.0190964-0.0118866,0.0389977-0.0224228,0.0595589-0.0315399
					c-0.0580711-0.0249176-0.1203766-0.038475-0.1835518-0.0399399"/>
				<path class="st0" d="M20.2505875,20.4513359c-0.0205612,0.0091171-0.0404625,0.0196533-0.0595589,0.0315399
					l-0.7195282,0.4427719l0.7454605,0.3958511c0.1517334,0.0806274,0.3347855,0.0750351,0.4813118-0.0147095l0.5387688-0.3327904
					l-0.9535217-0.5065384l-0.0329285-0.0161209"/>
			</g>
		</g>
		<g>
			<defs>
				<path id="SVGID_11_" d="M7.7274051,56.3847847c4.2358022,8.3821449,12.8189964,13.6763191,22.2105751,13.6996422h15.1856232
					c5.8089142,0.0006638,11.4329758-2.0419159,15.8876114-5.7701492v-7.929493H7.7274051z"/>
			</defs>
			<clipPath id="SVGID_12_">
				<use xlink:href="#SVGID_11_"  style="overflow:visible;"/>
			</clipPath>
			<g class="st12">
				<path class="st3" d="M25.1508255,57.8956642l-10.5013771,6.9023781
					c4.3595734,3.4259949,9.7439384,5.2876434,15.2886009,5.2860489h15.1856155c0.3636017,0,0.7265167-0.0076981,1.0866318-0.023819
					L25.1508255,57.8956642"/>
				<path class="st3" d="M24.3554153,57.4361839l-10.3752594,6.8189964
					c0.2192993,0.1842575,0.4434814,0.3657227,0.6690903,0.5429993l10.501358-6.9023857l-0.7951813-0.4596024"/>
				<path class="st0" d="M23.3458672,56.9419975l-10.1217117,6.6522751
					c0.2102013,0.1912537,0.4224701,0.3783112,0.6389999,0.5625725l10.2778587-6.7552299l-0.7951698-0.4596024"/>
				<path class="st13" d="M24.3550758,56.384449h-0.039917l0.5247498,0.3033676l0.0721588-0.0476303l-0.3306694-0.1912689
					c-0.0690651-0.0395737-0.1467438-0.0617065-0.2262993-0.0644684"/>
				<polygon class="st0" points="23.5271568,56.8232765 23.3451576,56.9422722 24.1411552,57.4012718 24.3221588,57.2822762 				"/>
				<path class="st0" d="M24.3153572,56.3847237c-0.0863953,0.0044327-0.170063,0.0317535-0.2424202,0.0791702l-0.5457611,0.3587112
					l0.7951698,0.4596024l0.6557693-0.4308701c0.0534096-0.0350342,0.1131439-0.0593033,0.1758499-0.0714493l-0.2417107-0.1394196
					l-0.0721588,0.0476303l-0.5247383-0.3033676"/>
				<path class="st0" d="M25.2601585,57.8237724l-0.1092987,0.0721893l21.0595055,12.1645851l0.2157898-0.010498
					L25.2601585,57.8237724"/>
				<path class="st0" d="M25.1537781,56.7800179c-0.0627098,0.0121613-0.1224442,0.0364456-0.1758614,0.0714722
					l-0.6557693,0.4308701l-0.1807518,0.1191101l-10.2778778,6.7552299
					c0.0385284,0.0329285,0.0777588,0.0658493,0.1170006,0.0987778l10.3752785-6.8190041l0.7951698,0.4589005l0.1092987-0.0714569
					l21.1659966,12.2262535c0.5002365-0.0259094,0.9962692-0.0667725,1.4880981-0.1225967L25.1537781,56.7800179"/>
			</g>
		</g>
		<g>
			<defs>
				<path id="SVGID_13_" d="M53.2050858,19.6864243v37.9475594h13.4502106
					c2.1971512-3.7741165,3.3532639-8.0637589,3.3502808-12.4308395V30.0175438
					c0.0027771-3.5665741-0.7680893-7.0913086-2.2594223-10.3311195H53.2050858z"/>
			</defs>
			<clipPath id="SVGID_14_">
				<use xlink:href="#SVGID_13_"  style="overflow:visible;"/>
			</clipPath>
			<g class="st14">
				<path class="st15" d="M69.8988876,27.715416L69.8988876,27.715416c0.0700302,0.7587585,0.1055222,1.5261536,0.1064682,2.3021889
					v15.1849213c0,0.2353973-0.0035019,0.4708023-0.010498,0.7047882h0.0006866
					c0.0063171-0.2340012,0.0095825-0.4689255,0.0098114-0.7047882V30.0176048
					C70.0053558,29.2420387,69.9698639,28.4746437,69.8988876,27.715416"/>
				<path class="st11" d="M69.898735,27.7154961L54.636734,37.7439766l15.3586578,8.1634293
					c0.0063095-0.2340012,0.0098114-0.4693909,0.0098114-0.7048035v-15.184906
					C70.0052032,29.2414169,69.9697113,28.4740143,69.898735,27.7154961"/>
				<path class="st16" d="M69.995079,45.9069786c-0.009819,0.3580017-0.0275726,0.7139053-0.0532608,1.0677109h0.0007019
					C69.9677505,46.6209068,69.9852753,46.2650108,69.995079,45.9069786 M69.7750778,26.6389809L69.7750778,26.6389809
					c0.0490265,0.3566132,0.090126,0.7155609,0.1232986,1.0768394l0.0006866-0.0007095
					c-0.0336075-0.3607979-0.0749359-0.7195129-0.1240005-1.0761299"/>
				<path class="st0" d="M69.7749405,26.6390152L53.4228058,37.3835144
					c-0.1273727,0.0837669-0.2078476,0.2226372-0.2171936,0.3748016l0.7104187,0.3776283
					c0.1510696,0.0801697,0.2485657,0.2341576,0.2564163,0.4049988c0.0008163,0.0172806,0.0005798,0.0345993-0.0007095,0.0518494
					l15.7706223,8.3820038c0.025238-0.3537827,0.0427551-0.7096863,0.0525589-1.0677109l-15.3579636-8.1628113l15.262001-10.0291595
					c-0.0336151-0.3608017-0.0749512-0.7195168-0.1240005-1.0761414"/>
				<path class="st0" d="M53.2059174,37.7584457c-0.0007095,0.0175285-0.0014114,0.0343399-0.0007095,0.0518494
					c0.0029755,0.0610237,0.0174789,0.1209297,0.0427399,0.1765594l0.2802124,0.1492195
					c0.0946121,0.0502968,0.1697922,0.1306572,0.2136765,0.2284088l0.4301834,0.2283936
					c0.0010376-0.0172653,0.0010376-0.034584,0-0.0518494c-0.0075912-0.1707344-0.1048355-0.324749-0.2557297-0.4049988
					L53.2058868,37.7584"/>
				<path class="st0" d="M53.2476044,37.986927c0.044075,0.0976257,0.1192017,0.1779327,0.2136765,0.2284088l0.2809372,0.1492119
					c-0.0439377-0.0979385-0.1194153-0.1783447-0.2143784-0.2283897l-0.2802429-0.149231"/>
			</g>
		</g>
		<g>
			<defs>
				<path id="SVGID_15_" d="M29.9379807,5.1355462h15.1863098c13.7415543,0,24.8812866,11.1397343,24.8812866,24.8812885v15.1856232
					c0,13.741951-11.1400452,24.8820076-24.8819962,24.8820076h-0.0000076H29.9387054
					c-13.741951,0-24.882-11.1400566-24.882-24.8820076l0,0V30.0168152
					C5.0567012,16.2752762,16.1964149,5.1355519,29.9379578,5.1355462
					C29.9379654,5.1355462,29.937973,5.1355462,29.9379807,5.1355462z"/>
			</defs>
			<clipPath id="SVGID_16_">
				<use xlink:href="#SVGID_15_"  style="overflow:visible;"/>
			</clipPath>
			<g class="st17">
				<path class="st18" d="M24.6193466,43.562748c2.4408875-0.4729004,3.8890533-3.6592484,3.2340012-7.1167412
					c-0.6529999-3.456768-3.1604385-5.8745689-5.6020012-5.402359c-2.4402084,0.4715118-3.8897591,3.6571617-3.2340012,7.1125488
					C19.6709938,41.6150703,22.1791763,44.0356636,24.6193466,43.562748"/>
				<path class="st18" d="M24.0006065,44.1063881c-0.8667488-0.0144882-1.7087593-0.2913208-2.4150009-0.7939987
					c-1.6306763-1.2324982-2.7214241-3.047966-3.0439491-5.0664101c-0.7041016-3.7119102,0.9189491-7.15625,3.6181602-7.6772385
					c1.0982513-0.1913948,2.2271805,0.0705757,3.1289101,0.7260704c1.6286545,1.2315521,2.7179565,3.0452156,3.0400009,5.0615311
					c0.7031174,3.7124023-0.9189529,7.1582031-3.6171913,7.6816406l0,0
					C24.477272,44.0833244,24.2392197,44.1062279,24.0006065,44.1063881z M24.6197548,43.5629311L24.6197548,43.5629311z
					 M22.8668289,31.4686852c-0.1756897-0.0001068-0.3509827,0.0167351-0.5234413,0.0502892
					c-2.1767616,0.4204102-3.4560585,3.3574295-2.8505898,6.5468788c0.2734756,1.7661285,1.2175674,3.3587341,2.6357384,4.4462891
					c0.6884041,0.5098572,1.5546188,0.7176819,2.3994217,0.5756836c2.1757774-0.4218674,3.4550819-3.3608398,2.8496132-6.5512695
					c-0.2728271-1.7643013-1.2159348-3.3552742-2.6328087-4.4413986
					C24.1963081,31.7016869,23.5416679,31.4832993,22.8668289,31.4686852z"/>
				<polygon class="st0" points="50.6091537,34.468277 33.1931534,25.6342773 32.0641556,8.8842783 50.6091537,18.2692757 				"/>
				<path class="st19" d="M50.6090088,34.9525757c-0.0759964-0.0001183-0.1509094-0.0180092-0.21875-0.0522499
					l-17.4160004-8.8339996c-0.1523056-0.076931-0.252594-0.2286568-0.2636719-0.3989296L31.5816803,8.916398
					c-0.017868-0.2667084,0.1838531-0.4974022,0.4505615-0.515274c0.0865936-0.0057983,0.1731491,0.0117874,0.2506104,0.0509224
					l18.5449066,9.3852873c0.1623993,0.0826302,0.2646713,0.2494278,0.2646484,0.4316406v16.1997108
					C51.0922623,34.7356796,50.8759995,34.9521599,50.6090088,34.9525757z M33.6568604,25.3275757l16.46875,8.3535118V18.5663452
					L32.6041565,9.6991549L33.6568604,25.3275757z"/>
				<polygon class="st0" points="31.5031586,47.036274 13.223156,36.3852768 13.223156,19.6822739 31.5031586,30.0052757 				"/>
				<path class="st18" d="M31.5025635,47.5199547c-0.0854721,0-0.1694031-0.0227509-0.2431717-0.065918L12.9801559,36.803154
					c-0.1490555-0.0863609-0.240654-0.2457352-0.2402382-0.4179993V19.6820641
					c-0.0004044-0.2669945,0.2157135-0.4837646,0.4827118-0.484169c0.0837479-0.0001259,0.1660919,0.0215073,0.2389679,0.0627785
					l18.2793007,10.3232498c0.1515198,0.0861778,0.2451096,0.2470665,0.2451172,0.4213791V47.036068
					c0.0003052,0.2669373-0.2158356,0.4835815-0.4827728,0.4838867c-0.000206,0-0.0004196,0-0.0006256,0H31.5025635z
					 M13.706665,36.107357l17.3124924,10.0869217V30.2875366l-17.3124886-9.7768593L13.706665,36.107357z"/>
				<polygon class="st0" points="50.6091537,34.468277 31.5021591,46.8212776 31.5021591,29.7902756 50.6091537,18.2692757 				"/>
				<path class="st18" d="M31.5025635,47.3056068c-0.2670822-0.0001144-0.4835129-0.216713-0.4833984-0.4838028
					c0-0.0000305,0-0.0000534,0-0.0000839V29.7899742c0.0000687-0.1693306,0.088562-0.3263321,0.2333984-0.4140587
					l19.1064377-11.5209999c0.2281036-0.1382904,0.5251312-0.0654831,0.6634216,0.1626244
					c0.0459595,0.0758018,0.0701675,0.1627884,0.0699768,0.2514343v16.1997108
					c0.0000076,0.1640625-0.0830612,0.3169708-0.2207031,0.40625L31.7652588,47.2279625
					C31.6870422,47.278698,31.5957947,47.3056679,31.5025635,47.3056068z M31.9859619,30.0634193v15.8696289l18.1396484-11.7275429
					V19.1254272L31.9859619,30.0634193z M50.608963,34.468689L50.608963,34.468689z"/>
				<polygon class="st0" points="31.5031586,29.7902756 13.223156,19.6812744 32.065155,8.8842783 50.6091537,18.2692757 				"/>
				<path class="st18" d="M31.5025635,30.2738647c-0.0820007-0.0000381-0.1626511-0.0208855-0.2344055-0.0605888
					L12.9888954,20.1049156c-0.2337723-0.1298943-0.3179855-0.4247093-0.1880875-0.6584816
					c0.0427971-0.0770264,0.1058044-0.1409149,0.1822281-0.1847801L31.8248291,8.4638071
					c0.1413727-0.0805664,0.3136978-0.0849686,0.4589996-0.0117188l18.5439301,9.3852453
					c0.2383194,0.1208763,0.3335342,0.4120636,0.2126541,0.650383c-0.0409851,0.0808105-0.1038361,0.1484909-0.1814041,0.1953278
					L31.7525711,30.2040443C31.6771545,30.2496681,31.5907059,30.2738113,31.5025635,30.2738647z M14.2095985,19.6742744
					l17.2822304,9.5571289l18.1191406-10.9253006l-17.53125-8.8730001L14.2095985,19.6742744z"/>
				<path class="st20" d="M29.5187454,22.650116l-0.5408707,0.3208809c-0.2325974,0.136631-0.2171936,0.3636208,0.034317,0.5051384
					l1.6589966,0.9388084c0.2773361,0.1437149,0.6063385,0.1476173,0.887001,0.0105209l0.5443726-0.3208809l-0.0098114-0.1198006
					c-0.1968765-0.1079102-0.420372-0.2298012-0.6452484-0.3552208c-0.6557693-0.3629112-1.3339996-0.7384186-1.5322266-0.8505211
					c-0.0622711-0.0346794-0.1219788-0.0737801-0.1786575-0.1170006l-0.2178726-0.0119286"/>
				<path class="st20" d="M24.2654076,19.7190666c-0.0707703-0.0406189-0.1373291-0.0784607-0.2010918-0.1155815
					c-0.1275101-0.0721588-0.3222694-0.1898613-0.5429993-0.3370018l-0.2080803-0.0063095l-0.4462814,0.2662315
					c-0.2276993,0.1352386-0.2150917,0.3580017,0.0287209,0.4946518l1.6043892,0.9072685
					c0.2684326,0.1386337,0.5870476,0.1401978,0.8568306,0.0042114l0.6081314-0.3608208
					c0.0889969-0.0553589-0.0021133-0.0973892-0.0686722-0.1156082c-0.575325-0.168541-1.1242943-0.4166031-1.6310005-0.7369995"/>
				<path class="st20" d="M33.7271576,15.7980547c0.0509949,0.0603485,0.1381912,0.0748787,0.2060013,0.0343285l0.6158295-0.3678093
					c0.2297974-0.1373291,0.2129974-0.3594093-0.039917-0.4946213l-1.6611938-0.8876762
					c-0.2773438-0.1332512-0.6007919-0.1304092-0.8757477,0.0077019l-0.4519119,0.2683296
					c-0.0567398,0.0349998-0.0469284,0.0903702,0.0196304,0.1204987c0.2683334,0.1219101,0.4834213,0.2284088,0.614418,0.298481
					c0.0672607,0.0364113,0.1394196,0.0735512,0.2108994,0.1106796c0.503212,0.2223206,0.9640427,0.5302467,1.3619995,0.91008"/>
				<path class="st20" d="M36.3249054,17.8765373l-1.4586563-0.7853813
					c-0.5192261-0.2542343-1.0016479-0.5775719-1.4341431-0.9612083c-0.0703354-0.0670662-0.1356583-0.1391897-0.1954575-0.2158003
					c-0.4331818-0.3770599-0.9200668-0.6875572-1.4446564-0.9212914c-0.1618271-0.0854797-0.4260025-0.2150917-0.7405167-0.3545189
					c-0.728714-0.3429604-1.5005875-0.5854759-2.2945023-0.7209091c-1.1503906-0.1254005-2.3246002,0.1779518-4.229538,1.3206406
					c-1.8993416,1.1398687-2.3708496,1.8208685-2.1039085,2.4709997c0.3492393,0.5209999,0.8114128,0.9565926,1.3521614,1.2743988
					c0.2522087,0.1737404,0.4889984,0.3187714,0.6466599,0.4049492c0.5165291,0.3313332,1.0730553,0.5957069,1.6562195,0.7867699
					c0.1233063,0.0273285,0.2494278,0.0602493,0.3804321,0.1015816c0.6026382,0.1969147,1.182518,0.4576187,1.7297897,0.7776794
					l1.4229279,0.7965889c0.166748,0.0938797,0.2409973,0.3068504,0.4105606,0.5009308
					c0.0738831,0.0843239,0.1618271,0.155201,0.2599182,0.2094917c0.2788467,0.1576385,1.5091171,0.8358116,2.2874908,1.2659988
					c0.2893372,0.1604195,0.5156403,0.2844315,0.6060028,0.3362808c0.3201447,0.160759,0.6948624,0.1722984,1.024292,0.0315399
					c0.1649551-0.0520287,0.3394394-0.0666313,0.5107498-0.0427399c0.5969009,0.0714493,1.4432373,0.0553513,3.7181091-1.2799988
					c2.2825699-1.3402596,2.2811584-1.8250885,2.1361313-2.1627808c-0.0463257-0.1005936-0.0222321-0.2196045,0.0595703-0.2942581
					c0.2346878-0.2382011,0.1940536-0.4315681-0.0904007-0.5842896c-0.0917664-0.0504417-0.3215714-0.1751518-0.6123199-0.3348885
					c-0.7902832-0.4301796-2.0324631-1.1104507-2.3154984-1.2645912c-0.1218414-0.0609245-0.2501602-0.1079292-0.3825226-0.1401291
					c-0.3045197-0.0494537-0.6049652-0.1213455-0.8988876-0.2150917 M23.6860123,17.8267822
					c-0.254837-0.0381546-0.4304962-0.2756767-0.3923378-0.5305138c0.008316-0.055542,0.0265923-0.109127,0.0539474-0.1581764
					c0.1335602-0.3327789,0.4678192-0.5402107,0.8252983-0.5121613c0.255085,0.0365868,0.4322128,0.2730331,0.3956299,0.5281181
					c-0.008049,0.0561142-0.0262566,0.1102943-0.05373,0.1598816c-0.1350746,0.3332291-0.4703255,0.5406761-0.8288116,0.5128593
					 M37.1004715,19.8213997c-0.151329,0.2508965-0.3684082,0.4556198-0.6277313,0.5919991l-1.215538,0.7167206l-1.212059,0.7159996
					c-0.3144913,0.1816254-0.6575165,0.3085976-1.014473,0.3755112c-0.1313019,0.0343513-0.2709427-0.0044327-0.3657227-0.1015816
					c-0.118988-0.1545143-0.1942444-0.3381805-0.2178879-0.5317612c0.0006714-0.2195129,0.1254959-0.4197464,0.3222885-0.5169983
					l2.2930679-1.356369c0.2751312-0.1473007,0.5850372-0.2172775,0.8967667-0.2024803
					c0.3184433,0.0029068,0.635788,0.0378838,0.9472275,0.1044006c0.1527328,0.0294189,0.2375031,0.1204987,0.1940536,0.2045708
					 M33.429306,17.2670097c0.0938873,0.0511398,0.0385284,0.1380005-0.0903702,0.1408081
					c-0.3018875,0.0017281-0.6023941,0.0407982-0.8946838,0.1163216c-0.6953049,0.2593193-1.3656998,0.5810394-2.0029984,0.9612312
					c-0.5756149,0.3319855-1.1123352,0.7272339-1.6001816,1.1783981c-0.1124649,0.1467705-0.1704178,0.3280678-0.1639404,0.5128593
					c0.0020905,0.0728493-0.1485367,0.1092796-0.2424164,0.0567513l-0.8547363-0.4778214
					c-0.327652-0.1255875-0.4914551-0.4930077-0.3658676-0.8206596c0.0377579-0.0985107,0.0994568-0.1860695,0.1795197-0.2547722
					c0.3891144-0.4557915,0.8655396-0.8290749,1.4011841-1.0978508c0.5792999-0.3695221,1.2078781-0.6553917,1.8671188-0.8491402
					c0.6179276-0.2154808,1.2938995-0.1935081,1.8965302,0.0616493L33.429306,17.2670097z M29.0162125,14.6383295
					c0.1015778,0.1856689-0.288002,0.4084587-0.8638535,0.5009995c-0.577301,0.0910606-1.1223831,0.0168114-1.220459-0.1653595
					c-0.0988007-0.1835518,0.2865524-0.4077492,0.8610535-0.4988098c0.5751801-0.0932007,1.1237488-0.018219,1.223259,0.1632195"/>
				<path class="st20" d="M38.2830353,17.4661369l-0.5485764,0.3250885
					c-0.0602493,0.0349998-0.0497284,0.0952797,0.0252304,0.1233101c0.0733795,0.0288696,0.1451797,0.0616112,0.2150879,0.0980911
					c0.2052689,0.1106911,0.8918533,0.4833984,1.5595322,0.8477287c0.2269974,0.1232986,0.4518967,0.2473106,0.6494598,0.3566093
					h0.2115936l0.5520706-0.3243904c0.2389069-0.1415215,0.2171936-0.3692284-0.0469284-0.5107384l-1.7192917-0.9163818
					c-0.2830048-0.1403313-0.6153793-0.1400795-0.8981705,0.000679"/>
				<path class="st18" d="M40.4967041,74.9213257c-0.083931,0.0001297-0.1664276-0.021759-0.2392578-0.0634766
					l-15.4589996-8.8188477c-0.2321014-0.1319275-0.3133125-0.4270248-0.1813889-0.6591263
					c0.0364761-0.0641785,0.0871658-0.1191406,0.1481781-0.1606903l26.4580002-18.0600624l-6.9286804-3.7773438
					c-0.2346115-0.1278229-0.3211823-0.4216385-0.1933594-0.65625s0.4216385-0.3211823,0.65625-0.1933594l7.6230011,4.1557617
					c0.2345047,0.1274185,0.321312,0.4208221,0.1938858,0.6553268c-0.0367737,0.0676727-0.0891876,0.1255798-0.1528854,0.1688919
					L25.9498291,65.5819702l14.7861404,8.4350586c0.2321701,0.13237,0.3130798,0.427887,0.1807098,0.6600647
					C40.8306656,74.8279648,40.6703873,74.9211731,40.4967041,74.9213257z"/>
				<path class="st18" d="M60.3805008,43.6029625c-0.0804977-0.000061-0.1597137-0.0202026-0.2304688-0.0586014
					l-5.7158279-3.0917892c-0.2352066-0.1266861-0.3231812-0.4200592-0.1964951-0.6552734
					c0.1266861-0.2352066,0.4200668-0.3231812,0.6552734-0.1964874c0.0007172,0.0003815,0.001442,0.0007782,0.0021591,0.0011673
					l5.7158203,3.0917969c0.2349472,0.1272202,0.3222809,0.4208069,0.1950607,0.6557541
					C60.7214584,43.5057182,60.5581055,43.6030006,60.3805008,43.6029625z"/>
				<path class="st18" d="M41.3258057,71.5658569c-0.0805283,0.0001678-0.1597977-0.019989-0.2304688-0.0585938L35.37854,68.4154663
					c-0.2352066-0.1266861-0.3231812-0.4200592-0.1964951-0.6552734c0.1266861-0.2352066,0.4200668-0.3231812,0.6552734-0.1964874
					c0.0007172,0.0003815,0.001442,0.0007782,0.0021591,0.0011673l5.7167969,3.0917969
					c0.2349472,0.1272202,0.3222809,0.4208069,0.1950607,0.6557541
					C41.6667709,71.4686127,41.503418,71.5658951,41.3258057,71.5658569z"/>
				<path class="st18" d="M50.1363602,54.582943c-0.2671051-0.0001297-0.4835358-0.216774-0.4833984-0.4838791
					c0.0000763-0.1580582,0.0773773-0.3060989,0.2070312-0.396492l9.4833984-6.6186523l-18.1445312-9.9667931
					c-0.2340775-0.1283646-0.3197708-0.4221764-0.1914062-0.6562538c0.1283646-0.2340736,0.4221725-0.3197708,0.65625-0.1914062
					l18.828125,10.3418121c0.2341461,0.1277237,0.3204193,0.4210739,0.1926956,0.65522
					c-0.0360184,0.0660248-0.0869598,0.1227264-0.1487579,0.1655807l-10.1230011,7.0634766
					C50.331871,54.5525398,50.2353134,54.5830727,50.1363602,54.582943z"/>
				<path class="st18" d="M20.8785362,68.7304077c-0.0888977-0.0000763-0.1760674-0.0245667-0.2519989-0.0708008
					l-3.5048294-2.1333313c-0.2280693-0.1392365-0.3000793-0.4369965-0.1608391-0.6650696
					c0.034523-0.0565414,0.0802917-0.1054001,0.1344681-0.1435318l7.3945312-5.2050743
					c0.2176704-0.1547928,0.5196075-0.1038208,0.6744003,0.1138535c0.154789,0.2176666,0.103817,0.5196075-0.1138535,0.6744003
					c-0.001297,0.0009232-0.0025978,0.0018387-0.0039062,0.0027466l-6.7910004,4.7802849l2.875,1.7495117
					c0.228096,0.1393738,0.3000183,0.4372635,0.1606445,0.6653595c-0.0878487,0.1437759-0.2441521,0.2315216-0.4126434,0.2316437
					L20.8785362,68.7304077z"/>
			</g>
		</g>
		<path class="st20" d="M45.1226883,71.6962814H29.9381561C15.3130302,71.6797256,3.4612272,59.8277016,3.4449461,45.2025719
			V30.0175171C3.4610021,15.392148,15.3127861,3.5397289,29.9381561,3.522887h15.1845322
			C59.748558,3.5392559,71.6011658,15.3916445,71.6177979,30.0175171v15.1850548
			C71.6009445,59.8282051,59.7483215,71.6801987,45.1226883,71.6962814z M29.9381561,6.7484746
			C17.0934258,6.76331,6.6846309,17.1727409,6.6705852,30.0174751v15.1850967
			c0.0142937,12.8444824,10.4230919,23.2535057,23.2675705,23.2680702h15.1845322
			c12.8450165-0.0140381,23.2546844-10.4230537,23.2695312-23.2680702V30.0175171
			c-0.0146179-12.8452606-10.4242706-23.254673-23.2695312-23.269001L29.9381561,6.7484746z"/>
		<path class="st21" d="M29.9664383,0.1356761h15.1865158c16.5032806,0,29.8818436,13.3785572,29.8818436,29.8818417v-0.0000038
			v15.184082c0,16.5038223-13.3789902,29.8828163-29.8828049,29.8828163c-0.0000076,0-0.0000076,0-0.0000076,0H29.9669189
			C13.463913,75.084404,0.0855862,61.7060738,0.0855786,45.2030678V30.0165367
			C0.0855786,13.5137949,13.4636955,0.1356761,29.9664383,0.1356761L29.9664383,0.1356761z"/>
		<path class="st21" d="M29.9667206,5.1355462h15.1863098c13.7415543,0,24.8812943,11.1397343,24.8812943,24.8812885
			c0,0.0000038,0,0,0,0v15.1863098c-0.0000076,13.7415543-11.13974,24.8812828-24.8812943,24.8812828H29.9674149
			c-13.7419472,0-24.8819962-11.1400566-24.882-24.882V30.0168343c0-13.7415581,11.1397324-24.8812885,24.8812904-24.8812885
			C29.966713,5.1355462,29.966713,5.1355462,29.9667206,5.1355462z"/>
	</g>
</g>
</svg>
