<svg version="1.1" id="レイヤー_1" xmlns="http://www.w3.org/2000/svg" xmlns:xlink="http://www.w3.org/1999/xlink" x="0" y="0" viewBox="0 0 75.035 75.081" xml:space="preserve"><style>.st0{fill:#fff}.st3{fill:#eae6e1}.st11{fill:#c0b3a3}.st18{fill:#b68064}.st20{fill:#76644d}.st21{fill:none}</style><g id="レイヤー_2-2"><path class="st0" d="M70.005 45.202c-.04 13.726-11.157 24.842-24.882 24.882H29.938c-13.725-.04-24.841-11.157-24.881-24.882V30.017c.04-13.725 11.156-24.841 24.881-24.882h15.185c13.725.04 24.842 11.157 24.882 24.882v15.185"/><defs><path id="SVGID_1_" d="M29.938 5.136h15.186c13.742 0 24.882 11.14 24.882 24.88v15.186c0 13.742-11.14 24.882-24.882 24.882H29.939c-13.742 0-24.882-11.14-24.882-24.882V30.017c0-13.742 11.14-24.881 24.881-24.881z"/></defs><clipPath id="SVGID_2_"><use xlink:href="#SVGID_1_" overflow="visible"/></clipPath><g clip-path="url(#SVGID_2_)"><path class="st0" d="M20.444 20.894L-7.689 38.232l-30.1-17.385 27.772-16.143z"/><path class="st0" d="M20.444 20.895l.254.412-28.133 17.338a.485.485 0 01-.496.007l-30.1-17.386a.484.484 0 010-.837L-10.26 4.286a.488.488 0 01.47-.009l30.461 16.19a.484.484 0 01.027.84l-.254-.412-.227.427-30.223-16.064-26.818 15.588 29.127 16.823 27.888-17.186.253.412-.227.427.227-.427"/><path class="st0" d="M47.031 4.511L20.444 20.894l-30.46-16.19 26.305-15.29z"/><path class="st0" d="M47.031 4.511l.254.412-26.587 16.384a.486.486 0 01-.48.015l-30.462-16.19a.484.484 0 01-.016-.846l26.306-15.29a.484.484 0 01.457-.016L47.245 4.077a.484.484 0 01.04.846l-.254-.412-.213.434-30.51-14.982-25.33 14.722 29.449 15.653 26.35-16.239.254.412-.213.434.213-.434"/><path class="st0" d="M72.194-11L47.032 4.51 16.288-10.586l24.954-14.508z"/><path class="st0" d="M72.194-11l.254.413-25.162 15.51a.485.485 0 01-.467.022L16.076-10.15a.484.484 0 01-.03-.853l24.953-14.508a.482.482 0 01.443-.022L72.394-11.44a.484.484 0 01.054.853L72.194-11l-.2.44L41.269-24.55 17.313-10.622l29.692 14.58 24.935-15.37.254.413-.2.44.2-.44M25.244 57.256l-30.232 19.87-32.519-20.514 29.818-18.38z"/><path class="st0" d="M25.244 57.256l.265.404-30.231 19.87a.482.482 0 01-.524.005l-32.519-20.513a.484.484 0 01.004-.821l29.819-18.38a.483.483 0 01.495-.008l32.933 19.024a.484.484 0 01.023.823l-.265-.404-.242.419-32.683-18.88-28.912 17.823 31.6 19.932 29.971-19.698.266.404-.242.419.242-.42"/><path class="st0" d="M53.69 38.563L25.243 57.256-7.689 38.232l28.133-17.338z"/><path class="st0" d="M53.689 38.563l.266.404L25.509 57.66a.482.482 0 01-.507.015L-7.931 38.65a.484.484 0 01-.012-.83l28.134-17.338a.486.486 0 01.48-.016l33.245 17.669a.484.484 0 01.039.831l-.266-.404-.227.427-33-17.538L-6.744 38.22l31.973 18.469 28.195-18.53.266.405-.227.427.227-.427"/></g><defs><path id="SVGID_3_" d="M6.997 20.412a24.657 24.657 0 00-1.94 9.606v15.185A24.674 24.674 0 008.469 57.74h45.316V20.412H6.997z"/></defs><clipPath id="SVGID_4_"><use xlink:href="#SVGID_3_" overflow="visible"/></clipPath><g clip-path="url(#SVGID_4_)"><path class="st3" d="M20.283 21.562L5.056 30.946v14.09l19.965 11.532 27.332-17.96z"/><path d="M5.056 45.036v.224l19.26 11.125h.039a.49.49 0 01.226.064l.331.192.11-.072L5.055 45.036m15.018-23.584L5.056 30.707v.239l15.226-9.383-.208-.111" fill="#e7e2dd"/><path class="st0" d="M19.264 20.815L5.06 29.568l-.004.241 6.008-3.702 8.407-5.181-.208-.111"/><path class="st0" d="M11.065 26.106L5.058 29.81l6.007-3.703zM5.075 46.164l.01.23 18.261 10.548.18-.119L5.864 46.619l-.788-.455"/><path class="st0" d="M5.057 45.26c0 .302.006.604.018.904l.788.455 17.664 10.204.546-.36a.485.485 0 01.242-.078L5.057 45.26m14.415-24.334l-8.407 5.18-6.007 3.703-.002.21v.689l15.018-9.256.208.11.18-.11 32.279 17.155-27.514 18.081-.206-.12-.109.072.242.14a.477.477 0 01.332.057l.473.273 27.608-18.142-.266-.405.266.405a.484.484 0 00.202-.283l-.08-.122.08.122a.473.473 0 00-.027-.32l-.28-.15a.484.484 0 01-.215-.228l-32.01-17.013-.54.333a.484.484 0 01-.48.014l-.745-.395"/><path class="st0" d="M20.462 21.452l-.18.11 32.07 17.045-27.33 17.962.205.12 27.514-18.082z"/></g><defs><path id="SVGID_5_" d="M46.548 21.43h21.92a24.995 24.995 0 00-21.92-16.254V21.43z"/></defs><clipPath id="SVGID_6_"><use xlink:href="#SVGID_5_" overflow="visible"/></clipPath><g clip-path="url(#SVGID_6_)"><path d="M56.056 7.682a25.06 25.06 0 014.748 3.053h.001a25.034 25.034 0 00-4.75-3.053" fill="#d3cbc4"/><path d="M50.686 5.767l10.118 4.969a25.05 25.05 0 00-4.748-3.054 24.662 24.662 0 00-5.37-1.915" fill="#e1d8d1"/><path d="M60.804 10.735a25.182 25.182 0 01.001 0" fill="#f0f0f1"/><path class="st0" d="M47.422 5.242l15.824 7.77a25.1 25.1 0 00-2.442-2.277L50.686 5.767a24.683 24.683 0 00-3.264-.525"/></g><defs><path id="SVGID_7_" d="M29.938 5.136h15.186c13.742 0 24.882 11.14 24.882 24.88v15.186c0 13.742-11.14 24.882-24.882 24.882H29.939c-13.742 0-24.882-11.14-24.882-24.882V30.017c0-13.742 11.14-24.881 24.881-24.881z"/></defs><clipPath id="SVGID_8_"><use xlink:href="#SVGID_7_" overflow="visible"/></clipPath><g clip-path="url(#SVGID_8_)"><path class="st0" d="M61.431 78.158L30.852 99.735l-35.839-22.61 30.231-19.87z"/><path class="st0" d="M61.431 78.159l.28.395-30.58 21.576a.483.483 0 01-.537.014l-35.84-22.61a.483.483 0 01-.007-.813l30.231-19.87c.153-.1.35-.106.507-.014L61.673 77.74a.483.483 0 01.037.814l-.279-.395-.242.419-35.93-20.754-29.353 19.293 34.931 22.037 30.316-21.39.278.395-.242.419.242-.42"/></g><g><defs><path id="SVGID_9_" d="M29.938 5.136A24.976 24.976 0 006.613 21.378h40.902V5.25a24.99 24.99 0 00-2.391-.114H29.938z"/></defs><clipPath id="SVGID_10_"><use xlink:href="#SVGID_9_" overflow="visible"/></clipPath><g clip-path="url(#SVGID_10_)"><path class="st11" d="M45.095 5.136H29.938a24.662 24.662 0 00-11.36 2.762 25.161 25.161 0 00-8.372 7.007l10.22 5.433 24.67-15.202"/><path class="st0" d="M45.123 5.136h-.028L20.426 20.338l-10.22-5.433c-.199.259-.393.52-.58.787l9.637 5.123.54-.332a.488.488 0 01.243-.072h.021c.12.053.257.053.378 0 .079 0 .157.02.227.056l.745.397L46.843 5.195c-.568-.039-1.141-.059-1.72-.06"/><path class="st0" d="M20.445 20.41a.477.477 0 00-.194.042l.033.015.953.507.18-.11-.745-.397a.49.49 0 00-.227-.056M20.067 20.411h-.021a.488.488 0 00-.243.072l-.54.332.209.111.72-.443a.484.484 0 01.059-.032.495.495 0 00-.184-.04"/><path class="st0" d="M20.25 20.451c-.02.01-.04.02-.059.032l-.72.443.746.395c.152.081.335.076.481-.014l.539-.333-.953-.507-.033-.016"/></g></g><g><defs><path id="SVGID_11_" d="M7.727 56.385a24.955 24.955 0 0022.211 13.7h15.186a24.75 24.75 0 0015.887-5.77v-7.93H7.727z"/></defs><clipPath id="SVGID_12_"><use xlink:href="#SVGID_11_" overflow="visible"/></clipPath><g clip-path="url(#SVGID_12_)"><path class="st3" d="M25.15 57.896l-10.5 6.902a24.732 24.732 0 0015.288 5.286h15.186c.363 0 .726-.008 1.086-.024L25.15 57.896"/><path class="st3" d="M24.355 57.436l-10.375 6.82c.22.183.444.365.67.542l10.5-6.902-.795-.46"/><path class="st0" d="M23.346 56.942l-10.122 6.652c.21.192.423.379.64.563l10.277-6.755-.795-.46"/><path d="M24.355 56.384h-.04l.525.304.072-.048-.33-.191a.49.49 0 00-.227-.065" fill="#ece8e3"/><path class="st0" d="M23.527 56.823l-.182.12.796.458.181-.119z"/><path class="st0" d="M24.315 56.385a.488.488 0 00-.242.079l-.546.359.795.46.656-.432a.49.49 0 01.176-.071l-.242-.14-.072.048-.525-.303M25.26 57.824l-.11.072 21.06 12.165.216-.011L25.26 57.824"/><path class="st0" d="M25.154 56.78a.491.491 0 00-.176.071l-.656.431-.18.12-10.278 6.755c.038.033.077.066.117.098l10.375-6.819.795.46.11-.072L46.425 70.05c.5-.026.997-.067 1.488-.122L25.154 56.78"/></g></g><g><defs><path id="SVGID_13_" d="M53.205 19.686v37.948h13.45a24.674 24.674 0 003.35-12.43V30.017a24.661 24.661 0 00-2.259-10.332h-14.54z"/></defs><clipPath id="SVGID_14_"><use xlink:href="#SVGID_13_" overflow="visible"/></clipPath><g clip-path="url(#SVGID_14_)"><path d="M69.899 27.715c.07.76.105 1.527.106 2.303v15.185a27.09 27.09 0 000 0V30.018c0-.776-.035-1.543-.106-2.303" fill="#aea294"/><path class="st11" d="M69.899 27.715L54.637 37.744l15.358 8.163c.007-.234.01-.469.01-.704V30.018c0-.777-.035-1.544-.106-2.303"/><path d="M69.995 45.907a24.394 24.394 0 000 0m-.22-19.268c.05.357.09.716.123 1.077h.001c-.034-.362-.075-.72-.124-1.077" fill="#f6f6f6"/><path class="st0" d="M69.775 26.639L53.423 37.384a.484.484 0 00-.217.374l.71.378a.484.484 0 01.256.457l15.77 8.382c.026-.354.043-.71.053-1.068l-15.358-8.163 15.262-10.029c-.034-.36-.075-.72-.124-1.076"/><path class="st0" d="M53.206 37.758v.052c.002.061.017.121.042.177l.28.15c.095.05.17.13.214.227l.43.229a.483.483 0 00-.256-.457l-.71-.378"/><path class="st0" d="M53.248 37.987c.044.098.119.178.213.228l.281.15a.48.48 0 00-.214-.229l-.28-.15"/></g></g><g><defs><path id="SVGID_15_" d="M29.938 5.136h15.186c13.742 0 24.882 11.14 24.882 24.88v15.186c0 13.742-11.14 24.882-24.882 24.882H29.939c-13.742 0-24.882-11.14-24.882-24.882V30.017c0-13.742 11.14-24.881 24.881-24.881z"/></defs><clipPath id="SVGID_16_"><use xlink:href="#SVGID_15_" overflow="visible"/></clipPath><g clip-path="url(#SVGID_16_)"><path class="st18" d="M24.62 43.563c2.44-.473 3.888-3.66 3.233-7.117-.653-3.457-3.16-5.875-5.602-5.402-2.44.471-3.89 3.657-3.234 7.112.654 3.46 3.162 5.88 5.602 5.407"/><path class="st18" d="M24 44.106a4.288 4.288 0 01-2.414-.794 7.917 7.917 0 01-3.044-5.066c-.704-3.712.919-7.156 3.618-7.677a4.119 4.119 0 013.129.726 7.91 7.91 0 013.04 5.061c.703 3.713-.92 7.159-3.617 7.682a3.755 3.755 0 01-.711.068zm.62-.543zm-1.753-12.094c-.176 0-.351.016-.524.05-2.176.42-3.456 3.357-2.85 6.547a6.942 6.942 0 002.636 4.446c.688.51 1.554.718 2.399.576 2.176-.422 3.455-3.361 2.85-6.551a6.93 6.93 0 00-2.633-4.442 3.346 3.346 0 00-1.878-.626z"/><path class="st0" d="M50.61 34.468l-17.417-8.834-1.129-16.75L50.61 18.27z"/><path d="M50.609 34.953a.487.487 0 01-.219-.053l-17.416-8.834a.482.482 0 01-.263-.399l-1.13-16.75a.484.484 0 01.702-.465l18.545 9.385c.162.083.264.25.264.432v16.2a.484.484 0 01-.483.484zm-16.952-9.625l16.469 8.353V18.566L32.604 9.7l1.053 15.629z" fill="#93674f"/><path class="st0" d="M31.503 47.036l-18.28-10.65V19.681l18.28 10.323z"/><path class="st18" d="M31.503 47.52a.481.481 0 01-.244-.066L12.98 36.804a.482.482 0 01-.24-.419V19.682a.483.483 0 01.722-.421L31.74 29.584a.485.485 0 01.245.421v17.031a.483.483 0 01-.483.484zM13.707 36.107l17.312 10.087V30.288L13.707 20.51v15.596z"/><path class="st0" d="M50.61 34.468L31.501 46.821v-17.03L50.61 18.268z"/><path class="st18" d="M31.503 47.306a.484.484 0 01-.484-.484V29.79c0-.17.089-.326.234-.414l19.106-11.521a.483.483 0 01.733.414v16.2a.484.484 0 01-.22.406L31.765 47.228a.482.482 0 01-.262.078zm.483-17.243v15.87l18.14-11.727v-15.08l-18.14 10.937zm18.623 4.406z"/><path class="st0" d="M31.503 29.79l-18.28-10.109L32.065 8.884 50.61 18.27z"/><path class="st18" d="M31.503 30.274a.485.485 0 01-.235-.06l-18.28-10.11a.484.484 0 01-.005-.842L31.825 8.464a.486.486 0 01.459-.012l18.544 9.385a.484.484 0 01.031.846L31.753 30.204a.484.484 0 01-.25.07zm-17.293-10.6l17.282 9.557L49.61 18.306 32.08 9.433 14.21 19.674z"/><path class="st20" d="M29.519 22.65l-.541.321c-.233.137-.217.364.034.505l1.66.939a.987.987 0 00.886.01l.545-.32-.01-.12c-.197-.108-.42-.23-.645-.355a351.19 351.19 0 01-1.533-.851 1.491 1.491 0 01-.178-.117l-.218-.012M24.265 19.72l-.2-.117a9.177 9.177 0 01-.544-.337l-.208-.006-.446.266c-.228.136-.215.358.029.495l1.604.907c.268.139.587.14.857.005l.608-.361c.089-.056-.002-.098-.069-.116a6.439 6.439 0 01-1.63-.737M33.727 15.798c.051.06.138.075.206.034l.616-.367c.23-.138.213-.36-.04-.495l-1.661-.888a.993.993 0 00-.876.008l-.452.268c-.057.035-.047.09.02.12.268.123.483.23.614.3l.211.11c.503.222.964.53 1.362.91M36.325 17.877l-1.459-.786a6.407 6.407 0 01-1.434-.961 1.99 1.99 0 01-.195-.216 5.789 5.789 0 00-1.445-.921 12.73 12.73 0 00-.74-.355 8.905 8.905 0 00-2.295-.72c-1.15-.126-2.325.177-4.23 1.32-1.899 1.14-2.37 1.82-2.103 2.471.349.521.81.957 1.352 1.274.252.174.489.32.646.405a7.246 7.246 0 001.657.787c.123.028.249.06.38.102a8.905 8.905 0 011.73.777l1.423.797c.166.094.24.307.41.501a.97.97 0 00.26.21c.279.157 1.51.835 2.288 1.265.289.16.515.285.606.337.32.16.695.172 1.024.031.165-.052.34-.066.51-.042.598.071 1.444.055 3.719-1.28 2.282-1.34 2.281-1.826 2.136-2.163a.254.254 0 01.06-.294c.234-.239.194-.432-.09-.585l-.613-.335c-.79-.43-2.033-1.11-2.316-1.264a1.814 1.814 0 00-.382-.14 6.261 6.261 0 01-.9-.215m-12.638-.05a.467.467 0 01-.338-.689.82.82 0 01.825-.512.467.467 0 01.342.688.825.825 0 01-.829.513M37.1 19.82c-.15.251-.368.456-.627.592l-1.216.717-1.212.716a3.212 3.212 0 01-1.014.376.377.377 0 01-.366-.102 1.088 1.088 0 01-.218-.532c0-.22.126-.42.322-.517l2.293-1.356c.276-.147.585-.217.897-.203.319.003.636.038.947.105.153.03.238.12.194.204m-3.67-2.554c.093.051.038.138-.091.14a3.66 3.66 0 00-.895.117c-.695.26-1.365.581-2.003.961a8.922 8.922 0 00-1.6 1.179.797.797 0 00-.164.513c.002.072-.148.109-.242.056l-.855-.477a.635.635 0 01-.186-1.076 4.49 4.49 0 011.4-1.098 7.299 7.299 0 011.868-.849 2.637 2.637 0 011.896.062l.871.472zm-4.414-2.629c.102.186-.288.409-.864.501-.577.091-1.122.017-1.22-.165-.099-.184.286-.408.861-.499.575-.093 1.124-.018 1.223.163M38.283 17.466l-.549.325c-.06.035-.05.096.026.124.073.028.145.061.215.098a497.627 497.627 0 012.209 1.204h.211l.552-.324c.24-.142.218-.37-.046-.511l-1.72-.917a1.01 1.01 0 00-.898.001"/><path class="st18" d="M40.497 74.921a.48.48 0 01-.24-.063l-15.459-8.819a.483.483 0 01-.033-.82l26.458-18.06-6.928-3.777a.484.484 0 01.462-.85l7.623 4.156a.483.483 0 01.041.824L25.95 65.582l14.786 8.435a.484.484 0 01-.24.904zM60.38 43.603c-.08 0-.16-.02-.23-.059l-5.716-3.091a.484.484 0 01.459-.852l.002.001 5.716 3.092a.484.484 0 01-.23.909z"/><path class="st18" d="M41.326 71.566c-.08 0-.16-.02-.23-.059l-5.717-3.092a.484.484 0 01.458-.851h.002l5.717 3.093a.484.484 0 01-.23.909zM50.136 54.583a.484.484 0 01-.276-.88l9.483-6.62L41.2 37.118a.483.483 0 11.465-.848l18.828 10.342a.483.483 0 01.044.821l-10.123 7.064a.479.479 0 01-.277.087zM20.879 68.73a.485.485 0 01-.252-.07l-3.505-2.134a.484.484 0 01-.027-.808l7.395-5.205a.484.484 0 11.557.79l-6.791 4.78 2.875 1.75a.484.484 0 01-.252.897z"/></g></g><path class="st20" d="M45.123 71.696H29.938C15.313 71.68 3.461 59.828 3.445 45.203V30.018C3.46 15.392 15.313 3.54 29.938 3.523h15.185c14.626.016 26.478 11.869 26.495 26.495v15.185C71.6 59.828 59.748 71.68 45.123 71.696zM29.938 6.748c-12.845.015-23.253 10.425-23.267 23.27v15.185c.014 12.844 10.423 23.253 23.267 23.268h15.185c12.845-.014 23.254-10.423 23.27-23.268V30.018c-.015-12.846-10.425-23.255-23.27-23.27H29.938z"/><path class="st21" d="M29.966.136h15.187c16.503 0 29.882 13.378 29.882 29.882v15.184c0 16.503-13.38 29.882-29.883 29.882H29.967C13.464 75.084.086 61.706.086 45.204V30.016C.086 13.514 13.464.136 29.966.136z"/><path class="st21" d="M29.967 5.136h15.186c13.742 0 24.881 11.14 24.881 24.88v15.187c0 13.742-11.14 24.881-24.881 24.881H29.967c-13.742 0-24.882-11.14-24.882-24.882V30.017c0-13.742 11.14-24.881 24.882-24.881z"/></g></svg>