<?xml version="1.0" encoding="utf-8"?>
<!-- Generator: Adobe Illustrator 23.0.2, SVG Export Plug-In . SVG Version: 6.00 Build 0)  -->
<svg version="1.1" id="レイヤー_1" xmlns="http://www.w3.org/2000/svg" xmlns:xlink="http://www.w3.org/1999/xlink" x="0px"
	 y="0px" viewBox="0 0 74.9361877 74.9477463" style="enable-background:new 0 0 74.9361877 74.9477463;" xml:space="preserve">
<style type="text/css">
	.st0{fill:#FFFFFF;}
	.st1{clip-path:url(#SVGID_2_);}
	.st2{fill:#00AFCA;}
	.st3{fill:#8FD2EE;}
	.st4{fill:none;}
	.st5{fill:#D2EBF9;}
</style>
<title>アセット 5902</title>
<g>
	<g id="レイヤー_2-2">
		<path class="st0" d="M29.8694382,4.9999933h15.1869965c13.7411613-0.00001,24.8805847,11.13939,24.8806,24.8805504v15.1849022
			c0,13.7419472-11.1400528,24.8819962-24.882,24.8819962H29.8708572c-13.7419491,0-24.882-11.1400528-24.882-24.882V29.8805428
			C4.9888735,16.1393909,16.1282864,4.9999943,29.8694382,4.9999933z"/>
		<g>
			<defs>
				<path id="SVGID_1_" d="M29.8696575,5.0000834h15.1863194c13.7411613,0,24.8805771,11.1394157,24.8805771,24.880579v15.1855984
					c0,13.7415581-11.1397285,24.8812943-24.8812866,24.8812943h-0.0000038H29.8703671
					c-13.7419491,0-24.882-11.1400528-24.882-24.882V29.8813629c0-13.7415524,11.1397295-24.881279,24.8812828-24.881279
					C29.8696518,5.000083,29.8696537,5.000083,29.8696575,5.0000834z"/>
			</defs>
			<clipPath id="SVGID_2_">
				<use xlink:href="#SVGID_1_"  style="overflow:visible;"/>
			</clipPath>
			<g class="st1">
				<path class="st2" d="M15.5504866,41.7471619c1.0534601,0.2080765,2.0761385-0.4772415,2.284215-1.5307007
					c0.0713234-0.3610992,0.0386829-0.7350235-0.0941238-1.0783005c-0.5699959-1.6611099-2.0469408-2.8444633-3.7923708-3.0385094
					c-1.0536547-0.2081757-2.0765686,0.4772224-2.2847424,1.53088c-0.071332,0.3610382-0.0387526,0.7349091,0.0939522,1.0781708
					c0.5698767,1.6614761,2.0472717,2.8449745,3.7930698,3.0385094"/>
				<path class="st2" d="M15.7818861,42.239254c-0.0869198,0-0.1757793-0.0034218-0.2656307-0.0097694l0,0
					c-1.9514942-0.2018776-3.6040993-1.5274773-4.2246094-3.3886719c-0.2719717-0.7989731-0.1280575-1.6809273,0.38379-2.3520012
					c0.5742998-0.6592293,1.4409094-0.9865456,2.30762-0.8715782c1.9510155,0.2019806,3.6029921,1.5276871,4.222661,3.3886719
					c0.4646053,1.2406425-0.1644974,2.6230164-1.405138,3.0876198c-0.3250198,0.1217155-0.6725807,0.1714516-1.018693,0.1457787
					V42.239254z M13.7184067,36.5751915c-0.790308-0.0947685-1.5078039,0.4690742-1.6025734,1.2593842
					c-0.0302792,0.2525063,0.0067968,0.5085297,0.1074629,0.7420769c0.519105,1.4615936,1.8213549,2.5029831,3.3613205,2.6879997
					l0,0c0.551446,0.0862808,1.1096106-0.108017,1.4882803-0.5180702c0.3072529-0.4285469,0.3829155-0.9812279,0.2021503-1.4765892
					c-0.5193691-1.4614105-1.8214865-2.5026894-3.361331-2.6879997
					C13.8473167,36.5771408,13.7818861,36.5751915,13.7184067,36.5751915z"/>
				<polygon class="st0" points="21.5041065,44.3919907 34.6661072,41.1769905 34.6661072,29.4979916 21.5041065,32.6329918 				"/>
				<path class="st2" d="M21.5045471,44.8754807c-0.2670689-0.0000954-0.4834938-0.216671-0.4834003-0.4837379
					c0-0.0000534,0-0.000103,0-0.0001526V32.6328011c-0.0001373-0.2238693,0.1533699-0.4185829,0.3710899-0.4706993
					l13.1611271-3.1352501c0.2595367-0.0621319,0.520298,0.0978947,0.5824318,0.3574295
					c0.0088806,0.0370998,0.01334,0.0751209,0.013279,0.1132698v11.6791992
					c0.000145,0.2226944-0.1518898,0.4166641-0.3681717,0.4697189l-13.1611252,3.2148514
					C21.5820656,44.870594,21.5433826,44.8753471,21.5045471,44.8754807z M21.9879379,33.0146408V43.775383l12.1943359-2.978508
					V30.1098747L21.9879379,33.0146408z"/>
				<polygon class="st0" points="7.748106,36.0549927 21.5041065,44.3919907 21.5041065,32.5249939 7.748106,24.6309929 				"/>
				<path class="st2" d="M21.5035667,44.8759918c-0.0885315,0.0000114-0.1753616-0.0243149-0.2509995-0.0703201
					L7.4977064,36.4687424c-0.144474-0.087719-0.2326117-0.2445526-0.23242-0.4135704V24.6308517
					c0.0000525-0.267168,0.2166767-0.4837074,0.4838438-0.4836559c0.084487,0.0000172,0.1674967,0.0221596,0.2407665,0.0642262
					l13.7548809,7.894001c0.1498795,0.0864868,0.2422085,0.2463875,0.2421894,0.4194298v11.8672295
					c-0.000061,0.2670288-0.2163715,0.4835587-0.4834003,0.4838905V44.8759918z M8.2321062,35.7827034l12.7880602,7.7504883
					V32.805191L8.2321062,25.4663029V35.7827034z"/>
				<polygon class="st2" points="21.5041065,32.5249939 34.6661072,29.4979916 21.1001072,21.9929924 7.748106,24.6299915 				"/>
				<path class="st2" d="M21.5045471,33.0087814c-0.0846519-0.0000725-0.1678123-0.0222893-0.2412205-0.0644493
					L7.5074663,25.0497932c-0.2316303-0.1331177-0.3114901-0.4288044-0.1783724-0.6604328
					c0.0697212-0.1213188,0.1885595-0.2065029,0.3258429-0.2335663l13.3515596-2.6368027
					c0.1119976-0.0221386,0.2282143-0.0039787,0.3281193,0.0512695l13.5654278,7.5039101
					c0.2338524,0.1292305,0.3186646,0.4235668,0.1894379,0.6574192c-0.0665665,0.1204567-0.1812859,0.2068596-0.3154373,0.2375813
					l-13.1611061,3.0273991C21.5773449,33.0044861,21.541008,33.0085793,21.5045471,33.0087814z M9.1109858,24.8544807
					l12.4697313,7.15625l11.7451077-2.7016602l-12.304718-6.8066387L9.1109858,24.8544807z"/>
				<polygon class="st0" points="34.6661072,26.5599918 21.5041065,29.5739918 39.3811035,34.0789909 				"/>
				<path class="st2" d="M39.3814964,34.5624924c-0.0398407-0.0000534-0.079525-0.0049744-0.1181717-0.0146484
					l-17.8769474-4.5048523c-0.2591743-0.0656319-0.4160709-0.3289394-0.3504391-0.5881138
					c0.0445156-0.1757851,0.1835384-0.3119507,0.3602085-0.3528061l13.1611271-3.0141602
					c0.201004-0.0465813,0.4093857,0.039753,0.5185509,0.2148399l4.7158203,7.5189991
					c0.1419525,0.2262955,0.0735779,0.5248222-0.1527176,0.6667747c-0.0771408,0.0483894-0.1663704,0.0740204-0.257431,0.0739441
					V34.5624924z M23.5738773,29.5961819l14.7578068,3.7187519l-3.8935509-6.2070007L23.5738773,29.5961819z"/>
				<polygon class="st0" points="9.7371063,22.8479919 7.748106,21.6919918 -0.6798936,23.3259926 21.5041065,29.6939926 				"/>
				<path class="st2" d="M21.5035667,30.1777229c-0.0452576-0.000145-0.0902805-0.0065384-0.1337891-0.0189991
					l-22.1835918-6.3677311c-0.2567787-0.0738392-0.4050805-0.3418579-0.3312415-0.5986366
					c0.0503013-0.1749249,0.1945274-0.3068123,0.3732415-0.3413124l8.4286995-1.6342506
					c0.1148996-0.0222816,0.2339802-0.0019741,0.335,0.0571308l1.9882202,1.1562481l0,0l11.7665997,6.8456993
					c0.2310047,0.1340351,0.3096123,0.4299583,0.1755772,0.6609631c-0.0866032,0.1492558-0.2461777,0.2410526-0.4187374,0.2408867
					L21.5035667,30.1777229z M1.3912565,23.4174728l16.5058517,4.7377892L7.6627464,22.2011623L1.3912565,23.4174728z"/>
				<polygon class="st0" points="28.4991074,17.6209927 21.0991077,19.0549927 34.6661072,26.5599918 				"/>
				<path class="st2" d="M34.6656761,27.043993c-0.081974-0.0001526-0.1625862-0.020977-0.2343788-0.0605507l-13.5663967-7.5048809
					c-0.2337532-0.1297626-0.3180523-0.4244518-0.1882896-0.658205c0.069397-0.1250095,0.1905079-0.2129478,0.3308601-0.2402344
					l7.399416-1.4341297c0.1886482-0.0363712,0.3809662,0.0421619,0.4902306,0.2001896l6.1669998,8.9390011
					c0.1516037,0.2203522,0.0958672,0.5218792-0.1244812,0.673481c-0.0806084,0.0554581-0.1761208,0.0851994-0.2739601,0.0853081
					V27.043993z M22.4986782,19.2769032l10.5996075,5.8632793l-4.8183575-6.9838905L22.4986782,19.2769032z"/>
				<polygon class="st2" points="21.5041065,32.5389938 -0.6808936,26.2639923 -0.6808936,23.3259926 21.5041065,29.6009922 				"/>
				<path class="st2" d="M21.5045471,33.0229912c-0.0445862-0.0001717-0.0889397-0.0064125-0.1318398-0.0185585l-22.1846008-6.27495
					c-0.2081222-0.0589504-0.3517219-0.2490196-0.3515599-0.4653301v-2.9379997
					c-0.0003593-0.2668095,0.2156405-0.4833908,0.482449-0.4837494c0.0449013-0.000061,0.0895917,0.0061378,0.132781,0.0184193
					l22.1845703,6.2749004c0.2081184,0.0589561,0.3517151,0.2490234,0.3515606,0.4653301v2.9380016
					c0.0002823,0.266964-0.2159061,0.4836082-0.4828701,0.4838905c-0.0001736,0-0.0003471,0-0.0005207,0L21.5045471,33.0229912z
					 M-0.1966336,25.8984318l21.2177811,6.0009995v-1.9326382l-21.2177811-6.0009804V25.8984318z"/>
				<polygon class="st2" points="39.3811035,37.0449905 21.5041065,32.5239906 21.5041065,29.5859928 39.3811035,34.1069908 				"/>
				<path class="st2" d="M39.3805161,37.528801c-0.0398407,0.0000076-0.0795288-0.0049133-0.1181602-0.0146484
					l-17.8759975-4.5209999c-0.2147675-0.0544167-0.3651943-0.2476768-0.3652306-0.4692307v-2.9375
					c-0.0001373-0.2670841,0.2162685-0.4837112,0.4833527-0.4838467c0.039854-0.000021,0.0795574,0.0048847,0.1182079,0.0146065
					l17.8759995,4.5205097c0.2147675,0.0544167,0.3651924,0.2476768,0.3652306,0.4692307v2.9379997
					c0.0001144,0.2671013-0.2162971,0.4837341-0.4833984,0.4838905L39.3805161,37.528801z M21.9879379,32.1474533
					l16.9091682,4.2758789v-1.9399414l-16.9091682-4.2758789V32.1474533z"/>
				<polygon class="st3" points="34.6661072,26.5599918 21.5041065,29.5739918 7.748106,21.6909924 21.0991077,19.0549927 				"/>
				<path class="st2" d="M21.5045471,30.0576115c-0.0842896-0.0000267-0.1671085-0.022089-0.2402401-0.0639992L7.5074663,22.1113224
					c-0.2319269-0.1325989-0.3124495-0.4281063-0.1798506-0.6600323c0.0696297-0.1217899,0.1887035-0.2073517,0.3263407-0.2344971
					l13.3515615-2.6362305c0.112009-0.0217342,0.2280903-0.0035973,0.3281307,0.0512695l13.5663986,7.5043907
					c0.2338524,0.1292305,0.3186646,0.4235668,0.1894379,0.6574192c-0.0665665,0.1204567-0.1812859,0.2068596-0.3154373,0.2375813
					l-13.1611099,3.0141792C21.5773449,30.0533161,21.541008,30.0574093,21.5045471,30.0576115z M9.1109867,21.9149933
					l12.4697304,7.1450005l11.7441387-2.6894493l-12.3046894-6.8065529L9.1109867,21.9149933z"/>
				<polygon class="st0" points="20.0441074,24.6699924 13.4641066,20.5559921 13.4641066,8.2779932 				"/>
				<path class="st2" d="M20.0445766,25.1533127c-0.0908298-0.0000114-0.1798267-0.0255604-0.2568302-0.0737305l-6.580081-4.1137695
					c-0.1410084-0.0886822-0.226572-0.2435837-0.2265596-0.4101601V8.2783136
					c-0.0001431-0.2671185,0.2162828-0.4837761,0.4834003-0.4839196c0.1977501-0.0001059,0.3756466,0.1201816,0.4492092,0.30374
					l6.58008,16.3911209c0.0994453,0.2481194-0.02108,0.5298748-0.2691994,0.6293201
					C20.1673508,25.1415176,20.1062469,25.1533089,20.0445766,25.1533127z M13.947896,20.2875919l5.0947313,3.1850605
					L13.947896,10.7817335V20.2875919z"/>
				<polygon class="st0" points="22.8621063,23.8519917 20.0441074,24.6699924 13.458106,8.2779932 16.3171082,8.0969934 				"/>
				<path class="st2" d="M20.0436077,25.1538029c-0.1977177,0.000021-0.3755703-0.1202221-0.4492207-0.3037109L13.0094261,8.4579935
					c-0.0994339-0.2481232,0.0211029-0.5298743,0.269227-0.6293082c0.0477896-0.0191517,0.0983295-0.0305552,0.1497126-0.0337815
					l2.8584003-0.1806598c0.2051029-0.0091267,0.3946095,0.1091194,0.4765606,0.2973599l6.5459003,15.7544003
					c0.1029358,0.2456799-0.0127792,0.5282879-0.2584591,0.6312256c-0.0173073,0.0072517-0.0350246,0.0134869-0.0530605,0.0186749
					l-2.8193398,0.8183594C20.1346149,25.1471977,20.0892315,25.1537781,20.0436077,25.1538029z M14.1568861,8.7182531
					l6.1728506,15.3652391l1.8789101-0.5459003L16.0025864,8.601593L14.1568861,8.7182531z"/>
				<line class="st4" x1="28.4986477" y1="17.6208515" x2="39.381134" y2="34.1067924"/>
				<path class="st2" d="M39.3814964,34.5908127c-0.1624069-0.0000572-0.3139305-0.0816879-0.4033203-0.2172813
					L28.0953674,17.8876915c-0.1472416-0.2227478-0.0860329-0.5226841,0.1367149-0.6699257s0.5226841-0.0860329,0.6699257,0.1367149
					l10.8828087,16.4858398c0.1474075,0.2227097,0.0863686,0.522747-0.1363411,0.6701584
					C39.5692978,34.5628853,39.4764481,34.5908241,39.3814964,34.5908127z"/>
				<path class="st0" d="M47.7450256,37.9109917c-1.1177521-3.0013504,0.2973824-6.3537979,3.2276917-7.6463795
					c-2.2392998-0.0937748-4.172493-1.5979061-4.813858-3.7454395c-0.4113388-1.1872826-0.4795723-2.4664879-0.1968689-3.6907902
					c-0.3010445,0.1996937-0.6203079,0.3704548-0.9535217,0.5100002c-3.1464195,1.3150005-6.8050003-0.44277-8.2433205-4.0312691
					c-0.0682564,2.6660461-1.6774559,5.0501804-4.1244621,6.1106606c-1.6694126,0.5237865-3.474741,0.400753-5.0576572-0.3446808
					c0.1117134,0.2061405,0.2125206,0.4180088,0.302,0.6347294c1.3052197,3.1905708,0.0609398,7.0768185-2.9691696,8.3638401
					c-0.795105,0.3361511-1.6538048,0.4953613-2.5165691,0.4665909c0.9924526,0.4860916,1.7807388,1.3078842,2.2251205,2.3196983
					c0.5039864,1.1484108,0.5077953,2.45467,0.0105095,3.605999c2.4447269,0.2188416,4.5746307,1.7556686,5.5529995,4.006752"/>
				<path class="st2" d="M30.1881065,44.9545822c-0.1934185,0.0001106-0.3682537-0.1151733-0.4443398-0.2929993
					c-0.9138298-2.0856705-2.8895607-3.509388-5.1572208-3.7163086c-0.2658062-0.0262794-0.45998-0.2630615-0.4337025-0.5288658
					c0.0049076-0.0496254,0.0174599-0.0981941,0.0372124-0.1439857c0.4473953-1.0277672,0.4442081-2.1958809-0.0087891-3.2211914
					c-0.4007893-0.9062309-1.1077995-1.6424561-1.9970703-2.0795898c-0.2394581-0.1183701-0.3376179-0.4084511-0.2192459-0.6479073
					c0.0839596-0.1698494,0.2593632-0.275032,0.4487362-0.2690926c0.7927017,0.0257874,1.5815964-0.1203003,2.3125-0.4282303
					c2.7129002-1.1523399,3.95508-4.6948204,2.7109394-7.7353497c-0.0826492-0.2007618-0.1762123-0.3968544-0.2802696-0.5874004
					c-0.1270046-0.2352448-0.039259-0.5289059,0.1959858-0.6559105c0.1252842-0.0676384,0.2739925-0.0766907,0.4065552-0.0247498
					c1.4637222,0.7135258,3.1455383,0.8377972,4.6982365,0.3471603c2.2778549-0.9841652,3.7722473-3.2066727,3.8242188-5.6875
					c0.0136833-0.2670059,0.2412262-0.4723625,0.5082321-0.4586792c0.1884041,0.0096569,0.3540344,0.1278801,0.4243889,0.3029194
					c0.6375504,1.6652088,1.9111214,3.0085354,3.5400009,3.7338905c1.6138725,0.7041779,3.4750214,0.5397339,4.9404182-0.4365196
					c0.2232513-0.1470757,0.5234642-0.0853195,0.6705399,0.1379337c0.0725708,0.1101589,0.0970383,0.2451649,0.067749,0.3737869
					c-0.2630386,1.1356735-0.1997375,2.3225689,0.1826096,3.4238205c0.5704117,1.9559174,2.3229637,3.3314953,4.3583984,3.4209003
					c0.267067,0.0008125,0.4829102,0.2179718,0.4820976,0.4850388c-0.0005798,0.1904144-0.1128502,0.3627644-0.2867889,0.4402504
					c-2.6908073,1.1983795-3.9896278,4.2794552-2.96875,7.04249c0.089798,0.251873-0.0415878,0.5288506-0.293457,0.6186523
					c-0.251873,0.089798-0.5288544-0.0415878-0.6186523-0.2934608c-1.0047684-2.7329712-0.0867729-5.8011742,2.2539101-7.5331993
					c-1.8297615-0.5901928-3.2608452-2.0292854-3.8408203-3.8623104c-0.3292198-0.9473228-0.4550056-1.9534149-0.3691406-2.952631
					c-0.0458984,0.0205002-0.0927696,0.0405197-0.1386719,0.0595703c-1.5431099,0.6392193-3.2790718,0.6275959-4.8134804-0.0322304
					c-1.3845901-0.6000233-2.5543518-1.6063251-3.3544884-2.8857403c-0.5122185,2.2468758-2.0774803,4.1083469-4.2031288,4.9985294
					c-1.4060574,0.5024567-2.9414597,0.5102177-4.3525276,0.0219994c1.1982403,3.4360008-0.2861404,7.3212814-3.3652401,8.6293907
					c-0.4187889,0.1780968-0.8555546,0.3105278-1.3027306,0.3950005c0.5409794,0.4879646,0.9723396,1.0850983,1.2656193,1.7519989
					c0.4744186,1.072567,0.5533104,2.2785759,0.2226601,3.4038086c2.3736763,0.4206276,4.3790665,2.0018463,5.3417912,4.2119217
					c0.1055222,0.2449951-0.0075455,0.5291443-0.2525406,0.6346664c-0.000452,0.0001945-0.000906,0.0003891-0.0013599,0.0005836
					C30.3184147,44.941143,30.2536087,44.9546013,30.1881065,44.9545822z"/>
				<path class="st2" d="M47.0774956,62.5702705c1.0532913,0.208271,2.0759926-0.4767532,2.2842636-1.5300446
					c0.0714455-0.3613129,0.0387802-0.7354889-0.0941849-1.0789566c-0.570034-1.6615028-2.0472717-2.8451653-3.7930794-3.0392761
					c-1.0541878-0.207531-2.0770111,0.4788208-2.2845421,1.5330086c-0.0709343,0.3603249-0.0384293,0.7333679,0.0937538,1.0759926
					c0.5701256,1.6617165,2.0477104,2.8454132,3.7937889,3.0392113"/>
				<path class="st2" d="M47.2975044,63.0619926c-0.0830002,0-0.1679993-0.0029297-0.2538986-0.0092812l0,0
					c-1.9517326-0.2016754-3.6045036-1.5275993-4.2246094-3.3891602c-0.2720413-0.7988243-0.1281166-1.6806831,0.3837891-2.3515587
					c0.5752792-0.6566811,1.4397545-0.9838333,2.3056602-0.8725586c1.9519501,0.2019119,3.6047516,1.528244,4.2246094,3.3901405
					c0.272438,0.797718,0.1292305,1.6787567-0.3818398,2.3491211
					C48.8360519,62.7693825,48.0806122,63.0942955,47.2975044,63.0619926z M47.1119652,62.0878716
					c0.551384,0.0836334,1.1084709-0.1106377,1.4882812-0.519001c0.3066864-0.4282112,0.382328-0.9801712,0.2021484-1.4751015
					c-0.5194016-1.4620285-1.8218803-2.5038757-3.3622894-2.689476c-0.5509834-0.0833893-1.1075974,0.1106758-1.4873009,0.5185509
					c-0.3070984,0.4285583-0.3830986,0.9809952-0.2031288,1.4765587c0.5196533,1.461689,1.8221092,2.5031242,3.3623085,2.6884804
					L47.1119652,62.0878716z"/>
				<polygon class="st2" points="39.4381065,57.3759918 51.9901047,53.1719933 51.9901047,42.6699905 39.4381065,45.9869919 				"/>
				<path class="st2" d="M39.4381065,57.8603439c-0.2669945-0.0004158-0.4832573-0.2168961-0.4833984-0.4838905V45.9863205
					c-0.0002251-0.2194099,0.1473198-0.4114609,0.3593788-0.4677811l12.5527306-3.3163986
					c0.2582588-0.068325,0.5230103,0.0856514,0.5913353,0.3439102c0.0106926,0.0404167,0.016098,0.0820503,0.0160866,0.1238594
					v10.5019989c0.0000839,0.2079315-0.1328659,0.3925972-0.3300781,0.4584885l-12.5527077,4.2045937
					C39.5420914,57.85186,39.4902725,57.8604279,39.4381065,57.8603439z M39.921505,46.3588829v10.345211l11.5859299-3.8803711
					v-9.5258789L39.921505,46.3588829z"/>
				<polygon class="st0" points="52.3711052,65.2199936 65.2541046,60.9379921 65.2541046,49.8429909 52.3711052,52.9909935 				"/>
				<path class="st2" d="M52.3707542,65.7040939c-0.2665939,0.0003815-0.483017-0.2154236-0.4833984-0.4820175
					c0-0.0006256,0-0.0012436,0-0.0018692V52.9912071c-0.0001488-0.2226944,0.1518822-0.4166641,0.3681602-0.4697304
					l12.8837891-3.1484337c0.2591476-0.0637474,0.5208969,0.0946541,0.5846481,0.3537979
					c0.0093307,0.0379333,0.0140228,0.0768585,0.0139847,0.115921v11.0952301
					c0.0003815,0.2084465-0.1331406,0.3935661-0.3310471,0.4589996l-12.8837852,4.2821999
					C52.4739838,65.6956024,52.4225426,65.70401,52.3707542,65.7040939z M52.8541451,53.3710938v11.1786957l11.9170036-3.9609299
					V50.458992L52.8541451,53.3710938z"/>
				<polygon class="st0" points="39.4381065,57.3759918 52.3711052,65.1279907 52.3711052,52.8989906 39.4381065,45.9869919 				"/>
				<path class="st2" d="M52.3707542,65.6122894c-0.0876884-0.0000839-0.1737251-0.0238647-0.2490005-0.06884L39.189106,57.7914925
					c-0.1455345-0.0876236-0.2344818-0.2451248-0.2343788-0.4150009V45.9863205
					c-0.0003777-0.2670059,0.2157707-0.4837646,0.4827766-0.4841423c0.0799484-0.0001106,0.1586761,0.0196037,0.2291336,0.0573807
					l12.932621,6.9130898c0.1571503,0.0843697,0.2551079,0.2483864,0.254879,0.4267502v12.2289963
					c0.000042,0.267067-0.2163239,0.4836502-0.4833908,0.4838791L52.3707542,65.6122894z M39.9215355,57.1025314
					l11.9658203,7.1718674V53.1893997l-11.9658203-6.3959999V57.1025314z"/>
				<polygon class="st2" points="52.3711052,53.1539917 65.2541046,49.8429909 51.9901047,42.6699905 39.4381065,45.9859924 				"/>
				<path class="st2" d="M52.3707542,53.6381721c-0.0819893-0.0000229-0.162632-0.0208511-0.2343788-0.0605392l-12.932621-7.1679993
					c-0.2338448-0.1292458-0.3186378-0.4235878-0.1893921-0.6574326c0.0638504-0.1155281,0.1721382-0.1999474,0.2997513-0.2336884
					l12.5517502-3.3163986c0.1192245-0.0320702,0.2462273-0.0168533,0.3544998,0.0424805l13.2646446,7.1728783
					c0.2349472,0.127079,0.3223877,0.4205589,0.1953125,0.6555061c-0.0641708,0.1186447-0.1749802,0.2050972-0.3056641,0.2384949
					l-12.8837929,3.3115692C52.4515877,53.6329308,52.4112549,53.6380119,52.3707542,53.6381721z M40.7252426,46.1464729
					l11.7119141,6.4912186l11.5019989-2.9560585l-12.0107918-6.495121L40.7252426,46.1464729z"/>
				<path class="st2" d="M71.4069824,43.9162407l-13.507-7.4628296c-1.9897118-1.0992508-4.2442589-0.4764099-5.0352402,1.3906898
					c-0.70821,2.0802727,0.2143593,4.3654175,2.1683617,5.3708916l13.5069962,7.4628296
					c1.9889984,1.0992393,4.2435684,0.4764214,5.0360031-1.3899994c0.7074738-2.080616-0.21521-4.3655891-2.1690598-5.3715515"/>
				<path class="st2" d="M70.5670471,51.7031136c-0.7926102-0.0067215-1.5706406-0.21381-2.2617188-0.6020012l-13.5068436-7.4629402
					c-2.1656761-1.1295471-3.1776543-3.6746559-2.3789101-5.9829102c0.3956795-0.949398,1.1803932-1.6828842,2.1543007-2.0136681
					c1.1884613-0.3792877,2.4819107-0.2380943,3.5605507,0.3886719l13.5068321,7.46241l0,0
					c2.164772,1.1306152,3.1767044,3.6748047,2.3798447,5.983387c-0.3962021,0.9493904-1.1811905,1.6828079-2.1552811,2.0136795
					C71.4477768,51.6325951,71.0088272,51.7047081,70.5670471,51.7031136z M55.8736839,36.3949928
					c-0.3348007-0.0013924-0.6674919,0.0530624-0.9843788,0.161129c-0.7136955,0.2430611-1.2887383,0.7807617-1.5791016,1.4765587
					c-0.6137695,1.8519363,0.2179565,3.874424,1.9570007,4.7587891l13.5069046,7.4629135
					c0.8387909,0.4937096,1.8470764,0.610218,2.7763596,0.3208084c0.7139587-0.2430153,1.2893219-0.7806892,1.5800781-1.4765701
					c0.6120834-1.8522682-0.2196655-3.8739815-1.9580002-4.7592697l-13.5068703-7.4623604
					C57.1184998,36.5678978,56.5020866,36.4020996,55.8736839,36.3949928z"/>
				<path class="st0" d="M34.5426865,41.4325218c-0.5001488,0.3390274-0.8906593,0.8164597-1.1237717,1.373909
					c-0.7075157,2.0802383,0.2148819,4.3649139,2.1683693,5.3708191l13.5076599,7.4628487
					c0.8963318,0.5219231,1.9614983,0.6718216,2.9670601,0.4175491l19.4438782-4.9630814
					c0.9332352-0.2481308,1.6982117-0.9157753,2.0702896-1.8068695c0.7071152-2.0806007-0.2154846-4.3653336-2.1690674-5.3715248
					l-13.507-7.4628487c-0.8968048-0.5212936-1.9619331-0.6711502-2.967762-0.4175415L34.5426865,41.4325218z"/>
				<path class="st2" d="M51.1158638,56.6689911c-0.79076-0.0077095-1.5666161-0.2160416-2.254879-0.6054688l-13.5078087-7.4629402
					c-2.1647797-1.1301193-3.1768074-3.6741066-2.379879-5.9824295c0.2704544-0.6432571,0.7216034-1.1943054,1.2988091-1.586422
					c0.0448685-0.0301094,0.0943489-0.0527077,0.1464882-0.0668983l20.3896484-5.3969994
					c1.1261215-0.2863617,2.3195953-0.1207466,3.3251915,0.4614296l13.5078087,7.4633789
					c2.1647949,1.1306152,3.1767349,3.6748238,2.3798599,5.9834213c-0.4274673,1.0291367-1.3103561,1.8000984-2.3877029,2.0849991
					l-19.4511261,4.9653015C51.834816,56.6215515,51.4761238,56.6695251,51.1158638,56.6689911z M34.7486839,41.8784142
					c-0.3928185,0.2833481-0.6991425,0.6703072-0.8847694,1.117672c-0.6120644,1.8518639,0.2197762,3.8731804,1.9580002,4.7578201
					l13.5078201,7.4628868c0.7850952,0.4615746,1.7201538,0.5960808,2.6035194,0.3745117l19.4521446-4.965313
					c0.787674-0.2098351,1.4327621-0.7744255,1.7451172-1.5273514c0.6120834-1.8522682-0.2196655-3.8739815-1.9580002-4.7592697
					l-13.5068283-7.4628983c-0.7863007-0.460186-1.721405-0.5945854-2.605484-0.3744812L34.7486839,41.8784142z"/>
				<path class="st2" d="M51.9616165,48.8784142l-13.5069695-7.461422
					c-1.9897118-1.0999413-4.2428589-0.4777985-5.0352402,1.3899994c-0.7079735,2.0802536,0.2145424,4.3652267,2.1683693,5.3708305
					l13.5076599,7.4628487c1.9897194,1.0992508,4.2435608,0.4763985,5.0352516-1.3899994
					c0.7075577-2.080822-0.215107-4.3660393-2.1690712-5.372261"/>
				<path class="st2" d="M51.1227036,56.6659927c-0.7923203-0.0066223-1.5700684-0.2137413-2.2607384-0.6020584
					l-13.5087891-7.4628716c-2.1653519-1.1298409-3.1772194-3.6746674-2.3789101-5.9829102
					c0.3961754-0.9495163,1.1811523-1.6830902,2.1552811-2.0141602c1.1883316-0.3784027,2.4812431-0.2368736,3.5595703,0.3896484
					l13.5068283,7.4614296l0,0c2.165287,1.1306572,3.1773224,3.6754913,2.379879,5.9843712
					c-0.3962593,0.9488869-1.1807747,1.6820183-2.1542892,2.0131912
					C52.0034676,56.5954857,51.5644989,56.6675949,51.1227036,56.6659927z M36.4273949,41.3579025
					c-0.3341255-0.0013962-0.6661491,0.0528946-0.9824295,0.1606407c-0.714325,0.242939-1.2898254,0.7810936-1.5800705,1.4775391
					c-0.6135254,1.8517914,0.2181702,3.8739891,1.9570007,4.7583008l13.5078087,7.4629021
					c0.8384743,0.4936028,1.8464241,0.6101074,2.7753906,0.3208008c0.7141418-0.2427025,1.2896194-0.7804832,1.5800781-1.4765701
					c0.6131554-1.8524399-0.2188454-3.8749771-1.9580002-4.759758l-13.5068092-7.4614372
					C37.6729088,41.5309906,37.0561562,41.3650475,36.4273949,41.3579025z"/>
				<path class="st2" d="M60.7711639,42.998661c-0.1550484-0.0255814-0.3038597-0.0802536-0.438591-0.161129l-20.264286-12.1274605
					l-2.2167091-2.6686211c0,0,3.3748093,0.9121895,3.0952682,0.8260002
					c-0.2802391-0.0854588,20.2642593,12.1275406,20.2642593,12.1275406
					c0.5352707,0.2965202,0.7699738,0.9423027,0.5499992,1.5133095c-0.1814423,0.3682251-0.5871315,0.5691872-0.9900017,0.4904099"
					/>
				<path class="st2" d="M60.9401054,43.4956017c-0.0811005-0.0000687-0.162075-0.0064354-0.2421913-0.0190506h-0.0019989
					c-0.2154503-0.034729-0.4222794-0.110302-0.6093712-0.2226486L39.8199654,31.1249924
					c-0.0470123-0.0280952-0.0889359-0.0639324-0.1240005-0.1060009l-2.2168579-2.6684093
					c-0.1707306-0.2053242-0.1426888-0.5101795,0.0626335-0.680912c0.1210175-0.1006279,0.2834396-0.1360569,0.4353676-0.0949688
					c0,0,2.625,0.7094707,3.0390587,0.8139992c0.024147,0.0035038,0.0479851,0.008894,0.0712891,0.0161209
					c0.0690002,0.0211887,0.1326218,0.057003,0.1865311,0.1049995c0.9179993,0.6035099,14.8183594,8.8798809,20.1845703,12.0693302
					c0.7534637,0.4212494,1.0714073,1.3404503,0.7392502,2.1372108
					C61.9670601,43.1997375,61.4756622,43.5041962,60.9401054,43.4956017z M60.8444061,42.5205002
					c0.1924706,0.0467033,0.3917923-0.0450745,0.4814415-0.2216797c0.1096573-0.3452301-0.043251-0.7194862-0.3632812-0.8891602l0,0
					c0.0009995,0.0004883-5.0732384-3.0156288-10.1425819-6.0390587c-2.536129-1.5122108-5.0703087-3.0268593-6.9697189-4.1669998
					c-1.7275391-1.0366192-2.6093788-1.5664005-3.0390587-1.8852501l-0.0039101,0.0122108l0.0039101-0.0126991l-0.0537186-0.0400009
					c-0.317379-0.0532207-0.8037109-0.1733398-1.5605392-0.3735294l1.1904297,1.4330997l20.1933594,12.0849991
					c0.0810127,0.0488472,0.1704369,0.0821342,0.2636719,0.0981483L60.8444061,42.5205002z"/>
				<polygon class="st5" points="52.3851051,46.182991 65.2121048,42.9879913 65.2121048,36.3039932 52.3851051,39.1589928 				"/>
				<path class="st2" d="M52.3853951,46.6664925c-0.2668381,0.0001335-0.4832573-0.2160721-0.4833908-0.4829102
					c0-0.0003204,0-0.0006447,0-0.0009689v-7.0234413c-0.0000458-0.2264404,0.1569786-0.4226189,0.3779297-0.4721718
					l12.8271751-2.8554688c0.2603989-0.0583649,0.5188065,0.1054153,0.5771713,0.3658142
					c0.0078201,0.0349121,0.0117493,0.0705795,0.0116959,0.1063576v6.684082
					c-0.0000153,0.2218857-0.1509781,0.4153175-0.3662109,0.4692383l-12.827179,3.194828
					C52.4642715,46.6615181,52.4249115,46.6664352,52.3853951,46.6664925z M52.8687935,39.5468712v6.0166016l11.8603096-2.9536209
					v-5.7026291L52.8687935,39.5468712z"/>
				<polygon class="st5" points="44.326107,41.6889915 52.3851051,46.1249924 52.3851051,39.1019936 44.326107,34.9189911 				"/>
				<path class="st2" d="M52.3853951,46.6083908c-0.0816078-0.0000992-0.1618729-0.0207558-0.2333908-0.0600586
					l-8.0595703-4.4360008c-0.1543236-0.0851746-0.250103-0.247551-0.25-0.4238205v-6.7700005
					c-0.0003357-0.2668152,0.2156906-0.4833794,0.4825058-0.4837151c0.077816-0.0000992,0.1545067,0.0186043,0.2235451,0.0545158
					l8.0596199,4.1835327c0.1602478,0.0831413,0.2608032,0.2486649,0.2607384,0.4291992v7.0224609
					c0.0002098,0.2670364-0.216095,0.4836807-0.4831276,0.4838905c-0.0000916,0-0.0001793,0-0.0002708,0L52.3853951,46.6083908z
					 M44.809227,41.4023323l7.0927811,3.9038086v-5.9101486l-7.0927811-3.68116V41.4023323z"/>
				<polygon class="st5" points="52.3851051,39.260994 65.2121048,36.3029938 56.946106,32.1949921 44.326107,34.9179916 				"/>
				<path class="st2" d="M52.3853951,39.7446213c-0.0801353-0.0000114-0.1590042-0.0199814-0.2294884-0.0581093
					l-8.0585899-4.3427696c-0.2350502-0.1269569-0.3226776-0.4204216-0.1957207-0.6554718
					c0.0671921-0.1243973,0.1854439-0.2131729,0.3236504-0.2429695l12.6191406-2.7231407
					c0.1069031-0.023077,0.2184753-0.0091305,0.3164101,0.0395508l8.2666016,4.1083984
					c0.2392349,0.1184006,0.3371887,0.4083176,0.2187958,0.6475525c-0.0643768,0.1300697-0.1837845,0.2243309-0.3252487,0.2567368
					l-12.8271523,2.9575233C52.4582672,39.7402916,52.4218941,39.7445526,52.3853951,39.7446213z M45.7105942,35.1142502
					l6.7441406,3.6342812l11.3330002-2.6132889l-6.9052811-3.4316406L45.7105942,35.1142502z"/>
				<line class="st4" x1="59.8811836" y1="41.3843918" x2="70.9857635" y2="48.029644"/>
				<path class="st2" d="M70.9859848,48.5136642c-0.0874176,0.0002518-0.1732254-0.023571-0.2480011-0.0688515
					l-11.1044922-6.6455002c-0.2298546-0.1359329-0.3059921-0.4324608-0.170063-0.6623154
					c0.1359329-0.2298546,0.4324608-0.3059959,0.6623192-0.170063c0.0012856,0.0007629,0.0025673,0.0015297,0.0038452,0.0023003
					l11.1044922,6.6455116c0.2293243,0.1370087,0.3041611,0.433979,0.1671524,0.6633034
					c-0.0873032,0.1461258-0.2449799,0.2356033-0.4151993,0.2356148H70.9859848z"/>
				<path class="st2" d="M61.4615746,29.5507717c-0.142807,0.0001831-0.2783546-0.0629387-0.370121-0.1723595
					c-1.4514465-1.7790852-4.0037537-2.1922398-5.9423485-0.9619198c-0.2262535,0.1423874-0.5250931,0.0744019-0.6674805-0.1518517
					c-0.1423874-0.2262516-0.0744019-0.5250912,0.1518517-0.6674786l0,0
					c0.0400009-0.0258808,4.1054688-2.5185604,7.1982384,1.1581993c0.1720428,0.2045097,0.1457214,0.5097656-0.0587883,0.6818085
					c-0.0871696,0.0733299-0.1974106,0.1135578-0.3113213,0.1136017H61.4615746z"/>
				<path class="st2" d="M60.3824654,24.8544827c-0.1036987,0.0001411-0.2046967-0.0330677-0.2880783-0.0947208
					c-0.8245888-0.5084229-1.845623-0.5817184-2.7343788-0.1962891c-0.2430229,0.1105766-0.5296707,0.0032063-0.6402473-0.2398167
					c-0.1105766-0.243021-0.0032082-0.5296707,0.2398148-0.6402473c0.0013161-0.000597,0.0026321-0.0011902,0.003952-0.0017757
					c1.2078056-0.5277443,2.5997009-0.4151726,3.7070007,0.2998104c0.2146912,0.1595001,0.2594299,0.4628429,0.099926,0.6775322
					c-0.0912132,0.1227741-0.2350655,0.1952419-0.3880157,0.195467L60.3824654,24.8544827z"/>
				<path class="st2" d="M38.2184067,62.9213829c-0.0604591-0.0001259-0.1203804-0.0113831-0.1767616-0.0332108
					c-2.6438332-0.929924-4.1945038-3.6696587-3.6308517-6.4150009c0.0078087-0.0712814,0.0146408-0.1342697,0.0195312-0.1875
					c-0.1252441-0.2290993-0.0461655-0.516243,0.1787109-0.6489182c0.1709671-0.093853,0.3784103-0.0921898,0.5478516,0.0043907
					c0.2929993,0.1875,0.2626915,0.4829102,0.2168007,0.9301796c-0.125,1.2177696-0.4160004,4.0698204,3.0214806,5.4155312
					c0.2487831,0.0979385,0.3710632,0.3790131,0.2731247,0.6277962c-0.0727882,0.1848984-0.2511749,0.3065376-0.4498863,0.3067741
					V62.9213829z"/>
				<path class="st2" d="M33.0241051,62.9243126c-0.0793915-0.0000305-0.157547-0.0196533-0.2275391-0.0571289
					c-1.5162525-0.7204361-2.2433872-2.4697762-1.6845684-4.0527382c0.0925064-0.2505226,0.3705864-0.3786163,0.621109-0.2861099
					s0.3786144,0.3705864,0.286108,0.621109l0,0c-0.3979053,1.1300201,0.1383095,2.3762283,1.2324295,2.8642616
					c0.235775,0.1256409,0.3250542,0.4186287,0.1994133,0.6544037c-0.084053,0.1577301-0.2482262,0.2562599-0.4269524,0.2562447
					V62.9243126z"/>
				<path class="st2" d="M19.5826664,50.3012619c-1.3486519-0.0171089-2.6403503-0.5463562-3.6132803-1.4804688
					c-0.1984768-0.1790619-0.2142162-0.4851189-0.0351543-0.6835938c0.1790609-0.1984787,0.4851179-0.2142181,0.6835947-0.0351562
					c1.3977528,1.3795586,3.5470581,1.6501732,5.2431602,0.6601601c0.2405453-0.1159592,0.5295467-0.0149612,0.6455059,0.2255859
					c0.1159573,0.2405434,0.0149593,0.5295448-0.2255859,0.645504
					C21.443655,50.0573349,20.5210495,50.2857361,19.5826664,50.3012619z"/>
				<path class="st2" d="M19.3297367,53.3124924c-0.7482052-0.0042114-1.4712086-0.2708435-2.0429993-0.7534218
					c-0.206831-0.1693535-0.2372131-0.474308-0.0678616-0.6811409c0.1693535-0.2068291,0.4743099-0.2372131,0.6811409-0.0678596
					c0.6038036,0.5189323,1.4394531,0.6743584,2.1894608,0.4072304c0.2534981-0.0841331,0.5272045,0.0531616,0.6113396,0.3066597
					s-0.0531616,0.5272064-0.3066597,0.6113396l0,0C20.0511951,53.2512474,19.6917667,53.3110809,19.3297367,53.3124924z"/>
				<path class="st2" d="M32.8219261,15.7285137c-0.1533966,0.0000801-0.2976875-0.0727911-0.3886719-0.19629
					c-1.0951138-1.6302624-3.1465454-2.3248796-5.0068378-1.6953201c-0.2588825,0.0657988-0.5220909-0.0907269-0.5878887-0.3496103
					c-0.0657997-0.2588835,0.0907269-0.5220909,0.3496094-0.5878897c2.2415123-0.7110815,4.6846371,0.1236191,6.0224571,2.0575895
					c0.1588669,0.2147417,0.1135674,0.5176096-0.1011734,0.6764746c-0.0001297,0.0000954-0.0002556,0.0001898-0.0003853,0.0002851
					C33.0260887,15.6955366,32.925354,15.7287836,32.8219261,15.7285137z"/>
				<path class="st2" d="M32.2926254,11.8212833c-0.1455879,0.0001783-0.2834396-0.0655165-0.3749981-0.17871
					c-0.4872284-0.6297779-1.275259-0.9492054-2.0634804-0.8364296c-0.2653561,0.0318203-0.5062656-0.1574984-0.5380859-0.4228554
					c-0.0318203-0.2653561,0.1574993-0.5062647,0.4228554-0.538085c1.1178474-0.1532135,2.2329674,0.2987423,2.928709,1.1870003
					c0.168663,0.2071428,0.1374664,0.5117931-0.0696754,0.6804552c-0.0862579,0.0702333-0.194088,0.1085892-0.3053246,0.1086044
					V11.8212833z"/>
			</g>
		</g>
		<path class="st2" d="M45.0553246,71.560051H29.8697777C15.2448568,71.5435257,3.3931398,59.691803,3.3766165,45.0668831
			V29.8818817C3.3926415,15.2565117,15.2444067,3.404067,29.8697777,3.3872032h15.1855469
			c14.625679,0.016454,26.4779549,11.8689489,26.4941444,26.4946289v15.185051
			C71.5328293,59.6921387,59.6805801,71.5439529,45.0553246,71.560051z M29.8697777,6.6127834
			C17.0250244,6.6276193,6.616221,17.0370789,6.6021962,29.8818321v15.185051
			C6.616684,57.9112053,17.0254536,68.3199768,29.8697777,68.334465h15.1855469
			c12.8446541-0.0140686,23.2539482-10.4229279,23.2685509-23.2675819V29.8818817
			C68.3097076,17.0368156,57.9003906,6.627295,45.0553246,6.6128836L29.8697777,6.6127834z"/>
		<path class="st4" d="M29.8697777-0.0000067h15.1845665c16.5032845,0,29.8818436,13.3785563,29.8818436,29.8818398
			c0,0.0000019,0,0,0,0v15.1835899c0,16.5035515-13.3787727,29.8823166-29.8823242,29.8823166c-0.0000038,0-0.0000038,0-0.0000076,0
			H29.8687973c-16.5027428,0-29.8808575-13.3781128-29.8808613-29.8808556v-15.185051
			C-0.0120637,13.3785496,13.3664932-0.0000063,29.8697777-0.0000067z"/>
		<path class="st4" d="M29.8696575,5.0000834h15.1863194c13.7411613,0,24.8805771,11.1394157,24.8805771,24.880579v15.1855984
			c0,13.7415581-11.1397285,24.8812943-24.8812866,24.8812943h-0.0000038H29.8703671c-13.7419491,0-24.882-11.1400528-24.882-24.882
			V29.8813629c0-13.7415524,11.1397295-24.881279,24.8812828-24.881279
			C29.8696518,5.000083,29.8696537,5.000083,29.8696575,5.0000834z"/>
	</g>
</g>
</svg>
