<svg xmlns="http://www.w3.org/2000/svg" xmlns:xlink="http://www.w3.org/1999/xlink" viewBox="1.72681 0 75 76.1709"><defs><style>.cls-1{fill:none;}.cls-2{clip-path:url(#clip-path);}.cls-3{fill:#fff;}.cls-4{fill:#f9be00;}.cls-5{clip-path:url(#clip-path-2);}.cls-6{fill:#f6aa00;}.cls-7{fill:#fdd337;}</style><clipPath id="clip-path"><path class="cls-1" d="M30.54581,5.83281A24.78359,24.78359,0,0,0,5.83407,30.54453V45.62564A24.784,24.784,0,0,0,30.54581,70.33738h15.0811A24.50409,24.50409,0,0,0,56.39941,67.852,24.79252,24.79252,0,0,0,70.33863,45.62564V30.54453A24.78314,24.78314,0,0,0,45.62691,5.83281Z"/></clipPath><clipPath id="clip-path-2"><path class="cls-1" d="M28.6406,5.90593A24.79349,24.79349,0,0,0,5.83407,30.54453V45.62564A24.784,24.784,0,0,0,30.54581,70.33738h15.0811A24.50409,24.50409,0,0,0,56.39941,67.852,24.81716,24.81716,0,0,0,70.2662,47.51308V28.6564A24.80548,24.80548,0,0,0,47.53143,5.90593Z"/></clipPath></defs><title>アセット 1201</title><g id="レイヤー_2" data-name="レイヤー 2"><g id="レイヤー_2-2" data-name="レイヤー 2"><g class="cls-2"><path class="cls-3" d="M70.33938,45.62558a24.78886,24.78886,0,0,1-13.93991,22.225,24.47632,24.47632,0,0,1-10.77183,2.48675H30.54585A24.78417,24.78417,0,0,1,5.83344,45.62558V30.54447a24.78447,24.78447,0,0,1,24.71241-24.711H45.62764a24.78388,24.78388,0,0,1,24.71174,24.711Z"/><path class="cls-4" d="M45.62747,72.17059H30.54613A26.5753,26.5753,0,0,1,4.00047,45.6256v-15.081A26.575,26.575,0,0,1,30.54613,3.99993H45.62747a26.57488,26.57488,0,0,1,26.545,26.54466v15.081A26.76219,26.76219,0,0,1,57.20458,69.49854,26.171,26.171,0,0,1,45.62747,72.17059ZM30.54613,7.667A22.90441,22.90441,0,0,0,7.66686,30.54459v15.081A22.90526,22.90526,0,0,0,30.54613,68.5042H45.62747a22.52222,22.52222,0,0,0,9.96747-2.301A23.071,23.071,0,0,0,68.50607,45.6256v-15.081A22.90426,22.90426,0,0,0,45.62747,7.667Z"/></g><g class="cls-5"><path class="cls-3" d="M21.41362,35.93168c-.1934,2.47994-2.05557,3.95051-4.159,3.287a5.63214,5.63214,0,0,1-3.45985-5.69311c.19339-2.47785,2.05419-3.95118,4.15963-3.28559a5.628,5.628,0,0,1,3.45918,5.69171"/><path class="cls-4" d="M18.2563,39.9278a3.86116,3.86116,0,0,1-1.16719-.18485,6.21372,6.21372,0,0,1-3.84257-6.26037,4.38274,4.38274,0,0,1,1.78514-3.36742,3.51572,3.51572,0,0,1,3.08848-.39974,6.21091,6.21091,0,0,1,3.84191,6.259h0a4.38807,4.38807,0,0,1-1.78515,3.36809A3.40535,3.40535,0,0,1,18.2563,39.9278Zm-1.308-9.29912a2.29435,2.29435,0,0,0-1.30132.3984A3.3001,3.3001,0,0,0,14.34365,33.568a5.064,5.064,0,0,0,3.07713,5.12588,2.412,2.412,0,0,0,2.14085-.2636A3.29909,3.29909,0,0,0,20.865,35.889h0a5.06153,5.06153,0,0,0-3.07579-5.12455A2.786,2.786,0,0,0,16.9483,30.62868Zm4.46521,5.30306h0Z"/><polygon class="cls-3" points="44.575 34.638 27.944 25.361 27.944 11.565 44.575 18.691 44.575 34.638"/><path class="cls-4" d="M44.57506,35.18832a.54881.54881,0,0,1-.26827-.06941L27.67588,25.84148a.54957.54957,0,0,1-.28162-.48049V11.56529a.54986.54986,0,0,1,.76678-.50551L44.792,18.18536a.54922.54922,0,0,1,.333.50551V34.63842a.54942.54942,0,0,1-.5499.5499ZM28.494,25.038l15.53113,8.66348V19.05357L28.494,12.39947Z"/><polygon class="cls-3" points="25.972 41.881 9.233 33.994 9.233 17.724 25.972 25.055 25.972 41.881"/><path class="cls-4" d="M25.97148,42.431a.55218.55218,0,0,1-.23424-.05206L8.99888,34.49161a.55021.55021,0,0,1-.31565-.49784V17.72355a.54991.54991,0,0,1,.77078-.50384L26.19237,24.5515a.54956.54956,0,0,1,.329.50384V41.88112a.549.549,0,0,1-.54989.5499ZM9.783,33.64475l15.63858,7.36882V25.415L9.783,18.56508Z"/><polygon class="cls-3" points="44.575 34.638 25.971 41.743 25.971 24.918 44.575 18.691 44.575 34.638"/><path class="cls-4" d="M25.97081,42.29287a.54972.54972,0,0,1-.54989-.54989V24.91754A.54958.54958,0,0,1,25.796,24.396l18.60425-6.22667a.54958.54958,0,0,1,.72474.52153V34.63842a.55009.55009,0,0,1-.3537.51386L26.167,42.25684A.55472.55472,0,0,1,25.97081,42.29287Zm.54989-16.97926V40.94417l17.50447-6.6848V19.455Zm18.05436,9.32481h0Z"/><polygon class="cls-3" points="25.972 24.918 9.233 17.724 27.944 11.566 44.575 18.691 25.972 24.918"/><path class="cls-4" d="M25.97148,25.4681a.54755.54755,0,0,1-.21689-.04472L9.01623,18.22974A.55.55,0,0,1,9.061,17.20169l18.711-6.1586a.55264.55264,0,0,1,.38906.017l16.63158,7.12525a.54991.54991,0,0,1-.042,1.027l-18.60426,6.227A.55164.55164,0,0,1,25.97148,25.4681ZM10.78537,17.79262l15.2108,6.537,17.03533-5.7018L27.91879,12.15322Z"/><line class="cls-3" x1="54.31244" y1="57.24873" x2="75.34766" y2="67.68572"/><path class="cls-4" d="M75.347,68.23659a.53991.53991,0,0,1-.24358-.05806L54.06805,57.74125a.54974.54974,0,0,1,.4885-.985L75.59194,67.19353a.5503.5503,0,0,1-.24491,1.04306Z"/><line class="cls-3" x1="66.58957" y1="57.3602" x2="77.9033" y2="63.24464"/><path class="cls-4" d="M77.903,63.79474a.53862.53862,0,0,1-.25292-.06206L66.33586,57.848a.54981.54981,0,1,1,.50719-.97566L78.15722,62.757a.54986.54986,0,0,1-.25426,1.03772Z"/><line class="cls-3" x1="63.55114" y1="53.44486" x2="75.98831" y2="59.31905"/><path class="cls-4" d="M75.98768,59.86942a.545.545,0,0,1-.23424-.05339l-12.43731-5.874a.54988.54988,0,1,1,.46981-.99435l12.43731,5.874a.55034.55034,0,0,1-.23557,1.04773Z"/><path class="cls-3" d="M33.41516,42.43763s4.78489-2.70473-.34443-7.02085c0,0,7.67211,1.21842,7.2744-6.56574,1.84848,4.03456,6.67781,4.11178,10.25862.40045-2.05486,4.6701.26925,6.55754,3.86236,5.44435"/><path class="cls-4" d="M33.41572,42.98758a.54989.54989,0,0,1-.27228-1.02838,3.65848,3.65848,0,0,0,1.74044-2.44782c.1021-1.14116-.62664-2.37775-2.16754-3.67374a.55008.55008,0,0,1-.14615-.64866.544.544,0,0,1,.58593-.31565c.0327.004,3.18057.47181,5.10986-1.26729,1.12381-1.013,1.63833-2.60331,1.53022-4.72681a.5499.5499,0,0,1,1.04907-.25726,4.50787,4.50787,0,0,0,3.35141,2.71977,7.066,7.066,0,0,0,6.01145-2.47218.55029.55029,0,0,1,.89958.60361c-.87756,1.99436-.96365,3.53827-.24158,4.34776.62864.704,1.88125.83084,3.43683.34968a.54987.54987,0,0,1,.32566,1.05041c-1.986.616-3.65638.37171-4.58333-.668a3.82132,3.82132,0,0,1-.60594-3.579,7.40125,7.40125,0,0,1-5.42752,1.45214,5.34189,5.34189,0,0,1-3.1739-1.78915,5.889,5.889,0,0,1-1.84121,3.79119,7.06728,7.06728,0,0,1-4.48789,1.6043,4.7269,4.7269,0,0,1,1.46949,3.587A4.72017,4.72017,0,0,1,33.686,42.91684.55268.55268,0,0,1,33.41572,42.98758Z"/><path class="cls-4" d="M60.96722,47.81643c-1.09065,2.32411-5.36372,4.14186-10.8634,4.14186s-9.77208-1.81775-10.8634-4.14186c-.09637.205-.21526-1.18425-.21526-1.38789,0-.33417-.07654,2.66442-.02392,2.98149.438,2.672,5.022,4.89287,11.10258,4.89287,6.2425,0,10.9078-2.33915,11.12922-5.10607.01914-.24806-.05058-2.56465-.05058-2.56465-.04508-.2139-.1182,1.38927-.21524,1.18425"/><path class="cls-4" d="M50.104,54.853c-6.23968,0-11.13733-2.25162-11.64518-5.35411a17.91658,17.91658,0,0,1,.01736-2.92431c-.00067-.04738-.00067-.09609-.00067-.14615l.02536-.00066a.80748.80748,0,0,1,.1982-.46848.55064.55064,0,0,1,.57392-.04738.58911.58911,0,0,1,.3023.51652c.00067.14949.0574.77079.10611,1.05908a.546.546,0,0,1,.05673.09543c.89224,1.9006,4.73948,3.82523,10.36587,3.82523s9.473-1.92463,10.36521-3.82523a.58655.58655,0,0,1,.0367-.06673c.02-.14081.04205-.3617.05606-.49651.05205-.51986.09343-.93028.58193-.957a.60315.60315,0,0,1,.57658.45513.53237.53237,0,0,1,.012.09743c.01669.55056.06874,2.36641.04939,2.62267C61.52564,52.44053,56.5052,54.853,50.104,54.853ZM39.53794,49.20524c.00134.05472.004.0961.00734.12146.3557,2.17287,4.40315,4.4265,10.55874,4.4265,6.26971,0,10.35386-2.35907,10.57743-4.56-1.8659,2.02272-5.86864,3.3147-10.57743,3.3147C45.40524,52.50793,41.40918,51.22129,39.53794,49.20524Z"/><path class="cls-6" d="M61.18342,46.09668c-.58359-2.758-5.51884-4.79035-11.08-4.79035-5.55982,0-10.49507,2.033-11.07933,4.79035a2.6876,2.6876,0,0,0,.21662,1.72071c1.09,2.32345,5.36235,4.13981,10.86271,4.13981,5.50108,0,9.77413-1.81636,10.86409-4.13981a2.67847,2.67847,0,0,0,.21595-1.72071"/><path class="cls-4" d="M50.10335,52.50726c-5.545,0-10.11028-1.79048-11.36022-4.45653a3.22132,3.22132,0,0,1-.25759-2.0661c.63131-2.981,5.62572-5.228,11.61781-5.228,5.99343,0,10.98785,2.24695,11.61782,5.226l.00067.00066a3.21251,3.21251,0,0,1-.25626,2.06744C60.215,50.71678,55.64833,52.50726,50.10335,52.50726Zm0-10.65083c-5.30406,0-10.03287,1.95332-10.54138,4.35443a2.14916,2.14916,0,0,0,.17684,1.37273c.89158,1.89993,4.73749,3.82389,10.36454,3.82389,5.62773,0,9.475-1.924,10.36655-3.82389a2.14182,2.14182,0,0,0,.17551-1.37273h0C60.13756,43.80975,55.40808,41.85643,50.10335,41.85643Z"/><path class="cls-4" d="M60.96722,45.61354c-1.09065,2.32412-5.36372,4.14186-10.8634,4.14186s-9.77208-1.81774-10.8634-4.14186c-.09637.20571-.21526-1.18424-.21526-1.38789,0-.33417-.07654,2.66511-.02392,2.98149.438,2.67264,5.022,4.89288,11.10258,4.89288,6.2425,0,10.9078-2.33915,11.12922-5.10607.01914-.25011-.05058-2.56465-.05058-2.56465-.04508-.21391-.1182,1.38995-.21524,1.18424"/><path class="cls-4" d="M50.104,52.65008c-6.23968,0-11.13733-2.25163-11.64518-5.35412a17.93488,17.93488,0,0,1,.01736-2.92564c-.00067-.04738-.00067-.09543-.00067-.14481l.02536-.00067a.80318.80318,0,0,1,.1982-.46848A.55064.55064,0,0,1,39.273,43.709a.58911.58911,0,0,1,.3023.51653c.00067.14948.0574.77011.10611,1.05907a.59058.59058,0,0,1,.05673.09543c.89224,1.9006,4.73948,3.82523,10.36587,3.82523S59.577,47.28061,60.46923,45.38a.58827.58827,0,0,1,.0367-.06673c.02-.14148.04271-.3617.05606-.4965.05205-.51987.09343-.93028.58193-.957a.607.607,0,0,1,.57658.45513.53237.53237,0,0,1,.012.09743c.01669.5499.06874,2.36441.04939,2.62267C61.52564,50.23762,56.5052,52.65008,50.104,52.65008ZM39.53794,47.00233c.00134.05472.004.0961.00734.12146.3557,2.17287,4.40315,4.4265,10.55874,4.4265,6.26971,0,10.35386-2.35907,10.57743-4.56C58.81555,49.013,54.81281,50.305,50.104,50.305,45.40524,50.305,41.40918,49.01838,39.53794,47.00233Z"/><path class="cls-7" d="M61.18342,43.89379c-.58359-2.75667-5.51884-4.789-11.08-4.789-5.55982,0-10.49507,2.03232-11.07933,4.789a2.68817,2.68817,0,0,0,.21662,1.72071c1.09,2.32345,5.36235,4.13982,10.86271,4.13982,5.50108,0,9.77413-1.81637,10.86409-4.13982a2.679,2.679,0,0,0,.21595-1.72071"/><path class="cls-4" d="M50.10335,50.30436c-5.545,0-10.11028-1.79049-11.36022-4.45654a3.217,3.217,0,0,1-.25759-2.0661c.63131-2.98036,5.62572-5.22665,11.61781-5.22665,5.99343,0,10.98785,2.24629,11.61782,5.22465h0a3.20927,3.20927,0,0,1-.25559,2.0681C60.215,48.51387,55.64833,50.30436,50.10335,50.30436Zm0-10.6495c-5.30406,0-10.03287,1.95265-10.54138,4.35309A2.1422,2.1422,0,0,0,39.73881,45.38c.89158,1.9006,4.73749,3.82456,10.36454,3.82456,5.62773,0,9.475-1.924,10.36655-3.82389a2.138,2.138,0,0,0,.17551-1.37273C60.13756,41.60751,55.40808,39.65486,50.10335,39.65486Z"/></g><g class="cls-2"><path class="cls-3" d="M49.5082,16.67647a3.81945,3.81945,0,0,0-3.64849-2.79495"/><path class="cls-4" d="M49.50808,17.22672a.54977.54977,0,0,1-.52386-.38306,3.28005,3.28005,0,0,0-3.16856-2.41379.55.55,0,0,1-.50451-.59227.54213.54213,0,0,1,.5926-.50418,4.38411,4.38411,0,0,1,4.1282,3.1759.55027.55027,0,0,1-.52387.7174Z"/><path class="cls-3" d="M50.28436,13.21092a2.12123,2.12123,0,0,0-1.61-1.38516"/><path class="cls-4" d="M50.2842,13.76119a.54981.54981,0,0,1-.51519-.358,1.56587,1.56587,0,0,0-1.20856-1.03906.55018.55018,0,0,1,.22823-1.07643,2.6706,2.6706,0,0,1,2.01072,1.7311.55.55,0,0,1-.5152.74242Z"/><path class="cls-3" d="M20.849,45.60823a3.84232,3.84232,0,0,0,4.49924,1.00729"/><path class="cls-4" d="M23.69116,47.48415a4.31857,4.31857,0,0,1-3.24664-1.50286.55019.55019,0,0,1,.80883-.74609,3.29851,3.29851,0,0,0,3.90463.86355.55043.55043,0,0,1,.38039,1.033A5.3466,5.3466,0,0,1,23.69116,47.48415Z"/><path class="cls-3" d="M21.62185,49.08105a2.13319,2.13319,0,0,0,2.04871.58293"/><path class="cls-4" d="M23.13659,50.27633a2.70063,2.70063,0,0,1-1.90193-.80415.55022.55022,0,0,1,.77412-.78213,1.57027,1.57027,0,0,0,1.5389.43711.55042.55042,0,1,1,.24558,1.07309A2.9689,2.9689,0,0,1,23.13659,50.27633Z"/><rect class="cls-4" x="19.73091" y="57.70065" width="22.5974" height="11.2372"/><path class="cls-3" d="M25.9616,67.038a7.91026,7.91026,0,0,0,.07312-1.21023V60.747H25.5912a8.36526,8.36526,0,0,0-.95123.054V59.62834a5.10276,5.10276,0,0,0,.92458.05535h.84874a6.87074,6.87074,0,0,0,.943-.04509,13.94011,13.94011,0,0,0-.0738,1.52319v4.666a7.88249,7.88249,0,0,0,.0738,1.21023Z"/><path class="cls-3" d="M34.83087,63.1763A1.16275,1.16275,0,0,0,36.14294,61.91a1.24677,1.24677,0,0,0-.30548-.887,1.26163,1.26163,0,0,0-1.00659-.33144H33.06574V63.1763Zm-3.05871,3.80631a7.4052,7.4052,0,0,0,.07378-1.19177V60.792a8.2734,8.2734,0,0,0-.07378-1.19177c.397.01912.68471.028,1.174.028h1.93051a2.62836,2.62836,0,0,1,1.96806.656,2.16048,2.16048,0,0,1,.572,1.5888,2.37264,2.37264,0,0,1-.61913,1.7009,2.61553,2.61553,0,0,1-1.96671.66422H33.06574v1.543a7.36906,7.36906,0,0,0,.0745,1.20135Z"/></g><path class="cls-1" d="M30.54581,5.83281A24.78359,24.78359,0,0,0,5.83407,30.54453V45.62564A24.784,24.784,0,0,0,30.54581,70.33738h15.0811A24.50409,24.50409,0,0,0,56.39941,67.852,24.79252,24.79252,0,0,0,70.33863,45.62564V30.54453A24.78314,24.78314,0,0,0,45.62691,5.83281Z"/><path class="cls-1" d="M30.5459,76.1709A30.58,30.58,0,0,1,0,45.626V30.54492A30.58,30.58,0,0,1,30.5459,0h15.082A30.5792,30.5792,0,0,1,76.17285,30.54492V45.626A30.78894,30.78894,0,0,1,58.96,73.09277a30.13221,30.13221,0,0,1-13.332,3.07813Zm0-64.50391A18.89971,18.89971,0,0,0,11.667,30.54492V45.626A18.89971,18.89971,0,0,0,30.5459,64.50391h15.082a18.55543,18.55543,0,0,0,8.21094-1.89453,19.04682,19.04682,0,0,0,10.667-16.9834V30.54492A18.8995,18.8995,0,0,0,45.62793,11.667Z"/><path class="cls-4" d="M45.62747,72.17059H30.54613A26.5753,26.5753,0,0,1,4.00047,45.6256v-15.081A26.575,26.575,0,0,1,30.54613,3.99993H45.62747a26.57488,26.57488,0,0,1,26.545,26.54466v15.081A26.76219,26.76219,0,0,1,57.20458,69.49854,26.171,26.171,0,0,1,45.62747,72.17059ZM30.54613,7.667A22.90441,22.90441,0,0,0,7.66686,30.54459v15.081A22.90526,22.90526,0,0,0,30.54613,68.5042H45.62747a22.52222,22.52222,0,0,0,9.96747-2.301A23.071,23.071,0,0,0,68.50607,45.6256v-15.081A22.90426,22.90426,0,0,0,45.62747,7.667Z"/></g></g></svg>