<?xml version="1.0" encoding="utf-8"?>
<!-- Generator: Adobe Illustrator 23.0.2, SVG Export Plug-In . SVG Version: 6.00 Build 0)  -->
<svg version="1.1" id="レイヤー_1" xmlns="http://www.w3.org/2000/svg" xmlns:xlink="http://www.w3.org/1999/xlink" x="0px"
	 y="0px" viewBox="0 0 74.944397 74.9487762" style="enable-background:new 0 0 74.944397 74.9487762;" xml:space="preserve">
<style type="text/css">
	.st0{fill:#FFFFFF;}
	.st1{clip-path:url(#SVGID_2_);}
	.st2{fill:#F9BE00;}
	.st3{fill:none;}
	.st4{fill:#F6AA00;}
	.st5{fill:#FDD337;}
</style>
<title>アセット 6202</title>
<g>
	<g id="レイヤー_2-2">
		<path class="st0" d="M69.9486084,45.0665283c-0.0243149,9.5267868-5.469841,18.2087822-14.0359306,22.3779984
			c-3.3771706,1.650589-7.0870514,2.5070801-10.8460007,2.5039978h-15.184967
			c-13.7251835-0.0401077-24.841568-11.1568146-24.8812695-24.882v-15.184885
			c0.039959-13.7250786,11.1561928-24.8416367,24.8812695-24.882h15.1849213
			c13.7252274,0.0402889,24.8417091,11.1567745,24.882,24.882L69.9486084,45.0665283z"/>
		<g>
			<defs>
				<path id="SVGID_1_" d="M29.8810005,5.0000701C16.1557274,5.0403204,5.0395217,16.1574726,5.0004401,29.8827496v15.1835003
					C5.039773,58.79142,16.1558323,69.9084244,29.8810005,69.9489288h15.1856003
					c3.7590218,0.0027924,7.4689217-0.85392,10.8460999-2.5046463c8.5662117-4.1690788,14.011776-12.851162,14.0359077-22.3779984
					V29.8827496c-0.0397491-13.7255611-11.1564407-24.842556-24.882-24.8826809L29.8810005,5.0000701z"/>
			</defs>
			<clipPath id="SVGID_2_">
				<use xlink:href="#SVGID_1_"  style="overflow:visible;"/>
			</clipPath>
			<g class="st1">
				<path class="st0" d="M20.6863499,35.3059998c-0.1947803,2.4970016-2.0688896,3.9780006-4.187521,3.3089981
					c-2.2877617-0.9454651-3.6980333-3.26548-3.4841099-5.7316513c0.1954699-2.4955597,2.0702896-3.9773293,4.188921-3.30756
					C19.4918156,30.5197945,20.9020901,32.8401642,20.6863499,35.3059998"/>
				<path class="st2" d="M17.5078106,39.2592812c-0.3919144-0.0014915-0.7812538-0.0634193-1.1542892-0.1836014
					c-2.4956188-1.0213814-4.0418024-3.5419769-3.82129-6.2294884c0.0499725-1.3239269,0.7006683-2.552887,1.7675695-3.3383808
					c0.9003506-0.5976143,2.0272465-0.7430305,3.0498104-0.3935509c2.4960594,1.0203362,4.0420189,3.5416584,3.8193398,6.229002
					v0.0009995c-0.0497475,1.3236237-0.7000885,2.5524025-1.7666092,3.3378906
					C18.8432446,39.0606842,18.182991,39.2618141,17.5078106,39.2592812z M16.1992207,29.8999004
					c-0.4836969-0.0026703-0.9570093,0.1402416-1.3584003,0.4101601c-0.8207722,0.621603-1.3150501,1.58214-1.34375,2.61133
					c-0.2009106,2.243145,1.0716972,4.3587608,3.1474609,5.2324181c0.7413826,0.2572861,1.5601616,0.156292,2.2168007-0.2734413
					c0.8201599-0.6220207,1.3139954-1.5824127,1.3427677-2.6113663l0,0c0.2037411-2.2432404-1.0688152-4.3600826-3.1455097-5.23242
					C16.7807159,29.9477348,16.4909477,29.9016476,16.1992207,29.8999004z M20.6865196,35.3061523L20.6865196,35.3061523z"/>
				<polygon class="st0" points="44.007,34.0040016 27.2609997,24.6630001 27.2609997,10.7720003 44.007,17.9470005 				"/>
				<path class="st2" d="M44.0068398,34.4877892c-0.0822868-0.0001373-0.1632195-0.0209579-0.2353592-0.0605392
					l-16.7451115-9.3422508c-0.1531582-0.0853806-0.248064-0.2470112-0.2479992-0.4223595V10.7720003
					c-0.0003319-0.2669411,0.2157974-0.4836082,0.4827385-0.4839401c0.0656948-0.000082,0.1307144,0.0132294,0.1910915,0.0391197
					l16.7450695,7.1748209c0.1777916,0.0763931,0.2930107,0.2513218,0.2929993,0.4448299v16.05756
					c0.0004578,0.2665138-0.2152252,0.4829407-0.481739,0.4833984c-0.0005531,0-0.0011024,0-0.0016518,0H44.0068398z
					 M27.7451191,24.3784199l15.7783184,8.8017597V18.2656193l-15.7783184-6.7602491V24.3784199z"/>
				<polygon class="st0" points="25.2759991,41.2970009 8.4219999,33.3549995 8.4219999,16.9740009 25.2759991,24.3549995 				"/>
				<path class="st2" d="M25.2753906,41.779789c-0.0712509,0.0002975-0.1416626-0.0153847-0.2060509-0.0458984L8.2158203,33.7924805
					c-0.1695089-0.0796623-0.2776194-0.250206-0.2773399-0.4375V16.9736309
					c0.0000052-0.2672443,0.2166538-0.4838867,0.4838991-0.483881c0.0667124,0.0000019,0.1327047,0.0137978,0.1938305,0.0405216
					l16.8535194,7.3818398c0.1757507,0.0773849,0.289156,0.2513256,0.2890606,0.4433594v16.9409199
					C25.7586746,41.5633163,25.5423164,41.7796745,25.2753906,41.779789z M8.9052696,33.0483398l15.8867302,7.4853516V24.6718807
					L8.9052801,17.7138805L8.9052696,33.0483398z"/>
				<polygon class="st0" points="44.007,34.0040016 25.2759991,41.1570015 25.2759991,24.2169991 44.007,17.9470005 				"/>
				<path class="st2" d="M25.2753906,41.6401405c-0.2664223,0.0005531-0.4828472-0.2149773-0.4834003-0.4813957
					c-0.0000019-0.0006676-0.0000019-0.0013351,0-0.0020027V24.2172909c0.0000324-0.2080116,0.1328945-0.392767,0.33008-0.4589996
					l18.7314491-6.2705097c0.2535591-0.0844059,0.5275345,0.0527191,0.6119423,0.3062801
					c0.0163918,0.0492477,0.0247574,0.1008129,0.0247688,0.1527195v16.0576096
					c0.0002861,0.2005386-0.1232643,0.3804283-0.3105392,0.4521484l-18.731451,7.1523514
					C25.3930206,41.6297913,25.3344326,41.6403847,25.2753906,41.6401405z M25.758791,24.5654297v15.8891602l17.7646503-6.7831993
					V18.6186504L25.758791,24.5654297z M44.0067902,34.0044289L44.0067902,34.0044289z"/>
				<polygon class="st0" points="25.2759991,24.2169991 8.4219999,16.9729996 27.2619991,10.7720003 44.007,17.9470005 				"/>
				<path class="st2" d="M25.2753906,24.7006798c-0.0658302-0.0000134-0.1309643-0.0134735-0.1914101-0.0395508
					L8.2304697,17.4179993c-0.2453942-0.1056271-0.3586979-0.3901882-0.2530699-0.635582
					c0.0547733-0.1272507,0.161478-0.2249107,0.2930698-0.2682285l18.83988-6.201189
					c0.1118908-0.0370808,0.2334919-0.0318689,0.3418007,0.0146503l16.7451191,7.1743507
					c0.2456779,0.1053352,0.3594437,0.3898869,0.2541084,0.6355629c-0.0543861,0.1268482-0.1603394,0.2244434-0.2912178,0.2682476
					l-18.7314491,6.2700005C25.3792725,24.6922894,25.3275013,24.7006855,25.2753906,24.7006798z M9.7871103,17.03368
					l15.5097704,6.6660004l17.3515606-5.8085995l-15.4091816-6.6020212L9.7871103,17.03368z"/>
				<line class="st3" x1="53.811161" y1="56.7696609" x2="74.9925308" y2="67.2787323"/>
				<path class="st2" d="M74.9921875,67.762207c-0.074501,0.0001602-0.1480255-0.0168839-0.2148514-0.0498123L53.5966797,57.2036095
					c-0.2396049-0.1183739-0.337883-0.4085732-0.2195129-0.6481781c0.1183739-0.2396049,0.4085732-0.337883,0.6481781-0.2195091
					c0.0003433,0.0001678,0.0006828,0.0003357,0.0010262,0.0005074l21.1806297,10.5087776
					c0.2393799,0.1184006,0.3374557,0.4084396,0.2190552,0.6478195c-0.0816116,0.1650009-0.2498169,0.2693558-0.4338989,0.2691803
					H74.9921875z"/>
				<line class="st3" x1="66.1728973" y1="56.882309" x2="77.5640106" y2="62.8073311"/>
				<path class="st2" d="M77.5644531,63.2905312c-0.077858-0.0000038-0.1545639-0.0187607-0.2236328-0.0546913l-11.3916016-5.924839
					c-0.2362213-0.1245651-0.3267365-0.417038-0.2021713-0.6532593c0.1237793-0.2347298,0.4136047-0.3258476,0.6494293-0.2041702
					l11.3916092,5.9248085c0.2367477,0.1234398,0.328598,0.415432,0.205162,0.6521797
					c-0.0833206,0.15979-0.2485962,0.2599792-0.4288025,0.2599297L77.5644531,63.2905312z"/>
				<line class="st3" x1="63.1138496" y1="52.9398689" x2="75.6371613" y2="58.8536797"/>
				<path class="st2" d="M75.6367188,59.3373985c-0.0715256-0.0000153-0.1421738-0.0156822-0.2070007-0.0458984
					l-12.5224876-5.9140587c-0.2416229-0.1143379-0.3448105-0.4029045-0.2304688-0.6445274
					c0.1143379-0.2416267,0.4029045-0.3448105,0.6445274-0.2304726L75.84375,58.4165001
					c0.2415161,0.1140404,0.3448486,0.4022751,0.2308044,0.6437912c-0.0799637,0.1693497-0.2505264,0.2773056-0.4378052,0.2771072
					H75.6367188z"/>
				<path class="st0" d="M32.7703094,41.8567009c0,0,4.8180618-2.7232399-0.3460999-7.0690994
					c0,0,7.7241592,1.226059,7.3241196-6.6108894c1.8608093,4.0634995,6.7237015,4.1398697,10.3297195,0.4028397
					c-2.0688896,4.7024612,0.2704315,6.6025085,3.8883591,5.4822388"/>
				<path class="st2" d="M32.7714806,42.3403282c-0.2672577,0.0003014-0.4841537-0.2161102-0.4844513-0.4833679
					c-0.0001984-0.1740112,0.0930519-0.3347321,0.2442207-0.4209213c0.9293671-0.5443382,1.5802155-1.4615746,1.7871094-2.5185585
					c0.1064415-1.1738281-0.6357384-2.4384804-2.2060585-3.7597694c-0.20438-0.1718712-0.2307339-0.4768829-0.0588646-0.681263
					c0.1090965-0.1297302,0.2781601-0.1928596,0.4455833-0.1663857c0.0322304,0.0029297,3.2343788,0.4785118,5.2011795-1.2939987
					c1.1484299-1.0341797,1.6748009-2.6542892,1.5644493-4.8144493c-0.013649-0.2668457,0.1916046-0.4942341,0.4584503-0.507885
					c0.1977921-0.0101185,0.3817749,0.1013355,0.4644012,0.2813244c0.5959473,1.4484062,1.8865356,2.4951439,3.4267616,2.7792892
					c2.3251953,0.2040081,4.6049995-0.7318668,6.1162109-2.5107403c0.185318-0.1921158,0.491291-0.1976261,0.6834068-0.0123062
					c0.1459122,0.140749,0.1884766,0.3576031,0.1065941,0.543066c-0.8945312,2.0346699-0.9775391,3.6157284-0.2314491,4.4526386
					c0.651371,0.7294884,1.9375,0.8652382,3.5351601,0.3730011c0.255291-0.0781555,0.5256004,0.0654373,0.603756,0.3207283
					c0.0779037,0.2544594-0.0645027,0.524025-0.3185959,0.6030998c-1.9716797,0.6123009-3.6289101,0.3730011-4.5419998-0.6533203
					c-0.7897873-1.0748291-0.9933243-2.4720592-0.5429993-3.7275391c-1.5715332,1.2494621-3.5800438,1.8133659-5.572258,1.5644493
					c-1.2821541-0.2147999-2.4413376-0.8914833-3.2587891-1.9023399c-0.0963478,1.4983463-0.7573242,2.9044075-1.8496094,3.9345703
					c-1.3053665,1.0631599-2.9446449,1.630455-4.6279297,1.6015587c1.0321579,0.9368057,1.6039009,2.2775307,1.5654297,3.6708984
					c-0.2336121,1.3725395-1.0666275,2.569622-2.2724609,3.2656212
					C32.9364586,42.3189278,32.8546677,42.3405113,32.7714806,42.3403282z"/>
				<path class="st2" d="M60.5121498,47.2725983c-1.0978584,2.3407211-5.4002686,4.1693115-10.937851,4.1693115
					c-5.5382805,0-9.8400002-1.8285904-10.9385414-4.1693115c-0.0960007,0.2060013-0.2164917-1.1931114-0.2164917-1.3983917
					c0-0.3355904-0.0763588,2.6839981-0.023819,3.0027809c0.4406815,2.6909981,5.0555687,4.9266586,11.1788483,4.9266586
					c6.2865295,0,10.9833679-2.3547211,11.2047691-5.1424294c0.0203094-0.2487297-0.0489998-2.5817299-0.0489998-2.5817299
					c-0.0462303-0.2143898-0.1204987,1.3990898-0.2178688,1.1931114"/>
				<path class="st2" d="M49.5742188,54.2866211c-6.1474609,0-11.1581993-2.2919998-11.65625-5.3310013
					c-0.065052-0.9705048-0.0588531-1.9444733,0.0185509-2.9140701c-0.0009995-0.0537109-0.0009995-0.1093712-0.0009995-0.1669998
					l0.0283203-0.0009995c0.0104065-0.1526871,0.0692596-0.2980728,0.1679993-0.4150009
					c0.1471443-0.1074562,0.3420029-0.1236649,0.504879-0.0419998c0.1646881,0.0935631,0.2661972,0.2685928,0.2656212,0.4580002
					c0.0184631,0.3672142,0.0556221,0.7332458,0.1113281,1.0966797c0.0239182,0.029541,0.0439377,0.0620346,0.0595703,0.0966797
					c0.9082108,1.932621,4.8056679,3.8906288,10.5009995,3.8906288s9.5927696-1.9580002,10.4990005-3.8906288
					c0.0125542-0.0259323,0.0272713-0.0507584,0.0439987-0.0742188c0.0205116-0.1347618,0.0380783-0.3330002,0.0566406-0.5107384
					c0.0537109-0.53125,0.0898399-0.8818398,0.5195312-0.90625c0.2443008-0.0081139,0.459198,0.1602631,0.5097618,0.3994102
					c0.0273514,0.6425781,0.0791092,2.46875,0.0586014,2.7255898
					C61.0078087,51.8852501,55.9833984,54.2866211,49.5742188,54.2866211z M38.8613281,48.4858398
					c0.0019989,0.1552696,0.0058594,0.2685509,0.0117188,0.3164101c0.3632812,2.21875,4.4658203,4.5175705,10.7011719,4.5175705
					c6.3925781,0,10.5429993-2.4384689,10.7226601-4.6962814c0.0019989-0.0253983,0.0029182-0.0781288,0.0029182-0.1533318
					c-1.8037109,2.1025391-5.8916016,3.4550781-10.7255783,3.4550781
					C44.7529297,51.9252892,40.6718788,50.5795898,38.8613281,48.4858398z"/>
				<path class="st4" d="M60.7299118,45.5409088c-0.5871124-2.7764893-5.5565224-4.8229103-11.1557312-4.8229103
					c-5.5978394,0-10.5686302,2.0471687-11.1549988,4.8229485c-0.1220932,0.5853233-0.0459328,1.1946373,0.2164803,1.7318993
					c1.0985489,2.3400002,5.4002686,4.1686096,10.938549,4.1686096c5.537571,0,9.8400002-1.8285904,10.9378395-4.1686096
					c0.2625008-0.5372162,0.3391418-1.1464043,0.2178917-1.7318993"/>
				<path class="st2" d="M49.5742188,51.9252892c-5.5556717,0-10.1269493-1.7871094-11.3759995-4.4462891
					c-0.3073654-0.6326981-0.3963127-1.3494415-0.2529297-2.0380783c0.6279297-2.96875,5.6269989-5.2060585,11.6289101-5.2060585
					s11.0009995,2.2373085,11.6288986,5.2060585l0,0c0.1433334,0.6883087,0.05439,1.4047165-0.2528992,2.0370789
					C59.7021484,50.1381798,55.129879,51.9252892,49.5742188,51.9252892z M49.5742188,41.2016602
					c-5.463871,0-10.1552696,1.9501991-10.6816406,4.4384804c-0.0996361,0.4828796-0.0357323,0.9851837,0.1816406,1.4277306
					c0.9072304,1.932621,4.8056602,3.8906288,10.5,3.8906288s9.5927696-1.9580002,10.5-3.8906288
					c0.2167854-0.4427223,0.2806625-0.944828,0.1816406-1.4277306
					C59.7294884,43.1518593,55.0380898,41.2016602,49.5742188,41.2016602z"/>
				<path class="st2" d="M60.5121498,45.0548401c-1.0978584,2.3400002-5.4002686,4.1693115-10.937851,4.1693115
					c-5.5382805,0-9.8400002-1.8292694-10.9385414-4.1693115c-0.0960007,0.2060013-0.2164917-1.1931114-0.2164917-1.3983917
					c0-0.3355904-0.0763588,2.6839981-0.023819,3.0027809c0.4406815,2.6909981,5.0555687,4.9266586,11.1788483,4.9266586
					c6.2865295,0,10.9833679-2.3554306,11.2047691-5.1424408c0.0203094-0.2501297-0.0489998-2.5817184-0.0489998-2.5817184
					c-0.0462303-0.2143898-0.1204987,1.3990898-0.2178688,1.1931114"/>
				<path class="st2" d="M49.5742188,52.0688515c-6.1474609,0-11.1581993-2.2919998-11.65625-5.3310585
					c-0.065052-0.9705009-0.0588531-1.9444656,0.0185509-2.9140587c-0.0009995-0.0537109-0.0009995-0.1093712-0.0009995-0.1669998
					l0.0283203-0.0009995c0.0104065-0.1526871,0.0692596-0.2980728,0.1679993-0.4150009
					c0.146965-0.107933,0.3420982-0.1241646,0.504879-0.0419998c0.1646881,0.0935631,0.2661972,0.2685928,0.2656212,0.4580002
					c0.0184631,0.3672142,0.0556221,0.7332458,0.1113281,1.0966797c0.0236969,0.0293427,0.043705,0.0614815,0.0595703,0.0956993
					c0.9082108,1.9335899,4.8066406,3.8916016,10.5009995,3.8916016s9.5927696-1.9580002,10.5-3.8906212
					c0.0118332-0.026104,0.0262375-0.0509682,0.0429993-0.0742188c0.0205116-0.1347694,0.0380783-0.3330002,0.0566406-0.5107384
					c0.0537109-0.53125,0.0898399-0.8818398,0.5195312-0.90625c0.242775-0.0035133,0.4550934,0.1628456,0.5097618,0.3994102
					c0.0273514,0.6425781,0.0791092,2.4668007,0.0586014,2.7246094
					C61.0078087,49.6674805,55.9833984,52.0688515,49.5742188,52.0688515z M38.8613281,46.2670898
					c0.0019989,0.15625,0.0058594,0.2695312,0.0117188,0.317379c0.3632812,2.21875,4.4658203,4.5175819,10.7011719,4.5175819
					c6.3925781,0,10.5429993-2.4384804,10.7226601-4.6962891c0.0019989-0.0253906,0.0029182-0.0781212,0.0029182-0.1543007
					c-1.8037109,2.1035194-5.8916016,3.4560585-10.7255783,3.4560585
					C44.7529297,49.7075195,40.6718788,48.3618202,38.8613281,46.2670898z"/>
				<path class="st5" d="M60.7299118,43.3230782c-0.5871086-2.7764816-5.5565186-4.8215485-11.1557312-4.8215485
					c-5.5978394,0-10.5686302,2.0450706-11.1549988,4.8215485c-0.1220055,0.585331-0.0458488,1.1946182,0.2164803,1.7319107
					c1.0985489,2.3400002,5.4002686,4.1685982,10.938549,4.1685982c5.537571,0,9.8400002-1.8285904,10.9378395-4.168602
					c0.2624168-0.5372467,0.3390579-1.1464081,0.2178917-1.7319107"/>
				<path class="st2" d="M49.5742188,49.7065392c-5.5556717,0-10.1279297-1.786129-11.3759995-4.4453087
					c-0.3083115-0.6324234-0.3973007-1.3494911-0.2529297-2.0380898c0.6279297-2.9677696,5.6269989-5.2050705,11.6289101-5.2050705
					s11.0009995,2.2373009,11.6288986,5.2050705l0,0c0.1433334,0.6883202,0.0543861,1.4047394-0.2529182,2.0371094
					C59.7021484,47.9204102,55.1308594,49.7065392,49.5742188,49.7065392z M49.5742188,38.9848595
					c-5.463871,0-10.15625,1.9492188-10.6816406,4.4375c-0.0996361,0.4828796-0.0357285,0.9851875,0.1816406,1.4277382
					c0.9072304,1.9326096,4.8056602,3.8896484,10.5,3.8896484c5.6953087,0,9.5927696-1.9570007,10.5-3.8896484
					c0.2172585-0.442585,0.2811584-0.9448547,0.1816406-1.4277382
					C59.7294884,40.9340782,55.0380898,38.9848595,49.5742188,38.9848595z"/>
				<path class="st0" d="M48.9741096,15.9187803c-0.4597511-1.6527395-1.9585609-2.8011198-3.6739998-2.8149996"/>
				<path class="st2" d="M48.973629,16.4028301c-0.2107239-0.0000916-0.3971558-0.1365585-0.4609299-0.3374004
					c-0.4001961-1.4656305-1.7327156-2.4814091-3.2519989-2.4790001c-0.2661438-0.0217476-0.4644699-0.2548056-0.4433594-0.5209999
					c0.0267792-0.2638025,0.2567978-0.4595747,0.5214882-0.4438496c1.9088554,0.0374231,3.5700874,1.3154345,4.0956993,3.1508799
					c0.0809898,0.2543993-0.0595894,0.5262861-0.3139877,0.6072741c-0.0001526,0.0000496-0.000309,0.0000973-0.0004616,0.0001469
					C49.0727539,16.3951092,49.0233421,16.4028511,48.973629,16.4028301z"/>
				<path class="st0" d="M49.7554207,12.4288597c-0.2515068-0.7215376-0.8695717-1.2535582-1.6204987-1.3949003"/>
				<path class="st2" d="M49.7558594,12.9125996c-0.2021217-0.000103-0.3828583-0.1259146-0.4531288-0.3154297
					c-0.1958885-0.5647316-0.6798515-0.9808426-1.2675705-1.0898495c-0.2613068-0.0550127-0.4285431-0.3114414-0.3735313-0.5727491
					c0.0550156-0.2613077,0.3114433-0.4285431,0.5727501-0.3735304c0.9129066,0.1762667,1.6642036,0.8227854,1.9746017,1.6992102
					c0.0930328,0.250535-0.0346489,0.5290518-0.285183,0.6220846
					C49.8700523,12.9022932,49.8131905,12.9125404,49.7558594,12.9125996z"/>
				<path class="st0" d="M20.1180801,45.0489998c1.1170998,1.3068542,2.9625416,1.719841,4.5301094,1.0137901"/>
				<path class="st2" d="M22.9834003,46.8676796c-1.2384491-0.00811-2.4128513-0.5515137-3.2206993-1.4902382
					c-0.1818466-0.1957359-0.1705856-0.5018311,0.0251503-0.6836777c0.1957378-0.1818466,0.5018311-0.1705856,0.6836777,0.0251503
					c0.0007038,0.0007591,0.0014038,0.0015182,0.0021019,0.0022774c0.9845333,1.1631317,2.6242161,1.52631,4.0078201,0.8876991
					c0.2507915-0.0922318,0.5288677,0.0363083,0.6210995,0.2871017c0.0922318,0.2507896-0.0363083,0.5288658-0.2870998,0.6210976
					C24.2302227,46.7410812,23.6099815,46.8597755,22.9834003,46.8676796z"/>
				<path class="st0" d="M20.8958893,48.5458717c0.5338192,0.5491867,1.319788,0.7723808,2.0625706,0.5857201"/>
				<path class="st2" d="M22.42383,49.6772499c-0.7030525-0.001358-1.3761234-0.2849388-1.8681698-0.7871094
					c-0.1903896-0.1876907-0.1925774-0.4941864-0.0048866-0.6845741c0.1876926-0.1903915,0.4941864-0.1925774,0.684576-0.0048866
					c0.4145145,0.435276,1.0327396,0.6110649,1.6142597,0.4589996c0.259901-0.0624847,0.521244,0.0975533,0.5837288,0.3574524
					s-0.0975513,0.521244-0.3574524,0.5837288c-0.0031509,0.0007591-0.0063095,0.0014839-0.0094757,0.0021782
					C22.8557034,49.6519394,22.6401367,49.6768341,22.42383,49.6772499z"/>
			</g>
		</g>
		<path class="st2" d="M45.0918007,71.560997H29.90625C15.2810087,71.5443573,3.4292061,59.692131,3.41309,45.0668907V29.8813496
			C3.4291427,15.2559977,15.280899,3.4035838,29.90625,3.3867199h15.1855507
			c14.625679,0.016458,26.4779472,11.8689528,26.4941368,26.4946289v15.1855412
			c-0.0572586,10.1333809-5.8437653,19.3617439-14.9404259,23.8271065
			C53.049736,70.6571884,49.0965958,71.5697098,45.0918007,71.560997z M29.90625,6.6122999
			C17.0614967,6.6271362,6.6526947,17.0365963,6.63867,29.8813496v15.1855412
			C6.6525583,57.9116211,17.0615196,68.321022,29.90625,68.3354492h15.1855507
			c3.5139275,0.0075912,6.9825401-0.7929916,10.1376915-2.3398438c7.9926186-3.9205856,13.0783157-12.0264587,13.1308594-20.9287148
			V29.8813496C68.3462143,17.0362625,57.9368896,6.6267114,45.0918007,6.6122999H29.90625z"/>
		<path class="st3" d="M29.8808594,74.9487305C13.3852644,74.9296494,0.0180037,61.5615196,0,45.0659218V29.8823204
			C0.0182185,13.3868933,13.3854332,0.0190251,29.8808594,0h15.1855507
			C61.562027,0.0189451,74.9295654,13.3867035,74.9482422,29.8823204v15.1836014
			c-0.060997,11.4269485-6.5843201,21.8349037-16.8417931,26.8710747c-4.0582161,1.9905472-8.5198975,3.021019-13.0400009,3.0117188
			L29.8808594,74.9487305z"/>
		<path class="st3" d="M29.8810005,5.0000701C16.1557274,5.0403204,5.0395217,16.1574726,5.0004401,29.8827496v15.1835003
			C5.039773,58.79142,16.1558323,69.9084244,29.8810005,69.9489288h15.1856003
			c3.7590218,0.0027924,7.4689217-0.85392,10.8460999-2.5046463c8.5662117-4.1690788,14.011776-12.851162,14.0359077-22.3779984
			V29.8827496c-0.0397491-13.7255611-11.1564407-24.842556-24.882-24.8826809L29.8810005,5.0000701z"/>
	</g>
</g>
</svg>
