<svg xmlns="http://www.w3.org/2000/svg" viewBox="0 0 74.948 74.948"><defs><style>.cls-1{fill:#fff}.cls-2{fill:#c7d932}.cls-3{fill:#6bb72d}.cls-4{fill:none}</style></defs><g id="レイヤー_2" data-name="レイヤー 2"><g id="レイヤー_2-2" data-name="レイヤー 2"><path class="cls-1" d="M29.882 5h15.185A24.881 24.881 0 0169.948 29.88v15.185a24.882 24.882 0 01-24.882 24.882H29.882A24.882 24.882 0 015 45.066V29.881A24.881 24.881 0 0129.882 5z"/><path class="cls-2" d="M32.707 50.548c-.202 2.787-2.15 4.442-4.35 3.695-2.2-.746-3.822-3.612-3.62-6.399s2.15-4.442 4.35-3.695 3.822 3.612 3.62 6.4"/><path class="cls-3" d="M29.401 54.905a3.725 3.725 0 01-1.2-.204c-2.393-.811-4.163-3.904-3.945-6.892a4.814 4.814 0 011.936-3.763 3.416 3.416 0 013.051-.355c2.393.813 4.163 3.905 3.946 6.893a4.812 4.812 0 01-1.933 3.76 3.322 3.322 0 01-1.855.561zM28.04 44.453a2.35 2.35 0 00-1.312.399 3.871 3.871 0 00-1.506 3.027c-.188 2.577 1.289 5.226 3.29 5.906a2.447 2.447 0 002.21-.247 3.863 3.863 0 001.504-3.024c.186-2.577-1.29-5.227-3.292-5.907a2.771 2.771 0 00-.894-.154z"/><path class="cls-1" d="M37.474 57.238L19.966 48.37V31.118l17.508 8.555v17.565z"/><path class="cls-3" d="M37.475 57.72a.48.48 0 01-.22-.051l-17.508-8.867a.484.484 0 01-.265-.432V31.118a.483.483 0 01.696-.434l17.509 8.554a.482.482 0 01.271.435v17.564a.483.483 0 01-.483.484zm-17.026-9.647l16.542 8.377V39.975L20.45 31.893z"/><path class="cls-1" d="M54.983 31.118l-17.509 8.555v17.565l17.509-8.868V31.118z"/><path class="cls-3" d="M37.475 57.72a.483.483 0 01-.484-.483V39.673a.482.482 0 01.272-.435l17.508-8.554a.483.483 0 01.696.434V48.37a.484.484 0 01-.265.432l-17.509 8.867a.48.48 0 01-.218.052zm.483-17.745V56.45L54.5 48.073v-16.18z"/><path class="cls-1" d="M37.474 39.673l17.509-8.556-17.509-8.429-17.508 8.429 17.508 8.556z"/><path class="cls-3" d="M37.475 40.156a.474.474 0 01-.212-.049l-17.51-8.555a.484.484 0 01.003-.87l17.509-8.43a.48.48 0 01.42 0l17.508 8.43a.484.484 0 01.002.87l-17.508 8.555a.474.474 0 01-.212.05zm-16.4-9.036l16.4 8.015 16.4-8.015-16.4-7.895z"/><path class="cls-1" d="M33.695 18.34a5.364 5.364 0 017.56 0"/><path class="cls-3" d="M41.254 18.823a.486.486 0 01-.34-.14 4.88 4.88 0 00-6.879 0 .484.484 0 11-.681-.687 5.85 5.85 0 018.24 0 .483.483 0 01-.34.827z"/><path class="cls-1" d="M42.967 15.681a8.471 8.471 0 00-10.987 0"/><path class="cls-3" d="M42.968 16.165a.477.477 0 01-.314-.115 7.985 7.985 0 00-10.36 0 .484.484 0 11-.627-.737 8.953 8.953 0 0111.614 0 .483.483 0 01-.313.852z"/><path class="cls-1" d="M60.622 47.653a5.363 5.363 0 01-4.402 6.146"/><path class="cls-3" d="M56.22 54.282a.483.483 0 01-.08-.96 4.88 4.88 0 004.005-5.593.484.484 0 01.4-.554.493.493 0 01.555.4 5.845 5.845 0 01-4.8 6.7.447.447 0 01-.08.007z"/><path class="cls-1" d="M57.385 56.741a8.47 8.47 0 006.396-8.932"/><path class="cls-3" d="M57.385 57.225a.484.484 0 01-.117-.954 7.986 7.986 0 006.03-8.422.484.484 0 01.966-.08 8.957 8.957 0 01-6.762 9.442.486.486 0 01-.117.014z"/><path class="cls-1" d="M14.805 47.653a5.364 5.364 0 004.403 6.146"/><path class="cls-3" d="M19.209 54.282a.447.447 0 01-.081-.007 5.845 5.845 0 01-4.8-6.7.484.484 0 11.954.154 4.88 4.88 0 004.006 5.593.483.483 0 01-.079.96z"/><path class="cls-1" d="M18.044 56.741a8.472 8.472 0 01-6.397-8.932"/><path class="cls-3" d="M18.044 57.225a.486.486 0 01-.117-.014 8.956 8.956 0 01-6.763-9.442.497.497 0 01.523-.443.485.485 0 01.442.523 7.986 7.986 0 006.032 8.422.484.484 0 01-.117.954z"/><path class="cls-2" d="M45.065 71.562H29.88A26.524 26.524 0 013.385 45.066V29.881A26.523 26.523 0 0129.879 3.388h15.186A26.522 26.522 0 0171.558 29.88v15.185a26.523 26.523 0 01-26.493 26.496zM29.88 6.613A23.294 23.294 0 006.61 29.881v15.185a23.295 23.295 0 0023.269 23.27h15.186a23.294 23.294 0 0023.267-23.27V29.881A23.293 23.293 0 0045.065 6.613z"/><path class="cls-4" d="M29.88 0h15.186a29.882 29.882 0 0129.882 29.882v15.184a29.882 29.882 0 01-29.882 29.882H29.881A29.88 29.88 0 010 45.068V29.88A29.88 29.88 0 0129.88 0z"/><rect class="cls-4" x="5" y="5" width="64.948" height="64.948" rx="24.881"/></g></g></svg>