<?xml version="1.0" encoding="utf-8"?>
<!-- Generator: Adobe Illustrator 23.0.2, SVG Export Plug-In . SVG Version: 6.00 Build 0)  -->
<svg version="1.1" id="レイヤー_1" xmlns="http://www.w3.org/2000/svg" xmlns:xlink="http://www.w3.org/1999/xlink" x="0px"
	 y="0px" viewBox="0 0 74.8496246 74.9472733" style="enable-background:new 0 0 74.8496246 74.9472733;" xml:space="preserve">
<style type="text/css">
	.st0{fill:#FFFFFF;}
	.st1{clip-path:url(#SVGID_2_);}
	.st2{fill:#EA6350;}
	.st3{fill:none;}
</style>
<title>アセット 6102</title>
<g>
	<g id="レイヤー_2-2">
		<path class="st0" d="M29.9328499,5.0224633h15.1863289c13.741539,0,24.8812637,11.139719,24.8812637,24.8812599
			c0,0,0-0.0000019,0,0v15.185648c0,13.741539-11.1397171,24.8812637-24.8812561,24.8812637c-0.0000038,0-0.0000038,0-0.0000076,0
			H29.9328499c-13.7411652,0-24.880579-11.1394157-24.8805809-24.8805809V29.9029922
			C5.0522985,16.1618462,16.1917038,5.0224648,29.9328499,5.0224633z"/>
		<g>
			<defs>
				<path id="SVGID_1_" d="M29.91395,4.9998231h15.1863003c13.7415504,0,24.881279,11.1397266,24.8812866,24.881279v15.1856022
					c0,13.7411461-11.139389,24.8805542-24.8805351,24.8805771H29.9140015
					C16.1724434,69.9473114,5.0326881,58.8075981,5.03266,45.06604c0-0.0000153,0-0.0000305,0-0.0000458V29.8811016
					C5.0326662,16.1395473,16.1723957,4.9998236,29.91395,4.9998231z"/>
			</defs>
			<clipPath id="SVGID_2_">
				<use xlink:href="#SVGID_1_"  style="overflow:visible;"/>
			</clipPath>
			<g class="st1">
				<path class="st2" d="M33.9265213,47.2557526c12.0146599,1.6856613,17.3245506-4.5518112,25.6539993-6.7629318
					c6.1280823-1.6087646,12.5681229-1.6049156,18.6942825,0.0111732c4.7829971,1.3409996,7.7865295,3.6214294,1.5623322,6.1562195
					c-7.3458328,2.993679-33.0587196,8.5312691-38.5437584,3.4049301"/>
				<path class="st2" d="M50.4980507,52.6415939c-4.2968788,0-7.8212891-0.6206017-9.5351601-2.2226486
					c-0.1939468-0.1836777-0.2022667-0.4897995-0.0185928-0.6837463c0.1818466-0.192009,0.4841919-0.2023697,0.6787529-0.0232544
					c5.2314415,4.8896484,30.9999962-0.6342697,38.0312462-3.4995117c2.853508-1.1621094,3.2392502-2.0561485,3.2148438-2.4858398
					c-0.0400009-0.7031212-1.3027267-1.7968712-4.7255936-2.7568283
					c-6.0412292-1.6055069-12.3966064-1.6087036-18.4394493-0.0092812
					c-2.5963898,0.7659225-5.1118774,1.7832756-7.5107384,3.0376015
					c-4.9814491,2.4028282-10.1347694,4.8867188-18.3339996,3.7368088
					c-0.2646942-0.0361519-0.4499626-0.2800369-0.4138107-0.5447311s0.2800369-0.4499626,0.5447311-0.4138107
					c0.0012817,0.0001755,0.0025635,0.0003548,0.0038414,0.0005417c7.9052696,1.1083908,12.9277382-1.3095703,17.7783203-3.6503983
					c2.455513-1.2785072,5.0286217-2.3171692,7.6835899-3.1015587c6.2102509-1.6421967,12.7412567-1.6376495,18.9492188,0.0131912
					c2.4208984,0.6791992,5.3291092,1.8608398,5.4296875,3.6337891c0.0703125,1.2382812-1.1777267,2.3623009-3.8154297,3.4365196
					C74.6855469,49.2817307,60.4970703,52.6415939,50.4980507,52.6415939z"/>
				<path class="st0" d="M32.9432182,61.4406929c-1.7322769,0.0166168-3.1500359-1.3742027-3.1666527-3.1064796
					c-0.0031338-0.326786,0.0448189-0.6520538,0.1421223-0.9640312c0.7896099-2.1745071,2.9292545-3.5583763,5.236311-3.3867111
					c1.7327385-0.0167618,3.1509933,1.3743134,3.1677551,3.1070518c0.0031586,0.32658-0.044693,0.6516533-0.1418228,0.9634705
					c-0.7899284,2.1748962-2.9302101,3.5588074-5.237709,3.3867111"/>
				<path class="st2" d="M33.3222694,61.9404221c-0.1396523,0-0.2793198-0.0058594-0.4189987-0.0175781l0,0
					c-1.2035427-0.0622139-2.3147736-0.6641159-3.0244102-1.6381798c-0.6019859-0.8985443-0.7582207-2.0236816-0.42383-3.0522499
					c0.8606339-2.3898773,3.2067699-3.9148026,5.7402287-3.730999c1.2028236,0.0621681,2.31353,0.6632652,3.0234413,1.6362419
					c0.6021957,0.8991241,0.7591057,2.0246468,0.4257812,3.0541916
					C37.8358116,60.4367104,35.7083359,61.9351463,33.3222694,61.9404221z M32.9833984,60.958992
					c2.081459,0.1616974,4.0161133-1.0818367,4.7333984-3.0424805c0.2483253-0.7503204,0.1389122-1.5730782-0.2968788-2.2324219
					c-0.5424232-0.7361679-1.3908997-1.1848526-2.3046913-1.21875c-2.0812721-0.1618729-4.0157433,1.0817986-4.73242,3.0424805
					c-0.248436,0.7495995-0.139761,1.571701,0.29492,2.230999C31.2200813,60.475769,32.0690155,60.9250298,32.9833984,60.958992z"/>
				<polygon class="st0" points="43.8129997,57.0119934 27.5330009,49.5809937 27.5330009,35.4299927 43.8129997,41.9869919 				"/>
				<path class="st2" d="M43.8125,57.4956017c-0.0694313-0.000103-0.1380348-0.01511-0.2011719-0.0439987l-16.2793274-7.4306107
					c-0.17206-0.0788155-0.2823429-0.2507477-0.2822304-0.4399986V35.430172
					c-0.000103-0.2670403,0.2162952-0.4836044,0.4833355-0.4837036c0.0619278-0.0000267,0.1232853,0.0118484,0.1807346,0.0349731
					l16.2792892,6.5571213c0.1831474,0.0736351,0.3030357,0.2513351,0.3027382,0.4487305v15.0244179
					c0.000061,0.2670784-0.21632,0.4836807-0.4833984,0.4838905H43.8125z M28.0165997,49.2699928l15.3125019,6.9892616V42.3139915
					l-15.3125019-6.1675186V49.2699928z"/>
				<polygon class="st0" points="25.6019993,63.6769905 9.2189999,56.4179916 9.2189999,41.0979919 25.6019993,47.8449936 				"/>
				<path class="st2" d="M25.6025391,64.1606293c-0.0676003-0.000061-0.1344471-0.0141983-0.1962891-0.0414963L9.02246,56.8608322
					c-0.1747551-0.0777168-0.2872963-0.2511215-0.2871103-0.442379V41.0976524
					c-0.000185-0.1612358,0.0800266-0.3119507,0.21387-0.4018593c0.1345987-0.0891418,0.3045139-0.1061363,0.4540997-0.0454102
					l16.3837891,6.7476082c0.1808701,0.0749664,0.2987995,0.2514725,0.29883,0.4472618v15.831501
					C26.0857601,63.9437332,25.8695164,64.1601868,25.6025391,64.1606293z M9.7021503,56.1035118l15.4169998,6.8295898V48.1689911
					L9.7021503,41.8203506V56.1035118z"/>
				<polygon class="st0" points="43.8129997,57.0119934 25.6030006,63.5499916 25.6030006,47.7179909 43.8129997,41.9869919 				"/>
				<path class="st2" d="M25.6025391,64.0336838c-0.2670631-0.0002518-0.4834232-0.2168274-0.4834003-0.4838905V47.7182541
					c-0.000185-0.2110786,0.1366024-0.3978729,0.3378906-0.4614182l18.210001-5.730999
					c0.2545319-0.0804062,0.5260544,0.0607491,0.6064606,0.3152809c0.0149345,0.0472717,0.0225067,0.0965614,0.0224495,0.1461372
					v15.024456c0.0001068,0.2041321-0.1281128,0.3862991-0.3203087,0.4550781l-18.2099991,6.5380783
					C25.713398,64.0240402,25.6581802,64.0337906,25.6025391,64.0336838z M26.0859394,48.0732346v14.7890587l17.2431622-6.1909103
					v-14.02491L26.0859394,48.0732346z M43.8125,57.0117111L43.8125,57.0117111z"/>
				<path class="st2" d="M21.6599007,46.2207527c0,0-5.7239494,2.5509186-9.6886702,0.6067505
					c-4.9595904-2.4297104,1.6807699-3.8988724,1.6807699-3.8988724l-4.4327507-1.8306389l18.3131104-5.6678886
					l16.2806396,6.5568886L25.60219,47.7179909L21.6599007,46.2207527z"/>
				<path class="st2" d="M25.6025391,48.2016525c-0.0587425-0.0000763-0.1169834-0.0108299-0.1718807-0.0317383l-3.759758-1.4277306
					c-1.0527401,0.4350586-6.1533203,2.3632812-9.9121103,0.5200005c-1.51367-0.7416992-2.20117-1.5087891-2.1015596-2.3442383
					c0.1201096-1.0073318,1.4414005-1.6811485,2.5332003-2.0698318l-3.1552706-1.3027115
					c-0.2469006-0.1017113-0.3645992-0.3843155-0.2628889-0.631218c0.0550127-0.1335411,0.1668444-0.2354965,0.3048887-0.2779617
					l18.3125-5.6679993c0.1060047-0.0333138,0.2203026-0.0286484,0.3232403,0.0131912l16.2812481,6.5566406
					c0.2478523,0.0997696,0.3678932,0.3815727,0.2681236,0.629425c-0.0540276,0.1342201-0.1652946,0.2372093-0.3032837,0.2807236
					l-18.2109299,5.730999C25.7009907,48.1941109,25.6519108,48.201683,25.6025391,48.2016525z M21.6601601,45.7368126
					c0.0587387,0.0000801,0.1169739,0.0108299,0.1718693,0.0317307l3.7851601,1.4375l16.7626896-5.2753906l-14.8691406-5.9873009
					l-16.8652287,5.220211l3.1914005,1.3178787c0.246912,0.1022758,0.3641644,0.3853455,0.2618895,0.6322594
					c-0.0603666,0.1457367-0.1879797,0.252903-0.341959,0.2871704c-1.26758,0.2817383-3.0644598,1.0053711-3.1386805,1.6318283
					c-0.0156202,0.1313515,0.0507898,0.6181717,1.5664101,1.3603592c3.7167997,1.8256798,9.223629-0.5893593,9.2783203-0.6142616
					C21.5249825,45.7511482,21.5921898,45.7368431,21.6601601,45.7368126z"/>
				<polyline class="st0" points="41.5859985,23.6459923 37.8839989,36.4869919 46.0439987,24.8259926 				"/>
				<path class="st2" d="M37.8837891,36.9706917c-0.0723076-0.0001793-0.1436768-0.0163536-0.2089996-0.0473595
					c-0.2130318-0.1022072-0.3211479-0.343277-0.2557907-0.5703392l3.7021408-12.8408203
					c0.0728569-0.2570248,0.3402786-0.4063206,0.5973053-0.3334637c0.2570229,0.0728588,0.4063187,0.3402805,0.3334618,0.5973053
					c-0.0003548,0.0012474-0.0007133,0.0024929-0.0010757,0.0037384l-2.8975105,10.0483608l6.4941406-9.2797813
					c0.1531715-0.2189808,0.4548645-0.2723274,0.6738434-0.1191559c0.2189827,0.1531734,0.2723274,0.4548645,0.1191559,0.6738453
					l-8.1601906,11.6611309C38.1896896,36.893528,38.0417213,36.9706116,37.8837891,36.9706917z"/>
				<path class="st2" d="M51.6835899,26.1645432c-0.349762,0.000021-0.6981544-0.0436115-1.0371094-0.1298809
					c-0.2588844-0.0658016-0.4154091-0.32901-0.3496056-0.5878944s0.32901-0.4154072,0.5878944-0.3496056l0,0
					c0.8818512,0.2171783,1.8140373,0.0689201,2.5849991-0.4111309c0.9854279-0.6183052,1.6848373-1.6027851,1.9443283-2.7368202
					c0.6281548-2.0811653-0.5129852-4.2844715-2.5752258-4.9722195c-0.3499641-0.089222-0.7123909-0.1192608-1.0722694-0.0888691
					c-0.1373749,0.0135841-0.2737732-0.0339108-0.3730011-0.1298809c-0.0999947-0.0943451-0.1550446-0.2268314-0.1513596-0.3642597
					c0.1741753-2.3144321-1.2785606-4.4406395-3.4980011-5.1196289c-2.2378654-0.4649754-4.4942665,0.7072945-5.4003906,2.8056698
					c-0.1182213,0.2395449-0.4082489,0.3378973-0.6477928,0.219676c-0.0194817-0.0096149-0.0382957-0.0205317-0.0563087-0.0326757
					c-0.319973-0.2168503-0.67519-0.3764505-1.0498085-0.4716797c-0.896862-0.2215443-1.8451805-0.071537-2.629879,0.4160004
					c-1.0041809,0.6297388-1.7172585,1.6324053-1.9825211,2.7876492c-0.6378708,2.1187744,0.5247231,4.3606911,2.6240005,5.0600605
					c0.2588844,0.0657997,0.4154091,0.3290081,0.3496094,0.5878906c-0.0657997,0.2588844-0.3290062,0.4154091-0.5878906,0.3496094
					c-2.6131096-0.8300476-4.0885773-3.5914612-3.3261719-6.2250996c0.326683-1.4063778,1.1985245-2.6254482,2.4238281-3.3891592
					c1.0056267-0.6210699,2.2192345-0.8103104,3.3662109-0.5249004c0.3102798,0.0783148,0.6106949,0.1915016,0.8955116,0.3374004
					c1.2120438-2.2459955,3.7687531-3.4132671,6.2597618-2.8579102c2.4843254,0.7220497,4.2005196,2.9886665,4.2217026,5.5757084
					c0.2946739,0.011488,0.5873108,0.05404,0.8730507,0.1269484c2.5756302,0.8186798,4.0297585,3.5406761,3.2783203,6.1367207
					c-0.3214073,1.3851147-1.1794853,2.5860081-2.3857384,3.338871
					C53.2810173,25.935688,52.4905472,26.1602306,51.6835899,26.1645432z"/>
				<path class="st0" d="M19.0681705,41.5550613c-0.9925156-0.3815155-2.0933247-0.3692322-3.0770798,0.0343399
					c-0.5983,0.3916283-0.1891499,1.0130882,0.9136009,1.3872108c0.9927464,0.3799248,2.0928574,0.367897,3.0770607-0.0336418
					c0.59832-0.3923302,0.1898594-1.0137596-0.9135799-1.3879089"/>
				<path class="st0" d="M23.40695,43.1400414c-0.993-0.3801231-2.0934887-0.3678474-3.0777607,0.0343399
					c-0.5969296,0.3916283-0.1884804,1.0130806,0.9142799,1.3865013c0.9928398,0.3804703,2.0932884,0.3686981,3.0777607-0.0329285
					c0.5962009-0.3930016,0.1877708-1.0130806-0.9142799-1.3879089"/>
				<path class="st2" d="M17.4385509,42.6251717c-0.5597897-0.1884499-0.7664795-0.5029984-0.46381-0.7027016
					c0.4989147-0.2043228,1.0570374-0.2103386,1.5602398-0.0168114c0.5576897,0.1891594,0.76647,0.5037384,0.4631004,0.7034111
					C18.4992428,42.8127747,17.9414883,42.818531,17.4385509,42.6251717"/>
				<path class="st2" d="M21.7767696,44.2107735c-0.5590897-0.1898613-0.7664795-0.5044212-0.46311-0.7034111
					c0.4986095-0.2036705,1.056139-0.2094307,1.5588493-0.0161018c0.5583801,0.1891594,0.7664604,0.5044403,0.4637909,0.7019997
					c-0.4985619,0.2046318-1.0564995,0.2108955-1.5595303,0.0175095"/>
				<path class="st0" d="M58.9515686,36.5714417c0,0,2.5221596-1.7073593,4.4236107-1.0705109"/>
				<path class="st2" d="M58.9511719,37.055172c-0.2674446-0.0003853-0.4839363-0.2175064-0.483551-0.4849472
					c0.0002327-0.160141,0.0796204-0.3098145,0.2120705-0.3998222c0.1113281-0.0751991,2.7529297-1.8354492,4.848629-1.1279297
					c0.2532234,0.0846748,0.3898544,0.3585968,0.3051796,0.6118202s-0.3585968,0.3898544-0.6118202,0.3051796l0,0
					c-1.3779297-0.4614182-3.3535194,0.5751991-3.9990005,1.0126991
					C59.1425285,37.0264015,59.0479431,37.0553169,58.9511719,37.055172z"/>
				<path class="st0" d="M59.9525299,33.2644615c0.6604881-0.3840256,1.4055252-0.5991592,2.1690598-0.6263313"/>
				<path class="st2" d="M59.9531212,33.7480431c-0.2669525,0.000721-0.4839439-0.2151031-0.4846649-0.4820518
					c-0.0004654-0.1730843,0.0916481-0.3332024,0.2415047-0.4198074c0.7427673-0.4401932,1.5878487-0.6782303,2.4511719-0.6904297
					c0.2664375,0.0215721,0.4649391,0.2550507,0.4433632,0.5214844c-0.0215721,0.2664375-0.2550468,0.4649391-0.5214844,0.443367
					c-0.665863,0.0319366-1.3139992,0.2251434-1.8886681,0.5629997
					C60.1210136,33.725956,60.0377998,33.7481842,59.9531212,33.7480431z"/>
				<path class="st0" d="M31.5437603,33.287571c-1.2125854-1.7828465-3.4588261-2.5477753-5.5074711-1.8754997"/>
				<path class="st2" d="M31.5440006,33.7714729c-0.1533966,0.0000839-0.2976894-0.0727844-0.3886795-0.1962814
					c-1.0937691-1.6284485-3.1427631-2.3224487-5.0009995-1.6938496c-0.2592144,0.0650177-0.5220585-0.0924091-0.5870762-0.3516254
					c-0.0649338-0.2588711,0.0919952-0.5214386,0.3507462-0.5868549c2.2390499-0.7066479,4.6773129,0.1272888,6.0146275,2.0571308
					c0.1588573,0.2147903,0.113512,0.5176888-0.1012764,0.6765442c-0.0000973,0.0000725-0.0001965,0.000145-0.0002937,0.0002174
					C31.7481136,33.7385139,31.6474037,33.7717476,31.5440006,33.7714729z"/>
				<path class="st0" d="M31.01544,29.7982922c-0.5901031-0.7591877-1.5413132-1.1445999-2.4934406-1.0102997"/>
				<path class="st2" d="M31.0156193,30.2822227c-0.1454735,0.0001469-0.2832527-0.0653362-0.375-0.1782303
					c-0.4858665-0.6297741-1.2732773-0.9490299-2.0605392-0.8354492c-0.265255,0.0326481-0.506752-0.1559181-0.5394001-0.4211712
					c-0.0326462-0.265255,0.1559181-0.506752,0.4211731-0.5394001c0.0009956-0.0001221,0.0019913-0.0002422,0.0029869-0.0003586
					c1.1164551-0.1521702,2.2299194,0.2988281,2.9257793,1.1850605c0.1688061,0.2071896,0.1376915,0.5119934-0.0694981,0.6807995
					C31.2348251,30.243782,31.1269302,30.2821903,31.0156193,30.2822227z"/>
			</g>
		</g>
		<path class="st2" d="M45.1044884,71.560051H29.9179993C15.2928047,71.5432587,3.4410746,59.6911087,3.4247999,45.0659142
			V29.8813419C3.44082,15.2558823,15.2925406,3.4033036,29.9179993,3.3862233h15.1864891
			c14.6254463,0.0170975,26.4771461,11.8696728,26.4931679,26.4951191v15.1845722
			C71.5813828,59.6910973,59.7296715,71.5432434,45.1044884,71.560051z M29.9179993,6.6118135
			C17.0730686,6.6266837,6.6642008,17.0364094,6.6503901,29.8813419v15.1845722
			C6.6646242,57.910511,17.0734024,68.3197098,29.9179993,68.334465h15.1864891
			c12.8445854-0.0147705,23.2533455-10.4239655,23.2675819-23.2685509V29.8813419
			C68.3582611,17.0364208,57.9494095,6.6266994,45.1044884,6.6118135H29.9179993z"/>
		<path class="st3" d="M29.8818398-0.0000067h15.185051c16.5030136,0,29.8813515,13.378336,29.8813515,29.8813496l0,0v15.1859989
			c0.0000229,16.5022011-13.377636,29.8799019-29.879837,29.8799248c-0.0000153,0-0.0000305,0-0.0000458,0H29.8813591
			c-16.5030136,0.0000076-29.8813534-13.3783264-29.8813591-29.88134c0-0.0000038,0-0.0000076-0.0000005-0.0000114v-15.184082
			C0,13.3785496,13.3785563-0.0000059,29.8818398-0.0000067z"/>
		<path class="st3" d="M29.8817291,4.9998231h15.1849098c13.7415543,0,24.8812828,11.1397247,24.8812904,24.881279v15.1862926
			c-0.0000076,13.7407875-11.139122,24.8798943-24.8799133,24.8798866c-0.0000038,0-0.0000114,0-0.0000153,0H29.8817291
			c-13.7415543,0-24.8812866-11.1397324-24.8812885-24.8812866V29.8811016
			C5.0004463,16.1395493,16.1401768,4.999824,29.8817291,4.9998231z"/>
	</g>
</g>
</svg>
