<svg xmlns="http://www.w3.org/2000/svg" viewBox="-90.445665 0 555 271.35349"><defs><style>.cls-1{fill:#666;}.cls-2{fill:#fff;}.cls-3{fill:#9e9e9f;}.cls-4{fill:#231815;}.cls-5{fill:#bfd833;}.cls-6{fill:none;}</style></defs><title>アセット 1601</title><g id="レイヤー_2" data-name="レイヤー 2"><g id="レイヤー_2-2" data-name="レイヤー 2"><path class="cls-1" d="M145.22485,66.07616c.45507-3.6875,1.9956-7.041,6.07666-6.53711,3.15039.38867,4.935,2.71679,4.30517,7.81836-.63183,5.12011-2.9126,6.96484-6.08154,6.57324C146.321,73.53514,144.59545,71.1787,145.22485,66.07616Zm4.55419,5.7959c1.52149.1875,2.5669-.62793,2.98975-3.75586l-4.959-.61133C147.446,70.749,148.32885,71.69334,149.779,71.87206Zm3.2461-5.832c.249-2.75-.29541-4.23437-1.96045-4.44043-1.68262-.207-2.59033,1.11622-2.99854,3.82813Z"/><polygon class="cls-1" points="364.482 41.7 353.797 35.53 353.797 47.869 364.482 41.7"/><path class="cls-2" d="M156.19838,93.45893H282.9067a4.25234,4.25234,0,0,1,4.25234,4.25234V224.41973a4.2516,4.2516,0,0,1-4.2516,4.2516H156.19764a4.2516,4.2516,0,0,1-4.2516-4.2516V97.71127A4.25234,4.25234,0,0,1,156.19838,93.45893Z" transform="translate(-43.58072 231.10927) rotate(-51.17007)"/><path class="cls-3" d="M210.23293,210.464l-7.999,9.93811a4.82,4.82,0,0,1-6.76891.73178L192.299,218.5856a4.77994,4.77994,0,0,1-1.76837-3.23234l-.81694-7.55667a3.6638,3.6638,0,0,0-1.35462-2.479l-5.37128-4.32324a3.657,3.657,0,0,0-2.709-.7927l-7.5583.81657a4.783,4.783,0,0,1-3.53626-1.03725l-3.166-2.54824a4.81929,4.81929,0,0,1-.73118-6.76846l7.999-9.93811a4.81861,4.81861,0,0,1,6.76742-.73106l3.166,2.54823a4.78844,4.78844,0,0,1,1.768,3.233l.81715,7.55877a3.71461,3.71461,0,0,0,1.35392,2.47747l5.37128,4.32324a3.66868,3.66868,0,0,0,2.71075.79411l7.55715-.81749a4.78574,4.78574,0,0,1,3.53653,1.03554l3.16606,2.5483A4.81927,4.81927,0,0,1,210.23293,210.464Zm-44.0695-19.09436a3.69311,3.69311,0,0,0,.56019,5.18669l3.166,2.54823a3.66608,3.66608,0,0,0,2.71033.79475l7.55678-.81586a4.77291,4.77291,0,0,1,3.53643,1.03449l5.37129,4.32325a4.77874,4.77874,0,0,1,1.76752,3.23456l.81741,7.55609a3.66435,3.66435,0,0,0,1.355,2.47736l3.16605,2.5483a3.69377,3.69377,0,0,0,5.18714-.56078l7.999-9.93811a3.69308,3.69308,0,0,0-.56168-5.186l-3.16606-2.5483a3.672,3.672,0,0,0-2.71123-.79353l-7.5561.81738a4.78755,4.78755,0,0,1-3.53711-1.036l-5.37128-4.32325a4.84718,4.84718,0,0,1-1.76685-3.23306l-.817-7.55771a3.673,3.673,0,0,0-1.35515-2.47846l-3.166-2.54824a3.69241,3.69241,0,0,0-5.18564.56007Z"/><path class="cls-3" d="M273.81738,131.46546l-7.99805,9.93694a4.82024,4.82024,0,0,1-6.76939.73237l-3.16606-2.5483a4.78,4.78,0,0,1-1.76836-3.23235l-.81647-7.55726a3.66618,3.66618,0,0,0-1.35509-2.47841l-5.37128-4.32324a3.66,3.66,0,0,0-2.70958-.79317l-7.55771.817a4.783,4.783,0,0,1-3.53627-1.03725l-3.166-2.54823a4.81954,4.81954,0,0,1-.73071-6.769l7.998-9.93694a4.81812,4.81812,0,0,1,6.76742-.73107l3.166,2.54823a4.7876,4.7876,0,0,1,1.76892,3.23184l.81631,7.55982a3.71365,3.71365,0,0,0,1.35485,2.47629l5.37128,4.32325a3.668,3.668,0,0,0,2.71029.79469l7.557-.81854a4.78843,4.78843,0,0,1,3.53608,1.03729l3.166,2.5483A4.81878,4.81878,0,0,1,273.81738,131.46546Zm-44.06856-19.09553a3.69339,3.69339,0,0,0,.55971,5.18728l3.166,2.54824a3.665,3.665,0,0,0,2.71.79521l7.55772-.817a4.77708,4.77708,0,0,1,3.53587,1.0352l5.37128,4.32324a4.78421,4.78421,0,0,1,1.76809,3.23387l.81646,7.55725a3.66319,3.66319,0,0,0,1.35537,2.4769l3.16606,2.5483a3.694,3.694,0,0,0,5.18761-.56136l7.99806-9.93695a3.69248,3.69248,0,0,0-.56168-5.186l-3.16606-2.5483a3.67039,3.67039,0,0,0-2.70982-.79529l-7.557.81855a4.786,4.786,0,0,1-3.53654-1.03671l-5.37129-4.32324a4.781,4.781,0,0,1-1.76788-3.23177l-.8161-7.55889a3.669,3.669,0,0,0-1.35609-2.47729l-3.166-2.54823a3.69184,3.69184,0,0,0-5.18564.56006Z"/><path class="cls-3" d="M200.6205,121.5667l-2.54833,3.16609a4.77555,4.77555,0,0,1-3.23147,1.76728l-7.5581.8175a3.71249,3.71249,0,0,0-2.47751,1.354l-4.32422,5.37248a3.66,3.66,0,0,0-.79312,2.70953l.817,7.55772a4.77816,4.77816,0,0,1-1.03724,3.53626l-2.54739,3.16492a4.821,4.821,0,0,1-6.77037.73235l-9.93694-7.99806a4.82,4.82,0,0,1-.72974-6.769l2.54738-3.16492a4.78327,4.78327,0,0,1,3.23288-1.769l7.55889-.8161a3.71363,3.71363,0,0,0,2.47626-1.35481l4.32421-5.37248a3.71429,3.71429,0,0,0,.79439-2.70871l-.81783-7.55912a4.78067,4.78067,0,0,1,1.03583-3.53451l2.54833-3.1661a4.81938,4.81938,0,0,1,6.76815-.73317l9.93694,7.99806A4.82033,4.82033,0,0,1,200.6205,121.5667Zm-21.016,11.772,4.32421-5.37248a4.8421,4.8421,0,0,1,3.233-1.76681l7.55866-.81821a3.65744,3.65744,0,0,0,2.47541-1.35375l2.54832-3.16609a3.694,3.694,0,0,0-.561-5.1881l-9.93694-7.99806a3.69318,3.69318,0,0,0-5.18637.56217l-2.54833,3.1661a3.65954,3.65954,0,0,0-.79333,2.70762l.81715,7.55974a4.84623,4.84623,0,0,1-1.03622,3.535l-4.32421,5.37249A4.77956,4.77956,0,0,1,172.943,132.346l-7.55924.81677a3.66192,3.66192,0,0,0-2.47693,1.35542l-2.54739,3.16491a3.69384,3.69384,0,0,0,.55875,5.18729l9.93694,7.998a3.69469,3.69469,0,0,0,5.1886-.56135l2.54738-3.16492a3.66244,3.66244,0,0,0,.79544-2.70882l-.81715-7.55877A4.77656,4.77656,0,0,1,179.60449,133.33865Z"/><path class="cls-3" d="M258.46785,211.43341l-2.54738,3.16492a4.8215,4.8215,0,0,1-6.77085.732l-9.93694-7.99806a4.81993,4.81993,0,0,1-.72974-6.76906l2.54738-3.16492a4.78383,4.78383,0,0,1,3.23277-1.76912l.00112.01033c.16571-.02837.42523-.05632.85252-.10251l4.6115-.49864a4.78451,4.78451,0,0,1,3.53746,1.03552l3.87994,3.12289a4.77937,4.77937,0,0,1,1.7676,3.23443l.59119,5.46466A4.77939,4.77939,0,0,1,258.46785,211.43341Zm-19.10852-10.16483a3.69372,3.69372,0,0,0,.55874,5.18728l9.93694,7.99806a3.6953,3.6953,0,0,0,5.18907-.561l2.54738-3.16492a3.66249,3.66249,0,0,0,.79463-2.71139l-.59128-5.46455a3.66357,3.66357,0,0,0-1.35457-2.47895l-3.87994-3.12289a3.66925,3.66925,0,0,0-2.71116-.79349l-5.458.59-.00764.00136a3.66488,3.66488,0,0,0-2.47682,1.35551Z"/><path class="cls-3" d="M279.62081,185.15256l-2.54833,3.16609a4.784,4.784,0,0,1-3.23384,1.76807l-5.46429.58976a4.78013,4.78013,0,0,1-3.53793-1.03493l-3.87993-3.12289a4.78524,4.78524,0,0,1-1.76714-3.235l-.49842-4.61152c-.04573-.42787-.07389-.68738-.08217-.85579l-.00975.00159a4.78119,4.78119,0,0,1,1.03595-3.53442l2.54833-3.16609a4.81926,4.81926,0,0,1,6.76814-.73317l9.93694,7.99806A4.82082,4.82082,0,0,1,279.62081,185.15256Zm-19.90169-7.44377c.01551.15728.3908,3.62875.58865,5.454a3.6669,3.6669,0,0,0,1.3541,2.47953l3.87994,3.12289a3.66127,3.66127,0,0,0,2.71105.79243l5.46525-.58976a3.666,3.666,0,0,0,2.478-1.35457l2.54833-3.16609a3.69467,3.69467,0,0,0-.56144-5.18848l-9.93694-7.99805a3.69309,3.69309,0,0,0-5.18638.56217l-2.54833,3.16609a3.66255,3.66255,0,0,0-.79344,2.70753Z"/><path class="cls-4" d="M312.52648,154.57165l-79.448,98.70769a5.00738,5.00738,0,0,1-7.03247.76014l-98.70768-79.44795a5.00735,5.00735,0,0,1-.76024-7.03235l79.448-98.70769a5.008,5.008,0,0,1,7.03282-.76082l98.70768,79.448A5.008,5.008,0,0,1,312.52648,154.57165Zm-184.77983,13.928a3.50575,3.50575,0,0,0,.53224,4.92333L226.98657,252.871a3.50587,3.50587,0,0,0,4.92344-.53215l79.448-98.70768a3.506,3.506,0,0,0-.5319-4.924l-98.70768-79.448a3.5059,3.5059,0,0,0-4.92379.53282Z"/><path class="cls-3" d="M310.5774,153.00287l-79.448,98.70769a2.5034,2.5034,0,0,1-3.51564.38113l-98.70768-79.448a2.50423,2.50423,0,0,1-.38066-3.51718l79.448-98.70769a2.5036,2.5036,0,0,1,3.51681-.37923l98.70768,79.448A2.50278,2.50278,0,0,1,310.5774,153.00287ZM129.10972,169.5968a1.75378,1.75378,0,0,0,.26666,2.46268l98.70768,79.44795a1.75284,1.75284,0,0,0,2.46112-.26713l79.448-98.70769a1.75221,1.75221,0,0,0-.26549-2.46077L211.02,70.62389a1.75314,1.75314,0,0,0-2.46229.26523Z"/><path class="cls-3" d="M209.09351,209.54692l-7.999,9.93811a3.35553,3.35553,0,0,1-4.7124.50946l-3.16606-2.5483a3.329,3.329,0,0,1-1.23039-2.25019l-.81807-7.55758a5.11148,5.11148,0,0,0-1.89062-3.4613l-5.37128-4.32324a5.1166,5.1166,0,0,0-3.7854-1.10723l-7.55725.81646a3.37427,3.37427,0,0,1-2.46175-.72155l-3.166-2.54824a3.3555,3.3555,0,0,1-.50944-4.71242l7.999-9.93811a3.35548,3.35548,0,0,1,4.71233-.50933l3.166,2.54824a3.36728,3.36728,0,0,1,1.22933,2.25394l.81738,7.55608a5.11854,5.11854,0,0,0,1.89243,3.4591l5.37128,4.32324a5.11314,5.11314,0,0,0,3.78359,1.10943l7.55781-.816a3.32108,3.32108,0,0,1,2.46294.71886l3.16606,2.5483A3.35548,3.35548,0,0,1,209.09351,209.54692Zm-42.08337-17.49576a2.60454,2.60454,0,0,0,.39544,3.6579l3.166,2.54824a2.62044,2.62044,0,0,0,1.91089.56026l7.55725-.81645a5.85834,5.85834,0,0,1,4.33626,1.26851l5.37128,4.32324a5.85614,5.85614,0,0,1,2.16649,3.96543l.8175,7.55713a2.58727,2.58727,0,0,0,.95509,1.74651l3.16606,2.5483a2.60409,2.60409,0,0,0,3.65788-.39546l7.999-9.93811a2.60454,2.60454,0,0,0-.39552-3.65777l-3.16605-2.5483a2.58058,2.58058,0,0,0-1.9116-.55813l-7.55828.81657a5.85843,5.85843,0,0,1-4.33447-1.27071l-5.37128-4.32325a5.86486,5.86486,0,0,1-2.1677-3.96276l-.81751-7.55713a2.61239,2.61239,0,0,0-.95392-1.74922l-3.166-2.54824a2.605,2.605,0,0,0-3.65781.39533Z"/><path class="cls-3" d="M272.678,130.54836l-7.99806,9.93695a3.35562,3.35562,0,0,1-4.71239.50945l-3.16606-2.5483a3.32945,3.32945,0,0,1-1.23087-2.2496l-.8176-7.55817a5.11393,5.11393,0,0,0-1.89146-3.46024l-5.37128-4.32325a5.11883,5.11883,0,0,0-3.78456-1.10827l-7.55772.817a3.374,3.374,0,0,1-2.46127-.72214l-3.166-2.54823a3.3556,3.3556,0,0,1-.50945-4.71242l7.99806-9.93694a3.35549,3.35549,0,0,1,4.71242-.50944l3.166,2.54824a3.37115,3.37115,0,0,1,1.23005,2.25183l.817,7.55772a5.123,5.123,0,0,0,1.892,3.45956l5.37129,4.32325a5.18687,5.18687,0,0,0,3.784,1.10895l7.55828-.81658a3.32475,3.32475,0,0,1,2.4621.7199l3.16606,2.5483A3.35553,3.35553,0,0,1,272.678,130.54836Zm-42.08244-17.49693a2.60512,2.60512,0,0,0,.39545,3.6579l3.166,2.54823a2.62,2.62,0,0,0,1.91051.56074l7.55772-.817a5.86317,5.86317,0,0,1,4.33531,1.26968l5.37129,4.32324a5.85964,5.85964,0,0,1,2.16742,3.96426l.817,7.55771a2.58227,2.58227,0,0,0,.95547,1.746l3.16606,2.5483a2.60465,2.60465,0,0,0,3.65787-.39545l7.99806-9.93694a2.60409,2.60409,0,0,0-.39542-3.65789l-3.16606-2.5483a2.58226,2.58226,0,0,0-1.91075-.55918l-7.55876.81716a5.9405,5.9405,0,0,1-4.33483-1.27026l-5.37128-4.32324a5.866,5.866,0,0,1-2.16734-3.96322l-.817-7.55772a2.61424,2.61424,0,0,0-.95477-1.74818l-3.166-2.54823a2.60454,2.60454,0,0,0-3.6579.39544Z"/><path class="cls-3" d="M199.4805,120.64913l-2.54833,3.16609a3.374,3.374,0,0,1-2.25009,1.23146l-7.55677.81587a5.11926,5.11926,0,0,0-3.46011,1.89153l-4.32421,5.37249a5.118,5.118,0,0,0-1.10836,3.78441l.817,7.55772a3.37408,3.37408,0,0,1-.72214,2.46128l-2.54738,3.16492a3.35546,3.35546,0,0,1-4.71233.50933l-9.93694-7.99806a3.35555,3.35555,0,0,1-.50953-4.71231l2.54738-3.16491a3.37118,3.37118,0,0,1,2.25184-1.23006l7.55771-.817a5.19042,5.19042,0,0,0,3.45965-1.89191l4.32421-5.37249a5.19278,5.19278,0,0,0,1.10882-3.784l-.818-7.55654a3.37115,3.37115,0,0,1,.72038-2.46269l2.54833-3.1661a3.35556,3.35556,0,0,1,4.71233-.50932l9.93694,7.998A3.35548,3.35548,0,0,1,199.4805,120.64913Zm-20.72377,12.00718,4.32421-5.37249a5.862,5.862,0,0,1,3.96377-2.16681l7.55678-.81587a2.62219,2.62219,0,0,0,1.74642-.95618l2.54833-3.16609a2.60452,2.60452,0,0,0-.39554-3.65779l-9.93694-7.99806a2.60462,2.60462,0,0,0-3.65781.39533l-2.54833,3.16609a2.616,2.616,0,0,0-.55862,1.91126l.8175,7.55713a5.94521,5.94521,0,0,1-1.2701,4.33489l-4.32422,5.37249a5.94521,5.94521,0,0,1-3.9633,2.16719l-7.55771.817a2.619,2.619,0,0,0-1.74818.95476l-2.54739,3.16492a2.60415,2.60415,0,0,0,.39554,3.6578l9.93694,7.99805a2.604,2.604,0,0,0,3.65781-.39533l2.54739-3.16492a2.62192,2.62192,0,0,0,.56085-1.91042l-.817-7.55772A5.861,5.861,0,0,1,178.75673,132.65631Z"/><path class="cls-3" d="M257.32726,210.51537l-2.54738,3.16492a3.35544,3.35544,0,0,1-4.71222.50943l-9.93694-7.99806a3.35546,3.35546,0,0,1-.50953-4.71231l2.54738-3.16492a3.37367,3.37367,0,0,1,2.22705-1.22748l.02526-.00315,5.46455-.59129a3.33653,3.33653,0,0,1,2.46175.72251l3.87994,3.12289a3.339,3.339,0,0,1,1.2324,2.24988l.49758,4.61161c.04943.45723.0758.707.08149.85543l.01022-.00121A3.3696,3.3696,0,0,1,257.32726,210.51537Zm-17.12181-8.56576a2.60451,2.60451,0,0,0,.39553,3.65779l9.93694,7.99806a2.604,2.604,0,0,0,3.6577-.39543l2.54738-3.16491a2.61439,2.61439,0,0,0,.5598-1.91032l-.00066-.00611c-.01064-.10831-.389-3.61326-.58863-5.45972a2.59116,2.59116,0,0,0-.95665-1.7468l-3.87994-3.12289a2.59421,2.59421,0,0,0-1.91147-.5617l-5.44035.58921-.02456.00372a2.61528,2.61528,0,0,0-1.74771.95418Z"/><path class="cls-3" d="M278.48023,184.23452l-2.54833,3.16609a3.36232,3.36232,0,0,1-2.2502,1.22945l-.00112-.01033c-.14562.02662-.39585.05378-.852.1031l-4.61187.50006a3.3397,3.3397,0,0,1-2.46175-.72251l-3.87994-3.12289a3.34212,3.34212,0,0,1-1.2324-2.24988l-.58976-5.46525a.27355.27355,0,0,1-.00191-.03638,3.36217,3.36217,0,0,1,.72229-2.42631l2.54833-3.16609a3.35546,3.35546,0,0,1,4.71232-.50933l9.93695,7.99806A3.35544,3.35544,0,0,1,278.48023,184.23452Zm-4.887,3.65021.01033-.00112a2.60484,2.60484,0,0,0,1.74408-.95325l2.54833-3.1661a2.60449,2.60449,0,0,0-.39542-3.65769l-9.93694-7.99806a2.605,2.605,0,0,0-3.65781.39533l-2.54833,3.16609a2.60569,2.60569,0,0,0-.55733,1.90844l.00237.03677.58609,5.43129a2.59434,2.59434,0,0,0,.95665,1.7468l3.87994,3.12289a2.59493,2.59493,0,0,0,1.91194.56111C269.97057,188.27849,273.456,187.90116,273.59323,187.88473Z"/><polygon class="cls-5" points="336.237 255.06 330.993 241.521 321.889 252.832 336.237 255.06"/><path class="cls-5" d="M336.49731,255.27049l-.28614-.04394-14.63476-2.27344.18164-.22656,9.28711-11.53711Zm-14.2959-2.55957,13.77441,2.13965-5.03418-12.999Z"/><polygon class="cls-5" points="123.559 80.384 136.015 72.923 123.326 65.866 123.559 80.384"/><path class="cls-5" d="M123.39623,80.67674l-.24316-15.09863L136.35033,72.917Zm.10156-14.52246.22461,13.93653,11.957-7.16211Z"/><path class="cls-5" d="M328.58715,250.19823a1.50145,1.50145,0,1,1,.89355-2.70606l.00782.00586a1.50007,1.50007,0,0,1-.90137,2.7002Zm-4.6748-3.77637a1.50135,1.50135,0,1,1,.98046-2.63574l.00782.00683a1.5,1.5,0,0,1-.98828,2.62891Zm-4.67579-3.77637a1.50135,1.50135,0,1,1,.98047-2.63574l.00782.00684a1.5,1.5,0,0,1-.98829,2.6289Zm-4.6748-3.77636a1.50136,1.50136,0,1,1,.98047-2.63575l.00781.00684a1.5,1.5,0,0,1-.98828,2.62891Zm-4.67578-3.77637a1.50136,1.50136,0,1,1,.98047-2.63574l.00781.00683a1.5,1.5,0,0,1-.98828,2.62891Zm-4.67481-3.77637a1.50135,1.50135,0,1,1,.98047-2.63574l.00781.00683a1.5,1.5,0,0,1-.98828,2.62891ZM300.53539,227.54a1.50135,1.50135,0,1,1,.98047-2.63574l.00781.00684a1.5,1.5,0,0,1-.98828,2.6289Zm-4.67578-3.77734a1.50137,1.50137,0,1,1,.9707-2.64453l.00684.00586a1.5,1.5,0,0,1-.97754,2.63867Zm-4.6748-3.77637a1.50145,1.50145,0,1,1,.89355-2.70605l.00781.00586a1.50006,1.50006,0,0,1-.90136,2.70019ZM286.51,216.21a1.50145,1.50145,0,1,1,.89356-2.70606l.00781.00586A1.50007,1.50007,0,0,1,286.51,216.21Zm-4.67578-3.77637a1.50145,1.50145,0,1,1,.89355-2.70606l.00782.00586a1.50007,1.50007,0,0,1-.90137,2.7002Zm-4.67578-3.77637a1.50145,1.50145,0,1,1,.89355-2.70605l.00782.00586a1.50006,1.50006,0,0,1-.90137,2.70019Zm-4.67481-3.77637a1.50145,1.50145,0,1,1,.89356-2.70605l.00781.00586a1.50006,1.50006,0,0,1-.90137,2.70019Zm-4.67578-3.77636a1.50145,1.50145,0,1,1,.89356-2.70606l.00781.00586a1.50007,1.50007,0,0,1-.90137,2.7002Zm-4.6748-3.77637a1.50145,1.50145,0,1,1,.89355-2.70605l.00782.00585a1.50007,1.50007,0,0,1-.90137,2.7002Zm-4.67578-3.77637a1.50145,1.50145,0,1,1,.89355-2.70605l.00781.00586a1.50006,1.50006,0,0,1-.90136,2.70019Zm-4.67481-3.77636a1.50136,1.50136,0,1,1,.98047-2.63575l.00781.00684a1.5,1.5,0,0,1-.98828,2.62891Zm-4.67578-3.77637a1.50135,1.50135,0,1,1,.98047-2.63574l.00781.00683a1.5,1.5,0,0,1-.98828,2.62891Zm-4.6748-3.77637a1.50136,1.50136,0,1,1,.98047-2.63574l.00781.00683a1.5,1.5,0,0,1-.98828,2.62891Zm-4.67578-3.77637a1.50135,1.50135,0,1,1,.98046-2.63574l.00782.00684a1.5,1.5,0,0,1-.98828,2.6289Zm-4.67481-3.77636a1.50136,1.50136,0,1,1,.98047-2.63575l.00781.00684a1.5,1.5,0,0,1-.98828,2.62891Zm-4.6748-3.77637a1.50145,1.50145,0,1,1,.98046-2.63574l.00782.00683a1.5002,1.5002,0,0,1-.98828,2.62891Zm-4.6753-3.77637a1.50145,1.50145,0,1,1,.98047-2.63574l.00781.00684a1.50019,1.50019,0,0,1-.98828,2.6289Zm-4.67578-3.77734a1.50136,1.50136,0,1,1,.89307-2.70606l.00781.00586a1.49987,1.49987,0,0,1-.90088,2.7002Zm-4.67529-3.77637a1.50135,1.50135,0,1,1,.89306-2.70605l.00782.00586a1.49987,1.49987,0,0,1-.90088,2.70019Zm-4.67529-3.77637a1.50135,1.50135,0,1,1,.89306-2.70605l.00781.00586a1.49987,1.49987,0,0,1-.90087,2.70019Zm-4.6753-3.77636a1.50136,1.50136,0,1,1,.89307-2.70606l.00781.00586a1.49987,1.49987,0,0,1-.90088,2.7002Zm-4.67529-3.77637a1.50136,1.50136,0,1,1,.89307-2.70605l.00781.00585a1.49987,1.49987,0,0,1-.90088,2.7002Zm-4.67529-3.77637a1.50135,1.50135,0,1,1,.89306-2.70605l.00782.00586a1.49987,1.49987,0,0,1-.90088,2.70019Zm-4.67578-3.77636a1.50116,1.50116,0,1,1,.93066-2.67676l.00732.00586a1.49958,1.49958,0,0,1-.938,2.6709Zm-4.6753-3.77637a1.50116,1.50116,0,1,1,.93067-2.67676l.00732.00586a1.49958,1.49958,0,0,1-.938,2.6709Zm-4.6748-3.77637a1.50149,1.50149,0,1,1,1.0166-2.60351l.00732.00683a1.5,1.5,0,0,1-1.02392,2.59668Zm-4.6753-3.77637a1.50149,1.50149,0,1,1,1.01661-2.60351l.00732.00683a1.5,1.5,0,0,1-1.02393,2.59668Zm-4.67529-3.77636a1.50146,1.50146,0,1,1,.98047-2.63575l.00781.00684a1.5002,1.5002,0,0,1-.98828,2.62891Zm-4.67529-3.77637a1.50146,1.50146,0,1,1,.98047-2.63574l.00781.00683a1.5002,1.5002,0,0,1-.98828,2.62891Zm-4.67529-3.77637a1.50145,1.50145,0,1,1,.98046-2.63574l.00782.00684a1.50019,1.50019,0,0,1-.98828,2.6289Zm-4.6753-3.77636a1.50146,1.50146,0,1,1,.98047-2.63575l.00781.00684a1.5002,1.5002,0,0,1-.98828,2.62891Zm-4.67578-3.77735a1.50135,1.50135,0,1,1,.89307-2.70605l.00781.00586a1.49987,1.49987,0,0,1-.90088,2.70019Zm-4.67529-3.77637a1.50136,1.50136,0,1,1,.89307-2.70605l.00781.00586a1.49987,1.49987,0,0,1-.90088,2.70019Zm-4.67529-3.77636a1.50136,1.50136,0,1,1,.89306-2.70606l.00781.00586a1.49987,1.49987,0,0,1-.90087,2.7002Zm-4.6753-3.77637a1.50135,1.50135,0,1,1,.89307-2.706l.00781.00585a1.49987,1.49987,0,0,1-.90088,2.7002Zm-4.67529-3.77637a1.50136,1.50136,0,1,1,.89307-2.706l.00781.00586a1.49987,1.49987,0,0,1-.90088,2.70019Zm-4.67529-3.77636a1.50136,1.50136,0,1,1,.89306-2.70606l.00782.00586a1.49987,1.49987,0,0,1-.90088,2.7002Zm-4.6753-3.77637a1.50136,1.50136,0,1,1,.89307-2.70606l.00781.00586a1.49987,1.49987,0,0,1-.90088,2.7002Zm-4.67529-3.77637a1.50135,1.50135,0,1,1,.89307-2.70605l.00781.00586a1.49987,1.49987,0,0,1-.90088,2.70019Zm-4.6748-3.77637a1.50145,1.50145,0,1,1,.98046-2.63574l.00782.00684a1.50019,1.50019,0,0,1-.98828,2.6289Zm-4.6753-3.77636a1.50146,1.50146,0,1,1,.98047-2.63575l.00781.00684a1.5002,1.5002,0,0,1-.98828,2.62891ZM108.84838,72.706a1.50145,1.50145,0,1,1,.98047-2.63574l.00781.00683a1.5002,1.5002,0,0,1-.98828,2.62891Zm-4.67529-3.77637a1.50146,1.50146,0,1,1,.98047-2.63574l.00781.00684a1.50019,1.50019,0,0,1-.98828,2.6289Zm-4.6753-3.77636a1.50146,1.50146,0,1,1,.98047-2.63575l.00782.00684a1.5002,1.5002,0,0,1-.98829,2.62891ZM94.8225,61.37694A1.50145,1.50145,0,1,1,95.803,58.7412l.00781.00683a1.5002,1.5002,0,0,1-.98828,2.62891Zm-4.67578-3.77735a1.50135,1.50135,0,1,1,.89307-2.706l.00781.00586a1.49987,1.49987,0,0,1-.90088,2.70019Zm-4.67529-3.77636a1.50136,1.50136,0,1,1,.89306-2.70606l.00782.00586a1.49987,1.49987,0,0,1-.90088,2.7002Zm-4.67578-3.77637a1.50128,1.50128,0,1,1,.93066-2.67725l.00732.00586a1.49984,1.49984,0,0,1-.938,2.67139Zm-4.6753-3.77637a1.50128,1.50128,0,1,1,.89307-2.70605l.00781.00586a1.5,1.5,0,0,1-.90088,2.70019Zm-4.67529-3.77636a1.50128,1.50128,0,1,1,.939-2.67041l.00782.00634a1.5,1.5,0,0,1-.94678,2.66407Zm-4.67529-3.77637a1.50128,1.50128,0,1,1,.939-2.67041l.00781.00635a1.5,1.5,0,0,1-.94677,2.66406Zm-4.6753-3.77637a1.50128,1.50128,0,1,1,.939-2.67041l.00781.00635a1.5,1.5,0,0,1-.94678,2.66406ZM57.41918,31.165a1.50128,1.50128,0,1,1,.939-2.67041l.00781.00635a1.5,1.5,0,0,1-.94678,2.66406Zm-4.67529-3.77636a1.50128,1.50128,0,1,1,.939-2.67041l.00782.00634a1.5,1.5,0,0,1-.94678,2.66407ZM48.0686,23.6118a1.50128,1.50128,0,1,1,.89306-2.706l.00781.00586a1.5,1.5,0,0,1-.90087,2.70019Zm-4.6753-3.77637a1.50128,1.50128,0,1,1,.939-2.67041l.00781.00635a1.5,1.5,0,0,1-.94678,2.66406ZM38.718,16.05907a1.50128,1.50128,0,1,1,.939-2.67041l.00782.00634a1.5,1.5,0,0,1-.94678,2.66407ZM34.04272,12.2827a1.50128,1.50128,0,1,1,.939-2.67041l.00781.00635a1.5,1.5,0,0,1-.94677,2.66406Zm-4.6753-3.77637a1.50128,1.50128,0,1,1,.939-2.67041l.00781.00635a1.5,1.5,0,0,1-.94678,2.66406Z"/><path class="cls-1" d="M358.426,15.20213h3.22265l-4.05078,6.64405,4.375,7.18408h-3.33105l-2.97071-5.18555-3.02539,5.18555h-3.33105l4.41211-7.18408-4.0332-6.644H352.97l2.70117,4.73535Z"/><path class="cls-5" d="M128.62963,76.24608l-3.41309-2.10156A61.25877,61.25877,0,0,0,134.29369,42h4.00782A65.26362,65.26362,0,0,1,128.62963,76.24608Z"/><rect class="cls-1" x="13.93334" y="41.25829" width="342.29541" height="1.5"/><rect class="cls-6" width="374.10867" height="271.35349"/></g></g></svg>