<svg xmlns="http://www.w3.org/2000/svg" viewBox="-90.446 0 555 271.353"><defs><style>.cls-1{fill:#666}.cls-3{fill:#9e9e9f}.cls-5{fill:#bfd833}</style></defs><g id="レイヤー_2" data-name="レイヤー 2"><g id="レイヤー_2-2" data-name="レイヤー 2"><path class="cls-1" d="M145.225 66.076c.455-3.687 1.995-7.04 6.077-6.537 3.15.389 4.935 2.717 4.305 7.818-.632 5.12-2.913 6.965-6.082 6.574-3.204-.396-4.93-2.752-4.3-7.855zm4.554 5.796c1.522.188 2.567-.628 2.99-3.756l-4.96-.611c-.363 3.244.52 4.188 1.97 4.367zm3.246-5.832c.25-2.75-.295-4.234-1.96-4.44-1.683-.207-2.59 1.116-2.999 3.828zM364.482 41.7l-10.685-6.17v12.339l10.685-6.169z"/><path d="M156.198 93.459h126.709a4.252 4.252 0 014.252 4.252V224.42a4.252 4.252 0 01-4.252 4.251h-126.71a4.252 4.252 0 01-4.251-4.251V97.71a4.252 4.252 0 014.252-4.252z" transform="rotate(-51.17 219.553 161.065)" fill="#fff"/><path class="cls-3" d="M210.233 210.464l-8 9.938a4.82 4.82 0 01-6.768.732l-3.166-2.548a4.78 4.78 0 01-1.768-3.233l-.817-7.556a3.664 3.664 0 00-1.355-2.48l-5.371-4.323a3.657 3.657 0 00-2.71-.792l-7.558.816a4.783 4.783 0 01-3.536-1.037l-3.166-2.548a4.82 4.82 0 01-.731-6.769l7.999-9.938a4.819 4.819 0 016.767-.73l3.166 2.547a4.788 4.788 0 011.768 3.233l.818 7.56a3.715 3.715 0 001.354 2.477l5.37 4.323a3.669 3.669 0 002.712.794l7.557-.818a4.786 4.786 0 013.536 1.036l3.166 2.548a4.82 4.82 0 01.733 6.768zm-44.07-19.094a3.693 3.693 0 00.56 5.186l3.167 2.549a3.666 3.666 0 002.71.794l7.557-.816a4.773 4.773 0 013.536 1.035l5.371 4.323a4.779 4.779 0 011.768 3.235l.817 7.556a3.664 3.664 0 001.355 2.477l3.166 2.549a3.694 3.694 0 005.188-.561l7.999-9.938a3.693 3.693 0 00-.562-5.186l-3.166-2.549a3.672 3.672 0 00-2.711-.793l-7.557.817a4.788 4.788 0 01-3.537-1.036l-5.37-4.323a4.847 4.847 0 01-1.768-3.233l-.817-7.558a3.673 3.673 0 00-1.355-2.478l-3.166-2.549a3.692 3.692 0 00-5.186.56zm107.654-59.905l-7.998 9.937a4.82 4.82 0 01-6.77.733l-3.165-2.549a4.78 4.78 0 01-1.768-3.232l-.817-7.557a3.666 3.666 0 00-1.355-2.479l-5.371-4.323a3.66 3.66 0 00-2.71-.793l-7.558.817a4.783 4.783 0 01-3.536-1.037l-3.166-2.548a4.82 4.82 0 01-.73-6.77l7.997-9.936a4.818 4.818 0 016.768-.731l3.166 2.548a4.788 4.788 0 011.769 3.232l.816 7.56a3.714 3.714 0 001.355 2.476l5.371 4.323a3.668 3.668 0 002.71.795l7.557-.819a4.788 4.788 0 013.537 1.037l3.166 2.549a4.819 4.819 0 01.732 6.767zM229.75 112.37a3.693 3.693 0 00.56 5.187l3.166 2.548a3.665 3.665 0 002.71.796l7.557-.817a4.777 4.777 0 013.536 1.035l5.371 4.323a4.784 4.784 0 011.768 3.234l.817 7.557a3.663 3.663 0 001.355 2.477l3.166 2.548a3.694 3.694 0 005.188-.56l7.998-9.938a3.692 3.692 0 00-.562-5.186l-3.166-2.548a3.67 3.67 0 00-2.71-.795l-7.557.818a4.786 4.786 0 01-3.536-1.037l-5.371-4.323a4.781 4.781 0 01-1.768-3.232l-.816-7.559a3.669 3.669 0 00-1.356-2.477l-3.166-2.548a3.692 3.692 0 00-5.186.56zm-29.13 9.197l-2.548 3.166a4.776 4.776 0 01-3.231 1.767l-7.558.818a3.712 3.712 0 00-2.478 1.354l-4.324 5.372a3.66 3.66 0 00-.793 2.71l.817 7.557a4.778 4.778 0 01-1.037 3.537l-2.548 3.164a4.821 4.821 0 01-6.77.733l-9.937-7.998a4.82 4.82 0 01-.73-6.77l2.547-3.164a4.783 4.783 0 013.233-1.77l7.56-.815a3.714 3.714 0 002.475-1.355l4.325-5.373a3.714 3.714 0 00.794-2.708l-.818-7.56a4.78 4.78 0 011.036-3.534l2.548-3.166a4.82 4.82 0 016.769-.733l9.937 7.998a4.82 4.82 0 01.731 6.77zm-21.016 11.772l4.325-5.373a4.842 4.842 0 013.233-1.767l7.558-.818a3.657 3.657 0 002.476-1.354l2.548-3.166a3.694 3.694 0 00-.56-5.188l-9.938-7.998a3.693 3.693 0 00-5.186.562l-2.549 3.166a3.66 3.66 0 00-.793 2.708l.817 7.56a4.846 4.846 0 01-1.036 3.535l-4.324 5.372a4.78 4.78 0 01-3.232 1.768l-7.56.817a3.662 3.662 0 00-2.476 1.355l-2.548 3.165a3.694 3.694 0 00.56 5.187l9.936 7.998a3.695 3.695 0 005.189-.561l2.547-3.165a3.662 3.662 0 00.796-2.709l-.818-7.558a4.777 4.777 0 011.035-3.536zm78.864 78.094l-2.548 3.165a4.822 4.822 0 01-6.77.732l-9.937-7.998a4.82 4.82 0 01-.73-6.769l2.547-3.165a4.784 4.784 0 013.233-1.769l.001.01c.166-.028.425-.056.853-.102l4.611-.499a4.785 4.785 0 013.538 1.036l3.88 3.123a4.78 4.78 0 011.767 3.234l.591 5.465a4.78 4.78 0 01-1.036 3.537zm-19.109-10.164a3.694 3.694 0 00.56 5.187l9.936 7.998a3.695 3.695 0 005.19-.561l2.546-3.165a3.662 3.662 0 00.795-2.711l-.591-5.465a3.664 3.664 0 00-1.355-2.479l-3.88-3.123a3.67 3.67 0 00-2.71-.793l-5.459.59-.008.001a3.665 3.665 0 00-2.476 1.356zm40.261-16.116l-2.548 3.166a4.784 4.784 0 01-3.233 1.768l-5.465.59a4.78 4.78 0 01-3.538-1.035l-3.88-3.123a4.785 4.785 0 01-1.767-3.235l-.498-4.612c-.046-.428-.074-.687-.082-.856l-.01.002a4.781 4.781 0 011.036-3.534l2.548-3.167a4.82 4.82 0 016.768-.733l9.937 7.998a4.82 4.82 0 01.733 6.77zm-19.9-7.444c.015.157.39 3.629.588 5.454a3.667 3.667 0 001.354 2.48l3.88 3.122a3.661 3.661 0 002.71.793l5.466-.59a3.666 3.666 0 002.478-1.355l2.548-3.166a3.695 3.695 0 00-.561-5.188l-9.937-7.998a3.693 3.693 0 00-5.186.562l-2.549 3.166a3.663 3.663 0 00-.793 2.707z"/><path d="M312.526 154.572l-79.448 98.707a5.007 5.007 0 01-7.032.76l-98.708-79.447a5.007 5.007 0 01-.76-7.033l79.448-98.708a5.008 5.008 0 017.033-.76l98.708 79.448a5.008 5.008 0 01.76 7.033zM127.746 168.5a3.506 3.506 0 00.533 4.923l98.708 79.448a3.506 3.506 0 004.923-.532l79.448-98.708a3.506 3.506 0 00-.532-4.924L212.118 69.26a3.506 3.506 0 00-4.923.533z" fill="#231815"/><path class="cls-3" d="M310.577 153.003L231.13 251.71a2.503 2.503 0 01-3.515.38l-98.708-79.447a2.504 2.504 0 01-.38-3.517l79.447-98.708a2.504 2.504 0 013.517-.38l98.708 79.449a2.503 2.503 0 01.38 3.515zM129.11 169.597a1.754 1.754 0 00.266 2.462l98.708 79.448a1.753 1.753 0 002.461-.267l79.448-98.707a1.752 1.752 0 00-.265-2.461L211.02 70.624a1.753 1.753 0 00-2.462.265z"/><path class="cls-3" d="M209.094 209.547l-8 9.938a3.356 3.356 0 01-4.712.51l-3.166-2.549a3.329 3.329 0 01-1.23-2.25l-.818-7.558a5.111 5.111 0 00-1.891-3.46l-5.371-4.324a5.117 5.117 0 00-3.786-1.107l-7.557.816a3.374 3.374 0 01-2.462-.721l-3.166-2.549a3.356 3.356 0 01-.51-4.712l8-9.938a3.355 3.355 0 014.712-.51l3.166 2.549a3.367 3.367 0 011.23 2.254l.817 7.556a5.119 5.119 0 001.892 3.459l5.372 4.323a5.113 5.113 0 003.783 1.11l7.558-.817a3.321 3.321 0 012.463.72l3.166 2.548a3.355 3.355 0 01.51 4.712zM167.01 192.05a2.605 2.605 0 00.396 3.658l3.166 2.548a2.62 2.62 0 001.91.56l7.558-.816a5.858 5.858 0 014.336 1.269l5.371 4.323a5.856 5.856 0 012.167 3.965l.817 7.557a2.587 2.587 0 00.955 1.747l3.166 2.548a2.604 2.604 0 003.658-.395l8-9.938a2.605 2.605 0 00-.396-3.658l-3.166-2.548a2.58 2.58 0 00-1.912-.559l-7.558.817a5.858 5.858 0 01-4.335-1.27l-5.37-4.324a5.865 5.865 0 01-2.169-3.963l-.817-7.557a2.612 2.612 0 00-.954-1.749l-3.166-2.548a2.605 2.605 0 00-3.658.395zm105.668-61.502l-7.998 9.937a3.356 3.356 0 01-4.712.51l-3.167-2.549a3.33 3.33 0 01-1.23-2.25l-.818-7.557a5.114 5.114 0 00-1.891-3.46l-5.372-4.324a5.119 5.119 0 00-3.784-1.108l-7.558.817a3.374 3.374 0 01-2.461-.722l-3.166-2.548a3.356 3.356 0 01-.51-4.713l7.998-9.937a3.355 3.355 0 014.713-.51l3.166 2.549a3.371 3.371 0 011.23 2.252l.817 7.558a5.123 5.123 0 001.892 3.46l5.371 4.322a5.187 5.187 0 003.784 1.11l7.558-.817a3.325 3.325 0 012.462.72l3.167 2.548a3.356 3.356 0 01.509 4.712zm-42.082-17.497a2.605 2.605 0 00.395 3.658l3.166 2.549a2.62 2.62 0 001.91.56l7.558-.817a5.863 5.863 0 014.336 1.27l5.37 4.323a5.86 5.86 0 012.168 3.964l.817 7.558a2.582 2.582 0 00.956 1.746l3.166 2.548a2.605 2.605 0 003.658-.395l7.998-9.937a2.604 2.604 0 00-.396-3.658l-3.166-2.548a2.582 2.582 0 00-1.91-.56l-7.56.818a5.94 5.94 0 01-4.334-1.27l-5.371-4.324a5.866 5.866 0 01-2.168-3.963l-.817-7.558a2.614 2.614 0 00-.954-1.748l-3.166-2.548a2.605 2.605 0 00-3.658.395zm-31.116 7.599l-2.548 3.165a3.374 3.374 0 01-2.25 1.232l-7.557.816a5.12 5.12 0 00-3.46 1.891l-4.324 5.373a5.118 5.118 0 00-1.108 3.784l.817 7.558a3.374 3.374 0 01-.723 2.461l-2.547 3.165a3.355 3.355 0 01-4.712.51l-9.937-7.999a3.356 3.356 0 01-.51-4.712l2.548-3.165a3.371 3.371 0 012.252-1.23l7.557-.817a5.19 5.19 0 003.46-1.892l4.324-5.373a5.193 5.193 0 001.109-3.784l-.818-7.556a3.371 3.371 0 01.72-2.463l2.549-3.166a3.356 3.356 0 014.712-.51l9.937 7.999a3.355 3.355 0 01.51 4.712zm-20.723 12.006l4.324-5.372a5.862 5.862 0 013.964-2.167l7.556-.816a2.622 2.622 0 001.747-.956l2.548-3.166a2.605 2.605 0 00-.395-3.658l-9.937-7.998a2.605 2.605 0 00-3.658.395l-2.548 3.166a2.616 2.616 0 00-.559 1.912l.818 7.557a5.945 5.945 0 01-1.27 4.335l-4.325 5.372a5.945 5.945 0 01-3.963 2.167l-7.558.817a2.619 2.619 0 00-1.748.955l-2.547 3.165a2.604 2.604 0 00.395 3.658l9.937 7.998a2.604 2.604 0 003.658-.395l2.547-3.165a2.622 2.622 0 00.561-1.91l-.817-7.558a5.861 5.861 0 011.27-4.336zm78.57 77.859l-2.547 3.165a3.355 3.355 0 01-4.712.51l-9.937-7.998a3.355 3.355 0 01-.51-4.713l2.548-3.165a3.374 3.374 0 012.227-1.227l.025-.003 5.464-.591a3.337 3.337 0 012.462.722l3.88 3.123a3.339 3.339 0 011.233 2.25l.497 4.611c.05.458.076.707.082.856l.01-.001a3.37 3.37 0 01-.722 2.461zm-17.122-8.565a2.605 2.605 0 00.396 3.657l9.937 7.998a2.604 2.604 0 003.658-.395l2.547-3.165a2.614 2.614 0 00.56-1.91v-.006l-.59-5.46a2.591 2.591 0 00-.956-1.747l-3.88-3.123a2.594 2.594 0 00-1.912-.561l-5.44.589-.024.004a2.615 2.615 0 00-1.748.954zm38.275-17.715l-2.548 3.166a3.362 3.362 0 01-2.25 1.23l-.001-.011c-.146.026-.396.054-.852.103l-4.612.5a3.34 3.34 0 01-2.462-.723l-3.88-3.123a3.342 3.342 0 01-1.232-2.25l-.59-5.465a.274.274 0 01-.002-.036 3.362 3.362 0 01.722-2.426l2.549-3.166a3.355 3.355 0 014.712-.51l9.937 7.998a3.355 3.355 0 01.51 4.713zm-4.887 3.65l.01-.001a2.605 2.605 0 001.745-.954l2.548-3.166a2.604 2.604 0 00-.395-3.657l-9.937-7.998a2.605 2.605 0 00-3.658.395l-2.549 3.166a2.606 2.606 0 00-.557 1.908l.003.037.586 5.431a2.594 2.594 0 00.956 1.747l3.88 3.123a2.595 2.595 0 001.912.561c1.834-.199 5.319-.576 5.456-.592z"/><path class="cls-5" d="M336.237 255.06l-5.244-13.539-9.104 11.311 14.348 2.228z"/><path class="cls-5" d="M336.497 255.27l-.286-.043-14.635-2.274.182-.226 9.287-11.538zm-14.296-2.56l13.775 2.14-5.034-12.998zM123.559 80.384l12.456-7.461-12.689-7.057.233 14.518z"/><path class="cls-5" d="M123.396 80.677l-.243-15.099 13.197 7.339zm.102-14.523l.224 13.937 11.957-7.162zm205.089 184.044a1.501 1.501 0 11.894-2.706l.008.006a1.5 1.5 0 01-.902 2.7zm-4.675-3.776a1.501 1.501 0 11.98-2.636l.009.007a1.5 1.5 0 01-.989 2.629zm-4.675-3.777a1.501 1.501 0 11.98-2.635l.008.007a1.5 1.5 0 01-.988 2.628zm-4.675-3.776a1.501 1.501 0 11.98-2.636l.008.007a1.5 1.5 0 01-.988 2.63zm-4.676-3.776a1.501 1.501 0 11.98-2.636l.008.007a1.5 1.5 0 01-.988 2.629zm-4.675-3.777a1.501 1.501 0 11.98-2.635l.008.006a1.5 1.5 0 01-.988 2.63zm-4.676-3.776a1.501 1.501 0 11.98-2.636l.009.007a1.5 1.5 0 01-.989 2.629zm-4.675-3.777a1.501 1.501 0 11.97-2.645l.007.006a1.5 1.5 0 01-.977 2.639zm-4.675-3.777a1.501 1.501 0 11.893-2.706l.008.006a1.5 1.5 0 01-.901 2.7zm-4.675-3.776a1.501 1.501 0 11.894-2.706l.007.006a1.5 1.5 0 01-.901 2.7zm-4.676-3.776a1.501 1.501 0 11.894-2.706l.008.005a1.5 1.5 0 01-.902 2.7zm-4.676-3.777a1.501 1.501 0 11.894-2.706l.008.006a1.5 1.5 0 01-.902 2.7zm-4.674-3.776a1.501 1.501 0 11.893-2.706l.008.006a1.5 1.5 0 01-.901 2.7zm-4.676-3.776a1.501 1.501 0 11.893-2.707l.008.006a1.5 1.5 0 01-.901 2.7zm-4.675-3.777a1.501 1.501 0 11.894-2.706l.007.006a1.5 1.5 0 01-.9 2.7zm-4.676-3.776a1.501 1.501 0 11.894-2.706l.008.006a1.5 1.5 0 01-.902 2.7zm-4.675-3.777a1.501 1.501 0 11.98-2.635l.009.007a1.5 1.5 0 01-.989 2.628zM249.107 186a1.501 1.501 0 11.98-2.636l.008.007a1.5 1.5 0 01-.988 2.63zm-4.675-3.776a1.501 1.501 0 11.98-2.636l.008.007a1.5 1.5 0 01-.988 2.629zm-4.676-3.777a1.501 1.501 0 11.98-2.635l.008.006a1.5 1.5 0 01-.988 2.63zm-4.675-3.776a1.501 1.501 0 11.98-2.636l.009.007a1.5 1.5 0 01-.989 2.629zm-4.675-3.776a1.501 1.501 0 11.981-2.636l.008.007a1.5 1.5 0 01-.989 2.629zm-4.675-3.777a1.501 1.501 0 11.98-2.636l.008.007a1.5 1.5 0 01-.988 2.63zm-4.676-3.777a1.501 1.501 0 11.893-2.706l.008.006a1.5 1.5 0 01-.9 2.7zm-4.675-3.776a1.501 1.501 0 11.893-2.707l.008.006a1.5 1.5 0 01-.9 2.7zm-4.675-3.777a1.501 1.501 0 11.893-2.706l.008.006a1.5 1.5 0 01-.901 2.7zm-4.675-3.776a1.501 1.501 0 11.893-2.706l.007.006a1.5 1.5 0 01-.9 2.7zm-4.676-3.777a1.501 1.501 0 11.893-2.706l.008.006a1.5 1.5 0 01-.9 2.7zm-4.675-3.776a1.501 1.501 0 11.893-2.706l.008.006a1.5 1.5 0 01-.901 2.7zm-4.676-3.776a1.501 1.501 0 11.93-2.677l.008.006a1.5 1.5 0 01-.938 2.67zm-4.675-3.777a1.501 1.501 0 11.93-2.676l.008.005a1.5 1.5 0 01-.938 2.671zm-4.675-3.776a1.501 1.501 0 111.017-2.604l.007.007a1.5 1.5 0 01-1.024 2.597zm-4.675-3.776a1.501 1.501 0 111.016-2.604l.008.007a1.5 1.5 0 01-1.024 2.597zm-4.676-3.777a1.501 1.501 0 11.981-2.636l.008.007a1.5 1.5 0 01-.989 2.63zm-4.675-3.776a1.501 1.501 0 11.98-2.636l.008.007a1.5 1.5 0 01-.988 2.629zm-4.675-3.777a1.501 1.501 0 11.98-2.635l.008.007a1.5 1.5 0 01-.988 2.628zm-4.675-3.776a1.501 1.501 0 11.98-2.636l.008.007a1.5 1.5 0 01-.988 2.63zm-4.676-3.777a1.501 1.501 0 11.893-2.706l.008.006a1.5 1.5 0 01-.901 2.7zm-4.675-3.777a1.501 1.501 0 11.893-2.706l.007.006a1.5 1.5 0 01-.9 2.7zm-4.676-3.776a1.501 1.501 0 11.893-2.706l.008.006a1.5 1.5 0 01-.9 2.7zm-4.675-3.776a1.501 1.501 0 11.893-2.706l.008.006a1.5 1.5 0 01-.901 2.7zm-4.675-3.777a1.501 1.501 0 11.893-2.706l.008.006a1.5 1.5 0 01-.901 2.7zm-4.676-3.776a1.501 1.501 0 11.893-2.706l.008.006a1.5 1.5 0 01-.9 2.7zm-4.675-3.776a1.501 1.501 0 11.893-2.706l.008.005a1.5 1.5 0 01-.9 2.7zm-4.675-3.777a1.501 1.501 0 11.893-2.706l.008.006a1.5 1.5 0 01-.901 2.7zm-4.675-3.776a1.501 1.501 0 11.98-2.636l.008.007a1.5 1.5 0 01-.988 2.629zm-4.675-3.777a1.501 1.501 0 11.98-2.635l.008.007a1.5 1.5 0 01-.988 2.628zm-4.676-3.776a1.501 1.501 0 11.98-2.636l.009.007a1.5 1.5 0 01-.989 2.629zm-4.675-3.776a1.501 1.501 0 11.98-2.636l.008.007a1.5 1.5 0 01-.988 2.629zm-4.675-3.777a1.501 1.501 0 11.98-2.635l.008.006a1.5 1.5 0 01-.988 2.63zm-4.675-3.776a1.501 1.501 0 11.98-2.636l.008.007a1.5 1.5 0 01-.988 2.629zM90.147 57.6a1.501 1.501 0 11.893-2.706l.008.005a1.5 1.5 0 01-.901 2.7zm-4.676-3.777a1.501 1.501 0 11.893-2.706l.008.006a1.5 1.5 0 01-.9 2.7zm-4.675-3.776a1.501 1.501 0 11.93-2.677l.008.005a1.5 1.5 0 01-.938 2.672zM76.12 46.27a1.501 1.501 0 11.893-2.706l.008.006a1.5 1.5 0 01-.9 2.7zm-4.675-3.776a1.501 1.501 0 11.94-2.67l.007.006a1.5 1.5 0 01-.947 2.664zm-4.675-3.776a1.501 1.501 0 11.939-2.67l.008.006a1.5 1.5 0 01-.947 2.664zm-4.676-3.777a1.501 1.501 0 11.94-2.67l.007.006a1.5 1.5 0 01-.947 2.664zm-4.675-3.776a1.501 1.501 0 11.94-2.67l.007.006a1.5 1.5 0 01-.947 2.664zm-4.675-3.776a1.501 1.501 0 11.939-2.67l.008.006a1.5 1.5 0 01-.947 2.664zm-4.675-3.777a1.501 1.501 0 11.893-2.706l.007.006a1.5 1.5 0 01-.9 2.7zm-4.676-3.777a1.501 1.501 0 11.94-2.67l.007.006a1.5 1.5 0 01-.947 2.664zm-4.675-3.776a1.501 1.501 0 11.939-2.67l.008.006a1.5 1.5 0 01-.947 2.664zm-4.675-3.776a1.501 1.501 0 11.939-2.67l.008.006a1.5 1.5 0 01-.947 2.664zm-4.676-3.777a1.501 1.501 0 11.94-2.67l.007.006a1.5 1.5 0 01-.947 2.664z"/><path class="cls-1" d="M358.426 15.202h3.223l-4.051 6.644 4.375 7.184h-3.331l-2.97-5.185-3.026 5.185h-3.331l4.412-7.184-4.033-6.644h3.276l2.701 4.736z"/><path class="cls-5" d="M128.63 76.246l-3.413-2.101A61.259 61.259 0 00134.294 42h4.008a65.264 65.264 0 01-9.672 34.246z"/><path class="cls-1" d="M13.933 41.258h342.295v1.5H13.933z"/><path fill="none" d="M0 0h374.109v271.353H0z"/></g></g></svg>