<svg xmlns="http://www.w3.org/2000/svg" viewBox="0 0 75 75"><defs><style>.cls-2{fill:#fff}.cls-3{fill:#675642}</style></defs><g id="レイヤー_2" data-name="レイヤー 2"><g id="レイヤー_2-2" data-name="レイヤー 2"><path transform="rotate(90 37.5 37.5)" fill="none" d="M0 0h75v75H0z"/><path class="cls-2" d="M5 5h65v65H5z"/><path class="cls-3" d="M70.125 70.125H4.875V4.875h65.25zm-65-.25h64.75V5.125H5.125z"/><circle class="cls-3" cx="37.5" cy="30.909" r="19.732"/><path class="cls-2" d="M41.228 35.711a4.804 4.804 0 114.825-4.803 4.763 4.763 0 01-4.825 4.803zm0-8.247a3.444 3.444 0 103.388 3.444 3.42 3.42 0 00-3.388-3.444zM31.574 30.46v1.252h2.265a3.394 3.394 0 11-3.294-4.25 3.342 3.342 0 012.413 1.032l1.009-1.004a4.825 4.825 0 00-3.422-1.384 4.804 4.804 0 104.758 5.606 4.817 4.817 0 00.068-.805v-.448zM49.276 34.744a.954.954 0 00-1.907 0 .954.954 0 101.907 0zM49.04 32.816h-1.435v-6.712h1.436z"/><path class="cls-3" d="M16.08 56.126v-1.528h.292v1.528zm.623 1.12l-.14-.237a1.21 1.21 0 001.03-1.332v-1.158h.298v1.16a1.46 1.46 0 01-1.188 1.566zM20.09 56.129a3.71 3.71 0 001.15.844l-.165.242a4.222 4.222 0 01-1.158-.882 3.411 3.411 0 01-1.263.882l-.15-.223a3.168 3.168 0 001.837-1.906h-1.53v-.246h1.907a3.3 3.3 0 01-.627 1.289zm.71-1.246a2.004 2.004 0 00-.24-.512l.16-.079a2.14 2.14 0 01.258.519zm.446-.053a1.992 1.992 0 00-.236-.524l.16-.082a2.188 2.188 0 01.253.534zM21.612 57.113l-.036-.265c.085-.003.174-.01.266-.017.295-.748.557-1.538.774-2.286h.312c-.233.77-.489 1.532-.78 2.267a56.95 56.95 0 001.547-.128 3.801 3.801 0 00-.505-.794l.22-.138a4.679 4.679 0 01.787 1.411l-.275.095a2.726 2.726 0 00-.118-.331c-.693.072-1.503.144-2.192.186zM27.123 57.074l-.298-.34a.833.833 0 01-.745.383.69.69 0 01-.76-.696.799.799 0 01.554-.768.76.76 0 01-.272-.56.569.569 0 01.613-.581.535.535 0 01.606.554.772.772 0 01-.534.663l.512.568c.062-.121.18-.381.249-.562h.318a9.646 9.646 0 01-.367.745l.519.594zm-1.099-1.24a.588.588 0 00-.407.564.467.467 0 00.48.483.599.599 0 00.54-.348zm.19-1.093a.318.318 0 00-.334.342.668.668 0 00.243.466c.22-.099.416-.234.416-.485a.298.298 0 00-.324-.323zM28.767 57.035v-.27h1.857v-1.554h-1.853v-.263h2.148v2.087zm2.093-2.145a2.15 2.15 0 00-.246-.529l.16-.086a2.074 2.074 0 01.263.542zm.462-.05a2.045 2.045 0 00-.239-.528l.164-.085a2.246 2.246 0 01.256.54zM31.719 56.083v-.295h2.578v.295zM36.487 56.09c.01.105.014.226.014.367v.26h-.266v-.256c0-.092 0-.171-.004-.24-.33.18-.55.368-.55.532 0 .19.193.259.669.259a7.41 7.41 0 00.827-.046v.249c-.224.02-.541.033-.823.033-.657 0-.939-.144-.939-.476 0-.294.321-.57.787-.817-.036-.18-.104-.232-.217-.232a1.149 1.149 0 00-.626.262 2.7 2.7 0 00-.44.43l-.203-.174a3.424 3.424 0 00.731-1.102h-.573v-.234h.662a3.624 3.624 0 00.128-.495h.29a4.306 4.306 0 01-.129.495h.997v.234h-1.079a2.936 2.936 0 01-.272.545 1.176 1.176 0 01.59-.2c.197 0 .322.087.387.35.256-.118.541-.23.83-.331l.102.246a7.927 7.927 0 00-.893.34zM38.071 57.156a5.887 5.887 0 01-.105-1.24 11.629 11.629 0 01.086-1.332h.278a10.97 10.97 0 00-.089 1.336 5.883 5.883 0 00.099 1.184zm2.34-.19a1.83 1.83 0 00-.474-.324c-.019.393-.18.547-.564.547-.387 0-.669-.18-.669-.462 0-.27.27-.447.66-.447a1.598 1.598 0 01.308.03c-.003-.23-.01-.551-.013-.915h-.998v-.24h.994c-.003-.193-.003-.393-.003-.597h.266c0 .2 0 .4.003.597h.588v.24h-.584l.016.99a2.055 2.055 0 01.626.388zm-1.064-.463c-.25 0-.407.082-.407.224 0 .15.174.236.414.236.229 0 .32-.092.32-.417a1.235 1.235 0 00-.327-.043zM42.139 57.231c-.569 0-.903-.258-.903-.927v-1.802h.285v1.778c0 .515.217.679.63.679a1.073 1.073 0 00.968-.744l.227.154a1.316 1.316 0 01-1.207.862zm.403-1.79a2.193 2.193 0 00-.243-.548l.164-.085a2.057 2.057 0 01.263.56zm.427-.158a2.057 2.057 0 00-.243-.542l.164-.085a2.251 2.251 0 01.262.552zM44.43 54.578h.26a6.205 6.205 0 00.042.646 1.643 1.643 0 01.794-.21h.003a3.502 3.502 0 00.046-.58h.273a4.317 4.317 0 01-.05.603.991.991 0 01.853.994c0 .65-.53 1.08-1.341 1.188l-.088-.246c.78-.102 1.151-.466 1.151-.932a.756.756 0 00-.62-.762c-.24 1.047-.866 1.674-1.286 1.674a.566.566 0 01-.515-.617 1.287 1.287 0 01.551-.961 4.664 4.664 0 01-.072-.797zm.132 1.063a.997.997 0 00-.351.695c0 .213.115.352.266.352a.695.695 0 00.446-.273 2.165 2.165 0 01-.361-.774zm.528.557a2.786 2.786 0 00.393-.944 1.354 1.354 0 00-.708.22 1.69 1.69 0 00.315.724zM48.534 57.268c-.466 0-.758-.194-.758-.476 0-.23.213-.41.535-.41a.718.718 0 01.696.571.597.597 0 00.426-.545c0-.321-.266-.538-.748-.538a1.343 1.343 0 00-.58.125 3.679 3.679 0 00-.768.56l-.17-.202c.222-.181.547-.437.767-.64.233-.213.663-.604.915-.857h-1.246v-.246h1.666v.217c-.295.282-.742.679-.958.889a1.27 1.27 0 01.436-.078c.62 0 .955.307.955.763 0 .51-.482.867-1.168.867zm-.233-.666c-.187 0-.285.086-.285.2 0 .147.18.239.489.239a1.346 1.346 0 00.266-.022.504.504 0 00-.47-.417zM51.7 57.19c-.85 0-1.27-.181-1.27-.63 0-.313.305-.615.784-.89a3.083 3.083 0 01-.23-1.243h.292a3.077 3.077 0 00.177 1.115 7.585 7.585 0 011.03-.42l.102.263c-1.08.344-1.87.77-1.87 1.154 0 .282.272.388.984.388.302 0 .67-.017.942-.04v.266c-.266.023-.617.036-.942.036zM54.94 55.88a3.996 3.996 0 00.2.43l-.266.088a4.496 4.496 0 01-.226-.518h-1.381v-.24h1.295a6.43 6.43 0 01-.143-.498h-1.008v-.24h.948a7.99 7.99 0 01-.101-.518h.285c.026.174.06.347.099.518h.902v.24H54.7c.043.173.096.341.152.499h.869v.239zm-.098 1.394c-.876 0-1.283-.212-1.283-.554a.923.923 0 01.105-.404l.256.05a.78.78 0 00-.085.322c0 .229.35.334.99.334.082 0 .22-.003.358-.006v.252c-.119.003-.252.006-.341.006zM57.532 57.19c-.85 0-1.27-.181-1.27-.63 0-.313.306-.615.785-.89a3.083 3.083 0 01-.23-1.243h.292a3.077 3.077 0 00.177 1.115 7.584 7.584 0 011.03-.42l.102.263c-1.08.344-1.87.77-1.87 1.154 0 .282.272.388.984.388.302 0 .67-.017.942-.04v.266c-.266.023-.617.036-.942.036zM59.653 57.354a4.061 4.061 0 00-.663-.657l.174-.164a4.158 4.158 0 01.686.647zM16.269 62.574a6.826 6.826 0 01-.079-.482h-.725v-.266h.991c.124 1.424.524 2.24 1.41 2.634l-.23.236a2.527 2.527 0 01-1.282-1.745 2.562 2.562 0 01-1.312 1.75l-.2-.23a2.363 2.363 0 001.305-1.904zM20.778 62.476h.145a5.61 5.61 0 01-.276 2.138.41.41 0 01-.265.082 9.77 9.77 0 01-.526-.006l-.048-.276c.147.01.39.014.502.01a.172.172 0 00.12-.04 5.06 5.06 0 00.191-1.65h-.958a2.411 2.411 0 01-1.243 1.962l-.223-.206a2.115 2.115 0 001.19-1.756h-1.115v-.258h1.145c.023-.26.026-.522.03-.778l.282.003c-.003.256-.013.516-.036.775h1.085zM22.454 62.558h.22c.482 0 .656.21.656.705a2.27 2.27 0 01-.21 1.073.422.422 0 01-.435.24 1.23 1.23 0 01-.463-.1l.033-.229a1.149 1.149 0 00.393.085.236.236 0 00.23-.111 1.956 1.956 0 00.183-.958c0-.331-.11-.469-.426-.469-.069 0-.148 0-.233.003a6.231 6.231 0 01-.692 1.781l-.233-.13a5.563 5.563 0 00.65-1.644c-.2.003-.42.012-.65.022l-.013-.235c.263-.014.502-.02.715-.027a6.147 6.147 0 00.105-.728h.279a6.824 6.824 0 01-.109.722zm1.208-.223a2.075 2.075 0 00-.236-.542l.16-.082a2.073 2.073 0 01.256.552zm.288 1.577a2.307 2.307 0 00-.442-1.371l.213-.13a2.528 2.528 0 01.508 1.501zm.142-1.685a1.994 1.994 0 00-.24-.529l.16-.085a2.165 2.165 0 01.257.537zM25.445 64.71h-.258v-1.32c-.205.027-.408.05-.552.063l-.056-.246c.063-.003.132-.01.21-.013.099-.122.193-.25.285-.374a3.077 3.077 0 00-.452-.489l.138-.18c.039.033.075.069.114.102a4.285 4.285 0 00.328-.562l.234.099a5.959 5.959 0 01-.404.623 2.66 2.66 0 01.184.214c.164-.236.305-.46.4-.634l.237.109a11.57 11.57 0 01-.762 1.069c.174-.017.361-.03.518-.046a2.323 2.323 0 00-.183-.282l.203-.105a2.601 2.601 0 01.352.623l-.214.106a1 1 0 00-.056-.139c-.08.01-.17.02-.266.033zm-.417-1.09a3.048 3.048 0 01-.213.863l-.222-.082a2.699 2.699 0 00.21-.817zm.784-.061a3.004 3.004 0 01.174.652l-.23.06a2.992 2.992 0 00-.166-.654c.095-.03.157-.043.223-.058zm1.868-.132l-.174.21a2.599 2.599 0 01-.722-.512 2.827 2.827 0 01-.762.535l-.173-.193a2.46 2.46 0 00.774-.516 2.63 2.63 0 01-.311-.463 2.216 2.216 0 01-.27.313l-.22-.149a2.247 2.247 0 00.624-.96l.242.062a2.33 2.33 0 01-.094.249h.636l.184.06a2.418 2.418 0 01-.463.878 2.349 2.349 0 00.729.486zm-1.428.528a5.032 5.032 0 011.175.541l-.18.21a4.638 4.638 0 00-1.143-.557zm.352-.545a2.865 2.865 0 01.596.42l-.19.164a2.496 2.496 0 00-.564-.426zm.183-.645a2.016 2.016 0 00.302-.533h-.61l-.013.021a2.22 2.22 0 00.321.512zM28.61 64.64v-1.026c-.144.164-.301.358-.475.58l-.207-.186c.259-.325.482-.587.682-.797v-.414h-.63v-.242h.63V61.8h.276v1.141a1.492 1.492 0 011.023-.472.874.874 0 01.864.962c0 .623-.456 1.004-1.369 1.105l-.075-.25c.81-.088 1.161-.377 1.161-.865a.622.622 0 00-.6-.683c-.283 0-.575.14-1.004.577v1.326zM31.776 64.53l-.047-.24c.985 0 1.415-.24 1.415-.709 0-.295-.21-.531-.63-.531a6.278 6.278 0 00-1.227.246l-.07-.253a7.8 7.8 0 011.34-.242.765.765 0 01.866.773c0 .588-.466.955-1.647.955zM34.937 62.345h.706v.239h-.746a7.775 7.775 0 01-.63 2.024L34 64.493a6.668 6.668 0 00.61-1.909h-.585v-.24h.624c.027-.187.046-.373.056-.547h.298c-.013.177-.035.36-.065.548zm1.19 2.194c-.689 0-1.046-.161-1.046-.45a.826.826 0 01.275-.525l.205.113c-.152.17-.205.278-.205.367 0 .164.244.249.768.249.158 0 .313-.007.476-.023v.25c-.163.012-.312.02-.472.02zm-.803-1.394l-.033-.243a11.823 11.823 0 011.276-.06v.247a11.027 11.027 0 00-1.243.056zM38.467 64.563c-.85 0-1.27-.181-1.27-.63 0-.313.306-.615.784-.89a3.083 3.083 0 01-.23-1.243h.293a3.077 3.077 0 00.177 1.115 7.583 7.583 0 011.03-.42l.102.263c-1.08.344-1.87.77-1.87 1.154 0 .282.272.388.984.388.302 0 .67-.017.941-.04v.266c-.265.023-.616.037-.941.037zM41.708 63.253a3.996 3.996 0 00.2.43l-.266.088a4.495 4.495 0 01-.226-.518h-1.382v-.24h1.296a6.435 6.435 0 01-.143-.498h-1.008v-.24h.948a7.996 7.996 0 01-.102-.518h.286c.026.174.06.348.098.518h.903v.24h-.844c.043.173.096.341.151.499h.87v.239zm-.099 1.394c-.876 0-1.283-.212-1.283-.554a.923.923 0 01.106-.404l.255.05a.78.78 0 00-.085.322c0 .229.351.334.99.334.083 0 .22-.003.358-.006v.252c-.118.004-.252.006-.34.006zM43.196 64.51a5.651 5.651 0 01-.107-1.188 8.39 8.39 0 01.104-1.286h.276a9.591 9.591 0 00-.105 1.28 5.815 5.815 0 00.105 1.15zm1.68-.092c-.784 0-1.08-.157-1.08-.466a.967.967 0 01.273-.597l.227.108a.755.755 0 00-.23.453c0 .17.223.252.81.252.158 0 .328-.003.509-.02v.25a5.77 5.77 0 01-.509.02zm-1.01-1.857v-.247h1.5v.247zM47.263 62.574a6.82 6.82 0 01-.078-.482h-.726v-.266h.991c.124 1.424.525 2.24 1.41 2.634l-.23.236a2.527 2.527 0 01-1.281-1.745 2.562 2.562 0 01-1.313 1.75l-.2-.23a2.363 2.363 0 001.306-1.904zM51.772 62.476h.145a5.61 5.61 0 01-.275 2.138.41.41 0 01-.266.082 9.77 9.77 0 01-.525-.006l-.05-.276c.148.01.391.014.503.01a.172.172 0 00.12-.04 5.06 5.06 0 00.191-1.65h-.958a2.411 2.411 0 01-1.243 1.962l-.223-.206a2.115 2.115 0 001.19-1.756h-1.114v-.258h1.144c.024-.26.026-.522.03-.778l.282.003c-.003.256-.013.516-.036.775h1.086zM53.648 64.604c-.57 0-.908-.262-.908-.934v-1.808h.292v1.788c0 .515.217.68.633.68a1.068 1.068 0 00.968-.749l.23.157a1.324 1.324 0 01-1.215.866zM57.41 62.427a.65.65 0 00-.289.12 1.398 1.398 0 00-.705 1.084c0 .432.384.669 1.155.676l-.046.261c-.928-.012-1.387-.374-1.387-.924a1.558 1.558 0 01.727-1.214l-1.571.065-.013-.259 2.605-.105.01.26a4.855 4.855 0 00-.486.036zM58.942 64.588v-.944c-.154.173-.314.364-.482.57l-.2-.174c.243-.298.47-.56.682-.79v-.446h-.6v-.243h.6v-.754h.276v1.158a1.987 1.987 0 011.172-.726c.38 0 .544.331.544 1.182a2.784 2.784 0 01-.037.5 1.927 1.927 0 01.388.326l-.161.19a1.68 1.68 0 00-.289-.272.6.6 0 01-.636.403c-.368 0-.603-.18-.603-.423s.225-.43.62-.43a1.209 1.209 0 01.43.079c.01-.105.012-.226.012-.367 0-.662-.079-.908-.308-.908-.233 0-.626.294-1.132.823v1.246zm1.26-.66c-.24 0-.374.1-.374.215 0 .13.152.21.358.21a.382.382 0 00.42-.326.968.968 0 00-.404-.098zM13.942 60.574a3.889 3.889 0 01-.074-.817 5.79 5.79 0 01.072-.886h.19a6.656 6.656 0 00-.072.88 4.003 4.003 0 00.072.794zm1.157-.063c-.54 0-.743-.109-.743-.32a.664.664 0 01.187-.412l.156.075a.517.517 0 00-.158.311c0 .118.153.174.558.174.108 0 .226-.002.35-.013v.171c-.122.012-.239.014-.35.014zm-.696-1.279v-.169h1.033v.17zM16.223 60.683l-.116-.104a.809.809 0 00.202-.19.761.761 0 01-.306-.185l.072-.129a.633.633 0 00.303.174 1.604 1.604 0 00.043-.477c0-.084 0-.187-.002-.293a.742.742 0 00-.578.512.297.297 0 00-.02.109.999.999 0 00.025.22l-.157.033a2.396 2.396 0 01-.053-.515 5.622 5.622 0 01.029-.576h.162a3.877 3.877 0 00-.03.452v.05a.803.803 0 01.617-.439 5.005 5.005 0 00-.016-.25h.17c.007.068.011.153.016.241a.524.524 0 01.53.56.546.546 0 01-.576.545.355.355 0 01-.056-.003.801.801 0 01-.26.265zm.322-.418a.38.38 0 00.402-.393.37.37 0 00-.36-.4c.004.106.004.21.004.298a1.783 1.783 0 01-.046.495zM17.49 60.669l-.045-.174c.675-.056.983-.27.983-.612a.357.357 0 00-.393-.379 6.154 6.154 0 00-.847.093l-.037-.184a6.507 6.507 0 01.895-.093.53.53 0 01.585.563c0 .447-.415.734-1.14.786zm.841-1.59a4.036 4.036 0 00-.852-.215l.043-.174a4.396 4.396 0 01.868.217zM19.084 59.967h-.187a2.281 2.281 0 01-.056-.515 3.703 3.703 0 01.06-.617h.19a3.514 3.514 0 00-.06.61 1.618 1.618 0 00.024.293c.079-.096.187-.223.289-.345l.093.158c-.118.134-.242.28-.353.416zm.3.709l-.114-.154a1 1 0 00.674-1.102c0-.133-.008-.386-.029-.628h.197c.023.237.032.477.032.626a1.18 1.18 0 01-.76 1.258zM21.4 60.576a1.404 1.404 0 00-.47-.28c-.004.273-.09.371-.345.371-.25 0-.413-.129-.413-.287 0-.165.167-.282.445-.282a.94.94 0 01.14.008c-.007-.23-.02-.573-.02-1.011h.173c0 .135.003.264.003.382h.589v.156h-.585l.012.508a1.549 1.549 0 01.566.31zm-.795-.332c-.182 0-.277.053-.277.138 0 .082.102.138.243.138.157 0 .188-.054.188-.264a1.132 1.132 0 00-.154-.012zM22.765 60.68a6.06 6.06 0 00-1.048-.871c-.072-.05-.1-.093-.1-.14 0-.043.02-.086.098-.143a7.54 7.54 0 00.977-.85l.157.138a9.081 9.081 0 01-.924.79c-.041.029-.057.044-.057.062 0 .02.014.03.05.055a6.34 6.34 0 01.996.815zM44.878 60.574a3.889 3.889 0 01-.074-.817 5.79 5.79 0 01.072-.886h.19a6.654 6.654 0 00-.073.88 4.003 4.003 0 00.072.794zm1.156-.063c-.539 0-.742-.109-.742-.32a.664.664 0 01.187-.412l.156.075a.517.517 0 00-.158.311c0 .118.153.174.557.174.109 0 .227-.002.35-.013v.171c-.121.012-.238.014-.35.014zm-.695-1.279v-.169h1.032v.17zM47.158 60.683l-.115-.104a.81.81 0 00.201-.19.761.761 0 01-.305-.185l.072-.129a.633.633 0 00.303.174 1.604 1.604 0 00.043-.477c0-.084 0-.187-.002-.293a.742.742 0 00-.579.512.297.297 0 00-.02.109.999.999 0 00.025.22l-.156.033a2.396 2.396 0 01-.054-.515 5.622 5.622 0 01.03-.576h.162a3.877 3.877 0 00-.03.452v.05a.803.803 0 01.617-.439 5.004 5.004 0 00-.016-.25h.17c.007.068.01.153.016.241a.524.524 0 01.53.56.546.546 0 01-.576.545.354.354 0 01-.056-.003.801.801 0 01-.26.265zm.322-.418a.38.38 0 00.403-.393.37.37 0 00-.36-.4c.003.106.003.21.003.298a1.783 1.783 0 01-.046.495zM48.426 60.669l-.045-.174c.675-.056.982-.27.982-.612a.357.357 0 00-.392-.379 6.154 6.154 0 00-.848.093l-.036-.184a6.507 6.507 0 01.894-.093.53.53 0 01.585.563c0 .447-.415.734-1.14.786zm.84-1.59a4.037 4.037 0 00-.851-.215l.043-.174a4.396 4.396 0 01.867.217zM50.02 59.967h-.187a2.281 2.281 0 01-.057-.515 3.704 3.704 0 01.06-.617h.19a3.514 3.514 0 00-.06.61 1.619 1.619 0 00.024.293l.29-.345.092.158c-.117.134-.241.28-.352.416zm.3.709l-.115-.154a1 1 0 00.675-1.102c0-.133-.009-.386-.03-.628h.198c.022.237.031.477.031.626a1.18 1.18 0 01-.759 1.258zM52.336 60.576a1.404 1.404 0 00-.47-.28c-.005.273-.09.371-.345.371-.25 0-.414-.129-.414-.287 0-.165.167-.282.446-.282a.94.94 0 01.14.008c-.007-.23-.021-.573-.021-1.011h.174c0 .135.003.264.003.382h.589v.156h-.585l.011.508a1.549 1.549 0 01.567.31zm-.795-.332c-.183 0-.277.053-.277.138 0 .082.101.138.243.138.156 0 .187-.054.187-.264a1.132 1.132 0 00-.153-.012zM53.7 60.68a6.06 6.06 0 00-1.048-.871c-.072-.05-.1-.093-.1-.14 0-.043.021-.086.098-.143a7.54 7.54 0 00.978-.85l.156.138a9.082 9.082 0 01-.924.79c-.04.029-.056.044-.056.062 0 .02.013.03.05.055a6.34 6.34 0 01.996.815zM26.293 60.612a1.441 1.441 0 01-.204-.017v-.163a1.285 1.285 0 00.204.015c.291 0 .427-.141.427-.347 0-.202-.155-.33-.448-.33a1.253 1.253 0 00-.388.066v.477c0 .227-.088.335-.274.335a.476.476 0 01-.454-.383c0-.185.229-.4.54-.53v-.427h-.492v-.167h.492v-.439h.188v.439h.47v.167h-.47v.358a1.525 1.525 0 01.416-.06c.379 0 .607.185.607.49 0 .308-.208.516-.614.516zm-.956-.352c0 .111.163.22.258.22.079 0 .101-.048.101-.164v-.404c-.21.105-.36.242-.36.348zm1.59-.867a1.706 1.706 0 00-.474-.364l.093-.13a1.792 1.792 0 01.494.36z"/></g></g></svg>