<svg xmlns="http://www.w3.org/2000/svg" viewBox="0 0 75 75"><defs><style>.cls-1{fill:none;}.cls-2{fill:#fff;}.cls-3{fill:#675642;}</style></defs><title>アセット 4402</title><g id="レイヤー_2" data-name="レイヤー 2"><g id="レイヤー_2-2" data-name="レイヤー 2"><path class="cls-1" d="M8.48242,0H75a0,0,0,0,1,0,0V75a0,0,0,0,1,0,0H8.48193A8.48193,8.48193,0,0,1,0,66.51807V8.48242A8.48242,8.48242,0,0,1,8.48242,0Z" transform="translate(75) rotate(90)"/><path class="cls-2" d="M8.482,4.99985H66.51773A3.48214,3.48214,0,0,1,69.99988,8.482V69.99985a0,0,0,0,1,0,0h-65a0,0,0,0,1,0,0V8.482A3.48214,3.48214,0,0,1,8.482,4.99985Z"/><path class="cls-3" d="M70.125,70.125H4.875V8.48193A3.61125,3.61125,0,0,1,8.48242,4.875H66.51758A3.61125,3.61125,0,0,1,70.125,8.48193Zm-65-.25h64.75V8.48193A3.36077,3.36077,0,0,0,66.51758,5.125H8.48242A3.36077,3.36077,0,0,0,5.125,8.48193Z"/><path class="cls-3" d="M26.098,35.80336,36.54705,20.60471a1.15629,1.15629,0,0,1,1.90566,0L48.90178,35.80336a1.15629,1.15629,0,0,1-.95283,1.81136H27.05081A1.15629,1.15629,0,0,1,26.098,35.80336Z"/><rect class="cls-3" x="32.90089" y="33.29169" width="9.19797" height="21.60452" rx="1.15629"/><path class="cls-3" d="M35.875,15.58936a4.62788,4.62788,0,0,0-1.15527-.70264c-.02637.59619-.26661.95849-1.01758.95849-.77735,0-1.27735-.37841-1.27735-.88427,0-.48975.4629-.85742,1.38379-.85742.06934,0,.13379,0,.19727.00537l-.01074-.48975H32.55176v-.623h1.43262c-.00489-.15966-.00489-.33007-.01075-.50586H32.44531v-.61767h1.52344c-.00488-.24512-.00488-.49561-.00488-.751h.71289c0,.25537,0,.50586.00586.751h1.48047v.61767H34.6875c0,.17579.00586.3462.00586.50586h1.35742v.623H34.709c0,.229.00489.43652.01075.61231a4.56353,4.56353,0,0,1,1.54394.82568Zm-2.15625-.89454c-.458,0-.66016.11182-.66016.27686s.207.27148.57422.27148c.3252,0,.37891-.0957.37891-.52148v-.01074A2.62533,2.62533,0,0,0,33.71875,14.69482Z"/><path class="cls-3" d="M41.42871,15.76514c-.83008,0-.98437-.13819-1.08594-.55371-.03222-.12256-.04785-.229-.07422-.33008-.04785-.20264-.10644-.293-.25585-.293a.78949.78949,0,0,0-.49024.23974c-.085.07959-.21289.19678-.30859.29249-.21875.21875-.43164.42627-.751.75634l-.501-.48437c.751-.71387,1.73633-1.72559,2.30079-2.34863H38.21289v-.63916h3.10938v.50585c-.39356.41016-.73438.77247-1.03321,1.09717a.34379.34379,0,0,1,.10156-.02148c.24512,0,.39942.15478.47364.46338.02148.08545.05371.22363.06933.29834.0752.37793.10645.38867.5918.38867.20215,0,.47363-.021.74023-.04785V15.728C41.95605,15.75439,41.7168,15.76514,41.42871,15.76514Zm-.41992-3.6211a8.49658,8.49658,0,0,0-1.96-.43164l.15429-.63867a8.817,8.817,0,0,1,2.0293.44727Z"/><path class="cls-3" d="M16.63184,63.6875l.11132.915-.28515.02978-.11133-.92187-1.18164.09521-.02246-.24951,1.17383-.09179-.082-.70215-1,.0791-.01954-.24951.99024-.07569-.08887-.72461.28613-.02636.08789.73144.98438-.07519.0166.24267-.9707.0752.082.70215,1.06934-.082.0166.24267Z"/><path class="cls-3" d="M18.10449,64.43213V64.186h1.46973l.09473-1.20069H18.40918v-.24609h1.55859L19.84668,64.186h.55762v.24609Z"/><path class="cls-3" d="M20.9248,63.45459v-.29541h2.57813v.29541Z"/><path class="cls-3" d="M24.37988,64.56006l-.13769-.249A1.99378,1.99378,0,0,0,25.915,62.51953H23.96973v-.26562h2.2998A2.37708,2.37708,0,0,1,24.37988,64.56006Zm1.78125-2.36865a1.95043,1.95043,0,0,0-.23633-.502l.16114-.07861a2.0697,2.0697,0,0,1,.25586.5083Zm.45606-.02295a1.82024,1.82024,0,0,0-.2334-.51172l.16406-.082a2.13427,2.13427,0,0,1,.25.52148Z"/><path class="cls-3" d="M27.9082,62.55566h.22071c.48144,0,.65527.21.65527.70557a2.26865,2.26865,0,0,1-.21,1.07275.42141.42141,0,0,1-.43555.23926,1.23085,1.23085,0,0,1-.46289-.09863l.0332-.22949a1.16318,1.16318,0,0,0,.39356.08545.23684.23684,0,0,0,.22949-.11182,1.95649,1.95649,0,0,0,.18359-.95752c0-.33154-.11132-.46924-.42675-.46924-.06836,0-.14746,0-.23242.00293a6.24093,6.24093,0,0,1-.69239,1.78174l-.2334-.13135a5.57315,5.57315,0,0,0,.65039-1.64355c-.20019.00342-.41992.01318-.65039.023l-.01269-.23633c.26269-.01318.502-.01953.71484-.02637a6.12437,6.12437,0,0,0,.10547-.728h.27832A6.80456,6.80456,0,0,1,27.9082,62.55566Zm1.208-.22314a2.06823,2.06823,0,0,0-.23633-.541l.16016-.082a2.06683,2.06683,0,0,1,.25586.55078Zm.28809,1.57812a2.30934,2.30934,0,0,0-.44239-1.37158l.21289-.13086a2.52712,2.52712,0,0,1,.50879,1.50244Zm.1416-1.68652a1.99112,1.99112,0,0,0-.23926-.52783l.16016-.08545a2.17958,2.17958,0,0,1,.25586.53809Z"/><path class="cls-3" d="M30.90625,62.208a1.97018,1.97018,0,0,0-.2334-.42969c.10547-.03955.17774-.0625.25-.08545a2.07138,2.07138,0,0,1,.26856.5083l-.01953.00684h.75781a3.97388,3.97388,0,0,0,.29492-.51856l.2793.0918a4.77132,4.77132,0,0,1-.27539.42676h.85253v.23291H30.0625V62.208Zm-.34473,1.78467v.71191h-.25879V62.7002h1.125v1.75146c0,.14111-.03906.22022-.16406.24316a2.18307,2.18307,0,0,1-.34472.00977l-.03907-.23c.07813.00342.18653.00342.22266.00342.0498-.00635.0625-.02637.0625-.06885v-.4165Zm.60352-.75147v-.31494h-.60352v.31494Zm0,.53809v-.33106h-.60352v.33106Zm.89551-1.04981v1.44043h-.2627V62.72949Zm.78418-.11133v1.80762c0,.15381-.0459.24268-.19043.269a2.68027,2.68027,0,0,1-.41309.00635l-.043-.23926c.10547.00635.25293.00635.29883.00293.05566-.00293.0752-.03271.0752-.082V62.61816Z"/><path class="cls-3" d="M33.71,64.50781a5.65342,5.65342,0,0,1-.10742-1.188,8.39084,8.39084,0,0,1,.10449-1.28564h.27539a9.58489,9.58489,0,0,0-.10449,1.2793,5.81552,5.81552,0,0,0,.10449,1.15136Zm1.67969-.09179c-.78418,0-1.0791-.15772-1.0791-.46631A.964.964,0,0,1,34.583,63.353l.22656.10791a.75486.75486,0,0,0-.22949.45312c0,.17041.22265.25244.80957.25244.1582,0,.32812-.00341.50879-.01953v.249C35.72168,64.4126,35.55078,64.416,35.38965,64.416Zm-1.00977-1.85694V62.313h1.499v.24609Z"/><path class="cls-3" d="M37.72949,64.44531V62.21777l-.53711.36719-.13867-.21289.65039-.44629h.32813v2.51953Z"/><path class="cls-3" d="M39.52539,64.40283v-.269h1.874V62.50635H39.5293v-.26563h2.165v2.16211Z"/><path class="cls-3" d="M43.93066,64.55029a7.1364,7.1364,0,0,0-1.34179-1.14843l.17383-.20313a7.02825,7.02825,0,0,1,.69531.51514,2.88528,2.88528,0,0,0,1.0664-1.29248H42.26465V62.165H44.9375a3.41519,3.41519,0,0,1-1.26562,1.73242c.17382.15723.33789.31152.47558.45606Z"/><path class="cls-3" d="M45.59668,64.50781a5.65276,5.65276,0,0,1-.10742-1.188,8.38957,8.38957,0,0,1,.10449-1.28564h.27539a9.58489,9.58489,0,0,0-.10449,1.2793,5.81552,5.81552,0,0,0,.10449,1.15136Zm1.67969-.09179c-.78418,0-1.0791-.15772-1.0791-.46631a.964.964,0,0,1,.27246-.59668l.22656.10791a.75486.75486,0,0,0-.22949.45312c0,.17041.22265.25244.80957.25244.1582,0,.32812-.00341.50879-.01953v.249C47.6084,64.4126,47.4375,64.416,47.27637,64.416ZM46.2666,62.55908V62.313h1.499v.24609Z"/><path class="cls-3" d="M49.45117,64.00244a.62424.62424,0,0,1,0-1.24658.5659.5659,0,0,1,.31543.0918v-.35743H48.19824v-.24951H49.7666v-.48535h.28809v.48535h.98437v.24951h-.98437v.88868c0,.748-.1836,1.18115-1.1709,1.30566l-.085-.23291c.55469-.06543.80371-.19971.90527-.5083A.53945.53945,0,0,1,49.45117,64.00244Zm0-1.02051c-.20019,0-.32422.16114-.32422.397,0,.23632.124.394.32422.394.19727,0,.31543-.17383.31543-.394C49.7666,63.15283,49.65137,62.98193,49.45117,62.98193Z"/><path class="cls-3" d="M52.39941,64.00244a.62424.62424,0,0,1,0-1.24658.56588.56588,0,0,1,.31543.0918v-.35743H51.14648v-.24951h1.56836v-.48535h.28809v.48535h.98437v.24951h-.98437v.88868c0,.748-.18359,1.18115-1.1709,1.30566l-.085-.23291c.55469-.06543.80371-.19971.90527-.5083A.53945.53945,0,0,1,52.39941,64.00244Zm0-1.02051c-.20019,0-.32421.16114-.32421.397,0,.23632.124.394.32421.394.19727,0,.31543-.17383.31543-.394C52.71484,63.15283,52.59961,62.98193,52.39941,62.98193Z"/><path class="cls-3" d="M54.76758,64.019c-.28809,0-.46875-.19043-.46875-.56445,0-.34473.17676-.56738.46875-.56738a.46071.46071,0,0,1,.22656.05566v-.34131H54.3252v-.24267h.66894v-.561h.26563v.561h.64355v.24267h-.64355V63.458c0,.22949-.06836.39013-.06836.59668,0,.23.17382.31836.58984.31836.48535,0,.75488-.09522.75488-.39356a2.91574,2.91574,0,0,0-.085-.61035H56.71a2.83923,2.83923,0,0,1,.085.627c0,.44922-.35742.623-1.03027.623-.59668,0-.83594-.17725-.83594-.49853a.81847.81847,0,0,1,.00977-.13135A.47164.47164,0,0,1,54.76758,64.019Zm0-.91552c-.1543,0-.2461.13476-.2461.35107,0,.22949.09571.34766.2461.34766.15137,0,.24609-.13428.24609-.34766C55.01367,63.23828,54.919,63.10352,54.76758,63.10352Zm2.2539-.09864a2.96462,2.96462,0,0,0-.72168-.4917l.14454-.20019a3.18291,3.18291,0,0,1,.73437.48877Z"/><path class="cls-3" d="M59.66211,64.48145a2.80563,2.80563,0,0,0-.83594-.49219c-.00976.4624-.15429.64306-.58789.64306-.43555,0-.72461-.21337-.72461-.48242,0-.28174.292-.48877.77735-.48877a2.30308,2.30308,0,0,1,.25878.0166c-.00976-.3872-.03515-1.0498-.03515-1.8833H58.79c0,.26563.00293.51514.00586.74463h1.01074v.2461H58.7998c.00977.397.01954.72168.02247.95166a2.83627,2.83627,0,0,1,1.001.541Zm-1.39356-.584c-.31835,0-.502.10156-.502.25586,0,.14746.17676.23926.44922.23926.26563,0,.334-.0918.33789-.47217A1.63635,1.63635,0,0,0,58.26855,63.89746Z"/><path class="cls-3" d="M31.3623,60.45605a1.89164,1.89164,0,0,0-.55761-.312c-.002.28467-.09278.42725-.38867.42725-.293,0-.499-.13574-.499-.32764s.19727-.3208.53516-.3208a1.21712,1.21712,0,0,1,.1582.00928c-.002-.08838-.0039-.1919-.00683-.30957h-.65723v-.16944h.65527c-.002-.09912-.00488-.20312-.00488-.314h-.69531v-.167h.69336c-.002-.11963-.002-.24365-.002-.37256h.19141c0,.12891,0,.25293.00293.37256h.6748v.167h-.67285c0,.11084.002.21484.00489.314H31.415v.16944H30.7959c.0039.1333.00683.25049.00683.34765a1.9751,1.9751,0,0,1,.666.34131Zm-.93261-.373c-.21387,0-.34082.06347-.34082.16308,0,.10157.1289.16211.30957.16211.17383,0,.21484-.05859.21484-.28222v-.0293A1.29045,1.29045,0,0,0,30.42969,60.083Z"/><path class="cls-3" d="M33.2666,60.52588c-.33594,0-.39746-.04736-.44043-.2124-.01367-.04981-.02734-.11524-.04-.16944-.02734-.1084-.05468-.15088-.127-.15088a.35509.35509,0,0,0-.22168.09913c-.04.03369-.0918.08349-.14648.1333-.11231.10839-.20508.20312-.35938.35693l-.13476-.12891c.31835-.30713.78124-.78125,1.10156-1.11767H31.89551v-.17188h1.28515v.1377c-.20117.208-.38183.39551-.5332.55322a.25585.25585,0,0,1,.10449-.0249c.10352,0,.16211.05908.19629.20361.01367.05176.0293.12158.03809.1626.03906.15137.06152.16016.30273.16016.084,0,.19239-.0044.30469-.01563v.17139C33.47266,60.52344,33.37305,60.52588,33.2666,60.52588Zm-.18555-1.57861a3.80906,3.80906,0,0,0-.82128-.19629l.04-.17188a3.94166,3.94166,0,0,1,.84278.19873Z"/></g></g></svg>