<svg xmlns="http://www.w3.org/2000/svg" viewBox="0 0 75 75"><defs><style>.cls-1{fill:none;}.cls-2{fill:#fff;}.cls-3{fill:#675642;}</style></defs><title>アセット 4302</title><g id="レイヤー_2" data-name="レイヤー 2"><g id="レイヤー_2-2" data-name="レイヤー 2"><path class="cls-1" d="M8.48242,0H66.51807A8.48193,8.48193,0,0,1,75,8.48193V75a0,0,0,0,1,0,0H0a0,0,0,0,1,0,0V8.48242A8.48242,8.48242,0,0,1,8.48242,0Z" transform="translate(75) rotate(90)"/><path class="cls-2" d="M4.99988,5.00014H66.51773a3.48214,3.48214,0,0,1,3.48214,3.48214V66.518a3.48214,3.48214,0,0,1-3.48214,3.48214H4.99988a0,0,0,0,1,0,0v-65a0,0,0,0,1,0,0Z"/><path class="cls-3" d="M66.51758,70.125H4.875V4.875H66.51758A3.61135,3.61135,0,0,1,70.125,8.48242V66.51807A3.61125,3.61125,0,0,1,66.51758,70.125ZM5.125,69.875H66.51758A3.36077,3.36077,0,0,0,69.875,66.51807V8.48242A3.36119,3.36119,0,0,0,66.51758,5.125H5.125Z"/><path class="cls-3" d="M39.19651,26.09824,54.39515,36.54731a1.15628,1.15628,0,0,1,0,1.90565L39.19651,48.902a1.15629,1.15629,0,0,1-1.81136-.95282V27.05106A1.15629,1.15629,0,0,1,39.19651,26.09824Z"/><rect class="cls-3" x="20.10366" y="32.90115" width="21.60452" height="9.19797" rx="1.15629"/><path class="cls-3" d="M36.43945,14.54883a4.90758,4.90758,0,0,0-.68652-.36231,2.78224,2.78224,0,0,1-1.11328,1.68262l-.44727-.46826a2.19307,2.19307,0,0,0,.94239-1.44873,4.55883,4.55883,0,0,0-1.09668-.19678c-.03711.14893-.07422.29785-.11231.4419-.21289.873-.51074,1.26709-1.01172,1.26709a1.02237,1.02237,0,0,1-.92676-1.09668c0-.66065.53809-1.12891,1.48633-1.23047.085-.39942.16992-.80371.23926-1.14991H32.53613v-.61767h2.04c-.14453.66016-.2666,1.23-.38867,1.75732a6.00926,6.00926,0,0,1,1.03223.17578c.02148-.28222.03222-.60205.03222-.96386h.67676a11.16527,11.16527,0,0,1-.05371,1.17138,6.27527,6.27527,0,0,1,.87891.39942Zm-3.8291-.18115c0,.25537.13379.45263.27735.45263.165,0,.24511-.21289.37792-.76172.02149-.09033.043-.18115.06446-.27685C32.835,13.86182,32.61035,14.06934,32.61035,14.36768Z"/><path class="cls-3" d="M40.98145,13.707q.12011.27978.25585.52735l-.68652.21289c-.1123-.23926-.21875-.48438-.31445-.74024H38.085v-.60156h1.94922c-.05859-.18652-.1123-.3833-.165-.58057h-1.5498v-.60156h1.41113c-.04785-.25049-.0957-.50049-.13867-.76709h.72461c.042.26123.085.5166.13769.76709h1.38477v.60156h-1.2461c.04785.19727.10645.39405.165.58057H42.127V13.707ZM40.71,15.84277c-1.60254,0-2.18848-.38867-2.18848-.95312a1.5857,1.5857,0,0,1,.165-.67676l.66016.11231a1.14522,1.14522,0,0,0-.12793.479c0,.27685.4375.394,1.44336.394.13281,0,.36719,0,.60742-.01074V15.832C41.07715,15.8374,40.84863,15.84277,40.71,15.84277Zm.59668-3.96728a3.07683,3.07683,0,0,0-.41016-.81494l.39454-.19727a3.40349,3.40349,0,0,1,.45214.82568Zm.80957-.03223a3.15808,3.15808,0,0,0-.39453-.81445l.38867-.208a3.26929,3.26929,0,0,1,.4375.84131Z"/><path class="cls-3" d="M16.63281,63.687l.11133.91553-.28516.0293L16.34766,63.71l-1.18164.09522-.02247-.24952,1.17383-.09179-.082-.70215-1,.0791-.01953-.24951.99023-.07569-.08886-.7246.28613-.02637.08789.73144.98438-.07519.0166.24267-.97071.0752.082.70215,1.06933-.082.0166.24267Z"/><path class="cls-3" d="M18.10547,64.43164v-.24609H19.5752l.09472-1.20069H18.41016v-.24609h1.55859l-.12109,1.44678h.55761v.24609Z"/><path class="cls-3" d="M20.92578,63.4541v-.29541h2.57813v.29541Z"/><path class="cls-3" d="M24.38086,64.55957l-.1377-.249A1.99377,1.99377,0,0,0,25.916,62.519H23.9707v-.26562h2.29981A2.37708,2.37708,0,0,1,24.38086,64.55957Zm1.78125-2.36865a1.95107,1.95107,0,0,0-.23633-.502l.16113-.07861a2.07005,2.07005,0,0,1,.25586.5083Zm.45605-.023a1.8202,1.8202,0,0,0-.23339-.51172l.16406-.082a2.096,2.096,0,0,1,.249.52148Z"/><path class="cls-3" d="M27.90918,62.55518h.2207c.48145,0,.65528.21.65528.70556a2.2687,2.2687,0,0,1-.21,1.07276.42142.42142,0,0,1-.43555.23925,1.23082,1.23082,0,0,1-.46289-.09863l.0332-.22949a1.16318,1.16318,0,0,0,.39356.08545.23684.23684,0,0,0,.22949-.11182,1.95774,1.95774,0,0,0,.18359-.95752c0-.33154-.11133-.46924-.42676-.46924-.06836,0-.14746,0-.23242.00293a6.24052,6.24052,0,0,1-.69238,1.78174l-.2334-.13135a5.5737,5.5737,0,0,0,.65039-1.64355c-.20019.00342-.41992.01318-.65039.02295l-.01269-.23633c.26269-.01318.502-.01953.71484-.02637a6.12655,6.12655,0,0,0,.10547-.728h.27832A6.8079,6.8079,0,0,1,27.90918,62.55518Zm1.208-.22315a2.06865,2.06865,0,0,0-.23633-.541l.16016-.082a2.07383,2.07383,0,0,1,.25586.55079Zm.28808,1.57813a2.30934,2.30934,0,0,0-.44238-1.37159l.21289-.13086a2.52713,2.52713,0,0,1,.50879,1.50245Zm.14161-1.68653a1.99112,1.99112,0,0,0-.23926-.52783l.16015-.08545a2.17922,2.17922,0,0,1,.25586.53809Z"/><path class="cls-3" d="M31.00586,64.563v.144h-.26953V63.62158a4.016,4.016,0,0,1-.51172.5249c-.05566-.06591-.11133-.12793-.2002-.21679a3.34779,3.34779,0,0,0,1.00684-1.3418h-.96777v-.25928H31.127a4.57707,4.57707,0,0,0,.16016-.64257l.27637.05566a5.34183,5.34183,0,0,1-.14844.58691h1.667v.25928H31.32324a3.68212,3.68212,0,0,1-.30176.6167H32.7666V64.707h-.27832v-.144Zm1.48242-.25244v-.84668H31.00586v.84668Z"/><path class="cls-3" d="M33.71094,64.50732a5.65022,5.65022,0,0,1-.1084-1.188,8.40192,8.40192,0,0,1,.10547-1.28565h.27539a9.59126,9.59126,0,0,0-.10449,1.2793,5.81487,5.81487,0,0,0,.10449,1.15137Zm1.67968-.09179c-.78417,0-1.0791-.15772-1.0791-.46631a.964.964,0,0,1,.27246-.59668l.22657.10791a.75483.75483,0,0,0-.2295.45312c0,.17041.22266.25245.80957.25245.15821,0,.32813-.00342.50879-.01954v.249C35.72266,64.41211,35.55176,64.41553,35.39062,64.41553Zm-1.00976-1.85694V62.3125h1.499v.24609Z"/><path class="cls-3" d="M37.73047,64.44482V62.21729l-.53711.36718-.13867-.21289.65039-.44629h.32812v2.51953Z"/><path class="cls-3" d="M39.52637,64.40234v-.269h1.874V62.50586H39.53027v-.26563h2.165v2.16211Z"/><path class="cls-3" d="M43.93164,64.5498a7.13616,7.13616,0,0,0-1.3418-1.14843l.17383-.20313a7.02591,7.02591,0,0,1,.69531.51514,2.88519,2.88519,0,0,0,1.06641-1.29248H42.26465v-.25635h2.67383A3.41517,3.41517,0,0,1,43.67285,63.897c.17383.15723.33789.31153.47559.45606Z"/><path class="cls-3" d="M45.59766,64.50732a5.65022,5.65022,0,0,1-.1084-1.188,8.40192,8.40192,0,0,1,.10547-1.28565h.27539a9.59146,9.59146,0,0,0-.1045,1.2793,5.81485,5.81485,0,0,0,.1045,1.15137Zm1.67968-.09179c-.78418,0-1.0791-.15772-1.0791-.46631a.964.964,0,0,1,.27246-.59668l.22657.10791a.75483.75483,0,0,0-.2295.45312c0,.17041.22266.25245.80957.25245.15821,0,.32813-.00342.50879-.01954v.249C47.60938,64.41211,47.43848,64.41553,47.27734,64.41553Zm-1.00976-1.85694V62.3125h1.499v.24609Z"/><path class="cls-3" d="M49.45215,64.00195a.62424.62424,0,0,1,0-1.24658.566.566,0,0,1,.31543.0918v-.35742H48.19922v-.24952h1.56836v-.48535h.28808v.48535H51.04v.24952h-.98438v.88867c0,.748-.18359,1.18115-1.17089,1.30566l-.085-.23291c.55469-.06543.80372-.19971.90528-.5083A.53948.53948,0,0,1,49.45215,64.00195Zm0-1.0205c-.2002,0-.32422.16113-.32422.397,0,.23633.124.394.32422.394.19726,0,.31543-.17383.31543-.394C49.76758,63.15234,49.65234,62.98145,49.45215,62.98145Z"/><path class="cls-3" d="M52.40039,64.00195a.62424.62424,0,0,1,0-1.24658.566.566,0,0,1,.31543.0918v-.35742H51.14746v-.24952h1.56836v-.48535h.28809v.48535h.98437v.24952h-.98437v.88867c0,.748-.1836,1.18115-1.1709,1.30566l-.085-.23291c.55468-.06543.80371-.19971.90527-.5083A.53948.53948,0,0,1,52.40039,64.00195Zm0-1.0205c-.20019,0-.32422.16113-.32422.397,0,.23633.124.394.32422.394.19727,0,.31543-.17383.31543-.394C52.71582,63.15234,52.60059,62.98145,52.40039,62.98145Z"/><path class="cls-3" d="M54.76855,64.01855c-.28808,0-.46875-.19043-.46875-.56445,0-.34472.17676-.56738.46875-.56738a.46075.46075,0,0,1,.22657.05566v-.34131h-.669V62.3584h.669v-.561h.26562v.561h.64356v.24267h-.64356v.85645c0,.22949-.06836.39014-.06836.59668,0,.23.17383.31836.58985.31836.48535,0,.75488-.09522.75488-.39356a2.91641,2.91641,0,0,0-.085-.61035h.25879a2.83923,2.83923,0,0,1,.085.627c0,.44921-.35742.623-1.03028.623-.59667,0-.83593-.17724-.83593-.49853a.81964.81964,0,0,1,.00976-.13135A.4716.4716,0,0,1,54.76855,64.01855Zm0-.91552c-.15429,0-.24609.13427-.24609.35107,0,.22949.0957.34766.24609.34766.15137,0,.2461-.13428.2461-.34766C55.01465,63.2373,54.91992,63.103,54.76855,63.103Zm2.25391-.09864a2.96432,2.96432,0,0,0-.72168-.49169l.14453-.2002a3.183,3.183,0,0,1,.73438.48877Z"/><path class="cls-3" d="M59.66211,64.481a2.80563,2.80563,0,0,0-.83594-.49219c-.00976.4624-.15429.64307-.58789.64307-.43555,0-.72461-.21338-.72461-.48243,0-.28222.292-.48877.77735-.48877a2.30074,2.30074,0,0,1,.25878.01661c-.00976-.38721-.03515-1.04981-.03515-1.8833H58.79c0,.26562.00293.51513.00586.74462h1.01074v.2461H58.7998c.00977.397.01954.72168.02247.95166a2.83643,2.83643,0,0,1,1.001.541Zm-1.39356-.584c-.31835,0-.502.10157-.502.25586,0,.14746.17676.23975.44922.23975.26563,0,.334-.09229.33789-.47266A1.63635,1.63635,0,0,0,58.26855,63.897Z"/><path class="cls-3" d="M31.04492,59.59131a2.50382,2.50382,0,0,1,.40235.18506l-.08594.16943a2.31119,2.31119,0,0,0-.34766-.17383,1.165,1.165,0,0,1-.5039.77442l-.11719-.12891a1.02429,1.02429,0,0,0,.45117-.70654,2.21558,2.21558,0,0,0-.58691-.09717c-.01172.04492-.02246.09033-.03418.13525-.09668.39307-.21192.603-.40821.603a.37816.37816,0,0,1-.335-.4043c0-.26611.22852-.46972.63086-.501.04492-.19678.08789-.39746.12793-.58936h-.53906v-.16748h.76953c-.06348.28906-.11719.52881-.1709.7544a2.29046,2.29046,0,0,1,.57324.09033,4.518,4.518,0,0,0,.02051-.4541h.18262A3.88893,3.88893,0,0,1,31.04492,59.59131Zm-1.39551.35449c0,.12647.07422.23.15821.23.10351,0,.16015-.15576.23926-.46484.00683-.0293.01562-.0586.02246-.09033C29.78027,59.65234,29.64941,59.7832,29.64941,59.9458Z"/><path class="cls-3" d="M32.81348,59.59766a2.99125,2.99125,0,0,0,.13476.28711l-.18066.061c-.05371-.10644-.10547-.22363-.15332-.34814H31.666v-.16455h.88964c-.03418-.106-.06738-.2168-.09668-.332h-.69336v-.165H32.418c-.02735-.11963-.05176-.24366-.07227-.37012H32.54c.02051.124.043.24853.07031.37012h.61621v.165h-.57617c.03223.11524.06543.22608.10156.332h.59375v.16455Zm-.07032.94189c-.59863,0-.876-.147-.876-.37939a.64757.64757,0,0,1,.06933-.27539l.17383.03173a.53468.53468,0,0,0-.05859.2212c0,.15576.24219.228.67969.228.05664,0,.15136,0,.24609-.00439v.17383C32.89648,60.53711,32.80371,60.53955,32.74316,60.53955Zm.3252-1.65527a1.42164,1.42164,0,0,0-.165-.35694l.11035-.05615a1.53974,1.53974,0,0,1,.17871.36328Zm.30957-.03614a1.38775,1.38775,0,0,0-.16309-.35888l.11133-.05908a1.51684,1.51684,0,0,1,.17383.36816Z"/></g></g></svg>