<svg xmlns="http://www.w3.org/2000/svg" viewBox="0 0 75 75"><defs><style>.cls-1{fill:none;}.cls-2{fill:#fff;}.cls-3{fill:#675642;}</style></defs><title>アセット 4502</title><g id="レイヤー_2" data-name="レイヤー 2"><g id="レイヤー_2-2" data-name="レイヤー 2"><path class="cls-1" d="M0,0H66.51758A8.48242,8.48242,0,0,1,75,8.48242V66.51758A8.48242,8.48242,0,0,1,66.51758,75H0a0,0,0,0,1,0,0V0A0,0,0,0,1,0,0Z" transform="translate(75) rotate(90)"/><path class="cls-2" d="M4.99988,5.00006h65a0,0,0,0,1,0,0V66.51791a3.48214,3.48214,0,0,1-3.48214,3.48214H8.482a3.48214,3.48214,0,0,1-3.48214-3.48214V5.00006a0,0,0,0,1,0,0Z"/><path class="cls-3" d="M66.51758,70.125H8.48242A3.61135,3.61135,0,0,1,4.875,66.51758V4.875h65.25V66.51758A3.61135,3.61135,0,0,1,66.51758,70.125ZM5.125,5.125V66.51758A3.36087,3.36087,0,0,0,8.48242,69.875H66.51758A3.36087,3.36087,0,0,0,69.875,66.51758V5.125Z"/><path class="cls-3" d="M48.90178,39.19655,38.45271,54.39519a1.15629,1.15629,0,0,1-1.90566,0L26.098,39.19655a1.15629,1.15629,0,0,1,.95283-1.81136H47.949A1.15629,1.15629,0,0,1,48.90178,39.19655Z"/><rect class="cls-3" x="32.90089" y="20.1037" width="9.19797" height="21.60452" rx="1.15629"/><path class="cls-3" d="M30.3584,15.84619l-.16992-.6499c1.51172-.12256,2.19922-.522,2.19922-1.25147a.67.67,0,0,0-.7461-.72412,14.29181,14.29181,0,0,0-1.99121.21289l-.13867-.68164a15.7714,15.7714,0,0,1,2.167-.21289,1.30413,1.30413,0,0,1,1.46,1.41114C33.13867,15.0791,32.03027,15.73438,30.3584,15.84619Zm1.94336-3.61084a9.37241,9.37241,0,0,0-2.03906-.48974l.15918-.64454a9.782,9.782,0,0,1,2.09863.50049Z"/><path class="cls-3" d="M37.35547,15.79834a1.45017,1.45017,0,0,1-1.62988-1.66162v-2.8916h.74609v2.82763c0,.76661.30371,1.01709.916,1.01709a1.53808,1.53808,0,0,0,1.3789-1.13427l.59082.40478A2.17692,2.17692,0,0,1,37.35547,15.79834Z"/><path class="cls-3" d="M42.8623,15.76074a5.55206,5.55206,0,0,1-.90039-.064v-.60694a7.011,7.011,0,0,0,.85254.04786c1.02735,0,1.51758-.34082,1.51758-.8252,0-.40479-.33008-.666-.93164-.666a2.02509,2.02509,0,0,0-.82519.16553,3.98837,3.98837,0,0,0-1.15625.77735l-.4209-.46875c.79883-.6709,1.62988-1.438,2.25293-2.061H41.584v-.62305h2.72657v.5166c-.458.43165-.916.85206-1.28809,1.19825a1.62586,1.62586,0,0,1,.51074-.085c1.01758,0,1.49707.5166,1.49707,1.24609C45.03027,15.15381,44.29492,15.76074,42.8623,15.76074Z"/><path class="cls-3" d="M14.4502,63.68555l.11132.915-.28515.02929L14.165,63.709l-1.18164.09473-.02246-.249,1.17383-.0918-.082-.70215-1,.07813-.01953-.249.99024-.07519-.08887-.72559.28613-.02636.08789.73242L15.293,62.419l.0166.24316-.9707.07519.082.70215,1.06933-.082.01661.24317Z"/><path class="cls-3" d="M15.792,64.43066v-.24609h1.46973l.09473-1.20117H16.09668v-.2461h1.55859l-.12109,1.44727h.55762v.24609Z"/><path class="cls-3" d="M18.28418,63.45215v-.29492H20.8623v.29492Z"/><path class="cls-3" d="M21.543,64.55859l-.1377-.25a1.99326,1.99326,0,0,0,1.67285-1.791H21.13281V62.252h2.29981A2.378,2.378,0,0,1,21.543,64.55859Zm1.78125-2.36914a1.94333,1.94333,0,0,0-.23633-.502l.16113-.07812a2.04955,2.04955,0,0,1,.25586.50781Zm.45605-.02246a1.808,1.808,0,0,0-.23339-.51172l.16406-.082a2.07975,2.07975,0,0,1,.249.52149Z"/><path class="cls-3" d="M25.07129,62.55371h.2207c.48145,0,.65528.21.65528.70508a2.26935,2.26935,0,0,1-.21,1.07324.42208.42208,0,0,1-.43554.23926,1.231,1.231,0,0,1-.46289-.09863l.0332-.2295a1.14889,1.14889,0,0,0,.39355.085.2365.2365,0,0,0,.2295-.11132,1.95609,1.95609,0,0,0,.18359-.958c0-.33106-.11133-.46875-.42676-.46875-.06836,0-.14746,0-.23242.00293a6.23191,6.23191,0,0,1-.69238,1.78125l-.2334-.13086a5.56282,5.56282,0,0,0,.65039-1.64356c-.20019.00293-.41992.0127-.65039.02247l-.0127-.23536c.2627-.01367.502-.0205.71485-.02636a6.14921,6.14921,0,0,0,.10547-.72852h.27832A6.82607,6.82607,0,0,1,25.07129,62.55371Zm1.208-.22266a2.07451,2.07451,0,0,0-.23633-.542l.16015-.082a2.07212,2.07212,0,0,1,.25586.55176Zm.28808,1.57715a2.30673,2.30673,0,0,0-.44238-1.37109l.21289-.13086a2.52787,2.52787,0,0,1,.50879,1.502Zm.1416-1.68554a1.99364,1.99364,0,0,0-.23925-.52832l.16015-.085a2.16485,2.16485,0,0,1,.25586.5371Z"/><path class="cls-3" d="M27.88184,64.70605h-.26563V63.25293c-.09473.10742-.19629.21289-.30176.31152l-.15429-.22949a3.0381,3.0381,0,0,0,.75488-1.00781l.26269.07519a3.45688,3.45688,0,0,1-.29589.5127Zm.207-2.94335a3.56912,3.56912,0,0,1-.709.82421l-.18652-.17773a2.80137,2.80137,0,0,0,.63965-.72461Zm2.168,2.7041-.167.23535a3.30216,3.30216,0,0,1-.98046-.35352,3.49068,3.49068,0,0,1-.958.35352l-.16407-.21a3.10014,3.10014,0,0,0,.90528-.28809,1.80191,1.80191,0,0,1-.3711-.35449,3.21076,3.21076,0,0,1-.39355.31445l-.18652-.16015a2.44763,2.44763,0,0,0,.76757-.77149c-.22949.01367-.44628.02344-.61328.03028l-.0459-.25c.1504,0,.35059-.00586.57032-.0127.06543-.0625.13086-.12793.19336-.19336a3.72749,3.72749,0,0,0-.62989-.48926l.15821-.1709c.06836.043.13379.082.19629.125a4.55227,4.55227,0,0,0,.43359-.584l.25879.11523a5.95351,5.95351,0,0,1-.502.59961c.09863.07227.18652.14454.26562.21387a6.29341,6.29341,0,0,0,.53809-.64648l.25586.125a11.14774,11.14774,0,0,1-.82715.8955c.26269-.00976.53515-.01953.76465-.02929a3.80933,3.80933,0,0,0-.252-.3086l.21289-.12207a3.29433,3.29433,0,0,1,.55469.75879l-.24609.124a2.66059,2.66059,0,0,0-.12793-.24219c-.2461.01269-.55176.03222-.84961.0459a1.93842,1.93842,0,0,1-.14844.23242h.80762l.19336.06543a1.51727,1.51727,0,0,1-.52149.67578A3.06259,3.06259,0,0,0,30.25684,64.4668ZM29.125,64.06641a1.3312,1.3312,0,0,0,.38379-.40723h-.80371l-.00586.00684A1.62288,1.62288,0,0,0,29.125,64.06641Z"/><path class="cls-3" d="M31.56445,64.59473a4.3809,4.3809,0,0,1-.53418-.03321v-.23925a4.69025,4.69025,0,0,0,.51758.02929c.69629,0,1.04-.24609,1.04-.60742,0-.29785-.252-.49512-.66211-.49512a1.43076,1.43076,0,0,0-.64941.15723,2.656,2.656,0,0,0-.63672.44043l-.168-.18457c.47266-.38379,1.12207-1,1.55859-1.42383H30.81348v-.24512h1.62988v.20606c-.34766.32519-.71484.67578-1.0166.94824a1.29983,1.29983,0,0,1,.54785-.12793c.57129,0,.88281.29883.88281.72461C32.85742,64.24316,32.418,64.59473,31.56445,64.59473Z"/><path class="cls-3" d="M33.75586,64.50586a5.64859,5.64859,0,0,1-.1084-1.1875,8.403,8.403,0,0,1,.10547-1.28613h.27539a9.59113,9.59113,0,0,0-.10449,1.27929,5.8148,5.8148,0,0,0,.10449,1.15137Zm1.67969-.0918c-.78418,0-1.0791-.15722-1.0791-.46582a.96707.96707,0,0,1,.27246-.59765l.22656.10839a.75488.75488,0,0,0-.22949.45313c0,.16992.22265.252.80957.252.1582,0,.32812-.00293.50879-.01953v.25C35.76758,64.41016,35.59668,64.41406,35.43555,64.41406Zm-1.00977-1.85742v-.24609h1.499v.24609Z"/><path class="cls-3" d="M39.415,63.01953v.28906H36.39941v-.28906Z"/><path class="cls-3" d="M39.80762,64.40039v-.26855h1.874v-1.627H39.81152v-.2666h2.165v2.16211Z"/><path class="cls-3" d="M44.21191,64.54883a7.10066,7.10066,0,0,0-1.34179-1.14844l.17383-.2041a7.11167,7.11167,0,0,1,.69531.51562,2.88639,2.88639,0,0,0,1.0664-1.293H42.5459v-.25586h2.67285a3.41727,3.41727,0,0,1-1.26563,1.73242c.17383.15722.3379.31152.47559.45605Z"/><path class="cls-3" d="M45.416,64.49219l-.23633-.167a3.41746,3.41746,0,0,0,.84961-2.165h.292A3.9053,3.9053,0,0,1,45.416,64.49219Zm2.45019,0a3.90033,3.90033,0,0,1-.9248-2.332h.292a3.32227,3.32227,0,0,0,.876,2.1289Zm-.23633-2.0791a2.13348,2.13348,0,0,0-.23535-.53809l.16016-.082a2.303,2.303,0,0,1,.25293.54785Zm.40723-.15821a2.05811,2.05811,0,0,0-.23926-.52832l.16016-.082a2.10479,2.10479,0,0,1,.25586.53516Z"/><path class="cls-3" d="M48.70605,63.60645a5.3293,5.3293,0,0,0-.29589-.85254l.22656-.0918a6.73608,6.73608,0,0,1,.32129.85254Zm.21973,1.0205-.13769-.22265a1.72965,1.72965,0,0,0,1.35449-1.77539h.26953A1.99158,1.99158,0,0,1,48.92578,64.62695Zm.43945-1.11816a4.8349,4.8349,0,0,0-.28515-.85059l.22949-.09179a6.53393,6.53393,0,0,1,.30859.85351Z"/><path class="cls-3" d="M51.97949,62.26172h1.28613a2.78914,2.78914,0,0,1-1.72851,2.3457l-.1416-.22265a2.36142,2.36142,0,0,0,1.50586-1.87012H51.8457a3.90131,3.90131,0,0,1-.78808.9834l-.20606-.18653a3.51294,3.51294,0,0,0,.98438-1.43359h.29785A3.49923,3.49923,0,0,1,51.97949,62.26172Z"/><path class="cls-3" d="M54.81055,64a.62313.62313,0,1,1,.31543-1.1543v-.35742H53.55762v-.25H55.126v-.48535h.28808v.48535h.98438v.25h-.98438V63.377c0,.748-.18359,1.18164-1.1709,1.30567l-.085-.23242c.55469-.06543.80371-.2002.90528-.50879A.54518.54518,0,0,1,54.81055,64Zm0-1.01953c-.2002,0-.32422.16015-.32422.39648s.124.39356.32422.39356c.19726,0,.31543-.17383.31543-.39356C55.126,63.15039,55.01074,62.98047,54.81055,62.98047Z"/><path class="cls-3" d="M57.9375,64.63672c-.46582,0-.75781-.19336-.75781-.47559,0-.22949.21289-.41015.53418-.41015a.71779.71779,0,0,1,.69629.57129.59723.59723,0,0,0,.42578-.54493c0-.32129-.26563-.53808-.748-.53808a1.34316,1.34316,0,0,0-.58008.125,3.67859,3.67859,0,0,0-.76758.56054l-.17089-.20312c.22265-.18066.54785-.43652.76757-.63965.2334-.21289.66309-.60351.915-.85644H57.00586v-.2461h1.666v.2168c-.29493.28223-.74122.67871-.958.88867a1.26914,1.26914,0,0,1,.43652-.07812c.62012,0,.95508.30761.95508.76367C59.10547,64.2793,58.62305,64.63672,57.9375,64.63672Zm-.2334-.666c-.18652,0-.28515.08594-.28515.2002,0,.14746.18066.23926.48925.23926a1.347,1.347,0,0,0,.26563-.02246A.50385.50385,0,0,0,57.7041,63.9707Z"/><path class="cls-3" d="M61.84375,64.47949a2.78507,2.78507,0,0,0-.83594-.49219c-.00976.4629-.15429.64258-.58789.64258-.43554,0-.72461-.21289-.72461-.48144,0-.28223.292-.48926.77735-.48926a2.30341,2.30341,0,0,1,.25879.0166c-.00977-.38672-.03516-1.0498-.03516-1.88281h.27539c0,.26562.00293.51465.00586.74414h1.01074v.24609H60.98145c.00976.39746.01953.72168.02246.95118a2.83948,2.83948,0,0,1,1.001.542Zm-1.39355-.584c-.31836,0-.502.10156-.502.25586,0,.14746.17676.23925.44922.23925.26563,0,.334-.09179.33789-.47265A1.73614,1.73614,0,0,0,60.4502,63.89551Z"/><path class="cls-3" d="M27.30664,60.541l-.04492-.17383c.6748-.05664.98242-.27149.98242-.61231a.35677.35677,0,0,0-.39258-.3789,6.15405,6.15405,0,0,0-.84765.09277l-.03614-.18359a6.48436,6.48436,0,0,1,.89453-.0918.52888.52888,0,0,1,.585.56152C28.44727,60.20215,28.03223,60.48926,27.30664,60.541Zm.84082-1.58985a4.03661,4.03661,0,0,0-.85156-.21484l.043-.17383a4.39586,4.39586,0,0,1,.86718.2168Z"/><path class="cls-3" d="M29.66211,60.51172c-.39258,0-.625-.18067-.625-.64356V58.624h.20117v1.23047c0,.35449.14844.46778.43555.46778a.736.736,0,0,0,.666-.51563l.15821.10938A.91313.91313,0,0,1,29.66211,60.51172Z"/></g></g></svg>