<svg xmlns="http://www.w3.org/2000/svg" viewBox="0 0 75 75"><defs><style>.cls-3{fill:#675642}</style></defs><g id="レイヤー_2" data-name="レイヤー 2"><g id="レイヤー_2-2" data-name="レイヤー 2"><path d="M0 0h75v66.518A8.482 8.482 0 0166.518 75H8.482A8.482 8.482 0 010 66.518V0z" transform="rotate(90 37.5 37.5)" fill="none"/><path d="M8.482 5H70v65H8.482A3.482 3.482 0 015 66.518V8.482A3.482 3.482 0 018.482 5z" fill="#fff"/><path class="cls-3" d="M70.125 70.125H8.482a3.611 3.611 0 01-3.607-3.607V8.482a3.611 3.611 0 013.607-3.607h61.643zm-61.643-65a3.36 3.36 0 00-3.357 3.357v58.036a3.361 3.361 0 003.357 3.357h61.393V5.125z"/><path class="cls-3" d="M35.804 48.902l-15.199-10.45a1.156 1.156 0 010-1.905l15.199-10.449a1.156 1.156 0 011.811.953v20.898a1.156 1.156 0 01-1.811.953z"/><rect class="cls-3" x="33.292" y="32.901" width="21.605" height="9.198" rx="1.156"/><path class="cls-3" d="M33.73 12.722a7.342 7.342 0 00-.98-.335 4.911 4.911 0 01.24 1.49 1.665 1.665 0 01-1.736 1.865 1.55 1.55 0 01-1.656-1.651 3.72 3.72 0 01.543-1.875h-.98v-.607h1.817v.48a3.33 3.33 0 00-.71 1.975.912.912 0 00.981 1.022c.692 0 1.07-.458 1.07-1.288a4.33 4.33 0 00-.346-1.704l.336-.453c.649.154 1.176.33 1.64.484zM36.77 11.966h.981v.601h-1.076a12.818 12.818 0 01-.99 3.244l-.693-.288a10.521 10.521 0 00.943-2.956h-.858v-.601h.953c.033-.272.054-.533.07-.783h.755c-.015.255-.047.517-.084.783zm1.748 3.76c-1.225 0-1.742-.315-1.742-.805a1.373 1.373 0 01.468-.91l.517.277c-.218.25-.287.383-.287.505 0 .198.266.299 1.033.299.256 0 .5-.011.788-.037v.633a7.978 7.978 0 01-.777.038zm-1.29-2.195l-.09-.612a16.01 16.01 0 012.11-.117v.623a15.009 15.009 0 00-2.02.106zm1.172-1.288a3.092 3.092 0 00-.41-.873l.394-.203a3.142 3.142 0 01.453.895zm.724-.245a3.11 3.11 0 00-.4-.831l.395-.208a3.183 3.183 0 01.437.858zM41.57 14.155a5.246 5.246 0 01-.144-1.284 7.54 7.54 0 01.154-1.438h.703a7.906 7.906 0 00-.15 1.412c0 .175.033.468.033.468.16-.208.372-.468.58-.713l.33.59c-.271.315-.538.629-.804.965zm.9 1.139a2.216 2.216 0 001.511-2.502c0-.315-.015-.874-.069-1.46h.74c.054.575.07 1.081.07 1.449a2.883 2.883 0 01-1.822 3.088zM18.139 63.685l.111.915-.285.03-.111-.923-1.182.096-.023-.25 1.174-.092-.082-.702-1 .08-.02-.25.99-.076-.088-.724.286-.027.088.732.984-.076.017.243-.97.075.081.702 1.07-.082.016.243zM19.611 64.43v-.247h1.47l.095-1.2h-1.26v-.247h1.559l-.122 1.447h.558v.246zM22.432 63.452v-.296h2.578v.296zM25.887 64.557l-.138-.249a1.994 1.994 0 001.673-1.791h-1.945v-.266h2.3a2.377 2.377 0 01-1.89 2.306zm1.781-2.369a1.95 1.95 0 00-.236-.502l.16-.078a2.07 2.07 0 01.257.508zm.456-.023a1.82 1.82 0 00-.233-.511l.164-.082a2.096 2.096 0 01.249.521zM29.415 62.553h.22c.482 0 .656.21.656.705a2.269 2.269 0 01-.21 1.073.421.421 0 01-.436.24 1.23 1.23 0 01-.462-.1l.033-.229a1.163 1.163 0 00.393.086.237.237 0 00.23-.112 1.956 1.956 0 00.183-.958c0-.331-.11-.469-.426-.469-.069 0-.148 0-.233.003a6.24 6.24 0 01-.692 1.782l-.234-.132a5.574 5.574 0 00.65-1.643c-.2.003-.42.013-.65.023l-.012-.237c.262-.013.502-.02.715-.026a6.126 6.126 0 00.105-.728h.278a6.807 6.807 0 01-.108.722zm1.208-.223a2.069 2.069 0 00-.236-.541l.16-.082a2.066 2.066 0 01.256.55zm.288 1.578a2.31 2.31 0 00-.442-1.372l.213-.13a2.527 2.527 0 01.508 1.502zm.142-1.687a1.99 1.99 0 00-.24-.528l.16-.085a2.18 2.18 0 01.256.538zM33.203 64.32v-.878h-.676v-.24a4.4 4.4 0 01-.74 1.286l-.247-.144a4.167 4.167 0 00.89-1.732h-.85v-.26h.911a7.5 7.5 0 00.102-.668l.276.042c-.026.216-.06.423-.101.627h1.807v.259h-1.867a5.393 5.393 0 01-.177.577h1.696v.253h-.742v.879h1.028v.256h-2.34v-.256zM35.217 64.505a5.65 5.65 0 01-.109-1.188 8.402 8.402 0 01.106-1.286h.275a9.585 9.585 0 00-.104 1.28 5.815 5.815 0 00.104 1.15zm1.68-.092c-.785 0-1.08-.158-1.08-.466a.964.964 0 01.273-.597l.226.108a.755.755 0 00-.23.453c0 .17.224.253.81.253.159 0 .329-.004.51-.02v.249a5.4 5.4 0 01-.51.02zm-1.01-1.857v-.246h1.499v.246zM39.236 64.442v-2.227l-.537.367-.138-.213.65-.446h.328v2.52zM41.032 64.4v-.27h1.874v-1.627h-1.87v-.265h2.165V64.4zM45.438 64.547a7.136 7.136 0 00-1.342-1.148l.174-.203a7.026 7.026 0 01.695.515 2.885 2.885 0 001.066-1.293h-2.26v-.256h2.673a3.415 3.415 0 01-1.265 1.733c.174.157.338.311.475.456zM47.943 64a.624.624 0 010-1.247.566.566 0 01.316.092v-.358H46.69v-.25h1.569v-.485h.288v.486h.984v.25h-.984v.888c0 .748-.184 1.181-1.171 1.306l-.085-.233c.555-.066.804-.2.905-.509a.54.54 0 01-.253.06zm0-1.021c-.2 0-.324.161-.324.397 0 .236.124.394.324.394.198 0 .316-.174.316-.394 0-.226-.115-.397-.316-.397zM50.893 64a.624.624 0 010-1.247.566.566 0 01.315.092v-.358H49.64v-.25h1.568v-.485h.288v.486h.984v.25h-.984v.888c0 .748-.184 1.181-1.17 1.306l-.086-.233c.555-.066.804-.2.905-.509a.54.54 0 01-.252.06zm0-1.021c-.2 0-.325.161-.325.397 0 .236.124.394.325.394.197 0 .315-.174.315-.394 0-.226-.115-.397-.315-.397zM53.26 64.016c-.288 0-.469-.19-.469-.564 0-.345.177-.568.469-.568a.46.46 0 01.226.056v-.341h-.669v-.243h.67v-.561h.265v.561h.644v.243h-.644v.856c0 .23-.068.39-.068.597 0 .23.173.318.59.318.485 0 .754-.095.754-.393a2.916 2.916 0 00-.085-.61h.26a2.84 2.84 0 01.084.626c0 .45-.357.623-1.03.623-.597 0-.836-.177-.836-.498a.82.82 0 01.01-.132.472.472 0 01-.171.03zm0-.915c-.155 0-.246.134-.246.35 0 .23.095.348.246.348s.246-.134.246-.347c0-.217-.095-.351-.246-.351zm2.254-.1a2.965 2.965 0 00-.722-.49l.145-.2a3.183 3.183 0 01.734.488zM58.154 64.479a2.806 2.806 0 00-.836-.493c-.01.463-.154.643-.588.643-.435 0-.724-.213-.724-.482 0-.282.292-.489.777-.489a2.303 2.303 0 01.259.017c-.01-.387-.035-1.05-.035-1.884h.275c0 .266.003.516.006.745h1.01v.246h-1.006c.01.397.02.722.022.952a2.836 2.836 0 011.001.54zm-1.393-.584c-.319 0-.502.101-.502.255 0 .148.176.24.449.24.266 0 .334-.092.338-.473a1.636 1.636 0 00-.285-.022zM32.291 59.164a3.922 3.922 0 00-.483-.15 2.064 2.064 0 01.127.696.684.684 0 01-.699.775.625.625 0 01-.664-.673 1.628 1.628 0 01.269-.853h-.483v-.166h.71v.131a1.505 1.505 0 00-.315.881.455.455 0 00.481.506c.32 0 .522-.221.522-.623a1.974 1.974 0 00-.158-.754l.092-.122c.251.06.477.13.658.191zM33.16 58.96h.482v.165h-.51a5.294 5.294 0 01-.433 1.387l-.182-.079a4.544 4.544 0 00.418-1.308h-.403v-.165h.43c.018-.128.031-.252.038-.372h.203c-.009.12-.024.246-.043.372zm.816 1.505c-.472 0-.72-.109-.72-.308a.561.561 0 01.191-.359l.14.077c-.107.118-.143.192-.143.251 0 .113.168.171.53.171a3.122 3.122 0 00.322-.015v.17a3.894 3.894 0 01-.32.013zm-.551-.956l-.024-.164a7.531 7.531 0 01.874-.041v.167a7.403 7.403 0 00-.85.038zm.535-.499a1.434 1.434 0 00-.163-.372l.11-.057a1.491 1.491 0 01.177.38zm.289-.09a1.425 1.425 0 00-.163-.364l.11-.058a1.582 1.582 0 01.177.37zM35.016 59.837h-.187a2.28 2.28 0 01-.057-.515 3.693 3.693 0 01.061-.616h.19a3.508 3.508 0 00-.061.609 1.625 1.625 0 00.024.294l.29-.346.092.158c-.117.134-.241.28-.352.416zm.3.709l-.115-.153a1 1 0 00.675-1.103c0-.133-.009-.386-.03-.627h.198c.022.236.031.476.031.625a1.18 1.18 0 01-.759 1.258z"/></g></g></svg>