<svg xmlns="http://www.w3.org/2000/svg" viewBox="0 0 75 75"><defs><style>.cls-1{fill:none;}.cls-2{fill:#fff;}.cls-3{fill:#675642;}</style></defs><title>アセット 4202</title><g id="レイヤー_2" data-name="レイヤー 2"><g id="レイヤー_2-2" data-name="レイヤー 2"><path class="cls-1" d="M0,0H75a0,0,0,0,1,0,0V66.51758A8.48242,8.48242,0,0,1,66.51758,75H8.48193A8.48193,8.48193,0,0,1,0,66.51807V0A0,0,0,0,1,0,0Z" transform="translate(75) rotate(90)"/><path class="cls-2" d="M8.482,4.99993H69.99988a0,0,0,0,1,0,0v65a0,0,0,0,1,0,0H8.482a3.48214,3.48214,0,0,1-3.48214-3.48214V8.48207A3.48214,3.48214,0,0,1,8.482,4.99993Z"/><path class="cls-3" d="M70.125,70.125H8.48242A3.61135,3.61135,0,0,1,4.875,66.51758V8.48193A3.61125,3.61125,0,0,1,8.48242,4.875H70.125Zm-61.64258-65A3.36077,3.36077,0,0,0,5.125,8.48193V66.51758A3.36119,3.36119,0,0,0,8.48242,69.875H69.875V5.125Z"/><path class="cls-3" d="M35.80368,48.90183,20.605,38.45276a1.15629,1.15629,0,0,1,0-1.90566L35.80368,26.098a1.15629,1.15629,0,0,1,1.81136.95283V47.949A1.15629,1.15629,0,0,1,35.80368,48.90183Z"/><rect class="cls-3" x="33.29201" y="32.90095" width="21.60452" height="9.19797" rx="1.15629"/><path class="cls-3" d="M33.73047,12.72217a7.34241,7.34241,0,0,0-.98047-.33545,4.911,4.911,0,0,1,.24023,1.49072,1.66457,1.66457,0,0,1-1.73632,1.86426,1.54991,1.54991,0,0,1-1.65625-1.65088,3.72029,3.72029,0,0,1,.543-1.87451h-.97949v-.60742h1.81641v.47949a3.33056,3.33056,0,0,0-.709,1.97558.91179.91179,0,0,0,.98047,1.02247c.69239,0,1.07032-.458,1.07032-1.28858a4.32927,4.32927,0,0,0-.34668-1.7041l.33593-.45264c.64942.1543,1.17676.33008,1.63965.48438Z"/><path class="cls-3" d="M36.77051,11.96582H37.751v.60156H36.6748a12.8178,12.8178,0,0,1-.99023,3.24317l-.69238-.2876a10.521,10.521,0,0,0,.94238-2.95557h-.85742v-.60156h.95312c.03223-.27148.05371-.53271.06934-.78271h.75586C36.83984,11.43848,36.80762,11.69971,36.77051,11.96582Zm1.74707,3.75977c-1.22461,0-1.74121-.31446-1.74121-.8042a1.37305,1.37305,0,0,1,.46777-.91065l.5166.27686c-.21777.25049-.28711.3833-.28711.50586,0,.19726.2666.29834,1.03321.29834.25586,0,.5-.01075.78808-.03711v.63379C39.0127,15.71484,38.77832,15.72559,38.51758,15.72559Zm-1.28906-2.19434-.09082-.6123a16.00972,16.00972,0,0,1,2.10937-.11719v.623A15.00877,15.00877,0,0,0,37.22852,13.53125Zm1.17187-1.28857a3.09235,3.09235,0,0,0-.41016-.873l.39356-.20264a3.14162,3.14162,0,0,1,.45312.89453ZM39.124,11.998a3.10921,3.10921,0,0,0-.39941-.83106l.39453-.20752a3.18324,3.18324,0,0,1,.43652.85742Z"/><path class="cls-3" d="M41.56934,14.15479a5.24584,5.24584,0,0,1-.14356-1.2837,7.53913,7.53913,0,0,1,.1543-1.438h.70312a7.90584,7.90584,0,0,0-.14941,1.41162c0,.17578.03223.46826.03223.46826.15918-.20752.37207-.46826.58007-.71338l.33008.59082c-.27148.31445-.53808.62842-.80371.96436Zm.90039,1.13916a2.21593,2.21593,0,0,0,1.51172-2.50245c0-.31445-.01563-.87353-.06934-1.45947h.74023c.05371.5752.06934,1.08106.06934,1.44873a2.88322,2.88322,0,0,1-1.82129,3.08838Z"/><path class="cls-3" d="M18.13867,63.68457l.11133.915-.28516.02978-.11132-.92187-1.18164.09521-.02247-.24951,1.17383-.09179-.082-.70215-1,.0791-.01953-.24951.99023-.07569-.08886-.72461.28613-.02636.08789.73144.98438-.07519.0166.24267-.97071.0752.082.70215,1.06933-.082.0166.24267Z"/><path class="cls-3" d="M19.61133,64.4292v-.24609h1.46972l.09473-1.20069H19.916v-.24609h1.55859l-.12109,1.44678h.55761v.24609Z"/><path class="cls-3" d="M22.43164,63.45166v-.29541h2.57813v.29541Z"/><path class="cls-3" d="M25.88672,64.55713l-.1377-.249a1.99378,1.99378,0,0,0,1.67286-1.79151H25.47656V62.251h2.29981A2.37708,2.37708,0,0,1,25.88672,64.55713ZM27.668,62.18848a1.95076,1.95076,0,0,0-.23633-.502l.16113-.07861a2.06988,2.06988,0,0,1,.25586.5083Zm.45605-.023a1.82024,1.82024,0,0,0-.2334-.51172l.16407-.082a2.096,2.096,0,0,1,.249.52148Z"/><path class="cls-3" d="M29.415,62.55273h.2207c.48145,0,.65528.21.65528.70557a2.26852,2.26852,0,0,1-.21,1.07275.42139.42139,0,0,1-.43554.23926,1.23082,1.23082,0,0,1-.46289-.09863l.0332-.22949a1.16318,1.16318,0,0,0,.39356.08545.23684.23684,0,0,0,.22949-.11182,1.95649,1.95649,0,0,0,.18359-.95752c0-.33154-.11133-.46924-.42676-.46924-.06836,0-.14746,0-.23242.00293a6.24093,6.24093,0,0,1-.69238,1.78174l-.2334-.13135a5.5737,5.5737,0,0,0,.65039-1.64355c-.20019.00342-.41992.01318-.65039.02295l-.0127-.23633c.2627-.01318.502-.01953.71485-.02637a6.12642,6.12642,0,0,0,.10547-.728h.27832A6.80713,6.80713,0,0,1,29.415,62.55273Zm1.208-.22314a2.06856,2.06856,0,0,0-.23633-.541l.16016-.082a2.06649,2.06649,0,0,1,.25585.55078Zm.28808,1.57812a2.30933,2.30933,0,0,0-.44238-1.37158l.21289-.13086a2.52712,2.52712,0,0,1,.50879,1.50244Zm.1416-1.68652a1.99077,1.99077,0,0,0-.23925-.52783l.16015-.08545a2.17922,2.17922,0,0,1,.25586.53809Z"/><path class="cls-3" d="M33.20312,64.3208v-.87891h-.67578v-.23974a4.40054,4.40054,0,0,1-.74121,1.28613L31.54,64.34375a4.1669,4.1669,0,0,0,.88965-1.73193H31.5791v-.25928h.91211c.043-.21338.07617-.436.10156-.66895l.27637.04248c-.02637.21631-.05957.42334-.10156.62647H34.5752v.25928H32.708a5.39336,5.39336,0,0,1-.17676.57714h1.69531v.25293h-.74121v.87891H34.5127v.25586H32.17285V64.3208Z"/><path class="cls-3" d="M35.2168,64.50488a5.65025,5.65025,0,0,1-.1084-1.188,8.4019,8.4019,0,0,1,.10547-1.28564h.27539a9.58489,9.58489,0,0,0-.10449,1.2793,5.81477,5.81477,0,0,0,.10449,1.15136Zm1.67968-.09179c-.78418,0-1.0791-.15772-1.0791-.46631a.964.964,0,0,1,.27246-.59668l.22657.10791a.75483.75483,0,0,0-.2295.45312c0,.17041.22266.25244.80957.25244.15821,0,.32813-.00341.50879-.01953v.249C37.22852,64.40967,37.05762,64.41309,36.89648,64.41309Zm-1.00976-1.85694v-.24609h1.499v.24609Z"/><path class="cls-3" d="M39.23633,64.44238V62.21484l-.53711.36719-.13867-.21289.65039-.44629h.32812v2.51953Z"/><path class="cls-3" d="M41.03223,64.3999v-.269h1.874V62.50342H41.03613v-.26563h2.165V64.3999Z"/><path class="cls-3" d="M45.4375,64.54736a7.13616,7.13616,0,0,0-1.3418-1.14843l.17383-.20313a7.02591,7.02591,0,0,1,.69531.51514,2.8853,2.8853,0,0,0,1.06641-1.29248H43.77051v-.25635h2.67383a3.41521,3.41521,0,0,1-1.26563,1.73242c.17383.15723.33789.31152.47559.45606Z"/><path class="cls-3" d="M47.94336,63.99951a.62424.62424,0,0,1,0-1.24658.56593.56593,0,0,1,.31543.0918V62.4873H46.69043v-.24951h1.56836v-.48535h.28809v.48535h.98437v.24951h-.98437V63.376c0,.748-.1836,1.18115-1.1709,1.30566l-.085-.23291c.55468-.06543.80371-.19971.90527-.5083A.53948.53948,0,0,1,47.94336,63.99951Zm0-1.02051c-.2002,0-.32422.16114-.32422.397,0,.23632.124.394.32422.394.19726,0,.31543-.17383.31543-.394C48.25879,63.1499,48.14355,62.979,47.94336,62.979Z"/><path class="cls-3" d="M50.89258,63.99951a.62424.62424,0,0,1,0-1.24658.56593.56593,0,0,1,.31543.0918V62.4873H49.63965v-.24951H51.208v-.48535h.28808v.48535h.98438v.24951h-.98438V63.376c0,.748-.18359,1.18115-1.17089,1.30566l-.085-.23291c.55469-.06543.80372-.19971.90528-.5083A.53948.53948,0,0,1,50.89258,63.99951Zm0-1.02051c-.2002,0-.32422.16114-.32422.397,0,.23632.124.394.32422.394.19726,0,.31543-.17383.31543-.394C51.208,63.1499,51.09277,62.979,50.89258,62.979Z"/><path class="cls-3" d="M53.25977,64.01611c-.28809,0-.46875-.19043-.46875-.56445,0-.34473.17675-.56738.46875-.56738a.46073.46073,0,0,1,.22656.05566v-.34131h-.669V62.356h.669v-.561H53.752v.561h.64356v.24267H53.752v.85645c0,.22949-.06836.39013-.06836.59668,0,.23.17383.31836.58985.31836.48535,0,.75488-.09522.75488-.39356a2.91641,2.91641,0,0,0-.085-.61035h.25879a2.83923,2.83923,0,0,1,.085.627c0,.44922-.35742.623-1.03027.623-.59668,0-.83594-.17725-.83594-.49853a.81964.81964,0,0,1,.00976-.13135A.47154.47154,0,0,1,53.25977,64.01611Zm0-.91552c-.1543,0-.2461.13476-.2461.35107,0,.22949.09571.34766.2461.34766.15136,0,.24609-.13428.24609-.34766C53.50586,63.23535,53.41113,63.10059,53.25977,63.10059Zm2.2539-.09864a2.96462,2.96462,0,0,0-.72168-.4917l.14453-.20019a3.183,3.183,0,0,1,.73438.48877Z"/><path class="cls-3" d="M58.1543,64.47852a2.80563,2.80563,0,0,0-.83594-.49219c-.00977.4624-.1543.64306-.58789.64306-.43555,0-.72461-.21337-.72461-.48242,0-.28174.292-.48877.77734-.48877a2.30325,2.30325,0,0,1,.25879.0166c-.00976-.3872-.03515-1.0498-.03515-1.8833h.27539c0,.26563.00293.51514.00586.74463h1.01074v.2461H57.292c.00977.397.01953.72168.02246.95166a2.83646,2.83646,0,0,1,1.001.541Zm-1.39356-.584c-.31836,0-.502.10156-.502.25586,0,.14746.17676.23926.44922.23926.26562,0,.334-.0918.33789-.47217A1.63635,1.63635,0,0,0,56.76074,63.89453Z"/><path class="cls-3" d="M32.291,59.16406a3.92222,3.92222,0,0,0-.4834-.14941,2.0642,2.0642,0,0,1,.127.6958.68374.68374,0,0,1-.69824.77441.625.625,0,0,1-.66406-.67285,1.62782,1.62782,0,0,1,.26855-.85351H30.3584v-.165h.709v.13086a1.50453,1.50453,0,0,0-.31445.88086.45469.45469,0,0,0,.48145.50586c.32031,0,.52148-.2212.52148-.62354a1.97445,1.97445,0,0,0-.1582-.75391l.09277-.12207c.251.061.47656.13086.65723.1919Z"/><path class="cls-3" d="M33.16016,58.96045h.48144v.165h-.50879a5.29445,5.29445,0,0,1-.43359,1.38672l-.18262-.0791a4.5439,4.5439,0,0,0,.418-1.30762h-.40234v-.165h.42968c.01758-.12842.03125-.25293.03809-.37256h.20312C33.19434,58.70752,33.17871,58.834,33.16016,58.96045Zm.81543,1.50439c-.47168,0-.71875-.10839-.71875-.30761a.56145.56145,0,0,1,.19043-.35889l.13964.07666c-.10644.11768-.14257.19238-.14257.251,0,.11279.168.17138.52929.17138a3.12186,3.12186,0,0,0,.32227-.01562v.16943C34.1875,60.46,34.084,60.46484,33.97559,60.46484Zm-.55079-.95556-.02343-.16455a7.53116,7.53116,0,0,1,.874-.041v.167A7.403,7.403,0,0,0,33.4248,59.50928Zm.53516-.499a1.43366,1.43366,0,0,0-.16308-.37255l.11035-.05665a1.49115,1.49115,0,0,1,.17675.3794Zm.28906-.09033a1.425,1.425,0,0,0-.16308-.36377l.11035-.05859a1.58176,1.58176,0,0,1,.17676.3706Z"/><path class="cls-3" d="M35.01562,59.83691H34.8291a2.27939,2.27939,0,0,1-.05664-.51513,3.69266,3.69266,0,0,1,.06055-.61621h.18945a3.50784,3.50784,0,0,0-.06055.60937,1.625,1.625,0,0,0,.02442.294c.0791-.09717.1875-.22364.28906-.34571l.09277.15821C35.251,59.55469,35.127,59.70117,35.01562,59.83691Zm.30079.709-.11524-.15332A1.00015,1.00015,0,0,0,35.876,59.29c0-.13281-.00879-.38574-.0293-.62744H36.044c.02246.23681.03125.47656.03125.62549A1.17915,1.17915,0,0,1,35.31641,60.5459Z"/></g></g></svg>