<svg xmlns="http://www.w3.org/2000/svg" viewBox="0 0 75 75"><defs><style>.cls-1{fill:none;}.cls-2{fill:#fff;}.cls-3{fill:#675642;}</style></defs><title>アセット 4602</title><g id="レイヤー_2" data-name="レイヤー 2"><g id="レイヤー_2-2" data-name="レイヤー 2"><rect class="cls-1" width="75" height="75" transform="translate(75) rotate(90)"/><rect class="cls-2" x="4.99988" y="4.99977" width="65" height="65"/><path class="cls-3" d="M70.125,70.125H4.875V4.875h65.25Zm-65-.25h64.75V5.125H5.125Z"/><circle class="cls-3" cx="37.49988" cy="30.90873" r="19.73214"/><path class="cls-2" d="M41.22828,35.71145a4.80367,4.80367,0,1,1,4.82507-4.80373A4.76315,4.76315,0,0,1,41.22828,35.71145Zm0-8.24767a3.44441,3.44441,0,1,0,3.38725,3.44394A3.42007,3.42007,0,0,0,41.22828,27.46378Z"/><path class="cls-2" d="M31.5738,30.45926v1.25249h2.26485a3.39427,3.39427,0,1,1-3.29329-4.24967,3.342,3.342,0,0,1,2.413,1.03241l1.0084-1.0044a4.82527,4.82527,0,0,0-3.42137-1.38455,4.80394,4.80394,0,1,0,4.75793,5.60621,4.81691,4.81691,0,0,0,.068-.80432v-.44817Z"/><path class="cls-2" d="M49.27631,34.74383a.95368.95368,0,0,0-1.90708,0,.95367.95367,0,1,0,1.90708,0Z"/><path class="cls-2" d="M49.04091,32.81645H47.60465V26.10413h1.43626Z"/><path class="cls-3" d="M16.08008,56.126V54.59766h.292V56.126Zm.623,1.11914-.14062-.23633a1.20908,1.20908,0,0,0,1.03027-1.332V54.51855h.29785v1.16114A1.46064,1.46064,0,0,1,16.70312,57.24512Z"/><path class="cls-3" d="M20.09082,56.12891a3.70919,3.70919,0,0,0,1.14844.84375l-.16406.24218A4.22231,4.22231,0,0,1,19.917,56.333a3.41141,3.41141,0,0,1-1.26269.88183l-.15039-.22265a3.16848,3.16848,0,0,0,1.83691-1.90625h-1.5293v-.2461h1.90625A3.30092,3.30092,0,0,1,20.09082,56.12891Zm.709-1.2461a2.00369,2.00369,0,0,0-.23925-.51172l.16015-.0791a2.13983,2.13983,0,0,1,.25684.51856Zm.44629-.05273a1.9916,1.9916,0,0,0-.23632-.52442l.16113-.082a2.18833,2.18833,0,0,1,.252.53418Z"/><path class="cls-3" d="M21.6123,57.11328l-.03613-.26562c.085-.00293.17383-.00977.26563-.01661.29492-.748.55761-1.53808.77441-2.28613h.31152c-.23242.77051-.48828,1.53223-.78027,2.2666.52149-.03613,1.0791-.082,1.54785-.12793a3.80109,3.80109,0,0,0-.50488-.79394l.21973-.1377a4.67892,4.67892,0,0,1,.78711,1.41114l-.27539.09472a2.72571,2.72571,0,0,0-.11817-.331C23.11133,56.999,22.30078,57.07129,21.6123,57.11328Z"/><path class="cls-3" d="M27.12305,57.07422l-.29785-.34082a.833.833,0,0,1-.74512.38379.68956.68956,0,0,1-.76074-.69629.7987.7987,0,0,1,.55468-.76758.76007.76007,0,0,1-.27246-.56055.56884.56884,0,0,1,.61328-.58105.535.535,0,0,1,.60645.55469.77217.77217,0,0,1-.53418.66308l.51172.56739c.0625-.1211.18066-.38086.249-.56153h.31836c-.09473.2168-.26562.56836-.36719.74512l.51856.59375ZM26.02441,55.834a.588.588,0,0,0-.40722.56446.46673.46673,0,0,0,.47949.48242.59861.59861,0,0,0,.541-.34766Zm.19043-1.09277a.31751.31751,0,0,0-.335.3418.66835.66835,0,0,0,.24317.46582c.21972-.09863.416-.2334.416-.48535A.29772.29772,0,0,0,26.21484,54.74121Z"/><path class="cls-3" d="M28.7666,57.03516v-.26954H30.624V55.21094H28.77051v-.2627H30.919v2.08692Zm2.09375-2.14551a2.15033,2.15033,0,0,0-.24609-.52832l.16015-.08594a2.07386,2.07386,0,0,1,.2627.542Zm.46192-.04981a2.0446,2.0446,0,0,0-.23926-.52832l.16406-.085a2.24646,2.24646,0,0,1,.25586.541Z"/><path class="cls-3" d="M31.71875,56.083v-.29492h2.57813V56.083Z"/><path class="cls-3" d="M36.4873,56.08984c.00977.10547.01368.22657.01368.36719v.25977h-.26563v-.25586c0-.0918,0-.1709-.0039-.23926-.33106.17969-.55079.36719-.55079.53125,0,.19043.19336.25879.66895.25879a7.40975,7.40975,0,0,0,.82715-.0459v.249c-.22364.02051-.541.03321-.82324.03321-.65625,0-.93848-.14453-.93848-.47559,0-.29492.32129-.57129.78711-.81738-.03613-.17969-.10449-.23242-.2168-.23242a1.149,1.149,0,0,0-.626.26269,2.69912,2.69912,0,0,0-.43946.42969l-.2041-.17383a3.42354,3.42354,0,0,0,.73145-1.10254H34.874v-.2334h.66211a3.624,3.624,0,0,0,.12793-.49511h.28906a4.30561,4.30561,0,0,1-.12792.49511h.99707v.2334H35.74316a2.93565,2.93565,0,0,1-.27246.54492,1.17576,1.17576,0,0,1,.59082-.20019c.19629,0,.32129.08789.38672.35058.25586-.11816.541-.22949.83008-.331l.10156.24609A7.92689,7.92689,0,0,0,36.4873,56.08984Z"/><path class="cls-3" d="M38.07129,57.15625a5.88692,5.88692,0,0,1-.10547-1.24023,11.6285,11.6285,0,0,1,.08594-1.332h.27832a10.96964,10.96964,0,0,0-.08887,1.33594,5.88349,5.88349,0,0,0,.09863,1.1836Zm2.33887-.19043a1.83029,1.83029,0,0,0-.47266-.32422c-.01953.39356-.18066.54785-.56445.54785-.38672,0-.669-.18066-.669-.46289,0-.26953.26953-.44629.65918-.44629a1.59805,1.59805,0,0,1,.3086.0293c-.00293-.22949-.00977-.55078-.0127-.915h-.998v-.23926h.99414c-.00293-.19336-.00293-.39355-.00293-.59765H39.918c0,.20019,0,.40039.00293.59765h.58789v.23926h-.584c.00586.40039.0127.75781.01661.99121a2.05471,2.05471,0,0,1,.626.38672Zm-1.06348-.46289c-.249,0-.40625.082-.40625.22363,0,.15039.17383.23633.41309.23633.22949,0,.32128-.0918.32128-.417A1.23521,1.23521,0,0,0,39.34668,56.50293Z"/><path class="cls-3" d="M42.13867,57.23145c-.56836,0-.90234-.25879-.90234-.92774V54.502h.28515v1.77832c0,.51465.2168.67871.62989.67871a1.07346,1.07346,0,0,0,.96777-.74414l.22656.1543A1.31569,1.31569,0,0,1,42.13867,57.23145Zm.40332-1.791a2.19327,2.19327,0,0,0-.24316-.54785l.16406-.085a2.05656,2.05656,0,0,1,.2627.56054Zm.42676-.15723a2.05744,2.05744,0,0,0-.24316-.542l.16406-.085a2.25125,2.25125,0,0,1,.26269.55176Z"/><path class="cls-3" d="M44.43066,54.57812h.25879a6.20458,6.20458,0,0,0,.043.64551,1.64323,1.64323,0,0,1,.794-.21h.00293a3.50185,3.50185,0,0,0,.0459-.58008h.27246a4.31672,4.31672,0,0,1-.04883.60352.99116.99116,0,0,1,.85254.99414c0,.64941-.53125,1.0791-1.3418,1.1875l-.08789-.24609c.78027-.10157,1.15137-.46582,1.15137-.93164a.75623.75623,0,0,0-.62012-.76172c-.23926,1.04687-.86621,1.67382-1.28613,1.67382a.566.566,0,0,1-.51465-.61718,1.28654,1.28654,0,0,1,.55078-.96094A4.66361,4.66361,0,0,1,44.43066,54.57812Zm.13086,1.0625a.99739.99739,0,0,0-.35058.69532c0,.21289.11523.35156.26562.35156a.695.695,0,0,0,.44629-.27246A2.16539,2.16539,0,0,1,44.56152,55.64062Zm.52832.55762a2.78631,2.78631,0,0,0,.39356-.94433,1.35443,1.35443,0,0,0-.708.21972A1.68964,1.68964,0,0,0,45.08984,56.19824Z"/><path class="cls-3" d="M48.53418,57.26758c-.46582,0-.75781-.19336-.75781-.47559,0-.22949.21289-.41015.53418-.41015a.71778.71778,0,0,1,.69629.57128.59721.59721,0,0,0,.42578-.54492c0-.32129-.26563-.53808-.748-.53808a1.34316,1.34316,0,0,0-.58008.125,3.67859,3.67859,0,0,0-.76758.56054l-.17089-.20312c.22265-.18066.54785-.43652.76757-.63965.2334-.21289.66309-.60351.915-.85644H47.60254v-.2461h1.666v.2168c-.29492.28223-.74121.67871-.958.88867a1.26914,1.26914,0,0,1,.43652-.07812c.62012,0,.95508.30761.95508.76367C49.70215,56.91016,49.21973,57.26758,48.53418,57.26758Zm-.2334-.666c-.18652,0-.28516.08594-.28516.2002,0,.14746.18067.23926.48926.23926a1.34624,1.34624,0,0,0,.26563-.02247A.50385.50385,0,0,0,48.30078,56.60156Z"/><path class="cls-3" d="M51.69922,57.18945c-.84961,0-1.26953-.18066-1.26953-.62988,0-.3125.30566-.61426.78418-.88965a3.08335,3.08335,0,0,1-.22949-1.24316h.292a3.07742,3.07742,0,0,0,.17675,1.11523,7.58452,7.58452,0,0,1,1.03028-.41992l.10156.2627c-1.0791.34472-1.87012.7705-1.87012,1.15429,0,.28223.27246.3877.98438.3877.30176,0,.66992-.0166.9414-.03906v.26562C52.375,57.17578,52.02441,57.18945,51.69922,57.18945Z"/><path class="cls-3" d="M54.94043,55.87988a3.99629,3.99629,0,0,0,.20019.42969l-.2666.08887a4.496,4.496,0,0,1-.22558-.51856H53.2666v-.23926h1.2959c-.05176-.15722-.10156-.32519-.14355-.499H53.41113v-.23926h.94825c-.03907-.167-.07227-.34082-.10157-.51855H54.543c.02637.17383.05957.34766.09863.51855H55.544v.23926H54.7002c.043.17383.0957.3418.15136.499h.86914v.23926Zm-.09863,1.39453c-.876,0-1.28321-.21289-1.28321-.55468a.92341.92341,0,0,1,.10547-.40332l.25586.04882a.77927.77927,0,0,0-.085.32227c0,.22949.35059.334.99024.334.082,0,.21972-.00293.35742-.00586v.252C55.06445,57.27148,54.93066,57.27441,54.8418,57.27441Z"/><path class="cls-3" d="M57.53223,57.18945c-.84961,0-1.26953-.18066-1.26953-.62988,0-.3125.30566-.61426.78418-.88965a3.08315,3.08315,0,0,1-.2295-1.24316h.292a3.07742,3.07742,0,0,0,.17675,1.11523,7.584,7.584,0,0,1,1.03028-.41992l.10156.2627c-1.0791.34472-1.87012.7705-1.87012,1.15429,0,.28223.27246.3877.98438.3877.30175,0,.66992-.0166.9414-.03906v.26562C58.208,57.17578,57.85742,57.18945,57.53223,57.18945Z"/><path class="cls-3" d="M59.65332,57.35352a4.061,4.061,0,0,0-.66309-.65625l.17383-.16407a4.15834,4.15834,0,0,1,.68555.64649Z"/><path class="cls-3" d="M16.26855,62.57422c-.03222-.1543-.05566-.31543-.07812-.48242h-.72559v-.26563h.99121c.124,1.42383.52442,2.24024,1.41016,2.63379l-.22949.23633a2.52691,2.52691,0,0,1-1.28223-1.74512,2.56186,2.56186,0,0,1-1.3125,1.749c-.05957-.06934-.11816-.13477-.20019-.2295a2.36305,2.36305,0,0,0,1.30566-1.90332Z"/><path class="cls-3" d="M20.77832,62.47559h.14453a5.60946,5.60946,0,0,1-.27539,2.13867.41039.41039,0,0,1-.26562.082c-.11817.00391-.374,0-.52539-.00586l-.04883-.27637c.14746.00977.39062.01367.502.00977a.17211.17211,0,0,0,.12109-.03906,5.0603,5.0603,0,0,0,.19043-1.65039h-.958a2.41143,2.41143,0,0,1-1.24317,1.96191l-.22265-.20606a2.11515,2.11515,0,0,0,1.19043-1.75585H18.27246v-.25879H19.417c.02344-.25879.02637-.52149.03028-.77735l.28125.00293c-.00293.25586-.0127.51563-.03516.77442h1.085Z"/><path class="cls-3" d="M22.4541,62.55762h.2207c.48145,0,.65528.21.65528.70508a2.26948,2.26948,0,0,1-.21,1.07324.42211.42211,0,0,1-.43555.23926,1.23088,1.23088,0,0,1-.46289-.09864l.0332-.22949a1.14889,1.14889,0,0,0,.39356.085.23648.23648,0,0,0,.22949-.11133,1.956,1.956,0,0,0,.18359-.958c0-.33106-.11132-.46875-.42675-.46875-.06836,0-.14747,0-.23243.00293A6.23143,6.23143,0,0,1,21.71,64.57812l-.2334-.13085a5.56277,5.56277,0,0,0,.65039-1.64356c-.20019.00293-.41992.0127-.65039.02246l-.01269-.23535c.26269-.01367.502-.02051.71484-.02637a6.14669,6.14669,0,0,0,.10547-.72851h.27832A6.82387,6.82387,0,0,1,22.4541,62.55762Zm1.208-.22266a2.07451,2.07451,0,0,0-.23633-.542l.16016-.082a2.07274,2.07274,0,0,1,.25586.55176Zm.28809,1.57715a2.30674,2.30674,0,0,0-.44239-1.37109l.21289-.13086a2.52787,2.52787,0,0,1,.50879,1.502Zm.1416-1.68555a1.994,1.994,0,0,0-.23926-.52832l.16016-.085a2.16523,2.16523,0,0,1,.25585.53711Z"/><path class="cls-3" d="M25.44531,64.71h-.25879V63.39062c-.2041.02637-.40722.04981-.55175.0625L24.5791,63.207c.0625-.00293.13184-.00976.21-.01269.09864-.12207.19336-.25.28516-.374a3.07739,3.07739,0,0,0-.45215-.48926l.1377-.18066c.03906.0332.07519.06934.11425.10254a4.2855,4.2855,0,0,0,.32813-.56152l.2334.09863a5.959,5.959,0,0,1-.40332.623,2.66007,2.66007,0,0,1,.18359.21386c.16406-.23633.30469-.46.40039-.63379l.23633.1084a11.56934,11.56934,0,0,1-.76172,1.06934c.17383-.0166.36133-.0293.51856-.0459a2.32276,2.32276,0,0,0-.1836-.28223l.20313-.10449a2.601,2.601,0,0,1,.35156.623c-.0918.0459-.15137.07519-.21387.10547a1.00067,1.00067,0,0,0-.05566-.13868c-.0791.01075-.1709.02051-.26563.03321Zm-.417-1.08984a3.04839,3.04839,0,0,1-.21289.86328l-.22266-.082a2.69855,2.69855,0,0,0,.21-.81739Zm.78418-.06153a3.0043,3.0043,0,0,1,.17383.65235l-.22949.05957a2.99194,2.99194,0,0,0-.167-.65332C25.68457,63.58789,25.74707,63.57422,25.8125,63.55859Zm1.86719-.13183-.17383.21a2.59877,2.59877,0,0,1-.72168-.51172,2.8266,2.8266,0,0,1-.76172.53516l-.17383-.19336a2.45928,2.45928,0,0,0,.77442-.51563,2.6292,2.6292,0,0,1-.31153-.46289,2.21582,2.21582,0,0,1-.26953.3125l-.21972-.14844a2.24719,2.24719,0,0,0,.624-.96093l.24219.0625a2.32987,2.32987,0,0,1-.09473.249h.63672l.18359.05957a2.41758,2.41758,0,0,1-.46289.87891A2.34879,2.34879,0,0,0,27.67969,63.42676Zm-1.42774.52832a5.03224,5.03224,0,0,1,1.17481.541l-.18067.21a4.638,4.638,0,0,0-1.1416-.55761Zm.35157-.54492a2.86466,2.86466,0,0,1,.59668.41992l-.19043.16406a2.49585,2.49585,0,0,0-.56348-.42578Zm.18359-.64551a2.01608,2.01608,0,0,0,.30176-.53223h-.61035l-.0127.02051A2.21949,2.21949,0,0,0,26.78711,62.76465Z"/><path class="cls-3" d="M28.61035,64.64062V63.61426c-.14453.16406-.30176.35742-.47558.58008l-.207-.18653c.25879-.32519.48243-.58691.68262-.79687v-.41406h-.62988v-.24219h.62988V61.7998h.27539v1.14161a1.49231,1.49231,0,0,1,1.02344-.47266.874.874,0,0,1,.86328.96191c0,.623-.456,1.00391-1.36816,1.10547l-.0752-.25c.80957-.08789,1.16113-.377,1.16113-.86523a.62161.62161,0,0,0-.60058-.68262c-.28223,0-.57422.14063-1.00391.57715v1.32519Z"/><path class="cls-3" d="M31.77637,64.5293,31.72949,64.29c.98438,0,1.41406-.23926,1.41406-.709,0-.29492-.21-.53125-.62988-.53125a6.27846,6.27846,0,0,0-1.22656.2461l-.06934-.25293a7.79969,7.79969,0,0,1,1.33887-.24219.76488.76488,0,0,1,.86621.77344C33.42285,64.16211,32.957,64.5293,31.77637,64.5293Z"/><path class="cls-3" d="M34.93652,62.34473h.70606V62.584h-.74512a7.77505,7.77505,0,0,1-.62988,2.02442l-.26856-.11524A6.66826,6.66826,0,0,0,34.6084,62.584h-.584v-.23925h.624c.02636-.1875.0459-.374.05566-.54785H35.002C34.98926,61.97363,34.9668,62.15723,34.93652,62.34473Zm1.19141,2.19433c-.68945,0-1.04688-.16113-1.04688-.44922a.82573.82573,0,0,1,.2754-.52539l.2041.11231c-.15137.16992-.2041.27832-.2041.36719,0,.16406.24316.249.76757.249.15821,0,.3125-.00684.47559-.02246v.249C36.43652,64.53223,36.28809,64.53906,36.12793,64.53906Zm-.80371-1.39453-.0332-.24219a11.823,11.823,0,0,1,1.27636-.05957v.2461A11.02711,11.02711,0,0,0,35.32422,63.14453Z"/><path class="cls-3" d="M38.4668,64.5625c-.84961,0-1.26953-.18066-1.26953-.62988,0-.3125.30566-.61426.78418-.88965a3.08321,3.08321,0,0,1-.2295-1.24317h.292A3.07744,3.07744,0,0,0,38.2207,62.915a7.58271,7.58271,0,0,1,1.03028-.41992l.10156.26269c-1.0791.34473-1.87012.77051-1.87012,1.1543,0,.28223.27246.38769.98438.38769.30175,0,.66992-.0166.9414-.03906v.26563C39.14258,64.54883,38.792,64.5625,38.4668,64.5625Z"/><path class="cls-3" d="M41.708,63.25293a3.99629,3.99629,0,0,0,.20019.42969l-.2666.08886a4.495,4.495,0,0,1-.22558-.51855H40.03418v-.23926h1.2959c-.05176-.15722-.10156-.32519-.14356-.499H40.17871v-.23926H41.127c-.03906-.167-.07226-.34082-.10156-.51855h.28516c.02636.17382.05957.34765.09863.51855h.90234v.23926h-.84375c.043.17383.09571.3418.15137.499h.86914v.23926Zm-.09863,1.39453c-.876,0-1.28321-.21289-1.28321-.55469a.92348.92348,0,0,1,.10547-.40332l.25586.04883a.77924.77924,0,0,0-.085.32227c0,.22949.35058.334.99023.334.082,0,.21973-.00293.35743-.00586v.25195C41.832,64.64453,41.69824,64.64746,41.60938,64.64746Z"/><path class="cls-3" d="M43.19629,64.50977a5.65114,5.65114,0,0,1-.10742-1.1875,8.3908,8.3908,0,0,1,.10449-1.28614h.27539a9.59126,9.59126,0,0,0-.10449,1.2793,5.81487,5.81487,0,0,0,.10449,1.15137ZM44.876,64.418c-.78418,0-1.0791-.15723-1.0791-.46582a.96709.96709,0,0,1,.27246-.59766l.22656.1084a.75485.75485,0,0,0-.22949.45313c0,.16992.22265.25195.80957.25195.1582,0,.32812-.00293.50879-.01953v.25C45.208,64.41406,45.03711,64.418,44.876,64.418Zm-1.00977-1.85742v-.2461h1.499v.2461Z"/><path class="cls-3" d="M47.2627,62.57422c-.03223-.1543-.05567-.31543-.07813-.48242H46.459v-.26563h.99122c.124,1.42383.52441,2.24024,1.41015,2.63379l-.22949.23633a2.52694,2.52694,0,0,1-1.28223-1.74512,2.56186,2.56186,0,0,1-1.3125,1.749c-.05957-.06934-.11816-.13477-.20019-.2295a2.363,2.363,0,0,0,1.30566-1.90332Z"/><path class="cls-3" d="M51.77246,62.47559H51.917a5.60946,5.60946,0,0,1-.27539,2.13867.41039.41039,0,0,1-.26562.082c-.11817.00391-.374,0-.52539-.00586l-.04883-.27637c.14746.00977.39062.01367.502.00977a.1721.1721,0,0,0,.12109-.03906,5.0603,5.0603,0,0,0,.19043-1.65039h-.958a2.41143,2.41143,0,0,1-1.24317,1.96191l-.22265-.20606a2.11515,2.11515,0,0,0,1.19043-1.75585H49.2666v-.25879h1.14453c.02344-.25879.02637-.52149.03028-.77735l.28125.00293c-.00293.25586-.0127.51563-.03516.77442h1.085Z"/><path class="cls-3" d="M53.64844,64.60449c-.57032,0-.90821-.26269-.90821-.93457V61.8623h.292v1.78809c0,.51465.21679.67871.63281.67871a1.06832,1.06832,0,0,0,.96777-.748l.22949.15723A1.324,1.324,0,0,1,53.64844,64.60449Z"/><path class="cls-3" d="M57.41016,62.42676a.65023.65023,0,0,0-.28907.12109,1.39826,1.39826,0,0,0-.70507,1.083c0,.43262.38378.66894,1.15527.67578l-.0459.26172c-.92871-.0127-1.38769-.374-1.38769-.92481a1.55774,1.55774,0,0,1,.72753-1.21386l-1.57128.06543-.0127-.25879,2.60449-.10547.00977.25976A4.85482,4.85482,0,0,0,57.41016,62.42676Z"/><path class="cls-3" d="M58.94238,64.58789v-.94434c-.15429.17383-.31445.36426-.48242.57032L58.25977,64.04c.24316-.29785.46972-.56055.68261-.79v-.44629H58.3418v-.24316h.60058v-.75391h.27539v1.1582a1.98677,1.98677,0,0,1,1.17188-.72558c.37988,0,.54394.331.54394,1.18164a2.78406,2.78406,0,0,1-.03613.501,1.92656,1.92656,0,0,1,.3877.32519l-.16114.19043A1.67931,1.67931,0,0,0,60.835,64.165a.59946.59946,0,0,1-.63574.40332c-.36817,0-.60352-.17969-.60352-.42285s.22559-.42969.62012-.42969a1.209,1.209,0,0,1,.42969.07813c.00976-.1045.01269-.22559.01269-.36719,0-.66211-.0791-.90821-.30859-.90821-.23242,0-.626.29493-1.13184.82325v1.24609Zm1.25977-.65918c-.23926,0-.374.09863-.374.21387,0,.13086.15137.21.35743.21a.3816.3816,0,0,0,.41992-.3252A.96781.96781,0,0,0,60.20215,63.92871Z"/><path class="cls-3" d="M13.94238,60.57422a3.88856,3.88856,0,0,1-.07422-.81738,5.79084,5.79084,0,0,1,.07227-.88575h.18945a6.65554,6.65554,0,0,0-.07226.88086,4.00347,4.00347,0,0,0,.07226.793Zm1.15625-.06348c-.53906,0-.74218-.1084-.74218-.32031a.66428.66428,0,0,1,.18652-.41113l.15625.07422a.51748.51748,0,0,0-.1582.31152c0,.11816.15332.17383.55761.17383.1084,0,.22657-.002.35059-.0127v.1709C15.32715,60.50879,15.21,60.51074,15.09863,60.51074Zm-.69531-1.27832v-.16894h1.03223v.16894Z"/><path class="cls-3" d="M16.22266,60.68262l-.11524-.10352a.809.809,0,0,0,.20117-.19043.76105.76105,0,0,1-.30566-.18457l.07227-.1289a.63313.63313,0,0,0,.30273.17382,1.60443,1.60443,0,0,0,.043-.47656c0-.084,0-.1875-.002-.29394a.74192.74192,0,0,0-.57813.51269.2967.2967,0,0,0-.02051.1084.99894.99894,0,0,0,.02539.21973l-.15625.0332a2.39576,2.39576,0,0,1-.05371-.51465,5.62175,5.62175,0,0,1,.0293-.57617h.16211a3.877,3.877,0,0,0-.0293.45215v.0498a.80281.80281,0,0,1,.61621-.43847c-.0039-.09278-.00879-.17872-.01562-.251h.16992c.00684.06836.01074.1543.01562.24219a.52429.52429,0,0,1,.53028.55957.54576.54576,0,0,1-.57617.54492.35459.35459,0,0,1-.05567-.00293A.80141.80141,0,0,1,16.22266,60.68262Zm.32226-.418a.37945.37945,0,0,0,.40235-.39258.36949.36949,0,0,0-.35938-.40039c.00293.10644.00293.21.00293.29883A1.78264,1.78264,0,0,1,16.54492,60.26465Z"/><path class="cls-3" d="M17.49023,60.669l-.04492-.17383c.67481-.05664.98242-.27051.98242-.61231a.35676.35676,0,0,0-.39257-.3789,6.15417,6.15417,0,0,0-.84766.09277l-.03613-.18359a6.50684,6.50684,0,0,1,.89453-.09278.5296.5296,0,0,1,.585.5625C18.63086,60.33008,18.21582,60.61719,17.49023,60.669Zm.84082-1.58985a4.0363,4.0363,0,0,0-.85156-.21484l.043-.17383a4.39614,4.39614,0,0,1,.86719.2168Z"/><path class="cls-3" d="M19.084,59.9668h-.18652a2.28132,2.28132,0,0,1-.05664-.51465,3.70332,3.70332,0,0,1,.06055-.61719h.18945a3.5135,3.5135,0,0,0-.06055.61035,1.61779,1.61779,0,0,0,.02442.293c.0791-.09668.1875-.22363.28906-.3457l.09277.1582C19.31934,59.68457,19.19531,59.83105,19.084,59.9668Zm.30079.709-.11524-.15332a1.00014,1.00014,0,0,0,.67481-1.10254c0-.13281-.00879-.38574-.0293-.62793h.19726c.02247.23731.03125.47656.03125.626A1.17914,1.17914,0,0,1,19.38477,60.67578Z"/><path class="cls-3" d="M21.40039,60.57617a1.40386,1.40386,0,0,0-.46973-.27929c-.00488.27246-.08984.37011-.3457.37011-.25,0-.41308-.1289-.41308-.28711,0-.165.167-.28222.44531-.28222a.94052.94052,0,0,1,.13965.00879c-.00684-.23047-.02051-.57325-.02051-1.01172h.17383c0,.13574.00293.26465.00293.38183H21.502v.15625h-.585c.00489.20508.00879.377.01172.50781a1.54877,1.54877,0,0,1,.56641.30958Zm-.79492-.332c-.18262,0-.27735.05274-.27735.1377,0,.082.10157.13769.24317.13769.15625,0,.1875-.05371.1875-.26367A1.13223,1.13223,0,0,0,20.60547,60.24414Z"/><path class="cls-3" d="M22.76465,60.68066a6.05909,6.05909,0,0,0-1.04785-.87207c-.07227-.0498-.09961-.09277-.09961-.13964,0-.043.02051-.08594.09765-.14258a7.53926,7.53926,0,0,0,.97754-.84961l.15625.13769a9.08106,9.08106,0,0,1-.92383.78907c-.041.02929-.05664.04492-.05664.0625,0,.0205.01368.02929.04981.05468a6.34093,6.34093,0,0,1,.99609.81543Z"/><path class="cls-3" d="M44.87793,60.57422a3.88856,3.88856,0,0,1-.07422-.81738,5.79084,5.79084,0,0,1,.07227-.88575h.18945a6.654,6.654,0,0,0-.07227.88086,4.0027,4.0027,0,0,0,.07227.793Zm1.15625-.06348c-.53906,0-.74219-.1084-.74219-.32031a.6643.6643,0,0,1,.18653-.41113l.15625.07422a.51745.51745,0,0,0-.15821.31152c0,.11816.15332.17383.55762.17383.1084,0,.22656-.002.35059-.0127v.1709C46.2627,60.50879,46.14551,60.51074,46.03418,60.51074Zm-.69531-1.27832v-.16894h1.03222v.16894Z"/><path class="cls-3" d="M47.1582,60.68262,47.043,60.5791a.8093.8093,0,0,0,.20117-.19043.761.761,0,0,1-.30566-.18457l.07226-.1289a.63316.63316,0,0,0,.30274.17382,1.60443,1.60443,0,0,0,.043-.47656c0-.084,0-.1875-.002-.29394a.7419.7419,0,0,0-.57812.51269.2967.2967,0,0,0-.02051.1084.99894.99894,0,0,0,.02539.21973l-.15625.0332a2.39576,2.39576,0,0,1-.05371-.51465,5.62175,5.62175,0,0,1,.0293-.57617h.16211a3.877,3.877,0,0,0-.0293.45215v.0498a.80279.80279,0,0,1,.61621-.43847c-.00391-.09278-.00879-.17872-.01563-.251h.16993c.00683.06836.01074.1543.01562.24219a.52428.52428,0,0,1,.53027.55957.54575.54575,0,0,1-.57617.54492A.35446.35446,0,0,1,47.418,60.418.80145.80145,0,0,1,47.1582,60.68262Zm.32227-.418a.37944.37944,0,0,0,.40234-.39258.36948.36948,0,0,0-.35937-.40039c.00293.10644.00293.21.00293.29883A1.78264,1.78264,0,0,1,47.48047,60.26465Z"/><path class="cls-3" d="M48.42578,60.669l-.04492-.17383c.6748-.05664.98242-.27051.98242-.61231a.35677.35677,0,0,0-.39258-.3789,6.15405,6.15405,0,0,0-.84765.09277l-.03614-.18359a6.50712,6.50712,0,0,1,.89454-.09278.5296.5296,0,0,1,.585.5625C49.56641,60.33008,49.15137,60.61719,48.42578,60.669Zm.84082-1.58985a4.03661,4.03661,0,0,0-.85156-.21484l.043-.17383a4.39614,4.39614,0,0,1,.86719.2168Z"/><path class="cls-3" d="M50.01953,59.9668H49.833a2.28132,2.28132,0,0,1-.05664-.51465,3.70426,3.70426,0,0,1,.06054-.61719h.18946a3.5135,3.5135,0,0,0-.06055.61035,1.61869,1.61869,0,0,0,.02441.293c.07911-.09668.1875-.22363.28907-.3457l.09277.1582C50.25488,59.68457,50.13086,59.83105,50.01953,59.9668Zm.30078.709-.11523-.15332a1.00013,1.00013,0,0,0,.6748-1.10254c0-.13281-.00879-.38574-.02929-.62793h.19726c.02246.23731.03125.47656.03125.626A1.17913,1.17913,0,0,1,50.32031,60.67578Z"/><path class="cls-3" d="M52.33594,60.57617a1.40405,1.40405,0,0,0-.46973-.27929c-.00488.27246-.08984.37011-.3457.37011-.25,0-.41309-.1289-.41309-.28711,0-.165.167-.28222.44531-.28222a.94035.94035,0,0,1,.13965.00879c-.00683-.23047-.0205-.57325-.0205-1.01172h.17382c0,.13574.00293.26465.00293.38183h.58887v.15625h-.585c.00488.20508.00879.377.01172.50781a1.54865,1.54865,0,0,1,.5664.30958Zm-.79492-.332c-.18262,0-.27735.05274-.27735.1377,0,.082.10156.13769.24317.13769.15625,0,.1875-.05371.1875-.26367A1.13235,1.13235,0,0,0,51.541,60.24414Z"/><path class="cls-3" d="M53.7002,60.68066a6.05921,6.05921,0,0,0-1.04786-.87207c-.07226-.0498-.09961-.09277-.09961-.13964,0-.043.02051-.08594.09766-.14258a7.53926,7.53926,0,0,0,.97754-.84961l.15625.13769a9.08214,9.08214,0,0,1-.92383.78907c-.041.02929-.05664.04492-.05664.0625,0,.0205.01367.02929.04981.05468a6.34093,6.34093,0,0,1,.99609.81543Z"/><path class="cls-3" d="M26.293,60.6123a1.44146,1.44146,0,0,1-.2041-.01757v-.16309a1.28514,1.28514,0,0,0,.2041.01563c.291,0,.42676-.14161.42676-.34766,0-.20117-.1543-.3291-.44727-.3291a1.253,1.253,0,0,0-.38867.06543v.47656c0,.22754-.08789.33594-.27344.33594a.47613.47613,0,0,1-.4541-.38379c0-.18457.22852-.39942.54-.53027v-.42676H25.2041v-.167h.49219v-.43847h.1875v.43847h.46973v.167h-.46973v.3584a1.52487,1.52487,0,0,1,.416-.06055c.37891,0,.60743.18555.60743.49023C26.90723,60.4043,26.69922,60.6123,26.293,60.6123Zm-.95606-.35253c0,.11132.16309.21972.25782.21972.0791,0,.10156-.04785.10156-.16308v-.4043C25.48633,60.0166,25.33691,60.1543,25.33691,60.25977Zm1.58985-.86719a1.70644,1.70644,0,0,0-.47364-.36328l.09278-.13086a1.792,1.792,0,0,1,.49414.36133Z"/></g></g></svg>