<svg xmlns="http://www.w3.org/2000/svg" viewBox="0 0 75 75"><defs><style>.cls-1{fill:none;}.cls-2{fill:#c7d932;}.cls-3{fill:#fff;}</style></defs><title>アセット 4902</title><g id="レイヤー_2" data-name="レイヤー 2"><g id="レイヤー_2-2" data-name="レイヤー 2"><g id="CIRCLE"><circle class="cls-1" cx="37.5" cy="37.5" r="37.5"/><path class="cls-2" d="M5.0001,37.50012a32.5,32.5,0,1,1,32.5,32.5,32.5,32.5,0,0,1-32.5-32.5Z"/></g><path class="cls-3" d="M27.85482,17.58991l-.55-.30849a3.83433,3.83433,0,0,0,.621-1.3988l.57856.1471A4.7098,4.7098,0,0,1,27.85482,17.58991Zm1.394.256a1.92275,1.92275,0,0,1-.89611-.21814l.11852-.5216a1.40111,1.40111,0,0,0,.69226.18957c.30829,0,.46466-.1139.46466-.332,0-.21775-.09942-.37914-.46929-.73472a.81283.81283,0,0,1-.32258-.6023,1.3798,1.3798,0,0,1,.29883-.80615l.54535.2135a.81768.81768,0,0,0-.223.53589c0,.13282.09961.23706.26563.39806a1.34514,1.34514,0,0,1,.54052,1.02893C30.26363,17.51385,29.89839,17.84588,29.2488,17.84588Zm.90093-3.03967a5.91222,5.91222,0,0,0-1.66423-.48338l.15173-.56446a6.65789,6.65789,0,0,1,1.7401.49342Zm.89148,2.75049A5.21323,5.21323,0,0,0,30.42,16.05829l.52161-.23242a6.57624,6.57624,0,0,1,.6828,1.50767Z"/><path class="cls-3" d="M34.25424,17.88835a5.22252,5.22252,0,0,1-.58319-.0332v-.55944c.166.01892.40308.02857.5689.02857,1.01484,0,1.48413-.26563,1.48413-.683,0-.28918-.23706-.5023-.69226-.5023a2.01267,2.01267,0,0,0-1.38934.673l-.59728-.15173a9.26114,9.26114,0,0,1,.39343-1.96751l.59283.09459a5.31442,5.31442,0,0,0-.28454,1.21888,2.419,2.419,0,0,1,1.36559-.43164c.80133,0,1.27081.46948,1.27081,1.04321C36.38332,17.43817,35.615,17.88835,34.25424,17.88835Zm1.32756-3.14353a7.71762,7.71762,0,0,0-1.99144-.422l.13281-.55944a7.83042,7.83042,0,0,1,2.02948.40771Z"/><path class="cls-3" d="M38.8707,17.60883l-.11873-.59767c1.71636-.00927,2.37541-.4884,2.37541-1.18992,0-.50269-.32238-.87256-1.03819-.87256a9.82061,9.82061,0,0,0-2.0816.41234l-.16119-.62083a12.91053,12.91053,0,0,1,2.3424-.40308A1.43475,1.43475,0,0,1,41.81037,15.807C41.81037,16.81194,41.02314,17.60883,38.8707,17.60883Z"/><path class="cls-3" d="M45.83882,15.93475a5.34081,5.34081,0,0,0,.23705.49342l-.61619.18957a7.41719,7.41719,0,0,1-.2942-.683h-1.925v-.54516h1.7401c-.05212-.17528-.09961-.35559-.14671-.54052H43.44932v-.54516h1.261c-.04247-.20385-.08031-.41736-.11853-.64013h.65442q.0498.32721.1139.64013h1.2517v.54516H45.48323c.04749.18493.09961.36524.15173.54052h1.2378v.54516Zm-.23706,1.95862c-1.44629,0-1.96751-.351-1.96751-.85827a1.40035,1.40035,0,0,1,.15174-.6023l.58762.095a.99906.99906,0,0,0-.10888.43126c0,.256.3888.35559,1.29456.35559.11853,0,.327,0,.54516-.00927v.57836C45.93379,17.88835,45.72531,17.89337,45.60176,17.89337Z"/><path class="cls-3" d="M38.63087,30.70419l2.06984,2.409a.62389.62389,0,0,0,1.07635-.247l2.55911-9.6706a.624.624,0,0,0-.67016-.77991l-9.94566,1.07361a.62392.62392,0,0,0-.40627,1.02691l2.06977,2.40894h0c-2.11232,1.81474-4.741,4.07317-4.741,8.54484,0,4.47206,2.62871,6.73079,4.741,8.5458,1.9753,1.69706,3.0059,2.6798,3.0059,4.7667,0,1.91472-.8677,2.89994-2.53642,4.36024A.62566.62566,0,0,0,35.789,54.02l2.43442,2.83321a.62348.62348,0,0,0,.88257.06487c2.011-1.75054,4.266-3.99383,4.266-8.13564,0-4.47206-2.62878-6.73078-4.7411-8.5458-1.97523-1.69707-3.00583-2.67981-3.00583-4.7667C35.625,33.38359,36.65564,32.401,38.63087,30.70419Z"/><path class="cls-3" d="M39.23268,65.44315a.64212.64212,0,1,1,.642.6545.649.649,0,0,1-.642-.6545m-.53293,0a1.175,1.175,0,1,0,1.17493-1.17025,1.16009,1.16009,0,0,0-1.17493,1.17025"/><path class="cls-3" d="M36.21946,66.09762a.65462.65462,0,1,1,.642-.65446.64906.64906,0,0,1-.642.65446m0-1.82472a1.17025,1.17025,0,1,0,1.17493,1.17026,1.16013,1.16013,0,0,0-1.17493-1.17026"/><path class="cls-3" d="M34.21425,64.915h.6077v-.54326h-.6077v-.73209h-.55436v1.83176a1.41153,1.41153,0,0,0,.10761.55306,1.14743,1.14743,0,0,0,.6913.6136l.27456-.46489a.92177.92177,0,0,1-.45645-.39336.83267.83267,0,0,1-.06144-.3216c0-.05663-.00122-.17787-.00122-.17787Z"/><path class="cls-3" d="M37.6864,63.64269a.36072.36072,0,0,0,.72134,0,.36072.36072,0,1,0-.72134,0"/><rect class="cls-3" x="37.77544" y="64.3717" width="0.54326" height="2.1858"/><polygon class="cls-3" points="40.987 66.407 40.91 66.407 40.91 66.381 41.092 66.381 41.092 66.407 41.016 66.407 41.016 66.613 40.987 66.613 40.987 66.407"/><polygon class="cls-3" points="41.216 66.613 41.153 66.424 41.153 66.613 41.122 66.613 41.122 66.381 41.164 66.381 41.231 66.579 41.298 66.381 41.34 66.381 41.34 66.613 41.31 66.613 41.31 66.424 41.246 66.613 41.216 66.613"/></g></g></svg>