<svg xmlns="http://www.w3.org/2000/svg" viewBox="0 0 172.60645 71.58008"><defs><style>.cls-1{fill:none;}.cls-2{fill:#ea6350;}.cls-3{fill:#fff;}</style></defs><title>アセット 5702</title><g id="レイヤー_2" data-name="レイヤー 2"><g id="レイヤー_2-2" data-name="レイヤー 2"><path class="cls-1" d="M138.42773,71.58008a47.77713,47.77713,0,0,1-4.87207-.25586C117.49707,69.67383,106.6748,65.1875,96.209,60.84863L93.65137,59.791c-14.832-6.10157-16.53125-6.22071-27.36035-6.22266v7.24707H16.23633v-9.206C6.02246,50.25879,0,44.459,0,35.78906,0,27.61914,5.58105,21.7793,14.93066,20.166c.419-.07227.85743-.1377,1.30567-.19532v-9.21H66.291v7.24805c10.82714-.002,12.52636-.12109,27.36035-6.22266L96.251,10.71191c10.45605-4.332,21.26757-8.81152,37.30566-10.456A47.76836,47.76836,0,0,1,138.42676,0c10.59082,0,19.459,3.78516,25.64551,10.94531,5.5039,6.36914,8.53418,15.19141,8.53418,24.84278,0,9.65332-3.03028,18.47753-8.53125,24.84668-6.18555,7.16015-15.05372,10.94531-25.64454,10.94531Z"/><path class="cls-2" d="M95.55378,55.16662c11.29557,4.648,21.92018,9.47818,38.51248,11.18444,22.289,2.28851,33.5401-12.88637,33.5401-30.56288,0-17.67211-11.25111-32.84693-33.5401-30.55848-16.5923,1.70187-27.21691,6.53654-38.51248,11.18-15.6636,6.44319-17.86763,6.5987-29.91861,6.5987H63.24185a1.94956,1.94956,0,0,1-1.95073-1.95073V15.761H21.23674v6.461a2.52812,2.52812,0,0,1-2.38126,2.51437c-.10721.00694-.21025.017-.31605.025q-.16664.01228-.33115.0262c-.35182.03048-.699.06449-1.03742.10512v0c-.47688.05718-.94264.12259-1.39085.20076C8.59476,26.33316,4.99989,30.20806,4.99989,35.78922c0,6.3258,4.62293,10.46052,13.861,11.05426A2.52776,2.52776,0,0,1,21.23674,49.357v6.45837H61.29112V50.51865a1.94946,1.94946,0,0,1,1.95073-1.95073h2.39332C77.68615,48.56792,79.89018,48.72343,95.55378,55.16662Z"/><ellipse class="cls-3" cx="28.7659" cy="31.22093" rx="2.67956" ry="3.57936"/><ellipse class="cls-2" cx="28.7659" cy="31.22093" rx="1.39996" ry="1.87007"/><ellipse class="cls-3" cx="28.7659" cy="40.35803" rx="2.67956" ry="3.57936"/><ellipse class="cls-2" cx="28.7659" cy="40.35803" rx="1.39996" ry="1.87007"/><path class="cls-3" d="M162.48457,33.84307a.72171.72171,0,1,1,.73561-.72157.7295.7295,0,0,1-.73561.72157m0,.599a1.32059,1.32059,0,1,0-1.31531-1.32056,1.3039,1.3039,0,0,0,1.31531,1.32056"/><path class="cls-3" d="M163.22015,37.22977a.73575.73575,0,1,1-.73557-.72162.7295.7295,0,0,1,.73557.72162m-2.05088,0a1.3153,1.3153,0,1,0,1.31531-1.32056,1.30393,1.30393,0,0,0-1.31531,1.32056"/><path class="cls-3" d="M161.89093,39.48352v-.683h-.6106v.683h-.82283v.62307h2.05881a1.58655,1.58655,0,0,0,.62161-.12094,1.28971,1.28971,0,0,0,.68965-.777l-.52251-.30859a1.036,1.036,0,0,1-.44212.513.93577.93577,0,0,1-.36146.06906c-.06365,0-.19992.00137-.19992.00137Z"/><path class="cls-3" d="M160.46094,35.581a.40544.40544,0,0,0,0-.81076.40544.40544,0,1,0,0,.81076"/><rect class="cls-3" x="161.28031" y="34.87034" width="2.45673" height="0.61059"/><polygon class="cls-3" points="163.568 31.872 163.568 31.958 163.538 31.958 163.538 31.753 163.568 31.753 163.568 31.838 163.8 31.838 163.8 31.872 163.568 31.872"/><polygon class="cls-3" points="163.8 31.614 163.587 31.685 163.8 31.685 163.8 31.72 163.538 31.72 163.538 31.672 163.761 31.597 163.538 31.522 163.538 31.474 163.8 31.474 163.8 31.508 163.587 31.508 163.8 31.58 163.8 31.614"/></g></g></svg>