<svg xmlns="http://www.w3.org/2000/svg" viewBox="0 0 179.26074 65.16699"><defs><style>.cls-1{fill:none;}.cls-2{fill:#f19336;}.cls-3{fill:#fff;}</style></defs><title>アセット 5602</title><g id="レイヤー_2" data-name="レイヤー 2"><g id="レイヤー_2-2" data-name="レイヤー 2"><path class="cls-1" d="M146.67578,65.167c-14.09473,0-26.16016-4.39551-34.96973-7.60547-2.86523-1.04394-5.33886-1.94531-7.51074-2.5791C86.36914,49.79,80.38672,48.47266,66.99805,48.47266H59.87012V57.6084H9.81543v-12.708l-.69531-.30469-.06153-.03515C3.29883,41.82324,0,37.4668,0,32.582c0-4.3457,2.70215-8.396,7.41211-11.1123.49805-.28907,1.05469-.58057,1.64551-.86133l.07519-.043s.52246-.23291.68262-.30322V7.5542H59.87012v9.14014h7.12793c13.38867,0,19.37109-1.31739,37.19824-6.50977,2.16894-.63281,4.64258-1.53418,7.50683-2.57764C120.51367,4.39648,132.5791,0,146.67578,0a32.5835,32.5835,0,1,1,0,65.167Z"/><path class="cls-2" d="M55.44346,44.04118a1.94439,1.94439,0,0,1,1.3775-.56879H66.99763c13.94839,0,20.38268,1.40418,38.5969,6.70984,9.43371,2.75055,23.53764,9.9847,41.08087,9.9847a27.58351,27.58351,0,1,0,0-55.167c-17.54323,0-31.64716,7.2341-41.08087,9.9847-18.21422,5.30566-24.64851,6.70979-38.5969,6.70979H56.821a1.94956,1.94956,0,0,1-1.95074-1.95068V12.554H14.81584v9.39177a2.517,2.517,0,0,1-1.661,2.366c-.03936.01421-.07543.02983-.11448.04421-.26682.098-.52833.19825-.78189.302l-.03623.01443c-.28884.11873-.56757.2417-.83914.36755l-.0221.00965v.00076c-.51371.23883-.99926.48889-1.45084.75094C6.6352,27.68977,5,30.13818,5,32.58215c0,2.78537,2.12466,5.56923,6.361,7.535v.0012l.02327.01019c.14708.068.30186.13284.454.19891.176.0767.35247.15313.53527.227.1336.05381.27143.10567.40869.15785.12492.04768.2445.09764.37257.14391a2.517,2.517,0,0,1,1.661,2.366V52.6084H54.87022V45.42312A1.9481,1.9481,0,0,1,55.44346,44.04118Z"/><path class="cls-3" d="M21.77333,21.83282c-1.49174.74525-2.10788,2.38339-2.10788,4.28441s.61614,3.53915,2.10788,4.2844c.84464.422,2.4857.34409,2.4857-4.2844S22.618,21.41085,21.77333,21.83282Z"/><path class="cls-2" d="M22.10482,24.17442a2.00726,2.00726,0,0,0-.94248,1.94281,2.00725,2.00725,0,0,0,.94248,1.9428c.383.19135,1.14052.156,1.14052-1.9428S22.48783,23.98307,22.10482,24.17442Z"/><path class="cls-3" d="M21.77333,34.76631c-1.49174.74525-2.10788,2.38339-2.10788,4.28441s.61614,3.53915,2.10788,4.2844c.84464.422,2.4857.34409,2.4857-4.2844S22.618,34.34434,21.77333,34.76631Z"/><path class="cls-2" d="M22.10482,37.10791a2.00726,2.00726,0,0,0-.94248,1.94281,2.00725,2.00725,0,0,0,.94248,1.9428c.383.19135,1.14052.156,1.14052-1.9428S22.48783,36.91656,22.10482,37.10791Z"/><path class="cls-3" d="M169.13934,30.63611a.72171.72171,0,1,1,.73561-.72157.7295.7295,0,0,1-.73561.72157m0,.599a1.32059,1.32059,0,1,0-1.31531-1.32056,1.30389,1.30389,0,0,0,1.31531,1.32056"/><path class="cls-3" d="M169.87492,34.02281a.73575.73575,0,1,1-.73557-.72162.7295.7295,0,0,1,.73557.72162m-2.05088,0a1.3153,1.3153,0,1,0,1.31531-1.32056,1.30393,1.30393,0,0,0-1.31531,1.32056"/><path class="cls-3" d="M168.5457,36.27656v-.683h-.6106v.683h-.82283v.62307h2.05881a1.58655,1.58655,0,0,0,.62161-.12094,1.28971,1.28971,0,0,0,.68965-.777l-.52251-.30859a1.036,1.036,0,0,1-.44212.513.93577.93577,0,0,1-.36146.06906c-.06364,0-.19992.00137-.19992.00137Z"/><path class="cls-3" d="M167.11571,32.374a.40544.40544,0,0,0,0-.81076.40544.40544,0,1,0,0,.81076"/><rect class="cls-3" x="167.93508" y="31.66338" width="2.45673" height="0.61059"/><polygon class="cls-3" points="170.223 28.665 170.223 28.751 170.193 28.751 170.193 28.546 170.223 28.546 170.223 28.631 170.455 28.631 170.455 28.665 170.223 28.665"/><polygon class="cls-3" points="170.455 28.407 170.242 28.478 170.455 28.478 170.455 28.513 170.193 28.513 170.193 28.465 170.415 28.39 170.193 28.315 170.193 28.267 170.455 28.267 170.455 28.302 170.242 28.302 170.455 28.373 170.455 28.407"/></g></g></svg>