<svg xmlns="http://www.w3.org/2000/svg" viewBox="0 0 192.336 60.132"><defs><style>.cls-2{fill:#f9be00}.cls-3{fill:#fff}</style></defs><g id="レイヤー_2" data-name="レイヤー 2"><g id="レイヤー_2-2" data-name="レイヤー 2"><path d="M156.769 60.132c-12.421 0-21.74-2.991-37.18-7.948-2.105-.676-4.33-1.39-6.7-2.141-17.422-5.515-23.985-5.979-39.753-5.979H59.869v11.03H9.814V42.476l-6.29-5.06a9.432 9.432 0 01-.003-14.702l6.294-5.06V5.04h50.054v11.024h13.267c15.778 0 22.343-.463 39.755-5.974 2.368-.75 4.593-1.464 6.699-2.14C135.03 2.991 144.348 0 156.769 0c9.13 0 19.646 4.782 26.17 11.9 6.412 7.004 9.397 12.776 9.397 18.166 0 5.388-2.985 11.158-9.395 18.16-6.523 7.122-17.04 11.906-26.172 11.906z" fill="none"/><path class="cls-2" d="M55.442 39.633a1.944 1.944 0 011.378-.569h16.316c16.446 0 23.546.605 41.263 6.213 19.334 6.123 29.1 9.855 42.37 9.855 7.367 0 16.627-3.888 22.484-10.282 7.119-7.776 8.083-12.233 8.083-14.784s-.964-7.012-8.083-14.788C173.396 8.888 164.136 5 156.768 5c-13.268 0-23.035 3.733-42.37 9.856-17.716 5.608-24.816 6.207-41.262 6.207H56.82a1.95 1.95 0 01-1.95-1.95v-9.074H14.814v8.805a2.519 2.519 0 01-.94 1.963l-1.216.977-1.688 1.357-2.11 1.696-2.205 1.773a4.431 4.431 0 000 6.91l4.315 3.468v.003l2.903 2.333a2.52 2.52 0 01.94 1.964v8.805H54.87v-9.078a1.948 1.948 0 01.573-1.382z"/><path class="cls-3" d="M23.205 26.07l2.038-7.272a1.155 1.155 0 00-1.414-1.43 5.386 5.386 0 00-3.968 4.135 4.704 4.704 0 001.533 5.179 1.153 1.153 0 001.81-.612z"/><path class="cls-2" d="M22.57 24.147l.908-3.242a.515.515 0 00-.63-.638 2.402 2.402 0 00-1.77 1.844 2.097 2.097 0 00.684 2.31.514.514 0 00.807-.274z"/><path class="cls-3" d="M23.205 34.062l2.038 7.271a1.155 1.155 0 01-1.414 1.43 5.386 5.386 0 01-3.968-4.134 4.704 4.704 0 011.533-5.179 1.153 1.153 0 011.81.612z"/><path class="cls-2" d="M22.57 35.984l.908 3.243a.515.515 0 01-.63.638 2.402 2.402 0 01-1.77-1.844 2.097 2.097 0 01.684-2.31.514.514 0 01.807.273z"/><path class="cls-3" d="M180.954 28.119a.722.722 0 11.736-.722.73.73 0 01-.736.722m0 .599a1.32 1.32 0 10-1.315-1.32 1.304 1.304 0 001.315 1.32m.736 2.788a.736.736 0 11-.736-.722.73.73 0 01.736.722m-2.05 0a1.315 1.315 0 101.314-1.321 1.304 1.304 0 00-1.315 1.32m.721 2.255v-.684h-.61v.683h-.823v.623h2.06a1.587 1.587 0 00.62-.12 1.29 1.29 0 00.69-.778l-.522-.308a1.036 1.036 0 01-.442.513.936.936 0 01-.362.069l-.2.001zm-1.43-3.903a.405.405 0 000-.811.405.405 0 100 .81m.82-.71h2.457v.611h-2.457zm2.288-2.999v.087h-.03v-.205h.03v.085h.232v.033h-.232zm.232-.257l-.213.071h.213v.034h-.262v-.047l.223-.075-.223-.076v-.047h.262v.034h-.213l.213.072v.034z"/></g></g></svg>