<svg xmlns="http://www.w3.org/2000/svg" viewBox="0 0 75 75"><defs><style>.cls-1{fill:none;}.cls-2{fill:#c7d932;}.cls-3{fill:#fff;}</style></defs><title>アセット 4802</title><g id="レイヤー_2" data-name="レイヤー 2"><g id="レイヤー_2-2" data-name="レイヤー 2"><g id="CIRCLE"><circle class="cls-1" cx="37.5" cy="37.5" r="37.5"/><path class="cls-2" d="M5.0001,37.50008a32.5,32.5,0,1,1,32.5,32.5,32.5,32.5,0,0,1-32.5-32.5Z"/></g><path class="cls-3" d="M23.50312,16.16693A4.70249,4.70249,0,0,0,25.07257,17.253l-.3888.56407A5.41851,5.41851,0,0,1,23.1,16.64105a4.99644,4.99644,0,0,1-1.759,1.18065l-.34632-.5216a4.186,4.186,0,0,0,2.513-2.52733H21.4499v-.56408h2.92578A4.86244,4.86244,0,0,1,23.50312,16.16693Z"/><path class="cls-3" d="M28.21417,17.76032c-.27027,0-.61659-.005-.79187-.01429-.81542-.05212-1.16174-.41273-1.16174-1.14745V13.95735h.6687v1.45092A8.63267,8.63267,0,0,0,29.08673,14.74l.26562.57373a11.75509,11.75509,0,0,1-2.42309.66831v.53589c0,.43165.0807.54516.54053.59728.11853.01429.43126.02857.61619.03321.17567,0,.36524,0,.57373-.00927.25636-.00463.51234-.02394.7494-.04286v.62585C29.025,17.7553,28.62651,17.76032,28.21417,17.76032Zm1.00035-3.12a.57141.57141,0,1,1,.57373-.57373A.56992.56992,0,0,1,29.21452,14.64034Zm.005-.85364a.282.282,0,1,0,.27953.28454A.28212.28212,0,0,0,29.21954,13.7867Z"/><path class="cls-3" d="M30.63494,16.2287V15.56h3.76513v.6687Z"/><path class="cls-3" d="M36.21392,17.836V13.777h.65441v1.37062a11.61617,11.61617,0,0,1,2.15708,1.01464l-.36022.57836a8.85852,8.85852,0,0,0-1.79686-.9104V17.836Zm1.99144-3.03a2.97493,2.97493,0,0,0-.35559-.80113l.36022-.18031a3.14379,3.14379,0,0,1,.39844.81079Zm.678-.2749a2.69343,2.69343,0,0,0-.36987-.76329l.36022-.19459a3.19627,3.19627,0,0,1,.40307.79187Z"/><path class="cls-3" d="M41.03384,15.726a5.8857,5.8857,0,0,1-.64477.678l-.45519-.41736a5.77226,5.77226,0,0,0,1.49377-2.14781h.66369c-.04749.14246-.10425.28918-.166.43164h1.70226a4.06873,4.06873,0,0,1-2.58911,3.59873l-.31736-.4884a3.21227,3.21227,0,0,0,1.3988-.94823A5.96133,5.96133,0,0,0,41.03384,15.726Zm1.432.21814a3.46835,3.46835,0,0,0,.41736-1.12391H41.65042c-.08532.15174-.1803.30347-.27991.45057A7.84056,7.84056,0,0,1,42.46584,15.94416Zm.82507-1.71655a2.51849,2.51849,0,0,0-.31775-.62585l.3413-.17065a2.32751,2.32751,0,0,1,.351.6355Zm.69226.01892a2.21981,2.21981,0,0,0-.3081-.65442l.33667-.17992a2.38632,2.38632,0,0,1,.34594.67334Z"/><path class="cls-3" d="M46.12905,17.84564l-.256-.57372a1.98639,1.98639,0,0,0,1.99608-2.19067H45.70242v1.081h-.6687V14.51679h1.37022v-.81542h.67836v.81542h1.522C48.54712,16.45148,48.02088,17.55646,46.12905,17.84564Z"/><path class="cls-3" d="M51.21,15.5268a5.91518,5.91518,0,0,0-1.38451-.89148l.38879-.54053a6.92655,6.92655,0,0,1,1.432.83936Zm-1.03356,2.2146-.20887-.6355A3.65227,3.65227,0,0,0,53.064,14.86774l.49766.46485A4.20814,4.20814,0,0,1,50.17641,17.7414Z"/><rect class="cls-3" x="23.47819" y="52.10864" width="28.04381" height="1.8977" rx="0.94885"/><polygon class="cls-3" points="26.289 41.187 26.289 35.203 37.5 42.447 48.711 35.203 48.711 41.187 37.5 48.43 26.289 41.187"/><polygon class="cls-3" points="37.5 36.463 26.289 29.219 26.289 23.235 37.5 30.479 48.711 23.235 48.711 29.219 37.5 36.463"/><path class="cls-3" d="M39.23266,65.44312a.64212.64212,0,1,1,.642.65449.649.649,0,0,1-.642-.65449m-.53293,0a1.175,1.175,0,1,0,1.17493-1.17026,1.1601,1.1601,0,0,0-1.17493,1.17026"/><path class="cls-3" d="M36.21945,66.09758a.65461.65461,0,1,1,.642-.65445.64907.64907,0,0,1-.642.65445m0-1.82471a1.17025,1.17025,0,1,0,1.17493,1.17026,1.16014,1.16014,0,0,0-1.17493-1.17026"/><path class="cls-3" d="M34.21423,64.91494h.6077v-.54325h-.6077V63.6396h-.55435v1.83176a1.41172,1.41172,0,0,0,.1076.55306,1.14746,1.14746,0,0,0,.6913.6136l.27457-.46489a.92166.92166,0,0,1-.45645-.39337.8324.8324,0,0,1-.06145-.32159c0-.05663-.00122-.17788-.00122-.17788Z"/><path class="cls-3" d="M37.68638,63.64266a.36073.36073,0,0,0,.72135,0,.36072.36072,0,1,0-.72135,0"/><rect class="cls-3" x="37.77542" y="64.37167" width="0.54326" height="2.1858"/><polygon class="cls-3" points="40.987 66.407 40.91 66.407 40.91 66.381 41.092 66.381 41.092 66.407 41.016 66.407 41.016 66.613 40.987 66.613 40.987 66.407"/><polygon class="cls-3" points="41.216 66.613 41.152 66.424 41.152 66.613 41.122 66.613 41.122 66.381 41.164 66.381 41.231 66.579 41.298 66.381 41.34 66.381 41.34 66.613 41.31 66.613 41.31 66.424 41.246 66.613 41.216 66.613"/></g></g></svg>