<svg xmlns="http://www.w3.org/2000/svg" viewBox="0 0 75 75"><defs><style>.cls-1{fill:none;}.cls-2{fill:#c7d932;}.cls-3{fill:#fff;}</style></defs><title>アセット 5102</title><g id="レイヤー_2" data-name="レイヤー 2"><g id="レイヤー_2-2" data-name="レイヤー 2"><g id="CIRCLE"><circle class="cls-1" cx="37.5" cy="37.5" r="37.5"/><path class="cls-2" d="M5.0001,37.50021a32.5,32.5,0,1,1,32.5,32.5,32.5,32.5,0,0,1-32.5-32.5Z"/></g><path class="cls-3" d="M32.51733,16.16705a4.70054,4.70054,0,0,0,1.56945,1.08607l-.38879.56407a5.41572,5.41572,0,0,1-1.58373-1.176,4.99743,4.99743,0,0,1-1.75921,1.18066l-.34613-.52161A4.186,4.186,0,0,0,32.522,14.77289H30.46412v-.56408H33.3897A4.85928,4.85928,0,0,1,32.51733,16.16705Z"/><path class="cls-3" d="M37.70288,17.76044c-.27026,0-.61658-.005-.79186-.01429-.81561-.05212-1.16174-.41272-1.16174-1.14745V13.95747h.66851v1.45092a8.62747,8.62747,0,0,0,2.15746-.66832l.26563.57373a11.75606,11.75606,0,0,1-2.42309.66832V16.518c0,.43164.08069.54515.54052.59728.11853.01428.43146.02857.61639.0332.17548,0,.36524,0,.57373-.00927.25617-.00463.51215-.02393.7492-.04285v.62585C38.51367,17.75542,38.11523,17.76044,37.70288,17.76044Zm1.00036-3.12a.57141.57141,0,1,1,.57373-.57373A.56979.56979,0,0,1,38.70324,14.64046Zm.00483-.85364a.282.282,0,1,0,.27972.28455A.28224.28224,0,0,0,38.70807,13.78682Z"/><path class="cls-3" d="M42.19579,15.52692a5.91529,5.91529,0,0,0-1.38451-.89148l.38879-.54052a6.91552,6.91552,0,0,1,1.432.83935Zm-1.03355,2.2146-.20869-.6355a3.65149,3.65149,0,0,0,3.09624-2.23815l.498.46485A4.20906,4.20906,0,0,1,41.16224,17.74152Z"/><path class="cls-3" d="M39.333,55.15332A17.44117,17.44117,0,0,1,21.88379,37.7041a15.61621,15.61621,0,0,1,31.23242,0,13.78272,13.78272,0,0,1-27.56543,0,11.94922,11.94922,0,0,1,23.89844,0,10.11573,10.11573,0,1,1-20.23145,0,8.28223,8.28223,0,0,1,16.56446,0,6.44922,6.44922,0,1,1-12.89844,0,4.61621,4.61621,0,0,1,9.23242,0,2.78272,2.78272,0,0,1-5.56543,0,.94922.94922,0,0,1,1.89844,0,.88428.88428,0,0,0,1.76855,0,2.71777,2.71777,0,0,0-5.43554,0,4.55078,4.55078,0,0,0,9.10156,0,6.38379,6.38379,0,0,0-12.76758,0,8.21729,8.21729,0,1,0,16.43457,0,10.05078,10.05078,0,0,0-20.10156,0,11.88428,11.88428,0,0,0,23.76855,0,13.71777,13.71777,0,0,0-27.43554,0A15.55566,15.55566,0,0,0,50.333,48.70312a.94879.94879,0,0,1,1.34179,1.3418A17.33753,17.33753,0,0,1,39.333,55.15332Z"/><path class="cls-3" d="M39.23266,65.44324a.64212.64212,0,1,1,.642.65449.649.649,0,0,1-.642-.65449m-.53293,0A1.175,1.175,0,1,0,39.87466,64.273a1.1601,1.1601,0,0,0-1.17493,1.17026"/><path class="cls-3" d="M36.21945,66.0977a.65461.65461,0,1,1,.642-.65445.64907.64907,0,0,1-.642.65445m0-1.82471a1.17025,1.17025,0,1,0,1.17493,1.17026A1.16014,1.16014,0,0,0,36.21945,64.273"/><path class="cls-3" d="M34.21423,64.91506h.6077v-.54325h-.6077v-.73209h-.55435v1.83176a1.41172,1.41172,0,0,0,.1076.55306,1.14746,1.14746,0,0,0,.6913.6136l.27457-.46489a.92166.92166,0,0,1-.45645-.39337.8324.8324,0,0,1-.06145-.32159c0-.05663-.00122-.17788-.00122-.17788Z"/><path class="cls-3" d="M37.68638,63.64278a.36073.36073,0,0,0,.72135,0,.36072.36072,0,1,0-.72135,0"/><rect class="cls-3" x="37.77542" y="64.37179" width="0.54326" height="2.1858"/><polygon class="cls-3" points="40.987 66.407 40.91 66.407 40.91 66.381 41.092 66.381 41.092 66.407 41.016 66.407 41.016 66.613 40.987 66.613 40.987 66.407"/><polygon class="cls-3" points="41.216 66.613 41.152 66.424 41.152 66.613 41.122 66.613 41.122 66.381 41.164 66.381 41.231 66.579 41.298 66.381 41.34 66.381 41.34 66.613 41.31 66.613 41.31 66.424 41.246 66.613 41.216 66.613"/></g></g></svg>