<svg xmlns="http://www.w3.org/2000/svg" viewBox="0 0 75 75"><g data-name="レイヤー 2"><circle cx="37.5" cy="37.5" r="37.5" fill="none"/><path d="M5 37.5A32.5 32.5 0 1137.5 70 32.5 32.5 0 015 37.5z" fill="#c7d932"/><path d="M27.855 17.59l-.55-.309a3.834 3.834 0 00.62-1.398l.58.147a4.71 4.71 0 01-.65 1.56zm1.394.256a1.923 1.923 0 01-.896-.218l.118-.522a1.401 1.401 0 00.692.19c.309 0 .465-.114.465-.332 0-.218-.1-.38-.47-.735a.813.813 0 01-.322-.602 1.38 1.38 0 01.3-.806l.544.213a.818.818 0 00-.223.536c0 .133.1.237.266.398a1.345 1.345 0 01.54 1.029c0 .517-.365.849-1.014.849zm.9-3.04a5.912 5.912 0 00-1.663-.483l.151-.565a6.658 6.658 0 011.74.494zm.892 2.75a5.213 5.213 0 00-.621-1.498l.522-.232a6.576 6.576 0 01.682 1.508zm3.213.332a5.223 5.223 0 01-.583-.033v-.56c.166.02.403.03.569.03 1.015 0 1.484-.266 1.484-.684 0-.289-.237-.502-.692-.502a2.013 2.013 0 00-1.39.673l-.597-.152a9.261 9.261 0 01.394-1.967l.592.094a5.314 5.314 0 00-.284 1.22 2.419 2.419 0 011.366-.432c.8 0 1.27.469 1.27 1.043 0 .82-.768 1.27-2.129 1.27zm1.328-3.143a7.718 7.718 0 00-1.992-.422l.133-.56a7.83 7.83 0 012.03.408zm3.288 2.864l-.118-.598c1.716-.01 2.375-.488 2.375-1.19 0-.502-.322-.872-1.038-.872a9.82 9.82 0 00-2.081.412l-.162-.62a12.91 12.91 0 012.343-.404 1.435 1.435 0 011.621 1.47c0 1.005-.787 1.802-2.94 1.802zm6.969-1.674a5.34 5.34 0 00.237.493l-.616.19a7.417 7.417 0 01-.295-.683H43.24v-.545h1.74a15.085 15.085 0 01-.146-.54h-1.385v-.546h1.261c-.042-.204-.08-.417-.118-.64h.654q.05.327.114.64h1.252v.545h-1.129c.048.185.1.365.152.54h1.238v.546zm-.237 1.958c-1.447 0-1.968-.35-1.968-.858a1.4 1.4 0 01.152-.602l.588.095a1 1 0 00-.11.431c0 .256.39.356 1.295.356.119 0 .327 0 .545-.01v.579c-.17.004-.379.01-.502.01zM38.63 30.704l2.07 2.41a.624.624 0 001.077-.248l2.56-9.67a.624.624 0 00-.671-.78l-9.946 1.073a.624.624 0 00-.406 1.027l2.07 2.41c-2.112 1.814-4.741 4.072-4.741 8.544s2.629 6.73 4.74 8.546c1.976 1.697 3.007 2.68 3.007 4.766 0 1.915-.868 2.9-2.537 4.36a.626.626 0 00-.064.878l2.434 2.833a.623.623 0 00.883.065c2.011-1.75 4.266-3.994 4.266-8.136 0-4.472-2.629-6.73-4.741-8.545-1.975-1.697-3.006-2.68-3.006-4.767 0-2.086 1.03-3.069 3.006-4.766zm.603 34.739a.642.642 0 11.642.655.649.649 0 01-.642-.655m-.533 0a1.175 1.175 0 101.175-1.17 1.16 1.16 0 00-1.175 1.17m-2.48.655a.655.655 0 11.641-.655.65.65 0 01-.642.655m0-1.825a1.17 1.17 0 101.175 1.17 1.16 1.16 0 00-1.175-1.17m-2.005.642h.608v-.543h-.608v-.732h-.554v1.831a1.412 1.412 0 00.108.553 1.147 1.147 0 00.69.614l.275-.465a.922.922 0 01-.456-.393.833.833 0 01-.062-.322v-.178zm3.472-1.272a.36.36 0 00.722 0 .36.36 0 10-.722 0m.089.729h.543v2.186h-.543zm3.212 2.035h-.077v-.026h.182v.026h-.076v.206h-.029v-.206zm.229.206l-.063-.189v.189h-.031v-.232h.042l.067.198.067-.198h.042v.232h-.03v-.189l-.064.189h-.03z" fill="#fff"/></g></svg>