<svg xmlns="http://www.w3.org/2000/svg" viewBox="0 0 165.22266 80.74414"><defs><style>.cls-1{fill:none;}.cls-2{fill:#675642;}.cls-3{fill:#fff;}</style></defs><title>アセット 5802</title><g id="レイヤー_2" data-name="レイヤー 2"><g id="レイヤー_2-2" data-name="レイヤー 2"><path class="cls-1" d="M129.97168,80.74414A49.69883,49.69883,0,0,1,119.957,79.67969c-12.34277-2.54688-18.81348-5.86524-31.68848-13.39063-8.91992-5.21679-12.08105-6.07812-16.28515-6.2207v5.33105H21.92871V58.93457a34.804,34.804,0,0,1-4.52734.31445C6.17969,59.249,0,52.5459,0,40.37305,0,28.19727,6.17871,21.49121,17.39844,21.49121a33.89394,33.89394,0,0,1,3.80566.22754c.23926.02637.48047.05664.72461.08887V15.34473H71.9834v5.331c4.2041-.14258,7.36523-1.0039,16.28418-6.2207C101.12988,6.93262,107.59766,3.61523,119.958,1.06445A49.68206,49.68206,0,0,1,129.97168,0c21.74316,0,35.251,15.46973,35.251,40.37207,0,12.59766-3.45313,22.99219-9.98633,30.06055-6.23535,6.74511-14.97266,10.31152-25.26465,10.31152Z"/><path class="cls-2" d="M160.22308,40.37215c0-27.9679-17.73875-38.85466-39.25454-34.41109-11.5,2.37286-17.51215,5.40341-30.17635,12.81081C78.97674,25.68166,75.684,25.7039,69.312,25.7039h-.37772a1.94956,1.94956,0,0,1-1.95074-1.95079V20.34492H26.92912V24.7246a2.51574,2.51574,0,0,1-2.98564,2.47412c-.03867-.00748-.07572-.01269-.11426-.02-.367-.07-.72658-.12986-1.08627-.18979-.052-.00852-.10547-.019-.15744-.02751v.00066c-.65951-.10751-1.311-.204-1.94406-.27523-9.336-1.05763-15.6414,1.99071-15.6414,13.68623,0,12.91447,7.69666,15.28077,18.67447,13.21905.09034-.01665.17792-.02946.269-.047a2.51574,2.51574,0,0,1,2.98564,2.47413v4.38005H66.9835V56.99108a1.94948,1.94948,0,0,1,1.95074-1.95068H69.312c6.37207,0,9.66478.02218,21.48023,6.93191,12.6642,7.40307,18.67637,10.438,30.17635,12.81087C142.48433,79.22676,160.22308,68.34,160.22308,40.37215Z"/><circle class="cls-3" cx="35.21477" cy="37.03741" r="3.43604"/><circle class="cls-2" cx="35.21477" cy="37.03741" r="1.77166"/><circle class="cls-3" cx="35.21477" cy="43.70648" r="3.43604"/><circle class="cls-2" cx="35.21477" cy="43.70648" r="1.77166"/><path class="cls-3" d="M155.10128,38.42481a.72171.72171,0,1,1,.73562-.72158.72949.72949,0,0,1-.73562.72158m0,.599a1.32059,1.32059,0,1,0-1.3153-1.32056,1.30389,1.30389,0,0,0,1.3153,1.32056"/><path class="cls-3" d="M155.83687,41.8115a.73575.73575,0,1,1-.73558-.72161.72952.72952,0,0,1,.73558.72161m-2.05089,0a1.3153,1.3153,0,1,0,1.31531-1.32056A1.30394,1.30394,0,0,0,153.786,41.8115"/><path class="cls-3" d="M154.50764,44.06526v-.683h-.61059v.683h-.82283v.62306h2.0588a1.58655,1.58655,0,0,0,.62161-.12094,1.28968,1.28968,0,0,0,.68966-.777l-.52252-.3086a1.03594,1.03594,0,0,1-.44212.513.93575.93575,0,0,1-.36145.06906c-.06365,0-.19993.00137-.19993.00137Z"/><path class="cls-3" d="M153.07766,40.16274a.40543.40543,0,0,0,0-.81075.40543.40543,0,1,0,0,.81075"/><rect class="cls-3" x="153.89702" y="39.45208" width="2.45673" height="0.61059"/><polygon class="cls-3" points="156.185 36.453 156.185 36.54 156.155 36.54 156.155 36.334 156.185 36.334 156.185 36.42 156.417 36.42 156.417 36.453 156.185 36.453"/><polygon class="cls-3" points="156.417 36.196 156.204 36.267 156.417 36.267 156.417 36.301 156.155 36.301 156.155 36.254 156.377 36.179 156.155 36.103 156.155 36.056 156.417 36.056 156.417 36.09 156.204 36.09 156.417 36.162 156.417 36.196"/></g></g></svg>