<svg xmlns="http://www.w3.org/2000/svg" viewBox="0 0 214.0625 55.09326"><defs><style>.cls-1{fill:none;}.cls-2{fill:#c7d932;}.cls-3{fill:#fff;}</style></defs><title>アセット 5402</title><g id="レイヤー_2" data-name="レイヤー 2"><g id="レイヤー_2-2" data-name="レイヤー 2"><path class="cls-1" d="M176.03418,55.09326c-10.61426,0-21.19824-3.49707-40.41113-9.84619l-2.85059-.94141c-13.12207-4.32861-24.23633-4.68115-36.374-4.68115q-2.625,0-5.36035.01758-2.89893.01392-5.95118.01855H68.52051V52.57373H18.46582V38.28564L4.47754,33.71826a6.49075,6.49075,0,0,1-.00293-12.34033l13.99121-4.56787V2.51953H68.52051V15.437h16.5664c2.03907,0,4.01856.00928,5.9502.01856,1.82715.00879,3.61035.01757,5.36133.01757,12.13769,0,23.252-.35253,36.375-4.68164l2.92676-.9663C154.87207,3.48975,165.43359,0,176.03418,0c10.88379,0,21.16992,7.31836,26.333,11.68066,7.76074,6.5625,11.69531,11.89991,11.69531,15.86622s-3.93457,9.30371-11.69336,15.86425C197.2041,47.7749,186.918,55.09326,176.03418,55.09326Z"/><path class="cls-2" d="M64.09385,35.22959a1.94449,1.94449,0,0,1,1.3775-.56876H85.08707c18.44085,0,32.0515-.77763,49.25259,4.8968,20.5871,6.79425,31.39833,10.53573,41.69409,10.53573,8.26059,0,16.88559-5.24342,23.1066-10.50017,8.59831-7.26969,9.92251-10.97564,9.92251-12.04653,0-1.06647-1.3242-4.77685-9.92251-12.04653C192.91934,10.24337,184.29434,5,176.03375,5c-10.29576,0-21.107,3.74593-41.69409,10.54015-17.20109,5.67446-30.81174,4.89683-49.25259,4.89683H65.47135a1.94956,1.94956,0,0,1-1.95074-1.95073V7.51945H23.46623V18.6102A2.519,2.519,0,0,1,21.72867,21.005l-1.45892.47617-3.62443,1.1829L6.02964,26.1301a1.49052,1.49052,0,0,0,0,2.83506l14.02615,4.57889v.00084l1.67288.546a2.519,2.519,0,0,1,1.73756,2.39482V47.57386H63.52061V36.61156A1.94824,1.94824,0,0,1,64.09385,35.22959Z"/><path class="cls-3" d="M30.87609,20.50147l5.064-9.23184a.84267.84267,0,0,0-.91173-1.23008,8.49236,8.49236,0,0,0-5.87085,4.0948,5.78843,5.78843,0,0,0,.28287,6.43559A.84426.84426,0,0,0,30.87609,20.50147Z"/><path class="cls-2" d="M31.14445,17.99482l1.84676-3.63352a.51692.51692,0,0,0-.63861-.70951A3.724,3.724,0,0,0,30.123,15.46005a2.43817,2.43817,0,0,0,.09539,2.576A.5392.5392,0,0,0,31.14445,17.99482Z"/><path class="cls-3" d="M30.87609,34.59444l5.064,9.23183a.84267.84267,0,0,1-.91173,1.23008,8.49231,8.49231,0,0,1-5.87085-4.09479,5.78845,5.78845,0,0,1,.28287-6.4356A.84425.84425,0,0,1,30.87609,34.59444Z"/><path class="cls-2" d="M31.14445,37.10108l1.84676,3.63352a.51692.51692,0,0,1-.63861.70952A3.724,3.724,0,0,1,30.123,39.63586a2.43817,2.43817,0,0,1,.09539-2.576A.5392.5392,0,0,1,31.14445,37.10108Z"/><path class="cls-3" d="M200.16228,25.59934a.72171.72171,0,1,1,.73561-.72157.7295.7295,0,0,1-.73561.72157m0,.599a1.32059,1.32059,0,1,0-1.31531-1.32056,1.3039,1.3039,0,0,0,1.31531,1.32056"/><path class="cls-3" d="M200.89786,28.986a.73575.73575,0,1,1-.73557-.72162.72951.72951,0,0,1,.73557.72162m-2.05088,0a1.3153,1.3153,0,1,0,1.31531-1.32056A1.30393,1.30393,0,0,0,198.847,28.986"/><path class="cls-3" d="M199.56864,31.23979v-.683h-.6106v.683h-.82283v.62307H200.194a1.58659,1.58659,0,0,0,.62161-.12094,1.28971,1.28971,0,0,0,.68965-.777l-.52251-.30859a1.036,1.036,0,0,1-.44212.513.93577.93577,0,0,1-.36146.06906c-.06365,0-.19992.00137-.19992.00137Z"/><path class="cls-3" d="M198.13865,27.33728a.40544.40544,0,0,0,0-.81076.40544.40544,0,1,0,0,.81076"/><rect class="cls-3" x="198.95802" y="26.62661" width="2.45673" height="0.61059"/><polygon class="cls-3" points="201.246 23.628 201.246 23.714 201.216 23.714 201.216 23.509 201.246 23.509 201.246 23.595 201.478 23.595 201.478 23.628 201.246 23.628"/><polygon class="cls-3" points="201.478 23.37 201.265 23.442 201.478 23.442 201.478 23.476 201.216 23.476 201.216 23.428 201.438 23.353 201.216 23.278 201.216 23.23 201.478 23.23 201.478 23.265 201.265 23.265 201.478 23.336 201.478 23.37"/></g></g></svg>