<svg xmlns="http://www.w3.org/2000/svg" viewBox="0 0 75 75"><defs><style>.cls-1{fill:none;}.cls-2{fill:#c7d932;}.cls-3{fill:#fff;}</style></defs><title>アセット 5202</title><g id="レイヤー_2" data-name="レイヤー 2"><g id="レイヤー_2-2" data-name="レイヤー 2"><g id="CIRCLE"><circle class="cls-1" cx="37.5" cy="37.5" r="37.5"/><path class="cls-2" d="M5.0001,37.50025a32.5,32.5,0,1,1,32.5,32.5,32.5,32.5,0,0,1-32.5-32.5Z"/></g><path class="cls-3" d="M28.96436,16.17675a7.09544,7.09544,0,0,0-1.35614-.678l.28918-.52662a8.47357,8.47357,0,0,1,1.37988.62121ZM28.11554,17.803l-.1803-.62585a3.51116,3.51116,0,0,0,3.0584-2.23314l.517.41235A4.12174,4.12174,0,0,1,28.11554,17.803Zm1.45575-2.71227a7.75551,7.75551,0,0,0-1.361-.68261l.294-.5216a9.34644,9.34644,0,0,1,1.37988.62121Z"/><path class="cls-3" d="M33.47174,16.52269v-.53087h1.85883v-.6355H33.34375v-.54053h2.59838v2.91149H33.32947v-.54052h2.0011v-.66407Z"/><path class="cls-3" d="M38.74725,16.38524a7.73556,7.73556,0,0,0-.41253-1.24243l.51214-.19884a8.36853,8.36853,0,0,1,.47412,1.23278Zm.44574,1.49841-.30829-.498a2.37417,2.37417,0,0,0,1.892-2.48448h.61639A2.96993,2.96993,0,0,1,39.193,17.88365Zm.52624-1.65014a7.08,7.08,0,0,0-.40771-1.23741l.51678-.20386A8.26,8.26,0,0,1,40.293,16.025Z"/><path class="cls-3" d="M44.96656,14.34168h1.797c-.34149,1.83006-1.09533,3.00145-2.513,3.5134l-.31775-.51659a3.0512,3.0512,0,0,0,1.99144-2.42309H44.66772a5.90208,5.90208,0,0,1-1.10942,1.37988l-.47431-.41736a4.96453,4.96453,0,0,0,1.38934-2.04356H45.161C45.104,14.005,45.0376,14.17566,44.96656,14.34168Z"/><path class="cls-3" d="M42.44853,50.62022h-.38082a.44971.44971,0,0,1-.4497-.44971v-.22069a.44971.44971,0,0,0-.44971-.4497h-.99238a.44971.44971,0,0,0-.44971.4497v.22069a.44971.44971,0,0,1-.4497.44971h-.38084a.44971.44971,0,0,1-.44971-.44971v-.22069a.4497.4497,0,0,0-.4497-.4497h-.99237a.4497.4497,0,0,0-.4497.4497v.22069a.44971.44971,0,0,1-.44971.44971h-.38083a.44971.44971,0,0,1-.44971-.44971v-.22069a.44971.44971,0,0,0-.44971-.4497h-.99236a.44971.44971,0,0,0-.44971.4497v.22069a.44971.44971,0,0,1-.4497.44971h-.38084a.44971.44971,0,0,1-.4497-.44971v-.22069a.44971.44971,0,0,0-.44971-.4497h-.99236a.44971.44971,0,0,0-.44971.4497v.20671a3.96231,3.96231,0,0,0,3.96231,3.9623h6.65527A3.9623,3.9623,0,0,0,44.79,50.15653v-.20671a.44971.44971,0,0,0-.44971-.4497h-.99238a.4497.4497,0,0,0-.4497.4497v.22069A.44971.44971,0,0,1,42.44853,50.62022ZM37.50009,23.12305c-6.84664,0-11.526,3.89127-11.526,9.5065v9.35872c0,2.06878,2.56134,4.6979,4.23606,4.6979v1.084a.44971.44971,0,0,0,.44971.44971h.99236a.44971.44971,0,0,0,.44971-.44971v-.22067a.4497.4497,0,0,1,.4497-.4497h.38084a.4497.4497,0,0,1,.4497.4497v.22067a.44971.44971,0,0,0,.44971.44971h.99236a.44971.44971,0,0,0,.44971-.44971v-.22067a.44971.44971,0,0,1,.44971-.4497h.38083a.44971.44971,0,0,1,.44971.4497v.22067a.44971.44971,0,0,0,.4497.44971h.99237a.44971.44971,0,0,0,.4497-.44971v-.22067a.44971.44971,0,0,1,.44971-.4497h.38084a.4497.4497,0,0,1,.4497.4497v.22067a.44971.44971,0,0,0,.44971.44971h.99238a.44971.44971,0,0,0,.44971-.44971v-.22067a.4497.4497,0,0,1,.4497-.4497h.38082a.44971.44971,0,0,1,.44971.4497v.22067a.44971.44971,0,0,0,.4497.44971h.99238a.44971.44971,0,0,0,.44971-.44971v-1.084c1.6747,0,4.23608-2.62912,4.23608-4.6979V32.62955C49.02611,27.01432,44.34672,23.12305,37.50009,23.12305Z"/><path class="cls-2" d="M37.00845,41.0957l-1.30723,2.26418a.56771.56771,0,0,0,.64543.83034l.99967-.2813a.56766.56766,0,0,1,.30755,0l.99967.2813a.56771.56771,0,0,0,.64543-.83034L37.99174,41.0957A.5677.5677,0,0,0,37.00845,41.0957Z"/><path class="cls-2" d="M34.27148,41.02051a.945.945,0,0,1-.67089-.27832L30.042,37.18457a.9488.9488,0,0,1,1.3418-1.3418l3.55859,3.55762a.94922.94922,0,0,1-.6709,1.62012Z"/><path class="cls-2" d="M30.71289,41.02051a.94922.94922,0,0,1-.6709-1.62012l3.5586-3.55762a.94879.94879,0,0,1,1.34179,1.3418l-3.55859,3.55762A.945.945,0,0,1,30.71289,41.02051Z"/><path class="cls-2" d="M44.28711,41.02051a.945.945,0,0,1-.6709-.27832l-3.55859-3.55762a.94879.94879,0,0,1,1.34179-1.3418l3.5586,3.55762a.94922.94922,0,0,1-.6709,1.62012Z"/><path class="cls-2" d="M40.72852,41.02051a.94922.94922,0,0,1-.6709-1.62012l3.55859-3.55762a.9488.9488,0,0,1,1.3418,1.3418l-3.5586,3.55762A.945.945,0,0,1,40.72852,41.02051Z"/><path class="cls-3" d="M39.23266,65.44329a.64212.64212,0,1,1,.642.65449.649.649,0,0,1-.642-.65449m-.53293,0A1.175,1.175,0,1,0,39.87466,64.273a1.1601,1.1601,0,0,0-1.17493,1.17025"/><path class="cls-3" d="M36.21945,66.09776a.65462.65462,0,1,1,.642-.65446.64907.64907,0,0,1-.642.65446m0-1.82472a1.17025,1.17025,0,1,0,1.17493,1.17026A1.16014,1.16014,0,0,0,36.21945,64.273"/><path class="cls-3" d="M34.21423,64.91512h.6077v-.54326h-.6077v-.73209h-.55435v1.83176a1.41172,1.41172,0,0,0,.1076.55306,1.14743,1.14743,0,0,0,.6913.6136l.27457-.46489a.92166.92166,0,0,1-.45645-.39337.8324.8324,0,0,1-.06145-.32159c0-.05663-.00122-.17788-.00122-.17788Z"/><path class="cls-3" d="M37.68638,63.64283a.36073.36073,0,0,0,.72135,0,.36072.36072,0,1,0-.72135,0"/><rect class="cls-3" x="37.77542" y="64.37184" width="0.54326" height="2.1858"/><polygon class="cls-3" points="40.987 66.407 40.91 66.407 40.91 66.381 41.092 66.381 41.092 66.407 41.016 66.407 41.016 66.614 40.987 66.614 40.987 66.407"/><polygon class="cls-3" points="41.216 66.614 41.152 66.425 41.152 66.614 41.122 66.614 41.122 66.381 41.164 66.381 41.231 66.579 41.298 66.381 41.34 66.381 41.34 66.614 41.31 66.614 41.31 66.425 41.246 66.614 41.216 66.614"/></g></g></svg>