<svg xmlns="http://www.w3.org/2000/svg" viewBox="0 0 75 75"><defs><style>.cls-1{fill:none;}.cls-2{fill:#c7d932;}.cls-3{fill:#fff;}</style></defs><title>アセット 5002</title><g id="レイヤー_2" data-name="レイヤー 2"><g id="レイヤー_2-2" data-name="レイヤー 2"><g id="CIRCLE"><circle class="cls-1" cx="37.5" cy="37.5" r="37.5"/><path class="cls-2" d="M5.0001,37.50017a32.5,32.5,0,1,1,32.5,32.5,32.5,32.5,0,0,1-32.5-32.5Z"/></g><path class="cls-3" d="M27.79286,17.70849,27.24268,17.31a4.5642,4.5642,0,0,0,1.14282-3.03928H29.054A5.61082,5.61082,0,0,1,27.79286,17.70849Zm3.18156,0a5.60144,5.60144,0,0,1-1.28027-3.43773h.67334a4.28238,4.28238,0,0,0,1.1712,2.95859Zm.13281-3.03466a.57141.57141,0,0,1,0-1.14282.57141.57141,0,1,1,0,1.14282Zm.00463-.85364a.28458.28458,0,1,0,.27992.28455A.28232.28232,0,0,0,31.11186,13.82019Z"/><path class="cls-3" d="M32.746,17.53745v-.64014h3.81224v.64014Zm.46949-2.52695v-.64013H36.0841v.64013Z"/><path class="cls-3" d="M38.747,16.38536a7.73556,7.73556,0,0,0-.41253-1.24243l.51214-.19884a8.36853,8.36853,0,0,1,.47412,1.23278Zm.44574,1.49841-.30829-.498a2.37417,2.37417,0,0,0,1.892-2.48448H41.393A2.96988,2.96988,0,0,1,39.19269,17.88377Zm.52624-1.65014a7.08039,7.08039,0,0,0-.40771-1.23742l.51678-.20385a8.26,8.26,0,0,1,.46466,1.23278Z"/><path class="cls-3" d="M44.96626,14.3418H46.7635c-.34169,1.83005-1.09533,3.00145-2.513,3.5134l-.31775-.51659a3.05152,3.05152,0,0,0,1.99144-2.42309H44.66742a5.89664,5.89664,0,0,1-1.10923,1.37988l-.4745-.41736a4.96681,4.96681,0,0,0,1.38953-2.04356h.68763C45.1037,14.00513,45.0373,14.17578,44.96626,14.3418Z"/><path class="cls-3" d="M37.43307,22.79279c-7.77,0-10.27087,3.52792-10.27087,7.279v.98237a2.858,2.858,0,0,0,2.858,2.858h.134a2.85982,2.85982,0,0,0,2.858-2.86065q.00172-3.34634,4.42086-3.34642c2.90277,0,4.42117,1.11641,4.42117,3.34909v1.33972A2.88879,2.88879,0,0,1,40.15731,35.118L36.049,37.21674c-1.38436.66979-2.8135,1.51826-2.8135,4.019V42.754a2.63106,2.63106,0,0,0,.12324.79654,3.01248,3.01248,0,0,0,5.78206,0,2.63137,2.63137,0,0,0,.12324-.79654c0-1.429.62515-1.92009,1.87546-2.50062l2.5454-1.161c1.831-.80384,4.15308-2.63482,4.15308-6.92179V30.07179C47.79352,26.32071,45.20333,22.79279,37.43307,22.79279Z"/><circle class="cls-3" cx="36.24979" cy="51.43465" r="3.01427"/><path class="cls-3" d="M39.23268,65.44321a.64212.64212,0,1,1,.642.65449.649.649,0,0,1-.642-.65449m-.53293,0A1.175,1.175,0,1,0,39.87468,64.273a1.1601,1.1601,0,0,0-1.17493,1.17026"/><path class="cls-3" d="M36.21946,66.09767a.65461.65461,0,1,1,.642-.65446.64906.64906,0,0,1-.642.65446m0-1.82471a1.17025,1.17025,0,1,0,1.17493,1.17025A1.16013,1.16013,0,0,0,36.21946,64.273"/><path class="cls-3" d="M34.21425,64.915h.6077v-.54326h-.6077v-.73209h-.55436v1.83177a1.41153,1.41153,0,0,0,.10761.55306,1.14749,1.14749,0,0,0,.6913.6136l.27456-.46489a.92174.92174,0,0,1-.45645-.39337.83259.83259,0,0,1-.06144-.32159c0-.05663-.00122-.17788-.00122-.17788Z"/><path class="cls-3" d="M37.6864,63.64275a.36072.36072,0,0,0,.72134,0,.36072.36072,0,1,0-.72134,0"/><rect class="cls-3" x="37.77544" y="64.37175" width="0.54326" height="2.1858"/><polygon class="cls-3" points="40.987 66.407 40.91 66.407 40.91 66.381 41.092 66.381 41.092 66.407 41.016 66.407 41.016 66.613 40.987 66.613 40.987 66.407"/><polygon class="cls-3" points="41.216 66.613 41.153 66.424 41.153 66.613 41.122 66.613 41.122 66.381 41.164 66.381 41.231 66.579 41.298 66.381 41.34 66.381 41.34 66.613 41.31 66.613 41.31 66.424 41.246 66.613 41.216 66.613"/></g></g></svg>