<svg xmlns="http://www.w3.org/2000/svg" viewBox="0 0 179.261 65.167"><defs><style>.cls-2{fill:#f19336}.cls-3{fill:#fff}</style></defs><g id="レイヤー_2" data-name="レイヤー 2"><g id="レイヤー_2-2" data-name="レイヤー 2"><path d="M146.676 65.167c-14.095 0-26.16-4.396-34.97-7.605-2.865-1.044-5.339-1.946-7.51-2.58-17.827-5.192-23.81-6.51-37.198-6.51H59.87v9.136H9.815V44.9l-.695-.304-.061-.035C3.299 41.823 0 37.467 0 32.582c0-4.346 2.702-8.396 7.412-11.112.498-.29 1.055-.58 1.646-.862l.075-.043.682-.303V7.554H59.87v9.14h7.128c13.389 0 19.371-1.317 37.198-6.51 2.17-.632 4.643-1.534 7.507-2.577C120.513 4.397 132.58 0 146.676 0a32.584 32.584 0 110 65.167z" fill="none"/><path class="cls-2" d="M55.443 44.041a1.944 1.944 0 011.378-.569h10.177c13.948 0 20.382 1.405 38.597 6.71 9.433 2.75 23.537 9.985 41.08 9.985a27.584 27.584 0 100-55.167c-17.543 0-31.647 7.234-41.08 9.985-18.215 5.305-24.649 6.71-38.597 6.71H56.82a1.95 1.95 0 01-1.95-1.951v-7.19H14.815v9.392a2.517 2.517 0 01-1.661 2.366c-.04.014-.076.03-.115.044-.266.098-.528.198-.782.302l-.036.014c-.289.12-.567.242-.839.368l-.022.01c-.514.24-1 .49-1.45.751C6.634 27.69 5 30.138 5 32.582c0 2.786 2.125 5.57 6.361 7.535v.001l.023.01c.147.069.302.133.454.2.176.076.353.153.536.226.133.054.271.106.408.158.125.048.245.098.373.144a2.517 2.517 0 011.66 2.366v9.386H54.87v-7.185a1.948 1.948 0 01.573-1.382z"/><path class="cls-3" d="M21.773 21.833c-1.491.745-2.108 2.383-2.108 4.284s.617 3.54 2.108 4.285c.845.422 2.486.344 2.486-4.285s-1.641-4.706-2.486-4.284z"/><path class="cls-2" d="M22.105 24.174a2.007 2.007 0 00-.943 1.943 2.007 2.007 0 00.943 1.943c.383.191 1.14.156 1.14-1.943s-.757-2.134-1.14-1.943z"/><path class="cls-3" d="M21.773 34.766c-1.491.746-2.108 2.384-2.108 4.285s.617 3.539 2.108 4.284c.845.422 2.486.344 2.486-4.284s-1.641-4.707-2.486-4.285z"/><path class="cls-2" d="M22.105 37.108a2.007 2.007 0 00-.943 1.943 2.007 2.007 0 00.943 1.943c.383.19 1.14.156 1.14-1.943s-.757-2.134-1.14-1.943z"/><path class="cls-3" d="M169.14 30.636a.722.722 0 11.735-.721.73.73 0 01-.736.721m0 .6a1.32 1.32 0 10-1.315-1.321 1.304 1.304 0 001.315 1.32m.736 2.788a.736.736 0 11-.736-.722.73.73 0 01.736.722m-2.051 0a1.315 1.315 0 101.315-1.32 1.304 1.304 0 00-1.315 1.32m.722 2.254v-.683h-.61v.683h-.824v.623h2.06a1.587 1.587 0 00.62-.121 1.29 1.29 0 00.69-.777l-.522-.309a1.036 1.036 0 01-.442.513.936.936 0 01-.362.07h-.2zm-1.43-3.903a.405.405 0 000-.81.405.405 0 100 .81m.819-.711h2.457v.611h-2.457zm2.288-2.998v.086h-.03v-.205h.03v.085h.232v.034h-.232zm.232-.258l-.213.071h.213v.035h-.262v-.048l.222-.075-.222-.075v-.048h.262v.035h-.213l.213.071v.034z"/></g></g></svg>