<svg xmlns="http://www.w3.org/2000/svg" viewBox="0 0 192.33594 60.13232"><defs><style>.cls-1{fill:none;}.cls-2{fill:#f9be00;}.cls-3{fill:#fff;}</style></defs><title>アセット 5502</title><g id="レイヤー_2" data-name="レイヤー 2"><g id="レイヤー_2-2" data-name="レイヤー 2"><path class="cls-1" d="M156.76856,60.13232c-12.4209,0-21.73926-2.9917-37.17871-7.94824-2.10547-.67627-4.33106-1.39062-6.7002-2.14111C95.4668,44.52832,88.9043,44.06445,73.13574,44.06445H59.86914V55.09326H9.81446V42.47656L3.52344,37.417a9.43206,9.43206,0,0,1-.00293-14.70166l6.294-5.06006V5.03906H59.86914V16.06348h13.2666c15.77832,0,22.34278-.46338,39.75489-5.97461,2.36816-.75,4.59375-1.46436,6.69922-2.14063C135.0293,2.9917,144.34766,0,156.76856,0c9.12988,0,19.64648,4.78223,26.16992,11.89941,6.41211,7.00489,9.39746,12.77637,9.39746,18.167,0,5.3872-2.98535,11.15771-9.39453,18.15966C176.418,55.34814,165.90039,60.13232,156.76856,60.13232Z"/><path class="cls-2" d="M55.44248,39.6332a1.94443,1.94443,0,0,1,1.3775-.56879H73.13591c16.44568,0,23.54651.60426,41.263,6.21211,19.334,6.12326,29.101,9.85582,42.3695,9.85582,7.36745,0,16.62788-3.88813,22.48451-10.28239,7.11862-7.77625,8.08287-12.23317,8.08287-14.78378s-.96425-7.012-8.08287-14.78824c-5.85663-6.38987-15.11706-10.278-22.48451-10.278-13.26852,0-23.03549,3.73261-42.3695,9.85587-17.71653,5.60774-24.81736,6.20767-41.263,6.20767H56.82a1.94958,1.94958,0,0,1-1.95074-1.95074v-9.0738H14.81487v8.80513a2.519,2.519,0,0,1-.94052,1.96316l-1.2158.97719-1.68739,1.35612v.00006L8.86046,24.837l-2.204,1.773a4.43134,4.43134,0,0,0,0,6.90978l4.31469,3.46867v.00287l2.9027,2.33288a2.51919,2.51919,0,0,1,.941,1.96359v8.80552H54.86924V41.01509A1.948,1.948,0,0,1,55.44248,39.6332Z"/><path class="cls-3" d="M23.20489,26.06976l2.03843-7.27128a1.15539,1.15539,0,0,0-1.4146-1.43013,5.38623,5.38623,0,0,0-3.96821,4.13454A4.7035,4.7035,0,0,0,21.394,26.68163,1.15271,1.15271,0,0,0,23.20489,26.06976Z"/><path class="cls-2" d="M22.56939,24.14747l.909-3.24244a.51522.51522,0,0,0-.63081-.63773A2.40183,2.40183,0,0,0,21.07805,22.111a2.0974,2.0974,0,0,0,.68381,2.30933A.514.514,0,0,0,22.56939,24.14747Z"/><path class="cls-3" d="M23.20489,34.06217l2.03843,7.27127a1.15539,1.15539,0,0,1-1.4146,1.43013A5.38623,5.38623,0,0,1,19.86051,38.629,4.70352,4.70352,0,0,1,21.394,33.45029,1.15272,1.15272,0,0,1,23.20489,34.06217Z"/><path class="cls-2" d="M22.56939,35.98445l.909,3.24245a.51522.51522,0,0,1-.63081.63773,2.40186,2.40186,0,0,1-1.76952-1.8437,2.0974,2.0974,0,0,1,.68381-2.30933A.514.514,0,0,1,22.56939,35.98445Z"/><path class="cls-3" d="M180.95444,28.11883a.72171.72171,0,1,1,.73561-.72158.7295.7295,0,0,1-.73561.72158m0,.599a1.32059,1.32059,0,1,0-1.31531-1.32056,1.30389,1.30389,0,0,0,1.31531,1.32056"/><path class="cls-3" d="M181.69,31.50552a.73575.73575,0,1,1-.73558-.72161.72951.72951,0,0,1,.73558.72161m-2.05088,0a1.3153,1.3153,0,1,0,1.3153-1.32056,1.30393,1.30393,0,0,0-1.3153,1.32056"/><path class="cls-3" d="M180.3608,33.75928v-.683h-.6106v.683h-.82283v.62306h2.05881a1.58663,1.58663,0,0,0,.62161-.12094,1.28968,1.28968,0,0,0,.68965-.777l-.52251-.30859a1.036,1.036,0,0,1-.44212.513.93577.93577,0,0,1-.36146.06906c-.06365,0-.19992.00137-.19992.00137Z"/><path class="cls-3" d="M178.93081,29.85676a.40543.40543,0,0,0,0-.81075.40543.40543,0,1,0,0,.81075"/><rect class="cls-3" x="179.75018" y="29.14609" width="2.45673" height="0.61059"/><polygon class="cls-3" points="182.038 26.147 182.038 26.234 182.008 26.234 182.008 26.029 182.038 26.029 182.038 26.114 182.27 26.114 182.27 26.147 182.038 26.147"/><polygon class="cls-3" points="182.27 25.89 182.057 25.961 182.27 25.961 182.27 25.995 182.008 25.995 182.008 25.948 182.231 25.873 182.008 25.797 182.008 25.75 182.27 25.75 182.27 25.784 182.057 25.784 182.27 25.856 182.27 25.89"/></g></g></svg>