<svg xmlns="http://www.w3.org/2000/svg" viewBox="0 0 235.108 50.054"><defs><clipPath id="clip-path"><path class="cls-1" d="M72.064 30.817a1.944 1.944 0 011.377-.569h27.506c11.886 0 39.192-1.457 57.322 4.937 19.525 6.879 21.578 9.87 29.634 9.87 9.47 0 21.365-6.43 28.501-10.314 11.63-6.341 13.704-8.767 13.704-9.714 0-.95-2.075-3.381-13.704-9.713C209.268 11.425 197.372 5 187.904 5c-8.057 0-10.11 2.986-29.635 9.87-18.13 6.39-45.436 4.932-57.322 4.932H73.44a1.95 1.95 0 01-1.95-1.951V5H31.435v12.685a2.52 2.52 0 01-2.09 2.483l-1.052.181-22.63 3.888a.8.8 0 000 1.578L29.411 29.9a2.516 2.516 0 012.024 2.465v12.688H71.49V32.2a1.948 1.948 0 01.574-1.382z"/></clipPath><style>.cls-1{fill:none}.cls-2{fill:#00afca}.cls-4{fill:#fff}</style></defs><g id="レイヤー_2" data-name="レイヤー 2"><g id="レイヤー_2-2" data-name="レイヤー 2"><path class="cls-1" d="M187.903 50.054c-5.959 0-9.325-1.416-15.435-3.986-3.575-1.504-8.473-3.564-15.86-6.167-12.188-4.298-29.074-4.796-40.714-4.796-3.324 0-6.414.045-9.136.084-2.192.032-4.15.06-5.81.06H76.49v14.805H26.436V34.463l-21.62-3.72a5.8 5.8 0 01.005-11.434l21.615-3.714V0H76.49v14.802h24.457c1.662 0 3.621.028 5.813.06 2.724.038 5.815.083 9.141.083 11.639 0 28.52-.497 40.705-4.792 7.381-2.601 12.276-4.66 15.851-6.164C178.572 1.417 181.941 0 187.903 0c10.845 0 23.395 6.837 30.894 10.923 13.87 7.553 16.311 10.566 16.311 14.104 0 3.603-2.354 6.494-16.31 14.103-7.51 4.087-20.072 10.924-30.895 10.924z"/><path class="cls-2" d="M72.064 30.817a1.944 1.944 0 011.377-.569h27.506c11.886 0 39.192-1.457 57.322 4.937 19.525 6.879 21.578 9.87 29.634 9.87 9.47 0 21.365-6.43 28.501-10.314 11.63-6.341 13.704-8.767 13.704-9.714 0-.95-2.075-3.381-13.704-9.713C209.268 11.425 197.372 5 187.904 5c-8.057 0-10.11 2.986-29.635 9.87-18.13 6.39-45.436 4.932-57.322 4.932H73.44a1.95 1.95 0 01-1.95-1.951V5H31.435v12.685a2.52 2.52 0 01-2.09 2.483l-1.052.181-22.63 3.888a.8.8 0 000 1.578L29.411 29.9a2.516 2.516 0 012.024 2.465v12.688H71.49V32.2a1.948 1.948 0 01.574-1.382z"/><g clip-path="url(#clip-path)"><path class="cls-4" d="M37.05 13.174l10.048-8.391a.465.465 0 00-.307-.823 11.978 11.978 0 00-7.517 2.992 8.015 8.015 0 00-2.988 5.858.465.465 0 00.764.364z"/><path class="cls-2" d="M37.923 11.329L42.44 7.29a.213.213 0 00-.157-.372 5.609 5.609 0 00-3.44 1.511 3.668 3.668 0 00-1.282 2.745.216.216 0 00.362.154z"/><path class="cls-4" d="M37.05 36.878l10.048 8.392a.465.465 0 01-.307.822 11.978 11.978 0 01-7.517-2.992 8.015 8.015 0 01-2.988-5.857.465.465 0 01.764-.365z"/><path class="cls-2" d="M37.923 38.724l4.517 4.038a.213.213 0 01-.157.372 5.609 5.609 0 01-3.44-1.512 3.668 3.668 0 01-1.282-2.745.216.216 0 01.362-.153z"/><path class="cls-1" d="M187.903 50.054c-5.959 0-9.325-1.416-15.435-3.986-3.575-1.504-8.473-3.564-15.86-6.167-12.188-4.298-29.074-4.796-40.714-4.796-3.324 0-6.414.045-9.136.084-2.192.032-4.15.06-5.81.06H76.49v14.805H26.436V34.463l-21.62-3.72a5.8 5.8 0 01.005-11.434l21.615-3.714V0H76.49v14.802h24.457c1.662 0 3.621.028 5.813.06 2.724.038 5.815.083 9.141.083 11.639 0 28.52-.497 40.705-4.792 7.381-2.601 12.276-4.66 15.851-6.164C178.572 1.417 181.941 0 187.903 0c10.845 0 23.395 6.837 30.894 10.923 13.87 7.553 16.311 10.566 16.311 14.104 0 3.603-2.354 6.494-16.31 14.103-7.51 4.087-20.072 10.924-30.895 10.924z"/></g><path class="cls-4" d="M218.688 23.08a.722.722 0 11.736-.722.73.73 0 01-.736.722m0 .599a1.32 1.32 0 10-1.315-1.32 1.304 1.304 0 001.315 1.32M219.424 26.467a.736.736 0 11-.736-.722.73.73 0 01.736.722m-2.05 0a1.315 1.315 0 101.314-1.321 1.304 1.304 0 00-1.315 1.32M218.095 28.72v-.683h-.61v.683h-.824v.623h2.06a1.586 1.586 0 00.62-.12 1.29 1.29 0 00.69-.778l-.522-.308a1.036 1.036 0 01-.442.513.936.936 0 01-.362.069l-.2.001zM216.665 24.818a.405.405 0 000-.81.405.405 0 100 .81M217.484 24.107h2.457v.611h-2.457zM219.772 21.109v.086h-.03v-.205h.03v.085h.232v.034h-.232zM220.004 20.851l-.213.071h.213v.034h-.262v-.047l.223-.075-.223-.076v-.047h.262v.034h-.213l.213.072v.034z"/></g></g></svg>