<svg xmlns="http://www.w3.org/2000/svg" xmlns:xlink="http://www.w3.org/1999/xlink" viewBox="0 0 235.1084 50.0542"><defs><style>.cls-1{fill:none;}.cls-2{fill:#00afca;}.cls-3{clip-path:url(#clip-path);}.cls-4{fill:#fff;}</style><clipPath id="clip-path"><path class="cls-1" d="M72.06358,30.81719a1.94449,1.94449,0,0,1,1.37749-.56876h27.50575c11.88657,0,39.19233-1.45751,57.32214,4.93681,19.525,6.87864,21.578,9.86916,29.63419,9.86916,9.46929,0,21.36472-6.42984,28.50111-10.31352,11.62886-6.341,13.704-8.7672,13.704-9.71365,0-.95094-2.07514-3.38159-13.704-9.71368C209.26787,11.42542,197.37244,5,187.90315,5,179.847,5,177.794,7.98609,158.269,14.86919c-18.12981,6.38987-45.43557,4.93239-57.32214,4.93239H73.44107a1.94956,1.94956,0,0,1-1.95073-1.95074V5H31.436V17.68521a2.51928,2.51928,0,0,1-2.09039,2.48248l-1.05122.18139L5.66321,24.23721a.80063.80063,0,0,0,0,1.57749l23.74908,4.08647A2.51578,2.51578,0,0,1,31.436,32.36588V45.0544H71.49034V32.19914A1.94814,1.94814,0,0,1,72.06358,30.81719Z"/></clipPath></defs><title>アセット 5302</title><g id="レイヤー_2" data-name="レイヤー 2"><g id="レイヤー_2-2" data-name="レイヤー 2"><path class="cls-1" d="M187.90332,50.0542c-5.959,0-9.3252-1.416-15.43555-3.98633-3.57519-1.50391-8.47265-3.564-15.86035-6.167-12.1875-4.29834-29.07324-4.79541-40.71387-4.79541-3.32324,0-6.41308.04443-9.13574.08349-2.1914.03174-4.14941.05958-5.81054.05958h-24.457V50.0542H26.43555V34.46289L4.81543,30.74268a5.80085,5.80085,0,0,1,.00586-11.43409l21.61426-3.71338V0H76.49023V14.80176h24.457c1.66211,0,3.62109.02783,5.8125.05957,2.72461.03906,5.81543.08349,9.1416.08349,11.63867,0,28.52051-.49658,40.70508-4.7915,7.38085-2.60156,12.27539-4.66064,15.85058-6.16406C178.57227,1.417,181.94141,0,187.90332,0c10.84473,0,23.39453,6.8374,30.89356,10.92285C232.667,18.47559,235.1084,21.48877,235.1084,25.02734c0,3.60254-2.35449,6.49366-16.31055,14.103C211.28809,43.21729,198.72559,50.0542,187.90332,50.0542Z"/><path class="cls-2" d="M72.06358,30.81719a1.94449,1.94449,0,0,1,1.37749-.56876h27.50575c11.88657,0,39.19233-1.45751,57.32214,4.93681,19.525,6.87864,21.578,9.86916,29.63419,9.86916,9.46929,0,21.36472-6.42984,28.50111-10.31352,11.62886-6.341,13.704-8.7672,13.704-9.71365,0-.95094-2.07514-3.38159-13.704-9.71368C209.26787,11.42542,197.37244,5,187.90315,5,179.847,5,177.794,7.98609,158.269,14.86919c-18.12981,6.38987-45.43557,4.93239-57.32214,4.93239H73.44107a1.94956,1.94956,0,0,1-1.95073-1.95074V5H31.436V17.68521a2.51928,2.51928,0,0,1-2.09039,2.48248l-1.05122.18139L5.66321,24.23721a.80063.80063,0,0,0,0,1.57749l23.74908,4.08647A2.51578,2.51578,0,0,1,31.436,32.36588V45.0544H71.49034V32.19914A1.94814,1.94814,0,0,1,72.06358,30.81719Z"/><g class="cls-3"><path class="cls-4" d="M37.04993,13.17431,47.09781,4.7825a.46477.46477,0,0,0-.30656-.82222A11.97837,11.97837,0,0,0,39.27351,6.952a8.01493,8.01493,0,0,0-2.98778,5.85776A.46475.46475,0,0,0,37.04993,13.17431Z"/><path class="cls-2" d="M37.92277,11.32872l4.51772-4.03811a.21335.21335,0,0,0-.15729-.37208A5.60858,5.60858,0,0,0,38.84378,8.43a3.66792,3.66792,0,0,0-1.2827,2.74525A.21632.21632,0,0,0,37.92277,11.32872Z"/><path class="cls-4" d="M37.04993,36.87816,47.09781,45.27a.46477.46477,0,0,1-.30656.82222,11.97843,11.97843,0,0,1-7.51774-2.99175,8.01494,8.01494,0,0,1-2.98778-5.85777A.46475.46475,0,0,1,37.04993,36.87816Z"/><path class="cls-2" d="M37.92277,38.72375l4.51772,4.03812a.21335.21335,0,0,1-.15729.37208,5.60864,5.60864,0,0,1-3.43942-1.51145,3.66793,3.66793,0,0,1-1.2827-2.74526A.21632.21632,0,0,1,37.92277,38.72375Z"/><path class="cls-1" d="M187.90332,50.0542c-5.959,0-9.3252-1.416-15.43555-3.98633-3.57519-1.50391-8.47265-3.564-15.86035-6.167-12.1875-4.29834-29.07324-4.79541-40.71387-4.79541-3.32324,0-6.41308.04443-9.13574.08349-2.1914.03174-4.14941.05958-5.81054.05958h-24.457V50.0542H26.43555V34.46289L4.81543,30.74268a5.80085,5.80085,0,0,1,.00586-11.43409l21.61426-3.71338V0H76.49023V14.80176h24.457c1.66211,0,3.62109.02783,5.8125.05957,2.72461.03906,5.81543.08349,9.1416.08349,11.63867,0,28.52051-.49658,40.70508-4.7915,7.38085-2.60156,12.27539-4.66064,15.85058-6.16406C178.57227,1.417,181.94141,0,187.90332,0c10.84473,0,23.39453,6.8374,30.89356,10.92285C232.667,18.47559,235.1084,21.48877,235.1084,25.02734c0,3.60254-2.35449,6.49366-16.31055,14.103C211.28809,43.21729,198.72559,50.0542,187.90332,50.0542Z"/></g><path class="cls-4" d="M218.68848,23.0799a.72171.72171,0,1,1,.73562-.72158.72949.72949,0,0,1-.73562.72158m0,.599a1.3206,1.3206,0,1,0-1.31531-1.32057,1.3039,1.3039,0,0,0,1.31531,1.32057"/><path class="cls-4" d="M219.42406,26.4666a.73575.73575,0,1,1-.73557-.72162.72951.72951,0,0,1,.73557.72162m-2.05088,0a1.3153,1.3153,0,1,0,1.31531-1.32057,1.30394,1.30394,0,0,0-1.31531,1.32057"/><path class="cls-4" d="M218.09484,28.72035v-.683h-.61059v.683h-.82284v.62307h2.05881a1.58637,1.58637,0,0,0,.62161-.12095,1.28965,1.28965,0,0,0,.68966-.777l-.52252-.30859a1.036,1.036,0,0,1-.44212.513.93577.93577,0,0,1-.36146.06906c-.06364,0-.19992.00137-.19992.00137Z"/><path class="cls-4" d="M216.66486,24.81783a.40543.40543,0,0,0,0-.81075.40543.40543,0,1,0,0,.81075"/><rect class="cls-4" x="217.48422" y="24.10717" width="2.45673" height="0.61059"/><polygon class="cls-4" points="219.772 21.109 219.772 21.195 219.742 21.195 219.742 20.99 219.772 20.99 219.772 21.075 220.004 21.075 220.004 21.109 219.772 21.109"/><polygon class="cls-4" points="220.004 20.851 219.791 20.922 220.004 20.922 220.004 20.956 219.742 20.956 219.742 20.909 219.965 20.834 219.742 20.758 219.742 20.711 220.004 20.711 220.004 20.745 219.791 20.745 220.004 20.817 220.004 20.851"/></g></g></svg>