<svg xmlns="http://www.w3.org/2000/svg" viewBox="0 0 75 75"><defs><style>.cls-3{fill:#fff}</style></defs><g id="レイヤー_2" data-name="レイヤー 2"><g id="レイヤー_2-2" data-name="レイヤー 2"><g id="CIRCLE"><circle cx="37.5" cy="37.5" r="37.5" fill="none"/><path d="M5 37.5A32.5 32.5 0 1137.5 70 32.5 32.5 0 015 37.5z" fill="#c7d932"/></g><path class="cls-3" d="M23.503 16.167a4.702 4.702 0 001.57 1.086l-.39.564a5.419 5.419 0 01-1.583-1.176 4.996 4.996 0 01-1.759 1.18l-.346-.52a4.186 4.186 0 002.513-2.528H21.45v-.564h2.926a4.862 4.862 0 01-.873 1.958zM28.214 17.76c-.27 0-.616-.005-.792-.014-.815-.052-1.161-.413-1.161-1.147v-2.642h.668v1.451a8.633 8.633 0 002.158-.668l.265.574a11.755 11.755 0 01-2.423.668v.536c0 .432.081.545.54.597.12.015.432.029.617.033.176 0 .365 0 .574-.009.256-.004.512-.024.75-.043v.626c-.385.033-.783.038-1.196.038zm1-3.12a.571.571 0 11.574-.573.57.57 0 01-.573.573zm.006-.853a.282.282 0 10.28.284.282.282 0 00-.28-.284zM30.635 16.229v-.669H34.4v.669zM36.214 17.836v-4.059h.654v1.37a11.616 11.616 0 012.157 1.015l-.36.579a8.859 8.859 0 00-1.797-.91v2.005zm1.991-3.03a2.975 2.975 0 00-.355-.801l.36-.18a3.144 3.144 0 01.398.81zm.678-.275a2.693 2.693 0 00-.37-.763l.36-.195a3.196 3.196 0 01.404.792zM41.034 15.726a5.886 5.886 0 01-.645.678l-.455-.417a5.772 5.772 0 001.494-2.148h.663c-.047.142-.104.289-.166.431h1.703a4.069 4.069 0 01-2.59 3.6l-.317-.49a3.212 3.212 0 001.399-.947 5.961 5.961 0 00-1.086-.707zm1.432.218a3.468 3.468 0 00.417-1.124H41.65c-.085.152-.18.304-.28.45a7.84 7.84 0 011.096.674zm.825-1.716a2.518 2.518 0 00-.318-.626l.341-.17a2.328 2.328 0 01.351.635zm.692.019a2.22 2.22 0 00-.308-.655l.337-.18a2.386 2.386 0 01.346.674zM46.129 17.846l-.256-.574a1.986 1.986 0 001.996-2.19h-2.167v1.08h-.668v-1.645h1.37V13.7h.678v.816h1.522c-.057 1.934-.583 3.04-2.475 3.329zM51.21 15.527a5.915 5.915 0 00-1.385-.892l.39-.54a6.927 6.927 0 011.431.84zm-1.034 2.214l-.208-.635a3.652 3.652 0 003.096-2.238l.498.465a4.208 4.208 0 01-3.386 2.408z"/><rect class="cls-3" x="23.478" y="52.109" width="28.044" height="1.898" rx=".949"/><path class="cls-3" d="M26.289 41.187v-5.984L37.5 42.447l11.211-7.244v5.984L37.5 48.43l-11.211-7.243z"/><path class="cls-3" d="M37.5 36.463l-11.211-7.244v-5.984L37.5 30.479l11.211-7.244v5.984L37.5 36.463zM39.233 65.443a.642.642 0 11.642.655.649.649 0 01-.642-.655m-.533 0a1.175 1.175 0 101.175-1.17 1.16 1.16 0 00-1.175 1.17M36.22 66.098a.655.655 0 11.641-.655.65.65 0 01-.642.655m0-1.825a1.17 1.17 0 101.175 1.17 1.16 1.16 0 00-1.175-1.17M34.214 64.915h.608v-.543h-.608v-.732h-.554v1.831a1.412 1.412 0 00.107.553 1.147 1.147 0 00.692.614l.274-.465a.922.922 0 01-.456-.393.832.832 0 01-.062-.322v-.178zM37.686 63.643a.36.36 0 00.722 0 .36.36 0 10-.722 0M37.775 64.372h.543v2.186h-.543zM40.987 66.407h-.077v-.026h.182v.026h-.076v.206h-.029v-.206zM41.216 66.613l-.064-.189v.189h-.03v-.232h.042l.067.198.067-.198h.042v.232h-.03v-.189l-.064.189h-.03z"/></g></g></svg>