<svg xmlns="http://www.w3.org/2000/svg" viewBox="0 0 172.606 71.58"><defs><style>.cls-2{fill:#ea6350}.cls-3{fill:#fff}</style></defs><g id="レイヤー_2" data-name="レイヤー 2"><g id="レイヤー_2-2" data-name="レイヤー 2"><path d="M138.428 71.58a47.777 47.777 0 01-4.872-.256c-16.059-1.65-26.881-6.136-37.347-10.475l-2.558-1.058c-14.832-6.102-16.53-6.22-27.36-6.223v7.247H16.236V51.61C6.022 50.26 0 44.46 0 35.79c0-8.17 5.581-14.01 14.93-15.623.42-.072.858-.138 1.306-.195v-9.21h50.055v7.248c10.827-.002 12.526-.121 27.36-6.223l2.6-1.074C106.707 6.38 117.519 1.9 133.557.256a47.768 47.768 0 014.87-.256c10.59 0 19.459 3.785 25.645 10.945 5.504 6.37 8.534 15.192 8.534 24.843 0 9.653-3.03 18.478-8.53 24.847-6.186 7.16-15.055 10.945-25.645 10.945z" fill="none"/><path class="cls-2" d="M95.554 55.167c11.295 4.648 21.92 9.478 38.512 11.184 22.29 2.289 33.54-12.886 33.54-30.563 0-17.672-11.25-32.847-33.54-30.558-16.592 1.702-27.217 6.536-38.512 11.18-15.664 6.443-17.868 6.598-29.919 6.598h-2.393a1.95 1.95 0 01-1.95-1.95V15.76H21.236v6.461a2.528 2.528 0 01-2.382 2.514c-.107.007-.21.017-.316.025l-.33.027c-.353.03-.7.064-1.038.105-.477.057-.943.122-1.391.2C8.595 26.333 5 30.208 5 35.79c0 6.326 4.623 10.46 13.86 11.054a2.528 2.528 0 012.377 2.514v6.458H61.29V50.52a1.95 1.95 0 011.95-1.951h2.394c12.051 0 14.255.155 29.919 6.599z"/><ellipse class="cls-3" cx="28.766" cy="31.221" rx="2.68" ry="3.579"/><ellipse class="cls-2" cx="28.766" cy="31.221" rx="1.4" ry="1.87"/><ellipse class="cls-3" cx="28.766" cy="40.358" rx="2.68" ry="3.579"/><ellipse class="cls-2" cx="28.766" cy="40.358" rx="1.4" ry="1.87"/><path class="cls-3" d="M162.485 33.843a.722.722 0 11.735-.722.73.73 0 01-.735.722m0 .6a1.32 1.32 0 10-1.316-1.321 1.304 1.304 0 001.316 1.32M163.22 37.23a.736.736 0 11-.735-.722.73.73 0 01.735.722m-2.05 0a1.315 1.315 0 101.315-1.32 1.304 1.304 0 00-1.316 1.32M161.89 39.484V38.8h-.61v.683h-.823v.623h2.06a1.587 1.587 0 00.62-.121 1.29 1.29 0 00.69-.777l-.522-.309a1.036 1.036 0 01-.442.513.936.936 0 01-.362.07h-.2zM160.46 35.581a.405.405 0 000-.81.405.405 0 100 .81M161.28 34.87h2.457v.611h-2.457zM163.568 31.872v.086h-.03v-.205h.03v.085h.232v.034h-.232zM163.8 31.614l-.213.071h.213v.035h-.262v-.048l.223-.075-.223-.075v-.048h.262v.034h-.213l.213.072v.034z"/></g></g></svg>