<svg xmlns="http://www.w3.org/2000/svg" viewBox="0 0 75 75"><defs><style>.cls-3{fill:#fff}</style></defs><g id="レイヤー_2" data-name="レイヤー 2"><g id="レイヤー_2-2" data-name="レイヤー 2"><g id="CIRCLE"><circle cx="37.5" cy="37.5" r="37.5" fill="none"/><path d="M5 37.5A32.5 32.5 0 1137.5 70 32.5 32.5 0 015 37.5z" fill="#c7d932"/></g><path class="cls-3" d="M27.793 17.708l-.55-.398a4.564 4.564 0 001.143-3.04h.668a5.61 5.61 0 01-1.261 3.438zm3.181 0a5.601 5.601 0 01-1.28-3.437h.673a4.282 4.282 0 001.172 2.958zm.133-3.034a.571.571 0 010-1.143.571.571 0 110 1.143zm.005-.854a.285.285 0 10.28.285.282.282 0 00-.28-.285zM32.746 17.537v-.64h3.812v.64zm.47-2.526v-.64h2.868v.64zM38.747 16.385a7.736 7.736 0 00-.413-1.242l.513-.199a8.369 8.369 0 01.474 1.233zm.446 1.499l-.309-.498a2.374 2.374 0 001.892-2.485h.617a2.97 2.97 0 01-2.2 2.983zm.526-1.65a7.08 7.08 0 00-.408-1.238l.517-.204a8.26 8.26 0 01.465 1.233zM44.966 14.342h1.797c-.341 1.83-1.095 3.001-2.512 3.513l-.318-.516a3.052 3.052 0 001.991-2.423h-1.257a5.897 5.897 0 01-1.109 1.38l-.474-.418a4.967 4.967 0 001.39-2.044h.687c-.057.171-.124.342-.195.508zM37.433 22.793c-7.77 0-10.27 3.528-10.27 7.279v.982a2.858 2.858 0 002.857 2.858h.134a2.86 2.86 0 002.858-2.86q.002-3.347 4.421-3.347c2.903 0 4.421 1.117 4.421 3.35v1.339a2.889 2.889 0 01-1.697 2.724l-4.108 2.099c-1.384.67-2.813 1.518-2.813 4.019v1.518a2.631 2.631 0 00.123.797 3.012 3.012 0 005.782 0 2.631 2.631 0 00.123-.797c0-1.429.625-1.92 1.876-2.5l2.545-1.162c1.83-.803 4.153-2.634 4.153-6.921v-2.1c-.044-3.75-2.635-7.278-10.405-7.278z"/><circle class="cls-3" cx="36.25" cy="51.435" r="3.014"/><path class="cls-3" d="M39.233 65.443a.642.642 0 11.642.655.649.649 0 01-.642-.655m-.533 0a1.175 1.175 0 101.175-1.17 1.16 1.16 0 00-1.175 1.17M36.22 66.098a.655.655 0 11.641-.655.65.65 0 01-.642.655m0-1.825a1.17 1.17 0 101.175 1.17 1.16 1.16 0 00-1.175-1.17M34.214 64.915h.608v-.543h-.608v-.732h-.554v1.831a1.412 1.412 0 00.108.553 1.147 1.147 0 00.69.614l.275-.465a.922.922 0 01-.456-.393.833.833 0 01-.062-.322v-.178zM37.686 63.643a.36.36 0 00.722 0 .36.36 0 10-.722 0M37.775 64.372h.543v2.186h-.543zM40.987 66.407h-.077v-.026h.182v.026h-.076v.206h-.029v-.206zM41.216 66.613l-.063-.189v.189h-.031v-.232h.042l.067.198.067-.198h.042v.232h-.03v-.189l-.064.189h-.03z"/></g></g></svg>