<svg xmlns="http://www.w3.org/2000/svg" viewBox="0 0 214.063 55.093"><defs><style>.cls-2{fill:#c7d932}.cls-3{fill:#fff}</style></defs><g id="レイヤー_2" data-name="レイヤー 2"><g id="レイヤー_2-2" data-name="レイヤー 2"><path d="M176.034 55.093c-10.614 0-21.198-3.497-40.411-9.846l-2.85-.941c-13.123-4.329-24.237-4.681-36.375-4.681q-2.625 0-5.36.017-2.899.014-5.951.019H68.52v12.913H18.466V38.286L4.478 33.718a6.49 6.49 0 01-.003-12.34l13.99-4.568V2.52h50.056v12.917h16.566c2.039 0 4.018.01 5.95.019 1.827.008 3.61.017 5.361.017 12.138 0 23.252-.352 36.375-4.682l2.927-.966C154.872 3.49 165.434 0 176.034 0c10.884 0 21.17 7.318 26.333 11.68 7.76 6.563 11.695 11.9 11.695 15.867s-3.934 9.304-11.693 15.864c-5.165 4.364-15.451 11.682-26.335 11.682z" fill="none"/><path class="cls-2" d="M64.094 35.23a1.944 1.944 0 011.377-.57h19.616c18.44 0 32.052-.777 49.253 4.898 20.587 6.794 31.398 10.535 41.694 10.535 8.26 0 16.885-5.243 23.106-10.5 8.599-7.27 9.923-10.975 9.923-12.046 0-1.067-1.324-4.777-9.923-12.047C192.92 10.243 184.294 5 176.034 5c-10.296 0-21.107 3.746-41.694 10.54-17.201 5.675-30.812 4.897-49.253 4.897H65.471a1.95 1.95 0 01-1.95-1.95V7.518H23.466V18.61a2.519 2.519 0 01-1.737 2.395l-1.46.476-3.624 1.183L6.03 26.13a1.49 1.49 0 000 2.835l14.026 4.579 1.673.547a2.519 2.519 0 011.737 2.395v11.088h40.055V36.612a1.948 1.948 0 01.573-1.382z"/><path class="cls-3" d="M30.876 20.501l5.064-9.231a.843.843 0 00-.912-1.23 8.492 8.492 0 00-5.87 4.094 5.788 5.788 0 00.282 6.436.844.844 0 001.436-.069z"/><path class="cls-2" d="M31.144 17.995l1.847-3.634a.517.517 0 00-.638-.71 3.724 3.724 0 00-2.23 1.81 2.438 2.438 0 00.095 2.575.54.54 0 00.926-.041z"/><path class="cls-3" d="M30.876 34.594l5.064 9.232a.843.843 0 01-.912 1.23 8.492 8.492 0 01-5.87-4.094 5.788 5.788 0 01.282-6.436.844.844 0 011.436.068z"/><path class="cls-2" d="M31.144 37.101l1.847 3.634a.517.517 0 01-.638.71 3.724 3.724 0 01-2.23-1.81 2.438 2.438 0 01.095-2.575.54.54 0 01.926.041z"/><path class="cls-3" d="M200.162 25.6a.722.722 0 11.736-.722.73.73 0 01-.736.721m0 .6a1.32 1.32 0 10-1.315-1.321 1.304 1.304 0 001.315 1.32m.736 2.788a.736.736 0 11-.736-.722.73.73 0 01.736.722m-2.051 0a1.315 1.315 0 101.315-1.32 1.304 1.304 0 00-1.315 1.32m.722 2.254v-.683h-.611v.683h-.823v.623h2.059a1.587 1.587 0 00.622-.121 1.29 1.29 0 00.69-.777l-.523-.309a1.036 1.036 0 01-.442.513.936.936 0 01-.362.07h-.2zm-1.43-3.903a.405.405 0 000-.81.405.405 0 100 .81m.819-.71h2.457v.611h-2.457zm2.288-2.999v.086h-.03v-.205h.03v.086h.232v.033h-.232zm.232-.258l-.213.072h.213v.034h-.262v-.048l.222-.075-.222-.075v-.048h.262v.035h-.213l.213.071v.034z"/></g></g></svg>