<svg xmlns="http://www.w3.org/2000/svg" viewBox="0 0 75 75"><defs><style>.cls-1{fill:none;}.cls-2{fill:#c7d932;}.cls-3{fill:#fff;}</style></defs><title>アセット 4702</title><g id="レイヤー_2" data-name="レイヤー 2"><g id="レイヤー_2-2" data-name="レイヤー 2"><g id="CIRCLE"><circle class="cls-1" cx="37.5" cy="37.5" r="37.5"/><path class="cls-2" d="M5.0001,37.5a32.5,32.5,0,1,1,32.5,32.5,32.5,32.5,0,0,1-32.5-32.5Z"/></g><path class="cls-3" d="M23.50312,16.16688a4.70235,4.70235,0,0,0,1.56945,1.08607l-.3888.56407A5.41851,5.41851,0,0,1,23.1,16.641a4.99659,4.99659,0,0,1-1.759,1.18066l-.34632-.52161a4.186,4.186,0,0,0,2.513-2.52733H21.4499v-.56408h2.92578A4.86244,4.86244,0,0,1,23.50312,16.16688Z"/><path class="cls-3" d="M28.21417,17.76027c-.27027,0-.61659-.005-.79187-.01429-.81542-.05212-1.16174-.41273-1.16174-1.14745V13.9573h.6687v1.45092a8.63267,8.63267,0,0,0,2.15747-.66832l.26562.57373a11.75571,11.75571,0,0,1-2.42309.66832v.53589c0,.43164.0807.54515.54053.59727.11853.01429.43126.02857.61619.03321.17567,0,.36524,0,.57373-.00927.25636-.00463.51234-.02394.7494-.04285V17.722C29.025,17.75525,28.62651,17.76027,28.21417,17.76027Zm1.00035-3.12a.57141.57141,0,1,1,.57373-.57373A.56992.56992,0,0,1,29.21452,14.64029Zm.005-.85364a.282.282,0,1,0,.27953.28454A.28212.28212,0,0,0,29.21954,13.78665Z"/><path class="cls-3" d="M30.63494,16.22866V15.56h3.76513v.66871Z"/><path class="cls-3" d="M36.21392,17.83594V13.777h.65441v1.37062a11.61617,11.61617,0,0,1,2.15708,1.01464l-.36022.57836a8.85852,8.85852,0,0,0-1.79686-.9104v2.00573Zm1.99144-3.03a2.97493,2.97493,0,0,0-.35559-.80113l.36022-.18031a3.14379,3.14379,0,0,1,.39844.81079Zm.678-.27489a2.69335,2.69335,0,0,0-.36987-.7633l.36022-.19459a3.19627,3.19627,0,0,1,.40307.79187Z"/><path class="cls-3" d="M42.56082,16.27113l-.32239-.50231a1.40353,1.40353,0,0,0,.95751-1.0907H40.12808v-.56446h3.88366A2.41886,2.41886,0,0,1,42.56082,16.27113Zm-1.74512,1.5791-.33165-.512c.915-.34168,1.0714-.80152,1.0714-1.70728v-.64477h.66407V15.636A2.0141,2.0141,0,0,1,40.8157,17.85023Z"/><path class="cls-3" d="M45.62636,16.385a7.71444,7.71444,0,0,0-.41234-1.24243l.51195-.19884a8.325,8.325,0,0,1,.47412,1.23278Zm.44593,1.49841-.30848-.498A2.37433,2.37433,0,0,0,47.656,14.9009h.61619A2.97,2.97,0,0,1,46.07229,17.88343Zm.52624-1.65014a7.096,7.096,0,0,0-.40771-1.23741l.51659-.20386a8.24088,8.24088,0,0,1,.46485,1.23278Z"/><path class="cls-3" d="M50.38027,17.79347l-.31312-.57373a2.53643,2.53643,0,0,0,2.25707-2.29027H49.69264V14.3318h3.15319a.56366.56366,0,1,1,.44091.21351.4977.4977,0,0,1-.17065-.02857C52.86938,16.31861,52.0918,17.4236,50.38027,17.79347Zm2.9111-4.08752a.27741.27741,0,1,0,.27528.27529A.27637.27637,0,0,0,53.29137,13.706Z"/><rect class="cls-3" x="23.47819" y="52.1086" width="28.04381" height="1.8977" rx="0.94885"/><polygon class="cls-3" points="48.711 30.479 48.711 36.463 37.5 29.219 26.289 36.463 26.289 30.479 37.5 23.235 48.711 30.479"/><polygon class="cls-3" points="37.5 35.203 48.711 42.446 48.711 48.43 37.5 41.187 26.289 48.43 26.289 42.446 37.5 35.203"/><path class="cls-3" d="M39.23266,65.44307a.64212.64212,0,1,1,.642.65449.649.649,0,0,1-.642-.65449m-.53293,0a1.175,1.175,0,1,0,1.17493-1.17026,1.1601,1.1601,0,0,0-1.17493,1.17026"/><path class="cls-3" d="M36.21945,66.09753a.65461.65461,0,1,1,.642-.65446.64907.64907,0,0,1-.642.65446m0-1.82471a1.17025,1.17025,0,1,0,1.17493,1.17025,1.16013,1.16013,0,0,0-1.17493-1.17025"/><path class="cls-3" d="M34.21423,64.91489h.6077v-.54326h-.6077v-.73209h-.55435v1.83177a1.41172,1.41172,0,0,0,.1076.55306,1.14749,1.14749,0,0,0,.6913.6136l.27457-.46489a.92166.92166,0,0,1-.45645-.39337.8324.8324,0,0,1-.06145-.32159c0-.05663-.00122-.17788-.00122-.17788Z"/><path class="cls-3" d="M37.68638,63.64261a.36073.36073,0,0,0,.72135,0,.36072.36072,0,1,0-.72135,0"/><rect class="cls-3" x="37.77542" y="64.37161" width="0.54326" height="2.1858"/><polygon class="cls-3" points="40.987 66.407 40.91 66.407 40.91 66.381 41.092 66.381 41.092 66.407 41.016 66.407 41.016 66.613 40.987 66.613 40.987 66.407"/><polygon class="cls-3" points="41.216 66.613 41.152 66.424 41.152 66.613 41.122 66.613 41.122 66.381 41.164 66.381 41.231 66.578 41.298 66.381 41.34 66.381 41.34 66.613 41.31 66.613 41.31 66.424 41.246 66.613 41.216 66.613"/></g></g></svg>