<svg xmlns="http://www.w3.org/2000/svg" viewBox="0 0 555 410"><defs><style>.cls-3{fill:#666}.cls-4{fill:#b3b3b3}</style></defs><g id="レイヤー_2" data-name="レイヤー 2"><g id="レイヤー_1-2" data-name="レイヤー 1"><path fill="#fff" d="M0 0h555v410H0z"/><path fill="none" d="M63.65 0h427.7v406.2H63.65z"/><path class="cls-3" d="M87.55 277.8l-7.5 1.3 7.5 1.3v2.7l-9.2 2V283l7.5-1.3-7.5-1.2v-2.8l7.5-1.1-7.5-1.3v-2l9.2 2zM78.05 271.8V270h3.6a2.305 2.305 0 01-1.1-2 2.35 2.35 0 012.2-2.5h4.8v1.8h-3.8c-1.1 0-1.8.3-1.8 1.3 0 .7.5 1.5 1.9 1.5h3.7v1.8zM84.65 257.5v4.7a1.943 1.943 0 001.7-2.2 4.146 4.146 0 00-.3-1.6l1.3-.2a7.612 7.612 0 01.3 2.1c0 2.4-1.5 3.9-3.5 3.9a3.413 3.413 0 01-3.6-3v-.4c0-2 1.3-3.1 3.4-3.1h.7zm-2.8 3.1a1.58 1.58 0 001.6 1.6v-3a1.383 1.383 0 00-1.6 1.2zM84.65 249.9v4.7a1.943 1.943 0 001.7-2.2 4.146 4.146 0 00-.3-1.6l1.3-.2a7.612 7.612 0 01.3 2.1c0 2.4-1.5 3.8-3.5 3.8a3.413 3.413 0 01-3.6-3v-.4c0-2 1.3-3.1 3.4-3.1h.7zm-2.8 3.1a1.58 1.58 0 001.6 1.6v-3a1.383 1.383 0 00-1.6 1.2v.2zM78.05 248.4v-1.8h9.5v1.8zM78.55 232.7l1.5.3a6.448 6.448 0 00-.3 2c0 .7.2 1.5 1 1.5.6 0 1-.5 1.5-1.7.6-1.5 1.2-2.6 2.9-2.6 1.8 0 2.7 1.6 2.7 3.4a8.676 8.676 0 01-.5 2.8l-1.5-.3a6.874 6.874 0 00.5-2.4c0-1-.4-1.6-1.1-1.6s-1 .6-1.5 1.8c-.6 1.5-1.3 2.5-2.7 2.5-1.9 0-2.7-1.7-2.7-3.2a4.234 4.234 0 01.2-2.5zM86.75 228.9h3.3v1.8h-9.3v-1.8h.9a2.512 2.512 0 01-1-2.1c0-1.9 1.6-2.9 3.6-2.9s3.6 1.1 3.6 2.9a3.327 3.327 0 01-1.1 2.1zm-2.6-3.1c-1.2 0-2.2.5-2.2 1.5s.9 1.7 2.2 1.7 2.2-.6 2.2-1.7-1-1.5-2.2-1.5zM84.65 216.3v4.7a1.943 1.943 0 001.7-2.2 4.146 4.146 0 00-.3-1.6l1.3-.2a7.612 7.612 0 01.3 2.1c0 2.4-1.5 3.9-3.5 3.9a3.413 3.413 0 01-3.6-3v-.4c0-2 1.3-3.1 3.4-3.1h.7zm-2.8 3.1a1.58 1.58 0 001.6 1.6v-3a1.383 1.383 0 00-1.6 1.2v.2zM84.65 208.6v4.7a1.943 1.943 0 001.7-2.2 4.146 4.146 0 00-.3-1.6l1.3-.2a7.612 7.612 0 01.3 2.1c0 2.4-1.5 3.8-3.5 3.8a3.413 3.413 0 01-3.6-3v-.4c0-2 1.3-3.1 3.4-3.1h.7zm-2.8 3.2a1.58 1.58 0 001.6 1.6v-3a1.383 1.383 0 00-1.6 1.2zM81.45 202.5h-3.4v-1.8h9.5v1.8h-.9a2.512 2.512 0 011 2.1c0 1.9-1.6 2.9-3.6 2.9s-3.6-1.1-3.6-2.9a3.456 3.456 0 011-2.1zm2.7 3.2c1.2 0 2.2-.5 2.2-1.5s-.9-1.7-2.2-1.7-2.2.6-2.2 1.7.9 1.5 2.2 1.5zM87.55 197l-9.2-4.2v-1.5l9.2 4.2zM82.75 185.8a19.198 19.198 0 011.5 1.4l-1.1 1.2a13.183 13.183 0 00-5.4-3.6v-1.7c.4.1.8.3 1.2.4v-4.4c4.6.6 7.9 2.5 9.3 6.4l-1.3.8a8.919 8.919 0 00-2.3-3.4 18.081 18.081 0 00-1.9 2.9zm.6-3.7a7.61 7.61 0 00-3-1v3.2a8.341 8.341 0 011.2.8 17.003 17.003 0 011.8-3zM88.15 171.6h-5.1a20.069 20.069 0 011.9 3.9l-1.4.8a19.752 19.752 0 00-5.6-8.3l1.1-1.3a16.95 16.95 0 012.9 3.1h6.2zM88.25 160.2l-6.1 1.4.4 2.8-1.5.2-.3-2.7-2.7.6-.3-1.7 2.8-.6-.9-6.2a8.882 8.882 0 015.7 2.8l-1 1.3a4.97 4.97 0 00-2.9-2l.5 3.7 5.9-1.3zM87.75 150.8h.6v1.5h-10.3v-10h10.4v1.6h-.6v6.9zm-1.4-6.9h-6.8v6.9h6.8zm-5.8 1h4.8v4.9h-4.8zm3.4 3.5v-2.1h-2.1v2.1zM85.15 138.9h-.5v1.7h-4.4v-1.7h-.6v1.9h-1.3v-1.9h-1v-1.5h1v-2h1.3v2h.5v-1.8h4.5v1.8h.5v-2h1.3v2h2.1v1.5h-2.1v2h-1.3zm-7.3-8.8h1.5v5h-1.5zm8.9 4.7c-1.4-.3-2.9-.6-4.1-.8v1.2h-1.5v-5.6h1.5v2.7a30.984 30.984 0 013.9.9 11.135 11.135 0 01-.2-1.7 12.199 12.199 0 00-1.7.7l-.4-1.3a16.418 16.418 0 013.9-1.4l.5 1.5a3.553 3.553 0 00-1 .2 37.719 37.719 0 01.7 4l-1.4.4c-.1-.1-.1-.4-.2-.8zm-4.8 2.1h-.5v.6h.5zm0 2.4v-.6h-.5v.6zm1.5-2.4h-.5v.6h.5zm0 2.4v-.6h-.5v.6zM86.65 124.8l-1.2.9a8.39 8.39 0 00-1.8-2.8v2.2h-3.5v-2.6h-.6v3h-1.2v-3h-.9V121h.9v-3.3h1.2v3.3h.6v-2.7h3.5v2.3a7.171 7.171 0 001.7-2.9l1.4 1a10.766 10.766 0 01-1.8 2.4h1.8v1.6h-1.7a11.602 11.602 0 011.6 2.1zm-9.1 2.8a9.516 9.516 0 012.1-1.9c.3.5.6.9.9 1.4a8.68 8.68 0 00-2.2 1.7zm4.8-7.8h-1.1v1.2h1.1zm0 3.9v-1.1h-1.1v1.1zm4.6 0v-6.1l1.5.3v6.1a3.864 3.864 0 01-1.1 2.7 10.99 10.99 0 011.4 1.8l-1.6.7a8.636 8.636 0 00-1-1.6h-2.6v1.4h-1.4v-2.9h3.8a2.913 2.913 0 001-2.4zM80.45 112.8h-.6v-1.5h.6v-1.8h-.6V108h.6v-2.3h1.2v2.3h1.8v4.8h-1.8v1.6a19.889 19.889 0 016.8 1.2l-.8 1.4a16.104 16.104 0 00-6.5-1h-2.8v-4.3h-1v-1.6h1v-4.4h1.3v8.8h.8zm1.2-1.4h.6v-1.8h-.6zm5.7-5.8l1.3.9a17.386 17.386 0 01-1.1 3.9 15 15 0 011.1 3.6l-1.2.9a15.944 15.944 0 00-.6-3 4.894 4.894 0 01-1.2 1.3l-.5-1.1v2.1h-1.2v-6l.4-1.1a5.662 5.662 0 012.4 1.9 18.575 18.575 0 00.6-3.4zm-1.3 4.9a10.627 10.627 0 00-.9-1.1v2.5a8.05 8.05 0 00.9-1.4zM218.05 398.7v-9.2h1.9v9.2zM221.85 391.9h1.8v.9a2.533 2.533 0 014.6 1.1v4.8h-1.8v-3.8c0-1.1-.3-1.8-1.3-1.8-.7 0-1.5.5-1.5 1.9v3.7h-1.8zM231.85 397.9v3.3h-1.8v-9.3h1.8v.9a2.512 2.512 0 012.1-1c1.9 0 2.9 1.6 2.9 3.6s-1.1 3.6-2.9 3.6a3.094 3.094 0 01-2.1-1.1zm3.1-2.6c0-1.2-.5-2.2-1.5-2.2s-1.7.9-1.7 2.2.6 2.2 1.7 2.2 1.5-1 1.5-2.2zM244.65 398.7h-1.8v-.9a2.533 2.533 0 01-4.6-1.1v-4.8h1.8v3.8c0 1.1.3 1.8 1.3 1.8.7 0 1.5-.5 1.5-1.9v-3.7h1.8zM245.65 393.2v-1.4h1V390h1.8v1.8h1.4v1.4h-1.4v3c0 .9.1 1.1.8 1.1h.6v1.4c-.3 0-.8.1-1.2.1-1.7 0-2-.7-2-2v-3.5h-1zM262.05 389.6l-.3 1.5a6.447 6.447 0 00-2-.3c-.7 0-1.5.2-1.5 1 0 .6.5 1 1.7 1.5 1.5.6 2.6 1.2 2.6 2.9 0 1.8-1.6 2.7-3.4 2.7a8.676 8.676 0 01-2.8-.5l.3-1.5a6.874 6.874 0 002.4.5c1 0 1.6-.4 1.6-1.1s-.6-1-1.8-1.5c-1.5-.6-2.5-1.3-2.5-2.7 0-1.9 1.7-2.7 3.2-2.7a6.883 6.883 0 012.5.2zM266.05 397.9v3.3h-1.8v-9.3h1.8v.9a2.512 2.512 0 012.1-1c1.9 0 2.9 1.6 2.9 3.6s-1.1 3.6-2.9 3.6a3.094 3.094 0 01-2.1-1.1zm3.1-2.6c0-1.2-.5-2.2-1.5-2.2s-1.7.9-1.7 2.2.6 2.2 1.7 2.2 1.5-1 1.5-2.2zM278.65 395.8h-4.7a1.943 1.943 0 002.2 1.7 4.146 4.146 0 001.6-.3l.2 1.3a7.612 7.612 0 01-2.1.3c-2.4 0-3.9-1.5-3.9-3.5a3.413 3.413 0 013-3.6h.4c2 0 3.1 1.3 3.1 3.4v.7zm-3.1-2.9a1.58 1.58 0 00-1.6 1.6h3a1.383 1.383 0 00-1.2-1.6.138.138 0 01-.2 0zM286.25 395.8h-4.7a1.943 1.943 0 002.2 1.7 4.146 4.146 0 001.6-.3l.2 1.3a7.612 7.612 0 01-2.1.3c-2.4 0-3.8-1.5-3.8-3.5a3.413 3.413 0 013-3.6h.4c2 0 3.1 1.3 3.1 3.4v.7zm-3.1-2.9a1.58 1.58 0 00-1.6 1.6h3a1.383 1.383 0 00-1.2-1.6c-.1.1-.1 0-.2 0zM292.35 392.6v-3.4h1.8v9.5h-1.8v-.9a2.512 2.512 0 01-2.1 1c-1.9 0-2.9-1.6-2.9-3.6s1.1-3.6 2.9-3.6a3.215 3.215 0 012.1 1zm-3.1 2.7c0 1.2.5 2.2 1.5 2.2s1.7-.9 1.7-2.2-.6-2.2-1.7-2.2-1.5.9-1.5 2.2zM297.05 398.7l4.2-9.2h1.5l-4.2 9.2zM310.45 398.1h6.1l-.3 1.5h-6.1a3.864 3.864 0 01-2.7-1.1 10.99 10.99 0 01-1.8 1.4l-.7-1.6a8.636 8.636 0 001.6-1v-2.6h-1.4v-1.4h2.9v3.8a3.036 3.036 0 002.4 1zm-3.8-9.4a9.516 9.516 0 011.9 2.1c-.5.3-.9.6-1.4.9a8.68 8.68 0 00-1.7-2.2zm2.7 9.1l-.9-1.2a8.39 8.39 0 002.8-1.8h-2.2v-3.5h2.6v-.6h-3v-1.2h3v-.9h1.6v.9h3.3v1.2h-3.3v.6h2.7v3.5h-2.3a7.172 7.172 0 002.9 1.7l-1 1.4a10.766 10.766 0 01-2.4-1.8v1.8h-1.6v-1.7a12.452 12.452 0 01-2.2 1.6zm1.1-4.3h1.1v-1.1h-1.1zm3.9 0v-1.1h-1.2v1.1zM321.45 391.6v-.6h1.5v.6h1.8v-.6h1.5v.6h2.3v1.2h-2.3v1.8h-4.8v-1.8h-1.6a19.889 19.889 0 01-1.2 6.8l-1.4-.8a16.104 16.104 0 001-6.5v-2.8h4.3v-1h1.6v1h4.4v1.3h-8.8v.8zm7.2 6.9l-.9 1.3a17.387 17.387 0 01-3.9-1.1 15.001 15.001 0 01-3.6 1.1l-.9-1.2a15.943 15.943 0 003-.6 4.894 4.894 0 01-1.3-1.2l1.1-.5h-2.1v-1.2h6l1.1.4a5.662 5.662 0 01-1.9 2.4 22.132 22.132 0 003.4.6zm-4.8-1.3a10.63 10.63 0 001.1-.9h-2.5a5.507 5.507 0 001.4.9zm-.9-4.4v.6h1.8v-.6zM330.95 394.1V392h-1.4v-1.4h1.4v-2h1.5v2h.9v1.4h-.9v1.6l.9-.3c0 .5.1.9.1 1.4a7.598 7.598 0 00-1.1.4v3.1c0 .9-.2 1.3-1 1.5a3.295 3.295 0 01-1.4 0l-.3-1.5h.9a.265.265 0 00.3-.3v-2.3a8.338 8.338 0 00-1.2.4l-.3-1.6c.4-.1 1-.2 1.6-.3zm9.2-4a20.653 20.653 0 01-4.9 1.2c0 .6.2.7.8.8h2.4c.7 0 .7-.1.8-.9l1.5.3c-.2 1.8-.5 2.1-2.1 2.1h-2.6c-1.8 0-2.2-.4-2.2-2.1v-2.9h1.5v1.5a14.648 14.648 0 004.1-1.1zm-4.7 9.3v.4h-1.5V394h6.1v5.7h-1.6v-.4h-3zm3-3.3v-.7h-3v.7zm0 1.9v-.7h-3v.7zM345.45 394.4a13.292 13.292 0 01-2.5 4.1l-1.5-.7a11.947 11.947 0 002.5-3.8zm2.5 3.8c0 .9-.3 1.4-1 1.5a5.437 5.437 0 01-1.8 0l-.3-1.6a5.652 5.652 0 001.3 0 .265.265 0 00.3-.3v-4.4h-4.8V392h11v1.5h-4.7zm3.6-9.2v1.5h-8.8V389zm-1.4 4.8a26.026 26.026 0 012.7 3.8l-1.5.9a20.38 20.38 0 00-2.6-3.9zM356.55 399.7h-1.5v-5.2a8.794 8.794 0 00-.6 1l-1-1.2a16.745 16.745 0 002.5-5.8l1.6.3a18.288 18.288 0 01-.8 2.5zm8.1-1.8v1.4h-6v.4h-1.5v-7.3h1.5v5.5zm-4.8-6.2c0-.2.1-.4.1-.6h-2.7v-1.4h3a4.868 4.868 0 00.1-1.2l1.7.1a5.16 5.16 0 01-.2 1.1h2.9v1.4h-3.1c0 .2-.1.4-.1.6h2.6v5.8h-4.9v-5.8zm.6 1.6h2v-.5h-2zm0 1.5h2v-.5h-2zm0 1.5h2v-.5h-2z"/><path class="cls-4" d="M369.61 106.377a1.5 1.5 0 01-.01-3h.01a1.5 1.5 0 010 3zm-6.01 0a1.5 1.5 0 01-.01-3h.01a1.5 1.5 0 010 3zm-6.01 0a1.5 1.5 0 01-.01-3h.01a1.5 1.5 0 010 3zm-6.01 0a1.5 1.5 0 01-.01-3h.01a1.5 1.5 0 010 3zm-6.01 0a1.5 1.5 0 01-.01-3h.01a1.5 1.5 0 010 3zm-6.01 0a1.5 1.5 0 01-.01-3h.01a1.5 1.5 0 010 3zm-6.01 0a1.5 1.5 0 01-.01-3h.01a1.5 1.5 0 010 3zm-6.01 0a1.5 1.5 0 01-.01-3h.01a1.5 1.5 0 010 3zm-6.01 0a1.5 1.5 0 11-.01-3h.01a1.5 1.5 0 010 3zm-6.01 0a1.5 1.5 0 01-.01-3h.01a1.5 1.5 0 010 3zm-6.01 0a1.5 1.5 0 01-.01-3h.01a1.5 1.5 0 010 3zm-6.01 0a1.5 1.5 0 01-.01-3h.01a1.5 1.5 0 010 3zm-6.01 0a1.5 1.5 0 11-.01-3h.01a1.5 1.5 0 010 3zm-6.01 0a1.5 1.5 0 01-.01-3h.01a1.5 1.5 0 010 3zm-6.01 0a1.5 1.5 0 01-.01-3h.01a1.5 1.5 0 010 3zm-6.01 0a1.5 1.5 0 01-.01-3h.01a1.5 1.5 0 010 3zm-6.01 0a1.5 1.5 0 01-.009-3h.01a1.5 1.5 0 010 3zm-6.009 0a1.5 1.5 0 11-.01-3h.01a1.5 1.5 0 010 3zm-6.01 0a1.5 1.5 0 01-.01-3h.01a1.5 1.5 0 010 3zm-6.01 0a1.5 1.5 0 01-.01-3h.01a1.5 1.5 0 010 3zm-6.01 0a1.5 1.5 0 01-.01-3h.01a1.5 1.5 0 010 3zm-6.01 0a1.5 1.5 0 11-.01-3h.01a1.5 1.5 0 010 3zm-6.01 0a1.5 1.5 0 01-.01-3h.01a1.5 1.5 0 010 3zm-6.01 0a1.5 1.5 0 01-.01-3h.01a1.5 1.5 0 010 3zm-6.01 0a1.5 1.5 0 11-.01-3h.01a1.5 1.5 0 010 3zm-6.01 0a1.5 1.5 0 01-.01-3h.01a1.5 1.5 0 010 3zm-6.01 0a1.5 1.5 0 01-.01-3h.01a1.5 1.5 0 010 3zm-6.01 0a1.5 1.5 0 01-.01-3h.01a1.5 1.5 0 010 3zm-6.01 0a1.5 1.5 0 01-.01-3h.01a1.5 1.5 0 010 3zm-6.01 0a1.5 1.5 0 01-.01-3h.01a1.5 1.5 0 010 3zm-6.01 0a1.5 1.5 0 11-.01-3h.01a1.5 1.5 0 010 3zm-6.01 0a1.5 1.5 0 01-.01-3h.01a1.5 1.5 0 010 3zm-6.01 0a1.5 1.5 0 01-.01-3h.01a1.5 1.5 0 010 3zm-6.01 0a1.5 1.5 0 01-.01-3h.01a1.5 1.5 0 010 3zm-6.01 0a1.5 1.5 0 11-.01-3h.01a1.5 1.5 0 010 3zm-6.01 0a1.5 1.5 0 01-.01-3h.01a1.5 1.5 0 010 3zm-6.01 0a1.5 1.5 0 11-.01-3h.01a1.5 1.5 0 010 3zm-6.01 0a1.5 1.5 0 01-.01-3h.01a1.5 1.5 0 010 3zM164.767 331.665a1.5 1.5 0 11-.01-3h.01a1.5 1.5 0 010 3zm-6.01 0a1.5 1.5 0 01-.01-3h.01a1.5 1.5 0 010 3zm-6.01 0a1.5 1.5 0 11-.01-3h.01a1.5 1.5 0 010 3zm-6.01 0a1.5 1.5 0 01-.01-3h.01a1.5 1.5 0 110 3z"/><path class="cls-3" d="M129.45 327.24v5.494h.958v1.436h-.958v1.824h-1.79v-1.824h-4.046v-1.732l3.351-5.198zm-1.79 5.494v-3.887h-.022l-2.394 3.887zM132.187 332.244v-1.436h.958c1.025 0 1.88-.285 1.88-1.197 0-.73-.57-1.083-1.39-1.083a4.29 4.29 0 00-1.938.479l-.445-1.39a6.24 6.24 0 012.576-.525c1.596 0 2.987.684 2.987 2.303a2.009 2.009 0 01-1.505 2.028v.023a2.03 2.03 0 011.71 2.04c0 1.847-1.494 2.656-3.329 2.656a6.223 6.223 0 01-2.667-.58l.422-1.357a5.174 5.174 0 002.166.501c.946 0 1.63-.399 1.63-1.265 0-.958-1.003-1.197-2.12-1.197zM121.71 101.38v5.494h.958v1.436h-.958v1.823h-1.79v-1.823h-4.046v-1.733l3.351-5.198zm-1.79 5.494v-3.888h-.022l-2.394 3.888zM124.447 106.383v-1.436h.957c1.026 0 1.88-.285 1.88-1.197 0-.73-.57-1.082-1.39-1.082a4.29 4.29 0 00-1.937.478l-.445-1.39a6.24 6.24 0 012.576-.524c1.596 0 2.986.683 2.986 2.302a2.009 2.009 0 01-1.504 2.029v.023a2.03 2.03 0 011.71 2.04c0 1.846-1.494 2.655-3.329 2.655a6.223 6.223 0 01-2.667-.58l.422-1.357a5.174 5.174 0 002.166.501c.945 0 1.63-.399 1.63-1.265 0-.957-1.003-1.197-2.12-1.197zM133.703 101.231c2.2 0 3.328 1.755 3.328 4.57 0 2.828-1.128 4.48-3.328 4.48-2.211 0-3.317-1.652-3.317-4.48 0-2.815 1.106-4.57 3.317-4.57zm0 1.436c-1.106 0-1.539 1.3-1.539 3.135 0 1.846.433 3.043 1.54 3.043 1.105 0 1.549-1.197 1.549-3.043 0-1.835-.444-3.134-1.55-3.134zM133.703 348.474c2.2 0 3.328 1.755 3.328 4.57 0 2.828-1.128 4.48-3.328 4.48-2.211 0-3.317-1.652-3.317-4.48 0-2.815 1.106-4.57 3.317-4.57zm0 1.436c-1.106 0-1.539 1.3-1.539 3.134 0 1.847.433 3.044 1.54 3.044 1.105 0 1.549-1.197 1.549-3.044 0-1.834-.444-3.134-1.55-3.134zM148.234 366.134c2.2 0 3.329 1.755 3.329 4.57 0 2.827-1.129 4.48-3.329 4.48-2.211 0-3.316-1.653-3.316-4.48 0-2.815 1.105-4.57 3.316-4.57zm0 1.436c-1.106 0-1.539 1.3-1.539 3.134 0 1.847.434 3.044 1.54 3.044 1.105 0 1.55-1.197 1.55-3.044 0-1.835-.445-3.134-1.55-3.134zM375.007 366.282v8.754h-1.79v-7.067l-1.64.969-.627-1.334 2.233-1.322zM380.195 366.134c2.2 0 3.328 1.755 3.328 4.57 0 2.827-1.129 4.48-3.328 4.48-2.212 0-3.317-1.653-3.317-4.48 0-2.815 1.105-4.57 3.317-4.57zm0 1.436c-1.107 0-1.54 1.3-1.54 3.134 0 1.847.433 3.044 1.54 3.044 1.105 0 1.55-1.197 1.55-3.044 0-1.835-.445-3.134-1.55-3.134zM387.935 366.134c2.2 0 3.328 1.755 3.328 4.57 0 2.827-1.129 4.48-3.328 4.48-2.212 0-3.317-1.653-3.317-4.48 0-2.815 1.105-4.57 3.317-4.57zm0 1.436c-1.106 0-1.539 1.3-1.539 3.134 0 1.847.433 3.044 1.54 3.044 1.105 0 1.549-1.197 1.549-3.044 0-1.835-.444-3.134-1.55-3.134zM166.643 366.282v8.754h-1.79v-7.067l-1.641.969-.627-1.334 2.234-1.322zM171.83 366.134c2.2 0 3.328 1.755 3.328 4.57 0 2.827-1.128 4.48-3.328 4.48-2.211 0-3.317-1.653-3.317-4.48 0-2.815 1.106-4.57 3.317-4.57zm0 1.436c-1.106 0-1.539 1.3-1.539 3.134 0 1.847.433 3.044 1.54 3.044 1.105 0 1.549-1.197 1.549-3.044 0-1.835-.444-3.134-1.55-3.134z"/><path class="cls-4" d="M374.586 355.242a1.496 1.496 0 01-1.5-1.495v-.01a1.5 1.5 0 111.5 1.505zm0-6.01a1.496 1.496 0 01-1.5-1.495v-.01a1.5 1.5 0 111.5 1.504zm0-6.01a1.496 1.496 0 01-1.5-1.495v-.01a1.5 1.5 0 111.5 1.505zm0-6.01a1.496 1.496 0 01-1.5-1.495v-.01a1.5 1.5 0 111.5 1.504zm0-6.01a1.496 1.496 0 01-1.5-1.495v-.01a1.5 1.5 0 111.5 1.505zm0-6.01a1.496 1.496 0 01-1.5-1.495v-.01a1.5 1.5 0 111.5 1.505zm0-6.01a1.496 1.496 0 01-1.5-1.495v-.01a1.5 1.5 0 111.5 1.505zm0-6.01a1.496 1.496 0 01-1.5-1.495v-.01a1.5 1.5 0 111.5 1.504zm0-6.01a1.496 1.496 0 01-1.5-1.495v-.01a1.5 1.5 0 111.5 1.505zm0-6.01a1.496 1.496 0 01-1.5-1.495v-.01a1.5 1.5 0 111.5 1.505zm0-6.01a1.496 1.496 0 01-1.5-1.495v-.01a1.5 1.5 0 111.5 1.505zm0-6.01a1.496 1.496 0 01-1.5-1.495v-.01a1.5 1.5 0 111.5 1.504zm0-6.01a1.496 1.496 0 01-1.5-1.495v-.01a1.5 1.5 0 111.5 1.505zm0-6.01a1.496 1.496 0 01-1.5-1.495v-.01a1.5 1.5 0 111.5 1.505zm0-6.01a1.496 1.496 0 01-1.5-1.496v-.01a1.5 1.5 0 111.5 1.506zm0-6.01a1.496 1.496 0 01-1.5-1.495v-.01a1.5 1.5 0 111.5 1.505zm0-6.01a1.496 1.496 0 01-1.5-1.496v-.01a1.5 1.5 0 111.5 1.506zm0-6.01a1.496 1.496 0 01-1.5-1.495v-.01a1.5 1.5 0 111.5 1.504zm0-6.01a1.496 1.496 0 01-1.5-1.496v-.01a1.5 1.5 0 111.5 1.506zm0-6.01a1.496 1.496 0 01-1.5-1.495v-.01a1.5 1.5 0 111.5 1.505zm0-6.01a1.496 1.496 0 01-1.5-1.496v-.01a1.5 1.5 0 111.5 1.506zm0-6.01a1.496 1.496 0 01-1.5-1.495v-.01a1.5 1.5 0 111.5 1.504zm0-6.01a1.496 1.496 0 01-1.5-1.496v-.01a1.5 1.5 0 111.5 1.506zm0-6.01a1.496 1.496 0 01-1.5-1.495v-.01a1.5 1.5 0 111.5 1.505zm0-6.01a1.496 1.496 0 01-1.5-1.496v-.01a1.5 1.5 0 111.5 1.506zm0-6.01a1.496 1.496 0 01-1.5-1.495v-.01a1.5 1.5 0 111.5 1.505zm0-6.01a1.496 1.496 0 01-1.5-1.495v-.01a1.5 1.5 0 111.5 1.504zm0-6.01a1.496 1.496 0 01-1.5-1.495v-.01a1.5 1.5 0 111.5 1.505zm0-6.01a1.496 1.496 0 01-1.5-1.495v-.01a1.5 1.5 0 111.5 1.504zm0-6.01a1.496 1.496 0 01-1.5-1.495v-.01a1.5 1.5 0 111.5 1.505zm0-6.01a1.496 1.496 0 01-1.5-1.495v-.01a1.5 1.5 0 111.5 1.505zm0-6.01a1.496 1.496 0 01-1.5-1.495v-.01a1.5 1.5 0 111.5 1.505zm0-6.01a1.496 1.496 0 01-1.5-1.495v-.01a1.5 1.5 0 111.5 1.504zm0-6.01a1.496 1.496 0 01-1.5-1.495v-.01a1.5 1.5 0 111.5 1.505zm0-6.01a1.496 1.496 0 01-1.5-1.495v-.01a1.5 1.5 0 111.5 1.505zm0-6.01a1.496 1.496 0 01-1.5-1.495v-.01a1.5 1.5 0 111.5 1.505zm0-6.01a1.496 1.496 0 01-1.5-1.495v-.01a1.5 1.5 0 111.5 1.504zm0-6.01a1.496 1.496 0 01-1.5-1.495v-.01a1.5 1.5 0 111.5 1.505zm0-6.01a1.496 1.496 0 01-1.5-1.495v-.01a1.5 1.5 0 111.5 1.505zm0-6.01a1.496 1.496 0 01-1.5-1.496v-.01a1.5 1.5 0 111.5 1.506zm0-6.01a1.496 1.496 0 01-1.5-1.495v-.01a1.5 1.5 0 111.5 1.505zm0-6.01a1.496 1.496 0 01-1.5-1.496v-.01a1.5 1.5 0 111.5 1.506z"/><path class="cls-3" d="M145.277 354.696h298.42v1h-298.42z"/><path class="cls-3" d="M144.777 33.46h1v321.736h-1z"/><path d="M168.209 356.696h-22.932a1.5 1.5 0 010-3h21.432v-23.531a1.5 1.5 0 01.394-1.014l206.376-225.287a1.5 1.5 0 011.107-.487h75.292a1.5 1.5 0 010 3h-74.632l-205.537 224.37v24.45a1.5 1.5 0 01-1.5 1.5z" fill="#bfd833"/><path class="cls-3" d="M101.987 22.737v1.208h-1.243v9.746h1.243v1.22h-2.702V22.737zM107.379 25.918l-.08 1.333a2.417 2.417 0 00-.502-.045c-.855 0-1.573.558-1.573 2.188v3.123h-1.743v-6.474h1.709v.843h.023a1.712 1.712 0 011.698-.991c.16 0 .33.011.468.023zM110.092 31.81v3.1h-1.744v-8.867h1.71v.832h.023a2.433 2.433 0 011.983-.98c1.778 0 2.735 1.493 2.735 3.385 0 1.904-1.003 3.385-2.77 3.385a2.317 2.317 0 01-1.914-.854zm2.975-2.53c0-1.174-.456-2.074-1.47-2.074-1.015 0-1.619.866-1.619 2.074 0 1.197.604 2.086 1.619 2.086 1.014 0 1.47-.912 1.47-2.086zM116.226 26.043h1.71v.877h.022a2.006 2.006 0 011.87-1.025 1.894 1.894 0 011.891 1.048h.035a2.235 2.235 0 012.006-1.048 2.156 2.156 0 012.405 2.359v4.263h-1.744v-3.613c0-1.049-.137-1.698-1.094-1.698a1.218 1.218 0 00-1.231 1.39v3.921h-1.744V28.87c0-1.037-.148-1.664-1.106-1.664-.661 0-1.277.478-1.277 1.777v3.534h-1.743zM127.626 34.91v-1.207h1.333v-9.746h-1.333v-1.22h2.77v12.174zM449.878 355.196l-9.871-5.699v11.398l9.871-5.699zM145.278 26.941l-5.699 9.87h11.397l-5.698-9.87z"/></g></g></svg>