<svg xmlns="http://www.w3.org/2000/svg" viewBox="0 0 555 410"><defs><style>.cls-2{fill:#666}.cls-4{fill:#b3b3b3}.cls-5{fill:#bfd833}</style></defs><g id="レイヤー_2" data-name="レイヤー 2"><g id="レイヤー_1-2" data-name="レイヤー 1"><path fill="#fff" d="M0 0h555v410H0z"/><path class="cls-2" d="M87.55 277.8l-7.5 1.3 7.5 1.3v2.7l-9.2 2V283l7.5-1.3-7.5-1.2v-2.8l7.5-1.1-7.5-1.3v-2l9.2 2zm-9.5-6V270h3.6a2.305 2.305 0 01-1.1-2 2.35 2.35 0 012.2-2.5h4.8v1.8h-3.8c-1.1 0-1.8.3-1.8 1.3 0 .7.5 1.5 1.9 1.5h3.7v1.8zm6.6-14.3v4.7a1.943 1.943 0 001.7-2.2 4.146 4.146 0 00-.3-1.6l1.3-.2a7.612 7.612 0 01.3 2.1c0 2.4-1.5 3.9-3.5 3.9a3.413 3.413 0 01-3.6-3v-.4c0-2 1.3-3.1 3.4-3.1h.7zm-2.8 3.1a1.58 1.58 0 001.6 1.6v-3a1.383 1.383 0 00-1.6 1.2zm2.8-10.7v4.7a1.943 1.943 0 001.7-2.2 4.146 4.146 0 00-.3-1.6l1.3-.2a7.612 7.612 0 01.3 2.1c0 2.4-1.5 3.8-3.5 3.8a3.413 3.413 0 01-3.6-3v-.4c0-2 1.3-3.1 3.4-3.1h.7zm-2.8 3.1a1.58 1.58 0 001.6 1.6v-3a1.383 1.383 0 00-1.6 1.2v.2zm-3.8-4.6v-1.8h9.5v1.8zm.5-15.7l1.5.3a6.448 6.448 0 00-.3 2c0 .7.2 1.5 1 1.5.6 0 1-.5 1.5-1.7.6-1.5 1.2-2.6 2.9-2.6 1.8 0 2.7 1.6 2.7 3.4a8.676 8.676 0 01-.5 2.8l-1.5-.3a6.874 6.874 0 00.5-2.4c0-1-.4-1.6-1.1-1.6s-1 .6-1.5 1.8c-.6 1.5-1.3 2.5-2.7 2.5-1.9 0-2.7-1.7-2.7-3.2a4.234 4.234 0 01.2-2.5zm8.2-3.8h3.3v1.8h-9.3v-1.8h.9a2.512 2.512 0 01-1-2.1c0-1.9 1.6-2.9 3.6-2.9s3.6 1.1 3.6 2.9a3.327 3.327 0 01-1.1 2.1zm-2.6-3.1c-1.2 0-2.2.5-2.2 1.5s.9 1.7 2.2 1.7 2.2-.6 2.2-1.7-1-1.5-2.2-1.5zm.5-9.5v4.7a1.943 1.943 0 001.7-2.2 4.146 4.146 0 00-.3-1.6l1.3-.2a7.612 7.612 0 01.3 2.1c0 2.4-1.5 3.9-3.5 3.9a3.413 3.413 0 01-3.6-3v-.4c0-2 1.3-3.1 3.4-3.1h.7zm-2.8 3.1a1.58 1.58 0 001.6 1.6v-3a1.383 1.383 0 00-1.6 1.2v.2zm2.8-10.8v4.7a1.943 1.943 0 001.7-2.2 4.146 4.146 0 00-.3-1.6l1.3-.2a7.612 7.612 0 01.3 2.1c0 2.4-1.5 3.8-3.5 3.8a3.413 3.413 0 01-3.6-3v-.4c0-2 1.3-3.1 3.4-3.1h.7zm-2.8 3.2a1.58 1.58 0 001.6 1.6v-3a1.383 1.383 0 00-1.6 1.2zm-.4-9.3h-3.4v-1.8h9.5v1.8h-.9a2.512 2.512 0 011 2.1c0 1.9-1.6 2.9-3.6 2.9s-3.6-1.1-3.6-2.9a3.456 3.456 0 011-2.1zm2.7 3.2c1.2 0 2.2-.5 2.2-1.5s-.9-1.7-2.2-1.7-2.2.6-2.2 1.7.9 1.5 2.2 1.5zm3.4-8.7l-9.2-4.2v-1.5l9.2 4.2zm-4.8-11.2a19.198 19.198 0 011.5 1.4l-1.1 1.2a13.183 13.183 0 00-5.4-3.6v-1.7c.4.1.8.3 1.2.4v-4.4c4.6.6 7.9 2.5 9.3 6.4l-1.3.8a8.919 8.919 0 00-2.3-3.4 18.081 18.081 0 00-1.9 2.9zm.6-3.7a7.61 7.61 0 00-3-1v3.2a8.341 8.341 0 011.2.8 17.003 17.003 0 011.8-3zm4.8-10.5h-5.1a20.069 20.069 0 011.9 3.9l-1.4.8a19.752 19.752 0 00-5.6-8.3l1.1-1.3a16.95 16.95 0 012.9 3.1h6.2zm.1-11.4l-6.1 1.4.4 2.8-1.5.2-.3-2.7-2.7.6-.3-1.7 2.8-.6-.9-6.2a8.882 8.882 0 015.7 2.8l-1 1.3a4.97 4.97 0 00-2.9-2l.5 3.7 5.9-1.3zm-.5-9.4h.6v1.5h-10.3v-10h10.4v1.6h-.6v6.9zm-1.4-6.9h-6.8v6.9h6.8zm-5.8 1h4.8v4.9h-4.8zm3.4 3.5v-2.1h-2.1v2.1zm1.2-9.5h-.5v1.7h-4.4v-1.7h-.6v1.9h-1.3v-1.9h-1v-1.5h1v-2h1.3v2h.5v-1.8h4.5v1.8h.5v-2h1.3v2h2.1v1.5h-2.1v2h-1.3zm-7.3-8.8h1.5v5h-1.5zm8.9 4.7c-1.4-.3-2.9-.6-4.1-.8v1.2h-1.5v-5.6h1.5v2.7a30.984 30.984 0 013.9.9 11.135 11.135 0 01-.2-1.7 12.199 12.199 0 00-1.7.7l-.4-1.3a16.418 16.418 0 013.9-1.4l.5 1.5a3.553 3.553 0 00-1 .2 37.719 37.719 0 01.7 4l-1.4.4c-.1-.1-.1-.4-.2-.8zm-4.8 2.1h-.5v.6h.5zm0 2.4v-.6h-.5v.6zm1.5-2.4h-.5v.6h.5zm0 2.4v-.6h-.5v.6zm3.2-14.5l-1.2.9a8.39 8.39 0 00-1.8-2.8v2.2h-3.5v-2.6h-.6v3h-1.2v-3h-.9V121h.9v-3.3h1.2v3.3h.6v-2.7h3.5v2.3a7.171 7.171 0 001.7-2.9l1.4 1a10.766 10.766 0 01-1.8 2.4h1.8v1.6h-1.7a11.602 11.602 0 011.6 2.1zm-9.1 2.8a9.516 9.516 0 012.1-1.9c.3.5.6.9.9 1.4a8.68 8.68 0 00-2.2 1.7zm4.8-7.8h-1.1v1.2h1.1zm0 3.9v-1.1h-1.1v1.1zm4.6 0v-6.1l1.5.3v6.1a3.864 3.864 0 01-1.1 2.7 10.99 10.99 0 011.4 1.8l-1.6.7a8.636 8.636 0 00-1-1.6h-2.6v1.4h-1.4v-2.9h3.8a2.913 2.913 0 001-2.4zm-6.5-10.9h-.6v-1.5h.6v-1.8h-.6V108h.6v-2.3h1.2v2.3h1.8v4.8h-1.8v1.6a19.889 19.889 0 016.8 1.2l-.8 1.4a16.104 16.104 0 00-6.5-1h-2.8v-4.3h-1v-1.6h1v-4.4h1.3v8.8h.8zm1.2-1.4h.6v-1.8h-.6zm5.7-5.8l1.3.9a17.386 17.386 0 01-1.1 3.9 15 15 0 011.1 3.6l-1.2.9a15.944 15.944 0 00-.6-3 4.894 4.894 0 01-1.2 1.3l-.5-1.1v2.1h-1.2v-6l.4-1.1a5.662 5.662 0 012.4 1.9 18.575 18.575 0 00.6-3.4zm-1.3 4.9a10.627 10.627 0 00-.9-1.1v2.5a8.05 8.05 0 00.9-1.4zm132 288.2v-9.2h1.9v9.2zm3.8-6.8h1.8v.9a2.533 2.533 0 014.6 1.1v4.8h-1.8v-3.8c0-1.1-.3-1.8-1.3-1.8-.7 0-1.5.5-1.5 1.9v3.7h-1.8zm10 6v3.3h-1.8v-9.3h1.8v.9a2.512 2.512 0 012.1-1c1.9 0 2.9 1.6 2.9 3.6s-1.1 3.6-2.9 3.6a3.094 3.094 0 01-2.1-1.1zm3.1-2.6c0-1.2-.5-2.2-1.5-2.2s-1.7.9-1.7 2.2.6 2.2 1.7 2.2 1.5-1 1.5-2.2zm9.7 3.4h-1.8v-.9a2.533 2.533 0 01-4.6-1.1v-4.8h1.8v3.8c0 1.1.3 1.8 1.3 1.8.7 0 1.5-.5 1.5-1.9v-3.7h1.8zm1-5.5v-1.4h1V390h1.8v1.8h1.4v1.4h-1.4v3c0 .9.1 1.1.8 1.1h.6v1.4c-.3 0-.8.1-1.2.1-1.7 0-2-.7-2-2v-3.5h-1zm16.4-3.6l-.3 1.5a6.447 6.447 0 00-2-.3c-.7 0-1.5.2-1.5 1 0 .6.5 1 1.7 1.5 1.5.6 2.6 1.2 2.6 2.9 0 1.8-1.6 2.7-3.4 2.7a8.676 8.676 0 01-2.8-.5l.3-1.5a6.874 6.874 0 002.4.5c1 0 1.6-.4 1.6-1.1s-.6-1-1.8-1.5c-1.5-.6-2.5-1.3-2.5-2.7 0-1.9 1.7-2.7 3.2-2.7a6.883 6.883 0 012.5.2zm4 8.3v3.3h-1.8v-9.3h1.8v.9a2.512 2.512 0 012.1-1c1.9 0 2.9 1.6 2.9 3.6s-1.1 3.6-2.9 3.6a3.094 3.094 0 01-2.1-1.1zm3.1-2.6c0-1.2-.5-2.2-1.5-2.2s-1.7.9-1.7 2.2.6 2.2 1.7 2.2 1.5-1 1.5-2.2zm9.5.5h-4.7a1.943 1.943 0 002.2 1.7 4.146 4.146 0 001.6-.3l.2 1.3a7.612 7.612 0 01-2.1.3c-2.4 0-3.9-1.5-3.9-3.5a3.413 3.413 0 013-3.6h.4c2 0 3.1 1.3 3.1 3.4v.7zm-3.1-2.9a1.58 1.58 0 00-1.6 1.6h3a1.383 1.383 0 00-1.2-1.6.138.138 0 01-.2 0zm10.7 2.9h-4.7a1.943 1.943 0 002.2 1.7 4.146 4.146 0 001.6-.3l.2 1.3a7.612 7.612 0 01-2.1.3c-2.4 0-3.8-1.5-3.8-3.5a3.413 3.413 0 013-3.6h.4c2 0 3.1 1.3 3.1 3.4v.7zm-3.1-2.9a1.58 1.58 0 00-1.6 1.6h3a1.383 1.383 0 00-1.2-1.6c-.1.1-.1 0-.2 0zm9.2-.3v-3.4h1.8v9.5h-1.8v-.9a2.512 2.512 0 01-2.1 1c-1.9 0-2.9-1.6-2.9-3.6s1.1-3.6 2.9-3.6a3.215 3.215 0 012.1 1zm-3.1 2.7c0 1.2.5 2.2 1.5 2.2s1.7-.9 1.7-2.2-.6-2.2-1.7-2.2-1.5.9-1.5 2.2zm7.8 3.4l4.2-9.2h1.5l-4.2 9.2zm13.4-.6h6.1l-.3 1.5h-6.1a3.864 3.864 0 01-2.7-1.1 10.99 10.99 0 01-1.8 1.4l-.7-1.6a8.636 8.636 0 001.6-1v-2.6h-1.4v-1.4h2.9v3.8a3.036 3.036 0 002.4 1zm-3.8-9.4a9.516 9.516 0 011.9 2.1c-.5.3-.9.6-1.4.9a8.68 8.68 0 00-1.7-2.2zm2.7 9.1l-.9-1.2a8.39 8.39 0 002.8-1.8h-2.2v-3.5h2.6v-.6h-3v-1.2h3v-.9h1.6v.9h3.3v1.2h-3.3v.6h2.7v3.5h-2.3a7.172 7.172 0 002.9 1.7l-1 1.4a10.766 10.766 0 01-2.4-1.8v1.8h-1.6v-1.7a12.452 12.452 0 01-2.2 1.6zm1.1-4.3h1.1v-1.1h-1.1zm3.9 0v-1.1h-1.2v1.1zm7.1-1.9v-.6h1.5v.6h1.8v-.6h1.5v.6h2.3v1.2h-2.3v1.8h-4.8v-1.8h-1.6a19.889 19.889 0 01-1.2 6.8l-1.4-.8a16.104 16.104 0 001-6.5v-2.8h4.3v-1h1.6v1h4.4v1.3h-8.8v.8zm7.2 6.9l-.9 1.3a17.387 17.387 0 01-3.9-1.1 15.001 15.001 0 01-3.6 1.1l-.9-1.2a15.943 15.943 0 003-.6 4.894 4.894 0 01-1.3-1.2l1.1-.5h-2.1v-1.2h6l1.1.4a5.662 5.662 0 01-1.9 2.4 22.132 22.132 0 003.4.6zm-4.8-1.3a10.63 10.63 0 001.1-.9h-2.5a5.507 5.507 0 001.4.9zm-.9-4.4v.6h1.8v-.6zm8 1.3V392h-1.4v-1.4h1.4v-2h1.5v2h.9v1.4h-.9v1.6l.9-.3c0 .5.1.9.1 1.4a7.598 7.598 0 00-1.1.4v3.1c0 .9-.2 1.3-1 1.5a3.295 3.295 0 01-1.4 0l-.3-1.5h.9a.265.265 0 00.3-.3v-2.3a8.338 8.338 0 00-1.2.4l-.3-1.6c.4-.1 1-.2 1.6-.3zm9.2-4a20.653 20.653 0 01-4.9 1.2c0 .6.2.7.8.8h2.4c.7 0 .7-.1.8-.9l1.5.3c-.2 1.8-.5 2.1-2.1 2.1h-2.6c-1.8 0-2.2-.4-2.2-2.1v-2.9h1.5v1.5a14.648 14.648 0 004.1-1.1zm-4.7 9.3v.4h-1.5V394h6.1v5.7h-1.6v-.4h-3zm3-3.3v-.7h-3v.7zm0 1.9v-.7h-3v.7zm7-3.6a13.292 13.292 0 01-2.5 4.1l-1.5-.7a11.947 11.947 0 002.5-3.8zm2.5 3.8c0 .9-.3 1.4-1 1.5a5.437 5.437 0 01-1.8 0l-.3-1.6a5.652 5.652 0 001.3 0 .265.265 0 00.3-.3v-4.4h-4.8V392h11v1.5h-4.7zm3.6-9.2v1.5h-8.8V389zm-1.4 4.8a26.026 26.026 0 012.7 3.8l-1.5.9a20.38 20.38 0 00-2.6-3.9zm6.4 5.9h-1.5v-5.2a8.794 8.794 0 00-.6 1l-1-1.2a16.745 16.745 0 002.5-5.8l1.6.3a18.288 18.288 0 01-.8 2.5zm8.1-1.8v1.4h-6v.4h-1.5v-7.3h1.5v5.5zm-4.8-6.2c0-.2.1-.4.1-.6h-2.7v-1.4h3a4.868 4.868 0 00.1-1.2l1.7.1a5.16 5.16 0 01-.2 1.1h2.9v1.4h-3.1c0 .2-.1.4-.1.6h2.6v5.8h-4.9v-5.8zm.6 1.6h2v-.5h-2zm0 1.5h2v-.5h-2zm0 1.5h2v-.5h-2z"/><path fill="none" d="M63.65 0h427.7v406.2H63.65z"/><path class="cls-2" d="M121.56 65.199v5.494h.958v1.435h-.957v1.825h-1.79v-1.825h-4.046v-1.732l3.35-5.197zm-1.789 5.494v-3.888h-.022l-2.394 3.888zm5.929 1.983c1.458 0 2.108-1.038 2.222-2.383h-.023a2.311 2.311 0 01-1.812.752 2.695 2.695 0 01-2.861-2.918 3.018 3.018 0 013.214-3.077c2.61 0 3.283 2.245 3.283 4.15 0 2.77-1.22 4.9-3.932 4.9a7.404 7.404 0 01-1.847-.25l.262-1.414a5.438 5.438 0 001.493.24zm2.21-4.366a1.624 1.624 0 00-1.504-1.823 1.468 1.468 0 00-1.436 1.64 1.418 1.418 0 001.425 1.562 1.433 1.433 0 001.516-1.379zm8.38-3.111v5.494h.957v1.435h-.958v1.825h-1.79v-1.825h-4.046v-1.732l3.351-5.197zm-1.79 5.494v-3.888h-.023l-2.394 3.888z"/><path class="cls-4" d="M158.757 336.904a1.5 1.5 0 01-.01-3h.01a1.5 1.5 0 010 3zm-6.01 0a1.5 1.5 0 11-.01-3h.01a1.5 1.5 0 010 3zm-6.01 0a1.5 1.5 0 01-.01-3h.01a1.5 1.5 0 010 3zM405.67 69.12a1.5 1.5 0 01-.01-3h.01a1.5 1.5 0 010 3zm-6.01 0a1.5 1.5 0 01-.009-3h.01a1.5 1.5 0 010 3zm-6.009 0a1.5 1.5 0 11-.01-3h.01a1.5 1.5 0 010 3zm-6.01 0a1.5 1.5 0 01-.01-3h.01a1.5 1.5 0 010 3zm-6.01 0a1.5 1.5 0 01-.01-3h.01a1.5 1.5 0 010 3zm-6.01 0a1.5 1.5 0 01-.01-3h.01a1.5 1.5 0 010 3zm-6.01 0a1.5 1.5 0 01-.01-3h.01a1.5 1.5 0 010 3zm-6.01 0a1.5 1.5 0 01-.01-3h.01a1.5 1.5 0 010 3zm-6.01 0a1.5 1.5 0 01-.01-3h.01a1.5 1.5 0 010 3zm-6.01 0a1.5 1.5 0 01-.01-3h.01a1.5 1.5 0 010 3zm-6.01 0a1.5 1.5 0 01-.01-3h.01a1.5 1.5 0 010 3zm-6.01 0a1.5 1.5 0 11-.01-3h.01a1.5 1.5 0 010 3zm-6.01 0a1.5 1.5 0 01-.01-3h.01a1.5 1.5 0 010 3zm-6.01 0a1.5 1.5 0 01-.01-3h.01a1.5 1.5 0 010 3zm-6.01 0a1.5 1.5 0 01-.01-3h.01a1.5 1.5 0 010 3zm-6.01 0a1.5 1.5 0 11-.01-3h.01a1.5 1.5 0 010 3zm-6.01 0a1.5 1.5 0 01-.01-3h.01a1.5 1.5 0 010 3zm-6.01 0a1.5 1.5 0 01-.01-3h.01a1.5 1.5 0 010 3zm-6.01 0a1.5 1.5 0 01-.01-3h.01a1.5 1.5 0 010 3zm-6.01 0a1.5 1.5 0 11-.01-3h.01a1.5 1.5 0 010 3zm-6.01 0a1.5 1.5 0 01-.01-3h.01a1.5 1.5 0 010 3zm-6.01 0a1.5 1.5 0 01-.01-3h.01a1.5 1.5 0 010 3zm-6.01 0a1.5 1.5 0 01-.01-3h.01a1.5 1.5 0 010 3zm-6.01 0a1.5 1.5 0 11-.01-3h.01a1.5 1.5 0 010 3zm-6.01 0a1.5 1.5 0 01-.01-3h.01a1.5 1.5 0 010 3zm-6.01 0a1.5 1.5 0 01-.01-3h.01a1.5 1.5 0 010 3zm-6.01 0a1.5 1.5 0 01-.01-3h.01a1.5 1.5 0 010 3zm-6.01 0a1.5 1.5 0 11-.01-3h.01a1.5 1.5 0 010 3zm-6.01 0a1.5 1.5 0 01-.01-3h.01a1.5 1.5 0 010 3zm-6.01 0a1.5 1.5 0 01-.01-3h.01a1.5 1.5 0 010 3zm-6.01 0a1.5 1.5 0 11-.01-3h.01a1.5 1.5 0 010 3zm-6.01 0a1.5 1.5 0 01-.01-3h.01a1.5 1.5 0 010 3zm-6.01 0a1.5 1.5 0 01-.01-3h.01a1.5 1.5 0 010 3zm-6.01 0a1.5 1.5 0 01-.01-3h.01a1.5 1.5 0 010 3zm-6.01 0a1.5 1.5 0 11-.01-3h.01a1.5 1.5 0 010 3zm-6.01 0a1.5 1.5 0 01-.01-3h.01a1.5 1.5 0 010 3zm-6.01 0a1.5 1.5 0 01-.01-3h.01a1.5 1.5 0 010 3zm-6.01 0a1.5 1.5 0 01-.01-3h.01a1.5 1.5 0 010 3zm-6.01 0a1.5 1.5 0 11-.01-3h.01a1.5 1.5 0 010 3zm-6.01 0a1.5 1.5 0 01-.01-3h.01a1.5 1.5 0 010 3zm-6.01 0a1.5 1.5 0 01-.01-3h.01a1.5 1.5 0 010 3zm-6.01 0a1.5 1.5 0 01-.01-3h.01a1.5 1.5 0 010 3zm-6.01 0a1.5 1.5 0 01-.01-3h.01a1.5 1.5 0 010 3zm-6.01 0a1.5 1.5 0 01-.01-3h.01a1.5 1.5 0 010 3z"/><path class="cls-2" d="M124.857 336.368v-1.436h.958c1.025 0 1.88-.285 1.88-1.197 0-.73-.57-1.083-1.39-1.083a4.29 4.29 0 00-1.938.478l-.445-1.39a6.249 6.249 0 012.576-.524c1.596 0 2.986.684 2.986 2.302a2.01 2.01 0 01-1.504 2.03v.022a2.03 2.03 0 011.71 2.04c0 1.846-1.494 2.656-3.329 2.656a6.223 6.223 0 01-2.667-.581l.422-1.356a5.18 5.18 0 002.166.5c.946 0 1.63-.398 1.63-1.264 0-.958-1.003-1.197-2.12-1.197zm11.433-5.004v5.494h.958v1.436h-.958v1.824h-1.79v-1.824h-4.046v-1.732l3.351-5.198zm-1.79 5.494v-3.887h-.022l-2.394 3.887zm-.795 11.616c2.2 0 3.328 1.755 3.328 4.57 0 2.828-1.128 4.48-3.328 4.48-2.211 0-3.317-1.652-3.317-4.48 0-2.815 1.106-4.57 3.317-4.57zm0 1.437c-1.106 0-1.539 1.298-1.539 3.133 0 1.847.433 3.044 1.54 3.044 1.105 0 1.549-1.197 1.549-3.044 0-1.835-.444-3.133-1.55-3.133zm14.528 16.223c2.2 0 3.328 1.755 3.328 4.57 0 2.828-1.129 4.48-3.328 4.48-2.212 0-3.317-1.652-3.317-4.48 0-2.815 1.105-4.57 3.317-4.57zm0 1.436c-1.106 0-1.54 1.3-1.54 3.135 0 1.846.434 3.043 1.54 3.043 1.105 0 1.55-1.197 1.55-3.043 0-1.835-.445-3.135-1.55-3.135zm16.197-1.436c1.596 0 3.032.809 3.032 2.348a1.912 1.912 0 01-1.31 1.96v.023a2.284 2.284 0 011.595 2.223c0 1.642-1.47 2.496-3.317 2.496-1.835 0-3.282-.854-3.282-2.496a2.183 2.183 0 011.55-2.166v-.023a2.076 2.076 0 01-1.3-2.017c0-1.54 1.437-2.348 3.032-2.348zm0 5.083a1.408 1.408 0 00-1.504 1.31c0 .833.65 1.255 1.504 1.255.855 0 1.528-.422 1.528-1.254a1.422 1.422 0 00-1.528-1.31zm0-1.356a1.207 1.207 0 001.334-1.22c0-.718-.536-1.14-1.334-1.14a1.174 1.174 0 00-1.322 1.14 1.198 1.198 0 001.322 1.22zm237.823-3.579v8.754h-1.79v-7.067l-1.642.969-.627-1.334 2.234-1.322zm5.471 0v8.754h-1.79v-7.067l-1.641.969-.627-1.334 2.234-1.322zm5.939 6.052c0-1.128-1.106-1.424-2.143-1.424a13.958 13.958 0 00-1.641.125l.262-4.753h4.9v1.436h-3.316l-.137 1.847a6.35 6.35 0 01.74-.034c1.688 0 3.113.957 3.113 2.713 0 1.971-1.516 2.94-3.328 2.94a6.743 6.743 0 01-2.69-.536l.433-1.367a5.17 5.17 0 002.074.466c.9 0 1.733-.352 1.733-1.413z"/><path class="cls-4" d="M408.982 355.242a1.496 1.496 0 01-1.5-1.495v-.01a1.5 1.5 0 111.5 1.505zm0-6.01a1.496 1.496 0 01-1.5-1.495v-.01a1.5 1.5 0 111.5 1.505zm0-6.01a1.496 1.496 0 01-1.5-1.496v-.01a1.5 1.5 0 111.5 1.506zm0-6.01a1.496 1.496 0 01-1.5-1.495v-.01a1.5 1.5 0 111.5 1.504zm0-6.01a1.496 1.496 0 01-1.5-1.496v-.01a1.5 1.5 0 111.5 1.506zm0-6.01a1.496 1.496 0 01-1.5-1.495v-.01a1.5 1.5 0 111.5 1.505zm0-6.01a1.496 1.496 0 01-1.5-1.496v-.01a1.5 1.5 0 111.5 1.506zm0-6.01a1.495 1.495 0 01-1.5-1.495v-.01a1.5 1.5 0 111.5 1.504zm0-6.01a1.496 1.496 0 01-1.5-1.496v-.01a1.5 1.5 0 111.5 1.506zm0-6.01a1.496 1.496 0 01-1.5-1.495v-.01a1.5 1.5 0 111.5 1.505zm0-6.01a1.496 1.496 0 01-1.5-1.496v-.01a1.5 1.5 0 111.5 1.506zm0-6.01a1.495 1.495 0 01-1.5-1.495v-.01a1.5 1.5 0 111.5 1.504zm0-6.01a1.496 1.496 0 01-1.5-1.496v-.01a1.5 1.5 0 111.5 1.506zm0-6.01a1.496 1.496 0 01-1.5-1.495v-.01a1.5 1.5 0 111.5 1.505zm0-6.01a1.496 1.496 0 01-1.5-1.496v-.01a1.5 1.5 0 111.5 1.505zm0-6.01a1.495 1.495 0 01-1.5-1.495v-.01a1.5 1.5 0 111.5 1.504zm0-6.01a1.496 1.496 0 01-1.5-1.496v-.01a1.5 1.5 0 111.5 1.505zm0-6.01a1.496 1.496 0 01-1.5-1.495v-.01a1.5 1.5 0 111.5 1.505zm0-6.01a1.496 1.496 0 01-1.5-1.496v-.01a1.5 1.5 0 111.5 1.505zm0-6.01a1.495 1.495 0 01-1.5-1.495v-.01a1.5 1.5 0 111.5 1.504zm0-6.01a1.496 1.496 0 01-1.5-1.496v-.01a1.5 1.5 0 111.5 1.505zm0-6.01a1.496 1.496 0 01-1.5-1.495v-.01a1.5 1.5 0 111.5 1.505zm0-6.01a1.496 1.496 0 01-1.5-1.496v-.01a1.5 1.5 0 111.5 1.505zm0-6.01a1.495 1.495 0 01-1.5-1.495v-.01a1.5 1.5 0 111.5 1.504zm0-6.01a1.496 1.496 0 01-1.5-1.496v-.01a1.5 1.5 0 111.5 1.505zm0-6.01a1.496 1.496 0 01-1.5-1.495v-.01a1.5 1.5 0 111.5 1.505zm0-6.01a1.496 1.496 0 01-1.5-1.495v-.01a1.5 1.5 0 111.5 1.505zm0-6.01a1.496 1.496 0 01-1.5-1.496v-.01a1.5 1.5 0 111.5 1.506zm0-6.01a1.496 1.496 0 01-1.5-1.495v-.01a1.5 1.5 0 111.5 1.504zm0-6.01a1.496 1.496 0 01-1.5-1.496v-.01a1.5 1.5 0 111.5 1.506zm0-6.01a1.496 1.496 0 01-1.5-1.495v-.01a1.5 1.5 0 111.5 1.505zm0-6.01a1.496 1.496 0 01-1.5-1.496v-.01a1.5 1.5 0 111.5 1.506zm0-6.01a1.495 1.495 0 01-1.5-1.495v-.01a1.5 1.5 0 111.5 1.504zm0-6.01a1.496 1.496 0 01-1.5-1.496v-.01a1.5 1.5 0 111.5 1.506zm0-6.01a1.496 1.496 0 01-1.5-1.495v-.01a1.5 1.5 0 111.5 1.505zm0-6.01a1.496 1.496 0 01-1.5-1.496v-.01a1.5 1.5 0 111.5 1.506zm0-6.01a1.495 1.495 0 01-1.5-1.495v-.01a1.5 1.5 0 111.5 1.504zm0-6.01a1.496 1.496 0 01-1.5-1.496v-.01a1.5 1.5 0 111.5 1.506zm0-6.01a1.496 1.496 0 01-1.5-1.495v-.01a1.5 1.5 0 111.5 1.505zm0-6.01a1.496 1.496 0 01-1.5-1.496v-.01a1.5 1.5 0 111.5 1.505zm0-6.01a1.495 1.495 0 01-1.5-1.495v-.01a1.5 1.5 0 111.5 1.504zm0-6.01a1.496 1.496 0 01-1.5-1.496v-.01a1.5 1.5 0 111.5 1.505zm0-6.01a1.496 1.496 0 01-1.5-1.495v-.01a1.5 1.5 0 111.5 1.505zm0-6.01a1.496 1.496 0 01-1.5-1.496v-.01a1.5 1.5 0 111.5 1.505zm0-6.01a1.495 1.495 0 01-1.5-1.495v-.01a1.5 1.5 0 111.5 1.504zm0-6.01a1.496 1.496 0 01-1.5-1.496v-.01a1.5 1.5 0 111.5 1.505zm0-6.01a1.496 1.496 0 01-1.5-1.495v-.01a1.5 1.5 0 111.5 1.505zm0-6.01a1.496 1.496 0 01-1.5-1.496v-.01a1.5 1.5 0 111.5 1.505z"/><path class="cls-2" d="M145.277 354.696h297.701v1H145.277z"/><path class="cls-2" d="M144.777 33.018h1v322.178h-1z"/><path class="cls-5" d="M163.622 356.696h-18.345a1.5 1.5 0 010-3h16.845v-18.292a1.5 1.5 0 01.394-1.013l245.36-267.784a1.5 1.5 0 012.212 2.027L165.122 335.987v19.21a1.5 1.5 0 01-1.5 1.5z"/><path class="cls-5" d="M449.878 69.12h-40.896a1.5 1.5 0 010-3h40.895a1.5 1.5 0 010 3z"/><path class="cls-2" d="M102.649 22.738v1.208h-1.243v9.745h1.243v1.22h-2.702V22.738zm5.391 3.179l-.079 1.334a2.417 2.417 0 00-.501-.046c-.855 0-1.574.56-1.574 2.189v3.123h-1.743v-6.474h1.71v.843h.022a1.712 1.712 0 011.698-.991c.16 0 .33.012.468.022zm2.714 5.894v3.1h-1.744v-8.868h1.71v.832h.023a2.433 2.433 0 011.983-.98c1.778 0 2.736 1.493 2.736 3.385 0 1.904-1.003 3.385-2.77 3.385a2.317 2.317 0 01-1.915-.854zm2.975-2.531c0-1.174-.456-2.074-1.47-2.074-1.015 0-1.619.866-1.619 2.074 0 1.197.604 2.086 1.619 2.086 1.014 0 1.47-.911 1.47-2.086zm3.159-3.237h1.71v.877h.022a2.006 2.006 0 011.87-1.025 1.894 1.894 0 011.891 1.049h.035a2.234 2.234 0 012.006-1.049 2.156 2.156 0 012.405 2.36v4.262h-1.744v-3.613c0-1.05-.137-1.699-1.094-1.699a1.219 1.219 0 00-1.231 1.391v3.921h-1.744V28.87c0-1.038-.148-1.665-1.106-1.665-.66 0-1.277.479-1.277 1.779v3.533h-1.743zm11.4 8.867v-1.207h1.333v-9.746h-1.333v-1.22h2.77v12.174zm321.59 320.286l-9.871-5.699v11.398l9.871-5.699zm-304.6-328.255l-5.699 9.87h11.397l-5.698-9.87z"/></g></g></svg>