<svg xmlns="http://www.w3.org/2000/svg" viewBox="0 0 555 190"><defs><style>.cls-1{fill:#fff}.cls-2{fill:#bfd833}.cls-3{fill:#9e9e9f}.cls-4{fill:#c8c9ca}.cls-5{fill:#e5e5e6}.cls-6{fill:#ddd583}.cls-7{fill:#3e3a39}.cls-8{fill:#231815}.cls-9{fill:none}</style></defs><g id="レイヤー_2" data-name="レイヤー 2"><g id="レイヤー_1-2" data-name="レイヤー 1"><path class="cls-1" d="M0 0h555v190H0z"/><path class="cls-2" d="M480.08 170.67H316.233a.75.75 0 010-1.5h163.849a.75.75 0 010 1.5z"/><path class="cls-1" d="M334.802 33.21h126.71a4.252 4.252 0 014.252 4.252v126.71a4.25 4.25 0 01-4.25 4.25H334.801a4.252 4.252 0 01-4.252-4.251V37.461a4.252 4.252 0 014.253-4.252z"/><path class="cls-3" d="M461.512 166.247H334.8a2.078 2.078 0 01-2.076-2.077V37.46a2.078 2.078 0 012.076-2.076h126.71a2.078 2.078 0 012.076 2.076v126.71a2.078 2.078 0 01-2.075 2.077zM334.8 36.134a1.327 1.327 0 00-1.326 1.326v126.71a1.328 1.328 0 001.326 1.327h126.71a1.327 1.327 0 001.326-1.327V37.46a1.327 1.327 0 00-1.325-1.326z"/><path class="cls-3" d="M363.714 100.821a.375.375 0 01-.375-.375V68.87a.375.375 0 01.75 0v31.576a.375.375 0 01-.375.375z"/><path class="cls-3" d="M363.714 101.009h-18.169a.562.562 0 01-.563-.563V68.87a.562.562 0 01.563-.563h18.169l.033.001.196.012a.582.582 0 01.063.007l.195.034a.665.665 0 01.067.016l.193.059a.741.741 0 01.053.019l.197.082a.528.528 0 01.057.027l.195.11a.387.387 0 01.056.035l.193.139c.015.01.029.022.043.034l.195.17a.88.88 0 01.043.043l.191.21a.62.62 0 01.034.04l.187.248c.01.015.021.03.031.047l.177.291a.64.64 0 01.025.046l.166.34.019.045.15.392a.54.54 0 01.015.046l.13.446a.588.588 0 01.01.047l.101.508.007.045.066.568a.435.435 0 01.003.044l.023.633.052 3.9.029 3.886.008 3.78-.008 3.782-.029 3.885-.051 3.89-.024.644a.407.407 0 01-.003.043l-.066.57-.008.045-.1.508a.572.572 0 01-.01.046l-.13.447a.462.462 0 01-.015.046l-.15.39c-.006.016-.013.03-.02.045l-.165.34a.422.422 0 01-.025.046l-.177.292a.563.563 0 01-.031.047l-.187.247a.71.71 0 01-.036.043l-.19.207a.535.535 0 01-.041.04l-.195.173a.743.743 0 01-.045.036l-.193.138a.434.434 0 01-.052.033l-.196.11a.786.786 0 01-.057.028l-.197.083a.506.506 0 01-.059.021l-.193.057a.47.47 0 01-.063.016l-.195.034a.44.44 0 01-.063.007l-.196.012zm-17.607-1.125h17.59l.147-.009.131-.023.132-.039.14-.059.14-.08.146-.103.15-.134.154-.166.152-.202.149-.246.143-.294.133-.346.115-.402.092-.462.06-.525.023-.61.051-3.871.029-3.88.008-3.776-.008-3.774-.029-3.882-.051-3.88-.023-.6-.06-.523-.092-.463-.115-.4-.134-.348-.142-.295-.15-.244-.152-.204-.153-.166-.15-.134-.145-.104-.14-.077-.14-.059-.134-.04-.13-.023-.147-.009h-17.59zm23.986 58.072a9.942 9.942 0 119.943-9.942 9.953 9.953 0 01-9.943 9.941zm0-19.135a9.192 9.192 0 109.193 9.193 9.202 9.202 0 00-9.193-9.193zm-17.008 24.875h-14.032a3.781 3.781 0 01-3.778-3.776v-23.812a3.782 3.782 0 013.778-3.778h14.032a3.782 3.782 0 013.777 3.778v23.812a3.78 3.78 0 01-3.777 3.776zm-14.032-30.616a3.031 3.031 0 00-3.027 3.028v23.812a3.03 3.03 0 003.027 3.026h14.032a3.03 3.03 0 003.027-3.026v-23.812a3.03 3.03 0 00-3.027-3.028zm59.103 31.041a14.848 14.848 0 01-14.832-14.832v-2.552a14.832 14.832 0 0129.664 0v2.552a14.849 14.849 0 01-14.832 14.832zm0-31.465a14.097 14.097 0 00-14.082 14.08v2.553a14.082 14.082 0 0028.164 0v-2.552a14.097 14.097 0 00-14.082-14.081zm0-69.546a13.319 13.319 0 1113.32-13.318 13.333 13.333 0 01-13.32 13.318zm0-25.512a12.194 12.194 0 1012.195 12.194 12.206 12.206 0 00-12.195-12.194zm34.44 63.223a.376.376 0 01-.375-.375V68.87a.375.375 0 01.75 0v31.576a.375.375 0 01-.375.375z"/><path class="cls-3" d="M450.766 101.009h-18.17l-.034-.001-.194-.012a.435.435 0 01-.063-.007l-.194-.034a.476.476 0 01-.063-.016l-.194-.057a.506.506 0 01-.06-.021l-.196-.083a.794.794 0 01-.057-.028l-.196-.11a.42.42 0 01-.051-.033l-.193-.138a.7.7 0 01-.046-.036l-.195-.173a.535.535 0 01-.04-.04l-.191-.207a.658.658 0 01-.035-.043l-.187-.247a.501.501 0 01-.032-.047l-.177-.292a.45.45 0 01-.025-.046l-.165-.34a.93.93 0 01-.02-.044l-.15-.391a.462.462 0 01-.015-.046l-.129-.447a.516.516 0 01-.01-.046l-.101-.508a.35.35 0 01-.007-.045l-.066-.57a.407.407 0 01-.003-.043l-.024-.632-.052-3.9-.028-3.886-.008-3.782.008-3.78.028-3.886.051-3.889.025-.645a.435.435 0 01.003-.044l.066-.568a.49.49 0 01.006-.045l.101-.508a.537.537 0 01.011-.047l.13-.446a.54.54 0 01.014-.046l.15-.392.02-.045.165-.34a.68.68 0 01.025-.046l.177-.291a.606.606 0 01.032-.047l.187-.248a.566.566 0 01.033-.04l.192-.21a.768.768 0 01.043-.042l.195-.17a.574.574 0 01.042-.035l.193-.14a.386.386 0 01.056-.034l.196-.11a.53.53 0 01.057-.027l.197-.082a.719.719 0 01.053-.02l.193-.058a.662.662 0 01.067-.016l.194-.034a.574.574 0 01.063-.007l.194-.012h18.204a.562.562 0 01.563.562v31.576a.562.562 0 01-.563.563zm-18.152-1.125h17.59V69.432h-17.59l-.147.01-.13.022-.133.04-.141.059-.14.077-.144.104-.151.134-.152.166-.154.204-.148.244-.143.295-.133.348-.116.4-.092.463-.06.524-.022.61-.052 3.87-.028 3.882-.008 3.774.008 3.777.028 3.88.052 3.882.022.597.06.525.092.462.116.402.132.346.144.294.148.246.153.202.153.166.15.134.146.103.141.08.14.059.131.039.131.023z"/><path class="cls-4" d="M351.932 103.877a2.89 2.89 0 00-.984-.172c-.404 0-.819.14-.819.587 0 .362.24.536.9.795.804.34 1.268.653 1.268 1.406 0 .915-.78 1.29-1.6 1.29a3.792 3.792 0 01-1.374-.229l.168-.632a3.196 3.196 0 001.195.273c.527 0 .882-.217.882-.648 0-.388-.344-.6-.995-.858-.754-.302-1.184-.683-1.184-1.332 0-.887.786-1.26 1.523-1.26a3.583 3.583 0 011.165.178zm2.485 3.906a1.754 1.754 0 10-1.64-1.75 1.565 1.565 0 001.64 1.75m0-2.95c.625 0 .913.5.913 1.2 0 .715-.288 1.213-.913 1.213-.617 0-.907-.498-.907-1.213 0-.7.281-1.2.907-1.2m2.187-.476v3.38h.721v-1.882c0-.744.427-1.021.827-1.021.545 0 .691.36.691.94v1.962h.741V105.5a1.143 1.143 0 00-1.235-1.217 1.128 1.128 0 00-1.024.545h-.014v-.471zm4.067 0h-.797l1.336 3.278-.548 1.32h.758l1.835-4.598h-.762l-.908 2.48h-.009zm35.442 3.38h2.687v-.632h-1.937v-1.414h1.719v-.611h-1.72v-1.297h1.878v-.606h-2.627zm3.273-3.38v3.38h.724v-1.882c0-.744.413-1.021.827-1.021.551 0 .697.36.697.94v1.962h.716V105.5a1.228 1.228 0 00-2.25-.672h-.009v-.471zm-32.862 0v3.38h.736v-1.882c0-.744.423-1.021.818-1.021.556 0 .708.36.708.94v1.962h.725V105.5a1.135 1.135 0 00-1.223-1.217 1.156 1.156 0 00-1.04.545h-.01v-.471zm36.186.55h.56v1.897c0 .62.138.955.896.955.196 0 .408-.01.56-.023v-.555a2.45 2.45 0 01-.343.027c-.348 0-.393-.08-.393-.54v-1.76h.739v-.551h-.739v-.875h-.72v.875h-.56zm5.394 1.339v-.31c0-1.005-.496-1.653-1.467-1.653a1.589 1.589 0 00-1.587 1.76 1.643 1.643 0 001.793 1.74 2.69 2.69 0 001.014-.153l-.094-.537a2.362 2.362 0 01-.849.153 1.042 1.042 0 01-1.156-1zm-2.346-.532a.902.902 0 01.879-.913.785.785 0 01.787.895v.018h-1.666m4.601-1.425a1.15 1.15 0 00-.126-.006.87.87 0 00-.87.518h-.017v-.444h-.706v3.38h.733v-1.794c0-.814.357-1.09.797-1.09.063 0 .113 0 .154.002zm-40.485.619h.553v1.896c0 .62.145.955.923.955.188 0 .403-.01.54-.023v-.555a2.238 2.238 0 01-.327.027c-.353 0-.389-.08-.389-.54v-1.76h.717v-.551h-.717v-.875h-.747v.875h-.553zm14.09 0h.573v1.896c0 .62.123.955.907.955.191 0 .395-.01.555-.023v-.555a2.465 2.465 0 01-.344.027c-.35 0-.392-.08-.392-.54v-1.76H386v-.551h-.737v-.875h-.726v.875h-.573zm-8.688 1.338v-.31c0-1.005-.5-1.653-1.457-1.653a1.588 1.588 0 00-1.6 1.76 1.64 1.64 0 001.788 1.74 2.663 2.663 0 001.014-.153l-.097-.537a2.425 2.425 0 01-.853.153 1.043 1.043 0 01-1.143-1zm-2.347-.532a.905.905 0 01.89-.913.78.78 0 01.77.895v.018h-1.66m21.256.532v-.31c0-1.005-.494-1.653-1.452-1.653a1.596 1.596 0 00-1.607 1.76 1.648 1.648 0 001.805 1.74 2.602 2.602 0 001.001-.153l-.102-.537a2.23 2.23 0 01-.829.153 1.056 1.056 0 01-1.175-1zm-2.36-.532a.92.92 0 01.908-.913.79.79 0 01.78.895v.018h-1.687m-14.264-1.425c-.065-.004-.092-.006-.137-.006a.876.876 0 00-.883.518h-.01v-.444h-.705v3.38h.719v-1.794c0-.814.371-1.09.816-1.09.063 0 .102 0 .147.002zm33.289.619h.475v1.896c0 .62.146.955.904.955.2 0 .413-.01.567-.023v-.555a2.37 2.37 0 01-.348.027c-.328 0-.398-.08-.398-.54v-1.76h.756v-.551h-.756v-.875h-.725v.875h-.475zm4.41.7c-1.146 0-2.12.182-2.12 1.157 0 .776.587 1.018 1.155 1.018a1.084 1.084 0 001.02-.522h.016a2.34 2.34 0 00.074.475h.637a6.44 6.44 0 01-.042-.783v-1.426c0-.813-.493-1.244-1.467-1.244a3.352 3.352 0 00-1.063.195l.152.537a2.448 2.448 0 01.865-.181c.54 0 .774.246.774.693zm0 .475v.266a.83.83 0 01-.87.912.495.495 0 01-.557-.527c0-.526.613-.65 1.29-.65zm-35.37-.474c-1.134 0-2.115.181-2.115 1.156 0 .776.58 1.018 1.164 1.018a1.104 1.104 0 001.02-.522h.012a2.995 2.995 0 00.068.475h.635a4.771 4.771 0 01-.054-.783v-1.426c0-.813-.475-1.244-1.44-1.244a3.203 3.203 0 00-1.062.195l.142.537a2.437 2.437 0 01.859-.181c.54 0 .77.246.77.693zm0 .474v.266a.824.824 0 01-.853.912.502.502 0 01-.575-.527c0-.526.622-.65 1.296-.65zm37.617-3.01h-.733v.677h.733zm-.012 1.284h-.721v3.38h.721zm-30.153-1.283h-.744v.676h.744zm-.018 1.283h-.726v3.38h.726zm30.945 0v3.38h.724v-1.882c0-.744.427-1.021.826-1.021.548 0 .693.36.693.94v1.962h.729V105.5a1.128 1.128 0 00-1.221-1.217 1.16 1.16 0 00-1.039.545h-.005v-.471zm3.718 0v3.38h.733v-1.915c0-.71.359-.988.756-.988.547 0 .652.34.652.902v2h.725v-2.067a.734.734 0 01.74-.835c.53 0 .64.383.64.94v1.962h.739V105.5a1.108 1.108 0 00-1.211-1.217 1.14 1.14 0 00-1.048.545h-.028a.985.985 0 00-.991-.545 1.052 1.052 0 00-.979.556h-.019v-.482zm8.552 1.889v-.31c0-1.005-.493-1.653-1.448-1.653a1.594 1.594 0 00-1.605 1.76 1.643 1.643 0 001.806 1.74 2.636 2.636 0 00.998-.153l-.097-.537a2.327 2.327 0 01-.854.153 1.056 1.056 0 01-1.153-1zm-2.353-.532a.919.919 0 01.905-.913.794.794 0 01.774.895v.018h-1.679m2.903-1.357v3.38h.71v-1.882c0-.744.415-1.021.828-1.021.571 0 .698.36.698.94v1.962h.733V105.5a1.24 1.24 0 00-2.266-.672h-.016v-.471zm3.32.55h.551v1.897c0 .62.14.955.903.955.201 0 .41-.01.558-.023v-.555a2.402 2.402 0 01-.332.027c-.333 0-.39-.08-.39-.54v-1.76h.722v-.551h-.721v-.875h-.74v.875h-.55zm3.733 2.83h.768v-4.56h-.768zm-73.112 0h.736v-4.56h-.736zm74.629-3.38v3.38h.721v-1.882c0-.744.419-1.021.826-1.021.565 0 .696.36.696.94v1.962h.734V105.5a1.235 1.235 0 00-2.26-.672h-.018v-.471zm6.028.05a2.053 2.053 0 00-.77-.124 1.655 1.655 0 00-1.752 1.76 1.617 1.617 0 001.756 1.74 1.712 1.712 0 00.766-.139l-.117-.525a1.195 1.195 0 01-.6.127 1.214 1.214 0 01-.024-2.412 1.475 1.475 0 01.605.118zm-62.03 0a2.107 2.107 0 00-.776-.124 1.659 1.659 0 00-1.761 1.76 1.621 1.621 0 001.76 1.74 1.75 1.75 0 00.776-.139l-.126-.525a1.21 1.21 0 01-.605.127 1.214 1.214 0 01-.012-2.412 1.489 1.489 0 01.598.118zm62.638 3.33h.832v-.845h-.832zm-56.481.001l1.267-3.391h-.78l-.875 2.725h-.014l-.888-2.725h-.807l1.27 3.391h.827zm37.352-34.648a4.827 4.827 0 10-4.823 4.757 4.797 4.797 0 004.823-4.758zm-.642 0a4.185 4.185 0 11-4.181-4.27 4.2 4.2 0 014.181 4.27zm-42.444 2.14a2.892 2.892 0 01-.863-2.135 3.102 3.102 0 01.863-2.24 3.55 3.55 0 014.645 0 3.102 3.102 0 01.851 2.24 2.81 2.81 0 01-.851 2.135 3.125 3.125 0 01-2.324.969 3.184 3.184 0 01-2.32-.97zm6.676.564a3.96 3.96 0 001.148-2.699 3.692 3.692 0 00-1.148-2.768 6.18 6.18 0 00-4.355-1.475 6.81 6.81 0 00-4.336 1.472 3.695 3.695 0 00-1.184 2.771 3.744 3.744 0 001.184 2.7 6.611 6.611 0 004.336 1.478 6.525 6.525 0 004.355-1.479zm-16.813-6.939a6.56 6.56 0 00-2.817.584 2.16 2.16 0 00-1.476 1.969 2.07 2.07 0 00.55 1.38 2.612 2.612 0 001.606.768 22.534 22.534 0 002.34.387c.932.107 1.867.207 2.254.307.274.082.787.197.787.695a.897.897 0 01-.62.84 4.126 4.126 0 01-1.87.367 7.254 7.254 0 01-2.22-.428 2.91 2.91 0 01-1.3-.875 1.374 1.374 0 01-.265-.836h-1.02v2.926h1.133v-.428c0-.052.05-.133.246-.127a11.961 11.961 0 001.697.567 6.661 6.661 0 001.735.232 7.082 7.082 0 002.33-.346 6.913 6.913 0 001.406-.638 2.068 2.068 0 00.74-1.55 2.04 2.04 0 00-.597-1.52 2.35 2.35 0 00-.748-.55 5.363 5.363 0 00-.922-.34 17.279 17.279 0 00-2.572-.393 19.479 19.479 0 01-2.3-.265.598.598 0 01-.43-.566.707.707 0 01.398-.623 5.085 5.085 0 012.107-.362 6.724 6.724 0 012.451.405 2.252 2.252 0 01.588.375 2.069 2.069 0 01.572.986h.936v-2.584h-1.05v.32c0 .104-.09.241-.286.127a7.424 7.424 0 00-3.383-.804zm22.723.473l5.049 4.626.018-3.11c-.016-.426-.088-.573-.524-.573h-.957v-.943h4.328v.943h-.93c-.449 0-.476.127-.482.572l.018 5.936h-1.471l-5.818-5.207v3.677c.005.43.02.63.44.63h1.02v.9h-4.23v-.9h.982c.373 0 .358-.378.358-.65v-4.357c0-.308-.043-.601-.604-.601h-.818v-.943zm12.793 6.551c.035 0 .219-.006.262-.014a.393.393 0 00.191-.192.99.99 0 00.016-.213v-1.47c0-.036 0-.047-.062-.139-.065-.09-2.637-3.049-2.75-3.206a1.1 1.1 0 00-.807-.374h-.879v-.943h5.053v.943h-.617c-.133 0-.231.115-.102.245 0 0 1.701 2.116 1.723 2.134.013.027.031.033.043.004a368.46 368.46 0 001.766-2.131c.08-.094.019-.252-.153-.252h-.644v-.943h4.179v.943h-.941a.834.834 0 00-.733.305 916.26 916.26 0 01-2.798 3.273.197.197 0 00-.035.14v1.471a1.104 1.104 0 00.02.213.346.346 0 00.202.192 2.533 2.533 0 00.258.014h.953v.9h-5.036v-.9z"/><path class="cls-4" d="M423.64 75.747c.043-.038.037-.038.037-.038a7.313 7.313 0 01-.181-1.336c-.077-.489-.235-.88-.862-.88h-1.568l.08.082v2.14l.059.032h-.9l.054-.038v-5.364l-.055-.045h2.356a2.628 2.628 0 01.734.092 1.551 1.551 0 01.414 2.795 2.485 2.485 0 01-.414.023c.77 0 .867.451.942 1.368a3.294 3.294 0 00.253 1.105l.102.064zm-.988-4.708h-1.586l.08.068v1.736l-.08.065h1.568a.988.988 0 001.092-1.037c0-.463-.342-.832-1.074-.832z"/><path class="cls-5" d="M411.338 149.29a13.182 13.182 0 01-26.364 0v-2.553a13.182 13.182 0 0126.364 0z"/><path class="cls-3" d="M398.156 163.032a13.759 13.759 0 01-13.744-13.743v-2.552a13.744 13.744 0 0127.489 0v2.552a13.76 13.76 0 01-13.745 13.743zm0-28.913a12.633 12.633 0 00-12.62 12.618v2.552a12.62 12.62 0 0025.24 0v-2.552a12.633 12.633 0 00-12.62-12.618zm-45.071 28.033h-14.032a2.237 2.237 0 01-2.234-2.232v-23.812a2.237 2.237 0 012.234-2.233h14.032a2.236 2.236 0 012.234 2.233v23.812a2.236 2.236 0 01-2.234 2.232zM339.053 135a1.11 1.11 0 00-1.11 1.108v23.812a1.11 1.11 0 001.11 1.107h14.032a1.11 1.11 0 001.109-1.107v-23.812a1.11 1.11 0 00-1.11-1.108z"/><path class="cls-3" d="M342.88 140.822h6.377a1.238 1.238 0 011.238 1.238v1.276a1.239 1.239 0 01-1.239 1.239h-6.376a1.237 1.237 0 01-1.237-1.237v-1.278a1.238 1.238 0 011.237-1.238z"/><path class="cls-3" d="M349.257 145.137h-6.377a1.802 1.802 0 01-1.8-1.8v-1.277a1.802 1.802 0 011.8-1.8h6.377a1.802 1.802 0 011.8 1.8v1.276a1.802 1.802 0 01-1.8 1.801zm-6.377-3.752a.675.675 0 00-.675.675v1.276a.676.676 0 00.675.676h6.377a.676.676 0 00.675-.676v-1.276a.675.675 0 00-.675-.675zm0 10.067h6.377a1.238 1.238 0 011.238 1.237v1.276a1.239 1.239 0 01-1.239 1.239h-6.376a1.237 1.237 0 01-1.237-1.237v-1.278a1.238 1.238 0 011.237-1.237z"/><path class="cls-3" d="M349.257 155.766h-6.377a1.802 1.802 0 01-1.8-1.8v-1.277a1.802 1.802 0 011.8-1.8h6.377a1.802 1.802 0 011.8 1.8v1.276a1.802 1.802 0 01-1.8 1.801zm-6.377-3.752a.675.675 0 00-.675.675v1.276a.676.676 0 00.675.676h6.377a.676.676 0 00.675-.676v-1.276a.675.675 0 00-.675-.675z"/><path class="cls-6" d="M342.393 141.508h7.354v2.38h-7.354z"/><path class="cls-3" d="M349.747 144.451h-7.354a.562.562 0 01-.563-.563v-2.38a.562.562 0 01.563-.562h7.354a.563.563 0 01.563.562v2.38a.563.563 0 01-.563.563zm-6.792-1.125h6.23v-1.255h-6.23z"/><path class="cls-6" d="M342.393 152.137h7.354v2.38h-7.354z"/><path class="cls-3" d="M349.747 155.08h-7.354a.562.562 0 01-.563-.563v-2.38a.562.562 0 01.563-.562h7.354a.563.563 0 01.563.562v2.38a.563.563 0 01-.563.563zm-6.792-1.125h6.23V152.7h-6.23zm27.138 2.912a8.854 8.854 0 118.853-8.853 8.864 8.864 0 01-8.853 8.853zm0-16.582a7.729 7.729 0 107.728 7.729 7.737 7.737 0 00-7.728-7.73z"/><path class="cls-3" d="M370.093 154.64a6.627 6.627 0 116.627-6.626 6.635 6.635 0 01-6.627 6.626zm0-12.129a5.502 5.502 0 105.501 5.503 5.508 5.508 0 00-5.501-5.503z"/><path class="cls-3" d="M371.445 145.243a3.083 3.083 0 11-2.704 0l-.335-.688a3.85 3.85 0 103.374 0z"/><path class="cls-3" d="M369.679 143.098h.83v4.765h-.83zm68.235 20.385a15.47 15.47 0 1115.47-15.47 15.488 15.488 0 01-15.47 15.47zm0-30.188a14.72 14.72 0 1014.72 14.719 14.737 14.737 0 00-14.72-14.72z"/><path class="cls-7" d="M451.732 148.014a13.82 13.82 0 10-13.818 13.818 13.82 13.82 0 0013.818-13.818z"/><path class="cls-3" d="M437.914 162.395a14.382 14.382 0 1114.38-14.381 14.398 14.398 0 01-14.38 14.38zm0-27.64a13.257 13.257 0 1013.256 13.259 13.272 13.272 0 00-13.256-13.258z"/><path class="cls-3" d="M437.914 153.546a5.532 5.532 0 115.532-5.532 5.54 5.54 0 01-5.532 5.532zm0-9.94a4.407 4.407 0 104.407 4.408 4.413 4.413 0 00-4.407-4.408z"/><path class="cls-3" d="M437.914 149.837a1.823 1.823 0 111.823-1.823 1.826 1.826 0 01-1.823 1.822zm0-2.522a.698.698 0 10.698.699.7.7 0 00-.698-.7z"/><path class="cls-8" d="M338.455 105.51l-.204-.325-.184-.362-.162-.399-.135-.436-.104-.471V65.8l.104-.471.135-.437.162-.398.184-.364.204-.324.173-.229v42.161l-.173-.228zm6.3 0l.204-.325.185-.362.162-.399.134-.436.105-.471V65.8l-.105-.471-.134-.437-.162-.398-.185-.364-.204-.324-.174-.229v42.161l.174-.228z"/><path class="cls-4" d="M342.243 106.956l.267-.013.264-.041.265-.068.263-.096.257-.125.256-.155.248-.187.242-.219.232-.254.044-.06V63.577l-.044-.06-.232-.254-.242-.217-.248-.188-.256-.156-.257-.124-.263-.095-.265-.069-.264-.04-.267-.014h-1.276l-.267.014-.264.04-.266.069-.261.095-.259.124-.255.156-.249.188-.241.217-.231.254-.046.06v42.161l.046.06.231.254.241.219.249.187.255.155.259.125.261.096.266.068.264.041.267.013h1.276z"/><path class="cls-3" d="M342.243 107.519h-1.303l-.267-.014a.501.501 0 01-.059-.006l-.265-.04a.604.604 0 01-.053-.012l-.265-.068a.446.446 0 01-.055-.017l-.261-.096a.7.7 0 01-.051-.022l-.259-.125a.633.633 0 01-.048-.026l-.254-.154-.044-.03-.25-.186-.041-.035-.241-.219a.478.478 0 01-.039-.039l-.23-.254c-.01-.011-.021-.023-.03-.036l-.047-.06a.565.565 0 01-.116-.342v-42.16a.563.563 0 01.113-.338l.046-.061a.632.632 0 01.034-.042l.232-.252a.466.466 0 01.038-.04l.241-.217a.53.53 0 01.04-.033l.249-.187a.467.467 0 01.044-.03l.254-.156a.717.717 0 01.051-.027l.259-.124a.632.632 0 01.051-.022l.262-.095a.528.528 0 01.05-.015l.264-.07a.466.466 0 01.058-.011l.266-.04a.631.631 0 01.054-.006l.267-.014h1.335l.266.014a.66.66 0 01.054.005l.265.04a.495.495 0 01.058.012l.265.07a.37.37 0 01.05.015l.262.095a.745.745 0 01.053.022l.258.124a.673.673 0 01.048.027l.256.156a.483.483 0 01.046.031l.248.188.039.031.241.218.038.037.232.254a.616.616 0 01.04.048l.043.06a.558.558 0 01.109.332v42.161a.561.561 0 01-.112.337l-.044.06a.594.594 0 01-.036.043l-.232.254a.582.582 0 01-.037.037l-.242.22a.598.598 0 01-.04.033l-.248.186-.047.032-.255.154a.57.57 0 01-.045.024l-.258.126a.608.608 0 01-.053.022l-.262.096a.487.487 0 01-.054.017l-.265.068a.677.677 0 01-.053.011l-.266.041a.518.518 0 01-.058.006l-.266.013zm-1.262-1.125h1.25l.222-.011.208-.032.211-.055.209-.076.21-.102.209-.127.205-.154.202-.183.112-.123V63.784l-.111-.12-.203-.185-.206-.156-.208-.127-.208-.1-.21-.075-.212-.055-.208-.032-.224-.011h-1.247l-.225.011-.209.032-.21.055-.21.076-.209.1-.206.126-.208.157-.203.182-.112.123v41.745l.113.124.202.183.206.154.208.127.21.102.21.076.21.055.208.032z"/><path class="cls-3" d="M342.243 107.519h-1.303l-.267-.014a.501.501 0 01-.059-.006l-.265-.04a.604.604 0 01-.053-.012l-.265-.068a.446.446 0 01-.055-.017l-.261-.096a.7.7 0 01-.051-.022l-.259-.125a.633.633 0 01-.048-.026l-.254-.154-.044-.03-.25-.186-.041-.035-.241-.219a.478.478 0 01-.039-.039l-.23-.254c-.012-.011-.022-.025-.032-.037l-.22-.289a.503.503 0 01-.028-.04l-.203-.325a.508.508 0 01-.026-.045l-.184-.362a.433.433 0 01-.02-.044l-.161-.4a.433.433 0 01-.016-.044l-.135-.436-.012-.045-.104-.47a.569.569 0 01-.013-.122V65.8a.57.57 0 01.013-.123l.104-.47a.616.616 0 01.012-.043l.135-.438.016-.046.161-.398a.533.533 0 01.02-.043l.184-.363a.508.508 0 01.026-.044l.203-.326.028-.04.22-.29.032-.039.232-.253a.466.466 0 01.038-.038l.241-.218a.53.53 0 01.04-.033l.249-.187a.467.467 0 01.044-.03l.254-.156a.717.717 0 01.051-.027l.259-.124a.632.632 0 01.051-.022l.262-.095a.528.528 0 01.05-.015l.264-.07a.466.466 0 01.058-.011l.266-.04a.631.631 0 01.054-.006l.267-.014h1.335l.266.014a.66.66 0 01.054.005l.265.04a.495.495 0 01.058.012l.265.07a.37.37 0 01.05.015l.262.095a.745.745 0 01.053.022l.258.124a.673.673 0 01.048.027l.256.156a.483.483 0 01.046.031l.248.188.039.031.241.218a.44.44 0 01.038.037l.232.253a.734.734 0 01.034.042l.218.29c.01.012.019.025.027.038l.204.326a.855.855 0 01.025.043l.185.363c.008.015.014.03.02.044l.162.398c.006.016.012.031.016.047l.135.437a.616.616 0 01.012.044l.104.47a.527.527 0 01.014.122v37.717a.525.525 0 01-.014.122l-.104.47-.012.045-.135.436a.865.865 0 01-.016.045l-.162.4a.467.467 0 01-.02.044l-.186.363a.653.653 0 01-.024.043l-.204.324a.529.529 0 01-.027.04l-.219.289a.59.59 0 01-.033.04l-.232.254a.582.582 0 01-.037.037l-.242.22a.598.598 0 01-.04.033l-.248.186-.047.032-.255.154a.57.57 0 01-.045.024l-.258.126a.608.608 0 01-.053.022l-.262.096a.487.487 0 01-.054.017l-.265.068a.677.677 0 01-.053.011l-.266.041a.518.518 0 01-.058.006l-.266.013zm-1.262-1.125h1.25l.222-.011.208-.032.211-.055.209-.076.21-.102.209-.127.205-.154.202-.183.197-.216.188-.248.177-.283.163-.318.143-.354.121-.391.086-.389V65.861l-.086-.387-.12-.393-.144-.353-.163-.32-.178-.283-.187-.249-.196-.213-.203-.184-.206-.156-.208-.127-.208-.1-.21-.075-.212-.055-.208-.032-.224-.011h-1.247l-.225.011-.209.032-.21.055-.21.076-.209.1-.206.126-.208.157-.203.182-.195.214-.189.25-.177.282-.161.32-.145.353-.12.393-.086.387v37.594l.085.389.121.39.145.356.16.318.178.282.189.248.196.216.202.183.206.154.208.127.21.102.21.076.21.055.208.032z"/><path class="cls-8" d="M457.856 105.51l.203-.325.186-.362.161-.399.135-.436.104-.471V65.8l-.104-.471-.135-.437-.161-.398-.186-.364-.203-.324-.173-.229v42.161l.173-.228zm-6.301 0l-.203-.325-.184-.362-.162-.399-.135-.436-.105-.471V65.8l.105-.471.135-.437.162-.398.184-.364.203-.324.175-.229v42.161l-.175-.228z"/><path class="cls-4" d="M454.068 106.956l-.267-.013-.265-.041-.264-.068-.262-.096-.259-.125-.255-.155-.249-.187-.241-.219-.232-.254-.044-.06V63.577l.044-.06.232-.254.241-.217.249-.188.255-.156.259-.124.262-.095.264-.069.265-.04.267-.014h1.276l.266.014.266.04.263.069.263.095.259.124.255.156.249.188.24.217.232.254.046.06v42.161l-.046.06-.232.254-.24.219-.249.187-.255.155-.259.125-.263.096-.263.068-.266.041-.266.013h-1.276z"/><path class="cls-3" d="M455.344 107.519h-1.304l-.266-.014a.518.518 0 01-.058-.006l-.266-.04a.644.644 0 01-.054-.012l-.264-.068a.435.435 0 01-.053-.017l-.263-.096a.72.72 0 01-.052-.022l-.259-.125a.618.618 0 01-.047-.026l-.254-.154a.454.454 0 01-.044-.03l-.25-.186a.48.48 0 01-.042-.035l-.24-.22a.414.414 0 01-.037-.036l-.232-.254-.036-.043-.044-.06a.562.562 0 01-.111-.337v-42.16a.557.557 0 01.108-.332l.044-.061a.616.616 0 01.04-.049l.232-.253a.842.842 0 01.036-.037l.24-.217a.866.866 0 01.04-.034l.25-.187a.467.467 0 01.045-.03l.254-.156a.526.526 0 01.05-.027l.26-.124a.672.672 0 01.052-.022l.262-.095.048-.015.264-.07a.523.523 0 01.06-.011l.266-.04a.614.614 0 01.053-.006l.266-.014h1.336l.266.014.053.005.266.04a.52.52 0 01.06.012l.263.07a.543.543 0 01.05.015l.262.095a.71.71 0 01.051.022l.26.124a.677.677 0 01.05.027l.254.156a.448.448 0 01.044.03l.25.187a.588.588 0 01.04.034l.24.217a.446.446 0 01.037.037l.232.253a.67.67 0 01.036.043l.045.06a.562.562 0 01.113.338v42.161a.565.565 0 01-.116.342l-.046.06a.369.369 0 01-.031.038l-.232.254a.548.548 0 01-.037.036l-.24.22a.634.634 0 01-.042.035l-.25.186-.044.03-.254.154c-.015.01-.032.018-.048.026l-.258.125a.788.788 0 01-.052.022l-.263.096a.392.392 0 01-.053.017l-.264.068a.592.592 0 01-.055.011l-.266.041a.498.498 0 01-.058.006l-.266.013zm-1.263-1.125h1.25l.222-.011.21-.032.21-.055.21-.076.21-.102.207-.127.207-.154.2-.183.114-.124V63.785l-.113-.123-.201-.183-.208-.156-.207-.127-.208-.1-.212-.075-.209-.055-.21-.032-.224-.011h-1.246l-.224.011-.21.032-.21.055-.212.076-.207.1-.207.126-.208.156-.202.183-.11.122v41.747l.112.123.2.183.206.154.209.127.21.102.21.076.21.055.209.032z"/><path class="cls-3" d="M455.344 107.519h-1.304l-.266-.014a.518.518 0 01-.058-.006l-.266-.04a.644.644 0 01-.054-.012l-.264-.068a.435.435 0 01-.053-.017l-.263-.096a.72.72 0 01-.052-.022l-.259-.125a.618.618 0 01-.047-.026l-.254-.154a.454.454 0 01-.044-.03l-.25-.186a.48.48 0 01-.042-.035l-.24-.22a.414.414 0 01-.037-.036l-.232-.254-.032-.039-.22-.289-.029-.042-.202-.325c-.01-.013-.017-.027-.024-.041l-.185-.363a.462.462 0 01-.02-.045l-.163-.4a.711.711 0 01-.016-.044l-.135-.436-.011-.045-.104-.47a.526.526 0 01-.014-.122V65.8a.528.528 0 01.014-.123l.104-.47a.702.702 0 01.011-.043l.135-.438a.56.56 0 01.016-.046l.162-.398a.551.551 0 01.02-.044l.185-.363a.566.566 0 01.024-.043l.203-.324a.747.747 0 01.029-.042l.219-.29a.953.953 0 01.034-.04l.232-.253a.842.842 0 01.036-.037l.24-.217a.866.866 0 01.04-.034l.25-.187a.467.467 0 01.045-.03l.254-.156a.526.526 0 01.05-.027l.26-.124a.672.672 0 01.052-.022l.262-.096.048-.014.264-.07a.523.523 0 01.06-.011l.266-.04a.614.614 0 01.053-.006l.266-.014h1.336l.266.014c.017 0 .036.003.053.005l.266.04a.52.52 0 01.06.012l.263.07a.543.543 0 01.05.014l.262.096a.71.71 0 01.051.022l.26.124a.677.677 0 01.05.027l.254.156a.448.448 0 01.044.03l.25.187a.588.588 0 01.04.034l.24.217a.446.446 0 01.037.037l.232.253a.609.609 0 01.034.04l.22.29c.01.014.02.028.028.042l.203.324.023.043.185.363.021.044.161.398c.007.016.012.031.017.046l.135.438a.616.616 0 01.011.044l.105.47a.58.58 0 01.013.122v37.717a.579.579 0 01-.013.121l-.105.471-.012.045-.135.436a.475.475 0 01-.015.044l-.162.4a.464.464 0 01-.02.045l-.186.363-.023.041-.203.325a.88.88 0 01-.03.042l-.218.289-.033.039-.232.254a.548.548 0 01-.037.036l-.24.22a.634.634 0 01-.042.035l-.25.186-.044.03-.254.154c-.015.01-.032.018-.048.026l-.258.125a.788.788 0 01-.052.022l-.263.096a.392.392 0 01-.053.017l-.264.068a.592.592 0 01-.055.011l-.266.041a.498.498 0 01-.058.006l-.266.013zm-1.263-1.125h1.25l.222-.011.21-.032.21-.055.21-.076.21-.102.207-.127.207-.154.2-.183.198-.216.188-.248.176-.282.163-.319.144-.354.12-.391.087-.389V65.861l-.086-.387-.12-.393-.145-.353-.163-.32-.176-.283-.188-.248-.197-.215-.201-.183-.208-.156-.207-.127-.208-.1-.212-.075-.209-.055-.21-.032-.224-.011h-1.246l-.224.011-.21.032-.21.055-.212.076-.207.1-.207.126-.208.156-.202.183-.196.215-.188.248-.176.283-.163.32-.144.353-.12.393-.087.387v37.594l.086.389.121.39.144.355.162.319.177.282.188.248.198.216.2.183.206.154.209.127.21.102.21.076.21.055.209.032z"/><path class="cls-8" d="M461.512 169.173H334.8a5.008 5.008 0 01-5.002-5.003V37.46a5.006 5.006 0 015.002-5h126.71a5.007 5.007 0 015.003 5v126.71a5.008 5.008 0 01-5.002 5.003zM334.8 33.959a3.505 3.505 0 00-3.502 3.5V164.17a3.506 3.506 0 003.502 3.503h126.71a3.506 3.506 0 003.503-3.503V37.46a3.505 3.505 0 00-3.502-3.5z"/><path class="cls-9" d="M303.873 0H492.44v188.567H303.873z"/><path class="cls-2" d="M238.767 170.67H74.92a.75.75 0 010-1.5h163.848a.75.75 0 010 1.5z"/><path class="cls-1" d="M93.488 33.21h126.71a4.252 4.252 0 014.253 4.252v126.71a4.25 4.25 0 01-4.25 4.25H93.486a4.252 4.252 0 01-4.251-4.251V37.461a4.252 4.252 0 014.252-4.252z"/><path class="cls-3" d="M93.488 35.385H220.2a2.078 2.078 0 012.076 2.077v126.71a2.078 2.078 0 01-2.076 2.076H93.49a2.078 2.078 0 01-2.076-2.076V37.462a2.078 2.078 0 012.075-2.077zM220.2 165.498a1.327 1.327 0 001.326-1.326V37.462a1.328 1.328 0 00-1.326-1.327H93.49a1.327 1.327 0 00-1.326 1.327v126.71a1.327 1.327 0 001.325 1.326z"/><path class="cls-3" d="M191.286 100.81a.375.375 0 01.375.375v31.577a.375.375 0 11-.75 0v-31.577a.375.375 0 01.375-.375z"/><path class="cls-3" d="M191.286 100.623h18.169a.562.562 0 01.563.563v31.576a.562.562 0 01-.563.562h-18.202l-.196-.012a.582.582 0 01-.063-.007l-.195-.034a.665.665 0 01-.067-.016l-.193-.059a.766.766 0 01-.053-.019l-.197-.082a.528.528 0 01-.057-.027l-.195-.11a.387.387 0 01-.056-.035l-.193-.139a.664.664 0 01-.043-.034l-.195-.171a.88.88 0 01-.043-.042l-.191-.21a.62.62 0 01-.034-.04l-.186-.248a.672.672 0 01-.032-.047l-.177-.291a.63.63 0 01-.025-.046l-.166-.34-.019-.045-.15-.392a.522.522 0 01-.015-.046l-.13-.446a.586.586 0 01-.01-.047l-.101-.508a.552.552 0 01-.007-.045l-.066-.568a.435.435 0 01-.003-.044l-.023-.633-.052-3.9-.029-3.886-.008-3.78.008-3.782.029-3.885.051-3.89.024-.644a.407.407 0 01.003-.043l.066-.57.008-.045.1-.508a.572.572 0 01.01-.046l.13-.447a.462.462 0 01.015-.046l.15-.39.02-.046.165-.34a.422.422 0 01.025-.045l.177-.292a.564.564 0 01.032-.047l.186-.248a.71.71 0 01.036-.042l.19-.207a.535.535 0 01.041-.04l.195-.173a.743.743 0 01.045-.036l.193-.138a.434.434 0 01.052-.033l.196-.11a.807.807 0 01.057-.028l.196-.083a.506.506 0 01.06-.021l.193-.058a.47.47 0 01.063-.015l.195-.034a.44.44 0 01.063-.007l.196-.012zm17.607 1.125h-17.59l-.147.009-.131.023-.132.039-.14.059-.14.08-.146.103-.15.134-.154.166-.152.202-.149.245-.143.295-.133.346-.115.402-.092.462-.06.525-.023.61-.051 3.871-.029 3.88-.008 3.776.008 3.774.029 3.881.051 3.882.023.598.06.524.092.463.115.4.134.348.143.295.148.244.153.204.153.166.15.133.146.104.139.078.141.059.133.04.13.023.147.008h17.59zm-23.986-58.072a9.942 9.942 0 11-9.943 9.942 9.953 9.953 0 019.943-9.942zm0 19.135a9.192 9.192 0 10-9.193-9.193 9.202 9.202 0 009.193 9.193zm17.008-24.875h14.032a3.781 3.781 0 013.778 3.776v23.812a3.782 3.782 0 01-3.778 3.778h-14.032a3.782 3.782 0 01-3.777-3.778V41.712a3.78 3.78 0 013.777-3.776zm14.032 30.616a3.031 3.031 0 003.027-3.028V41.712a3.03 3.03 0 00-3.027-3.026h-14.032a3.03 3.03 0 00-3.027 3.026v23.812a3.03 3.03 0 003.027 3.028zM156.844 37.51a14.848 14.848 0 0114.832 14.832v2.553a14.832 14.832 0 01-29.664 0v-2.553a14.849 14.849 0 0114.832-14.831zm0 31.466a14.097 14.097 0 0014.082-14.081v-2.553a14.082 14.082 0 00-28.164 0v2.553a14.097 14.097 0 0014.082 14.081zm0 69.546a13.319 13.319 0 11-13.32 13.318 13.333 13.333 0 0113.32-13.318zm0 25.512a12.194 12.194 0 10-12.195-12.194 12.206 12.206 0 0012.195 12.194zm-34.44-63.224a.376.376 0 01.375.375v31.577a.375.375 0 11-.75 0v-31.577a.375.375 0 01.375-.375z"/><path class="cls-3" d="M104.234 100.623h18.17l.034.001.194.012a.435.435 0 01.063.007l.194.034a.476.476 0 01.063.015l.194.058a.506.506 0 01.06.02l.196.084a.794.794 0 01.057.027l.196.111a.42.42 0 01.051.033l.193.138a.7.7 0 01.046.036l.195.173a.535.535 0 01.04.04l.191.207a.672.672 0 01.035.042l.187.248a.502.502 0 01.032.047l.177.292a.45.45 0 01.025.046l.165.34a.93.93 0 01.02.044l.15.391a.462.462 0 01.015.046l.129.447c.004.016.008.03.01.046l.101.508a.35.35 0 01.007.045l.066.57a.407.407 0 01.003.043l.024.632.052 3.9.028 3.886.008 3.782-.008 3.78-.028 3.886-.051 3.889-.025.645a.435.435 0 01-.003.044l-.066.568a.49.49 0 01-.006.045l-.101.508a.537.537 0 01-.011.047l-.13.446a.54.54 0 01-.014.046l-.15.392-.02.045-.165.34a.67.67 0 01-.025.046l-.177.291a.597.597 0 01-.032.047l-.187.248a.566.566 0 01-.033.04l-.192.21a.768.768 0 01-.043.042l-.195.17a.576.576 0 01-.042.035l-.193.14a.386.386 0 01-.056.034l-.196.11a.53.53 0 01-.057.027l-.197.082a.696.696 0 01-.053.02l-.193.058a.662.662 0 01-.067.016l-.194.034a.574.574 0 01-.063.007l-.194.012h-18.204a.562.562 0 01-.563-.562v-31.577a.562.562 0 01.563-.562zm18.152 1.125h-17.59v30.451h17.59l.147-.008.13-.023.133-.04.141-.059.14-.077.144-.105.151-.133.152-.166.154-.204.148-.244.143-.295.133-.348.116-.4.092-.463.06-.524.022-.61.052-3.87.028-3.882.008-3.774-.008-3.777-.028-3.88-.052-3.882-.022-.597-.06-.525-.092-.462-.116-.402-.132-.346-.144-.294-.148-.246-.153-.202-.153-.166-.15-.134-.146-.103-.141-.08-.14-.059-.131-.039-.131-.023z"/><path class="cls-4" d="M203.068 97.755a2.89 2.89 0 00.984.172c.404 0 .819-.14.819-.588 0-.361-.24-.535-.9-.794-.804-.34-1.268-.653-1.268-1.407 0-.914.78-1.289 1.6-1.289a3.792 3.792 0 011.374.229l-.168.632a3.196 3.196 0 00-1.195-.273c-.527 0-.882.217-.882.648 0 .388.344.6.995.858.754.302 1.184.683 1.184 1.332 0 .887-.786 1.26-1.523 1.26a3.583 3.583 0 01-1.165-.178zm-2.485-3.906a1.754 1.754 0 101.64 1.75 1.565 1.565 0 00-1.64-1.75m0 2.95c-.625 0-.913-.5-.913-1.2 0-.715.288-1.213.913-1.213.617 0 .907.498.907 1.213 0 .7-.282 1.2-.907 1.2m-2.187.476v-3.38h-.721v1.881c0 .745-.427 1.022-.827 1.022-.545 0-.691-.36-.691-.941v-1.961h-.741v2.236a1.143 1.143 0 001.235 1.217 1.128 1.128 0 001.024-.545h.014v.47zm-4.067 0h.797l-1.336-3.278.548-1.32h-.758l-1.835 4.598h.762l.908-2.48h.009zm-35.442-3.38H156.2v.632h1.937v1.414h-1.719v.611h1.72v1.297h-1.878v.606h2.627zm-3.273 3.38v-3.38h-.725v1.881c0 .745-.412 1.022-.826 1.022-.551 0-.697-.36-.697-.941v-1.961h-.716v2.236a1.228 1.228 0 002.25.672h.009v.47zm32.862 0v-3.38h-.736v1.881c0 .745-.423 1.022-.818 1.022-.556 0-.708-.36-.708-.941v-1.961h-.725v2.236a1.135 1.135 0 001.223 1.217 1.156 1.156 0 001.04-.545h.01v.47zm-36.186-.55h-.56v-1.897c0-.62-.138-.955-.896-.955-.196 0-.408.01-.56.023v.555a2.45 2.45 0 01.343-.027c.348 0 .393.08.393.54v1.76h-.739v.551h.739v.875h.72v-.875h.56zm-5.394-1.339v.31c0 1.005.496 1.653 1.467 1.653a1.589 1.589 0 001.587-1.76 1.643 1.643 0 00-1.793-1.74 2.69 2.69 0 00-1.014.153l.094.537a2.362 2.362 0 01.849-.153 1.042 1.042 0 011.156 1zm2.346.532a.902.902 0 01-.879.913.785.785 0 01-.787-.896v-.017h1.666m-4.601 1.425a1.15 1.15 0 00.126.006.87.87 0 00.87-.518h.017v.444h.706v-3.38h-.733v1.794c0 .814-.357 1.09-.797 1.09-.063 0-.112 0-.154-.002zm40.485-.619h-.553v-1.896c0-.62-.145-.955-.923-.955-.188 0-.403.01-.54.023v.555a2.238 2.238 0 01.327-.027c.353 0 .389.08.389.54v1.76h-.717v.551h.717v.875h.747v-.875h.553zm-14.09 0h-.573v-1.896c0-.62-.123-.955-.907-.955-.191 0-.395.01-.555.023v.555a2.465 2.465 0 01.344-.027c.35 0 .392.08.392.54v1.76H169v.551h.737v.875h.726v-.875h.573zm8.688-1.338v.31c0 1.005.5 1.653 1.457 1.653a1.588 1.588 0 001.6-1.76 1.64 1.64 0 00-1.788-1.74 2.663 2.663 0 00-1.014.153l.097.537a2.425 2.425 0 01.853-.153 1.043 1.043 0 011.143 1zm2.348.532a.905.905 0 01-.891.913.78.78 0 01-.77-.896v-.017h1.66m-21.256-.532v.31c0 1.005.494 1.653 1.452 1.653a1.596 1.596 0 001.607-1.76 1.648 1.648 0 00-1.805-1.74 2.602 2.602 0 00-1.001.153l.102.537a2.23 2.23 0 01.829-.153 1.056 1.056 0 011.175 1zm2.36.532a.92.92 0 01-.908.913.79.79 0 01-.78-.896v-.017h1.687m14.264 1.425c.065.004.092.006.137.006a.876.876 0 00.883-.518h.01v.444h.705v-3.38h-.719v1.794c0 .814-.371 1.09-.816 1.09-.063 0-.102 0-.147-.002zm-33.289-.619h-.474v-1.896c0-.62-.147-.955-.905-.955-.2 0-.412.01-.567.023v.555a2.37 2.37 0 01.348-.027c.328 0 .398.08.398.54v1.76h-.756v.551h.756v.875h.726v-.875h.474zm-4.41-.7c1.146 0 2.12-.182 2.12-1.157 0-.776-.587-1.018-1.155-1.018a1.084 1.084 0 00-1.02.522h-.016a2.34 2.34 0 00-.074-.475h-.637a6.44 6.44 0 01.042.783v1.426c0 .812.493 1.244 1.467 1.244a3.352 3.352 0 001.063-.195l-.151-.537a2.448 2.448 0 01-.866.181c-.54 0-.774-.246-.774-.693zm0-.475v-.266a.83.83 0 01.871-.912.495.495 0 01.556.527c0 .525-.613.65-1.29.65zm35.37.474c1.134 0 2.115-.181 2.115-1.156 0-.776-.58-1.018-1.164-1.018a1.104 1.104 0 00-1.02.522h-.012a2.995 2.995 0 00-.068-.475h-.635a4.77 4.77 0 01.055.783v1.426c0 .812.474 1.244 1.44 1.244a3.203 3.203 0 001.061-.195l-.142-.537a2.437 2.437 0 01-.859.181c-.54 0-.77-.246-.77-.693zm0-.474v-.266a.824.824 0 01.853-.912.502.502 0 01.575.527c0 .525-.622.65-1.296.65zm-37.617 3.01h.733v-.677h-.733zm.012-1.284h.721v-3.38h-.721zm30.153 1.283h.744v-.676h-.744zm.018-1.283h.726v-3.38h-.726zm-30.945 0v-3.38h-.724v1.881c0 .745-.427 1.022-.826 1.022-.547 0-.693-.36-.693-.941v-1.961h-.729v2.236a1.128 1.128 0 001.221 1.217 1.16 1.16 0 001.039-.545h.005v.47zm-3.718 0v-3.38h-.733v1.915c0 .71-.359.988-.756.988-.547 0-.652-.34-.652-.902v-2h-.725v2.066a.734.734 0 01-.74.836c-.53 0-.64-.383-.64-.941v-1.961h-.739v2.236a1.108 1.108 0 001.211 1.217 1.14 1.14 0 001.048-.545h.028a.985.985 0 00.991.545 1.052 1.052 0 00.979-.557h.019v.483zm-8.551-1.889v.31c0 1.005.492 1.653 1.447 1.653a1.594 1.594 0 001.605-1.76 1.643 1.643 0 00-1.806-1.74 2.636 2.636 0 00-.998.153l.097.537a2.327 2.327 0 01.854-.153 1.056 1.056 0 011.153 1zm2.352.532a.919.919 0 01-.905.913.794.794 0 01-.774-.896v-.017h1.68m-2.903 1.357v-3.38h-.71v1.881c0 .745-.416 1.022-.83 1.022-.57 0-.697-.36-.697-.941v-1.961h-.733v2.236a1.24 1.24 0 002.266.672h.016v.47zm-3.321-.55h-.551v-1.897c0-.62-.14-.955-.902-.955-.202 0-.41.01-.56.023v.555a2.402 2.402 0 01.333-.027c.333 0 .39.08.39.54v1.76h-.722v.551h.721v.875h.74v-.875h.55zm-3.733-2.83h-.767v4.56h.767zm73.112 0h-.736v4.56h.736zm-74.629 3.38v-3.38h-.721v1.881c0 .745-.418 1.022-.826 1.022-.565 0-.695-.36-.695-.941v-1.961h-.734v2.236a1.235 1.235 0 002.258.672h.019v.47zm-6.028-.05a2.053 2.053 0 00.77.124 1.655 1.655 0 001.752-1.76 1.617 1.617 0 00-1.756-1.74 1.712 1.712 0 00-.766.139l.118.525a1.195 1.195 0 01.599-.127 1.214 1.214 0 01.024 2.412 1.475 1.475 0 01-.604-.118zm62.03 0a2.107 2.107 0 00.776.124 1.659 1.659 0 001.761-1.76 1.621 1.621 0 00-1.76-1.74 1.75 1.75 0 00-.776.139l.126.525a1.21 1.21 0 01.606-.127 1.214 1.214 0 01.011 2.412 1.489 1.489 0 01-.598-.118zm-62.638-3.33h-.832v.845h.832zm56.481-.001l-1.267 3.391h.78l.875-2.725h.014l.888 2.725h.807l-1.27-3.391h-.827zm-37.352 34.649a4.827 4.827 0 104.823-4.758 4.797 4.797 0 00-4.823 4.758zm.642 0a4.185 4.185 0 114.181 4.27 4.2 4.2 0 01-4.181-4.27zm42.444-2.141a2.892 2.892 0 01.863 2.135 3.102 3.102 0 01-.863 2.24 3.55 3.55 0 01-4.645 0 3.102 3.102 0 01-.851-2.24 2.81 2.81 0 01.851-2.135 3.125 3.125 0 012.324-.969 3.184 3.184 0 012.32.97zm-6.676-.564a3.96 3.96 0 00-1.148 2.699 3.692 3.692 0 001.148 2.768 6.18 6.18 0 004.355 1.475 6.81 6.81 0 004.336-1.472 3.695 3.695 0 001.184-2.771 3.744 3.744 0 00-1.184-2.7 6.611 6.611 0 00-4.336-1.478 6.525 6.525 0 00-4.355 1.479zm16.813 6.939a6.56 6.56 0 002.817-.584 2.16 2.16 0 001.476-1.969 2.07 2.07 0 00-.55-1.38 2.612 2.612 0 00-1.606-.768 22.537 22.537 0 00-2.34-.387c-.932-.108-1.867-.207-2.254-.307-.274-.082-.787-.197-.787-.695a.897.897 0 01.62-.84 4.126 4.126 0 011.87-.367 7.254 7.254 0 012.22.428 2.91 2.91 0 011.3.875 1.374 1.374 0 01.265.836h1.02v-2.926h-1.133v.428c0 .052-.05.133-.246.127a11.961 11.961 0 00-1.697-.567 6.661 6.661 0 00-1.735-.232 7.082 7.082 0 00-2.33.346 6.913 6.913 0 00-1.406.638 2.068 2.068 0 00-.74 1.55 2.04 2.04 0 00.597 1.52 2.35 2.35 0 00.748.55 5.363 5.363 0 00.922.34 17.279 17.279 0 002.572.392 19.479 19.479 0 012.3.266.598.598 0 01.43.566.707.707 0 01-.398.623 5.085 5.085 0 01-2.107.362 6.724 6.724 0 01-2.451-.405 2.252 2.252 0 01-.588-.375 2.069 2.069 0 01-.572-.986h-.936v2.584h1.05v-.32c0-.104.09-.241.286-.127a7.424 7.424 0 003.383.804zm-22.723-.473l-5.049-4.627-.018 3.112c.016.425.088.572.524.572h.957v.943h-4.328v-.943h.93c.449 0 .476-.127.482-.572l-.018-5.936h1.471l5.818 5.207v-3.677c-.005-.43-.02-.63-.44-.63h-1.02v-.9h4.23v.9h-.982c-.373 0-.358.378-.358.65v4.357c0 .308.043.6.604.6h.818v.944zm-12.793-6.551a3 3 0 00-.262.014.393.393 0 00-.191.191.99.99 0 00-.016.214v1.47c0 .035 0 .047.062.139.065.09 2.637 3.049 2.75 3.206a1.1 1.1 0 00.807.374h.88v.943h-5.054v-.943h.617c.133 0 .231-.115.102-.245 0 0-1.701-2.117-1.722-2.134-.014-.027-.032-.033-.044-.004-.023.018-1.752 2.113-1.765 2.13-.08.095-.02.253.152.253h.644v.943h-4.179v-.943h.941a.834.834 0 00.733-.305c.12-.144 2.718-3.185 2.798-3.273a.197.197 0 00.036-.14v-1.471a1.104 1.104 0 00-.022-.214.346.346 0 00-.201-.19 2.533 2.533 0 00-.258-.015h-.953v-.9h5.036v.9z"/><path class="cls-4" d="M131.36 125.885c-.043.038-.037.038-.037.038a7.313 7.313 0 01.181 1.336c.077.489.235.88.862.88h1.568l-.08-.082v-2.14l-.059-.032h.9l-.054.038v5.364l.055.045h-2.356a2.627 2.627 0 01-.734-.092 1.551 1.551 0 01-.414-2.795 2.485 2.485 0 01.414-.023c-.77 0-.867-.452-.942-1.368a3.294 3.294 0 00-.253-1.105l-.102-.065zm.988 4.708h1.586l-.08-.068v-1.736l.08-.065h-1.568a.988.988 0 00-1.092 1.037c0 .463.342.832 1.074.832z"/><path class="cls-5" d="M143.662 52.342a13.182 13.182 0 0126.364 0v2.553a13.182 13.182 0 01-26.364 0z"/><path class="cls-3" d="M156.844 38.6a13.759 13.759 0 0113.744 13.742v2.553a13.744 13.744 0 01-27.489 0v-2.553A13.76 13.76 0 01156.844 38.6zm0 28.913a12.633 12.633 0 0012.62-12.618v-2.553a12.62 12.62 0 00-25.24 0v2.553a12.633 12.633 0 0012.62 12.618zm45.071-28.033h14.032a2.237 2.237 0 012.234 2.232v23.812a2.237 2.237 0 01-2.234 2.233h-14.032a2.236 2.236 0 01-2.234-2.233V41.712a2.236 2.236 0 012.234-2.233zm14.032 27.152a1.11 1.11 0 001.11-1.108V41.712a1.11 1.11 0 00-1.11-1.107h-14.032a1.11 1.11 0 00-1.108 1.107v23.812a1.11 1.11 0 001.108 1.108z"/><path class="cls-3" d="M205.743 57.057h6.377a1.238 1.238 0 011.237 1.238v1.276a1.239 1.239 0 01-1.238 1.238h-6.377a1.237 1.237 0 01-1.237-1.237v-1.277a1.238 1.238 0 011.238-1.238z"/><path class="cls-3" d="M205.743 56.495h6.377a1.802 1.802 0 011.8 1.8v1.277a1.802 1.802 0 01-1.8 1.8h-6.377a1.802 1.802 0 01-1.8-1.8v-1.276a1.802 1.802 0 011.8-1.801zm6.377 3.752a.675.675 0 00.675-.675v-1.276a.676.676 0 00-.675-.676h-6.377a.676.676 0 00-.675.676v1.276a.675.675 0 00.675.675zm-6.377-13.819h6.377a1.238 1.238 0 011.237 1.238v1.276a1.239 1.239 0 01-1.238 1.238h-6.377a1.237 1.237 0 01-1.237-1.237v-1.277a1.238 1.238 0 011.238-1.238z"/><path class="cls-3" d="M205.743 45.866h6.377a1.802 1.802 0 011.8 1.8v1.277a1.802 1.802 0 01-1.8 1.8h-6.377a1.802 1.802 0 01-1.8-1.8v-1.276a1.802 1.802 0 011.8-1.801zm6.377 3.752a.675.675 0 00.675-.675v-1.276a.676.676 0 00-.675-.676h-6.377a.676.676 0 00-.675.676v1.276a.675.675 0 00.675.675z"/><path class="cls-6" d="M205.253 57.743h7.354v2.38h-7.354z"/><path class="cls-3" d="M205.253 57.18h7.354a.562.562 0 01.563.563v2.38a.562.562 0 01-.563.563h-7.354a.563.563 0 01-.563-.562v-2.38a.563.563 0 01.563-.563zm6.792 1.126h-6.23v1.255h6.23z"/><path class="cls-6" d="M205.253 47.114h7.354v2.38h-7.354z"/><path class="cls-3" d="M205.253 46.552h7.354a.562.562 0 01.563.562v2.38a.562.562 0 01-.563.563h-7.354a.563.563 0 01-.563-.562v-2.38a.563.563 0 01.563-.563zm6.792 1.125h-6.23v1.255h6.23zm-27.138-2.912a8.854 8.854 0 11-8.853 8.853 8.864 8.864 0 018.853-8.853zm0 16.582a7.729 7.729 0 10-7.728-7.729 7.737 7.737 0 007.728 7.73z"/><path class="cls-3" d="M184.907 46.991a6.627 6.627 0 11-6.626 6.627 6.635 6.635 0 016.626-6.627zm0 12.13a5.502 5.502 0 10-5.501-5.503 5.508 5.508 0 005.501 5.502z"/><path class="cls-3" d="M183.555 56.39a3.083 3.083 0 112.704 0l.335.687a3.85 3.85 0 10-3.374 0z"/><path class="cls-3" d="M184.492 53.769h.83v4.765h-.83zm-67.406-15.62a15.47 15.47 0 11-15.47 15.47 15.488 15.488 0 0115.47-15.47zm0 30.188a14.72 14.72 0 10-14.72-14.719 14.737 14.737 0 0014.72 14.72z"/><path class="cls-7" d="M103.268 53.618A13.82 13.82 0 10117.086 39.8a13.82 13.82 0 00-13.818 13.818z"/><path class="cls-3" d="M117.086 39.237a14.382 14.382 0 11-14.38 14.381 14.398 14.398 0 0114.38-14.38zm0 27.64a13.257 13.257 0 10-13.256-13.259 13.272 13.272 0 0013.256 13.258z"/><path class="cls-3" d="M117.086 48.086a5.532 5.532 0 11-5.532 5.532 5.54 5.54 0 015.532-5.532zm0 9.94a4.407 4.407 0 10-4.407-4.408 4.413 4.413 0 004.407 4.408z"/><path class="cls-3" d="M117.086 51.795a1.823 1.823 0 11-1.823 1.823 1.826 1.826 0 011.823-1.823zm0 2.522a.698.698 0 10-.698-.699.7.7 0 00.698.7z"/><path class="cls-8" d="M216.545 96.122l.204.325.184.361.162.4.135.436.104.471v37.717l-.104.471-.135.437-.162.398-.184.364-.204.324-.173.229V95.894l.173.228zm-6.3 0l-.204.325-.185.361-.162.4-.134.436-.105.471v37.717l.105.471.134.437.162.398.185.364.204.324.174.229V95.894l-.174.228z"/><path class="cls-4" d="M212.757 94.676l-.267.013-.264.041-.265.068-.263.096-.257.125-.256.155-.248.186-.242.219-.232.255-.044.06v42.161l.044.06.232.254.242.217.248.188.256.156.257.124.263.095.265.069.264.04.267.014h1.276l.267-.014.264-.04.266-.069.261-.095.259-.124.255-.156.249-.188.241-.217.231-.254.046-.06V95.894l-.046-.06-.231-.255-.241-.219-.249-.186-.255-.155-.259-.125-.261-.096-.266-.068-.264-.041-.267-.013h-1.276z"/><path class="cls-3" d="M212.757 94.113h1.303l.267.014a.501.501 0 01.059.006l.265.04a.604.604 0 01.053.012l.265.068a.446.446 0 01.055.017l.261.096a.723.723 0 01.051.022l.259.125a.633.633 0 01.048.026l.254.154.044.03.25.186.041.035.241.219a.633.633 0 01.039.038l.23.255c.01.011.021.023.03.036l.047.06a.565.565 0 01.116.342v42.16a.563.563 0 01-.113.338l-.046.061a.648.648 0 01-.034.042l-.231.252a.466.466 0 01-.039.04l-.241.217a.53.53 0 01-.04.033l-.249.187a.467.467 0 01-.044.03l-.254.156a.727.727 0 01-.051.027l-.259.124a.632.632 0 01-.051.022l-.262.095a.528.528 0 01-.05.015l-.264.07a.466.466 0 01-.058.011l-.265.04a.631.631 0 01-.055.006l-.267.014h-1.335l-.266-.014a.66.66 0 01-.054-.005l-.265-.04a.495.495 0 01-.058-.013l-.265-.07a.37.37 0 01-.05-.014l-.262-.095a.723.723 0 01-.053-.022l-.258-.124a.673.673 0 01-.048-.027l-.256-.156a.483.483 0 01-.046-.031l-.248-.188a.393.393 0 01-.038-.031l-.242-.218-.038-.037-.232-.254a.616.616 0 01-.04-.048l-.043-.06a.558.558 0 01-.109-.332V95.894a.561.561 0 01.112-.337l.044-.06a.594.594 0 01.036-.043l.232-.254a.582.582 0 01.037-.037l.242-.22a.598.598 0 01.04-.033l.248-.186.047-.032.255-.154a.57.57 0 01.045-.024l.258-.126a.618.618 0 01.053-.022l.262-.096a.487.487 0 01.054-.017l.265-.068a.677.677 0 01.053-.011l.266-.041a.518.518 0 01.058-.006l.266-.013zm1.262 1.125h-1.25l-.222.01-.208.033-.211.054-.209.077-.21.101-.209.128-.205.154-.202.183-.112.123v41.747l.111.12.203.185.206.156.208.126.208.1.21.076.211.055.21.032.223.011h1.247l.225-.011.209-.032.21-.055.21-.076.209-.1.206-.126.208-.157.203-.183.112-.122V96.102l-.113-.124-.202-.183-.206-.154-.208-.128-.21-.1-.21-.077-.21-.055-.208-.032z"/><path class="cls-3" d="M212.757 94.113h1.303l.267.014a.501.501 0 01.059.006l.265.04a.604.604 0 01.053.012l.265.068a.446.446 0 01.055.017l.261.096a.723.723 0 01.051.022l.259.125a.633.633 0 01.048.026l.254.154.044.03.25.186.041.035.241.219a.633.633 0 01.039.038l.23.255c.012.011.022.024.032.037l.22.289.028.04.203.325a.508.508 0 01.026.045l.184.362a.433.433 0 01.02.044l.161.4a.433.433 0 01.016.044l.135.436a.33.33 0 01.012.045l.104.47a.569.569 0 01.013.122v37.717a.57.57 0 01-.013.123l-.104.47a.616.616 0 01-.012.043l-.134.437c-.006.016-.01.031-.017.046l-.161.399a.533.533 0 01-.02.042l-.184.364a.508.508 0 01-.026.044l-.203.326-.028.04-.219.29-.033.039-.231.252a.466.466 0 01-.039.04l-.241.217a.53.53 0 01-.04.033l-.249.187a.467.467 0 01-.044.03l-.254.156a.727.727 0 01-.051.027l-.259.124a.632.632 0 01-.051.022l-.262.095a.528.528 0 01-.05.015l-.264.07a.466.466 0 01-.058.011l-.265.04a.631.631 0 01-.055.006l-.267.014h-1.335l-.266-.014a.66.66 0 01-.054-.005l-.265-.04a.495.495 0 01-.058-.012l-.265-.07a.37.37 0 01-.05-.015l-.262-.095a.723.723 0 01-.053-.022l-.258-.124a.673.673 0 01-.048-.027l-.256-.156a.483.483 0 01-.046-.031l-.248-.188a.393.393 0 01-.038-.031l-.242-.218-.038-.037-.232-.254a.734.734 0 01-.034-.041l-.218-.29a.715.715 0 01-.027-.038l-.204-.326a.441.441 0 01-.025-.043l-.185-.363a.539.539 0 01-.02-.044l-.162-.399a.624.624 0 01-.016-.046l-.135-.437a.616.616 0 01-.012-.044l-.104-.47a.527.527 0 01-.014-.122V98.115a.525.525 0 01.014-.122l.104-.47.012-.045.135-.436a.865.865 0 01.016-.045l.162-.4a.467.467 0 01.02-.044l.186-.363a.653.653 0 01.024-.043l.204-.324a.529.529 0 01.027-.04l.219-.289a.579.579 0 01.033-.04l.232-.254a.582.582 0 01.037-.037l.242-.22a.598.598 0 01.04-.033l.248-.186.047-.032.255-.154a.57.57 0 01.045-.024l.258-.126a.618.618 0 01.053-.022l.262-.096a.487.487 0 01.054-.017l.265-.068a.677.677 0 01.053-.011l.266-.041a.518.518 0 01.058-.006l.266-.013zm1.262 1.125h-1.25l-.222.01-.208.033-.211.054-.209.077-.21.101-.209.128-.205.154-.202.183-.197.216-.188.247-.177.284-.163.318-.143.354-.121.391-.086.389v37.594l.086.387.12.393.144.353.163.32.178.283.187.249.196.213.203.184.206.156.208.126.208.1.21.076.211.055.21.032.223.011h1.247l.225-.011.209-.032.21-.055.21-.076.209-.1.206-.126.208-.157.203-.183.195-.213.189-.25.177-.282.161-.32.145-.353.12-.393.086-.387V98.177l-.085-.389-.121-.39-.145-.356-.16-.318-.178-.282-.189-.248-.196-.216-.202-.183-.206-.154-.208-.128-.21-.1-.21-.077-.21-.055-.208-.032z"/><path class="cls-8" d="M97.144 96.122l-.203.325-.186.361-.161.4-.135.436-.104.471v37.717l.104.471.135.437.161.398.186.364.203.324.173.229V95.894l-.173.228zm6.301 0l.203.325.184.361.162.4.135.436.105.471v37.717l-.105.471-.135.437-.162.398-.184.364-.203.324-.175.229V95.894l.175.228z"/><path class="cls-4" d="M100.932 94.676l.267.013.265.041.264.068.262.096.259.125.255.155.249.186.241.219.232.255.044.06v42.161l-.044.06-.232.254-.241.217-.249.188-.255.156-.259.124-.262.095-.264.069-.265.04-.267.014h-1.276l-.266-.014-.266-.04-.263-.069-.263-.095-.259-.124-.255-.156-.249-.188-.24-.217-.232-.254-.046-.06V95.894l.046-.06.232-.255.24-.219.249-.186.255-.155.259-.125.263-.096.263-.068.266-.041.266-.013h1.276z"/><path class="cls-3" d="M99.656 94.113h1.304l.266.014a.518.518 0 01.058.006l.266.04a.644.644 0 01.054.012l.264.068a.435.435 0 01.053.017l.263.096a.732.732 0 01.052.022l.259.125a.618.618 0 01.047.026l.254.154a.454.454 0 01.044.03l.25.186a.48.48 0 01.042.035l.24.22a.414.414 0 01.037.036l.232.254a.912.912 0 01.036.043l.044.06a.562.562 0 01.111.337v42.16a.557.557 0 01-.108.332l-.044.061a.616.616 0 01-.04.048l-.232.254a.842.842 0 01-.036.037l-.24.217a.866.866 0 01-.04.034l-.25.187a.467.467 0 01-.045.03l-.254.156a.526.526 0 01-.05.027l-.26.124a.68.68 0 01-.052.022l-.262.095-.048.015-.264.07a.523.523 0 01-.06.011l-.266.04a.614.614 0 01-.053.006l-.266.014h-1.336l-.266-.014a.646.646 0 01-.053-.005l-.266-.04a.52.52 0 01-.06-.013l-.263-.07a.537.537 0 01-.05-.014l-.262-.095a.69.69 0 01-.051-.022l-.259-.124a.677.677 0 01-.051-.027l-.254-.156a.448.448 0 01-.044-.03l-.25-.187a.6.6 0 01-.04-.034l-.24-.217a.446.446 0 01-.037-.037l-.232-.254a.67.67 0 01-.036-.042l-.045-.06a.562.562 0 01-.113-.338V95.894a.565.565 0 01.116-.342l.046-.06a.369.369 0 01.032-.038l.23-.254a.548.548 0 01.038-.036l.24-.22a.634.634 0 01.042-.035l.25-.186.044-.03.254-.154c.015-.01.032-.018.048-.026l.258-.125a.827.827 0 01.052-.022l.263-.096a.392.392 0 01.053-.017l.264-.068a.592.592 0 01.055-.011l.266-.041a.498.498 0 01.058-.006l.266-.013zm1.263 1.125h-1.25l-.222.01-.21.033-.21.054-.21.077-.21.101-.207.128-.207.154-.2.183-.114.124v41.744l.113.123.201.184.208.156.207.126.208.1.212.076.209.055.21.032.224.011h1.246l.224-.011.21-.032.21-.055.212-.076.207-.1.207-.126.208-.156.202-.184.11-.121V96.101l-.112-.123-.2-.183-.206-.154-.209-.128-.21-.1-.21-.077-.21-.055-.209-.032z"/><path class="cls-3" d="M99.656 94.113h1.304l.266.014a.518.518 0 01.058.006l.266.04a.644.644 0 01.054.012l.264.068a.435.435 0 01.053.017l.263.096a.732.732 0 01.052.022l.259.125a.618.618 0 01.047.026l.254.154a.454.454 0 01.044.03l.25.186a.48.48 0 01.042.035l.24.22a.414.414 0 01.037.036l.232.254.032.039.22.289c.01.013.02.027.029.042l.202.325c.01.013.017.027.024.041l.185.363a.462.462 0 01.02.045l.163.4.016.044.135.436.011.045.104.47a.526.526 0 01.014.122v37.717a.527.527 0 01-.014.123l-.104.47a.702.702 0 01-.011.043l-.135.437a.56.56 0 01-.016.046l-.162.399a.551.551 0 01-.02.044l-.185.363a.576.576 0 01-.025.043l-.202.324a.747.747 0 01-.029.042l-.219.29a.993.993 0 01-.034.04l-.232.253a.842.842 0 01-.036.037l-.24.217a.866.866 0 01-.04.034l-.25.187a.467.467 0 01-.045.03l-.254.156a.526.526 0 01-.05.027l-.26.124a.68.68 0 01-.052.022l-.262.095-.048.015-.264.07a.523.523 0 01-.06.011l-.266.04a.614.614 0 01-.053.006l-.266.014h-1.336l-.266-.014a.646.646 0 01-.053-.005l-.266-.04a.52.52 0 01-.06-.012l-.263-.07a.537.537 0 01-.05-.015l-.262-.095a.69.69 0 01-.051-.022l-.259-.124a.677.677 0 01-.051-.027l-.254-.156a.448.448 0 01-.044-.03l-.25-.187a.6.6 0 01-.04-.034l-.24-.217a.446.446 0 01-.037-.037l-.232-.253a.609.609 0 01-.034-.04l-.22-.29a.737.737 0 01-.028-.042l-.203-.324a1.128 1.128 0 01-.023-.043l-.185-.363a.971.971 0 01-.02-.044l-.162-.399a.361.361 0 01-.017-.046l-.135-.437a.616.616 0 01-.011-.044l-.104-.47a.58.58 0 01-.014-.122V98.115a.578.578 0 01.014-.122l.104-.47.012-.045.135-.436a.475.475 0 01.015-.045l.162-.4a.464.464 0 01.02-.044l.186-.363.023-.041.203-.325a.88.88 0 01.03-.042l.219-.29c.01-.012.02-.025.033-.038l.23-.254a.548.548 0 01.038-.036l.24-.22a.634.634 0 01.042-.035l.25-.186.044-.03.254-.154c.015-.01.032-.018.048-.026l.258-.125a.827.827 0 01.052-.022l.263-.096a.392.392 0 01.053-.017l.264-.068a.592.592 0 01.055-.011l.266-.041a.498.498 0 01.058-.006l.266-.013zm1.263 1.125h-1.25l-.222.01-.21.033-.21.054-.21.077-.21.101-.207.128-.207.154-.2.183-.198.216-.188.247-.176.283-.163.319-.144.354-.12.391-.087.389v37.594l.086.387.12.393.145.353.163.32.176.283.188.248.197.214.201.184.208.156.207.126.208.1.212.076.209.055.21.032.224.011h1.246l.224-.011.21-.032.21-.055.212-.076.207-.1.207-.126.208-.156.202-.184.196-.214.188-.248.176-.283.163-.32.144-.353.12-.393.087-.387V98.177l-.086-.389-.121-.39-.144-.355-.162-.319-.177-.282-.188-.248-.198-.216-.2-.183-.206-.154-.209-.128-.21-.1-.21-.077-.21-.055-.209-.032z"/><path class="cls-8" d="M93.488 32.46H220.2a5.008 5.008 0 015.002 5.002v126.71a5.006 5.006 0 01-5.002 5H93.49a5.007 5.007 0 01-5.003-5V37.462a5.008 5.008 0 015.002-5.003zM220.2 167.672a3.505 3.505 0 003.502-3.5V37.461a3.506 3.506 0 00-3.502-3.503H93.49a3.506 3.506 0 00-3.503 3.503v126.71a3.505 3.505 0 003.502 3.5z"/><path class="cls-9" d="M62.56 0h188.567v188.567H62.56z"/></g></g></svg>