<svg xmlns="http://www.w3.org/2000/svg" viewBox="0 0 555 190"><defs><style>.cls-1{fill:#fff}.cls-2{fill:#bfd833}.cls-3{fill:#e5e5e6}.cls-4{fill:#9e9e9f}.cls-5{fill:#c8c9ca}.cls-6{fill:#231815}.cls-7{fill:none}</style></defs><g id="レイヤー_2" data-name="レイヤー 2"><g id="レイヤー_1-2" data-name="レイヤー 1"><path class="cls-1" d="M0 0h555v190H0z"/><path class="cls-2" d="M240.086 170.226H76.238a.75.75 0 010-1.5h163.848a.75.75 0 010 1.5z"/><path class="cls-1" d="M214.71 167.979a2.977 2.977 0 01-2.977-2.977v-5.529h-.962v5.926h-18.17a2.55 2.55 0 01-2.55-2.55l-.088-3.376h-19.045l-.129.154-.003.157a2.146 2.146 0 01-.363 1.152l-1.969 2.918a9.355 9.355 0 01-7.754 4.125h-5.078a9.355 9.355 0 01-7.754-4.125l-1.969-2.918a2.139 2.139 0 01-.362-1.152l-.002-.157-.129-.154-7.596.002a1.702 1.702 0 01-1.648 1.275h-9.834l-.056 2.098a2.55 2.55 0 01-2.553 2.55h-18.168v-5.925h-.963v5.53a2.977 2.977 0 11-5.953 0v-5.53h-5.528l-2.425-5.102h-.127V74.86l2.125-2.124h8.398v-2.34a1.276 1.276 0 00-1.275-1.276h-2.975v-2.976a1.273 1.273 0 011.274-1.276h18.71a1.275 1.275 0 011.275 1.276l.171 6.591h16.58l.174-6.591a1.274 1.274 0 011.273-1.276h43.753a1.276 1.276 0 011.277 1.276l.174 6.591h16.574l.174-6.591a1.276 1.276 0 011.276-1.276h18.709a1.275 1.275 0 011.275 1.276v2.976h-2.976a1.276 1.276 0 00-1.276 1.276v2.34h8.398l2.126 2.124v79.512h-.127l-2.423 5.102h-5.532v5.53a2.977 2.977 0 01-2.977 2.976z"/><path class="cls-3" d="M145.406 159.473l.13.154.001.157a2.139 2.139 0 00.362 1.152l1.969 2.918a9.355 9.355 0 007.754 4.125h5.078a9.355 9.355 0 007.754-4.125l1.97-2.918a2.146 2.146 0 00.362-1.152l.003-.157.13-.154z"/><path class="cls-1" d="M170.918 159.473l-1.733 2.066a8.507 8.507 0 01-6.515 3.038h-9.017a8.509 8.509 0 01-6.515-3.037l-1.732-2.067z"/><path class="cls-4" d="M225.769 154.934H90.555a.563.563 0 010-1.125h135.214a.563.563 0 010 1.125zM225.769 127.721H90.555a.563.563 0 010-1.125h135.214a.563.563 0 010 1.125zM225.769 86.903H90.555a.563.563 0 010-1.126h135.214a.563.563 0 010 1.126zM225.769 75.422H90.555a.563.563 0 010-1.125h135.214a.563.563 0 010 1.125zM223.643 73.297H92.68a.563.563 0 010-1.125h130.963a.563.563 0 110 1.125zM181.315 70.77h-14.33a.375.375 0 010-.75h14.33a.375.375 0 010 .75zM149.34 70.77h-14.328a.375.375 0 010-.75h14.328a.375.375 0 010 .75zM169.992 69.494a.375.375 0 01-.375-.375v-2.995l.008-.166.003-.032.023-.164a.316.316 0 01.007-.037l.037-.157.01-.035.052-.15a.434.434 0 01.018-.043l.068-.139.015-.027.075-.125a.394.394 0 01.032-.045l.09-.11a.326.326 0 01.031-.035l.098-.092a.424.424 0 01.043-.036l.105-.073a.41.41 0 01.054-.031l.112-.054a.359.359 0 01.061-.023l.117-.033a.358.358 0 01.068-.012l.117-.011a.375.375 0 01.067.747l-.083.007-.052.015-.056.027-.057.04-.06.057-.058.07-.053.09-.05.103-.038.11-.03.121-.017.13-.007.141v2.967a.375.375 0 01-.375.375z"/><path class="cls-4" d="M164.616 73.297a.563.563 0 01-.563-.563v-6.623l.01-.166.005-.048.023-.165a.633.633 0 01.01-.05l.038-.158a.589.589 0 01.015-.051l.051-.15a.563.563 0 01.024-.06l.066-.138a.46.46 0 01.03-.053l.077-.126a.622.622 0 01.04-.058l.09-.11a.594.594 0 01.05-.054l.097-.092a.56.56 0 01.065-.054l.105-.074a.572.572 0 01.08-.047l.112-.053a.585.585 0 01.09-.035l.117-.032a.548.548 0 01.102-.019l.117-.01a.563.563 0 01.101 1.12l-.084.01-.06.037-.04.039-.044.053-.042.069-.039.082-.033.094-.025.106-.016.114-.007.127v6.576a.563.563 0 01-.562.562zM118.087 66.518H96.828a.375.375 0 110-.75h21.259a.375.375 0 110 .75z"/><path class="cls-4" d="M181.315 66.518h-46.303a.375.375 0 010-.75h46.303a.375.375 0 010 .75zM219.497 66.518h-21.26a.375.375 0 010-.75h21.26a.375.375 0 010 .75z"/><path class="cls-4" d="M146.333 69.494a.375.375 0 01-.375-.375l-.007-3.107-.019-.13-.028-.121-.04-.114-.047-.1-.056-.088-.058-.074-.059-.055-.057-.04-.057-.027-.05-.015-.082-.007a.375.375 0 11.066-.747l.118.01a.412.412 0 01.07.013l.115.033a.338.338 0 01.059.023l.112.053a.366.366 0 01.054.032l.105.073a.394.394 0 01.042.035l.098.092a.414.414 0 01.038.042l.086.11a.293.293 0 01.022.03l.08.126a.285.285 0 01.024.043l.064.137.014.035.053.15a.323.323 0 01.01.037l.038.157a.296.296 0 01.007.034l.023.164a.277.277 0 01.003.035l.009.166v2.995a.375.375 0 01-.375.375zM151.707 73.297a.563.563 0 01-.562-.563v-6.582l-.004-.126-.016-.108-.025-.102-.035-.098-.037-.082-.086-.121-.077-.064-.045-.017-.064-.006a.563.563 0 01.1-1.12l.118.01a.54.54 0 01.102.02l.117.031a.708.708 0 01.092.036l.111.054a.53.53 0 01.077.045l.106.074a.55.55 0 01.06.049l.1.093a.632.632 0 01.056.06l.088.111a.58.58 0 01.035.049l.08.125a.607.607 0 01.037.068l.063.138.018.044.054.15a.543.543 0 01.018.06l.037.156a.624.624 0 01.01.051l.023.165a.537.537 0 01.005.06l.006.166v6.611a.563.563 0 01-.562.563z"/><path class="cls-4" d="M149.34 73.297a.563.563 0 01-.562-.563v-2.339a.715.715 0 00-.715-.713h-12.484l-.005.26v.144a.563.563 0 01-1.125 0l.005-.439v-.018l.008-.12v-.017l.01-.108.004-.034.014-.094a.515.515 0 01.012-.057l.02-.077a.577.577 0 01.023-.07l.024-.062a.576.576 0 01.054-.1l.03-.046a.576.576 0 01.147-.15l.039-.027a.543.543 0 01.208-.089l.046-.01a.54.54 0 01.113-.011h12.857a1.841 1.841 0 011.84 1.838v2.34a.563.563 0 01-.563.562zM166.985 73.297a.563.563 0 01-.562-.563v-2.339a1.84 1.84 0 011.837-1.838h12.858a.52.52 0 01.116.012l.044.009a.564.564 0 01.213.094l.037.027a.568.568 0 01.129.129l.033.045a.61.61 0 01.064.117l.025.062a.47.47 0 01.023.07l.02.077a.552.552 0 01.011.057l.014.094.004.029.011.107.002.028.01.261.001.016.001.142a.562.562 0 01-.557.567.57.57 0 01-.568-.558l-.005-.26H168.26a.714.714 0 00-.712.713v2.34a.563.563 0 01-.563.562zM135.132 120.568a.568.568 0 01-.192-.033l-.522-.19-.03-.012-.515-.222-.033-.015-.506-.258-.028-.015-.498-.29-.027-.016-.484-.319-.028-.02-.464-.35-.027-.02-.44-.375-.027-.025-.41-.396-.022-.023-.382-.416-.02-.024-.353-.429-.022-.028-.313-.435-.02-.028-.276-.44-.018-.03-.246-.452-.014-.029-.206-.44a.33.33 0 01-.016-.035l-.212-.548-.008-.023-.199-.587-.009-.032-.17-.623-.007-.025-.147-.66a.462.462 0 01-.011-.071l-.062-.683-.001-.02-.04-.708-.002-.022-.013-.722V95.441a.563.563 0 01.56-.562l4.47-.033a.575.575 0 01.4.163.562.562 0 01.166.4v5.446h4.437a.562.562 0 01.563.563v4.469a.563.563 0 01-.563.562h-4.437v2.445l.018 1.74.015.27.028.27.038.28.105.553.072.265.085.257.099.236.133.25.16.264.186.26.218.265.247.266.29.267.321.27.377.268.432.278.51.284.601.3a.562.562 0 01.232.793l-2.26 3.765a.562.562 0 01-.483.273zm-.314-1.276l.07.027 1.71-2.846-.07-.035-.024-.012-.535-.299-.03-.018-.458-.294-.023-.015-.406-.29a.451.451 0 01-.036-.028l-.348-.293-.019-.016-.315-.291a.594.594 0 01-.031-.031l-.273-.294-.022-.025-.241-.293c-.01-.01-.017-.02-.024-.03l-.209-.293a.36.36 0 01-.022-.034l-.181-.297-.016-.028-.153-.287a.558.558 0 01-.022-.047l-.117-.28a.385.385 0 01-.015-.041l-.097-.292-.007-.027-.082-.297a.342.342 0 01-.01-.04l-.115-.606-.003-.023-.04-.3-.004-.018-.03-.293-.002-.027-.016-.291v-.018l-.008-.298-.01-1.474v-3.011a.563.563 0 01.562-.563h4.437v-3.344h-4.437a.563.563 0 01-.563-.562v-5.443l-3.346.024v14.47l.014.701.038.688.058.638.136.61.163.595.188.56.201.517.191.407.229.42.257.408.292.407.332.403.36.392.385.372.413.353.437.329.456.3.471.274.476.242zM164.687 98.9h-.025l-.241-.01-.044-.004-.238-.03a.792.792 0 01-.045-.007l-.25-.052a.75.75 0 01-.052-.013l-.235-.073a.24.24 0 01-.032-.011l-.236-.09-.04-.017-.234-.11a.574.574 0 01-.042-.022l-.214-.124a.44.44 0 01-.049-.032l-.193-.14a.404.404 0 01-.028-.022l-.185-.152a.626.626 0 01-.04-.038l-.166-.167a.368.368 0 01-.029-.031l-.156-.183a.502.502 0 01-.03-.038l-.14-.197a.453.453 0 01-.03-.045l-.122-.212c-.008-.013-.015-.027-.021-.04l-.106-.222-.01-.023-.099-.233a.74.74 0 01-.022-.063l-.068-.234-.01-.042-.049-.234-.005-.03-.035-.235a.561.561 0 01-.006-.062l-.008-.217a.362.362 0 010-.04l.008-.242a.567.567 0 01.005-.061l.037-.249.005-.028.049-.247a.51.51 0 01.015-.057l.076-.246a.545.545 0 01.012-.037l.094-.242a.704.704 0 01.02-.042l.11-.229.02-.036.126-.218a.441.441 0 01.029-.044l.142-.2.022-.029.152-.187a.588.588 0 01.035-.039l.166-.17a.448.448 0 01.04-.037l.187-.158.036-.028.197-.14a.45.45 0 01.047-.03l.225-.13a.39.39 0 01.03-.015l.225-.112a.48.48 0 01.044-.02l.23-.09.047-.016.247-.072c.01-.004.022-.006.033-.009l.229-.053a.562.562 0 01.059-.01l.232-.028a.409.409 0 01.042-.003l.237-.01h.05l.232.01.042.003.231.028a.701.701 0 01.055.01l.234.052.038.01.243.073.04.013.236.09a.585.585 0 01.05.022l.224.112a.398.398 0 01.039.022l.214.129.034.02.2.141a.516.516 0 01.044.035l.184.158.028.026.17.169a.498.498 0 01.044.047l.153.188a.287.287 0 00.019.025l.143.2.02.03.136.217a.596.596 0 01.037.069l.21.484a.702.702 0 01.023.07l.067.246.01.043.047.246.005.032.033.248a.601.601 0 01.004.052l.01.241v.046l-.01.217a.522.522 0 01-.004.048l-.03.235-.006.036-.046.233a.406.406 0 01-.01.04l-.064.235a.566.566 0 01-.025.07l-.098.233-.007.016-.102.222a.544.544 0 01-.03.057l-.129.212a.408.408 0 01-.028.042l-.145.197a.378.378 0 01-.027.032l-.157.183-.019.021-.16.168a.563.563 0 01-.042.041l-.18.153a.555.555 0 01-.047.035l-.206.141a.466.466 0 01-.033.02l-.212.124a.44.44 0 01-.039.022l-.228.11a.476.476 0 01-.044.02l-.233.088a.31.31 0 01-.039.013l-.241.073-.048.012-.246.051a.51.51 0 01-.046.008l-.238.03-.044.003-.236.01zm-.194-1.133l.194.008.189-.008.192-.025.2-.041.2-.06.19-.073.187-.09.176-.103.166-.113.133-.114.129-.136.135-.156.118-.16.098-.163.166-.375.05-.178.037-.195.025-.192.007-.17-.007-.192-.028-.207-.04-.21-.05-.19-.168-.388-.106-.169-.125-.173-.122-.151-.135-.134-.149-.127-.161-.114-.179-.107-.178-.089-.192-.073-.205-.061-.187-.042-.182-.022-.184-.008-.19.008-.182.022-.184.042-.207.06-.184.073-.189.093-.186.107-.155.11-.15.127-.129.132-.125.154-.117.164-.104.178-.091.19-.079.2-.061.2-.041.204-.03.203-.006.19.006.165.029.19.04.196.053.18.08.192.09.19.098.169.112.156.126.148.132.132.15.124.155.113.168.098.192.09.199.075.192.06.2.041zM166.924 119.97h-4.472a.563.563 0 01-.562-.563v-17.99a.562.562 0 01.562-.562h4.472a.562.562 0 01.563.563v17.989a.563.563 0 01-.563.562zm-3.91-1.126h3.348V101.98h-3.347zM149.645 120.43h-.022l-.604-.024-.027-.002-.603-.052-.034-.004-.593-.088-.035-.007-.582-.124-.035-.008-.566-.16-.026-.008-.555-.184-.035-.014-.54-.222c-.011-.003-.021-.008-.032-.013l-.518-.25-.034-.017-.5-.284-.027-.016-.485-.312-.028-.019-.466-.341a.302.302 0 01-.032-.024l-.438-.37-.019-.017-.422-.39-.028-.028-.39-.416-.023-.025-.369-.442-.024-.03-.338-.467-.015-.022-.315-.483-.02-.034-.28-.502-.012-.023-.253-.511-.016-.035-.22-.533-.013-.034-.186-.547-.01-.033-.154-.566-.007-.03-.125-.58-.005-.034-.09-.594-.003-.032-.055-.596a.35.35 0 01-.003-.04l-.013-.595v-.024l.013-.594a.35.35 0 01.003-.04l.055-.6.003-.032.09-.594.005-.035.125-.576.007-.03.153-.565.01-.032.187-.553a.467.467 0 01.012-.035l.218-.53.017-.038.256-.512.012-.023.279-.5.02-.034.315-.483.017-.025.338-.463.022-.03.37-.44a.413.413 0 01.022-.027l.392-.413a.331.331 0 01.024-.025l.422-.394.023-.02.438-.369.029-.022.466-.342a.252.252 0 01.03-.02l.484-.312.028-.016.5-.283.032-.017.519-.25c.01-.006.023-.01.034-.016l.54-.217a.234.234 0 01.03-.011l.555-.189.03-.009.566-.159.036-.009.583-.121.028-.005.593-.093.036-.005.604-.053a.312.312 0 01.037-.002l.604-.014h.025l.61.014a.303.303 0 01.037.002l.603.053a.458.458 0 01.036.005l.59.093.027.005.592.121.038.01.566.158.032.01.549.188.032.012.53.218.028.012.525.251.035.019.497.283.025.014.487.312a.45.45 0 01.032.022l.463.342c.01.006.019.013.027.02l.44.368.023.02.425.396.025.025.392.413.023.028.367.441.02.024.343.463.02.029.314.482.019.032.281.5.016.032.246.514.012.026.223.53a.345.345 0 01.014.04l.186.552.01.03.154.567c.002.009.005.019.006.029l.126.576.007.036.089.594.003.03.058.6.002.038.016.594a.22.22 0 010 .032l-.016.595-.002.038-.058.598-.003.03-.09.592-.006.035-.125.58-.007.03-.155.565-.01.032-.185.548-.014.035-.222.534-.013.028-.246.51a.404.404 0 01-.016.032l-.281.5c-.006.012-.013.022-.02.033l-.313.482-.019.027-.343.466-.02.026-.368.442c-.007.01-.014.018-.022.026l-.391.416a.347.347 0 01-.03.029l-.424.39-.019.017-.44.37a.27.27 0 01-.03.022l-.463.342-.03.02-.486.312-.025.015-.498.283-.037.02-.525.25-.025.01-.53.222-.037.014-.55.185-.026.008-.566.16c-.013.003-.025.007-.038.009l-.592.124-.033.006-.59.088-.033.004-.603.053h-.027l-.61.024zm-.569-1.148l.569.022.573-.022.572-.05.557-.082.558-.118.534-.15.517-.174.499-.209.494-.235.467-.266.459-.293.434-.32.418-.35.4-.369.365-.388.345-.416.325-.44.294-.454.264-.47.232-.481.21-.502.173-.513.147-.534.117-.547.085-.56.054-.565.015-.56-.015-.56-.054-.566-.085-.56-.117-.545-.147-.537-.173-.518-.21-.498-.232-.485-.263-.468-.295-.454-.324-.436-.345-.416-.367-.388-.4-.372-.416-.347-.435-.321-.46-.294-.466-.265-.494-.235-.499-.206-.519-.178-.53-.149-.562-.115-.558-.088-.564-.05-.578-.013-.572.013-.567.05-.56.088-.55.115-.534.149-.526.179-.508.205-.486.235-.47.265-.458.294-.437.32-.413.347-.398.373-.368.389-.346.414-.318.436-.296.455-.263.472-.241.483-.203.495-.175.52-.146.535-.117.545-.084.56-.052.565-.012.562.012.563.052.561.084.561.117.548.145.534.175.513.206.499.239.482.263.472.296.455.319.44.346.413.367.39.397.368.414.35.437.319.457.294.471.267.487.234.507.208.525.175.536.15.548.118.559.082zm.569-3.098h-.021l-.374-.015-.044-.002-.363-.043a.199.199 0 01-.031-.004l-.368-.063a.605.605 0 01-.05-.011l-.36-.096-.03-.009-.355-.117a.41.41 0 01-.043-.015l-.347-.146a.346.346 0 01-.034-.015l-.335-.168a.373.373 0 01-.036-.02l-.325-.193a.656.656 0 01-.042-.028l-.3-.218-.017-.012-.3-.235a.407.407 0 01-.038-.033l-.285-.266a.517.517 0 01-.034-.034l-.253-.281-.016-.018-.248-.3a.52.52 0 01-.03-.041l-.219-.32a.305.305 0 01-.023-.038l-.19-.33c-.007-.011-.012-.022-.017-.032l-.169-.344a.397.397 0 01-.015-.032l-.146-.353-.012-.03-.128-.37a.573.573 0 01-.015-.05l-.091-.375-.008-.034-.068-.385a.515.515 0 01-.007-.05l-.035-.386-.002-.029-.015-.385v-.045l.015-.383.002-.028.035-.39a.546.546 0 01.007-.048l.068-.385.007-.031.091-.38a.706.706 0 01.017-.055l.128-.364.01-.027.147-.358a.52.52 0 01.016-.036l.168-.341.017-.03.19-.331a.533.533 0 01.022-.037l.216-.316a.805.805 0 01.031-.042l.251-.303.017-.02.254-.279c.01-.012.022-.023.033-.034l.285-.265.029-.025.3-.244.026-.019.3-.216.043-.029.325-.191a.701.701 0 01.039-.02l.334-.165.028-.012.346-.147a.47.47 0 01.045-.017l.356-.115a.447.447 0 01.034-.01l.357-.093.035-.008.371-.07a.474.474 0 01.056-.009l.363-.033.033-.002.374-.012h.035l.374.012.034.002.359.033a.67.67 0 01.054.007l.375.072.03.007.371.093.042.012.347.116a.59.59 0 01.039.014l.35.147a.294.294 0 01.032.015l.33.164.037.021.32.191a.535.535 0 01.034.021l.31.217.034.026.3.244.03.028.28.264.024.025.26.278.03.036.24.303.018.025.222.317a.408.408 0 01.027.041l.19.331a.21.21 0 01.016.027l.173.34a.93.93 0 01.02.042l.146.357.014.04.118.365.007.025.105.379.014.06.06.385.004.027.042.39c.001.013.003.025.003.038l.015.383a.444.444 0 010 .045l-.015.385-.003.039-.042.387-.004.027-.06.385a.628.628 0 01-.014.063l-.105.375-.006.022-.119.368a.32.32 0 01-.016.043l-.146.353a.639.639 0 01-.017.038l-.174.343-.014.028-.192.33a.462.462 0 01-.026.042l-.223.319-.02.029-.24.3a.396.396 0 01-.027.03l-.26.282-.025.026-.279.265a.593.593 0 01-.04.035l-.298.236a.315.315 0 01-.026.018l-.31.218-.032.022-.32.193-.037.02-.332.167a.323.323 0 01-.037.017l-.346.146-.039.015-.347.115a.352.352 0 01-.037.011l-.37.096a.38.38 0 01-.048.01l-.375.064-.028.004-.359.042c-.014.002-.03.003-.044.003l-.374.015zm-.331-1.137l.33.012.331-.012.322-.038.337-.058.328-.084.31-.104.309-.13.294-.148.286-.173.282-.198.265-.21.247-.234.234-.254.215-.27.199-.284.17-.297.158-.311.13-.312.107-.335.093-.333.054-.34.039-.354.013-.344-.013-.342-.04-.356-.053-.34-.093-.337-.107-.332-.13-.317-.157-.307-.17-.295-.2-.284-.215-.273-.233-.25-.251-.238-.266-.217-.277-.194-.284-.169-.294-.147-.313-.13-.306-.103-.334-.084-.332-.063-.315-.029-.34-.011-.339.011-.319.029-.326.063-.323.083-.318.103-.309.131-.302.148-.283.167-.266.192-.274.222-.254.236-.227.251-.227.274-.189.277-.17.297-.152.307-.133.326-.114.323-.081.336-.062.345-.032.35-.013.347.013.349.032.348.062.345.081.331.113.327.133.32.153.313.17.296.191.28.225.27.229.255.249.233.274.213.27.197.286.17.3.15.307.13.32.104.32.085.329.057zM179.723 120.43h-.022l-.6-.024-.027-.002-.607-.052a.281.281 0 01-.035-.005l-.587-.088-.033-.005-.592-.124-.037-.01-.567-.159-.026-.008-.557-.184-.037-.014-.535-.222-.031-.014-.513-.25a.404.404 0 01-.032-.016l-.5-.284-.027-.016-.484-.312-.028-.02-.465-.34a.47.47 0 01-.031-.025l-.436-.37-.015-.014-.427-.39-.028-.027-.396-.416-.022-.025-.374-.442a.764.764 0 01-.03-.039l-.33-.466-.33-.494a.497.497 0 01-.027-.044l-.274-.501-.013-.026-.246-.51-.016-.037-.212-.533-.007-.018-.197-.547a.325.325 0 01-.011-.037l-.161-.564-.01-.036-.123-.58a.274.274 0 01-.007-.035l-.089-.594-.004-.038-.048-.597-.001-.027-.02-.595v-.036l.02-.594.001-.027.048-.6.004-.039.09-.594a.289.289 0 01.006-.035l.124-.577.009-.035.16-.566a.286.286 0 01.012-.034l.197-.554.007-.02.213-.53a.356.356 0 01.015-.036l.246-.512.013-.026.275-.5a.336.336 0 01.026-.043l.323-.484.009-.013.33-.463a.35.35 0 01.028-.037l.374-.443.023-.025.396-.414.025-.024.426-.395.018-.016.434-.367.031-.026.468-.342.027-.018.482-.312.029-.018.502-.282a.202.202 0 01.029-.015l.513-.252.035-.015.535-.218.032-.012.556-.188.03-.01.567-.158.038-.009.593-.121.026-.005.587-.093a.532.532 0 01.037-.005l.608-.053a.308.308 0 01.036-.002l.601-.014h.027l.601.014a.3.3 0 01.037.002l.603.053a.492.492 0 01.035.005l.595.093.028.005.586.121.035.01.573.157.033.01.55.189.03.011.534.218.033.015.517.25.029.016.504.283.023.014.498.311.038.027.456.342.024.019.44.367.021.019.428.395a.406.406 0 01.025.025l.394.414.03.034.358.442.016.021.339.463.016.024.317.484a.58.58 0 01.022.034l.28.5.013.025.254.511.016.038.218.533.011.028.192.55a.41.41 0 01.013.043l.149.566.006.024.125.576.007.043.082.594.002.016.066.6a.51.51 0 01.003.047l.014.594v.027l-.014.596a.484.484 0 01-.003.047l-.066.597-.002.016-.082.594-.007.041-.125.58-.006.025-.149.565-.013.043-.193.547-.01.028-.218.531a.544.544 0 01-.016.037l-.254.513-.014.023-.28.502-.02.035-.319.483-.014.02-.339.467-.017.024-.358.441-.029.033-.393.416-.03.03-.428.389-.016.014-.441.372-.026.02-.455.34-.038.027-.498.311-.02.014-.501.283a.31.31 0 01-.035.018l-.52.25-.027.012-.535.221a.508.508 0 01-.036.014l-.55.185-.028.009-.573.159c-.011.004-.023.006-.034.009l-.586.124-.034.006-.594.088-.034.004-.602.052-.027.002-.602.023zm-.566-1.148l.566.022.566-.022.572-.05.56-.082.552-.118.542-.15.517-.174.502-.209.49-.234.473-.268.466-.293.424-.317.42-.355.405-.367.364-.385.335-.414.322-.444.299-.455.263-.471.24-.482.205-.5.18-.512.14-.531.118-.548.078-.565.062-.565.013-.557-.013-.557-.062-.569-.078-.564-.119-.544-.14-.532-.18-.517-.204-.5-.24-.482-.263-.471-.298-.455-.322-.44-.335-.414-.366-.384-.404-.373-.419-.35-.425-.32-.466-.291-.476-.267-.486-.236-.503-.205-.518-.178-.54-.149-.554-.115-.561-.088-.566-.05-.57-.013-.57.013-.57.05-.554.088-.561.115-.534.149-.526.179-.503.204-.48.235-.473.266-.454.294-.438.32-.408.347-.406.376-.372.389-.347.41-.312.437-.305.456-.255.466-.231.481-.201.503-.188.526-.15.531-.116.542-.084.557-.046.567-.017.563.017.563.046.564.084.558.116.545.15.528.188.52.2.507.232.48.255.467.31.462.307.434.347.41.372.39.404.371.412.35.436.32.457.293.47.268.482.234.5.207.526.175.536.15.558.118.555.082zm.566-3.098h-.02l-.37-.015-.04-.002-.372-.043a.206.206 0 01-.033-.004l-.366-.063a.502.502 0 01-.049-.011l-.362-.096-.028-.008-.361-.116-.048-.018-.342-.145a.309.309 0 01-.03-.014l-.338-.168a.395.395 0 01-.046-.025l-.314-.193a.267.267 0 01-.026-.018l-.313-.217a.358.358 0 01-.03-.024l-.294-.235a.441.441 0 01-.04-.035l-.273-.266-.019-.018-.264-.282a.342.342 0 01-.028-.031l-.243-.3a.556.556 0 01-.028-.039l-.216-.319a.407.407 0 01-.019-.03l-.195-.332-.016-.03-.174-.342a.616.616 0 01-.018-.04l-.146-.353a.558.558 0 01-.015-.04l-.12-.368-.009-.028-.102-.375a.71.71 0 01-.012-.055l-.065-.385-.004-.034-.041-.386-.003-.038-.015-.385a.444.444 0 010-.045l.015-.383.003-.036.041-.39.004-.034.065-.384c.003-.018.007-.035.012-.053l.101-.38.01-.03.12-.366.014-.037.146-.357.02-.04.173-.341.017-.03.194-.331.02-.032.216-.316a.541.541 0 01.025-.035l.243-.303a.51.51 0 01.031-.036l.266-.279a.184.184 0 01.016-.017l.274-.265.032-.028.293-.243a.489.489 0 01.039-.03l.313-.217.028-.019.314-.19a.527.527 0 01.047-.026l.338-.164.024-.011.343-.147a.624.624 0 01.049-.018l.36-.116.033-.01.36-.092.032-.008.37-.07a.489.489 0 01.057-.009l.372-.033.031-.002.369-.012h.035l.371.012.033.002.366.033a.452.452 0 01.056.008l.374.071.034.007.362.093.037.01.352.117a.58.58 0 01.046.018l.34.146.023.011.337.164a.416.416 0 01.039.02l.326.191.042.027.304.217.032.025.295.244a.232.232 0 01.024.02l.285.264.033.033.256.28c.01.01.018.02.026.03l.24.302.015.02.23.317a.53.53 0 01.033.05l.19.33.02.037.164.342.016.037.14.356.01.025.125.365.014.046.094.38.008.032.072.384c.003.018.006.035.007.054l.036.389.002.033.012.383v.035l-.012.385-.002.034-.036.387c-.001.018-.004.035-.007.053l-.072.386-.009.034-.094.375a.44.44 0 01-.013.043l-.125.368-.01.026-.14.355-.016.035-.164.342a.638.638 0 01-.019.036l-.19.331a.543.543 0 01-.033.052l-.23.318-.017.022-.24.3-.024.028-.256.28a.624.624 0 01-.032.032l-.285.266a.424.424 0 01-.033.029l-.296.236-.023.017-.305.219a.373.373 0 01-.04.026l-.325.193-.038.02-.337.168-.029.013-.34.146-.044.017-.352.115-.032.01-.363.096a.544.544 0 01-.05.01l-.374.064-.029.004-.367.043-.043.003-.372.014zm-.325-1.137l.325.012.33-.012.33-.038.334-.057.32-.085.313-.104.303-.13.304-.15.287-.171.274-.195.266-.213.253-.235.23-.252.22-.275.205-.283.164-.288.147-.306.128-.323.114-.333.085-.337.065-.342.03-.343.012-.351-.012-.35-.03-.345-.065-.341-.085-.34-.114-.331-.128-.326-.147-.306-.164-.285-.206-.283-.22-.278-.228-.248-.256-.237-.267-.22-.268-.192-.286-.167-.306-.15-.306-.13-.31-.103-.326-.083-.33-.063-.322-.029-.338-.01-.334.01-.326.029-.325.063-.326.084-.32.102-.307.132-.302.146-.277.169-.279.193-.258.214-.25.242-.24.253-.214.268-.194.283-.176.3-.156.305-.13.318-.11.33-.09.339-.057.34-.037.354-.014.343.014.344.037.352.057.341.09.334.11.334.13.314.156.308.177.3.192.285.214.264.242.258.246.238.258.208.283.197.279.172.3.148.304.13.323.103.324.086.326.056zM123.72 165.961a.563.563 0 01-.563-.562v-5.926a.563.563 0 011.125 0v5.926a.563.563 0 01-.563.562zM126.272 163.41h-.015a.563.563 0 01-.548-.576l.088-3.375a.562.562 0 111.124.029l-.088 3.375a.562.562 0 01-.561.548zM192.6 165.961a.563.563 0 01-.562-.562v-5.926a.563.563 0 011.125 0v5.926a.562.562 0 01-.562.562zM162.67 165.14h-9.017a9.046 9.046 0 01-6.946-3.239l-1.732-2.066a.563.563 0 11.862-.723l1.732 2.066a7.923 7.923 0 006.084 2.836h9.017a7.923 7.923 0 006.084-2.836l1.733-2.066a.563.563 0 01.862.723l-1.733 2.066a9.048 9.048 0 01-6.946 3.238z"/><path class="cls-5" d="M104.588 159.473v5.53a2.977 2.977 0 11-5.953 0v-5.53zM217.687 159.473v5.53a2.977 2.977 0 11-5.954 0v-5.53z"/><path class="cls-4" d="M223.216 160.036H93.106a.563.563 0 110-1.125h130.11a.563.563 0 010 1.125z"/><path class="cls-6" d="M214.71 168.729a3.734 3.734 0 01-3.576-2.674.75.75 0 01-.363.094h-18.17a3.303 3.303 0 01-3.3-3.29l-.069-2.636h-17.736a2.889 2.889 0 01-.449 1.13l-1.97 2.92a10.092 10.092 0 01-8.377 4.456h-5.078a10.093 10.093 0 01-8.376-4.455l-1.969-2.918a2.908 2.908 0 01-.45-1.133l-6.513.002a2.453 2.453 0 01-2.152 1.275h-9.104l-.036 1.36a3.305 3.305 0 01-3.303 3.289h-18.168a.75.75 0 01-.364-.094 3.727 3.727 0 01-7.302-1.053v-4.779h-4.778a.75.75 0 01-.677-.427l-2.276-4.791a.75.75 0 01-.349-.634V74.86a.75.75 0 01.22-.53l2.125-2.125a.75.75 0 01.53-.22h7.648v-1.589a.526.526 0 00-.525-.526h-2.975a.75.75 0 01-.75-.75v-2.976a2.026 2.026 0 012.024-2.026h18.71a2.027 2.027 0 012.025 2.015l.152 5.852h15.118l.155-5.852a2.027 2.027 0 012.023-2.015h43.753a2.028 2.028 0 012.027 2.015l.154 5.852h15.114l.154-5.852a2.028 2.028 0 012.026-2.015h18.709a2.027 2.027 0 012.025 2.026v2.976a.75.75 0 01-.75.75h-2.976a.526.526 0 00-.526.526v1.59h7.648a.75.75 0 01.53.22l2.126 2.124a.75.75 0 01.22.53v79.512a.75.75 0 01-.348.634l-2.274 4.79a.751.751 0 01-.678.428h-4.782v4.78a3.731 3.731 0 01-3.727 3.726zm-3.939-10.006h.962a.75.75 0 01.75.75v5.53a2.227 2.227 0 104.454 0v-5.53a.75.75 0 01.75-.75h5.058l2.219-4.673a.768.768 0 01.055-.098V75.17l-1.686-1.686h-8.088a.75.75 0 01-.75-.75v-2.339a2.028 2.028 0 012.026-2.026h2.226v-2.226a.526.526 0 00-.525-.526h-18.71a.526.526 0 00-.525.526v.02l-.174 6.591a.75.75 0 01-.75.73H181.49a.75.75 0 01-.75-.73l-.174-6.592v-.02a.527.527 0 00-.527-.525h-43.753a.525.525 0 00-.523.526v.02l-.175 6.591a.75.75 0 01-.749.73h-16.58a.75.75 0 01-.75-.73l-.17-6.592-.001-.02a.525.525 0 00-.525-.525h-18.71a.525.525 0 00-.524.526v2.226h2.225a2.028 2.028 0 012.025 2.026v2.34a.75.75 0 01-.75.75h-8.087l-1.686 1.685v78.782a.814.814 0 01.055.097l2.221 4.674h5.054a.75.75 0 01.75.75v5.53a2.227 2.227 0 104.453 0v-5.53a.75.75 0 01.75-.75h.963a.75.75 0 01.75.75v5.176h17.418a1.804 1.804 0 001.803-1.8v-.02l.056-2.1a.75.75 0 01.75-.73h9.834a.953.953 0 00.922-.713.75.75 0 01.726-.561l7.596-.002a.75.75 0 01.574.268l.13.153a.757.757 0 01.175.471l.002.158a1.383 1.383 0 00.236.746l1.967 2.915a8.594 8.594 0 007.132 3.795h5.078a8.596 8.596 0 007.133-3.795l1.969-2.918a1.388 1.388 0 00.234-.745l.003-.16a.755.755 0 01.175-.467l.13-.153a.751.751 0 01.574-.268h19.045a.75.75 0 01.75.731l.088 3.375v.02a1.802 1.802 0 001.8 1.8h17.42v-5.176a.75.75 0 01.75-.75z"/><path class="cls-7" d="M63.878 0h188.567v188.567H63.878z"/><path class="cls-2" d="M480.08 170.226H316.233a.75.75 0 010-1.5h163.849a.75.75 0 010 1.5z"/><path class="cls-1" d="M341.609 64.867a2.977 2.977 0 012.976 2.977v5.529h.963v-5.925h18.17a2.55 2.55 0 012.55 2.55l.087 3.375h19.046l.128-.154.004-.156a2.146 2.146 0 01.363-1.153l1.968-2.918a9.355 9.355 0 017.755-4.125h5.077a9.355 9.355 0 017.755 4.125l1.968 2.918a2.139 2.139 0 01.362 1.153l.002.156.13.154 7.596-.001a1.702 1.702 0 011.647-1.275h9.835l.056-2.099a2.55 2.55 0 012.553-2.55h18.168v5.925h.963v-5.529a2.977 2.977 0 115.953 0v5.529h5.527l2.425 5.102h.128v79.512l-2.126 2.125h-8.398v2.34a1.276 1.276 0 001.275 1.275h2.975v2.977a1.273 1.273 0 01-1.273 1.275h-18.71a1.275 1.275 0 01-1.275-1.275l-.172-6.592h-16.58l-.173 6.592a1.274 1.274 0 01-1.274 1.275H376.28a1.276 1.276 0 01-1.276-1.275l-.174-6.592h-16.575l-.173 6.592a1.276 1.276 0 01-1.276 1.275h-18.71a1.275 1.275 0 01-1.274-1.275v-2.977h2.976a1.276 1.276 0 001.275-1.276v-2.34h-8.398l-2.125-2.124V78.475h.127l2.422-5.102h5.533v-5.529a2.977 2.977 0 012.977-2.977z"/><path class="cls-3" d="M410.912 73.373l-.129-.154-.002-.156a2.139 2.139 0 00-.362-1.153l-1.968-2.918a9.355 9.355 0 00-7.755-4.125h-5.077a9.355 9.355 0 00-7.755 4.125l-1.968 2.918a2.146 2.146 0 00-.363 1.152l-.004.157-.128.154z"/><path class="cls-1" d="M385.4 73.373l1.734-2.066a8.507 8.507 0 016.514-3.037h9.018a8.509 8.509 0 016.515 3.037l1.731 2.066z"/><path class="cls-4" d="M330.55 77.913h135.214a.563.563 0 110 1.125H330.55a.563.563 0 110-1.125zM330.55 105.125h135.214a.563.563 0 110 1.125H330.55a.563.563 0 110-1.125zM330.55 145.944h135.214a.563.563 0 110 1.125H330.55a.563.563 0 110-1.125zM330.55 157.425h135.214a.563.563 0 110 1.125H330.55a.563.563 0 110-1.125zM332.675 159.55h130.963a.563.563 0 010 1.124H332.675a.563.563 0 010-1.125zM375.004 162.076h14.33a.375.375 0 010 .75h-14.33a.375.375 0 010-.75zM406.978 162.076h14.329a.375.375 0 010 .75h-14.329a.375.375 0 010-.75zM386.326 163.352a.375.375 0 01.375.375v2.995l-.008.166-.003.033-.022.164a.316.316 0 01-.007.036l-.037.158-.01.034-.053.15a.434.434 0 01-.017.044l-.068.138-.015.027-.075.125a.394.394 0 01-.032.046l-.09.11a.325.325 0 01-.032.034l-.097.092a.424.424 0 01-.043.036l-.106.073a.41.41 0 01-.053.032l-.112.053a.359.359 0 01-.062.024l-.117.032a.358.358 0 01-.067.013l-.117.01a.375.375 0 01-.068-.747l.084-.007.052-.014.055-.028.057-.04.06-.056.058-.071.053-.089.051-.103.038-.11.029-.122.018-.13.006-.14v-2.968a.375.375 0 01.375-.375z"/><path class="cls-4" d="M391.703 159.55a.563.563 0 01.563.562v6.592l-.001.031-.01.167a.525.525 0 01-.004.048l-.024.164a.633.633 0 01-.01.051l-.037.157a.589.589 0 01-.015.052l-.052.15a.563.563 0 01-.023.059l-.066.138a.46.46 0 01-.03.054l-.077.126a.622.622 0 01-.041.057l-.09.111a.594.594 0 01-.048.054l-.098.092a.56.56 0 01-.065.053l-.106.074a.572.572 0 01-.08.047l-.112.054a.585.585 0 01-.09.034l-.116.032a.548.548 0 01-.103.02l-.117.01a.563.563 0 01-.1-1.12l.083-.011.061-.037.04-.038.044-.054.041-.068.04-.082.032-.095.025-.105.017-.115.006-.126v-6.576a.563.563 0 01.563-.563zM438.232 166.329h21.258a.375.375 0 010 .75h-21.258a.375.375 0 010-.75z"/><path class="cls-4" d="M375.004 166.329h46.303a.375.375 0 010 .75h-46.303a.375.375 0 010-.75zM336.822 166.329h21.26a.375.375 0 110 .75h-21.26a.375.375 0 010-.75z"/><path class="cls-4" d="M409.986 163.352a.375.375 0 01.375.375l.006 3.107.02.13.028.122.04.114.046.1.057.088.058.073.058.055.058.04.056.028.05.014.083.007a.375.375 0 11-.067.748l-.117-.011a.412.412 0 01-.07-.013l-.115-.033a.338.338 0 01-.06-.023l-.111-.053a.366.366 0 01-.054-.032l-.105-.073a.394.394 0 01-.042-.034l-.098-.093a.414.414 0 01-.038-.041l-.087-.11a.295.295 0 01-.022-.03l-.08-.126a.285.285 0 01-.023-.043l-.064-.138-.014-.034-.053-.15a.323.323 0 01-.011-.037l-.037-.158a.298.298 0 01-.007-.033l-.023-.165a.277.277 0 01-.003-.035l-.01-.166v-2.995a.375.375 0 01.376-.375zM404.611 159.55a.563.563 0 01.563.562v6.582l.004.126.016.109.025.101.035.099.037.082.086.12.077.064.044.018.065.006a.563.563 0 01-.1 1.12l-.118-.01a.54.54 0 01-.102-.02l-.117-.032a.708.708 0 01-.092-.035l-.111-.054a.531.531 0 01-.077-.046l-.106-.074a.55.55 0 01-.06-.048l-.1-.093a.632.632 0 01-.057-.06l-.088-.112a.58.58 0 01-.035-.049l-.08-.125a.607.607 0 01-.036-.067l-.063-.139-.019-.044-.053-.15a.543.543 0 01-.018-.059l-.038-.157a.624.624 0 01-.01-.051l-.023-.164a.537.537 0 01-.005-.06l-.005-.166-.001-.02v-6.592a.563.563 0 01.562-.563z"/><path class="cls-4" d="M406.978 159.55a.563.563 0 01.563.562v2.34a.715.715 0 00.715.713h12.484l.004-.26v-.144a.563.563 0 111.125 0l-.004.438v.018l-.008.121v.016l-.01.108c-.002.012-.002.023-.005.035l-.014.093a.515.515 0 01-.011.057l-.02.077a.577.577 0 01-.023.07l-.025.062a.576.576 0 01-.053.101l-.03.046a.576.576 0 01-.147.15l-.04.026a.543.543 0 01-.207.09l-.046.01a.54.54 0 01-.113.01h-12.857a1.841 1.841 0 01-1.84-1.838v-2.34a.563.563 0 01.562-.562zM389.334 159.55a.563.563 0 01.562.562v2.34a1.84 1.84 0 01-1.838 1.838h-12.857a.52.52 0 01-.116-.013l-.045-.009a.564.564 0 01-.212-.093l-.037-.027a.568.568 0 01-.13-.13l-.032-.045a.61.61 0 01-.065-.117l-.024-.061a.47.47 0 01-.023-.07l-.02-.078a.552.552 0 01-.012-.057l-.014-.093-.003-.03-.011-.107-.002-.028-.01-.261-.002-.015v-.142a.562.562 0 01.557-.567.57.57 0 01.568.558l.005.26h12.485a.714.714 0 00.713-.714v-2.34a.563.563 0 01.563-.562zM421.187 112.278a.568.568 0 01.192.034l.521.19.03.012.516.221.033.015.506.258.028.016.498.289.026.017.484.318.029.02.464.35.027.02.44.376.027.024.41.396.022.024.382.416.02.023.353.43.022.028.313.434.019.029.277.439.018.031.245.451.015.03.206.439a.33.33 0 01.015.036l.213.547.008.023.198.588.01.031.17.624.006.024.147.66a.462.462 0 01.012.071l.062.684.001.019.04.709.001.022.013.721v15.038a.563.563 0 01-.559.563l-4.47.033a.575.575 0 01-.4-.164.562.562 0 01-.166-.399v-5.447h-4.437a.562.562 0 01-.563-.562v-4.47a.563.563 0 01.563-.562h4.437v-2.445l-.018-1.74-.015-.269-.028-.27-.038-.28-.105-.554-.073-.264-.084-.258-.1-.236-.132-.25-.161-.264-.185-.26-.219-.264-.246-.266-.29-.267-.321-.27-.377-.269-.433-.277-.509-.285-.602-.3a.562.562 0 01-.231-.792l2.26-3.766a.562.562 0 01.483-.273zm.313 1.276l-.07-.026-1.709 2.846.07.034.023.013.536.298.03.018.458.294.022.015.407.29a.451.451 0 01.036.028l.348.293.019.017.315.29.03.031.274.294.022.025.241.293.024.03.208.293a.36.36 0 01.023.034l.18.297.017.029.152.287c.008.015.016.03.022.047l.117.28a.385.385 0 01.016.04l.096.293.008.026.082.297a.342.342 0 01.01.04l.114.606.003.023.041.3.003.018.03.293.003.027.016.292v.018l.008.297.01 1.475v3.01a.563.563 0 01-.562.563h-4.437v3.344h4.437a.563.563 0 01.563.563v5.443l3.345-.025v-14.47l-.013-.7-.038-.689-.059-.637-.136-.61-.162-.596-.189-.56-.2-.516-.191-.408-.229-.42-.257-.408-.292-.406-.332-.403-.36-.393-.385-.372-.414-.352-.436-.33-.457-.3-.47-.273-.476-.242zM391.632 133.946h.024l.242.011.044.004.238.03c.014.001.03.003.044.006l.25.052a.75.75 0 01.053.014l.234.073a.24.24 0 01.033.01l.235.09.041.017.234.11a.595.595 0 01.042.022l.214.124a.44.44 0 01.049.033l.193.14.028.021.184.153a.613.613 0 01.04.037l.167.168a.368.368 0 01.029.03l.156.184.03.038.14.197a.453.453 0 01.029.044l.123.212c.008.013.015.027.021.04l.106.222.01.023.099.234.022.062.068.234.01.043.048.234.006.03.035.234a.561.561 0 01.005.062l.009.217a.362.362 0 010 .04l-.009.242a.567.567 0 01-.005.061l-.036.25-.005.027-.05.248a.51.51 0 01-.014.056l-.076.246a.545.545 0 01-.013.038l-.093.241a.704.704 0 01-.02.043l-.11.228-.02.036-.127.219a.441.441 0 01-.028.044l-.143.2-.021.028-.153.187a.574.574 0 01-.034.04l-.167.17a.448.448 0 01-.039.036l-.187.158c-.012.01-.024.02-.036.028l-.197.14a.45.45 0 01-.047.03l-.226.13a.39.39 0 01-.03.016l-.224.11a.479.479 0 01-.044.02l-.23.09c-.016.007-.031.013-.047.017l-.247.072-.033.01-.23.052a.562.562 0 01-.058.01l-.232.028a.409.409 0 01-.042.004l-.237.01h-.05l-.232-.01-.042-.004-.231-.028a.701.701 0 01-.055-.01l-.235-.052-.038-.01-.242-.073-.04-.013-.236-.09a.563.563 0 01-.05-.022l-.224-.111a.398.398 0 01-.039-.022l-.215-.13-.033-.02-.2-.141a.516.516 0 01-.044-.034l-.184-.159-.029-.025-.17-.17a.498.498 0 01-.043-.047l-.153-.188a.287.287 0 00-.019-.025l-.143-.2-.021-.03-.135-.217a.596.596 0 01-.037-.068l-.21-.485a.702.702 0 01-.024-.07l-.066-.246c-.004-.014-.008-.028-.01-.042l-.048-.247-.004-.031-.033-.249a.601.601 0 01-.004-.052l-.01-.24v-.047l.01-.217c0-.016.002-.032.004-.048l.03-.235.006-.035.046-.233a.403.403 0 01.01-.041l.064-.235a.566.566 0 01.024-.07l.099-.233.007-.016.102-.221a.544.544 0 01.03-.057l.129-.213a.407.407 0 01.028-.041l.145-.198a.378.378 0 01.027-.032l.156-.183.02-.021.159-.168a.563.563 0 01.043-.04l.18-.153a.555.555 0 01.046-.036l.207-.14a.449.449 0 01.033-.021l.212-.124a.44.44 0 01.038-.021l.228-.11a.476.476 0 01.045-.02l.233-.088a.31.31 0 01.039-.014l.24-.072.048-.013.247-.051a.493.493 0 01.046-.008l.238-.03.044-.003.235-.01zm.194 1.134l-.194-.008-.189.008-.193.024-.2.042-.199.06-.191.072-.186.09-.177.104-.165.113-.133.114-.13.135-.134.156-.118.16-.099.163-.165.375-.05.178-.038.195-.024.193-.008.17.008.192.027.207.04.21.051.19.168.387.106.17.125.172.122.152.135.133.148.128.162.113.178.107.179.09.192.073.204.06.188.043.181.022.185.008.19-.008.181-.022.185-.043.207-.06.184-.073.188-.093.186-.106.155-.111.15-.126.13-.133.125-.154.117-.164.103-.178.092-.189.078-.201.062-.2.04-.204.03-.203.007-.19-.006-.165-.029-.189-.04-.196-.053-.181-.08-.191-.09-.19-.099-.17-.111-.155-.127-.148-.131-.133-.15-.123-.155-.114-.169-.097-.192-.091-.198-.075-.192-.06-.2-.04zM389.394 112.877h4.473a.563.563 0 01.562.563v17.989a.562.562 0 01-.562.562h-4.473a.562.562 0 01-.562-.562v-17.99a.563.563 0 01.562-.562zm3.91 1.125h-3.347v16.864h3.347zM406.674 112.417h.022l.603.024.027.001.604.053.034.003.592.088.035.007.583.124.035.009.566.16.026.007.555.185.035.013.54.222.031.013.519.25.033.017.501.284.027.016.485.312.027.019.467.341a.302.302 0 01.031.025l.438.37.02.016.421.39.028.028.391.416.022.025.37.442.024.03.337.467.016.022.315.483.02.034.28.502.012.024.253.51.015.035.22.533.013.034.187.547.01.034.153.565.008.03.124.58.006.034.09.594.003.032.055.597a.35.35 0 01.002.04l.013.594v.025l-.013.594a.35.35 0 01-.002.04l-.055.6-.003.031-.09.594-.006.035-.124.577-.008.029-.153.566-.01.032-.186.553a.467.467 0 01-.012.034l-.219.531-.016.038-.256.512-.012.022-.279.5-.02.034-.315.484-.017.025-.338.463-.023.029-.369.441a.413.413 0 01-.022.026l-.392.414a.331.331 0 01-.024.024l-.422.395-.023.02-.438.368-.03.023-.465.342a.252.252 0 01-.03.02l-.484.311-.028.017-.5.282-.032.017-.52.25c-.01.007-.022.011-.034.016l-.54.218a.234.234 0 01-.03.01l-.555.19-.029.008-.566.16-.037.008-.582.122-.029.005-.592.092-.037.005-.603.054a.312.312 0 01-.038.002l-.603.014h-.026l-.61-.014a.303.303 0 01-.036-.002l-.603-.054a.458.458 0 01-.037-.005l-.59-.092-.026-.005-.592-.122-.038-.009-.567-.159-.031-.01-.55-.187-.03-.013-.53-.217-.029-.013-.525-.251-.035-.018-.498-.283-.025-.015-.487-.312a.46.46 0 01-.031-.021l-.464-.342-.027-.021-.44-.368-.023-.02-.424-.395-.025-.025-.392-.414-.024-.027-.367-.442-.019-.024-.343-.463-.02-.028-.314-.483-.02-.031-.28-.5a.412.412 0 01-.017-.033l-.246-.513-.011-.026-.223-.531a.345.345 0 01-.015-.039l-.185-.553-.01-.03-.154-.566-.007-.03-.126-.576-.006-.036-.089-.594-.003-.03-.058-.6-.002-.038-.017-.594a.22.22 0 010-.031l.017-.596.002-.038.058-.597.003-.03.089-.593.006-.035.126-.58.007-.03.154-.565.01-.031.185-.548.014-.036.223-.533.012-.028.246-.51a.404.404 0 01.017-.032l.28-.501.02-.032.314-.483.018-.026.344-.467.02-.025.367-.443.023-.026.391-.416a.347.347 0 01.03-.028l.423-.39.02-.017.44-.37a.27.27 0 01.029-.023l.464-.341.03-.02.486-.312.025-.015.498-.284.037-.019.525-.25.025-.01.53-.223.036-.013.55-.186.027-.008.566-.16.037-.008.593-.125.033-.006.59-.088.033-.003.602-.053.028-.001.61-.024zm.568 1.147l-.568-.022-.574.022-.572.05-.556.083-.559.117-.533.15-.517.174-.5.21-.493.234-.467.266-.46.294-.434.32-.417.35-.4.368-.366.389-.345.416-.324.439-.294.454-.264.47-.232.482-.21.501-.173.513-.147.535-.118.547-.084.56-.054.564-.016.56.016.56.054.566.084.561.118.544.147.537.173.518.21.499.232.484.263.469.295.453.324.437.345.416.367.387.4.372.415.348.436.32.46.295.466.265.493.235.5.206.518.178.531.148.561.115.558.088.565.05.578.014.572-.013.567-.051.56-.088.55-.115.533-.148.526-.18.509-.204.485-.235.471-.265.457-.294.437-.321.413-.346.399-.374.367-.388.346-.415.318-.435.297-.456.263-.472.24-.482.204-.495.175-.52.145-.535.118-.545.084-.56.051-.565.012-.563-.012-.563-.051-.561-.084-.561-.118-.548-.145-.533-.175-.513-.206-.5-.238-.481-.263-.473-.297-.454-.319-.44-.345-.414-.367-.39-.398-.368-.414-.35-.436-.318-.458-.295-.471-.266-.487-.235-.507-.208-.525-.175-.535-.15-.548-.117-.56-.083zm-.568 3.098h.021l.374.015.044.003.363.042a.199.199 0 01.03.005l.368.063a.605.605 0 01.05.01l.36.097.03.008.356.117a.41.41 0 01.042.015l.347.146a.346.346 0 01.035.015l.334.168a.373.373 0 01.037.02l.324.193.043.028.3.218.016.012.301.236a.407.407 0 01.038.032l.285.266a.53.53 0 01.033.035l.254.28.015.018.248.3a.52.52 0 01.031.042l.218.32a.306.306 0 01.024.037l.19.331.016.032.17.343.014.032.147.353.012.031.128.369c.006.016.01.033.014.05l.092.376.007.034.07.385a.515.515 0 01.006.049l.035.387.002.028.015.385v.045l-.015.383-.002.029-.035.389a.546.546 0 01-.007.049l-.069.384-.006.032-.092.38a.706.706 0 01-.016.054l-.128.365-.01.027-.147.357a.52.52 0 01-.016.036l-.169.342-.016.03-.19.33a.537.537 0 01-.023.037l-.216.317a.805.805 0 01-.03.041l-.252.304-.017.02-.253.278c-.01.012-.022.023-.033.034l-.285.265-.03.025-.3.244-.025.02-.3.216a.777.777 0 01-.044.028l-.325.192a.701.701 0 01-.038.02l-.335.164-.027.013-.346.146a.47.47 0 01-.046.017l-.356.116a.447.447 0 01-.033.01l-.358.092-.034.008-.371.071a.474.474 0 01-.056.008l-.363.033-.033.003-.375.011h-.035l-.373-.011-.034-.003-.359-.033a.67.67 0 01-.054-.007l-.375-.072-.03-.006-.371-.093-.042-.013-.347-.115a.59.59 0 01-.04-.015l-.349-.147a.294.294 0 01-.032-.015l-.33-.164-.038-.02-.32-.192-.033-.021-.31-.217-.035-.025-.298-.244a.54.54 0 01-.032-.028l-.279-.264-.024-.025-.26-.279-.03-.036-.24-.303-.018-.025-.223-.316a.408.408 0 01-.026-.042l-.191-.33a.21.21 0 01-.015-.027l-.173-.341a.876.876 0 01-.02-.042l-.146-.357-.015-.04-.117-.364-.008-.025-.105-.38a.876.876 0 01-.013-.06l-.06-.385-.004-.027-.043-.39-.002-.038-.015-.383a.444.444 0 010-.045l.015-.385.002-.039.043-.386.004-.028.06-.385a.628.628 0 01.014-.063l.104-.375.007-.022.118-.367a.32.32 0 01.017-.044l.146-.353a.639.639 0 01.017-.038l.174-.343.014-.027.191-.331a.465.465 0 01.027-.042l.222-.319.022-.028.239-.3a.394.394 0 01.027-.031l.26-.282.025-.025.279-.266a.593.593 0 01.04-.035l.298-.235a.315.315 0 01.026-.019l.31-.218.032-.021.32-.194.037-.02.332-.167a.323.323 0 01.036-.017l.347-.146.039-.014.347-.116a.352.352 0 01.037-.011l.37-.096a.38.38 0 01.048-.01l.375-.064.028-.004.358-.042.045-.003.374-.015zm.33 1.138l-.33-.013-.33.013-.323.038-.337.057-.328.085-.309.103-.309.13-.294.149-.286.173-.282.197-.265.21-.248.235-.233.253-.216.27-.198.284-.17.297-.158.312-.13.312-.108.334-.093.334-.053.34-.039.354-.013.343.013.342.039.356.054.34.092.337.108.333.13.316.156.308.171.295.2.283.215.274.233.25.25.237.267.218.277.193.284.17.293.146.314.131.306.103.333.083.333.064.315.028.339.011.34-.01.318-.03.327-.062.323-.084.317-.103.31-.131.302-.148.282-.167.267-.192.274-.222.253-.236.228-.251.226-.273.19-.278.17-.296.152-.308.133-.325.114-.324.081-.336.061-.344.033-.35.013-.348-.013-.348-.033-.348-.061-.345-.081-.332-.113-.327-.134-.32-.153-.312-.17-.297-.19-.279-.225-.271-.23-.254-.248-.233-.274-.214-.271-.197-.285-.17-.3-.15-.308-.129-.318-.104-.322-.086-.328-.056zM376.595 112.417h.022l.602.024.026.001.607.053a.281.281 0 01.034.004l.588.088.032.005.593.125.037.009.567.16.025.007.557.185.037.014.536.222.03.014.514.25.032.015.5.285.026.016.484.311.028.02.465.34.032.025.436.37.015.015.427.39.028.027.395.416.023.025.373.441.03.039.33.467.331.494a.497.497 0 01.026.043l.274.502.014.026.246.51.016.037.211.533.008.017.196.548a.325.325 0 01.012.036l.16.565.01.036.124.58a.274.274 0 01.006.034l.09.594.004.038.047.597.002.027.019.596v.036l-.02.594v.027l-.048.6-.004.038-.09.594a.289.289 0 01-.006.036l-.124.576-.01.035-.16.566a.286.286 0 01-.011.035l-.197.554-.008.02-.212.53a.356.356 0 01-.015.035l-.246.512c-.004.01-.01.018-.014.027l-.274.5a.336.336 0 01-.026.042l-.323.485-.01.013-.33.463a.35.35 0 01-.028.037l-.373.443-.024.024-.396.414-.024.024-.426.395-.019.016-.433.368-.032.026-.468.342-.026.018-.482.311-.03.019-.501.281a.202.202 0 01-.03.016l-.512.251-.035.015-.536.219-.031.012-.557.188-.03.01-.567.157-.038.01-.592.12-.026.006-.587.092a.532.532 0 01-.038.005l-.607.054a.308.308 0 01-.036.002l-.602.014h-.026l-.601-.014a.3.3 0 01-.037-.002l-.603-.054a.49.49 0 01-.036-.005l-.594-.092-.028-.005-.586-.122-.035-.009-.573-.158-.033-.01-.55-.188-.03-.012-.534-.218-.033-.014-.517-.251-.03-.016-.503-.282-.024-.014-.497-.312-.039-.027-.455-.342-.024-.018-.44-.368-.021-.018-.428-.396-.025-.024-.395-.414-.03-.035-.357-.441-.016-.022-.34-.463-.015-.023-.318-.484a.58.58 0 01-.02-.035l-.28-.5-.014-.024-.254-.512-.017-.037-.217-.534-.011-.027-.192-.551a.409.409 0 01-.013-.043l-.149-.565-.006-.024-.125-.577-.007-.042-.082-.594-.003-.016-.065-.6a.51.51 0 01-.004-.048l-.013-.594v-.027l.013-.595.004-.048.065-.597.003-.015.082-.594.007-.042.125-.58.006-.025.149-.565.013-.043.192-.547.01-.027.218-.532a.544.544 0 01.017-.036l.254-.513.013-.023.28-.502.021-.035.318-.483.015-.021.338-.467.018-.023.357-.442.03-.033.393-.416.03-.03.428-.388.016-.014.44-.372.026-.02.456-.341.038-.027.497-.31.022-.014.5-.284a.31.31 0 01.034-.017l.52-.25.028-.012.535-.222a.508.508 0 01.036-.013l.549-.186.029-.008.573-.16.034-.008.586-.124.034-.007.594-.088.034-.003.602-.053.027-.001.601-.024zm.566 1.147l-.566-.022-.565.022-.572.05-.56.083-.553.117-.541.15-.517.174-.503.21-.489.234-.473.268-.466.293-.425.317-.42.354-.404.368-.364.385-.335.413-.322.444-.3.455-.263.472-.24.482-.204.5-.18.512-.14.53-.118.548-.078.565-.062.565-.013.558.013.557.062.568.078.565.118.543.14.533.18.516.205.5.24.482.263.471.298.455.322.441.335.413.365.385.405.372.419.35.425.32.465.291.477.268.486.236.503.205.518.178.539.148.554.115.562.088.566.05.57.014.57-.013.569-.05.555-.089.561-.115.534-.148.526-.18.502-.203.482-.236.472-.266.453-.293.438-.321.41-.346.405-.376.372-.39.347-.41.311-.436.306-.457.255-.466.231-.48.2-.504.188-.526.15-.53.117-.542.084-.557.046-.567.017-.564-.017-.563-.046-.564-.084-.558-.117-.544-.15-.529-.187-.52-.2-.506-.232-.48-.255-.467-.31-.462-.307-.435-.348-.41-.371-.39-.404-.37-.413-.35-.436-.32-.456-.294-.47-.267-.482-.235-.501-.207-.525-.174-.536-.151-.558-.117-.555-.083zm-.566 3.098h.021l.369.015.042.003.371.042a.206.206 0 01.032.005l.367.063a.502.502 0 01.048.01l.363.097.028.008.36.116c.017.005.032.011.048.018l.343.145a.309.309 0 01.029.014l.339.167a.395.395 0 01.045.025l.315.194a.267.267 0 01.026.017l.313.218a.36.36 0 01.03.023l.293.235a.441.441 0 01.04.035l.274.266.018.019.265.281a.342.342 0 01.027.032l.244.3c.01.012.019.025.028.039l.216.318.019.03.194.332.017.03.173.343a.616.616 0 01.019.039l.146.353.015.04.12.368.009.028.101.375a.71.71 0 01.013.055l.064.385.005.034.04.387.004.037.014.385a.444.444 0 010 .045l-.014.383-.003.037-.041.389-.005.034-.064.385-.012.052-.102.38-.01.03-.12.366-.013.037-.147.357-.019.041-.173.34-.017.031-.194.33-.02.032-.216.317a.541.541 0 01-.026.034l-.242.303a.51.51 0 01-.032.037l-.265.278a.184.184 0 01-.017.018l-.274.265-.031.028-.293.243a.49.49 0 01-.039.03l-.313.217-.028.018-.314.191a.527.527 0 01-.047.026l-.339.164-.024.01-.342.147a.624.624 0 01-.049.019l-.361.115-.032.01-.36.092-.033.008-.369.071a.489.489 0 01-.058.008l-.371.033-.032.003-.368.011h-.035l-.372-.011-.033-.003-.366-.033a.452.452 0 01-.055-.008l-.375-.07-.033-.008-.362-.093-.038-.01-.351-.117a.6.6 0 01-.046-.017l-.34-.147-.024-.01-.337-.165a.415.415 0 01-.038-.02l-.326-.19a1.099 1.099 0 01-.042-.028l-.305-.217a.507.507 0 01-.031-.025l-.295-.244a.232.232 0 01-.025-.02l-.284-.264-.033-.033-.257-.28-.025-.03-.24-.302-.015-.019-.23-.318a.53.53 0 01-.033-.05l-.19-.33-.02-.037-.164-.342-.017-.036-.14-.357-.009-.024-.125-.366-.014-.046-.095-.38-.007-.031-.073-.385-.007-.053-.035-.39-.002-.033-.012-.383v-.035l.012-.385.002-.034.035-.386.007-.054.073-.386.008-.033.095-.375a.44.44 0 01.013-.044l.125-.368.01-.026.14-.354.016-.035.164-.342a.638.638 0 01.019-.037l.19-.331a.543.543 0 01.032-.051l.231-.319.017-.021.24-.3.024-.028.256-.281a.604.604 0 01.031-.032l.285-.266a.424.424 0 01.034-.028l.295-.236.024-.018.304-.218a.373.373 0 01.04-.026l.326-.194.037-.02.338-.167.028-.014.34-.145.045-.017.351-.116.033-.01.362-.095a.544.544 0 01.05-.011l.374-.064.03-.004.367-.042c.014-.002.028-.003.043-.003l.371-.015zm.325 1.138l-.325-.013-.329.013-.33.038-.334.056-.32.086-.313.103-.304.13-.304.15-.287.171-.273.195-.267.213-.252.236-.23.251-.22.275-.205.284-.165.287-.146.307-.128.323-.115.333-.085.336-.064.342-.03.344-.012.35.011.35.03.345.065.342.086.34.114.33.128.327.146.305.164.285.207.283.22.278.227.248.257.238.267.22.268.191.286.167.306.15.305.13.31.103.327.084.33.063.322.028.337.011.334-.01.327-.03.324-.062.327-.084.32-.103.306-.131.303-.147.277-.168.279-.193.258-.215.25-.242.24-.252.214-.268.193-.284.177-.3.155-.305.13-.317.11-.331.09-.338.058-.341.037-.354.013-.342-.013-.345-.037-.351-.057-.342-.091-.334-.11-.334-.13-.314-.156-.307-.176-.301-.192-.285-.215-.264-.241-.257-.247-.239-.257-.207-.284-.198-.278-.171-.301-.149-.303-.129-.323-.104-.325-.086-.326-.056zM432.6 66.885a.563.563 0 01.562.563v5.925a.563.563 0 01-1.125 0v-5.925a.563.563 0 01.563-.563zM430.047 69.436h.015a.563.563 0 01.548.577l-.088 3.375a.562.562 0 11-1.125-.03l.088-3.375a.562.562 0 01.562-.547zM363.718 66.885a.563.563 0 01.562.563v5.925a.563.563 0 01-1.125 0v-5.925a.562.562 0 01.563-.563zM393.648 67.707h9.018a9.046 9.046 0 016.946 3.238l1.732 2.066a.563.563 0 11-.862.723l-1.732-2.066a7.924 7.924 0 00-6.084-2.836h-9.018a7.923 7.923 0 00-6.083 2.837l-1.733 2.065a.563.563 0 11-.862-.723l1.733-2.066a9.048 9.048 0 016.945-3.238z"/><path class="cls-5" d="M451.73 73.373v-5.529a2.977 2.977 0 115.954 0v5.529zM338.632 73.373v-5.529a2.977 2.977 0 015.953 0v5.529z"/><path class="cls-4" d="M333.102 72.81h130.11a.563.563 0 010 1.126h-130.11a.563.563 0 010-1.125z"/><path class="cls-6" d="M341.609 64.117a3.734 3.734 0 013.575 2.674.75.75 0 01.364-.093h18.17a3.303 3.303 0 013.3 3.29l.068 2.635h17.737a2.889 2.889 0 01.449-1.13l1.97-2.92a10.092 10.092 0 018.377-4.456h5.077a10.093 10.093 0 018.376 4.456l1.97 2.918a2.908 2.908 0 01.45 1.132l6.513-.001a2.453 2.453 0 012.151-1.276h9.105l.036-1.359a3.305 3.305 0 013.302-3.29h18.17a.75.75 0 01.362.094 3.727 3.727 0 017.303 1.053v4.779h4.777a.75.75 0 01.678.428l2.276 4.79a.75.75 0 01.349.634v79.512a.75.75 0 01-.22.53l-2.125 2.125a.75.75 0 01-.53.22h-7.649v1.59a.526.526 0 00.525.525h2.975a.75.75 0 01.75.75v2.977a2.026 2.026 0 01-2.023 2.025h-18.71a2.027 2.027 0 01-2.025-2.014l-.152-5.853h-15.118l-.155 5.853a2.027 2.027 0 01-2.024 2.014H376.28a2.028 2.028 0 01-2.026-2.014l-.154-5.853h-15.114l-.154 5.853a2.028 2.028 0 01-2.026 2.014h-18.71a2.027 2.027 0 01-2.024-2.025v-2.977a.75.75 0 01.75-.75h2.976a.526.526 0 00.525-.526v-1.589h-7.648a.75.75 0 01-.53-.22l-2.126-2.125a.75.75 0 01-.22-.53V78.475a.75.75 0 01.349-.633l2.274-4.79a.751.751 0 01.677-.429h4.783v-4.779a3.731 3.731 0 013.727-3.727zm3.939 10.006h-.963a.75.75 0 01-.75-.75v-5.529a2.227 2.227 0 10-4.453 0v5.529a.75.75 0 01-.75.75h-5.058l-2.22 4.674a.768.768 0 01-.054.097v78.783l1.686 1.685h8.087a.75.75 0 01.75.75v2.34a2.028 2.028 0 01-2.025 2.025h-2.226v2.227a.526.526 0 00.525.525h18.709a.526.526 0 00.526-.525v-.02l.173-6.592a.75.75 0 01.75-.73h16.575a.75.75 0 01.75.73l.174 6.592v.02a.527.527 0 00.526.525h43.753a.525.525 0 00.524-.525v-.02l.174-6.592a.75.75 0 01.75-.73h16.58a.75.75 0 01.75.73l.17 6.592v.02a.525.525 0 00.525.525h18.71a.525.525 0 00.524-.525v-2.227h-2.225a2.028 2.028 0 01-2.025-2.026v-2.34a.75.75 0 01.75-.75h8.088l1.686-1.684V78.894a.814.814 0 01-.055-.096l-2.222-4.675h-5.053a.75.75 0 01-.75-.75v-5.529a2.227 2.227 0 10-4.454 0v5.529a.75.75 0 01-.75.75h-.962a.75.75 0 01-.75-.75v-5.175H432.6a1.804 1.804 0 00-1.803 1.8v.02l-.056 2.099a.75.75 0 01-.75.73h-9.835a.953.953 0 00-.921.713.75.75 0 01-.726.562l-7.597.001a.75.75 0 01-.574-.268l-.129-.153a.757.757 0 01-.176-.471l-.002-.158a1.383 1.383 0 00-.236-.746l-1.966-2.915a8.594 8.594 0 00-7.133-3.795h-5.077a8.596 8.596 0 00-7.134 3.795l-1.968 2.918a1.388 1.388 0 00-.234.745l-.004.161a.755.755 0 01-.175.466l-.128.153a.751.751 0 01-.575.268h-19.046a.75.75 0 01-.75-.73l-.087-3.376v-.019a1.802 1.802 0 00-1.8-1.8h-17.42v5.175a.75.75 0 01-.75.75z"/><path class="cls-7" d="M303.873 0H492.44v188.567H303.873z"/></g></g></svg>