<svg xmlns="http://www.w3.org/2000/svg" viewBox="-39.068075 0 555 170.59355"><defs><style>.cls-1{fill:#bfd833;}.cls-2{fill:#fff;}.cls-3{fill:#666;}.cls-4{fill:none;}</style></defs><title>アセット 1401</title><g id="レイヤー_2" data-name="レイヤー 2"><g id="レイヤー_2-2" data-name="レイヤー 2"><path class="cls-1" d="M462.25592,159.174H14.608a2.75311,2.75311,0,0,1-2.75-2.75v-100a2.75311,2.75311,0,0,1,2.75-2.75h25.1377v1.5H14.608a1.25116,1.25116,0,0,0-1.25,1.25v100a1.25116,1.25116,0,0,0,1.25,1.25h447.648a1.25116,1.25116,0,0,0,1.25-1.25v-100a1.25116,1.25116,0,0,0-1.25-1.25h-26.6377v-1.5h26.6377a2.7528,2.7528,0,0,1,2.75,2.75v100A2.7528,2.7528,0,0,1,462.25592,159.174Z"/><path class="cls-1" d="M322.90826,54.425a1.49789,1.49789,0,0,1,1.5-1.5h0a1.49789,1.49789,0,0,1,1.5,1.5h0a1.49789,1.49789,0,0,1-1.5,1.5h0A1.49789,1.49789,0,0,1,322.90826,54.425Zm-10,0a1.49789,1.49789,0,0,1,1.5-1.5h0a1.49789,1.49789,0,0,1,1.5,1.5h0a1.49789,1.49789,0,0,1-1.5,1.5h0A1.49789,1.49789,0,0,1,312.90826,54.425Zm-10,0a1.49789,1.49789,0,0,1,1.5-1.5h0a1.49789,1.49789,0,0,1,1.5,1.5h0a1.49789,1.49789,0,0,1-1.5,1.5h0A1.49789,1.49789,0,0,1,302.90826,54.425Zm-10,0a1.49789,1.49789,0,0,1,1.5-1.5h0a1.49789,1.49789,0,0,1,1.5,1.5h0a1.49789,1.49789,0,0,1-1.5,1.5h0A1.49789,1.49789,0,0,1,292.90826,54.425Zm-10,0a1.49789,1.49789,0,0,1,1.5-1.5h0a1.49789,1.49789,0,0,1,1.5,1.5h0a1.49789,1.49789,0,0,1-1.5,1.5h0A1.49789,1.49789,0,0,1,282.90826,54.425Zm-10,0a1.49789,1.49789,0,0,1,1.5-1.5h0a1.49789,1.49789,0,0,1,1.5,1.5h0a1.49789,1.49789,0,0,1-1.5,1.5h0A1.49789,1.49789,0,0,1,272.90826,54.425Z"/><polygon class="cls-1" points="47.999 54.115 37.314 47.946 37.314 60.285 47.999 54.115"/><rect class="cls-2" x="50.50698" y="12.16983" width="96.06066" height="81.89183" rx="1.8"/><path class="cls-1" d="M144.76764,94.81172H52.30719a2.55275,2.55275,0,0,1-2.55029-2.54981v-78.292a2.55274,2.55274,0,0,1,2.55029-2.5498h92.46045a2.55264,2.55264,0,0,1,2.5498,2.5498v78.292A2.55264,2.55264,0,0,1,144.76764,94.81172ZM52.30719,12.92012a1.0511,1.0511,0,0,0-1.05029,1.0498v78.292a1.05111,1.05111,0,0,0,1.05029,1.04981h92.46045a1.05069,1.05069,0,0,0,1.0498-1.04981v-78.292a1.05068,1.05068,0,0,0-1.0498-1.0498Z"/><path class="cls-3" d="M72.46,47.75019c0,3.22168-1.793,5.54688-5.05664,5.54688-3.23535,0-5.042-2.3252-5.042-5.54688,0-3.23535,1.77832-5.57422,5.042-5.57422C70.69537,42.176,72.46,44.51484,72.46,47.75019Zm-2.19922,0c0-2.11523-.89648-3.80957-2.85742-3.80957-1.94629,0-2.84277,1.69434-2.84277,3.80957,0,2.10157.91015,3.78223,2.87109,3.78223C69.40631,51.53242,70.2608,49.85176,70.2608,47.75019Z"/><path class="cls-3" d="M76.46,52.24726v3.80957H74.31744V45.15937H76.418v1.02246h.02832a2.99006,2.99006,0,0,1,2.4375-1.20507c2.18457,0,3.36133,1.835,3.36133,4.16015,0,2.33985-1.23242,4.16016-3.40332,4.16016a2.84847,2.84847,0,0,1-2.35352-1.04981Zm3.65625-3.11035c0-1.44238-.56055-2.54883-1.80664-2.54883-1.24707,0-1.98926,1.06446-1.98926,2.54883,0,1.47071.74219,2.56348,1.98926,2.56348C79.55572,51.70039,80.11627,50.58027,80.11627,49.13691Z"/><path class="cls-3" d="M91.20514,49.76777H85.74225c.126,1.3584,1.24609,1.93262,2.61914,1.93262a6.284,6.284,0,0,0,1.90527-.29395l.23828,1.56934a8.65575,8.65575,0,0,1-2.39551.32129c-2.84375,0-4.49609-1.69434-4.49609-4.14551a3.86861,3.86861,0,0,1,4.00586-4.1748c2.31152,0,3.58594,1.541,3.58594,3.93652Zm-3.62793-3.34765a1.882,1.882,0,0,0-1.835,1.8623h3.46A1.63906,1.63906,0,0,0,87.57721,46.42012Z"/><path class="cls-3" d="M97.671,45.00508l-.09766,1.63867a2.97178,2.97178,0,0,0-.61621-.05567c-1.05078,0-1.93359.68653-1.93359,2.68946v3.83789H92.88092V45.15937h2.10059v1.03614h.02832a2.10373,2.10373,0,0,1,2.08691-1.21875C97.293,44.97676,97.503,44.9914,97.671,45.00508Z"/><path class="cls-3" d="M103.42486,48.11445v-.19629c0-.82617-.53222-1.33008-1.76464-1.33008a6.24843,6.24843,0,0,0-2.0459.39161l-.3916-1.54a8.53211,8.53211,0,0,1,2.59082-.46289c2.66211,0,3.7539,1.12109,3.7539,3.04v3.292a10.29593,10.29593,0,0,0,.127,1.80664h-1.90528a5.91976,5.91976,0,0,1-.168-.98047h-.02832a2.54414,2.54414,0,0,1-2.29687,1.16211c-1.38672,0-2.88574-.62988-2.88574-2.47852C98.41022,48.49336,100.70709,48.11445,103.42486,48.11445Zm0,1.31738h-.28027c-1.457,0-2.64746.23731-2.64746,1.30274a1.0329,1.0329,0,0,0,1.16309,1.07812,1.67769,1.67769,0,0,0,1.76464-1.82129Z"/><path class="cls-3" d="M106.74029,46.76972V45.15937H107.959V43.04414h2.14258v2.11523h1.65332v1.61035h-1.65332v3.5586c0,1.07812.14063,1.24609.89649,1.24609a5.24076,5.24076,0,0,0,.71484-.05566v1.59668c-.40625.042-.91113.07031-1.38672.07031-1.98926,0-2.36719-.79883-2.36719-2.29785V46.76972Z"/><path class="cls-3" d="M113.16705,42.07734h2.14258v1.86328h-2.14258Zm0,3.082h2.14258v7.95606h-2.14258Z"/><path class="cls-3" d="M125.15533,49.12324a4.05686,4.05686,0,1,1-8.11035,0,4.05618,4.05618,0,1,1,8.11035,0Zm-2.1289,0c0-1.499-.63086-2.53516-1.919-2.53516-1.30273,0-1.91992,1.03614-1.91992,2.53516,0,1.55469.63086,2.56348,1.91992,2.56348C122.39557,51.68672,123.02643,50.67793,123.02643,49.12324Z"/><path class="cls-3" d="M126.90143,45.15937H129.002v1.06446h.02832a2.6249,2.6249,0,0,1,2.40918-1.24707,2.739,2.739,0,0,1,2.94141,2.89941v5.23926h-2.14258V48.675c0-1.30274-.29394-2.08692-1.4707-2.08692-.82715,0-1.72363.58789-1.72363,2.21289v4.31446h-2.14258Z"/><path class="cls-3" d="M93.65826,73.52461h-1.667l.39258-2.8291H90.99713V69.16816h1.59668l.28027-2.04492H91.2774V65.5959H93.084l.39258-2.8291h1.667l-.40625,2.8291h1.583l.3916-2.8291h1.65332l-.39257,2.8291h1.23242v1.52734H97.76276l-.26661,2.04492h1.40137v1.52735H97.28619l-.3916,2.8291h-1.667l.40625-2.8291H94.06451Zm.86914-6.40137-.2666,2.04492h1.583l.28027-2.04492Z"/><path class="cls-3" d="M104.76178,62.7668V73.52461h-2.19922V64.84l-2.0166,1.19043-.77051-1.63867,2.74512-1.625Z"/><path class="cls-3" d="M220.76178,148.80879V138.051h4.17383c1.93359,0,3.74023.71485,3.74023,2.91407a2.48622,2.48622,0,0,1-1.82129,2.50683v.02832c.67285.23828.98047.65821,1.34473,1.94727.33691,1.14844.65918,2.19824.99512,3.36133h-2.35352c-.19629-.77051-.53223-2.14356-.72852-2.81543-.32226-1.16309-.58789-1.52735-2.1289-1.52735H222.961v4.34278Zm2.19922-8.99317v2.88575h1.44238c1.20508,0,2.07324-.32227,2.07324-1.44239,0-1.20508-1.00879-1.44336-2.00293-1.44336Z"/><path class="cls-3" d="M237.69147,145.46113h-5.46289c.126,1.3584,1.24609,1.93262,2.61914,1.93262a6.284,6.284,0,0,0,1.90527-.294l.23828,1.56934a8.65575,8.65575,0,0,1-2.39551.32129c-2.84375,0-4.49707-1.69434-4.49707-4.14551a3.86936,3.86936,0,0,1,4.00684-4.1748c2.31152,0,3.58594,1.541,3.58594,3.93652Zm-3.62793-3.34766a1.882,1.882,0,0,0-1.835,1.86231h3.46A1.63907,1.63907,0,0,0,234.06354,142.11347Z"/><path class="cls-3" d="M241.50983,147.94062v3.80957h-2.14258V140.85273h2.10058v1.02246h.02832a2.99006,2.99006,0,0,1,2.4375-1.20507c2.18457,0,3.36133,1.835,3.36133,4.16015,0,2.33985-1.23242,4.16016-3.40332,4.16016a2.84845,2.84845,0,0,1-2.35351-1.04981Zm3.65625-3.11035c0-1.44238-.56055-2.54883-1.80665-2.54883-1.24707,0-1.98925,1.06446-1.98925,2.54883,0,1.4707.74218,2.56348,1.98925,2.56348C244.60553,147.39375,245.16608,146.27363,245.16608,144.83027Z"/><path class="cls-3" d="M256.25494,145.46113h-5.46289c.126,1.3584,1.2461,1.93262,2.61914,1.93262a6.284,6.284,0,0,0,1.90528-.294l.23828,1.56934a8.65575,8.65575,0,0,1-2.39551.32129c-2.84375,0-4.49609-1.69434-4.49609-4.14551a3.8686,3.8686,0,0,1,4.00586-4.1748c2.31152,0,3.58593,1.541,3.58593,3.93652Zm-3.62793-3.34766a1.882,1.882,0,0,0-1.835,1.86231h3.46A1.63907,1.63907,0,0,0,252.627,142.11347Z"/><path class="cls-3" d="M262.49713,143.80781v-.19629c0-.82617-.53223-1.33008-1.76465-1.33008a6.24848,6.24848,0,0,0-2.0459.39161l-.3916-1.54a8.53191,8.53191,0,0,1,2.59082-.46289c2.66211,0,3.75391,1.12109,3.75391,3.04v3.292a10.297,10.297,0,0,0,.127,1.80664h-1.90527a5.91872,5.91872,0,0,1-.168-.98047h-.02832a2.54415,2.54415,0,0,1-2.29688,1.16211c-1.38671,0-2.88574-.62988-2.88574-2.47852C257.48248,144.18672,259.77936,143.80781,262.49713,143.80781Zm0,1.31738h-.28027c-1.457,0-2.64746.23731-2.64746,1.30274a1.0329,1.0329,0,0,0,1.16308,1.07812,1.6777,1.6777,0,0,0,1.76465-1.82129Z"/><path class="cls-3" d="M265.81256,142.46308v-1.61035h1.21875V138.7375h2.14258v2.11523h1.65332v1.61035h-1.65332v3.5586c0,1.07812.14062,1.24609.89648,1.24609a5.24092,5.24092,0,0,0,.71485-.05566v1.59668c-.40625.042-.91114.07031-1.38672.07031-1.98926,0-2.36719-.79883-2.36719-2.29785v-4.11817Z"/><rect class="cls-2" x="160.23364" y="12.16983" width="96.06066" height="81.89183" rx="1.8"/><path class="cls-1" d="M254.4942,94.81172H162.03375a2.55275,2.55275,0,0,1-2.55029-2.54981v-78.292a2.55274,2.55274,0,0,1,2.55029-2.5498H254.4942a2.55233,2.55233,0,0,1,2.54981,2.5498v78.292A2.55234,2.55234,0,0,1,254.4942,94.81172Zm-92.46045-81.8916a1.0511,1.0511,0,0,0-1.05029,1.0498v78.292a1.05111,1.05111,0,0,0,1.05029,1.04981H254.4942a1.0507,1.0507,0,0,0,1.04981-1.04981v-78.292a1.05069,1.05069,0,0,0-1.04981-1.0498Z"/><path class="cls-3" d="M182.18658,47.75019c0,3.22168-1.793,5.54688-5.05664,5.54688-3.23535,0-5.042-2.3252-5.042-5.54688,0-3.23535,1.77832-5.57422,5.042-5.57422C180.42193,42.176,182.18658,44.51484,182.18658,47.75019Zm-2.19922,0c0-2.11523-.89648-3.80957-2.85742-3.80957-1.94629,0-2.84277,1.69434-2.84277,3.80957,0,2.10157.91016,3.78223,2.87109,3.78223C179.13287,51.53242,179.98736,49.85176,179.98736,47.75019Z"/><path class="cls-3" d="M186.18658,52.24726v3.80957H184.044V45.15937h2.10058v1.02246h.02832a2.99006,2.99006,0,0,1,2.4375-1.20507c2.18457,0,3.36133,1.835,3.36133,4.16015,0,2.33985-1.23242,4.16016-3.40332,4.16016a2.84847,2.84847,0,0,1-2.35352-1.04981Zm3.65625-3.11035c0-1.44238-.56054-2.54883-1.80664-2.54883-1.24707,0-1.98926,1.06446-1.98926,2.54883,0,1.47071.74219,2.56348,1.98926,2.56348C189.28229,51.70039,189.84283,50.58027,189.84283,49.13691Z"/><path class="cls-3" d="M200.9317,49.76777h-5.46289c.126,1.3584,1.24609,1.93262,2.61914,1.93262a6.28393,6.28393,0,0,0,1.90527-.29395l.23829,1.56934a8.65586,8.65586,0,0,1-2.39551.32129c-2.84375,0-4.4961-1.69434-4.4961-4.14551a3.86861,3.86861,0,0,1,4.00586-4.1748c2.31153,0,3.58594,1.541,3.58594,3.93652Zm-3.62793-3.34765a1.882,1.882,0,0,0-1.835,1.8623h3.46A1.63906,1.63906,0,0,0,197.30377,46.42012Z"/><path class="cls-3" d="M207.39752,45.00508l-.09766,1.63867a2.97172,2.97172,0,0,0-.61621-.05567c-1.05078,0-1.93359.68653-1.93359,2.68946v3.83789h-2.14258V45.15937h2.10059v1.03614h.02832a2.10374,2.10374,0,0,1,2.08691-1.21875C207.01959,44.97676,207.22955,44.9914,207.39752,45.00508Z"/><path class="cls-3" d="M213.15143,48.11445v-.19629c0-.82617-.53223-1.33008-1.76465-1.33008a6.24843,6.24843,0,0,0-2.0459.39161l-.3916-1.54a8.53222,8.53222,0,0,1,2.59082-.46289c2.66211,0,3.75391,1.12109,3.75391,3.04v3.292a10.29694,10.29694,0,0,0,.127,1.80664h-1.90528a5.91869,5.91869,0,0,1-.168-.98047h-.02832a2.54415,2.54415,0,0,1-2.29688,1.16211c-1.38672,0-2.88574-.62988-2.88574-2.47852C208.13678,48.49336,210.43365,48.11445,213.15143,48.11445Zm0,1.31738h-.28028c-1.457,0-2.64746.23731-2.64746,1.30274a1.0329,1.0329,0,0,0,1.16309,1.07812,1.6777,1.6777,0,0,0,1.76465-1.82129Z"/><path class="cls-3" d="M216.46686,46.76972V45.15937h1.21875V43.04414h2.14257v2.11523h1.65333v1.61035h-1.65333v3.5586c0,1.07812.14063,1.24609.89649,1.24609a5.24076,5.24076,0,0,0,.71484-.05566v1.59668c-.40625.042-.91113.07031-1.38672.07031-1.98925,0-2.36718-.79883-2.36718-2.29785V46.76972Z"/><path class="cls-3" d="M222.89361,42.07734h2.14258v1.86328h-2.14258Zm0,3.082h2.14258v7.95606h-2.14258Z"/><path class="cls-3" d="M234.8819,49.12324a4.05687,4.05687,0,1,1-8.11036,0,4.05619,4.05619,0,1,1,8.11036,0Zm-2.12891,0c0-1.499-.63086-2.53516-1.919-2.53516-1.30273,0-1.91992,1.03614-1.91992,2.53516,0,1.55469.63086,2.56348,1.91992,2.56348C232.12213,51.68672,232.753,50.67793,232.753,49.12324Z"/><path class="cls-3" d="M236.628,45.15937h2.10059v1.06446h.02832a2.62489,2.62489,0,0,1,2.40918-1.24707,2.739,2.739,0,0,1,2.9414,2.89941v5.23926H241.9649V48.675c0-1.30274-.29394-2.08692-1.4707-2.08692-.82715,0-1.72363.58789-1.72363,2.21289v4.31446H236.628Z"/><path class="cls-3" d="M202.55182,73.52461h-1.667l.39257-2.8291h-1.38672V69.16816h1.59668l.28028-2.04492H200.171V65.5959h1.80664l.39258-2.8291h1.667l-.40625,2.8291h1.583l.3916-2.8291h1.65332l-.39258,2.8291h1.23242v1.52734h-1.44238l-.26563,2.04492h1.4004v1.52735h-1.61133l-.3916,2.8291h-1.667l.40625-2.8291h-1.56933Zm.86914-6.40137-.2666,2.04492h1.583l.28028-2.04492Z"/><path class="cls-3" d="M216.28912,71.76v1.76465h-7.21386v-1.793c3.82421-3.36231,4.874-4.58008,4.874-5.88281a1.50451,1.50451,0,0,0-1.667-1.499,4.71528,4.71528,0,0,0-2.46485.82617l-.68652-1.56835a6.063,6.063,0,0,1,3.32031-1.02247c2.21289,0,3.69727,1.13379,3.69727,3.22168,0,1.91895-1.2041,3.23536-4.3418,5.95313Z"/><rect class="cls-2" x="339.47326" y="12.16983" width="96.06066" height="81.89183" rx="1.8"/><path class="cls-1" d="M433.73346,94.81172h-92.46a2.55234,2.55234,0,0,1-2.54981-2.54981v-78.292a2.55233,2.55233,0,0,1,2.54981-2.5498h92.46a2.55316,2.55316,0,0,1,2.55078,2.5498v78.292A2.55317,2.55317,0,0,1,433.73346,94.81172Zm-92.46-81.8916a1.05069,1.05069,0,0,0-1.04981,1.0498v78.292a1.0507,1.0507,0,0,0,1.04981,1.04981h92.46a1.05153,1.05153,0,0,0,1.05078-1.04981v-78.292a1.05152,1.05152,0,0,0-1.05078-1.0498Z"/><path class="cls-3" d="M361.42682,47.75019c0,3.22168-1.793,5.54688-5.05664,5.54688-3.23535,0-5.042-2.3252-5.042-5.54688,0-3.23535,1.77833-5.57422,5.042-5.57422C359.66217,42.176,361.42682,44.51484,361.42682,47.75019Zm-2.19922,0c0-2.11523-.89649-3.80957-2.85742-3.80957-1.94629,0-2.84278,1.69434-2.84278,3.80957,0,2.10157.91016,3.78223,2.8711,3.78223C358.37311,51.53242,359.2276,49.85176,359.2276,47.75019Z"/><path class="cls-3" d="M365.42682,52.24726v3.80957h-2.14258V45.15937h2.10059v1.02246h.02832a2.99,2.99,0,0,1,2.4375-1.20507c2.18457,0,3.36132,1.835,3.36132,4.16015,0,2.33985-1.23242,4.16016-3.40332,4.16016a2.84846,2.84846,0,0,1-2.35351-1.04981Zm3.65625-3.11035c0-1.44238-.56055-2.54883-1.80664-2.54883-1.24707,0-1.98926,1.06446-1.98926,2.54883,0,1.47071.74219,2.56348,1.98926,2.56348C368.52252,51.70039,369.08307,50.58027,369.08307,49.13691Z"/><path class="cls-3" d="M380.17193,49.76777H374.709c.126,1.3584,1.2461,1.93262,2.61914,1.93262a6.284,6.284,0,0,0,1.90528-.29395l.23828,1.56934a8.65575,8.65575,0,0,1-2.39551.32129c-2.84375,0-4.49609-1.69434-4.49609-4.14551a3.8686,3.8686,0,0,1,4.00586-4.1748c2.31152,0,3.58593,1.541,3.58593,3.93652ZM376.544,46.42012a1.882,1.882,0,0,0-1.835,1.8623h3.46A1.63906,1.63906,0,0,0,376.544,46.42012Z"/><path class="cls-3" d="M386.63776,45.00508l-.09766,1.63867a2.97178,2.97178,0,0,0-.61621-.05567c-1.05078,0-1.9336.68653-1.9336,2.68946v3.83789h-2.14257V45.15937h2.10058v1.03614h.02832a2.10376,2.10376,0,0,1,2.08692-1.21875C386.25983,44.97676,386.46979,44.9914,386.63776,45.00508Z"/><path class="cls-3" d="M392.39166,48.11445v-.19629c0-.82617-.53223-1.33008-1.76465-1.33008a6.24853,6.24853,0,0,0-2.0459.39161l-.3916-1.54a8.53222,8.53222,0,0,1,2.59082-.46289c2.66211,0,3.75391,1.12109,3.75391,3.04v3.292a10.29694,10.29694,0,0,0,.12695,1.80664h-1.90527a5.91872,5.91872,0,0,1-.168-.98047h-.02832a2.54414,2.54414,0,0,1-2.29687,1.16211c-1.38672,0-2.88575-.62988-2.88575-2.47852C387.377,48.49336,389.67389,48.11445,392.39166,48.11445Zm0,1.31738h-.28027c-1.457,0-2.64746.23731-2.64746,1.30274a1.0329,1.0329,0,0,0,1.16308,1.07812,1.6777,1.6777,0,0,0,1.76465-1.82129Z"/><path class="cls-3" d="M395.70709,46.76972V45.15937h1.21875V43.04414h2.14258v2.11523h1.65332v1.61035h-1.65332v3.5586c0,1.07812.14062,1.24609.89648,1.24609a5.24078,5.24078,0,0,0,.71485-.05566v1.59668c-.40625.042-.91114.07031-1.38672.07031-1.98926,0-2.36719-.79883-2.36719-2.29785V46.76972Z"/><path class="cls-3" d="M402.13385,42.07734h2.14258v1.86328h-2.14258Zm0,3.082h2.14258v7.95606h-2.14258Z"/><path class="cls-3" d="M414.12213,49.12324a4.05686,4.05686,0,1,1-8.11035,0,4.05618,4.05618,0,1,1,8.11035,0Zm-2.12891,0c0-1.499-.63086-2.53516-1.91894-2.53516-1.30274,0-1.91992,1.03614-1.91992,2.53516,0,1.55469.63086,2.56348,1.91992,2.56348C411.36236,51.68672,411.99322,50.67793,411.99322,49.12324Z"/><path class="cls-3" d="M415.86822,45.15937h2.10059v1.06446h.02832a2.6249,2.6249,0,0,1,2.40918-1.24707,2.739,2.739,0,0,1,2.94141,2.89941v5.23926h-2.14258V48.675c0-1.30274-.29395-2.08692-1.47071-2.08692-.82714,0-1.72363.58789-1.72363,2.21289v4.31446h-2.14258Z"/><path class="cls-3" d="M380.43463,73.52461h-1.667l.39258-2.8291H377.7735V69.16816h1.59668l.28027-2.04492h-1.59668V65.5959h1.80664l.39258-2.8291h1.667l-.40625,2.8291h1.583l.3916-2.8291h1.65332l-.39258,2.8291h1.23243v1.52734h-1.44239l-.26562,2.04492h1.40039v1.52735h-1.61133l-.3916,2.8291h-1.667l.40625-2.8291h-1.56934Zm.86914-6.40137-.2666,2.04492h1.583l.28027-2.04492Z"/><path class="cls-3" d="M391.00592,62.7668l3.27734,8.58691h.02832V62.7668h2.05957V73.52461h-3.27832l-3.40332-8.71289h-.02832v8.71289h-2.04492V62.7668Z"/><rect class="cls-4" width="476.86385" height="170.59355"/></g></g></svg>