<svg xmlns="http://www.w3.org/2000/svg" viewBox="0 0 364 168.596"><defs><style>.cls-2{fill:#fff}.cls-3{fill:#9e9e9f}.cls-4{fill:#c8c9ca}.cls-5{fill:#e5e5e6}.cls-6{fill:#ddd583}.cls-8{fill:#231815}.cls-9{fill:#bfd833}</style></defs><g id="レイヤー_2" data-name="レイヤー 2"><g id="レイヤー_2-2" data-name="レイヤー 2"><path fill="none" d="M0 0h364v168.596H0z"/><path class="cls-2" d="M211.9 40.09h96.09a3.225 3.225 0 0 1 3.226 3.225v96.09a3.225 3.225 0 0 1-3.225 3.224h-96.092a3.223 3.223 0 0 1-3.224-3.223V43.315a3.225 3.225 0 0 1 3.225-3.225z"/><path class="cls-3" d="M307.99 140.979H211.9a1.576 1.576 0 0 1-1.575-1.575v-96.09a1.576 1.576 0 0 1 1.575-1.575h96.09a1.576 1.576 0 0 1 1.574 1.574v96.091a1.576 1.576 0 0 1-1.573 1.575zM211.9 42.308a1.007 1.007 0 0 0-1.006 1.005v96.091a1.007 1.007 0 0 0 1.006 1.006h96.09a1.006 1.006 0 0 0 1.006-1.006v-96.09a1.006 1.006 0 0 0-1.005-1.006z"/><path class="cls-3" d="M233.826 91.364a.285.285 0 0 1-.285-.285V67.133a.284.284 0 0 1 .569 0V91.08a.285.285 0 0 1-.284.285z"/><path class="cls-3" d="M233.826 91.506h-13.779a.426.426 0 0 1-.426-.427V67.133a.426.426 0 0 1 .426-.426h13.804l.148.01a.44.44 0 0 1 .048.005l.148.025a.506.506 0 0 1 .05.013l.147.044.04.014.15.063a.4.4 0 0 1 .043.02l.148.083a.293.293 0 0 1 .042.027l.147.106a.5.5 0 0 1 .032.026l.148.13.033.031.145.159.025.03.142.189a.523.523 0 0 1 .024.035l.134.221a.476.476 0 0 1 .019.035l.126.258.014.034.114.297a.413.413 0 0 1 .012.035l.097.338a.458.458 0 0 1 .009.036l.076.385.005.034.05.431a.333.333 0 0 1 .003.033l.017.48.04 2.957.021 2.948.007 2.866-.007 2.869-.021 2.946-.04 2.95-.017.488a.31.31 0 0 1-.003.033l-.05.432c0 .011-.003.023-.005.034l-.076.385-.009.035-.097.34a.352.352 0 0 1-.012.034l-.114.296-.014.034-.126.258a.32.32 0 0 1-.019.035l-.134.221a.425.425 0 0 1-.024.036l-.142.188a.555.555 0 0 1-.026.032l-.145.157a.404.404 0 0 1-.031.03l-.148.131c-.01.01-.022.019-.034.028l-.147.104a.328.328 0 0 1-.039.025l-.149.084a.595.595 0 0 1-.042.021l-.15.063a.384.384 0 0 1-.045.016l-.146.043a.355.355 0 0 1-.048.012l-.148.026a.333.333 0 0 1-.048.005l-.148.01zm-13.352-.853h13.339l.111-.007.1-.018.1-.029.105-.044.108-.061.11-.078.114-.102.116-.126.116-.153.112-.186.11-.224.1-.262.088-.305.069-.35.046-.398.017-.463.039-2.936.021-2.942.006-2.864-.006-2.862-.021-2.943-.04-2.943-.016-.454-.046-.397-.07-.351-.087-.304-.101-.264-.109-.223-.112-.186-.116-.154-.116-.126-.114-.101-.11-.08-.106-.058-.107-.045-.101-.03-.099-.017-.111-.007h-13.34zm18.189 44.038a7.54 7.54 0 1 1 7.54-7.539 7.548 7.548 0 0 1-7.54 7.54zm0-14.51a6.971 6.971 0 1 0 6.972 6.971 6.978 6.978 0 0 0-6.972-6.971zm-12.898 18.863h-10.64a2.868 2.868 0 0 1-2.866-2.863v-18.058a2.868 2.868 0 0 1 2.865-2.865h10.641a2.868 2.868 0 0 1 2.864 2.865v18.058a2.867 2.867 0 0 1-2.864 2.863zm-10.64-23.217a2.299 2.299 0 0 0-2.297 2.296v18.058a2.298 2.298 0 0 0 2.296 2.295h10.641a2.298 2.298 0 0 0 2.296-2.295v-18.058a2.298 2.298 0 0 0-2.296-2.296zm44.82 23.54a11.26 11.26 0 0 1-11.248-11.247v-1.936a11.248 11.248 0 0 1 22.496 0v1.936a11.26 11.26 0 0 1-11.248 11.247zm0-23.862a10.69 10.69 0 0 0-10.68 10.679v1.936a10.68 10.68 0 0 0 21.359 0v-1.936a10.69 10.69 0 0 0-10.68-10.679zm0-52.74a10.1 10.1 0 1 1 10.1-10.1 10.111 10.111 0 0 1-10.1 10.1zm0-19.347a9.247 9.247 0 1 0 9.248 9.247 9.257 9.257 0 0 0-9.248-9.247zm26.117 47.946a.285.285 0 0 1-.284-.285V67.133a.284.284 0 0 1 .569 0V91.08a.285.285 0 0 1-.285.285z"/><path class="cls-3" d="M299.842 91.506h-13.78l-.025-.001-.147-.009a.33.33 0 0 1-.048-.005l-.148-.026a.36.36 0 0 1-.048-.012l-.146-.043a.383.383 0 0 1-.045-.016l-.15-.063a.594.594 0 0 1-.042-.021l-.15-.084a.319.319 0 0 1-.038-.025l-.147-.104a.535.535 0 0 1-.034-.028l-.148-.13a.407.407 0 0 1-.03-.031l-.145-.157a.5.5 0 0 1-.027-.033l-.142-.187a.377.377 0 0 1-.024-.036l-.134-.221a.341.341 0 0 1-.019-.035l-.125-.258-.015-.034-.114-.296a.35.35 0 0 1-.011-.035l-.098-.339a.392.392 0 0 1-.009-.035l-.076-.385-.005-.034-.05-.432a.308.308 0 0 1-.002-.033l-.018-.479-.04-2.958-.021-2.947-.006-2.868.006-2.866.022-2.947.038-2.95.019-.489a.33.33 0 0 1 .002-.033l.05-.431.005-.034.076-.385a.402.402 0 0 1 .009-.036l.098-.338a.41.41 0 0 1 .011-.035l.114-.297.015-.034.125-.258a.526.526 0 0 1 .019-.035l.134-.221a.452.452 0 0 1 .024-.036l.142-.187a.44.44 0 0 1 .025-.031l.145-.159a.595.595 0 0 1 .033-.032l.148-.13a.429.429 0 0 1 .032-.025l.147-.106a.293.293 0 0 1 .042-.027l.148-.082a.402.402 0 0 1 .044-.021l.149-.063.04-.014.147-.045a.503.503 0 0 1 .05-.012l.148-.025a.434.434 0 0 1 .048-.006l.147-.009h13.805a.426.426 0 0 1 .426.426V91.08a.426.426 0 0 1-.426.427zm-13.766-.853h13.34V67.56h-13.34l-.111.007-.099.017-.1.03-.108.045-.105.059-.11.079-.115.1-.115.127-.116.154-.113.186-.108.223-.102.264-.087.304-.07.35-.045.398-.018.463-.038 2.935-.022 2.943-.006 2.862.006 2.864.022 2.942.038 2.945.018.452.045.399.07.35.087.305.101.262.109.224.113.186.115.153.116.126.115.102.11.078.107.06.105.045.1.03.1.017z"/><path class="cls-4" d="M224.89 93.68a2.192 2.192 0 0 0-.745-.13c-.307 0-.621.107-.621.446 0 .274.18.406.682.603.61.258.962.495.962 1.066 0 .693-.592.978-1.213.978a2.876 2.876 0 0 1-1.043-.174l.127-.479a2.423 2.423 0 0 0 .907.207c.4 0 .67-.164.67-.491 0-.294-.262-.455-.756-.65-.572-.23-.898-.519-.898-1.011 0-.673.596-.955 1.156-.955a2.717 2.717 0 0 1 .883.135zm1.885 2.963a1.33 1.33 0 1 0-1.243-1.327 1.187 1.187 0 0 0 1.243 1.327m0-2.237c.474 0 .693.38.693.91 0 .542-.219.92-.693.92-.468 0-.687-.378-.687-.92 0-.53.213-.91.687-.91m1.659-.361v2.563h.547V95.18c0-.564.324-.775.626-.775.414 0 .525.273.525.714v1.488h.562V94.91a.867.867 0 0 0-.937-.922.856.856 0 0 0-.777.413h-.01v-.357zm3.084 0h-.604l1.013 2.485-.415 1.001h.574l1.392-3.486h-.578l-.689 1.881h-.006zm26.877 2.563h2.038v-.48h-1.469v-1.071h1.304v-.464h-1.304v-.984h1.424v-.459h-1.993zm2.483-2.563v2.563h.55V95.18c0-.564.312-.775.626-.775.418 0 .528.273.528.714v1.488h.543V94.91a.931.931 0 0 0-1.705-.509h-.007v-.357zm-24.921 0v2.563h.558V95.18c0-.564.32-.775.62-.775.422 0 .537.273.537.714v1.488h.55V94.91a.86.86 0 0 0-.928-.922.876.876 0 0 0-.788.413h-.007v-.357zm27.441.418h.425V95.9c0 .47.105.724.68.724.148 0 .309-.008.424-.017v-.421a1.858 1.858 0 0 1-.26.02c-.264 0-.298-.06-.298-.41v-1.334h.56v-.418h-.56v-.664h-.546v.664h-.425zm4.09 1.014v-.234c0-.763-.375-1.254-1.112-1.254a1.205 1.205 0 0 0-1.203 1.335 1.246 1.246 0 0 0 1.36 1.319 2.04 2.04 0 0 0 .769-.116l-.072-.407a1.791 1.791 0 0 1-.644.116.79.79 0 0 1-.877-.759zm-1.779-.403a.684.684 0 0 1 .667-.692.595.595 0 0 1 .597.679v.013h-1.264m3.49-1.08a.873.873 0 0 0-.095-.005.66.66 0 0 0-.66.393h-.013v-.337h-.535v2.563h.555v-1.36c0-.618.27-.827.604-.827.049 0 .086 0 .118.002zm-30.702.469h.42V95.9c0 .47.11.724.7.724.142 0 .305-.008.408-.017v-.421a1.697 1.697 0 0 1-.247.02c-.267 0-.295-.06-.295-.41v-1.334h.544v-.418h-.544v-.664h-.566v.664h-.42zm10.685 0h.435V95.9c0 .47.093.724.688.724.145 0 .3-.008.42-.017v-.421a1.87 1.87 0 0 1-.26.02c-.266 0-.298-.06-.298-.41v-1.334h.559v-.418h-.559v-.664h-.55v.664h-.435zm-6.588 1.014v-.234c0-.763-.38-1.254-1.105-1.254a1.204 1.204 0 0 0-1.214 1.335 1.243 1.243 0 0 0 1.357 1.319 2.02 2.02 0 0 0 .768-.116l-.073-.407a1.84 1.84 0 0 1-.647.116.791.791 0 0 1-.866-.759zm-1.78-.403a.686.686 0 0 1 .675-.692.592.592 0 0 1 .584.679v.013h-1.26m16.12.403v-.234c0-.763-.374-1.254-1.1-1.254a1.21 1.21 0 0 0-1.219 1.335 1.25 1.25 0 0 0 1.369 1.319 1.973 1.973 0 0 0 .759-.116l-.078-.407a1.691 1.691 0 0 1-.628.116.801.801 0 0 1-.892-.759zm-1.789-.403a.697.697 0 0 1 .689-.692.599.599 0 0 1 .591.679v.013h-1.28m-10.817-1.08a1.09 1.09 0 0 0-.104-.005.665.665 0 0 0-.669.393h-.007v-.337h-.535v2.563h.545v-1.36c0-.618.282-.827.619-.827.047 0 .077 0 .111.002zm25.245.469h.36V95.9c0 .47.111.724.686.724.151 0 .313-.008.43-.017v-.421a1.798 1.798 0 0 1-.264.02c-.249 0-.302-.06-.302-.41v-1.334h.573v-.418h-.573v-.664h-.55v.664h-.36zm3.345.531c-.87 0-1.609.138-1.609.877 0 .588.446.772.877.772a.822.822 0 0 0 .773-.396h.012a1.774 1.774 0 0 0 .056.36h.484a4.884 4.884 0 0 1-.032-.594v-1.081c0-.616-.375-.943-1.113-.943a2.542 2.542 0 0 0-.806.148l.115.407a1.856 1.856 0 0 1 .656-.138c.41 0 .587.187.587.526zm0 .36v.202a.63.63 0 0 1-.661.691.375.375 0 0 1-.422-.4c0-.398.465-.493.98-.493zm-26.824-.36c-.86 0-1.603.138-1.603.877 0 .588.439.772.883.772a.837.837 0 0 0 .773-.396h.01a2.271 2.271 0 0 0 .05.36h.482a3.617 3.617 0 0 1-.041-.594v-1.081c0-.616-.36-.943-1.092-.943a2.429 2.429 0 0 0-.806.148l.108.407a1.848 1.848 0 0 1 .652-.138c.41 0 .584.187.584.526zm0 .36v.202a.625.625 0 0 1-.646.691.381.381 0 0 1-.436-.4c0-.398.471-.493.983-.493zm28.527-2.282h-.556v.512h.556zm-.009.973h-.547v2.563h.547zm-22.866-.973h-.565v.512h.565zm-.014.973h-.55v2.563h.55zm23.467 0v2.563h.55V95.18c0-.564.323-.775.626-.775.415 0 .525.273.525.714v1.488h.553V94.91a.856.856 0 0 0-.926-.922.88.88 0 0 0-.788.413h-.004v-.357zm2.82 0v2.563h.555v-1.452c0-.539.273-.75.574-.75.415 0 .495.258.495.685v1.517h.549V95.04a.557.557 0 0 1 .56-.634c.404 0 .487.291.487.714v1.488h.56V94.91a.84.84 0 0 0-.918-.922.864.864 0 0 0-.795.413h-.021a.747.747 0 0 0-.752-.413.798.798 0 0 0-.742.422h-.014v-.366zm6.485 1.432v-.234c0-.763-.374-1.254-1.098-1.254a1.209 1.209 0 0 0-1.217 1.335 1.246 1.246 0 0 0 1.37 1.319 2 2 0 0 0 .756-.116l-.073-.407a1.764 1.764 0 0 1-.648.116.8.8 0 0 1-.874-.759zm-1.784-.403a.697.697 0 0 1 .686-.692.602.602 0 0 1 .587.679v.013h-1.273m2.2-1.029v2.563h.54V95.18c0-.564.315-.775.628-.775.433 0 .53.273.53.714v1.488h.555V94.91a.94.94 0 0 0-1.719-.509h-.012v-.357zm2.52.418h.417V95.9c0 .47.106.724.684.724.153 0 .311-.008.424-.017v-.421a1.821 1.821 0 0 1-.252.02c-.252 0-.295-.06-.295-.41v-1.334h.547v-.418h-.547v-.664h-.561v.664h-.418zm2.83 2.145h.582V93.15h-.582zm-55.445 0h.558V93.15h-.558zm56.595-2.563v2.563h.547V95.18c0-.564.317-.775.627-.775.428 0 .527.273.527.714v1.488h.556V94.91a.936.936 0 0 0-1.713-.509h-.013v-.357zm4.571.038a1.557 1.557 0 0 0-.583-.094 1.255 1.255 0 0 0-1.329 1.335 1.226 1.226 0 0 0 1.331 1.319 1.298 1.298 0 0 0 .581-.105l-.089-.398a.906.906 0 0 1-.454.096.92.92 0 0 1-.018-1.83 1.119 1.119 0 0 1 .458.09zm-47.04 0a1.598 1.598 0 0 0-.589-.094 1.258 1.258 0 0 0-1.335 1.335 1.23 1.23 0 0 0 1.335 1.319 1.327 1.327 0 0 0 .589-.105l-.096-.398a.917.917 0 0 1-.46.096.92.92 0 0 1-.008-1.83 1.129 1.129 0 0 1 .453.09zm47.501 2.525h.631v-.64h-.63zm-42.831.001l.96-2.571h-.591l-.664 2.066h-.01l-.674-2.066h-.612l.963 2.571h.628zm28.326-26.276a3.66 3.66 0 1 0-3.659 3.608 3.638 3.638 0 0 0 3.659-3.608zm-.488 0a3.173 3.173 0 1 1-3.17-3.238 3.185 3.185 0 0 1 3.17 3.238zm-32.187 1.623a2.193 2.193 0 0 1-.655-1.618 2.352 2.352 0 0 1 .655-1.7 2.692 2.692 0 0 1 3.522 0 2.353 2.353 0 0 1 .646 1.7 2.13 2.13 0 0 1-.646 1.618 2.37 2.37 0 0 1-1.762.735 2.415 2.415 0 0 1-1.76-.735zm5.062.428a3.002 3.002 0 0 0 .871-2.046 2.8 2.8 0 0 0-.87-2.1 4.686 4.686 0 0 0-3.303-1.118 5.165 5.165 0 0 0-3.288 1.116 2.802 2.802 0 0 0-.898 2.102 2.839 2.839 0 0 0 .898 2.046 5.014 5.014 0 0 0 3.288 1.122 4.948 4.948 0 0 0 3.302-1.122zm-12.749-5.262a4.975 4.975 0 0 0-2.136.443 1.638 1.638 0 0 0-1.12 1.493 1.57 1.57 0 0 0 .418 1.047 1.98 1.98 0 0 0 1.217.582 17.091 17.091 0 0 0 1.775.293c.706.082 1.416.157 1.709.233.208.062.597.15.597.527a.68.68 0 0 1-.471.637 3.129 3.129 0 0 1-1.418.278 5.501 5.501 0 0 1-1.684-.324 2.207 2.207 0 0 1-.984-.664 1.042 1.042 0 0 1-.202-.633h-.773v2.219h.859v-.325c0-.04.038-.101.187-.097a9.07 9.07 0 0 0 1.287.43 5.051 5.051 0 0 0 1.315.176 5.37 5.37 0 0 0 1.767-.262 5.242 5.242 0 0 0 1.066-.484 1.569 1.569 0 0 0 .562-1.175 1.546 1.546 0 0 0-.454-1.152 1.782 1.782 0 0 0-.567-.417 4.067 4.067 0 0 0-.699-.259 13.104 13.104 0 0 0-1.95-.297 14.77 14.77 0 0 1-1.744-.201.453.453 0 0 1-.327-.43.536.536 0 0 1 .302-.473 3.856 3.856 0 0 1 1.598-.274 5.1 5.1 0 0 1 1.859.307 1.707 1.707 0 0 1 .446.285 1.569 1.569 0 0 1 .434.747h.709v-1.96h-.796v.244c0 .078-.069.182-.217.096a5.63 5.63 0 0 0-2.565-.61zm17.232.358l3.829 3.51.013-2.36c-.012-.323-.067-.434-.397-.434h-.726v-.716h3.283v.716h-.705c-.341 0-.362.096-.366.434l.013 4.5h-1.115l-4.413-3.948v2.79c.005.325.015.476.334.476h.774v.683h-3.208v-.683h.745c.283 0 .27-.286.27-.492v-3.304c0-.234-.032-.456-.457-.456h-.62v-.716zm9.701 4.968c.027 0 .166-.004.2-.01a.298.298 0 0 0 .144-.145.751.751 0 0 0 .012-.162v-1.115c0-.027 0-.036-.047-.105-.05-.068-2-2.313-2.086-2.431a.835.835 0 0 0-.612-.284h-.666v-.716h3.832v.716h-.468c-.101 0-.175.087-.078.186 0 0 1.29 1.605 1.307 1.618.01.02.024.025.033.003.017-.014 1.328-1.603 1.339-1.616.06-.071.014-.191-.116-.191h-.489v-.716h3.17v.716h-.714a.632.632 0 0 0-.555.23c-.091.11-2.062 2.416-2.123 2.483a.15.15 0 0 0-.027.107v1.115a.837.837 0 0 0 .017.162.262.262 0 0 0 .152.145 1.921 1.921 0 0 0 .196.01h.723v.683h-3.82v-.683z"/><path class="cls-4" d="M279.27 72.349c.033-.03.029-.03.029-.03a5.546 5.546 0 0 1-.138-1.013c-.058-.37-.178-.666-.653-.666h-1.19l.061.061v1.623l.045.025h-.683l.041-.03v-4.067l-.04-.034h1.785a1.993 1.993 0 0 1 .557.07 1.176 1.176 0 0 1 .314 2.12 1.884 1.884 0 0 1-.314.017c.584 0 .658.342.714 1.037a2.498 2.498 0 0 0 .192.838l.078.049zm-.749-3.571h-1.202l.06.052v1.317l-.06.048h1.189a.75.75 0 0 0 .828-.786c0-.351-.26-.631-.815-.631z"/><path class="cls-5" d="M269.941 128.12a9.997 9.997 0 0 1-19.993 0v-1.936a9.997 9.997 0 0 1 19.993 0z"/><path class="cls-3" d="M259.945 138.541a10.434 10.434 0 0 1-10.423-10.421v-1.936a10.423 10.423 0 0 1 20.846 0v1.936a10.434 10.434 0 0 1-10.423 10.421zm0-21.926a9.58 9.58 0 0 0-9.57 9.569v1.936a9.57 9.57 0 0 0 19.14 0v-1.936a9.58 9.58 0 0 0-9.57-9.569zm-34.18 21.259h-10.64a1.696 1.696 0 0 1-1.695-1.693v-18.058a1.696 1.696 0 0 1 1.694-1.693h10.641a1.696 1.696 0 0 1 1.694 1.693v18.058a1.696 1.696 0 0 1-1.694 1.693zm-10.64-20.591a.842.842 0 0 0-.842.84v18.058a.842.842 0 0 0 .841.84h10.641a.842.842 0 0 0 .84-.84v-18.058a.842.842 0 0 0-.84-.84z"/><path class="cls-3" d="M218.027 121.699h4.835a.939.939 0 0 1 .939.938v.968a.94.94 0 0 1-.94.94h-4.835a.938.938 0 0 1-.938-.939v-.969a.939.939 0 0 1 .939-.938z"/><path class="cls-3" d="M222.862 124.97h-4.836a1.367 1.367 0 0 1-1.365-1.365v-.968a1.367 1.367 0 0 1 1.365-1.365h4.836a1.367 1.367 0 0 1 1.366 1.365v.968a1.367 1.367 0 0 1-1.366 1.366zm-4.836-2.845a.512.512 0 0 0-.511.512v.968a.513.513 0 0 0 .511.513h4.836a.513.513 0 0 0 .512-.513v-.968a.512.512 0 0 0-.512-.512zm.001 7.635h4.835a.939.939 0 0 1 .939.938v.967a.94.94 0 0 1-.94.94h-4.835a.938.938 0 0 1-.938-.938v-.97a.939.939 0 0 1 .939-.938z"/><path class="cls-3" d="M222.862 133.031h-4.836a1.367 1.367 0 0 1-1.365-1.366v-.967a1.366 1.366 0 0 1 1.365-1.365h4.836a1.367 1.367 0 0 1 1.366 1.365v.967a1.367 1.367 0 0 1-1.366 1.366zm-4.836-2.845a.512.512 0 0 0-.511.512v.967a.513.513 0 0 0 .511.513h4.836a.513.513 0 0 0 .512-.513v-.967a.512.512 0 0 0-.512-.512z"/><path class="cls-6" d="M217.657 122.219h5.577v1.805h-5.577z"/><path class="cls-3" d="M223.234 124.45h-5.577a.426.426 0 0 1-.427-.426v-1.805a.426.426 0 0 1 .427-.427h5.577a.427.427 0 0 1 .426.427v1.805a.427.427 0 0 1-.426.426zm-5.15-.853h4.723v-.952h-4.724z"/><path class="cls-6" d="M217.657 130.279h5.577v1.805h-5.577z"/><path class="cls-3" d="M223.234 132.51h-5.577a.426.426 0 0 1-.427-.426v-1.805a.426.426 0 0 1 .427-.427h5.577a.427.427 0 0 1 .426.427v1.805a.427.427 0 0 1-.426.427zm-5.15-.852h4.723v-.952h-4.724zm20.579 2.208a6.714 6.714 0 1 1 6.714-6.714 6.722 6.722 0 0 1-6.714 6.714zm0-12.575a5.861 5.861 0 1 0 5.86 5.861 5.867 5.867 0 0 0-5.86-5.861z"/><path class="cls-3" d="M238.663 132.178a5.026 5.026 0 1 1 5.025-5.026 5.031 5.031 0 0 1-5.025 5.026zm0-9.198a4.172 4.172 0 1 0 4.172 4.172 4.177 4.177 0 0 0-4.172-4.173z"/><path class="cls-3" d="M239.688 125.05a2.338 2.338 0 1 1-2.05 0l-.254-.52a2.92 2.92 0 1 0 2.559 0z"/><path class="cls-3" d="M238.349 123.424h.629v3.614h-.629zm51.746 15.459a11.731 11.731 0 1 1 11.731-11.731 11.746 11.746 0 0 1-11.731 11.731zm0-22.893a11.162 11.162 0 1 0 11.163 11.162 11.176 11.176 0 0 0-11.163-11.162z"/><path d="M300.574 127.152a10.48 10.48 0 1 0-10.48 10.48 10.48 10.48 0 0 0 10.48-10.48z" fill="#3e3a39"/><path class="cls-3" d="M290.095 138.058A10.907 10.907 0 1 1 301 127.152a10.919 10.919 0 0 1-10.906 10.906zm0-20.96a10.053 10.053 0 1 0 10.053 10.054 10.065 10.065 0 0 0-10.053-10.054z"/><path class="cls-3" d="M290.095 131.347a4.196 4.196 0 1 1 4.195-4.195 4.2 4.2 0 0 1-4.195 4.195zm0-7.538a3.342 3.342 0 1 0 3.342 3.343 3.347 3.347 0 0 0-3.342-3.343z"/><path class="cls-3" d="M290.095 128.534a1.383 1.383 0 1 1 1.382-1.382 1.385 1.385 0 0 1-1.382 1.382zm0-1.912a.53.53 0 1 0 .53.53.531.531 0 0 0-.53-.53z"/><path class="cls-8" d="M214.671 94.919l-.155-.246-.14-.274-.122-.304-.103-.33-.079-.357V64.805l.079-.357.103-.331.122-.302.14-.276.155-.246.131-.173v31.973l-.131-.174zm4.777 0l.155-.246.14-.274.123-.304.102-.33.079-.357V64.805l-.079-.357-.102-.331-.123-.302-.14-.276-.155-.246-.132-.173v31.973l.132-.174z"/><path class="cls-4" d="M217.543 96.016l.203-.01.2-.031.201-.052.199-.072.196-.095.193-.118.189-.141.183-.166.176-.193.033-.045V63.12l-.033-.046-.176-.193-.183-.165-.189-.142-.193-.118-.196-.095-.199-.071-.201-.053-.2-.03-.203-.01h-.967l-.203.01-.2.03-.202.053-.198.071-.196.095-.193.118-.189.142-.183.165-.175.193-.035.046v31.973l.035.045.175.193.183.166.189.141.193.118.196.095.198.072.202.052.2.031.203.01h.967z"/><path class="cls-3" d="M217.543 96.443h-.987l-.203-.01a.379.379 0 0 1-.045-.005l-.2-.031a.457.457 0 0 1-.042-.009l-.2-.051a.34.34 0 0 1-.042-.013l-.198-.073a.538.538 0 0 1-.039-.017l-.196-.094a.482.482 0 0 1-.036-.02l-.193-.117-.033-.023-.19-.141-.031-.026-.183-.166-.03-.03-.174-.192-.023-.028-.035-.045a.428.428 0 0 1-.088-.26V63.12a.427.427 0 0 1 .086-.256l.034-.046a.496.496 0 0 1 .026-.032l.176-.192a.352.352 0 0 1 .029-.03l.183-.164a.403.403 0 0 1 .03-.025l.189-.142a.354.354 0 0 1 .033-.023l.193-.118a.536.536 0 0 1 .039-.02l.196-.095a.503.503 0 0 1 .039-.017l.198-.071a.412.412 0 0 1 .038-.012l.2-.053a.35.35 0 0 1 .045-.008l.2-.031a.478.478 0 0 1 .042-.004l.202-.01.023-.001h.99l.202.011a.5.5 0 0 1 .04.004l.202.03a.373.373 0 0 1 .044.01l.2.052a.282.282 0 0 1 .038.011l.199.072.04.017.196.094a.505.505 0 0 1 .037.02l.193.119a.369.369 0 0 1 .035.024l.189.142a.41.41 0 0 1 .029.024l.183.165c.01.009.02.018.028.028l.176.192a.466.466 0 0 1 .03.037l.034.046a.423.423 0 0 1 .082.252v31.973a.425.425 0 0 1-.085.254l-.034.046a.45.45 0 0 1-.026.033l-.176.193a.442.442 0 0 1-.029.028l-.183.166a.448.448 0 0 1-.03.025l-.189.142-.035.023-.194.118a.427.427 0 0 1-.034.018l-.195.095a.48.48 0 0 1-.04.017l-.2.073a.37.37 0 0 1-.04.013l-.2.051a.516.516 0 0 1-.041.009l-.202.03a.392.392 0 0 1-.044.005l-.202.01zm-.957-.853h.947l.17-.009.158-.024.16-.041.158-.059.159-.076.158-.097.156-.117.153-.138.085-.094V63.276l-.084-.091-.154-.14-.157-.118-.157-.096-.158-.076-.16-.057-.16-.042-.158-.024-.17-.009h-.945l-.17.009-.159.024-.16.042-.16.057-.157.076-.157.096-.157.119-.154.138-.085.093v31.658l.086.094.153.138.156.117.158.097.16.076.158.059.16.04.157.025z"/><path class="cls-3" d="M217.543 96.443h-.987l-.203-.01a.379.379 0 0 1-.045-.005l-.2-.031a.457.457 0 0 1-.042-.009l-.2-.051a.34.34 0 0 1-.042-.013l-.198-.073a.538.538 0 0 1-.039-.017l-.196-.094a.482.482 0 0 1-.036-.02l-.193-.117-.033-.023-.19-.141-.031-.026-.183-.166-.03-.03-.174-.192-.024-.029-.166-.218a.378.378 0 0 1-.022-.032l-.154-.246a.381.381 0 0 1-.02-.034l-.14-.274a.328.328 0 0 1-.014-.033l-.123-.304a.327.327 0 0 1-.012-.033l-.102-.33-.01-.035-.078-.357a.431.431 0 0 1-.01-.092V64.805a.433.433 0 0 1 .01-.093l.079-.356.009-.033.102-.332.013-.035.122-.302a.417.417 0 0 1 .015-.032l.14-.276a.384.384 0 0 1 .019-.033l.154-.247.021-.03.166-.22.025-.03.176-.192a.352.352 0 0 1 .029-.03l.183-.164a.403.403 0 0 1 .03-.025l.189-.142a.354.354 0 0 1 .033-.023l.193-.118a.536.536 0 0 1 .039-.02l.196-.095a.503.503 0 0 1 .039-.016l.198-.072a.412.412 0 0 1 .038-.012l.2-.053a.35.35 0 0 1 .045-.008l.2-.031a.478.478 0 0 1 .042-.004l.202-.01.023-.001h.99l.202.011a.5.5 0 0 1 .04.004l.202.03a.373.373 0 0 1 .044.01l.2.052a.282.282 0 0 1 .038.011l.199.072.04.017.196.094a.505.505 0 0 1 .037.02l.193.119a.369.369 0 0 1 .035.024l.189.142a.41.41 0 0 1 .029.024l.183.165c.01.009.02.018.028.028l.176.192c.01.01.018.02.026.032l.166.22.02.029.155.246.019.033.14.276c.006.01.01.022.015.033l.123.302a.475.475 0 0 1 .012.035l.102.332.01.033.078.356a.4.4 0 0 1 .01.093v28.603a.398.398 0 0 1-.01.092l-.079.357-.009.034-.102.33-.012.034-.123.304a.352.352 0 0 1-.015.034l-.14.275a.495.495 0 0 1-.02.032l-.154.246a.402.402 0 0 1-.02.03l-.166.22a.46.46 0 0 1-.025.03l-.176.192a.442.442 0 0 1-.029.029l-.183.166a.448.448 0 0 1-.03.025l-.189.141-.035.024-.193.118a.427.427 0 0 1-.035.018l-.195.095a.48.48 0 0 1-.04.017l-.2.073a.37.37 0 0 1-.04.013l-.2.051a.516.516 0 0 1-.041.009l-.201.03a.392.392 0 0 1-.045.005l-.202.01zm-.957-.853h.947l.17-.009.158-.024.16-.041.158-.059.159-.076.158-.097.156-.117.153-.138.15-.164.142-.188.134-.215.124-.24.108-.27.092-.296.066-.295v-28.51l-.066-.293-.092-.298-.108-.268-.124-.242-.135-.215-.142-.189-.148-.161-.154-.14-.157-.118-.157-.096-.158-.076-.16-.058-.16-.041-.158-.024-.17-.009h-.945l-.17.009-.159.024-.16.042-.16.057-.157.076-.157.096-.157.119-.154.138-.148.162-.143.19-.135.214-.122.242-.11.268-.091.298-.065.294v28.51l.065.294.092.296.11.27.121.24.135.214.143.189.149.164.153.138.156.117.158.097.16.076.158.059.16.04.157.025z"/><path class="cls-8" d="M305.219 94.919l.153-.246.141-.274.123-.304.102-.33.079-.357V64.805l-.079-.357-.102-.331-.123-.302-.141-.276-.153-.246-.132-.173v31.973l.132-.174zm-4.779 0l-.154-.246-.14-.274-.123-.304-.102-.33-.079-.357V64.805l.079-.357.102-.331.123-.302.14-.276.154-.246.133-.173v31.973l-.133-.174z"/><path class="cls-4" d="M302.346 96.016l-.202-.01-.202-.031-.2-.052-.199-.072-.196-.095-.193-.118-.19-.141-.182-.166-.176-.193-.033-.045V63.12l.033-.046.176-.193.182-.165.19-.142.193-.118.196-.095.199-.071.2-.053.202-.03.202-.01h.967l.202.01.202.03.2.053.199.071.196.095.193.118.189.142.182.165.176.193.035.046v31.973l-.035.045-.176.193-.182.166-.189.141-.193.118-.196.095-.199.072-.2.052-.202.031-.202.01h-.967z"/><path class="cls-3" d="M303.313 96.443h-.988l-.202-.01a.392.392 0 0 1-.044-.005l-.202-.031a.488.488 0 0 1-.041-.009l-.2-.051a.331.331 0 0 1-.04-.013l-.2-.073a.544.544 0 0 1-.039-.017l-.197-.094a.47.47 0 0 1-.035-.02l-.193-.117a.346.346 0 0 1-.033-.023l-.19-.141a.363.363 0 0 1-.032-.027l-.182-.166a.314.314 0 0 1-.028-.027l-.176-.193c-.01-.01-.018-.022-.027-.033l-.033-.046a.426.426 0 0 1-.085-.254V63.12a.422.422 0 0 1 .082-.252l.034-.046a.469.469 0 0 1 .03-.037l.176-.192.028-.028.182-.165.03-.025.19-.142a.356.356 0 0 1 .033-.023l.193-.118a.398.398 0 0 1 .038-.021l.197-.094a.535.535 0 0 1 .04-.017l.198-.072a.44.44 0 0 1 .037-.01l.2-.054a.395.395 0 0 1 .045-.008l.202-.031a.464.464 0 0 1 .04-.004l.202-.01.023-.001h.99l.202.011c.013 0 .027.002.04.004l.202.03a.392.392 0 0 1 .045.01l.2.052a.424.424 0 0 1 .037.011l.199.072a.52.52 0 0 1 .04.017l.195.094a.512.512 0 0 1 .04.021l.192.118a.341.341 0 0 1 .033.023l.19.142.03.025.182.165a.335.335 0 0 1 .028.028l.176.192c.01.01.018.021.027.033l.034.046a.426.426 0 0 1 .086.256v31.973a.428.428 0 0 1-.088.259l-.035.045a.28.28 0 0 1-.024.029l-.175.193a.415.415 0 0 1-.028.027l-.182.166a.475.475 0 0 1-.032.027l-.19.141-.033.023-.193.117-.036.02-.196.095a.622.622 0 0 1-.04.016l-.199.073a.298.298 0 0 1-.04.013l-.2.051a.451.451 0 0 1-.041.009l-.202.03a.377.377 0 0 1-.044.005l-.202.01zm-.957-.853h.947l.17-.009.158-.024.159-.041.16-.059.158-.076.158-.097.157-.117.152-.138.086-.094V63.277l-.086-.093-.152-.139-.158-.118-.157-.096-.158-.076-.16-.058-.159-.041-.159-.024-.17-.009h-.945l-.17.009-.159.024-.159.041-.16.058-.158.076-.157.096-.157.118-.154.14-.084.091v31.66l.085.093.153.138.156.117.158.097.159.076.16.059.158.04.159.025z"/><path class="cls-3" d="M303.313 96.443h-.988l-.202-.01a.392.392 0 0 1-.044-.005l-.202-.031a.488.488 0 0 1-.041-.009l-.2-.051a.331.331 0 0 1-.04-.013l-.2-.073a.544.544 0 0 1-.039-.017l-.197-.094a.47.47 0 0 1-.035-.02l-.193-.117a.346.346 0 0 1-.033-.023l-.19-.141a.363.363 0 0 1-.032-.027l-.182-.166a.314.314 0 0 1-.028-.027l-.176-.193-.024-.03-.166-.219a.462.462 0 0 1-.023-.032l-.153-.246a.42.42 0 0 1-.018-.032l-.14-.274a.352.352 0 0 1-.016-.034l-.123-.304-.012-.034-.102-.33-.01-.034-.078-.357a.399.399 0 0 1-.01-.092V64.805a.4.4 0 0 1 .01-.093l.079-.356.009-.033.102-.332a.424.424 0 0 1 .012-.035l.123-.302a.416.416 0 0 1 .015-.033l.14-.276a.441.441 0 0 1 .019-.032l.153-.246.022-.032.166-.22.026-.03.176-.192.028-.028.182-.165.03-.025.19-.142a.356.356 0 0 1 .033-.023l.193-.118a.398.398 0 0 1 .038-.02l.197-.095a.535.535 0 0 1 .04-.016l.198-.073a.44.44 0 0 1 .037-.01l.2-.054a.395.395 0 0 1 .045-.008l.202-.031a.464.464 0 0 1 .04-.004l.202-.01.023-.001h.99l.202.011c.013 0 .027.002.04.004l.202.03a.392.392 0 0 1 .045.01l.2.052a.424.424 0 0 1 .037.011l.199.073a.52.52 0 0 1 .04.016l.195.094a.512.512 0 0 1 .04.021l.192.118a.341.341 0 0 1 .033.023l.19.142.03.025.182.165a.335.335 0 0 1 .028.028l.176.192c.01.01.018.02.026.03l.166.22.022.032.154.246.017.032.14.276.016.033.123.302.012.035.103.332.008.033.08.356a.44.44 0 0 1 .01.093v28.603a.438.438 0 0 1-.01.092l-.08.357a.146.146 0 0 1-.01.034l-.101.33a.36.36 0 0 1-.012.034l-.123.304a.352.352 0 0 1-.015.034l-.14.275-.018.031-.154.246-.023.032-.166.22c-.007.01-.016.019-.025.029l-.175.193a.415.415 0 0 1-.028.027l-.182.166a.475.475 0 0 1-.032.027l-.19.141-.033.023-.193.117-.036.02-.196.095a.622.622 0 0 1-.04.016l-.199.073a.298.298 0 0 1-.04.013l-.2.051a.451.451 0 0 1-.041.009l-.202.03a.377.377 0 0 1-.044.005l-.202.01zm-.957-.853h.947l.17-.009.158-.024.159-.041.16-.059.158-.076.158-.097.157-.117.152-.138.15-.164.142-.188.134-.214.124-.242.109-.269.091-.296.065-.295v-28.51l-.065-.293-.091-.298-.11-.268-.123-.242-.134-.215-.142-.188-.15-.163-.152-.139-.158-.118-.157-.096-.158-.076-.16-.058-.159-.041-.159-.024-.17-.009h-.945l-.17.009-.159.024-.159.041-.161.058-.157.076-.157.096-.157.118-.154.14-.149.162-.142.188-.134.215-.124.242-.108.268-.092.298-.066.294v28.51l.066.294.092.296.108.27.124.24.134.215.142.188.15.164.153.138.156.117.158.097.159.076.16.059.158.04.159.025z"/><path class="cls-8" d="M307.99 143.198H211.9a3.798 3.798 0 0 1-3.793-3.794v-96.09a3.796 3.796 0 0 1 3.793-3.793h96.09a3.797 3.797 0 0 1 3.794 3.792v96.091a3.798 3.798 0 0 1-3.793 3.794zM211.9 40.658a2.658 2.658 0 0 0-2.656 2.655v96.091a2.659 2.659 0 0 0 2.656 2.656h96.09a2.659 2.659 0 0 0 2.657-2.656v-96.09a2.658 2.658 0 0 0-2.656-2.655z"/><path class="cls-9" d="M326.438 91.579a.5.5 0 0 1-.456-.296l-2.313-5.149a.5.5 0 1 1 .912-.41l1.857 4.134 1.856-4.133a.5.5 0 1 1 .912.409l-2.312 5.15a.5.5 0 0 1-.456.295zm2.312-6.872a.5.5 0 0 1-.456-.296l-1.856-4.133-1.857 4.133a.5.5 0 1 1-.912-.41l2.313-5.148a.52.52 0 0 1 .912 0l2.312 5.15a.5.5 0 0 1-.456.704z"/><path class="cls-9" d="M326.438 91.55a.5.5 0 0 1-.5-.5V79.086a.5.5 0 0 1 1 0V91.05a.5.5 0 0 1-.5.5zm0 36.242a.5.5 0 0 1-.456-.296l-2.313-5.149a.5.5 0 1 1 .912-.41l1.857 4.134 1.856-4.133a.5.5 0 1 1 .912.409l-2.312 5.15a.5.5 0 0 1-.456.295z"/><path class="cls-9" d="M328.75 97.477a.5.5 0 0 1-.456-.295l-1.856-4.134-1.857 4.134a.5.5 0 1 1-.912-.41l2.313-5.149a.52.52 0 0 1 .912 0l2.312 5.15a.5.5 0 0 1-.456.704z"/><path class="cls-9" d="M326.438 127.763a.5.5 0 0 1-.5-.5V91.857a.5.5 0 0 1 1 0v35.406a.5.5 0 0 1-.5.5zm-61.328 30.913a.501.501 0 0 1-.204-.044l-5.15-2.313a.5.5 0 0 1 0-.912l5.15-2.312a.5.5 0 1 1 .41.912l-4.134 1.856 4.133 1.857a.5.5 0 0 1-.205.956zm19.913.204a.5.5 0 0 1-.205-.956l4.133-1.856-4.133-1.857a.5.5 0 1 1 .41-.912l5.148 2.312a.5.5 0 0 1 0 .913l-5.15 2.312a.498.498 0 0 1-.203.044z"/><path class="cls-9" d="M290 156.568h-.003l-30.01-.205a.5.5 0 0 1 .003-1h.003l30.01.205a.5.5 0 0 1-.003 1zM213.696 15.11a.501.501 0 0 1-.205-.044l-5.148-2.313a.5.5 0 0 1 0-.912l5.149-2.312a.5.5 0 1 1 .41.912l-4.134 1.856 4.133 1.857a.5.5 0 0 1-.205.956zm92.399 0a.5.5 0 0 1-.205-.956l4.133-1.857-4.133-1.856a.5.5 0 0 1 .41-.912l5.149 2.312a.5.5 0 0 1 0 .912l-5.15 2.313a.501.501 0 0 1-.204.044z"/><path class="cls-9" d="M311.085 12.797H208.576a.5.5 0 0 1 0-1h102.51a.5.5 0 0 1 0 1zM222.05 29.106a.498.498 0 0 1-.204-.044l-5.149-2.312a.5.5 0 0 1 0-.912l5.149-2.313a.5.5 0 1 1 .41.912l-4.134 1.857 4.134 1.856a.5.5 0 0 1-.205.956zm75.629 0a.5.5 0 0 1-.205-.956l4.133-1.856-4.133-1.857a.5.5 0 1 1 .41-.912l5.149 2.313a.5.5 0 0 1 0 .912l-5.15 2.312a.498.498 0 0 1-.204.044z"/><path class="cls-9" d="M302.8 26.794h-85.87a.5.5 0 0 1 0-1h85.87a.5.5 0 0 1 0 1zm8.416 14.326a.5.5 0 0 1-.5-.5V12.297a.5.5 0 0 1 1 0V40.62a.5.5 0 0 1-.5.5z"/><path class="cls-9" d="M302.8 96.73a.5.5 0 0 1-.5-.5V26.294a.5.5 0 1 1 1 0V96.23a.5.5 0 0 1-.5.5zm-42.854 58.129a.502.502 0 1 1 .5-.51v.01a.5.5 0 0 1-.5.5zm0-3.01a.5.5 0 0 1-.5-.5v-3a.5.5 0 0 1 1 0v3a.5.5 0 0 1-.5.5zm0-6a.503.503 0 1 1 .5-.51v.01a.5.5 0 0 1-.5.5zm0-3.01a.5.5 0 0 1-.5-.5v-3a.5.5 0 1 1 1 0v3a.5.5 0 0 1-.5.5zm0-6a.502.502 0 1 1 .5-.51v.01a.5.5 0 0 1-.5.5zm0-3.01a.5.5 0 0 1-.5-.5v-3a.5.5 0 0 1 1 0v3a.5.5 0 0 1-.5.5zm0-6a.502.502 0 1 1 .5-.51v.01a.5.5 0 0 1-.5.5zm0-3.01a.5.5 0 0 1-.5-.5v-3a.5.5 0 0 1 1 0v3a.5.5 0 0 1-.5.5zm0-6a.502.502 0 1 1 .5-.51v.01a.5.5 0 0 1-.5.5zm0-3.01a.5.5 0 0 1-.5-.5v-3a.5.5 0 0 1 1 0v3a.5.5 0 0 1-.5.5zm0-6a.502.502 0 1 1 .5-.51v.01a.5.5 0 0 1-.5.5zm0-3.01a.5.5 0 0 1-.5-.5v-3a.5.5 0 1 1 1 0v3a.5.5 0 0 1-.5.5zm0-6a.502.502 0 1 1 .5-.51v.01a.5.5 0 0 1-.5.5zm0-3.01a.5.5 0 0 1-.5-.5v-3a.5.5 0 1 1 1 0v3a.5.5 0 0 1-.5.5zm0-6a.502.502 0 1 1 .5-.51v.01a.5.5 0 0 1-.5.5zm0-3.01a.5.5 0 0 1-.5-.5v-3a.5.5 0 0 1 1 0v3a.5.5 0 0 1-.5.5zm0-6a.502.502 0 1 1 .5-.51v.01a.5.5 0 0 1-.5.5zm0-3.01a.5.5 0 0 1-.5-.5v-3a.5.5 0 1 1 1 0v3a.5.5 0 0 1-.5.5zm0-6a.503.503 0 1 1 .5-.51v.01a.5.5 0 0 1-.5.5zm0-3.01a.5.5 0 0 1-.5-.5v-3a.5.5 0 0 1 1 0v3a.5.5 0 0 1-.5.5zm0-6a.502.502 0 1 1 .5-.51v.01a.5.5 0 0 1-.5.5zm0-3.01a.5.5 0 0 1-.5-.5v-3a.5.5 0 0 1 1 0v3a.5.5 0 0 1-.5.5zm0-6a.503.503 0 1 1 .5-.51v.01a.5.5 0 0 1-.5.5zm0-3.01a.5.5 0 0 1-.5-.5v-3a.5.5 0 0 1 1 0v3a.5.5 0 0 1-.5.5zm0-6a.502.502 0 1 1 .5-.51v.01a.5.5 0 0 1-.5.5zm0-3.01a.5.5 0 0 1-.5-.5v-3a.5.5 0 0 1 1 0v3a.5.5 0 0 1-.5.5zm0-6a.503.503 0 1 1 .5-.51v.01a.5.5 0 0 1-.5.5zm0-3.01a.5.5 0 0 1-.5-.5v-3a.5.5 0 1 1 1 0v3a.5.5 0 0 1-.5.5zm0-6a.502.502 0 1 1 .5-.51v.01a.5.5 0 0 1-.5.5z"/><path class="cls-9" d="M331.903 91.86h-.01a.5.5 0 1 1 .01 0zm-3.01 0h-3a.5.5 0 0 1 0-1h3a.5.5 0 0 1 0 1zm-6 0h-.01a.5.5 0 1 1 .01 0zm-3.01 0h-3a.5.5 0 0 1 0-1h3a.5.5 0 0 1 0 1zm-6 0h-.01a.5.5 0 1 1 .01 0zm-3.01 0h-3a.5.5 0 0 1 0-1h3a.5.5 0 0 1 0 1zm-6 0h-.01a.5.5 0 1 1 .01 0zm-3.01 0h-3a.5.5 0 0 1 0-1h3a.5.5 0 0 1 0 1zm-6 0h-.01a.5.5 0 1 1 .01 0zm-3.01 0h-3a.5.5 0 0 1 0-1h3a.5.5 0 0 1 0 1zm-6 0h-.01a.5.5 0 1 1 .01 0zm-3.01 0h-3a.5.5 0 0 1 0-1h3a.5.5 0 0 1 0 1zm-6 0h-.01a.5.5 0 1 1 .01 0zm-3.01 0h-3a.5.5 0 0 1 0-1h3a.5.5 0 0 1 0 1zm-6 0h-.01a.5.5 0 1 1 .01 0zm-3.01 0h-3a.5.5 0 0 1 0-1h3a.5.5 0 0 1 0 1zm-6 0h-.01a.5.5 0 1 1 .01 0zm-3.01 0h-3a.5.5 0 0 1 0-1h3a.5.5 0 0 1 0 1zm-6 0h-.01a.5.5 0 1 1 .01 0zm-3.01 0h-3a.5.5 0 0 1 0-1h3a.5.5 0 0 1 0 1zm-6 0h-.01a.5.5 0 1 1 .01 0zm-3.01 0h-3a.5.5 0 0 1 0-1h3a.5.5 0 0 1 0 1zm-6 0h-.01a.5.5 0 1 1 .01 0zm-3.01 0h-3a.5.5 0 0 1 0-1h3a.5.5 0 0 1 0 1zm-6 0h-.01a.5.5 0 1 1 .01 0zm-3.01 0h-3a.5.5 0 0 1 0-1h3a.5.5 0 0 1 0 1zm-6 0h-.01a.5.5 0 1 1 .01 0zm-3.01 0h-3a.5.5 0 0 1 0-1h3a.5.5 0 1 1 0 1zm-6 0h-.01a.5.5 0 1 1 .01 0zm-3.01 0h-3a.5.5 0 0 1 0-1h3a.5.5 0 1 1 0 1zm-6 0h-.01a.5.5 0 1 1 .01 0zm129.685-12.274H206.686a.5.5 0 0 1 0-1h119.752a.5.5 0 0 1 0 1zm0 48.247h-88.456a.5.5 0 0 1 0-1h88.456a.5.5 0 0 1 0 1z"/><path class="cls-9" d="M216.93 96.73a.5.5 0 0 1-.5-.5V26.294a.5.5 0 1 1 1 0V96.23a.5.5 0 0 1-.5.5zm-8.354-55.61a.5.5 0 0 1-.5-.5V12.297a.5.5 0 0 1 1 0V40.62a.5.5 0 0 1-.5.5zm-16.042 102.51a.5.5 0 0 1-.456-.296l-2.313-5.149a.5.5 0 1 1 .913-.41l1.856 4.134 1.856-4.133a.5.5 0 1 1 .912.409l-2.312 5.15a.5.5 0 0 1-.456.295zm2.312-97.45a.5.5 0 0 1-.456-.296l-1.856-4.133-1.857 4.133a.5.5 0 1 1-.912-.41l2.313-5.149a.52.52 0 0 1 .912 0l2.312 5.15a.5.5 0 0 1-.456.704z"/><path class="cls-9" d="M192.534 143.601a.5.5 0 0 1-.5-.5V40.558a.5.5 0 0 1 1 0v102.543a.5.5 0 0 1-.5.5z"/><path class="cls-9" d="M208.986 41.058h-16.452a.5.5 0 0 1 0-1h16.452a.5.5 0 0 1 0 1zm0 102.64h-16.452a.5.5 0 0 1 0-1h16.452a.5.5 0 0 1 0 1zm81.157 9.566a.5.5 0 0 1-.5-.5v-35.889a.5.5 0 1 1 1 0v35.89a.5.5 0 0 1-.5.5z"/><path class="cls-9" d="M290.143 156.568a.5.5 0 0 1-.5-.5v-28.712a.5.5 0 0 1 1 0v28.712a.5.5 0 0 1-.5.5zm-263.557-25.14a.5.5 0 0 1-.456-.296l-2.313-5.148a.5.5 0 1 1 .912-.41l1.857 4.133 1.856-4.133a.5.5 0 1 1 .912.409l-2.312 5.15a.5.5 0 0 1-.456.295zm2.312-73.898a.5.5 0 0 1-.456-.295l-1.856-4.133-1.857 4.133a.5.5 0 1 1-.912-.41l2.313-5.149a.52.52 0 0 1 .912 0l2.312 5.15a.5.5 0 0 1-.456.704z"/><path class="cls-9" d="M26.586 131.4a.5.5 0 0 1-.5-.5V51.91a.5.5 0 0 1 1 0v78.99a.5.5 0 0 1-.5.5zm15.324.028a.5.5 0 0 1-.456-.296l-2.312-5.149a.5.5 0 1 1 .912-.41l1.856 4.134 1.856-4.133a.5.5 0 1 1 .913.41l-2.313 5.148a.5.5 0 0 1-.456.296zm-2.313-67.872a.5.5 0 0 1-.455-.704l2.312-5.15a.52.52 0 0 1 .912 0l2.312 5.15a.5.5 0 1 1-.912.409l-1.856-4.133-1.856 4.133a.5.5 0 0 1-.457.295z"/><path class="cls-9" d="M41.91 131.4a.5.5 0 0 1-.5-.5V57.936a.5.5 0 1 1 1 0V130.9a.5.5 0 0 1-.5.5zm24.193-78.99H26.586a.5.5 0 0 1 0-1h39.517a.5.5 0 0 1 0 1z"/><path class="cls-9" d="M66.103 58.436h-25.9a.5.5 0 0 1 0-1h25.9a.5.5 0 0 1 0 1zm104.535 72.925H21.625a.5.5 0 1 1 0-1h149.013a.5.5 0 0 1 0 1z"/><path class="cls-2" d="M153.243 130.293a2.258 2.258 0 0 1-2.257-2.257v-4.193h-.73v4.493h-13.78a1.934 1.934 0 0 1-1.933-1.934l-.066-2.56h-14.443l-.098.117-.003.119a1.627 1.627 0 0 1-.275.874l-1.493 2.213a7.094 7.094 0 0 1-5.88 3.128h-3.851a7.094 7.094 0 0 1-5.88-3.128l-1.494-2.213a1.622 1.622 0 0 1-.274-.874l-.002-.119-.097-.116h-5.761a1.29 1.29 0 0 1-1.25.968H86.22l-.043 1.591a1.934 1.934 0 0 1-1.936 1.934H70.462v-4.494h-.73v4.193a2.257 2.257 0 1 1-4.514 0v-4.193h-4.192l-1.84-3.869h-.096V59.675l1.612-1.611h6.369V56.29a.968.968 0 0 0-.967-.968h-2.257v-2.257a.966.966 0 0 1 .966-.967h14.19a.967.967 0 0 1 .966.967l.13 4.999h12.573l.132-4.999a.967.967 0 0 1 .966-.967h33.18a.968.968 0 0 1 .968.967l.132 4.999h12.57l.13-4.999a.968.968 0 0 1 .968-.967h14.188a.967.967 0 0 1 .967.967v2.257h-2.257a.968.968 0 0 0-.967.968v1.774h6.369l1.612 1.611v60.298h-.097l-1.837 3.87H155.5v4.192a2.258 2.258 0 0 1-2.257 2.258z"/><path class="cls-5" d="M100.687 123.843l.097.116.002.119a1.622 1.622 0 0 0 .274.874l1.493 2.213a7.094 7.094 0 0 0 5.88 3.128h3.852a7.094 7.094 0 0 0 5.88-3.128l1.493-2.213a1.627 1.627 0 0 0 .275-.874l.003-.119.098-.116z"/><path class="cls-2" d="M120.034 123.843l-1.315 1.566a6.451 6.451 0 0 1-4.94 2.304h-6.839a6.453 6.453 0 0 1-4.94-2.304l-1.313-1.566z"/><path class="cls-3" d="M161.63 120.4H59.09a.427.427 0 1 1 0-.853h102.54a.427.427 0 1 1 0 .853zm0-20.637H59.09a.427.427 0 1 1 0-.853h102.54a.427.427 0 1 1 0 .853zm0-30.955H59.09a.427.427 0 1 1 0-.853h102.54a.427.427 0 1 1 0 .853zm0-8.706H59.09a.427.427 0 1 1 0-.853h102.54a.427.427 0 1 1 0 .853zm-1.612-1.612H60.702a.427.427 0 1 1 0-.853h99.316a.427.427 0 0 1 0 .854zm-32.1-1.916h-10.867a.284.284 0 1 1 0-.568h10.867a.284.284 0 0 1 0 .568zm-24.248 0H92.804a.284.284 0 0 1 0-.568h10.866a.284.284 0 0 1 0 .568zm15.662-.967a.284.284 0 0 1-.285-.285v-2.27l.006-.127.002-.024.018-.125.005-.028.028-.119.008-.026.04-.114a.33.33 0 0 1 .012-.033l.052-.105.011-.02.057-.095a.299.299 0 0 1 .024-.035l.069-.083a.248.248 0 0 1 .024-.026l.073-.07a.323.323 0 0 1 .033-.027l.08-.056a.31.31 0 0 1 .04-.024l.086-.04a.272.272 0 0 1 .046-.018l.09-.024a.271.271 0 0 1 .05-.01l.09-.008a.284.284 0 0 1 .05.566l-.063.006-.04.011-.042.02-.043.03-.045.044-.044.054-.04.067-.04.078-.028.084-.022.092-.013.098-.005.107v2.25a.285.285 0 0 1-.284.285z"/><path class="cls-3" d="M115.254 58.49a.427.427 0 0 1-.426-.426v-5.023l.007-.126c0-.012.002-.024.004-.037l.017-.124a.483.483 0 0 1 .008-.039l.028-.119a.446.446 0 0 1 .012-.04l.039-.113a.426.426 0 0 1 .018-.044l.05-.105a.35.35 0 0 1 .022-.04l.059-.096a.472.472 0 0 1 .031-.044l.068-.084a.45.45 0 0 1 .037-.04l.074-.07a.423.423 0 0 1 .05-.041l.08-.056a.434.434 0 0 1 .06-.036l.085-.04a.444.444 0 0 1 .068-.027l.089-.024a.416.416 0 0 1 .077-.015l.09-.008a.427.427 0 1 1 .076.85l-.064.008-.046.028-.03.029-.033.04-.032.053-.03.062-.025.072-.018.08-.013.086-.005.096v4.987a.427.427 0 0 1-.427.427zm-35.285-5.14H63.847a.284.284 0 0 1 0-.57H79.97a.284.284 0 0 1 0 .57z"/><path class="cls-3" d="M127.918 53.35H92.804a.284.284 0 0 1 0-.57h35.114a.284.284 0 0 1 0 .57zm28.955 0h-16.122a.284.284 0 0 1 0-.57h16.122a.284.284 0 0 1 0 .57z"/><path class="cls-3" d="M101.39 55.607a.284.284 0 0 1-.285-.285l-.005-2.356-.015-.098-.021-.092-.03-.087-.036-.075-.042-.068-.044-.055-.045-.042-.044-.03-.042-.021-.038-.011-.063-.006a.284.284 0 1 1 .05-.566l.09.008a.312.312 0 0 1 .053.01l.087.025a.256.256 0 0 1 .045.017l.085.04a.277.277 0 0 1 .04.024l.08.056a.3.3 0 0 1 .032.026l.075.07a.313.313 0 0 1 .028.031l.066.084a.222.222 0 0 1 .017.023l.06.095a.216.216 0 0 1 .018.033l.049.104.01.026.04.114.009.028.028.12.005.025.018.124a.21.21 0 0 1 .002.027l.007.126v2.271a.284.284 0 0 1-.285.285zm4.075 2.883a.427.427 0 0 1-.427-.426v-4.992l-.003-.095-.012-.083-.018-.077-.027-.074-.028-.062-.065-.092-.059-.048-.034-.014-.049-.004a.427.427 0 0 1 .077-.85l.089.008a.41.41 0 0 1 .077.015l.089.024a.537.537 0 0 1 .07.027l.084.041a.402.402 0 0 1 .058.035l.08.056a.418.418 0 0 1 .046.036l.076.07a.48.48 0 0 1 .043.047l.066.084a.437.437 0 0 1 .027.037l.06.095a.46.46 0 0 1 .028.051l.048.105.014.034.04.113a.413.413 0 0 1 .014.045l.029.12a.47.47 0 0 1 .007.038l.018.125a.41.41 0 0 1 .004.045l.004.126v5.015a.427.427 0 0 1-.426.426z"/><path class="cls-3" d="M103.67 58.49a.427.427 0 0 1-.427-.426V56.29a.542.542 0 0 0-.542-.541h-9.467l-.004.197v.11a.427.427 0 1 1-.853 0l.004-.333v-.014l.006-.092v-.012l.008-.082.003-.026.01-.07a.39.39 0 0 1 .01-.044l.014-.058a.437.437 0 0 1 .018-.054l.018-.046a.436.436 0 0 1 .041-.077l.023-.035a.436.436 0 0 1 .111-.113l.03-.02a.412.412 0 0 1 .158-.068l.034-.007a.409.409 0 0 1 .086-.01h9.75a1.396 1.396 0 0 1 1.395 1.395v1.774a.427.427 0 0 1-.426.427zm13.381 0a.427.427 0 0 1-.427-.426V56.29a1.395 1.395 0 0 1 1.394-1.394h9.75a.394.394 0 0 1 .088.01l.034.006a.427.427 0 0 1 .161.071l.029.02a.43.43 0 0 1 .097.098l.025.035a.463.463 0 0 1 .05.089l.018.046a.357.357 0 0 1 .017.054l.015.058a.416.416 0 0 1 .01.043l.01.071.003.022.008.082.001.02.008.199v.012l.001.107a.426.426 0 0 1-.422.43.432.432 0 0 1-.43-.423l-.005-.197h-9.468a.541.541 0 0 0-.54.54v1.775a.427.427 0 0 1-.427.427zM92.895 94.339a.43.43 0 0 1-.145-.026l-.396-.144-.023-.009-.39-.168-.026-.011-.384-.196-.02-.012-.378-.219-.02-.013-.367-.241-.022-.015-.352-.265-.02-.016-.335-.285-.02-.018-.31-.3-.017-.018-.29-.316-.015-.018-.268-.325-.017-.022-.237-.33-.014-.02-.21-.333-.014-.024-.186-.343-.011-.022-.156-.333-.012-.027-.161-.415-.006-.018-.15-.445-.008-.024-.129-.473-.005-.019-.111-.5a.35.35 0 0 1-.01-.054l-.046-.518-.001-.015-.03-.537-.001-.017-.01-.547V75.284a.427.427 0 0 1 .424-.427l3.39-.025a.436.436 0 0 1 .304.124.426.426 0 0 1 .125.303v4.13h3.365a.426.426 0 0 1 .427.427v3.39a.427.427 0 0 1-.427.426h-3.365v1.854l.014 1.319.011.204.021.206.03.212.079.42.055.2.064.196.075.178.1.19.123.2.14.197.166.201.187.202.22.202.243.205.286.204.328.21.386.216.457.227a.426.426 0 0 1 .175.601l-1.714 2.856a.426.426 0 0 1-.366.207zm-.238-.968l.054.02 1.295-2.158-.052-.026-.018-.01-.406-.226-.023-.014-.347-.223-.017-.011-.309-.22a.345.345 0 0 1-.027-.021l-.264-.222-.014-.013-.24-.22-.023-.024-.207-.223-.017-.018-.182-.223-.018-.023-.158-.221a.274.274 0 0 1-.018-.027l-.137-.225-.012-.021-.116-.218a.446.446 0 0 1-.016-.036l-.089-.212a.29.29 0 0 1-.012-.03l-.073-.222-.006-.02-.062-.226a.26.26 0 0 1-.007-.03l-.087-.46-.002-.017-.031-.228-.003-.013-.023-.222-.001-.02-.012-.222-.001-.014-.006-.225-.008-1.118v-2.284a.427.427 0 0 1 .427-.426h3.365v-2.537h-3.365a.427.427 0 0 1-.427-.426v-4.128l-2.537.019V86.68l.01.532.029.522.044.483.104.463.123.451.143.425.152.392.145.309.173.318.195.31.222.308.251.305.273.298.292.282.314.267.33.25.347.228.357.207.36.184zm22.651-15.464h-.018l-.184-.008-.033-.003-.18-.022-.034-.006-.19-.04a.571.571 0 0 1-.04-.01l-.178-.055-.024-.008-.179-.068-.03-.013-.178-.084-.032-.016-.162-.094a.333.333 0 0 1-.037-.025l-.147-.106-.02-.016-.14-.116a.477.477 0 0 1-.031-.028l-.126-.127a.279.279 0 0 1-.022-.024l-.118-.139a.393.393 0 0 1-.023-.029l-.107-.149a.344.344 0 0 1-.022-.034l-.093-.16-.016-.03-.08-.17-.008-.016-.075-.178a.553.553 0 0 1-.016-.047l-.052-.178-.008-.032-.037-.177-.003-.023-.027-.178a.424.424 0 0 1-.004-.047l-.007-.164a.274.274 0 0 1 0-.03l.007-.184a.431.431 0 0 1 .003-.047l.028-.188.004-.022.037-.187a.385.385 0 0 1 .011-.043l.058-.187.01-.028.07-.183.015-.033.085-.173.014-.027.096-.166a.334.334 0 0 1 .022-.033l.108-.152.016-.021.116-.142.026-.03.126-.129a.34.34 0 0 1 .03-.027l.142-.12.027-.021.15-.107a.343.343 0 0 1 .035-.023l.171-.098.023-.012.17-.084a.364.364 0 0 1 .034-.015l.174-.069.036-.012.187-.055.025-.006.174-.04a.424.424 0 0 1 .044-.008l.176-.021a.312.312 0 0 1 .033-.003l.179-.008a.43.43 0 0 1 .038 0l.176.008.032.003.175.02a.525.525 0 0 1 .042.008l.177.04.03.008.183.055.03.01.18.068a.43.43 0 0 1 .037.017l.17.084a.3.3 0 0 1 .03.017l.163.098.025.016.152.106a.391.391 0 0 1 .033.026l.14.12.021.02.13.128a.377.377 0 0 1 .032.036l.116.142.014.02.11.151.015.023.102.165a.452.452 0 0 1 .028.051l.16.368a.535.535 0 0 1 .017.053l.05.186.009.033.035.187.004.024.025.188a.454.454 0 0 1 .003.04l.007.182v.035l-.007.165a.394.394 0 0 1-.003.036l-.023.178-.005.027-.035.177a.306.306 0 0 1-.007.03l-.049.179a.43.43 0 0 1-.018.052l-.075.178-.005.012-.077.168a.414.414 0 0 1-.023.043l-.098.16a.309.309 0 0 1-.021.033l-.11.149a.286.286 0 0 1-.02.024l-.12.14-.014.015-.12.128a.426.426 0 0 1-.034.03l-.136.116a.422.422 0 0 1-.035.027l-.157.107-.025.016-.16.094a.334.334 0 0 1-.03.016l-.172.083a.363.363 0 0 1-.034.015l-.177.067a.235.235 0 0 1-.03.01l-.182.055-.036.01-.187.038a.366.366 0 0 1-.035.006l-.18.023-.034.002-.179.008zm-.147-.86l.147.006.143-.006.146-.018.152-.032.151-.045.145-.055.141-.069.134-.078.126-.086.1-.086.098-.103.103-.118.089-.121.075-.124.126-.285.037-.135.029-.147.018-.146.006-.13-.006-.145-.02-.157-.03-.16-.04-.143-.127-.294-.08-.128-.095-.131-.092-.115-.103-.101-.112-.097-.123-.086-.135-.081-.136-.068-.145-.056-.155-.046-.142-.032-.138-.017-.14-.006-.144.006-.138.017-.14.032-.157.046-.14.055-.142.07-.141.081-.118.085-.113.095-.098.101-.095.117-.09.124-.078.135-.069.143-.06.153-.046.151-.031.155-.023.154-.004.144.004.125.022.144.03.148.04.138.061.145.069.144.074.128.084.118.097.112.1.1.113.095.118.086.127.074.146.069.15.056.146.045.152.032zm1.844 16.838h-3.392a.427.427 0 0 1-.426-.427V79.816a.426.426 0 0 1 .426-.427h3.392a.426.426 0 0 1 .426.427v13.642a.427.427 0 0 1-.426.427zm-2.965-.854h2.538V80.242h-2.538zm-10.139 1.203h-.017l-.457-.018-.02-.001-.459-.04-.025-.003-.45-.067-.026-.005-.442-.094-.026-.006-.43-.122-.02-.006-.42-.14-.027-.01-.41-.168-.023-.01-.393-.19-.026-.012-.38-.215-.02-.013-.367-.236-.022-.015-.353-.259a.23.23 0 0 1-.024-.018l-.332-.281-.015-.012-.32-.296-.02-.021-.298-.316-.016-.019-.28-.335c-.007-.007-.012-.015-.018-.023l-.256-.354-.012-.016-.239-.367-.016-.026-.211-.38-.01-.018-.192-.388-.011-.026-.168-.404-.01-.026-.14-.415-.009-.025-.116-.429-.005-.022-.095-.44-.004-.026-.068-.45-.003-.025-.041-.452-.002-.03-.01-.452v-.018l.01-.45.002-.03.041-.455.003-.025.068-.45.004-.027.095-.437.005-.022.116-.429.008-.024.141-.42.01-.026.165-.403.013-.028.194-.388.009-.017.211-.38.015-.025.24-.367.013-.019.256-.35.017-.023.28-.335.017-.02.297-.313.019-.019.32-.3.017-.015.332-.278.022-.018.353-.259.023-.015.367-.237.021-.012.38-.214.024-.013.393-.19.026-.012.41-.165.023-.008.42-.143.023-.007.43-.12.027-.007.442-.092.021-.004.45-.07.027-.004.458-.04.028-.002.458-.01h.02l.462.01.028.001.457.04.028.005.447.07.02.004.45.092.028.006.43.121.023.007.417.143.024.01.401.164.022.01.398.19.027.014.377.215.019.01.37.237.023.017.352.259.02.016.334.279.017.015.322.3.02.019.297.313.017.021.279.335.014.018.26.351.016.022.238.366.014.024.214.38.012.024.186.389.01.02.168.402a.263.263 0 0 1 .011.03l.14.419.008.023.117.43.005.021.096.437.005.028.067.45.003.023.044.455.001.029.012.45a.167.167 0 0 1 0 .024l-.012.452-.001.028-.044.454-.003.022-.067.45-.005.026-.095.44-.006.023-.117.428-.008.024-.14.416-.01.027-.17.404-.009.021-.186.388-.012.023-.214.38-.014.025-.238.366-.014.02-.26.354-.016.019-.279.336-.017.019-.297.315a.263.263 0 0 1-.022.022l-.321.296-.015.013-.334.28-.022.018-.351.258-.023.016-.369.236-.019.012-.378.215-.027.014-.399.19-.018.008-.402.168-.028.01-.417.141-.02.006-.43.121-.028.007-.45.095-.024.004-.448.067-.025.002-.457.04-.02.001-.463.018zm-.431-.87l.431.016.435-.016.434-.038.422-.063.423-.089.405-.114.392-.132.378-.158.375-.179.354-.201.348-.223.33-.243.316-.265.304-.28.277-.294.261-.315.246-.334.224-.344.2-.357.176-.364.159-.38.131-.39.111-.405.09-.415.064-.425.04-.428.012-.425-.011-.424-.041-.43-.064-.425-.09-.413-.11-.407-.132-.392-.16-.379-.175-.367-.2-.355-.224-.344-.245-.331-.262-.316-.278-.293-.303-.283-.316-.263-.33-.244-.348-.222-.354-.201-.374-.179-.379-.156-.393-.135-.403-.113-.425-.087-.424-.066-.428-.039-.438-.01-.434.01-.43.039-.425.066-.417.087-.404.113-.399.136-.385.155-.369.179-.357.2-.346.223-.332.244-.313.262-.302.284-.28.294-.261.314-.241.33-.225.346-.2.358-.183.366-.153.376-.133.393-.11.406-.09.414-.063.425-.04.428-.009.426.01.427.039.426.063.425.09.416.11.404.132.39.156.378.181.365.2.359.225.344.241.334.262.314.279.295.301.28.314.264.331.243.347.223.357.202.37.178.384.158.398.132.406.114.416.089.424.063zm.431-2.35h-.016l-.283-.011-.034-.002-.275-.033-.024-.003-.278-.048a.457.457 0 0 1-.038-.008l-.273-.073-.023-.006-.27-.089a.309.309 0 0 1-.032-.011l-.263-.11-.026-.012-.254-.128-.028-.015-.246-.146-.032-.021-.228-.166-.012-.009-.228-.179a.31.31 0 0 1-.029-.024l-.216-.202a.407.407 0 0 1-.025-.026l-.192-.213-.012-.013-.188-.228a.399.399 0 0 1-.024-.031l-.165-.242a.23.23 0 0 1-.018-.03l-.144-.25-.012-.024-.129-.26-.01-.025-.112-.268-.009-.023-.097-.28a.437.437 0 0 1-.011-.039l-.07-.284-.005-.026-.052-.292a.393.393 0 0 1-.005-.037l-.027-.293-.002-.022-.011-.292v-.034l.011-.29.002-.022.026-.295a.421.421 0 0 1 .005-.037l.053-.292.005-.024.07-.288a.537.537 0 0 1 .011-.041l.098-.277.007-.02.111-.271.013-.027.127-.26.013-.023.144-.25.017-.028.164-.24.023-.032.19-.23.014-.014.192-.212c.008-.01.016-.017.025-.026l.216-.2.022-.02.228-.185.02-.014.226-.164.034-.022.246-.145.03-.016.253-.124.021-.01.262-.11a.353.353 0 0 1 .035-.013l.27-.088.025-.008.271-.07.026-.006.282-.054a.359.359 0 0 1 .042-.006l.276-.025.025-.002.284-.009h.026l.283.01.026.001.272.025a.507.507 0 0 1 .041.006l.285.054.023.005.281.07.032.01.263.088.03.01.264.112.025.012.25.124.029.016.242.144.026.017.235.164.026.02.226.184.024.022.212.2.018.019.198.211.022.027.182.23.014.02.169.239a.31.31 0 0 1 .02.032l.145.25.01.02.132.259.015.032.11.27.012.03.09.277.005.02.08.287.01.046.045.292.003.02.032.296.002.028.012.29a.336.336 0 0 1 0 .035l-.012.292-.002.03-.032.293-.003.02-.046.292a.475.475 0 0 1-.01.048l-.08.285-.004.016-.09.28a.242.242 0 0 1-.012.032l-.111.267-.013.03-.132.26-.01.02-.146.251a.352.352 0 0 1-.02.032l-.169.242-.016.021-.18.228a.297.297 0 0 1-.021.023l-.198.214-.018.02-.212.2a.456.456 0 0 1-.03.027l-.227.179-.02.014-.235.165-.024.016-.242.147-.029.015-.251.127a.243.243 0 0 1-.028.013l-.263.11-.029.011-.263.088-.029.008-.28.073a.288.288 0 0 1-.036.008l-.285.048-.021.003-.272.032-.034.003-.283.01zm-.251-.863l.251.01.25-.01.245-.028.255-.044.25-.064.234-.078.234-.099.223-.113.217-.13.214-.15.2-.16.189-.178.177-.192.163-.205.15-.215.13-.225.12-.236.098-.237.081-.254.071-.253.04-.258.03-.268.01-.26-.01-.26-.03-.27-.04-.258-.07-.255-.082-.252-.1-.24-.117-.233-.13-.224-.15-.215-.164-.207-.177-.19-.19-.18-.202-.165-.21-.147-.215-.128-.223-.111-.238-.1-.232-.078-.253-.063-.252-.048-.239-.022-.257-.008-.258.008-.241.022-.248.048-.245.063-.24.078-.235.1-.23.112-.214.126-.202.146-.208.168-.192.18-.172.19-.172.207-.143.21-.13.225-.115.234-.1.246-.087.246-.062.255-.046.26-.025.266-.01.263.01.265.025.264.046.261.062.252.085.248.102.243.116.236.128.225.145.212.17.206.174.192.19.177.207.162.205.15.216.128.228.114.233.098.242.079.244.065.249.043zm23.061 4.083h-.017l-.456-.018-.02-.001-.46-.04-.026-.004-.446-.066-.024-.004-.45-.095-.028-.006-.43-.122-.02-.006-.421-.14-.029-.01-.406-.168-.023-.011-.39-.19-.023-.012-.379-.215-.02-.012-.368-.236-.02-.015-.353-.259-.024-.018-.33-.281-.012-.011-.324-.296-.021-.02-.3-.316-.018-.018-.283-.335-.023-.03-.25-.354-.25-.375a.376.376 0 0 1-.02-.032l-.208-.38-.01-.02-.187-.387-.012-.028-.16-.405-.006-.013-.15-.415a.25.25 0 0 1-.008-.028l-.122-.428-.007-.027-.094-.44-.005-.026-.068-.45-.003-.03-.036-.452v-.02l-.015-.452v-.027l.014-.451.001-.02.036-.455.003-.03.068-.45.005-.027.094-.437.007-.027.122-.43.008-.025.15-.42.005-.015.161-.403.012-.026.187-.389.01-.02.208-.379a.255.255 0 0 1 .02-.032l.244-.367.007-.01.25-.351a.266.266 0 0 1 .022-.029l.283-.335.018-.02.3-.313.019-.018.323-.3.014-.012.329-.279.024-.02.355-.258.02-.014.365-.236.022-.014.38-.214.023-.012.389-.19.027-.012.406-.165.024-.01.422-.142.022-.007.43-.12.03-.007.448-.092.02-.004.445-.07.029-.004.46-.04.028-.002.456-.01h.02l.456.01.028.001.457.041.027.004.451.07.021.004.444.092.027.007.435.12.024.007.418.143.022.009.405.165.025.011.392.19.023.012.382.215.017.01.378.236.03.02.345.26.017.014.334.279.016.014.325.3.02.019.298.313.023.027.27.334.013.017.257.35.012.018.24.367.017.027.212.379.01.018.193.389.013.028.165.404.008.021.145.418a.31.31 0 0 1 .01.032l.113.429.005.018.095.438.005.032.062.45.002.012.05.455a.39.39 0 0 1 .002.036l.01.45v.021l-.01.452a.37.37 0 0 1-.003.036l-.049.453-.002.011-.062.45-.005.033-.095.44-.005.018-.113.429-.01.032-.146.415-.007.02-.165.404-.013.028-.193.389-.01.017-.212.38-.016.027-.241.367-.011.016-.257.353-.013.018-.271.335-.023.025-.298.316-.023.022-.324.295-.012.01-.335.283-.019.015-.346.258-.028.02-.377.236-.017.01-.379.215-.026.014-.394.189-.021.01-.406.167-.027.01-.417.141-.021.007-.435.12-.026.007-.444.094-.026.005-.45.067-.026.002-.457.04-.02.001-.456.018zm-.43-.87l.43.016.429-.016.434-.038.425-.063.418-.089.41-.114.393-.132.381-.158.371-.178.359-.203.354-.222.321-.241.319-.269.307-.279.276-.291.254-.314.244-.337.227-.345.2-.357.181-.366.156-.379.136-.388.106-.403.09-.415.059-.429.047-.428.01-.423-.01-.422-.047-.431-.06-.429-.09-.412-.105-.404-.137-.391-.155-.38-.181-.365-.2-.357-.226-.345-.245-.334-.254-.314-.277-.291-.307-.283-.317-.265-.322-.243-.354-.22-.361-.203-.368-.18-.382-.155-.393-.135-.409-.112-.42-.088-.426-.066-.429-.039-.432-.01-.432.01-.432.039-.421.066-.426.088-.405.112-.398.136-.381.155-.365.178-.359.202-.343.222-.333.244-.31.262-.307.285-.282.295-.264.311-.236.332-.231.346-.194.353-.175.365-.152.382-.143.399-.113.402-.089.41-.064.423-.034.43-.013.427.013.427.034.428.064.423.089.413.113.401.143.395.152.383.175.365.194.353.235.351.232.33.264.31.282.296.306.282.313.265.33.242.347.223.356.203.366.177.38.158.398.132.406.114.424.089.42.063zm.43-2.35h-.016l-.28-.011-.031-.002-.282-.033-.024-.003-.278-.048a.382.382 0 0 1-.037-.008l-.275-.073-.021-.006-.274-.088c-.012-.003-.024-.008-.036-.013l-.26-.11-.022-.011-.257-.127a.3.3 0 0 1-.034-.019l-.239-.147-.02-.013-.237-.165-.023-.018-.222-.178a.335.335 0 0 1-.03-.027l-.208-.201-.014-.014-.2-.213a.26.26 0 0 1-.021-.024l-.185-.228a.412.412 0 0 1-.02-.03l-.165-.241-.014-.023-.148-.252-.012-.023-.132-.26-.014-.029-.11-.268-.012-.03-.092-.28-.006-.02-.077-.285a.538.538 0 0 1-.01-.041l-.048-.293-.003-.025-.032-.293-.002-.029-.011-.292a.336.336 0 0 1 0-.034l.011-.29.002-.028.031-.295.004-.026.049-.292.009-.04.077-.287.007-.024.092-.277.01-.028.11-.27.015-.032.132-.258.013-.024.147-.25.015-.024.164-.24.019-.026.184-.23a.384.384 0 0 1 .024-.028l.2-.21.014-.014.207-.201.024-.021.222-.185a.371.371 0 0 1 .03-.022l.238-.165.02-.014.239-.145a.4.4 0 0 1 .035-.019l.257-.124.018-.009.26-.11a.48.48 0 0 1 .037-.015l.274-.088.024-.007.273-.07.025-.006.28-.054a.37.37 0 0 1 .044-.006l.281-.025.024-.002.28-.008h.026l.282.008.025.002.278.025a.342.342 0 0 1 .042.006l.284.054.025.006.275.07.028.008.266.088a.438.438 0 0 1 .035.014l.258.11.018.009.255.124a.316.316 0 0 1 .03.016l.247.144.032.021.23.164.025.02.223.184.019.016.216.2.025.025.194.212.02.023.182.229.01.014.176.241a.404.404 0 0 1 .024.038l.145.25.015.029.124.259.012.028.107.27.007.019.095.277.01.035.072.287.005.025.056.291.005.04.027.296.001.026.01.29v.026l-.01.292-.001.026-.027.293-.005.04-.056.293-.006.026-.071.284a.333.333 0 0 1-.01.033l-.095.28-.008.019-.106.269-.012.026-.124.26-.015.027-.144.252a.412.412 0 0 1-.025.038l-.174.242-.013.016-.182.228-.018.02-.195.214-.023.024-.216.202a.322.322 0 0 1-.026.021l-.224.18-.018.013-.23.165a.282.282 0 0 1-.031.02l-.247.147-.028.015-.256.127-.022.01-.258.11-.034.013-.266.088-.025.007-.274.073a.41.41 0 0 1-.038.008l-.284.049-.022.002-.279.033-.032.002-.282.01zm-.247-.863l.247.01.25-.01.25-.028.253-.043.243-.065.238-.078.23-.099.23-.114.218-.13.207-.147.202-.162.192-.178.174-.191.167-.209.155-.215.125-.218.111-.232.098-.245.086-.253.065-.255.049-.26.023-.26.008-.266-.008-.265-.023-.262-.05-.259-.064-.258-.086-.25-.098-.247-.11-.232-.125-.216-.157-.215-.167-.21-.172-.189-.194-.18-.203-.167-.203-.145-.217-.127-.232-.113-.232-.1-.235-.077-.248-.064-.25-.047-.244-.022-.256-.008-.253.008-.248.022-.246.047-.248.064-.242.078-.233.1-.229.11-.21.128-.212.147-.195.163-.19.183-.182.192-.162.203-.147.215-.134.227-.118.232-.098.24-.083.251-.07.257-.043.258-.028.268-.01.26.01.261.028.267.044.259.069.253.083.253.098.239.119.233.133.228.146.216.163.2.183.195.187.181.195.158.215.15.211.13.228.112.23.098.245.079.246.065.248.043zM84.24 128.763a.427.427 0 0 1-.426-.427v-4.493a.427.427 0 0 1 .853 0v4.493a.427.427 0 0 1-.427.427zm1.936-1.934h-.011a.427.427 0 0 1-.416-.438l.067-2.56a.426.426 0 1 1 .853.023l-.067 2.56a.426.426 0 0 1-.426.415zm50.301 1.934a.427.427 0 0 1-.427-.427v-4.493a.427.427 0 1 1 .853 0v4.493a.426.426 0 0 1-.426.427zm-22.698-.623h-6.839a6.86 6.86 0 0 1-5.267-2.456l-1.314-1.567a.427.427 0 1 1 .654-.548l1.314 1.567a6.009 6.009 0 0 0 4.613 2.15h6.839a6.008 6.008 0 0 0 4.613-2.151l1.314-1.566a.427.427 0 0 1 .654.548l-1.314 1.567a6.861 6.861 0 0 1-5.267 2.455z"/><path class="cls-4" d="M69.732 123.843v4.193a2.257 2.257 0 1 1-4.514 0v-4.193zm85.768 0v4.193a2.257 2.257 0 0 1-4.514 0v-4.193z"/><path class="cls-3" d="M159.694 124.27h-98.67a.427.427 0 0 1 0-.854h98.67a.427.427 0 0 1 0 .853z"/><path class="cls-8" d="M153.243 130.862a2.832 2.832 0 0 1-2.712-2.028.568.568 0 0 1-.275.07h-13.78a2.505 2.505 0 0 1-2.502-2.494l-.052-1.999h-13.45a2.19 2.19 0 0 1-.34.857l-1.495 2.215a7.654 7.654 0 0 1-6.352 3.379h-3.851a7.654 7.654 0 0 1-6.352-3.38l-1.493-2.212a2.206 2.206 0 0 1-.342-.859l-4.94.001a1.86 1.86 0 0 1-1.63.967h-6.905l-.027 1.031a2.507 2.507 0 0 1-2.505 2.495H70.462a.568.568 0 0 1-.275-.071 2.826 2.826 0 0 1-5.538-.798v-3.625h-3.623a.569.569 0 0 1-.514-.324l-1.726-3.633a.569.569 0 0 1-.265-.48v-60.3a.568.568 0 0 1 .167-.402l1.612-1.611a.57.57 0 0 1 .402-.167h5.8V56.29a.399.399 0 0 0-.398-.399h-2.257a.569.569 0 0 1-.568-.569v-2.257a1.537 1.537 0 0 1 1.534-1.536h14.19a1.537 1.537 0 0 1 1.535 1.528l.115 4.438h11.465l.117-4.438a1.537 1.537 0 0 1 1.535-1.528h33.18a1.538 1.538 0 0 1 1.537 1.528l.116 4.438h11.462l.117-4.438a1.538 1.538 0 0 1 1.536-1.528h14.188a1.537 1.537 0 0 1 1.536 1.536v2.257a.569.569 0 0 1-.569.57h-2.257a.399.399 0 0 0-.398.398v1.205h5.8a.57.57 0 0 1 .402.167l1.612 1.611a.568.568 0 0 1 .166.402v60.298a.568.568 0 0 1-.263.48l-1.725 3.633a.57.57 0 0 1-.514.325h-3.627v3.624a2.83 2.83 0 0 1-2.826 2.827zm-2.987-7.588h.73a.569.569 0 0 1 .569.569v4.193a1.689 1.689 0 1 0 3.377 0v-4.193a.569.569 0 0 1 .568-.57h3.836l1.683-3.544a.583.583 0 0 1 .042-.073V59.91l-1.279-1.278h-6.133a.57.57 0 0 1-.569-.569V56.29a1.538 1.538 0 0 1 1.536-1.536h1.689v-1.689a.399.399 0 0 0-.399-.398h-14.188a.4.4 0 0 0-.399.398v.015l-.131 4.999a.569.569 0 0 1-.569.554h-12.57a.569.569 0 0 1-.568-.554l-.132-4.999v-.015a.4.4 0 0 0-.4-.398H93.77a.398.398 0 0 0-.396.398v.015l-.133 4.999a.568.568 0 0 1-.568.554H80.1a.569.569 0 0 1-.569-.554l-.13-4.999v-.015a.399.399 0 0 0-.398-.398h-14.19a.398.398 0 0 0-.397.398v1.689h1.688a1.538 1.538 0 0 1 1.535 1.536v1.774a.569.569 0 0 1-.568.569h-6.133l-1.28 1.278v59.745a.618.618 0 0 1 .043.073l1.684 3.545h3.833a.569.569 0 0 1 .568.569v4.192a1.688 1.688 0 1 0 3.377 0v-4.192a.569.569 0 0 1 .57-.57h.73a.57.57 0 0 1 .568.57v3.924h13.21a1.368 1.368 0 0 0 1.366-1.365v-.015l.043-1.592a.569.569 0 0 1 .569-.553h7.458a.723.723 0 0 0 .698-.541.569.569 0 0 1 .55-.426l5.762-.001a.569.569 0 0 1 .435.203l.098.116a.574.574 0 0 1 .133.357l.002.12a1.049 1.049 0 0 0 .179.566l1.491 2.21a6.517 6.517 0 0 0 5.409 2.878h3.85a6.518 6.518 0 0 0 5.41-2.878l1.493-2.212a1.053 1.053 0 0 0 .177-.565l.003-.123a.573.573 0 0 1 .133-.353l.098-.116a.57.57 0 0 1 .436-.203h14.443a.569.569 0 0 1 .568.554l.066 2.56.001.014a1.367 1.367 0 0 0 1.365 1.365h13.21v-3.924a.57.57 0 0 1 .569-.57z"/></g></g></svg>